G04 #@! TF.FileFunction,Legend,Top*
%FSLAX46Y46*%
G04 Gerber Fmt 4.6, Leading zero omitted, Abs format (unit mm)*
G04 Created by KiCad (PCBNEW 4.0.7) date 07/23/18 19:42:36*
%MOMM*%
%LPD*%
G01*
G04 APERTURE LIST*
%ADD10C,0.100000*%
%ADD11C,0.150000*%
%ADD12C,0.300000*%
G04 APERTURE END LIST*
D10*
D11*
X135854713Y-84577686D02*
X135854713Y-85113400D01*
X135818999Y-85220543D01*
X135747570Y-85291971D01*
X135640427Y-85327686D01*
X135568999Y-85327686D01*
X136568999Y-85327686D02*
X136211856Y-85327686D01*
X136211856Y-84577686D01*
X137247571Y-85256257D02*
X137211857Y-85291971D01*
X137104714Y-85327686D01*
X137033285Y-85327686D01*
X136926142Y-85291971D01*
X136854714Y-85220543D01*
X136818999Y-85149114D01*
X136783285Y-85006257D01*
X136783285Y-84899114D01*
X136818999Y-84756257D01*
X136854714Y-84684829D01*
X136926142Y-84613400D01*
X137033285Y-84577686D01*
X137104714Y-84577686D01*
X137211857Y-84613400D01*
X137247571Y-84649114D01*
X137783285Y-84577686D02*
X137783285Y-85113400D01*
X137747571Y-85220543D01*
X137676142Y-85291971D01*
X137568999Y-85327686D01*
X137497571Y-85327686D01*
X138497571Y-85327686D02*
X138140428Y-85327686D01*
X138140428Y-84577686D01*
X139176143Y-85256257D02*
X139140429Y-85291971D01*
X139033286Y-85327686D01*
X138961857Y-85327686D01*
X138854714Y-85291971D01*
X138783286Y-85220543D01*
X138747571Y-85149114D01*
X138711857Y-85006257D01*
X138711857Y-84899114D01*
X138747571Y-84756257D01*
X138783286Y-84684829D01*
X138854714Y-84613400D01*
X138961857Y-84577686D01*
X139033286Y-84577686D01*
X139140429Y-84613400D01*
X139176143Y-84649114D01*
X139711857Y-84577686D02*
X139711857Y-85113400D01*
X139676143Y-85220543D01*
X139604714Y-85291971D01*
X139497571Y-85327686D01*
X139426143Y-85327686D01*
X140426143Y-85327686D02*
X140069000Y-85327686D01*
X140069000Y-84577686D01*
X141104715Y-85256257D02*
X141069001Y-85291971D01*
X140961858Y-85327686D01*
X140890429Y-85327686D01*
X140783286Y-85291971D01*
X140711858Y-85220543D01*
X140676143Y-85149114D01*
X140640429Y-85006257D01*
X140640429Y-84899114D01*
X140676143Y-84756257D01*
X140711858Y-84684829D01*
X140783286Y-84613400D01*
X140890429Y-84577686D01*
X140961858Y-84577686D01*
X141069001Y-84613400D01*
X141104715Y-84649114D01*
X141640429Y-84577686D02*
X141640429Y-85113400D01*
X141604715Y-85220543D01*
X141533286Y-85291971D01*
X141426143Y-85327686D01*
X141354715Y-85327686D01*
X142354715Y-85327686D02*
X141997572Y-85327686D01*
X141997572Y-84577686D01*
X143033287Y-85256257D02*
X142997573Y-85291971D01*
X142890430Y-85327686D01*
X142819001Y-85327686D01*
X142711858Y-85291971D01*
X142640430Y-85220543D01*
X142604715Y-85149114D01*
X142569001Y-85006257D01*
X142569001Y-84899114D01*
X142604715Y-84756257D01*
X142640430Y-84684829D01*
X142711858Y-84613400D01*
X142819001Y-84577686D01*
X142890430Y-84577686D01*
X142997573Y-84613400D01*
X143033287Y-84649114D01*
D12*
X135708915Y-83052457D02*
X136208915Y-83052457D01*
X136423201Y-83838171D02*
X135708915Y-83838171D01*
X135708915Y-82338171D01*
X136423201Y-82338171D01*
X137066058Y-83838171D02*
X137066058Y-82838171D01*
X137066058Y-83123886D02*
X137137486Y-82981029D01*
X137208915Y-82909600D01*
X137351772Y-82838171D01*
X137494629Y-82838171D01*
X138637486Y-82838171D02*
X138637486Y-84052457D01*
X138566057Y-84195314D01*
X138494629Y-84266743D01*
X138351772Y-84338171D01*
X138137486Y-84338171D01*
X137994629Y-84266743D01*
X138637486Y-83766743D02*
X138494629Y-83838171D01*
X138208915Y-83838171D01*
X138066057Y-83766743D01*
X137994629Y-83695314D01*
X137923200Y-83552457D01*
X137923200Y-83123886D01*
X137994629Y-82981029D01*
X138066057Y-82909600D01*
X138208915Y-82838171D01*
X138494629Y-82838171D01*
X138637486Y-82909600D01*
X139566058Y-83838171D02*
X139423200Y-83766743D01*
X139351772Y-83695314D01*
X139280343Y-83552457D01*
X139280343Y-83123886D01*
X139351772Y-82981029D01*
X139423200Y-82909600D01*
X139566058Y-82838171D01*
X139780343Y-82838171D01*
X139923200Y-82909600D01*
X139994629Y-82981029D01*
X140066058Y-83123886D01*
X140066058Y-83552457D01*
X139994629Y-83695314D01*
X139923200Y-83766743D01*
X139780343Y-83838171D01*
X139566058Y-83838171D01*
X140494629Y-82338171D02*
X141351772Y-82338171D01*
X140923201Y-83838171D02*
X140923201Y-82338171D01*
X141851772Y-83838171D02*
X141851772Y-82838171D01*
X141851772Y-83123886D02*
X141923200Y-82981029D01*
X141994629Y-82909600D01*
X142137486Y-82838171D01*
X142280343Y-82838171D01*
X143423200Y-83838171D02*
X143423200Y-83052457D01*
X143351771Y-82909600D01*
X143208914Y-82838171D01*
X142923200Y-82838171D01*
X142780343Y-82909600D01*
X143423200Y-83766743D02*
X143280343Y-83838171D01*
X142923200Y-83838171D01*
X142780343Y-83766743D01*
X142708914Y-83623886D01*
X142708914Y-83481029D01*
X142780343Y-83338171D01*
X142923200Y-83266743D01*
X143280343Y-83266743D01*
X143423200Y-83195314D01*
X143994629Y-82838171D02*
X144351772Y-83838171D01*
X144708914Y-82838171D01*
X145851771Y-83766743D02*
X145708914Y-83838171D01*
X145423200Y-83838171D01*
X145280343Y-83766743D01*
X145208914Y-83623886D01*
X145208914Y-83052457D01*
X145280343Y-82909600D01*
X145423200Y-82838171D01*
X145708914Y-82838171D01*
X145851771Y-82909600D01*
X145923200Y-83052457D01*
X145923200Y-83195314D01*
X145208914Y-83338171D01*
X146780343Y-83838171D02*
X146637485Y-83766743D01*
X146566057Y-83623886D01*
X146566057Y-82338171D01*
M02*
