M48
;DRILL file {KiCad (5.0.0)} date 11/10/19 17:08:55
;FORMAT={-:-/ absolute / inch / decimal}
FMAT,2
INCH,TZ
T1C0.0118
T2C0.0157
T3C0.0276
T4C0.0315
T5C0.0394
T6C0.0430
T7C0.0472
%
G90
G05
M72
T1
X6.7546Y-1.99
X6.7546Y-1.99
X6.79Y-1.99
X6.79Y-1.99
T2
X3.035Y-2.975
X3.035Y-3.715
X3.035Y-4.47
X3.04Y-2.305
X3.12Y-4.27
X3.145Y-3.515
X3.15Y-2.415
X3.15Y-2.895
X3.155Y-3.185
X3.16Y-2.755
X3.16Y-4.085
X3.185Y-4.515
X3.19Y-2.265
X3.19Y-3.015
X3.19Y-3.9
X3.195Y-3.765
X3.23Y-2.09
X3.245Y-2.295
X3.245Y-3.375
X3.25Y-3.05
X3.25Y-3.485
X3.26Y-4.12
X3.265Y-3.795
X3.275Y-4.54
X3.325Y-2.135
X3.33Y-2.895
X3.335Y-4.39
X3.34Y-2.135
X3.35Y-2.29
X3.365Y-3.785
X3.365Y-4.535
X3.37Y-3.915
X3.375Y-3.04
X3.425Y-2.71
X3.515Y-2.15
X3.57Y-2.725
X3.575Y-2.265
X3.865Y-2.7
X3.865Y-2.805
X3.9Y-2.37
X3.925Y-2.81
X3.94Y-2.725
X3.955Y-4.115
X3.975Y-2.775
X3.985Y-3.095
X3.99Y-3.83
X3.99Y-2.24
X4.02Y-2.53
X4.035Y-3.79
X4.035Y-4.45
X4.045Y-3.03
X4.045Y-3.555
X4.08Y-4.3
X4.095Y-2.815
X4.145Y-3.69
X4.15Y-2.95
X4.155Y-4.495
X4.16Y-2.24
X4.2Y-2.225
X4.21Y-3.67
X4.215Y-2.925
X4.215Y-3.11
X4.215Y-4.45
X4.22Y-2.475
X4.225Y-3.235
X4.235Y-3.835
X4.26Y-4.3
X4.275Y-2.81
X4.285Y-3.555
X4.365Y-2.19
X4.385Y-2.925
X4.385Y-3.675
X4.385Y-4.415
X4.43Y-2.82
X4.45Y-1.9772
X4.45Y-2.1228
X4.45Y-2.1228
X4.515Y-2.69
X4.52Y-4.33
X4.535Y-3.525
X4.545Y-2.385
X4.555Y-2.195
X4.565Y-2.875
X4.685Y-2.915
X4.685Y-3.575
X4.69Y-2.83
X4.695Y-2.195
X4.695Y-3.755
X4.7Y-4.01
X4.7Y-4.33
X4.715Y-3.61
X4.73Y-2.14
X4.74Y-2.905
X4.74Y-4.38
X4.785Y-3.69
X4.795Y-1.915
X4.795Y-1.95
X4.82Y-4.35
X4.855Y-2.19
X4.86Y-3.595
X4.865Y-2.85
X4.945Y-4.03
X4.95Y-2.245
X4.96Y-2.655
X4.99Y-3.755
X4.995Y-3.6
X5.07Y-4.045
X5.155Y-2.935
X5.175Y-2.8246
X5.18Y-2.695
X5.32Y-1.87
X5.34Y-3.505
X5.35Y-2.61
X5.365Y-2.47
X5.365Y-4.065
X5.365Y-4.855
X5.37Y-3.355
X5.41Y-2.68
X5.415Y-2.305
X5.42Y-2.49
X5.425Y-3.8
X5.435Y-3.21
X5.445Y-4.965
X5.455Y-1.93
X5.47Y-2.8
X5.49Y-4.305
X5.495Y-2.06
X5.495Y-2.355
X5.495Y-2.76
X5.495Y-3.065
X5.495Y-3.595
X5.52Y-4.97
X5.54Y-3.845
X5.555Y-4.13
X5.56Y-3.34
X5.57Y-2.855
X5.58Y-2.605
X5.61Y-4.26
X5.615Y-3.505
X5.64Y-4.585
X5.65Y-4.915
X5.655Y-3.06
X5.665Y-2.05
X5.67Y-2.36
X5.675Y-3.975
X5.71Y-3.485
X5.71Y-3.745
X5.71Y-4.235
X5.72Y-4.555
X5.725Y-2.76
X5.73Y-2.46
X5.73Y-4.135
X5.735Y-2.91
X5.735Y-4.745
X5.76Y-2.61
X5.79Y-3.34
X5.835Y-4.19
X5.84Y-4.965
X5.845Y-3.435
X5.901Y-4.24
X5.925Y-4.13
X6.Y-3.015
X6.06Y-3.17
X6.1Y-3.315
X6.195Y-3.75
X6.235Y-2.14
X6.235Y-2.895
X6.24Y-3.44
X6.24Y-3.645
X6.245Y-3.
X6.25Y-3.165
X6.35Y-2.73
X6.37Y-2.845
X6.415Y-3.645
X6.42Y-2.14
X6.425Y-4.06
X6.43Y-4.845
X6.435Y-2.41
X6.455Y-2.075
X6.46Y-2.575
X6.46Y-2.715
X6.47Y-3.615
X6.48Y-2.95
X6.5046Y-2.825
X6.55Y-3.535
X6.55Y-4.26
X6.57Y-2.125
X6.585Y-2.825
X6.595Y-4.415
X6.64Y-4.845
X6.68Y-4.32
X6.68Y-4.43
X6.78Y-4.62
X6.86Y-3.845
X6.895Y-4.77
X6.91Y-3.09
X6.94Y-4.885
X6.975Y-2.235
X6.985Y-2.04
X6.985Y-2.99
X6.995Y-3.74
X7.02Y-1.915
X7.02Y-3.085
X7.045Y-3.565
X7.115Y-2.94
X7.12Y-3.275
X7.13Y-4.885
X7.16Y-3.74
X7.165Y-2.235
X7.195Y-2.925
X7.195Y-3.415
X7.2Y-2.465
X7.205Y-2.175
X7.21Y-3.715
X7.22Y-3.085
X7.23Y-3.835
X7.28Y-4.885
X7.305Y-4.825
X7.33Y-2.87
X7.375Y-3.67
X7.39Y-2.175
X7.4399Y-4.2901
X7.535Y-3.79
X7.545Y-4.055
X7.56Y-2.305
X7.56Y-3.06
X7.62Y-4.26
X7.6554Y-2.0627
X7.69Y-2.355
X7.695Y-3.11
X7.71Y-2.665
X7.7422Y-2.0627
X7.76Y-2.375
X7.785Y-3.125
X7.795Y-4.175
X7.83Y-1.94
X7.9015Y-2.0627
X7.915Y-2.42
X7.93Y-3.175
X7.97Y-3.935
X8.015Y-2.06
X8.06Y-3.89
T3
X5.95Y-4.3585
X5.95Y-4.6656
X3.7Y-3.8965
X3.7Y-4.2035
X6.7Y-3.7
X6.7Y-4.0071
X7.05Y-4.4179
X7.05Y-4.725
X3.7Y-3.1465
X3.7Y-3.4535
X5.2Y-3.6965
X5.2Y-4.0035
X5.2Y-4.4585
X5.2Y-4.7656
X7.2Y-4.4094
X7.2Y-4.7165
X4.45Y-3.8085
X4.45Y-4.1156
X3.675Y-4.6344
X3.675Y-4.9415
X5.15Y-2.2094
X5.15Y-2.5165
X7.45Y-3.7652
X7.45Y-4.0722
X7.45Y-2.3028
X7.45Y-2.6098
X5.95Y-3.6215
X5.95Y-3.9285
X5.95Y-3.1465
X5.95Y-3.4535
X3.675Y-2.3965
X3.675Y-2.7035
X6.1Y-4.3594
X6.1Y-4.6665
X7.45Y-3.0465
X7.45Y-3.3535
X6.7Y-2.9715
X6.7Y-3.2785
X5.175Y-3.1465
X5.175Y-3.4535
X6.Y-2.2179
X6.Y-2.525
X6.7Y-2.2085
X6.7Y-2.5156
X7.7465Y-3.8
X8.0535Y-3.8
X7.75Y-3.7
X8.0571Y-3.7
X4.45Y-4.5465
X4.45Y-4.8535
X4.45Y-3.0652
X4.45Y-3.3722
X7.7028Y-3.
X8.0098Y-3.
X4.45Y-2.2965
X4.45Y-2.6035
T4
X6.8831Y-1.93
X7.2831Y-1.93
X6.8844Y-2.06
X7.2844Y-2.06
T5
X7.Y-4.3
X7.1Y-4.3
X3.6515Y-2.1045
X3.75Y-2.0872
X3.8485Y-2.0698
X3.947Y-2.0524
X4.0454Y-2.0351
X4.1439Y-2.0177
X5.05Y-1.9
X5.05Y-2.
X6.14Y-1.92
X6.24Y-1.92
X6.34Y-1.92
X6.44Y-1.92
X6.54Y-1.92
T6
X5.2764Y-1.9706
X5.2764Y-2.0706
X5.2764Y-2.1706
X5.2764Y-2.2706
X5.2764Y-2.3706
X5.2764Y-2.4706
X5.2764Y-2.5706
X5.2764Y-2.6706
X5.2764Y-2.7706
X5.2764Y-2.8706
X5.2764Y-2.9706
X5.2764Y-3.0706
X5.8764Y-1.9706
X5.8764Y-2.0706
X5.8764Y-2.1706
X5.8764Y-2.2706
X5.8764Y-2.3706
X5.8764Y-2.4706
X5.8764Y-2.5706
X5.8764Y-2.6706
X5.8764Y-2.7706
X5.8764Y-2.8706
X5.8764Y-2.9706
X5.8764Y-3.0706
T7
X5.3788Y-3.1359
X5.5757Y-3.2186
X5.7725Y-3.1359
X7.5273Y-5.2146
X7.6973Y-5.0855
X7.7242Y-4.8736
X7.6291Y-2.7596
X7.8259Y-2.8422
X8.0228Y-2.7596
X3.8794Y-3.3281
X4.0762Y-3.4108
X4.2731Y-3.3281
X3.127Y-4.1696
X3.3238Y-4.2523
X3.5207Y-4.1696
X4.6248Y-3.9797
X4.8216Y-4.0624
X5.0185Y-3.9797
X6.1273Y-3.232
X6.3242Y-3.3147
X6.521Y-3.232
X3.8794Y-4.0735
X4.0762Y-4.1562
X4.2731Y-4.0735
X6.3645Y-4.7754
X6.544Y-4.891
X6.7522Y-4.8438
X6.8774Y-4.0735
X7.0742Y-4.1562
X7.2711Y-4.0735
X4.6271Y-3.232
X4.824Y-3.3147
X5.0208Y-3.232
X5.3803Y-2.3858
X5.5772Y-2.4685
X5.774Y-2.3858
X6.1273Y-2.4796
X6.3242Y-2.5622
X6.521Y-2.4796
X3.127Y-4.9173
X3.3238Y-5.
X3.5207Y-4.9173
X4.6271Y-2.4772
X4.824Y-2.5599
X5.0208Y-2.4772
X6.8797Y-3.3257
X7.0766Y-3.4084
X7.2734Y-3.3257
X4.6287Y-4.7322
X4.8256Y-4.8148
X5.0224Y-4.7322
X3.127Y-3.4195
X3.3238Y-3.5022
X3.5207Y-3.4195
X3.877Y-4.8259
X4.0739Y-4.9086
X4.2707Y-4.8259
X6.1273Y-3.9797
X6.3242Y-4.0624
X6.521Y-3.9797
X3.1277Y-2.6671
X3.3246Y-2.7498
X3.5214Y-2.6671
X6.8774Y-2.5733
X7.0742Y-2.656
X7.2711Y-2.5733
X7.9039Y-4.5632
X8.0739Y-4.4341
X8.1007Y-4.2223
X5.3772Y-4.6384
X5.5741Y-4.7211
X5.7709Y-4.6384
X7.6275Y-3.5109
X7.8243Y-3.5936
X8.0212Y-3.5109
X5.3796Y-3.8883
X5.5764Y-3.971
X5.7733Y-3.8883
X3.8794Y-2.5757
X4.0762Y-2.6583
X4.2731Y-2.5757
T0
M30
