M48
;DRILL file {KiCad (5.0.0)} date 04/30/19 00:35:43
;FORMAT={-:-/ absolute / inch / decimal}
FMAT,2
INCH,TZ
T1C0.0118
T2C0.0157
T3C0.0276
T4C0.0315
T5C0.0394
T6C0.0430
T7C0.0472
%
G90
G05
M72
T1
X6.7546Y-1.99
X6.7546Y-1.99
X6.79Y-1.99
X6.79Y-1.99
T2
X3.0643Y-3.015
X3.065Y-2.265
X3.065Y-3.765
X3.065Y-4.515
X3.12Y-4.27
X3.144Y-4.5152
X3.145Y-2.265
X3.145Y-3.015
X3.145Y-3.515
X3.1454Y-3.765
X3.15Y-2.415
X3.15Y-2.895
X3.155Y-3.185
X3.16Y-2.755
X3.16Y-4.085
X3.19Y-3.9
X3.2046Y-2.135
X3.245Y-3.375
X3.25Y-3.485
X3.26Y-4.12
X3.285Y-2.135
X3.285Y-2.335
X3.2861Y-3.0883
X3.2871Y-3.835
X3.2886Y-4.5852
X3.33Y-2.895
X3.335Y-4.39
X3.3619Y-3.0883
X3.365Y-2.335
X3.365Y-3.835
X3.365Y-4.585
X3.37Y-3.915
X3.3946Y-2.135
X3.425Y-2.71
X3.475Y-2.135
X3.57Y-2.725
X3.575Y-2.265
X3.865Y-2.805
X3.87Y-2.68
X3.9Y-2.37
X3.925Y-2.81
X3.94Y-2.725
X3.955Y-4.115
X3.975Y-2.775
X3.985Y-3.095
X3.99Y-3.83
X4.02Y-2.53
X4.035Y-2.24
X4.0371Y-2.99
X4.0371Y-3.74
X4.0371Y-4.495
X4.045Y-3.555
X4.08Y-4.3
X4.095Y-2.815
X4.11Y-2.24
X4.1129Y-2.99
X4.1129Y-4.495
X4.115Y-3.74
X4.215Y-3.11
X4.22Y-2.475
X4.225Y-3.235
X4.235Y-2.19
X4.235Y-3.835
X4.2546Y-2.925
X4.2546Y-4.42
X4.255Y-3.67
X4.26Y-4.3
X4.275Y-2.81
X4.285Y-3.555
X4.315Y-2.19
X4.3354Y-2.925
X4.3354Y-4.42
X4.3357Y-3.67
X4.43Y-2.82
X4.45Y-1.9772
X4.45Y-2.1228
X4.45Y-2.1228
X4.515Y-2.69
X4.545Y-2.385
X4.56Y-3.575
X4.5646Y-2.83
X4.565Y-4.33
X4.5896Y-2.24
X4.64Y-3.575
X4.645Y-4.33
X4.6457Y-2.83
X4.6704Y-2.24
X4.685Y-2.915
X4.695Y-3.755
X4.7Y-4.01
X4.715Y-3.61
X4.785Y-2.145
X4.785Y-2.9
X4.785Y-3.645
X4.785Y-4.395
X4.795Y-1.915
X4.795Y-1.95
X4.795Y-2.685
X4.86Y-3.645
X4.8608Y-2.145
X4.8629Y-2.9
X4.865Y-4.395
X4.945Y-4.03
X4.95Y-2.245
X4.96Y-2.655
X4.99Y-3.755
X4.995Y-3.6
X5.07Y-4.045
X5.155Y-2.935
X5.175Y-2.82
X5.18Y-2.695
X5.32Y-1.87
X5.34Y-3.505
X5.35Y-2.61
X5.3636Y-4.9132
X5.365Y-2.47
X5.365Y-3.06
X5.365Y-4.065
X5.37Y-3.355
X5.405Y-2.925
X5.41Y-2.68
X5.415Y-2.305
X5.42Y-2.49
X5.425Y-3.8
X5.435Y-3.21
X5.445Y-4.915
X5.455Y-1.93
X5.47Y-2.8
X5.525Y-4.915
X5.53Y-4.305
X5.535Y-2.8
X5.535Y-3.105
X5.535Y-3.555
X5.54Y-2.05
X5.54Y-2.355
X5.54Y-3.845
X5.555Y-4.13
X5.56Y-3.34
X5.58Y-2.605
X5.605Y-4.915
X5.61Y-4.305
X5.615Y-2.8
X5.615Y-3.105
X5.615Y-3.555
X5.62Y-2.05
X5.62Y-2.36
X5.64Y-4.585
X5.675Y-3.975
X5.71Y-3.745
X5.72Y-4.555
X5.725Y-2.76
X5.73Y-2.46
X5.73Y-4.135
X5.735Y-2.91
X5.735Y-4.745
X5.755Y-3.485
X5.755Y-4.235
X5.76Y-2.61
X5.79Y-3.34
X5.8Y-4.965
X5.835Y-3.485
X5.835Y-4.235
X5.901Y-4.24
X5.925Y-4.13
X6.Y-3.015
X6.06Y-3.17
X6.1Y-3.315
X6.195Y-3.75
X6.24Y-3.44
X6.245Y-3.
X6.25Y-3.165
X6.285Y-2.14
X6.285Y-2.895
X6.285Y-3.645
X6.3629Y-3.645
X6.365Y-2.14
X6.365Y-2.895
X6.425Y-4.06
X6.43Y-4.845
X6.435Y-2.41
X6.46Y-2.575
X6.48Y-2.95
X6.5046Y-2.825
X6.5046Y-3.575
X6.505Y-2.075
X6.58Y-4.475
X6.585Y-2.075
X6.585Y-2.825
X6.585Y-3.575
X6.5996Y-4.2675
X6.64Y-4.845
X6.655Y-4.485
X6.68Y-4.27
X6.78Y-4.62
X6.86Y-3.845
X6.895Y-4.77
X6.91Y-3.09
X6.985Y-2.04
X6.985Y-4.885
X7.02Y-1.915
X7.02Y-3.085
X7.035Y-2.235
X7.035Y-2.99
X7.035Y-3.74
X7.045Y-3.565
X7.075Y-4.885
X7.115Y-2.235
X7.115Y-2.99
X7.115Y-3.74
X7.12Y-3.275
X7.195Y-3.415
X7.22Y-3.085
X7.23Y-3.835
X7.25Y-2.925
X7.25Y-3.67
X7.2546Y-2.17
X7.315Y-4.915
X7.33Y-2.925
X7.33Y-3.67
X7.3354Y-2.17
X7.355Y-4.845
X7.435Y-4.295
X7.535Y-3.79
X7.545Y-4.055
X7.5646Y-2.355
X7.57Y-3.11
X7.6454Y-2.355
X7.65Y-3.11
X7.6554Y-2.0627
X7.695Y-4.26
X7.735Y-4.19
X7.7422Y-2.0627
X7.785Y-3.175
X7.7873Y-2.4193
X7.83Y-1.94
X7.865Y-2.42
X7.865Y-3.175
X7.9015Y-2.0627
X8.015Y-2.06
X8.025Y-3.935
X8.105Y-3.935
T3
X3.675Y-4.6344
X3.675Y-4.9415
X7.45Y-2.3028
X7.45Y-2.6098
X5.175Y-3.1465
X5.175Y-3.4535
X5.95Y-3.6215
X5.95Y-3.9285
X3.7Y-3.1465
X3.7Y-3.4535
X5.95Y-4.3585
X5.95Y-4.6656
X4.45Y-3.0652
X4.45Y-3.3722
X7.75Y-3.7
X8.0571Y-3.7
X6.7Y-2.9715
X6.7Y-3.2785
X3.675Y-2.3965
X3.675Y-2.7035
X3.7Y-3.8965
X3.7Y-4.2035
X7.2Y-4.4094
X7.2Y-4.7165
X7.7028Y-3.
X8.0098Y-3.
X7.7465Y-3.8
X8.0535Y-3.8
X7.45Y-3.7652
X7.45Y-4.0722
X7.45Y-3.0465
X7.45Y-3.3535
X5.2Y-4.4585
X5.2Y-4.7656
X5.2Y-3.6965
X5.2Y-4.0035
X6.7Y-2.2085
X6.7Y-2.5156
X4.45Y-2.2965
X4.45Y-2.6035
X5.15Y-2.2094
X5.15Y-2.5165
X4.45Y-4.5465
X4.45Y-4.8535
X5.95Y-3.1465
X5.95Y-3.4535
X6.1Y-4.3594
X6.1Y-4.6665
X7.05Y-4.4179
X7.05Y-4.725
X4.45Y-3.8085
X4.45Y-4.1156
X6.Y-2.2179
X6.Y-2.525
X6.7Y-3.7
X6.7Y-4.0071
T4
X6.8831Y-1.93
X7.2831Y-1.93
X6.8844Y-2.06
X7.2844Y-2.06
T5
X3.6515Y-2.1045
X3.75Y-2.0872
X3.8485Y-2.0698
X3.947Y-2.0524
X4.0454Y-2.0351
X4.1439Y-2.0177
X5.05Y-1.9
X5.05Y-2.
X6.14Y-1.92
X6.24Y-1.92
X6.34Y-1.92
X6.44Y-1.92
X6.54Y-1.92
X7.Y-4.3
X7.1Y-4.3
T6
X5.2764Y-1.9706
X5.2764Y-2.0706
X5.2764Y-2.1706
X5.2764Y-2.2706
X5.2764Y-2.3706
X5.2764Y-2.4706
X5.2764Y-2.5706
X5.2764Y-2.6706
X5.2764Y-2.7706
X5.2764Y-2.8706
X5.2764Y-2.9706
X5.2764Y-3.0706
X5.8764Y-1.9706
X5.8764Y-2.0706
X5.8764Y-2.1706
X5.8764Y-2.2706
X5.8764Y-2.3706
X5.8764Y-2.4706
X5.8764Y-2.5706
X5.8764Y-2.6706
X5.8764Y-2.7706
X5.8764Y-2.8706
X5.8764Y-2.9706
X5.8764Y-3.0706
T7
X3.8794Y-2.5757
X4.0762Y-2.6583
X4.2731Y-2.5757
X4.6271Y-3.232
X4.824Y-3.3147
X5.0208Y-3.232
X3.8794Y-3.3281
X4.0762Y-3.4108
X4.2731Y-3.3281
X5.3803Y-2.3858
X5.5772Y-2.4685
X5.774Y-2.3858
X4.6248Y-3.9797
X4.8216Y-4.0624
X5.0185Y-3.9797
X3.127Y-4.9173
X3.3238Y-5.
X3.5207Y-4.9173
X4.6271Y-2.4772
X4.824Y-2.5599
X5.0208Y-2.4772
X3.877Y-4.8259
X4.0739Y-4.9086
X4.2707Y-4.8259
X3.127Y-3.4195
X3.3238Y-3.5022
X3.5207Y-3.4195
X6.1273Y-2.4796
X6.3242Y-2.5622
X6.521Y-2.4796
X3.127Y-4.1696
X3.3238Y-4.2523
X3.5207Y-4.1696
X7.6275Y-3.5109
X7.8243Y-3.5936
X8.0212Y-3.5109
X6.8797Y-3.3257
X7.0766Y-3.4084
X7.2734Y-3.3257
X6.1273Y-3.9797
X6.3242Y-4.0624
X6.521Y-3.9797
X3.1277Y-2.6671
X3.3246Y-2.7498
X3.5214Y-2.6671
X6.8774Y-4.0735
X7.0742Y-4.1562
X7.2711Y-4.0735
X7.9039Y-4.5632
X8.0739Y-4.4341
X8.1007Y-4.2223
X4.6287Y-4.7322
X4.8256Y-4.8148
X5.0224Y-4.7322
X5.3788Y-3.1359
X5.5757Y-3.2186
X5.7725Y-3.1359
X7.5273Y-5.2146
X7.6973Y-5.0855
X7.7242Y-4.8736
X7.6291Y-2.7596
X7.8259Y-2.8422
X8.0228Y-2.7596
X5.3772Y-4.6384
X5.5741Y-4.7211
X5.7709Y-4.6384
X6.8774Y-2.5733
X7.0742Y-2.656
X7.2711Y-2.5733
X6.1273Y-3.232
X6.3242Y-3.3147
X6.521Y-3.232
X5.3796Y-3.8883
X5.5764Y-3.971
X5.7733Y-3.8883
X3.8794Y-4.0735
X4.0762Y-4.1562
X4.2731Y-4.0735
X6.3645Y-4.7754
X6.544Y-4.891
X6.7522Y-4.8438
T0
M30
