G04 #@! TF.GenerationSoftware,KiCad,Pcbnew,(5.0.0)*
G04 #@! TF.CreationDate,2019-11-10T17:08:52-06:00*
G04 #@! TF.ProjectId,ErgoTravel,4572676F54726176656C2E6B69636164,rev?*
G04 #@! TF.SameCoordinates,Original*
G04 #@! TF.FileFunction,Legend,Bot*
G04 #@! TF.FilePolarity,Positive*
%FSLAX46Y46*%
G04 Gerber Fmt 4.6, Leading zero omitted, Abs format (unit mm)*
G04 Created by KiCad (PCBNEW (5.0.0)) date 11/10/19 17:08:52*
%MOMM*%
%LPD*%
G01*
G04 APERTURE LIST*
%ADD10C,0.150000*%
%ADD11C,0.100000*%
%ADD12C,0.200000*%
%ADD13C,0.250000*%
%ADD14C,0.120000*%
%ADD15C,0.381000*%
G04 APERTURE END LIST*
D10*
X120659666Y-47246333D02*
X120793000Y-47246333D01*
X120859666Y-47213000D01*
X120926333Y-47146333D01*
X120959666Y-47013000D01*
X120959666Y-46779666D01*
X120926333Y-46646333D01*
X120859666Y-46579666D01*
X120793000Y-46546333D01*
X120659666Y-46546333D01*
X120593000Y-46579666D01*
X120526333Y-46646333D01*
X120493000Y-46779666D01*
X120493000Y-47013000D01*
X120526333Y-47146333D01*
X120593000Y-47213000D01*
X120659666Y-47246333D01*
X122293000Y-47279666D02*
X121693000Y-46379666D01*
X123059666Y-46546333D02*
X123059666Y-47246333D01*
D11*
X120991166Y-63245628D02*
X120738628Y-63498166D01*
X121268958Y-64028496D01*
X121167943Y-63068851D02*
X121521497Y-63422405D01*
X121698273Y-63599182D02*
X121647766Y-63599182D01*
X121647766Y-63548674D01*
X121698273Y-63548674D01*
X121698273Y-63599182D01*
X121647766Y-63548674D01*
X121420481Y-62816313D02*
X121950811Y-63346643D01*
X122152842Y-63144613D01*
X122178096Y-63068851D01*
X122178096Y-63018344D01*
X122152842Y-62942582D01*
X122077080Y-62866821D01*
X122001319Y-62841567D01*
X121950811Y-62841567D01*
X121875050Y-62866821D01*
X121673019Y-63068851D01*
X122026573Y-62210222D02*
X122001319Y-62285983D01*
X122001319Y-62336491D01*
X122026573Y-62412252D01*
X122178096Y-62563775D01*
X122253857Y-62589029D01*
X122304365Y-62589029D01*
X122380126Y-62563775D01*
X122455888Y-62488014D01*
X122481141Y-62412252D01*
X122481141Y-62361745D01*
X122455888Y-62285983D01*
X122304365Y-62134460D01*
X122228603Y-62109207D01*
X122178096Y-62109207D01*
X122102334Y-62134460D01*
X122026573Y-62210222D01*
X123289263Y-61503115D02*
X123339771Y-61402100D01*
X123339771Y-61351592D01*
X123314517Y-61275831D01*
X123238756Y-61200069D01*
X123162994Y-61174815D01*
X123112487Y-61174815D01*
X123036725Y-61200069D01*
X122834695Y-61402100D01*
X123365025Y-61932430D01*
X123541802Y-61755653D01*
X123567055Y-61679892D01*
X123567055Y-61629384D01*
X123541802Y-61553623D01*
X123491294Y-61503115D01*
X123415533Y-61477861D01*
X123365025Y-61477861D01*
X123289263Y-61503115D01*
X123112487Y-61679892D01*
X123592309Y-60644485D02*
X123870101Y-60922277D01*
X123895355Y-60998039D01*
X123870101Y-61073800D01*
X123769086Y-61174815D01*
X123693324Y-61200069D01*
X123617563Y-60669739D02*
X123541802Y-60694993D01*
X123415533Y-60821262D01*
X123390279Y-60897023D01*
X123415533Y-60972785D01*
X123466040Y-61023293D01*
X123541802Y-61048546D01*
X123617563Y-61023293D01*
X123743832Y-60897023D01*
X123819594Y-60871770D01*
X124122639Y-60821262D02*
X124324670Y-60619232D01*
X124375177Y-60922277D02*
X123920609Y-60467709D01*
X123895355Y-60391947D01*
X123920609Y-60316186D01*
X123971116Y-60265678D01*
X124425685Y-60518216D02*
X124627716Y-60316186D01*
X124678223Y-60619232D02*
X124223655Y-60164663D01*
X124198401Y-60088901D01*
X124223655Y-60013140D01*
X124274162Y-59962632D01*
X124678223Y-59609079D02*
X124602462Y-59634333D01*
X124501447Y-59735348D01*
X124476193Y-59811109D01*
X124501447Y-59886871D01*
X124703477Y-60088901D01*
X124779238Y-60114155D01*
X124855000Y-60088901D01*
X124956015Y-59987886D01*
X124981269Y-59912125D01*
X124956015Y-59836363D01*
X124905508Y-59785856D01*
X124602462Y-59987886D01*
X124905508Y-59331287D02*
X125259061Y-59684840D01*
X125158046Y-59583825D02*
X125233807Y-59609079D01*
X125284315Y-59609079D01*
X125360076Y-59583825D01*
X125410584Y-59533318D01*
X125536853Y-59407048D02*
X125309569Y-58927226D01*
X125789391Y-59154510D02*
X125309569Y-58927226D01*
X125132792Y-58851465D01*
X125082284Y-58851465D01*
X125006523Y-58876718D01*
X125688376Y-58649434D02*
X125688376Y-58598926D01*
X125637868Y-58598926D01*
X125637868Y-58649434D01*
X125688376Y-58649434D01*
X125637868Y-58598926D01*
X125966168Y-58927226D02*
X125966168Y-58876718D01*
X125915660Y-58876718D01*
X125915660Y-58927226D01*
X125966168Y-58927226D01*
X125915660Y-58876718D01*
X120175468Y-62328914D02*
X120251229Y-62758229D01*
X119872422Y-62631960D02*
X120402752Y-63162290D01*
X120604783Y-62960260D01*
X120630037Y-62884498D01*
X120630037Y-62833991D01*
X120604783Y-62758229D01*
X120529021Y-62682468D01*
X120453260Y-62657214D01*
X120402752Y-62657214D01*
X120326991Y-62682468D01*
X120124960Y-62884498D01*
X120680544Y-62379422D02*
X120857321Y-62202645D01*
X120655291Y-61849092D02*
X120402752Y-62101630D01*
X120933082Y-62631960D01*
X121185621Y-62379422D01*
X120882575Y-61621808D02*
X121412905Y-62152138D01*
X121539174Y-62025869D01*
X121589682Y-61924853D01*
X121589682Y-61823838D01*
X121564428Y-61748077D01*
X121488666Y-61621808D01*
X121412905Y-61546046D01*
X121286636Y-61470285D01*
X121210874Y-61445031D01*
X121109859Y-61445031D01*
X121008844Y-61495539D01*
X120882575Y-61621808D01*
X122018996Y-60889447D02*
X122423057Y-60485386D01*
X122877626Y-59626756D02*
X123407956Y-60157087D01*
X123609987Y-59955056D01*
X123635241Y-59879295D01*
X123635241Y-59828787D01*
X123609987Y-59753026D01*
X123534225Y-59677264D01*
X123458464Y-59652010D01*
X123407956Y-59652010D01*
X123332195Y-59677264D01*
X123130164Y-59879295D01*
X123483718Y-59020665D02*
X123458464Y-59096426D01*
X123458464Y-59146934D01*
X123483718Y-59222695D01*
X123635241Y-59374218D01*
X123711002Y-59399472D01*
X123761510Y-59399472D01*
X123837271Y-59374218D01*
X123913032Y-59298457D01*
X123938286Y-59222695D01*
X123938286Y-59172188D01*
X123913032Y-59096426D01*
X123761510Y-58944903D01*
X123685748Y-58919650D01*
X123635241Y-58919650D01*
X123559479Y-58944903D01*
X123483718Y-59020665D01*
X123887779Y-58667112D02*
X123913032Y-58591350D01*
X124014048Y-58490335D01*
X124089809Y-58465081D01*
X124165571Y-58490335D01*
X124190824Y-58515589D01*
X124216078Y-58591350D01*
X124190824Y-58667112D01*
X124115063Y-58742873D01*
X124089809Y-58818634D01*
X124115063Y-58894396D01*
X124140317Y-58919650D01*
X124216078Y-58944903D01*
X124291840Y-58919650D01*
X124367601Y-58843888D01*
X124392855Y-58768127D01*
X124317093Y-58187289D02*
X124670647Y-58540842D01*
X124847424Y-58717619D02*
X124796916Y-58717619D01*
X124796916Y-58667112D01*
X124847424Y-58667112D01*
X124847424Y-58717619D01*
X124796916Y-58667112D01*
X124847424Y-58364066D02*
X125049454Y-58162035D01*
X125099962Y-58465081D02*
X124645393Y-58010512D01*
X124620139Y-57934751D01*
X124645393Y-57858989D01*
X124695901Y-57808482D01*
X124872677Y-57631705D02*
X125226231Y-57985259D01*
X125403007Y-58162035D02*
X125352500Y-58162035D01*
X125352500Y-58111528D01*
X125403007Y-58111528D01*
X125403007Y-58162035D01*
X125352500Y-58111528D01*
X125428261Y-57783228D02*
X125200977Y-57303406D01*
X125680799Y-57530690D01*
X125756561Y-56798329D02*
X125680799Y-56823583D01*
X125579784Y-56924598D01*
X125554530Y-57000360D01*
X125579784Y-57076121D01*
X125781815Y-57278152D01*
X125857576Y-57303406D01*
X125933338Y-57278152D01*
X126034353Y-57177137D01*
X126059607Y-57101375D01*
X126034353Y-57025614D01*
X125983845Y-56975106D01*
X125680799Y-57177137D01*
X126665698Y-56545791D02*
X126867729Y-56343761D01*
X126918236Y-56646806D02*
X126463668Y-56192238D01*
X126438414Y-56116476D01*
X126463668Y-56040715D01*
X126514175Y-55990207D01*
X126766713Y-55737669D02*
X126741460Y-55813431D01*
X126741460Y-55863938D01*
X126766713Y-55939700D01*
X126918236Y-56091223D01*
X126993998Y-56116476D01*
X127044505Y-56116476D01*
X127120267Y-56091223D01*
X127196028Y-56015461D01*
X127221282Y-55939700D01*
X127221282Y-55889192D01*
X127196028Y-55813431D01*
X127044505Y-55661908D01*
X126968744Y-55636654D01*
X126918236Y-55636654D01*
X126842475Y-55661908D01*
X126766713Y-55737669D01*
X127877881Y-54626501D02*
X127953643Y-55055816D01*
X127574835Y-54929547D02*
X128105166Y-55459877D01*
X128307196Y-55257847D01*
X128332450Y-55182085D01*
X128332450Y-55131578D01*
X128307196Y-55055816D01*
X128231435Y-54980055D01*
X128155673Y-54954801D01*
X128105166Y-54954801D01*
X128029404Y-54980055D01*
X127827374Y-55182085D01*
X128231435Y-54575994D02*
X128483973Y-54323456D01*
X128029404Y-54474978D02*
X128736511Y-54828532D01*
X128382957Y-54121425D01*
X129039557Y-54525486D02*
X128635496Y-53868887D01*
X129115318Y-54146679D01*
X128837526Y-53666856D01*
X129494125Y-54070917D01*
X119460785Y-61866770D02*
X119511293Y-61765754D01*
X119511293Y-61715247D01*
X119486039Y-61639485D01*
X119410277Y-61563724D01*
X119334516Y-61538470D01*
X119284008Y-61538470D01*
X119208247Y-61563724D01*
X119006216Y-61765754D01*
X119536546Y-62296084D01*
X119713323Y-62119308D01*
X119738577Y-62043546D01*
X119738577Y-61993039D01*
X119713323Y-61917277D01*
X119662815Y-61866770D01*
X119587054Y-61841516D01*
X119536546Y-61841516D01*
X119460785Y-61866770D01*
X119284008Y-62043546D01*
X119789085Y-60982886D02*
X119536546Y-61235424D01*
X120066876Y-61765754D01*
X120092130Y-60982886D02*
X120344668Y-60730348D01*
X119890100Y-60881871D02*
X120597207Y-61235424D01*
X120243653Y-60528317D01*
X120773983Y-60099003D02*
X120723476Y-60099003D01*
X120622460Y-60149510D01*
X120571953Y-60200018D01*
X120521445Y-60301033D01*
X120521445Y-60402048D01*
X120546699Y-60477810D01*
X120622460Y-60604079D01*
X120698222Y-60679840D01*
X120824491Y-60755602D01*
X120900252Y-60780856D01*
X121001268Y-60780856D01*
X121102283Y-60730348D01*
X121152790Y-60679840D01*
X121203298Y-60578825D01*
X121203298Y-60528317D01*
X120950760Y-59821211D02*
X121481090Y-60351541D01*
X121253806Y-59518165D02*
X121329567Y-60048495D01*
X121784136Y-60048495D02*
X121178044Y-60048495D01*
X122087182Y-59088850D02*
X122491243Y-58684789D01*
X123299365Y-58179713D02*
X122945811Y-57826159D01*
X123248857Y-58129205D02*
X123299365Y-58129205D01*
X123375126Y-58103951D01*
X123450887Y-58028190D01*
X123476141Y-57952428D01*
X123450887Y-57876667D01*
X123173096Y-57598875D01*
X123652918Y-57169560D02*
X123577157Y-57194814D01*
X123476141Y-57295829D01*
X123450887Y-57371591D01*
X123476141Y-57447352D01*
X123678172Y-57649383D01*
X123753933Y-57674636D01*
X123829695Y-57649383D01*
X123930710Y-57548367D01*
X123955964Y-57472606D01*
X123930710Y-57396845D01*
X123880202Y-57346337D01*
X123577157Y-57548367D01*
X124461040Y-57018037D02*
X124031725Y-56588722D01*
X123955964Y-56563469D01*
X123905456Y-56563469D01*
X123829695Y-56588722D01*
X123753933Y-56664484D01*
X123728679Y-56740245D01*
X124132740Y-56689738D02*
X124056979Y-56714992D01*
X123955964Y-56816007D01*
X123930710Y-56891768D01*
X123930710Y-56942276D01*
X123955964Y-57018037D01*
X124107487Y-57169560D01*
X124183248Y-57194814D01*
X124233756Y-57194814D01*
X124309517Y-57169560D01*
X124410532Y-57068545D01*
X124435786Y-56992783D01*
X124587309Y-56184661D02*
X124865101Y-56462453D01*
X124890355Y-56538215D01*
X124865101Y-56613976D01*
X124764086Y-56714992D01*
X124688324Y-56740245D01*
X124612563Y-56209915D02*
X124536801Y-56235169D01*
X124410532Y-56361438D01*
X124385279Y-56437200D01*
X124410532Y-56512961D01*
X124461040Y-56563469D01*
X124536801Y-56588722D01*
X124612563Y-56563469D01*
X124738832Y-56437200D01*
X124814593Y-56411946D01*
X125117639Y-56361438D02*
X125319670Y-56159408D01*
X125370177Y-56462453D02*
X124915609Y-56007885D01*
X124890355Y-55932123D01*
X124915609Y-55856362D01*
X124966116Y-55805854D01*
X125142893Y-55629078D02*
X125496446Y-55982631D01*
X125673223Y-56159408D02*
X125622715Y-56159408D01*
X125622715Y-56108900D01*
X125673223Y-56108900D01*
X125673223Y-56159408D01*
X125622715Y-56108900D01*
X125698477Y-55780600D02*
X125471193Y-55300778D01*
X125951015Y-55528062D01*
X126026776Y-54795702D02*
X125951015Y-54820956D01*
X125850000Y-54921971D01*
X125824746Y-54997732D01*
X125850000Y-55073494D01*
X126052030Y-55275524D01*
X126127792Y-55300778D01*
X126203553Y-55275524D01*
X126304568Y-55174509D01*
X126329822Y-55098747D01*
X126304568Y-55022986D01*
X126254061Y-54972478D01*
X125951015Y-55174509D01*
X126935914Y-54543164D02*
X127137944Y-54341133D01*
X127188452Y-54644179D02*
X126733883Y-54189610D01*
X126708629Y-54113849D01*
X126733883Y-54038087D01*
X126784391Y-53987580D01*
X127036929Y-53735042D02*
X127011675Y-53810803D01*
X127011675Y-53861311D01*
X127036929Y-53937072D01*
X127188452Y-54088595D01*
X127264213Y-54113849D01*
X127314721Y-54113849D01*
X127390482Y-54088595D01*
X127466244Y-54012833D01*
X127491498Y-53937072D01*
X127491498Y-53886564D01*
X127466244Y-53810803D01*
X127314721Y-53659280D01*
X127238960Y-53634026D01*
X127188452Y-53634026D01*
X127112690Y-53659280D01*
X127036929Y-53735042D01*
X128627919Y-53154204D02*
X128602665Y-53229965D01*
X128526904Y-53305727D01*
X128425889Y-53356234D01*
X128324874Y-53356234D01*
X128249112Y-53330981D01*
X128122843Y-53255219D01*
X128047082Y-53179458D01*
X127971320Y-53053189D01*
X127946066Y-52977427D01*
X127946066Y-52876412D01*
X127996574Y-52775397D01*
X128047082Y-52724889D01*
X128148097Y-52674381D01*
X128198604Y-52674381D01*
X128375381Y-52851158D01*
X128274366Y-52952173D01*
X128375381Y-52396589D02*
X128905711Y-52926919D01*
X128678427Y-52093544D01*
X129208757Y-52623874D01*
X128930965Y-51841006D02*
X129461295Y-52371336D01*
X129587564Y-52245067D01*
X129638072Y-52144051D01*
X129638072Y-52043036D01*
X129612818Y-51967275D01*
X129537057Y-51841006D01*
X129461295Y-51765244D01*
X129335026Y-51689483D01*
X129259265Y-51664229D01*
X129158249Y-51664229D01*
X129057234Y-51714736D01*
X128930965Y-51841006D01*
D10*
X95586000Y-57306333D02*
X95486000Y-57339666D01*
X95319333Y-57339666D01*
X95252666Y-57306333D01*
X95219333Y-57273000D01*
X95186000Y-57206333D01*
X95186000Y-57139666D01*
X95219333Y-57073000D01*
X95252666Y-57039666D01*
X95319333Y-57006333D01*
X95452666Y-56973000D01*
X95519333Y-56939666D01*
X95552666Y-56906333D01*
X95586000Y-56839666D01*
X95586000Y-56773000D01*
X95552666Y-56706333D01*
X95519333Y-56673000D01*
X95452666Y-56639666D01*
X95286000Y-56639666D01*
X95186000Y-56673000D01*
X94619333Y-57306333D02*
X94686000Y-57339666D01*
X94819333Y-57339666D01*
X94886000Y-57306333D01*
X94919333Y-57239666D01*
X94919333Y-56973000D01*
X94886000Y-56906333D01*
X94819333Y-56873000D01*
X94686000Y-56873000D01*
X94619333Y-56906333D01*
X94586000Y-56973000D01*
X94586000Y-57039666D01*
X94919333Y-57106333D01*
X94186000Y-57339666D02*
X94252666Y-57306333D01*
X94286000Y-57239666D01*
X94286000Y-56639666D01*
X93652666Y-57306333D02*
X93719333Y-57339666D01*
X93852666Y-57339666D01*
X93919333Y-57306333D01*
X93952666Y-57239666D01*
X93952666Y-56973000D01*
X93919333Y-56906333D01*
X93852666Y-56873000D01*
X93719333Y-56873000D01*
X93652666Y-56906333D01*
X93619333Y-56973000D01*
X93619333Y-57039666D01*
X93952666Y-57106333D01*
X93019333Y-57306333D02*
X93086000Y-57339666D01*
X93219333Y-57339666D01*
X93286000Y-57306333D01*
X93319333Y-57273000D01*
X93352666Y-57206333D01*
X93352666Y-57006333D01*
X93319333Y-56939666D01*
X93286000Y-56906333D01*
X93219333Y-56873000D01*
X93086000Y-56873000D01*
X93019333Y-56906333D01*
X92819333Y-56873000D02*
X92552666Y-56873000D01*
X92719333Y-56639666D02*
X92719333Y-57239666D01*
X92686000Y-57306333D01*
X92619333Y-57339666D01*
X92552666Y-57339666D01*
X92219333Y-57339666D02*
X92286000Y-57306333D01*
X92319333Y-57273000D01*
X92352666Y-57206333D01*
X92352666Y-57006333D01*
X92319333Y-56939666D01*
X92286000Y-56906333D01*
X92219333Y-56873000D01*
X92119333Y-56873000D01*
X92052666Y-56906333D01*
X92019333Y-56939666D01*
X91986000Y-57006333D01*
X91986000Y-57206333D01*
X92019333Y-57273000D01*
X92052666Y-57306333D01*
X92119333Y-57339666D01*
X92219333Y-57339666D01*
X91686000Y-57339666D02*
X91686000Y-56873000D01*
X91686000Y-57006333D02*
X91652666Y-56939666D01*
X91619333Y-56906333D01*
X91552666Y-56873000D01*
X91486000Y-56873000D01*
X90319333Y-57339666D02*
X90552666Y-57006333D01*
X90719333Y-57339666D02*
X90719333Y-56639666D01*
X90452666Y-56639666D01*
X90386000Y-56673000D01*
X90352666Y-56706333D01*
X90319333Y-56773000D01*
X90319333Y-56873000D01*
X90352666Y-56939666D01*
X90386000Y-56973000D01*
X90452666Y-57006333D01*
X90719333Y-57006333D01*
X89752666Y-57306333D02*
X89819333Y-57339666D01*
X89952666Y-57339666D01*
X90019333Y-57306333D01*
X90052666Y-57239666D01*
X90052666Y-56973000D01*
X90019333Y-56906333D01*
X89952666Y-56873000D01*
X89819333Y-56873000D01*
X89752666Y-56906333D01*
X89719333Y-56973000D01*
X89719333Y-57039666D01*
X90052666Y-57106333D01*
X89452666Y-57306333D02*
X89386000Y-57339666D01*
X89252666Y-57339666D01*
X89186000Y-57306333D01*
X89152666Y-57239666D01*
X89152666Y-57206333D01*
X89186000Y-57139666D01*
X89252666Y-57106333D01*
X89352666Y-57106333D01*
X89419333Y-57073000D01*
X89452666Y-57006333D01*
X89452666Y-56973000D01*
X89419333Y-56906333D01*
X89352666Y-56873000D01*
X89252666Y-56873000D01*
X89186000Y-56906333D01*
X88852666Y-57339666D02*
X88852666Y-56873000D01*
X88852666Y-56639666D02*
X88886000Y-56673000D01*
X88852666Y-56706333D01*
X88819333Y-56673000D01*
X88852666Y-56639666D01*
X88852666Y-56706333D01*
X88552666Y-57306333D02*
X88486000Y-57339666D01*
X88352666Y-57339666D01*
X88286000Y-57306333D01*
X88252666Y-57239666D01*
X88252666Y-57206333D01*
X88286000Y-57139666D01*
X88352666Y-57106333D01*
X88452666Y-57106333D01*
X88519333Y-57073000D01*
X88552666Y-57006333D01*
X88552666Y-56973000D01*
X88519333Y-56906333D01*
X88452666Y-56873000D01*
X88352666Y-56873000D01*
X88286000Y-56906333D01*
X88052666Y-56873000D02*
X87786000Y-56873000D01*
X87952666Y-56639666D02*
X87952666Y-57239666D01*
X87919333Y-57306333D01*
X87852666Y-57339666D01*
X87786000Y-57339666D01*
X87452666Y-57339666D02*
X87519333Y-57306333D01*
X87552666Y-57273000D01*
X87586000Y-57206333D01*
X87586000Y-57006333D01*
X87552666Y-56939666D01*
X87519333Y-56906333D01*
X87452666Y-56873000D01*
X87352666Y-56873000D01*
X87286000Y-56906333D01*
X87252666Y-56939666D01*
X87219333Y-57006333D01*
X87219333Y-57206333D01*
X87252666Y-57273000D01*
X87286000Y-57306333D01*
X87352666Y-57339666D01*
X87452666Y-57339666D01*
X86919333Y-57339666D02*
X86919333Y-56873000D01*
X86919333Y-57006333D02*
X86886000Y-56939666D01*
X86852666Y-56906333D01*
X86786000Y-56873000D01*
X86719333Y-56873000D01*
D11*
X81952142Y-55667714D02*
X81702142Y-56024857D01*
X81523571Y-55667714D02*
X81523571Y-56417714D01*
X81809285Y-56417714D01*
X81880714Y-56382000D01*
X81916428Y-56346285D01*
X81952142Y-56274857D01*
X81952142Y-56167714D01*
X81916428Y-56096285D01*
X81880714Y-56060571D01*
X81809285Y-56024857D01*
X81523571Y-56024857D01*
X82237857Y-55882000D02*
X82595000Y-55882000D01*
X82166428Y-55667714D02*
X82416428Y-56417714D01*
X82666428Y-55667714D01*
X82845000Y-56417714D02*
X83023571Y-55667714D01*
X83166428Y-56203428D01*
X83309285Y-55667714D01*
X83487857Y-56417714D01*
X86523571Y-56417714D02*
X86773571Y-55667714D01*
X87023571Y-56417714D01*
X87702142Y-55739142D02*
X87666428Y-55703428D01*
X87559285Y-55667714D01*
X87487857Y-55667714D01*
X87380714Y-55703428D01*
X87309285Y-55774857D01*
X87273571Y-55846285D01*
X87237857Y-55989142D01*
X87237857Y-56096285D01*
X87273571Y-56239142D01*
X87309285Y-56310571D01*
X87380714Y-56382000D01*
X87487857Y-56417714D01*
X87559285Y-56417714D01*
X87666428Y-56382000D01*
X87702142Y-56346285D01*
X88452142Y-55739142D02*
X88416428Y-55703428D01*
X88309285Y-55667714D01*
X88237857Y-55667714D01*
X88130714Y-55703428D01*
X88059285Y-55774857D01*
X88023571Y-55846285D01*
X87987857Y-55989142D01*
X87987857Y-56096285D01*
X88023571Y-56239142D01*
X88059285Y-56310571D01*
X88130714Y-56382000D01*
X88237857Y-56417714D01*
X88309285Y-56417714D01*
X88416428Y-56382000D01*
X88452142Y-56346285D01*
D10*
X131293333Y-48576666D02*
X131526666Y-48243333D01*
X131693333Y-48576666D02*
X131693333Y-47876666D01*
X131426666Y-47876666D01*
X131360000Y-47910000D01*
X131326666Y-47943333D01*
X131293333Y-48010000D01*
X131293333Y-48110000D01*
X131326666Y-48176666D01*
X131360000Y-48210000D01*
X131426666Y-48243333D01*
X131693333Y-48243333D01*
X131026666Y-48376666D02*
X130693333Y-48376666D01*
X131093333Y-48576666D02*
X130860000Y-47876666D01*
X130626666Y-48576666D01*
X130460000Y-47876666D02*
X130293333Y-48576666D01*
X130160000Y-48076666D01*
X130026666Y-48576666D01*
X129860000Y-47876666D01*
X131216333Y-50450000D02*
X131283000Y-50416666D01*
X131383000Y-50416666D01*
X131483000Y-50450000D01*
X131549666Y-50516666D01*
X131583000Y-50583333D01*
X131616333Y-50716666D01*
X131616333Y-50816666D01*
X131583000Y-50950000D01*
X131549666Y-51016666D01*
X131483000Y-51083333D01*
X131383000Y-51116666D01*
X131316333Y-51116666D01*
X131216333Y-51083333D01*
X131183000Y-51050000D01*
X131183000Y-50816666D01*
X131316333Y-50816666D01*
X130883000Y-51116666D02*
X130883000Y-50416666D01*
X130483000Y-51116666D01*
X130483000Y-50416666D01*
X130149666Y-51116666D02*
X130149666Y-50416666D01*
X129983000Y-50416666D01*
X129883000Y-50450000D01*
X129816333Y-50516666D01*
X129783000Y-50583333D01*
X129749666Y-50716666D01*
X129749666Y-50816666D01*
X129783000Y-50950000D01*
X129816333Y-51016666D01*
X129883000Y-51083333D01*
X129983000Y-51116666D01*
X130149666Y-51116666D01*
X158197785Y-111558000D02*
X157447785Y-111558000D01*
X157697785Y-111915142D02*
X158197785Y-111915142D01*
X157769214Y-111915142D02*
X157733500Y-111950857D01*
X157697785Y-112022285D01*
X157697785Y-112129428D01*
X157733500Y-112200857D01*
X157804928Y-112236571D01*
X158197785Y-112236571D01*
X158162071Y-112558000D02*
X158197785Y-112629428D01*
X158197785Y-112772285D01*
X158162071Y-112843714D01*
X158090642Y-112879428D01*
X158054928Y-112879428D01*
X157983500Y-112843714D01*
X157947785Y-112772285D01*
X157947785Y-112665142D01*
X157912071Y-112593714D01*
X157840642Y-112558000D01*
X157804928Y-112558000D01*
X157733500Y-112593714D01*
X157697785Y-112665142D01*
X157697785Y-112772285D01*
X157733500Y-112843714D01*
X157697785Y-113093714D02*
X157697785Y-113379428D01*
X157447785Y-113200857D02*
X158090642Y-113200857D01*
X158162071Y-113236571D01*
X158197785Y-113308000D01*
X158197785Y-113379428D01*
X158197785Y-113950857D02*
X157804928Y-113950857D01*
X157733500Y-113915142D01*
X157697785Y-113843714D01*
X157697785Y-113700857D01*
X157733500Y-113629428D01*
X158162071Y-113950857D02*
X158197785Y-113879428D01*
X158197785Y-113700857D01*
X158162071Y-113629428D01*
X158090642Y-113593714D01*
X158019214Y-113593714D01*
X157947785Y-113629428D01*
X157912071Y-113700857D01*
X157912071Y-113879428D01*
X157876357Y-113950857D01*
X158197785Y-114415142D02*
X158162071Y-114343714D01*
X158090642Y-114308000D01*
X157447785Y-114308000D01*
X158197785Y-114808000D02*
X158162071Y-114736571D01*
X158090642Y-114700857D01*
X157447785Y-114700857D01*
X158197785Y-115665142D02*
X157447785Y-115665142D01*
X157447785Y-115843714D01*
X157483500Y-115950857D01*
X157554928Y-116022285D01*
X157626357Y-116058000D01*
X157769214Y-116093714D01*
X157876357Y-116093714D01*
X158019214Y-116058000D01*
X158090642Y-116022285D01*
X158162071Y-115950857D01*
X158197785Y-115843714D01*
X158197785Y-115665142D01*
X157519214Y-116379428D02*
X157483500Y-116415142D01*
X157447785Y-116486571D01*
X157447785Y-116665142D01*
X157483500Y-116736571D01*
X157519214Y-116772285D01*
X157590642Y-116808000D01*
X157662071Y-116808000D01*
X157769214Y-116772285D01*
X158197785Y-116343714D01*
X158197785Y-116808000D01*
X157769214Y-117236571D02*
X157733500Y-117165142D01*
X157697785Y-117129428D01*
X157626357Y-117093714D01*
X157590642Y-117093714D01*
X157519214Y-117129428D01*
X157483500Y-117165142D01*
X157447785Y-117236571D01*
X157447785Y-117379428D01*
X157483500Y-117450857D01*
X157519214Y-117486571D01*
X157590642Y-117522285D01*
X157626357Y-117522285D01*
X157697785Y-117486571D01*
X157733500Y-117450857D01*
X157769214Y-117379428D01*
X157769214Y-117236571D01*
X157804928Y-117165142D01*
X157840642Y-117129428D01*
X157912071Y-117093714D01*
X158054928Y-117093714D01*
X158126357Y-117129428D01*
X158162071Y-117165142D01*
X158197785Y-117236571D01*
X158197785Y-117379428D01*
X158162071Y-117450857D01*
X158126357Y-117486571D01*
X158054928Y-117522285D01*
X157912071Y-117522285D01*
X157840642Y-117486571D01*
X157804928Y-117450857D01*
X157769214Y-117379428D01*
X158972785Y-111111571D02*
X158972785Y-111397285D01*
X159472785Y-111218714D02*
X158829928Y-111218714D01*
X158758500Y-111254428D01*
X158722785Y-111325857D01*
X158722785Y-111397285D01*
X159472785Y-111754428D02*
X159437071Y-111683000D01*
X159401357Y-111647285D01*
X159329928Y-111611571D01*
X159115642Y-111611571D01*
X159044214Y-111647285D01*
X159008500Y-111683000D01*
X158972785Y-111754428D01*
X158972785Y-111861571D01*
X159008500Y-111933000D01*
X159044214Y-111968714D01*
X159115642Y-112004428D01*
X159329928Y-112004428D01*
X159401357Y-111968714D01*
X159437071Y-111933000D01*
X159472785Y-111861571D01*
X159472785Y-111754428D01*
X159472785Y-112325857D02*
X158972785Y-112325857D01*
X159115642Y-112325857D02*
X159044214Y-112361571D01*
X159008500Y-112397285D01*
X158972785Y-112468714D01*
X158972785Y-112540142D01*
X159079928Y-113361571D02*
X159079928Y-113611571D01*
X159472785Y-113718714D02*
X159472785Y-113361571D01*
X158722785Y-113361571D01*
X158722785Y-113718714D01*
X159472785Y-113968714D02*
X158972785Y-114361571D01*
X158972785Y-113968714D02*
X159472785Y-114361571D01*
X158972785Y-114540142D02*
X158972785Y-114825857D01*
X158722785Y-114647285D02*
X159365642Y-114647285D01*
X159437071Y-114683000D01*
X159472785Y-114754428D01*
X159472785Y-114825857D01*
X159472785Y-115075857D02*
X158972785Y-115075857D01*
X159115642Y-115075857D02*
X159044214Y-115111571D01*
X159008500Y-115147285D01*
X158972785Y-115218714D01*
X158972785Y-115290142D01*
X159472785Y-115861571D02*
X159079928Y-115861571D01*
X159008500Y-115825857D01*
X158972785Y-115754428D01*
X158972785Y-115611571D01*
X159008500Y-115540142D01*
X159437071Y-115861571D02*
X159472785Y-115790142D01*
X159472785Y-115611571D01*
X159437071Y-115540142D01*
X159365642Y-115504428D01*
X159294214Y-115504428D01*
X159222785Y-115540142D01*
X159187071Y-115611571D01*
X159187071Y-115790142D01*
X159151357Y-115861571D01*
X159472785Y-116790142D02*
X158722785Y-116790142D01*
X159472785Y-117218714D02*
X159044214Y-116897285D01*
X158722785Y-117218714D02*
X159151357Y-116790142D01*
X159437071Y-117825857D02*
X159472785Y-117754428D01*
X159472785Y-117611571D01*
X159437071Y-117540142D01*
X159365642Y-117504428D01*
X159079928Y-117504428D01*
X159008500Y-117540142D01*
X158972785Y-117611571D01*
X158972785Y-117754428D01*
X159008500Y-117825857D01*
X159079928Y-117861571D01*
X159151357Y-117861571D01*
X159222785Y-117504428D01*
X158972785Y-118111571D02*
X159472785Y-118290142D01*
X158972785Y-118468714D02*
X159472785Y-118290142D01*
X159651357Y-118218714D01*
X159687071Y-118183000D01*
X159722785Y-118111571D01*
D12*
X182427142Y-107370571D02*
X182093809Y-107370571D01*
X181950952Y-107894380D02*
X182427142Y-107894380D01*
X182427142Y-106894380D01*
X181950952Y-106894380D01*
X181617619Y-107894380D02*
X181093809Y-107227714D01*
X181617619Y-107227714D02*
X181093809Y-107894380D01*
X180855714Y-107227714D02*
X180474761Y-107227714D01*
X180712857Y-106894380D02*
X180712857Y-107751523D01*
X180665238Y-107846761D01*
X180570000Y-107894380D01*
X180474761Y-107894380D01*
X180141428Y-107894380D02*
X180141428Y-107227714D01*
X180141428Y-107418190D02*
X180093809Y-107322952D01*
X180046190Y-107275333D01*
X179950952Y-107227714D01*
X179855714Y-107227714D01*
X179093809Y-107894380D02*
X179093809Y-107370571D01*
X179141428Y-107275333D01*
X179236666Y-107227714D01*
X179427142Y-107227714D01*
X179522380Y-107275333D01*
X179093809Y-107846761D02*
X179189047Y-107894380D01*
X179427142Y-107894380D01*
X179522380Y-107846761D01*
X179570000Y-107751523D01*
X179570000Y-107656285D01*
X179522380Y-107561047D01*
X179427142Y-107513428D01*
X179189047Y-107513428D01*
X179093809Y-107465809D01*
X177855714Y-107894380D02*
X177855714Y-106894380D01*
X177284285Y-107894380D02*
X177712857Y-107322952D01*
X177284285Y-106894380D02*
X177855714Y-107465809D01*
X176474761Y-107846761D02*
X176570000Y-107894380D01*
X176760476Y-107894380D01*
X176855714Y-107846761D01*
X176903333Y-107751523D01*
X176903333Y-107370571D01*
X176855714Y-107275333D01*
X176760476Y-107227714D01*
X176570000Y-107227714D01*
X176474761Y-107275333D01*
X176427142Y-107370571D01*
X176427142Y-107465809D01*
X176903333Y-107561047D01*
X176093809Y-107227714D02*
X175855714Y-107894380D01*
X175617619Y-107227714D02*
X175855714Y-107894380D01*
X175950952Y-108132476D01*
X175998571Y-108180095D01*
X176093809Y-108227714D01*
D10*
X195730666Y-47102000D02*
X195497333Y-47102000D01*
X195397333Y-47468666D02*
X195730666Y-47468666D01*
X195730666Y-46768666D01*
X195397333Y-46768666D01*
X195164000Y-47468666D02*
X194797333Y-47002000D01*
X195164000Y-47002000D02*
X194797333Y-47468666D01*
X194630666Y-47002000D02*
X194364000Y-47002000D01*
X194530666Y-46768666D02*
X194530666Y-47368666D01*
X194497333Y-47435333D01*
X194430666Y-47468666D01*
X194364000Y-47468666D01*
X194130666Y-47468666D02*
X194130666Y-47002000D01*
X194130666Y-47135333D02*
X194097333Y-47068666D01*
X194064000Y-47035333D01*
X193997333Y-47002000D01*
X193930666Y-47002000D01*
X193397333Y-47468666D02*
X193397333Y-47102000D01*
X193430666Y-47035333D01*
X193497333Y-47002000D01*
X193630666Y-47002000D01*
X193697333Y-47035333D01*
X193397333Y-47435333D02*
X193464000Y-47468666D01*
X193630666Y-47468666D01*
X193697333Y-47435333D01*
X193730666Y-47368666D01*
X193730666Y-47302000D01*
X193697333Y-47235333D01*
X193630666Y-47202000D01*
X193464000Y-47202000D01*
X193397333Y-47168666D01*
X195580666Y-48668666D02*
X195580666Y-47968666D01*
X195414000Y-47968666D01*
X195314000Y-48002000D01*
X195247333Y-48068666D01*
X195214000Y-48135333D01*
X195180666Y-48268666D01*
X195180666Y-48368666D01*
X195214000Y-48502000D01*
X195247333Y-48568666D01*
X195314000Y-48635333D01*
X195414000Y-48668666D01*
X195580666Y-48668666D01*
X194580666Y-48668666D02*
X194580666Y-48302000D01*
X194614000Y-48235333D01*
X194680666Y-48202000D01*
X194814000Y-48202000D01*
X194880666Y-48235333D01*
X194580666Y-48635333D02*
X194647333Y-48668666D01*
X194814000Y-48668666D01*
X194880666Y-48635333D01*
X194914000Y-48568666D01*
X194914000Y-48502000D01*
X194880666Y-48435333D01*
X194814000Y-48402000D01*
X194647333Y-48402000D01*
X194580666Y-48368666D01*
X194347333Y-48202000D02*
X194080666Y-48202000D01*
X194247333Y-47968666D02*
X194247333Y-48568666D01*
X194214000Y-48635333D01*
X194147333Y-48668666D01*
X194080666Y-48668666D01*
X193547333Y-48668666D02*
X193547333Y-48302000D01*
X193580666Y-48235333D01*
X193647333Y-48202000D01*
X193780666Y-48202000D01*
X193847333Y-48235333D01*
X193547333Y-48635333D02*
X193614000Y-48668666D01*
X193780666Y-48668666D01*
X193847333Y-48635333D01*
X193880666Y-48568666D01*
X193880666Y-48502000D01*
X193847333Y-48435333D01*
X193780666Y-48402000D01*
X193614000Y-48402000D01*
X193547333Y-48368666D01*
X201821904Y-47605904D02*
X201821904Y-46805904D01*
X201631428Y-46805904D01*
X201517142Y-46844000D01*
X201440952Y-46920190D01*
X201402857Y-46996380D01*
X201364761Y-47148761D01*
X201364761Y-47263047D01*
X201402857Y-47415428D01*
X201440952Y-47491619D01*
X201517142Y-47567809D01*
X201631428Y-47605904D01*
X201821904Y-47605904D01*
X200679047Y-47605904D02*
X200679047Y-47186857D01*
X200717142Y-47110666D01*
X200793333Y-47072571D01*
X200945714Y-47072571D01*
X201021904Y-47110666D01*
X200679047Y-47567809D02*
X200755238Y-47605904D01*
X200945714Y-47605904D01*
X201021904Y-47567809D01*
X201060000Y-47491619D01*
X201060000Y-47415428D01*
X201021904Y-47339238D01*
X200945714Y-47301142D01*
X200755238Y-47301142D01*
X200679047Y-47263047D01*
X200412380Y-47072571D02*
X200107619Y-47072571D01*
X200298095Y-46805904D02*
X200298095Y-47491619D01*
X200260000Y-47567809D01*
X200183809Y-47605904D01*
X200107619Y-47605904D01*
X199498095Y-47605904D02*
X199498095Y-47186857D01*
X199536190Y-47110666D01*
X199612380Y-47072571D01*
X199764761Y-47072571D01*
X199840952Y-47110666D01*
X199498095Y-47567809D02*
X199574285Y-47605904D01*
X199764761Y-47605904D01*
X199840952Y-47567809D01*
X199879047Y-47491619D01*
X199879047Y-47415428D01*
X199840952Y-47339238D01*
X199764761Y-47301142D01*
X199574285Y-47301142D01*
X199498095Y-47263047D01*
D12*
X207327333Y-47966380D02*
X206994000Y-48966380D01*
X206660666Y-47966380D01*
X205755904Y-48871142D02*
X205803523Y-48918761D01*
X205946380Y-48966380D01*
X206041619Y-48966380D01*
X206184476Y-48918761D01*
X206279714Y-48823523D01*
X206327333Y-48728285D01*
X206374952Y-48537809D01*
X206374952Y-48394952D01*
X206327333Y-48204476D01*
X206279714Y-48109238D01*
X206184476Y-48014000D01*
X206041619Y-47966380D01*
X205946380Y-47966380D01*
X205803523Y-48014000D01*
X205755904Y-48061619D01*
X204755904Y-48871142D02*
X204803523Y-48918761D01*
X204946380Y-48966380D01*
X205041619Y-48966380D01*
X205184476Y-48918761D01*
X205279714Y-48823523D01*
X205327333Y-48728285D01*
X205374952Y-48537809D01*
X205374952Y-48394952D01*
X205327333Y-48204476D01*
X205279714Y-48109238D01*
X205184476Y-48014000D01*
X205041619Y-47966380D01*
X204946380Y-47966380D01*
X204803523Y-48014000D01*
X204755904Y-48061619D01*
X196341904Y-57666000D02*
X196437142Y-57618380D01*
X196580000Y-57618380D01*
X196722857Y-57666000D01*
X196818095Y-57761238D01*
X196865714Y-57856476D01*
X196913333Y-58046952D01*
X196913333Y-58189809D01*
X196865714Y-58380285D01*
X196818095Y-58475523D01*
X196722857Y-58570761D01*
X196580000Y-58618380D01*
X196484761Y-58618380D01*
X196341904Y-58570761D01*
X196294285Y-58523142D01*
X196294285Y-58189809D01*
X196484761Y-58189809D01*
X195865714Y-58618380D02*
X195865714Y-57618380D01*
X195294285Y-58618380D01*
X195294285Y-57618380D01*
X194818095Y-58618380D02*
X194818095Y-57618380D01*
X194580000Y-57618380D01*
X194437142Y-57666000D01*
X194341904Y-57761238D01*
X194294285Y-57856476D01*
X194246666Y-58046952D01*
X194246666Y-58189809D01*
X194294285Y-58380285D01*
X194341904Y-58475523D01*
X194437142Y-58570761D01*
X194580000Y-58618380D01*
X194818095Y-58618380D01*
D10*
X164109333Y-46860666D02*
X163709333Y-46860666D01*
X163909333Y-47560666D02*
X163909333Y-46860666D01*
X163542666Y-46860666D02*
X163076000Y-47560666D01*
X163076000Y-46860666D02*
X163542666Y-47560666D01*
X161152666Y-47560666D02*
X161386000Y-47227333D01*
X161552666Y-47560666D02*
X161552666Y-46860666D01*
X161286000Y-46860666D01*
X161219333Y-46894000D01*
X161186000Y-46927333D01*
X161152666Y-46994000D01*
X161152666Y-47094000D01*
X161186000Y-47160666D01*
X161219333Y-47194000D01*
X161286000Y-47227333D01*
X161552666Y-47227333D01*
X160919333Y-46860666D02*
X160452666Y-47560666D01*
X160452666Y-46860666D02*
X160919333Y-47560666D01*
X159006333Y-47560666D02*
X159239666Y-47227333D01*
X159406333Y-47560666D02*
X159406333Y-46860666D01*
X159139666Y-46860666D01*
X159073000Y-46894000D01*
X159039666Y-46927333D01*
X159006333Y-46994000D01*
X159006333Y-47094000D01*
X159039666Y-47160666D01*
X159073000Y-47194000D01*
X159139666Y-47227333D01*
X159406333Y-47227333D01*
X158739666Y-47527333D02*
X158639666Y-47560666D01*
X158473000Y-47560666D01*
X158406333Y-47527333D01*
X158373000Y-47494000D01*
X158339666Y-47427333D01*
X158339666Y-47360666D01*
X158373000Y-47294000D01*
X158406333Y-47260666D01*
X158473000Y-47227333D01*
X158606333Y-47194000D01*
X158673000Y-47160666D01*
X158706333Y-47127333D01*
X158739666Y-47060666D01*
X158739666Y-46994000D01*
X158706333Y-46927333D01*
X158673000Y-46894000D01*
X158606333Y-46860666D01*
X158439666Y-46860666D01*
X158339666Y-46894000D01*
X158139666Y-46860666D02*
X157739666Y-46860666D01*
X157939666Y-47560666D02*
X157939666Y-46860666D01*
D12*
X171862476Y-47638761D02*
X171719619Y-47686380D01*
X171481523Y-47686380D01*
X171386285Y-47638761D01*
X171338666Y-47591142D01*
X171291047Y-47495904D01*
X171291047Y-47400666D01*
X171338666Y-47305428D01*
X171386285Y-47257809D01*
X171481523Y-47210190D01*
X171672000Y-47162571D01*
X171767238Y-47114952D01*
X171814857Y-47067333D01*
X171862476Y-46972095D01*
X171862476Y-46876857D01*
X171814857Y-46781619D01*
X171767238Y-46734000D01*
X171672000Y-46686380D01*
X171433904Y-46686380D01*
X171291047Y-46734000D01*
X170719619Y-47686380D02*
X170814857Y-47638761D01*
X170862476Y-47591142D01*
X170910095Y-47495904D01*
X170910095Y-47210190D01*
X170862476Y-47114952D01*
X170814857Y-47067333D01*
X170719619Y-47019714D01*
X170576761Y-47019714D01*
X170481523Y-47067333D01*
X170433904Y-47114952D01*
X170386285Y-47210190D01*
X170386285Y-47495904D01*
X170433904Y-47591142D01*
X170481523Y-47638761D01*
X170576761Y-47686380D01*
X170719619Y-47686380D01*
X169814857Y-47686380D02*
X169910095Y-47638761D01*
X169957714Y-47543523D01*
X169957714Y-46686380D01*
X169005333Y-47686380D02*
X169005333Y-46686380D01*
X169005333Y-47638761D02*
X169100571Y-47686380D01*
X169291047Y-47686380D01*
X169386285Y-47638761D01*
X169433904Y-47591142D01*
X169481523Y-47495904D01*
X169481523Y-47210190D01*
X169433904Y-47114952D01*
X169386285Y-47067333D01*
X169291047Y-47019714D01*
X169100571Y-47019714D01*
X169005333Y-47067333D01*
X168148190Y-47638761D02*
X168243428Y-47686380D01*
X168433904Y-47686380D01*
X168529142Y-47638761D01*
X168576761Y-47543523D01*
X168576761Y-47162571D01*
X168529142Y-47067333D01*
X168433904Y-47019714D01*
X168243428Y-47019714D01*
X168148190Y-47067333D01*
X168100571Y-47162571D01*
X168100571Y-47257809D01*
X168576761Y-47353047D01*
X167672000Y-47686380D02*
X167672000Y-47019714D01*
X167672000Y-47210190D02*
X167624380Y-47114952D01*
X167576761Y-47067333D01*
X167481523Y-47019714D01*
X167386285Y-47019714D01*
X171838666Y-48386380D02*
X171838666Y-49100666D01*
X171886285Y-49243523D01*
X171981523Y-49338761D01*
X172124380Y-49386380D01*
X172219619Y-49386380D01*
X170933904Y-48719714D02*
X170933904Y-49386380D01*
X171362476Y-48719714D02*
X171362476Y-49243523D01*
X171314857Y-49338761D01*
X171219619Y-49386380D01*
X171076761Y-49386380D01*
X170981523Y-49338761D01*
X170933904Y-49291142D01*
X170457714Y-49386380D02*
X170457714Y-48719714D01*
X170457714Y-48814952D02*
X170410095Y-48767333D01*
X170314857Y-48719714D01*
X170172000Y-48719714D01*
X170076761Y-48767333D01*
X170029142Y-48862571D01*
X170029142Y-49386380D01*
X170029142Y-48862571D02*
X169981523Y-48767333D01*
X169886285Y-48719714D01*
X169743428Y-48719714D01*
X169648190Y-48767333D01*
X169600571Y-48862571D01*
X169600571Y-49386380D01*
X169124380Y-48719714D02*
X169124380Y-49719714D01*
X169124380Y-48767333D02*
X169029142Y-48719714D01*
X168838666Y-48719714D01*
X168743428Y-48767333D01*
X168695809Y-48814952D01*
X168648190Y-48910190D01*
X168648190Y-49195904D01*
X168695809Y-49291142D01*
X168743428Y-49338761D01*
X168838666Y-49386380D01*
X169029142Y-49386380D01*
X169124380Y-49338761D01*
X167838666Y-49338761D02*
X167933904Y-49386380D01*
X168124380Y-49386380D01*
X168219619Y-49338761D01*
X168267238Y-49243523D01*
X168267238Y-48862571D01*
X168219619Y-48767333D01*
X168124380Y-48719714D01*
X167933904Y-48719714D01*
X167838666Y-48767333D01*
X167791047Y-48862571D01*
X167791047Y-48957809D01*
X168267238Y-49053047D01*
X167362476Y-49386380D02*
X167362476Y-48719714D01*
X167362476Y-48910190D02*
X167314857Y-48814952D01*
X167267238Y-48767333D01*
X167172000Y-48719714D01*
X167076761Y-48719714D01*
X171005333Y-50419714D02*
X170624380Y-50419714D01*
X170862476Y-51086380D02*
X170862476Y-50229238D01*
X170814857Y-50134000D01*
X170719619Y-50086380D01*
X170624380Y-50086380D01*
X170148190Y-51086380D02*
X170243428Y-51038761D01*
X170291047Y-50991142D01*
X170338666Y-50895904D01*
X170338666Y-50610190D01*
X170291047Y-50514952D01*
X170243428Y-50467333D01*
X170148190Y-50419714D01*
X170005333Y-50419714D01*
X169910095Y-50467333D01*
X169862476Y-50514952D01*
X169814857Y-50610190D01*
X169814857Y-50895904D01*
X169862476Y-50991142D01*
X169910095Y-51038761D01*
X170005333Y-51086380D01*
X170148190Y-51086380D01*
X169386285Y-51086380D02*
X169386285Y-50419714D01*
X169386285Y-50610190D02*
X169338666Y-50514952D01*
X169291047Y-50467333D01*
X169195809Y-50419714D01*
X169100571Y-50419714D01*
X170648190Y-52786380D02*
X170648190Y-51786380D01*
X170219619Y-51881619D02*
X170172000Y-51834000D01*
X170076761Y-51786380D01*
X169838666Y-51786380D01*
X169743428Y-51834000D01*
X169695809Y-51881619D01*
X169648190Y-51976857D01*
X169648190Y-52072095D01*
X169695809Y-52214952D01*
X170267238Y-52786380D01*
X169648190Y-52786380D01*
X168648190Y-52691142D02*
X168695809Y-52738761D01*
X168838666Y-52786380D01*
X168933904Y-52786380D01*
X169076761Y-52738761D01*
X169172000Y-52643523D01*
X169219619Y-52548285D01*
X169267238Y-52357809D01*
X169267238Y-52214952D01*
X169219619Y-52024476D01*
X169172000Y-51929238D01*
X169076761Y-51834000D01*
X168933904Y-51786380D01*
X168838666Y-51786380D01*
X168695809Y-51834000D01*
X168648190Y-51881619D01*
X191857047Y-47520380D02*
X191857047Y-46520380D01*
X191380857Y-46853714D02*
X191380857Y-47520380D01*
X191380857Y-46948952D02*
X191333238Y-46901333D01*
X191238000Y-46853714D01*
X191095142Y-46853714D01*
X190999904Y-46901333D01*
X190952285Y-46996571D01*
X190952285Y-47520380D01*
X190523714Y-47472761D02*
X190428476Y-47520380D01*
X190238000Y-47520380D01*
X190142761Y-47472761D01*
X190095142Y-47377523D01*
X190095142Y-47329904D01*
X190142761Y-47234666D01*
X190238000Y-47187047D01*
X190380857Y-47187047D01*
X190476095Y-47139428D01*
X190523714Y-47044190D01*
X190523714Y-46996571D01*
X190476095Y-46901333D01*
X190380857Y-46853714D01*
X190238000Y-46853714D01*
X190142761Y-46901333D01*
X189809428Y-46853714D02*
X189428476Y-46853714D01*
X189666571Y-46520380D02*
X189666571Y-47377523D01*
X189618952Y-47472761D01*
X189523714Y-47520380D01*
X189428476Y-47520380D01*
X188666571Y-47520380D02*
X188666571Y-46996571D01*
X188714190Y-46901333D01*
X188809428Y-46853714D01*
X188999904Y-46853714D01*
X189095142Y-46901333D01*
X188666571Y-47472761D02*
X188761809Y-47520380D01*
X188999904Y-47520380D01*
X189095142Y-47472761D01*
X189142761Y-47377523D01*
X189142761Y-47282285D01*
X189095142Y-47187047D01*
X188999904Y-47139428D01*
X188761809Y-47139428D01*
X188666571Y-47091809D01*
X188047523Y-47520380D02*
X188142761Y-47472761D01*
X188190380Y-47377523D01*
X188190380Y-46520380D01*
X187523714Y-47520380D02*
X187618952Y-47472761D01*
X187666571Y-47377523D01*
X187666571Y-46520380D01*
X192738000Y-49220380D02*
X193071333Y-48744190D01*
X193309428Y-49220380D02*
X193309428Y-48220380D01*
X192928476Y-48220380D01*
X192833238Y-48268000D01*
X192785619Y-48315619D01*
X192738000Y-48410857D01*
X192738000Y-48553714D01*
X192785619Y-48648952D01*
X192833238Y-48696571D01*
X192928476Y-48744190D01*
X193309428Y-48744190D01*
X191928476Y-49172761D02*
X192023714Y-49220380D01*
X192214190Y-49220380D01*
X192309428Y-49172761D01*
X192357047Y-49077523D01*
X192357047Y-48696571D01*
X192309428Y-48601333D01*
X192214190Y-48553714D01*
X192023714Y-48553714D01*
X191928476Y-48601333D01*
X191880857Y-48696571D01*
X191880857Y-48791809D01*
X192357047Y-48887047D01*
X191499904Y-49172761D02*
X191404666Y-49220380D01*
X191214190Y-49220380D01*
X191118952Y-49172761D01*
X191071333Y-49077523D01*
X191071333Y-49029904D01*
X191118952Y-48934666D01*
X191214190Y-48887047D01*
X191357047Y-48887047D01*
X191452285Y-48839428D01*
X191499904Y-48744190D01*
X191499904Y-48696571D01*
X191452285Y-48601333D01*
X191357047Y-48553714D01*
X191214190Y-48553714D01*
X191118952Y-48601333D01*
X190642761Y-49220380D02*
X190642761Y-48553714D01*
X190642761Y-48220380D02*
X190690380Y-48268000D01*
X190642761Y-48315619D01*
X190595142Y-48268000D01*
X190642761Y-48220380D01*
X190642761Y-48315619D01*
X190214190Y-49172761D02*
X190118952Y-49220380D01*
X189928476Y-49220380D01*
X189833238Y-49172761D01*
X189785619Y-49077523D01*
X189785619Y-49029904D01*
X189833238Y-48934666D01*
X189928476Y-48887047D01*
X190071333Y-48887047D01*
X190166571Y-48839428D01*
X190214190Y-48744190D01*
X190214190Y-48696571D01*
X190166571Y-48601333D01*
X190071333Y-48553714D01*
X189928476Y-48553714D01*
X189833238Y-48601333D01*
X189499904Y-48553714D02*
X189118952Y-48553714D01*
X189357047Y-48220380D02*
X189357047Y-49077523D01*
X189309428Y-49172761D01*
X189214190Y-49220380D01*
X189118952Y-49220380D01*
X188642761Y-49220380D02*
X188738000Y-49172761D01*
X188785619Y-49125142D01*
X188833238Y-49029904D01*
X188833238Y-48744190D01*
X188785619Y-48648952D01*
X188738000Y-48601333D01*
X188642761Y-48553714D01*
X188499904Y-48553714D01*
X188404666Y-48601333D01*
X188357047Y-48648952D01*
X188309428Y-48744190D01*
X188309428Y-49029904D01*
X188357047Y-49125142D01*
X188404666Y-49172761D01*
X188499904Y-49220380D01*
X188642761Y-49220380D01*
X187880857Y-49220380D02*
X187880857Y-48553714D01*
X187880857Y-48744190D02*
X187833238Y-48648952D01*
X187785619Y-48601333D01*
X187690380Y-48553714D01*
X187595142Y-48553714D01*
X187309428Y-49172761D02*
X187214190Y-49220380D01*
X187023714Y-49220380D01*
X186928476Y-49172761D01*
X186880857Y-49077523D01*
X186880857Y-49029904D01*
X186928476Y-48934666D01*
X187023714Y-48887047D01*
X187166571Y-48887047D01*
X187261809Y-48839428D01*
X187309428Y-48744190D01*
X187309428Y-48696571D01*
X187261809Y-48601333D01*
X187166571Y-48553714D01*
X187023714Y-48553714D01*
X186928476Y-48601333D01*
X192285619Y-50253714D02*
X191904666Y-50253714D01*
X192142761Y-50920380D02*
X192142761Y-50063238D01*
X192095142Y-49968000D01*
X191999904Y-49920380D01*
X191904666Y-49920380D01*
X191428476Y-50920380D02*
X191523714Y-50872761D01*
X191571333Y-50825142D01*
X191618952Y-50729904D01*
X191618952Y-50444190D01*
X191571333Y-50348952D01*
X191523714Y-50301333D01*
X191428476Y-50253714D01*
X191285619Y-50253714D01*
X191190380Y-50301333D01*
X191142761Y-50348952D01*
X191095142Y-50444190D01*
X191095142Y-50729904D01*
X191142761Y-50825142D01*
X191190380Y-50872761D01*
X191285619Y-50920380D01*
X191428476Y-50920380D01*
X190666571Y-50920380D02*
X190666571Y-50253714D01*
X190666571Y-50444190D02*
X190618952Y-50348952D01*
X190571333Y-50301333D01*
X190476095Y-50253714D01*
X190380857Y-50253714D01*
X189285619Y-50920380D02*
X189285619Y-49920380D01*
X188857047Y-50015619D02*
X188809428Y-49968000D01*
X188714190Y-49920380D01*
X188476095Y-49920380D01*
X188380857Y-49968000D01*
X188333238Y-50015619D01*
X188285619Y-50110857D01*
X188285619Y-50206095D01*
X188333238Y-50348952D01*
X188904666Y-50920380D01*
X188285619Y-50920380D01*
X187285619Y-50825142D02*
X187333238Y-50872761D01*
X187476095Y-50920380D01*
X187571333Y-50920380D01*
X187714190Y-50872761D01*
X187809428Y-50777523D01*
X187857047Y-50682285D01*
X187904666Y-50491809D01*
X187904666Y-50348952D01*
X187857047Y-50158476D01*
X187809428Y-50063238D01*
X187714190Y-49968000D01*
X187571333Y-49920380D01*
X187476095Y-49920380D01*
X187333238Y-49968000D01*
X187285619Y-50015619D01*
D10*
X191719666Y-52274000D02*
X191486333Y-52274000D01*
X191386333Y-52640666D02*
X191719666Y-52640666D01*
X191719666Y-51940666D01*
X191386333Y-51940666D01*
X191153000Y-52640666D02*
X190786333Y-52174000D01*
X191153000Y-52174000D02*
X190786333Y-52640666D01*
X190619666Y-52174000D02*
X190353000Y-52174000D01*
X190519666Y-51940666D02*
X190519666Y-52540666D01*
X190486333Y-52607333D01*
X190419666Y-52640666D01*
X190353000Y-52640666D01*
X190119666Y-52640666D02*
X190119666Y-52174000D01*
X190119666Y-52307333D02*
X190086333Y-52240666D01*
X190053000Y-52207333D01*
X189986333Y-52174000D01*
X189919666Y-52174000D01*
X189386333Y-52640666D02*
X189386333Y-52274000D01*
X189419666Y-52207333D01*
X189486333Y-52174000D01*
X189619666Y-52174000D01*
X189686333Y-52207333D01*
X189386333Y-52607333D02*
X189453000Y-52640666D01*
X189619666Y-52640666D01*
X189686333Y-52607333D01*
X189719666Y-52540666D01*
X189719666Y-52474000D01*
X189686333Y-52407333D01*
X189619666Y-52374000D01*
X189453000Y-52374000D01*
X189386333Y-52340666D01*
X188519666Y-52640666D02*
X188519666Y-51940666D01*
X188353000Y-51940666D01*
X188253000Y-51974000D01*
X188186333Y-52040666D01*
X188153000Y-52107333D01*
X188119666Y-52240666D01*
X188119666Y-52340666D01*
X188153000Y-52474000D01*
X188186333Y-52540666D01*
X188253000Y-52607333D01*
X188353000Y-52640666D01*
X188519666Y-52640666D01*
X187519666Y-52640666D02*
X187519666Y-52274000D01*
X187553000Y-52207333D01*
X187619666Y-52174000D01*
X187753000Y-52174000D01*
X187819666Y-52207333D01*
X187519666Y-52607333D02*
X187586333Y-52640666D01*
X187753000Y-52640666D01*
X187819666Y-52607333D01*
X187853000Y-52540666D01*
X187853000Y-52474000D01*
X187819666Y-52407333D01*
X187753000Y-52374000D01*
X187586333Y-52374000D01*
X187519666Y-52340666D01*
X187286333Y-52174000D02*
X187019666Y-52174000D01*
X187186333Y-51940666D02*
X187186333Y-52540666D01*
X187153000Y-52607333D01*
X187086333Y-52640666D01*
X187019666Y-52640666D01*
X186486333Y-52640666D02*
X186486333Y-52274000D01*
X186519666Y-52207333D01*
X186586333Y-52174000D01*
X186719666Y-52174000D01*
X186786333Y-52207333D01*
X186486333Y-52607333D02*
X186553000Y-52640666D01*
X186719666Y-52640666D01*
X186786333Y-52607333D01*
X186819666Y-52540666D01*
X186819666Y-52474000D01*
X186786333Y-52407333D01*
X186719666Y-52374000D01*
X186553000Y-52374000D01*
X186486333Y-52340666D01*
X156235333Y-46894000D02*
X156302000Y-46860666D01*
X156402000Y-46860666D01*
X156502000Y-46894000D01*
X156568666Y-46960666D01*
X156602000Y-47027333D01*
X156635333Y-47160666D01*
X156635333Y-47260666D01*
X156602000Y-47394000D01*
X156568666Y-47460666D01*
X156502000Y-47527333D01*
X156402000Y-47560666D01*
X156335333Y-47560666D01*
X156235333Y-47527333D01*
X156202000Y-47494000D01*
X156202000Y-47260666D01*
X156335333Y-47260666D01*
X155902000Y-47560666D02*
X155902000Y-46860666D01*
X155502000Y-47560666D01*
X155502000Y-46860666D01*
X155168666Y-47560666D02*
X155168666Y-46860666D01*
X155002000Y-46860666D01*
X154902000Y-46894000D01*
X154835333Y-46960666D01*
X154802000Y-47027333D01*
X154768666Y-47160666D01*
X154768666Y-47260666D01*
X154802000Y-47394000D01*
X154835333Y-47460666D01*
X154902000Y-47527333D01*
X155002000Y-47560666D01*
X155168666Y-47560666D01*
X167049333Y-46860666D02*
X166816000Y-47560666D01*
X166582666Y-46860666D01*
X165949333Y-47494000D02*
X165982666Y-47527333D01*
X166082666Y-47560666D01*
X166149333Y-47560666D01*
X166249333Y-47527333D01*
X166316000Y-47460666D01*
X166349333Y-47394000D01*
X166382666Y-47260666D01*
X166382666Y-47160666D01*
X166349333Y-47027333D01*
X166316000Y-46960666D01*
X166249333Y-46894000D01*
X166149333Y-46860666D01*
X166082666Y-46860666D01*
X165982666Y-46894000D01*
X165949333Y-46927333D01*
X165249333Y-47494000D02*
X165282666Y-47527333D01*
X165382666Y-47560666D01*
X165449333Y-47560666D01*
X165549333Y-47527333D01*
X165616000Y-47460666D01*
X165649333Y-47394000D01*
X165682666Y-47260666D01*
X165682666Y-47160666D01*
X165649333Y-47027333D01*
X165616000Y-46960666D01*
X165549333Y-46894000D01*
X165449333Y-46860666D01*
X165382666Y-46860666D01*
X165282666Y-46894000D01*
X165249333Y-46927333D01*
D13*
X164076000Y-51125380D02*
X164076000Y-50125380D01*
X163837904Y-50125380D01*
X163695047Y-50173000D01*
X163599809Y-50268238D01*
X163552190Y-50363476D01*
X163504571Y-50553952D01*
X163504571Y-50696809D01*
X163552190Y-50887285D01*
X163599809Y-50982523D01*
X163695047Y-51077761D01*
X163837904Y-51125380D01*
X164076000Y-51125380D01*
X163076000Y-51125380D02*
X163076000Y-50125380D01*
D12*
G04 #@! TO.C,D1*
X94545000Y-61970000D02*
X94545000Y-67770000D01*
X92145000Y-61970000D02*
X94545000Y-61970000D01*
X92145000Y-67770000D02*
X92145000Y-61970000D01*
X92145000Y-67695000D02*
X94545000Y-67695000D01*
X92145000Y-67570000D02*
X94545000Y-67570000D01*
X94545000Y-67795000D02*
X92145000Y-67795000D01*
X92145000Y-67395000D02*
X94545000Y-67395000D01*
X92145000Y-67220000D02*
X94545000Y-67220000D01*
X92145000Y-67045000D02*
X94545000Y-67045000D01*
G04 #@! TO.C,D2*
X95180000Y-81020000D02*
X95180000Y-86820000D01*
X92780000Y-81020000D02*
X95180000Y-81020000D01*
X92780000Y-86820000D02*
X92780000Y-81020000D01*
X92780000Y-86745000D02*
X95180000Y-86745000D01*
X92780000Y-86620000D02*
X95180000Y-86620000D01*
X95180000Y-86845000D02*
X92780000Y-86845000D01*
X92780000Y-86445000D02*
X95180000Y-86445000D01*
X92780000Y-86270000D02*
X95180000Y-86270000D01*
X92780000Y-86095000D02*
X95180000Y-86095000D01*
G04 #@! TO.C,D3*
X95180000Y-100070000D02*
X95180000Y-105870000D01*
X92780000Y-100070000D02*
X95180000Y-100070000D01*
X92780000Y-105870000D02*
X92780000Y-100070000D01*
X92780000Y-105795000D02*
X95180000Y-105795000D01*
X92780000Y-105670000D02*
X95180000Y-105670000D01*
X95180000Y-105895000D02*
X92780000Y-105895000D01*
X92780000Y-105495000D02*
X95180000Y-105495000D01*
X92780000Y-105320000D02*
X95180000Y-105320000D01*
X92780000Y-105145000D02*
X95180000Y-105145000D01*
G04 #@! TO.C,D4*
X94545000Y-118815000D02*
X94545000Y-124615000D01*
X92145000Y-118815000D02*
X94545000Y-118815000D01*
X92145000Y-124615000D02*
X92145000Y-118815000D01*
X92145000Y-124540000D02*
X94545000Y-124540000D01*
X92145000Y-124415000D02*
X94545000Y-124415000D01*
X94545000Y-124640000D02*
X92145000Y-124640000D01*
X92145000Y-124240000D02*
X94545000Y-124240000D01*
X92145000Y-124065000D02*
X94545000Y-124065000D01*
X92145000Y-123890000D02*
X94545000Y-123890000D01*
G04 #@! TO.C,D5*
X114230000Y-59430000D02*
X114230000Y-65230000D01*
X111830000Y-59430000D02*
X114230000Y-59430000D01*
X111830000Y-65230000D02*
X111830000Y-59430000D01*
X111830000Y-65155000D02*
X114230000Y-65155000D01*
X111830000Y-65030000D02*
X114230000Y-65030000D01*
X114230000Y-65255000D02*
X111830000Y-65255000D01*
X111830000Y-64855000D02*
X114230000Y-64855000D01*
X111830000Y-64680000D02*
X114230000Y-64680000D01*
X111830000Y-64505000D02*
X114230000Y-64505000D01*
G04 #@! TO.C,D6*
X114230000Y-78955000D02*
X114230000Y-84755000D01*
X111830000Y-78955000D02*
X114230000Y-78955000D01*
X111830000Y-84755000D02*
X111830000Y-78955000D01*
X111830000Y-84680000D02*
X114230000Y-84680000D01*
X111830000Y-84555000D02*
X114230000Y-84555000D01*
X114230000Y-84780000D02*
X111830000Y-84780000D01*
X111830000Y-84380000D02*
X114230000Y-84380000D01*
X111830000Y-84205000D02*
X114230000Y-84205000D01*
X111830000Y-84030000D02*
X114230000Y-84030000D01*
G04 #@! TO.C,D7*
X114230000Y-97835000D02*
X114230000Y-103635000D01*
X111830000Y-97835000D02*
X114230000Y-97835000D01*
X111830000Y-103635000D02*
X111830000Y-97835000D01*
X111830000Y-103560000D02*
X114230000Y-103560000D01*
X111830000Y-103435000D02*
X114230000Y-103435000D01*
X114230000Y-103660000D02*
X111830000Y-103660000D01*
X111830000Y-103260000D02*
X114230000Y-103260000D01*
X111830000Y-103085000D02*
X114230000Y-103085000D01*
X111830000Y-102910000D02*
X114230000Y-102910000D01*
G04 #@! TO.C,D8*
X114230000Y-116580000D02*
X114230000Y-122380000D01*
X111830000Y-116580000D02*
X114230000Y-116580000D01*
X111830000Y-122380000D02*
X111830000Y-116580000D01*
X111830000Y-122305000D02*
X114230000Y-122305000D01*
X111830000Y-122180000D02*
X114230000Y-122180000D01*
X114230000Y-122405000D02*
X111830000Y-122405000D01*
X111830000Y-122005000D02*
X114230000Y-122005000D01*
X111830000Y-121830000D02*
X114230000Y-121830000D01*
X111830000Y-121655000D02*
X114230000Y-121655000D01*
G04 #@! TO.C,D9*
X132010000Y-57220000D02*
X132010000Y-63020000D01*
X129610000Y-57220000D02*
X132010000Y-57220000D01*
X129610000Y-63020000D02*
X129610000Y-57220000D01*
X129610000Y-62945000D02*
X132010000Y-62945000D01*
X129610000Y-62820000D02*
X132010000Y-62820000D01*
X132010000Y-63045000D02*
X129610000Y-63045000D01*
X129610000Y-62645000D02*
X132010000Y-62645000D01*
X129610000Y-62470000D02*
X132010000Y-62470000D01*
X129610000Y-62295000D02*
X132010000Y-62295000D01*
G04 #@! TO.C,D10*
X132645000Y-81020000D02*
X132645000Y-86820000D01*
X130245000Y-81020000D02*
X132645000Y-81020000D01*
X130245000Y-86820000D02*
X130245000Y-81020000D01*
X130245000Y-86745000D02*
X132645000Y-86745000D01*
X130245000Y-86620000D02*
X132645000Y-86620000D01*
X132645000Y-86845000D02*
X130245000Y-86845000D01*
X130245000Y-86445000D02*
X132645000Y-86445000D01*
X130245000Y-86270000D02*
X132645000Y-86270000D01*
X130245000Y-86095000D02*
X132645000Y-86095000D01*
G04 #@! TO.C,D11*
X133280000Y-94990000D02*
X133280000Y-100790000D01*
X130880000Y-94990000D02*
X133280000Y-94990000D01*
X130880000Y-100790000D02*
X130880000Y-94990000D01*
X130880000Y-100715000D02*
X133280000Y-100715000D01*
X130880000Y-100590000D02*
X133280000Y-100590000D01*
X133280000Y-100815000D02*
X130880000Y-100815000D01*
X130880000Y-100415000D02*
X133280000Y-100415000D01*
X130880000Y-100240000D02*
X133280000Y-100240000D01*
X130880000Y-100065000D02*
X133280000Y-100065000D01*
G04 #@! TO.C,D12*
X133280000Y-114345000D02*
X133280000Y-120145000D01*
X130880000Y-114345000D02*
X133280000Y-114345000D01*
X130880000Y-120145000D02*
X130880000Y-114345000D01*
X130880000Y-120070000D02*
X133280000Y-120070000D01*
X130880000Y-119945000D02*
X133280000Y-119945000D01*
X133280000Y-120170000D02*
X130880000Y-120170000D01*
X130880000Y-119770000D02*
X133280000Y-119770000D01*
X130880000Y-119595000D02*
X133280000Y-119595000D01*
X130880000Y-119420000D02*
X133280000Y-119420000D01*
G04 #@! TO.C,D13*
X153600000Y-57435000D02*
X153600000Y-63235000D01*
X151200000Y-57435000D02*
X153600000Y-57435000D01*
X151200000Y-63235000D02*
X151200000Y-57435000D01*
X151200000Y-63160000D02*
X153600000Y-63160000D01*
X151200000Y-63035000D02*
X153600000Y-63035000D01*
X153600000Y-63260000D02*
X151200000Y-63260000D01*
X151200000Y-62860000D02*
X153600000Y-62860000D01*
X151200000Y-62685000D02*
X153600000Y-62685000D01*
X151200000Y-62510000D02*
X153600000Y-62510000D01*
G04 #@! TO.C,D14*
X152330000Y-81020000D02*
X152330000Y-86820000D01*
X149930000Y-81020000D02*
X152330000Y-81020000D01*
X149930000Y-86820000D02*
X149930000Y-81020000D01*
X149930000Y-86745000D02*
X152330000Y-86745000D01*
X149930000Y-86620000D02*
X152330000Y-86620000D01*
X152330000Y-86845000D02*
X149930000Y-86845000D01*
X149930000Y-86445000D02*
X152330000Y-86445000D01*
X149930000Y-86270000D02*
X152330000Y-86270000D01*
X149930000Y-86095000D02*
X152330000Y-86095000D01*
G04 #@! TO.C,D15*
X152330000Y-93085000D02*
X152330000Y-98885000D01*
X149930000Y-93085000D02*
X152330000Y-93085000D01*
X149930000Y-98885000D02*
X149930000Y-93085000D01*
X149930000Y-98810000D02*
X152330000Y-98810000D01*
X149930000Y-98685000D02*
X152330000Y-98685000D01*
X152330000Y-98910000D02*
X149930000Y-98910000D01*
X149930000Y-98510000D02*
X152330000Y-98510000D01*
X149930000Y-98335000D02*
X152330000Y-98335000D01*
X149930000Y-98160000D02*
X152330000Y-98160000D01*
G04 #@! TO.C,D16*
X152330000Y-111805000D02*
X152330000Y-117605000D01*
X149930000Y-111805000D02*
X152330000Y-111805000D01*
X149930000Y-117605000D02*
X149930000Y-111805000D01*
X149930000Y-117530000D02*
X152330000Y-117530000D01*
X149930000Y-117405000D02*
X152330000Y-117405000D01*
X152330000Y-117630000D02*
X149930000Y-117630000D01*
X149930000Y-117230000D02*
X152330000Y-117230000D01*
X149930000Y-117055000D02*
X152330000Y-117055000D01*
X149930000Y-116880000D02*
X152330000Y-116880000D01*
G04 #@! TO.C,D17*
X171380000Y-57195000D02*
X171380000Y-62995000D01*
X168980000Y-57195000D02*
X171380000Y-57195000D01*
X168980000Y-62995000D02*
X168980000Y-57195000D01*
X168980000Y-62920000D02*
X171380000Y-62920000D01*
X168980000Y-62795000D02*
X171380000Y-62795000D01*
X171380000Y-63020000D02*
X168980000Y-63020000D01*
X168980000Y-62620000D02*
X171380000Y-62620000D01*
X168980000Y-62445000D02*
X171380000Y-62445000D01*
X168980000Y-62270000D02*
X171380000Y-62270000D01*
G04 #@! TO.C,D18*
X171380000Y-76575000D02*
X171380000Y-82375000D01*
X168980000Y-76575000D02*
X171380000Y-76575000D01*
X168980000Y-82375000D02*
X168980000Y-76575000D01*
X168980000Y-82300000D02*
X171380000Y-82300000D01*
X168980000Y-82175000D02*
X171380000Y-82175000D01*
X171380000Y-82400000D02*
X168980000Y-82400000D01*
X168980000Y-82000000D02*
X171380000Y-82000000D01*
X168980000Y-81825000D02*
X171380000Y-81825000D01*
X168980000Y-81650000D02*
X171380000Y-81650000D01*
G04 #@! TO.C,D19*
X171380000Y-95080000D02*
X171380000Y-100880000D01*
X168980000Y-95080000D02*
X171380000Y-95080000D01*
X168980000Y-100880000D02*
X168980000Y-95080000D01*
X168980000Y-100805000D02*
X171380000Y-100805000D01*
X168980000Y-100680000D02*
X171380000Y-100680000D01*
X171380000Y-100905000D02*
X168980000Y-100905000D01*
X168980000Y-100505000D02*
X171380000Y-100505000D01*
X168980000Y-100330000D02*
X171380000Y-100330000D01*
X168980000Y-100155000D02*
X171380000Y-100155000D01*
G04 #@! TO.C,D20*
X180270000Y-113315000D02*
X180270000Y-119115000D01*
X177870000Y-113315000D02*
X180270000Y-113315000D01*
X177870000Y-119115000D02*
X177870000Y-113315000D01*
X177870000Y-119040000D02*
X180270000Y-119040000D01*
X177870000Y-118915000D02*
X180270000Y-118915000D01*
X180270000Y-119140000D02*
X177870000Y-119140000D01*
X177870000Y-118740000D02*
X180270000Y-118740000D01*
X177870000Y-118565000D02*
X180270000Y-118565000D01*
X177870000Y-118390000D02*
X180270000Y-118390000D01*
G04 #@! TO.C,D21*
X190430000Y-59590000D02*
X190430000Y-65390000D01*
X188030000Y-59590000D02*
X190430000Y-59590000D01*
X188030000Y-65390000D02*
X188030000Y-59590000D01*
X188030000Y-65315000D02*
X190430000Y-65315000D01*
X188030000Y-65190000D02*
X190430000Y-65190000D01*
X190430000Y-65415000D02*
X188030000Y-65415000D01*
X188030000Y-65015000D02*
X190430000Y-65015000D01*
X188030000Y-64840000D02*
X190430000Y-64840000D01*
X188030000Y-64665000D02*
X190430000Y-64665000D01*
G04 #@! TO.C,D22*
X190430000Y-78480000D02*
X190430000Y-84280000D01*
X188030000Y-78480000D02*
X190430000Y-78480000D01*
X188030000Y-84280000D02*
X188030000Y-78480000D01*
X188030000Y-84205000D02*
X190430000Y-84205000D01*
X188030000Y-84080000D02*
X190430000Y-84080000D01*
X190430000Y-84305000D02*
X188030000Y-84305000D01*
X188030000Y-83905000D02*
X190430000Y-83905000D01*
X188030000Y-83730000D02*
X190430000Y-83730000D01*
X188030000Y-83555000D02*
X190430000Y-83555000D01*
G04 #@! TO.C,D23*
X190430000Y-96735000D02*
X190430000Y-102535000D01*
X188030000Y-96735000D02*
X190430000Y-96735000D01*
X188030000Y-102535000D02*
X188030000Y-96735000D01*
X188030000Y-102460000D02*
X190430000Y-102460000D01*
X188030000Y-102335000D02*
X190430000Y-102335000D01*
X190430000Y-102560000D02*
X188030000Y-102560000D01*
X188030000Y-102160000D02*
X190430000Y-102160000D01*
X188030000Y-101985000D02*
X190430000Y-101985000D01*
X188030000Y-101810000D02*
X190430000Y-101810000D01*
G04 #@! TO.C,D24*
X184080000Y-113100000D02*
X184080000Y-118900000D01*
X181680000Y-113100000D02*
X184080000Y-113100000D01*
X181680000Y-118900000D02*
X181680000Y-113100000D01*
X181680000Y-118825000D02*
X184080000Y-118825000D01*
X181680000Y-118700000D02*
X184080000Y-118700000D01*
X184080000Y-118925000D02*
X181680000Y-118925000D01*
X181680000Y-118525000D02*
X184080000Y-118525000D01*
X181680000Y-118350000D02*
X184080000Y-118350000D01*
X181680000Y-118175000D02*
X184080000Y-118175000D01*
G04 #@! TO.C,D25*
X202350000Y-77400000D02*
X196550000Y-77400000D01*
X202350000Y-75000000D02*
X202350000Y-77400000D01*
X196550000Y-75000000D02*
X202350000Y-75000000D01*
X196625000Y-75000000D02*
X196625000Y-77400000D01*
X196750000Y-75000000D02*
X196750000Y-77400000D01*
X196525000Y-77400000D02*
X196525000Y-75000000D01*
X196925000Y-75000000D02*
X196925000Y-77400000D01*
X197100000Y-75000000D02*
X197100000Y-77400000D01*
X197275000Y-75000000D02*
X197275000Y-77400000D01*
G04 #@! TO.C,D26*
X203550000Y-95180000D02*
X197750000Y-95180000D01*
X203550000Y-92780000D02*
X203550000Y-95180000D01*
X197750000Y-92780000D02*
X203550000Y-92780000D01*
X197825000Y-92780000D02*
X197825000Y-95180000D01*
X197950000Y-92780000D02*
X197950000Y-95180000D01*
X197725000Y-95180000D02*
X197725000Y-92780000D01*
X198125000Y-92780000D02*
X198125000Y-95180000D01*
X198300000Y-92780000D02*
X198300000Y-95180000D01*
X198475000Y-92780000D02*
X198475000Y-95180000D01*
G04 #@! TO.C,D27*
X203460000Y-97720000D02*
X197660000Y-97720000D01*
X203460000Y-95320000D02*
X203460000Y-97720000D01*
X197660000Y-95320000D02*
X203460000Y-95320000D01*
X197735000Y-95320000D02*
X197735000Y-97720000D01*
X197860000Y-95320000D02*
X197860000Y-97720000D01*
X197635000Y-97720000D02*
X197635000Y-95320000D01*
X198035000Y-95320000D02*
X198035000Y-97720000D01*
X198210000Y-95320000D02*
X198210000Y-97720000D01*
X198385000Y-95320000D02*
X198385000Y-97720000D01*
D14*
G04 #@! TO.C,J3*
X196275000Y-55600000D02*
X206875000Y-55600000D01*
X194875000Y-55600000D02*
X194775000Y-55600000D01*
X195975000Y-49400000D02*
X194775000Y-49400000D01*
X199975000Y-49400000D02*
X197375000Y-49400000D01*
X202975000Y-49400000D02*
X201375000Y-49400000D01*
X206875000Y-49400000D02*
X204375000Y-49400000D01*
X194775000Y-55600000D02*
X194775000Y-49400000D01*
X206875000Y-49400000D02*
X206875000Y-50000000D01*
X206875000Y-55000000D02*
X206875000Y-55600000D01*
X208875000Y-50000000D02*
X208875000Y-55000000D01*
X206875000Y-50000000D02*
X208875000Y-50000000D01*
X206875000Y-55000000D02*
X208875000Y-55000000D01*
G04 #@! TO.C,SW2*
X111330000Y-49516000D02*
X111780000Y-49066000D01*
X114730000Y-49516000D02*
X114280000Y-49066000D01*
X114730000Y-54116000D02*
X114280000Y-54566000D01*
X111330000Y-54116000D02*
X111780000Y-54566000D01*
X115780000Y-52816000D02*
X115780000Y-50816000D01*
X111780000Y-49066000D02*
X114280000Y-49066000D01*
X110280000Y-52816000D02*
X110280000Y-50816000D01*
X111780000Y-54566000D02*
X114280000Y-54566000D01*
D15*
G04 #@! TO.C,U1*
X135290038Y-51324000D02*
X132750038Y-51324000D01*
X135290038Y-48784000D02*
X135290038Y-51324000D01*
X150530038Y-79264000D02*
X150530038Y-48784000D01*
X132750038Y-79264000D02*
X150530038Y-79264000D01*
X132750038Y-48784000D02*
X132750038Y-79264000D01*
X150530038Y-48784000D02*
X132750038Y-48784000D01*
D14*
G04 #@! TO.C,J4*
X103773989Y-50160739D02*
X91207842Y-52376490D01*
X91207842Y-52376490D02*
X91669746Y-54996078D01*
X91669746Y-54996078D02*
X104235893Y-52780327D01*
X104235893Y-52780327D02*
X103773989Y-50160739D01*
D12*
G04 #@! TO.C,D28*
X156140000Y-111829999D02*
X156140000Y-117629999D01*
X153740000Y-111829999D02*
X156140000Y-111829999D01*
X153740000Y-117629999D02*
X153740000Y-111829999D01*
X153740000Y-117554999D02*
X156140000Y-117554999D01*
X153740000Y-117429999D02*
X156140000Y-117429999D01*
X156140000Y-117654999D02*
X153740000Y-117654999D01*
X153740000Y-117254999D02*
X156140000Y-117254999D01*
X153740000Y-117079999D02*
X156140000Y-117079999D01*
X153740000Y-116904999D02*
X156140000Y-116904999D01*
D14*
G04 #@! TO.C,D29*
X85434041Y-60157308D02*
X82549041Y-60157308D01*
X82549041Y-60157308D02*
X82549041Y-58337308D01*
X82549041Y-58337308D02*
X85434041Y-58337308D01*
G04 #@! TO.C,D32*
X82544845Y-77533526D02*
X85429845Y-77533526D01*
X82544845Y-79353526D02*
X82544845Y-77533526D01*
X85429845Y-79353526D02*
X82544845Y-79353526D01*
G04 #@! TO.C,D33*
X85455000Y-98329999D02*
X82570000Y-98329999D01*
X82570000Y-98329999D02*
X82570000Y-96509999D01*
X82570000Y-96509999D02*
X85455000Y-96509999D01*
G04 #@! TO.C,D36*
X85473304Y-117373104D02*
X82588304Y-117373104D01*
X82588304Y-117373104D02*
X82588304Y-115553104D01*
X82588304Y-115553104D02*
X85473304Y-115553104D01*
G04 #@! TO.C,D37*
X105390000Y-57806000D02*
X102505000Y-57806000D01*
X105390000Y-55986000D02*
X105390000Y-57806000D01*
X102505000Y-55986000D02*
X105390000Y-55986000D01*
G04 #@! TO.C,D41*
X102505000Y-94086000D02*
X105390000Y-94086000D01*
X105390000Y-94086000D02*
X105390000Y-95906000D01*
X105390000Y-95906000D02*
X102505000Y-95906000D01*
G04 #@! TO.C,D43*
X105390000Y-115083000D02*
X102505000Y-115083000D01*
X105390000Y-113263000D02*
X105390000Y-115083000D01*
X102505000Y-113263000D02*
X105390000Y-113263000D01*
G04 #@! TO.C,D45*
X124386500Y-55393000D02*
X121501500Y-55393000D01*
X124386500Y-53573000D02*
X124386500Y-55393000D01*
X121501500Y-53573000D02*
X124386500Y-53573000D01*
G04 #@! TO.C,D46*
X124440000Y-74570000D02*
X121555000Y-74570000D01*
X124440000Y-72750000D02*
X124440000Y-74570000D01*
X121555000Y-72750000D02*
X124440000Y-72750000D01*
G04 #@! TO.C,D48*
X121481500Y-91673000D02*
X124366500Y-91673000D01*
X124366500Y-91673000D02*
X124366500Y-93493000D01*
X124366500Y-93493000D02*
X121481500Y-93493000D01*
G04 #@! TO.C,D50*
X121555000Y-110723000D02*
X124440000Y-110723000D01*
X124440000Y-110723000D02*
X124440000Y-112543000D01*
X124440000Y-112543000D02*
X121555000Y-112543000D01*
G04 #@! TO.C,D53*
X140732000Y-51160000D02*
X143617000Y-51160000D01*
X143617000Y-51160000D02*
X143617000Y-52980000D01*
X143617000Y-52980000D02*
X140732000Y-52980000D01*
G04 #@! TO.C,D55*
X143490000Y-72030000D02*
X140605000Y-72030000D01*
X143490000Y-70210000D02*
X143490000Y-72030000D01*
X140605000Y-70210000D02*
X143490000Y-70210000D01*
G04 #@! TO.C,D57*
X140605000Y-89387000D02*
X143490000Y-89387000D01*
X143490000Y-89387000D02*
X143490000Y-91207000D01*
X143490000Y-91207000D02*
X140605000Y-91207000D01*
G04 #@! TO.C,D58*
X140478000Y-108437000D02*
X143363000Y-108437000D01*
X143363000Y-108437000D02*
X143363000Y-110257000D01*
X143363000Y-110257000D02*
X140478000Y-110257000D01*
G04 #@! TO.C,D61*
X159708500Y-53446000D02*
X162593500Y-53446000D01*
X162593500Y-53446000D02*
X162593500Y-55266000D01*
X162593500Y-55266000D02*
X159708500Y-55266000D01*
G04 #@! TO.C,D62*
X162540000Y-74443000D02*
X159655000Y-74443000D01*
X162540000Y-72623000D02*
X162540000Y-74443000D01*
X159655000Y-72623000D02*
X162540000Y-72623000D01*
G04 #@! TO.C,D65*
X162540000Y-93493000D02*
X159655000Y-93493000D01*
X162540000Y-91673000D02*
X162540000Y-93493000D01*
X159655000Y-91673000D02*
X162540000Y-91673000D01*
G04 #@! TO.C,D66*
X102505000Y-75036000D02*
X105390000Y-75036000D01*
X105390000Y-75036000D02*
X105390000Y-76856000D01*
X105390000Y-76856000D02*
X102505000Y-76856000D01*
G04 #@! TO.C,D67*
X169782843Y-115015502D02*
X166941672Y-114514527D01*
X170098882Y-113223152D02*
X169782843Y-115015502D01*
X167257712Y-112722177D02*
X170098882Y-113223152D01*
G04 #@! TO.C,D70*
X181590000Y-57679000D02*
X178705000Y-57679000D01*
X181590000Y-55859000D02*
X181590000Y-57679000D01*
X178705000Y-55859000D02*
X181590000Y-55859000D01*
G04 #@! TO.C,D72*
X178705000Y-75036000D02*
X181590000Y-75036000D01*
X181590000Y-75036000D02*
X181590000Y-76856000D01*
X181590000Y-76856000D02*
X178705000Y-76856000D01*
G04 #@! TO.C,D74*
X178705000Y-94086000D02*
X181590000Y-94086000D01*
X181590000Y-94086000D02*
X181590000Y-95906000D01*
X181590000Y-95906000D02*
X178705000Y-95906000D01*
G04 #@! TO.C,D76*
X187597083Y-123540976D02*
X186154583Y-126039459D01*
X186154583Y-126039459D02*
X184578417Y-125129459D01*
X184578417Y-125129459D02*
X186020917Y-122630976D01*
G04 #@! TO.C,D77*
X199758894Y-62360082D02*
X196873894Y-62360082D01*
X196873894Y-62360082D02*
X196873894Y-60540082D01*
X196873894Y-60540082D02*
X199758894Y-60540082D01*
G04 #@! TO.C,D79*
X196870000Y-79735000D02*
X199755000Y-79735000D01*
X196870000Y-81555000D02*
X196870000Y-79735000D01*
X199755000Y-81555000D02*
X196870000Y-81555000D01*
G04 #@! TO.C,D82*
X194672917Y-107726025D02*
X196115417Y-105227542D01*
X196115417Y-105227542D02*
X197691583Y-106137542D01*
X197691583Y-106137542D02*
X196249083Y-108636025D01*
G04 #@! TO.C,Q2*
X148831679Y-125817383D02*
X148831679Y-124357383D01*
X145671679Y-125817383D02*
X145671679Y-123657383D01*
X145671679Y-125817383D02*
X146601679Y-125817383D01*
X148831679Y-125817383D02*
X147901679Y-125817383D01*
G04 #@! TO.C,R3*
X86987748Y-53519000D02*
X87510252Y-53519000D01*
X86987748Y-54939000D02*
X87510252Y-54939000D01*
G04 #@! TO.C,R7*
X82161748Y-53519000D02*
X82684252Y-53519000D01*
X82161748Y-54939000D02*
X82684252Y-54939000D01*
G04 #@! TO.C,R8*
X141621252Y-125551000D02*
X141098748Y-125551000D01*
X141621252Y-124131000D02*
X141098748Y-124131000D01*
G04 #@! TO.C,R9*
X137522760Y-125505326D02*
X137000256Y-125505326D01*
X137522760Y-124085326D02*
X137000256Y-124085326D01*
G04 #@! TO.C,R12*
X79128252Y-56821000D02*
X78605748Y-56821000D01*
X79128252Y-58241000D02*
X78605748Y-58241000D01*
G04 #@! TO.C,R13*
X79119252Y-75871000D02*
X78596748Y-75871000D01*
X79119252Y-77291000D02*
X78596748Y-77291000D01*
G04 #@! TO.C,R16*
X79137252Y-96341000D02*
X78614748Y-96341000D01*
X79137252Y-94921000D02*
X78614748Y-94921000D01*
G04 #@! TO.C,R18*
X79093057Y-115395104D02*
X78570553Y-115395104D01*
X79093057Y-113975104D02*
X78570553Y-113975104D01*
G04 #@! TO.C,R19*
X108323748Y-56336000D02*
X108846252Y-56336000D01*
X108323748Y-54916000D02*
X108846252Y-54916000D01*
G04 #@! TO.C,R22*
X108840748Y-93928000D02*
X109363252Y-93928000D01*
X108840748Y-92508000D02*
X109363252Y-92508000D01*
G04 #@! TO.C,R24*
X108831748Y-112978000D02*
X109354252Y-112978000D01*
X108831748Y-111558000D02*
X109354252Y-111558000D01*
G04 #@! TO.C,R26*
X117863251Y-56186000D02*
X117340747Y-56186000D01*
X117863251Y-57606000D02*
X117340747Y-57606000D01*
G04 #@! TO.C,R29*
X117237252Y-72592000D02*
X116714748Y-72592000D01*
X117237252Y-71172000D02*
X116714748Y-71172000D01*
G04 #@! TO.C,R30*
X117110252Y-90095000D02*
X116587748Y-90095000D01*
X117110252Y-91515000D02*
X116587748Y-91515000D01*
G04 #@! TO.C,R32*
X117237252Y-109272001D02*
X116714748Y-109272001D01*
X117237252Y-110692001D02*
X116714748Y-110692001D01*
G04 #@! TO.C,R34*
X141463662Y-59155649D02*
X141986166Y-59155649D01*
X141463662Y-60575649D02*
X141986166Y-60575649D01*
G04 #@! TO.C,R36*
X141343748Y-79577000D02*
X141866252Y-79577000D01*
X141343748Y-78157000D02*
X141866252Y-78157000D01*
G04 #@! TO.C,R39*
X146931748Y-89229000D02*
X147454252Y-89229000D01*
X146931748Y-87809000D02*
X147454252Y-87809000D01*
G04 #@! TO.C,R41*
X146931748Y-108279000D02*
X147454252Y-108279000D01*
X146931748Y-106859000D02*
X147454252Y-106859000D01*
G04 #@! TO.C,R42*
X165981748Y-51995000D02*
X166504252Y-51995000D01*
X165981748Y-53415000D02*
X166504252Y-53415000D01*
G04 #@! TO.C,R44*
X165981748Y-71045000D02*
X166504252Y-71045000D01*
X165981748Y-72465000D02*
X166504252Y-72465000D01*
G04 #@! TO.C,R47*
X165981748Y-90095000D02*
X166504252Y-90095000D01*
X165981748Y-91515000D02*
X166504252Y-91515000D01*
G04 #@! TO.C,R48*
X108831748Y-75005000D02*
X109354252Y-75005000D01*
X108831748Y-73585000D02*
X109354252Y-73585000D01*
G04 #@! TO.C,R49*
X168917252Y-107684500D02*
X168394748Y-107684500D01*
X168917252Y-109104500D02*
X168394748Y-109104500D01*
G04 #@! TO.C,R52*
X185031748Y-54408000D02*
X185554252Y-54408000D01*
X185031748Y-55828000D02*
X185554252Y-55828000D01*
G04 #@! TO.C,R54*
X184904748Y-73585000D02*
X185427252Y-73585000D01*
X184904748Y-75005000D02*
X185427252Y-75005000D01*
G04 #@! TO.C,R56*
X184904748Y-92508000D02*
X185427252Y-92508000D01*
X184904748Y-93928000D02*
X185427252Y-93928000D01*
G04 #@! TO.C,R58*
X178809425Y-124763923D02*
X178286921Y-124763923D01*
X178809425Y-123343923D02*
X178286921Y-123343923D01*
G04 #@! TO.C,R59*
X193428252Y-59107000D02*
X192905748Y-59107000D01*
X193428252Y-60527000D02*
X192905748Y-60527000D01*
G04 #@! TO.C,R61*
X193555252Y-78284000D02*
X193032748Y-78284000D01*
X193555252Y-79704000D02*
X193032748Y-79704000D01*
G04 #@! TO.C,R63*
X204598748Y-100659000D02*
X205121252Y-100659000D01*
X204598748Y-99239000D02*
X205121252Y-99239000D01*
G04 #@! TO.C,U1*
D11*
X137043371Y-50624666D02*
X137276704Y-50291333D01*
X137443371Y-50624666D02*
X137443371Y-49924666D01*
X137176704Y-49924666D01*
X137110038Y-49958000D01*
X137076704Y-49991333D01*
X137043371Y-50058000D01*
X137043371Y-50158000D01*
X137076704Y-50224666D01*
X137110038Y-50258000D01*
X137176704Y-50291333D01*
X137443371Y-50291333D01*
X136776704Y-50424666D02*
X136443371Y-50424666D01*
X136843371Y-50624666D02*
X136610038Y-49924666D01*
X136376704Y-50624666D01*
X136210038Y-49924666D02*
X136043371Y-50624666D01*
X135910038Y-50124666D01*
X135776704Y-50624666D01*
X135610038Y-49924666D01*
X136585371Y-52244000D02*
X136652038Y-52210666D01*
X136752038Y-52210666D01*
X136852038Y-52244000D01*
X136918704Y-52310666D01*
X136952038Y-52377333D01*
X136985371Y-52510666D01*
X136985371Y-52610666D01*
X136952038Y-52744000D01*
X136918704Y-52810666D01*
X136852038Y-52877333D01*
X136752038Y-52910666D01*
X136685371Y-52910666D01*
X136585371Y-52877333D01*
X136552038Y-52844000D01*
X136552038Y-52610666D01*
X136685371Y-52610666D01*
X136252038Y-52910666D02*
X136252038Y-52210666D01*
X135852038Y-52910666D01*
X135852038Y-52210666D01*
X135518704Y-52910666D02*
X135518704Y-52210666D01*
X135352038Y-52210666D01*
X135252038Y-52244000D01*
X135185371Y-52310666D01*
X135152038Y-52377333D01*
X135118704Y-52510666D01*
X135118704Y-52610666D01*
X135152038Y-52744000D01*
X135185371Y-52810666D01*
X135252038Y-52877333D01*
X135352038Y-52910666D01*
X135518704Y-52910666D01*
X136435371Y-55450666D02*
X136668704Y-55117333D01*
X136835371Y-55450666D02*
X136835371Y-54750666D01*
X136568704Y-54750666D01*
X136502038Y-54784000D01*
X136468704Y-54817333D01*
X136435371Y-54884000D01*
X136435371Y-54984000D01*
X136468704Y-55050666D01*
X136502038Y-55084000D01*
X136568704Y-55117333D01*
X136835371Y-55117333D01*
X136168704Y-55417333D02*
X136068704Y-55450666D01*
X135902038Y-55450666D01*
X135835371Y-55417333D01*
X135802038Y-55384000D01*
X135768704Y-55317333D01*
X135768704Y-55250666D01*
X135802038Y-55184000D01*
X135835371Y-55150666D01*
X135902038Y-55117333D01*
X136035371Y-55084000D01*
X136102038Y-55050666D01*
X136135371Y-55017333D01*
X136168704Y-54950666D01*
X136168704Y-54884000D01*
X136135371Y-54817333D01*
X136102038Y-54784000D01*
X136035371Y-54750666D01*
X135868704Y-54750666D01*
X135768704Y-54784000D01*
X135568704Y-54750666D02*
X135168704Y-54750666D01*
X135368704Y-55450666D02*
X135368704Y-54750666D01*
X136985371Y-57290666D02*
X136752038Y-57990666D01*
X136518704Y-57290666D01*
X135885371Y-57924000D02*
X135918704Y-57957333D01*
X136018704Y-57990666D01*
X136085371Y-57990666D01*
X136185371Y-57957333D01*
X136252038Y-57890666D01*
X136285371Y-57824000D01*
X136318704Y-57690666D01*
X136318704Y-57590666D01*
X136285371Y-57457333D01*
X136252038Y-57390666D01*
X136185371Y-57324000D01*
X136085371Y-57290666D01*
X136018704Y-57290666D01*
X135918704Y-57324000D01*
X135885371Y-57357333D01*
X135185371Y-57924000D02*
X135218704Y-57957333D01*
X135318704Y-57990666D01*
X135385371Y-57990666D01*
X135485371Y-57957333D01*
X135552038Y-57890666D01*
X135585371Y-57824000D01*
X135618704Y-57690666D01*
X135618704Y-57590666D01*
X135585371Y-57457333D01*
X135552038Y-57390666D01*
X135485371Y-57324000D01*
X135385371Y-57290666D01*
X135318704Y-57290666D01*
X135218704Y-57324000D01*
X135185371Y-57357333D01*
X135777371Y-60164000D02*
X136010704Y-60164000D01*
X136010704Y-60530666D02*
X136010704Y-59830666D01*
X135677371Y-59830666D01*
X135110704Y-60064000D02*
X135110704Y-60530666D01*
X135277371Y-59797333D02*
X135444038Y-60297333D01*
X135010704Y-60297333D01*
X135777371Y-62704000D02*
X136010704Y-62704000D01*
X136010704Y-63070666D02*
X136010704Y-62370666D01*
X135677371Y-62370666D01*
X135077371Y-62370666D02*
X135410704Y-62370666D01*
X135444038Y-62704000D01*
X135410704Y-62670666D01*
X135344038Y-62637333D01*
X135177371Y-62637333D01*
X135110704Y-62670666D01*
X135077371Y-62704000D01*
X135044038Y-62770666D01*
X135044038Y-62937333D01*
X135077371Y-63004000D01*
X135110704Y-63037333D01*
X135177371Y-63070666D01*
X135344038Y-63070666D01*
X135410704Y-63037333D01*
X135444038Y-63004000D01*
X135777371Y-67784000D02*
X136010704Y-67784000D01*
X136010704Y-68150666D02*
X136010704Y-67450666D01*
X135677371Y-67450666D01*
X135477371Y-67450666D02*
X135010704Y-67450666D01*
X135310704Y-68150666D01*
X135777371Y-65244000D02*
X136010704Y-65244000D01*
X136010704Y-65610666D02*
X136010704Y-64910666D01*
X135677371Y-64910666D01*
X135110704Y-64910666D02*
X135244038Y-64910666D01*
X135310704Y-64944000D01*
X135344038Y-64977333D01*
X135410704Y-65077333D01*
X135444038Y-65210666D01*
X135444038Y-65477333D01*
X135410704Y-65544000D01*
X135377371Y-65577333D01*
X135310704Y-65610666D01*
X135177371Y-65610666D01*
X135110704Y-65577333D01*
X135077371Y-65544000D01*
X135044038Y-65477333D01*
X135044038Y-65310666D01*
X135077371Y-65244000D01*
X135110704Y-65210666D01*
X135177371Y-65177333D01*
X135310704Y-65177333D01*
X135377371Y-65210666D01*
X135410704Y-65244000D01*
X135444038Y-65310666D01*
X135827371Y-70324000D02*
X135727371Y-70357333D01*
X135694038Y-70390666D01*
X135660704Y-70457333D01*
X135660704Y-70557333D01*
X135694038Y-70624000D01*
X135727371Y-70657333D01*
X135794038Y-70690666D01*
X136060704Y-70690666D01*
X136060704Y-69990666D01*
X135827371Y-69990666D01*
X135760704Y-70024000D01*
X135727371Y-70057333D01*
X135694038Y-70124000D01*
X135694038Y-70190666D01*
X135727371Y-70257333D01*
X135760704Y-70290666D01*
X135827371Y-70324000D01*
X136060704Y-70324000D01*
X134994038Y-70690666D02*
X135394038Y-70690666D01*
X135194038Y-70690666D02*
X135194038Y-69990666D01*
X135260704Y-70090666D01*
X135327371Y-70157333D01*
X135394038Y-70190666D01*
X135827371Y-72864000D02*
X135727371Y-72897333D01*
X135694038Y-72930666D01*
X135660704Y-72997333D01*
X135660704Y-73097333D01*
X135694038Y-73164000D01*
X135727371Y-73197333D01*
X135794038Y-73230666D01*
X136060704Y-73230666D01*
X136060704Y-72530666D01*
X135827371Y-72530666D01*
X135760704Y-72564000D01*
X135727371Y-72597333D01*
X135694038Y-72664000D01*
X135694038Y-72730666D01*
X135727371Y-72797333D01*
X135760704Y-72830666D01*
X135827371Y-72864000D01*
X136060704Y-72864000D01*
X135427371Y-72530666D02*
X134994038Y-72530666D01*
X135227371Y-72797333D01*
X135127371Y-72797333D01*
X135060704Y-72830666D01*
X135027371Y-72864000D01*
X134994038Y-72930666D01*
X134994038Y-73097333D01*
X135027371Y-73164000D01*
X135060704Y-73197333D01*
X135127371Y-73230666D01*
X135327371Y-73230666D01*
X135394038Y-73197333D01*
X135427371Y-73164000D01*
X135827371Y-75404000D02*
X135727371Y-75437333D01*
X135694038Y-75470666D01*
X135660704Y-75537333D01*
X135660704Y-75637333D01*
X135694038Y-75704000D01*
X135727371Y-75737333D01*
X135794038Y-75770666D01*
X136060704Y-75770666D01*
X136060704Y-75070666D01*
X135827371Y-75070666D01*
X135760704Y-75104000D01*
X135727371Y-75137333D01*
X135694038Y-75204000D01*
X135694038Y-75270666D01*
X135727371Y-75337333D01*
X135760704Y-75370666D01*
X135827371Y-75404000D01*
X136060704Y-75404000D01*
X135394038Y-75137333D02*
X135360704Y-75104000D01*
X135294038Y-75070666D01*
X135127371Y-75070666D01*
X135060704Y-75104000D01*
X135027371Y-75137333D01*
X134994038Y-75204000D01*
X134994038Y-75270666D01*
X135027371Y-75370666D01*
X135427371Y-75770666D01*
X134994038Y-75770666D01*
X135827371Y-77944000D02*
X135727371Y-77977333D01*
X135694038Y-78010666D01*
X135660704Y-78077333D01*
X135660704Y-78177333D01*
X135694038Y-78244000D01*
X135727371Y-78277333D01*
X135794038Y-78310666D01*
X136060704Y-78310666D01*
X136060704Y-77610666D01*
X135827371Y-77610666D01*
X135760704Y-77644000D01*
X135727371Y-77677333D01*
X135694038Y-77744000D01*
X135694038Y-77810666D01*
X135727371Y-77877333D01*
X135760704Y-77910666D01*
X135827371Y-77944000D01*
X136060704Y-77944000D01*
X135060704Y-77610666D02*
X135194038Y-77610666D01*
X135260704Y-77644000D01*
X135294038Y-77677333D01*
X135360704Y-77777333D01*
X135394038Y-77910666D01*
X135394038Y-78177333D01*
X135360704Y-78244000D01*
X135327371Y-78277333D01*
X135260704Y-78310666D01*
X135127371Y-78310666D01*
X135060704Y-78277333D01*
X135027371Y-78244000D01*
X134994038Y-78177333D01*
X134994038Y-78010666D01*
X135027371Y-77944000D01*
X135060704Y-77910666D01*
X135127371Y-77877333D01*
X135260704Y-77877333D01*
X135327371Y-77910666D01*
X135360704Y-77944000D01*
X135394038Y-78010666D01*
X148252704Y-50370666D02*
X148252704Y-49670666D01*
X148086038Y-49670666D01*
X147986038Y-49704000D01*
X147919371Y-49770666D01*
X147886038Y-49837333D01*
X147852704Y-49970666D01*
X147852704Y-50070666D01*
X147886038Y-50204000D01*
X147919371Y-50270666D01*
X147986038Y-50337333D01*
X148086038Y-50370666D01*
X148252704Y-50370666D01*
X147619371Y-49670666D02*
X147186038Y-49670666D01*
X147419371Y-49937333D01*
X147319371Y-49937333D01*
X147252704Y-49970666D01*
X147219371Y-50004000D01*
X147186038Y-50070666D01*
X147186038Y-50237333D01*
X147219371Y-50304000D01*
X147252704Y-50337333D01*
X147319371Y-50370666D01*
X147519371Y-50370666D01*
X147586038Y-50337333D01*
X147619371Y-50304000D01*
X148252704Y-52910666D02*
X148252704Y-52210666D01*
X148086038Y-52210666D01*
X147986038Y-52244000D01*
X147919371Y-52310666D01*
X147886038Y-52377333D01*
X147852704Y-52510666D01*
X147852704Y-52610666D01*
X147886038Y-52744000D01*
X147919371Y-52810666D01*
X147986038Y-52877333D01*
X148086038Y-52910666D01*
X148252704Y-52910666D01*
X147586038Y-52277333D02*
X147552704Y-52244000D01*
X147486038Y-52210666D01*
X147319371Y-52210666D01*
X147252704Y-52244000D01*
X147219371Y-52277333D01*
X147186038Y-52344000D01*
X147186038Y-52410666D01*
X147219371Y-52510666D01*
X147619371Y-52910666D01*
X147186038Y-52910666D01*
X147761371Y-54784000D02*
X147828038Y-54750666D01*
X147928038Y-54750666D01*
X148028038Y-54784000D01*
X148094704Y-54850666D01*
X148128038Y-54917333D01*
X148161371Y-55050666D01*
X148161371Y-55150666D01*
X148128038Y-55284000D01*
X148094704Y-55350666D01*
X148028038Y-55417333D01*
X147928038Y-55450666D01*
X147861371Y-55450666D01*
X147761371Y-55417333D01*
X147728038Y-55384000D01*
X147728038Y-55150666D01*
X147861371Y-55150666D01*
X147428038Y-55450666D02*
X147428038Y-54750666D01*
X147028038Y-55450666D01*
X147028038Y-54750666D01*
X146694704Y-55450666D02*
X146694704Y-54750666D01*
X146528038Y-54750666D01*
X146428038Y-54784000D01*
X146361371Y-54850666D01*
X146328038Y-54917333D01*
X146294704Y-55050666D01*
X146294704Y-55150666D01*
X146328038Y-55284000D01*
X146361371Y-55350666D01*
X146428038Y-55417333D01*
X146528038Y-55450666D01*
X146694704Y-55450666D01*
X147761371Y-57324000D02*
X147828038Y-57290666D01*
X147928038Y-57290666D01*
X148028038Y-57324000D01*
X148094704Y-57390666D01*
X148128038Y-57457333D01*
X148161371Y-57590666D01*
X148161371Y-57690666D01*
X148128038Y-57824000D01*
X148094704Y-57890666D01*
X148028038Y-57957333D01*
X147928038Y-57990666D01*
X147861371Y-57990666D01*
X147761371Y-57957333D01*
X147728038Y-57924000D01*
X147728038Y-57690666D01*
X147861371Y-57690666D01*
X147428038Y-57990666D02*
X147428038Y-57290666D01*
X147028038Y-57990666D01*
X147028038Y-57290666D01*
X146694704Y-57990666D02*
X146694704Y-57290666D01*
X146528038Y-57290666D01*
X146428038Y-57324000D01*
X146361371Y-57390666D01*
X146328038Y-57457333D01*
X146294704Y-57590666D01*
X146294704Y-57690666D01*
X146328038Y-57824000D01*
X146361371Y-57890666D01*
X146428038Y-57957333D01*
X146528038Y-57990666D01*
X146694704Y-57990666D01*
X148252704Y-60530666D02*
X148252704Y-59830666D01*
X148086038Y-59830666D01*
X147986038Y-59864000D01*
X147919371Y-59930666D01*
X147886038Y-59997333D01*
X147852704Y-60130666D01*
X147852704Y-60230666D01*
X147886038Y-60364000D01*
X147919371Y-60430666D01*
X147986038Y-60497333D01*
X148086038Y-60530666D01*
X148252704Y-60530666D01*
X147186038Y-60530666D02*
X147586038Y-60530666D01*
X147386038Y-60530666D02*
X147386038Y-59830666D01*
X147452704Y-59930666D01*
X147519371Y-59997333D01*
X147586038Y-60030666D01*
X148252704Y-63070666D02*
X148252704Y-62370666D01*
X148086038Y-62370666D01*
X147986038Y-62404000D01*
X147919371Y-62470666D01*
X147886038Y-62537333D01*
X147852704Y-62670666D01*
X147852704Y-62770666D01*
X147886038Y-62904000D01*
X147919371Y-62970666D01*
X147986038Y-63037333D01*
X148086038Y-63070666D01*
X148252704Y-63070666D01*
X147419371Y-62370666D02*
X147352704Y-62370666D01*
X147286038Y-62404000D01*
X147252704Y-62437333D01*
X147219371Y-62504000D01*
X147186038Y-62637333D01*
X147186038Y-62804000D01*
X147219371Y-62937333D01*
X147252704Y-63004000D01*
X147286038Y-63037333D01*
X147352704Y-63070666D01*
X147419371Y-63070666D01*
X147486038Y-63037333D01*
X147519371Y-63004000D01*
X147552704Y-62937333D01*
X147586038Y-62804000D01*
X147586038Y-62637333D01*
X147552704Y-62504000D01*
X147519371Y-62437333D01*
X147486038Y-62404000D01*
X147419371Y-62370666D01*
X148252704Y-65610666D02*
X148252704Y-64910666D01*
X148086038Y-64910666D01*
X147986038Y-64944000D01*
X147919371Y-65010666D01*
X147886038Y-65077333D01*
X147852704Y-65210666D01*
X147852704Y-65310666D01*
X147886038Y-65444000D01*
X147919371Y-65510666D01*
X147986038Y-65577333D01*
X148086038Y-65610666D01*
X148252704Y-65610666D01*
X147252704Y-65144000D02*
X147252704Y-65610666D01*
X147419371Y-64877333D02*
X147586038Y-65377333D01*
X147152704Y-65377333D01*
X147852704Y-68084000D02*
X147886038Y-68117333D01*
X147986038Y-68150666D01*
X148052704Y-68150666D01*
X148152704Y-68117333D01*
X148219371Y-68050666D01*
X148252704Y-67984000D01*
X148286038Y-67850666D01*
X148286038Y-67750666D01*
X148252704Y-67617333D01*
X148219371Y-67550666D01*
X148152704Y-67484000D01*
X148052704Y-67450666D01*
X147986038Y-67450666D01*
X147886038Y-67484000D01*
X147852704Y-67517333D01*
X147252704Y-67450666D02*
X147386038Y-67450666D01*
X147452704Y-67484000D01*
X147486038Y-67517333D01*
X147552704Y-67617333D01*
X147586038Y-67750666D01*
X147586038Y-68017333D01*
X147552704Y-68084000D01*
X147519371Y-68117333D01*
X147452704Y-68150666D01*
X147319371Y-68150666D01*
X147252704Y-68117333D01*
X147219371Y-68084000D01*
X147186038Y-68017333D01*
X147186038Y-67850666D01*
X147219371Y-67784000D01*
X147252704Y-67750666D01*
X147319371Y-67717333D01*
X147452704Y-67717333D01*
X147519371Y-67750666D01*
X147552704Y-67784000D01*
X147586038Y-67850666D01*
X148252704Y-70690666D02*
X148252704Y-69990666D01*
X148086038Y-69990666D01*
X147986038Y-70024000D01*
X147919371Y-70090666D01*
X147886038Y-70157333D01*
X147852704Y-70290666D01*
X147852704Y-70390666D01*
X147886038Y-70524000D01*
X147919371Y-70590666D01*
X147986038Y-70657333D01*
X148086038Y-70690666D01*
X148252704Y-70690666D01*
X147619371Y-69990666D02*
X147152704Y-69990666D01*
X147452704Y-70690666D01*
X148219371Y-72864000D02*
X147986038Y-72864000D01*
X147886038Y-73230666D02*
X148219371Y-73230666D01*
X148219371Y-72530666D01*
X147886038Y-72530666D01*
X147286038Y-72530666D02*
X147419371Y-72530666D01*
X147486038Y-72564000D01*
X147519371Y-72597333D01*
X147586038Y-72697333D01*
X147619371Y-72830666D01*
X147619371Y-73097333D01*
X147586038Y-73164000D01*
X147552704Y-73197333D01*
X147486038Y-73230666D01*
X147352704Y-73230666D01*
X147286038Y-73197333D01*
X147252704Y-73164000D01*
X147219371Y-73097333D01*
X147219371Y-72930666D01*
X147252704Y-72864000D01*
X147286038Y-72830666D01*
X147352704Y-72797333D01*
X147486038Y-72797333D01*
X147552704Y-72830666D01*
X147586038Y-72864000D01*
X147619371Y-72930666D01*
X148019371Y-75404000D02*
X147919371Y-75437333D01*
X147886038Y-75470666D01*
X147852704Y-75537333D01*
X147852704Y-75637333D01*
X147886038Y-75704000D01*
X147919371Y-75737333D01*
X147986038Y-75770666D01*
X148252704Y-75770666D01*
X148252704Y-75070666D01*
X148019371Y-75070666D01*
X147952704Y-75104000D01*
X147919371Y-75137333D01*
X147886038Y-75204000D01*
X147886038Y-75270666D01*
X147919371Y-75337333D01*
X147952704Y-75370666D01*
X148019371Y-75404000D01*
X148252704Y-75404000D01*
X147252704Y-75304000D02*
X147252704Y-75770666D01*
X147419371Y-75037333D02*
X147586038Y-75537333D01*
X147152704Y-75537333D01*
X148019371Y-77944000D02*
X147919371Y-77977333D01*
X147886038Y-78010666D01*
X147852704Y-78077333D01*
X147852704Y-78177333D01*
X147886038Y-78244000D01*
X147919371Y-78277333D01*
X147986038Y-78310666D01*
X148252704Y-78310666D01*
X148252704Y-77610666D01*
X148019371Y-77610666D01*
X147952704Y-77644000D01*
X147919371Y-77677333D01*
X147886038Y-77744000D01*
X147886038Y-77810666D01*
X147919371Y-77877333D01*
X147952704Y-77910666D01*
X148019371Y-77944000D01*
X148252704Y-77944000D01*
X147219371Y-77610666D02*
X147552704Y-77610666D01*
X147586038Y-77944000D01*
X147552704Y-77910666D01*
X147486038Y-77877333D01*
X147319371Y-77877333D01*
X147252704Y-77910666D01*
X147219371Y-77944000D01*
X147186038Y-78010666D01*
X147186038Y-78177333D01*
X147219371Y-78244000D01*
X147252704Y-78277333D01*
X147319371Y-78310666D01*
X147486038Y-78310666D01*
X147552704Y-78277333D01*
X147586038Y-78244000D01*
G04 #@! TO.C,J4*
D10*
X99242542Y-54695170D02*
X99120988Y-54005805D01*
X98978024Y-54538727D01*
X98661411Y-54086841D01*
X98782965Y-54776206D01*
X98201834Y-54167876D02*
X98070526Y-54191030D01*
X98010661Y-54235433D01*
X97956583Y-54312663D01*
X97946910Y-54449759D01*
X97987427Y-54679548D01*
X98043407Y-54805067D01*
X98120638Y-54859145D01*
X98192080Y-54880395D01*
X98323388Y-54857242D01*
X98383253Y-54812838D01*
X98437331Y-54735608D01*
X98447004Y-54598512D01*
X98406487Y-54368724D01*
X98350507Y-54243204D01*
X98273276Y-54189127D01*
X98201834Y-54167876D01*
X97759542Y-54922816D02*
X97666849Y-54973007D01*
X97502715Y-55001949D01*
X97431272Y-54980698D01*
X97392657Y-54953660D01*
X97348254Y-54893794D01*
X97336677Y-54828140D01*
X97357928Y-54756698D01*
X97384966Y-54718083D01*
X97444832Y-54673679D01*
X97570351Y-54617699D01*
X97630217Y-54573296D01*
X97657256Y-54534681D01*
X97678506Y-54463239D01*
X97666929Y-54397585D01*
X97622526Y-54337719D01*
X97583911Y-54310681D01*
X97512469Y-54289430D01*
X97348334Y-54318372D01*
X97255641Y-54368563D01*
X97075965Y-55077196D02*
X96954411Y-54387831D01*
X101541204Y-54256007D02*
X101448511Y-54306199D01*
X101284377Y-54335140D01*
X101212935Y-54313890D01*
X101174319Y-54286851D01*
X101129916Y-54226985D01*
X101118339Y-54161332D01*
X101139590Y-54089890D01*
X101166628Y-54051274D01*
X101226494Y-54006871D01*
X101352013Y-53950891D01*
X101411879Y-53906487D01*
X101438918Y-53867872D01*
X101460168Y-53796430D01*
X101448591Y-53730776D01*
X101404188Y-53670911D01*
X101365573Y-53643872D01*
X101294131Y-53622622D01*
X101129996Y-53651563D01*
X101037304Y-53701755D01*
X100452127Y-54414193D02*
X100490742Y-54441232D01*
X100595011Y-54456694D01*
X100660665Y-54445117D01*
X100753358Y-54394926D01*
X100807435Y-54317695D01*
X100828685Y-54246253D01*
X100838359Y-54109157D01*
X100820994Y-54010676D01*
X100765014Y-53885157D01*
X100720611Y-53825291D01*
X100643380Y-53771214D01*
X100539111Y-53755752D01*
X100473458Y-53767328D01*
X100380765Y-53817520D01*
X100353726Y-53856135D01*
X100168261Y-54531941D02*
X100046707Y-53842576D01*
X99774338Y-54601401D02*
X100000321Y-54155383D01*
X99652784Y-53912035D02*
X100116167Y-54236499D01*
X106746777Y-53371971D02*
X106625223Y-52682606D01*
X106482259Y-53215528D01*
X106165646Y-52763642D01*
X106287200Y-53453007D01*
X105958930Y-53510890D02*
X105837377Y-52821524D01*
X105657700Y-53530157D02*
X105565007Y-53580349D01*
X105400873Y-53609290D01*
X105329431Y-53588040D01*
X105290815Y-53561001D01*
X105246412Y-53501136D01*
X105234835Y-53435482D01*
X105256086Y-53364040D01*
X105283124Y-53325425D01*
X105342990Y-53281021D01*
X105468509Y-53225041D01*
X105528375Y-53180638D01*
X105555414Y-53142023D01*
X105576664Y-53070580D01*
X105565087Y-53004927D01*
X105520684Y-52945061D01*
X105482069Y-52918022D01*
X105410627Y-52896772D01*
X105246492Y-52925713D01*
X105153800Y-52975905D01*
X104721261Y-53018326D02*
X104589954Y-53041479D01*
X104530088Y-53085882D01*
X104476011Y-53163113D01*
X104466337Y-53300209D01*
X104506855Y-53529997D01*
X104562835Y-53655517D01*
X104640065Y-53709594D01*
X104711507Y-53730844D01*
X104842815Y-53707691D01*
X104902681Y-53663288D01*
X104956758Y-53586057D01*
X104966432Y-53448961D01*
X104925914Y-53219173D01*
X104869934Y-53093653D01*
X104792703Y-53039576D01*
X104721261Y-53018326D01*
X96035351Y-55260685D02*
X96207256Y-54891898D01*
X96429274Y-55191226D02*
X96307720Y-54501860D01*
X96045105Y-54548167D01*
X95985239Y-54592570D01*
X95958200Y-54631185D01*
X95936950Y-54702627D01*
X95954315Y-54801108D01*
X95998718Y-54860974D01*
X96037334Y-54888012D01*
X96108776Y-54909263D01*
X96371391Y-54862957D01*
X95766947Y-55274164D02*
X95674255Y-55324356D01*
X95510120Y-55353298D01*
X95438678Y-55332047D01*
X95400063Y-55305008D01*
X95355659Y-55245143D01*
X95344083Y-55179489D01*
X95365333Y-55108047D01*
X95392372Y-55069432D01*
X95452237Y-55025028D01*
X95577757Y-54969048D01*
X95637622Y-54924645D01*
X95664661Y-54886030D01*
X95685911Y-54814587D01*
X95674335Y-54748934D01*
X95629931Y-54689068D01*
X95591316Y-54662029D01*
X95519874Y-54640779D01*
X95355739Y-54669720D01*
X95263047Y-54719912D01*
X95060297Y-54721815D02*
X94666374Y-54791274D01*
X94984889Y-55445910D02*
X94863335Y-54756544D01*
X93565895Y-55019165D02*
X93625761Y-54974762D01*
X93724242Y-54957397D01*
X93828511Y-54972859D01*
X93905741Y-55026937D01*
X93950145Y-55086802D01*
X94006125Y-55212322D01*
X94023490Y-55310802D01*
X94013816Y-55447898D01*
X93992565Y-55519340D01*
X93938488Y-55596571D01*
X93845796Y-55646763D01*
X93780142Y-55658339D01*
X93675873Y-55642877D01*
X93637257Y-55615838D01*
X93596740Y-55386050D01*
X93728047Y-55362897D01*
X93353392Y-55733587D02*
X93231838Y-55044221D01*
X92959469Y-55803046D01*
X92837915Y-55113680D01*
X92631199Y-55860929D02*
X92509646Y-55171563D01*
X92345511Y-55200505D01*
X92252818Y-55250696D01*
X92198741Y-55327927D01*
X92177491Y-55399369D01*
X92167817Y-55536465D01*
X92185182Y-55634946D01*
X92241162Y-55760465D01*
X92285565Y-55820331D01*
X92362796Y-55874408D01*
X92467065Y-55889870D01*
X92631199Y-55860929D01*
X103959676Y-53152614D02*
X103851442Y-53882498D01*
X103500099Y-53233650D01*
X102986365Y-53967339D02*
X103024980Y-53994377D01*
X103129249Y-54009840D01*
X103194903Y-53998263D01*
X103287596Y-53948071D01*
X103341673Y-53870841D01*
X103362923Y-53799399D01*
X103372597Y-53662303D01*
X103355232Y-53563822D01*
X103299252Y-53438303D01*
X103254849Y-53378437D01*
X103177618Y-53324360D01*
X103073349Y-53308898D01*
X103007695Y-53320474D01*
X102915003Y-53370666D01*
X102887964Y-53409281D01*
X102296999Y-54088893D02*
X102335615Y-54115931D01*
X102439884Y-54131393D01*
X102505538Y-54119817D01*
X102598230Y-54069625D01*
X102652307Y-53992395D01*
X102673558Y-53920952D01*
X102683232Y-53783857D01*
X102665867Y-53685376D01*
X102609887Y-53559856D01*
X102565483Y-53499991D01*
X102488253Y-53445913D01*
X102383984Y-53430451D01*
X102318330Y-53442028D01*
X102225638Y-53492220D01*
X102198599Y-53530835D01*
G04 #@! TO.C,D29*
X85648326Y-61299688D02*
X85648326Y-60299688D01*
X85410231Y-60299688D01*
X85267374Y-60347308D01*
X85172136Y-60442546D01*
X85124517Y-60537784D01*
X85076898Y-60728260D01*
X85076898Y-60871117D01*
X85124517Y-61061593D01*
X85172136Y-61156831D01*
X85267374Y-61252069D01*
X85410231Y-61299688D01*
X85648326Y-61299688D01*
X84695945Y-60394927D02*
X84648326Y-60347308D01*
X84553088Y-60299688D01*
X84314993Y-60299688D01*
X84219755Y-60347308D01*
X84172136Y-60394927D01*
X84124517Y-60490165D01*
X84124517Y-60585403D01*
X84172136Y-60728260D01*
X84743564Y-61299688D01*
X84124517Y-61299688D01*
X83648326Y-61299688D02*
X83457850Y-61299688D01*
X83362612Y-61252069D01*
X83314993Y-61204450D01*
X83219755Y-61061593D01*
X83172136Y-60871117D01*
X83172136Y-60490165D01*
X83219755Y-60394927D01*
X83267374Y-60347308D01*
X83362612Y-60299688D01*
X83553088Y-60299688D01*
X83648326Y-60347308D01*
X83695945Y-60394927D01*
X83743564Y-60490165D01*
X83743564Y-60728260D01*
X83695945Y-60823498D01*
X83648326Y-60871117D01*
X83553088Y-60918736D01*
X83362612Y-60918736D01*
X83267374Y-60871117D01*
X83219755Y-60823498D01*
X83172136Y-60728260D01*
G04 #@! TO.C,D32*
X85644130Y-80495906D02*
X85644130Y-79495906D01*
X85406035Y-79495906D01*
X85263178Y-79543526D01*
X85167940Y-79638764D01*
X85120321Y-79734002D01*
X85072702Y-79924478D01*
X85072702Y-80067335D01*
X85120321Y-80257811D01*
X85167940Y-80353049D01*
X85263178Y-80448287D01*
X85406035Y-80495906D01*
X85644130Y-80495906D01*
X84739368Y-79495906D02*
X84120321Y-79495906D01*
X84453654Y-79876859D01*
X84310797Y-79876859D01*
X84215559Y-79924478D01*
X84167940Y-79972097D01*
X84120321Y-80067335D01*
X84120321Y-80305430D01*
X84167940Y-80400668D01*
X84215559Y-80448287D01*
X84310797Y-80495906D01*
X84596511Y-80495906D01*
X84691749Y-80448287D01*
X84739368Y-80400668D01*
X83739368Y-79591145D02*
X83691749Y-79543526D01*
X83596511Y-79495906D01*
X83358416Y-79495906D01*
X83263178Y-79543526D01*
X83215559Y-79591145D01*
X83167940Y-79686383D01*
X83167940Y-79781621D01*
X83215559Y-79924478D01*
X83786987Y-80495906D01*
X83167940Y-80495906D01*
G04 #@! TO.C,D33*
X85669285Y-99472379D02*
X85669285Y-98472379D01*
X85431190Y-98472379D01*
X85288333Y-98519999D01*
X85193095Y-98615237D01*
X85145476Y-98710475D01*
X85097857Y-98900951D01*
X85097857Y-99043808D01*
X85145476Y-99234284D01*
X85193095Y-99329522D01*
X85288333Y-99424760D01*
X85431190Y-99472379D01*
X85669285Y-99472379D01*
X84764523Y-98472379D02*
X84145476Y-98472379D01*
X84478809Y-98853332D01*
X84335952Y-98853332D01*
X84240714Y-98900951D01*
X84193095Y-98948570D01*
X84145476Y-99043808D01*
X84145476Y-99281903D01*
X84193095Y-99377141D01*
X84240714Y-99424760D01*
X84335952Y-99472379D01*
X84621666Y-99472379D01*
X84716904Y-99424760D01*
X84764523Y-99377141D01*
X83812142Y-98472379D02*
X83193095Y-98472379D01*
X83526428Y-98853332D01*
X83383571Y-98853332D01*
X83288333Y-98900951D01*
X83240714Y-98948570D01*
X83193095Y-99043808D01*
X83193095Y-99281903D01*
X83240714Y-99377141D01*
X83288333Y-99424760D01*
X83383571Y-99472379D01*
X83669285Y-99472379D01*
X83764523Y-99424760D01*
X83812142Y-99377141D01*
G04 #@! TO.C,D36*
X85687589Y-118515484D02*
X85687589Y-117515484D01*
X85449494Y-117515484D01*
X85306637Y-117563104D01*
X85211399Y-117658342D01*
X85163780Y-117753580D01*
X85116161Y-117944056D01*
X85116161Y-118086913D01*
X85163780Y-118277389D01*
X85211399Y-118372627D01*
X85306637Y-118467865D01*
X85449494Y-118515484D01*
X85687589Y-118515484D01*
X84782827Y-117515484D02*
X84163780Y-117515484D01*
X84497113Y-117896437D01*
X84354256Y-117896437D01*
X84259018Y-117944056D01*
X84211399Y-117991675D01*
X84163780Y-118086913D01*
X84163780Y-118325008D01*
X84211399Y-118420246D01*
X84259018Y-118467865D01*
X84354256Y-118515484D01*
X84639970Y-118515484D01*
X84735208Y-118467865D01*
X84782827Y-118420246D01*
X83306637Y-117515484D02*
X83497113Y-117515484D01*
X83592351Y-117563104D01*
X83639970Y-117610723D01*
X83735208Y-117753580D01*
X83782827Y-117944056D01*
X83782827Y-118325008D01*
X83735208Y-118420246D01*
X83687589Y-118467865D01*
X83592351Y-118515484D01*
X83401875Y-118515484D01*
X83306637Y-118467865D01*
X83259018Y-118420246D01*
X83211399Y-118325008D01*
X83211399Y-118086913D01*
X83259018Y-117991675D01*
X83306637Y-117944056D01*
X83401875Y-117896437D01*
X83592351Y-117896437D01*
X83687589Y-117944056D01*
X83735208Y-117991675D01*
X83782827Y-118086913D01*
G04 #@! TO.C,D37*
X104719285Y-55748380D02*
X104719285Y-54748380D01*
X104481190Y-54748380D01*
X104338333Y-54796000D01*
X104243095Y-54891238D01*
X104195476Y-54986476D01*
X104147857Y-55176952D01*
X104147857Y-55319809D01*
X104195476Y-55510285D01*
X104243095Y-55605523D01*
X104338333Y-55700761D01*
X104481190Y-55748380D01*
X104719285Y-55748380D01*
X103814523Y-54748380D02*
X103195476Y-54748380D01*
X103528809Y-55129333D01*
X103385952Y-55129333D01*
X103290714Y-55176952D01*
X103243095Y-55224571D01*
X103195476Y-55319809D01*
X103195476Y-55557904D01*
X103243095Y-55653142D01*
X103290714Y-55700761D01*
X103385952Y-55748380D01*
X103671666Y-55748380D01*
X103766904Y-55700761D01*
X103814523Y-55653142D01*
X102862142Y-54748380D02*
X102195476Y-54748380D01*
X102624047Y-55748380D01*
G04 #@! TO.C,D41*
X104719285Y-93848380D02*
X104719285Y-92848380D01*
X104481190Y-92848380D01*
X104338333Y-92896000D01*
X104243095Y-92991238D01*
X104195476Y-93086476D01*
X104147857Y-93276952D01*
X104147857Y-93419809D01*
X104195476Y-93610285D01*
X104243095Y-93705523D01*
X104338333Y-93800761D01*
X104481190Y-93848380D01*
X104719285Y-93848380D01*
X103290714Y-93181714D02*
X103290714Y-93848380D01*
X103528809Y-92800761D02*
X103766904Y-93515047D01*
X103147857Y-93515047D01*
X102243095Y-93848380D02*
X102814523Y-93848380D01*
X102528809Y-93848380D02*
X102528809Y-92848380D01*
X102624047Y-92991238D01*
X102719285Y-93086476D01*
X102814523Y-93134095D01*
G04 #@! TO.C,D43*
X104719285Y-113025380D02*
X104719285Y-112025380D01*
X104481190Y-112025380D01*
X104338333Y-112073000D01*
X104243095Y-112168238D01*
X104195476Y-112263476D01*
X104147857Y-112453952D01*
X104147857Y-112596809D01*
X104195476Y-112787285D01*
X104243095Y-112882523D01*
X104338333Y-112977761D01*
X104481190Y-113025380D01*
X104719285Y-113025380D01*
X103290714Y-112358714D02*
X103290714Y-113025380D01*
X103528809Y-111977761D02*
X103766904Y-112692047D01*
X103147857Y-112692047D01*
X102862142Y-112025380D02*
X102243095Y-112025380D01*
X102576428Y-112406333D01*
X102433571Y-112406333D01*
X102338333Y-112453952D01*
X102290714Y-112501571D01*
X102243095Y-112596809D01*
X102243095Y-112834904D01*
X102290714Y-112930142D01*
X102338333Y-112977761D01*
X102433571Y-113025380D01*
X102719285Y-113025380D01*
X102814523Y-112977761D01*
X102862142Y-112930142D01*
G04 #@! TO.C,D45*
X123715785Y-53335380D02*
X123715785Y-52335380D01*
X123477690Y-52335380D01*
X123334833Y-52383000D01*
X123239595Y-52478238D01*
X123191976Y-52573476D01*
X123144357Y-52763952D01*
X123144357Y-52906809D01*
X123191976Y-53097285D01*
X123239595Y-53192523D01*
X123334833Y-53287761D01*
X123477690Y-53335380D01*
X123715785Y-53335380D01*
X122287214Y-52668714D02*
X122287214Y-53335380D01*
X122525309Y-52287761D02*
X122763404Y-53002047D01*
X122144357Y-53002047D01*
X121287214Y-52335380D02*
X121763404Y-52335380D01*
X121811023Y-52811571D01*
X121763404Y-52763952D01*
X121668166Y-52716333D01*
X121430071Y-52716333D01*
X121334833Y-52763952D01*
X121287214Y-52811571D01*
X121239595Y-52906809D01*
X121239595Y-53144904D01*
X121287214Y-53240142D01*
X121334833Y-53287761D01*
X121430071Y-53335380D01*
X121668166Y-53335380D01*
X121763404Y-53287761D01*
X121811023Y-53240142D01*
G04 #@! TO.C,D46*
X123769285Y-72512380D02*
X123769285Y-71512380D01*
X123531190Y-71512380D01*
X123388333Y-71560000D01*
X123293095Y-71655238D01*
X123245476Y-71750476D01*
X123197857Y-71940952D01*
X123197857Y-72083809D01*
X123245476Y-72274285D01*
X123293095Y-72369523D01*
X123388333Y-72464761D01*
X123531190Y-72512380D01*
X123769285Y-72512380D01*
X122340714Y-71845714D02*
X122340714Y-72512380D01*
X122578809Y-71464761D02*
X122816904Y-72179047D01*
X122197857Y-72179047D01*
X121388333Y-71512380D02*
X121578809Y-71512380D01*
X121674047Y-71560000D01*
X121721666Y-71607619D01*
X121816904Y-71750476D01*
X121864523Y-71940952D01*
X121864523Y-72321904D01*
X121816904Y-72417142D01*
X121769285Y-72464761D01*
X121674047Y-72512380D01*
X121483571Y-72512380D01*
X121388333Y-72464761D01*
X121340714Y-72417142D01*
X121293095Y-72321904D01*
X121293095Y-72083809D01*
X121340714Y-71988571D01*
X121388333Y-71940952D01*
X121483571Y-71893333D01*
X121674047Y-71893333D01*
X121769285Y-71940952D01*
X121816904Y-71988571D01*
X121864523Y-72083809D01*
G04 #@! TO.C,D48*
X123695785Y-91435380D02*
X123695785Y-90435380D01*
X123457690Y-90435380D01*
X123314833Y-90483000D01*
X123219595Y-90578238D01*
X123171976Y-90673476D01*
X123124357Y-90863952D01*
X123124357Y-91006809D01*
X123171976Y-91197285D01*
X123219595Y-91292523D01*
X123314833Y-91387761D01*
X123457690Y-91435380D01*
X123695785Y-91435380D01*
X122267214Y-90768714D02*
X122267214Y-91435380D01*
X122505309Y-90387761D02*
X122743404Y-91102047D01*
X122124357Y-91102047D01*
X121600547Y-90863952D02*
X121695785Y-90816333D01*
X121743404Y-90768714D01*
X121791023Y-90673476D01*
X121791023Y-90625857D01*
X121743404Y-90530619D01*
X121695785Y-90483000D01*
X121600547Y-90435380D01*
X121410071Y-90435380D01*
X121314833Y-90483000D01*
X121267214Y-90530619D01*
X121219595Y-90625857D01*
X121219595Y-90673476D01*
X121267214Y-90768714D01*
X121314833Y-90816333D01*
X121410071Y-90863952D01*
X121600547Y-90863952D01*
X121695785Y-90911571D01*
X121743404Y-90959190D01*
X121791023Y-91054428D01*
X121791023Y-91244904D01*
X121743404Y-91340142D01*
X121695785Y-91387761D01*
X121600547Y-91435380D01*
X121410071Y-91435380D01*
X121314833Y-91387761D01*
X121267214Y-91340142D01*
X121219595Y-91244904D01*
X121219595Y-91054428D01*
X121267214Y-90959190D01*
X121314833Y-90911571D01*
X121410071Y-90863952D01*
G04 #@! TO.C,D50*
X123769285Y-110485380D02*
X123769285Y-109485380D01*
X123531190Y-109485380D01*
X123388333Y-109533000D01*
X123293095Y-109628238D01*
X123245476Y-109723476D01*
X123197857Y-109913952D01*
X123197857Y-110056809D01*
X123245476Y-110247285D01*
X123293095Y-110342523D01*
X123388333Y-110437761D01*
X123531190Y-110485380D01*
X123769285Y-110485380D01*
X122293095Y-109485380D02*
X122769285Y-109485380D01*
X122816904Y-109961571D01*
X122769285Y-109913952D01*
X122674047Y-109866333D01*
X122435952Y-109866333D01*
X122340714Y-109913952D01*
X122293095Y-109961571D01*
X122245476Y-110056809D01*
X122245476Y-110294904D01*
X122293095Y-110390142D01*
X122340714Y-110437761D01*
X122435952Y-110485380D01*
X122674047Y-110485380D01*
X122769285Y-110437761D01*
X122816904Y-110390142D01*
X121626428Y-109485380D02*
X121531190Y-109485380D01*
X121435952Y-109533000D01*
X121388333Y-109580619D01*
X121340714Y-109675857D01*
X121293095Y-109866333D01*
X121293095Y-110104428D01*
X121340714Y-110294904D01*
X121388333Y-110390142D01*
X121435952Y-110437761D01*
X121531190Y-110485380D01*
X121626428Y-110485380D01*
X121721666Y-110437761D01*
X121769285Y-110390142D01*
X121816904Y-110294904D01*
X121864523Y-110104428D01*
X121864523Y-109866333D01*
X121816904Y-109675857D01*
X121769285Y-109580619D01*
X121721666Y-109533000D01*
X121626428Y-109485380D01*
G04 #@! TO.C,D53*
X142946285Y-50922380D02*
X142946285Y-49922380D01*
X142708190Y-49922380D01*
X142565333Y-49970000D01*
X142470095Y-50065238D01*
X142422476Y-50160476D01*
X142374857Y-50350952D01*
X142374857Y-50493809D01*
X142422476Y-50684285D01*
X142470095Y-50779523D01*
X142565333Y-50874761D01*
X142708190Y-50922380D01*
X142946285Y-50922380D01*
X141470095Y-49922380D02*
X141946285Y-49922380D01*
X141993904Y-50398571D01*
X141946285Y-50350952D01*
X141851047Y-50303333D01*
X141612952Y-50303333D01*
X141517714Y-50350952D01*
X141470095Y-50398571D01*
X141422476Y-50493809D01*
X141422476Y-50731904D01*
X141470095Y-50827142D01*
X141517714Y-50874761D01*
X141612952Y-50922380D01*
X141851047Y-50922380D01*
X141946285Y-50874761D01*
X141993904Y-50827142D01*
X141089142Y-49922380D02*
X140470095Y-49922380D01*
X140803428Y-50303333D01*
X140660571Y-50303333D01*
X140565333Y-50350952D01*
X140517714Y-50398571D01*
X140470095Y-50493809D01*
X140470095Y-50731904D01*
X140517714Y-50827142D01*
X140565333Y-50874761D01*
X140660571Y-50922380D01*
X140946285Y-50922380D01*
X141041523Y-50874761D01*
X141089142Y-50827142D01*
G04 #@! TO.C,D55*
X142819285Y-69972380D02*
X142819285Y-68972380D01*
X142581190Y-68972380D01*
X142438333Y-69020000D01*
X142343095Y-69115238D01*
X142295476Y-69210476D01*
X142247857Y-69400952D01*
X142247857Y-69543809D01*
X142295476Y-69734285D01*
X142343095Y-69829523D01*
X142438333Y-69924761D01*
X142581190Y-69972380D01*
X142819285Y-69972380D01*
X141343095Y-68972380D02*
X141819285Y-68972380D01*
X141866904Y-69448571D01*
X141819285Y-69400952D01*
X141724047Y-69353333D01*
X141485952Y-69353333D01*
X141390714Y-69400952D01*
X141343095Y-69448571D01*
X141295476Y-69543809D01*
X141295476Y-69781904D01*
X141343095Y-69877142D01*
X141390714Y-69924761D01*
X141485952Y-69972380D01*
X141724047Y-69972380D01*
X141819285Y-69924761D01*
X141866904Y-69877142D01*
X140390714Y-68972380D02*
X140866904Y-68972380D01*
X140914523Y-69448571D01*
X140866904Y-69400952D01*
X140771666Y-69353333D01*
X140533571Y-69353333D01*
X140438333Y-69400952D01*
X140390714Y-69448571D01*
X140343095Y-69543809D01*
X140343095Y-69781904D01*
X140390714Y-69877142D01*
X140438333Y-69924761D01*
X140533571Y-69972380D01*
X140771666Y-69972380D01*
X140866904Y-69924761D01*
X140914523Y-69877142D01*
G04 #@! TO.C,D57*
X142819285Y-89149380D02*
X142819285Y-88149380D01*
X142581190Y-88149380D01*
X142438333Y-88197000D01*
X142343095Y-88292238D01*
X142295476Y-88387476D01*
X142247857Y-88577952D01*
X142247857Y-88720809D01*
X142295476Y-88911285D01*
X142343095Y-89006523D01*
X142438333Y-89101761D01*
X142581190Y-89149380D01*
X142819285Y-89149380D01*
X141343095Y-88149380D02*
X141819285Y-88149380D01*
X141866904Y-88625571D01*
X141819285Y-88577952D01*
X141724047Y-88530333D01*
X141485952Y-88530333D01*
X141390714Y-88577952D01*
X141343095Y-88625571D01*
X141295476Y-88720809D01*
X141295476Y-88958904D01*
X141343095Y-89054142D01*
X141390714Y-89101761D01*
X141485952Y-89149380D01*
X141724047Y-89149380D01*
X141819285Y-89101761D01*
X141866904Y-89054142D01*
X140962142Y-88149380D02*
X140295476Y-88149380D01*
X140724047Y-89149380D01*
G04 #@! TO.C,D58*
X142692285Y-108199380D02*
X142692285Y-107199380D01*
X142454190Y-107199380D01*
X142311333Y-107247000D01*
X142216095Y-107342238D01*
X142168476Y-107437476D01*
X142120857Y-107627952D01*
X142120857Y-107770809D01*
X142168476Y-107961285D01*
X142216095Y-108056523D01*
X142311333Y-108151761D01*
X142454190Y-108199380D01*
X142692285Y-108199380D01*
X141216095Y-107199380D02*
X141692285Y-107199380D01*
X141739904Y-107675571D01*
X141692285Y-107627952D01*
X141597047Y-107580333D01*
X141358952Y-107580333D01*
X141263714Y-107627952D01*
X141216095Y-107675571D01*
X141168476Y-107770809D01*
X141168476Y-108008904D01*
X141216095Y-108104142D01*
X141263714Y-108151761D01*
X141358952Y-108199380D01*
X141597047Y-108199380D01*
X141692285Y-108151761D01*
X141739904Y-108104142D01*
X140597047Y-107627952D02*
X140692285Y-107580333D01*
X140739904Y-107532714D01*
X140787523Y-107437476D01*
X140787523Y-107389857D01*
X140739904Y-107294619D01*
X140692285Y-107247000D01*
X140597047Y-107199380D01*
X140406571Y-107199380D01*
X140311333Y-107247000D01*
X140263714Y-107294619D01*
X140216095Y-107389857D01*
X140216095Y-107437476D01*
X140263714Y-107532714D01*
X140311333Y-107580333D01*
X140406571Y-107627952D01*
X140597047Y-107627952D01*
X140692285Y-107675571D01*
X140739904Y-107723190D01*
X140787523Y-107818428D01*
X140787523Y-108008904D01*
X140739904Y-108104142D01*
X140692285Y-108151761D01*
X140597047Y-108199380D01*
X140406571Y-108199380D01*
X140311333Y-108151761D01*
X140263714Y-108104142D01*
X140216095Y-108008904D01*
X140216095Y-107818428D01*
X140263714Y-107723190D01*
X140311333Y-107675571D01*
X140406571Y-107627952D01*
G04 #@! TO.C,D61*
X161922785Y-53208380D02*
X161922785Y-52208380D01*
X161684690Y-52208380D01*
X161541833Y-52256000D01*
X161446595Y-52351238D01*
X161398976Y-52446476D01*
X161351357Y-52636952D01*
X161351357Y-52779809D01*
X161398976Y-52970285D01*
X161446595Y-53065523D01*
X161541833Y-53160761D01*
X161684690Y-53208380D01*
X161922785Y-53208380D01*
X160494214Y-52208380D02*
X160684690Y-52208380D01*
X160779928Y-52256000D01*
X160827547Y-52303619D01*
X160922785Y-52446476D01*
X160970404Y-52636952D01*
X160970404Y-53017904D01*
X160922785Y-53113142D01*
X160875166Y-53160761D01*
X160779928Y-53208380D01*
X160589452Y-53208380D01*
X160494214Y-53160761D01*
X160446595Y-53113142D01*
X160398976Y-53017904D01*
X160398976Y-52779809D01*
X160446595Y-52684571D01*
X160494214Y-52636952D01*
X160589452Y-52589333D01*
X160779928Y-52589333D01*
X160875166Y-52636952D01*
X160922785Y-52684571D01*
X160970404Y-52779809D01*
X159446595Y-53208380D02*
X160018023Y-53208380D01*
X159732309Y-53208380D02*
X159732309Y-52208380D01*
X159827547Y-52351238D01*
X159922785Y-52446476D01*
X160018023Y-52494095D01*
G04 #@! TO.C,D62*
X161869285Y-72385380D02*
X161869285Y-71385380D01*
X161631190Y-71385380D01*
X161488333Y-71433000D01*
X161393095Y-71528238D01*
X161345476Y-71623476D01*
X161297857Y-71813952D01*
X161297857Y-71956809D01*
X161345476Y-72147285D01*
X161393095Y-72242523D01*
X161488333Y-72337761D01*
X161631190Y-72385380D01*
X161869285Y-72385380D01*
X160440714Y-71385380D02*
X160631190Y-71385380D01*
X160726428Y-71433000D01*
X160774047Y-71480619D01*
X160869285Y-71623476D01*
X160916904Y-71813952D01*
X160916904Y-72194904D01*
X160869285Y-72290142D01*
X160821666Y-72337761D01*
X160726428Y-72385380D01*
X160535952Y-72385380D01*
X160440714Y-72337761D01*
X160393095Y-72290142D01*
X160345476Y-72194904D01*
X160345476Y-71956809D01*
X160393095Y-71861571D01*
X160440714Y-71813952D01*
X160535952Y-71766333D01*
X160726428Y-71766333D01*
X160821666Y-71813952D01*
X160869285Y-71861571D01*
X160916904Y-71956809D01*
X159964523Y-71480619D02*
X159916904Y-71433000D01*
X159821666Y-71385380D01*
X159583571Y-71385380D01*
X159488333Y-71433000D01*
X159440714Y-71480619D01*
X159393095Y-71575857D01*
X159393095Y-71671095D01*
X159440714Y-71813952D01*
X160012142Y-72385380D01*
X159393095Y-72385380D01*
G04 #@! TO.C,D65*
X161869285Y-91435380D02*
X161869285Y-90435380D01*
X161631190Y-90435380D01*
X161488333Y-90483000D01*
X161393095Y-90578238D01*
X161345476Y-90673476D01*
X161297857Y-90863952D01*
X161297857Y-91006809D01*
X161345476Y-91197285D01*
X161393095Y-91292523D01*
X161488333Y-91387761D01*
X161631190Y-91435380D01*
X161869285Y-91435380D01*
X160440714Y-90435380D02*
X160631190Y-90435380D01*
X160726428Y-90483000D01*
X160774047Y-90530619D01*
X160869285Y-90673476D01*
X160916904Y-90863952D01*
X160916904Y-91244904D01*
X160869285Y-91340142D01*
X160821666Y-91387761D01*
X160726428Y-91435380D01*
X160535952Y-91435380D01*
X160440714Y-91387761D01*
X160393095Y-91340142D01*
X160345476Y-91244904D01*
X160345476Y-91006809D01*
X160393095Y-90911571D01*
X160440714Y-90863952D01*
X160535952Y-90816333D01*
X160726428Y-90816333D01*
X160821666Y-90863952D01*
X160869285Y-90911571D01*
X160916904Y-91006809D01*
X159440714Y-90435380D02*
X159916904Y-90435380D01*
X159964523Y-90911571D01*
X159916904Y-90863952D01*
X159821666Y-90816333D01*
X159583571Y-90816333D01*
X159488333Y-90863952D01*
X159440714Y-90911571D01*
X159393095Y-91006809D01*
X159393095Y-91244904D01*
X159440714Y-91340142D01*
X159488333Y-91387761D01*
X159583571Y-91435380D01*
X159821666Y-91435380D01*
X159916904Y-91387761D01*
X159964523Y-91340142D01*
G04 #@! TO.C,D66*
X104719285Y-74798380D02*
X104719285Y-73798380D01*
X104481190Y-73798380D01*
X104338333Y-73846000D01*
X104243095Y-73941238D01*
X104195476Y-74036476D01*
X104147857Y-74226952D01*
X104147857Y-74369809D01*
X104195476Y-74560285D01*
X104243095Y-74655523D01*
X104338333Y-74750761D01*
X104481190Y-74798380D01*
X104719285Y-74798380D01*
X103290714Y-73798380D02*
X103481190Y-73798380D01*
X103576428Y-73846000D01*
X103624047Y-73893619D01*
X103719285Y-74036476D01*
X103766904Y-74226952D01*
X103766904Y-74607904D01*
X103719285Y-74703142D01*
X103671666Y-74750761D01*
X103576428Y-74798380D01*
X103385952Y-74798380D01*
X103290714Y-74750761D01*
X103243095Y-74703142D01*
X103195476Y-74607904D01*
X103195476Y-74369809D01*
X103243095Y-74274571D01*
X103290714Y-74226952D01*
X103385952Y-74179333D01*
X103576428Y-74179333D01*
X103671666Y-74226952D01*
X103719285Y-74274571D01*
X103766904Y-74369809D01*
X102338333Y-73798380D02*
X102528809Y-73798380D01*
X102624047Y-73846000D01*
X102671666Y-73893619D01*
X102766904Y-74036476D01*
X102814523Y-74226952D01*
X102814523Y-74607904D01*
X102766904Y-74703142D01*
X102719285Y-74750761D01*
X102624047Y-74798380D01*
X102433571Y-74798380D01*
X102338333Y-74750761D01*
X102290714Y-74703142D01*
X102243095Y-74607904D01*
X102243095Y-74369809D01*
X102290714Y-74274571D01*
X102338333Y-74226952D01*
X102433571Y-74179333D01*
X102624047Y-74179333D01*
X102719285Y-74226952D01*
X102766904Y-74274571D01*
X102814523Y-74369809D01*
G04 #@! TO.C,D67*
X169479619Y-112872674D02*
X169653268Y-111887867D01*
X169418789Y-111846522D01*
X169269834Y-111868610D01*
X169159505Y-111945864D01*
X169096071Y-112031386D01*
X169016100Y-112210699D01*
X168991293Y-112351386D01*
X169005112Y-112547238D01*
X169035470Y-112649298D01*
X169112723Y-112759627D01*
X169245141Y-112831329D01*
X169479619Y-112872674D01*
X168246399Y-111639798D02*
X168433982Y-111672874D01*
X168519504Y-111736307D01*
X168558131Y-111791472D01*
X168627115Y-111948696D01*
X168640935Y-112144548D01*
X168574783Y-112519713D01*
X168511350Y-112605235D01*
X168456185Y-112643862D01*
X168354125Y-112674219D01*
X168166542Y-112641143D01*
X168081020Y-112577710D01*
X168042393Y-112522545D01*
X168012036Y-112420485D01*
X168053381Y-112186007D01*
X168116814Y-112100485D01*
X168171979Y-112061858D01*
X168274039Y-112031500D01*
X168461621Y-112064576D01*
X168547144Y-112128010D01*
X168585770Y-112183174D01*
X168616128Y-112285235D01*
X167824339Y-111565377D02*
X167167800Y-111449612D01*
X167416213Y-112508840D01*
G04 #@! TO.C,D70*
X180919285Y-55621380D02*
X180919285Y-54621380D01*
X180681190Y-54621380D01*
X180538333Y-54669000D01*
X180443095Y-54764238D01*
X180395476Y-54859476D01*
X180347857Y-55049952D01*
X180347857Y-55192809D01*
X180395476Y-55383285D01*
X180443095Y-55478523D01*
X180538333Y-55573761D01*
X180681190Y-55621380D01*
X180919285Y-55621380D01*
X180014523Y-54621380D02*
X179347857Y-54621380D01*
X179776428Y-55621380D01*
X178776428Y-54621380D02*
X178681190Y-54621380D01*
X178585952Y-54669000D01*
X178538333Y-54716619D01*
X178490714Y-54811857D01*
X178443095Y-55002333D01*
X178443095Y-55240428D01*
X178490714Y-55430904D01*
X178538333Y-55526142D01*
X178585952Y-55573761D01*
X178681190Y-55621380D01*
X178776428Y-55621380D01*
X178871666Y-55573761D01*
X178919285Y-55526142D01*
X178966904Y-55430904D01*
X179014523Y-55240428D01*
X179014523Y-55002333D01*
X178966904Y-54811857D01*
X178919285Y-54716619D01*
X178871666Y-54669000D01*
X178776428Y-54621380D01*
G04 #@! TO.C,D72*
X180919285Y-74798380D02*
X180919285Y-73798380D01*
X180681190Y-73798380D01*
X180538333Y-73846000D01*
X180443095Y-73941238D01*
X180395476Y-74036476D01*
X180347857Y-74226952D01*
X180347857Y-74369809D01*
X180395476Y-74560285D01*
X180443095Y-74655523D01*
X180538333Y-74750761D01*
X180681190Y-74798380D01*
X180919285Y-74798380D01*
X180014523Y-73798380D02*
X179347857Y-73798380D01*
X179776428Y-74798380D01*
X179014523Y-73893619D02*
X178966904Y-73846000D01*
X178871666Y-73798380D01*
X178633571Y-73798380D01*
X178538333Y-73846000D01*
X178490714Y-73893619D01*
X178443095Y-73988857D01*
X178443095Y-74084095D01*
X178490714Y-74226952D01*
X179062142Y-74798380D01*
X178443095Y-74798380D01*
G04 #@! TO.C,D74*
X180919285Y-93848380D02*
X180919285Y-92848380D01*
X180681190Y-92848380D01*
X180538333Y-92896000D01*
X180443095Y-92991238D01*
X180395476Y-93086476D01*
X180347857Y-93276952D01*
X180347857Y-93419809D01*
X180395476Y-93610285D01*
X180443095Y-93705523D01*
X180538333Y-93800761D01*
X180681190Y-93848380D01*
X180919285Y-93848380D01*
X180014523Y-92848380D02*
X179347857Y-92848380D01*
X179776428Y-93848380D01*
X178538333Y-93181714D02*
X178538333Y-93848380D01*
X178776428Y-92800761D02*
X179014523Y-93515047D01*
X178395476Y-93515047D01*
G04 #@! TO.C,D76*
X188693557Y-123926589D02*
X187827531Y-123426589D01*
X187708484Y-123632785D01*
X187678294Y-123780313D01*
X187713154Y-123910410D01*
X187771823Y-123999269D01*
X187912971Y-124135746D01*
X188036689Y-124207175D01*
X188225455Y-124261173D01*
X188331744Y-124267553D01*
X188461841Y-124232694D01*
X188574509Y-124132785D01*
X188693557Y-123926589D01*
X187375150Y-124210135D02*
X187041817Y-124787486D01*
X188122128Y-124916332D01*
X186637055Y-125488554D02*
X186732293Y-125323597D01*
X186821152Y-125264928D01*
X186886200Y-125247498D01*
X187057537Y-125236448D01*
X187246304Y-125290447D01*
X187576219Y-125480923D01*
X187634888Y-125569781D01*
X187652317Y-125634830D01*
X187645938Y-125741118D01*
X187550700Y-125906075D01*
X187461841Y-125964744D01*
X187396792Y-125982174D01*
X187290504Y-125975794D01*
X187084308Y-125856747D01*
X187025639Y-125767888D01*
X187008209Y-125702840D01*
X187014589Y-125596552D01*
X187109827Y-125431594D01*
X187198685Y-125372925D01*
X187263734Y-125355495D01*
X187370022Y-125361875D01*
G04 #@! TO.C,D77*
X199973179Y-63502462D02*
X199973179Y-62502462D01*
X199735084Y-62502462D01*
X199592227Y-62550082D01*
X199496989Y-62645320D01*
X199449370Y-62740558D01*
X199401751Y-62931034D01*
X199401751Y-63073891D01*
X199449370Y-63264367D01*
X199496989Y-63359605D01*
X199592227Y-63454843D01*
X199735084Y-63502462D01*
X199973179Y-63502462D01*
X199068417Y-62502462D02*
X198401751Y-62502462D01*
X198830322Y-63502462D01*
X198116036Y-62502462D02*
X197449370Y-62502462D01*
X197877941Y-63502462D01*
G04 #@! TO.C,D79*
X199969285Y-82697380D02*
X199969285Y-81697380D01*
X199731190Y-81697380D01*
X199588333Y-81745000D01*
X199493095Y-81840238D01*
X199445476Y-81935476D01*
X199397857Y-82125952D01*
X199397857Y-82268809D01*
X199445476Y-82459285D01*
X199493095Y-82554523D01*
X199588333Y-82649761D01*
X199731190Y-82697380D01*
X199969285Y-82697380D01*
X199064523Y-81697380D02*
X198397857Y-81697380D01*
X198826428Y-82697380D01*
X197969285Y-82697380D02*
X197778809Y-82697380D01*
X197683571Y-82649761D01*
X197635952Y-82602142D01*
X197540714Y-82459285D01*
X197493095Y-82268809D01*
X197493095Y-81887857D01*
X197540714Y-81792619D01*
X197588333Y-81745000D01*
X197683571Y-81697380D01*
X197874047Y-81697380D01*
X197969285Y-81745000D01*
X198016904Y-81792619D01*
X198064523Y-81887857D01*
X198064523Y-82125952D01*
X198016904Y-82221190D01*
X197969285Y-82268809D01*
X197874047Y-82316428D01*
X197683571Y-82316428D01*
X197588333Y-82268809D01*
X197540714Y-82221190D01*
X197493095Y-82125952D01*
G04 #@! TO.C,D82*
X195574275Y-105689588D02*
X194708249Y-105189588D01*
X194589202Y-105395784D01*
X194559012Y-105543312D01*
X194593872Y-105673409D01*
X194652541Y-105762268D01*
X194793689Y-105898745D01*
X194917407Y-105970174D01*
X195106173Y-106024172D01*
X195212462Y-106030552D01*
X195342559Y-105995693D01*
X195455227Y-105895784D01*
X195574275Y-105689588D01*
X194507975Y-106393617D02*
X194514354Y-106287329D01*
X194496924Y-106222280D01*
X194438255Y-106133421D01*
X194397016Y-106109612D01*
X194290728Y-106103232D01*
X194225679Y-106120662D01*
X194136821Y-106179331D01*
X194041583Y-106344288D01*
X194035203Y-106450576D01*
X194052633Y-106515625D01*
X194111302Y-106604484D01*
X194152541Y-106628293D01*
X194258829Y-106634673D01*
X194323878Y-106617243D01*
X194412736Y-106558574D01*
X194507975Y-106393617D01*
X194596833Y-106334948D01*
X194661882Y-106317518D01*
X194768170Y-106323898D01*
X194933127Y-106419136D01*
X194991796Y-106507994D01*
X195009226Y-106573043D01*
X195002846Y-106679331D01*
X194907608Y-106844288D01*
X194818750Y-106902957D01*
X194753701Y-106920387D01*
X194647413Y-106914007D01*
X194482456Y-106818769D01*
X194423786Y-106729911D01*
X194406357Y-106664862D01*
X194412736Y-106558574D01*
X193838347Y-106886779D02*
X193773298Y-106904209D01*
X193684440Y-106962878D01*
X193565392Y-107169074D01*
X193559012Y-107275362D01*
X193576442Y-107340411D01*
X193635111Y-107429270D01*
X193717590Y-107476889D01*
X193865117Y-107507078D01*
X194645703Y-107297921D01*
X194336180Y-107834032D01*
G04 #@! TO.C,Q2*
X145299298Y-124962144D02*
X145251679Y-124866906D01*
X145156440Y-124771668D01*
X145013583Y-124628811D01*
X144965964Y-124533573D01*
X144965964Y-124438335D01*
X145204059Y-124485954D02*
X145156440Y-124390716D01*
X145061202Y-124295478D01*
X144870726Y-124247859D01*
X144537393Y-124247859D01*
X144346917Y-124295478D01*
X144251679Y-124390716D01*
X144204059Y-124485954D01*
X144204059Y-124676430D01*
X144251679Y-124771668D01*
X144346917Y-124866906D01*
X144537393Y-124914525D01*
X144870726Y-124914525D01*
X145061202Y-124866906D01*
X145156440Y-124771668D01*
X145204059Y-124676430D01*
X145204059Y-124485954D01*
X144299298Y-125295478D02*
X144251679Y-125343097D01*
X144204059Y-125438335D01*
X144204059Y-125676430D01*
X144251679Y-125771668D01*
X144299298Y-125819287D01*
X144394536Y-125866906D01*
X144489774Y-125866906D01*
X144632631Y-125819287D01*
X145204059Y-125247859D01*
X145204059Y-125866906D01*
G04 #@! TO.C,R8*
X141526666Y-123643380D02*
X141860000Y-123167190D01*
X142098095Y-123643380D02*
X142098095Y-122643380D01*
X141717142Y-122643380D01*
X141621904Y-122691000D01*
X141574285Y-122738619D01*
X141526666Y-122833857D01*
X141526666Y-122976714D01*
X141574285Y-123071952D01*
X141621904Y-123119571D01*
X141717142Y-123167190D01*
X142098095Y-123167190D01*
X140955238Y-123071952D02*
X141050476Y-123024333D01*
X141098095Y-122976714D01*
X141145714Y-122881476D01*
X141145714Y-122833857D01*
X141098095Y-122738619D01*
X141050476Y-122691000D01*
X140955238Y-122643380D01*
X140764761Y-122643380D01*
X140669523Y-122691000D01*
X140621904Y-122738619D01*
X140574285Y-122833857D01*
X140574285Y-122881476D01*
X140621904Y-122976714D01*
X140669523Y-123024333D01*
X140764761Y-123071952D01*
X140955238Y-123071952D01*
X141050476Y-123119571D01*
X141098095Y-123167190D01*
X141145714Y-123262428D01*
X141145714Y-123452904D01*
X141098095Y-123548142D01*
X141050476Y-123595761D01*
X140955238Y-123643380D01*
X140764761Y-123643380D01*
X140669523Y-123595761D01*
X140621904Y-123548142D01*
X140574285Y-123452904D01*
X140574285Y-123262428D01*
X140621904Y-123167190D01*
X140669523Y-123119571D01*
X140764761Y-123071952D01*
X142431428Y-126943380D02*
X143002857Y-126943380D01*
X142717142Y-126943380D02*
X142717142Y-125943380D01*
X142812380Y-126086238D01*
X142907619Y-126181476D01*
X143002857Y-126229095D01*
X141812380Y-125943380D02*
X141717142Y-125943380D01*
X141621904Y-125991000D01*
X141574285Y-126038619D01*
X141526666Y-126133857D01*
X141479047Y-126324333D01*
X141479047Y-126562428D01*
X141526666Y-126752904D01*
X141574285Y-126848142D01*
X141621904Y-126895761D01*
X141717142Y-126943380D01*
X141812380Y-126943380D01*
X141907619Y-126895761D01*
X141955238Y-126848142D01*
X142002857Y-126752904D01*
X142050476Y-126562428D01*
X142050476Y-126324333D01*
X142002857Y-126133857D01*
X141955238Y-126038619D01*
X141907619Y-125991000D01*
X141812380Y-125943380D01*
X140860000Y-125943380D02*
X140764761Y-125943380D01*
X140669523Y-125991000D01*
X140621904Y-126038619D01*
X140574285Y-126133857D01*
X140526666Y-126324333D01*
X140526666Y-126562428D01*
X140574285Y-126752904D01*
X140621904Y-126848142D01*
X140669523Y-126895761D01*
X140764761Y-126943380D01*
X140860000Y-126943380D01*
X140955238Y-126895761D01*
X141002857Y-126848142D01*
X141050476Y-126752904D01*
X141098095Y-126562428D01*
X141098095Y-126324333D01*
X141050476Y-126133857D01*
X141002857Y-126038619D01*
X140955238Y-125991000D01*
X140860000Y-125943380D01*
X140098095Y-126943380D02*
X140098095Y-125943380D01*
X140002857Y-126562428D02*
X139717142Y-126943380D01*
X139717142Y-126276714D02*
X140098095Y-126657666D01*
G04 #@! TO.C,R9*
X137428174Y-123597706D02*
X137761508Y-123121516D01*
X137999603Y-123597706D02*
X137999603Y-122597706D01*
X137618650Y-122597706D01*
X137523412Y-122645326D01*
X137475793Y-122692945D01*
X137428174Y-122788183D01*
X137428174Y-122931040D01*
X137475793Y-123026278D01*
X137523412Y-123073897D01*
X137618650Y-123121516D01*
X137999603Y-123121516D01*
X136951984Y-123597706D02*
X136761508Y-123597706D01*
X136666269Y-123550087D01*
X136618650Y-123502468D01*
X136523412Y-123359611D01*
X136475793Y-123169135D01*
X136475793Y-122788183D01*
X136523412Y-122692945D01*
X136571031Y-122645326D01*
X136666269Y-122597706D01*
X136856746Y-122597706D01*
X136951984Y-122645326D01*
X136999603Y-122692945D01*
X137047222Y-122788183D01*
X137047222Y-123026278D01*
X136999603Y-123121516D01*
X136951984Y-123169135D01*
X136856746Y-123216754D01*
X136666269Y-123216754D01*
X136571031Y-123169135D01*
X136523412Y-123121516D01*
X136475793Y-123026278D01*
X138428174Y-126897706D02*
X138999603Y-126897706D01*
X138713888Y-126897706D02*
X138713888Y-125897706D01*
X138809127Y-126040564D01*
X138904365Y-126135802D01*
X138999603Y-126183421D01*
X137809127Y-125897706D02*
X137713888Y-125897706D01*
X137618650Y-125945326D01*
X137571031Y-125992945D01*
X137523412Y-126088183D01*
X137475793Y-126278659D01*
X137475793Y-126516754D01*
X137523412Y-126707230D01*
X137571031Y-126802468D01*
X137618650Y-126850087D01*
X137713888Y-126897706D01*
X137809127Y-126897706D01*
X137904365Y-126850087D01*
X137951984Y-126802468D01*
X137999603Y-126707230D01*
X138047222Y-126516754D01*
X138047222Y-126278659D01*
X137999603Y-126088183D01*
X137951984Y-125992945D01*
X137904365Y-125945326D01*
X137809127Y-125897706D01*
X136856746Y-125897706D02*
X136761508Y-125897706D01*
X136666269Y-125945326D01*
X136618650Y-125992945D01*
X136571031Y-126088183D01*
X136523412Y-126278659D01*
X136523412Y-126516754D01*
X136571031Y-126707230D01*
X136618650Y-126802468D01*
X136666269Y-126850087D01*
X136761508Y-126897706D01*
X136856746Y-126897706D01*
X136951984Y-126850087D01*
X136999603Y-126802468D01*
X137047222Y-126707230D01*
X137094841Y-126516754D01*
X137094841Y-126278659D01*
X137047222Y-126088183D01*
X136999603Y-125992945D01*
X136951984Y-125945326D01*
X136856746Y-125897706D01*
X135523412Y-126897706D02*
X135856746Y-126421516D01*
X136094841Y-126897706D02*
X136094841Y-125897706D01*
X135713888Y-125897706D01*
X135618650Y-125945326D01*
X135571031Y-125992945D01*
X135523412Y-126088183D01*
X135523412Y-126231040D01*
X135571031Y-126326278D01*
X135618650Y-126373897D01*
X135713888Y-126421516D01*
X136094841Y-126421516D01*
G04 #@! TO.C,R12*
X79509857Y-56333380D02*
X79843190Y-55857190D01*
X80081285Y-56333380D02*
X80081285Y-55333380D01*
X79700333Y-55333380D01*
X79605095Y-55381000D01*
X79557476Y-55428619D01*
X79509857Y-55523857D01*
X79509857Y-55666714D01*
X79557476Y-55761952D01*
X79605095Y-55809571D01*
X79700333Y-55857190D01*
X80081285Y-55857190D01*
X78557476Y-56333380D02*
X79128904Y-56333380D01*
X78843190Y-56333380D02*
X78843190Y-55333380D01*
X78938428Y-55476238D01*
X79033666Y-55571476D01*
X79128904Y-55619095D01*
X78176523Y-55428619D02*
X78128904Y-55381000D01*
X78033666Y-55333380D01*
X77795571Y-55333380D01*
X77700333Y-55381000D01*
X77652714Y-55428619D01*
X77605095Y-55523857D01*
X77605095Y-55619095D01*
X77652714Y-55761952D01*
X78224142Y-56333380D01*
X77605095Y-56333380D01*
G04 #@! TO.C,R13*
X79500857Y-75383380D02*
X79834190Y-74907190D01*
X80072285Y-75383380D02*
X80072285Y-74383380D01*
X79691333Y-74383380D01*
X79596095Y-74431000D01*
X79548476Y-74478619D01*
X79500857Y-74573857D01*
X79500857Y-74716714D01*
X79548476Y-74811952D01*
X79596095Y-74859571D01*
X79691333Y-74907190D01*
X80072285Y-74907190D01*
X78548476Y-75383380D02*
X79119904Y-75383380D01*
X78834190Y-75383380D02*
X78834190Y-74383380D01*
X78929428Y-74526238D01*
X79024666Y-74621476D01*
X79119904Y-74669095D01*
X78215142Y-74383380D02*
X77596095Y-74383380D01*
X77929428Y-74764333D01*
X77786571Y-74764333D01*
X77691333Y-74811952D01*
X77643714Y-74859571D01*
X77596095Y-74954809D01*
X77596095Y-75192904D01*
X77643714Y-75288142D01*
X77691333Y-75335761D01*
X77786571Y-75383380D01*
X78072285Y-75383380D01*
X78167523Y-75335761D01*
X78215142Y-75288142D01*
G04 #@! TO.C,R16*
X79518857Y-94433380D02*
X79852190Y-93957190D01*
X80090285Y-94433380D02*
X80090285Y-93433380D01*
X79709333Y-93433380D01*
X79614095Y-93481000D01*
X79566476Y-93528619D01*
X79518857Y-93623857D01*
X79518857Y-93766714D01*
X79566476Y-93861952D01*
X79614095Y-93909571D01*
X79709333Y-93957190D01*
X80090285Y-93957190D01*
X78566476Y-94433380D02*
X79137904Y-94433380D01*
X78852190Y-94433380D02*
X78852190Y-93433380D01*
X78947428Y-93576238D01*
X79042666Y-93671476D01*
X79137904Y-93719095D01*
X77709333Y-93433380D02*
X77899809Y-93433380D01*
X77995047Y-93481000D01*
X78042666Y-93528619D01*
X78137904Y-93671476D01*
X78185523Y-93861952D01*
X78185523Y-94242904D01*
X78137904Y-94338142D01*
X78090285Y-94385761D01*
X77995047Y-94433380D01*
X77804571Y-94433380D01*
X77709333Y-94385761D01*
X77661714Y-94338142D01*
X77614095Y-94242904D01*
X77614095Y-94004809D01*
X77661714Y-93909571D01*
X77709333Y-93861952D01*
X77804571Y-93814333D01*
X77995047Y-93814333D01*
X78090285Y-93861952D01*
X78137904Y-93909571D01*
X78185523Y-94004809D01*
G04 #@! TO.C,R18*
X79474662Y-113487484D02*
X79807995Y-113011294D01*
X80046090Y-113487484D02*
X80046090Y-112487484D01*
X79665138Y-112487484D01*
X79569900Y-112535104D01*
X79522281Y-112582723D01*
X79474662Y-112677961D01*
X79474662Y-112820818D01*
X79522281Y-112916056D01*
X79569900Y-112963675D01*
X79665138Y-113011294D01*
X80046090Y-113011294D01*
X78522281Y-113487484D02*
X79093709Y-113487484D01*
X78807995Y-113487484D02*
X78807995Y-112487484D01*
X78903233Y-112630342D01*
X78998471Y-112725580D01*
X79093709Y-112773199D01*
X77950852Y-112916056D02*
X78046090Y-112868437D01*
X78093709Y-112820818D01*
X78141328Y-112725580D01*
X78141328Y-112677961D01*
X78093709Y-112582723D01*
X78046090Y-112535104D01*
X77950852Y-112487484D01*
X77760376Y-112487484D01*
X77665138Y-112535104D01*
X77617519Y-112582723D01*
X77569900Y-112677961D01*
X77569900Y-112725580D01*
X77617519Y-112820818D01*
X77665138Y-112868437D01*
X77760376Y-112916056D01*
X77950852Y-112916056D01*
X78046090Y-112963675D01*
X78093709Y-113011294D01*
X78141328Y-113106532D01*
X78141328Y-113297008D01*
X78093709Y-113392246D01*
X78046090Y-113439865D01*
X77950852Y-113487484D01*
X77760376Y-113487484D01*
X77665138Y-113439865D01*
X77617519Y-113392246D01*
X77569900Y-113297008D01*
X77569900Y-113106532D01*
X77617519Y-113011294D01*
X77665138Y-112963675D01*
X77760376Y-112916056D01*
G04 #@! TO.C,R19*
X109227857Y-57728380D02*
X109561190Y-57252190D01*
X109799285Y-57728380D02*
X109799285Y-56728380D01*
X109418333Y-56728380D01*
X109323095Y-56776000D01*
X109275476Y-56823619D01*
X109227857Y-56918857D01*
X109227857Y-57061714D01*
X109275476Y-57156952D01*
X109323095Y-57204571D01*
X109418333Y-57252190D01*
X109799285Y-57252190D01*
X108275476Y-57728380D02*
X108846904Y-57728380D01*
X108561190Y-57728380D02*
X108561190Y-56728380D01*
X108656428Y-56871238D01*
X108751666Y-56966476D01*
X108846904Y-57014095D01*
X107799285Y-57728380D02*
X107608809Y-57728380D01*
X107513571Y-57680761D01*
X107465952Y-57633142D01*
X107370714Y-57490285D01*
X107323095Y-57299809D01*
X107323095Y-56918857D01*
X107370714Y-56823619D01*
X107418333Y-56776000D01*
X107513571Y-56728380D01*
X107704047Y-56728380D01*
X107799285Y-56776000D01*
X107846904Y-56823619D01*
X107894523Y-56918857D01*
X107894523Y-57156952D01*
X107846904Y-57252190D01*
X107799285Y-57299809D01*
X107704047Y-57347428D01*
X107513571Y-57347428D01*
X107418333Y-57299809D01*
X107370714Y-57252190D01*
X107323095Y-57156952D01*
G04 #@! TO.C,R22*
X109744857Y-95320380D02*
X110078190Y-94844190D01*
X110316285Y-95320380D02*
X110316285Y-94320380D01*
X109935333Y-94320380D01*
X109840095Y-94368000D01*
X109792476Y-94415619D01*
X109744857Y-94510857D01*
X109744857Y-94653714D01*
X109792476Y-94748952D01*
X109840095Y-94796571D01*
X109935333Y-94844190D01*
X110316285Y-94844190D01*
X109363904Y-94415619D02*
X109316285Y-94368000D01*
X109221047Y-94320380D01*
X108982952Y-94320380D01*
X108887714Y-94368000D01*
X108840095Y-94415619D01*
X108792476Y-94510857D01*
X108792476Y-94606095D01*
X108840095Y-94748952D01*
X109411523Y-95320380D01*
X108792476Y-95320380D01*
X108411523Y-94415619D02*
X108363904Y-94368000D01*
X108268666Y-94320380D01*
X108030571Y-94320380D01*
X107935333Y-94368000D01*
X107887714Y-94415619D01*
X107840095Y-94510857D01*
X107840095Y-94606095D01*
X107887714Y-94748952D01*
X108459142Y-95320380D01*
X107840095Y-95320380D01*
G04 #@! TO.C,R24*
X109735857Y-114370380D02*
X110069190Y-113894190D01*
X110307285Y-114370380D02*
X110307285Y-113370380D01*
X109926333Y-113370380D01*
X109831095Y-113418000D01*
X109783476Y-113465619D01*
X109735857Y-113560857D01*
X109735857Y-113703714D01*
X109783476Y-113798952D01*
X109831095Y-113846571D01*
X109926333Y-113894190D01*
X110307285Y-113894190D01*
X109354904Y-113465619D02*
X109307285Y-113418000D01*
X109212047Y-113370380D01*
X108973952Y-113370380D01*
X108878714Y-113418000D01*
X108831095Y-113465619D01*
X108783476Y-113560857D01*
X108783476Y-113656095D01*
X108831095Y-113798952D01*
X109402523Y-114370380D01*
X108783476Y-114370380D01*
X107926333Y-113703714D02*
X107926333Y-114370380D01*
X108164428Y-113322761D02*
X108402523Y-114037047D01*
X107783476Y-114037047D01*
G04 #@! TO.C,R26*
X118244856Y-55698380D02*
X118578189Y-55222190D01*
X118816284Y-55698380D02*
X118816284Y-54698380D01*
X118435332Y-54698380D01*
X118340094Y-54746000D01*
X118292475Y-54793619D01*
X118244856Y-54888857D01*
X118244856Y-55031714D01*
X118292475Y-55126952D01*
X118340094Y-55174571D01*
X118435332Y-55222190D01*
X118816284Y-55222190D01*
X117863903Y-54793619D02*
X117816284Y-54746000D01*
X117721046Y-54698380D01*
X117482951Y-54698380D01*
X117387713Y-54746000D01*
X117340094Y-54793619D01*
X117292475Y-54888857D01*
X117292475Y-54984095D01*
X117340094Y-55126952D01*
X117911522Y-55698380D01*
X117292475Y-55698380D01*
X116435332Y-54698380D02*
X116625808Y-54698380D01*
X116721046Y-54746000D01*
X116768665Y-54793619D01*
X116863903Y-54936476D01*
X116911522Y-55126952D01*
X116911522Y-55507904D01*
X116863903Y-55603142D01*
X116816284Y-55650761D01*
X116721046Y-55698380D01*
X116530570Y-55698380D01*
X116435332Y-55650761D01*
X116387713Y-55603142D01*
X116340094Y-55507904D01*
X116340094Y-55269809D01*
X116387713Y-55174571D01*
X116435332Y-55126952D01*
X116530570Y-55079333D01*
X116721046Y-55079333D01*
X116816284Y-55126952D01*
X116863903Y-55174571D01*
X116911522Y-55269809D01*
G04 #@! TO.C,R29*
X117618857Y-70684380D02*
X117952190Y-70208190D01*
X118190285Y-70684380D02*
X118190285Y-69684380D01*
X117809333Y-69684380D01*
X117714095Y-69732000D01*
X117666476Y-69779619D01*
X117618857Y-69874857D01*
X117618857Y-70017714D01*
X117666476Y-70112952D01*
X117714095Y-70160571D01*
X117809333Y-70208190D01*
X118190285Y-70208190D01*
X117237904Y-69779619D02*
X117190285Y-69732000D01*
X117095047Y-69684380D01*
X116856952Y-69684380D01*
X116761714Y-69732000D01*
X116714095Y-69779619D01*
X116666476Y-69874857D01*
X116666476Y-69970095D01*
X116714095Y-70112952D01*
X117285523Y-70684380D01*
X116666476Y-70684380D01*
X116190285Y-70684380D02*
X115999809Y-70684380D01*
X115904571Y-70636761D01*
X115856952Y-70589142D01*
X115761714Y-70446285D01*
X115714095Y-70255809D01*
X115714095Y-69874857D01*
X115761714Y-69779619D01*
X115809333Y-69732000D01*
X115904571Y-69684380D01*
X116095047Y-69684380D01*
X116190285Y-69732000D01*
X116237904Y-69779619D01*
X116285523Y-69874857D01*
X116285523Y-70112952D01*
X116237904Y-70208190D01*
X116190285Y-70255809D01*
X116095047Y-70303428D01*
X115904571Y-70303428D01*
X115809333Y-70255809D01*
X115761714Y-70208190D01*
X115714095Y-70112952D01*
G04 #@! TO.C,R30*
X117491857Y-89607380D02*
X117825190Y-89131190D01*
X118063285Y-89607380D02*
X118063285Y-88607380D01*
X117682333Y-88607380D01*
X117587095Y-88655000D01*
X117539476Y-88702619D01*
X117491857Y-88797857D01*
X117491857Y-88940714D01*
X117539476Y-89035952D01*
X117587095Y-89083571D01*
X117682333Y-89131190D01*
X118063285Y-89131190D01*
X117158523Y-88607380D02*
X116539476Y-88607380D01*
X116872809Y-88988333D01*
X116729952Y-88988333D01*
X116634714Y-89035952D01*
X116587095Y-89083571D01*
X116539476Y-89178809D01*
X116539476Y-89416904D01*
X116587095Y-89512142D01*
X116634714Y-89559761D01*
X116729952Y-89607380D01*
X117015666Y-89607380D01*
X117110904Y-89559761D01*
X117158523Y-89512142D01*
X115920428Y-88607380D02*
X115825190Y-88607380D01*
X115729952Y-88655000D01*
X115682333Y-88702619D01*
X115634714Y-88797857D01*
X115587095Y-88988333D01*
X115587095Y-89226428D01*
X115634714Y-89416904D01*
X115682333Y-89512142D01*
X115729952Y-89559761D01*
X115825190Y-89607380D01*
X115920428Y-89607380D01*
X116015666Y-89559761D01*
X116063285Y-89512142D01*
X116110904Y-89416904D01*
X116158523Y-89226428D01*
X116158523Y-88988333D01*
X116110904Y-88797857D01*
X116063285Y-88702619D01*
X116015666Y-88655000D01*
X115920428Y-88607380D01*
G04 #@! TO.C,R32*
X117618857Y-108784381D02*
X117952190Y-108308191D01*
X118190285Y-108784381D02*
X118190285Y-107784381D01*
X117809333Y-107784381D01*
X117714095Y-107832001D01*
X117666476Y-107879620D01*
X117618857Y-107974858D01*
X117618857Y-108117715D01*
X117666476Y-108212953D01*
X117714095Y-108260572D01*
X117809333Y-108308191D01*
X118190285Y-108308191D01*
X117285523Y-107784381D02*
X116666476Y-107784381D01*
X116999809Y-108165334D01*
X116856952Y-108165334D01*
X116761714Y-108212953D01*
X116714095Y-108260572D01*
X116666476Y-108355810D01*
X116666476Y-108593905D01*
X116714095Y-108689143D01*
X116761714Y-108736762D01*
X116856952Y-108784381D01*
X117142666Y-108784381D01*
X117237904Y-108736762D01*
X117285523Y-108689143D01*
X116285523Y-107879620D02*
X116237904Y-107832001D01*
X116142666Y-107784381D01*
X115904571Y-107784381D01*
X115809333Y-107832001D01*
X115761714Y-107879620D01*
X115714095Y-107974858D01*
X115714095Y-108070096D01*
X115761714Y-108212953D01*
X116333142Y-108784381D01*
X115714095Y-108784381D01*
G04 #@! TO.C,R34*
X142367771Y-61968029D02*
X142701104Y-61491839D01*
X142939199Y-61968029D02*
X142939199Y-60968029D01*
X142558247Y-60968029D01*
X142463009Y-61015649D01*
X142415390Y-61063268D01*
X142367771Y-61158506D01*
X142367771Y-61301363D01*
X142415390Y-61396601D01*
X142463009Y-61444220D01*
X142558247Y-61491839D01*
X142939199Y-61491839D01*
X142034437Y-60968029D02*
X141415390Y-60968029D01*
X141748723Y-61348982D01*
X141605866Y-61348982D01*
X141510628Y-61396601D01*
X141463009Y-61444220D01*
X141415390Y-61539458D01*
X141415390Y-61777553D01*
X141463009Y-61872791D01*
X141510628Y-61920410D01*
X141605866Y-61968029D01*
X141891580Y-61968029D01*
X141986818Y-61920410D01*
X142034437Y-61872791D01*
X140558247Y-61301363D02*
X140558247Y-61968029D01*
X140796342Y-60920410D02*
X141034437Y-61634696D01*
X140415390Y-61634696D01*
G04 #@! TO.C,R36*
X142406856Y-80257381D02*
X142740189Y-79781191D01*
X142978284Y-80257381D02*
X142978284Y-79257381D01*
X142597332Y-79257381D01*
X142502094Y-79305001D01*
X142454475Y-79352620D01*
X142406856Y-79447858D01*
X142406856Y-79590715D01*
X142454475Y-79685953D01*
X142502094Y-79733572D01*
X142597332Y-79781191D01*
X142978284Y-79781191D01*
X142073522Y-79257381D02*
X141454475Y-79257381D01*
X141787808Y-79638334D01*
X141644951Y-79638334D01*
X141549713Y-79685953D01*
X141502094Y-79733572D01*
X141454475Y-79828810D01*
X141454475Y-80066905D01*
X141502094Y-80162143D01*
X141549713Y-80209762D01*
X141644951Y-80257381D01*
X141930665Y-80257381D01*
X142025903Y-80209762D01*
X142073522Y-80162143D01*
X140597332Y-79257381D02*
X140787808Y-79257381D01*
X140883046Y-79305001D01*
X140930665Y-79352620D01*
X141025903Y-79495477D01*
X141073522Y-79685953D01*
X141073522Y-80066905D01*
X141025903Y-80162143D01*
X140978284Y-80209762D01*
X140883046Y-80257381D01*
X140692570Y-80257381D01*
X140597332Y-80209762D01*
X140549713Y-80162143D01*
X140502094Y-80066905D01*
X140502094Y-79828810D01*
X140549713Y-79733572D01*
X140597332Y-79685953D01*
X140692570Y-79638334D01*
X140883046Y-79638334D01*
X140978284Y-79685953D01*
X141025903Y-79733572D01*
X141073522Y-79828810D01*
G04 #@! TO.C,R39*
X147835857Y-90621380D02*
X148169190Y-90145190D01*
X148407285Y-90621380D02*
X148407285Y-89621380D01*
X148026333Y-89621380D01*
X147931095Y-89669000D01*
X147883476Y-89716619D01*
X147835857Y-89811857D01*
X147835857Y-89954714D01*
X147883476Y-90049952D01*
X147931095Y-90097571D01*
X148026333Y-90145190D01*
X148407285Y-90145190D01*
X147502523Y-89621380D02*
X146883476Y-89621380D01*
X147216809Y-90002333D01*
X147073952Y-90002333D01*
X146978714Y-90049952D01*
X146931095Y-90097571D01*
X146883476Y-90192809D01*
X146883476Y-90430904D01*
X146931095Y-90526142D01*
X146978714Y-90573761D01*
X147073952Y-90621380D01*
X147359666Y-90621380D01*
X147454904Y-90573761D01*
X147502523Y-90526142D01*
X146407285Y-90621380D02*
X146216809Y-90621380D01*
X146121571Y-90573761D01*
X146073952Y-90526142D01*
X145978714Y-90383285D01*
X145931095Y-90192809D01*
X145931095Y-89811857D01*
X145978714Y-89716619D01*
X146026333Y-89669000D01*
X146121571Y-89621380D01*
X146312047Y-89621380D01*
X146407285Y-89669000D01*
X146454904Y-89716619D01*
X146502523Y-89811857D01*
X146502523Y-90049952D01*
X146454904Y-90145190D01*
X146407285Y-90192809D01*
X146312047Y-90240428D01*
X146121571Y-90240428D01*
X146026333Y-90192809D01*
X145978714Y-90145190D01*
X145931095Y-90049952D01*
G04 #@! TO.C,R41*
X147835857Y-109671380D02*
X148169190Y-109195190D01*
X148407285Y-109671380D02*
X148407285Y-108671380D01*
X148026333Y-108671380D01*
X147931095Y-108719000D01*
X147883476Y-108766619D01*
X147835857Y-108861857D01*
X147835857Y-109004714D01*
X147883476Y-109099952D01*
X147931095Y-109147571D01*
X148026333Y-109195190D01*
X148407285Y-109195190D01*
X146978714Y-109004714D02*
X146978714Y-109671380D01*
X147216809Y-108623761D02*
X147454904Y-109338047D01*
X146835857Y-109338047D01*
X145931095Y-109671380D02*
X146502523Y-109671380D01*
X146216809Y-109671380D02*
X146216809Y-108671380D01*
X146312047Y-108814238D01*
X146407285Y-108909476D01*
X146502523Y-108957095D01*
G04 #@! TO.C,R42*
X166885857Y-54807380D02*
X167219190Y-54331190D01*
X167457285Y-54807380D02*
X167457285Y-53807380D01*
X167076333Y-53807380D01*
X166981095Y-53855000D01*
X166933476Y-53902619D01*
X166885857Y-53997857D01*
X166885857Y-54140714D01*
X166933476Y-54235952D01*
X166981095Y-54283571D01*
X167076333Y-54331190D01*
X167457285Y-54331190D01*
X166028714Y-54140714D02*
X166028714Y-54807380D01*
X166266809Y-53759761D02*
X166504904Y-54474047D01*
X165885857Y-54474047D01*
X165552523Y-53902619D02*
X165504904Y-53855000D01*
X165409666Y-53807380D01*
X165171571Y-53807380D01*
X165076333Y-53855000D01*
X165028714Y-53902619D01*
X164981095Y-53997857D01*
X164981095Y-54093095D01*
X165028714Y-54235952D01*
X165600142Y-54807380D01*
X164981095Y-54807380D01*
G04 #@! TO.C,R44*
X166885857Y-73857380D02*
X167219190Y-73381190D01*
X167457285Y-73857380D02*
X167457285Y-72857380D01*
X167076333Y-72857380D01*
X166981095Y-72905000D01*
X166933476Y-72952619D01*
X166885857Y-73047857D01*
X166885857Y-73190714D01*
X166933476Y-73285952D01*
X166981095Y-73333571D01*
X167076333Y-73381190D01*
X167457285Y-73381190D01*
X166028714Y-73190714D02*
X166028714Y-73857380D01*
X166266809Y-72809761D02*
X166504904Y-73524047D01*
X165885857Y-73524047D01*
X165076333Y-73190714D02*
X165076333Y-73857380D01*
X165314428Y-72809761D02*
X165552523Y-73524047D01*
X164933476Y-73524047D01*
G04 #@! TO.C,R47*
X166885857Y-92907380D02*
X167219190Y-92431190D01*
X167457285Y-92907380D02*
X167457285Y-91907380D01*
X167076333Y-91907380D01*
X166981095Y-91955000D01*
X166933476Y-92002619D01*
X166885857Y-92097857D01*
X166885857Y-92240714D01*
X166933476Y-92335952D01*
X166981095Y-92383571D01*
X167076333Y-92431190D01*
X167457285Y-92431190D01*
X166028714Y-92240714D02*
X166028714Y-92907380D01*
X166266809Y-91859761D02*
X166504904Y-92574047D01*
X165885857Y-92574047D01*
X165600142Y-91907380D02*
X164933476Y-91907380D01*
X165362047Y-92907380D01*
G04 #@! TO.C,R48*
X109735857Y-76397380D02*
X110069190Y-75921190D01*
X110307285Y-76397380D02*
X110307285Y-75397380D01*
X109926333Y-75397380D01*
X109831095Y-75445000D01*
X109783476Y-75492619D01*
X109735857Y-75587857D01*
X109735857Y-75730714D01*
X109783476Y-75825952D01*
X109831095Y-75873571D01*
X109926333Y-75921190D01*
X110307285Y-75921190D01*
X108878714Y-75730714D02*
X108878714Y-76397380D01*
X109116809Y-75349761D02*
X109354904Y-76064047D01*
X108735857Y-76064047D01*
X108212047Y-75825952D02*
X108307285Y-75778333D01*
X108354904Y-75730714D01*
X108402523Y-75635476D01*
X108402523Y-75587857D01*
X108354904Y-75492619D01*
X108307285Y-75445000D01*
X108212047Y-75397380D01*
X108021571Y-75397380D01*
X107926333Y-75445000D01*
X107878714Y-75492619D01*
X107831095Y-75587857D01*
X107831095Y-75635476D01*
X107878714Y-75730714D01*
X107926333Y-75778333D01*
X108021571Y-75825952D01*
X108212047Y-75825952D01*
X108307285Y-75873571D01*
X108354904Y-75921190D01*
X108402523Y-76016428D01*
X108402523Y-76206904D01*
X108354904Y-76302142D01*
X108307285Y-76349761D01*
X108212047Y-76397380D01*
X108021571Y-76397380D01*
X107926333Y-76349761D01*
X107878714Y-76302142D01*
X107831095Y-76206904D01*
X107831095Y-76016428D01*
X107878714Y-75921190D01*
X107926333Y-75873571D01*
X108021571Y-75825952D01*
G04 #@! TO.C,R49*
X169298857Y-107196880D02*
X169632190Y-106720690D01*
X169870285Y-107196880D02*
X169870285Y-106196880D01*
X169489333Y-106196880D01*
X169394095Y-106244500D01*
X169346476Y-106292119D01*
X169298857Y-106387357D01*
X169298857Y-106530214D01*
X169346476Y-106625452D01*
X169394095Y-106673071D01*
X169489333Y-106720690D01*
X169870285Y-106720690D01*
X168441714Y-106530214D02*
X168441714Y-107196880D01*
X168679809Y-106149261D02*
X168917904Y-106863547D01*
X168298857Y-106863547D01*
X167870285Y-107196880D02*
X167679809Y-107196880D01*
X167584571Y-107149261D01*
X167536952Y-107101642D01*
X167441714Y-106958785D01*
X167394095Y-106768309D01*
X167394095Y-106387357D01*
X167441714Y-106292119D01*
X167489333Y-106244500D01*
X167584571Y-106196880D01*
X167775047Y-106196880D01*
X167870285Y-106244500D01*
X167917904Y-106292119D01*
X167965523Y-106387357D01*
X167965523Y-106625452D01*
X167917904Y-106720690D01*
X167870285Y-106768309D01*
X167775047Y-106815928D01*
X167584571Y-106815928D01*
X167489333Y-106768309D01*
X167441714Y-106720690D01*
X167394095Y-106625452D01*
G04 #@! TO.C,R52*
X185935857Y-57220380D02*
X186269190Y-56744190D01*
X186507285Y-57220380D02*
X186507285Y-56220380D01*
X186126333Y-56220380D01*
X186031095Y-56268000D01*
X185983476Y-56315619D01*
X185935857Y-56410857D01*
X185935857Y-56553714D01*
X185983476Y-56648952D01*
X186031095Y-56696571D01*
X186126333Y-56744190D01*
X186507285Y-56744190D01*
X185031095Y-56220380D02*
X185507285Y-56220380D01*
X185554904Y-56696571D01*
X185507285Y-56648952D01*
X185412047Y-56601333D01*
X185173952Y-56601333D01*
X185078714Y-56648952D01*
X185031095Y-56696571D01*
X184983476Y-56791809D01*
X184983476Y-57029904D01*
X185031095Y-57125142D01*
X185078714Y-57172761D01*
X185173952Y-57220380D01*
X185412047Y-57220380D01*
X185507285Y-57172761D01*
X185554904Y-57125142D01*
X184602523Y-56315619D02*
X184554904Y-56268000D01*
X184459666Y-56220380D01*
X184221571Y-56220380D01*
X184126333Y-56268000D01*
X184078714Y-56315619D01*
X184031095Y-56410857D01*
X184031095Y-56506095D01*
X184078714Y-56648952D01*
X184650142Y-57220380D01*
X184031095Y-57220380D01*
G04 #@! TO.C,R54*
X185808857Y-76397380D02*
X186142190Y-75921190D01*
X186380285Y-76397380D02*
X186380285Y-75397380D01*
X185999333Y-75397380D01*
X185904095Y-75445000D01*
X185856476Y-75492619D01*
X185808857Y-75587857D01*
X185808857Y-75730714D01*
X185856476Y-75825952D01*
X185904095Y-75873571D01*
X185999333Y-75921190D01*
X186380285Y-75921190D01*
X184904095Y-75397380D02*
X185380285Y-75397380D01*
X185427904Y-75873571D01*
X185380285Y-75825952D01*
X185285047Y-75778333D01*
X185046952Y-75778333D01*
X184951714Y-75825952D01*
X184904095Y-75873571D01*
X184856476Y-75968809D01*
X184856476Y-76206904D01*
X184904095Y-76302142D01*
X184951714Y-76349761D01*
X185046952Y-76397380D01*
X185285047Y-76397380D01*
X185380285Y-76349761D01*
X185427904Y-76302142D01*
X183999333Y-75730714D02*
X183999333Y-76397380D01*
X184237428Y-75349761D02*
X184475523Y-76064047D01*
X183856476Y-76064047D01*
G04 #@! TO.C,R56*
X185808857Y-95320380D02*
X186142190Y-94844190D01*
X186380285Y-95320380D02*
X186380285Y-94320380D01*
X185999333Y-94320380D01*
X185904095Y-94368000D01*
X185856476Y-94415619D01*
X185808857Y-94510857D01*
X185808857Y-94653714D01*
X185856476Y-94748952D01*
X185904095Y-94796571D01*
X185999333Y-94844190D01*
X186380285Y-94844190D01*
X184904095Y-94320380D02*
X185380285Y-94320380D01*
X185427904Y-94796571D01*
X185380285Y-94748952D01*
X185285047Y-94701333D01*
X185046952Y-94701333D01*
X184951714Y-94748952D01*
X184904095Y-94796571D01*
X184856476Y-94891809D01*
X184856476Y-95129904D01*
X184904095Y-95225142D01*
X184951714Y-95272761D01*
X185046952Y-95320380D01*
X185285047Y-95320380D01*
X185380285Y-95272761D01*
X185427904Y-95225142D01*
X183999333Y-94320380D02*
X184189809Y-94320380D01*
X184285047Y-94368000D01*
X184332666Y-94415619D01*
X184427904Y-94558476D01*
X184475523Y-94748952D01*
X184475523Y-95129904D01*
X184427904Y-95225142D01*
X184380285Y-95272761D01*
X184285047Y-95320380D01*
X184094571Y-95320380D01*
X183999333Y-95272761D01*
X183951714Y-95225142D01*
X183904095Y-95129904D01*
X183904095Y-94891809D01*
X183951714Y-94796571D01*
X183999333Y-94748952D01*
X184094571Y-94701333D01*
X184285047Y-94701333D01*
X184380285Y-94748952D01*
X184427904Y-94796571D01*
X184475523Y-94891809D01*
G04 #@! TO.C,R58*
X179191030Y-122856303D02*
X179524363Y-122380113D01*
X179762458Y-122856303D02*
X179762458Y-121856303D01*
X179381506Y-121856303D01*
X179286268Y-121903923D01*
X179238649Y-121951542D01*
X179191030Y-122046780D01*
X179191030Y-122189637D01*
X179238649Y-122284875D01*
X179286268Y-122332494D01*
X179381506Y-122380113D01*
X179762458Y-122380113D01*
X178286268Y-121856303D02*
X178762458Y-121856303D01*
X178810077Y-122332494D01*
X178762458Y-122284875D01*
X178667220Y-122237256D01*
X178429125Y-122237256D01*
X178333887Y-122284875D01*
X178286268Y-122332494D01*
X178238649Y-122427732D01*
X178238649Y-122665827D01*
X178286268Y-122761065D01*
X178333887Y-122808684D01*
X178429125Y-122856303D01*
X178667220Y-122856303D01*
X178762458Y-122808684D01*
X178810077Y-122761065D01*
X177667220Y-122284875D02*
X177762458Y-122237256D01*
X177810077Y-122189637D01*
X177857696Y-122094399D01*
X177857696Y-122046780D01*
X177810077Y-121951542D01*
X177762458Y-121903923D01*
X177667220Y-121856303D01*
X177476744Y-121856303D01*
X177381506Y-121903923D01*
X177333887Y-121951542D01*
X177286268Y-122046780D01*
X177286268Y-122094399D01*
X177333887Y-122189637D01*
X177381506Y-122237256D01*
X177476744Y-122284875D01*
X177667220Y-122284875D01*
X177762458Y-122332494D01*
X177810077Y-122380113D01*
X177857696Y-122475351D01*
X177857696Y-122665827D01*
X177810077Y-122761065D01*
X177762458Y-122808684D01*
X177667220Y-122856303D01*
X177476744Y-122856303D01*
X177381506Y-122808684D01*
X177333887Y-122761065D01*
X177286268Y-122665827D01*
X177286268Y-122475351D01*
X177333887Y-122380113D01*
X177381506Y-122332494D01*
X177476744Y-122284875D01*
G04 #@! TO.C,R59*
X193809857Y-58619380D02*
X194143190Y-58143190D01*
X194381285Y-58619380D02*
X194381285Y-57619380D01*
X194000333Y-57619380D01*
X193905095Y-57667000D01*
X193857476Y-57714619D01*
X193809857Y-57809857D01*
X193809857Y-57952714D01*
X193857476Y-58047952D01*
X193905095Y-58095571D01*
X194000333Y-58143190D01*
X194381285Y-58143190D01*
X192905095Y-57619380D02*
X193381285Y-57619380D01*
X193428904Y-58095571D01*
X193381285Y-58047952D01*
X193286047Y-58000333D01*
X193047952Y-58000333D01*
X192952714Y-58047952D01*
X192905095Y-58095571D01*
X192857476Y-58190809D01*
X192857476Y-58428904D01*
X192905095Y-58524142D01*
X192952714Y-58571761D01*
X193047952Y-58619380D01*
X193286047Y-58619380D01*
X193381285Y-58571761D01*
X193428904Y-58524142D01*
X192381285Y-58619380D02*
X192190809Y-58619380D01*
X192095571Y-58571761D01*
X192047952Y-58524142D01*
X191952714Y-58381285D01*
X191905095Y-58190809D01*
X191905095Y-57809857D01*
X191952714Y-57714619D01*
X192000333Y-57667000D01*
X192095571Y-57619380D01*
X192286047Y-57619380D01*
X192381285Y-57667000D01*
X192428904Y-57714619D01*
X192476523Y-57809857D01*
X192476523Y-58047952D01*
X192428904Y-58143190D01*
X192381285Y-58190809D01*
X192286047Y-58238428D01*
X192095571Y-58238428D01*
X192000333Y-58190809D01*
X191952714Y-58143190D01*
X191905095Y-58047952D01*
G04 #@! TO.C,R61*
X193936857Y-77796380D02*
X194270190Y-77320190D01*
X194508285Y-77796380D02*
X194508285Y-76796380D01*
X194127333Y-76796380D01*
X194032095Y-76844000D01*
X193984476Y-76891619D01*
X193936857Y-76986857D01*
X193936857Y-77129714D01*
X193984476Y-77224952D01*
X194032095Y-77272571D01*
X194127333Y-77320190D01*
X194508285Y-77320190D01*
X193079714Y-76796380D02*
X193270190Y-76796380D01*
X193365428Y-76844000D01*
X193413047Y-76891619D01*
X193508285Y-77034476D01*
X193555904Y-77224952D01*
X193555904Y-77605904D01*
X193508285Y-77701142D01*
X193460666Y-77748761D01*
X193365428Y-77796380D01*
X193174952Y-77796380D01*
X193079714Y-77748761D01*
X193032095Y-77701142D01*
X192984476Y-77605904D01*
X192984476Y-77367809D01*
X193032095Y-77272571D01*
X193079714Y-77224952D01*
X193174952Y-77177333D01*
X193365428Y-77177333D01*
X193460666Y-77224952D01*
X193508285Y-77272571D01*
X193555904Y-77367809D01*
X192032095Y-77796380D02*
X192603523Y-77796380D01*
X192317809Y-77796380D02*
X192317809Y-76796380D01*
X192413047Y-76939238D01*
X192508285Y-77034476D01*
X192603523Y-77082095D01*
G04 #@! TO.C,R63*
X205502857Y-102051380D02*
X205836190Y-101575190D01*
X206074285Y-102051380D02*
X206074285Y-101051380D01*
X205693333Y-101051380D01*
X205598095Y-101099000D01*
X205550476Y-101146619D01*
X205502857Y-101241857D01*
X205502857Y-101384714D01*
X205550476Y-101479952D01*
X205598095Y-101527571D01*
X205693333Y-101575190D01*
X206074285Y-101575190D01*
X204645714Y-101051380D02*
X204836190Y-101051380D01*
X204931428Y-101099000D01*
X204979047Y-101146619D01*
X205074285Y-101289476D01*
X205121904Y-101479952D01*
X205121904Y-101860904D01*
X205074285Y-101956142D01*
X205026666Y-102003761D01*
X204931428Y-102051380D01*
X204740952Y-102051380D01*
X204645714Y-102003761D01*
X204598095Y-101956142D01*
X204550476Y-101860904D01*
X204550476Y-101622809D01*
X204598095Y-101527571D01*
X204645714Y-101479952D01*
X204740952Y-101432333D01*
X204931428Y-101432333D01*
X205026666Y-101479952D01*
X205074285Y-101527571D01*
X205121904Y-101622809D01*
X204217142Y-101051380D02*
X203598095Y-101051380D01*
X203931428Y-101432333D01*
X203788571Y-101432333D01*
X203693333Y-101479952D01*
X203645714Y-101527571D01*
X203598095Y-101622809D01*
X203598095Y-101860904D01*
X203645714Y-101956142D01*
X203693333Y-102003761D01*
X203788571Y-102051380D01*
X204074285Y-102051380D01*
X204169523Y-102003761D01*
X204217142Y-101956142D01*
G04 #@! TO.C,SW4*
X122962333Y-52271761D02*
X122819476Y-52319380D01*
X122581380Y-52319380D01*
X122486142Y-52271761D01*
X122438523Y-52224142D01*
X122390904Y-52128904D01*
X122390904Y-52033666D01*
X122438523Y-51938428D01*
X122486142Y-51890809D01*
X122581380Y-51843190D01*
X122771857Y-51795571D01*
X122867095Y-51747952D01*
X122914714Y-51700333D01*
X122962333Y-51605095D01*
X122962333Y-51509857D01*
X122914714Y-51414619D01*
X122867095Y-51367000D01*
X122771857Y-51319380D01*
X122533761Y-51319380D01*
X122390904Y-51367000D01*
X122057571Y-51319380D02*
X121819476Y-52319380D01*
X121629000Y-51605095D01*
X121438523Y-52319380D01*
X121200428Y-51319380D01*
X120390904Y-51652714D02*
X120390904Y-52319380D01*
X120629000Y-51271761D02*
X120867095Y-51986047D01*
X120248047Y-51986047D01*
G04 #@! TD*
M02*
