G04 #@! TF.FileFunction,Profile,NP*
%FSLAX46Y46*%
G04 Gerber Fmt 4.6, Leading zero omitted, Abs format (unit mm)*
G04 Created by KiCad (PCBNEW 4.0.7) date 05/28/18 10:50:02*
%MOMM*%
%LPD*%
G01*
G04 APERTURE LIST*
%ADD10C,0.100000*%
G04 APERTURE END LIST*
D10*
X184043320Y-123294140D02*
X194299840Y-105537000D01*
X193587340Y-105134148D02*
X194299840Y-105537000D01*
X195943220Y-102687120D02*
X195236341Y-102276122D01*
X184043320Y-123294140D02*
X183337339Y-122887441D01*
X195236341Y-102276122D02*
X193587340Y-105134148D01*
X183337339Y-122887441D02*
X181686341Y-125744142D01*
X181686341Y-125744142D02*
X182389780Y-126166880D01*
X182389780Y-126164340D02*
X180887800Y-128764620D01*
X198331800Y-99750020D02*
X197932800Y-100441820D01*
X209416800Y-106149620D02*
X198331800Y-99750020D01*
X209536800Y-107141820D02*
X209017800Y-106841420D01*
X209017800Y-106841420D02*
X209416800Y-106149620D01*
X181006800Y-129756820D02*
X192091800Y-136156420D01*
X180887800Y-128764620D02*
X181406800Y-129065020D01*
X197412800Y-100142620D02*
X195943220Y-102687120D01*
X197932800Y-100441820D02*
X197412800Y-100142620D01*
X193011800Y-135765050D02*
X209537300Y-107142280D01*
X192492800Y-135466030D02*
X193011800Y-135765050D01*
X192091800Y-136156420D02*
X192492800Y-135466030D01*
X181406800Y-129065020D02*
X181006800Y-129756820D01*
X161579380Y-110324780D02*
X161474580Y-110915980D01*
X160686180Y-110776780D02*
X158463680Y-123381740D01*
X173038980Y-125951760D02*
X173827180Y-126090940D01*
X159251780Y-123520910D02*
X159148380Y-124112090D01*
X161474580Y-110915980D02*
X160686180Y-110776780D01*
X175261880Y-113346880D02*
X175366680Y-112755680D01*
X173827180Y-126090940D02*
X176049980Y-113484680D01*
X176049980Y-113484680D02*
X175261880Y-113346880D01*
X158463680Y-123381740D02*
X159251780Y-123520910D01*
X172934280Y-126542940D02*
X173038980Y-125951760D01*
X159148380Y-124112090D02*
X172934280Y-126542940D01*
X175366680Y-112755680D02*
X161579380Y-110324780D01*
X167519440Y-65492730D02*
X168320240Y-65492730D01*
X167519440Y-52692160D02*
X167519440Y-52092660D01*
X168320240Y-65492730D02*
X168320240Y-52692160D01*
X168320240Y-52692160D02*
X167519440Y-52692160D01*
X152720740Y-52692160D02*
X152720740Y-65492730D01*
X153520140Y-52692160D02*
X152720740Y-52692160D01*
X167519440Y-52092660D02*
X153520140Y-52092660D01*
X153520140Y-52092660D02*
X153520140Y-52692160D01*
X167519440Y-66090800D02*
X167519440Y-65492730D01*
X167636280Y-71914880D02*
X167636280Y-71315380D01*
X153636980Y-71315380D02*
X153636980Y-71914880D01*
X153636980Y-71914880D02*
X152837580Y-71914880D01*
X167636280Y-71315380D02*
X153636980Y-71315380D01*
X153520140Y-66090800D02*
X167519440Y-66090800D01*
X152720740Y-65492730D02*
X153520140Y-65492730D01*
X153520140Y-65492730D02*
X153520140Y-66090800D01*
X152837580Y-71914880D02*
X152837580Y-84715450D01*
X168437080Y-84715450D02*
X168437080Y-71914880D01*
X167636280Y-84715450D02*
X168437080Y-84715450D01*
X168437080Y-71914880D02*
X167636280Y-71914880D01*
X153636980Y-85313520D02*
X167636280Y-85313520D01*
X167636280Y-85313520D02*
X167636280Y-84715450D01*
X152837580Y-84715450D02*
X153636980Y-84715450D01*
X153636980Y-84715450D02*
X153636980Y-85313520D01*
X153629360Y-90238380D02*
X153629360Y-90837880D01*
X153629360Y-90837880D02*
X152829960Y-90837880D01*
X153629360Y-104236520D02*
X167628660Y-104236520D01*
X167628660Y-104236520D02*
X167628660Y-103638450D01*
X168429460Y-103638450D02*
X168429460Y-90837880D01*
X167628660Y-103638450D02*
X168429460Y-103638450D01*
X167628660Y-90837880D02*
X167628660Y-90238380D01*
X167628660Y-90238380D02*
X153629360Y-90238380D01*
X168429460Y-90837880D02*
X167628660Y-90837880D01*
X152829960Y-90837880D02*
X152829960Y-103638450D01*
X153629360Y-103638450D02*
X153629360Y-104236520D01*
X152829960Y-103638450D02*
X153629360Y-103638450D01*
X205634680Y-72553930D02*
X206435480Y-72553930D01*
X206435480Y-59753360D02*
X205634680Y-59753360D01*
X205634680Y-59753360D02*
X205634680Y-59153860D01*
X206435480Y-72553930D02*
X206435480Y-59753360D01*
X191752220Y-78376580D02*
X191752220Y-78976080D01*
X205634680Y-73152000D02*
X205634680Y-72553930D01*
X191635380Y-72553930D02*
X191635380Y-73152000D01*
X205751520Y-78976080D02*
X205751520Y-78376580D01*
X191635380Y-73152000D02*
X205634680Y-73152000D01*
X205751520Y-78376580D02*
X191752220Y-78376580D01*
X205634680Y-59153860D02*
X191635380Y-59153860D01*
X191635380Y-59753360D02*
X190835980Y-59753360D01*
X191635380Y-59153860D02*
X191635380Y-59753360D01*
X190835980Y-59753360D02*
X190835980Y-72553930D01*
X190835980Y-72553930D02*
X191635380Y-72553930D01*
X205751520Y-92374720D02*
X205751520Y-91776650D01*
X206552320Y-78976080D02*
X205751520Y-78976080D01*
X191752220Y-78976080D02*
X190952820Y-78976080D01*
X205751520Y-91776650D02*
X206552320Y-91776650D01*
X191752220Y-92374720D02*
X205751520Y-92374720D01*
X190952820Y-78976080D02*
X190952820Y-91776650D01*
X206552320Y-91776650D02*
X206552320Y-78976080D01*
X191752220Y-91776650D02*
X191752220Y-92374720D01*
X190952820Y-91776650D02*
X191752220Y-91776650D01*
X186734540Y-93210240D02*
X186734540Y-92610740D01*
X172735240Y-106608880D02*
X186734540Y-106608880D01*
X172735240Y-106010810D02*
X172735240Y-106608880D01*
X172735240Y-92610740D02*
X172735240Y-93210240D01*
X186734540Y-92610740D02*
X172735240Y-92610740D01*
X187535340Y-106010810D02*
X187535340Y-93210240D01*
X186734540Y-106010810D02*
X187535340Y-106010810D01*
X187535340Y-93210240D02*
X186734540Y-93210240D01*
X186734540Y-106608880D02*
X186734540Y-106010810D01*
X172742860Y-87685880D02*
X186742160Y-87685880D01*
X186742160Y-87685880D02*
X186742160Y-87087810D01*
X171943460Y-87087810D02*
X172742860Y-87087810D01*
X172742860Y-87087810D02*
X172742860Y-87685880D01*
X172735240Y-93210240D02*
X171935840Y-93210240D01*
X186742160Y-87087810D02*
X187542960Y-87087810D01*
X187542960Y-87087810D02*
X187542960Y-74287240D01*
X171943460Y-74287240D02*
X171943460Y-87087810D01*
X187542960Y-74287240D02*
X186742160Y-74287240D01*
X186625320Y-68463160D02*
X186625320Y-67865090D01*
X172742860Y-74287240D02*
X171943460Y-74287240D01*
X172742860Y-73687740D02*
X172742860Y-74287240D01*
X186742160Y-73687740D02*
X172742860Y-73687740D01*
X186742160Y-74287240D02*
X186742160Y-73687740D01*
X171826620Y-67865090D02*
X172626020Y-67865090D01*
X172626020Y-67865090D02*
X172626020Y-68463160D01*
X172626020Y-68463160D02*
X186625320Y-68463160D01*
X171935840Y-106010810D02*
X172735240Y-106010810D01*
X171935840Y-93210240D02*
X171935840Y-106010810D01*
X186625320Y-55064520D02*
X186625320Y-54465020D01*
X186625320Y-54465020D02*
X172626020Y-54465020D01*
X172626020Y-54465020D02*
X172626020Y-55064520D01*
X172626020Y-55064520D02*
X171826620Y-55064520D01*
X186625320Y-67865090D02*
X187426120Y-67865090D01*
X171826620Y-55064520D02*
X171826620Y-67865090D01*
X187426120Y-55064520D02*
X186625320Y-55064520D01*
X187426120Y-67865090D02*
X187426120Y-55064520D01*
X129640420Y-84738310D02*
X130441220Y-84738310D01*
X129640420Y-85336380D02*
X129640420Y-84738310D01*
X130441220Y-84738310D02*
X130441220Y-71937740D01*
X115641120Y-85336380D02*
X129640420Y-85336380D01*
X129640420Y-71338240D02*
X115641120Y-71338240D01*
X115641120Y-84738310D02*
X115641120Y-85336380D01*
X115641120Y-71338240D02*
X115641120Y-71937740D01*
X114841720Y-71937740D02*
X114841720Y-84738310D01*
X114841720Y-84738310D02*
X115641120Y-84738310D01*
X115641120Y-71937740D02*
X114841720Y-71937740D01*
X96542860Y-87729060D02*
X110542160Y-87729060D01*
X110542160Y-73730920D02*
X96542860Y-73730920D01*
X110542160Y-87729060D02*
X110542160Y-87130990D01*
X96542860Y-73730920D02*
X96542860Y-74330420D01*
X95743460Y-74330420D02*
X95743460Y-87130990D01*
X96542860Y-74330420D02*
X95743460Y-74330420D01*
X96542860Y-87130990D02*
X96542860Y-87729060D01*
X95743460Y-87130990D02*
X96542860Y-87130990D01*
X111342960Y-74330420D02*
X110542160Y-74330420D01*
X111342960Y-87130990D02*
X111342960Y-74330420D01*
X110542160Y-74330420D02*
X110542160Y-73730920D01*
X110542160Y-87130990D02*
X111342960Y-87130990D01*
X91502520Y-89439850D02*
X92303120Y-89439850D01*
X91502520Y-90037920D02*
X91502520Y-89439850D01*
X92303120Y-76639280D02*
X91502520Y-76639280D01*
X92303120Y-89439850D02*
X92303120Y-76639280D01*
X91502520Y-76639280D02*
X91502520Y-76039780D01*
X91502520Y-76039780D02*
X77502970Y-76039780D01*
X77502970Y-90037920D02*
X91502520Y-90037920D01*
X77502970Y-76639280D02*
X76703710Y-76639280D01*
X77502970Y-76039780D02*
X77502970Y-76639280D01*
X76703710Y-89439850D02*
X77502970Y-89439850D01*
X77502970Y-89439850D02*
X77502970Y-90037920D01*
X76703710Y-76639280D02*
X76703710Y-89439850D01*
X129640420Y-71937740D02*
X129640420Y-71338240D01*
X134645400Y-69560300D02*
X133846000Y-69560300D01*
X130441220Y-71937740D02*
X129640420Y-71937740D01*
X133846000Y-69560300D02*
X133846000Y-82360870D01*
X134645400Y-82360870D02*
X134645400Y-82958940D01*
X133846000Y-82360870D02*
X134645400Y-82360870D01*
X149445500Y-82360870D02*
X149445500Y-69560300D01*
X149445500Y-69560300D02*
X148644700Y-69560300D01*
X148644700Y-82958940D02*
X148644700Y-82360870D01*
X148644700Y-82360870D02*
X149445500Y-82360870D01*
X134645400Y-68960800D02*
X134645400Y-69560300D01*
X148644700Y-68960800D02*
X134645400Y-68960800D01*
X134645400Y-82958940D02*
X148644700Y-82958940D01*
X148644700Y-69560300D02*
X148644700Y-68960800D01*
X95735840Y-106053990D02*
X96535240Y-106053990D01*
X96535240Y-106652060D02*
X110534540Y-106652060D01*
X96535240Y-106053990D02*
X96535240Y-106652060D01*
X110534540Y-92653920D02*
X96535240Y-92653920D01*
X96535240Y-92653920D02*
X96535240Y-93253420D01*
X96535240Y-93253420D02*
X95735840Y-93253420D01*
X95735840Y-93253420D02*
X95735840Y-106053990D01*
X115633500Y-103661310D02*
X115633500Y-104259380D01*
X114834100Y-90860740D02*
X114834100Y-103661310D01*
X115633500Y-90860740D02*
X114834100Y-90860740D01*
X114834100Y-103661310D02*
X115633500Y-103661310D01*
X130433600Y-103661310D02*
X130433600Y-90860740D01*
X129632800Y-104259380D02*
X129632800Y-103661310D01*
X129632800Y-103661310D02*
X130433600Y-103661310D01*
X130433600Y-90860740D02*
X129632800Y-90860740D01*
X129632800Y-90860740D02*
X129632800Y-90261240D01*
X115633500Y-90261240D02*
X115633500Y-90860740D01*
X129632800Y-90261240D02*
X115633500Y-90261240D01*
X115633500Y-104259380D02*
X129632800Y-104259380D01*
X110534540Y-93253420D02*
X110534540Y-92653920D01*
X110534540Y-106652060D02*
X110534540Y-106053990D01*
X111335340Y-93253420D02*
X110534540Y-93253420D01*
X110534540Y-106053990D02*
X111335340Y-106053990D01*
X111335340Y-106053990D02*
X111335340Y-93253420D01*
X91494900Y-108960920D02*
X91494900Y-108362850D01*
X91494900Y-108362850D02*
X92295500Y-108362850D01*
X77495350Y-108960920D02*
X91494900Y-108960920D01*
X91494900Y-94962780D02*
X77495350Y-94962780D01*
X92295500Y-95562280D02*
X91494900Y-95562280D01*
X91494900Y-95562280D02*
X91494900Y-94962780D01*
X92295500Y-108362850D02*
X92295500Y-95562280D01*
X77495350Y-94962780D02*
X77495350Y-95562280D01*
X77495350Y-95562280D02*
X76696090Y-95562280D01*
X76696090Y-95562280D02*
X76696090Y-108362850D01*
X77495350Y-108362850D02*
X77495350Y-108960920D01*
X76696090Y-108362850D02*
X77495350Y-108362850D01*
X148637080Y-101283870D02*
X149437880Y-101283870D01*
X148637080Y-101881940D02*
X148637080Y-101283870D01*
X149437880Y-101283870D02*
X149437880Y-88483300D01*
X149437880Y-88483300D02*
X148637080Y-88483300D01*
X134637780Y-87883800D02*
X134637780Y-88483300D01*
X148637080Y-88483300D02*
X148637080Y-87883800D01*
X148637080Y-87883800D02*
X134637780Y-87883800D01*
X133838380Y-101283870D02*
X134637780Y-101283870D01*
X133838380Y-88483300D02*
X133838380Y-101283870D01*
X134637780Y-101881940D02*
X148637080Y-101881940D01*
X134637780Y-88483300D02*
X133838380Y-88483300D01*
X134637780Y-101283870D02*
X134637780Y-101881940D01*
X115524280Y-52715020D02*
X114724880Y-52715020D01*
X115524280Y-52115520D02*
X115524280Y-52715020D01*
X114724880Y-65515590D02*
X115524280Y-65515590D01*
X114724880Y-52715020D02*
X114724880Y-65515590D01*
X129523580Y-52115520D02*
X115524280Y-52115520D01*
X115524280Y-65515590D02*
X115524280Y-66113660D01*
X134528560Y-49738080D02*
X134528560Y-50337580D01*
X134528560Y-63736220D02*
X148527860Y-63736220D01*
X134528560Y-63138150D02*
X134528560Y-63736220D01*
X148527860Y-49738080D02*
X134528560Y-49738080D01*
X129523580Y-66113660D02*
X129523580Y-65515590D01*
X115524280Y-66113660D02*
X129523580Y-66113660D01*
X130324380Y-65515590D02*
X130324380Y-52715020D01*
X129523580Y-65515590D02*
X130324380Y-65515590D01*
X130324380Y-52715020D02*
X129523580Y-52715020D01*
X133729160Y-63138150D02*
X134528560Y-63138150D01*
X133729160Y-50337580D02*
X133729160Y-63138150D01*
X134528560Y-50337580D02*
X133729160Y-50337580D01*
X129523580Y-52715020D02*
X129523580Y-52115520D01*
X149328660Y-50337580D02*
X148527860Y-50337580D01*
X149328660Y-63138150D02*
X149328660Y-50337580D01*
X148527860Y-63736220D02*
X148527860Y-63138150D01*
X148527860Y-50337580D02*
X148527860Y-49738080D01*
X148527860Y-63138150D02*
X149328660Y-63138150D01*
X95626620Y-55107700D02*
X95626620Y-67908270D01*
X95626620Y-67908270D02*
X96426020Y-67908270D01*
X96426020Y-54508200D02*
X96426020Y-55107700D01*
X96426020Y-67908270D02*
X96426020Y-68506340D01*
X96426020Y-55107700D02*
X95626620Y-55107700D01*
X77386130Y-57416560D02*
X76586870Y-57416560D01*
X77386130Y-70217130D02*
X77386130Y-70815200D01*
X76586870Y-57416560D02*
X76586870Y-70217130D01*
X76586870Y-70217130D02*
X77386130Y-70217130D01*
X77386130Y-56817060D02*
X77386130Y-57416560D01*
X91385680Y-70217130D02*
X92186280Y-70217130D01*
X91385680Y-56817060D02*
X77386130Y-56817060D01*
X91385680Y-57416560D02*
X91385680Y-56817060D01*
X77386130Y-70815200D02*
X91385680Y-70815200D01*
X92186280Y-70217130D02*
X92186280Y-57416560D01*
X92186280Y-57416560D02*
X91385680Y-57416560D01*
X91385680Y-70815200D02*
X91385680Y-70217130D01*
X111226120Y-55107700D02*
X110425320Y-55107700D01*
X110425320Y-55107700D02*
X110425320Y-54508200D01*
X110425320Y-67908270D02*
X111226120Y-67908270D01*
X110425320Y-54508200D02*
X96426020Y-54508200D01*
X110425320Y-68506340D02*
X110425320Y-67908270D01*
X111226120Y-67908270D02*
X111226120Y-55107700D01*
X96426020Y-68506340D02*
X110425320Y-68506340D01*
X149371840Y-107609500D02*
X148571040Y-107609500D01*
X149371840Y-120410070D02*
X149371840Y-107609500D01*
X148571040Y-107609500D02*
X148571040Y-107010000D01*
X148571040Y-120410070D02*
X149371840Y-120410070D01*
X148571040Y-107010000D02*
X134571740Y-107010000D01*
X134571740Y-121008140D02*
X148571040Y-121008140D01*
X148571040Y-121008140D02*
X148571040Y-120410070D01*
X134571740Y-120410070D02*
X134571740Y-121008140D01*
X133772340Y-120410070D02*
X134571740Y-120410070D01*
X134571740Y-107609500D02*
X133772340Y-107609500D01*
X133772340Y-107609500D02*
X133772340Y-120410070D01*
X134571740Y-107010000D02*
X134571740Y-107609500D01*
X96469200Y-125778260D02*
X110468500Y-125778260D01*
X110468500Y-112379620D02*
X110468500Y-111780120D01*
X110468500Y-125778260D02*
X110468500Y-125180190D01*
X110468500Y-111780120D02*
X96469200Y-111780120D01*
X96469200Y-125180190D02*
X96469200Y-125778260D01*
X111269300Y-112379620D02*
X110468500Y-112379620D01*
X110468500Y-125180190D02*
X111269300Y-125180190D01*
X111269300Y-125180190D02*
X111269300Y-112379620D01*
X96469200Y-111780120D02*
X96469200Y-112379620D01*
X96469200Y-112379620D02*
X95669800Y-112379620D01*
X95669800Y-125180190D02*
X96469200Y-125180190D01*
X95669800Y-112379620D02*
X95669800Y-125180190D01*
X130367560Y-109986940D02*
X129566760Y-109986940D01*
X114768060Y-122787510D02*
X115567460Y-122787510D01*
X114768060Y-109986940D02*
X114768060Y-122787510D01*
X77429310Y-114688480D02*
X76630050Y-114688480D01*
X115567460Y-122787510D02*
X115567460Y-123385580D01*
X77429310Y-114088980D02*
X77429310Y-114688480D01*
X130367560Y-122787510D02*
X130367560Y-109986940D01*
X91428860Y-114688480D02*
X91428860Y-114088980D01*
X76630050Y-127489050D02*
X77429310Y-127489050D01*
X77429310Y-128087120D02*
X91428860Y-128087120D01*
X91428860Y-127489050D02*
X92229460Y-127489050D01*
X76630050Y-114688480D02*
X76630050Y-127489050D01*
X129566760Y-122787510D02*
X130367560Y-122787510D01*
X92229460Y-114688480D02*
X91428860Y-114688480D01*
X77429310Y-127489050D02*
X77429310Y-128087120D01*
X92229460Y-127489050D02*
X92229460Y-114688480D01*
X91428860Y-114088980D02*
X77429310Y-114088980D01*
X129566760Y-123385580D02*
X129566760Y-122787510D01*
X129566760Y-109986940D02*
X129566760Y-109387440D01*
X129566760Y-109387440D02*
X115567460Y-109387440D01*
X91428860Y-128087120D02*
X91428860Y-127489050D01*
X115567460Y-109986940D02*
X114768060Y-109986940D01*
X115567460Y-109387440D02*
X115567460Y-109986940D01*
X115567460Y-123385580D02*
X129566760Y-123385580D01*
X212800000Y-106590000D02*
X212760000Y-106920000D01*
X212690000Y-106150000D02*
X212800000Y-106590000D01*
X212430000Y-105750000D02*
X212690000Y-106150000D01*
X212090000Y-105359200D02*
X212430000Y-105750000D01*
X208210000Y-48980000D02*
X207790000Y-47980000D01*
X75290000Y-53490000D02*
X75630000Y-53300000D01*
X208221000Y-102916000D02*
X208215000Y-102906000D01*
X205098000Y-46430000D02*
X132080000Y-46430000D01*
X208222000Y-102917000D02*
X208221000Y-102916000D01*
X208205000Y-102870000D02*
X208205000Y-95250000D01*
X193427000Y-139053000D02*
X194051000Y-138806000D01*
X178448000Y-130736000D02*
X178454000Y-130738000D01*
X132080000Y-46430000D02*
X116211000Y-46430000D01*
X134620000Y-130735000D02*
X156210000Y-130735000D01*
X208210000Y-102896000D02*
X208209000Y-102894000D01*
X178461000Y-130740000D02*
X178466000Y-130743000D01*
X194051000Y-138806000D02*
X194175000Y-138696000D01*
X178435000Y-130735000D02*
X178442000Y-130736000D01*
X76113100Y-130009000D02*
X77045100Y-130547000D01*
X194175000Y-138696000D02*
X212759000Y-106924000D01*
X208205000Y-95250000D02*
X208205000Y-48980900D01*
X208209000Y-102893000D02*
X208207000Y-102882000D01*
X192757000Y-139071000D02*
X193427000Y-139053000D01*
X178442000Y-130736000D02*
X178448000Y-130736000D01*
X178454000Y-130738000D02*
X178461000Y-130740000D01*
X208215000Y-102906000D02*
X208210000Y-102896000D01*
X99060000Y-130735000D02*
X134620000Y-130735000D01*
X178466000Y-130743000D02*
X178473000Y-130745000D01*
X116211000Y-46430000D02*
X75627000Y-53298100D01*
X208240000Y-102934000D02*
X208232000Y-102926000D01*
X212090000Y-105359200D02*
X208240000Y-102934000D01*
X206165000Y-46618000D02*
X205098000Y-46430000D01*
X208207000Y-102882000D02*
X208205000Y-102870000D01*
X78111600Y-130735000D02*
X99060000Y-130735000D01*
X207097000Y-47156100D02*
X206165000Y-46618000D01*
X192731000Y-139062000D02*
X192757000Y-139071000D01*
X156210000Y-130735000D02*
X178435000Y-130735000D01*
X207789000Y-47980900D02*
X207097000Y-47156100D01*
X208223000Y-102918000D02*
X208222000Y-102917000D01*
X77045100Y-130547000D02*
X78111600Y-130735000D01*
X208209000Y-102894000D02*
X208209000Y-102893000D01*
X208232000Y-102926000D02*
X208223000Y-102918000D01*
X178473000Y-130745000D02*
X192731000Y-139062000D01*
X75421300Y-129184000D02*
X76113100Y-130009000D01*
X75005000Y-127632000D02*
X75052100Y-128170000D01*
X75285600Y-53491000D02*
X75136900Y-53615800D01*
X75039900Y-53783900D02*
X75005000Y-53981600D01*
X75052100Y-128170000D02*
X75421300Y-129184000D01*
X75005000Y-53981600D02*
X75005000Y-127632000D01*
X75136900Y-53615800D02*
X75039900Y-53783900D01*
M02*
