<?xml version="1.0" standalone="no"?>
 <!DOCTYPE svg PUBLIC "-//W3C//DTD SVG 1.1//EN" 
 "http://www.w3.org/Graphics/SVG/1.1/DTD/svg11.dtd"> 
<svg xmlns="http://www.w3.org/2000/svg" version="1.1" 
    width="29.7002cm" height="21.0007cm" viewBox="0 0 116930 82680 ">
<title>SVG Picture created as Top Plate-brd.svg date 2018/05/28 10:18:46 </title>
  <desc>Picture generated by PCBNEW </desc>
<g style="fill:#000000; fill-opacity:1;stroke:#000000; stroke-opacity:1;
stroke-linecap:round; stroke-linejoin:round; "
 transform="translate(0 0) scale(1 1)">
</g>
<g style="fill:#000000; fill-opacity:0.0; 
stroke:#000000; stroke-width:-0.000393701; stroke-opacity:1; 
stroke-linecap:round; stroke-linejoin:round;">
</g>
<g style="fill:#000000; fill-opacity:0.0; 
stroke:#000000; stroke-width:39.3701; stroke-opacity:1; 
stroke-linecap:round; stroke-linejoin:round;">
</g>
<g style="fill:#000000; fill-opacity:0.0; 
stroke:#000000; stroke-width:59.0551; stroke-opacity:1; 
stroke-linecap:round; stroke-linejoin:round;">
<rect x="69685.9" y="65357.2" width="42519.7" height="12598.4" rx="0" />
</g>
<g style="fill:#000000; fill-opacity:0.0; 
stroke:#000000; stroke-width:39.3701; stroke-opacity:1; 
stroke-linecap:round; stroke-linejoin:round;">
</g>
<g style="fill:#000000; fill-opacity:0.0; 
stroke:#000000; stroke-width:59.0551; stroke-opacity:1; 
stroke-linecap:round; stroke-linejoin:round;">
<rect x="3937.01" y="3937.01" width="109056" height="74806" rx="0" />
</g>
<g style="fill:#000000; fill-opacity:0.0; 
stroke:#000000; stroke-width:39.3701; stroke-opacity:1; 
stroke-linecap:round; stroke-linejoin:round;">
</g>
<g style="fill:#000000; fill-opacity:0.0; 
stroke:#000000; stroke-width:59.0551; stroke-opacity:1; 
stroke-linecap:round; stroke-linejoin:round;">
<rect x="4724.41" y="4724.41" width="107481" height="73231.2" rx="0" />
</g>
<g style="fill:#000000; fill-opacity:0.0; 
stroke:#000000; stroke-width:39.3701; stroke-opacity:1; 
stroke-linecap:round; stroke-linejoin:round;">
</g>
<g style="fill:#000000; fill-opacity:0.0; 
stroke:#000000; stroke-width:59.0551; stroke-opacity:1; 
stroke-linecap:round; stroke-linejoin:round;">
<path d="M23622 4724
L23622 3937
" />
</g>
<g style="fill:#000000; fill-opacity:0.0; 
stroke:#000000; stroke-width:39.3701; stroke-opacity:1; 
stroke-linecap:round; stroke-linejoin:round;">
</g>
<g style="fill:#000000; fill-opacity:0.0; 
stroke:#000000; stroke-width:59.0551; stroke-opacity:1; 
stroke-linecap:round; stroke-linejoin:round;">
<path d="M43307 4724
L43307 3937
" />
</g>
<g style="fill:#000000; fill-opacity:0.0; 
stroke:#000000; stroke-width:39.3701; stroke-opacity:1; 
stroke-linecap:round; stroke-linejoin:round;">
</g>
<g style="fill:#000000; fill-opacity:0.0; 
stroke:#000000; stroke-width:59.0551; stroke-opacity:1; 
stroke-linecap:round; stroke-linejoin:round;">
<path d="M62992 4724
L62992 3937
" />
</g>
<g style="fill:#000000; fill-opacity:0.0; 
stroke:#000000; stroke-width:39.3701; stroke-opacity:1; 
stroke-linecap:round; stroke-linejoin:round;">
</g>
<g style="fill:#000000; fill-opacity:0.0; 
stroke:#000000; stroke-width:59.0551; stroke-opacity:1; 
stroke-linecap:round; stroke-linejoin:round;">
<path d="M82677 4724
L82677 3937
" />
</g>
<g style="fill:#000000; fill-opacity:0.0; 
stroke:#000000; stroke-width:39.3701; stroke-opacity:1; 
stroke-linecap:round; stroke-linejoin:round;">
</g>
<g style="fill:#000000; fill-opacity:0.0; 
stroke:#000000; stroke-width:59.0551; stroke-opacity:1; 
stroke-linecap:round; stroke-linejoin:round;">
<path d="M102362 4724
L102362 3937
" />
</g>
<g style="fill:#000000; fill-opacity:0.0; 
stroke:#000000; stroke-width:39.3701; stroke-opacity:1; 
stroke-linecap:round; stroke-linejoin:round;">
</g>
<g style="fill:#000000; fill-opacity:0.0; 
stroke:#000000; stroke-width:59.0551; stroke-opacity:1; 
stroke-linecap:round; stroke-linejoin:round;">
<path d="M14169 4562
L13877 4562
" />
<path d="M14023 4562
L14023 4050
L13974 4123
L13925 4172
L13877 4196
" />
</g>
<g style="fill:#000000; fill-opacity:0.0; 
stroke:#000000; stroke-width:39.3701; stroke-opacity:1; 
stroke-linecap:round; stroke-linejoin:round;">
</g>
<g style="fill:#000000; fill-opacity:0.0; 
stroke:#000000; stroke-width:59.0551; stroke-opacity:1; 
stroke-linecap:round; stroke-linejoin:round;">
<path d="M33562 4099
L33586 4074
L33635 4050
L33757 4050
L33805 4074
L33830 4099
L33854 4147
L33854 4196
L33830 4269
L33537 4562
L33854 4562
" />
</g>
<g style="fill:#000000; fill-opacity:0.0; 
stroke:#000000; stroke-width:39.3701; stroke-opacity:1; 
stroke-linecap:round; stroke-linejoin:round;">
</g>
<g style="fill:#000000; fill-opacity:0.0; 
stroke:#000000; stroke-width:59.0551; stroke-opacity:1; 
stroke-linecap:round; stroke-linejoin:round;">
<path d="M53222 4050
L53539 4050
L53368 4245
L53442 4245
L53490 4269
L53515 4294
L53539 4342
L53539 4464
L53515 4513
L53490 4537
L53442 4562
L53295 4562
L53247 4537
L53222 4513
" />
</g>
<g style="fill:#000000; fill-opacity:0.0; 
stroke:#000000; stroke-width:39.3701; stroke-opacity:1; 
stroke-linecap:round; stroke-linejoin:round;">
</g>
<g style="fill:#000000; fill-opacity:0.0; 
stroke:#000000; stroke-width:59.0551; stroke-opacity:1; 
stroke-linecap:round; stroke-linejoin:round;">
<path d="M73175 4221
L73175 4562
" />
<path d="M73053 4026
L72932 4391
L73248 4391
" />
</g>
<g style="fill:#000000; fill-opacity:0.0; 
stroke:#000000; stroke-width:39.3701; stroke-opacity:1; 
stroke-linecap:round; stroke-linejoin:round;">
</g>
<g style="fill:#000000; fill-opacity:0.0; 
stroke:#000000; stroke-width:59.0551; stroke-opacity:1; 
stroke-linecap:round; stroke-linejoin:round;">
<path d="M92885 4050
L92641 4050
L92617 4294
L92641 4269
L92690 4245
L92812 4245
L92860 4269
L92885 4294
L92909 4342
L92909 4464
L92885 4513
L92860 4537
L92812 4562
L92690 4562
L92641 4537
L92617 4513
" />
</g>
<g style="fill:#000000; fill-opacity:0.0; 
stroke:#000000; stroke-width:39.3701; stroke-opacity:1; 
stroke-linecap:round; stroke-linejoin:round;">
</g>
<g style="fill:#000000; fill-opacity:0.0; 
stroke:#000000; stroke-width:59.0551; stroke-opacity:1; 
stroke-linecap:round; stroke-linejoin:round;">
<path d="M112545 4050
L112448 4050
L112399 4074
L112375 4099
L112326 4172
L112302 4269
L112302 4464
L112326 4513
L112350 4537
L112399 4562
L112497 4562
L112545 4537
L112570 4513
L112594 4464
L112594 4342
L112570 4294
L112545 4269
L112497 4245
L112399 4245
L112350 4269
L112326 4294
L112302 4342
" />
</g>
<g style="fill:#000000; fill-opacity:0.0; 
stroke:#000000; stroke-width:39.3701; stroke-opacity:1; 
stroke-linecap:round; stroke-linejoin:round;">
</g>
<g style="fill:#000000; fill-opacity:0.0; 
stroke:#000000; stroke-width:59.0551; stroke-opacity:1; 
stroke-linecap:round; stroke-linejoin:round;">
<path d="M23622 77955
L23622 78742
" />
</g>
<g style="fill:#000000; fill-opacity:0.0; 
stroke:#000000; stroke-width:39.3701; stroke-opacity:1; 
stroke-linecap:round; stroke-linejoin:round;">
</g>
<g style="fill:#000000; fill-opacity:0.0; 
stroke:#000000; stroke-width:59.0551; stroke-opacity:1; 
stroke-linecap:round; stroke-linejoin:round;">
<path d="M43307 77955
L43307 78742
" />
</g>
<g style="fill:#000000; fill-opacity:0.0; 
stroke:#000000; stroke-width:39.3701; stroke-opacity:1; 
stroke-linecap:round; stroke-linejoin:round;">
</g>
<g style="fill:#000000; fill-opacity:0.0; 
stroke:#000000; stroke-width:59.0551; stroke-opacity:1; 
stroke-linecap:round; stroke-linejoin:round;">
<path d="M62992 77955
L62992 78742
" />
</g>
<g style="fill:#000000; fill-opacity:0.0; 
stroke:#000000; stroke-width:39.3701; stroke-opacity:1; 
stroke-linecap:round; stroke-linejoin:round;">
</g>
<g style="fill:#000000; fill-opacity:0.0; 
stroke:#000000; stroke-width:59.0551; stroke-opacity:1; 
stroke-linecap:round; stroke-linejoin:round;">
<path d="M82677 77955
L82677 78742
" />
</g>
<g style="fill:#000000; fill-opacity:0.0; 
stroke:#000000; stroke-width:39.3701; stroke-opacity:1; 
stroke-linecap:round; stroke-linejoin:round;">
</g>
<g style="fill:#000000; fill-opacity:0.0; 
stroke:#000000; stroke-width:59.0551; stroke-opacity:1; 
stroke-linecap:round; stroke-linejoin:round;">
<path d="M102362 77955
L102362 78742
" />
</g>
<g style="fill:#000000; fill-opacity:0.0; 
stroke:#000000; stroke-width:39.3701; stroke-opacity:1; 
stroke-linecap:round; stroke-linejoin:round;">
</g>
<g style="fill:#000000; fill-opacity:0.0; 
stroke:#000000; stroke-width:59.0551; stroke-opacity:1; 
stroke-linecap:round; stroke-linejoin:round;">
<path d="M14169 78580
L13877 78580
" />
<path d="M14023 78580
L14023 78069
L13974 78142
L13925 78190
L13877 78215
" />
</g>
<g style="fill:#000000; fill-opacity:0.0; 
stroke:#000000; stroke-width:39.3701; stroke-opacity:1; 
stroke-linecap:round; stroke-linejoin:round;">
</g>
<g style="fill:#000000; fill-opacity:0.0; 
stroke:#000000; stroke-width:59.0551; stroke-opacity:1; 
stroke-linecap:round; stroke-linejoin:round;">
<path d="M33562 78117
L33586 78093
L33635 78069
L33757 78069
L33805 78093
L33830 78117
L33854 78166
L33854 78215
L33830 78288
L33537 78580
L33854 78580
" />
</g>
<g style="fill:#000000; fill-opacity:0.0; 
stroke:#000000; stroke-width:39.3701; stroke-opacity:1; 
stroke-linecap:round; stroke-linejoin:round;">
</g>
<g style="fill:#000000; fill-opacity:0.0; 
stroke:#000000; stroke-width:59.0551; stroke-opacity:1; 
stroke-linecap:round; stroke-linejoin:round;">
<path d="M53222 78069
L53539 78069
L53368 78263
L53442 78263
L53490 78288
L53515 78312
L53539 78361
L53539 78483
L53515 78532
L53490 78556
L53442 78580
L53295 78580
L53247 78556
L53222 78532
" />
</g>
<g style="fill:#000000; fill-opacity:0.0; 
stroke:#000000; stroke-width:39.3701; stroke-opacity:1; 
stroke-linecap:round; stroke-linejoin:round;">
</g>
<g style="fill:#000000; fill-opacity:0.0; 
stroke:#000000; stroke-width:59.0551; stroke-opacity:1; 
stroke-linecap:round; stroke-linejoin:round;">
<path d="M73175 78239
L73175 78580
" />
<path d="M73053 78044
L72932 78410
L73248 78410
" />
</g>
<g style="fill:#000000; fill-opacity:0.0; 
stroke:#000000; stroke-width:39.3701; stroke-opacity:1; 
stroke-linecap:round; stroke-linejoin:round;">
</g>
<g style="fill:#000000; fill-opacity:0.0; 
stroke:#000000; stroke-width:59.0551; stroke-opacity:1; 
stroke-linecap:round; stroke-linejoin:round;">
<path d="M92885 78069
L92641 78069
L92617 78312
L92641 78288
L92690 78263
L92812 78263
L92860 78288
L92885 78312
L92909 78361
L92909 78483
L92885 78532
L92860 78556
L92812 78580
L92690 78580
L92641 78556
L92617 78532
" />
</g>
<g style="fill:#000000; fill-opacity:0.0; 
stroke:#000000; stroke-width:39.3701; stroke-opacity:1; 
stroke-linecap:round; stroke-linejoin:round;">
</g>
<g style="fill:#000000; fill-opacity:0.0; 
stroke:#000000; stroke-width:59.0551; stroke-opacity:1; 
stroke-linecap:round; stroke-linejoin:round;">
<path d="M112545 78069
L112448 78069
L112399 78093
L112375 78117
L112326 78190
L112302 78288
L112302 78483
L112326 78532
L112350 78556
L112399 78580
L112497 78580
L112545 78556
L112570 78532
L112594 78483
L112594 78361
L112570 78312
L112545 78288
L112497 78263
L112399 78263
L112350 78288
L112326 78312
L112302 78361
" />
</g>
<g style="fill:#000000; fill-opacity:0.0; 
stroke:#000000; stroke-width:39.3701; stroke-opacity:1; 
stroke-linecap:round; stroke-linejoin:round;">
</g>
<g style="fill:#000000; fill-opacity:0.0; 
stroke:#000000; stroke-width:59.0551; stroke-opacity:1; 
stroke-linecap:round; stroke-linejoin:round;">
<path d="M3937 23622
L4724 23622
" />
</g>
<g style="fill:#000000; fill-opacity:0.0; 
stroke:#000000; stroke-width:39.3701; stroke-opacity:1; 
stroke-linecap:round; stroke-linejoin:round;">
</g>
<g style="fill:#000000; fill-opacity:0.0; 
stroke:#000000; stroke-width:59.0551; stroke-opacity:1; 
stroke-linecap:round; stroke-linejoin:round;">
<path d="M3937 43307
L4724 43307
" />
</g>
<g style="fill:#000000; fill-opacity:0.0; 
stroke:#000000; stroke-width:39.3701; stroke-opacity:1; 
stroke-linecap:round; stroke-linejoin:round;">
</g>
<g style="fill:#000000; fill-opacity:0.0; 
stroke:#000000; stroke-width:59.0551; stroke-opacity:1; 
stroke-linecap:round; stroke-linejoin:round;">
<path d="M3937 62992
L4724 62992
" />
</g>
<g style="fill:#000000; fill-opacity:0.0; 
stroke:#000000; stroke-width:39.3701; stroke-opacity:1; 
stroke-linecap:round; stroke-linejoin:round;">
</g>
<g style="fill:#000000; fill-opacity:0.0; 
stroke:#000000; stroke-width:59.0551; stroke-opacity:1; 
stroke-linecap:round; stroke-linejoin:round;">
<path d="M4208 13864
L4452 13864
" />
<path d="M4160 14011
L4330 13499
L4501 14011
" />
</g>
<g style="fill:#000000; fill-opacity:0.0; 
stroke:#000000; stroke-width:39.3701; stroke-opacity:1; 
stroke-linecap:round; stroke-linejoin:round;">
</g>
<g style="fill:#000000; fill-opacity:0.0; 
stroke:#000000; stroke-width:59.0551; stroke-opacity:1; 
stroke-linecap:round; stroke-linejoin:round;">
<path d="M4367 33428
L4440 33452
L4464 33476
L4489 33525
L4489 33598
L4464 33647
L4440 33671
L4391 33696
L4196 33696
L4196 33184
L4367 33184
L4416 33208
L4440 33233
L4464 33281
L4464 33330
L4440 33379
L4416 33403
L4367 33428
L4196 33428
" />
</g>
<g style="fill:#000000; fill-opacity:0.0; 
stroke:#000000; stroke-width:39.3701; stroke-opacity:1; 
stroke-linecap:round; stroke-linejoin:round;">
</g>
<g style="fill:#000000; fill-opacity:0.0; 
stroke:#000000; stroke-width:59.0551; stroke-opacity:1; 
stroke-linecap:round; stroke-linejoin:round;">
<path d="M4489 53332
L4464 53356
L4391 53381
L4342 53381
L4269 53356
L4221 53308
L4196 53259
L4172 53161
L4172 53088
L4196 52991
L4221 52942
L4269 52893
L4342 52869
L4391 52869
L4464 52893
L4489 52918
" />
</g>
<g style="fill:#000000; fill-opacity:0.0; 
stroke:#000000; stroke-width:39.3701; stroke-opacity:1; 
stroke-linecap:round; stroke-linejoin:round;">
</g>
<g style="fill:#000000; fill-opacity:0.0; 
stroke:#000000; stroke-width:59.0551; stroke-opacity:1; 
stroke-linecap:round; stroke-linejoin:round;">
<path d="M4196 73066
L4196 72554
L4318 72554
L4391 72578
L4440 72627
L4464 72676
L4489 72773
L4489 72846
L4464 72944
L4440 72993
L4391 73041
L4318 73066
L4196 73066
" />
</g>
<g style="fill:#000000; fill-opacity:0.0; 
stroke:#000000; stroke-width:39.3701; stroke-opacity:1; 
stroke-linecap:round; stroke-linejoin:round;">
</g>
<g style="fill:#000000; fill-opacity:0.0; 
stroke:#000000; stroke-width:59.0551; stroke-opacity:1; 
stroke-linecap:round; stroke-linejoin:round;">
<path d="M112992 23622
L112205 23622
" />
</g>
<g style="fill:#000000; fill-opacity:0.0; 
stroke:#000000; stroke-width:39.3701; stroke-opacity:1; 
stroke-linecap:round; stroke-linejoin:round;">
</g>
<g style="fill:#000000; fill-opacity:0.0; 
stroke:#000000; stroke-width:59.0551; stroke-opacity:1; 
stroke-linecap:round; stroke-linejoin:round;">
<path d="M112992 43307
L112205 43307
" />
</g>
<g style="fill:#000000; fill-opacity:0.0; 
stroke:#000000; stroke-width:39.3701; stroke-opacity:1; 
stroke-linecap:round; stroke-linejoin:round;">
</g>
<g style="fill:#000000; fill-opacity:0.0; 
stroke:#000000; stroke-width:59.0551; stroke-opacity:1; 
stroke-linecap:round; stroke-linejoin:round;">
<path d="M112992 62992
L112205 62992
" />
</g>
<g style="fill:#000000; fill-opacity:0.0; 
stroke:#000000; stroke-width:39.3701; stroke-opacity:1; 
stroke-linecap:round; stroke-linejoin:round;">
</g>
<g style="fill:#000000; fill-opacity:0.0; 
stroke:#000000; stroke-width:59.0551; stroke-opacity:1; 
stroke-linecap:round; stroke-linejoin:round;">
<path d="M112477 13864
L112721 13864
" />
<path d="M112428 14011
L112599 13499
L112769 14011
" />
</g>
<g style="fill:#000000; fill-opacity:0.0; 
stroke:#000000; stroke-width:39.3701; stroke-opacity:1; 
stroke-linecap:round; stroke-linejoin:round;">
</g>
<g style="fill:#000000; fill-opacity:0.0; 
stroke:#000000; stroke-width:59.0551; stroke-opacity:1; 
stroke-linecap:round; stroke-linejoin:round;">
<path d="M112635 33428
L112708 33452
L112733 33476
L112757 33525
L112757 33598
L112733 33647
L112708 33671
L112660 33696
L112465 33696
L112465 33184
L112635 33184
L112684 33208
L112708 33233
L112733 33281
L112733 33330
L112708 33379
L112684 33403
L112635 33428
L112465 33428
" />
</g>
<g style="fill:#000000; fill-opacity:0.0; 
stroke:#000000; stroke-width:39.3701; stroke-opacity:1; 
stroke-linecap:round; stroke-linejoin:round;">
</g>
<g style="fill:#000000; fill-opacity:0.0; 
stroke:#000000; stroke-width:59.0551; stroke-opacity:1; 
stroke-linecap:round; stroke-linejoin:round;">
<path d="M112757 53332
L112733 53356
L112660 53381
L112611 53381
L112538 53356
L112489 53308
L112465 53259
L112440 53161
L112440 53088
L112465 52991
L112489 52942
L112538 52893
L112611 52869
L112660 52869
L112733 52893
L112757 52918
" />
</g>
<g style="fill:#000000; fill-opacity:0.0; 
stroke:#000000; stroke-width:39.3701; stroke-opacity:1; 
stroke-linecap:round; stroke-linejoin:round;">
</g>
<g style="fill:#000000; fill-opacity:0.0; 
stroke:#000000; stroke-width:59.0551; stroke-opacity:1; 
stroke-linecap:round; stroke-linejoin:round;">
<path d="M112465 73066
L112465 72554
L112587 72554
L112660 72578
L112708 72627
L112733 72676
L112757 72773
L112757 72846
L112733 72944
L112708 72993
L112660 73041
L112587 73066
L112465 73066
" />
</g>
<g style="fill:#000000; fill-opacity:0.0; 
stroke:#000000; stroke-width:39.3701; stroke-opacity:1; 
stroke-linecap:round; stroke-linejoin:round;">
</g>
<g style="fill:#000000; fill-opacity:0.0; 
stroke:#000000; stroke-width:59.0551; stroke-opacity:1; 
stroke-linecap:round; stroke-linejoin:round;">
<path d="M78881 76293
L78881 75703
L79022 75703
L79106 75731
L79162 75787
L79190 75843
L79219 75956
L79219 76040
L79190 76153
L79162 76209
L79106 76265
L79022 76293
L78881 76293
" />
<path d="M79725 76293
L79725 75984
L79697 75928
L79640 75899
L79528 75899
L79472 75928
" />
<path d="M79725 76265
L79669 76293
L79528 76293
L79472 76265
L79444 76209
L79444 76153
L79472 76096
L79528 76068
L79669 76068
L79725 76040
" />
<path d="M79922 75899
L80147 75899
" />
<path d="M80006 75703
L80006 76209
L80034 76265
L80090 76293
L80147 76293
" />
<path d="M80568 76265
L80512 76293
L80400 76293
L80343 76265
L80315 76209
L80315 75984
L80343 75928
L80400 75899
L80512 75899
L80568 75928
L80597 75984
L80597 76040
L80315 76096
" />
<path d="M80850 76237
L80878 76265
L80850 76293
L80822 76265
L80850 76237
L80850 76293
" />
<path d="M80850 75928
L80878 75956
L80850 75984
L80822 75956
L80850 75928
L80850 75984
" />
</g>
<g style="fill:#000000; fill-opacity:0.0; 
stroke:#000000; stroke-width:39.3701; stroke-opacity:1; 
stroke-linecap:round; stroke-linejoin:round;">
</g>
<g style="fill:#000000; fill-opacity:0.0; 
stroke:#000000; stroke-width:59.0551; stroke-opacity:1; 
stroke-linecap:round; stroke-linejoin:round;">
<path d="M69685 76577
L112205 76577
" />
</g>
<g style="fill:#000000; fill-opacity:0.0; 
stroke:#000000; stroke-width:39.3701; stroke-opacity:1; 
stroke-linecap:round; stroke-linejoin:round;">
</g>
<g style="fill:#000000; fill-opacity:0.0; 
stroke:#000000; stroke-width:59.0551; stroke-opacity:1; 
stroke-linecap:round; stroke-linejoin:round;">
<path d="M70220 77395
L70220 76805
" />
<path d="M70557 77395
L70304 77058
" />
<path d="M70557 76805
L70220 77142
" />
<path d="M70810 77395
L70810 77002
" />
<path d="M70810 76805
L70782 76833
L70810 76861
L70838 76833
L70810 76805
L70810 76861
" />
<path d="M71429 77339
L71401 77367
L71316 77395
L71260 77395
L71176 77367
L71120 77311
L71091 77255
L71063 77142
L71063 77058
L71091 76946
L71120 76889
L71176 76833
L71260 76805
L71316 76805
L71401 76833
L71429 76861
" />
<path d="M71935 77395
L71935 77086
L71907 77030
L71851 77002
L71738 77002
L71682 77030
" />
<path d="M71935 77367
L71879 77395
L71738 77395
L71682 77367
L71654 77311
L71654 77255
L71682 77199
L71738 77171
L71879 77171
L71935 77142
" />
<path d="M72469 77395
L72469 76805
" />
<path d="M72469 77367
L72413 77395
L72301 77395
L72244 77367
L72216 77339
L72188 77283
L72188 77114
L72216 77058
L72244 77030
L72301 77002
L72413 77002
L72469 77030
" />
<path d="M73201 77086
L73397 77086
" />
<path d="M73482 77395
L73201 77395
L73201 76805
L73482 76805
" />
<path d="M73735 77339
L73763 77367
L73735 77395
L73707 77367
L73735 77339
L73735 77395
" />
<path d="M74016 77395
L74016 76805
L74157 76805
L74241 76833
L74297 76889
L74325 76946
L74354 77058
L74354 77142
L74325 77255
L74297 77311
L74241 77367
L74157 77395
L74016 77395
" />
<path d="M74607 77339
L74635 77367
L74607 77395
L74579 77367
L74607 77339
L74607 77395
" />
<path d="M74860 77227
L75141 77227
" />
<path d="M74804 77395
L75000 76805
L75197 77395
" />
<path d="M75394 77339
L75422 77367
L75394 77395
L75366 77367
L75394 77339
L75394 77395
" />
<path d="M76575 77395
L76575 76805
" />
<path d="M76631 77171
L76800 77395
" />
<path d="M76800 77002
L76575 77227
" />
<path d="M77053 77395
L77053 77002
" />
<path d="M77053 76805
L77025 76833
L77053 76861
L77081 76833
L77053 76805
L77053 76861
" />
<path d="M77588 77367
L77531 77395
L77419 77395
L77363 77367
L77334 77339
L77306 77283
L77306 77114
L77334 77058
L77363 77030
L77419 77002
L77531 77002
L77588 77030
" />
<path d="M78094 77395
L78094 77086
L78066 77030
L78009 77002
L77897 77002
L77841 77030
" />
<path d="M78094 77367
L78037 77395
L77897 77395
L77841 77367
L77813 77311
L77813 77255
L77841 77199
L77897 77171
L78037 77171
L78094 77142
" />
<path d="M78628 77395
L78628 76805
" />
<path d="M78628 77367
L78572 77395
L78459 77395
L78403 77367
L78375 77339
L78347 77283
L78347 77114
L78375 77058
L78403 77030
L78459 77002
L78572 77002
L78628 77030
" />
<path d="M79612 77002
L79612 77395
" />
<path d="M79472 76777
L79331 77199
L79697 77199
" />
<path d="M79922 77339
L79950 77367
L79922 77395
L79894 77367
L79922 77339
L79922 77395
" />
<path d="M80315 76805
L80372 76805
L80428 76833
L80456 76861
L80484 76917
L80512 77030
L80512 77171
L80484 77283
L80456 77339
L80428 77367
L80372 77395
L80315 77395
L80259 77367
L80231 77339
L80203 77283
L80175 77171
L80175 77030
L80203 76917
L80231 76861
L80259 76833
L80315 76805
" />
<path d="M80765 77339
L80793 77367
L80765 77395
L80737 77367
L80765 77339
L80765 77395
" />
<path d="M80990 76805
L81384 76805
L81131 77395
" />
</g>
<g style="fill:#000000; fill-opacity:0.0; 
stroke:#000000; stroke-width:39.3701; stroke-opacity:1; 
stroke-linecap:round; stroke-linejoin:round;">
</g>
<g style="fill:#000000; fill-opacity:0.0; 
stroke:#000000; stroke-width:59.0551; stroke-opacity:1; 
stroke-linecap:round; stroke-linejoin:round;">
<path d="M69685 75396
L112205 75396
" />
</g>
<g style="fill:#000000; fill-opacity:0.0; 
stroke:#000000; stroke-width:39.3701; stroke-opacity:1; 
stroke-linecap:round; stroke-linejoin:round;">
</g>
<g style="fill:#000000; fill-opacity:0.0; 
stroke:#000000; stroke-width:118.11; stroke-opacity:1; 
stroke-linecap:round; stroke-linejoin:round;">
<path d="M104022 76293
L103825 76012
" />
<path d="M103684 76293
L103684 75703
L103909 75703
L103965 75731
L103994 75759
L104022 75815
L104022 75899
L103994 75956
L103965 75984
L103909 76012
L103684 76012
" />
<path d="M104500 76265
L104444 76293
L104331 76293
L104275 76265
L104247 76209
L104247 75984
L104275 75928
L104331 75899
L104444 75899
L104500 75928
L104528 75984
L104528 76040
L104247 76096
" />
<path d="M104725 75899
L104865 76293
L105006 75899
" />
<path d="M105231 76237
L105259 76265
L105231 76293
L105203 76265
L105231 76237
L105231 76293
" />
<path d="M105231 75928
L105259 75956
L105231 75984
L105203 75956
L105231 75928
L105231 75984
" />
</g>
<g style="fill:#000000; fill-opacity:0.0; 
stroke:#000000; stroke-width:39.3701; stroke-opacity:1; 
stroke-linecap:round; stroke-linejoin:round;">
</g>
<g style="fill:#000000; fill-opacity:0.0; 
stroke:#000000; stroke-width:59.0551; stroke-opacity:1; 
stroke-linecap:round; stroke-linejoin:round;">
<path d="M70192 76265
L70276 76293
L70417 76293
L70473 76265
L70501 76237
L70529 76181
L70529 76124
L70501 76068
L70473 76040
L70417 76012
L70304 75984
L70248 75956
L70220 75928
L70192 75871
L70192 75815
L70220 75759
L70248 75731
L70304 75703
L70445 75703
L70529 75731
" />
<path d="M70782 76293
L70782 75899
" />
<path d="M70782 75703
L70754 75731
L70782 75759
L70810 75731
L70782 75703
L70782 75759
" />
<path d="M71007 75899
L71316 75899
L71007 76293
L71316 76293
" />
<path d="M71766 76265
L71710 76293
L71598 76293
L71541 76265
L71513 76209
L71513 75984
L71541 75928
L71598 75899
L71710 75899
L71766 75928
L71795 75984
L71795 76040
L71513 76096
" />
<path d="M72048 76237
L72076 76265
L72048 76293
L72019 76265
L72048 76237
L72048 76293
" />
<path d="M72048 75928
L72076 75956
L72048 75984
L72019 75956
L72048 75928
L72048 75984
" />
<path d="M72751 76124
L73032 76124
" />
<path d="M72694 76293
L72891 75703
L73088 76293
" />
<path d="M73538 75899
L73538 76293
" />
<path d="M73397 75674
L73257 76096
L73622 76096
" />
</g>
<g style="fill:#000000; fill-opacity:0.0; 
stroke:#000000; stroke-width:39.3701; stroke-opacity:1; 
stroke-linecap:round; stroke-linejoin:round;">
</g>
<g style="fill:#000000; fill-opacity:0.0; 
stroke:#000000; stroke-width:59.0551; stroke-opacity:1; 
stroke-linecap:round; stroke-linejoin:round;">
<path d="M103684 77395
L103684 76805
" />
<path d="M104219 77395
L104219 76805
" />
<path d="M104219 77367
L104162 77395
L104050 77395
L103994 77367
L103965 77339
L103937 77283
L103937 77114
L103965 77058
L103994 77030
L104050 77002
L104162 77002
L104219 77030
" />
<path d="M104500 77339
L104528 77367
L104500 77395
L104472 77367
L104500 77339
L104500 77395
" />
<path d="M104500 77030
L104528 77058
L104500 77086
L104472 77058
L104500 77030
L104500 77086
" />
<path d="M105540 77395
L105203 77395
" />
<path d="M105372 77395
L105372 76805
L105315 76889
L105259 76946
L105203 76974
" />
<path d="M106215 76777
L105709 77536
" />
<path d="M106721 77395
L106384 77395
" />
<path d="M106553 77395
L106553 76805
L106496 76889
L106440 76946
L106384 76974
" />
</g>
<g style="fill:#000000; fill-opacity:0.0; 
stroke:#000000; stroke-width:39.3701; stroke-opacity:1; 
stroke-linecap:round; stroke-linejoin:round;">
</g>
<g style="fill:#000000; fill-opacity:0.0; 
stroke:#000000; stroke-width:59.0551; stroke-opacity:1; 
stroke-linecap:round; stroke-linejoin:round;">
<path d="M69685 73821
L112205 73821
" />
</g>
<g style="fill:#000000; fill-opacity:0.0; 
stroke:#000000; stroke-width:39.3701; stroke-opacity:1; 
stroke-linecap:round; stroke-linejoin:round;">
</g>
<g style="fill:#000000; fill-opacity:0.0; 
stroke:#000000; stroke-width:157.48; stroke-opacity:1; 
stroke-linecap:round; stroke-linejoin:round;">
<path d="M70257 74099
L70707 74099
" />
<path d="M70384 74886
L70482 74099
" />
<path d="M70871 74886
L70937 74361
" />
<path d="M70970 74099
L70927 74136
L70960 74174
L71002 74136
L70970 74099
L70960 74174
" />
<path d="M71199 74361
L71499 74361
" />
<path d="M71345 74099
L71260 74774
L71288 74849
L71359 74886
L71434 74886
" />
<path d="M71809 74886
L71738 74849
L71710 74774
L71795 74099
" />
<path d="M72413 74849
L72334 74886
L72184 74886
L72113 74849
L72085 74774
L72123 74474
L72169 74399
L72249 74361
L72399 74361
L72469 74399
L72498 74474
L72488 74549
L72104 74624
" />
<path d="M72793 74811
L72826 74849
L72783 74886
L72751 74849
L72793 74811
L72783 74886
" />
<path d="M72844 74399
L72877 74436
L72835 74474
L72802 74436
L72844 74399
L72835 74474
" />
</g>
<g style="fill:#000000; fill-opacity:0.0; 
stroke:#000000; stroke-width:39.3701; stroke-opacity:1; 
stroke-linecap:round; stroke-linejoin:round;">
</g>
<g style="fill:#000000; fill-opacity:0.0; 
stroke:#000000; stroke-width:59.0551; stroke-opacity:1; 
stroke-linecap:round; stroke-linejoin:round;">
<path d="M70417 73070
L70220 73070
" />
<path d="M70220 73380
L70220 72789
L70501 72789
" />
<path d="M70726 73380
L70726 72986
" />
<path d="M70726 72789
L70698 72817
L70726 72845
L70754 72817
L70726 72789
L70726 72845
" />
<path d="M71091 73380
L71035 73352
L71007 73295
L71007 72789
" />
<path d="M71541 73352
L71485 73380
L71373 73380
L71316 73352
L71288 73295
L71288 73070
L71316 73014
L71373 72986
L71485 72986
L71541 73014
L71570 73070
L71570 73127
L71288 73183
" />
<path d="M71823 73323
L71851 73352
L71823 73380
L71795 73352
L71823 73323
L71823 73380
" />
<path d="M71823 73014
L71851 73042
L71823 73070
L71795 73042
L71823 73014
L71823 73070
" />
<path d="M72469 72789
L72807 72789
" />
<path d="M72638 73380
L72638 72789
" />
<path d="M73088 73380
L73032 73352
L73004 73323
L72976 73267
L72976 73099
L73004 73042
L73032 73014
L73088 72986
L73172 72986
L73229 73014
L73257 73042
L73285 73099
L73285 73267
L73257 73323
L73229 73352
L73172 73380
L73088 73380
" />
<path d="M73538 72986
L73538 73577
" />
<path d="M73538 73014
L73594 72986
L73707 72986
L73763 73014
L73791 73042
L73819 73099
L73819 73267
L73791 73323
L73763 73352
L73707 73380
L73594 73380
L73538 73352
" />
<path d="M74522 73380
L74522 72789
L74747 72789
L74804 72817
L74832 72845
L74860 72902
L74860 72986
L74832 73042
L74804 73070
L74747 73099
L74522 73099
" />
<path d="M75197 73380
L75141 73352
L75113 73295
L75113 72789
" />
<path d="M75675 73380
L75675 73070
L75647 73014
L75591 72986
L75478 72986
L75422 73014
" />
<path d="M75675 73352
L75619 73380
L75478 73380
L75422 73352
L75394 73295
L75394 73239
L75422 73183
L75478 73155
L75619 73155
L75675 73127
" />
<path d="M75872 72986
L76097 72986
" />
<path d="M75956 72789
L75956 73295
L75985 73352
L76041 73380
L76097 73380
" />
<path d="M76519 73352
L76463 73380
L76350 73380
L76294 73352
L76266 73295
L76266 73070
L76294 73014
L76350 72986
L76463 72986
L76519 73014
L76547 73070
L76547 73127
L76266 73183
" />
<path d="M76800 73323
L76828 73352
L76800 73380
L76772 73352
L76800 73323
L76800 73380
" />
<path d="M77081 73380
L77081 72789
" />
<path d="M77138 73155
L77306 73380
" />
<path d="M77306 72986
L77081 73211
" />
<path d="M77559 73380
L77559 72986
" />
<path d="M77559 72789
L77531 72817
L77559 72845
L77588 72817
L77559 72789
L77559 72845
" />
<path d="M78094 73352
L78037 73380
L77925 73380
L77869 73352
L77841 73323
L77813 73267
L77813 73099
L77841 73042
L77869 73014
L77925 72986
L78037 72986
L78094 73014
" />
<path d="M78600 73380
L78600 73070
L78572 73014
L78516 72986
L78403 72986
L78347 73014
" />
<path d="M78600 73352
L78544 73380
L78403 73380
L78347 73352
L78319 73295
L78319 73239
L78347 73183
L78403 73155
L78544 73155
L78600 73127
" />
<path d="M79134 73380
L79134 72789
" />
<path d="M79134 73352
L79078 73380
L78965 73380
L78909 73352
L78881 73323
L78853 73267
L78853 73099
L78881 73042
L78909 73014
L78965 72986
L79078 72986
L79134 73014
" />
<path d="M79275 73436
L79725 73436
" />
<path d="M79865 72986
L79865 73577
" />
<path d="M79865 73014
L79922 72986
L80034 72986
L80090 73014
L80118 73042
L80147 73099
L80147 73267
L80118 73323
L80090 73352
L80034 73380
L79922 73380
L79865 73352
" />
<path d="M80653 73352
L80597 73380
L80484 73380
L80428 73352
L80400 73323
L80372 73267
L80372 73099
L80400 73042
L80428 73014
L80484 72986
L80597 72986
L80653 73014
" />
<path d="M80906 73380
L80906 72789
" />
<path d="M80906 73014
L80962 72986
L81075 72986
L81131 73014
L81159 73042
L81187 73099
L81187 73267
L81159 73323
L81131 73352
L81075 73380
L80962 73380
L80906 73352
" />
</g>
<g style="fill:#000000; fill-opacity:0.0; 
stroke:#000000; stroke-width:39.3701; stroke-opacity:1; 
stroke-linecap:round; stroke-linejoin:round;">
</g>
<g style="fill:#000000; fill-opacity:0.0; 
stroke:#000000; stroke-width:59.0551; stroke-opacity:1; 
stroke-linecap:round; stroke-linejoin:round;">
<path d="M69685 71459
L112205 71459
" />
</g>
<g style="fill:#000000; fill-opacity:0.0; 
stroke:#000000; stroke-width:39.3701; stroke-opacity:1; 
stroke-linecap:round; stroke-linejoin:round;">
</g>
<g style="fill:#000000; fill-opacity:0.0; 
stroke:#000000; stroke-width:59.0551; stroke-opacity:1; 
stroke-linecap:round; stroke-linejoin:round;">
<path d="M70192 72289
L70276 72317
L70417 72317
L70473 72289
L70501 72260
L70529 72204
L70529 72148
L70501 72092
L70473 72064
L70417 72036
L70304 72007
L70248 71979
L70220 71951
L70192 71895
L70192 71839
L70220 71782
L70248 71754
L70304 71726
L70445 71726
L70529 71754
" />
<path d="M70782 72317
L70782 71726
" />
<path d="M71035 72317
L71035 72007
L71007 71951
L70951 71923
L70867 71923
L70810 71951
L70782 71979
" />
<path d="M71541 72289
L71485 72317
L71373 72317
L71316 72289
L71288 72232
L71288 72007
L71316 71951
L71373 71923
L71485 71923
L71541 71951
L71570 72007
L71570 72064
L71288 72120
" />
<path d="M72048 72289
L71991 72317
L71879 72317
L71823 72289
L71795 72232
L71795 72007
L71823 71951
L71879 71923
L71991 71923
L72048 71951
L72076 72007
L72076 72064
L71795 72120
" />
<path d="M72244 71923
L72469 71923
" />
<path d="M72329 71726
L72329 72232
L72357 72289
L72413 72317
L72469 72317
" />
<path d="M72666 72260
L72694 72289
L72666 72317
L72638 72289
L72666 72260
L72666 72317
" />
<path d="M72666 71951
L72694 71979
L72666 72007
L72638 71979
L72666 71951
L72666 72007
" />
</g>
<g style="fill:#000000; fill-opacity:0.0; 
stroke:#000000; stroke-width:39.3701; stroke-opacity:1; 
stroke-linecap:round; stroke-linejoin:round;">
</g>
<g style="fill:#000000; fill-opacity:0.0; 
stroke:#000000; stroke-width:59.0551; stroke-opacity:1; 
stroke-linecap:round; stroke-linejoin:round;">
<path d="M77559 75396
L77559 76577
" />
</g>
<g style="fill:#000000; fill-opacity:0.0; 
stroke:#000000; stroke-width:39.3701; stroke-opacity:1; 
stroke-linecap:round; stroke-linejoin:round;">
</g>
<g style="fill:#000000; fill-opacity:0.0; 
stroke:#000000; stroke-width:59.0551; stroke-opacity:1; 
stroke-linecap:round; stroke-linejoin:round;">
<path d="M102756 75396
L102756 77955
" />
</g>
<g style="fill:#C2C200; fill-opacity:0.0; 
stroke:#C2C200; stroke-width:59.0551; stroke-opacity:1; 
stroke-linecap:round; stroke-linejoin:round;">
</g>
<g style="fill:#C2C200; fill-opacity:0.0; 
stroke:#C2C200; stroke-width:39.3701; stroke-opacity:1; 
stroke-linecap:round; stroke-linejoin:round;">
<path d="M72458 48541
L76496 41550
" />
<path d="M76215 41391
L76496 41550
" />
<path d="M77143 40428
L76864 40266
" />
<path d="M72458 48541
L72180 48380
" />
<path d="M76864 40266
L76215 41391
" />
<path d="M72180 48380
L71530 49505
" />
<path d="M71530 49505
L71807 49672
" />
<path d="M71807 49671
L71215 50694
" />
<path d="M78083 39271
L77926 39544
" />
<path d="M82447 41791
L78083 39271
" />
<path d="M82494 42181
L82290 42063
" />
<path d="M82290 42063
L82447 41791
" />
<path d="M71262 51085
L75626 53604
" />
<path d="M71215 50694
L71420 50813
" />
<path d="M77721 39426
L77143 40428
" />
<path d="M77926 39544
L77721 39426
" />
<path d="M75988 53450
L82495 42182
" />
<path d="M75784 53333
L75988 53450
" />
<path d="M75626 53604
L75784 53333
" />
<path d="M71420 50813
L71262 51085
" />
<path d="M63613 43434
L63572 43667
" />
<path d="M63262 43612
L62387 48575
" />
<path d="M68125 49587
L68435 49642
" />
<path d="M62697 48630
L62656 48863
" />
<path d="M63572 43667
L63262 43612
" />
<path d="M69000 44624
L69042 44392
" />
<path d="M68435 49642
L69311 44679
" />
<path d="M69311 44679
L69000 44624
" />
<path d="M62387 48575
L62697 48630
" />
<path d="M68084 49820
L68125 49587
" />
<path d="M62656 48863
L68084 49820
" />
<path d="M69042 44392
L63613 43434
" />
<path d="M65952 25784
L66267 25784
" />
<path d="M65952 20744
L65952 20508
" />
<path d="M66267 25784
L66267 20744
" />
<path d="M66267 20744
L65952 20744
" />
<path d="M60126 20744
L60126 25784
" />
<path d="M60441 20744
L60126 20744
" />
<path d="M65952 20508
L60441 20508
" />
<path d="M60441 20508
L60441 20744
" />
<path d="M65952 26020
L65952 25784
" />
<path d="M65998 28312
L65998 28076
" />
<path d="M60487 28076
L60487 28312
" />
<path d="M60487 28312
L60172 28312
" />
<path d="M65998 28076
L60487 28076
" />
<path d="M60441 26020
L65952 26020
" />
<path d="M60126 25784
L60441 25784
" />
<path d="M60441 25784
L60441 26020
" />
<path d="M60172 28312
L60172 33352
" />
<path d="M66313 33352
L66313 28312
" />
<path d="M65998 33352
L66313 33352
" />
<path d="M66313 28312
L65998 28312
" />
<path d="M60487 33588
L65998 33588
" />
<path d="M65998 33588
L65998 33352
" />
<path d="M60172 33352
L60487 33352
" />
<path d="M60487 33352
L60487 33588
" />
<path d="M60484 35526
L60484 35762
" />
<path d="M60484 35762
L60169 35762
" />
<path d="M60484 41038
L65995 41038
" />
<path d="M65995 41038
L65995 40802
" />
<path d="M66310 40802
L66310 35762
" />
<path d="M65995 40802
L66310 40802
" />
<path d="M65995 35762
L65995 35526
" />
<path d="M65995 35526
L60484 35526
" />
<path d="M66310 35762
L65995 35762
" />
<path d="M60169 35762
L60169 40802
" />
<path d="M60484 40802
L60484 41038
" />
<path d="M60169 40802
L60484 40802
" />
<path d="M80958 28564
L81273 28564
" />
<path d="M81273 23524
L80958 23524
" />
<path d="M80958 23524
L80958 23288
" />
<path d="M81273 28564
L81273 23524
" />
<path d="M75493 30856
L75493 31092
" />
<path d="M80958 28800
L80958 28564
" />
<path d="M75447 28564
L75447 28800
" />
<path d="M81004 31092
L81004 30856
" />
<path d="M75447 28800
L80958 28800
" />
<path d="M81004 30856
L75493 30856
" />
<path d="M80958 23288
L75447 23288
" />
<path d="M75447 23524
L75132 23524
" />
<path d="M75447 23288
L75447 23524
" />
<path d="M75132 23524
L75132 28564
" />
<path d="M75132 28564
L75447 28564
" />
<path d="M81004 36368
L81004 36132
" />
<path d="M81319 31092
L81004 31092
" />
<path d="M75493 31092
L75178 31092
" />
<path d="M81004 36132
L81319 36132
" />
<path d="M75493 36368
L81004 36368
" />
<path d="M75178 31092
L75178 36132
" />
<path d="M81319 36132
L81319 31092
" />
<path d="M75493 36132
L75493 36368
" />
<path d="M75178 36132
L75493 36132
" />
<path d="M73517 36696
L73517 36460
" />
<path d="M68006 41972
L73517 41972
" />
<path d="M68006 41736
L68006 41972
" />
<path d="M68006 36460
L68006 36696
" />
<path d="M73517 36460
L68006 36460
" />
<path d="M73832 41736
L73832 36696
" />
<path d="M73517 41736
L73832 41736
" />
<path d="M73832 36696
L73517 36696
" />
<path d="M73517 41972
L73517 41736
" />
<path d="M68009 34522
L73520 34522
" />
<path d="M73520 34522
L73520 34286
" />
<path d="M67694 34286
L68009 34286
" />
<path d="M68009 34286
L68009 34522
" />
<path d="M68006 36696
L67691 36696
" />
<path d="M73520 34286
L73835 34286
" />
<path d="M73835 34286
L73835 29246
" />
<path d="M67694 29246
L67694 34286
" />
<path d="M73835 29246
L73520 29246
" />
<path d="M73474 26954
L73474 26718
" />
<path d="M68009 29246
L67694 29246
" />
<path d="M68009 29010
L68009 29246
" />
<path d="M73520 29010
L68009 29010
" />
<path d="M73520 29246
L73520 29010
" />
<path d="M67648 26718
L67963 26718
" />
<path d="M67963 26718
L67963 26954
" />
<path d="M67963 26954
L73474 26954
" />
<path d="M67691 41736
L68006 41736
" />
<path d="M67691 36696
L67691 41736
" />
<path d="M73474 21678
L73474 21442
" />
<path d="M73474 21442
L67963 21442
" />
<path d="M67963 21442
L67963 21678
" />
<path d="M67963 21678
L67648 21678
" />
<path d="M73474 26718
L73789 26718
" />
<path d="M67648 21678
L67648 26718
" />
<path d="M73789 21678
L73474 21678
" />
<path d="M73789 26718
L73789 21678
" />
<path d="M51039 33361
L51354 33361
" />
<path d="M51039 33597
L51039 33361
" />
<path d="M51354 33361
L51354 28321
" />
<path d="M45528 33597
L51039 33597
" />
<path d="M51039 28085
L45528 28085
" />
<path d="M45528 33361
L45528 33597
" />
<path d="M45528 28085
L45528 28321
" />
<path d="M45213 28321
L45213 33361
" />
<path d="M45213 33361
L45528 33361
" />
<path d="M45528 28321
L45213 28321
" />
<path d="M38009 34539
L43520 34539
" />
<path d="M43520 29027
L38009 29027
" />
<path d="M43520 34539
L43520 34303
" />
<path d="M38009 29027
L38009 29263
" />
<path d="M37694 29263
L37694 34303
" />
<path d="M38009 29263
L37694 29263
" />
<path d="M38009 34303
L38009 34539
" />
<path d="M37694 34303
L38009 34303
" />
<path d="M43835 29263
L43520 29263
" />
<path d="M43835 34303
L43835 29263
" />
<path d="M43520 29263
L43520 29027
" />
<path d="M43520 34303
L43835 34303
" />
<path d="M36024 35212
L36339 35212
" />
<path d="M36024 35448
L36024 35212
" />
<path d="M36339 30172
L36024 30172
" />
<path d="M36339 35212
L36339 30172
" />
<path d="M36024 30172
L36024 29936
" />
<path d="M36024 29936
L30512 29936
" />
<path d="M30512 35448
L36024 35448
" />
<path d="M30512 30172
L30198 30172
" />
<path d="M30512 29936
L30512 30172
" />
<path d="M30198 35212
L30512 35212
" />
<path d="M30512 35212
L30512 35448
" />
<path d="M30198 30172
L30198 35212
" />
<path d="M51039 28321
L51039 28085
" />
<path d="M53010 27385
L52695 27385
" />
<path d="M51354 28321
L51039 28321
" />
<path d="M52695 27385
L52695 32425
" />
<path d="M53010 32425
L53010 32661
" />
<path d="M52695 32425
L53010 32425
" />
<path d="M58836 32425
L58836 27385
" />
<path d="M58836 27385
L58521 27385
" />
<path d="M58521 32661
L58521 32425
" />
<path d="M58521 32425
L58836 32425
" />
<path d="M53010 27149
L53010 27385
" />
<path d="M58521 27149
L53010 27149
" />
<path d="M53010 32661
L58521 32661
" />
<path d="M58521 27385
L58521 27149
" />
<path d="M37691 41753
L38006 41753
" />
<path d="M38006 41989
L43517 41989
" />
<path d="M38006 41753
L38006 41989
" />
<path d="M43517 36477
L38006 36477
" />
<path d="M38006 36477
L38006 36713
" />
<path d="M38006 36713
L37691 36713
" />
<path d="M37691 36713
L37691 41753
" />
<path d="M45525 40811
L45525 41047
" />
<path d="M45210 35771
L45210 40811
" />
<path d="M45525 35771
L45210 35771
" />
<path d="M45210 40811
L45525 40811
" />
<path d="M51351 40811
L51351 35771
" />
<path d="M51036 41047
L51036 40811
" />
<path d="M51036 40811
L51351 40811
" />
<path d="M51351 35771
L51036 35771
" />
<path d="M51036 35771
L51036 35535
" />
<path d="M45525 35535
L45525 35771
" />
<path d="M51036 35535
L45525 35535
" />
<path d="M45525 41047
L51036 41047
" />
<path d="M43517 36713
L43517 36477
" />
<path d="M43517 41989
L43517 41753
" />
<path d="M43832 36713
L43517 36713
" />
<path d="M43517 41753
L43832 41753
" />
<path d="M43832 41753
L43832 36713
" />
<path d="M36021 42898
L36021 42662
" />
<path d="M36021 42662
L36336 42662
" />
<path d="M30509 42898
L36021 42898
" />
<path d="M36021 37386
L30509 37386
" />
<path d="M36336 37622
L36021 37622
" />
<path d="M36021 37622
L36021 37386
" />
<path d="M36336 42662
L36336 37622
" />
<path d="M30509 37386
L30509 37622
" />
<path d="M30509 37622
L30195 37622
" />
<path d="M30195 37622
L30195 42662
" />
<path d="M30509 42662
L30509 42898
" />
<path d="M30195 42662
L30509 42662
" />
<path d="M58518 39875
L58833 39875
" />
<path d="M58518 40111
L58518 39875
" />
<path d="M58833 39875
L58833 34835
" />
<path d="M58833 34835
L58518 34835
" />
<path d="M53007 34599
L53007 34835
" />
<path d="M58518 34835
L58518 34599
" />
<path d="M58518 34599
L53007 34599
" />
<path d="M52692 39875
L53007 39875
" />
<path d="M52692 34835
L52692 39875
" />
<path d="M53007 40111
L58518 40111
" />
<path d="M53007 34835
L52692 34835
" />
<path d="M53007 39875
L53007 40111
" />
<path d="M45482 20753
L45167 20753
" />
<path d="M45482 20517
L45482 20753
" />
<path d="M45167 25793
L45482 25793
" />
<path d="M45167 20753
L45167 25793
" />
<path d="M50993 20517
L45482 20517
" />
<path d="M45482 25793
L45482 26029
" />
<path d="M52964 19581
L52964 19817
" />
<path d="M52964 25093
L58475 25093
" />
<path d="M52964 24857
L52964 25093
" />
<path d="M58475 19581
L52964 19581
" />
<path d="M50993 26029
L50993 25793
" />
<path d="M45482 26029
L50993 26029
" />
<path d="M51308 25793
L51308 20753
" />
<path d="M50993 25793
L51308 25793
" />
<path d="M51308 20753
L50993 20753
" />
<path d="M52649 24857
L52964 24857
" />
<path d="M52649 19817
L52649 24857
" />
<path d="M52964 19817
L52649 19817
" />
<path d="M50993 20753
L50993 20517
" />
<path d="M58790 19817
L58475 19817
" />
<path d="M58790 24857
L58790 19817
" />
<path d="M58475 25093
L58475 24857
" />
<path d="M58475 19817
L58475 19581
" />
<path d="M58475 24857
L58790 24857
" />
<path d="M37648 21695
L37648 26735
" />
<path d="M37648 26735
L37963 26735
" />
<path d="M37963 21459
L37963 21695
" />
<path d="M37963 26735
L37963 26971
" />
<path d="M37963 21695
L37648 21695
" />
<path d="M30466 22604
L30152 22604
" />
<path d="M30466 27644
L30466 27880
" />
<path d="M30152 22604
L30152 27644
" />
<path d="M30152 27644
L30466 27644
" />
<path d="M30466 22368
L30466 22604
" />
<path d="M35978 27644
L36293 27644
" />
<path d="M35978 22368
L30466 22368
" />
<path d="M35978 22604
L35978 22368
" />
<path d="M30466 27880
L35978 27880
" />
<path d="M36293 27644
L36293 22604
" />
<path d="M36293 22604
L35978 22604
" />
<path d="M35978 27880
L35978 27644
" />
<path d="M43789 21695
L43474 21695
" />
<path d="M43474 21695
L43474 21459
" />
<path d="M43474 26735
L43789 26735
" />
<path d="M43474 21459
L37963 21459
" />
<path d="M43474 26971
L43474 26735
" />
<path d="M43789 26735
L43789 21695
" />
<path d="M37963 26971
L43474 26971
" />
<path d="M58807 42365
L58492 42365
" />
<path d="M58807 47405
L58807 42365
" />
<path d="M58492 42365
L58492 42129
" />
<path d="M58492 47405
L58807 47405
" />
<path d="M58492 42129
L52981 42129
" />
<path d="M52981 47641
L58492 47641
" />
<path d="M58492 47641
L58492 47405
" />
<path d="M52981 47405
L52981 47641
" />
<path d="M52666 47405
L52981 47405
" />
<path d="M52981 42365
L52666 42365
" />
<path d="M52666 42365
L52666 47405
" />
<path d="M52981 42129
L52981 42365
" />
<path d="M37980 49519
L43491 49519
" />
<path d="M43491 44243
L43491 44007
" />
<path d="M43491 49519
L43491 49283
" />
<path d="M43491 44007
L37980 44007
" />
<path d="M37980 49283
L37980 49519
" />
<path d="M43806 44243
L43491 44243
" />
<path d="M43491 49283
L43806 49283
" />
<path d="M43806 49283
L43806 44243
" />
<path d="M37980 44007
L37980 44243
" />
<path d="M37980 44243
L37665 44243
" />
<path d="M37665 49283
L37980 49283
" />
<path d="M37665 44243
L37665 49283
" />
<path d="M51325 43301
L51010 43301
" />
<path d="M45184 48341
L45499 48341
" />
<path d="M45184 43301
L45184 48341
" />
<path d="M30483 45152
L30169 45152
" />
<path d="M45499 48341
L45499 48577
" />
<path d="M30483 44916
L30483 45152
" />
<path d="M51325 48341
L51325 43301
" />
<path d="M35995 45152
L35995 44916
" />
<path d="M30169 50192
L30483 50192
" />
<path d="M30483 50428
L35995 50428
" />
<path d="M35995 50192
L36310 50192
" />
<path d="M30169 45152
L30169 50192
" />
<path d="M51010 48341
L51325 48341
" />
<path d="M36310 45152
L35995 45152
" />
<path d="M30483 50192
L30483 50428
" />
<path d="M36310 50192
L36310 45152
" />
<path d="M35995 44916
L30483 44916
" />
<path d="M51010 48577
L51010 48341
" />
<path d="M51010 43301
L51010 43065
" />
<path d="M51010 43065
L45499 43065
" />
<path d="M35995 50428
L35995 50192
" />
<path d="M45499 43301
L45184 43301
" />
<path d="M45499 43065
L45499 43301
" />
<path d="M45499 48577
L51010 48577
" />
<path d="M83779 41964
L83763 42094
" />
<path d="M83736 41791
L83779 41964
" />
<path d="M83633 41633
L83736 41791
" />
<path d="M83500 41480
L83633 41633
" />
<path d="M81972 19283
L81807 18889
" />
<path d="M29641 21059
L29775 20984
" />
<path d="M81976 40518
L81974 40514
" />
<path d="M80747 18279
L52000 18279
" />
<path d="M81977 40518
L81976 40518
" />
<path d="M81970 40500
L81970 37500
" />
<path d="M76152 54745
L76398 54648
" />
<path d="M70255 51470
L70257 51471
" />
<path d="M52000 18279
L45752 18279
" />
<path d="M53000 51470
L61500 51470
" />
<path d="M81972 40510
L81972 40509
" />
<path d="M70260 51472
L70262 51473
" />
<path d="M76398 54648
L76446 54604
" />
<path d="M70250 51470
L70252 51470
" />
<path d="M29965 51184
L30332 51396
" />
<path d="M76446 54604
L83763 42096
" />
<path d="M81970 37500
L81970 19283
" />
<path d="M81972 40509
L81971 40504
" />
<path d="M75888 54752
L76152 54745
" />
<path d="M70252 51470
L70255 51470
" />
<path d="M70257 51471
L70260 51472
" />
<path d="M81974 40514
L81972 40510
" />
<path d="M39000 51470
L53000 51470
" />
<path d="M70262 51473
L70264 51474
" />
<path d="M45752 18279
L29774 20983
" />
<path d="M81984 40525
L81981 40522
" />
<path d="M83500 41480
L81984 40525
" />
<path d="M81167 18353
L80747 18279
" />
<path d="M81971 40504
L81970 40500
" />
<path d="M30752 51470
L39000 51470
" />
<path d="M81534 18565
L81167 18353
" />
<path d="M75878 54748
L75888 54752
" />
<path d="M61500 51470
L70250 51470
" />
<path d="M81806 18890
L81534 18565
" />
<path d="M81977 40518
L81977 40518
" />
<path d="M30332 51396
L30752 51470
" />
<path d="M81972 40509
L81972 40509
" />
<path d="M81981 40522
L81977 40518
" />
<path d="M70264 51474
L75878 54748
" />
<path d="M29693 50859
L29965 51184
" />
<path d="M29529 50248
L29548 50460
" />
<path d="M29640 21059
L29581 21108
" />
<path d="M29543 21174
L29529 21252
" />
<path d="M29548 50460
L29693 50859
" />
<path d="M29529 21252
L29529 50248
" />
<path d="M29581 21108
L29543 21174
" />
</g> 
</svg>
