  0
SECTION
  2
HEADER
  9
$ACADVER
  1
AC1009
  9
$EXTMIN
 10
0.0
 20
0.0
 30
0.0
  9
$EXTMAX
 10
1000.0
 20
1000.0
 30
0.0
  9
$FILLMODE
 70
 0
  9
$SPLFRAME
 70
 1
  0
ENDSEC
  0
SECTION
  2
TABLES
  0
TABLE
  2
LAYER
 70
1
  0
LAYER
  2
0
 70
     0
 62
     7
  6
CONTINUOUS
  0
ENDTAB
  0
ENDSEC
  0
SECTION
  2
ENTITIES
  0
LINE
  8
0
 62
     0
 10
0.0937066
 20
112
 30
0.0
 11
158.122
 21
112
 31
0.0
  0
LINE
  8
0
 62
     0
 10
158.122
 20
112
 30
0.0
 11
158.122
 21
0.0868165
 31
0.0
  0
LINE
  8
0
 62
     0
 10
158.122
 20
0.0868165
 30
0.0
 11
0.0937066
 21
0.0868165
 31
0.0
  0
LINE
  8
0
 62
     0
 10
0.0937066
 20
0.0868165
 30
0.0
 11
0.0937066
 21
112
 31
0.0
  0
LINE
  8
0
 62
     0
 10
122.721
 20
32.1427
 30
0.0
 11
122.029
 21
32.5424
 31
0.0
  0
LINE
  8
0
 62
     0
 10
122.029
 20
32.5424
 30
0.0
 11
115.629
 21
21.4574
 31
0.0
  0
LINE
  8
0
 62
     0
 10
115.629
 20
21.4574
 30
0.0
 11
116.321
 21
21.0578
 31
0.0
  0
LINE
  8
0
 62
     0
 10
116.321
 20
21.0578
 30
0.0
 11
116.021
 21
20.5383
 31
0.0
  0
LINE
  8
0
 62
     0
 10
116.021
 20
20.5383
 30
0.0
 11
128.145
 21
13.5378
 31
0.0
  0
LINE
  8
0
 62
     0
 10
128.145
 20
13.5378
 30
0.0
 11
128.446
 21
14.0574
 31
0.0
  0
LINE
  8
0
 62
     0
 10
128.446
 20
14.0574
 30
0.0
 11
129.139
 21
13.6577
 31
0.0
  0
LINE
  8
0
 62
     0
 10
129.139
 20
13.6577
 30
0.0
 11
135.538
 21
24.7427
 31
0.0
  0
LINE
  8
0
 62
     0
 10
135.538
 20
24.7427
 30
0.0
 11
134.845
 21
25.1437
 31
0.0
  0
LINE
  8
0
 62
     0
 10
134.845
 20
25.1437
 30
0.0
 11
135.146
 21
25.6618
 31
0.0
  0
LINE
  8
0
 62
     0
 10
135.146
 20
25.6618
 30
0.0
 11
123.022
 21
32.6622
 31
0.0
  0
LINE
  8
0
 62
     0
 10
123.022
 20
32.6622
 30
0.0
 11
122.721
 21
32.1427
 31
0.0
  0
LINE
  8
0
 62
     0
 10
12.6187
 20
35.1827
 30
0.0
 11
12.6187
 21
34.5819
 31
0.0
  0
LINE
  8
0
 62
     0
 10
12.6187
 20
34.5819
 30
0.0
 11
11.8181
 21
34.5819
 31
0.0
  0
LINE
  8
0
 62
     0
 10
11.8181
 20
34.5819
 30
0.0
 11
11.8181
 21
21.7827
 31
0.0
  0
LINE
  8
0
 62
     0
 10
11.8181
 20
21.7827
 30
0.0
 11
12.6187
 21
21.7827
 31
0.0
  0
LINE
  8
0
 62
     0
 10
12.6187
 20
21.7827
 30
0.0
 11
12.6187
 21
21.1818
 31
0.0
  0
LINE
  8
0
 62
     0
 10
12.6187
 20
21.1818
 30
0.0
 11
26.6182
 21
21.1818
 31
0.0
  0
LINE
  8
0
 62
     0
 10
26.6182
 20
21.1818
 30
0.0
 11
26.6182
 21
21.7827
 31
0.0
  0
LINE
  8
0
 62
     0
 10
26.6182
 20
21.7827
 30
0.0
 11
27.4161
 21
21.7827
 31
0.0
  0
LINE
  8
0
 62
     0
 10
27.4161
 20
21.7827
 30
0.0
 11
27.4161
 21
34.5819
 31
0.0
  0
LINE
  8
0
 62
     0
 10
27.4161
 20
34.5819
 30
0.0
 11
26.6182
 21
34.5819
 31
0.0
  0
LINE
  8
0
 62
     0
 10
26.6182
 20
34.5819
 30
0.0
 11
26.6182
 21
35.1827
 31
0.0
  0
LINE
  8
0
 62
     0
 10
26.6182
 20
35.1827
 30
0.0
 11
12.6187
 21
35.1827
 31
0.0
  0
LINE
  8
0
 62
     0
 10
96.5853
 20
38.4309
 30
0.0
 11
95.7972
 21
38.5699
 31
0.0
  0
LINE
  8
0
 62
     0
 10
95.7972
 20
38.5699
 30
0.0
 11
93.5743
 21
25.965
 31
0.0
  0
LINE
  8
0
 62
     0
 10
93.5743
 20
25.965
 30
0.0
 11
94.3624
 21
25.8258
 31
0.0
  0
LINE
  8
0
 62
     0
 10
94.3624
 20
25.8258
 30
0.0
 11
94.2591
 21
25.2347
 31
0.0
  0
LINE
  8
0
 62
     0
 10
94.2591
 20
25.2347
 30
0.0
 11
108.045
 21
22.8038
 31
0.0
  0
LINE
  8
0
 62
     0
 10
108.045
 20
22.8038
 30
0.0
 11
108.15
 21
23.395
 31
0.0
  0
LINE
  8
0
 62
     0
 10
108.15
 20
23.395
 30
0.0
 11
108.938
 21
23.2558
 31
0.0
  0
LINE
  8
0
 62
     0
 10
108.938
 20
23.2558
 30
0.0
 11
111.161
 21
35.8606
 31
0.0
  0
LINE
  8
0
 62
     0
 10
111.161
 20
35.8606
 30
0.0
 11
110.373
 21
35.9999
 31
0.0
  0
LINE
  8
0
 62
     0
 10
110.373
 20
35.9999
 30
0.0
 11
110.477
 21
36.5912
 31
0.0
  0
LINE
  8
0
 62
     0
 10
110.477
 20
36.5912
 30
0.0
 11
96.69
 21
39.0218
 31
0.0
  0
LINE
  8
0
 62
     0
 10
96.69
 20
39.0218
 30
0.0
 11
96.5853
 21
38.4309
 31
0.0
  0
LINE
  8
0
 62
     0
 10
31.6673
 20
37.5627
 30
0.0
 11
31.6673
 21
36.963
 31
0.0
  0
LINE
  8
0
 62
     0
 10
31.6673
 20
36.963
 30
0.0
 11
30.8694
 21
36.963
 31
0.0
  0
LINE
  8
0
 62
     0
 10
30.8694
 20
36.963
 30
0.0
 11
30.8694
 21
24.1625
 31
0.0
  0
LINE
  8
0
 62
     0
 10
30.8694
 20
24.1625
 30
0.0
 11
31.6673
 21
24.1625
 31
0.0
  0
LINE
  8
0
 62
     0
 10
31.6673
 20
24.1625
 30
0.0
 11
31.6673
 21
23.5631
 31
0.0
  0
LINE
  8
0
 62
     0
 10
31.6673
 20
23.5631
 30
0.0
 11
45.6681
 21
23.5631
 31
0.0
  0
LINE
  8
0
 62
     0
 10
45.6681
 20
23.5631
 30
0.0
 11
45.6681
 21
24.1625
 31
0.0
  0
LINE
  8
0
 62
     0
 10
45.6681
 20
24.1625
 30
0.0
 11
46.4675
 21
24.1625
 31
0.0
  0
LINE
  8
0
 62
     0
 10
46.4675
 20
24.1625
 30
0.0
 11
46.4675
 21
36.963
 31
0.0
  0
LINE
  8
0
 62
     0
 10
46.4675
 20
36.963
 30
0.0
 11
45.6681
 21
36.963
 31
0.0
  0
LINE
  8
0
 62
     0
 10
45.6681
 20
36.963
 30
0.0
 11
45.6681
 21
37.5627
 31
0.0
  0
LINE
  8
0
 62
     0
 10
45.6681
 20
37.5627
 30
0.0
 11
31.6673
 21
37.5627
 31
0.0
  0
LINE
  8
0
 62
     0
 10
50.7189
 20
39.8487
 30
0.0
 11
50.7189
 21
39.2494
 31
0.0
  0
LINE
  8
0
 62
     0
 10
50.7189
 20
39.2494
 30
0.0
 11
49.9195
 21
39.2494
 31
0.0
  0
LINE
  8
0
 62
     0
 10
49.9195
 20
39.2494
 30
0.0
 11
49.9195
 21
26.4487
 31
0.0
  0
LINE
  8
0
 62
     0
 10
49.9195
 20
26.4487
 30
0.0
 11
50.7189
 21
26.4487
 31
0.0
  0
LINE
  8
0
 62
     0
 10
50.7189
 20
26.4487
 30
0.0
 11
50.7189
 21
25.8492
 31
0.0
  0
LINE
  8
0
 62
     0
 10
50.7189
 20
25.8492
 30
0.0
 11
64.7181
 21
25.8492
 31
0.0
  0
LINE
  8
0
 62
     0
 10
64.7181
 20
25.8492
 30
0.0
 11
64.7181
 21
26.4487
 31
0.0
  0
LINE
  8
0
 62
     0
 10
64.7181
 20
26.4487
 30
0.0
 11
65.519
 21
26.4487
 31
0.0
  0
LINE
  8
0
 62
     0
 10
65.519
 20
26.4487
 30
0.0
 11
65.519
 21
39.2494
 31
0.0
  0
LINE
  8
0
 62
     0
 10
65.519
 20
39.2494
 30
0.0
 11
64.7181
 21
39.2494
 31
0.0
  0
LINE
  8
0
 62
     0
 10
64.7181
 20
39.2494
 30
0.0
 11
64.7181
 21
39.8487
 31
0.0
  0
LINE
  8
0
 62
     0
 10
64.7181
 20
39.8487
 30
0.0
 11
50.7189
 21
39.8487
 31
0.0
  0
LINE
  8
0
 62
     0
 10
69.7689
 20
42.3252
 30
0.0
 11
69.7689
 21
41.7255
 31
0.0
  0
LINE
  8
0
 62
     0
 10
69.7689
 20
41.7255
 30
0.0
 11
68.9695
 21
41.7255
 31
0.0
  0
LINE
  8
0
 62
     0
 10
68.9695
 20
41.7255
 30
0.0
 11
68.9695
 21
28.925
 31
0.0
  0
LINE
  8
0
 62
     0
 10
68.9695
 20
28.925
 30
0.0
 11
69.7689
 21
28.925
 31
0.0
  0
LINE
  8
0
 62
     0
 10
69.7689
 20
28.925
 30
0.0
 11
69.7689
 21
28.3256
 31
0.0
  0
LINE
  8
0
 62
     0
 10
69.7689
 20
28.3256
 30
0.0
 11
83.7681
 21
28.3256
 31
0.0
  0
LINE
  8
0
 62
     0
 10
83.7681
 20
28.3256
 30
0.0
 11
83.7681
 21
28.925
 31
0.0
  0
LINE
  8
0
 62
     0
 10
83.7681
 20
28.925
 30
0.0
 11
84.569
 21
28.925
 31
0.0
  0
LINE
  8
0
 62
     0
 10
84.569
 20
28.925
 30
0.0
 11
84.569
 21
41.7255
 31
0.0
  0
LINE
  8
0
 62
     0
 10
84.569
 20
41.7255
 30
0.0
 11
83.7681
 21
41.7255
 31
0.0
  0
LINE
  8
0
 62
     0
 10
83.7681
 20
41.7255
 30
0.0
 11
83.7681
 21
42.3252
 31
0.0
  0
LINE
  8
0
 62
     0
 10
83.7681
 20
42.3252
 30
0.0
 11
69.7689
 21
42.3252
 31
0.0
  0
LINE
  8
0
 62
     0
 10
132.246
 20
48.6406
 30
0.0
 11
131.554
 21
49.0418
 31
0.0
  0
LINE
  8
0
 62
     0
 10
131.554
 20
49.0418
 30
0.0
 11
125.154
 21
37.9554
 31
0.0
  0
LINE
  8
0
 62
     0
 10
125.154
 20
37.9554
 30
0.0
 11
125.845
 21
37.5557
 31
0.0
  0
LINE
  8
0
 62
     0
 10
125.845
 20
37.5557
 30
0.0
 11
125.546
 21
37.036
 31
0.0
  0
LINE
  8
0
 62
     0
 10
125.546
 20
37.036
 30
0.0
 11
137.67
 21
30.0357
 31
0.0
  0
LINE
  8
0
 62
     0
 10
137.67
 20
30.0357
 30
0.0
 11
137.971
 21
30.5552
 31
0.0
  0
LINE
  8
0
 62
     0
 10
137.971
 20
30.5552
 30
0.0
 11
138.664
 21
30.1556
 31
0.0
  0
LINE
  8
0
 62
     0
 10
138.664
 20
30.1556
 30
0.0
 11
145.063
 21
41.2404
 31
0.0
  0
LINE
  8
0
 62
     0
 10
145.063
 20
41.2404
 30
0.0
 11
144.37
 21
41.6415
 31
0.0
  0
LINE
  8
0
 62
     0
 10
144.37
 20
41.6415
 30
0.0
 11
144.671
 21
42.1598
 31
0.0
  0
LINE
  8
0
 62
     0
 10
144.671
 20
42.1598
 30
0.0
 11
132.547
 21
49.1603
 31
0.0
  0
LINE
  8
0
 62
     0
 10
132.547
 20
49.1603
 30
0.0
 11
132.246
 21
48.6406
 31
0.0
  0
LINE
  8
0
 62
     0
 10
12.6187
 20
54.2325
 30
0.0
 11
12.6187
 21
53.6317
 31
0.0
  0
LINE
  8
0
 62
     0
 10
12.6187
 20
53.6317
 30
0.0
 11
11.8181
 21
53.6317
 31
0.0
  0
LINE
  8
0
 62
     0
 10
11.8181
 20
53.6317
 30
0.0
 11
11.8181
 21
40.8326
 31
0.0
  0
LINE
  8
0
 62
     0
 10
11.8181
 20
40.8326
 30
0.0
 11
12.6187
 21
40.8326
 31
0.0
  0
LINE
  8
0
 62
     0
 10
12.6187
 20
40.8326
 30
0.0
 11
12.6187
 21
40.2318
 31
0.0
  0
LINE
  8
0
 62
     0
 10
12.6187
 20
40.2318
 30
0.0
 11
26.6182
 21
40.2318
 31
0.0
  0
LINE
  8
0
 62
     0
 10
26.6182
 20
40.2318
 30
0.0
 11
26.6182
 21
40.8326
 31
0.0
  0
LINE
  8
0
 62
     0
 10
26.6182
 20
40.8326
 30
0.0
 11
27.4161
 21
40.8326
 31
0.0
  0
LINE
  8
0
 62
     0
 10
27.4161
 20
40.8326
 30
0.0
 11
27.4161
 21
53.6317
 31
0.0
  0
LINE
  8
0
 62
     0
 10
27.4161
 20
53.6317
 30
0.0
 11
26.6182
 21
53.6317
 31
0.0
  0
LINE
  8
0
 62
     0
 10
26.6182
 20
53.6317
 30
0.0
 11
26.6182
 21
54.2325
 31
0.0
  0
LINE
  8
0
 62
     0
 10
26.6182
 20
54.2325
 30
0.0
 11
12.6187
 21
54.2325
 31
0.0
  0
LINE
  8
0
 62
     0
 10
31.6673
 20
56.6127
 30
0.0
 11
31.6673
 21
56.013
 31
0.0
  0
LINE
  8
0
 62
     0
 10
31.6673
 20
56.013
 30
0.0
 11
30.8694
 21
56.013
 31
0.0
  0
LINE
  8
0
 62
     0
 10
30.8694
 20
56.013
 30
0.0
 11
30.8694
 21
43.2125
 31
0.0
  0
LINE
  8
0
 62
     0
 10
30.8694
 20
43.2125
 30
0.0
 11
31.6673
 21
43.2125
 31
0.0
  0
LINE
  8
0
 62
     0
 10
31.6673
 20
43.2125
 30
0.0
 11
31.6673
 21
42.6131
 31
0.0
  0
LINE
  8
0
 62
     0
 10
31.6673
 20
42.6131
 30
0.0
 11
45.6681
 21
42.6131
 31
0.0
  0
LINE
  8
0
 62
     0
 10
45.6681
 20
42.6131
 30
0.0
 11
45.6681
 21
43.2125
 31
0.0
  0
LINE
  8
0
 62
     0
 10
45.6681
 20
43.2125
 30
0.0
 11
46.4675
 21
43.2125
 31
0.0
  0
LINE
  8
0
 62
     0
 10
46.4675
 20
43.2125
 30
0.0
 11
46.4675
 21
56.013
 31
0.0
  0
LINE
  8
0
 62
     0
 10
46.4675
 20
56.013
 30
0.0
 11
45.6681
 21
56.013
 31
0.0
  0
LINE
  8
0
 62
     0
 10
45.6681
 20
56.013
 30
0.0
 11
45.6681
 21
56.6127
 31
0.0
  0
LINE
  8
0
 62
     0
 10
45.6681
 20
56.6127
 30
0.0
 11
31.6673
 21
56.6127
 31
0.0
  0
LINE
  8
0
 62
     0
 10
107.869
 20
56.6127
 30
0.0
 11
107.869
 21
56.013
 31
0.0
  0
LINE
  8
0
 62
     0
 10
107.869
 20
56.013
 30
0.0
 11
107.069
 21
56.013
 31
0.0
  0
LINE
  8
0
 62
     0
 10
107.069
 20
56.013
 30
0.0
 11
107.069
 21
43.2125
 31
0.0
  0
LINE
  8
0
 62
     0
 10
107.069
 20
43.2125
 30
0.0
 11
107.869
 21
43.2125
 31
0.0
  0
LINE
  8
0
 62
     0
 10
107.869
 20
43.2125
 30
0.0
 11
107.869
 21
42.6131
 31
0.0
  0
LINE
  8
0
 62
     0
 10
107.869
 20
42.6131
 30
0.0
 11
121.868
 21
42.6131
 31
0.0
  0
LINE
  8
0
 62
     0
 10
121.868
 20
42.6131
 30
0.0
 11
121.868
 21
43.2125
 31
0.0
  0
LINE
  8
0
 62
     0
 10
121.868
 20
43.2125
 30
0.0
 11
122.669
 21
43.2125
 31
0.0
  0
LINE
  8
0
 62
     0
 10
122.669
 20
43.2125
 30
0.0
 11
122.669
 21
56.013
 31
0.0
  0
LINE
  8
0
 62
     0
 10
122.669
 20
56.013
 30
0.0
 11
121.868
 21
56.013
 31
0.0
  0
LINE
  8
0
 62
     0
 10
121.868
 20
56.013
 30
0.0
 11
121.868
 21
56.6127
 31
0.0
  0
LINE
  8
0
 62
     0
 10
121.868
 20
56.6127
 30
0.0
 11
107.869
 21
56.6127
 31
0.0
  0
LINE
  8
0
 62
     0
 10
50.7189
 20
58.994
 30
0.0
 11
50.7189
 21
58.3942
 31
0.0
  0
LINE
  8
0
 62
     0
 10
50.7189
 20
58.3942
 30
0.0
 11
49.9195
 21
58.3942
 31
0.0
  0
LINE
  8
0
 62
     0
 10
49.9195
 20
58.3942
 30
0.0
 11
49.9195
 21
45.5937
 31
0.0
  0
LINE
  8
0
 62
     0
 10
49.9195
 20
45.5937
 30
0.0
 11
50.7189
 21
45.5937
 31
0.0
  0
LINE
  8
0
 62
     0
 10
50.7189
 20
45.5937
 30
0.0
 11
50.7189
 21
44.9943
 31
0.0
  0
LINE
  8
0
 62
     0
 10
50.7189
 20
44.9943
 30
0.0
 11
64.7181
 21
44.9943
 31
0.0
  0
LINE
  8
0
 62
     0
 10
64.7181
 20
44.9943
 30
0.0
 11
64.7181
 21
45.5937
 31
0.0
  0
LINE
  8
0
 62
     0
 10
64.7181
 20
45.5937
 30
0.0
 11
65.519
 21
45.5937
 31
0.0
  0
LINE
  8
0
 62
     0
 10
65.519
 20
45.5937
 30
0.0
 11
65.519
 21
58.3942
 31
0.0
  0
LINE
  8
0
 62
     0
 10
65.519
 20
58.3942
 30
0.0
 11
64.7181
 21
58.3942
 31
0.0
  0
LINE
  8
0
 62
     0
 10
64.7181
 20
58.3942
 30
0.0
 11
64.7181
 21
58.994
 31
0.0
  0
LINE
  8
0
 62
     0
 10
64.7181
 20
58.994
 30
0.0
 11
50.7189
 21
58.994
 31
0.0
  0
LINE
  8
0
 62
     0
 10
88.8189
 20
58.994
 30
0.0
 11
88.8189
 21
58.3942
 31
0.0
  0
LINE
  8
0
 62
     0
 10
88.8189
 20
58.3942
 30
0.0
 11
88.0195
 21
58.3942
 31
0.0
  0
LINE
  8
0
 62
     0
 10
88.0195
 20
58.3942
 30
0.0
 11
88.0195
 21
45.5937
 31
0.0
  0
LINE
  8
0
 62
     0
 10
88.0195
 20
45.5937
 30
0.0
 11
88.8189
 21
45.5937
 31
0.0
  0
LINE
  8
0
 62
     0
 10
88.8189
 20
45.5937
 30
0.0
 11
88.8189
 21
44.9943
 31
0.0
  0
LINE
  8
0
 62
     0
 10
88.8189
 20
44.9943
 30
0.0
 11
102.818
 21
44.9943
 31
0.0
  0
LINE
  8
0
 62
     0
 10
102.818
 20
44.9943
 30
0.0
 11
102.818
 21
45.5937
 31
0.0
  0
LINE
  8
0
 62
     0
 10
102.818
 20
45.5937
 30
0.0
 11
103.618
 21
45.5937
 31
0.0
  0
LINE
  8
0
 62
     0
 10
103.618
 20
45.5937
 30
0.0
 11
103.618
 21
58.3942
 31
0.0
  0
LINE
  8
0
 62
     0
 10
103.618
 20
58.3942
 30
0.0
 11
102.818
 21
58.3942
 31
0.0
  0
LINE
  8
0
 62
     0
 10
102.818
 20
58.3942
 30
0.0
 11
102.818
 21
58.994
 31
0.0
  0
LINE
  8
0
 62
     0
 10
102.818
 20
58.994
 30
0.0
 11
88.8189
 21
58.994
 31
0.0
  0
LINE
  8
0
 62
     0
 10
69.7689
 20
61.3752
 30
0.0
 11
69.7689
 21
60.7755
 31
0.0
  0
LINE
  8
0
 62
     0
 10
69.7689
 20
60.7755
 30
0.0
 11
68.9695
 21
60.7755
 31
0.0
  0
LINE
  8
0
 62
     0
 10
68.9695
 20
60.7755
 30
0.0
 11
68.9695
 21
47.975
 31
0.0
  0
LINE
  8
0
 62
     0
 10
68.9695
 20
47.975
 30
0.0
 11
69.7689
 21
47.975
 31
0.0
  0
LINE
  8
0
 62
     0
 10
69.7689
 20
47.975
 30
0.0
 11
69.7689
 21
47.3756
 31
0.0
  0
LINE
  8
0
 62
     0
 10
69.7689
 20
47.3756
 30
0.0
 11
83.7681
 21
47.3756
 31
0.0
  0
LINE
  8
0
 62
     0
 10
83.7681
 20
47.3756
 30
0.0
 11
83.7681
 21
47.975
 31
0.0
  0
LINE
  8
0
 62
     0
 10
83.7681
 20
47.975
 30
0.0
 11
84.569
 21
47.975
 31
0.0
  0
LINE
  8
0
 62
     0
 10
84.569
 20
47.975
 30
0.0
 11
84.569
 21
60.7755
 31
0.0
  0
LINE
  8
0
 62
     0
 10
84.569
 20
60.7755
 30
0.0
 11
83.7681
 21
60.7755
 31
0.0
  0
LINE
  8
0
 62
     0
 10
83.7681
 20
60.7755
 30
0.0
 11
83.7681
 21
61.3752
 31
0.0
  0
LINE
  8
0
 62
     0
 10
83.7681
 20
61.3752
 30
0.0
 11
69.7689
 21
61.3752
 31
0.0
  0
LINE
  8
0
 62
     0
 10
126.919
 20
70.9002
 30
0.0
 11
126.919
 21
70.3005
 31
0.0
  0
LINE
  8
0
 62
     0
 10
126.919
 20
70.3005
 30
0.0
 11
126.119
 21
70.3005
 31
0.0
  0
LINE
  8
0
 62
     0
 10
126.119
 20
70.3005
 30
0.0
 11
126.119
 21
57.5
 31
0.0
  0
LINE
  8
0
 62
     0
 10
126.119
 20
57.5
 30
0.0
 11
126.919
 21
57.5
 31
0.0
  0
LINE
  8
0
 62
     0
 10
126.919
 20
57.5
 30
0.0
 11
126.919
 21
56.9006
 31
0.0
  0
LINE
  8
0
 62
     0
 10
126.919
 20
56.9006
 30
0.0
 11
140.918
 21
56.9006
 31
0.0
  0
LINE
  8
0
 62
     0
 10
140.918
 20
56.9006
 30
0.0
 11
140.918
 21
57.5
 31
0.0
  0
LINE
  8
0
 62
     0
 10
140.918
 20
57.5
 30
0.0
 11
141.719
 21
57.5
 31
0.0
  0
LINE
  8
0
 62
     0
 10
141.719
 20
57.5
 30
0.0
 11
141.719
 21
70.3005
 31
0.0
  0
LINE
  8
0
 62
     0
 10
141.719
 20
70.3005
 30
0.0
 11
140.918
 21
70.3005
 31
0.0
  0
LINE
  8
0
 62
     0
 10
140.918
 20
70.3005
 30
0.0
 11
140.918
 21
70.9002
 31
0.0
  0
LINE
  8
0
 62
     0
 10
140.918
 20
70.9002
 30
0.0
 11
126.919
 21
70.9002
 31
0.0
  0
LINE
  8
0
 62
     0
 10
12.6187
 20
73.2825
 30
0.0
 11
12.6187
 21
72.6817
 31
0.0
  0
LINE
  8
0
 62
     0
 10
12.6187
 20
72.6817
 30
0.0
 11
11.8181
 21
72.6817
 31
0.0
  0
LINE
  8
0
 62
     0
 10
11.8181
 20
72.6817
 30
0.0
 11
11.8181
 21
59.8826
 31
0.0
  0
LINE
  8
0
 62
     0
 10
11.8181
 20
59.8826
 30
0.0
 11
12.6187
 21
59.8826
 31
0.0
  0
LINE
  8
0
 62
     0
 10
12.6187
 20
59.8826
 30
0.0
 11
12.6187
 21
59.2818
 31
0.0
  0
LINE
  8
0
 62
     0
 10
12.6187
 20
59.2818
 30
0.0
 11
26.6182
 21
59.2818
 31
0.0
  0
LINE
  8
0
 62
     0
 10
26.6182
 20
59.2818
 30
0.0
 11
26.6182
 21
59.8826
 31
0.0
  0
LINE
  8
0
 62
     0
 10
26.6182
 20
59.8826
 30
0.0
 11
27.4161
 21
59.8826
 31
0.0
  0
LINE
  8
0
 62
     0
 10
27.4161
 20
59.8826
 30
0.0
 11
27.4161
 21
72.6817
 31
0.0
  0
LINE
  8
0
 62
     0
 10
27.4161
 20
72.6817
 30
0.0
 11
26.6182
 21
72.6817
 31
0.0
  0
LINE
  8
0
 62
     0
 10
26.6182
 20
72.6817
 30
0.0
 11
26.6182
 21
73.2825
 31
0.0
  0
LINE
  8
0
 62
     0
 10
26.6182
 20
73.2825
 30
0.0
 11
12.6187
 21
73.2825
 31
0.0
  0
LINE
  8
0
 62
     0
 10
31.6673
 20
75.6627
 30
0.0
 11
31.6673
 21
75.063
 31
0.0
  0
LINE
  8
0
 62
     0
 10
31.6673
 20
75.063
 30
0.0
 11
30.8694
 21
75.063
 31
0.0
  0
LINE
  8
0
 62
     0
 10
30.8694
 20
75.063
 30
0.0
 11
30.8694
 21
62.2625
 31
0.0
  0
LINE
  8
0
 62
     0
 10
30.8694
 20
62.2625
 30
0.0
 11
31.6673
 21
62.2625
 31
0.0
  0
LINE
  8
0
 62
     0
 10
31.6673
 20
62.2625
 30
0.0
 11
31.6673
 21
61.6631
 31
0.0
  0
LINE
  8
0
 62
     0
 10
31.6673
 20
61.6631
 30
0.0
 11
45.6681
 21
61.6631
 31
0.0
  0
LINE
  8
0
 62
     0
 10
45.6681
 20
61.6631
 30
0.0
 11
45.6681
 21
62.2625
 31
0.0
  0
LINE
  8
0
 62
     0
 10
45.6681
 20
62.2625
 30
0.0
 11
46.4675
 21
62.2625
 31
0.0
  0
LINE
  8
0
 62
     0
 10
46.4675
 20
62.2625
 30
0.0
 11
46.4675
 21
75.063
 31
0.0
  0
LINE
  8
0
 62
     0
 10
46.4675
 20
75.063
 30
0.0
 11
45.6681
 21
75.063
 31
0.0
  0
LINE
  8
0
 62
     0
 10
45.6681
 20
75.063
 30
0.0
 11
45.6681
 21
75.6627
 31
0.0
  0
LINE
  8
0
 62
     0
 10
45.6681
 20
75.6627
 30
0.0
 11
31.6673
 21
75.6627
 31
0.0
  0
LINE
  8
0
 62
     0
 10
107.869
 20
75.6627
 30
0.0
 11
107.869
 21
75.063
 31
0.0
  0
LINE
  8
0
 62
     0
 10
107.869
 20
75.063
 30
0.0
 11
107.069
 21
75.063
 31
0.0
  0
LINE
  8
0
 62
     0
 10
107.069
 20
75.063
 30
0.0
 11
107.069
 21
62.2625
 31
0.0
  0
LINE
  8
0
 62
     0
 10
107.069
 20
62.2625
 30
0.0
 11
107.869
 21
62.2625
 31
0.0
  0
LINE
  8
0
 62
     0
 10
107.869
 20
62.2625
 30
0.0
 11
107.869
 21
61.6631
 31
0.0
  0
LINE
  8
0
 62
     0
 10
107.869
 20
61.6631
 30
0.0
 11
121.868
 21
61.6631
 31
0.0
  0
LINE
  8
0
 62
     0
 10
121.868
 20
61.6631
 30
0.0
 11
121.868
 21
62.2625
 31
0.0
  0
LINE
  8
0
 62
     0
 10
121.868
 20
62.2625
 30
0.0
 11
122.669
 21
62.2625
 31
0.0
  0
LINE
  8
0
 62
     0
 10
122.669
 20
62.2625
 30
0.0
 11
122.669
 21
75.063
 31
0.0
  0
LINE
  8
0
 62
     0
 10
122.669
 20
75.063
 30
0.0
 11
121.868
 21
75.063
 31
0.0
  0
LINE
  8
0
 62
     0
 10
121.868
 20
75.063
 30
0.0
 11
121.868
 21
75.6627
 31
0.0
  0
LINE
  8
0
 62
     0
 10
121.868
 20
75.6627
 30
0.0
 11
107.869
 21
75.6627
 31
0.0
  0
LINE
  8
0
 62
     0
 10
50.7189
 20
78.044
 30
0.0
 11
50.7189
 21
77.4442
 31
0.0
  0
LINE
  8
0
 62
     0
 10
50.7189
 20
77.4442
 30
0.0
 11
49.9195
 21
77.4442
 31
0.0
  0
LINE
  8
0
 62
     0
 10
49.9195
 20
77.4442
 30
0.0
 11
49.9195
 21
64.6437
 31
0.0
  0
LINE
  8
0
 62
     0
 10
49.9195
 20
64.6437
 30
0.0
 11
50.7189
 21
64.6437
 31
0.0
  0
LINE
  8
0
 62
     0
 10
50.7189
 20
64.6437
 30
0.0
 11
50.7189
 21
64.0443
 31
0.0
  0
LINE
  8
0
 62
     0
 10
50.7189
 20
64.0443
 30
0.0
 11
64.7181
 21
64.0443
 31
0.0
  0
LINE
  8
0
 62
     0
 10
64.7181
 20
64.0443
 30
0.0
 11
64.7181
 21
64.6437
 31
0.0
  0
LINE
  8
0
 62
     0
 10
64.7181
 20
64.6437
 30
0.0
 11
65.519
 21
64.6437
 31
0.0
  0
LINE
  8
0
 62
     0
 10
65.519
 20
64.6437
 30
0.0
 11
65.519
 21
77.4442
 31
0.0
  0
LINE
  8
0
 62
     0
 10
65.519
 20
77.4442
 30
0.0
 11
64.7181
 21
77.4442
 31
0.0
  0
LINE
  8
0
 62
     0
 10
64.7181
 20
77.4442
 30
0.0
 11
64.7181
 21
78.044
 31
0.0
  0
LINE
  8
0
 62
     0
 10
64.7181
 20
78.044
 30
0.0
 11
50.7189
 21
78.044
 31
0.0
  0
LINE
  8
0
 62
     0
 10
88.8189
 20
78.044
 30
0.0
 11
88.8189
 21
77.4442
 31
0.0
  0
LINE
  8
0
 62
     0
 10
88.8189
 20
77.4442
 30
0.0
 11
88.0195
 21
77.4442
 31
0.0
  0
LINE
  8
0
 62
     0
 10
88.0195
 20
77.4442
 30
0.0
 11
88.0195
 21
64.6437
 31
0.0
  0
LINE
  8
0
 62
     0
 10
88.0195
 20
64.6437
 30
0.0
 11
88.8189
 21
64.6437
 31
0.0
  0
LINE
  8
0
 62
     0
 10
88.8189
 20
64.6437
 30
0.0
 11
88.8189
 21
64.0443
 31
0.0
  0
LINE
  8
0
 62
     0
 10
88.8189
 20
64.0443
 30
0.0
 11
102.818
 21
64.0443
 31
0.0
  0
LINE
  8
0
 62
     0
 10
102.818
 20
64.0443
 30
0.0
 11
102.818
 21
64.6437
 31
0.0
  0
LINE
  8
0
 62
     0
 10
102.818
 20
64.6437
 30
0.0
 11
103.618
 21
64.6437
 31
0.0
  0
LINE
  8
0
 62
     0
 10
103.618
 20
64.6437
 30
0.0
 11
103.618
 21
77.4442
 31
0.0
  0
LINE
  8
0
 62
     0
 10
103.618
 20
77.4442
 30
0.0
 11
102.818
 21
77.4442
 31
0.0
  0
LINE
  8
0
 62
     0
 10
102.818
 20
77.4442
 30
0.0
 11
102.818
 21
78.044
 31
0.0
  0
LINE
  8
0
 62
     0
 10
102.818
 20
78.044
 30
0.0
 11
88.8189
 21
78.044
 31
0.0
  0
LINE
  8
0
 62
     0
 10
69.7689
 20
80.4252
 30
0.0
 11
69.7689
 21
79.8255
 31
0.0
  0
LINE
  8
0
 62
     0
 10
69.7689
 20
79.8255
 30
0.0
 11
68.9695
 21
79.8255
 31
0.0
  0
LINE
  8
0
 62
     0
 10
68.9695
 20
79.8255
 30
0.0
 11
68.9695
 21
67.025
 31
0.0
  0
LINE
  8
0
 62
     0
 10
68.9695
 20
67.025
 30
0.0
 11
69.7689
 21
67.025
 31
0.0
  0
LINE
  8
0
 62
     0
 10
69.7689
 20
67.025
 30
0.0
 11
69.7689
 21
66.4256
 31
0.0
  0
LINE
  8
0
 62
     0
 10
69.7689
 20
66.4256
 30
0.0
 11
83.7681
 21
66.4256
 31
0.0
  0
LINE
  8
0
 62
     0
 10
83.7681
 20
66.4256
 30
0.0
 11
83.7681
 21
67.025
 31
0.0
  0
LINE
  8
0
 62
     0
 10
83.7681
 20
67.025
 30
0.0
 11
84.569
 21
67.025
 31
0.0
  0
LINE
  8
0
 62
     0
 10
84.569
 20
67.025
 30
0.0
 11
84.569
 21
79.8255
 31
0.0
  0
LINE
  8
0
 62
     0
 10
84.569
 20
79.8255
 30
0.0
 11
83.7681
 21
79.8255
 31
0.0
  0
LINE
  8
0
 62
     0
 10
83.7681
 20
79.8255
 30
0.0
 11
83.7681
 21
80.4252
 31
0.0
  0
LINE
  8
0
 62
     0
 10
83.7681
 20
80.4252
 30
0.0
 11
69.7689
 21
80.4252
 31
0.0
  0
LINE
  8
0
 62
     0
 10
126.919
 20
89.9502
 30
0.0
 11
126.919
 21
89.3505
 31
0.0
  0
LINE
  8
0
 62
     0
 10
126.919
 20
89.3505
 30
0.0
 11
126.119
 21
89.3505
 31
0.0
  0
LINE
  8
0
 62
     0
 10
126.119
 20
89.3505
 30
0.0
 11
126.119
 21
76.55
 31
0.0
  0
LINE
  8
0
 62
     0
 10
126.119
 20
76.55
 30
0.0
 11
126.919
 21
76.55
 31
0.0
  0
LINE
  8
0
 62
     0
 10
126.919
 20
76.55
 30
0.0
 11
126.919
 21
75.9506
 31
0.0
  0
LINE
  8
0
 62
     0
 10
126.919
 20
75.9506
 30
0.0
 11
140.918
 21
75.9506
 31
0.0
  0
LINE
  8
0
 62
     0
 10
140.918
 20
75.9506
 30
0.0
 11
140.918
 21
76.55
 31
0.0
  0
LINE
  8
0
 62
     0
 10
140.918
 20
76.55
 30
0.0
 11
141.719
 21
76.55
 31
0.0
  0
LINE
  8
0
 62
     0
 10
141.719
 20
76.55
 30
0.0
 11
141.719
 21
89.3505
 31
0.0
  0
LINE
  8
0
 62
     0
 10
141.719
 20
89.3505
 30
0.0
 11
140.918
 21
89.3505
 31
0.0
  0
LINE
  8
0
 62
     0
 10
140.918
 20
89.3505
 30
0.0
 11
140.918
 21
89.9502
 31
0.0
  0
LINE
  8
0
 62
     0
 10
140.918
 20
89.9502
 30
0.0
 11
126.919
 21
89.9502
 31
0.0
  0
LINE
  8
0
 62
     0
 10
12.6187
 20
92.3325
 30
0.0
 11
12.6187
 21
91.7318
 31
0.0
  0
LINE
  8
0
 62
     0
 10
12.6187
 20
91.7318
 30
0.0
 11
11.8181
 21
91.7318
 31
0.0
  0
LINE
  8
0
 62
     0
 10
11.8181
 20
91.7318
 30
0.0
 11
11.8181
 21
78.9326
 31
0.0
  0
LINE
  8
0
 62
     0
 10
11.8181
 20
78.9326
 30
0.0
 11
12.6187
 21
78.9326
 31
0.0
  0
LINE
  8
0
 62
     0
 10
12.6187
 20
78.9326
 30
0.0
 11
12.6187
 21
78.3318
 31
0.0
  0
LINE
  8
0
 62
     0
 10
12.6187
 20
78.3318
 30
0.0
 11
26.6182
 21
78.3318
 31
0.0
  0
LINE
  8
0
 62
     0
 10
26.6182
 20
78.3318
 30
0.0
 11
26.6182
 21
78.9326
 31
0.0
  0
LINE
  8
0
 62
     0
 10
26.6182
 20
78.9326
 30
0.0
 11
27.4161
 21
78.9326
 31
0.0
  0
LINE
  8
0
 62
     0
 10
27.4161
 20
78.9326
 30
0.0
 11
27.4161
 21
91.7318
 31
0.0
  0
LINE
  8
0
 62
     0
 10
27.4161
 20
91.7318
 30
0.0
 11
26.6182
 21
91.7318
 31
0.0
  0
LINE
  8
0
 62
     0
 10
26.6182
 20
91.7318
 30
0.0
 11
26.6182
 21
92.3325
 31
0.0
  0
LINE
  8
0
 62
     0
 10
26.6182
 20
92.3325
 30
0.0
 11
12.6187
 21
92.3325
 31
0.0
  0
LINE
  8
0
 62
     0
 10
31.6673
 20
94.7127
 30
0.0
 11
31.6673
 21
94.113
 31
0.0
  0
LINE
  8
0
 62
     0
 10
31.6673
 20
94.113
 30
0.0
 11
30.8694
 21
94.113
 31
0.0
  0
LINE
  8
0
 62
     0
 10
30.8694
 20
94.113
 30
0.0
 11
30.8694
 21
81.3125
 31
0.0
  0
LINE
  8
0
 62
     0
 10
30.8694
 20
81.3125
 30
0.0
 11
31.6673
 21
81.3125
 31
0.0
  0
LINE
  8
0
 62
     0
 10
31.6673
 20
81.3125
 30
0.0
 11
31.6673
 21
80.7131
 31
0.0
  0
LINE
  8
0
 62
     0
 10
31.6673
 20
80.7131
 30
0.0
 11
45.6681
 21
80.7131
 31
0.0
  0
LINE
  8
0
 62
     0
 10
45.6681
 20
80.7131
 30
0.0
 11
45.6681
 21
81.3125
 31
0.0
  0
LINE
  8
0
 62
     0
 10
45.6681
 20
81.3125
 30
0.0
 11
46.4675
 21
81.3125
 31
0.0
  0
LINE
  8
0
 62
     0
 10
46.4675
 20
81.3125
 30
0.0
 11
46.4675
 21
94.113
 31
0.0
  0
LINE
  8
0
 62
     0
 10
46.4675
 20
94.113
 30
0.0
 11
45.6681
 21
94.113
 31
0.0
  0
LINE
  8
0
 62
     0
 10
45.6681
 20
94.113
 30
0.0
 11
45.6681
 21
94.7127
 31
0.0
  0
LINE
  8
0
 62
     0
 10
45.6681
 20
94.7127
 30
0.0
 11
31.6673
 21
94.7127
 31
0.0
  0
LINE
  8
0
 62
     0
 10
107.869
 20
94.7127
 30
0.0
 11
107.869
 21
94.113
 31
0.0
  0
LINE
  8
0
 62
     0
 10
107.869
 20
94.113
 30
0.0
 11
107.069
 21
94.113
 31
0.0
  0
LINE
  8
0
 62
     0
 10
107.069
 20
94.113
 30
0.0
 11
107.069
 21
81.3125
 31
0.0
  0
LINE
  8
0
 62
     0
 10
107.069
 20
81.3125
 30
0.0
 11
107.869
 21
81.3125
 31
0.0
  0
LINE
  8
0
 62
     0
 10
107.869
 20
81.3125
 30
0.0
 11
107.869
 21
80.7131
 31
0.0
  0
LINE
  8
0
 62
     0
 10
107.869
 20
80.7131
 30
0.0
 11
121.868
 21
80.7131
 31
0.0
  0
LINE
  8
0
 62
     0
 10
121.868
 20
80.7131
 30
0.0
 11
121.868
 21
81.3125
 31
0.0
  0
LINE
  8
0
 62
     0
 10
121.868
 20
81.3125
 30
0.0
 11
122.669
 21
81.3125
 31
0.0
  0
LINE
  8
0
 62
     0
 10
122.669
 20
81.3125
 30
0.0
 11
122.669
 21
94.113
 31
0.0
  0
LINE
  8
0
 62
     0
 10
122.669
 20
94.113
 30
0.0
 11
121.868
 21
94.113
 31
0.0
  0
LINE
  8
0
 62
     0
 10
121.868
 20
94.113
 30
0.0
 11
121.868
 21
94.7127
 31
0.0
  0
LINE
  8
0
 62
     0
 10
121.868
 20
94.7127
 30
0.0
 11
107.869
 21
94.7127
 31
0.0
  0
LINE
  8
0
 62
     0
 10
50.7189
 20
97.094
 30
0.0
 11
50.7189
 21
96.4943
 31
0.0
  0
LINE
  8
0
 62
     0
 10
50.7189
 20
96.4943
 30
0.0
 11
49.9195
 21
96.4943
 31
0.0
  0
LINE
  8
0
 62
     0
 10
49.9195
 20
96.4943
 30
0.0
 11
49.9195
 21
83.6937
 31
0.0
  0
LINE
  8
0
 62
     0
 10
49.9195
 20
83.6937
 30
0.0
 11
50.7189
 21
83.6937
 31
0.0
  0
LINE
  8
0
 62
     0
 10
50.7189
 20
83.6937
 30
0.0
 11
50.7189
 21
83.0943
 31
0.0
  0
LINE
  8
0
 62
     0
 10
50.7189
 20
83.0943
 30
0.0
 11
64.7181
 21
83.0943
 31
0.0
  0
LINE
  8
0
 62
     0
 10
64.7181
 20
83.0943
 30
0.0
 11
64.7181
 21
83.6937
 31
0.0
  0
LINE
  8
0
 62
     0
 10
64.7181
 20
83.6937
 30
0.0
 11
65.519
 21
83.6937
 31
0.0
  0
LINE
  8
0
 62
     0
 10
65.519
 20
83.6937
 30
0.0
 11
65.519
 21
96.4943
 31
0.0
  0
LINE
  8
0
 62
     0
 10
65.519
 20
96.4943
 30
0.0
 11
64.7181
 21
96.4943
 31
0.0
  0
LINE
  8
0
 62
     0
 10
64.7181
 20
96.4943
 30
0.0
 11
64.7181
 21
97.094
 31
0.0
  0
LINE
  8
0
 62
     0
 10
64.7181
 20
97.094
 30
0.0
 11
50.7189
 21
97.094
 31
0.0
  0
LINE
  8
0
 62
     0
 10
88.8189
 20
97.094
 30
0.0
 11
88.8189
 21
96.4943
 31
0.0
  0
LINE
  8
0
 62
     0
 10
88.8189
 20
96.4943
 30
0.0
 11
88.0195
 21
96.4943
 31
0.0
  0
LINE
  8
0
 62
     0
 10
88.0195
 20
96.4943
 30
0.0
 11
88.0195
 21
83.6937
 31
0.0
  0
LINE
  8
0
 62
     0
 10
88.0195
 20
83.6937
 30
0.0
 11
88.8189
 21
83.6937
 31
0.0
  0
LINE
  8
0
 62
     0
 10
88.8189
 20
83.6937
 30
0.0
 11
88.8189
 21
83.0943
 31
0.0
  0
LINE
  8
0
 62
     0
 10
88.8189
 20
83.0943
 30
0.0
 11
102.818
 21
83.0943
 31
0.0
  0
LINE
  8
0
 62
     0
 10
102.818
 20
83.0943
 30
0.0
 11
102.818
 21
83.6937
 31
0.0
  0
LINE
  8
0
 62
     0
 10
102.818
 20
83.6937
 30
0.0
 11
103.618
 21
83.6937
 31
0.0
  0
LINE
  8
0
 62
     0
 10
103.618
 20
83.6937
 30
0.0
 11
103.618
 21
96.4943
 31
0.0
  0
LINE
  8
0
 62
     0
 10
103.618
 20
96.4943
 30
0.0
 11
102.818
 21
96.4943
 31
0.0
  0
LINE
  8
0
 62
     0
 10
102.818
 20
96.4943
 30
0.0
 11
102.818
 21
97.094
 31
0.0
  0
LINE
  8
0
 62
     0
 10
102.818
 20
97.094
 30
0.0
 11
88.8189
 21
97.094
 31
0.0
  0
LINE
  8
0
 62
     0
 10
69.7689
 20
99.4752
 30
0.0
 11
69.7689
 21
98.8755
 31
0.0
  0
LINE
  8
0
 62
     0
 10
69.7689
 20
98.8755
 30
0.0
 11
68.9695
 21
98.8755
 31
0.0
  0
LINE
  8
0
 62
     0
 10
68.9695
 20
98.8755
 30
0.0
 11
68.9695
 21
86.0764
 31
0.0
  0
LINE
  8
0
 62
     0
 10
68.9695
 20
86.0764
 30
0.0
 11
69.7689
 21
86.0764
 31
0.0
  0
LINE
  8
0
 62
     0
 10
69.7689
 20
86.0764
 30
0.0
 11
69.7689
 21
85.4756
 31
0.0
  0
LINE
  8
0
 62
     0
 10
69.7689
 20
85.4756
 30
0.0
 11
83.7681
 21
85.4756
 31
0.0
  0
LINE
  8
0
 62
     0
 10
83.7681
 20
85.4756
 30
0.0
 11
83.7681
 21
86.0764
 31
0.0
  0
LINE
  8
0
 62
     0
 10
83.7681
 20
86.0764
 30
0.0
 11
84.569
 21
86.0764
 31
0.0
  0
LINE
  8
0
 62
     0
 10
84.569
 20
86.0764
 30
0.0
 11
84.569
 21
98.8755
 31
0.0
  0
LINE
  8
0
 62
     0
 10
84.569
 20
98.8755
 30
0.0
 11
83.7681
 21
98.8755
 31
0.0
  0
LINE
  8
0
 62
     0
 10
83.7681
 20
98.8755
 30
0.0
 11
83.7681
 21
99.4752
 31
0.0
  0
LINE
  8
0
 62
     0
 10
83.7681
 20
99.4752
 30
0.0
 11
69.7689
 21
99.4752
 31
0.0
  0
ENDSEC
  0
EOF
