  0
SECTION
  2
HEADER
  9
$ACADVER
  1
AC1009
  9
$EXTMIN
 10
0.0
 20
0.0
 30
0.0
  9
$EXTMAX
 10
1000.0
 20
1000.0
 30
0.0
  9
$FILLMODE
 70
 0
  9
$SPLFRAME
 70
 1
  0
ENDSEC
  0
SECTION
  2
TABLES
  0
TABLE
  2
LAYER
 70
1
  0
LAYER
  2
0
 70
     0
 62
     7
  6
CONTINUOUS
  0
ENDTAB
  0
ENDSEC
  0
SECTION
  2
ENTITIES
  0
LINE
  8
0
 62
     0
 10
0.0937066
 20
112
 30
0.0
 11
158.122
 21
112
 31
0.0
  0
LINE
  8
0
 62
     0
 10
158.122
 20
112
 30
0.0
 11
158.122
 21
0.0868165
 31
0.0
  0
LINE
  8
0
 62
     0
 10
158.122
 20
0.0868165
 30
0.0
 11
0.0937066
 21
0.0868165
 31
0.0
  0
LINE
  8
0
 62
     0
 10
0.0937066
 20
0.0868165
 30
0.0
 11
0.0937066
 21
112
 31
0.0
  0
LINE
  8
0
 62
     0
 10
129.819
 20
41.4969
 30
0.0
 11
132.617
 21
39.8819
 31
0.0
  0
LINE
  8
0
 62
     0
 10
132.617
 20
39.8819
 30
0.0
 11
132.253
 21
39.2536
 31
0.0
  0
LINE
  8
0
 62
     0
 10
132.253
 20
39.2536
 30
0.0
 11
128.703
 21
41.3039
 31
0.0
  0
LINE
  8
0
 62
     0
 10
128.703
 20
41.3039
 30
0.0
 11
128.304
 21
40.6107
 31
0.0
  0
LINE
  8
0
 62
     0
 10
128.304
 20
40.6107
 30
0.0
 11
127.784
 21
40.9113
 31
0.0
  0
LINE
  8
0
 62
     0
 10
127.784
 20
40.9113
 30
0.0
 11
120.784
 21
28.7872
 31
0.0
  0
LINE
  8
0
 62
     0
 10
120.784
 20
28.7872
 30
0.0
 11
121.303
 21
28.4868
 31
0.0
  0
LINE
  8
0
 62
     0
 10
121.303
 20
28.4868
 30
0.0
 11
120.904
 21
27.7937
 31
0.0
  0
LINE
  8
0
 62
     0
 10
120.904
 20
27.7937
 30
0.0
 11
124.453
 21
25.7445
 31
0.0
  0
LINE
  8
0
 62
     0
 10
124.453
 20
25.7445
 30
0.0
 11
124.091
 21
25.1161
 31
0.0
  0
LINE
  8
0
 62
     0
 10
124.091
 20
25.1161
 30
0.0
 11
121.295
 21
26.7312
 31
0.0
  0
LINE
  8
0
 62
     0
 10
121.295
 20
26.7312
 30
0.0
 11
117.92
 21
20.8855
 31
0.0
  0
LINE
  8
0
 62
     0
 10
117.92
 20
20.8855
 30
0.0
 11
120.716
 21
19.2705
 31
0.0
  0
LINE
  8
0
 62
     0
 10
120.716
 20
19.2705
 30
0.0
 11
120.304
 21
18.5567
 31
0.0
  0
LINE
  8
0
 62
     0
 10
120.304
 20
18.5567
 30
0.0
 11
122.73
 21
17.1566
 31
0.0
  0
LINE
  8
0
 62
     0
 10
122.73
 20
17.1566
 30
0.0
 11
123.142
 21
17.8704
 31
0.0
  0
LINE
  8
0
 62
     0
 10
123.142
 20
17.8704
 30
0.0
 11
128.572
 21
14.7354
 31
0.0
  0
LINE
  8
0
 62
     0
 10
128.572
 20
14.7354
 30
0.0
 11
129.435
 21
16.2292
 31
0.0
  0
LINE
  8
0
 62
     0
 10
129.435
 20
16.2292
 30
0.0
 11
130.474
 21
15.6283
 31
0.0
  0
LINE
  8
0
 62
     0
 10
130.474
 20
15.6283
 30
0.0
 11
132.123
 21
18.4864
 31
0.0
  0
LINE
  8
0
 62
     0
 10
132.123
 20
18.4864
 30
0.0
 11
131.084
 21
19.0872
 31
0.0
  0
LINE
  8
0
 62
     0
 10
131.084
 20
19.0872
 30
0.0
 11
131.947
 21
20.581
 31
0.0
  0
LINE
  8
0
 62
     0
 10
131.947
 20
20.581
 30
0.0
 11
128.076
 21
22.8162
 31
0.0
  0
LINE
  8
0
 62
     0
 10
128.076
 20
22.8162
 30
0.0
 11
128.439
 21
23.4446
 31
0.0
  0
LINE
  8
0
 62
     0
 10
128.439
 20
23.4446
 30
0.0
 11
131.989
 21
21.394
 31
0.0
  0
LINE
  8
0
 62
     0
 10
131.989
 20
21.394
 30
0.0
 11
132.388
 21
22.0872
 31
0.0
  0
LINE
  8
0
 62
     0
 10
132.388
 20
22.0872
 30
0.0
 11
132.909
 21
21.7868
 31
0.0
  0
LINE
  8
0
 62
     0
 10
132.909
 20
21.7868
 30
0.0
 11
139.908
 21
33.9108
 31
0.0
  0
LINE
  8
0
 62
     0
 10
139.908
 20
33.9108
 30
0.0
 11
139.388
 21
34.2112
 31
0.0
  0
LINE
  8
0
 62
     0
 10
139.388
 20
34.2112
 30
0.0
 11
139.788
 21
34.9043
 31
0.0
  0
LINE
  8
0
 62
     0
 10
139.788
 20
34.9043
 30
0.0
 11
136.239
 21
36.9535
 31
0.0
  0
LINE
  8
0
 62
     0
 10
136.239
 20
36.9535
 30
0.0
 11
136.601
 21
37.5818
 31
0.0
  0
LINE
  8
0
 62
     0
 10
136.601
 20
37.5818
 30
0.0
 11
140.472
 21
35.3466
 31
0.0
  0
LINE
  8
0
 62
     0
 10
140.472
 20
35.3466
 30
0.0
 11
141.334
 21
36.8406
 31
0.0
  0
LINE
  8
0
 62
     0
 10
141.334
 20
36.8406
 30
0.0
 11
142.373
 21
36.2409
 31
0.0
  0
LINE
  8
0
 62
     0
 10
142.373
 20
36.2409
 30
0.0
 11
144.024
 21
39.0991
 31
0.0
  0
LINE
  8
0
 62
     0
 10
144.024
 20
39.0991
 30
0.0
 11
142.985
 21
39.6984
 31
0.0
  0
LINE
  8
0
 62
     0
 10
142.985
 20
39.6984
 30
0.0
 11
143.847
 21
41.1939
 31
0.0
  0
LINE
  8
0
 62
     0
 10
143.847
 20
41.1939
 30
0.0
 11
138.417
 21
44.3272
 31
0.0
  0
LINE
  8
0
 62
     0
 10
138.417
 20
44.3272
 30
0.0
 11
138.829
 21
45.0427
 31
0.0
  0
LINE
  8
0
 62
     0
 10
138.829
 20
45.0427
 30
0.0
 11
136.405
 21
46.4425
 31
0.0
  0
LINE
  8
0
 62
     0
 10
136.405
 20
46.4425
 30
0.0
 11
135.992
 21
45.7274
 31
0.0
  0
LINE
  8
0
 62
     0
 10
135.992
 20
45.7274
 30
0.0
 11
133.194
 21
47.3424
 31
0.0
  0
LINE
  8
0
 62
     0
 10
133.194
 20
47.3424
 30
0.0
 11
129.819
 21
41.4969
 31
0.0
  0
LINE
  8
0
 62
     0
 10
12.6187
 20
35.1827
 30
0.0
 11
12.6187
 21
34.5819
 31
0.0
  0
LINE
  8
0
 62
     0
 10
12.6187
 20
34.5819
 30
0.0
 11
11.8181
 21
34.5819
 31
0.0
  0
LINE
  8
0
 62
     0
 10
11.8181
 20
34.5819
 30
0.0
 11
11.8181
 21
21.7827
 31
0.0
  0
LINE
  8
0
 62
     0
 10
11.8181
 20
21.7827
 30
0.0
 11
12.6187
 21
21.7827
 31
0.0
  0
LINE
  8
0
 62
     0
 10
12.6187
 20
21.7827
 30
0.0
 11
12.6187
 21
21.1818
 31
0.0
  0
LINE
  8
0
 62
     0
 10
12.6187
 20
21.1818
 30
0.0
 11
26.6182
 21
21.1818
 31
0.0
  0
LINE
  8
0
 62
     0
 10
26.6182
 20
21.1818
 30
0.0
 11
26.6182
 21
21.7827
 31
0.0
  0
LINE
  8
0
 62
     0
 10
26.6182
 20
21.7827
 30
0.0
 11
27.4161
 21
21.7827
 31
0.0
  0
LINE
  8
0
 62
     0
 10
27.4161
 20
21.7827
 30
0.0
 11
27.4161
 21
34.5819
 31
0.0
  0
LINE
  8
0
 62
     0
 10
27.4161
 20
34.5819
 30
0.0
 11
26.6182
 21
34.5819
 31
0.0
  0
LINE
  8
0
 62
     0
 10
26.6182
 20
34.5819
 30
0.0
 11
26.6182
 21
35.1827
 31
0.0
  0
LINE
  8
0
 62
     0
 10
26.6182
 20
35.1827
 30
0.0
 11
12.6187
 21
35.1827
 31
0.0
  0
LINE
  8
0
 62
     0
 10
96.5853
 20
38.4309
 30
0.0
 11
95.7972
 21
38.5699
 31
0.0
  0
LINE
  8
0
 62
     0
 10
95.7972
 20
38.5699
 30
0.0
 11
93.5743
 21
25.965
 31
0.0
  0
LINE
  8
0
 62
     0
 10
93.5743
 20
25.965
 30
0.0
 11
94.3624
 21
25.8258
 31
0.0
  0
LINE
  8
0
 62
     0
 10
94.3624
 20
25.8258
 30
0.0
 11
94.2591
 21
25.2347
 31
0.0
  0
LINE
  8
0
 62
     0
 10
94.2591
 20
25.2347
 30
0.0
 11
108.045
 21
22.8038
 31
0.0
  0
LINE
  8
0
 62
     0
 10
108.045
 20
22.8038
 30
0.0
 11
108.15
 21
23.395
 31
0.0
  0
LINE
  8
0
 62
     0
 10
108.15
 20
23.395
 30
0.0
 11
108.938
 21
23.2558
 31
0.0
  0
LINE
  8
0
 62
     0
 10
108.938
 20
23.2558
 30
0.0
 11
111.161
 21
35.8606
 31
0.0
  0
LINE
  8
0
 62
     0
 10
111.161
 20
35.8606
 30
0.0
 11
110.373
 21
35.9999
 31
0.0
  0
LINE
  8
0
 62
     0
 10
110.373
 20
35.9999
 30
0.0
 11
110.477
 21
36.5912
 31
0.0
  0
LINE
  8
0
 62
     0
 10
110.477
 20
36.5912
 30
0.0
 11
96.69
 21
39.0218
 31
0.0
  0
LINE
  8
0
 62
     0
 10
96.69
 20
39.0218
 30
0.0
 11
96.5853
 21
38.4309
 31
0.0
  0
LINE
  8
0
 62
     0
 10
31.6673
 20
37.5627
 30
0.0
 11
31.6673
 21
36.963
 31
0.0
  0
LINE
  8
0
 62
     0
 10
31.6673
 20
36.963
 30
0.0
 11
30.8694
 21
36.963
 31
0.0
  0
LINE
  8
0
 62
     0
 10
30.8694
 20
36.963
 30
0.0
 11
30.8694
 21
24.1625
 31
0.0
  0
LINE
  8
0
 62
     0
 10
30.8694
 20
24.1625
 30
0.0
 11
31.6673
 21
24.1625
 31
0.0
  0
LINE
  8
0
 62
     0
 10
31.6673
 20
24.1625
 30
0.0
 11
31.6673
 21
23.5631
 31
0.0
  0
LINE
  8
0
 62
     0
 10
31.6673
 20
23.5631
 30
0.0
 11
45.6681
 21
23.5631
 31
0.0
  0
LINE
  8
0
 62
     0
 10
45.6681
 20
23.5631
 30
0.0
 11
45.6681
 21
24.1625
 31
0.0
  0
LINE
  8
0
 62
     0
 10
45.6681
 20
24.1625
 30
0.0
 11
46.4675
 21
24.1625
 31
0.0
  0
LINE
  8
0
 62
     0
 10
46.4675
 20
24.1625
 30
0.0
 11
46.4675
 21
36.963
 31
0.0
  0
LINE
  8
0
 62
     0
 10
46.4675
 20
36.963
 30
0.0
 11
45.6681
 21
36.963
 31
0.0
  0
LINE
  8
0
 62
     0
 10
45.6681
 20
36.963
 30
0.0
 11
45.6681
 21
37.5627
 31
0.0
  0
LINE
  8
0
 62
     0
 10
45.6681
 20
37.5627
 30
0.0
 11
31.6673
 21
37.5627
 31
0.0
  0
LINE
  8
0
 62
     0
 10
50.7189
 20
39.8487
 30
0.0
 11
50.7189
 21
39.2494
 31
0.0
  0
LINE
  8
0
 62
     0
 10
50.7189
 20
39.2494
 30
0.0
 11
49.9195
 21
39.2494
 31
0.0
  0
LINE
  8
0
 62
     0
 10
49.9195
 20
39.2494
 30
0.0
 11
49.9195
 21
26.4487
 31
0.0
  0
LINE
  8
0
 62
     0
 10
49.9195
 20
26.4487
 30
0.0
 11
50.7189
 21
26.4487
 31
0.0
  0
LINE
  8
0
 62
     0
 10
50.7189
 20
26.4487
 30
0.0
 11
50.7189
 21
25.8492
 31
0.0
  0
LINE
  8
0
 62
     0
 10
50.7189
 20
25.8492
 30
0.0
 11
64.7181
 21
25.8492
 31
0.0
  0
LINE
  8
0
 62
     0
 10
64.7181
 20
25.8492
 30
0.0
 11
64.7181
 21
26.4487
 31
0.0
  0
LINE
  8
0
 62
     0
 10
64.7181
 20
26.4487
 30
0.0
 11
65.519
 21
26.4487
 31
0.0
  0
LINE
  8
0
 62
     0
 10
65.519
 20
26.4487
 30
0.0
 11
65.519
 21
39.2494
 31
0.0
  0
LINE
  8
0
 62
     0
 10
65.519
 20
39.2494
 30
0.0
 11
64.7181
 21
39.2494
 31
0.0
  0
LINE
  8
0
 62
     0
 10
64.7181
 20
39.2494
 30
0.0
 11
64.7181
 21
39.8487
 31
0.0
  0
LINE
  8
0
 62
     0
 10
64.7181
 20
39.8487
 30
0.0
 11
50.7189
 21
39.8487
 31
0.0
  0
LINE
  8
0
 62
     0
 10
69.7689
 20
42.3252
 30
0.0
 11
69.7689
 21
41.7255
 31
0.0
  0
LINE
  8
0
 62
     0
 10
69.7689
 20
41.7255
 30
0.0
 11
68.9695
 21
41.7255
 31
0.0
  0
LINE
  8
0
 62
     0
 10
68.9695
 20
41.7255
 30
0.0
 11
68.9695
 21
28.925
 31
0.0
  0
LINE
  8
0
 62
     0
 10
68.9695
 20
28.925
 30
0.0
 11
69.7689
 21
28.925
 31
0.0
  0
LINE
  8
0
 62
     0
 10
69.7689
 20
28.925
 30
0.0
 11
69.7689
 21
28.3256
 31
0.0
  0
LINE
  8
0
 62
     0
 10
69.7689
 20
28.3256
 30
0.0
 11
83.7681
 21
28.3256
 31
0.0
  0
LINE
  8
0
 62
     0
 10
83.7681
 20
28.3256
 30
0.0
 11
83.7681
 21
28.925
 31
0.0
  0
LINE
  8
0
 62
     0
 10
83.7681
 20
28.925
 30
0.0
 11
84.569
 21
28.925
 31
0.0
  0
LINE
  8
0
 62
     0
 10
84.569
 20
28.925
 30
0.0
 11
84.569
 21
41.7255
 31
0.0
  0
LINE
  8
0
 62
     0
 10
84.569
 20
41.7255
 30
0.0
 11
83.7681
 21
41.7255
 31
0.0
  0
LINE
  8
0
 62
     0
 10
83.7681
 20
41.7255
 30
0.0
 11
83.7681
 21
42.3252
 31
0.0
  0
LINE
  8
0
 62
     0
 10
83.7681
 20
42.3252
 30
0.0
 11
69.7689
 21
42.3252
 31
0.0
  0
LINE
  8
0
 62
     0
 10
12.6187
 20
54.2325
 30
0.0
 11
12.6187
 21
53.6317
 31
0.0
  0
LINE
  8
0
 62
     0
 10
12.6187
 20
53.6317
 30
0.0
 11
11.8181
 21
53.6317
 31
0.0
  0
LINE
  8
0
 62
     0
 10
11.8181
 20
53.6317
 30
0.0
 11
11.8181
 21
40.8326
 31
0.0
  0
LINE
  8
0
 62
     0
 10
11.8181
 20
40.8326
 30
0.0
 11
12.6187
 21
40.8326
 31
0.0
  0
LINE
  8
0
 62
     0
 10
12.6187
 20
40.8326
 30
0.0
 11
12.6187
 21
40.2318
 31
0.0
  0
LINE
  8
0
 62
     0
 10
12.6187
 20
40.2318
 30
0.0
 11
26.6182
 21
40.2318
 31
0.0
  0
LINE
  8
0
 62
     0
 10
26.6182
 20
40.2318
 30
0.0
 11
26.6182
 21
40.8326
 31
0.0
  0
LINE
  8
0
 62
     0
 10
26.6182
 20
40.8326
 30
0.0
 11
27.4161
 21
40.8326
 31
0.0
  0
LINE
  8
0
 62
     0
 10
27.4161
 20
40.8326
 30
0.0
 11
27.4161
 21
53.6317
 31
0.0
  0
LINE
  8
0
 62
     0
 10
27.4161
 20
53.6317
 30
0.0
 11
26.6182
 21
53.6317
 31
0.0
  0
LINE
  8
0
 62
     0
 10
26.6182
 20
53.6317
 30
0.0
 11
26.6182
 21
54.2325
 31
0.0
  0
LINE
  8
0
 62
     0
 10
26.6182
 20
54.2325
 30
0.0
 11
12.6187
 21
54.2325
 31
0.0
  0
LINE
  8
0
 62
     0
 10
31.6673
 20
56.6127
 30
0.0
 11
31.6673
 21
56.013
 31
0.0
  0
LINE
  8
0
 62
     0
 10
31.6673
 20
56.013
 30
0.0
 11
30.8694
 21
56.013
 31
0.0
  0
LINE
  8
0
 62
     0
 10
30.8694
 20
56.013
 30
0.0
 11
30.8694
 21
43.2125
 31
0.0
  0
LINE
  8
0
 62
     0
 10
30.8694
 20
43.2125
 30
0.0
 11
31.6673
 21
43.2125
 31
0.0
  0
LINE
  8
0
 62
     0
 10
31.6673
 20
43.2125
 30
0.0
 11
31.6673
 21
42.6131
 31
0.0
  0
LINE
  8
0
 62
     0
 10
31.6673
 20
42.6131
 30
0.0
 11
45.6681
 21
42.6131
 31
0.0
  0
LINE
  8
0
 62
     0
 10
45.6681
 20
42.6131
 30
0.0
 11
45.6681
 21
43.2125
 31
0.0
  0
LINE
  8
0
 62
     0
 10
45.6681
 20
43.2125
 30
0.0
 11
46.4675
 21
43.2125
 31
0.0
  0
LINE
  8
0
 62
     0
 10
46.4675
 20
43.2125
 30
0.0
 11
46.4675
 21
56.013
 31
0.0
  0
LINE
  8
0
 62
     0
 10
46.4675
 20
56.013
 30
0.0
 11
45.6681
 21
56.013
 31
0.0
  0
LINE
  8
0
 62
     0
 10
45.6681
 20
56.013
 30
0.0
 11
45.6681
 21
56.6127
 31
0.0
  0
LINE
  8
0
 62
     0
 10
45.6681
 20
56.6127
 30
0.0
 11
31.6673
 21
56.6127
 31
0.0
  0
LINE
  8
0
 62
     0
 10
107.869
 20
56.6127
 30
0.0
 11
107.869
 21
56.013
 31
0.0
  0
LINE
  8
0
 62
     0
 10
107.869
 20
56.013
 30
0.0
 11
107.069
 21
56.013
 31
0.0
  0
LINE
  8
0
 62
     0
 10
107.069
 20
56.013
 30
0.0
 11
107.069
 21
43.2125
 31
0.0
  0
LINE
  8
0
 62
     0
 10
107.069
 20
43.2125
 30
0.0
 11
107.869
 21
43.2125
 31
0.0
  0
LINE
  8
0
 62
     0
 10
107.869
 20
43.2125
 30
0.0
 11
107.869
 21
42.6131
 31
0.0
  0
LINE
  8
0
 62
     0
 10
107.869
 20
42.6131
 30
0.0
 11
121.868
 21
42.6131
 31
0.0
  0
LINE
  8
0
 62
     0
 10
121.868
 20
42.6131
 30
0.0
 11
121.868
 21
43.2125
 31
0.0
  0
LINE
  8
0
 62
     0
 10
121.868
 20
43.2125
 30
0.0
 11
122.669
 21
43.2125
 31
0.0
  0
LINE
  8
0
 62
     0
 10
122.669
 20
43.2125
 30
0.0
 11
122.669
 21
56.013
 31
0.0
  0
LINE
  8
0
 62
     0
 10
122.669
 20
56.013
 30
0.0
 11
121.868
 21
56.013
 31
0.0
  0
LINE
  8
0
 62
     0
 10
121.868
 20
56.013
 30
0.0
 11
121.868
 21
56.6127
 31
0.0
  0
LINE
  8
0
 62
     0
 10
121.868
 20
56.6127
 30
0.0
 11
107.869
 21
56.6127
 31
0.0
  0
LINE
  8
0
 62
     0
 10
50.7189
 20
58.994
 30
0.0
 11
50.7189
 21
58.3942
 31
0.0
  0
LINE
  8
0
 62
     0
 10
50.7189
 20
58.3942
 30
0.0
 11
49.9195
 21
58.3942
 31
0.0
  0
LINE
  8
0
 62
     0
 10
49.9195
 20
58.3942
 30
0.0
 11
49.9195
 21
45.5937
 31
0.0
  0
LINE
  8
0
 62
     0
 10
49.9195
 20
45.5937
 30
0.0
 11
50.7189
 21
45.5937
 31
0.0
  0
LINE
  8
0
 62
     0
 10
50.7189
 20
45.5937
 30
0.0
 11
50.7189
 21
44.9943
 31
0.0
  0
LINE
  8
0
 62
     0
 10
50.7189
 20
44.9943
 30
0.0
 11
64.7181
 21
44.9943
 31
0.0
  0
LINE
  8
0
 62
     0
 10
64.7181
 20
44.9943
 30
0.0
 11
64.7181
 21
45.5937
 31
0.0
  0
LINE
  8
0
 62
     0
 10
64.7181
 20
45.5937
 30
0.0
 11
65.519
 21
45.5937
 31
0.0
  0
LINE
  8
0
 62
     0
 10
65.519
 20
45.5937
 30
0.0
 11
65.519
 21
58.3942
 31
0.0
  0
LINE
  8
0
 62
     0
 10
65.519
 20
58.3942
 30
0.0
 11
64.7181
 21
58.3942
 31
0.0
  0
LINE
  8
0
 62
     0
 10
64.7181
 20
58.3942
 30
0.0
 11
64.7181
 21
58.994
 31
0.0
  0
LINE
  8
0
 62
     0
 10
64.7181
 20
58.994
 30
0.0
 11
50.7189
 21
58.994
 31
0.0
  0
LINE
  8
0
 62
     0
 10
88.8189
 20
58.994
 30
0.0
 11
88.8189
 21
58.3942
 31
0.0
  0
LINE
  8
0
 62
     0
 10
88.8189
 20
58.3942
 30
0.0
 11
88.0195
 21
58.3942
 31
0.0
  0
LINE
  8
0
 62
     0
 10
88.0195
 20
58.3942
 30
0.0
 11
88.0195
 21
45.5937
 31
0.0
  0
LINE
  8
0
 62
     0
 10
88.0195
 20
45.5937
 30
0.0
 11
88.8189
 21
45.5937
 31
0.0
  0
LINE
  8
0
 62
     0
 10
88.8189
 20
45.5937
 30
0.0
 11
88.8189
 21
44.9943
 31
0.0
  0
LINE
  8
0
 62
     0
 10
88.8189
 20
44.9943
 30
0.0
 11
102.818
 21
44.9943
 31
0.0
  0
LINE
  8
0
 62
     0
 10
102.818
 20
44.9943
 30
0.0
 11
102.818
 21
45.5937
 31
0.0
  0
LINE
  8
0
 62
     0
 10
102.818
 20
45.5937
 30
0.0
 11
103.618
 21
45.5937
 31
0.0
  0
LINE
  8
0
 62
     0
 10
103.618
 20
45.5937
 30
0.0
 11
103.618
 21
58.3942
 31
0.0
  0
LINE
  8
0
 62
     0
 10
103.618
 20
58.3942
 30
0.0
 11
102.818
 21
58.3942
 31
0.0
  0
LINE
  8
0
 62
     0
 10
102.818
 20
58.3942
 30
0.0
 11
102.818
 21
58.994
 31
0.0
  0
LINE
  8
0
 62
     0
 10
102.818
 20
58.994
 30
0.0
 11
88.8189
 21
58.994
 31
0.0
  0
LINE
  8
0
 62
     0
 10
69.7689
 20
61.3752
 30
0.0
 11
69.7689
 21
60.7755
 31
0.0
  0
LINE
  8
0
 62
     0
 10
69.7689
 20
60.7755
 30
0.0
 11
68.9695
 21
60.7755
 31
0.0
  0
LINE
  8
0
 62
     0
 10
68.9695
 20
60.7755
 30
0.0
 11
68.9695
 21
47.975
 31
0.0
  0
LINE
  8
0
 62
     0
 10
68.9695
 20
47.975
 30
0.0
 11
69.7689
 21
47.975
 31
0.0
  0
LINE
  8
0
 62
     0
 10
69.7689
 20
47.975
 30
0.0
 11
69.7689
 21
47.3756
 31
0.0
  0
LINE
  8
0
 62
     0
 10
69.7689
 20
47.3756
 30
0.0
 11
83.7681
 21
47.3756
 31
0.0
  0
LINE
  8
0
 62
     0
 10
83.7681
 20
47.3756
 30
0.0
 11
83.7681
 21
47.975
 31
0.0
  0
LINE
  8
0
 62
     0
 10
83.7681
 20
47.975
 30
0.0
 11
84.569
 21
47.975
 31
0.0
  0
LINE
  8
0
 62
     0
 10
84.569
 20
47.975
 30
0.0
 11
84.569
 21
60.7755
 31
0.0
  0
LINE
  8
0
 62
     0
 10
84.569
 20
60.7755
 30
0.0
 11
83.7681
 21
60.7755
 31
0.0
  0
LINE
  8
0
 62
     0
 10
83.7681
 20
60.7755
 30
0.0
 11
83.7681
 21
61.3752
 31
0.0
  0
LINE
  8
0
 62
     0
 10
83.7681
 20
61.3752
 30
0.0
 11
69.7689
 21
61.3752
 31
0.0
  0
LINE
  8
0
 62
     0
 10
126.919
 20
70.9002
 30
0.0
 11
126.919
 21
70.3005
 31
0.0
  0
LINE
  8
0
 62
     0
 10
126.919
 20
70.3005
 30
0.0
 11
126.119
 21
70.3005
 31
0.0
  0
LINE
  8
0
 62
     0
 10
126.119
 20
70.3005
 30
0.0
 11
126.119
 21
57.5
 31
0.0
  0
LINE
  8
0
 62
     0
 10
126.119
 20
57.5
 30
0.0
 11
126.919
 21
57.5
 31
0.0
  0
LINE
  8
0
 62
     0
 10
126.919
 20
57.5
 30
0.0
 11
126.919
 21
56.9006
 31
0.0
  0
LINE
  8
0
 62
     0
 10
126.919
 20
56.9006
 30
0.0
 11
140.918
 21
56.9006
 31
0.0
  0
LINE
  8
0
 62
     0
 10
140.918
 20
56.9006
 30
0.0
 11
140.918
 21
57.5
 31
0.0
  0
LINE
  8
0
 62
     0
 10
140.918
 20
57.5
 30
0.0
 11
141.719
 21
57.5
 31
0.0
  0
LINE
  8
0
 62
     0
 10
141.719
 20
57.5
 30
0.0
 11
141.719
 21
70.3005
 31
0.0
  0
LINE
  8
0
 62
     0
 10
141.719
 20
70.3005
 30
0.0
 11
140.918
 21
70.3005
 31
0.0
  0
LINE
  8
0
 62
     0
 10
140.918
 20
70.3005
 30
0.0
 11
140.918
 21
70.9002
 31
0.0
  0
LINE
  8
0
 62
     0
 10
140.918
 20
70.9002
 30
0.0
 11
126.919
 21
70.9002
 31
0.0
  0
LINE
  8
0
 62
     0
 10
12.6187
 20
73.2825
 30
0.0
 11
12.6187
 21
72.6817
 31
0.0
  0
LINE
  8
0
 62
     0
 10
12.6187
 20
72.6817
 30
0.0
 11
11.8181
 21
72.6817
 31
0.0
  0
LINE
  8
0
 62
     0
 10
11.8181
 20
72.6817
 30
0.0
 11
11.8181
 21
59.8826
 31
0.0
  0
LINE
  8
0
 62
     0
 10
11.8181
 20
59.8826
 30
0.0
 11
12.6187
 21
59.8826
 31
0.0
  0
LINE
  8
0
 62
     0
 10
12.6187
 20
59.8826
 30
0.0
 11
12.6187
 21
59.2818
 31
0.0
  0
LINE
  8
0
 62
     0
 10
12.6187
 20
59.2818
 30
0.0
 11
26.6182
 21
59.2818
 31
0.0
  0
LINE
  8
0
 62
     0
 10
26.6182
 20
59.2818
 30
0.0
 11
26.6182
 21
59.8826
 31
0.0
  0
LINE
  8
0
 62
     0
 10
26.6182
 20
59.8826
 30
0.0
 11
27.4161
 21
59.8826
 31
0.0
  0
LINE
  8
0
 62
     0
 10
27.4161
 20
59.8826
 30
0.0
 11
27.4161
 21
72.6817
 31
0.0
  0
LINE
  8
0
 62
     0
 10
27.4161
 20
72.6817
 30
0.0
 11
26.6182
 21
72.6817
 31
0.0
  0
LINE
  8
0
 62
     0
 10
26.6182
 20
72.6817
 30
0.0
 11
26.6182
 21
73.2825
 31
0.0
  0
LINE
  8
0
 62
     0
 10
26.6182
 20
73.2825
 30
0.0
 11
12.6187
 21
73.2825
 31
0.0
  0
LINE
  8
0
 62
     0
 10
31.6673
 20
75.6627
 30
0.0
 11
31.6673
 21
75.063
 31
0.0
  0
LINE
  8
0
 62
     0
 10
31.6673
 20
75.063
 30
0.0
 11
30.8694
 21
75.063
 31
0.0
  0
LINE
  8
0
 62
     0
 10
30.8694
 20
75.063
 30
0.0
 11
30.8694
 21
62.2625
 31
0.0
  0
LINE
  8
0
 62
     0
 10
30.8694
 20
62.2625
 30
0.0
 11
31.6673
 21
62.2625
 31
0.0
  0
LINE
  8
0
 62
     0
 10
31.6673
 20
62.2625
 30
0.0
 11
31.6673
 21
61.6631
 31
0.0
  0
LINE
  8
0
 62
     0
 10
31.6673
 20
61.6631
 30
0.0
 11
45.6681
 21
61.6631
 31
0.0
  0
LINE
  8
0
 62
     0
 10
45.6681
 20
61.6631
 30
0.0
 11
45.6681
 21
62.2625
 31
0.0
  0
LINE
  8
0
 62
     0
 10
45.6681
 20
62.2625
 30
0.0
 11
46.4675
 21
62.2625
 31
0.0
  0
LINE
  8
0
 62
     0
 10
46.4675
 20
62.2625
 30
0.0
 11
46.4675
 21
75.063
 31
0.0
  0
LINE
  8
0
 62
     0
 10
46.4675
 20
75.063
 30
0.0
 11
45.6681
 21
75.063
 31
0.0
  0
LINE
  8
0
 62
     0
 10
45.6681
 20
75.063
 30
0.0
 11
45.6681
 21
75.6627
 31
0.0
  0
LINE
  8
0
 62
     0
 10
45.6681
 20
75.6627
 30
0.0
 11
31.6673
 21
75.6627
 31
0.0
  0
LINE
  8
0
 62
     0
 10
107.869
 20
75.6627
 30
0.0
 11
107.869
 21
75.063
 31
0.0
  0
LINE
  8
0
 62
     0
 10
107.869
 20
75.063
 30
0.0
 11
107.069
 21
75.063
 31
0.0
  0
LINE
  8
0
 62
     0
 10
107.069
 20
75.063
 30
0.0
 11
107.069
 21
62.2625
 31
0.0
  0
LINE
  8
0
 62
     0
 10
107.069
 20
62.2625
 30
0.0
 11
107.869
 21
62.2625
 31
0.0
  0
LINE
  8
0
 62
     0
 10
107.869
 20
62.2625
 30
0.0
 11
107.869
 21
61.6631
 31
0.0
  0
LINE
  8
0
 62
     0
 10
107.869
 20
61.6631
 30
0.0
 11
121.868
 21
61.6631
 31
0.0
  0
LINE
  8
0
 62
     0
 10
121.868
 20
61.6631
 30
0.0
 11
121.868
 21
62.2625
 31
0.0
  0
LINE
  8
0
 62
     0
 10
121.868
 20
62.2625
 30
0.0
 11
122.669
 21
62.2625
 31
0.0
  0
LINE
  8
0
 62
     0
 10
122.669
 20
62.2625
 30
0.0
 11
122.669
 21
75.063
 31
0.0
  0
LINE
  8
0
 62
     0
 10
122.669
 20
75.063
 30
0.0
 11
121.868
 21
75.063
 31
0.0
  0
LINE
  8
0
 62
     0
 10
121.868
 20
75.063
 30
0.0
 11
121.868
 21
75.6627
 31
0.0
  0
LINE
  8
0
 62
     0
 10
121.868
 20
75.6627
 30
0.0
 11
107.869
 21
75.6627
 31
0.0
  0
LINE
  8
0
 62
     0
 10
50.7189
 20
78.044
 30
0.0
 11
50.7189
 21
77.4442
 31
0.0
  0
LINE
  8
0
 62
     0
 10
50.7189
 20
77.4442
 30
0.0
 11
49.9195
 21
77.4442
 31
0.0
  0
LINE
  8
0
 62
     0
 10
49.9195
 20
77.4442
 30
0.0
 11
49.9195
 21
64.6437
 31
0.0
  0
LINE
  8
0
 62
     0
 10
49.9195
 20
64.6437
 30
0.0
 11
50.7189
 21
64.6437
 31
0.0
  0
LINE
  8
0
 62
     0
 10
50.7189
 20
64.6437
 30
0.0
 11
50.7189
 21
64.0443
 31
0.0
  0
LINE
  8
0
 62
     0
 10
50.7189
 20
64.0443
 30
0.0
 11
64.7181
 21
64.0443
 31
0.0
  0
LINE
  8
0
 62
     0
 10
64.7181
 20
64.0443
 30
0.0
 11
64.7181
 21
64.6437
 31
0.0
  0
LINE
  8
0
 62
     0
 10
64.7181
 20
64.6437
 30
0.0
 11
65.519
 21
64.6437
 31
0.0
  0
LINE
  8
0
 62
     0
 10
65.519
 20
64.6437
 30
0.0
 11
65.519
 21
77.4442
 31
0.0
  0
LINE
  8
0
 62
     0
 10
65.519
 20
77.4442
 30
0.0
 11
64.7181
 21
77.4442
 31
0.0
  0
LINE
  8
0
 62
     0
 10
64.7181
 20
77.4442
 30
0.0
 11
64.7181
 21
78.044
 31
0.0
  0
LINE
  8
0
 62
     0
 10
64.7181
 20
78.044
 30
0.0
 11
50.7189
 21
78.044
 31
0.0
  0
LINE
  8
0
 62
     0
 10
88.8189
 20
78.044
 30
0.0
 11
88.8189
 21
77.4442
 31
0.0
  0
LINE
  8
0
 62
     0
 10
88.8189
 20
77.4442
 30
0.0
 11
88.0195
 21
77.4442
 31
0.0
  0
LINE
  8
0
 62
     0
 10
88.0195
 20
77.4442
 30
0.0
 11
88.0195
 21
64.6437
 31
0.0
  0
LINE
  8
0
 62
     0
 10
88.0195
 20
64.6437
 30
0.0
 11
88.8189
 21
64.6437
 31
0.0
  0
LINE
  8
0
 62
     0
 10
88.8189
 20
64.6437
 30
0.0
 11
88.8189
 21
64.0443
 31
0.0
  0
LINE
  8
0
 62
     0
 10
88.8189
 20
64.0443
 30
0.0
 11
102.818
 21
64.0443
 31
0.0
  0
LINE
  8
0
 62
     0
 10
102.818
 20
64.0443
 30
0.0
 11
102.818
 21
64.6437
 31
0.0
  0
LINE
  8
0
 62
     0
 10
102.818
 20
64.6437
 30
0.0
 11
103.618
 21
64.6437
 31
0.0
  0
LINE
  8
0
 62
     0
 10
103.618
 20
64.6437
 30
0.0
 11
103.618
 21
77.4442
 31
0.0
  0
LINE
  8
0
 62
     0
 10
103.618
 20
77.4442
 30
0.0
 11
102.818
 21
77.4442
 31
0.0
  0
LINE
  8
0
 62
     0
 10
102.818
 20
77.4442
 30
0.0
 11
102.818
 21
78.044
 31
0.0
  0
LINE
  8
0
 62
     0
 10
102.818
 20
78.044
 30
0.0
 11
88.8189
 21
78.044
 31
0.0
  0
LINE
  8
0
 62
     0
 10
69.7689
 20
80.4252
 30
0.0
 11
69.7689
 21
79.8255
 31
0.0
  0
LINE
  8
0
 62
     0
 10
69.7689
 20
79.8255
 30
0.0
 11
68.9695
 21
79.8255
 31
0.0
  0
LINE
  8
0
 62
     0
 10
68.9695
 20
79.8255
 30
0.0
 11
68.9695
 21
67.025
 31
0.0
  0
LINE
  8
0
 62
     0
 10
68.9695
 20
67.025
 30
0.0
 11
69.7689
 21
67.025
 31
0.0
  0
LINE
  8
0
 62
     0
 10
69.7689
 20
67.025
 30
0.0
 11
69.7689
 21
66.4256
 31
0.0
  0
LINE
  8
0
 62
     0
 10
69.7689
 20
66.4256
 30
0.0
 11
83.7681
 21
66.4256
 31
0.0
  0
LINE
  8
0
 62
     0
 10
83.7681
 20
66.4256
 30
0.0
 11
83.7681
 21
67.025
 31
0.0
  0
LINE
  8
0
 62
     0
 10
83.7681
 20
67.025
 30
0.0
 11
84.569
 21
67.025
 31
0.0
  0
LINE
  8
0
 62
     0
 10
84.569
 20
67.025
 30
0.0
 11
84.569
 21
79.8255
 31
0.0
  0
LINE
  8
0
 62
     0
 10
84.569
 20
79.8255
 30
0.0
 11
83.7681
 21
79.8255
 31
0.0
  0
LINE
  8
0
 62
     0
 10
83.7681
 20
79.8255
 30
0.0
 11
83.7681
 21
80.4252
 31
0.0
  0
LINE
  8
0
 62
     0
 10
83.7681
 20
80.4252
 30
0.0
 11
69.7689
 21
80.4252
 31
0.0
  0
LINE
  8
0
 62
     0
 10
126.919
 20
89.9502
 30
0.0
 11
126.919
 21
89.3505
 31
0.0
  0
LINE
  8
0
 62
     0
 10
126.919
 20
89.3505
 30
0.0
 11
126.119
 21
89.3505
 31
0.0
  0
LINE
  8
0
 62
     0
 10
126.119
 20
89.3505
 30
0.0
 11
126.119
 21
76.55
 31
0.0
  0
LINE
  8
0
 62
     0
 10
126.119
 20
76.55
 30
0.0
 11
126.919
 21
76.55
 31
0.0
  0
LINE
  8
0
 62
     0
 10
126.919
 20
76.55
 30
0.0
 11
126.919
 21
75.9506
 31
0.0
  0
LINE
  8
0
 62
     0
 10
126.919
 20
75.9506
 30
0.0
 11
140.918
 21
75.9506
 31
0.0
  0
LINE
  8
0
 62
     0
 10
140.918
 20
75.9506
 30
0.0
 11
140.918
 21
76.55
 31
0.0
  0
LINE
  8
0
 62
     0
 10
140.918
 20
76.55
 30
0.0
 11
141.719
 21
76.55
 31
0.0
  0
LINE
  8
0
 62
     0
 10
141.719
 20
76.55
 30
0.0
 11
141.719
 21
89.3505
 31
0.0
  0
LINE
  8
0
 62
     0
 10
141.719
 20
89.3505
 30
0.0
 11
140.918
 21
89.3505
 31
0.0
  0
LINE
  8
0
 62
     0
 10
140.918
 20
89.3505
 30
0.0
 11
140.918
 21
89.9502
 31
0.0
  0
LINE
  8
0
 62
     0
 10
140.918
 20
89.9502
 30
0.0
 11
126.919
 21
89.9502
 31
0.0
  0
LINE
  8
0
 62
     0
 10
12.6187
 20
92.3325
 30
0.0
 11
12.6187
 21
91.7318
 31
0.0
  0
LINE
  8
0
 62
     0
 10
12.6187
 20
91.7318
 30
0.0
 11
11.8181
 21
91.7318
 31
0.0
  0
LINE
  8
0
 62
     0
 10
11.8181
 20
91.7318
 30
0.0
 11
11.8181
 21
78.9326
 31
0.0
  0
LINE
  8
0
 62
     0
 10
11.8181
 20
78.9326
 30
0.0
 11
12.6187
 21
78.9326
 31
0.0
  0
LINE
  8
0
 62
     0
 10
12.6187
 20
78.9326
 30
0.0
 11
12.6187
 21
78.3318
 31
0.0
  0
LINE
  8
0
 62
     0
 10
12.6187
 20
78.3318
 30
0.0
 11
26.6182
 21
78.3318
 31
0.0
  0
LINE
  8
0
 62
     0
 10
26.6182
 20
78.3318
 30
0.0
 11
26.6182
 21
78.9326
 31
0.0
  0
LINE
  8
0
 62
     0
 10
26.6182
 20
78.9326
 30
0.0
 11
27.4161
 21
78.9326
 31
0.0
  0
LINE
  8
0
 62
     0
 10
27.4161
 20
78.9326
 30
0.0
 11
27.4161
 21
91.7318
 31
0.0
  0
LINE
  8
0
 62
     0
 10
27.4161
 20
91.7318
 30
0.0
 11
26.6182
 21
91.7318
 31
0.0
  0
LINE
  8
0
 62
     0
 10
26.6182
 20
91.7318
 30
0.0
 11
26.6182
 21
92.3325
 31
0.0
  0
LINE
  8
0
 62
     0
 10
26.6182
 20
92.3325
 30
0.0
 11
12.6187
 21
92.3325
 31
0.0
  0
LINE
  8
0
 62
     0
 10
31.6673
 20
94.7127
 30
0.0
 11
31.6673
 21
94.113
 31
0.0
  0
LINE
  8
0
 62
     0
 10
31.6673
 20
94.113
 30
0.0
 11
30.8694
 21
94.113
 31
0.0
  0
LINE
  8
0
 62
     0
 10
30.8694
 20
94.113
 30
0.0
 11
30.8694
 21
81.3125
 31
0.0
  0
LINE
  8
0
 62
     0
 10
30.8694
 20
81.3125
 30
0.0
 11
31.6673
 21
81.3125
 31
0.0
  0
LINE
  8
0
 62
     0
 10
31.6673
 20
81.3125
 30
0.0
 11
31.6673
 21
80.7131
 31
0.0
  0
LINE
  8
0
 62
     0
 10
31.6673
 20
80.7131
 30
0.0
 11
45.6681
 21
80.7131
 31
0.0
  0
LINE
  8
0
 62
     0
 10
45.6681
 20
80.7131
 30
0.0
 11
45.6681
 21
81.3125
 31
0.0
  0
LINE
  8
0
 62
     0
 10
45.6681
 20
81.3125
 30
0.0
 11
46.4675
 21
81.3125
 31
0.0
  0
LINE
  8
0
 62
     0
 10
46.4675
 20
81.3125
 30
0.0
 11
46.4675
 21
94.113
 31
0.0
  0
LINE
  8
0
 62
     0
 10
46.4675
 20
94.113
 30
0.0
 11
45.6681
 21
94.113
 31
0.0
  0
LINE
  8
0
 62
     0
 10
45.6681
 20
94.113
 30
0.0
 11
45.6681
 21
94.7127
 31
0.0
  0
LINE
  8
0
 62
     0
 10
45.6681
 20
94.7127
 30
0.0
 11
31.6673
 21
94.7127
 31
0.0
  0
LINE
  8
0
 62
     0
 10
107.869
 20
94.7127
 30
0.0
 11
107.869
 21
94.113
 31
0.0
  0
LINE
  8
0
 62
     0
 10
107.869
 20
94.113
 30
0.0
 11
107.069
 21
94.113
 31
0.0
  0
LINE
  8
0
 62
     0
 10
107.069
 20
94.113
 30
0.0
 11
107.069
 21
81.3125
 31
0.0
  0
LINE
  8
0
 62
     0
 10
107.069
 20
81.3125
 30
0.0
 11
107.869
 21
81.3125
 31
0.0
  0
LINE
  8
0
 62
     0
 10
107.869
 20
81.3125
 30
0.0
 11
107.869
 21
80.7131
 31
0.0
  0
LINE
  8
0
 62
     0
 10
107.869
 20
80.7131
 30
0.0
 11
121.868
 21
80.7131
 31
0.0
  0
LINE
  8
0
 62
     0
 10
121.868
 20
80.7131
 30
0.0
 11
121.868
 21
81.3125
 31
0.0
  0
LINE
  8
0
 62
     0
 10
121.868
 20
81.3125
 30
0.0
 11
122.669
 21
81.3125
 31
0.0
  0
LINE
  8
0
 62
     0
 10
122.669
 20
81.3125
 30
0.0
 11
122.669
 21
94.113
 31
0.0
  0
LINE
  8
0
 62
     0
 10
122.669
 20
94.113
 30
0.0
 11
121.868
 21
94.113
 31
0.0
  0
LINE
  8
0
 62
     0
 10
121.868
 20
94.113
 30
0.0
 11
121.868
 21
94.7127
 31
0.0
  0
LINE
  8
0
 62
     0
 10
121.868
 20
94.7127
 30
0.0
 11
107.869
 21
94.7127
 31
0.0
  0
LINE
  8
0
 62
     0
 10
50.7189
 20
97.094
 30
0.0
 11
50.7189
 21
96.4943
 31
0.0
  0
LINE
  8
0
 62
     0
 10
50.7189
 20
96.4943
 30
0.0
 11
49.9195
 21
96.4943
 31
0.0
  0
LINE
  8
0
 62
     0
 10
49.9195
 20
96.4943
 30
0.0
 11
49.9195
 21
83.6937
 31
0.0
  0
LINE
  8
0
 62
     0
 10
49.9195
 20
83.6937
 30
0.0
 11
50.7189
 21
83.6937
 31
0.0
  0
LINE
  8
0
 62
     0
 10
50.7189
 20
83.6937
 30
0.0
 11
50.7189
 21
83.0943
 31
0.0
  0
LINE
  8
0
 62
     0
 10
50.7189
 20
83.0943
 30
0.0
 11
64.7181
 21
83.0943
 31
0.0
  0
LINE
  8
0
 62
     0
 10
64.7181
 20
83.0943
 30
0.0
 11
64.7181
 21
83.6937
 31
0.0
  0
LINE
  8
0
 62
     0
 10
64.7181
 20
83.6937
 30
0.0
 11
65.519
 21
83.6937
 31
0.0
  0
LINE
  8
0
 62
     0
 10
65.519
 20
83.6937
 30
0.0
 11
65.519
 21
96.4943
 31
0.0
  0
LINE
  8
0
 62
     0
 10
65.519
 20
96.4943
 30
0.0
 11
64.7181
 21
96.4943
 31
0.0
  0
LINE
  8
0
 62
     0
 10
64.7181
 20
96.4943
 30
0.0
 11
64.7181
 21
97.094
 31
0.0
  0
LINE
  8
0
 62
     0
 10
64.7181
 20
97.094
 30
0.0
 11
50.7189
 21
97.094
 31
0.0
  0
LINE
  8
0
 62
     0
 10
88.8189
 20
97.094
 30
0.0
 11
88.8189
 21
96.4943
 31
0.0
  0
LINE
  8
0
 62
     0
 10
88.8189
 20
96.4943
 30
0.0
 11
88.0195
 21
96.4943
 31
0.0
  0
LINE
  8
0
 62
     0
 10
88.0195
 20
96.4943
 30
0.0
 11
88.0195
 21
83.6937
 31
0.0
  0
LINE
  8
0
 62
     0
 10
88.0195
 20
83.6937
 30
0.0
 11
88.8189
 21
83.6937
 31
0.0
  0
LINE
  8
0
 62
     0
 10
88.8189
 20
83.6937
 30
0.0
 11
88.8189
 21
83.0943
 31
0.0
  0
LINE
  8
0
 62
     0
 10
88.8189
 20
83.0943
 30
0.0
 11
102.818
 21
83.0943
 31
0.0
  0
LINE
  8
0
 62
     0
 10
102.818
 20
83.0943
 30
0.0
 11
102.818
 21
83.6937
 31
0.0
  0
LINE
  8
0
 62
     0
 10
102.818
 20
83.6937
 30
0.0
 11
103.618
 21
83.6937
 31
0.0
  0
LINE
  8
0
 62
     0
 10
103.618
 20
83.6937
 30
0.0
 11
103.618
 21
96.4943
 31
0.0
  0
LINE
  8
0
 62
     0
 10
103.618
 20
96.4943
 30
0.0
 11
102.818
 21
96.4943
 31
0.0
  0
LINE
  8
0
 62
     0
 10
102.818
 20
96.4943
 30
0.0
 11
102.818
 21
97.094
 31
0.0
  0
LINE
  8
0
 62
     0
 10
102.818
 20
97.094
 30
0.0
 11
88.8189
 21
97.094
 31
0.0
  0
LINE
  8
0
 62
     0
 10
69.7689
 20
99.4752
 30
0.0
 11
69.7689
 21
98.8755
 31
0.0
  0
LINE
  8
0
 62
     0
 10
69.7689
 20
98.8755
 30
0.0
 11
68.9695
 21
98.8755
 31
0.0
  0
LINE
  8
0
 62
     0
 10
68.9695
 20
98.8755
 30
0.0
 11
68.9695
 21
86.0764
 31
0.0
  0
LINE
  8
0
 62
     0
 10
68.9695
 20
86.0764
 30
0.0
 11
69.7689
 21
86.0764
 31
0.0
  0
LINE
  8
0
 62
     0
 10
69.7689
 20
86.0764
 30
0.0
 11
69.7689
 21
85.4756
 31
0.0
  0
LINE
  8
0
 62
     0
 10
69.7689
 20
85.4756
 30
0.0
 11
83.7681
 21
85.4756
 31
0.0
  0
LINE
  8
0
 62
     0
 10
83.7681
 20
85.4756
 30
0.0
 11
83.7681
 21
86.0764
 31
0.0
  0
LINE
  8
0
 62
     0
 10
83.7681
 20
86.0764
 30
0.0
 11
84.569
 21
86.0764
 31
0.0
  0
LINE
  8
0
 62
     0
 10
84.569
 20
86.0764
 30
0.0
 11
84.569
 21
98.8755
 31
0.0
  0
LINE
  8
0
 62
     0
 10
84.569
 20
98.8755
 30
0.0
 11
83.7681
 21
98.8755
 31
0.0
  0
LINE
  8
0
 62
     0
 10
83.7681
 20
98.8755
 30
0.0
 11
83.7681
 21
99.4752
 31
0.0
  0
LINE
  8
0
 62
     0
 10
83.7681
 20
99.4752
 30
0.0
 11
69.7689
 21
99.4752
 31
0.0
  0
ENDSEC
  0
EOF
