  0
SECTION
  2
HEADER
  9
$ACADVER
  1
AC1009
  9
$EXTMIN
 10
0.0
 20
0.0
 30
0.0
  9
$EXTMAX
 10
1000.0
 20
1000.0
 30
0.0
  9
$FILLMODE
 70
 0
  9
$SPLFRAME
 70
 1
  0
ENDSEC
  0
SECTION
  2
TABLES
  0
TABLE
  2
LAYER
 70
1
  0
LAYER
  2
0
 70
     0
 62
     7
  6
CONTINUOUS
  0
ENDTAB
  0
ENDSEC
  0
SECTION
  2
ENTITIES
  0
LINE
  8
0
 62
     0
 10
0.0950846
 20
91.9977
 30
0.0
 11
278.702
 21
91.9977
 31
0.0
  0
LINE
  8
0
 62
     0
 10
278.702
 20
91.9977
 30
0.0
 11
278.702
 21
0.0854385
 31
0.0
  0
LINE
  8
0
 62
     0
 10
278.702
 20
0.0854385
 30
0.0
 11
0.0950846
 21
0.0854385
 31
0.0
  0
LINE
  8
0
 62
     0
 10
0.0950846
 20
0.0854385
 30
0.0
 11
0.0950846
 21
91.9977
 31
0.0
  0
LINE
  8
0
 62
     0
 10
112.722
 20
22.1423
 30
0.0
 11
112.03
 21
22.5419
 31
0.0
  0
LINE
  8
0
 62
     0
 10
112.03
 20
22.5419
 30
0.0
 11
105.629
 21
11.457
 31
0.0
  0
LINE
  8
0
 62
     0
 10
105.629
 20
11.457
 30
0.0
 11
106.323
 21
11.0574
 31
0.0
  0
LINE
  8
0
 62
     0
 10
106.323
 20
11.0574
 30
0.0
 11
106.022
 21
10.5365
 31
0.0
  0
LINE
  8
0
 62
     0
 10
106.022
 20
10.5365
 30
0.0
 11
118.146
 21
3.53741
 31
0.0
  0
LINE
  8
0
 62
     0
 10
118.146
 20
3.53741
 30
0.0
 11
118.447
 21
4.05694
 31
0.0
  0
LINE
  8
0
 62
     0
 10
118.447
 20
4.05694
 30
0.0
 11
119.14
 21
3.65594
 31
0.0
  0
LINE
  8
0
 62
     0
 10
119.14
 20
3.65594
 30
0.0
 11
125.539
 21
14.7423
 31
0.0
  0
LINE
  8
0
 62
     0
 10
125.539
 20
14.7423
 30
0.0
 11
124.846
 21
15.1419
 31
0.0
  0
LINE
  8
0
 62
     0
 10
124.846
 20
15.1419
 30
0.0
 11
125.145
 21
15.6614
 31
0.0
  0
LINE
  8
0
 62
     0
 10
125.145
 20
15.6614
 30
0.0
 11
113.023
 21
22.6618
 31
0.0
  0
LINE
  8
0
 62
     0
 10
113.023
 20
22.6618
 30
0.0
 11
112.722
 21
22.1423
 31
0.0
  0
LINE
  8
0
 62
     0
 10
153.647
 20
15.6614
 30
0.0
 11
153.948
 21
15.1419
 31
0.0
  0
LINE
  8
0
 62
     0
 10
153.948
 20
15.1419
 30
0.0
 11
153.254
 21
14.7423
 31
0.0
  0
LINE
  8
0
 62
     0
 10
153.254
 20
14.7423
 30
0.0
 11
159.655
 21
3.65594
 31
0.0
  0
LINE
  8
0
 62
     0
 10
159.655
 20
3.65594
 30
0.0
 11
160.347
 21
4.05694
 31
0.0
  0
LINE
  8
0
 62
     0
 10
160.347
 20
4.05694
 30
0.0
 11
160.648
 21
3.53741
 31
0.0
  0
LINE
  8
0
 62
     0
 10
160.648
 20
3.53741
 30
0.0
 11
172.772
 21
10.5365
 31
0.0
  0
LINE
  8
0
 62
     0
 10
172.772
 20
10.5365
 30
0.0
 11
172.471
 21
11.0574
 31
0.0
  0
LINE
  8
0
 62
     0
 10
172.471
 20
11.0574
 30
0.0
 11
173.164
 21
11.457
 31
0.0
  0
LINE
  8
0
 62
     0
 10
173.164
 20
11.457
 30
0.0
 11
166.765
 21
22.5419
 31
0.0
  0
LINE
  8
0
 62
     0
 10
166.765
 20
22.5419
 30
0.0
 11
166.072
 21
22.1423
 31
0.0
  0
LINE
  8
0
 62
     0
 10
166.072
 20
22.1423
 30
0.0
 11
165.771
 21
22.6618
 31
0.0
  0
LINE
  8
0
 62
     0
 10
165.771
 20
22.6618
 30
0.0
 11
153.647
 21
15.6614
 31
0.0
  0
LINE
  8
0
 62
     0
 10
2.61965
 20
25.1809
 30
0.0
 11
2.61965
 21
24.5815
 31
0.0
  0
LINE
  8
0
 62
     0
 10
2.61965
 20
24.5815
 30
0.0
 11
1.82039
 21
24.5815
 31
0.0
  0
LINE
  8
0
 62
     0
 10
1.82039
 20
24.5815
 30
0.0
 11
1.82039
 21
11.7822
 31
0.0
  0
LINE
  8
0
 62
     0
 10
1.82039
 20
11.7822
 30
0.0
 11
2.61965
 21
11.7822
 31
0.0
  0
LINE
  8
0
 62
     0
 10
2.61965
 20
11.7822
 30
0.0
 11
2.61965
 21
11.1814
 31
0.0
  0
LINE
  8
0
 62
     0
 10
2.61965
 20
11.1814
 30
0.0
 11
16.6192
 21
11.1814
 31
0.0
  0
LINE
  8
0
 62
     0
 10
16.6192
 20
11.1814
 30
0.0
 11
16.6192
 21
11.7822
 31
0.0
  0
LINE
  8
0
 62
     0
 10
16.6192
 20
11.7822
 30
0.0
 11
17.4198
 21
11.7822
 31
0.0
  0
LINE
  8
0
 62
     0
 10
17.4198
 20
11.7822
 30
0.0
 11
17.4198
 21
24.5815
 31
0.0
  0
LINE
  8
0
 62
     0
 10
17.4198
 20
24.5815
 30
0.0
 11
16.6192
 21
24.5815
 31
0.0
  0
LINE
  8
0
 62
     0
 10
16.6192
 20
24.5815
 30
0.0
 11
16.6192
 21
25.1809
 31
0.0
  0
LINE
  8
0
 62
     0
 10
16.6192
 20
25.1809
 30
0.0
 11
2.61965
 21
25.1809
 31
0.0
  0
LINE
  8
0
 62
     0
 10
262.176
 20
25.1809
 30
0.0
 11
262.176
 21
24.5815
 31
0.0
  0
LINE
  8
0
 62
     0
 10
262.176
 20
24.5815
 30
0.0
 11
261.375
 21
24.5815
 31
0.0
  0
LINE
  8
0
 62
     0
 10
261.375
 20
24.5815
 30
0.0
 11
261.375
 21
11.7822
 31
0.0
  0
LINE
  8
0
 62
     0
 10
261.375
 20
11.7822
 30
0.0
 11
262.176
 21
11.7822
 31
0.0
  0
LINE
  8
0
 62
     0
 10
262.176
 20
11.7822
 30
0.0
 11
262.176
 21
11.1814
 31
0.0
  0
LINE
  8
0
 62
     0
 10
262.176
 20
11.1814
 30
0.0
 11
276.175
 21
11.1814
 31
0.0
  0
LINE
  8
0
 62
     0
 10
276.175
 20
11.1814
 30
0.0
 11
276.175
 21
11.7822
 31
0.0
  0
LINE
  8
0
 62
     0
 10
276.175
 20
11.7822
 30
0.0
 11
276.976
 21
11.7822
 31
0.0
  0
LINE
  8
0
 62
     0
 10
276.976
 20
11.7822
 30
0.0
 11
276.976
 21
24.5815
 31
0.0
  0
LINE
  8
0
 62
     0
 10
276.976
 20
24.5815
 30
0.0
 11
276.175
 21
24.5815
 31
0.0
  0
LINE
  8
0
 62
     0
 10
276.175
 20
24.5815
 30
0.0
 11
276.175
 21
25.1809
 31
0.0
  0
LINE
  8
0
 62
     0
 10
276.175
 20
25.1809
 30
0.0
 11
262.176
 21
25.1809
 31
0.0
  0
LINE
  8
0
 62
     0
 10
177.615
 20
26.4377
 30
0.0
 11
177.72
 21
25.8465
 31
0.0
  0
LINE
  8
0
 62
     0
 10
177.72
 20
25.8465
 30
0.0
 11
176.932
 21
25.7059
 31
0.0
  0
LINE
  8
0
 62
     0
 10
176.932
 20
25.7059
 30
0.0
 11
179.155
 21
13.1024
 31
0.0
  0
LINE
  8
0
 62
     0
 10
179.155
 20
13.1024
 30
0.0
 11
179.943
 21
13.2402
 31
0.0
  0
LINE
  8
0
 62
     0
 10
179.943
 20
13.2402
 30
0.0
 11
180.046
 21
12.6504
 31
0.0
  0
LINE
  8
0
 62
     0
 10
180.046
 20
12.6504
 30
0.0
 11
193.833
 21
15.0813
 31
0.0
  0
LINE
  8
0
 62
     0
 10
193.833
 20
15.0813
 30
0.0
 11
193.73
 21
15.6724
 31
0.0
  0
LINE
  8
0
 62
     0
 10
193.73
 20
15.6724
 30
0.0
 11
194.518
 21
15.8116
 31
0.0
  0
LINE
  8
0
 62
     0
 10
194.518
 20
15.8116
 30
0.0
 11
192.294
 21
28.4165
 31
0.0
  0
LINE
  8
0
 62
     0
 10
192.294
 20
28.4165
 30
0.0
 11
191.507
 21
28.2774
 31
0.0
  0
LINE
  8
0
 62
     0
 10
191.507
 20
28.2774
 30
0.0
 11
191.403
 21
28.8685
 31
0.0
  0
LINE
  8
0
 62
     0
 10
191.403
 20
28.8685
 30
0.0
 11
177.615
 21
26.4377
 31
0.0
  0
LINE
  8
0
 62
     0
 10
86.5861
 20
28.4303
 30
0.0
 11
85.7994
 21
28.5695
 31
0.0
  0
LINE
  8
0
 62
     0
 10
85.7994
 20
28.5695
 30
0.0
 11
83.5752
 21
15.9646
 31
0.0
  0
LINE
  8
0
 62
     0
 10
83.5752
 20
15.9646
 30
0.0
 11
84.3636
 21
15.8254
 31
0.0
  0
LINE
  8
0
 62
     0
 10
84.3636
 20
15.8254
 30
0.0
 11
84.2603
 21
15.2342
 31
0.0
  0
LINE
  8
0
 62
     0
 10
84.2603
 20
15.2342
 30
0.0
 11
98.0475
 21
12.8034
 31
0.0
  0
LINE
  8
0
 62
     0
 10
98.0475
 20
12.8034
 30
0.0
 11
98.1509
 21
13.3945
 31
0.0
  0
LINE
  8
0
 62
     0
 10
98.1509
 20
13.3945
 30
0.0
 11
98.939
 21
13.2553
 31
0.0
  0
LINE
  8
0
 62
     0
 10
98.939
 20
13.2553
 30
0.0
 11
101.162
 21
25.8603
 31
0.0
  0
LINE
  8
0
 62
     0
 10
101.162
 20
25.8603
 30
0.0
 11
100.373
 21
25.9994
 31
0.0
  0
LINE
  8
0
 62
     0
 10
100.373
 20
25.9994
 30
0.0
 11
100.478
 21
26.5906
 31
0.0
  0
LINE
  8
0
 62
     0
 10
100.478
 20
26.5906
 30
0.0
 11
86.6909
 21
29.0215
 31
0.0
  0
LINE
  8
0
 62
     0
 10
86.6909
 20
29.0215
 30
0.0
 11
86.5861
 21
28.4303
 31
0.0
  0
LINE
  8
0
 62
     0
 10
21.6697
 20
27.5621
 30
0.0
 11
21.6697
 21
26.9627
 31
0.0
  0
LINE
  8
0
 62
     0
 10
21.6697
 20
26.9627
 30
0.0
 11
20.8704
 21
26.9627
 31
0.0
  0
LINE
  8
0
 62
     0
 10
20.8704
 20
26.9627
 30
0.0
 11
20.8704
 21
14.1621
 31
0.0
  0
LINE
  8
0
 62
     0
 10
20.8704
 20
14.1621
 30
0.0
 11
21.6697
 21
14.1621
 31
0.0
  0
LINE
  8
0
 62
     0
 10
21.6697
 20
14.1621
 30
0.0
 11
21.6697
 21
13.5626
 31
0.0
  0
LINE
  8
0
 62
     0
 10
21.6697
 20
13.5626
 30
0.0
 11
35.669
 21
13.5626
 31
0.0
  0
LINE
  8
0
 62
     0
 10
35.669
 20
13.5626
 30
0.0
 11
35.669
 21
14.1621
 31
0.0
  0
LINE
  8
0
 62
     0
 10
35.669
 20
14.1621
 30
0.0
 11
36.4698
 21
14.1621
 31
0.0
  0
LINE
  8
0
 62
     0
 10
36.4698
 20
14.1621
 30
0.0
 11
36.4698
 21
26.9627
 31
0.0
  0
LINE
  8
0
 62
     0
 10
36.4698
 20
26.9627
 30
0.0
 11
35.669
 21
26.9627
 31
0.0
  0
LINE
  8
0
 62
     0
 10
35.669
 20
26.9627
 30
0.0
 11
35.669
 21
27.5621
 31
0.0
  0
LINE
  8
0
 62
     0
 10
35.669
 20
27.5621
 30
0.0
 11
21.6697
 21
27.5621
 31
0.0
  0
LINE
  8
0
 62
     0
 10
243.126
 20
27.5621
 30
0.0
 11
243.126
 21
26.9627
 31
0.0
  0
LINE
  8
0
 62
     0
 10
243.126
 20
26.9627
 30
0.0
 11
242.325
 21
26.9627
 31
0.0
  0
LINE
  8
0
 62
     0
 10
242.325
 20
26.9627
 30
0.0
 11
242.325
 21
14.1621
 31
0.0
  0
LINE
  8
0
 62
     0
 10
242.325
 20
14.1621
 30
0.0
 11
243.126
 21
14.1621
 31
0.0
  0
LINE
  8
0
 62
     0
 10
243.126
 20
14.1621
 30
0.0
 11
243.126
 21
13.5626
 31
0.0
  0
LINE
  8
0
 62
     0
 10
243.126
 20
13.5626
 30
0.0
 11
257.125
 21
13.5626
 31
0.0
  0
LINE
  8
0
 62
     0
 10
257.125
 20
13.5626
 30
0.0
 11
257.125
 21
14.1621
 31
0.0
  0
LINE
  8
0
 62
     0
 10
257.125
 20
14.1621
 30
0.0
 11
257.926
 21
14.1621
 31
0.0
  0
LINE
  8
0
 62
     0
 10
257.926
 20
14.1621
 30
0.0
 11
257.926
 21
26.9627
 31
0.0
  0
LINE
  8
0
 62
     0
 10
257.926
 20
26.9627
 30
0.0
 11
257.125
 21
26.9627
 31
0.0
  0
LINE
  8
0
 62
     0
 10
257.125
 20
26.9627
 30
0.0
 11
257.125
 21
27.5621
 31
0.0
  0
LINE
  8
0
 62
     0
 10
257.125
 20
27.5621
 30
0.0
 11
243.126
 21
27.5621
 31
0.0
  0
LINE
  8
0
 62
     0
 10
40.7197
 20
29.8483
 30
0.0
 11
40.7197
 21
29.2475
 31
0.0
  0
LINE
  8
0
 62
     0
 10
40.7197
 20
29.2475
 30
0.0
 11
39.9203
 21
29.2475
 31
0.0
  0
LINE
  8
0
 62
     0
 10
39.9203
 20
29.2475
 30
0.0
 11
39.9203
 21
16.4483
 31
0.0
  0
LINE
  8
0
 62
     0
 10
39.9203
 20
16.4483
 30
0.0
 11
40.7197
 21
16.4483
 31
0.0
  0
LINE
  8
0
 62
     0
 10
40.7197
 20
16.4483
 30
0.0
 11
40.7197
 21
15.8488
 31
0.0
  0
LINE
  8
0
 62
     0
 10
40.7197
 20
15.8488
 30
0.0
 11
54.719
 21
15.8488
 31
0.0
  0
LINE
  8
0
 62
     0
 10
54.719
 20
15.8488
 30
0.0
 11
54.719
 21
16.4483
 31
0.0
  0
LINE
  8
0
 62
     0
 10
54.719
 20
16.4483
 30
0.0
 11
55.5198
 21
16.4483
 31
0.0
  0
LINE
  8
0
 62
     0
 10
55.5198
 20
16.4483
 30
0.0
 11
55.5198
 21
29.2475
 31
0.0
  0
LINE
  8
0
 62
     0
 10
55.5198
 20
29.2475
 30
0.0
 11
54.719
 21
29.2475
 31
0.0
  0
LINE
  8
0
 62
     0
 10
54.719
 20
29.2475
 30
0.0
 11
54.719
 21
29.8483
 31
0.0
  0
LINE
  8
0
 62
     0
 10
54.719
 20
29.8483
 30
0.0
 11
40.7197
 21
29.8483
 31
0.0
  0
LINE
  8
0
 62
     0
 10
224.076
 20
29.9434
 30
0.0
 11
224.076
 21
29.344
 31
0.0
  0
LINE
  8
0
 62
     0
 10
224.076
 20
29.344
 30
0.0
 11
223.275
 21
29.344
 31
0.0
  0
LINE
  8
0
 62
     0
 10
223.275
 20
29.344
 30
0.0
 11
223.275
 21
16.5433
 31
0.0
  0
LINE
  8
0
 62
     0
 10
223.275
 20
16.5433
 30
0.0
 11
224.076
 21
16.5433
 31
0.0
  0
LINE
  8
0
 62
     0
 10
224.076
 20
16.5433
 30
0.0
 11
224.076
 21
15.9439
 31
0.0
  0
LINE
  8
0
 62
     0
 10
224.076
 20
15.9439
 30
0.0
 11
238.075
 21
15.9439
 31
0.0
  0
LINE
  8
0
 62
     0
 10
238.075
 20
15.9439
 30
0.0
 11
238.075
 21
16.5433
 31
0.0
  0
LINE
  8
0
 62
     0
 10
238.075
 20
16.5433
 30
0.0
 11
238.876
 21
16.5433
 31
0.0
  0
LINE
  8
0
 62
     0
 10
238.876
 20
16.5433
 30
0.0
 11
238.876
 21
29.344
 31
0.0
  0
LINE
  8
0
 62
     0
 10
238.876
 20
29.344
 30
0.0
 11
238.075
 21
29.344
 31
0.0
  0
LINE
  8
0
 62
     0
 10
238.075
 20
29.344
 30
0.0
 11
238.075
 21
29.9434
 31
0.0
  0
LINE
  8
0
 62
     0
 10
238.075
 20
29.9434
 30
0.0
 11
224.076
 21
29.9434
 31
0.0
  0
LINE
  8
0
 62
     0
 10
59.7697
 20
32.3246
 30
0.0
 11
59.7697
 21
31.7252
 31
0.0
  0
LINE
  8
0
 62
     0
 10
59.7697
 20
31.7252
 30
0.0
 11
58.9703
 21
31.7252
 31
0.0
  0
LINE
  8
0
 62
     0
 10
58.9703
 20
31.7252
 30
0.0
 11
58.9703
 21
18.9246
 31
0.0
  0
LINE
  8
0
 62
     0
 10
58.9703
 20
18.9246
 30
0.0
 11
59.7697
 21
18.9246
 31
0.0
  0
LINE
  8
0
 62
     0
 10
59.7697
 20
18.9246
 30
0.0
 11
59.7697
 21
18.3251
 31
0.0
  0
LINE
  8
0
 62
     0
 10
59.7697
 20
18.3251
 30
0.0
 11
73.769
 21
18.3251
 31
0.0
  0
LINE
  8
0
 62
     0
 10
73.769
 20
18.3251
 30
0.0
 11
73.769
 21
18.9246
 31
0.0
  0
LINE
  8
0
 62
     0
 10
73.769
 20
18.9246
 30
0.0
 11
74.5698
 21
18.9246
 31
0.0
  0
LINE
  8
0
 62
     0
 10
74.5698
 20
18.9246
 30
0.0
 11
74.5698
 21
31.7252
 31
0.0
  0
LINE
  8
0
 62
     0
 10
74.5698
 20
31.7252
 30
0.0
 11
73.769
 21
31.7252
 31
0.0
  0
LINE
  8
0
 62
     0
 10
73.769
 20
31.7252
 30
0.0
 11
73.769
 21
32.3246
 31
0.0
  0
LINE
  8
0
 62
     0
 10
73.769
 20
32.3246
 30
0.0
 11
59.7697
 21
32.3246
 31
0.0
  0
LINE
  8
0
 62
     0
 10
205.026
 20
32.3246
 30
0.0
 11
205.026
 21
31.7252
 31
0.0
  0
LINE
  8
0
 62
     0
 10
205.026
 20
31.7252
 30
0.0
 11
204.225
 21
31.7252
 31
0.0
  0
LINE
  8
0
 62
     0
 10
204.225
 20
31.7252
 30
0.0
 11
204.225
 21
18.9246
 31
0.0
  0
LINE
  8
0
 62
     0
 10
204.225
 20
18.9246
 30
0.0
 11
205.026
 21
18.9246
 31
0.0
  0
LINE
  8
0
 62
     0
 10
205.026
 20
18.9246
 30
0.0
 11
205.026
 21
18.3251
 31
0.0
  0
LINE
  8
0
 62
     0
 10
205.026
 20
18.3251
 30
0.0
 11
219.025
 21
18.3251
 31
0.0
  0
LINE
  8
0
 62
     0
 10
219.025
 20
18.3251
 30
0.0
 11
219.025
 21
18.9246
 31
0.0
  0
LINE
  8
0
 62
     0
 10
219.025
 20
18.9246
 30
0.0
 11
219.826
 21
18.9246
 31
0.0
  0
LINE
  8
0
 62
     0
 10
219.826
 20
18.9246
 30
0.0
 11
219.826
 21
31.7252
 31
0.0
  0
LINE
  8
0
 62
     0
 10
219.826
 20
31.7252
 30
0.0
 11
219.025
 21
31.7252
 31
0.0
  0
LINE
  8
0
 62
     0
 10
219.025
 20
31.7252
 30
0.0
 11
219.025
 21
32.3246
 31
0.0
  0
LINE
  8
0
 62
     0
 10
219.025
 20
32.3246
 30
0.0
 11
205.026
 21
32.3246
 31
0.0
  0
LINE
  8
0
 62
     0
 10
122.247
 20
38.6401
 30
0.0
 11
121.555
 21
39.0412
 31
0.0
  0
LINE
  8
0
 62
     0
 10
121.555
 20
39.0412
 30
0.0
 11
115.154
 21
27.9549
 31
0.0
  0
LINE
  8
0
 62
     0
 10
115.154
 20
27.9549
 30
0.0
 11
115.848
 21
27.5539
 31
0.0
  0
LINE
  8
0
 62
     0
 10
115.848
 20
27.5539
 30
0.0
 11
115.547
 21
27.0357
 31
0.0
  0
LINE
  8
0
 62
     0
 10
115.547
 20
27.0357
 30
0.0
 11
127.671
 21
20.0353
 31
0.0
  0
LINE
  8
0
 62
     0
 10
127.671
 20
20.0353
 30
0.0
 11
127.972
 21
20.5548
 31
0.0
  0
LINE
  8
0
 62
     0
 10
127.972
 20
20.5548
 30
0.0
 11
128.665
 21
20.1552
 31
0.0
  0
LINE
  8
0
 62
     0
 10
128.665
 20
20.1552
 30
0.0
 11
135.064
 21
31.2401
 31
0.0
  0
LINE
  8
0
 62
     0
 10
135.064
 20
31.2401
 30
0.0
 11
134.371
 21
31.6411
 31
0.0
  0
LINE
  8
0
 62
     0
 10
134.371
 20
31.6411
 30
0.0
 11
134.672
 21
32.1579
 31
0.0
  0
LINE
  8
0
 62
     0
 10
134.672
 20
32.1579
 30
0.0
 11
122.548
 21
39.1597
 31
0.0
  0
LINE
  8
0
 62
     0
 10
122.548
 20
39.1597
 30
0.0
 11
122.247
 21
38.6401
 31
0.0
  0
LINE
  8
0
 62
     0
 10
144.122
 20
32.1579
 30
0.0
 11
144.423
 21
31.6411
 31
0.0
  0
LINE
  8
0
 62
     0
 10
144.423
 20
31.6411
 30
0.0
 11
143.729
 21
31.2401
 31
0.0
  0
LINE
  8
0
 62
     0
 10
143.729
 20
31.2401
 30
0.0
 11
150.13
 21
20.1552
 31
0.0
  0
LINE
  8
0
 62
     0
 10
150.13
 20
20.1552
 30
0.0
 11
150.822
 21
20.5548
 31
0.0
  0
LINE
  8
0
 62
     0
 10
150.822
 20
20.5548
 30
0.0
 11
151.123
 21
20.0353
 31
0.0
  0
LINE
  8
0
 62
     0
 10
151.123
 20
20.0353
 30
0.0
 11
163.247
 21
27.0357
 31
0.0
  0
LINE
  8
0
 62
     0
 10
163.247
 20
27.0357
 30
0.0
 11
162.946
 21
27.5539
 31
0.0
  0
LINE
  8
0
 62
     0
 10
162.946
 20
27.5539
 30
0.0
 11
163.639
 21
27.9549
 31
0.0
  0
LINE
  8
0
 62
     0
 10
163.639
 20
27.9549
 30
0.0
 11
157.24
 21
39.0412
 31
0.0
  0
LINE
  8
0
 62
     0
 10
157.24
 20
39.0412
 30
0.0
 11
156.547
 21
38.6401
 31
0.0
  0
LINE
  8
0
 62
     0
 10
156.547
 20
38.6401
 30
0.0
 11
156.246
 21
39.1597
 31
0.0
  0
LINE
  8
0
 62
     0
 10
156.246
 20
39.1597
 30
0.0
 11
144.122
 21
32.1579
 31
0.0
  0
LINE
  8
0
 62
     0
 10
2.61965
 20
44.2309
 30
0.0
 11
2.61965
 21
43.6316
 31
0.0
  0
LINE
  8
0
 62
     0
 10
2.61965
 20
43.6316
 30
0.0
 11
1.82039
 21
43.6316
 31
0.0
  0
LINE
  8
0
 62
     0
 10
1.82039
 20
43.6316
 30
0.0
 11
1.82039
 21
30.8322
 31
0.0
  0
LINE
  8
0
 62
     0
 10
1.82039
 20
30.8322
 30
0.0
 11
2.61965
 21
30.8322
 31
0.0
  0
LINE
  8
0
 62
     0
 10
2.61965
 20
30.8322
 30
0.0
 11
2.61965
 21
30.2314
 31
0.0
  0
LINE
  8
0
 62
     0
 10
2.61965
 20
30.2314
 30
0.0
 11
16.6192
 21
30.2314
 31
0.0
  0
LINE
  8
0
 62
     0
 10
16.6192
 20
30.2314
 30
0.0
 11
16.6192
 21
30.8322
 31
0.0
  0
LINE
  8
0
 62
     0
 10
16.6192
 20
30.8322
 30
0.0
 11
17.4198
 21
30.8322
 31
0.0
  0
LINE
  8
0
 62
     0
 10
17.4198
 20
30.8322
 30
0.0
 11
17.4198
 21
43.6316
 31
0.0
  0
LINE
  8
0
 62
     0
 10
17.4198
 20
43.6316
 30
0.0
 11
16.6192
 21
43.6316
 31
0.0
  0
LINE
  8
0
 62
     0
 10
16.6192
 20
43.6316
 30
0.0
 11
16.6192
 21
44.2309
 31
0.0
  0
LINE
  8
0
 62
     0
 10
16.6192
 20
44.2309
 30
0.0
 11
2.61965
 21
44.2309
 31
0.0
  0
LINE
  8
0
 62
     0
 10
262.176
 20
44.2309
 30
0.0
 11
262.176
 21
43.6316
 31
0.0
  0
LINE
  8
0
 62
     0
 10
262.176
 20
43.6316
 30
0.0
 11
261.375
 21
43.6316
 31
0.0
  0
LINE
  8
0
 62
     0
 10
261.375
 20
43.6316
 30
0.0
 11
261.375
 21
30.8322
 31
0.0
  0
LINE
  8
0
 62
     0
 10
261.375
 20
30.8322
 30
0.0
 11
262.176
 21
30.8322
 31
0.0
  0
LINE
  8
0
 62
     0
 10
262.176
 20
30.8322
 30
0.0
 11
262.176
 21
30.2314
 31
0.0
  0
LINE
  8
0
 62
     0
 10
262.176
 20
30.2314
 30
0.0
 11
276.175
 21
30.2314
 31
0.0
  0
LINE
  8
0
 62
     0
 10
276.175
 20
30.2314
 30
0.0
 11
276.175
 21
30.8322
 31
0.0
  0
LINE
  8
0
 62
     0
 10
276.175
 20
30.8322
 30
0.0
 11
276.976
 21
30.8322
 31
0.0
  0
LINE
  8
0
 62
     0
 10
276.976
 20
30.8322
 30
0.0
 11
276.976
 21
43.6316
 31
0.0
  0
LINE
  8
0
 62
     0
 10
276.976
 20
43.6316
 30
0.0
 11
276.175
 21
43.6316
 31
0.0
  0
LINE
  8
0
 62
     0
 10
276.175
 20
43.6316
 30
0.0
 11
276.175
 21
44.2309
 31
0.0
  0
LINE
  8
0
 62
     0
 10
276.175
 20
44.2309
 30
0.0
 11
262.176
 21
44.2309
 31
0.0
  0
LINE
  8
0
 62
     0
 10
21.6697
 20
46.6122
 30
0.0
 11
21.6697
 21
46.0128
 31
0.0
  0
LINE
  8
0
 62
     0
 10
21.6697
 20
46.0128
 30
0.0
 11
20.8704
 21
46.0128
 31
0.0
  0
LINE
  8
0
 62
     0
 10
20.8704
 20
46.0128
 30
0.0
 11
20.8704
 21
33.2121
 31
0.0
  0
LINE
  8
0
 62
     0
 10
20.8704
 20
33.2121
 30
0.0
 11
21.6697
 21
33.2121
 31
0.0
  0
LINE
  8
0
 62
     0
 10
21.6697
 20
33.2121
 30
0.0
 11
21.6697
 21
32.6126
 31
0.0
  0
LINE
  8
0
 62
     0
 10
21.6697
 20
32.6126
 30
0.0
 11
35.669
 21
32.6126
 31
0.0
  0
LINE
  8
0
 62
     0
 10
35.669
 20
32.6126
 30
0.0
 11
35.669
 21
33.2121
 31
0.0
  0
LINE
  8
0
 62
     0
 10
35.669
 20
33.2121
 30
0.0
 11
36.4698
 21
33.2121
 31
0.0
  0
LINE
  8
0
 62
     0
 10
36.4698
 20
33.2121
 30
0.0
 11
36.4698
 21
46.0128
 31
0.0
  0
LINE
  8
0
 62
     0
 10
36.4698
 20
46.0128
 30
0.0
 11
35.669
 21
46.0128
 31
0.0
  0
LINE
  8
0
 62
     0
 10
35.669
 20
46.0128
 30
0.0
 11
35.669
 21
46.6122
 31
0.0
  0
LINE
  8
0
 62
     0
 10
35.669
 20
46.6122
 30
0.0
 11
21.6697
 21
46.6122
 31
0.0
  0
LINE
  8
0
 62
     0
 10
97.8697
 20
46.6122
 30
0.0
 11
97.8697
 21
46.0128
 31
0.0
  0
LINE
  8
0
 62
     0
 10
97.8697
 20
46.0128
 30
0.0
 11
97.0703
 21
46.0128
 31
0.0
  0
LINE
  8
0
 62
     0
 10
97.0703
 20
46.0128
 30
0.0
 11
97.0703
 21
33.2121
 31
0.0
  0
LINE
  8
0
 62
     0
 10
97.0703
 20
33.2121
 30
0.0
 11
97.8697
 21
33.2121
 31
0.0
  0
LINE
  8
0
 62
     0
 10
97.8697
 20
33.2121
 30
0.0
 11
97.8697
 21
32.6126
 31
0.0
  0
LINE
  8
0
 62
     0
 10
97.8697
 20
32.6126
 30
0.0
 11
111.869
 21
32.6126
 31
0.0
  0
LINE
  8
0
 62
     0
 10
111.869
 20
32.6126
 30
0.0
 11
111.869
 21
33.2121
 31
0.0
  0
LINE
  8
0
 62
     0
 10
111.869
 20
33.2121
 30
0.0
 11
112.67
 21
33.2121
 31
0.0
  0
LINE
  8
0
 62
     0
 10
112.67
 20
33.2121
 30
0.0
 11
112.67
 21
46.0128
 31
0.0
  0
LINE
  8
0
 62
     0
 10
112.67
 20
46.0128
 30
0.0
 11
111.869
 21
46.0128
 31
0.0
  0
LINE
  8
0
 62
     0
 10
111.869
 20
46.0128
 30
0.0
 11
111.869
 21
46.6122
 31
0.0
  0
LINE
  8
0
 62
     0
 10
111.869
 20
46.6122
 30
0.0
 11
97.8697
 21
46.6122
 31
0.0
  0
LINE
  8
0
 62
     0
 10
166.926
 20
46.6122
 30
0.0
 11
166.926
 21
46.0128
 31
0.0
  0
LINE
  8
0
 62
     0
 10
166.926
 20
46.0128
 30
0.0
 11
166.125
 21
46.0128
 31
0.0
  0
LINE
  8
0
 62
     0
 10
166.125
 20
46.0128
 30
0.0
 11
166.125
 21
33.2121
 31
0.0
  0
LINE
  8
0
 62
     0
 10
166.125
 20
33.2121
 30
0.0
 11
166.926
 21
33.2121
 31
0.0
  0
LINE
  8
0
 62
     0
 10
166.926
 20
33.2121
 30
0.0
 11
166.926
 21
32.6126
 31
0.0
  0
LINE
  8
0
 62
     0
 10
166.926
 20
32.6126
 30
0.0
 11
180.925
 21
32.6126
 31
0.0
  0
LINE
  8
0
 62
     0
 10
180.925
 20
32.6126
 30
0.0
 11
180.925
 21
33.2121
 31
0.0
  0
LINE
  8
0
 62
     0
 10
180.925
 20
33.2121
 30
0.0
 11
181.726
 21
33.2121
 31
0.0
  0
LINE
  8
0
 62
     0
 10
181.726
 20
33.2121
 30
0.0
 11
181.726
 21
46.0128
 31
0.0
  0
LINE
  8
0
 62
     0
 10
181.726
 20
46.0128
 30
0.0
 11
180.925
 21
46.0128
 31
0.0
  0
LINE
  8
0
 62
     0
 10
180.925
 20
46.0128
 30
0.0
 11
180.925
 21
46.6122
 31
0.0
  0
LINE
  8
0
 62
     0
 10
180.925
 20
46.6122
 30
0.0
 11
166.926
 21
46.6122
 31
0.0
  0
LINE
  8
0
 62
     0
 10
243.126
 20
46.6122
 30
0.0
 11
243.126
 21
46.0128
 31
0.0
  0
LINE
  8
0
 62
     0
 10
243.126
 20
46.0128
 30
0.0
 11
242.325
 21
46.0128
 31
0.0
  0
LINE
  8
0
 62
     0
 10
242.325
 20
46.0128
 30
0.0
 11
242.325
 21
33.2121
 31
0.0
  0
LINE
  8
0
 62
     0
 10
242.325
 20
33.2121
 30
0.0
 11
243.126
 21
33.2121
 31
0.0
  0
LINE
  8
0
 62
     0
 10
243.126
 20
33.2121
 30
0.0
 11
243.126
 21
32.6126
 31
0.0
  0
LINE
  8
0
 62
     0
 10
243.126
 20
32.6126
 30
0.0
 11
257.125
 21
32.6126
 31
0.0
  0
LINE
  8
0
 62
     0
 10
257.125
 20
32.6126
 30
0.0
 11
257.125
 21
33.2121
 31
0.0
  0
LINE
  8
0
 62
     0
 10
257.125
 20
33.2121
 30
0.0
 11
257.926
 21
33.2121
 31
0.0
  0
LINE
  8
0
 62
     0
 10
257.926
 20
33.2121
 30
0.0
 11
257.926
 21
46.0128
 31
0.0
  0
LINE
  8
0
 62
     0
 10
257.926
 20
46.0128
 30
0.0
 11
257.125
 21
46.0128
 31
0.0
  0
LINE
  8
0
 62
     0
 10
257.125
 20
46.0128
 30
0.0
 11
257.125
 21
46.6122
 31
0.0
  0
LINE
  8
0
 62
     0
 10
257.125
 20
46.6122
 30
0.0
 11
243.126
 21
46.6122
 31
0.0
  0
LINE
  8
0
 62
     0
 10
40.7197
 20
48.9934
 30
0.0
 11
40.7197
 21
48.3941
 31
0.0
  0
LINE
  8
0
 62
     0
 10
40.7197
 20
48.3941
 30
0.0
 11
39.9203
 21
48.3941
 31
0.0
  0
LINE
  8
0
 62
     0
 10
39.9203
 20
48.3941
 30
0.0
 11
39.9203
 21
35.5935
 31
0.0
  0
LINE
  8
0
 62
     0
 10
39.9203
 20
35.5935
 30
0.0
 11
40.7197
 21
35.5935
 31
0.0
  0
LINE
  8
0
 62
     0
 10
40.7197
 20
35.5935
 30
0.0
 11
40.7197
 21
34.9939
 31
0.0
  0
LINE
  8
0
 62
     0
 10
40.7197
 20
34.9939
 30
0.0
 11
54.719
 21
34.9939
 31
0.0
  0
LINE
  8
0
 62
     0
 10
54.719
 20
34.9939
 30
0.0
 11
54.719
 21
35.5935
 31
0.0
  0
LINE
  8
0
 62
     0
 10
54.719
 20
35.5935
 30
0.0
 11
55.5198
 21
35.5935
 31
0.0
  0
LINE
  8
0
 62
     0
 10
55.5198
 20
35.5935
 30
0.0
 11
55.5198
 21
48.3941
 31
0.0
  0
LINE
  8
0
 62
     0
 10
55.5198
 20
48.3941
 30
0.0
 11
54.719
 21
48.3941
 31
0.0
  0
LINE
  8
0
 62
     0
 10
54.719
 20
48.3941
 30
0.0
 11
54.719
 21
48.9934
 31
0.0
  0
LINE
  8
0
 62
     0
 10
54.719
 20
48.9934
 30
0.0
 11
40.7197
 21
48.9934
 31
0.0
  0
LINE
  8
0
 62
     0
 10
78.8197
 20
48.9934
 30
0.0
 11
78.8197
 21
48.3941
 31
0.0
  0
LINE
  8
0
 62
     0
 10
78.8197
 20
48.3941
 30
0.0
 11
78.0203
 21
48.3941
 31
0.0
  0
LINE
  8
0
 62
     0
 10
78.0203
 20
48.3941
 30
0.0
 11
78.0203
 21
35.5935
 31
0.0
  0
LINE
  8
0
 62
     0
 10
78.0203
 20
35.5935
 30
0.0
 11
78.8197
 21
35.5935
 31
0.0
  0
LINE
  8
0
 62
     0
 10
78.8197
 20
35.5935
 30
0.0
 11
78.8197
 21
34.9939
 31
0.0
  0
LINE
  8
0
 62
     0
 10
78.8197
 20
34.9939
 30
0.0
 11
92.819
 21
34.9939
 31
0.0
  0
LINE
  8
0
 62
     0
 10
92.819
 20
34.9939
 30
0.0
 11
92.819
 21
35.5935
 31
0.0
  0
LINE
  8
0
 62
     0
 10
92.819
 20
35.5935
 30
0.0
 11
93.6184
 21
35.5935
 31
0.0
  0
LINE
  8
0
 62
     0
 10
93.6184
 20
35.5935
 30
0.0
 11
93.6184
 21
48.3941
 31
0.0
  0
LINE
  8
0
 62
     0
 10
93.6184
 20
48.3941
 30
0.0
 11
92.819
 21
48.3941
 31
0.0
  0
LINE
  8
0
 62
     0
 10
92.819
 20
48.3941
 30
0.0
 11
92.819
 21
48.9934
 31
0.0
  0
LINE
  8
0
 62
     0
 10
92.819
 20
48.9934
 30
0.0
 11
78.8197
 21
48.9934
 31
0.0
  0
LINE
  8
0
 62
     0
 10
185.976
 20
48.9934
 30
0.0
 11
185.976
 21
48.3941
 31
0.0
  0
LINE
  8
0
 62
     0
 10
185.976
 20
48.3941
 30
0.0
 11
185.175
 21
48.3941
 31
0.0
  0
LINE
  8
0
 62
     0
 10
185.175
 20
48.3941
 30
0.0
 11
185.175
 21
35.5935
 31
0.0
  0
LINE
  8
0
 62
     0
 10
185.175
 20
35.5935
 30
0.0
 11
185.976
 21
35.5935
 31
0.0
  0
LINE
  8
0
 62
     0
 10
185.976
 20
35.5935
 30
0.0
 11
185.976
 21
34.9939
 31
0.0
  0
LINE
  8
0
 62
     0
 10
185.976
 20
34.9939
 30
0.0
 11
199.975
 21
34.9939
 31
0.0
  0
LINE
  8
0
 62
     0
 10
199.975
 20
34.9939
 30
0.0
 11
199.975
 21
35.5935
 31
0.0
  0
LINE
  8
0
 62
     0
 10
199.975
 20
35.5935
 30
0.0
 11
200.776
 21
35.5935
 31
0.0
  0
LINE
  8
0
 62
     0
 10
200.776
 20
35.5935
 30
0.0
 11
200.776
 21
48.3941
 31
0.0
  0
LINE
  8
0
 62
     0
 10
200.776
 20
48.3941
 30
0.0
 11
199.975
 21
48.3941
 31
0.0
  0
LINE
  8
0
 62
     0
 10
199.975
 20
48.3941
 30
0.0
 11
199.975
 21
48.9934
 31
0.0
  0
LINE
  8
0
 62
     0
 10
199.975
 20
48.9934
 30
0.0
 11
185.976
 21
48.9934
 31
0.0
  0
LINE
  8
0
 62
     0
 10
224.076
 20
48.9934
 30
0.0
 11
224.076
 21
48.3941
 31
0.0
  0
LINE
  8
0
 62
     0
 10
224.076
 20
48.3941
 30
0.0
 11
223.275
 21
48.3941
 31
0.0
  0
LINE
  8
0
 62
     0
 10
223.275
 20
48.3941
 30
0.0
 11
223.275
 21
35.5935
 31
0.0
  0
LINE
  8
0
 62
     0
 10
223.275
 20
35.5935
 30
0.0
 11
224.076
 21
35.5935
 31
0.0
  0
LINE
  8
0
 62
     0
 10
224.076
 20
35.5935
 30
0.0
 11
224.076
 21
34.9939
 31
0.0
  0
LINE
  8
0
 62
     0
 10
224.076
 20
34.9939
 30
0.0
 11
238.075
 21
34.9939
 31
0.0
  0
LINE
  8
0
 62
     0
 10
238.075
 20
34.9939
 30
0.0
 11
238.075
 21
35.5935
 31
0.0
  0
LINE
  8
0
 62
     0
 10
238.075
 20
35.5935
 30
0.0
 11
238.876
 21
35.5935
 31
0.0
  0
LINE
  8
0
 62
     0
 10
238.876
 20
35.5935
 30
0.0
 11
238.876
 21
48.3941
 31
0.0
  0
LINE
  8
0
 62
     0
 10
238.876
 20
48.3941
 30
0.0
 11
238.075
 21
48.3941
 31
0.0
  0
LINE
  8
0
 62
     0
 10
238.075
 20
48.3941
 30
0.0
 11
238.075
 21
48.9934
 31
0.0
  0
LINE
  8
0
 62
     0
 10
238.075
 20
48.9934
 30
0.0
 11
224.076
 21
48.9934
 31
0.0
  0
LINE
  8
0
 62
     0
 10
59.7697
 20
51.3747
 30
0.0
 11
59.7697
 21
50.7753
 31
0.0
  0
LINE
  8
0
 62
     0
 10
59.7697
 20
50.7753
 30
0.0
 11
58.9703
 21
50.7753
 31
0.0
  0
LINE
  8
0
 62
     0
 10
58.9703
 20
50.7753
 30
0.0
 11
58.9703
 21
37.9748
 31
0.0
  0
LINE
  8
0
 62
     0
 10
58.9703
 20
37.9748
 30
0.0
 11
59.7697
 21
37.9748
 31
0.0
  0
LINE
  8
0
 62
     0
 10
59.7697
 20
37.9748
 30
0.0
 11
59.7697
 21
37.375
 31
0.0
  0
LINE
  8
0
 62
     0
 10
59.7697
 20
37.375
 30
0.0
 11
73.769
 21
37.375
 31
0.0
  0
LINE
  8
0
 62
     0
 10
73.769
 20
37.375
 30
0.0
 11
73.769
 21
37.9748
 31
0.0
  0
LINE
  8
0
 62
     0
 10
73.769
 20
37.9748
 30
0.0
 11
74.5698
 21
37.9748
 31
0.0
  0
LINE
  8
0
 62
     0
 10
74.5698
 20
37.9748
 30
0.0
 11
74.5698
 21
50.7753
 31
0.0
  0
LINE
  8
0
 62
     0
 10
74.5698
 20
50.7753
 30
0.0
 11
73.769
 21
50.7753
 31
0.0
  0
LINE
  8
0
 62
     0
 10
73.769
 20
50.7753
 30
0.0
 11
73.769
 21
51.3747
 31
0.0
  0
LINE
  8
0
 62
     0
 10
73.769
 20
51.3747
 30
0.0
 11
59.7697
 21
51.3747
 31
0.0
  0
LINE
  8
0
 62
     0
 10
205.026
 20
51.3747
 30
0.0
 11
205.026
 21
50.7753
 31
0.0
  0
LINE
  8
0
 62
     0
 10
205.026
 20
50.7753
 30
0.0
 11
204.225
 21
50.7753
 31
0.0
  0
LINE
  8
0
 62
     0
 10
204.225
 20
50.7753
 30
0.0
 11
204.225
 21
37.9748
 31
0.0
  0
LINE
  8
0
 62
     0
 10
204.225
 20
37.9748
 30
0.0
 11
205.026
 21
37.9748
 31
0.0
  0
LINE
  8
0
 62
     0
 10
205.026
 20
37.9748
 30
0.0
 11
205.026
 21
37.375
 31
0.0
  0
LINE
  8
0
 62
     0
 10
205.026
 20
37.375
 30
0.0
 11
219.025
 21
37.375
 31
0.0
  0
LINE
  8
0
 62
     0
 10
219.025
 20
37.375
 30
0.0
 11
219.025
 21
37.9748
 31
0.0
  0
LINE
  8
0
 62
     0
 10
219.025
 20
37.9748
 30
0.0
 11
219.826
 21
37.9748
 31
0.0
  0
LINE
  8
0
 62
     0
 10
219.826
 20
37.9748
 30
0.0
 11
219.826
 21
50.7753
 31
0.0
  0
LINE
  8
0
 62
     0
 10
219.826
 20
50.7753
 30
0.0
 11
219.025
 21
50.7753
 31
0.0
  0
LINE
  8
0
 62
     0
 10
219.025
 20
50.7753
 30
0.0
 11
219.025
 21
51.3747
 31
0.0
  0
LINE
  8
0
 62
     0
 10
219.025
 20
51.3747
 30
0.0
 11
205.026
 21
51.3747
 31
0.0
  0
LINE
  8
0
 62
     0
 10
116.92
 20
60.8997
 30
0.0
 11
116.92
 21
60.3003
 31
0.0
  0
LINE
  8
0
 62
     0
 10
116.92
 20
60.3003
 30
0.0
 11
116.12
 21
60.3003
 31
0.0
  0
LINE
  8
0
 62
     0
 10
116.12
 20
60.3003
 30
0.0
 11
116.12
 21
47.4998
 31
0.0
  0
LINE
  8
0
 62
     0
 10
116.12
 20
47.4998
 30
0.0
 11
116.92
 21
47.4998
 31
0.0
  0
LINE
  8
0
 62
     0
 10
116.92
 20
47.4998
 30
0.0
 11
116.92
 21
46.9
 31
0.0
  0
LINE
  8
0
 62
     0
 10
116.92
 20
46.9
 30
0.0
 11
130.919
 21
46.9
 31
0.0
  0
LINE
  8
0
 62
     0
 10
130.919
 20
46.9
 30
0.0
 11
130.919
 21
47.4998
 31
0.0
  0
LINE
  8
0
 62
     0
 10
130.919
 20
47.4998
 30
0.0
 11
131.72
 21
47.4998
 31
0.0
  0
LINE
  8
0
 62
     0
 10
131.72
 20
47.4998
 30
0.0
 11
131.72
 21
60.3003
 31
0.0
  0
LINE
  8
0
 62
     0
 10
131.72
 20
60.3003
 30
0.0
 11
130.919
 21
60.3003
 31
0.0
  0
LINE
  8
0
 62
     0
 10
130.919
 20
60.3003
 30
0.0
 11
130.919
 21
60.8997
 31
0.0
  0
LINE
  8
0
 62
     0
 10
130.919
 20
60.8997
 30
0.0
 11
116.92
 21
60.8997
 31
0.0
  0
LINE
  8
0
 62
     0
 10
147.876
 20
60.8997
 30
0.0
 11
147.876
 21
60.3003
 31
0.0
  0
LINE
  8
0
 62
     0
 10
147.876
 20
60.3003
 30
0.0
 11
147.075
 21
60.3003
 31
0.0
  0
LINE
  8
0
 62
     0
 10
147.075
 20
60.3003
 30
0.0
 11
147.075
 21
47.4998
 31
0.0
  0
LINE
  8
0
 62
     0
 10
147.075
 20
47.4998
 30
0.0
 11
147.876
 21
47.4998
 31
0.0
  0
LINE
  8
0
 62
     0
 10
147.876
 20
47.4998
 30
0.0
 11
147.876
 21
46.9
 31
0.0
  0
LINE
  8
0
 62
     0
 10
147.876
 20
46.9
 30
0.0
 11
161.875
 21
46.9
 31
0.0
  0
LINE
  8
0
 62
     0
 10
161.875
 20
46.9
 30
0.0
 11
161.875
 21
47.4998
 31
0.0
  0
LINE
  8
0
 62
     0
 10
161.875
 20
47.4998
 30
0.0
 11
162.676
 21
47.4998
 31
0.0
  0
LINE
  8
0
 62
     0
 10
162.676
 20
47.4998
 30
0.0
 11
162.676
 21
60.3003
 31
0.0
  0
LINE
  8
0
 62
     0
 10
162.676
 20
60.3003
 30
0.0
 11
161.875
 21
60.3003
 31
0.0
  0
LINE
  8
0
 62
     0
 10
161.875
 20
60.3003
 30
0.0
 11
161.875
 21
60.8997
 31
0.0
  0
LINE
  8
0
 62
     0
 10
161.875
 20
60.8997
 30
0.0
 11
147.876
 21
60.8997
 31
0.0
  0
LINE
  8
0
 62
     0
 10
2.61965
 20
63.2809
 30
0.0
 11
2.61965
 21
62.6816
 31
0.0
  0
LINE
  8
0
 62
     0
 10
2.61965
 20
62.6816
 30
0.0
 11
1.82039
 21
62.6816
 31
0.0
  0
LINE
  8
0
 62
     0
 10
1.82039
 20
62.6816
 30
0.0
 11
1.82039
 21
49.8821
 31
0.0
  0
LINE
  8
0
 62
     0
 10
1.82039
 20
49.8821
 30
0.0
 11
2.61965
 21
49.8821
 31
0.0
  0
LINE
  8
0
 62
     0
 10
2.61965
 20
49.8821
 30
0.0
 11
2.61965
 21
49.2813
 31
0.0
  0
LINE
  8
0
 62
     0
 10
2.61965
 20
49.2813
 30
0.0
 11
16.6192
 21
49.2813
 31
0.0
  0
LINE
  8
0
 62
     0
 10
16.6192
 20
49.2813
 30
0.0
 11
16.6192
 21
49.8821
 31
0.0
  0
LINE
  8
0
 62
     0
 10
16.6192
 20
49.8821
 30
0.0
 11
17.4198
 21
49.8821
 31
0.0
  0
LINE
  8
0
 62
     0
 10
17.4198
 20
49.8821
 30
0.0
 11
17.4198
 21
62.6816
 31
0.0
  0
LINE
  8
0
 62
     0
 10
17.4198
 20
62.6816
 30
0.0
 11
16.6192
 21
62.6816
 31
0.0
  0
LINE
  8
0
 62
     0
 10
16.6192
 20
62.6816
 30
0.0
 11
16.6192
 21
63.2809
 31
0.0
  0
LINE
  8
0
 62
     0
 10
16.6192
 20
63.2809
 30
0.0
 11
2.61965
 21
63.2809
 31
0.0
  0
LINE
  8
0
 62
     0
 10
262.176
 20
63.2809
 30
0.0
 11
262.176
 21
62.6816
 31
0.0
  0
LINE
  8
0
 62
     0
 10
262.176
 20
62.6816
 30
0.0
 11
261.375
 21
62.6816
 31
0.0
  0
LINE
  8
0
 62
     0
 10
261.375
 20
62.6816
 30
0.0
 11
261.375
 21
49.8821
 31
0.0
  0
LINE
  8
0
 62
     0
 10
261.375
 20
49.8821
 30
0.0
 11
262.176
 21
49.8821
 31
0.0
  0
LINE
  8
0
 62
     0
 10
262.176
 20
49.8821
 30
0.0
 11
262.176
 21
49.2813
 31
0.0
  0
LINE
  8
0
 62
     0
 10
262.176
 20
49.2813
 30
0.0
 11
276.175
 21
49.2813
 31
0.0
  0
LINE
  8
0
 62
     0
 10
276.175
 20
49.2813
 30
0.0
 11
276.175
 21
49.8821
 31
0.0
  0
LINE
  8
0
 62
     0
 10
276.175
 20
49.8821
 30
0.0
 11
276.976
 21
49.8821
 31
0.0
  0
LINE
  8
0
 62
     0
 10
276.976
 20
49.8821
 30
0.0
 11
276.976
 21
62.6816
 31
0.0
  0
LINE
  8
0
 62
     0
 10
276.976
 20
62.6816
 30
0.0
 11
276.175
 21
62.6816
 31
0.0
  0
LINE
  8
0
 62
     0
 10
276.175
 20
62.6816
 30
0.0
 11
276.175
 21
63.2809
 31
0.0
  0
LINE
  8
0
 62
     0
 10
276.175
 20
63.2809
 30
0.0
 11
262.176
 21
63.2809
 31
0.0
  0
LINE
  8
0
 62
     0
 10
21.6697
 20
65.6622
 30
0.0
 11
21.6697
 21
65.0628
 31
0.0
  0
LINE
  8
0
 62
     0
 10
21.6697
 20
65.0628
 30
0.0
 11
20.8704
 21
65.0628
 31
0.0
  0
LINE
  8
0
 62
     0
 10
20.8704
 20
65.0628
 30
0.0
 11
20.8704
 21
52.2623
 31
0.0
  0
LINE
  8
0
 62
     0
 10
20.8704
 20
52.2623
 30
0.0
 11
21.6697
 21
52.2623
 31
0.0
  0
LINE
  8
0
 62
     0
 10
21.6697
 20
52.2623
 30
0.0
 11
21.6697
 21
51.6625
 31
0.0
  0
LINE
  8
0
 62
     0
 10
21.6697
 20
51.6625
 30
0.0
 11
35.669
 21
51.6625
 31
0.0
  0
LINE
  8
0
 62
     0
 10
35.669
 20
51.6625
 30
0.0
 11
35.669
 21
52.2623
 31
0.0
  0
LINE
  8
0
 62
     0
 10
35.669
 20
52.2623
 30
0.0
 11
36.4698
 21
52.2623
 31
0.0
  0
LINE
  8
0
 62
     0
 10
36.4698
 20
52.2623
 30
0.0
 11
36.4698
 21
65.0628
 31
0.0
  0
LINE
  8
0
 62
     0
 10
36.4698
 20
65.0628
 30
0.0
 11
35.669
 21
65.0628
 31
0.0
  0
LINE
  8
0
 62
     0
 10
35.669
 20
65.0628
 30
0.0
 11
35.669
 21
65.6622
 31
0.0
  0
LINE
  8
0
 62
     0
 10
35.669
 20
65.6622
 30
0.0
 11
21.6697
 21
65.6622
 31
0.0
  0
LINE
  8
0
 62
     0
 10
97.8697
 20
65.6622
 30
0.0
 11
97.8697
 21
65.0628
 31
0.0
  0
LINE
  8
0
 62
     0
 10
97.8697
 20
65.0628
 30
0.0
 11
97.0703
 21
65.0628
 31
0.0
  0
LINE
  8
0
 62
     0
 10
97.0703
 20
65.0628
 30
0.0
 11
97.0703
 21
52.2623
 31
0.0
  0
LINE
  8
0
 62
     0
 10
97.0703
 20
52.2623
 30
0.0
 11
97.8697
 21
52.2623
 31
0.0
  0
LINE
  8
0
 62
     0
 10
97.8697
 20
52.2623
 30
0.0
 11
97.8697
 21
51.6625
 31
0.0
  0
LINE
  8
0
 62
     0
 10
97.8697
 20
51.6625
 30
0.0
 11
111.869
 21
51.6625
 31
0.0
  0
LINE
  8
0
 62
     0
 10
111.869
 20
51.6625
 30
0.0
 11
111.869
 21
52.2623
 31
0.0
  0
LINE
  8
0
 62
     0
 10
111.869
 20
52.2623
 30
0.0
 11
112.67
 21
52.2623
 31
0.0
  0
LINE
  8
0
 62
     0
 10
112.67
 20
52.2623
 30
0.0
 11
112.67
 21
65.0628
 31
0.0
  0
LINE
  8
0
 62
     0
 10
112.67
 20
65.0628
 30
0.0
 11
111.869
 21
65.0628
 31
0.0
  0
LINE
  8
0
 62
     0
 10
111.869
 20
65.0628
 30
0.0
 11
111.869
 21
65.6622
 31
0.0
  0
LINE
  8
0
 62
     0
 10
111.869
 20
65.6622
 30
0.0
 11
97.8697
 21
65.6622
 31
0.0
  0
LINE
  8
0
 62
     0
 10
166.926
 20
65.6622
 30
0.0
 11
166.926
 21
65.0628
 31
0.0
  0
LINE
  8
0
 62
     0
 10
166.926
 20
65.0628
 30
0.0
 11
166.125
 21
65.0628
 31
0.0
  0
LINE
  8
0
 62
     0
 10
166.125
 20
65.0628
 30
0.0
 11
166.125
 21
52.2623
 31
0.0
  0
LINE
  8
0
 62
     0
 10
166.125
 20
52.2623
 30
0.0
 11
166.926
 21
52.2623
 31
0.0
  0
LINE
  8
0
 62
     0
 10
166.926
 20
52.2623
 30
0.0
 11
166.926
 21
51.6625
 31
0.0
  0
LINE
  8
0
 62
     0
 10
166.926
 20
51.6625
 30
0.0
 11
180.925
 21
51.6625
 31
0.0
  0
LINE
  8
0
 62
     0
 10
180.925
 20
51.6625
 30
0.0
 11
180.925
 21
52.2623
 31
0.0
  0
LINE
  8
0
 62
     0
 10
180.925
 20
52.2623
 30
0.0
 11
181.726
 21
52.2623
 31
0.0
  0
LINE
  8
0
 62
     0
 10
181.726
 20
52.2623
 30
0.0
 11
181.726
 21
65.0628
 31
0.0
  0
LINE
  8
0
 62
     0
 10
181.726
 20
65.0628
 30
0.0
 11
180.925
 21
65.0628
 31
0.0
  0
LINE
  8
0
 62
     0
 10
180.925
 20
65.0628
 30
0.0
 11
180.925
 21
65.6622
 31
0.0
  0
LINE
  8
0
 62
     0
 10
180.925
 20
65.6622
 30
0.0
 11
166.926
 21
65.6622
 31
0.0
  0
LINE
  8
0
 62
     0
 10
243.126
 20
65.6622
 30
0.0
 11
243.126
 21
65.0628
 31
0.0
  0
LINE
  8
0
 62
     0
 10
243.126
 20
65.0628
 30
0.0
 11
242.325
 21
65.0628
 31
0.0
  0
LINE
  8
0
 62
     0
 10
242.325
 20
65.0628
 30
0.0
 11
242.325
 21
52.2623
 31
0.0
  0
LINE
  8
0
 62
     0
 10
242.325
 20
52.2623
 30
0.0
 11
243.126
 21
52.2623
 31
0.0
  0
LINE
  8
0
 62
     0
 10
243.126
 20
52.2623
 30
0.0
 11
243.126
 21
51.6625
 31
0.0
  0
LINE
  8
0
 62
     0
 10
243.126
 20
51.6625
 30
0.0
 11
257.125
 21
51.6625
 31
0.0
  0
LINE
  8
0
 62
     0
 10
257.125
 20
51.6625
 30
0.0
 11
257.125
 21
52.2623
 31
0.0
  0
LINE
  8
0
 62
     0
 10
257.125
 20
52.2623
 30
0.0
 11
257.926
 21
52.2623
 31
0.0
  0
LINE
  8
0
 62
     0
 10
257.926
 20
52.2623
 30
0.0
 11
257.926
 21
65.0628
 31
0.0
  0
LINE
  8
0
 62
     0
 10
257.926
 20
65.0628
 30
0.0
 11
257.125
 21
65.0628
 31
0.0
  0
LINE
  8
0
 62
     0
 10
257.125
 20
65.0628
 30
0.0
 11
257.125
 21
65.6622
 31
0.0
  0
LINE
  8
0
 62
     0
 10
257.125
 20
65.6622
 30
0.0
 11
243.126
 21
65.6622
 31
0.0
  0
LINE
  8
0
 62
     0
 10
40.7197
 20
68.0434
 30
0.0
 11
40.7197
 21
67.4441
 31
0.0
  0
LINE
  8
0
 62
     0
 10
40.7197
 20
67.4441
 30
0.0
 11
39.9203
 21
67.4441
 31
0.0
  0
LINE
  8
0
 62
     0
 10
39.9203
 20
67.4441
 30
0.0
 11
39.9203
 21
54.6435
 31
0.0
  0
LINE
  8
0
 62
     0
 10
39.9203
 20
54.6435
 30
0.0
 11
40.7197
 21
54.6435
 31
0.0
  0
LINE
  8
0
 62
     0
 10
40.7197
 20
54.6435
 30
0.0
 11
40.7197
 21
54.0438
 31
0.0
  0
LINE
  8
0
 62
     0
 10
40.7197
 20
54.0438
 30
0.0
 11
54.719
 21
54.0438
 31
0.0
  0
LINE
  8
0
 62
     0
 10
54.719
 20
54.0438
 30
0.0
 11
54.719
 21
54.6435
 31
0.0
  0
LINE
  8
0
 62
     0
 10
54.719
 20
54.6435
 30
0.0
 11
55.5198
 21
54.6435
 31
0.0
  0
LINE
  8
0
 62
     0
 10
55.5198
 20
54.6435
 30
0.0
 11
55.5198
 21
67.4441
 31
0.0
  0
LINE
  8
0
 62
     0
 10
55.5198
 20
67.4441
 30
0.0
 11
54.719
 21
67.4441
 31
0.0
  0
LINE
  8
0
 62
     0
 10
54.719
 20
67.4441
 30
0.0
 11
54.719
 21
68.0434
 31
0.0
  0
LINE
  8
0
 62
     0
 10
54.719
 20
68.0434
 30
0.0
 11
40.7197
 21
68.0434
 31
0.0
  0
LINE
  8
0
 62
     0
 10
78.8197
 20
68.0434
 30
0.0
 11
78.8197
 21
67.4441
 31
0.0
  0
LINE
  8
0
 62
     0
 10
78.8197
 20
67.4441
 30
0.0
 11
78.0203
 21
67.4441
 31
0.0
  0
LINE
  8
0
 62
     0
 10
78.0203
 20
67.4441
 30
0.0
 11
78.0203
 21
54.6435
 31
0.0
  0
LINE
  8
0
 62
     0
 10
78.0203
 20
54.6435
 30
0.0
 11
78.8197
 21
54.6435
 31
0.0
  0
LINE
  8
0
 62
     0
 10
78.8197
 20
54.6435
 30
0.0
 11
78.8197
 21
54.0438
 31
0.0
  0
LINE
  8
0
 62
     0
 10
78.8197
 20
54.0438
 30
0.0
 11
92.819
 21
54.0438
 31
0.0
  0
LINE
  8
0
 62
     0
 10
92.819
 20
54.0438
 30
0.0
 11
92.819
 21
54.6435
 31
0.0
  0
LINE
  8
0
 62
     0
 10
92.819
 20
54.6435
 30
0.0
 11
93.6184
 21
54.6435
 31
0.0
  0
LINE
  8
0
 62
     0
 10
93.6184
 20
54.6435
 30
0.0
 11
93.6184
 21
67.4441
 31
0.0
  0
LINE
  8
0
 62
     0
 10
93.6184
 20
67.4441
 30
0.0
 11
92.819
 21
67.4441
 31
0.0
  0
LINE
  8
0
 62
     0
 10
92.819
 20
67.4441
 30
0.0
 11
92.819
 21
68.0434
 31
0.0
  0
LINE
  8
0
 62
     0
 10
92.819
 20
68.0434
 30
0.0
 11
78.8197
 21
68.0434
 31
0.0
  0
LINE
  8
0
 62
     0
 10
185.976
 20
68.0434
 30
0.0
 11
185.976
 21
67.4441
 31
0.0
  0
LINE
  8
0
 62
     0
 10
185.976
 20
67.4441
 30
0.0
 11
185.175
 21
67.4441
 31
0.0
  0
LINE
  8
0
 62
     0
 10
185.175
 20
67.4441
 30
0.0
 11
185.175
 21
54.6435
 31
0.0
  0
LINE
  8
0
 62
     0
 10
185.175
 20
54.6435
 30
0.0
 11
185.976
 21
54.6435
 31
0.0
  0
LINE
  8
0
 62
     0
 10
185.976
 20
54.6435
 30
0.0
 11
185.976
 21
54.0438
 31
0.0
  0
LINE
  8
0
 62
     0
 10
185.976
 20
54.0438
 30
0.0
 11
199.975
 21
54.0438
 31
0.0
  0
LINE
  8
0
 62
     0
 10
199.975
 20
54.0438
 30
0.0
 11
199.975
 21
54.6435
 31
0.0
  0
LINE
  8
0
 62
     0
 10
199.975
 20
54.6435
 30
0.0
 11
200.776
 21
54.6435
 31
0.0
  0
LINE
  8
0
 62
     0
 10
200.776
 20
54.6435
 30
0.0
 11
200.776
 21
67.4441
 31
0.0
  0
LINE
  8
0
 62
     0
 10
200.776
 20
67.4441
 30
0.0
 11
199.975
 21
67.4441
 31
0.0
  0
LINE
  8
0
 62
     0
 10
199.975
 20
67.4441
 30
0.0
 11
199.975
 21
68.0434
 31
0.0
  0
LINE
  8
0
 62
     0
 10
199.975
 20
68.0434
 30
0.0
 11
185.976
 21
68.0434
 31
0.0
  0
LINE
  8
0
 62
     0
 10
224.076
 20
68.0434
 30
0.0
 11
224.076
 21
67.4441
 31
0.0
  0
LINE
  8
0
 62
     0
 10
224.076
 20
67.4441
 30
0.0
 11
223.275
 21
67.4441
 31
0.0
  0
LINE
  8
0
 62
     0
 10
223.275
 20
67.4441
 30
0.0
 11
223.275
 21
54.6435
 31
0.0
  0
LINE
  8
0
 62
     0
 10
223.275
 20
54.6435
 30
0.0
 11
224.076
 21
54.6435
 31
0.0
  0
LINE
  8
0
 62
     0
 10
224.076
 20
54.6435
 30
0.0
 11
224.076
 21
54.0438
 31
0.0
  0
LINE
  8
0
 62
     0
 10
224.076
 20
54.0438
 30
0.0
 11
238.075
 21
54.0438
 31
0.0
  0
LINE
  8
0
 62
     0
 10
238.075
 20
54.0438
 30
0.0
 11
238.075
 21
54.6435
 31
0.0
  0
LINE
  8
0
 62
     0
 10
238.075
 20
54.6435
 30
0.0
 11
238.876
 21
54.6435
 31
0.0
  0
LINE
  8
0
 62
     0
 10
238.876
 20
54.6435
 30
0.0
 11
238.876
 21
67.4441
 31
0.0
  0
LINE
  8
0
 62
     0
 10
238.876
 20
67.4441
 30
0.0
 11
238.075
 21
67.4441
 31
0.0
  0
LINE
  8
0
 62
     0
 10
238.075
 20
67.4441
 30
0.0
 11
238.075
 21
68.0434
 31
0.0
  0
LINE
  8
0
 62
     0
 10
238.075
 20
68.0434
 30
0.0
 11
224.076
 21
68.0434
 31
0.0
  0
LINE
  8
0
 62
     0
 10
59.7697
 20
70.4247
 30
0.0
 11
59.7697
 21
69.8253
 31
0.0
  0
LINE
  8
0
 62
     0
 10
59.7697
 20
69.8253
 30
0.0
 11
58.9703
 21
69.8253
 31
0.0
  0
LINE
  8
0
 62
     0
 10
58.9703
 20
69.8253
 30
0.0
 11
58.9703
 21
57.0248
 31
0.0
  0
LINE
  8
0
 62
     0
 10
58.9703
 20
57.0248
 30
0.0
 11
59.7697
 21
57.0248
 31
0.0
  0
LINE
  8
0
 62
     0
 10
59.7697
 20
57.0248
 30
0.0
 11
59.7697
 21
56.425
 31
0.0
  0
LINE
  8
0
 62
     0
 10
59.7697
 20
56.425
 30
0.0
 11
73.769
 21
56.425
 31
0.0
  0
LINE
  8
0
 62
     0
 10
73.769
 20
56.425
 30
0.0
 11
73.769
 21
57.0248
 31
0.0
  0
LINE
  8
0
 62
     0
 10
73.769
 20
57.0248
 30
0.0
 11
74.5698
 21
57.0248
 31
0.0
  0
LINE
  8
0
 62
     0
 10
74.5698
 20
57.0248
 30
0.0
 11
74.5698
 21
69.8253
 31
0.0
  0
LINE
  8
0
 62
     0
 10
74.5698
 20
69.8253
 30
0.0
 11
73.769
 21
69.8253
 31
0.0
  0
LINE
  8
0
 62
     0
 10
73.769
 20
69.8253
 30
0.0
 11
73.769
 21
70.4247
 31
0.0
  0
LINE
  8
0
 62
     0
 10
73.769
 20
70.4247
 30
0.0
 11
59.7697
 21
70.4247
 31
0.0
  0
LINE
  8
0
 62
     0
 10
205.026
 20
70.4247
 30
0.0
 11
205.026
 21
69.8253
 31
0.0
  0
LINE
  8
0
 62
     0
 10
205.026
 20
69.8253
 30
0.0
 11
204.225
 21
69.8253
 31
0.0
  0
LINE
  8
0
 62
     0
 10
204.225
 20
69.8253
 30
0.0
 11
204.225
 21
57.0248
 31
0.0
  0
LINE
  8
0
 62
     0
 10
204.225
 20
57.0248
 30
0.0
 11
205.026
 21
57.0248
 31
0.0
  0
LINE
  8
0
 62
     0
 10
205.026
 20
57.0248
 30
0.0
 11
205.026
 21
56.425
 31
0.0
  0
LINE
  8
0
 62
     0
 10
205.026
 20
56.425
 30
0.0
 11
219.025
 21
56.425
 31
0.0
  0
LINE
  8
0
 62
     0
 10
219.025
 20
56.425
 30
0.0
 11
219.025
 21
57.0248
 31
0.0
  0
LINE
  8
0
 62
     0
 10
219.025
 20
57.0248
 30
0.0
 11
219.826
 21
57.0248
 31
0.0
  0
LINE
  8
0
 62
     0
 10
219.826
 20
57.0248
 30
0.0
 11
219.826
 21
69.8253
 31
0.0
  0
LINE
  8
0
 62
     0
 10
219.826
 20
69.8253
 30
0.0
 11
219.025
 21
69.8253
 31
0.0
  0
LINE
  8
0
 62
     0
 10
219.025
 20
69.8253
 30
0.0
 11
219.025
 21
70.4247
 31
0.0
  0
LINE
  8
0
 62
     0
 10
219.025
 20
70.4247
 30
0.0
 11
205.026
 21
70.4247
 31
0.0
  0
LINE
  8
0
 62
     0
 10
116.92
 20
79.9497
 30
0.0
 11
116.92
 21
79.3503
 31
0.0
  0
LINE
  8
0
 62
     0
 10
116.92
 20
79.3503
 30
0.0
 11
116.12
 21
79.3503
 31
0.0
  0
LINE
  8
0
 62
     0
 10
116.12
 20
79.3503
 30
0.0
 11
116.12
 21
66.5498
 31
0.0
  0
LINE
  8
0
 62
     0
 10
116.12
 20
66.5498
 30
0.0
 11
116.92
 21
66.5498
 31
0.0
  0
LINE
  8
0
 62
     0
 10
116.92
 20
66.5498
 30
0.0
 11
116.92
 21
65.95
 31
0.0
  0
LINE
  8
0
 62
     0
 10
116.92
 20
65.95
 30
0.0
 11
130.919
 21
65.95
 31
0.0
  0
LINE
  8
0
 62
     0
 10
130.919
 20
65.95
 30
0.0
 11
130.919
 21
66.5498
 31
0.0
  0
LINE
  8
0
 62
     0
 10
130.919
 20
66.5498
 30
0.0
 11
131.72
 21
66.5498
 31
0.0
  0
LINE
  8
0
 62
     0
 10
131.72
 20
66.5498
 30
0.0
 11
131.72
 21
79.3503
 31
0.0
  0
LINE
  8
0
 62
     0
 10
131.72
 20
79.3503
 30
0.0
 11
130.919
 21
79.3503
 31
0.0
  0
LINE
  8
0
 62
     0
 10
130.919
 20
79.3503
 30
0.0
 11
130.919
 21
79.9497
 31
0.0
  0
LINE
  8
0
 62
     0
 10
130.919
 20
79.9497
 30
0.0
 11
116.92
 21
79.9497
 31
0.0
  0
LINE
  8
0
 62
     0
 10
147.876
 20
79.9497
 30
0.0
 11
147.876
 21
79.3503
 31
0.0
  0
LINE
  8
0
 62
     0
 10
147.876
 20
79.3503
 30
0.0
 11
147.075
 21
79.3503
 31
0.0
  0
LINE
  8
0
 62
     0
 10
147.075
 20
79.3503
 30
0.0
 11
147.075
 21
66.5498
 31
0.0
  0
LINE
  8
0
 62
     0
 10
147.075
 20
66.5498
 30
0.0
 11
147.876
 21
66.5498
 31
0.0
  0
LINE
  8
0
 62
     0
 10
147.876
 20
66.5498
 30
0.0
 11
147.876
 21
65.95
 31
0.0
  0
LINE
  8
0
 62
     0
 10
147.876
 20
65.95
 30
0.0
 11
161.875
 21
65.95
 31
0.0
  0
LINE
  8
0
 62
     0
 10
161.875
 20
65.95
 30
0.0
 11
161.875
 21
66.5498
 31
0.0
  0
LINE
  8
0
 62
     0
 10
161.875
 20
66.5498
 30
0.0
 11
162.676
 21
66.5498
 31
0.0
  0
LINE
  8
0
 62
     0
 10
162.676
 20
66.5498
 30
0.0
 11
162.676
 21
79.3503
 31
0.0
  0
LINE
  8
0
 62
     0
 10
162.676
 20
79.3503
 30
0.0
 11
161.875
 21
79.3503
 31
0.0
  0
LINE
  8
0
 62
     0
 10
161.875
 20
79.3503
 30
0.0
 11
161.875
 21
79.9497
 31
0.0
  0
LINE
  8
0
 62
     0
 10
161.875
 20
79.9497
 30
0.0
 11
147.876
 21
79.9497
 31
0.0
  0
LINE
  8
0
 62
     0
 10
2.61965
 20
82.3309
 30
0.0
 11
2.61965
 21
81.7316
 31
0.0
  0
LINE
  8
0
 62
     0
 10
2.61965
 20
81.7316
 30
0.0
 11
1.82039
 21
81.7316
 31
0.0
  0
LINE
  8
0
 62
     0
 10
1.82039
 20
81.7316
 30
0.0
 11
1.82039
 21
68.9321
 31
0.0
  0
LINE
  8
0
 62
     0
 10
1.82039
 20
68.9321
 30
0.0
 11
2.61965
 21
68.9321
 31
0.0
  0
LINE
  8
0
 62
     0
 10
2.61965
 20
68.9321
 30
0.0
 11
2.61965
 21
68.3313
 31
0.0
  0
LINE
  8
0
 62
     0
 10
2.61965
 20
68.3313
 30
0.0
 11
16.6192
 21
68.3313
 31
0.0
  0
LINE
  8
0
 62
     0
 10
16.6192
 20
68.3313
 30
0.0
 11
16.6192
 21
68.9321
 31
0.0
  0
LINE
  8
0
 62
     0
 10
16.6192
 20
68.9321
 30
0.0
 11
17.4198
 21
68.9321
 31
0.0
  0
LINE
  8
0
 62
     0
 10
17.4198
 20
68.9321
 30
0.0
 11
17.4198
 21
81.7316
 31
0.0
  0
LINE
  8
0
 62
     0
 10
17.4198
 20
81.7316
 30
0.0
 11
16.6192
 21
81.7316
 31
0.0
  0
LINE
  8
0
 62
     0
 10
16.6192
 20
81.7316
 30
0.0
 11
16.6192
 21
82.3309
 31
0.0
  0
LINE
  8
0
 62
     0
 10
16.6192
 20
82.3309
 30
0.0
 11
2.61965
 21
82.3309
 31
0.0
  0
LINE
  8
0
 62
     0
 10
262.176
 20
82.3309
 30
0.0
 11
262.176
 21
81.7316
 31
0.0
  0
LINE
  8
0
 62
     0
 10
262.176
 20
81.7316
 30
0.0
 11
261.375
 21
81.7316
 31
0.0
  0
LINE
  8
0
 62
     0
 10
261.375
 20
81.7316
 30
0.0
 11
261.375
 21
68.9321
 31
0.0
  0
LINE
  8
0
 62
     0
 10
261.375
 20
68.9321
 30
0.0
 11
262.176
 21
68.9321
 31
0.0
  0
LINE
  8
0
 62
     0
 10
262.176
 20
68.9321
 30
0.0
 11
262.176
 21
68.3313
 31
0.0
  0
LINE
  8
0
 62
     0
 10
262.176
 20
68.3313
 30
0.0
 11
276.175
 21
68.3313
 31
0.0
  0
LINE
  8
0
 62
     0
 10
276.175
 20
68.3313
 30
0.0
 11
276.175
 21
68.9321
 31
0.0
  0
LINE
  8
0
 62
     0
 10
276.175
 20
68.9321
 30
0.0
 11
276.976
 21
68.9321
 31
0.0
  0
LINE
  8
0
 62
     0
 10
276.976
 20
68.9321
 30
0.0
 11
276.976
 21
81.7316
 31
0.0
  0
LINE
  8
0
 62
     0
 10
276.976
 20
81.7316
 30
0.0
 11
276.175
 21
81.7316
 31
0.0
  0
LINE
  8
0
 62
     0
 10
276.175
 20
81.7316
 30
0.0
 11
276.175
 21
82.3309
 31
0.0
  0
LINE
  8
0
 62
     0
 10
276.175
 20
82.3309
 30
0.0
 11
262.176
 21
82.3309
 31
0.0
  0
LINE
  8
0
 62
     0
 10
21.6697
 20
84.7122
 30
0.0
 11
21.6697
 21
84.1128
 31
0.0
  0
LINE
  8
0
 62
     0
 10
21.6697
 20
84.1128
 30
0.0
 11
20.8704
 21
84.1128
 31
0.0
  0
LINE
  8
0
 62
     0
 10
20.8704
 20
84.1128
 30
0.0
 11
20.8704
 21
71.3123
 31
0.0
  0
LINE
  8
0
 62
     0
 10
20.8704
 20
71.3123
 30
0.0
 11
21.6697
 21
71.3123
 31
0.0
  0
LINE
  8
0
 62
     0
 10
21.6697
 20
71.3123
 30
0.0
 11
21.6697
 21
70.7125
 31
0.0
  0
LINE
  8
0
 62
     0
 10
21.6697
 20
70.7125
 30
0.0
 11
35.669
 21
70.7125
 31
0.0
  0
LINE
  8
0
 62
     0
 10
35.669
 20
70.7125
 30
0.0
 11
35.669
 21
71.3123
 31
0.0
  0
LINE
  8
0
 62
     0
 10
35.669
 20
71.3123
 30
0.0
 11
36.4698
 21
71.3123
 31
0.0
  0
LINE
  8
0
 62
     0
 10
36.4698
 20
71.3123
 30
0.0
 11
36.4698
 21
84.1128
 31
0.0
  0
LINE
  8
0
 62
     0
 10
36.4698
 20
84.1128
 30
0.0
 11
35.669
 21
84.1128
 31
0.0
  0
LINE
  8
0
 62
     0
 10
35.669
 20
84.1128
 30
0.0
 11
35.669
 21
84.7122
 31
0.0
  0
LINE
  8
0
 62
     0
 10
35.669
 20
84.7122
 30
0.0
 11
21.6697
 21
84.7122
 31
0.0
  0
LINE
  8
0
 62
     0
 10
97.8697
 20
84.7122
 30
0.0
 11
97.8697
 21
84.1128
 31
0.0
  0
LINE
  8
0
 62
     0
 10
97.8697
 20
84.1128
 30
0.0
 11
97.0703
 21
84.1128
 31
0.0
  0
LINE
  8
0
 62
     0
 10
97.0703
 20
84.1128
 30
0.0
 11
97.0703
 21
71.3123
 31
0.0
  0
LINE
  8
0
 62
     0
 10
97.0703
 20
71.3123
 30
0.0
 11
97.8697
 21
71.3123
 31
0.0
  0
LINE
  8
0
 62
     0
 10
97.8697
 20
71.3123
 30
0.0
 11
97.8697
 21
70.7125
 31
0.0
  0
LINE
  8
0
 62
     0
 10
97.8697
 20
70.7125
 30
0.0
 11
111.869
 21
70.7125
 31
0.0
  0
LINE
  8
0
 62
     0
 10
111.869
 20
70.7125
 30
0.0
 11
111.869
 21
71.3123
 31
0.0
  0
LINE
  8
0
 62
     0
 10
111.869
 20
71.3123
 30
0.0
 11
112.67
 21
71.3123
 31
0.0
  0
LINE
  8
0
 62
     0
 10
112.67
 20
71.3123
 30
0.0
 11
112.67
 21
84.1128
 31
0.0
  0
LINE
  8
0
 62
     0
 10
112.67
 20
84.1128
 30
0.0
 11
111.869
 21
84.1128
 31
0.0
  0
LINE
  8
0
 62
     0
 10
111.869
 20
84.1128
 30
0.0
 11
111.869
 21
84.7122
 31
0.0
  0
LINE
  8
0
 62
     0
 10
111.869
 20
84.7122
 30
0.0
 11
97.8697
 21
84.7122
 31
0.0
  0
LINE
  8
0
 62
     0
 10
166.926
 20
84.7122
 30
0.0
 11
166.926
 21
84.1128
 31
0.0
  0
LINE
  8
0
 62
     0
 10
166.926
 20
84.1128
 30
0.0
 11
166.125
 21
84.1128
 31
0.0
  0
LINE
  8
0
 62
     0
 10
166.125
 20
84.1128
 30
0.0
 11
166.125
 21
71.3123
 31
0.0
  0
LINE
  8
0
 62
     0
 10
166.125
 20
71.3123
 30
0.0
 11
166.926
 21
71.3123
 31
0.0
  0
LINE
  8
0
 62
     0
 10
166.926
 20
71.3123
 30
0.0
 11
166.926
 21
70.7125
 31
0.0
  0
LINE
  8
0
 62
     0
 10
166.926
 20
70.7125
 30
0.0
 11
180.925
 21
70.7125
 31
0.0
  0
LINE
  8
0
 62
     0
 10
180.925
 20
70.7125
 30
0.0
 11
180.925
 21
71.3123
 31
0.0
  0
LINE
  8
0
 62
     0
 10
180.925
 20
71.3123
 30
0.0
 11
181.726
 21
71.3123
 31
0.0
  0
LINE
  8
0
 62
     0
 10
181.726
 20
71.3123
 30
0.0
 11
181.726
 21
84.1128
 31
0.0
  0
LINE
  8
0
 62
     0
 10
181.726
 20
84.1128
 30
0.0
 11
180.925
 21
84.1128
 31
0.0
  0
LINE
  8
0
 62
     0
 10
180.925
 20
84.1128
 30
0.0
 11
180.925
 21
84.7122
 31
0.0
  0
LINE
  8
0
 62
     0
 10
180.925
 20
84.7122
 30
0.0
 11
166.926
 21
84.7122
 31
0.0
  0
LINE
  8
0
 62
     0
 10
243.126
 20
84.7122
 30
0.0
 11
243.126
 21
84.1128
 31
0.0
  0
LINE
  8
0
 62
     0
 10
243.126
 20
84.1128
 30
0.0
 11
242.325
 21
84.1128
 31
0.0
  0
LINE
  8
0
 62
     0
 10
242.325
 20
84.1128
 30
0.0
 11
242.325
 21
71.3123
 31
0.0
  0
LINE
  8
0
 62
     0
 10
242.325
 20
71.3123
 30
0.0
 11
243.126
 21
71.3123
 31
0.0
  0
LINE
  8
0
 62
     0
 10
243.126
 20
71.3123
 30
0.0
 11
243.126
 21
70.7125
 31
0.0
  0
LINE
  8
0
 62
     0
 10
243.126
 20
70.7125
 30
0.0
 11
257.125
 21
70.7125
 31
0.0
  0
LINE
  8
0
 62
     0
 10
257.125
 20
70.7125
 30
0.0
 11
257.125
 21
71.3123
 31
0.0
  0
LINE
  8
0
 62
     0
 10
257.125
 20
71.3123
 30
0.0
 11
257.926
 21
71.3123
 31
0.0
  0
LINE
  8
0
 62
     0
 10
257.926
 20
71.3123
 30
0.0
 11
257.926
 21
84.1128
 31
0.0
  0
LINE
  8
0
 62
     0
 10
257.926
 20
84.1128
 30
0.0
 11
257.125
 21
84.1128
 31
0.0
  0
LINE
  8
0
 62
     0
 10
257.125
 20
84.1128
 30
0.0
 11
257.125
 21
84.7122
 31
0.0
  0
LINE
  8
0
 62
     0
 10
257.125
 20
84.7122
 30
0.0
 11
243.126
 21
84.7122
 31
0.0
  0
LINE
  8
0
 62
     0
 10
40.7197
 20
87.0934
 30
0.0
 11
40.7197
 21
86.4941
 31
0.0
  0
LINE
  8
0
 62
     0
 10
40.7197
 20
86.4941
 30
0.0
 11
39.9203
 21
86.4941
 31
0.0
  0
LINE
  8
0
 62
     0
 10
39.9203
 20
86.4941
 30
0.0
 11
39.9203
 21
73.6935
 31
0.0
  0
LINE
  8
0
 62
     0
 10
39.9203
 20
73.6935
 30
0.0
 11
40.7197
 21
73.6935
 31
0.0
  0
LINE
  8
0
 62
     0
 10
40.7197
 20
73.6935
 30
0.0
 11
40.7197
 21
73.0938
 31
0.0
  0
LINE
  8
0
 62
     0
 10
40.7197
 20
73.0938
 30
0.0
 11
54.719
 21
73.0938
 31
0.0
  0
LINE
  8
0
 62
     0
 10
54.719
 20
73.0938
 30
0.0
 11
54.719
 21
73.6935
 31
0.0
  0
LINE
  8
0
 62
     0
 10
54.719
 20
73.6935
 30
0.0
 11
55.5198
 21
73.6935
 31
0.0
  0
LINE
  8
0
 62
     0
 10
55.5198
 20
73.6935
 30
0.0
 11
55.5198
 21
86.4941
 31
0.0
  0
LINE
  8
0
 62
     0
 10
55.5198
 20
86.4941
 30
0.0
 11
54.719
 21
86.4941
 31
0.0
  0
LINE
  8
0
 62
     0
 10
54.719
 20
86.4941
 30
0.0
 11
54.719
 21
87.0934
 31
0.0
  0
LINE
  8
0
 62
     0
 10
54.719
 20
87.0934
 30
0.0
 11
40.7197
 21
87.0934
 31
0.0
  0
LINE
  8
0
 62
     0
 10
78.8197
 20
87.0934
 30
0.0
 11
78.8197
 21
86.4941
 31
0.0
  0
LINE
  8
0
 62
     0
 10
78.8197
 20
86.4941
 30
0.0
 11
78.0203
 21
86.4941
 31
0.0
  0
LINE
  8
0
 62
     0
 10
78.0203
 20
86.4941
 30
0.0
 11
78.0203
 21
73.6935
 31
0.0
  0
LINE
  8
0
 62
     0
 10
78.0203
 20
73.6935
 30
0.0
 11
78.8197
 21
73.6935
 31
0.0
  0
LINE
  8
0
 62
     0
 10
78.8197
 20
73.6935
 30
0.0
 11
78.8197
 21
73.0938
 31
0.0
  0
LINE
  8
0
 62
     0
 10
78.8197
 20
73.0938
 30
0.0
 11
92.819
 21
73.0938
 31
0.0
  0
LINE
  8
0
 62
     0
 10
92.819
 20
73.0938
 30
0.0
 11
92.819
 21
73.6935
 31
0.0
  0
LINE
  8
0
 62
     0
 10
92.819
 20
73.6935
 30
0.0
 11
93.6184
 21
73.6935
 31
0.0
  0
LINE
  8
0
 62
     0
 10
93.6184
 20
73.6935
 30
0.0
 11
93.6184
 21
86.4941
 31
0.0
  0
LINE
  8
0
 62
     0
 10
93.6184
 20
86.4941
 30
0.0
 11
92.819
 21
86.4941
 31
0.0
  0
LINE
  8
0
 62
     0
 10
92.819
 20
86.4941
 30
0.0
 11
92.819
 21
87.0934
 31
0.0
  0
LINE
  8
0
 62
     0
 10
92.819
 20
87.0934
 30
0.0
 11
78.8197
 21
87.0934
 31
0.0
  0
LINE
  8
0
 62
     0
 10
185.976
 20
87.0934
 30
0.0
 11
185.976
 21
86.4941
 31
0.0
  0
LINE
  8
0
 62
     0
 10
185.976
 20
86.4941
 30
0.0
 11
185.175
 21
86.4941
 31
0.0
  0
LINE
  8
0
 62
     0
 10
185.175
 20
86.4941
 30
0.0
 11
185.175
 21
73.6935
 31
0.0
  0
LINE
  8
0
 62
     0
 10
185.175
 20
73.6935
 30
0.0
 11
185.976
 21
73.6935
 31
0.0
  0
LINE
  8
0
 62
     0
 10
185.976
 20
73.6935
 30
0.0
 11
185.976
 21
73.0938
 31
0.0
  0
LINE
  8
0
 62
     0
 10
185.976
 20
73.0938
 30
0.0
 11
199.975
 21
73.0938
 31
0.0
  0
LINE
  8
0
 62
     0
 10
199.975
 20
73.0938
 30
0.0
 11
199.975
 21
73.6935
 31
0.0
  0
LINE
  8
0
 62
     0
 10
199.975
 20
73.6935
 30
0.0
 11
200.776
 21
73.6935
 31
0.0
  0
LINE
  8
0
 62
     0
 10
200.776
 20
73.6935
 30
0.0
 11
200.776
 21
86.4941
 31
0.0
  0
LINE
  8
0
 62
     0
 10
200.776
 20
86.4941
 30
0.0
 11
199.975
 21
86.4941
 31
0.0
  0
LINE
  8
0
 62
     0
 10
199.975
 20
86.4941
 30
0.0
 11
199.975
 21
87.0934
 31
0.0
  0
LINE
  8
0
 62
     0
 10
199.975
 20
87.0934
 30
0.0
 11
185.976
 21
87.0934
 31
0.0
  0
LINE
  8
0
 62
     0
 10
224.076
 20
87.0934
 30
0.0
 11
224.076
 21
86.4941
 31
0.0
  0
LINE
  8
0
 62
     0
 10
224.076
 20
86.4941
 30
0.0
 11
223.275
 21
86.4941
 31
0.0
  0
LINE
  8
0
 62
     0
 10
223.275
 20
86.4941
 30
0.0
 11
223.275
 21
73.6935
 31
0.0
  0
LINE
  8
0
 62
     0
 10
223.275
 20
73.6935
 30
0.0
 11
224.076
 21
73.6935
 31
0.0
  0
LINE
  8
0
 62
     0
 10
224.076
 20
73.6935
 30
0.0
 11
224.076
 21
73.0938
 31
0.0
  0
LINE
  8
0
 62
     0
 10
224.076
 20
73.0938
 30
0.0
 11
238.075
 21
73.0938
 31
0.0
  0
LINE
  8
0
 62
     0
 10
238.075
 20
73.0938
 30
0.0
 11
238.075
 21
73.6935
 31
0.0
  0
LINE
  8
0
 62
     0
 10
238.075
 20
73.6935
 30
0.0
 11
238.876
 21
73.6935
 31
0.0
  0
LINE
  8
0
 62
     0
 10
238.876
 20
73.6935
 30
0.0
 11
238.876
 21
86.4941
 31
0.0
  0
LINE
  8
0
 62
     0
 10
238.876
 20
86.4941
 30
0.0
 11
238.075
 21
86.4941
 31
0.0
  0
LINE
  8
0
 62
     0
 10
238.075
 20
86.4941
 30
0.0
 11
238.075
 21
87.0934
 31
0.0
  0
LINE
  8
0
 62
     0
 10
238.075
 20
87.0934
 30
0.0
 11
224.076
 21
87.0934
 31
0.0
  0
LINE
  8
0
 62
     0
 10
59.7697
 20
89.4747
 30
0.0
 11
59.7697
 21
88.8753
 31
0.0
  0
LINE
  8
0
 62
     0
 10
59.7697
 20
88.8753
 30
0.0
 11
58.9703
 21
88.8753
 31
0.0
  0
LINE
  8
0
 62
     0
 10
58.9703
 20
88.8753
 30
0.0
 11
58.9703
 21
76.0748
 31
0.0
  0
LINE
  8
0
 62
     0
 10
58.9703
 20
76.0748
 30
0.0
 11
59.7697
 21
76.0748
 31
0.0
  0
LINE
  8
0
 62
     0
 10
59.7697
 20
76.0748
 30
0.0
 11
59.7697
 21
75.475
 31
0.0
  0
LINE
  8
0
 62
     0
 10
59.7697
 20
75.475
 30
0.0
 11
73.769
 21
75.475
 31
0.0
  0
LINE
  8
0
 62
     0
 10
73.769
 20
75.475
 30
0.0
 11
73.769
 21
76.0748
 31
0.0
  0
LINE
  8
0
 62
     0
 10
73.769
 20
76.0748
 30
0.0
 11
74.5698
 21
76.0748
 31
0.0
  0
LINE
  8
0
 62
     0
 10
74.5698
 20
76.0748
 30
0.0
 11
74.5698
 21
88.8753
 31
0.0
  0
LINE
  8
0
 62
     0
 10
74.5698
 20
88.8753
 30
0.0
 11
73.769
 21
88.8753
 31
0.0
  0
LINE
  8
0
 62
     0
 10
73.769
 20
88.8753
 30
0.0
 11
73.769
 21
89.4747
 31
0.0
  0
LINE
  8
0
 62
     0
 10
73.769
 20
89.4747
 30
0.0
 11
59.7697
 21
89.4747
 31
0.0
  0
LINE
  8
0
 62
     0
 10
205.026
 20
89.4747
 30
0.0
 11
205.026
 21
88.8753
 31
0.0
  0
LINE
  8
0
 62
     0
 10
205.026
 20
88.8753
 30
0.0
 11
204.225
 21
88.8753
 31
0.0
  0
LINE
  8
0
 62
     0
 10
204.225
 20
88.8753
 30
0.0
 11
204.225
 21
76.0748
 31
0.0
  0
LINE
  8
0
 62
     0
 10
204.225
 20
76.0748
 30
0.0
 11
205.026
 21
76.0748
 31
0.0
  0
LINE
  8
0
 62
     0
 10
205.026
 20
76.0748
 30
0.0
 11
205.026
 21
75.475
 31
0.0
  0
LINE
  8
0
 62
     0
 10
205.026
 20
75.475
 30
0.0
 11
219.025
 21
75.475
 31
0.0
  0
LINE
  8
0
 62
     0
 10
219.025
 20
75.475
 30
0.0
 11
219.025
 21
76.0748
 31
0.0
  0
LINE
  8
0
 62
     0
 10
219.025
 20
76.0748
 30
0.0
 11
219.826
 21
76.0748
 31
0.0
  0
LINE
  8
0
 62
     0
 10
219.826
 20
76.0748
 30
0.0
 11
219.826
 21
88.8753
 31
0.0
  0
LINE
  8
0
 62
     0
 10
219.826
 20
88.8753
 30
0.0
 11
219.025
 21
88.8753
 31
0.0
  0
LINE
  8
0
 62
     0
 10
219.025
 20
88.8753
 30
0.0
 11
219.025
 21
89.4747
 31
0.0
  0
LINE
  8
0
 62
     0
 10
219.025
 20
89.4747
 30
0.0
 11
205.026
 21
89.4747
 31
0.0
  0
ENDSEC
  0
EOF
