  0
SECTION
  2
HEADER
  9
$ACADVER
  1
AC1009
  9
$EXTMIN
 10
0.0
 20
0.0
 30
0.0
  9
$EXTMAX
 10
1000.0
 20
1000.0
 30
0.0
  9
$FILLMODE
 70
 0
  9
$SPLFRAME
 70
 1
  0
ENDSEC
  0
SECTION
  2
TABLES
  0
TABLE
  2
LAYER
 70
1
  0
LAYER
  2
0
 70
     0
 62
     7
  6
CONTINUOUS
  0
ENDTAB
  0
ENDSEC
  0
SECTION
  2
ENTITIES
  0
LINE
  8
0
 62
     0
 10
0.0937066
 20
92.8744
 30
0.0
 11
142.967
 21
92.8744
 31
0.0
  0
LINE
  8
0
 62
     0
 10
142.967
 20
92.8744
 30
0.0
 11
142.967
 21
0.0895724
 31
0.0
  0
LINE
  8
0
 62
     0
 10
142.967
 20
0.0895724
 30
0.0
 11
0.0937066
 21
0.0895724
 31
0.0
  0
LINE
  8
0
 62
     0
 10
0.0937066
 20
0.0895724
 30
0.0
 11
0.0937066
 21
92.8744
 31
0.0
  0
LINE
  8
0
 62
     0
 10
119.08
 20
35.8525
 30
0.0
 11
118.283
 21
36.3114
 31
0.0
  0
LINE
  8
0
 62
     0
 10
118.283
 20
36.3114
 30
0.0
 11
116.633
 21
33.4546
 31
0.0
  0
LINE
  8
0
 62
     0
 10
116.633
 20
33.4546
 30
0.0
 11
117.429
 21
32.9944
 31
0.0
  0
LINE
  8
0
 62
     0
 10
117.429
 20
32.9944
 30
0.0
 11
116.567
 21
31.5006
 31
0.0
  0
LINE
  8
0
 62
     0
 10
116.567
 20
31.5006
 30
0.0
 11
119.364
 21
29.8855
 31
0.0
  0
LINE
  8
0
 62
     0
 10
119.364
 20
29.8855
 30
0.0
 11
119.002
 21
29.2571
 31
0.0
  0
LINE
  8
0
 62
     0
 10
119.002
 20
29.2571
 30
0.0
 11
115.451
 21
31.309
 31
0.0
  0
LINE
  8
0
 62
     0
 10
115.451
 20
31.309
 30
0.0
 11
115.051
 21
30.6159
 31
0.0
  0
LINE
  8
0
 62
     0
 10
115.051
 20
30.6159
 30
0.0
 11
114.531
 21
30.9163
 31
0.0
  0
LINE
  8
0
 62
     0
 10
114.531
 20
30.9163
 30
0.0
 11
107.531
 21
18.7895
 31
0.0
  0
LINE
  8
0
 62
     0
 10
107.531
 20
18.7895
 30
0.0
 11
108.051
 21
18.4905
 31
0.0
  0
LINE
  8
0
 62
     0
 10
108.051
 20
18.4905
 30
0.0
 11
107.651
 21
17.7987
 31
0.0
  0
LINE
  8
0
 62
     0
 10
107.651
 20
17.7987
 30
0.0
 11
111.202
 21
15.7468
 31
0.0
  0
LINE
  8
0
 62
     0
 10
111.202
 20
15.7468
 30
0.0
 11
110.839
 21
15.1212
 31
0.0
  0
LINE
  8
0
 62
     0
 10
110.839
 20
15.1212
 30
0.0
 11
108.042
 21
16.7349
 31
0.0
  0
LINE
  8
0
 62
     0
 10
108.042
 20
16.7349
 30
0.0
 11
107.18
 21
15.2411
 31
0.0
  0
LINE
  8
0
 62
     0
 10
107.18
 20
15.2411
 30
0.0
 11
106.383
 21
15.7014
 31
0.0
  0
LINE
  8
0
 62
     0
 10
106.383
 20
15.7014
 30
0.0
 11
104.732
 21
12.8433
 31
0.0
  0
LINE
  8
0
 62
     0
 10
104.732
 20
12.8433
 30
0.0
 11
105.53
 21
12.3817
 31
0.0
  0
LINE
  8
0
 62
     0
 10
105.53
 20
12.3817
 30
0.0
 11
104.666
 21
10.8893
 31
0.0
  0
LINE
  8
0
 62
     0
 10
104.666
 20
10.8893
 30
0.0
 11
107.464
 21
9.27421
 31
0.0
  0
LINE
  8
0
 62
     0
 10
107.464
 20
9.27421
 30
0.0
 11
107.051
 21
8.55899
 31
0.0
  0
LINE
  8
0
 62
     0
 10
107.051
 20
8.55899
 30
0.0
 11
109.477
 21
7.1603
 31
0.0
  0
LINE
  8
0
 62
     0
 10
109.477
 20
7.1603
 30
0.0
 11
109.889
 21
7.87411
 31
0.0
  0
LINE
  8
0
 62
     0
 10
109.889
 20
7.87411
 30
0.0
 11
115.318
 21
4.7377
 31
0.0
  0
LINE
  8
0
 62
     0
 10
115.318
 20
4.7377
 30
0.0
 11
116.182
 21
6.23425
 31
0.0
  0
LINE
  8
0
 62
     0
 10
116.182
 20
6.23425
 30
0.0
 11
117.03
 21
5.74368
 31
0.0
  0
LINE
  8
0
 62
     0
 10
117.03
 20
5.74368
 30
0.0
 11
118.679
 21
8.60171
 31
0.0
  0
LINE
  8
0
 62
     0
 10
118.679
 20
8.60171
 30
0.0
 11
117.832
 21
9.08953
 31
0.0
  0
LINE
  8
0
 62
     0
 10
117.832
 20
9.08953
 30
0.0
 11
118.693
 21
10.5861
 31
0.0
  0
LINE
  8
0
 62
     0
 10
118.693
 20
10.5861
 30
0.0
 11
114.822
 21
12.8213
 31
0.0
  0
LINE
  8
0
 62
     0
 10
114.822
 20
12.8213
 30
0.0
 11
115.186
 21
13.4483
 31
0.0
  0
LINE
  8
0
 62
     0
 10
115.186
 20
13.4483
 30
0.0
 11
118.736
 21
11.3978
 31
0.0
  0
LINE
  8
0
 62
     0
 10
118.736
 20
11.3978
 30
0.0
 11
119.136
 21
12.0895
 31
0.0
  0
LINE
  8
0
 62
     0
 10
119.136
 20
12.0895
 30
0.0
 11
119.655
 21
11.7905
 31
0.0
  0
LINE
  8
0
 62
     0
 10
119.655
 20
11.7905
 30
0.0
 11
126.655
 21
23.9159
 31
0.0
  0
LINE
  8
0
 62
     0
 10
126.655
 20
23.9159
 30
0.0
 11
126.136
 21
24.2149
 31
0.0
  0
LINE
  8
0
 62
     0
 10
126.136
 20
24.2149
 30
0.0
 11
126.536
 21
24.9067
 31
0.0
  0
LINE
  8
0
 62
     0
 10
126.536
 20
24.9067
 30
0.0
 11
122.986
 21
26.9586
 31
0.0
  0
LINE
  8
0
 62
     0
 10
122.986
 20
26.9586
 30
0.0
 11
123.347
 21
27.5856
 31
0.0
  0
LINE
  8
0
 62
     0
 10
123.347
 20
27.5856
 30
0.0
 11
127.219
 21
25.349
 31
0.0
  0
LINE
  8
0
 62
     0
 10
127.219
 20
25.349
 30
0.0
 11
128.082
 21
26.8442
 31
0.0
  0
LINE
  8
0
 62
     0
 10
128.082
 20
26.8442
 30
0.0
 11
128.929
 21
26.355
 31
0.0
  0
LINE
  8
0
 62
     0
 10
128.929
 20
26.355
 30
0.0
 11
130.58
 21
29.2117
 31
0.0
  0
LINE
  8
0
 62
     0
 10
130.58
 20
29.2117
 30
0.0
 11
129.731
 21
29.7022
 31
0.0
  0
LINE
  8
0
 62
     0
 10
129.731
 20
29.7022
 30
0.0
 11
130.594
 21
31.196
 31
0.0
  0
LINE
  8
0
 62
     0
 10
130.594
 20
31.196
 30
0.0
 11
125.163
 21
34.3297
 31
0.0
  0
LINE
  8
0
 62
     0
 10
125.163
 20
34.3297
 30
0.0
 11
125.577
 21
35.0463
 31
0.0
  0
LINE
  8
0
 62
     0
 10
125.577
 20
35.0463
 30
0.0
 11
123.151
 21
36.4451
 31
0.0
  0
LINE
  8
0
 62
     0
 10
123.151
 20
36.4451
 30
0.0
 11
122.739
 21
35.7311
 31
0.0
  0
LINE
  8
0
 62
     0
 10
122.739
 20
35.7311
 30
0.0
 11
119.942
 21
37.3461
 31
0.0
  0
LINE
  8
0
 62
     0
 10
119.942
 20
37.3461
 30
0.0
 11
119.08
 21
35.8525
 31
0.0
  0
ENDSEC
  0
EOF
