G04 #@! TF.GenerationSoftware,KiCad,Pcbnew,(5.0.0)*
G04 #@! TF.CreationDate,2019-03-31T09:13:50-06:00*
G04 #@! TF.ProjectId,Top Plate,546F7020506C6174652E6B696361645F,rev?*
G04 #@! TF.SameCoordinates,Original*
G04 #@! TF.FileFunction,Legend,Top*
G04 #@! TF.FilePolarity,Positive*
%FSLAX46Y46*%
G04 Gerber Fmt 4.6, Leading zero omitted, Abs format (unit mm)*
G04 Created by KiCad (PCBNEW (5.0.0)) date 03/31/19 09:13:50*
%MOMM*%
%LPD*%
G01*
G04 APERTURE LIST*
%ADD10C,0.100000*%
G04 APERTURE END LIST*
D10*
X98610952Y-71842380D02*
X98610952Y-72556666D01*
X98563333Y-72699523D01*
X98468095Y-72794761D01*
X98325238Y-72842380D01*
X98230000Y-72842380D01*
X99563333Y-72842380D02*
X99087142Y-72842380D01*
X99087142Y-71842380D01*
X100468095Y-72747142D02*
X100420476Y-72794761D01*
X100277619Y-72842380D01*
X100182380Y-72842380D01*
X100039523Y-72794761D01*
X99944285Y-72699523D01*
X99896666Y-72604285D01*
X99849047Y-72413809D01*
X99849047Y-72270952D01*
X99896666Y-72080476D01*
X99944285Y-71985238D01*
X100039523Y-71890000D01*
X100182380Y-71842380D01*
X100277619Y-71842380D01*
X100420476Y-71890000D01*
X100468095Y-71937619D01*
X101182380Y-71842380D02*
X101182380Y-72556666D01*
X101134761Y-72699523D01*
X101039523Y-72794761D01*
X100896666Y-72842380D01*
X100801428Y-72842380D01*
X102134761Y-72842380D02*
X101658571Y-72842380D01*
X101658571Y-71842380D01*
X103039523Y-72747142D02*
X102991904Y-72794761D01*
X102849047Y-72842380D01*
X102753809Y-72842380D01*
X102610952Y-72794761D01*
X102515714Y-72699523D01*
X102468095Y-72604285D01*
X102420476Y-72413809D01*
X102420476Y-72270952D01*
X102468095Y-72080476D01*
X102515714Y-71985238D01*
X102610952Y-71890000D01*
X102753809Y-71842380D01*
X102849047Y-71842380D01*
X102991904Y-71890000D01*
X103039523Y-71937619D01*
X103753809Y-71842380D02*
X103753809Y-72556666D01*
X103706190Y-72699523D01*
X103610952Y-72794761D01*
X103468095Y-72842380D01*
X103372857Y-72842380D01*
X104706190Y-72842380D02*
X104230000Y-72842380D01*
X104230000Y-71842380D01*
X105610952Y-72747142D02*
X105563333Y-72794761D01*
X105420476Y-72842380D01*
X105325238Y-72842380D01*
X105182380Y-72794761D01*
X105087142Y-72699523D01*
X105039523Y-72604285D01*
X104991904Y-72413809D01*
X104991904Y-72270952D01*
X105039523Y-72080476D01*
X105087142Y-71985238D01*
X105182380Y-71890000D01*
X105325238Y-71842380D01*
X105420476Y-71842380D01*
X105563333Y-71890000D01*
X105610952Y-71937619D01*
X106325238Y-71842380D02*
X106325238Y-72556666D01*
X106277619Y-72699523D01*
X106182380Y-72794761D01*
X106039523Y-72842380D01*
X105944285Y-72842380D01*
X107277619Y-72842380D02*
X106801428Y-72842380D01*
X106801428Y-71842380D01*
X108182380Y-72747142D02*
X108134761Y-72794761D01*
X107991904Y-72842380D01*
X107896666Y-72842380D01*
X107753809Y-72794761D01*
X107658571Y-72699523D01*
X107610952Y-72604285D01*
X107563333Y-72413809D01*
X107563333Y-72270952D01*
X107610952Y-72080476D01*
X107658571Y-71985238D01*
X107753809Y-71890000D01*
X107896666Y-71842380D01*
X107991904Y-71842380D01*
X108134761Y-71890000D01*
X108182380Y-71937619D01*
M02*
