  0
SECTION
  2
HEADER
  9
$ANGBASE
  50
0.0
  9
$ANGDIR
  70
  1
  9
$MEASUREMENT
  70
0
  0
ENDSEC
  0
SECTION
  2
TABLES
  0
TABLE
  2
LTYPE
  70
1
  0
LTYPE
  2
CONTINUOUS
  70
0
  3
Solid line
  72
65
  73
0
  40
0.0
  0
ENDTAB
  0
TABLE
  2
STYLE
  70
4
  0
STYLE
  2
KICAD
  70
0
  40
0
  41
1
  42
1
  50
0
  71
0
  3
isocp.shx
  0
STYLE
  2
KICADB
  70
0
  40
0
  41
1
  42
1
  50
0
  71
0
  3
isocp.shx
  0
STYLE
  2
KICADI
  70
0
  40
0
  41
1
  42
1
  50
15
  71
0
  3
isocp.shx
  0
STYLE
  2
KICADBI
  70
0
  40
0
  41
1
  42
1
  50
15
  71
0
  3
isocp.shx
  0
ENDTAB
  0
TABLE
  2
LAYER
  70
30
  0
LAYER
  2
BLACK
  70
0
  62
7
  6
CONTINUOUS
  0
LAYER
  2
GRAY1
  70
0
  62
251
  6
CONTINUOUS
  0
LAYER
  2
GRAY2
  70
0
  62
8
  6
CONTINUOUS
  0
LAYER
  2
GRAY3
  70
0
  62
9
  6
CONTINUOUS
  0
LAYER
  2
WHITE
  70
0
  62
7
  6
CONTINUOUS
  0
LAYER
  2
LYELLOW
  70
0
  62
51
  6
CONTINUOUS
  0
LAYER
  2
BLUE1
  70
0
  62
178
  6
CONTINUOUS
  0
LAYER
  2
GREEN1
  70
0
  62
98
  6
CONTINUOUS
  0
LAYER
  2
CYAN1
  70
0
  62
138
  6
CONTINUOUS
  0
LAYER
  2
RED1
  70
0
  62
18
  6
CONTINUOUS
  0
LAYER
  2
MAGENTA1
  70
0
  62
228
  6
CONTINUOUS
  0
LAYER
  2
BROWN1
  70
0
  62
58
  6
CONTINUOUS
  0
LAYER
  2
BLUE2
  70
0
  62
5
  6
CONTINUOUS
  0
LAYER
  2
GREEN2
  70
0
  62
3
  6
CONTINUOUS
  0
LAYER
  2
CYAN2
  70
0
  62
4
  6
CONTINUOUS
  0
LAYER
  2
RED2
  70
0
  62
1
  6
CONTINUOUS
  0
LAYER
  2
MAGENTA2
  70
0
  62
6
  6
CONTINUOUS
  0
LAYER
  2
BROWN2
  70
0
  62
54
  6
CONTINUOUS
  0
LAYER
  2
BLUE3
  70
0
  62
171
  6
CONTINUOUS
  0
LAYER
  2
GREEN3
  70
0
  62
91
  6
CONTINUOUS
  0
LAYER
  2
CYAN3
  70
0
  62
131
  6
CONTINUOUS
  0
LAYER
  2
RED3
  70
0
  62
11
  6
CONTINUOUS
  0
LAYER
  2
MAGENTA3
  70
0
  62
221
  6
CONTINUOUS
  0
LAYER
  2
YELLOW3
  70
0
  62
2
  6
CONTINUOUS
  0
LAYER
  2
BLUE4
  70
0
  62
5
  6
CONTINUOUS
  0
LAYER
  2
GREEN4
  70
0
  62
3
  6
CONTINUOUS
  0
LAYER
  2
CYAN4
  70
0
  62
4
  6
CONTINUOUS
  0
LAYER
  2
RED4
  70
0
  62
1
  6
CONTINUOUS
  0
LAYER
  2
MAGENTA4
  70
0
  62
6
  6
CONTINUOUS
  0
LAYER
  2
YELLOW4
  70
0
  62
2
  6
CONTINUOUS
  0
ENDTAB
  0
ENDSEC
  0
SECTION
  2
ENTITIES
0
LINE
8
Black
10
118.036
20
-69.4759
11
118.056
21
-69.4927
0
LINE
8
Black
10
118.056
20
-69.4927
11
118.069
21
-69.5152
0
LINE
8
Black
10
118.069
20
-69.5152
11
118.073
21
-69.5409
0
LINE
8
Black
10
118.073
20
-69.5409
11
118.073
21
-70.2159
0
LINE
8
Black
10
118.073
20
-70.2159
11
118.355
21
-70.2159
0
LINE
8
Black
10
118.355
20
-70.2159
11
118.381
21
-70.2204
0
LINE
8
Black
10
118.381
20
-70.2204
11
118.404
21
-70.2334
0
LINE
8
Black
10
118.404
20
-70.2334
11
118.42
21
-70.2534
0
LINE
8
Black
10
118.42
20
-70.2534
11
118.429
21
-70.2779
0
LINE
8
Black
10
118.429
20
-70.2779
11
118.429
21
-70.3039
0
LINE
8
Black
10
118.429
20
-70.3039
11
118.42
21
-70.3284
0
LINE
8
Black
10
118.42
20
-70.3284
11
118.404
21
-70.3483
0
LINE
8
Black
10
118.404
20
-70.3483
11
118.381
21
-70.3614
0
LINE
8
Black
10
118.381
20
-70.3614
11
118.355
21
-70.3659
0
LINE
8
Black
10
118.355
20
-70.3659
11
117.998
21
-70.3659
0
LINE
8
Black
10
117.998
20
-70.3659
11
117.992
21
-70.3647
0
LINE
8
Black
10
117.992
20
-70.3647
11
117.985
21
-70.3647
0
LINE
8
Black
10
117.985
20
-70.3647
11
117.979
21
-70.3625
0
LINE
8
Black
10
117.979
20
-70.3625
11
117.973
21
-70.3614
0
LINE
8
Black
10
117.973
20
-70.3614
11
117.967
21
-70.3581
0
LINE
8
Black
10
117.967
20
-70.3581
11
117.961
21
-70.3558
0
LINE
8
Black
10
117.961
20
-70.3558
11
117.956
21
-70.3516
0
LINE
8
Black
10
117.956
20
-70.3516
11
117.95
21
-70.3483
0
LINE
8
Black
10
117.95
20
-70.3483
11
117.946
21
-70.3433
0
LINE
8
Black
10
117.946
20
-70.3433
11
117.941
21
-70.3391
0
LINE
8
Black
10
117.941
20
-70.3391
11
117.937
21
-70.3334
0
LINE
8
Black
10
117.937
20
-70.3334
11
117.933
21
-70.3284
0
LINE
8
Black
10
117.933
20
-70.3284
11
117.931
21
-70.3222
0
LINE
8
Black
10
117.931
20
-70.3222
11
117.928
21
-70.3165
0
LINE
8
Black
10
117.928
20
-70.3165
11
117.927
21
-70.3101
0
LINE
8
Black
10
117.927
20
-70.3101
11
117.924
21
-70.3039
0
LINE
8
Black
10
117.924
20
-70.3039
11
117.924
21
-70.2973
0
LINE
8
Black
10
117.924
20
-70.2973
11
117.923
21
-70.2909
0
LINE
8
Black
10
117.923
20
-70.2909
11
117.923
21
-69.5409
0
LINE
8
Black
10
117.923
20
-69.5409
11
117.928
21
-69.5152
0
LINE
8
Black
10
117.928
20
-69.5152
11
117.941
21
-69.4927
0
LINE
8
Black
10
117.941
20
-69.4927
11
117.961
21
-69.4759
0
LINE
8
Black
10
117.961
20
-69.4759
11
117.985
21
-69.467
0
LINE
8
Black
10
117.985
20
-69.467
11
118.011
21
-69.467
0
LINE
8
Black
10
118.011
20
-69.467
11
118.036
21
-69.4759
0
LINE
8
Black
10
120.831
20
-69.468
11
120.843
21
-69.4697
0
LINE
8
Black
10
120.843
20
-69.4697
11
120.951
21
-69.5054
0
LINE
8
Black
10
120.951
20
-69.5054
11
120.954
21
-69.5075
0
LINE
8
Black
10
120.954
20
-69.5075
11
120.958
21
-69.5086
0
LINE
8
Black
10
120.958
20
-69.5086
11
120.966
21
-69.5137
0
LINE
8
Black
10
120.966
20
-69.5137
11
120.973
21
-69.5179
0
LINE
8
Black
10
120.973
20
-69.5179
11
120.976
21
-69.5211
0
LINE
8
Black
10
120.976
20
-69.5211
11
120.98
21
-69.5236
0
LINE
8
Black
10
120.98
20
-69.5236
11
121.016
21
-69.5593
0
LINE
8
Black
10
121.016
20
-69.5593
11
121.03
21
-69.5806
0
LINE
8
Black
10
121.03
20
-69.5806
11
121.037
21
-69.6058
0
LINE
8
Black
10
121.037
20
-69.6058
11
121.035
21
-69.6317
0
LINE
8
Black
10
121.035
20
-69.6317
11
121.024
21
-69.6553
0
LINE
8
Black
10
121.024
20
-69.6553
11
121.006
21
-69.6738
0
LINE
8
Black
10
121.006
20
-69.6738
11
120.982
21
-69.6848
0
LINE
8
Black
10
120.982
20
-69.6848
11
120.956
21
-69.687
0
LINE
8
Black
10
120.956
20
-69.687
11
120.931
21
-69.6803
0
LINE
8
Black
10
120.931
20
-69.6803
11
120.909
21
-69.6653
0
LINE
8
Black
10
120.909
20
-69.6653
11
120.886
21
-69.6422
0
LINE
8
Black
10
120.886
20
-69.6422
11
120.807
21
-69.6159
0
LINE
8
Black
10
120.807
20
-69.6159
11
120.76
21
-69.6159
0
LINE
8
Black
10
120.76
20
-69.6159
11
120.682
21
-69.6422
0
LINE
8
Black
10
120.682
20
-69.6422
11
120.631
21
-69.6925
0
LINE
8
Black
10
120.631
20
-69.6925
11
120.605
21
-69.7456
0
LINE
8
Black
10
120.605
20
-69.7456
11
120.573
21
-69.8715
0
LINE
8
Black
10
120.573
20
-69.8715
11
120.573
21
-69.9602
0
LINE
8
Black
10
120.573
20
-69.9602
11
120.605
21
-70.0861
0
LINE
8
Black
10
120.605
20
-70.0861
11
120.631
21
-70.1393
0
LINE
8
Black
10
120.631
20
-70.1393
11
120.682
21
-70.1896
0
LINE
8
Black
10
120.682
20
-70.1896
11
120.76
21
-70.2159
0
LINE
8
Black
10
120.76
20
-70.2159
11
120.807
21
-70.2159
0
LINE
8
Black
10
120.807
20
-70.2159
11
120.886
21
-70.1896
0
LINE
8
Black
10
120.886
20
-70.1896
11
120.909
21
-70.1664
0
LINE
8
Black
10
120.909
20
-70.1664
11
120.931
21
-70.1515
0
LINE
8
Black
10
120.931
20
-70.1515
11
120.956
21
-70.1447
0
LINE
8
Black
10
120.956
20
-70.1447
11
120.982
21
-70.147
0
LINE
8
Black
10
120.982
20
-70.147
11
121.006
21
-70.158
0
LINE
8
Black
10
121.006
20
-70.158
11
121.024
21
-70.1764
0
LINE
8
Black
10
121.024
20
-70.1764
11
121.035
21
-70.2
0
LINE
8
Black
10
121.035
20
-70.2
11
121.037
21
-70.226
0
LINE
8
Black
10
121.037
20
-70.226
11
121.03
21
-70.2512
0
LINE
8
Black
10
121.03
20
-70.2512
11
121.016
21
-70.2725
0
LINE
8
Black
10
121.016
20
-70.2725
11
120.98
21
-70.3082
0
LINE
8
Black
10
120.98
20
-70.3082
11
120.976
21
-70.3107
0
LINE
8
Black
10
120.976
20
-70.3107
11
120.973
21
-70.3139
0
LINE
8
Black
10
120.973
20
-70.3139
11
120.966
21
-70.3181
0
LINE
8
Black
10
120.966
20
-70.3181
11
120.958
21
-70.3231
0
LINE
8
Black
10
120.958
20
-70.3231
11
120.954
21
-70.3243
0
LINE
8
Black
10
120.954
20
-70.3243
11
120.951
21
-70.3263
0
LINE
8
Black
10
120.951
20
-70.3263
11
120.843
21
-70.362
0
LINE
8
Black
10
120.843
20
-70.362
11
120.831
21
-70.3638
0
LINE
8
Black
10
120.831
20
-70.3638
11
120.82
21
-70.3659
0
LINE
8
Black
10
120.82
20
-70.3659
11
120.748
21
-70.3659
0
LINE
8
Black
10
120.748
20
-70.3659
11
120.736
21
-70.3638
0
LINE
8
Black
10
120.736
20
-70.3638
11
120.725
21
-70.362
0
LINE
8
Black
10
120.725
20
-70.362
11
120.617
21
-70.3263
0
LINE
8
Black
10
120.617
20
-70.3263
11
120.614
21
-70.3243
0
LINE
8
Black
10
120.614
20
-70.3243
11
120.609
21
-70.3231
0
LINE
8
Black
10
120.609
20
-70.3231
11
120.602
21
-70.3181
0
LINE
8
Black
10
120.602
20
-70.3181
11
120.594
21
-70.3139
0
LINE
8
Black
10
120.594
20
-70.3139
11
120.592
21
-70.3107
0
LINE
8
Black
10
120.592
20
-70.3107
11
120.588
21
-70.3082
0
LINE
8
Black
10
120.588
20
-70.3082
11
120.517
21
-70.2368
0
LINE
8
Black
10
120.517
20
-70.2368
11
120.51
21
-70.2269
0
LINE
8
Black
10
120.51
20
-70.2269
11
120.503
21
-70.2173
0
LINE
8
Black
10
120.503
20
-70.2173
11
120.467
21
-70.1459
0
LINE
8
Black
10
120.467
20
-70.1459
11
120.465
21
-70.138
0
LINE
8
Black
10
120.465
20
-70.138
11
120.461
21
-70.1305
0
LINE
8
Black
10
120.461
20
-70.1305
11
120.425
21
-69.9876
0
LINE
8
Black
10
120.425
20
-69.9876
11
120.425
21
-69.9785
0
LINE
8
Black
10
120.425
20
-69.9785
11
120.423
21
-69.9695
0
LINE
8
Black
10
120.423
20
-69.9695
11
120.423
21
-69.8623
0
LINE
8
Black
10
120.423
20
-69.8623
11
120.425
21
-69.8533
0
LINE
8
Black
10
120.425
20
-69.8533
11
120.425
21
-69.8441
0
LINE
8
Black
10
120.425
20
-69.8441
11
120.461
21
-69.7013
0
LINE
8
Black
10
120.461
20
-69.7013
11
120.465
21
-69.6938
0
LINE
8
Black
10
120.465
20
-69.6938
11
120.467
21
-69.6859
0
LINE
8
Black
10
120.467
20
-69.6859
11
120.503
21
-69.6145
0
LINE
8
Black
10
120.503
20
-69.6145
11
120.51
21
-69.6049
0
LINE
8
Black
10
120.51
20
-69.6049
11
120.517
21
-69.595
0
LINE
8
Black
10
120.517
20
-69.595
11
120.588
21
-69.5236
0
LINE
8
Black
10
120.588
20
-69.5236
11
120.592
21
-69.5211
0
LINE
8
Black
10
120.592
20
-69.5211
11
120.594
21
-69.5179
0
LINE
8
Black
10
120.594
20
-69.5179
11
120.602
21
-69.5137
0
LINE
8
Black
10
120.602
20
-69.5137
11
120.609
21
-69.5086
0
LINE
8
Black
10
120.609
20
-69.5086
11
120.614
21
-69.5075
0
LINE
8
Black
10
120.614
20
-69.5075
11
120.617
21
-69.5054
0
LINE
8
Black
10
120.617
20
-69.5054
11
120.725
21
-69.4697
0
LINE
8
Black
10
120.725
20
-69.4697
11
120.736
21
-69.468
0
LINE
8
Black
10
120.736
20
-69.468
11
120.748
21
-69.4659
0
LINE
8
Black
10
120.748
20
-69.4659
11
120.82
21
-69.4659
0
LINE
8
Black
10
120.82
20
-69.4659
11
120.831
21
-69.468
0
LINE
8
Black
10
119.964
20
-69.4759
11
119.984
21
-69.4927
0
LINE
8
Black
10
119.984
20
-69.4927
11
119.997
21
-69.5152
0
LINE
8
Black
10
119.997
20
-69.5152
11
120.002
21
-69.5409
0
LINE
8
Black
10
120.002
20
-69.5409
11
120.002
21
-70.2159
0
LINE
8
Black
10
120.002
20
-70.2159
11
120.284
21
-70.2159
0
LINE
8
Black
10
120.284
20
-70.2159
11
120.31
21
-70.2204
0
LINE
8
Black
10
120.31
20
-70.2204
11
120.332
21
-70.2334
0
LINE
8
Black
10
120.332
20
-70.2334
11
120.349
21
-70.2534
0
LINE
8
Black
10
120.349
20
-70.2534
11
120.358
21
-70.2779
0
LINE
8
Black
10
120.358
20
-70.2779
11
120.358
21
-70.3039
0
LINE
8
Black
10
120.358
20
-70.3039
11
120.349
21
-70.3284
0
LINE
8
Black
10
120.349
20
-70.3284
11
120.332
21
-70.3483
0
LINE
8
Black
10
120.332
20
-70.3483
11
120.31
21
-70.3614
0
LINE
8
Black
10
120.31
20
-70.3614
11
120.284
21
-70.3659
0
LINE
8
Black
10
120.284
20
-70.3659
11
119.927
21
-70.3659
0
LINE
8
Black
10
119.927
20
-70.3659
11
119.92
21
-70.3647
0
LINE
8
Black
10
119.92
20
-70.3647
11
119.914
21
-70.3647
0
LINE
8
Black
10
119.914
20
-70.3647
11
119.908
21
-70.3625
0
LINE
8
Black
10
119.908
20
-70.3625
11
119.901
21
-70.3614
0
LINE
8
Black
10
119.901
20
-70.3614
11
119.895
21
-70.3581
0
LINE
8
Black
10
119.895
20
-70.3581
11
119.889
21
-70.3558
0
LINE
8
Black
10
119.889
20
-70.3558
11
119.884
21
-70.3516
0
LINE
8
Black
10
119.884
20
-70.3516
11
119.879
21
-70.3483
0
LINE
8
Black
10
119.879
20
-70.3483
11
119.874
21
-70.3433
0
LINE
8
Black
10
119.874
20
-70.3433
11
119.869
21
-70.3391
0
LINE
8
Black
10
119.869
20
-70.3391
11
119.866
21
-70.3334
0
LINE
8
Black
10
119.866
20
-70.3334
11
119.862
21
-70.3284
0
LINE
8
Black
10
119.862
20
-70.3284
11
119.86
21
-70.3222
0
LINE
8
Black
10
119.86
20
-70.3222
11
119.856
21
-70.3165
0
LINE
8
Black
10
119.856
20
-70.3165
11
119.855
21
-70.3101
0
LINE
8
Black
10
119.855
20
-70.3101
11
119.853
21
-70.3039
0
LINE
8
Black
10
119.853
20
-70.3039
11
119.853
21
-70.2973
0
LINE
8
Black
10
119.853
20
-70.2973
11
119.852
21
-70.2909
0
LINE
8
Black
10
119.852
20
-70.2909
11
119.852
21
-69.5409
0
LINE
8
Black
10
119.852
20
-69.5409
11
119.856
21
-69.5152
0
LINE
8
Black
10
119.856
20
-69.5152
11
119.869
21
-69.4927
0
LINE
8
Black
10
119.869
20
-69.4927
11
119.889
21
-69.4759
0
LINE
8
Black
10
119.889
20
-69.4759
11
119.914
21
-69.467
0
LINE
8
Black
10
119.914
20
-69.467
11
119.94
21
-69.467
0
LINE
8
Black
10
119.94
20
-69.467
11
119.964
21
-69.4759
0
LINE
8
Black
10
119.607
20
-69.4759
11
119.627
21
-69.4927
0
LINE
8
Black
10
119.627
20
-69.4927
11
119.64
21
-69.5152
0
LINE
8
Black
10
119.64
20
-69.5152
11
119.645
21
-69.5409
0
LINE
8
Black
10
119.645
20
-69.5409
11
119.645
21
-70.0766
0
LINE
8
Black
10
119.645
20
-70.0766
11
119.643
21
-70.0884
0
LINE
8
Black
10
119.643
20
-70.0884
11
119.641
21
-70.1003
0
LINE
8
Black
10
119.641
20
-70.1003
11
119.605
21
-70.2075
0
LINE
8
Black
10
119.605
20
-70.2075
11
119.603
21
-70.2113
0
LINE
8
Black
10
119.603
20
-70.2113
11
119.602
21
-70.2154
0
LINE
8
Black
10
119.602
20
-70.2154
11
119.597
21
-70.2226
0
LINE
8
Black
10
119.597
20
-70.2226
11
119.593
21
-70.2304
0
LINE
8
Black
10
119.593
20
-70.2304
11
119.589
21
-70.2332
0
LINE
8
Black
10
119.589
20
-70.2332
11
119.587
21
-70.2368
0
LINE
8
Black
10
119.587
20
-70.2368
11
119.516
21
-70.3082
0
LINE
8
Black
10
119.516
20
-70.3082
11
119.512
21
-70.3107
0
LINE
8
Black
10
119.512
20
-70.3107
11
119.509
21
-70.3139
0
LINE
8
Black
10
119.509
20
-70.3139
11
119.501
21
-70.3181
0
LINE
8
Black
10
119.501
20
-70.3181
11
119.494
21
-70.3231
0
LINE
8
Black
10
119.494
20
-70.3231
11
119.49
21
-70.3243
0
LINE
8
Black
10
119.49
20
-70.3243
11
119.486
21
-70.3263
0
LINE
8
Black
10
119.486
20
-70.3263
11
119.379
21
-70.362
0
LINE
8
Black
10
119.379
20
-70.362
11
119.367
21
-70.3638
0
LINE
8
Black
10
119.367
20
-70.3638
11
119.355
21
-70.3659
0
LINE
8
Black
10
119.355
20
-70.3659
11
119.284
21
-70.3659
0
LINE
8
Black
10
119.284
20
-70.3659
11
119.258
21
-70.3614
0
LINE
8
Black
10
119.258
20
-70.3614
11
119.236
21
-70.3483
0
LINE
8
Black
10
119.236
20
-70.3483
11
119.219
21
-70.3284
0
LINE
8
Black
10
119.219
20
-70.3284
11
119.21
21
-70.3039
0
LINE
8
Black
10
119.21
20
-70.3039
11
119.21
21
-70.2779
0
LINE
8
Black
10
119.21
20
-70.2779
11
119.219
21
-70.2534
0
LINE
8
Black
10
119.219
20
-70.2534
11
119.236
21
-70.2334
0
LINE
8
Black
10
119.236
20
-70.2334
11
119.258
21
-70.2204
0
LINE
8
Black
10
119.258
20
-70.2204
11
119.284
21
-70.2159
0
LINE
8
Black
10
119.284
20
-70.2159
11
119.343
21
-70.2159
0
LINE
8
Black
10
119.343
20
-70.2159
11
119.422
21
-70.1896
0
LINE
8
Black
10
119.422
20
-70.1896
11
119.468
21
-70.1432
0
LINE
8
Black
10
119.468
20
-70.1432
11
119.495
21
-70.0644
0
LINE
8
Black
10
119.495
20
-70.0644
11
119.495
21
-69.5409
0
LINE
8
Black
10
119.495
20
-69.5409
11
119.499
21
-69.5152
0
LINE
8
Black
10
119.499
20
-69.5152
11
119.512
21
-69.4927
0
LINE
8
Black
10
119.512
20
-69.4927
11
119.532
21
-69.4759
0
LINE
8
Black
10
119.532
20
-69.4759
11
119.557
21
-69.467
0
LINE
8
Black
10
119.557
20
-69.467
11
119.583
21
-69.467
0
LINE
8
Black
10
119.583
20
-69.467
11
119.607
21
-69.4759
0
LINE
8
Black
10
121.536
20
-69.4759
11
121.556
21
-69.4927
0
LINE
8
Black
10
121.556
20
-69.4927
11
121.569
21
-69.5152
0
LINE
8
Black
10
121.569
20
-69.5152
11
121.573
21
-69.5409
0
LINE
8
Black
10
121.573
20
-69.5409
11
121.573
21
-70.0766
0
LINE
8
Black
10
121.573
20
-70.0766
11
121.571
21
-70.0884
0
LINE
8
Black
10
121.571
20
-70.0884
11
121.569
21
-70.1003
0
LINE
8
Black
10
121.569
20
-70.1003
11
121.534
21
-70.2075
0
LINE
8
Black
10
121.534
20
-70.2075
11
121.532
21
-70.2113
0
LINE
8
Black
10
121.532
20
-70.2113
11
121.53
21
-70.2154
0
LINE
8
Black
10
121.53
20
-70.2154
11
121.525
21
-70.2226
0
LINE
8
Black
10
121.525
20
-70.2226
11
121.521
21
-70.2304
0
LINE
8
Black
10
121.521
20
-70.2304
11
121.518
21
-70.2332
0
LINE
8
Black
10
121.518
20
-70.2332
11
121.516
21
-70.2368
0
LINE
8
Black
10
121.516
20
-70.2368
11
121.444
21
-70.3082
0
LINE
8
Black
10
121.444
20
-70.3082
11
121.441
21
-70.3107
0
LINE
8
Black
10
121.441
20
-70.3107
11
121.438
21
-70.3139
0
LINE
8
Black
10
121.438
20
-70.3139
11
121.43
21
-70.3181
0
LINE
8
Black
10
121.43
20
-70.3181
11
121.423
21
-70.3231
0
LINE
8
Black
10
121.423
20
-70.3231
11
121.419
21
-70.3243
0
LINE
8
Black
10
121.419
20
-70.3243
11
121.415
21
-70.3263
0
LINE
8
Black
10
121.415
20
-70.3263
11
121.308
21
-70.362
0
LINE
8
Black
10
121.308
20
-70.362
11
121.296
21
-70.3638
0
LINE
8
Black
10
121.296
20
-70.3638
11
121.284
21
-70.3659
0
LINE
8
Black
10
121.284
20
-70.3659
11
121.213
21
-70.3659
0
LINE
8
Black
10
121.213
20
-70.3659
11
121.187
21
-70.3614
0
LINE
8
Black
10
121.187
20
-70.3614
11
121.164
21
-70.3483
0
LINE
8
Black
10
121.164
20
-70.3483
11
121.148
21
-70.3284
0
LINE
8
Black
10
121.148
20
-70.3284
11
121.139
21
-70.3039
0
LINE
8
Black
10
121.139
20
-70.3039
11
121.139
21
-70.2779
0
LINE
8
Black
10
121.139
20
-70.2779
11
121.148
21
-70.2534
0
LINE
8
Black
10
121.148
20
-70.2534
11
121.164
21
-70.2334
0
LINE
8
Black
10
121.164
20
-70.2334
11
121.187
21
-70.2204
0
LINE
8
Black
10
121.187
20
-70.2204
11
121.213
21
-70.2159
0
LINE
8
Black
10
121.213
20
-70.2159
11
121.272
21
-70.2159
0
LINE
8
Black
10
121.272
20
-70.2159
11
121.351
21
-70.1896
0
LINE
8
Black
10
121.351
20
-70.1896
11
121.397
21
-70.1432
0
LINE
8
Black
10
121.397
20
-70.1432
11
121.423
21
-70.0644
0
LINE
8
Black
10
121.423
20
-70.0644
11
121.423
21
-69.5409
0
LINE
8
Black
10
121.423
20
-69.5409
11
121.428
21
-69.5152
0
LINE
8
Black
10
121.428
20
-69.5152
11
121.441
21
-69.4927
0
LINE
8
Black
10
121.441
20
-69.4927
11
121.461
21
-69.4759
0
LINE
8
Black
10
121.461
20
-69.4759
11
121.485
21
-69.467
0
LINE
8
Black
10
121.485
20
-69.467
11
121.511
21
-69.467
0
LINE
8
Black
10
121.511
20
-69.467
11
121.536
21
-69.4759
0
LINE
8
Black
10
118.903
20
-69.468
11
118.915
21
-69.4697
0
LINE
8
Black
10
118.915
20
-69.4697
11
119.022
21
-69.5054
0
LINE
8
Black
10
119.022
20
-69.5054
11
119.026
21
-69.5075
0
LINE
8
Black
10
119.026
20
-69.5075
11
119.03
21
-69.5086
0
LINE
8
Black
10
119.03
20
-69.5086
11
119.037
21
-69.5137
0
LINE
8
Black
10
119.037
20
-69.5137
11
119.045
21
-69.5179
0
LINE
8
Black
10
119.045
20
-69.5179
11
119.048
21
-69.5211
0
LINE
8
Black
10
119.048
20
-69.5211
11
119.051
21
-69.5236
0
LINE
8
Black
10
119.051
20
-69.5236
11
119.087
21
-69.5593
0
LINE
8
Black
10
119.087
20
-69.5593
11
119.102
21
-69.5806
0
LINE
8
Black
10
119.102
20
-69.5806
11
119.109
21
-69.6058
0
LINE
8
Black
10
119.109
20
-69.6058
11
119.106
21
-69.6317
0
LINE
8
Black
10
119.106
20
-69.6317
11
119.095
21
-69.6553
0
LINE
8
Black
10
119.095
20
-69.6553
11
119.077
21
-69.6738
0
LINE
8
Black
10
119.077
20
-69.6738
11
119.053
21
-69.6848
0
LINE
8
Black
10
119.053
20
-69.6848
11
119.027
21
-69.687
0
LINE
8
Black
10
119.027
20
-69.687
11
119.002
21
-69.6803
0
LINE
8
Black
10
119.002
20
-69.6803
11
118.981
21
-69.6653
0
LINE
8
Black
10
118.981
20
-69.6653
11
118.958
21
-69.6422
0
LINE
8
Black
10
118.958
20
-69.6422
11
118.879
21
-69.6159
0
LINE
8
Black
10
118.879
20
-69.6159
11
118.832
21
-69.6159
0
LINE
8
Black
10
118.832
20
-69.6159
11
118.753
21
-69.6422
0
LINE
8
Black
10
118.753
20
-69.6422
11
118.703
21
-69.6925
0
LINE
8
Black
10
118.703
20
-69.6925
11
118.676
21
-69.7456
0
LINE
8
Black
10
118.676
20
-69.7456
11
118.645
21
-69.8715
0
LINE
8
Black
10
118.645
20
-69.8715
11
118.645
21
-69.9602
0
LINE
8
Black
10
118.645
20
-69.9602
11
118.676
21
-70.0861
0
LINE
8
Black
10
118.676
20
-70.0861
11
118.703
21
-70.1393
0
LINE
8
Black
10
118.703
20
-70.1393
11
118.753
21
-70.1896
0
LINE
8
Black
10
118.753
20
-70.1896
11
118.832
21
-70.2159
0
LINE
8
Black
10
118.832
20
-70.2159
11
118.879
21
-70.2159
0
LINE
8
Black
10
118.879
20
-70.2159
11
118.958
21
-70.1896
0
LINE
8
Black
10
118.958
20
-70.1896
11
118.981
21
-70.1664
0
LINE
8
Black
10
118.981
20
-70.1664
11
119.002
21
-70.1515
0
LINE
8
Black
10
119.002
20
-70.1515
11
119.027
21
-70.1447
0
LINE
8
Black
10
119.027
20
-70.1447
11
119.053
21
-70.147
0
LINE
8
Black
10
119.053
20
-70.147
11
119.077
21
-70.158
0
LINE
8
Black
10
119.077
20
-70.158
11
119.095
21
-70.1764
0
LINE
8
Black
10
119.095
20
-70.1764
11
119.106
21
-70.2
0
LINE
8
Black
10
119.106
20
-70.2
11
119.109
21
-70.226
0
LINE
8
Black
10
119.109
20
-70.226
11
119.102
21
-70.2512
0
LINE
8
Black
10
119.102
20
-70.2512
11
119.087
21
-70.2725
0
LINE
8
Black
10
119.087
20
-70.2725
11
119.051
21
-70.3082
0
LINE
8
Black
10
119.051
20
-70.3082
11
119.048
21
-70.3107
0
LINE
8
Black
10
119.048
20
-70.3107
11
119.045
21
-70.3139
0
LINE
8
Black
10
119.045
20
-70.3139
11
119.037
21
-70.3181
0
LINE
8
Black
10
119.037
20
-70.3181
11
119.03
21
-70.3231
0
LINE
8
Black
10
119.03
20
-70.3231
11
119.026
21
-70.3243
0
LINE
8
Black
10
119.026
20
-70.3243
11
119.022
21
-70.3263
0
LINE
8
Black
10
119.022
20
-70.3263
11
118.915
21
-70.362
0
LINE
8
Black
10
118.915
20
-70.362
11
118.903
21
-70.3638
0
LINE
8
Black
10
118.903
20
-70.3638
11
118.891
21
-70.3659
0
LINE
8
Black
10
118.891
20
-70.3659
11
118.82
21
-70.3659
0
LINE
8
Black
10
118.82
20
-70.3659
11
118.808
21
-70.3638
0
LINE
8
Black
10
118.808
20
-70.3638
11
118.796
21
-70.362
0
LINE
8
Black
10
118.796
20
-70.362
11
118.689
21
-70.3263
0
LINE
8
Black
10
118.689
20
-70.3263
11
118.685
21
-70.3243
0
LINE
8
Black
10
118.685
20
-70.3243
11
118.681
21
-70.3231
0
LINE
8
Black
10
118.681
20
-70.3231
11
118.674
21
-70.3181
0
LINE
8
Black
10
118.674
20
-70.3181
11
118.666
21
-70.3139
0
LINE
8
Black
10
118.666
20
-70.3139
11
118.663
21
-70.3107
0
LINE
8
Black
10
118.663
20
-70.3107
11
118.659
21
-70.3082
0
LINE
8
Black
10
118.659
20
-70.3082
11
118.588
21
-70.2368
0
LINE
8
Black
10
118.588
20
-70.2368
11
118.581
21
-70.2269
0
LINE
8
Black
10
118.581
20
-70.2269
11
118.574
21
-70.2173
0
LINE
8
Black
10
118.574
20
-70.2173
11
118.538
21
-70.1459
0
LINE
8
Black
10
118.538
20
-70.1459
11
118.536
21
-70.138
0
LINE
8
Black
10
118.536
20
-70.138
11
118.533
21
-70.1305
0
LINE
8
Black
10
118.533
20
-70.1305
11
118.497
21
-69.9876
0
LINE
8
Black
10
118.497
20
-69.9876
11
118.496
21
-69.9785
0
LINE
8
Black
10
118.496
20
-69.9785
11
118.495
21
-69.9695
0
LINE
8
Black
10
118.495
20
-69.9695
11
118.495
21
-69.8623
0
LINE
8
Black
10
118.495
20
-69.8623
11
118.496
21
-69.8533
0
LINE
8
Black
10
118.496
20
-69.8533
11
118.497
21
-69.8441
0
LINE
8
Black
10
118.497
20
-69.8441
11
118.533
21
-69.7013
0
LINE
8
Black
10
118.533
20
-69.7013
11
118.536
21
-69.6938
0
LINE
8
Black
10
118.536
20
-69.6938
11
118.538
21
-69.6859
0
LINE
8
Black
10
118.538
20
-69.6859
11
118.574
21
-69.6145
0
LINE
8
Black
10
118.574
20
-69.6145
11
118.581
21
-69.6049
0
LINE
8
Black
10
118.581
20
-69.6049
11
118.588
21
-69.595
0
LINE
8
Black
10
118.588
20
-69.595
11
118.659
21
-69.5236
0
LINE
8
Black
10
118.659
20
-69.5236
11
118.663
21
-69.5211
0
LINE
8
Black
10
118.663
20
-69.5211
11
118.666
21
-69.5179
0
LINE
8
Black
10
118.666
20
-69.5179
11
118.674
21
-69.5137
0
LINE
8
Black
10
118.674
20
-69.5137
11
118.681
21
-69.5086
0
LINE
8
Black
10
118.681
20
-69.5086
11
118.685
21
-69.5075
0
LINE
8
Black
10
118.685
20
-69.5075
11
118.689
21
-69.5054
0
LINE
8
Black
10
118.689
20
-69.5054
11
118.796
21
-69.4697
0
LINE
8
Black
10
118.796
20
-69.4697
11
118.808
21
-69.468
0
LINE
8
Black
10
118.808
20
-69.468
11
118.82
21
-69.4659
0
LINE
8
Black
10
118.82
20
-69.4659
11
118.891
21
-69.4659
0
LINE
8
Black
10
118.891
20
-69.4659
11
118.903
21
-69.468
0
LINE
8
Black
10
117.679
20
-69.4759
11
117.699
21
-69.4927
0
LINE
8
Black
10
117.699
20
-69.4927
11
117.712
21
-69.5152
0
LINE
8
Black
10
117.712
20
-69.5152
11
117.716
21
-69.5409
0
LINE
8
Black
10
117.716
20
-69.5409
11
117.716
21
-70.0766
0
LINE
8
Black
10
117.716
20
-70.0766
11
117.714
21
-70.0884
0
LINE
8
Black
10
117.714
20
-70.0884
11
117.712
21
-70.1003
0
LINE
8
Black
10
117.712
20
-70.1003
11
117.677
21
-70.2075
0
LINE
8
Black
10
117.677
20
-70.2075
11
117.674
21
-70.2113
0
LINE
8
Black
10
117.674
20
-70.2113
11
117.673
21
-70.2154
0
LINE
8
Black
10
117.673
20
-70.2154
11
117.668
21
-70.2226
0
LINE
8
Black
10
117.668
20
-70.2226
11
117.664
21
-70.2304
0
LINE
8
Black
10
117.664
20
-70.2304
11
117.661
21
-70.2332
0
LINE
8
Black
10
117.661
20
-70.2332
11
117.658
21
-70.2368
0
LINE
8
Black
10
117.658
20
-70.2368
11
117.587
21
-70.3082
0
LINE
8
Black
10
117.587
20
-70.3082
11
117.583
21
-70.3107
0
LINE
8
Black
10
117.583
20
-70.3107
11
117.581
21
-70.3139
0
LINE
8
Black
10
117.581
20
-70.3139
11
117.573
21
-70.3181
0
LINE
8
Black
10
117.573
20
-70.3181
11
117.566
21
-70.3231
0
LINE
8
Black
10
117.566
20
-70.3231
11
117.561
21
-70.3243
0
LINE
8
Black
10
117.561
20
-70.3243
11
117.558
21
-70.3263
0
LINE
8
Black
10
117.558
20
-70.3263
11
117.451
21
-70.362
0
LINE
8
Black
10
117.451
20
-70.362
11
117.439
21
-70.3638
0
LINE
8
Black
10
117.439
20
-70.3638
11
117.427
21
-70.3659
0
LINE
8
Black
10
117.427
20
-70.3659
11
117.355
21
-70.3659
0
LINE
8
Black
10
117.355
20
-70.3659
11
117.33
21
-70.3614
0
LINE
8
Black
10
117.33
20
-70.3614
11
117.307
21
-70.3483
0
LINE
8
Black
10
117.307
20
-70.3483
11
117.29
21
-70.3284
0
LINE
8
Black
10
117.29
20
-70.3284
11
117.282
21
-70.3039
0
LINE
8
Black
10
117.282
20
-70.3039
11
117.282
21
-70.2779
0
LINE
8
Black
10
117.282
20
-70.2779
11
117.29
21
-70.2534
0
LINE
8
Black
10
117.29
20
-70.2534
11
117.307
21
-70.2334
0
LINE
8
Black
10
117.307
20
-70.2334
11
117.33
21
-70.2204
0
LINE
8
Black
10
117.33
20
-70.2204
11
117.355
21
-70.2159
0
LINE
8
Black
10
117.355
20
-70.2159
11
117.415
21
-70.2159
0
LINE
8
Black
10
117.415
20
-70.2159
11
117.493
21
-70.1896
0
LINE
8
Black
10
117.493
20
-70.1896
11
117.54
21
-70.1432
0
LINE
8
Black
10
117.54
20
-70.1432
11
117.566
21
-70.0644
0
LINE
8
Black
10
117.566
20
-70.0644
11
117.566
21
-69.5409
0
LINE
8
Black
10
117.566
20
-69.5409
11
117.571
21
-69.5152
0
LINE
8
Black
10
117.571
20
-69.5152
11
117.584
21
-69.4927
0
LINE
8
Black
10
117.584
20
-69.4927
11
117.604
21
-69.4759
0
LINE
8
Black
10
117.604
20
-69.4759
11
117.628
21
-69.467
0
LINE
8
Black
10
117.628
20
-69.467
11
117.654
21
-69.467
0
LINE
8
Black
10
117.654
20
-69.467
11
117.679
21
-69.4759
0
LINE
8
Black
10
121.893
20
-69.4759
11
121.913
21
-69.4927
0
LINE
8
Black
10
121.913
20
-69.4927
11
121.926
21
-69.5152
0
LINE
8
Black
10
121.926
20
-69.5152
11
121.93
21
-69.5409
0
LINE
8
Black
10
121.93
20
-69.5409
11
121.93
21
-70.2159
0
LINE
8
Black
10
121.93
20
-70.2159
11
122.213
21
-70.2159
0
LINE
8
Black
10
122.213
20
-70.2159
11
122.238
21
-70.2204
0
LINE
8
Black
10
122.238
20
-70.2204
11
122.261
21
-70.2334
0
LINE
8
Black
10
122.261
20
-70.2334
11
122.277
21
-70.2534
0
LINE
8
Black
10
122.277
20
-70.2534
11
122.286
21
-70.2779
0
LINE
8
Black
10
122.286
20
-70.2779
11
122.286
21
-70.3039
0
LINE
8
Black
10
122.286
20
-70.3039
11
122.277
21
-70.3284
0
LINE
8
Black
10
122.277
20
-70.3284
11
122.261
21
-70.3483
0
LINE
8
Black
10
122.261
20
-70.3483
11
122.238
21
-70.3614
0
LINE
8
Black
10
122.238
20
-70.3614
11
122.213
21
-70.3659
0
LINE
8
Black
10
122.213
20
-70.3659
11
121.855
21
-70.3659
0
LINE
8
Black
10
121.855
20
-70.3659
11
121.849
21
-70.3647
0
LINE
8
Black
10
121.849
20
-70.3647
11
121.842
21
-70.3647
0
LINE
8
Black
10
121.842
20
-70.3647
11
121.836
21
-70.3625
0
LINE
8
Black
10
121.836
20
-70.3625
11
121.83
21
-70.3614
0
LINE
8
Black
10
121.83
20
-70.3614
11
121.824
21
-70.3581
0
LINE
8
Black
10
121.824
20
-70.3581
11
121.818
21
-70.3558
0
LINE
8
Black
10
121.818
20
-70.3558
11
121.813
21
-70.3516
0
LINE
8
Black
10
121.813
20
-70.3516
11
121.807
21
-70.3483
0
LINE
8
Black
10
121.807
20
-70.3483
11
121.803
21
-70.3433
0
LINE
8
Black
10
121.803
20
-70.3433
11
121.798
21
-70.3391
0
LINE
8
Black
10
121.798
20
-70.3391
11
121.795
21
-70.3334
0
LINE
8
Black
10
121.795
20
-70.3334
11
121.79
21
-70.3284
0
LINE
8
Black
10
121.79
20
-70.3284
11
121.788
21
-70.3222
0
LINE
8
Black
10
121.788
20
-70.3222
11
121.785
21
-70.3165
0
LINE
8
Black
10
121.785
20
-70.3165
11
121.784
21
-70.3101
0
LINE
8
Black
10
121.784
20
-70.3101
11
121.782
21
-70.3039
0
LINE
8
Black
10
121.782
20
-70.3039
11
121.782
21
-70.2973
0
LINE
8
Black
10
121.782
20
-70.2973
11
121.78
21
-70.2909
0
LINE
8
Black
10
121.78
20
-70.2909
11
121.78
21
-69.5409
0
LINE
8
Black
10
121.78
20
-69.5409
11
121.785
21
-69.5152
0
LINE
8
Black
10
121.785
20
-69.5152
11
121.798
21
-69.4927
0
LINE
8
Black
10
121.798
20
-69.4927
11
121.818
21
-69.4759
0
LINE
8
Black
10
121.818
20
-69.4759
11
121.842
21
-69.467
0
LINE
8
Black
10
121.842
20
-69.467
11
121.868
21
-69.467
0
LINE
8
Black
10
121.868
20
-69.467
11
121.893
21
-69.4759
0
LINE
8
Black
10
122.76
20
-69.468
11
122.772
21
-69.4697
0
LINE
8
Black
10
122.772
20
-69.4697
11
122.879
21
-69.5054
0
LINE
8
Black
10
122.879
20
-69.5054
11
122.883
21
-69.5075
0
LINE
8
Black
10
122.883
20
-69.5075
11
122.887
21
-69.5086
0
LINE
8
Black
10
122.887
20
-69.5086
11
122.894
21
-69.5137
0
LINE
8
Black
10
122.894
20
-69.5137
11
122.902
21
-69.5179
0
LINE
8
Black
10
122.902
20
-69.5179
11
122.905
21
-69.5211
0
LINE
8
Black
10
122.905
20
-69.5211
11
122.908
21
-69.5236
0
LINE
8
Black
10
122.908
20
-69.5236
11
122.944
21
-69.5593
0
LINE
8
Black
10
122.944
20
-69.5593
11
122.959
21
-69.5806
0
LINE
8
Black
10
122.959
20
-69.5806
11
122.966
21
-69.6058
0
LINE
8
Black
10
122.966
20
-69.6058
11
122.964
21
-69.6317
0
LINE
8
Black
10
122.964
20
-69.6317
11
122.953
21
-69.6553
0
LINE
8
Black
10
122.953
20
-69.6553
11
122.934
21
-69.6738
0
LINE
8
Black
10
122.934
20
-69.6738
11
122.91
21
-69.6848
0
LINE
8
Black
10
122.91
20
-69.6848
11
122.885
21
-69.687
0
LINE
8
Black
10
122.885
20
-69.687
11
122.859
21
-69.6803
0
LINE
8
Black
10
122.859
20
-69.6803
11
122.838
21
-69.6653
0
LINE
8
Black
10
122.838
20
-69.6653
11
122.815
21
-69.6422
0
LINE
8
Black
10
122.815
20
-69.6422
11
122.736
21
-69.6159
0
LINE
8
Black
10
122.736
20
-69.6159
11
122.689
21
-69.6159
0
LINE
8
Black
10
122.689
20
-69.6159
11
122.61
21
-69.6422
0
LINE
8
Black
10
122.61
20
-69.6422
11
122.56
21
-69.6925
0
LINE
8
Black
10
122.56
20
-69.6925
11
122.533
21
-69.7456
0
LINE
8
Black
10
122.533
20
-69.7456
11
122.502
21
-69.8715
0
LINE
8
Black
10
122.502
20
-69.8715
11
122.502
21
-69.9602
0
LINE
8
Black
10
122.502
20
-69.9602
11
122.533
21
-70.0861
0
LINE
8
Black
10
122.533
20
-70.0861
11
122.56
21
-70.1393
0
LINE
8
Black
10
122.56
20
-70.1393
11
122.61
21
-70.1896
0
LINE
8
Black
10
122.61
20
-70.1896
11
122.689
21
-70.2159
0
LINE
8
Black
10
122.689
20
-70.2159
11
122.736
21
-70.2159
0
LINE
8
Black
10
122.736
20
-70.2159
11
122.815
21
-70.1896
0
LINE
8
Black
10
122.815
20
-70.1896
11
122.838
21
-70.1664
0
LINE
8
Black
10
122.838
20
-70.1664
11
122.859
21
-70.1515
0
LINE
8
Black
10
122.859
20
-70.1515
11
122.885
21
-70.1447
0
LINE
8
Black
10
122.885
20
-70.1447
11
122.91
21
-70.147
0
LINE
8
Black
10
122.91
20
-70.147
11
122.934
21
-70.158
0
LINE
8
Black
10
122.934
20
-70.158
11
122.953
21
-70.1764
0
LINE
8
Black
10
122.953
20
-70.1764
11
122.964
21
-70.2
0
LINE
8
Black
10
122.964
20
-70.2
11
122.966
21
-70.226
0
LINE
8
Black
10
122.966
20
-70.226
11
122.959
21
-70.2512
0
LINE
8
Black
10
122.959
20
-70.2512
11
122.944
21
-70.2725
0
LINE
8
Black
10
122.944
20
-70.2725
11
122.908
21
-70.3082
0
LINE
8
Black
10
122.908
20
-70.3082
11
122.905
21
-70.3107
0
LINE
8
Black
10
122.905
20
-70.3107
11
122.902
21
-70.3139
0
LINE
8
Black
10
122.902
20
-70.3139
11
122.894
21
-70.3181
0
LINE
8
Black
10
122.894
20
-70.3181
11
122.887
21
-70.3231
0
LINE
8
Black
10
122.887
20
-70.3231
11
122.883
21
-70.3243
0
LINE
8
Black
10
122.883
20
-70.3243
11
122.879
21
-70.3263
0
LINE
8
Black
10
122.879
20
-70.3263
11
122.772
21
-70.362
0
LINE
8
Black
10
122.772
20
-70.362
11
122.76
21
-70.3638
0
LINE
8
Black
10
122.76
20
-70.3638
11
122.748
21
-70.3659
0
LINE
8
Black
10
122.748
20
-70.3659
11
122.677
21
-70.3659
0
LINE
8
Black
10
122.677
20
-70.3659
11
122.665
21
-70.3638
0
LINE
8
Black
10
122.665
20
-70.3638
11
122.653
21
-70.362
0
LINE
8
Black
10
122.653
20
-70.362
11
122.546
21
-70.3263
0
LINE
8
Black
10
122.546
20
-70.3263
11
122.542
21
-70.3243
0
LINE
8
Black
10
122.542
20
-70.3243
11
122.538
21
-70.3231
0
LINE
8
Black
10
122.538
20
-70.3231
11
122.531
21
-70.3181
0
LINE
8
Black
10
122.531
20
-70.3181
11
122.523
21
-70.3139
0
LINE
8
Black
10
122.523
20
-70.3139
11
122.52
21
-70.3107
0
LINE
8
Black
10
122.52
20
-70.3107
11
122.517
21
-70.3082
0
LINE
8
Black
10
122.517
20
-70.3082
11
122.445
21
-70.2368
0
LINE
8
Black
10
122.445
20
-70.2368
11
122.438
21
-70.2269
0
LINE
8
Black
10
122.438
20
-70.2269
11
122.431
21
-70.2173
0
LINE
8
Black
10
122.431
20
-70.2173
11
122.395
21
-70.1459
0
LINE
8
Black
10
122.395
20
-70.1459
11
122.393
21
-70.138
0
LINE
8
Black
10
122.393
20
-70.138
11
122.39
21
-70.1305
0
LINE
8
Black
10
122.39
20
-70.1305
11
122.354
21
-69.9876
0
LINE
8
Black
10
122.354
20
-69.9876
11
122.353
21
-69.9785
0
LINE
8
Black
10
122.353
20
-69.9785
11
122.352
21
-69.9695
0
LINE
8
Black
10
122.352
20
-69.9695
11
122.352
21
-69.8623
0
LINE
8
Black
10
122.352
20
-69.8623
11
122.353
21
-69.8533
0
LINE
8
Black
10
122.353
20
-69.8533
11
122.354
21
-69.8441
0
LINE
8
Black
10
122.354
20
-69.8441
11
122.39
21
-69.7013
0
LINE
8
Black
10
122.39
20
-69.7013
11
122.393
21
-69.6938
0
LINE
8
Black
10
122.393
20
-69.6938
11
122.395
21
-69.6859
0
LINE
8
Black
10
122.395
20
-69.6859
11
122.431
21
-69.6145
0
LINE
8
Black
10
122.431
20
-69.6145
11
122.438
21
-69.6049
0
LINE
8
Black
10
122.438
20
-69.6049
11
122.445
21
-69.595
0
LINE
8
Black
10
122.445
20
-69.595
11
122.517
21
-69.5236
0
LINE
8
Black
10
122.517
20
-69.5236
11
122.52
21
-69.5211
0
LINE
8
Black
10
122.52
20
-69.5211
11
122.523
21
-69.5179
0
LINE
8
Black
10
122.523
20
-69.5179
11
122.531
21
-69.5137
0
LINE
8
Black
10
122.531
20
-69.5137
11
122.538
21
-69.5086
0
LINE
8
Black
10
122.538
20
-69.5086
11
122.542
21
-69.5075
0
LINE
8
Black
10
122.542
20
-69.5075
11
122.546
21
-69.5054
0
LINE
8
Black
10
122.546
20
-69.5054
11
122.653
21
-69.4697
0
LINE
8
Black
10
122.653
20
-69.4697
11
122.665
21
-69.468
0
LINE
8
Black
10
122.665
20
-69.468
11
122.677
21
-69.4659
0
LINE
8
Black
10
122.677
20
-69.4659
11
122.748
21
-69.4659
0
LINE
8
Black
10
122.748
20
-69.4659
11
122.76
21
-69.468
0
LINE
8
Black
10
116.974
20
-69.468
11
116.986
21
-69.4697
0
LINE
8
Black
10
116.986
20
-69.4697
11
117.093
21
-69.5054
0
LINE
8
Black
10
117.093
20
-69.5054
11
117.097
21
-69.5075
0
LINE
8
Black
10
117.097
20
-69.5075
11
117.101
21
-69.5086
0
LINE
8
Black
10
117.101
20
-69.5086
11
117.109
21
-69.5137
0
LINE
8
Black
10
117.109
20
-69.5137
11
117.116
21
-69.5179
0
LINE
8
Black
10
117.116
20
-69.5179
11
117.119
21
-69.5211
0
LINE
8
Black
10
117.119
20
-69.5211
11
117.123
21
-69.5236
0
LINE
8
Black
10
117.123
20
-69.5236
11
117.158
21
-69.5593
0
LINE
8
Black
10
117.158
20
-69.5593
11
117.173
21
-69.5806
0
LINE
8
Black
10
117.173
20
-69.5806
11
117.18
21
-69.6058
0
LINE
8
Black
10
117.18
20
-69.6058
11
117.178
21
-69.6317
0
LINE
8
Black
10
117.178
20
-69.6317
11
117.167
21
-69.6553
0
LINE
8
Black
10
117.167
20
-69.6553
11
117.148
21
-69.6738
0
LINE
8
Black
10
117.148
20
-69.6738
11
117.125
21
-69.6848
0
LINE
8
Black
10
117.125
20
-69.6848
11
117.099
21
-69.687
0
LINE
8
Black
10
117.099
20
-69.687
11
117.074
21
-69.6803
0
LINE
8
Black
10
117.074
20
-69.6803
11
117.052
21
-69.6653
0
LINE
8
Black
10
117.052
20
-69.6653
11
117.029
21
-69.6422
0
LINE
8
Black
10
117.029
20
-69.6422
11
116.95
21
-69.6159
0
LINE
8
Black
10
116.95
20
-69.6159
11
116.903
21
-69.6159
0
LINE
8
Black
10
116.903
20
-69.6159
11
116.824
21
-69.6422
0
LINE
8
Black
10
116.824
20
-69.6422
11
116.774
21
-69.6925
0
LINE
8
Black
10
116.774
20
-69.6925
11
116.748
21
-69.7456
0
LINE
8
Black
10
116.748
20
-69.7456
11
116.716
21
-69.8715
0
LINE
8
Black
10
116.716
20
-69.8715
11
116.716
21
-69.9602
0
LINE
8
Black
10
116.716
20
-69.9602
11
116.748
21
-70.0861
0
LINE
8
Black
10
116.748
20
-70.0861
11
116.774
21
-70.1393
0
LINE
8
Black
10
116.774
20
-70.1393
11
116.824
21
-70.1896
0
LINE
8
Black
10
116.824
20
-70.1896
11
116.903
21
-70.2159
0
LINE
8
Black
10
116.903
20
-70.2159
11
116.95
21
-70.2159
0
LINE
8
Black
10
116.95
20
-70.2159
11
117.029
21
-70.1896
0
LINE
8
Black
10
117.029
20
-70.1896
11
117.052
21
-70.1664
0
LINE
8
Black
10
117.052
20
-70.1664
11
117.074
21
-70.1515
0
LINE
8
Black
10
117.074
20
-70.1515
11
117.099
21
-70.1447
0
LINE
8
Black
10
117.099
20
-70.1447
11
117.125
21
-70.147
0
LINE
8
Black
10
117.125
20
-70.147
11
117.148
21
-70.158
0
LINE
8
Black
10
117.148
20
-70.158
11
117.167
21
-70.1764
0
LINE
8
Black
10
117.167
20
-70.1764
11
117.178
21
-70.2
0
LINE
8
Black
10
117.178
20
-70.2
11
117.18
21
-70.226
0
LINE
8
Black
10
117.18
20
-70.226
11
117.173
21
-70.2512
0
LINE
8
Black
10
117.173
20
-70.2512
11
117.158
21
-70.2725
0
LINE
8
Black
10
117.158
20
-70.2725
11
117.123
21
-70.3082
0
LINE
8
Black
10
117.123
20
-70.3082
11
117.119
21
-70.3107
0
LINE
8
Black
10
117.119
20
-70.3107
11
117.116
21
-70.3139
0
LINE
8
Black
10
117.116
20
-70.3139
11
117.109
21
-70.3181
0
LINE
8
Black
10
117.109
20
-70.3181
11
117.101
21
-70.3231
0
LINE
8
Black
10
117.101
20
-70.3231
11
117.097
21
-70.3243
0
LINE
8
Black
10
117.097
20
-70.3243
11
117.093
21
-70.3263
0
LINE
8
Black
10
117.093
20
-70.3263
11
116.986
21
-70.362
0
LINE
8
Black
10
116.986
20
-70.362
11
116.974
21
-70.3638
0
LINE
8
Black
10
116.974
20
-70.3638
11
116.963
21
-70.3659
0
LINE
8
Black
10
116.963
20
-70.3659
11
116.891
21
-70.3659
0
LINE
8
Black
10
116.891
20
-70.3659
11
116.879
21
-70.3638
0
LINE
8
Black
10
116.879
20
-70.3638
11
116.867
21
-70.362
0
LINE
8
Black
10
116.867
20
-70.362
11
116.76
21
-70.3263
0
LINE
8
Black
10
116.76
20
-70.3263
11
116.756
21
-70.3243
0
LINE
8
Black
10
116.756
20
-70.3243
11
116.752
21
-70.3231
0
LINE
8
Black
10
116.752
20
-70.3231
11
116.745
21
-70.3181
0
LINE
8
Black
10
116.745
20
-70.3181
11
116.737
21
-70.3139
0
LINE
8
Black
10
116.737
20
-70.3139
11
116.734
21
-70.3107
0
LINE
8
Black
10
116.734
20
-70.3107
11
116.731
21
-70.3082
0
LINE
8
Black
10
116.731
20
-70.3082
11
116.659
21
-70.2368
0
LINE
8
Black
10
116.659
20
-70.2368
11
116.653
21
-70.2269
0
LINE
8
Black
10
116.653
20
-70.2269
11
116.645
21
-70.2173
0
LINE
8
Black
10
116.645
20
-70.2173
11
116.61
21
-70.1459
0
LINE
8
Black
10
116.61
20
-70.1459
11
116.607
21
-70.138
0
LINE
8
Black
10
116.607
20
-70.138
11
116.604
21
-70.1305
0
LINE
8
Black
10
116.604
20
-70.1305
11
116.568
21
-69.9876
0
LINE
8
Black
10
116.568
20
-69.9876
11
116.568
21
-69.9785
0
LINE
8
Black
10
116.568
20
-69.9785
11
116.566
21
-69.9695
0
LINE
8
Black
10
116.566
20
-69.9695
11
116.566
21
-69.8623
0
LINE
8
Black
10
116.566
20
-69.8623
11
116.568
21
-69.8533
0
LINE
8
Black
10
116.568
20
-69.8533
11
116.568
21
-69.8441
0
LINE
8
Black
10
116.568
20
-69.8441
11
116.604
21
-69.7013
0
LINE
8
Black
10
116.604
20
-69.7013
11
116.607
21
-69.6938
0
LINE
8
Black
10
116.607
20
-69.6938
11
116.61
21
-69.6859
0
LINE
8
Black
10
116.61
20
-69.6859
11
116.645
21
-69.6145
0
LINE
8
Black
10
116.645
20
-69.6145
11
116.653
21
-69.6049
0
LINE
8
Black
10
116.653
20
-69.6049
11
116.659
21
-69.595
0
LINE
8
Black
10
116.659
20
-69.595
11
116.731
21
-69.5236
0
LINE
8
Black
10
116.731
20
-69.5236
11
116.734
21
-69.5211
0
LINE
8
Black
10
116.734
20
-69.5211
11
116.737
21
-69.5179
0
LINE
8
Black
10
116.737
20
-69.5179
11
116.745
21
-69.5137
0
LINE
8
Black
10
116.745
20
-69.5137
11
116.752
21
-69.5086
0
LINE
8
Black
10
116.752
20
-69.5086
11
116.756
21
-69.5075
0
LINE
8
Black
10
116.756
20
-69.5075
11
116.76
21
-69.5054
0
LINE
8
Black
10
116.76
20
-69.5054
11
116.867
21
-69.4697
0
LINE
8
Black
10
116.867
20
-69.4697
11
116.879
21
-69.468
0
LINE
8
Black
10
116.879
20
-69.468
11
116.891
21
-69.4659
0
LINE
8
Black
10
116.891
20
-69.4659
11
116.963
21
-69.4659
0
LINE
8
Black
10
116.963
20
-69.4659
11
116.974
21
-69.468
0
LINE
8
Black
10
115.75
20
-69.4759
11
115.77
21
-69.4927
0
LINE
8
Black
10
115.77
20
-69.4927
11
115.783
21
-69.5152
0
LINE
8
Black
10
115.783
20
-69.5152
11
115.788
21
-69.5409
0
LINE
8
Black
10
115.788
20
-69.5409
11
115.788
21
-70.0766
0
LINE
8
Black
10
115.788
20
-70.0766
11
115.785
21
-70.0884
0
LINE
8
Black
10
115.785
20
-70.0884
11
115.784
21
-70.1003
0
LINE
8
Black
10
115.784
20
-70.1003
11
115.748
21
-70.2075
0
LINE
8
Black
10
115.748
20
-70.2075
11
115.746
21
-70.2113
0
LINE
8
Black
10
115.746
20
-70.2113
11
115.745
21
-70.2154
0
LINE
8
Black
10
115.745
20
-70.2154
11
115.74
21
-70.2226
0
LINE
8
Black
10
115.74
20
-70.2226
11
115.736
21
-70.2304
0
LINE
8
Black
10
115.736
20
-70.2304
11
115.732
21
-70.2332
0
LINE
8
Black
10
115.732
20
-70.2332
11
115.73
21
-70.2368
0
LINE
8
Black
10
115.73
20
-70.2368
11
115.658
21
-70.3082
0
LINE
8
Black
10
115.658
20
-70.3082
11
115.655
21
-70.3107
0
LINE
8
Black
10
115.655
20
-70.3107
11
115.652
21
-70.3139
0
LINE
8
Black
10
115.652
20
-70.3139
11
115.644
21
-70.3181
0
LINE
8
Black
10
115.644
20
-70.3181
11
115.637
21
-70.3231
0
LINE
8
Black
10
115.637
20
-70.3231
11
115.633
21
-70.3243
0
LINE
8
Black
10
115.633
20
-70.3243
11
115.629
21
-70.3263
0
LINE
8
Black
10
115.629
20
-70.3263
11
115.522
21
-70.362
0
LINE
8
Black
10
115.522
20
-70.362
11
115.51
21
-70.3638
0
LINE
8
Black
10
115.51
20
-70.3638
11
115.498
21
-70.3659
0
LINE
8
Black
10
115.498
20
-70.3659
11
115.427
21
-70.3659
0
LINE
8
Black
10
115.427
20
-70.3659
11
115.401
21
-70.3614
0
LINE
8
Black
10
115.401
20
-70.3614
11
115.379
21
-70.3483
0
LINE
8
Black
10
115.379
20
-70.3483
11
115.362
21
-70.3284
0
LINE
8
Black
10
115.362
20
-70.3284
11
115.353
21
-70.3039
0
LINE
8
Black
10
115.353
20
-70.3039
11
115.353
21
-70.2779
0
LINE
8
Black
10
115.353
20
-70.2779
11
115.362
21
-70.2534
0
LINE
8
Black
10
115.362
20
-70.2534
11
115.379
21
-70.2334
0
LINE
8
Black
10
115.379
20
-70.2334
11
115.401
21
-70.2204
0
LINE
8
Black
10
115.401
20
-70.2204
11
115.427
21
-70.2159
0
LINE
8
Black
10
115.427
20
-70.2159
11
115.486
21
-70.2159
0
LINE
8
Black
10
115.486
20
-70.2159
11
115.565
21
-70.1896
0
LINE
8
Black
10
115.565
20
-70.1896
11
115.611
21
-70.1432
0
LINE
8
Black
10
115.611
20
-70.1432
11
115.638
21
-70.0644
0
LINE
8
Black
10
115.638
20
-70.0644
11
115.638
21
-69.5409
0
LINE
8
Black
10
115.638
20
-69.5409
11
115.642
21
-69.5152
0
LINE
8
Black
10
115.642
20
-69.5152
11
115.655
21
-69.4927
0
LINE
8
Black
10
115.655
20
-69.4927
11
115.675
21
-69.4759
0
LINE
8
Black
10
115.675
20
-69.4759
11
115.699
21
-69.467
0
LINE
8
Black
10
115.699
20
-69.467
11
115.726
21
-69.467
0
LINE
8
Black
10
115.726
20
-69.467
11
115.75
21
-69.4759
0
LINE
8
Black
10
116.107
20
-69.4759
11
116.127
21
-69.4927
0
LINE
8
Black
10
116.127
20
-69.4927
11
116.14
21
-69.5152
0
LINE
8
Black
10
116.14
20
-69.5152
11
116.145
21
-69.5409
0
LINE
8
Black
10
116.145
20
-69.5409
11
116.145
21
-70.2159
0
LINE
8
Black
10
116.145
20
-70.2159
11
116.427
21
-70.2159
0
LINE
8
Black
10
116.427
20
-70.2159
11
116.452
21
-70.2204
0
LINE
8
Black
10
116.452
20
-70.2204
11
116.475
21
-70.2334
0
LINE
8
Black
10
116.475
20
-70.2334
11
116.492
21
-70.2534
0
LINE
8
Black
10
116.492
20
-70.2534
11
116.501
21
-70.2779
0
LINE
8
Black
10
116.501
20
-70.2779
11
116.501
21
-70.3039
0
LINE
8
Black
10
116.501
20
-70.3039
11
116.492
21
-70.3284
0
LINE
8
Black
10
116.492
20
-70.3284
11
116.475
21
-70.3483
0
LINE
8
Black
10
116.475
20
-70.3483
11
116.452
21
-70.3614
0
LINE
8
Black
10
116.452
20
-70.3614
11
116.427
21
-70.3659
0
LINE
8
Black
10
116.427
20
-70.3659
11
116.07
21
-70.3659
0
LINE
8
Black
10
116.07
20
-70.3659
11
116.063
21
-70.3647
0
LINE
8
Black
10
116.063
20
-70.3647
11
116.057
21
-70.3647
0
LINE
8
Black
10
116.057
20
-70.3647
11
116.05
21
-70.3625
0
LINE
8
Black
10
116.05
20
-70.3625
11
116.044
21
-70.3614
0
LINE
8
Black
10
116.044
20
-70.3614
11
116.038
21
-70.3581
0
LINE
8
Black
10
116.038
20
-70.3581
11
116.032
21
-70.3558
0
LINE
8
Black
10
116.032
20
-70.3558
11
116.027
21
-70.3516
0
LINE
8
Black
10
116.027
20
-70.3516
11
116.021
21
-70.3483
0
LINE
8
Black
10
116.021
20
-70.3483
11
116.017
21
-70.3433
0
LINE
8
Black
10
116.017
20
-70.3433
11
116.012
21
-70.3391
0
LINE
8
Black
10
116.012
20
-70.3391
11
116.009
21
-70.3334
0
LINE
8
Black
10
116.009
20
-70.3334
11
116.005
21
-70.3284
0
LINE
8
Black
10
116.005
20
-70.3284
11
116.002
21
-70.3222
0
LINE
8
Black
10
116.002
20
-70.3222
11
115.999
21
-70.3165
0
LINE
8
Black
10
115.999
20
-70.3165
11
115.998
21
-70.3101
0
LINE
8
Black
10
115.998
20
-70.3101
11
115.996
21
-70.3039
0
LINE
8
Black
10
115.996
20
-70.3039
11
115.996
21
-70.2973
0
LINE
8
Black
10
115.996
20
-70.2973
11
115.995
21
-70.2909
0
LINE
8
Black
10
115.995
20
-70.2909
11
115.995
21
-69.5409
0
LINE
8
Black
10
115.995
20
-69.5409
11
115.999
21
-69.5152
0
LINE
8
Black
10
115.999
20
-69.5152
11
116.012
21
-69.4927
0
LINE
8
Black
10
116.012
20
-69.4927
11
116.032
21
-69.4759
0
LINE
8
Black
10
116.032
20
-69.4759
11
116.057
21
-69.467
0
LINE
8
Black
10
116.057
20
-69.467
11
116.083
21
-69.467
0
LINE
8
Black
10
116.083
20
-69.467
11
116.107
21
-69.4759
  0
ENDSEC
  0
EOF
