M48
;DRILL file {KiCad (5.0.0)} date 11/12/19 20:48:14
;FORMAT={-:-/ absolute / inch / decimal}
FMAT,2
INCH,TZ
T1C0.0157
T2C0.0394
T3C0.0430
T4C0.0472
%
G90
G05
M72
T1
X2.99Y-2.615
X2.995Y-3.03
X2.995Y-4.47
X2.995Y-4.855
X3.Y-3.74
X3.015Y-2.145
X3.175Y-3.905
X3.195Y-2.75
X3.215Y-3.16
X3.23Y-2.585
X3.23Y-4.66
X3.26Y-5.105
X3.39Y-3.775
X3.39Y-3.94
X3.39Y-4.51
X3.415Y-3.185
X3.42Y-2.71
X3.425Y-3.035
X3.4493Y-2.155
X3.455Y-2.41
X3.455Y-2.41
X3.455Y-2.41
X3.455Y-2.565
X3.57Y-2.075
X3.575Y-2.205
X3.625Y-2.34
X3.655Y-2.26
X3.675Y-2.7
X3.715Y-5.11
X3.745Y-2.425
X3.745Y-2.54
X3.875Y-2.495
X3.885Y-2.78
X3.9224Y-2.7281
X3.95Y-3.075
X3.9576Y-2.44
X3.975Y-2.7627
X4.Y-3.075
X4.Y-3.825
X4.01Y-2.32
X4.02Y-4.59
X4.07Y-2.7804
X4.18Y-2.325
X4.23Y-2.225
X4.37Y-2.55
X4.39Y-5.105
X4.395Y-2.985
X4.45Y-1.9772
X4.45Y-2.1228
X4.45Y-2.1228
X4.45Y-4.43
X4.5Y-2.325
X4.505Y-4.2
X4.51Y-2.675
X4.675Y-4.33
X4.7Y-3.045
X4.725Y-2.25
X4.77Y-2.665
X4.795Y-1.915
X4.795Y-1.95
X4.875Y-3.57
X4.8804Y-2.8705
X4.8807Y-4.345
X4.9138Y-2.0888
X4.945Y-4.465
X4.955Y-2.86
X4.96Y-2.655
X4.9809Y-2.0591
X4.985Y-2.195
X5.14Y-3.955
X5.15Y-3.065
X5.15Y-5.09
X5.17Y-2.71
X5.2Y-2.935
X5.235Y-4.12
X5.365Y-4.065
X5.37Y-2.62
X5.4Y-2.46
X5.41Y-2.55
X5.425Y-2.87
X5.4254Y-2.82
X5.445Y-3.235
X5.445Y-3.235
X5.455Y-1.93
X5.455Y-4.795
X5.47Y-3.6915
X5.47Y-4.3562
X5.48Y-2.23
X5.495Y-2.53
X5.5024Y-2.815
X5.595Y-4.795
X5.685Y-3.06
X5.69Y-2.42
X5.7Y-3.575
X5.7Y-3.71
X5.71Y-2.805
X5.715Y-3.395
X5.73Y-2.145
X5.735Y-3.225
X5.74Y-3.52
X5.795Y-3.63
X5.87Y-4.125
X5.95Y-3.57
X6.01Y-4.895
X6.01Y-5.1
X6.06Y-3.17
X6.065Y-3.675
X6.13Y-3.32
X6.19Y-3.13
X6.195Y-2.28
X6.205Y-2.65
X6.255Y-4.235
X6.415Y-3.575
X6.435Y-2.865
X6.435Y-3.755
X6.455Y-4.075
X6.48Y-2.41
X6.5Y-4.527
X6.515Y-1.96
X6.56Y-1.925
X6.605Y-3.455
X6.645Y-2.575
X6.645Y-2.905
X6.705Y-2.165
X6.71Y-5.11
X6.755Y-2.695
X6.755Y-2.78
X6.755Y-4.32
X6.775Y-2.165
X6.775Y-2.315
X6.8Y-1.955
X6.8Y-2.035
X6.85Y-4.3931
X6.86Y-4.285
X6.86Y-4.46
X6.865Y-2.795
X6.895Y-3.415
X6.9Y-3.99
X6.905Y-2.355
X6.905Y-3.835
X6.94Y-2.75
X6.94Y-2.69
X6.95Y-2.255
X6.95Y-4.455
X6.96Y-2.95
X6.97Y-3.755
X6.99Y-2.49
X7.04Y-5.085
X7.135Y-3.275
X7.16Y-3.08
X7.165Y-2.49
X7.205Y-3.405
X7.21Y-2.345
X7.23Y-3.11
X7.245Y-3.24
X7.405Y-1.945
X7.425Y-2.1
X7.425Y-5.285
X7.465Y-4.12
X7.52Y-4.295
X7.53Y-2.
X7.535Y-4.52
X7.585Y-5.39
X7.5898Y-2.126
X7.6554Y-2.0627
X7.67Y-2.38
X7.69Y-3.41
X7.695Y-4.69
X7.7Y-3.915
X7.74Y-4.37
X7.7422Y-2.0627
X7.75Y-5.16
X7.77Y-3.275
X7.83Y-1.94
X7.875Y-3.065
X7.9Y-2.53
X7.9015Y-2.0627
X7.93Y-4.88
X8.015Y-2.06
X8.055Y-3.97
X8.055Y-4.635
X8.0554Y-3.125
X8.195Y-4.4
X8.3Y-4.215
X3.2738Y-2.3153
X3.3053Y-2.3862
X3.3427Y-2.2838
X3.3762Y-2.3547
X4.0238Y-3.7153
X4.0553Y-3.7862
X4.0927Y-3.6838
X4.1262Y-3.7547
X6.2738Y-2.1253
X6.3053Y-2.1962
X6.3427Y-2.0938
X6.3762Y-2.1647
X7.0502Y-4.735
X7.1998Y-4.735
X4.7256Y-4.2
X4.8752Y-4.2
X5.5156Y-3.355
X5.6652Y-3.355
X4.448Y-3.3132
X4.45Y-3.1242
X5.5652Y-1.95
X5.7148Y-1.95
X6.698Y-3.948
X6.7Y-3.7591
X6.2738Y-2.8753
X6.3053Y-2.9462
X6.3427Y-2.8438
X6.3762Y-2.9147
X3.2738Y-3.0653
X3.3053Y-3.1362
X3.3427Y-3.0338
X3.3762Y-3.1047
X4.0238Y-4.4703
X4.0553Y-4.5412
X4.0927Y-4.4388
X4.1262Y-4.5097
X6.573Y-4.4517
X6.5917Y-4.527
X6.6463Y-4.4327
X6.667Y-4.5083
X4.945Y-2.2302
X4.945Y-2.3798
X5.198Y-4.7065
X5.2Y-4.5175
X5.5048Y-4.115
X5.6544Y-4.115
X7.9502Y-2.36
X8.0998Y-2.36
X3.673Y-4.8825
X3.675Y-4.6935
X7.575Y-3.8652
X7.575Y-4.0148
X7.0238Y-2.2203
X7.0553Y-2.2912
X7.0927Y-2.1888
X7.1262Y-2.2597
X7.2002Y-2.2
X7.3498Y-2.2
X7.048Y-4.6659
X7.05Y-4.477
X6.2761Y-3.6276
X6.3076Y-3.6985
X6.345Y-3.5961
X6.3785Y-3.667
X3.2688Y-3.8153
X3.3003Y-3.8862
X3.3377Y-3.7838
X3.3712Y-3.8547
X4.7738Y-2.1203
X4.8053Y-2.1912
X4.8427Y-2.0888
X4.8762Y-2.1597
X7.0261Y-2.9726
X7.0576Y-3.0435
X7.095Y-2.9411
X7.1285Y-3.012
X7.0052Y-3.55
X7.1548Y-3.55
X4.1598Y-2.855
X4.3094Y-2.855
X4.448Y-4.0565
X4.45Y-3.8675
X3.9952Y-4.34
X4.1448Y-4.34
X5.998Y-2.4659
X6.Y-2.277
X7.7738Y-2.4053
X7.8053Y-2.4762
X7.8427Y-2.3738
X7.8762Y-2.4447
X3.2398Y-2.175
X3.3894Y-2.175
X7.448Y-3.2945
X7.45Y-3.1055
X4.7738Y-2.8803
X4.8053Y-2.9512
X4.8427Y-2.8488
X4.8762Y-2.9197
X5.5238Y-4.2853
X5.5553Y-4.3562
X5.5927Y-4.2538
X5.6262Y-4.3247
X4.7688Y-3.6253
X4.8003Y-3.6962
X4.8377Y-3.5938
X4.8712Y-3.6647
X6.698Y-2.4565
X6.7Y-2.2675
X7.2874Y-4.9095
X7.2945Y-4.8341
X7.3645Y-4.9176
X7.3726Y-4.8405
X3.2602Y-2.89
X3.4098Y-2.89
X5.948Y-4.6065
X5.95Y-4.4175
X3.2498Y-3.645
X3.3994Y-3.645
X6.2752Y-2.7
X6.4248Y-2.7
X7.0238Y-3.7203
X7.0553Y-3.7912
X7.0927Y-3.6888
X7.1262Y-3.7597
X6.5252Y-4.24
X6.6748Y-4.24
X7.7618Y-2.998
X7.9508Y-3.
X4.7738Y-4.3803
X4.8053Y-4.4512
X4.8427Y-4.3488
X4.8762Y-4.4197
X3.2688Y-4.5603
X3.3003Y-4.6312
X3.3377Y-4.5288
X3.3712Y-4.5997
X5.173Y-3.3945
X5.175Y-3.2055
X5.5288Y-2.0303
X5.5603Y-2.1012
X5.5977Y-1.9988
X5.6312Y-2.0697
X3.2548Y-4.395
X3.4044Y-4.395
X4.0102Y-3.55
X4.1598Y-3.55
X5.948Y-3.8695
X5.95Y-3.6805
X3.673Y-2.6445
X3.675Y-2.4555
X7.7738Y-3.1553
X7.8053Y-3.2262
X7.8427Y-3.1238
X7.8762Y-3.1947
X6.2502Y-1.96
X6.3998Y-1.96
X7.8091Y-3.698
X7.998Y-3.7
X7.8055Y-3.798
X7.9945Y-3.8
X4.0288Y-2.2203
X4.0603Y-2.2912
X4.0977Y-2.1888
X4.1312Y-2.2597
X5.948Y-3.3945
X5.95Y-3.2055
X5.5238Y-3.5353
X5.5553Y-3.6062
X5.5927Y-3.5038
X5.6262Y-3.5747
X5.148Y-2.4575
X5.15Y-2.2685
X7.9402Y-3.125
X8.0898Y-3.125
X4.7152Y-3.465
X4.8648Y-3.465
X4.448Y-4.7945
X4.45Y-4.6055
X7.0048Y-2.8
X7.1544Y-2.8
X4.205Y-2.3606
X4.205Y-2.5102
X6.2506Y-3.45
X6.4002Y-3.45
X7.198Y-4.6575
X7.2Y-4.4685
X7.448Y-2.5508
X7.45Y-2.3618
X6.098Y-4.6075
X6.1Y-4.4185
X4.0238Y-2.9703
X4.0553Y-3.0412
X4.0927Y-2.9388
X4.1262Y-3.0097
X5.5238Y-2.7803
X5.5553Y-2.8512
X5.5927Y-2.7488
X5.6262Y-2.8197
X5.198Y-3.9445
X5.2Y-3.7555
X3.698Y-3.3945
X3.7Y-3.2055
X5.4952Y-2.605
X5.6448Y-2.605
X3.698Y-4.1445
X3.7Y-3.9555
X7.6724Y-4.2595
X7.6795Y-4.1841
X7.7495Y-4.2676
X7.7576Y-4.1905
X4.448Y-2.5445
X4.45Y-2.3555
X4.955Y-3.0252
X4.955Y-3.1748
X6.698Y-3.2195
X6.7Y-3.0305
X7.448Y-4.0132
X7.45Y-3.8242
T2
X5.05Y-1.9
X5.05Y-2.
X7.Y-4.3
X7.1Y-4.3
X3.6515Y-2.1045
X3.75Y-2.0872
X3.8485Y-2.0698
X3.947Y-2.0524
X4.0454Y-2.0351
X4.1439Y-2.0177
T3
X5.2764Y-1.9706
X5.2764Y-2.0706
X5.2764Y-2.1706
X5.2764Y-2.2706
X5.2764Y-2.3706
X5.2764Y-2.4706
X5.2764Y-2.5706
X5.2764Y-2.6706
X5.2764Y-2.7706
X5.2764Y-2.8706
X5.2764Y-2.9706
X5.2764Y-3.0706
X5.8764Y-1.9706
X5.8764Y-2.0706
X5.8764Y-2.1706
X5.8764Y-2.2706
X5.8764Y-2.3706
X5.8764Y-2.4706
X5.8764Y-2.5706
X5.8764Y-2.6706
X5.8764Y-2.7706
X5.8764Y-2.8706
X5.8764Y-2.9706
X5.8764Y-3.0706
T4
X3.8794Y-3.3281
X4.0762Y-3.4108
X4.2731Y-3.3281
X4.6287Y-4.7322
X4.8256Y-4.8148
X5.0224Y-4.7322
X6.3645Y-4.7754
X6.544Y-4.891
X6.7522Y-4.8438
X3.8794Y-4.0735
X4.0762Y-4.1562
X4.2731Y-4.0735
X5.3796Y-3.8883
X5.5764Y-3.971
X5.7733Y-3.8883
X6.8774Y-2.5733
X7.0742Y-2.656
X7.2711Y-2.5733
X4.6248Y-3.9797
X4.8216Y-4.0624
X5.0185Y-3.9797
X5.3772Y-4.6384
X5.5741Y-4.7211
X5.7709Y-4.6384
X6.8797Y-3.3257
X7.0766Y-3.4084
X7.2734Y-3.3257
X7.5273Y-5.2146
X7.6973Y-5.0855
X7.7242Y-4.8736
X5.3788Y-3.1359
X5.5757Y-3.2186
X5.7725Y-3.1359
X6.1273Y-2.4796
X6.3242Y-2.5622
X6.521Y-2.4796
X7.9039Y-4.5632
X8.0739Y-4.4341
X8.1007Y-4.2223
X3.1277Y-2.6671
X3.3246Y-2.7498
X3.5214Y-2.6671
X3.877Y-4.8259
X4.0739Y-4.9086
X4.2707Y-4.8259
X6.1273Y-3.9797
X6.3242Y-4.0624
X6.521Y-3.9797
X5.3803Y-2.3858
X5.5772Y-2.4685
X5.774Y-2.3858
X6.1273Y-3.232
X6.3242Y-3.3147
X6.521Y-3.232
X3.127Y-4.9173
X3.3238Y-5.
X3.5207Y-4.9173
X4.6271Y-2.4772
X4.824Y-2.5599
X5.0208Y-2.4772
X7.6291Y-2.7596
X7.8259Y-2.8422
X8.0228Y-2.7596
X3.127Y-4.1696
X3.3238Y-4.2523
X3.5207Y-4.1696
X6.8774Y-4.0735
X7.0742Y-4.1562
X7.2711Y-4.0735
X3.127Y-3.4195
X3.3238Y-3.5022
X3.5207Y-3.4195
X3.8794Y-2.5757
X4.0762Y-2.6583
X4.2731Y-2.5757
X4.6271Y-3.232
X4.824Y-3.3147
X5.0208Y-3.232
X7.6275Y-3.5109
X7.8243Y-3.5936
X8.0212Y-3.5109
T0
M30
