G04 #@! TF.GenerationSoftware,KiCad,Pcbnew,(5.0.0)*
G04 #@! TF.CreationDate,2019-11-12T20:48:11-06:00*
G04 #@! TF.ProjectId,ErgoTravel,4572676F54726176656C2E6B69636164,rev?*
G04 #@! TF.SameCoordinates,Original*
G04 #@! TF.FileFunction,Paste,Top*
G04 #@! TF.FilePolarity,Positive*
%FSLAX46Y46*%
G04 Gerber Fmt 4.6, Leading zero omitted, Abs format (unit mm)*
G04 Created by KiCad (PCBNEW (5.0.0)) date 11/12/19 20:48:11*
%MOMM*%
%LPD*%
G01*
G04 APERTURE LIST*
%ADD10R,1.800000X1.100000*%
%ADD11C,0.100000*%
%ADD12C,1.150000*%
%ADD13R,0.900000X0.900000*%
%ADD14R,0.900000X1.250000*%
%ADD15R,1.200000X0.900000*%
%ADD16R,0.900000X1.200000*%
%ADD17R,0.500000X0.500000*%
%ADD18C,0.500000*%
%ADD19R,1.200000X2.500000*%
G04 APERTURE END LIST*
D10*
G04 #@! TO.C,SW1*
X109930000Y-49966000D03*
X116130000Y-49966000D03*
X109930000Y-53666000D03*
X116130000Y-53666000D03*
G04 #@! TD*
D11*
G04 #@! TO.C,R4*
G36*
X176380505Y-48831204D02*
X176404773Y-48834804D01*
X176428572Y-48840765D01*
X176451671Y-48849030D01*
X176473850Y-48859520D01*
X176494893Y-48872132D01*
X176514599Y-48886747D01*
X176532777Y-48903223D01*
X176549253Y-48921401D01*
X176563868Y-48941107D01*
X176576480Y-48962150D01*
X176586970Y-48984329D01*
X176595235Y-49007428D01*
X176601196Y-49031227D01*
X176604796Y-49055495D01*
X176606000Y-49079999D01*
X176606000Y-49980001D01*
X176604796Y-50004505D01*
X176601196Y-50028773D01*
X176595235Y-50052572D01*
X176586970Y-50075671D01*
X176576480Y-50097850D01*
X176563868Y-50118893D01*
X176549253Y-50138599D01*
X176532777Y-50156777D01*
X176514599Y-50173253D01*
X176494893Y-50187868D01*
X176473850Y-50200480D01*
X176451671Y-50210970D01*
X176428572Y-50219235D01*
X176404773Y-50225196D01*
X176380505Y-50228796D01*
X176356001Y-50230000D01*
X175705999Y-50230000D01*
X175681495Y-50228796D01*
X175657227Y-50225196D01*
X175633428Y-50219235D01*
X175610329Y-50210970D01*
X175588150Y-50200480D01*
X175567107Y-50187868D01*
X175547401Y-50173253D01*
X175529223Y-50156777D01*
X175512747Y-50138599D01*
X175498132Y-50118893D01*
X175485520Y-50097850D01*
X175475030Y-50075671D01*
X175466765Y-50052572D01*
X175460804Y-50028773D01*
X175457204Y-50004505D01*
X175456000Y-49980001D01*
X175456000Y-49079999D01*
X175457204Y-49055495D01*
X175460804Y-49031227D01*
X175466765Y-49007428D01*
X175475030Y-48984329D01*
X175485520Y-48962150D01*
X175498132Y-48941107D01*
X175512747Y-48921401D01*
X175529223Y-48903223D01*
X175547401Y-48886747D01*
X175567107Y-48872132D01*
X175588150Y-48859520D01*
X175610329Y-48849030D01*
X175633428Y-48840765D01*
X175657227Y-48834804D01*
X175681495Y-48831204D01*
X175705999Y-48830000D01*
X176356001Y-48830000D01*
X176380505Y-48831204D01*
X176380505Y-48831204D01*
G37*
D12*
X176031000Y-49530000D03*
D11*
G36*
X174330505Y-48831204D02*
X174354773Y-48834804D01*
X174378572Y-48840765D01*
X174401671Y-48849030D01*
X174423850Y-48859520D01*
X174444893Y-48872132D01*
X174464599Y-48886747D01*
X174482777Y-48903223D01*
X174499253Y-48921401D01*
X174513868Y-48941107D01*
X174526480Y-48962150D01*
X174536970Y-48984329D01*
X174545235Y-49007428D01*
X174551196Y-49031227D01*
X174554796Y-49055495D01*
X174556000Y-49079999D01*
X174556000Y-49980001D01*
X174554796Y-50004505D01*
X174551196Y-50028773D01*
X174545235Y-50052572D01*
X174536970Y-50075671D01*
X174526480Y-50097850D01*
X174513868Y-50118893D01*
X174499253Y-50138599D01*
X174482777Y-50156777D01*
X174464599Y-50173253D01*
X174444893Y-50187868D01*
X174423850Y-50200480D01*
X174401671Y-50210970D01*
X174378572Y-50219235D01*
X174354773Y-50225196D01*
X174330505Y-50228796D01*
X174306001Y-50230000D01*
X173655999Y-50230000D01*
X173631495Y-50228796D01*
X173607227Y-50225196D01*
X173583428Y-50219235D01*
X173560329Y-50210970D01*
X173538150Y-50200480D01*
X173517107Y-50187868D01*
X173497401Y-50173253D01*
X173479223Y-50156777D01*
X173462747Y-50138599D01*
X173448132Y-50118893D01*
X173435520Y-50097850D01*
X173425030Y-50075671D01*
X173416765Y-50052572D01*
X173410804Y-50028773D01*
X173407204Y-50004505D01*
X173406000Y-49980001D01*
X173406000Y-49079999D01*
X173407204Y-49055495D01*
X173410804Y-49031227D01*
X173416765Y-49007428D01*
X173425030Y-48984329D01*
X173435520Y-48962150D01*
X173448132Y-48941107D01*
X173462747Y-48921401D01*
X173479223Y-48903223D01*
X173497401Y-48886747D01*
X173517107Y-48872132D01*
X173538150Y-48859520D01*
X173560329Y-48849030D01*
X173583428Y-48840765D01*
X173607227Y-48834804D01*
X173631495Y-48831204D01*
X173655999Y-48830000D01*
X174306001Y-48830000D01*
X174330505Y-48831204D01*
X174330505Y-48831204D01*
G37*
D12*
X173981000Y-49530000D03*
G04 #@! TD*
D11*
G04 #@! TO.C,R6*
G36*
X189697505Y-51371204D02*
X189721773Y-51374804D01*
X189745572Y-51380765D01*
X189768671Y-51389030D01*
X189790850Y-51399520D01*
X189811893Y-51412132D01*
X189831599Y-51426747D01*
X189849777Y-51443223D01*
X189866253Y-51461401D01*
X189880868Y-51481107D01*
X189893480Y-51502150D01*
X189903970Y-51524329D01*
X189912235Y-51547428D01*
X189918196Y-51571227D01*
X189921796Y-51595495D01*
X189923000Y-51619999D01*
X189923000Y-52520001D01*
X189921796Y-52544505D01*
X189918196Y-52568773D01*
X189912235Y-52592572D01*
X189903970Y-52615671D01*
X189893480Y-52637850D01*
X189880868Y-52658893D01*
X189866253Y-52678599D01*
X189849777Y-52696777D01*
X189831599Y-52713253D01*
X189811893Y-52727868D01*
X189790850Y-52740480D01*
X189768671Y-52750970D01*
X189745572Y-52759235D01*
X189721773Y-52765196D01*
X189697505Y-52768796D01*
X189673001Y-52770000D01*
X189022999Y-52770000D01*
X188998495Y-52768796D01*
X188974227Y-52765196D01*
X188950428Y-52759235D01*
X188927329Y-52750970D01*
X188905150Y-52740480D01*
X188884107Y-52727868D01*
X188864401Y-52713253D01*
X188846223Y-52696777D01*
X188829747Y-52678599D01*
X188815132Y-52658893D01*
X188802520Y-52637850D01*
X188792030Y-52615671D01*
X188783765Y-52592572D01*
X188777804Y-52568773D01*
X188774204Y-52544505D01*
X188773000Y-52520001D01*
X188773000Y-51619999D01*
X188774204Y-51595495D01*
X188777804Y-51571227D01*
X188783765Y-51547428D01*
X188792030Y-51524329D01*
X188802520Y-51502150D01*
X188815132Y-51481107D01*
X188829747Y-51461401D01*
X188846223Y-51443223D01*
X188864401Y-51426747D01*
X188884107Y-51412132D01*
X188905150Y-51399520D01*
X188927329Y-51389030D01*
X188950428Y-51380765D01*
X188974227Y-51374804D01*
X188998495Y-51371204D01*
X189022999Y-51370000D01*
X189673001Y-51370000D01*
X189697505Y-51371204D01*
X189697505Y-51371204D01*
G37*
D12*
X189348000Y-52070000D03*
D11*
G36*
X191747505Y-51371204D02*
X191771773Y-51374804D01*
X191795572Y-51380765D01*
X191818671Y-51389030D01*
X191840850Y-51399520D01*
X191861893Y-51412132D01*
X191881599Y-51426747D01*
X191899777Y-51443223D01*
X191916253Y-51461401D01*
X191930868Y-51481107D01*
X191943480Y-51502150D01*
X191953970Y-51524329D01*
X191962235Y-51547428D01*
X191968196Y-51571227D01*
X191971796Y-51595495D01*
X191973000Y-51619999D01*
X191973000Y-52520001D01*
X191971796Y-52544505D01*
X191968196Y-52568773D01*
X191962235Y-52592572D01*
X191953970Y-52615671D01*
X191943480Y-52637850D01*
X191930868Y-52658893D01*
X191916253Y-52678599D01*
X191899777Y-52696777D01*
X191881599Y-52713253D01*
X191861893Y-52727868D01*
X191840850Y-52740480D01*
X191818671Y-52750970D01*
X191795572Y-52759235D01*
X191771773Y-52765196D01*
X191747505Y-52768796D01*
X191723001Y-52770000D01*
X191072999Y-52770000D01*
X191048495Y-52768796D01*
X191024227Y-52765196D01*
X191000428Y-52759235D01*
X190977329Y-52750970D01*
X190955150Y-52740480D01*
X190934107Y-52727868D01*
X190914401Y-52713253D01*
X190896223Y-52696777D01*
X190879747Y-52678599D01*
X190865132Y-52658893D01*
X190852520Y-52637850D01*
X190842030Y-52615671D01*
X190833765Y-52592572D01*
X190827804Y-52568773D01*
X190824204Y-52544505D01*
X190823000Y-52520001D01*
X190823000Y-51619999D01*
X190824204Y-51595495D01*
X190827804Y-51571227D01*
X190833765Y-51547428D01*
X190842030Y-51524329D01*
X190852520Y-51502150D01*
X190865132Y-51481107D01*
X190879747Y-51461401D01*
X190896223Y-51443223D01*
X190914401Y-51426747D01*
X190934107Y-51412132D01*
X190955150Y-51399520D01*
X190977329Y-51389030D01*
X191000428Y-51380765D01*
X191024227Y-51374804D01*
X191048495Y-51371204D01*
X191072999Y-51370000D01*
X191723001Y-51370000D01*
X191747505Y-51371204D01*
X191747505Y-51371204D01*
G37*
D12*
X191398000Y-52070000D03*
G04 #@! TD*
D13*
G04 #@! TO.C,SW3*
X118129000Y-47117000D03*
X118129000Y-49317000D03*
X125529000Y-49317000D03*
X125529000Y-47117000D03*
D14*
X124079000Y-50292000D03*
X119579000Y-50292000D03*
X121079000Y-50292000D03*
G04 #@! TD*
D11*
G04 #@! TO.C,R2*
G36*
X174330505Y-51117204D02*
X174354773Y-51120804D01*
X174378572Y-51126765D01*
X174401671Y-51135030D01*
X174423850Y-51145520D01*
X174444893Y-51158132D01*
X174464599Y-51172747D01*
X174482777Y-51189223D01*
X174499253Y-51207401D01*
X174513868Y-51227107D01*
X174526480Y-51248150D01*
X174536970Y-51270329D01*
X174545235Y-51293428D01*
X174551196Y-51317227D01*
X174554796Y-51341495D01*
X174556000Y-51365999D01*
X174556000Y-52266001D01*
X174554796Y-52290505D01*
X174551196Y-52314773D01*
X174545235Y-52338572D01*
X174536970Y-52361671D01*
X174526480Y-52383850D01*
X174513868Y-52404893D01*
X174499253Y-52424599D01*
X174482777Y-52442777D01*
X174464599Y-52459253D01*
X174444893Y-52473868D01*
X174423850Y-52486480D01*
X174401671Y-52496970D01*
X174378572Y-52505235D01*
X174354773Y-52511196D01*
X174330505Y-52514796D01*
X174306001Y-52516000D01*
X173655999Y-52516000D01*
X173631495Y-52514796D01*
X173607227Y-52511196D01*
X173583428Y-52505235D01*
X173560329Y-52496970D01*
X173538150Y-52486480D01*
X173517107Y-52473868D01*
X173497401Y-52459253D01*
X173479223Y-52442777D01*
X173462747Y-52424599D01*
X173448132Y-52404893D01*
X173435520Y-52383850D01*
X173425030Y-52361671D01*
X173416765Y-52338572D01*
X173410804Y-52314773D01*
X173407204Y-52290505D01*
X173406000Y-52266001D01*
X173406000Y-51365999D01*
X173407204Y-51341495D01*
X173410804Y-51317227D01*
X173416765Y-51293428D01*
X173425030Y-51270329D01*
X173435520Y-51248150D01*
X173448132Y-51227107D01*
X173462747Y-51207401D01*
X173479223Y-51189223D01*
X173497401Y-51172747D01*
X173517107Y-51158132D01*
X173538150Y-51145520D01*
X173560329Y-51135030D01*
X173583428Y-51126765D01*
X173607227Y-51120804D01*
X173631495Y-51117204D01*
X173655999Y-51116000D01*
X174306001Y-51116000D01*
X174330505Y-51117204D01*
X174330505Y-51117204D01*
G37*
D12*
X173981000Y-51816000D03*
D11*
G36*
X176380505Y-51117204D02*
X176404773Y-51120804D01*
X176428572Y-51126765D01*
X176451671Y-51135030D01*
X176473850Y-51145520D01*
X176494893Y-51158132D01*
X176514599Y-51172747D01*
X176532777Y-51189223D01*
X176549253Y-51207401D01*
X176563868Y-51227107D01*
X176576480Y-51248150D01*
X176586970Y-51270329D01*
X176595235Y-51293428D01*
X176601196Y-51317227D01*
X176604796Y-51341495D01*
X176606000Y-51365999D01*
X176606000Y-52266001D01*
X176604796Y-52290505D01*
X176601196Y-52314773D01*
X176595235Y-52338572D01*
X176586970Y-52361671D01*
X176576480Y-52383850D01*
X176563868Y-52404893D01*
X176549253Y-52424599D01*
X176532777Y-52442777D01*
X176514599Y-52459253D01*
X176494893Y-52473868D01*
X176473850Y-52486480D01*
X176451671Y-52496970D01*
X176428572Y-52505235D01*
X176404773Y-52511196D01*
X176380505Y-52514796D01*
X176356001Y-52516000D01*
X175705999Y-52516000D01*
X175681495Y-52514796D01*
X175657227Y-52511196D01*
X175633428Y-52505235D01*
X175610329Y-52496970D01*
X175588150Y-52486480D01*
X175567107Y-52473868D01*
X175547401Y-52459253D01*
X175529223Y-52442777D01*
X175512747Y-52424599D01*
X175498132Y-52404893D01*
X175485520Y-52383850D01*
X175475030Y-52361671D01*
X175466765Y-52338572D01*
X175460804Y-52314773D01*
X175457204Y-52290505D01*
X175456000Y-52266001D01*
X175456000Y-51365999D01*
X175457204Y-51341495D01*
X175460804Y-51317227D01*
X175466765Y-51293428D01*
X175475030Y-51270329D01*
X175485520Y-51248150D01*
X175498132Y-51227107D01*
X175512747Y-51207401D01*
X175529223Y-51189223D01*
X175547401Y-51172747D01*
X175567107Y-51158132D01*
X175588150Y-51145520D01*
X175610329Y-51135030D01*
X175633428Y-51126765D01*
X175657227Y-51120804D01*
X175681495Y-51117204D01*
X175705999Y-51116000D01*
X176356001Y-51116000D01*
X176380505Y-51117204D01*
X176380505Y-51117204D01*
G37*
D12*
X176031000Y-51816000D03*
G04 #@! TD*
D11*
G04 #@! TO.C,R8*
G36*
X89893505Y-55308204D02*
X89917773Y-55311804D01*
X89941572Y-55317765D01*
X89964671Y-55326030D01*
X89986850Y-55336520D01*
X90007893Y-55349132D01*
X90027599Y-55363747D01*
X90045777Y-55380223D01*
X90062253Y-55398401D01*
X90076868Y-55418107D01*
X90089480Y-55439150D01*
X90099970Y-55461329D01*
X90108235Y-55484428D01*
X90114196Y-55508227D01*
X90117796Y-55532495D01*
X90119000Y-55556999D01*
X90119000Y-56457001D01*
X90117796Y-56481505D01*
X90114196Y-56505773D01*
X90108235Y-56529572D01*
X90099970Y-56552671D01*
X90089480Y-56574850D01*
X90076868Y-56595893D01*
X90062253Y-56615599D01*
X90045777Y-56633777D01*
X90027599Y-56650253D01*
X90007893Y-56664868D01*
X89986850Y-56677480D01*
X89964671Y-56687970D01*
X89941572Y-56696235D01*
X89917773Y-56702196D01*
X89893505Y-56705796D01*
X89869001Y-56707000D01*
X89218999Y-56707000D01*
X89194495Y-56705796D01*
X89170227Y-56702196D01*
X89146428Y-56696235D01*
X89123329Y-56687970D01*
X89101150Y-56677480D01*
X89080107Y-56664868D01*
X89060401Y-56650253D01*
X89042223Y-56633777D01*
X89025747Y-56615599D01*
X89011132Y-56595893D01*
X88998520Y-56574850D01*
X88988030Y-56552671D01*
X88979765Y-56529572D01*
X88973804Y-56505773D01*
X88970204Y-56481505D01*
X88969000Y-56457001D01*
X88969000Y-55556999D01*
X88970204Y-55532495D01*
X88973804Y-55508227D01*
X88979765Y-55484428D01*
X88988030Y-55461329D01*
X88998520Y-55439150D01*
X89011132Y-55418107D01*
X89025747Y-55398401D01*
X89042223Y-55380223D01*
X89060401Y-55363747D01*
X89080107Y-55349132D01*
X89101150Y-55336520D01*
X89123329Y-55326030D01*
X89146428Y-55317765D01*
X89170227Y-55311804D01*
X89194495Y-55308204D01*
X89218999Y-55307000D01*
X89869001Y-55307000D01*
X89893505Y-55308204D01*
X89893505Y-55308204D01*
G37*
D12*
X89544000Y-56007000D03*
D11*
G36*
X87843505Y-55308204D02*
X87867773Y-55311804D01*
X87891572Y-55317765D01*
X87914671Y-55326030D01*
X87936850Y-55336520D01*
X87957893Y-55349132D01*
X87977599Y-55363747D01*
X87995777Y-55380223D01*
X88012253Y-55398401D01*
X88026868Y-55418107D01*
X88039480Y-55439150D01*
X88049970Y-55461329D01*
X88058235Y-55484428D01*
X88064196Y-55508227D01*
X88067796Y-55532495D01*
X88069000Y-55556999D01*
X88069000Y-56457001D01*
X88067796Y-56481505D01*
X88064196Y-56505773D01*
X88058235Y-56529572D01*
X88049970Y-56552671D01*
X88039480Y-56574850D01*
X88026868Y-56595893D01*
X88012253Y-56615599D01*
X87995777Y-56633777D01*
X87977599Y-56650253D01*
X87957893Y-56664868D01*
X87936850Y-56677480D01*
X87914671Y-56687970D01*
X87891572Y-56696235D01*
X87867773Y-56702196D01*
X87843505Y-56705796D01*
X87819001Y-56707000D01*
X87168999Y-56707000D01*
X87144495Y-56705796D01*
X87120227Y-56702196D01*
X87096428Y-56696235D01*
X87073329Y-56687970D01*
X87051150Y-56677480D01*
X87030107Y-56664868D01*
X87010401Y-56650253D01*
X86992223Y-56633777D01*
X86975747Y-56615599D01*
X86961132Y-56595893D01*
X86948520Y-56574850D01*
X86938030Y-56552671D01*
X86929765Y-56529572D01*
X86923804Y-56505773D01*
X86920204Y-56481505D01*
X86919000Y-56457001D01*
X86919000Y-55556999D01*
X86920204Y-55532495D01*
X86923804Y-55508227D01*
X86929765Y-55484428D01*
X86938030Y-55461329D01*
X86948520Y-55439150D01*
X86961132Y-55418107D01*
X86975747Y-55398401D01*
X86992223Y-55380223D01*
X87010401Y-55363747D01*
X87030107Y-55349132D01*
X87051150Y-55336520D01*
X87073329Y-55326030D01*
X87096428Y-55317765D01*
X87120227Y-55311804D01*
X87144495Y-55308204D01*
X87168999Y-55307000D01*
X87819001Y-55307000D01*
X87843505Y-55308204D01*
X87843505Y-55308204D01*
G37*
D12*
X87494000Y-56007000D03*
G04 #@! TD*
D11*
G04 #@! TO.C,C1*
G36*
X180299910Y-119570202D02*
X180324135Y-119573795D01*
X180347891Y-119579746D01*
X180370949Y-119587996D01*
X180393087Y-119598467D01*
X180414093Y-119611057D01*
X180433763Y-119625645D01*
X180451908Y-119642092D01*
X180468355Y-119660237D01*
X180482943Y-119679907D01*
X180495533Y-119700913D01*
X180506004Y-119723051D01*
X180514254Y-119746109D01*
X180520205Y-119769865D01*
X180523798Y-119794090D01*
X180525000Y-119818550D01*
X180525000Y-120719450D01*
X180523798Y-120743910D01*
X180520205Y-120768135D01*
X180514254Y-120791891D01*
X180506004Y-120814949D01*
X180495533Y-120837087D01*
X180482943Y-120858093D01*
X180468355Y-120877763D01*
X180451908Y-120895908D01*
X180433763Y-120912355D01*
X180414093Y-120926943D01*
X180393087Y-120939533D01*
X180370949Y-120950004D01*
X180347891Y-120958254D01*
X180324135Y-120964205D01*
X180299910Y-120967798D01*
X180275450Y-120969000D01*
X179624550Y-120969000D01*
X179600090Y-120967798D01*
X179575865Y-120964205D01*
X179552109Y-120958254D01*
X179529051Y-120950004D01*
X179506913Y-120939533D01*
X179485907Y-120926943D01*
X179466237Y-120912355D01*
X179448092Y-120895908D01*
X179431645Y-120877763D01*
X179417057Y-120858093D01*
X179404467Y-120837087D01*
X179393996Y-120814949D01*
X179385746Y-120791891D01*
X179379795Y-120768135D01*
X179376202Y-120743910D01*
X179375000Y-120719450D01*
X179375000Y-119818550D01*
X179376202Y-119794090D01*
X179379795Y-119769865D01*
X179385746Y-119746109D01*
X179393996Y-119723051D01*
X179404467Y-119700913D01*
X179417057Y-119679907D01*
X179431645Y-119660237D01*
X179448092Y-119642092D01*
X179466237Y-119625645D01*
X179485907Y-119611057D01*
X179506913Y-119598467D01*
X179529051Y-119587996D01*
X179552109Y-119579746D01*
X179575865Y-119573795D01*
X179600090Y-119570202D01*
X179624550Y-119569000D01*
X180275450Y-119569000D01*
X180299910Y-119570202D01*
X180299910Y-119570202D01*
G37*
D12*
X179950000Y-120269000D03*
D11*
G36*
X182349910Y-119570202D02*
X182374135Y-119573795D01*
X182397891Y-119579746D01*
X182420949Y-119587996D01*
X182443087Y-119598467D01*
X182464093Y-119611057D01*
X182483763Y-119625645D01*
X182501908Y-119642092D01*
X182518355Y-119660237D01*
X182532943Y-119679907D01*
X182545533Y-119700913D01*
X182556004Y-119723051D01*
X182564254Y-119746109D01*
X182570205Y-119769865D01*
X182573798Y-119794090D01*
X182575000Y-119818550D01*
X182575000Y-120719450D01*
X182573798Y-120743910D01*
X182570205Y-120768135D01*
X182564254Y-120791891D01*
X182556004Y-120814949D01*
X182545533Y-120837087D01*
X182532943Y-120858093D01*
X182518355Y-120877763D01*
X182501908Y-120895908D01*
X182483763Y-120912355D01*
X182464093Y-120926943D01*
X182443087Y-120939533D01*
X182420949Y-120950004D01*
X182397891Y-120958254D01*
X182374135Y-120964205D01*
X182349910Y-120967798D01*
X182325450Y-120969000D01*
X181674550Y-120969000D01*
X181650090Y-120967798D01*
X181625865Y-120964205D01*
X181602109Y-120958254D01*
X181579051Y-120950004D01*
X181556913Y-120939533D01*
X181535907Y-120926943D01*
X181516237Y-120912355D01*
X181498092Y-120895908D01*
X181481645Y-120877763D01*
X181467057Y-120858093D01*
X181454467Y-120837087D01*
X181443996Y-120814949D01*
X181435746Y-120791891D01*
X181429795Y-120768135D01*
X181426202Y-120743910D01*
X181425000Y-120719450D01*
X181425000Y-119818550D01*
X181426202Y-119794090D01*
X181429795Y-119769865D01*
X181435746Y-119746109D01*
X181443996Y-119723051D01*
X181454467Y-119700913D01*
X181467057Y-119679907D01*
X181481645Y-119660237D01*
X181498092Y-119642092D01*
X181516237Y-119625645D01*
X181535907Y-119611057D01*
X181556913Y-119598467D01*
X181579051Y-119587996D01*
X181602109Y-119579746D01*
X181625865Y-119573795D01*
X181650090Y-119570202D01*
X181674550Y-119569000D01*
X182325450Y-119569000D01*
X182349910Y-119570202D01*
X182349910Y-119570202D01*
G37*
D12*
X182000000Y-120269000D03*
G04 #@! TD*
D11*
G04 #@! TO.C,C2*
G36*
X186159910Y-55181202D02*
X186184135Y-55184795D01*
X186207891Y-55190746D01*
X186230949Y-55198996D01*
X186253087Y-55209467D01*
X186274093Y-55222057D01*
X186293763Y-55236645D01*
X186311908Y-55253092D01*
X186328355Y-55271237D01*
X186342943Y-55290907D01*
X186355533Y-55311913D01*
X186366004Y-55334051D01*
X186374254Y-55357109D01*
X186380205Y-55380865D01*
X186383798Y-55405090D01*
X186385000Y-55429550D01*
X186385000Y-56330450D01*
X186383798Y-56354910D01*
X186380205Y-56379135D01*
X186374254Y-56402891D01*
X186366004Y-56425949D01*
X186355533Y-56448087D01*
X186342943Y-56469093D01*
X186328355Y-56488763D01*
X186311908Y-56506908D01*
X186293763Y-56523355D01*
X186274093Y-56537943D01*
X186253087Y-56550533D01*
X186230949Y-56561004D01*
X186207891Y-56569254D01*
X186184135Y-56575205D01*
X186159910Y-56578798D01*
X186135450Y-56580000D01*
X185484550Y-56580000D01*
X185460090Y-56578798D01*
X185435865Y-56575205D01*
X185412109Y-56569254D01*
X185389051Y-56561004D01*
X185366913Y-56550533D01*
X185345907Y-56537943D01*
X185326237Y-56523355D01*
X185308092Y-56506908D01*
X185291645Y-56488763D01*
X185277057Y-56469093D01*
X185264467Y-56448087D01*
X185253996Y-56425949D01*
X185245746Y-56402891D01*
X185239795Y-56379135D01*
X185236202Y-56354910D01*
X185235000Y-56330450D01*
X185235000Y-55429550D01*
X185236202Y-55405090D01*
X185239795Y-55380865D01*
X185245746Y-55357109D01*
X185253996Y-55334051D01*
X185264467Y-55311913D01*
X185277057Y-55290907D01*
X185291645Y-55271237D01*
X185308092Y-55253092D01*
X185326237Y-55236645D01*
X185345907Y-55222057D01*
X185366913Y-55209467D01*
X185389051Y-55198996D01*
X185412109Y-55190746D01*
X185435865Y-55184795D01*
X185460090Y-55181202D01*
X185484550Y-55180000D01*
X186135450Y-55180000D01*
X186159910Y-55181202D01*
X186159910Y-55181202D01*
G37*
D12*
X185810000Y-55880000D03*
D11*
G36*
X184109910Y-55181202D02*
X184134135Y-55184795D01*
X184157891Y-55190746D01*
X184180949Y-55198996D01*
X184203087Y-55209467D01*
X184224093Y-55222057D01*
X184243763Y-55236645D01*
X184261908Y-55253092D01*
X184278355Y-55271237D01*
X184292943Y-55290907D01*
X184305533Y-55311913D01*
X184316004Y-55334051D01*
X184324254Y-55357109D01*
X184330205Y-55380865D01*
X184333798Y-55405090D01*
X184335000Y-55429550D01*
X184335000Y-56330450D01*
X184333798Y-56354910D01*
X184330205Y-56379135D01*
X184324254Y-56402891D01*
X184316004Y-56425949D01*
X184305533Y-56448087D01*
X184292943Y-56469093D01*
X184278355Y-56488763D01*
X184261908Y-56506908D01*
X184243763Y-56523355D01*
X184224093Y-56537943D01*
X184203087Y-56550533D01*
X184180949Y-56561004D01*
X184157891Y-56569254D01*
X184134135Y-56575205D01*
X184109910Y-56578798D01*
X184085450Y-56580000D01*
X183434550Y-56580000D01*
X183410090Y-56578798D01*
X183385865Y-56575205D01*
X183362109Y-56569254D01*
X183339051Y-56561004D01*
X183316913Y-56550533D01*
X183295907Y-56537943D01*
X183276237Y-56523355D01*
X183258092Y-56506908D01*
X183241645Y-56488763D01*
X183227057Y-56469093D01*
X183214467Y-56448087D01*
X183203996Y-56425949D01*
X183195746Y-56402891D01*
X183189795Y-56379135D01*
X183186202Y-56354910D01*
X183185000Y-56330450D01*
X183185000Y-55429550D01*
X183186202Y-55405090D01*
X183189795Y-55380865D01*
X183195746Y-55357109D01*
X183203996Y-55334051D01*
X183214467Y-55311913D01*
X183227057Y-55290907D01*
X183241645Y-55271237D01*
X183258092Y-55253092D01*
X183276237Y-55236645D01*
X183295907Y-55222057D01*
X183316913Y-55209467D01*
X183339051Y-55198996D01*
X183362109Y-55190746D01*
X183385865Y-55184795D01*
X183410090Y-55181202D01*
X183434550Y-55180000D01*
X184085450Y-55180000D01*
X184109910Y-55181202D01*
X184109910Y-55181202D01*
G37*
D12*
X183760000Y-55880000D03*
G04 #@! TD*
D11*
G04 #@! TO.C,C3*
G36*
X126077910Y-58998202D02*
X126102135Y-59001795D01*
X126125891Y-59007746D01*
X126148949Y-59015996D01*
X126171087Y-59026467D01*
X126192093Y-59039057D01*
X126211763Y-59053645D01*
X126229908Y-59070092D01*
X126246355Y-59088237D01*
X126260943Y-59107907D01*
X126273533Y-59128913D01*
X126284004Y-59151051D01*
X126292254Y-59174109D01*
X126298205Y-59197865D01*
X126301798Y-59222090D01*
X126303000Y-59246550D01*
X126303000Y-59897450D01*
X126301798Y-59921910D01*
X126298205Y-59946135D01*
X126292254Y-59969891D01*
X126284004Y-59992949D01*
X126273533Y-60015087D01*
X126260943Y-60036093D01*
X126246355Y-60055763D01*
X126229908Y-60073908D01*
X126211763Y-60090355D01*
X126192093Y-60104943D01*
X126171087Y-60117533D01*
X126148949Y-60128004D01*
X126125891Y-60136254D01*
X126102135Y-60142205D01*
X126077910Y-60145798D01*
X126053450Y-60147000D01*
X125152550Y-60147000D01*
X125128090Y-60145798D01*
X125103865Y-60142205D01*
X125080109Y-60136254D01*
X125057051Y-60128004D01*
X125034913Y-60117533D01*
X125013907Y-60104943D01*
X124994237Y-60090355D01*
X124976092Y-60073908D01*
X124959645Y-60055763D01*
X124945057Y-60036093D01*
X124932467Y-60015087D01*
X124921996Y-59992949D01*
X124913746Y-59969891D01*
X124907795Y-59946135D01*
X124904202Y-59921910D01*
X124903000Y-59897450D01*
X124903000Y-59246550D01*
X124904202Y-59222090D01*
X124907795Y-59197865D01*
X124913746Y-59174109D01*
X124921996Y-59151051D01*
X124932467Y-59128913D01*
X124945057Y-59107907D01*
X124959645Y-59088237D01*
X124976092Y-59070092D01*
X124994237Y-59053645D01*
X125013907Y-59039057D01*
X125034913Y-59026467D01*
X125057051Y-59015996D01*
X125080109Y-59007746D01*
X125103865Y-59001795D01*
X125128090Y-58998202D01*
X125152550Y-58997000D01*
X126053450Y-58997000D01*
X126077910Y-58998202D01*
X126077910Y-58998202D01*
G37*
D12*
X125603000Y-59572000D03*
D11*
G36*
X126077910Y-56948202D02*
X126102135Y-56951795D01*
X126125891Y-56957746D01*
X126148949Y-56965996D01*
X126171087Y-56976467D01*
X126192093Y-56989057D01*
X126211763Y-57003645D01*
X126229908Y-57020092D01*
X126246355Y-57038237D01*
X126260943Y-57057907D01*
X126273533Y-57078913D01*
X126284004Y-57101051D01*
X126292254Y-57124109D01*
X126298205Y-57147865D01*
X126301798Y-57172090D01*
X126303000Y-57196550D01*
X126303000Y-57847450D01*
X126301798Y-57871910D01*
X126298205Y-57896135D01*
X126292254Y-57919891D01*
X126284004Y-57942949D01*
X126273533Y-57965087D01*
X126260943Y-57986093D01*
X126246355Y-58005763D01*
X126229908Y-58023908D01*
X126211763Y-58040355D01*
X126192093Y-58054943D01*
X126171087Y-58067533D01*
X126148949Y-58078004D01*
X126125891Y-58086254D01*
X126102135Y-58092205D01*
X126077910Y-58095798D01*
X126053450Y-58097000D01*
X125152550Y-58097000D01*
X125128090Y-58095798D01*
X125103865Y-58092205D01*
X125080109Y-58086254D01*
X125057051Y-58078004D01*
X125034913Y-58067533D01*
X125013907Y-58054943D01*
X124994237Y-58040355D01*
X124976092Y-58023908D01*
X124959645Y-58005763D01*
X124945057Y-57986093D01*
X124932467Y-57965087D01*
X124921996Y-57942949D01*
X124913746Y-57919891D01*
X124907795Y-57896135D01*
X124904202Y-57871910D01*
X124903000Y-57847450D01*
X124903000Y-57196550D01*
X124904202Y-57172090D01*
X124907795Y-57147865D01*
X124913746Y-57124109D01*
X124921996Y-57101051D01*
X124932467Y-57078913D01*
X124945057Y-57057907D01*
X124959645Y-57038237D01*
X124976092Y-57020092D01*
X124994237Y-57003645D01*
X125013907Y-56989057D01*
X125034913Y-56976467D01*
X125057051Y-56965996D01*
X125080109Y-56957746D01*
X125103865Y-56951795D01*
X125128090Y-56948202D01*
X125152550Y-56947000D01*
X126053450Y-56947000D01*
X126077910Y-56948202D01*
X126077910Y-56948202D01*
G37*
D12*
X125603000Y-57522000D03*
G04 #@! TD*
D11*
G04 #@! TO.C,C4*
G36*
X179156910Y-89471202D02*
X179181135Y-89474795D01*
X179204891Y-89480746D01*
X179227949Y-89488996D01*
X179250087Y-89499467D01*
X179271093Y-89512057D01*
X179290763Y-89526645D01*
X179308908Y-89543092D01*
X179325355Y-89561237D01*
X179339943Y-89580907D01*
X179352533Y-89601913D01*
X179363004Y-89624051D01*
X179371254Y-89647109D01*
X179377205Y-89670865D01*
X179380798Y-89695090D01*
X179382000Y-89719550D01*
X179382000Y-90620450D01*
X179380798Y-90644910D01*
X179377205Y-90669135D01*
X179371254Y-90692891D01*
X179363004Y-90715949D01*
X179352533Y-90738087D01*
X179339943Y-90759093D01*
X179325355Y-90778763D01*
X179308908Y-90796908D01*
X179290763Y-90813355D01*
X179271093Y-90827943D01*
X179250087Y-90840533D01*
X179227949Y-90851004D01*
X179204891Y-90859254D01*
X179181135Y-90865205D01*
X179156910Y-90868798D01*
X179132450Y-90870000D01*
X178481550Y-90870000D01*
X178457090Y-90868798D01*
X178432865Y-90865205D01*
X178409109Y-90859254D01*
X178386051Y-90851004D01*
X178363913Y-90840533D01*
X178342907Y-90827943D01*
X178323237Y-90813355D01*
X178305092Y-90796908D01*
X178288645Y-90778763D01*
X178274057Y-90759093D01*
X178261467Y-90738087D01*
X178250996Y-90715949D01*
X178242746Y-90692891D01*
X178236795Y-90669135D01*
X178233202Y-90644910D01*
X178232000Y-90620450D01*
X178232000Y-89719550D01*
X178233202Y-89695090D01*
X178236795Y-89670865D01*
X178242746Y-89647109D01*
X178250996Y-89624051D01*
X178261467Y-89601913D01*
X178274057Y-89580907D01*
X178288645Y-89561237D01*
X178305092Y-89543092D01*
X178323237Y-89526645D01*
X178342907Y-89512057D01*
X178363913Y-89499467D01*
X178386051Y-89488996D01*
X178409109Y-89480746D01*
X178432865Y-89474795D01*
X178457090Y-89471202D01*
X178481550Y-89470000D01*
X179132450Y-89470000D01*
X179156910Y-89471202D01*
X179156910Y-89471202D01*
G37*
D12*
X178807000Y-90170000D03*
D11*
G36*
X181206910Y-89471202D02*
X181231135Y-89474795D01*
X181254891Y-89480746D01*
X181277949Y-89488996D01*
X181300087Y-89499467D01*
X181321093Y-89512057D01*
X181340763Y-89526645D01*
X181358908Y-89543092D01*
X181375355Y-89561237D01*
X181389943Y-89580907D01*
X181402533Y-89601913D01*
X181413004Y-89624051D01*
X181421254Y-89647109D01*
X181427205Y-89670865D01*
X181430798Y-89695090D01*
X181432000Y-89719550D01*
X181432000Y-90620450D01*
X181430798Y-90644910D01*
X181427205Y-90669135D01*
X181421254Y-90692891D01*
X181413004Y-90715949D01*
X181402533Y-90738087D01*
X181389943Y-90759093D01*
X181375355Y-90778763D01*
X181358908Y-90796908D01*
X181340763Y-90813355D01*
X181321093Y-90827943D01*
X181300087Y-90840533D01*
X181277949Y-90851004D01*
X181254891Y-90859254D01*
X181231135Y-90865205D01*
X181206910Y-90868798D01*
X181182450Y-90870000D01*
X180531550Y-90870000D01*
X180507090Y-90868798D01*
X180482865Y-90865205D01*
X180459109Y-90859254D01*
X180436051Y-90851004D01*
X180413913Y-90840533D01*
X180392907Y-90827943D01*
X180373237Y-90813355D01*
X180355092Y-90796908D01*
X180338645Y-90778763D01*
X180324057Y-90759093D01*
X180311467Y-90738087D01*
X180300996Y-90715949D01*
X180292746Y-90692891D01*
X180286795Y-90669135D01*
X180283202Y-90644910D01*
X180282000Y-90620450D01*
X180282000Y-89719550D01*
X180283202Y-89695090D01*
X180286795Y-89670865D01*
X180292746Y-89647109D01*
X180300996Y-89624051D01*
X180311467Y-89601913D01*
X180324057Y-89580907D01*
X180338645Y-89561237D01*
X180355092Y-89543092D01*
X180373237Y-89526645D01*
X180392907Y-89512057D01*
X180413913Y-89499467D01*
X180436051Y-89488996D01*
X180459109Y-89480746D01*
X180482865Y-89474795D01*
X180507090Y-89471202D01*
X180531550Y-89470000D01*
X181182450Y-89470000D01*
X181206910Y-89471202D01*
X181206910Y-89471202D01*
G37*
D12*
X180857000Y-90170000D03*
G04 #@! TD*
D11*
G04 #@! TO.C,C5*
G36*
X179147910Y-70421202D02*
X179172135Y-70424795D01*
X179195891Y-70430746D01*
X179218949Y-70438996D01*
X179241087Y-70449467D01*
X179262093Y-70462057D01*
X179281763Y-70476645D01*
X179299908Y-70493092D01*
X179316355Y-70511237D01*
X179330943Y-70530907D01*
X179343533Y-70551913D01*
X179354004Y-70574051D01*
X179362254Y-70597109D01*
X179368205Y-70620865D01*
X179371798Y-70645090D01*
X179373000Y-70669550D01*
X179373000Y-71570450D01*
X179371798Y-71594910D01*
X179368205Y-71619135D01*
X179362254Y-71642891D01*
X179354004Y-71665949D01*
X179343533Y-71688087D01*
X179330943Y-71709093D01*
X179316355Y-71728763D01*
X179299908Y-71746908D01*
X179281763Y-71763355D01*
X179262093Y-71777943D01*
X179241087Y-71790533D01*
X179218949Y-71801004D01*
X179195891Y-71809254D01*
X179172135Y-71815205D01*
X179147910Y-71818798D01*
X179123450Y-71820000D01*
X178472550Y-71820000D01*
X178448090Y-71818798D01*
X178423865Y-71815205D01*
X178400109Y-71809254D01*
X178377051Y-71801004D01*
X178354913Y-71790533D01*
X178333907Y-71777943D01*
X178314237Y-71763355D01*
X178296092Y-71746908D01*
X178279645Y-71728763D01*
X178265057Y-71709093D01*
X178252467Y-71688087D01*
X178241996Y-71665949D01*
X178233746Y-71642891D01*
X178227795Y-71619135D01*
X178224202Y-71594910D01*
X178223000Y-71570450D01*
X178223000Y-70669550D01*
X178224202Y-70645090D01*
X178227795Y-70620865D01*
X178233746Y-70597109D01*
X178241996Y-70574051D01*
X178252467Y-70551913D01*
X178265057Y-70530907D01*
X178279645Y-70511237D01*
X178296092Y-70493092D01*
X178314237Y-70476645D01*
X178333907Y-70462057D01*
X178354913Y-70449467D01*
X178377051Y-70438996D01*
X178400109Y-70430746D01*
X178423865Y-70424795D01*
X178448090Y-70421202D01*
X178472550Y-70420000D01*
X179123450Y-70420000D01*
X179147910Y-70421202D01*
X179147910Y-70421202D01*
G37*
D12*
X178798000Y-71120000D03*
D11*
G36*
X181197910Y-70421202D02*
X181222135Y-70424795D01*
X181245891Y-70430746D01*
X181268949Y-70438996D01*
X181291087Y-70449467D01*
X181312093Y-70462057D01*
X181331763Y-70476645D01*
X181349908Y-70493092D01*
X181366355Y-70511237D01*
X181380943Y-70530907D01*
X181393533Y-70551913D01*
X181404004Y-70574051D01*
X181412254Y-70597109D01*
X181418205Y-70620865D01*
X181421798Y-70645090D01*
X181423000Y-70669550D01*
X181423000Y-71570450D01*
X181421798Y-71594910D01*
X181418205Y-71619135D01*
X181412254Y-71642891D01*
X181404004Y-71665949D01*
X181393533Y-71688087D01*
X181380943Y-71709093D01*
X181366355Y-71728763D01*
X181349908Y-71746908D01*
X181331763Y-71763355D01*
X181312093Y-71777943D01*
X181291087Y-71790533D01*
X181268949Y-71801004D01*
X181245891Y-71809254D01*
X181222135Y-71815205D01*
X181197910Y-71818798D01*
X181173450Y-71820000D01*
X180522550Y-71820000D01*
X180498090Y-71818798D01*
X180473865Y-71815205D01*
X180450109Y-71809254D01*
X180427051Y-71801004D01*
X180404913Y-71790533D01*
X180383907Y-71777943D01*
X180364237Y-71763355D01*
X180346092Y-71746908D01*
X180329645Y-71728763D01*
X180315057Y-71709093D01*
X180302467Y-71688087D01*
X180291996Y-71665949D01*
X180283746Y-71642891D01*
X180277795Y-71619135D01*
X180274202Y-71594910D01*
X180273000Y-71570450D01*
X180273000Y-70669550D01*
X180274202Y-70645090D01*
X180277795Y-70620865D01*
X180283746Y-70597109D01*
X180291996Y-70574051D01*
X180302467Y-70551913D01*
X180315057Y-70530907D01*
X180329645Y-70511237D01*
X180346092Y-70493092D01*
X180364237Y-70476645D01*
X180383907Y-70462057D01*
X180404913Y-70449467D01*
X180427051Y-70438996D01*
X180450109Y-70430746D01*
X180473865Y-70424795D01*
X180498090Y-70421202D01*
X180522550Y-70420000D01*
X181173450Y-70420000D01*
X181197910Y-70421202D01*
X181197910Y-70421202D01*
G37*
D12*
X180848000Y-71120000D03*
G04 #@! TD*
D11*
G04 #@! TO.C,C6*
G36*
X126331910Y-79191202D02*
X126356135Y-79194795D01*
X126379891Y-79200746D01*
X126402949Y-79208996D01*
X126425087Y-79219467D01*
X126446093Y-79232057D01*
X126465763Y-79246645D01*
X126483908Y-79263092D01*
X126500355Y-79281237D01*
X126514943Y-79300907D01*
X126527533Y-79321913D01*
X126538004Y-79344051D01*
X126546254Y-79367109D01*
X126552205Y-79390865D01*
X126555798Y-79415090D01*
X126557000Y-79439550D01*
X126557000Y-80090450D01*
X126555798Y-80114910D01*
X126552205Y-80139135D01*
X126546254Y-80162891D01*
X126538004Y-80185949D01*
X126527533Y-80208087D01*
X126514943Y-80229093D01*
X126500355Y-80248763D01*
X126483908Y-80266908D01*
X126465763Y-80283355D01*
X126446093Y-80297943D01*
X126425087Y-80310533D01*
X126402949Y-80321004D01*
X126379891Y-80329254D01*
X126356135Y-80335205D01*
X126331910Y-80338798D01*
X126307450Y-80340000D01*
X125406550Y-80340000D01*
X125382090Y-80338798D01*
X125357865Y-80335205D01*
X125334109Y-80329254D01*
X125311051Y-80321004D01*
X125288913Y-80310533D01*
X125267907Y-80297943D01*
X125248237Y-80283355D01*
X125230092Y-80266908D01*
X125213645Y-80248763D01*
X125199057Y-80229093D01*
X125186467Y-80208087D01*
X125175996Y-80185949D01*
X125167746Y-80162891D01*
X125161795Y-80139135D01*
X125158202Y-80114910D01*
X125157000Y-80090450D01*
X125157000Y-79439550D01*
X125158202Y-79415090D01*
X125161795Y-79390865D01*
X125167746Y-79367109D01*
X125175996Y-79344051D01*
X125186467Y-79321913D01*
X125199057Y-79300907D01*
X125213645Y-79281237D01*
X125230092Y-79263092D01*
X125248237Y-79246645D01*
X125267907Y-79232057D01*
X125288913Y-79219467D01*
X125311051Y-79208996D01*
X125334109Y-79200746D01*
X125357865Y-79194795D01*
X125382090Y-79191202D01*
X125406550Y-79190000D01*
X126307450Y-79190000D01*
X126331910Y-79191202D01*
X126331910Y-79191202D01*
G37*
D12*
X125857000Y-79765000D03*
D11*
G36*
X126331910Y-77141202D02*
X126356135Y-77144795D01*
X126379891Y-77150746D01*
X126402949Y-77158996D01*
X126425087Y-77169467D01*
X126446093Y-77182057D01*
X126465763Y-77196645D01*
X126483908Y-77213092D01*
X126500355Y-77231237D01*
X126514943Y-77250907D01*
X126527533Y-77271913D01*
X126538004Y-77294051D01*
X126546254Y-77317109D01*
X126552205Y-77340865D01*
X126555798Y-77365090D01*
X126557000Y-77389550D01*
X126557000Y-78040450D01*
X126555798Y-78064910D01*
X126552205Y-78089135D01*
X126546254Y-78112891D01*
X126538004Y-78135949D01*
X126527533Y-78158087D01*
X126514943Y-78179093D01*
X126500355Y-78198763D01*
X126483908Y-78216908D01*
X126465763Y-78233355D01*
X126446093Y-78247943D01*
X126425087Y-78260533D01*
X126402949Y-78271004D01*
X126379891Y-78279254D01*
X126356135Y-78285205D01*
X126331910Y-78288798D01*
X126307450Y-78290000D01*
X125406550Y-78290000D01*
X125382090Y-78288798D01*
X125357865Y-78285205D01*
X125334109Y-78279254D01*
X125311051Y-78271004D01*
X125288913Y-78260533D01*
X125267907Y-78247943D01*
X125248237Y-78233355D01*
X125230092Y-78216908D01*
X125213645Y-78198763D01*
X125199057Y-78179093D01*
X125186467Y-78158087D01*
X125175996Y-78135949D01*
X125167746Y-78112891D01*
X125161795Y-78089135D01*
X125158202Y-78064910D01*
X125157000Y-78040450D01*
X125157000Y-77389550D01*
X125158202Y-77365090D01*
X125161795Y-77340865D01*
X125167746Y-77317109D01*
X125175996Y-77294051D01*
X125186467Y-77271913D01*
X125199057Y-77250907D01*
X125213645Y-77231237D01*
X125230092Y-77213092D01*
X125248237Y-77196645D01*
X125267907Y-77182057D01*
X125288913Y-77169467D01*
X125311051Y-77158996D01*
X125334109Y-77150746D01*
X125357865Y-77144795D01*
X125382090Y-77141202D01*
X125406550Y-77140000D01*
X126307450Y-77140000D01*
X126331910Y-77141202D01*
X126331910Y-77141202D01*
G37*
D12*
X125857000Y-77715000D03*
G04 #@! TD*
D11*
G04 #@! TO.C,C7*
G36*
X107281910Y-60259201D02*
X107306135Y-60262794D01*
X107329891Y-60268745D01*
X107352949Y-60276995D01*
X107375087Y-60287466D01*
X107396093Y-60300056D01*
X107415763Y-60314644D01*
X107433908Y-60331091D01*
X107450355Y-60349236D01*
X107464943Y-60368906D01*
X107477533Y-60389912D01*
X107488004Y-60412050D01*
X107496254Y-60435108D01*
X107502205Y-60458864D01*
X107505798Y-60483089D01*
X107507000Y-60507549D01*
X107507000Y-61158449D01*
X107505798Y-61182909D01*
X107502205Y-61207134D01*
X107496254Y-61230890D01*
X107488004Y-61253948D01*
X107477533Y-61276086D01*
X107464943Y-61297092D01*
X107450355Y-61316762D01*
X107433908Y-61334907D01*
X107415763Y-61351354D01*
X107396093Y-61365942D01*
X107375087Y-61378532D01*
X107352949Y-61389003D01*
X107329891Y-61397253D01*
X107306135Y-61403204D01*
X107281910Y-61406797D01*
X107257450Y-61407999D01*
X106356550Y-61407999D01*
X106332090Y-61406797D01*
X106307865Y-61403204D01*
X106284109Y-61397253D01*
X106261051Y-61389003D01*
X106238913Y-61378532D01*
X106217907Y-61365942D01*
X106198237Y-61351354D01*
X106180092Y-61334907D01*
X106163645Y-61316762D01*
X106149057Y-61297092D01*
X106136467Y-61276086D01*
X106125996Y-61253948D01*
X106117746Y-61230890D01*
X106111795Y-61207134D01*
X106108202Y-61182909D01*
X106107000Y-61158449D01*
X106107000Y-60507549D01*
X106108202Y-60483089D01*
X106111795Y-60458864D01*
X106117746Y-60435108D01*
X106125996Y-60412050D01*
X106136467Y-60389912D01*
X106149057Y-60368906D01*
X106163645Y-60349236D01*
X106180092Y-60331091D01*
X106198237Y-60314644D01*
X106217907Y-60300056D01*
X106238913Y-60287466D01*
X106261051Y-60276995D01*
X106284109Y-60268745D01*
X106307865Y-60262794D01*
X106332090Y-60259201D01*
X106356550Y-60257999D01*
X107257450Y-60257999D01*
X107281910Y-60259201D01*
X107281910Y-60259201D01*
G37*
D12*
X106807000Y-60832999D03*
D11*
G36*
X107281910Y-62309201D02*
X107306135Y-62312794D01*
X107329891Y-62318745D01*
X107352949Y-62326995D01*
X107375087Y-62337466D01*
X107396093Y-62350056D01*
X107415763Y-62364644D01*
X107433908Y-62381091D01*
X107450355Y-62399236D01*
X107464943Y-62418906D01*
X107477533Y-62439912D01*
X107488004Y-62462050D01*
X107496254Y-62485108D01*
X107502205Y-62508864D01*
X107505798Y-62533089D01*
X107507000Y-62557549D01*
X107507000Y-63208449D01*
X107505798Y-63232909D01*
X107502205Y-63257134D01*
X107496254Y-63280890D01*
X107488004Y-63303948D01*
X107477533Y-63326086D01*
X107464943Y-63347092D01*
X107450355Y-63366762D01*
X107433908Y-63384907D01*
X107415763Y-63401354D01*
X107396093Y-63415942D01*
X107375087Y-63428532D01*
X107352949Y-63439003D01*
X107329891Y-63447253D01*
X107306135Y-63453204D01*
X107281910Y-63456797D01*
X107257450Y-63457999D01*
X106356550Y-63457999D01*
X106332090Y-63456797D01*
X106307865Y-63453204D01*
X106284109Y-63447253D01*
X106261051Y-63439003D01*
X106238913Y-63428532D01*
X106217907Y-63415942D01*
X106198237Y-63401354D01*
X106180092Y-63384907D01*
X106163645Y-63366762D01*
X106149057Y-63347092D01*
X106136467Y-63326086D01*
X106125996Y-63303948D01*
X106117746Y-63280890D01*
X106111795Y-63257134D01*
X106108202Y-63232909D01*
X106107000Y-63208449D01*
X106107000Y-62557549D01*
X106108202Y-62533089D01*
X106111795Y-62508864D01*
X106117746Y-62485108D01*
X106125996Y-62462050D01*
X106136467Y-62439912D01*
X106149057Y-62418906D01*
X106163645Y-62399236D01*
X106180092Y-62381091D01*
X106198237Y-62364644D01*
X106217907Y-62350056D01*
X106238913Y-62337466D01*
X106261051Y-62326995D01*
X106284109Y-62318745D01*
X106307865Y-62312794D01*
X106332090Y-62309201D01*
X106356550Y-62307999D01*
X107257450Y-62307999D01*
X107281910Y-62309201D01*
X107281910Y-62309201D01*
G37*
D12*
X106807000Y-62882999D03*
G04 #@! TD*
D11*
G04 #@! TO.C,C8*
G36*
X166964910Y-106997202D02*
X166989135Y-107000795D01*
X167012891Y-107006746D01*
X167035949Y-107014996D01*
X167058087Y-107025467D01*
X167079093Y-107038057D01*
X167098763Y-107052645D01*
X167116908Y-107069092D01*
X167133355Y-107087237D01*
X167147943Y-107106907D01*
X167160533Y-107127913D01*
X167171004Y-107150051D01*
X167179254Y-107173109D01*
X167185205Y-107196865D01*
X167188798Y-107221090D01*
X167190000Y-107245550D01*
X167190000Y-108146450D01*
X167188798Y-108170910D01*
X167185205Y-108195135D01*
X167179254Y-108218891D01*
X167171004Y-108241949D01*
X167160533Y-108264087D01*
X167147943Y-108285093D01*
X167133355Y-108304763D01*
X167116908Y-108322908D01*
X167098763Y-108339355D01*
X167079093Y-108353943D01*
X167058087Y-108366533D01*
X167035949Y-108377004D01*
X167012891Y-108385254D01*
X166989135Y-108391205D01*
X166964910Y-108394798D01*
X166940450Y-108396000D01*
X166289550Y-108396000D01*
X166265090Y-108394798D01*
X166240865Y-108391205D01*
X166217109Y-108385254D01*
X166194051Y-108377004D01*
X166171913Y-108366533D01*
X166150907Y-108353943D01*
X166131237Y-108339355D01*
X166113092Y-108322908D01*
X166096645Y-108304763D01*
X166082057Y-108285093D01*
X166069467Y-108264087D01*
X166058996Y-108241949D01*
X166050746Y-108218891D01*
X166044795Y-108195135D01*
X166041202Y-108170910D01*
X166040000Y-108146450D01*
X166040000Y-107245550D01*
X166041202Y-107221090D01*
X166044795Y-107196865D01*
X166050746Y-107173109D01*
X166058996Y-107150051D01*
X166069467Y-107127913D01*
X166082057Y-107106907D01*
X166096645Y-107087237D01*
X166113092Y-107069092D01*
X166131237Y-107052645D01*
X166150907Y-107038057D01*
X166171913Y-107025467D01*
X166194051Y-107014996D01*
X166217109Y-107006746D01*
X166240865Y-107000795D01*
X166265090Y-106997202D01*
X166289550Y-106996000D01*
X166940450Y-106996000D01*
X166964910Y-106997202D01*
X166964910Y-106997202D01*
G37*
D12*
X166615000Y-107696000D03*
D11*
G36*
X169014910Y-106997202D02*
X169039135Y-107000795D01*
X169062891Y-107006746D01*
X169085949Y-107014996D01*
X169108087Y-107025467D01*
X169129093Y-107038057D01*
X169148763Y-107052645D01*
X169166908Y-107069092D01*
X169183355Y-107087237D01*
X169197943Y-107106907D01*
X169210533Y-107127913D01*
X169221004Y-107150051D01*
X169229254Y-107173109D01*
X169235205Y-107196865D01*
X169238798Y-107221090D01*
X169240000Y-107245550D01*
X169240000Y-108146450D01*
X169238798Y-108170910D01*
X169235205Y-108195135D01*
X169229254Y-108218891D01*
X169221004Y-108241949D01*
X169210533Y-108264087D01*
X169197943Y-108285093D01*
X169183355Y-108304763D01*
X169166908Y-108322908D01*
X169148763Y-108339355D01*
X169129093Y-108353943D01*
X169108087Y-108366533D01*
X169085949Y-108377004D01*
X169062891Y-108385254D01*
X169039135Y-108391205D01*
X169014910Y-108394798D01*
X168990450Y-108396000D01*
X168339550Y-108396000D01*
X168315090Y-108394798D01*
X168290865Y-108391205D01*
X168267109Y-108385254D01*
X168244051Y-108377004D01*
X168221913Y-108366533D01*
X168200907Y-108353943D01*
X168181237Y-108339355D01*
X168163092Y-108322908D01*
X168146645Y-108304763D01*
X168132057Y-108285093D01*
X168119467Y-108264087D01*
X168108996Y-108241949D01*
X168100746Y-108218891D01*
X168094795Y-108195135D01*
X168091202Y-108170910D01*
X168090000Y-108146450D01*
X168090000Y-107245550D01*
X168091202Y-107221090D01*
X168094795Y-107196865D01*
X168100746Y-107173109D01*
X168108996Y-107150051D01*
X168119467Y-107127913D01*
X168132057Y-107106907D01*
X168146645Y-107087237D01*
X168163092Y-107069092D01*
X168181237Y-107052645D01*
X168200907Y-107038057D01*
X168221913Y-107025467D01*
X168244051Y-107014996D01*
X168267109Y-107006746D01*
X168290865Y-107000795D01*
X168315090Y-106997202D01*
X168339550Y-106996000D01*
X168990450Y-106996000D01*
X169014910Y-106997202D01*
X169014910Y-106997202D01*
G37*
D12*
X168665000Y-107696000D03*
G04 #@! TD*
D11*
G04 #@! TO.C,C9*
G36*
X159988910Y-86931202D02*
X160013135Y-86934795D01*
X160036891Y-86940746D01*
X160059949Y-86948996D01*
X160082087Y-86959467D01*
X160103093Y-86972057D01*
X160122763Y-86986645D01*
X160140908Y-87003092D01*
X160157355Y-87021237D01*
X160171943Y-87040907D01*
X160184533Y-87061913D01*
X160195004Y-87084051D01*
X160203254Y-87107109D01*
X160209205Y-87130865D01*
X160212798Y-87155090D01*
X160214000Y-87179550D01*
X160214000Y-88080450D01*
X160212798Y-88104910D01*
X160209205Y-88129135D01*
X160203254Y-88152891D01*
X160195004Y-88175949D01*
X160184533Y-88198087D01*
X160171943Y-88219093D01*
X160157355Y-88238763D01*
X160140908Y-88256908D01*
X160122763Y-88273355D01*
X160103093Y-88287943D01*
X160082087Y-88300533D01*
X160059949Y-88311004D01*
X160036891Y-88319254D01*
X160013135Y-88325205D01*
X159988910Y-88328798D01*
X159964450Y-88330000D01*
X159313550Y-88330000D01*
X159289090Y-88328798D01*
X159264865Y-88325205D01*
X159241109Y-88319254D01*
X159218051Y-88311004D01*
X159195913Y-88300533D01*
X159174907Y-88287943D01*
X159155237Y-88273355D01*
X159137092Y-88256908D01*
X159120645Y-88238763D01*
X159106057Y-88219093D01*
X159093467Y-88198087D01*
X159082996Y-88175949D01*
X159074746Y-88152891D01*
X159068795Y-88129135D01*
X159065202Y-88104910D01*
X159064000Y-88080450D01*
X159064000Y-87179550D01*
X159065202Y-87155090D01*
X159068795Y-87130865D01*
X159074746Y-87107109D01*
X159082996Y-87084051D01*
X159093467Y-87061913D01*
X159106057Y-87040907D01*
X159120645Y-87021237D01*
X159137092Y-87003092D01*
X159155237Y-86986645D01*
X159174907Y-86972057D01*
X159195913Y-86959467D01*
X159218051Y-86948996D01*
X159241109Y-86940746D01*
X159264865Y-86934795D01*
X159289090Y-86931202D01*
X159313550Y-86930000D01*
X159964450Y-86930000D01*
X159988910Y-86931202D01*
X159988910Y-86931202D01*
G37*
D12*
X159639000Y-87630000D03*
D11*
G36*
X162038910Y-86931202D02*
X162063135Y-86934795D01*
X162086891Y-86940746D01*
X162109949Y-86948996D01*
X162132087Y-86959467D01*
X162153093Y-86972057D01*
X162172763Y-86986645D01*
X162190908Y-87003092D01*
X162207355Y-87021237D01*
X162221943Y-87040907D01*
X162234533Y-87061913D01*
X162245004Y-87084051D01*
X162253254Y-87107109D01*
X162259205Y-87130865D01*
X162262798Y-87155090D01*
X162264000Y-87179550D01*
X162264000Y-88080450D01*
X162262798Y-88104910D01*
X162259205Y-88129135D01*
X162253254Y-88152891D01*
X162245004Y-88175949D01*
X162234533Y-88198087D01*
X162221943Y-88219093D01*
X162207355Y-88238763D01*
X162190908Y-88256908D01*
X162172763Y-88273355D01*
X162153093Y-88287943D01*
X162132087Y-88300533D01*
X162109949Y-88311004D01*
X162086891Y-88319254D01*
X162063135Y-88325205D01*
X162038910Y-88328798D01*
X162014450Y-88330000D01*
X161363550Y-88330000D01*
X161339090Y-88328798D01*
X161314865Y-88325205D01*
X161291109Y-88319254D01*
X161268051Y-88311004D01*
X161245913Y-88300533D01*
X161224907Y-88287943D01*
X161205237Y-88273355D01*
X161187092Y-88256908D01*
X161170645Y-88238763D01*
X161156057Y-88219093D01*
X161143467Y-88198087D01*
X161132996Y-88175949D01*
X161124746Y-88152891D01*
X161118795Y-88129135D01*
X161115202Y-88104910D01*
X161114000Y-88080450D01*
X161114000Y-87179550D01*
X161115202Y-87155090D01*
X161118795Y-87130865D01*
X161124746Y-87107109D01*
X161132996Y-87084051D01*
X161143467Y-87061913D01*
X161156057Y-87040907D01*
X161170645Y-87021237D01*
X161187092Y-87003092D01*
X161205237Y-86986645D01*
X161224907Y-86972057D01*
X161245913Y-86959467D01*
X161268051Y-86948996D01*
X161291109Y-86940746D01*
X161314865Y-86934795D01*
X161339090Y-86931202D01*
X161363550Y-86930000D01*
X162014450Y-86930000D01*
X162038910Y-86931202D01*
X162038910Y-86931202D01*
G37*
D12*
X161689000Y-87630000D03*
G04 #@! TD*
D11*
G04 #@! TO.C,C10*
G36*
X84033910Y-72707202D02*
X84058135Y-72710795D01*
X84081891Y-72716746D01*
X84104949Y-72724996D01*
X84127087Y-72735467D01*
X84148093Y-72748057D01*
X84167763Y-72762645D01*
X84185908Y-72779092D01*
X84202355Y-72797237D01*
X84216943Y-72816907D01*
X84229533Y-72837913D01*
X84240004Y-72860051D01*
X84248254Y-72883109D01*
X84254205Y-72906865D01*
X84257798Y-72931090D01*
X84259000Y-72955550D01*
X84259000Y-73856450D01*
X84257798Y-73880910D01*
X84254205Y-73905135D01*
X84248254Y-73928891D01*
X84240004Y-73951949D01*
X84229533Y-73974087D01*
X84216943Y-73995093D01*
X84202355Y-74014763D01*
X84185908Y-74032908D01*
X84167763Y-74049355D01*
X84148093Y-74063943D01*
X84127087Y-74076533D01*
X84104949Y-74087004D01*
X84081891Y-74095254D01*
X84058135Y-74101205D01*
X84033910Y-74104798D01*
X84009450Y-74106000D01*
X83358550Y-74106000D01*
X83334090Y-74104798D01*
X83309865Y-74101205D01*
X83286109Y-74095254D01*
X83263051Y-74087004D01*
X83240913Y-74076533D01*
X83219907Y-74063943D01*
X83200237Y-74049355D01*
X83182092Y-74032908D01*
X83165645Y-74014763D01*
X83151057Y-73995093D01*
X83138467Y-73974087D01*
X83127996Y-73951949D01*
X83119746Y-73928891D01*
X83113795Y-73905135D01*
X83110202Y-73880910D01*
X83109000Y-73856450D01*
X83109000Y-72955550D01*
X83110202Y-72931090D01*
X83113795Y-72906865D01*
X83119746Y-72883109D01*
X83127996Y-72860051D01*
X83138467Y-72837913D01*
X83151057Y-72816907D01*
X83165645Y-72797237D01*
X83182092Y-72779092D01*
X83200237Y-72762645D01*
X83219907Y-72748057D01*
X83240913Y-72735467D01*
X83263051Y-72724996D01*
X83286109Y-72716746D01*
X83309865Y-72710795D01*
X83334090Y-72707202D01*
X83358550Y-72706000D01*
X84009450Y-72706000D01*
X84033910Y-72707202D01*
X84033910Y-72707202D01*
G37*
D12*
X83684000Y-73406000D03*
D11*
G36*
X86083910Y-72707202D02*
X86108135Y-72710795D01*
X86131891Y-72716746D01*
X86154949Y-72724996D01*
X86177087Y-72735467D01*
X86198093Y-72748057D01*
X86217763Y-72762645D01*
X86235908Y-72779092D01*
X86252355Y-72797237D01*
X86266943Y-72816907D01*
X86279533Y-72837913D01*
X86290004Y-72860051D01*
X86298254Y-72883109D01*
X86304205Y-72906865D01*
X86307798Y-72931090D01*
X86309000Y-72955550D01*
X86309000Y-73856450D01*
X86307798Y-73880910D01*
X86304205Y-73905135D01*
X86298254Y-73928891D01*
X86290004Y-73951949D01*
X86279533Y-73974087D01*
X86266943Y-73995093D01*
X86252355Y-74014763D01*
X86235908Y-74032908D01*
X86217763Y-74049355D01*
X86198093Y-74063943D01*
X86177087Y-74076533D01*
X86154949Y-74087004D01*
X86131891Y-74095254D01*
X86108135Y-74101205D01*
X86083910Y-74104798D01*
X86059450Y-74106000D01*
X85408550Y-74106000D01*
X85384090Y-74104798D01*
X85359865Y-74101205D01*
X85336109Y-74095254D01*
X85313051Y-74087004D01*
X85290913Y-74076533D01*
X85269907Y-74063943D01*
X85250237Y-74049355D01*
X85232092Y-74032908D01*
X85215645Y-74014763D01*
X85201057Y-73995093D01*
X85188467Y-73974087D01*
X85177996Y-73951949D01*
X85169746Y-73928891D01*
X85163795Y-73905135D01*
X85160202Y-73880910D01*
X85159000Y-73856450D01*
X85159000Y-72955550D01*
X85160202Y-72931090D01*
X85163795Y-72906865D01*
X85169746Y-72883109D01*
X85177996Y-72860051D01*
X85188467Y-72837913D01*
X85201057Y-72816907D01*
X85215645Y-72797237D01*
X85232092Y-72779092D01*
X85250237Y-72762645D01*
X85269907Y-72748057D01*
X85290913Y-72735467D01*
X85313051Y-72724996D01*
X85336109Y-72716746D01*
X85359865Y-72710795D01*
X85384090Y-72707202D01*
X85408550Y-72706000D01*
X86059450Y-72706000D01*
X86083910Y-72707202D01*
X86083910Y-72707202D01*
G37*
D12*
X85734000Y-73406000D03*
G04 #@! TD*
D11*
G04 #@! TO.C,C11*
G36*
X160614910Y-67881202D02*
X160639135Y-67884795D01*
X160662891Y-67890746D01*
X160685949Y-67898996D01*
X160708087Y-67909467D01*
X160729093Y-67922057D01*
X160748763Y-67936645D01*
X160766908Y-67953092D01*
X160783355Y-67971237D01*
X160797943Y-67990907D01*
X160810533Y-68011913D01*
X160821004Y-68034051D01*
X160829254Y-68057109D01*
X160835205Y-68080865D01*
X160838798Y-68105090D01*
X160840000Y-68129550D01*
X160840000Y-69030450D01*
X160838798Y-69054910D01*
X160835205Y-69079135D01*
X160829254Y-69102891D01*
X160821004Y-69125949D01*
X160810533Y-69148087D01*
X160797943Y-69169093D01*
X160783355Y-69188763D01*
X160766908Y-69206908D01*
X160748763Y-69223355D01*
X160729093Y-69237943D01*
X160708087Y-69250533D01*
X160685949Y-69261004D01*
X160662891Y-69269254D01*
X160639135Y-69275205D01*
X160614910Y-69278798D01*
X160590450Y-69280000D01*
X159939550Y-69280000D01*
X159915090Y-69278798D01*
X159890865Y-69275205D01*
X159867109Y-69269254D01*
X159844051Y-69261004D01*
X159821913Y-69250533D01*
X159800907Y-69237943D01*
X159781237Y-69223355D01*
X159763092Y-69206908D01*
X159746645Y-69188763D01*
X159732057Y-69169093D01*
X159719467Y-69148087D01*
X159708996Y-69125949D01*
X159700746Y-69102891D01*
X159694795Y-69079135D01*
X159691202Y-69054910D01*
X159690000Y-69030450D01*
X159690000Y-68129550D01*
X159691202Y-68105090D01*
X159694795Y-68080865D01*
X159700746Y-68057109D01*
X159708996Y-68034051D01*
X159719467Y-68011913D01*
X159732057Y-67990907D01*
X159746645Y-67971237D01*
X159763092Y-67953092D01*
X159781237Y-67936645D01*
X159800907Y-67922057D01*
X159821913Y-67909467D01*
X159844051Y-67898996D01*
X159867109Y-67890746D01*
X159890865Y-67884795D01*
X159915090Y-67881202D01*
X159939550Y-67880000D01*
X160590450Y-67880000D01*
X160614910Y-67881202D01*
X160614910Y-67881202D01*
G37*
D12*
X160265000Y-68580000D03*
D11*
G36*
X162664910Y-67881202D02*
X162689135Y-67884795D01*
X162712891Y-67890746D01*
X162735949Y-67898996D01*
X162758087Y-67909467D01*
X162779093Y-67922057D01*
X162798763Y-67936645D01*
X162816908Y-67953092D01*
X162833355Y-67971237D01*
X162847943Y-67990907D01*
X162860533Y-68011913D01*
X162871004Y-68034051D01*
X162879254Y-68057109D01*
X162885205Y-68080865D01*
X162888798Y-68105090D01*
X162890000Y-68129550D01*
X162890000Y-69030450D01*
X162888798Y-69054910D01*
X162885205Y-69079135D01*
X162879254Y-69102891D01*
X162871004Y-69125949D01*
X162860533Y-69148087D01*
X162847943Y-69169093D01*
X162833355Y-69188763D01*
X162816908Y-69206908D01*
X162798763Y-69223355D01*
X162779093Y-69237943D01*
X162758087Y-69250533D01*
X162735949Y-69261004D01*
X162712891Y-69269254D01*
X162689135Y-69275205D01*
X162664910Y-69278798D01*
X162640450Y-69280000D01*
X161989550Y-69280000D01*
X161965090Y-69278798D01*
X161940865Y-69275205D01*
X161917109Y-69269254D01*
X161894051Y-69261004D01*
X161871913Y-69250533D01*
X161850907Y-69237943D01*
X161831237Y-69223355D01*
X161813092Y-69206908D01*
X161796645Y-69188763D01*
X161782057Y-69169093D01*
X161769467Y-69148087D01*
X161758996Y-69125949D01*
X161750746Y-69102891D01*
X161744795Y-69079135D01*
X161741202Y-69054910D01*
X161740000Y-69030450D01*
X161740000Y-68129550D01*
X161741202Y-68105090D01*
X161744795Y-68080865D01*
X161750746Y-68057109D01*
X161758996Y-68034051D01*
X161769467Y-68011913D01*
X161782057Y-67990907D01*
X161796645Y-67971237D01*
X161813092Y-67953092D01*
X161831237Y-67936645D01*
X161850907Y-67922057D01*
X161871913Y-67909467D01*
X161894051Y-67898996D01*
X161917109Y-67890746D01*
X161940865Y-67884795D01*
X161965090Y-67881202D01*
X161989550Y-67880000D01*
X162640450Y-67880000D01*
X162664910Y-67881202D01*
X162664910Y-67881202D01*
G37*
D12*
X162315000Y-68580000D03*
G04 #@! TD*
D11*
G04 #@! TO.C,C12*
G36*
X83770910Y-91884202D02*
X83795135Y-91887795D01*
X83818891Y-91893746D01*
X83841949Y-91901996D01*
X83864087Y-91912467D01*
X83885093Y-91925057D01*
X83904763Y-91939645D01*
X83922908Y-91956092D01*
X83939355Y-91974237D01*
X83953943Y-91993907D01*
X83966533Y-92014913D01*
X83977004Y-92037051D01*
X83985254Y-92060109D01*
X83991205Y-92083865D01*
X83994798Y-92108090D01*
X83996000Y-92132550D01*
X83996000Y-93033450D01*
X83994798Y-93057910D01*
X83991205Y-93082135D01*
X83985254Y-93105891D01*
X83977004Y-93128949D01*
X83966533Y-93151087D01*
X83953943Y-93172093D01*
X83939355Y-93191763D01*
X83922908Y-93209908D01*
X83904763Y-93226355D01*
X83885093Y-93240943D01*
X83864087Y-93253533D01*
X83841949Y-93264004D01*
X83818891Y-93272254D01*
X83795135Y-93278205D01*
X83770910Y-93281798D01*
X83746450Y-93283000D01*
X83095550Y-93283000D01*
X83071090Y-93281798D01*
X83046865Y-93278205D01*
X83023109Y-93272254D01*
X83000051Y-93264004D01*
X82977913Y-93253533D01*
X82956907Y-93240943D01*
X82937237Y-93226355D01*
X82919092Y-93209908D01*
X82902645Y-93191763D01*
X82888057Y-93172093D01*
X82875467Y-93151087D01*
X82864996Y-93128949D01*
X82856746Y-93105891D01*
X82850795Y-93082135D01*
X82847202Y-93057910D01*
X82846000Y-93033450D01*
X82846000Y-92132550D01*
X82847202Y-92108090D01*
X82850795Y-92083865D01*
X82856746Y-92060109D01*
X82864996Y-92037051D01*
X82875467Y-92014913D01*
X82888057Y-91993907D01*
X82902645Y-91974237D01*
X82919092Y-91956092D01*
X82937237Y-91939645D01*
X82956907Y-91925057D01*
X82977913Y-91912467D01*
X83000051Y-91901996D01*
X83023109Y-91893746D01*
X83046865Y-91887795D01*
X83071090Y-91884202D01*
X83095550Y-91883000D01*
X83746450Y-91883000D01*
X83770910Y-91884202D01*
X83770910Y-91884202D01*
G37*
D12*
X83421000Y-92583000D03*
D11*
G36*
X85820910Y-91884202D02*
X85845135Y-91887795D01*
X85868891Y-91893746D01*
X85891949Y-91901996D01*
X85914087Y-91912467D01*
X85935093Y-91925057D01*
X85954763Y-91939645D01*
X85972908Y-91956092D01*
X85989355Y-91974237D01*
X86003943Y-91993907D01*
X86016533Y-92014913D01*
X86027004Y-92037051D01*
X86035254Y-92060109D01*
X86041205Y-92083865D01*
X86044798Y-92108090D01*
X86046000Y-92132550D01*
X86046000Y-93033450D01*
X86044798Y-93057910D01*
X86041205Y-93082135D01*
X86035254Y-93105891D01*
X86027004Y-93128949D01*
X86016533Y-93151087D01*
X86003943Y-93172093D01*
X85989355Y-93191763D01*
X85972908Y-93209908D01*
X85954763Y-93226355D01*
X85935093Y-93240943D01*
X85914087Y-93253533D01*
X85891949Y-93264004D01*
X85868891Y-93272254D01*
X85845135Y-93278205D01*
X85820910Y-93281798D01*
X85796450Y-93283000D01*
X85145550Y-93283000D01*
X85121090Y-93281798D01*
X85096865Y-93278205D01*
X85073109Y-93272254D01*
X85050051Y-93264004D01*
X85027913Y-93253533D01*
X85006907Y-93240943D01*
X84987237Y-93226355D01*
X84969092Y-93209908D01*
X84952645Y-93191763D01*
X84938057Y-93172093D01*
X84925467Y-93151087D01*
X84914996Y-93128949D01*
X84906746Y-93105891D01*
X84900795Y-93082135D01*
X84897202Y-93057910D01*
X84896000Y-93033450D01*
X84896000Y-92132550D01*
X84897202Y-92108090D01*
X84900795Y-92083865D01*
X84906746Y-92060109D01*
X84914996Y-92037051D01*
X84925467Y-92014913D01*
X84938057Y-91993907D01*
X84952645Y-91974237D01*
X84969092Y-91956092D01*
X84987237Y-91939645D01*
X85006907Y-91925057D01*
X85027913Y-91912467D01*
X85050051Y-91901996D01*
X85073109Y-91893746D01*
X85096865Y-91887795D01*
X85121090Y-91884202D01*
X85145550Y-91883000D01*
X85796450Y-91883000D01*
X85820910Y-91884202D01*
X85820910Y-91884202D01*
G37*
D12*
X85471000Y-92583000D03*
G04 #@! TD*
D11*
G04 #@! TO.C,C13*
G36*
X141047910Y-103822202D02*
X141072135Y-103825795D01*
X141095891Y-103831746D01*
X141118949Y-103839996D01*
X141141087Y-103850467D01*
X141162093Y-103863057D01*
X141181763Y-103877645D01*
X141199908Y-103894092D01*
X141216355Y-103912237D01*
X141230943Y-103931907D01*
X141243533Y-103952913D01*
X141254004Y-103975051D01*
X141262254Y-103998109D01*
X141268205Y-104021865D01*
X141271798Y-104046090D01*
X141273000Y-104070550D01*
X141273000Y-104971450D01*
X141271798Y-104995910D01*
X141268205Y-105020135D01*
X141262254Y-105043891D01*
X141254004Y-105066949D01*
X141243533Y-105089087D01*
X141230943Y-105110093D01*
X141216355Y-105129763D01*
X141199908Y-105147908D01*
X141181763Y-105164355D01*
X141162093Y-105178943D01*
X141141087Y-105191533D01*
X141118949Y-105202004D01*
X141095891Y-105210254D01*
X141072135Y-105216205D01*
X141047910Y-105219798D01*
X141023450Y-105221000D01*
X140372550Y-105221000D01*
X140348090Y-105219798D01*
X140323865Y-105216205D01*
X140300109Y-105210254D01*
X140277051Y-105202004D01*
X140254913Y-105191533D01*
X140233907Y-105178943D01*
X140214237Y-105164355D01*
X140196092Y-105147908D01*
X140179645Y-105129763D01*
X140165057Y-105110093D01*
X140152467Y-105089087D01*
X140141996Y-105066949D01*
X140133746Y-105043891D01*
X140127795Y-105020135D01*
X140124202Y-104995910D01*
X140123000Y-104971450D01*
X140123000Y-104070550D01*
X140124202Y-104046090D01*
X140127795Y-104021865D01*
X140133746Y-103998109D01*
X140141996Y-103975051D01*
X140152467Y-103952913D01*
X140165057Y-103931907D01*
X140179645Y-103912237D01*
X140196092Y-103894092D01*
X140214237Y-103877645D01*
X140233907Y-103863057D01*
X140254913Y-103850467D01*
X140277051Y-103839996D01*
X140300109Y-103831746D01*
X140323865Y-103825795D01*
X140348090Y-103822202D01*
X140372550Y-103821000D01*
X141023450Y-103821000D01*
X141047910Y-103822202D01*
X141047910Y-103822202D01*
G37*
D12*
X140698000Y-104521000D03*
D11*
G36*
X143097910Y-103822202D02*
X143122135Y-103825795D01*
X143145891Y-103831746D01*
X143168949Y-103839996D01*
X143191087Y-103850467D01*
X143212093Y-103863057D01*
X143231763Y-103877645D01*
X143249908Y-103894092D01*
X143266355Y-103912237D01*
X143280943Y-103931907D01*
X143293533Y-103952913D01*
X143304004Y-103975051D01*
X143312254Y-103998109D01*
X143318205Y-104021865D01*
X143321798Y-104046090D01*
X143323000Y-104070550D01*
X143323000Y-104971450D01*
X143321798Y-104995910D01*
X143318205Y-105020135D01*
X143312254Y-105043891D01*
X143304004Y-105066949D01*
X143293533Y-105089087D01*
X143280943Y-105110093D01*
X143266355Y-105129763D01*
X143249908Y-105147908D01*
X143231763Y-105164355D01*
X143212093Y-105178943D01*
X143191087Y-105191533D01*
X143168949Y-105202004D01*
X143145891Y-105210254D01*
X143122135Y-105216205D01*
X143097910Y-105219798D01*
X143073450Y-105221000D01*
X142422550Y-105221000D01*
X142398090Y-105219798D01*
X142373865Y-105216205D01*
X142350109Y-105210254D01*
X142327051Y-105202004D01*
X142304913Y-105191533D01*
X142283907Y-105178943D01*
X142264237Y-105164355D01*
X142246092Y-105147908D01*
X142229645Y-105129763D01*
X142215057Y-105110093D01*
X142202467Y-105089087D01*
X142191996Y-105066949D01*
X142183746Y-105043891D01*
X142177795Y-105020135D01*
X142174202Y-104995910D01*
X142173000Y-104971450D01*
X142173000Y-104070550D01*
X142174202Y-104046090D01*
X142177795Y-104021865D01*
X142183746Y-103998109D01*
X142191996Y-103975051D01*
X142202467Y-103952913D01*
X142215057Y-103931907D01*
X142229645Y-103912237D01*
X142246092Y-103894092D01*
X142264237Y-103877645D01*
X142283907Y-103863057D01*
X142304913Y-103850467D01*
X142327051Y-103839996D01*
X142350109Y-103831746D01*
X142373865Y-103825795D01*
X142398090Y-103822202D01*
X142422550Y-103821000D01*
X143073450Y-103821000D01*
X143097910Y-103822202D01*
X143097910Y-103822202D01*
G37*
D12*
X142748000Y-104521000D03*
G04 #@! TD*
D11*
G04 #@! TO.C,C14*
G36*
X140802910Y-65468202D02*
X140827135Y-65471795D01*
X140850891Y-65477746D01*
X140873949Y-65485996D01*
X140896087Y-65496467D01*
X140917093Y-65509057D01*
X140936763Y-65523645D01*
X140954908Y-65540092D01*
X140971355Y-65558237D01*
X140985943Y-65577907D01*
X140998533Y-65598913D01*
X141009004Y-65621051D01*
X141017254Y-65644109D01*
X141023205Y-65667865D01*
X141026798Y-65692090D01*
X141028000Y-65716550D01*
X141028000Y-66617450D01*
X141026798Y-66641910D01*
X141023205Y-66666135D01*
X141017254Y-66689891D01*
X141009004Y-66712949D01*
X140998533Y-66735087D01*
X140985943Y-66756093D01*
X140971355Y-66775763D01*
X140954908Y-66793908D01*
X140936763Y-66810355D01*
X140917093Y-66824943D01*
X140896087Y-66837533D01*
X140873949Y-66848004D01*
X140850891Y-66856254D01*
X140827135Y-66862205D01*
X140802910Y-66865798D01*
X140778450Y-66867000D01*
X140127550Y-66867000D01*
X140103090Y-66865798D01*
X140078865Y-66862205D01*
X140055109Y-66856254D01*
X140032051Y-66848004D01*
X140009913Y-66837533D01*
X139988907Y-66824943D01*
X139969237Y-66810355D01*
X139951092Y-66793908D01*
X139934645Y-66775763D01*
X139920057Y-66756093D01*
X139907467Y-66735087D01*
X139896996Y-66712949D01*
X139888746Y-66689891D01*
X139882795Y-66666135D01*
X139879202Y-66641910D01*
X139878000Y-66617450D01*
X139878000Y-65716550D01*
X139879202Y-65692090D01*
X139882795Y-65667865D01*
X139888746Y-65644109D01*
X139896996Y-65621051D01*
X139907467Y-65598913D01*
X139920057Y-65577907D01*
X139934645Y-65558237D01*
X139951092Y-65540092D01*
X139969237Y-65523645D01*
X139988907Y-65509057D01*
X140009913Y-65496467D01*
X140032051Y-65485996D01*
X140055109Y-65477746D01*
X140078865Y-65471795D01*
X140103090Y-65468202D01*
X140127550Y-65467000D01*
X140778450Y-65467000D01*
X140802910Y-65468202D01*
X140802910Y-65468202D01*
G37*
D12*
X140453000Y-66167000D03*
D11*
G36*
X142852910Y-65468202D02*
X142877135Y-65471795D01*
X142900891Y-65477746D01*
X142923949Y-65485996D01*
X142946087Y-65496467D01*
X142967093Y-65509057D01*
X142986763Y-65523645D01*
X143004908Y-65540092D01*
X143021355Y-65558237D01*
X143035943Y-65577907D01*
X143048533Y-65598913D01*
X143059004Y-65621051D01*
X143067254Y-65644109D01*
X143073205Y-65667865D01*
X143076798Y-65692090D01*
X143078000Y-65716550D01*
X143078000Y-66617450D01*
X143076798Y-66641910D01*
X143073205Y-66666135D01*
X143067254Y-66689891D01*
X143059004Y-66712949D01*
X143048533Y-66735087D01*
X143035943Y-66756093D01*
X143021355Y-66775763D01*
X143004908Y-66793908D01*
X142986763Y-66810355D01*
X142967093Y-66824943D01*
X142946087Y-66837533D01*
X142923949Y-66848004D01*
X142900891Y-66856254D01*
X142877135Y-66862205D01*
X142852910Y-66865798D01*
X142828450Y-66867000D01*
X142177550Y-66867000D01*
X142153090Y-66865798D01*
X142128865Y-66862205D01*
X142105109Y-66856254D01*
X142082051Y-66848004D01*
X142059913Y-66837533D01*
X142038907Y-66824943D01*
X142019237Y-66810355D01*
X142001092Y-66793908D01*
X141984645Y-66775763D01*
X141970057Y-66756093D01*
X141957467Y-66735087D01*
X141946996Y-66712949D01*
X141938746Y-66689891D01*
X141932795Y-66666135D01*
X141929202Y-66641910D01*
X141928000Y-66617450D01*
X141928000Y-65716550D01*
X141929202Y-65692090D01*
X141932795Y-65667865D01*
X141938746Y-65644109D01*
X141946996Y-65621051D01*
X141957467Y-65598913D01*
X141970057Y-65577907D01*
X141984645Y-65558237D01*
X142001092Y-65540092D01*
X142019237Y-65523645D01*
X142038907Y-65509057D01*
X142059913Y-65496467D01*
X142082051Y-65485996D01*
X142105109Y-65477746D01*
X142128865Y-65471795D01*
X142153090Y-65468202D01*
X142177550Y-65467000D01*
X142828450Y-65467000D01*
X142852910Y-65468202D01*
X142852910Y-65468202D01*
G37*
D12*
X142503000Y-66167000D03*
G04 #@! TD*
D11*
G04 #@! TO.C,C15*
G36*
X142580910Y-48831202D02*
X142605135Y-48834795D01*
X142628891Y-48840746D01*
X142651949Y-48848996D01*
X142674087Y-48859467D01*
X142695093Y-48872057D01*
X142714763Y-48886645D01*
X142732908Y-48903092D01*
X142749355Y-48921237D01*
X142763943Y-48940907D01*
X142776533Y-48961913D01*
X142787004Y-48984051D01*
X142795254Y-49007109D01*
X142801205Y-49030865D01*
X142804798Y-49055090D01*
X142806000Y-49079550D01*
X142806000Y-49980450D01*
X142804798Y-50004910D01*
X142801205Y-50029135D01*
X142795254Y-50052891D01*
X142787004Y-50075949D01*
X142776533Y-50098087D01*
X142763943Y-50119093D01*
X142749355Y-50138763D01*
X142732908Y-50156908D01*
X142714763Y-50173355D01*
X142695093Y-50187943D01*
X142674087Y-50200533D01*
X142651949Y-50211004D01*
X142628891Y-50219254D01*
X142605135Y-50225205D01*
X142580910Y-50228798D01*
X142556450Y-50230000D01*
X141905550Y-50230000D01*
X141881090Y-50228798D01*
X141856865Y-50225205D01*
X141833109Y-50219254D01*
X141810051Y-50211004D01*
X141787913Y-50200533D01*
X141766907Y-50187943D01*
X141747237Y-50173355D01*
X141729092Y-50156908D01*
X141712645Y-50138763D01*
X141698057Y-50119093D01*
X141685467Y-50098087D01*
X141674996Y-50075949D01*
X141666746Y-50052891D01*
X141660795Y-50029135D01*
X141657202Y-50004910D01*
X141656000Y-49980450D01*
X141656000Y-49079550D01*
X141657202Y-49055090D01*
X141660795Y-49030865D01*
X141666746Y-49007109D01*
X141674996Y-48984051D01*
X141685467Y-48961913D01*
X141698057Y-48940907D01*
X141712645Y-48921237D01*
X141729092Y-48903092D01*
X141747237Y-48886645D01*
X141766907Y-48872057D01*
X141787913Y-48859467D01*
X141810051Y-48848996D01*
X141833109Y-48840746D01*
X141856865Y-48834795D01*
X141881090Y-48831202D01*
X141905550Y-48830000D01*
X142556450Y-48830000D01*
X142580910Y-48831202D01*
X142580910Y-48831202D01*
G37*
D12*
X142231000Y-49530000D03*
D11*
G36*
X144630910Y-48831202D02*
X144655135Y-48834795D01*
X144678891Y-48840746D01*
X144701949Y-48848996D01*
X144724087Y-48859467D01*
X144745093Y-48872057D01*
X144764763Y-48886645D01*
X144782908Y-48903092D01*
X144799355Y-48921237D01*
X144813943Y-48940907D01*
X144826533Y-48961913D01*
X144837004Y-48984051D01*
X144845254Y-49007109D01*
X144851205Y-49030865D01*
X144854798Y-49055090D01*
X144856000Y-49079550D01*
X144856000Y-49980450D01*
X144854798Y-50004910D01*
X144851205Y-50029135D01*
X144845254Y-50052891D01*
X144837004Y-50075949D01*
X144826533Y-50098087D01*
X144813943Y-50119093D01*
X144799355Y-50138763D01*
X144782908Y-50156908D01*
X144764763Y-50173355D01*
X144745093Y-50187943D01*
X144724087Y-50200533D01*
X144701949Y-50211004D01*
X144678891Y-50219254D01*
X144655135Y-50225205D01*
X144630910Y-50228798D01*
X144606450Y-50230000D01*
X143955550Y-50230000D01*
X143931090Y-50228798D01*
X143906865Y-50225205D01*
X143883109Y-50219254D01*
X143860051Y-50211004D01*
X143837913Y-50200533D01*
X143816907Y-50187943D01*
X143797237Y-50173355D01*
X143779092Y-50156908D01*
X143762645Y-50138763D01*
X143748057Y-50119093D01*
X143735467Y-50098087D01*
X143724996Y-50075949D01*
X143716746Y-50052891D01*
X143710795Y-50029135D01*
X143707202Y-50004910D01*
X143706000Y-49980450D01*
X143706000Y-49079550D01*
X143707202Y-49055090D01*
X143710795Y-49030865D01*
X143716746Y-49007109D01*
X143724996Y-48984051D01*
X143735467Y-48961913D01*
X143748057Y-48940907D01*
X143762645Y-48921237D01*
X143779092Y-48903092D01*
X143797237Y-48886645D01*
X143816907Y-48872057D01*
X143837913Y-48859467D01*
X143860051Y-48848996D01*
X143883109Y-48840746D01*
X143906865Y-48834795D01*
X143931090Y-48831202D01*
X143955550Y-48830000D01*
X144606450Y-48830000D01*
X144630910Y-48831202D01*
X144630910Y-48831202D01*
G37*
D12*
X144281000Y-49530000D03*
G04 #@! TD*
D11*
G04 #@! TO.C,C16*
G36*
X106884910Y-71818202D02*
X106909135Y-71821795D01*
X106932891Y-71827746D01*
X106955949Y-71835996D01*
X106978087Y-71846467D01*
X106999093Y-71859057D01*
X107018763Y-71873645D01*
X107036908Y-71890092D01*
X107053355Y-71908237D01*
X107067943Y-71927907D01*
X107080533Y-71948913D01*
X107091004Y-71971051D01*
X107099254Y-71994109D01*
X107105205Y-72017865D01*
X107108798Y-72042090D01*
X107110000Y-72066550D01*
X107110000Y-72967450D01*
X107108798Y-72991910D01*
X107105205Y-73016135D01*
X107099254Y-73039891D01*
X107091004Y-73062949D01*
X107080533Y-73085087D01*
X107067943Y-73106093D01*
X107053355Y-73125763D01*
X107036908Y-73143908D01*
X107018763Y-73160355D01*
X106999093Y-73174943D01*
X106978087Y-73187533D01*
X106955949Y-73198004D01*
X106932891Y-73206254D01*
X106909135Y-73212205D01*
X106884910Y-73215798D01*
X106860450Y-73217000D01*
X106209550Y-73217000D01*
X106185090Y-73215798D01*
X106160865Y-73212205D01*
X106137109Y-73206254D01*
X106114051Y-73198004D01*
X106091913Y-73187533D01*
X106070907Y-73174943D01*
X106051237Y-73160355D01*
X106033092Y-73143908D01*
X106016645Y-73125763D01*
X106002057Y-73106093D01*
X105989467Y-73085087D01*
X105978996Y-73062949D01*
X105970746Y-73039891D01*
X105964795Y-73016135D01*
X105961202Y-72991910D01*
X105960000Y-72967450D01*
X105960000Y-72066550D01*
X105961202Y-72042090D01*
X105964795Y-72017865D01*
X105970746Y-71994109D01*
X105978996Y-71971051D01*
X105989467Y-71948913D01*
X106002057Y-71927907D01*
X106016645Y-71908237D01*
X106033092Y-71890092D01*
X106051237Y-71873645D01*
X106070907Y-71859057D01*
X106091913Y-71846467D01*
X106114051Y-71835996D01*
X106137109Y-71827746D01*
X106160865Y-71821795D01*
X106185090Y-71818202D01*
X106209550Y-71817000D01*
X106860450Y-71817000D01*
X106884910Y-71818202D01*
X106884910Y-71818202D01*
G37*
D12*
X106535000Y-72517000D03*
D11*
G36*
X108934910Y-71818202D02*
X108959135Y-71821795D01*
X108982891Y-71827746D01*
X109005949Y-71835996D01*
X109028087Y-71846467D01*
X109049093Y-71859057D01*
X109068763Y-71873645D01*
X109086908Y-71890092D01*
X109103355Y-71908237D01*
X109117943Y-71927907D01*
X109130533Y-71948913D01*
X109141004Y-71971051D01*
X109149254Y-71994109D01*
X109155205Y-72017865D01*
X109158798Y-72042090D01*
X109160000Y-72066550D01*
X109160000Y-72967450D01*
X109158798Y-72991910D01*
X109155205Y-73016135D01*
X109149254Y-73039891D01*
X109141004Y-73062949D01*
X109130533Y-73085087D01*
X109117943Y-73106093D01*
X109103355Y-73125763D01*
X109086908Y-73143908D01*
X109068763Y-73160355D01*
X109049093Y-73174943D01*
X109028087Y-73187533D01*
X109005949Y-73198004D01*
X108982891Y-73206254D01*
X108959135Y-73212205D01*
X108934910Y-73215798D01*
X108910450Y-73217000D01*
X108259550Y-73217000D01*
X108235090Y-73215798D01*
X108210865Y-73212205D01*
X108187109Y-73206254D01*
X108164051Y-73198004D01*
X108141913Y-73187533D01*
X108120907Y-73174943D01*
X108101237Y-73160355D01*
X108083092Y-73143908D01*
X108066645Y-73125763D01*
X108052057Y-73106093D01*
X108039467Y-73085087D01*
X108028996Y-73062949D01*
X108020746Y-73039891D01*
X108014795Y-73016135D01*
X108011202Y-72991910D01*
X108010000Y-72967450D01*
X108010000Y-72066550D01*
X108011202Y-72042090D01*
X108014795Y-72017865D01*
X108020746Y-71994109D01*
X108028996Y-71971051D01*
X108039467Y-71948913D01*
X108052057Y-71927907D01*
X108066645Y-71908237D01*
X108083092Y-71890092D01*
X108101237Y-71873645D01*
X108120907Y-71859057D01*
X108141913Y-71846467D01*
X108164051Y-71835996D01*
X108187109Y-71827746D01*
X108210865Y-71821795D01*
X108235090Y-71818202D01*
X108259550Y-71817000D01*
X108910450Y-71817000D01*
X108934910Y-71818202D01*
X108934910Y-71818202D01*
G37*
D12*
X108585000Y-72517000D03*
G04 #@! TD*
D11*
G04 #@! TO.C,C17*
G36*
X159979910Y-49085202D02*
X160004135Y-49088795D01*
X160027891Y-49094746D01*
X160050949Y-49102996D01*
X160073087Y-49113467D01*
X160094093Y-49126057D01*
X160113763Y-49140645D01*
X160131908Y-49157092D01*
X160148355Y-49175237D01*
X160162943Y-49194907D01*
X160175533Y-49215913D01*
X160186004Y-49238051D01*
X160194254Y-49261109D01*
X160200205Y-49284865D01*
X160203798Y-49309090D01*
X160205000Y-49333550D01*
X160205000Y-50234450D01*
X160203798Y-50258910D01*
X160200205Y-50283135D01*
X160194254Y-50306891D01*
X160186004Y-50329949D01*
X160175533Y-50352087D01*
X160162943Y-50373093D01*
X160148355Y-50392763D01*
X160131908Y-50410908D01*
X160113763Y-50427355D01*
X160094093Y-50441943D01*
X160073087Y-50454533D01*
X160050949Y-50465004D01*
X160027891Y-50473254D01*
X160004135Y-50479205D01*
X159979910Y-50482798D01*
X159955450Y-50484000D01*
X159304550Y-50484000D01*
X159280090Y-50482798D01*
X159255865Y-50479205D01*
X159232109Y-50473254D01*
X159209051Y-50465004D01*
X159186913Y-50454533D01*
X159165907Y-50441943D01*
X159146237Y-50427355D01*
X159128092Y-50410908D01*
X159111645Y-50392763D01*
X159097057Y-50373093D01*
X159084467Y-50352087D01*
X159073996Y-50329949D01*
X159065746Y-50306891D01*
X159059795Y-50283135D01*
X159056202Y-50258910D01*
X159055000Y-50234450D01*
X159055000Y-49333550D01*
X159056202Y-49309090D01*
X159059795Y-49284865D01*
X159065746Y-49261109D01*
X159073996Y-49238051D01*
X159084467Y-49215913D01*
X159097057Y-49194907D01*
X159111645Y-49175237D01*
X159128092Y-49157092D01*
X159146237Y-49140645D01*
X159165907Y-49126057D01*
X159186913Y-49113467D01*
X159209051Y-49102996D01*
X159232109Y-49094746D01*
X159255865Y-49088795D01*
X159280090Y-49085202D01*
X159304550Y-49084000D01*
X159955450Y-49084000D01*
X159979910Y-49085202D01*
X159979910Y-49085202D01*
G37*
D12*
X159630000Y-49784000D03*
D11*
G36*
X162029910Y-49085202D02*
X162054135Y-49088795D01*
X162077891Y-49094746D01*
X162100949Y-49102996D01*
X162123087Y-49113467D01*
X162144093Y-49126057D01*
X162163763Y-49140645D01*
X162181908Y-49157092D01*
X162198355Y-49175237D01*
X162212943Y-49194907D01*
X162225533Y-49215913D01*
X162236004Y-49238051D01*
X162244254Y-49261109D01*
X162250205Y-49284865D01*
X162253798Y-49309090D01*
X162255000Y-49333550D01*
X162255000Y-50234450D01*
X162253798Y-50258910D01*
X162250205Y-50283135D01*
X162244254Y-50306891D01*
X162236004Y-50329949D01*
X162225533Y-50352087D01*
X162212943Y-50373093D01*
X162198355Y-50392763D01*
X162181908Y-50410908D01*
X162163763Y-50427355D01*
X162144093Y-50441943D01*
X162123087Y-50454533D01*
X162100949Y-50465004D01*
X162077891Y-50473254D01*
X162054135Y-50479205D01*
X162029910Y-50482798D01*
X162005450Y-50484000D01*
X161354550Y-50484000D01*
X161330090Y-50482798D01*
X161305865Y-50479205D01*
X161282109Y-50473254D01*
X161259051Y-50465004D01*
X161236913Y-50454533D01*
X161215907Y-50441943D01*
X161196237Y-50427355D01*
X161178092Y-50410908D01*
X161161645Y-50392763D01*
X161147057Y-50373093D01*
X161134467Y-50352087D01*
X161123996Y-50329949D01*
X161115746Y-50306891D01*
X161109795Y-50283135D01*
X161106202Y-50258910D01*
X161105000Y-50234450D01*
X161105000Y-49333550D01*
X161106202Y-49309090D01*
X161109795Y-49284865D01*
X161115746Y-49261109D01*
X161123996Y-49238051D01*
X161134467Y-49215913D01*
X161147057Y-49194907D01*
X161161645Y-49175237D01*
X161178092Y-49157092D01*
X161196237Y-49140645D01*
X161215907Y-49126057D01*
X161236913Y-49113467D01*
X161259051Y-49102996D01*
X161282109Y-49094746D01*
X161305865Y-49088795D01*
X161330090Y-49085202D01*
X161354550Y-49084000D01*
X162005450Y-49084000D01*
X162029910Y-49085202D01*
X162029910Y-49085202D01*
G37*
D12*
X161680000Y-49784000D03*
G04 #@! TD*
D11*
G04 #@! TO.C,C18*
G36*
X83897910Y-110934202D02*
X83922135Y-110937795D01*
X83945891Y-110943746D01*
X83968949Y-110951996D01*
X83991087Y-110962467D01*
X84012093Y-110975057D01*
X84031763Y-110989645D01*
X84049908Y-111006092D01*
X84066355Y-111024237D01*
X84080943Y-111043907D01*
X84093533Y-111064913D01*
X84104004Y-111087051D01*
X84112254Y-111110109D01*
X84118205Y-111133865D01*
X84121798Y-111158090D01*
X84123000Y-111182550D01*
X84123000Y-112083450D01*
X84121798Y-112107910D01*
X84118205Y-112132135D01*
X84112254Y-112155891D01*
X84104004Y-112178949D01*
X84093533Y-112201087D01*
X84080943Y-112222093D01*
X84066355Y-112241763D01*
X84049908Y-112259908D01*
X84031763Y-112276355D01*
X84012093Y-112290943D01*
X83991087Y-112303533D01*
X83968949Y-112314004D01*
X83945891Y-112322254D01*
X83922135Y-112328205D01*
X83897910Y-112331798D01*
X83873450Y-112333000D01*
X83222550Y-112333000D01*
X83198090Y-112331798D01*
X83173865Y-112328205D01*
X83150109Y-112322254D01*
X83127051Y-112314004D01*
X83104913Y-112303533D01*
X83083907Y-112290943D01*
X83064237Y-112276355D01*
X83046092Y-112259908D01*
X83029645Y-112241763D01*
X83015057Y-112222093D01*
X83002467Y-112201087D01*
X82991996Y-112178949D01*
X82983746Y-112155891D01*
X82977795Y-112132135D01*
X82974202Y-112107910D01*
X82973000Y-112083450D01*
X82973000Y-111182550D01*
X82974202Y-111158090D01*
X82977795Y-111133865D01*
X82983746Y-111110109D01*
X82991996Y-111087051D01*
X83002467Y-111064913D01*
X83015057Y-111043907D01*
X83029645Y-111024237D01*
X83046092Y-111006092D01*
X83064237Y-110989645D01*
X83083907Y-110975057D01*
X83104913Y-110962467D01*
X83127051Y-110951996D01*
X83150109Y-110943746D01*
X83173865Y-110937795D01*
X83198090Y-110934202D01*
X83222550Y-110933000D01*
X83873450Y-110933000D01*
X83897910Y-110934202D01*
X83897910Y-110934202D01*
G37*
D12*
X83548000Y-111633000D03*
D11*
G36*
X85947910Y-110934202D02*
X85972135Y-110937795D01*
X85995891Y-110943746D01*
X86018949Y-110951996D01*
X86041087Y-110962467D01*
X86062093Y-110975057D01*
X86081763Y-110989645D01*
X86099908Y-111006092D01*
X86116355Y-111024237D01*
X86130943Y-111043907D01*
X86143533Y-111064913D01*
X86154004Y-111087051D01*
X86162254Y-111110109D01*
X86168205Y-111133865D01*
X86171798Y-111158090D01*
X86173000Y-111182550D01*
X86173000Y-112083450D01*
X86171798Y-112107910D01*
X86168205Y-112132135D01*
X86162254Y-112155891D01*
X86154004Y-112178949D01*
X86143533Y-112201087D01*
X86130943Y-112222093D01*
X86116355Y-112241763D01*
X86099908Y-112259908D01*
X86081763Y-112276355D01*
X86062093Y-112290943D01*
X86041087Y-112303533D01*
X86018949Y-112314004D01*
X85995891Y-112322254D01*
X85972135Y-112328205D01*
X85947910Y-112331798D01*
X85923450Y-112333000D01*
X85272550Y-112333000D01*
X85248090Y-112331798D01*
X85223865Y-112328205D01*
X85200109Y-112322254D01*
X85177051Y-112314004D01*
X85154913Y-112303533D01*
X85133907Y-112290943D01*
X85114237Y-112276355D01*
X85096092Y-112259908D01*
X85079645Y-112241763D01*
X85065057Y-112222093D01*
X85052467Y-112201087D01*
X85041996Y-112178949D01*
X85033746Y-112155891D01*
X85027795Y-112132135D01*
X85024202Y-112107910D01*
X85023000Y-112083450D01*
X85023000Y-111182550D01*
X85024202Y-111158090D01*
X85027795Y-111133865D01*
X85033746Y-111110109D01*
X85041996Y-111087051D01*
X85052467Y-111064913D01*
X85065057Y-111043907D01*
X85079645Y-111024237D01*
X85096092Y-111006092D01*
X85114237Y-110989645D01*
X85133907Y-110975057D01*
X85154913Y-110962467D01*
X85177051Y-110951996D01*
X85200109Y-110943746D01*
X85223865Y-110937795D01*
X85248090Y-110934202D01*
X85272550Y-110933000D01*
X85923450Y-110933000D01*
X85947910Y-110934202D01*
X85947910Y-110934202D01*
G37*
D12*
X85598000Y-111633000D03*
G04 #@! TD*
D11*
G04 #@! TO.C,C19*
G36*
X103083910Y-89471202D02*
X103108135Y-89474795D01*
X103131891Y-89480746D01*
X103154949Y-89488996D01*
X103177087Y-89499467D01*
X103198093Y-89512057D01*
X103217763Y-89526645D01*
X103235908Y-89543092D01*
X103252355Y-89561237D01*
X103266943Y-89580907D01*
X103279533Y-89601913D01*
X103290004Y-89624051D01*
X103298254Y-89647109D01*
X103304205Y-89670865D01*
X103307798Y-89695090D01*
X103309000Y-89719550D01*
X103309000Y-90620450D01*
X103307798Y-90644910D01*
X103304205Y-90669135D01*
X103298254Y-90692891D01*
X103290004Y-90715949D01*
X103279533Y-90738087D01*
X103266943Y-90759093D01*
X103252355Y-90778763D01*
X103235908Y-90796908D01*
X103217763Y-90813355D01*
X103198093Y-90827943D01*
X103177087Y-90840533D01*
X103154949Y-90851004D01*
X103131891Y-90859254D01*
X103108135Y-90865205D01*
X103083910Y-90868798D01*
X103059450Y-90870000D01*
X102408550Y-90870000D01*
X102384090Y-90868798D01*
X102359865Y-90865205D01*
X102336109Y-90859254D01*
X102313051Y-90851004D01*
X102290913Y-90840533D01*
X102269907Y-90827943D01*
X102250237Y-90813355D01*
X102232092Y-90796908D01*
X102215645Y-90778763D01*
X102201057Y-90759093D01*
X102188467Y-90738087D01*
X102177996Y-90715949D01*
X102169746Y-90692891D01*
X102163795Y-90669135D01*
X102160202Y-90644910D01*
X102159000Y-90620450D01*
X102159000Y-89719550D01*
X102160202Y-89695090D01*
X102163795Y-89670865D01*
X102169746Y-89647109D01*
X102177996Y-89624051D01*
X102188467Y-89601913D01*
X102201057Y-89580907D01*
X102215645Y-89561237D01*
X102232092Y-89543092D01*
X102250237Y-89526645D01*
X102269907Y-89512057D01*
X102290913Y-89499467D01*
X102313051Y-89488996D01*
X102336109Y-89480746D01*
X102359865Y-89474795D01*
X102384090Y-89471202D01*
X102408550Y-89470000D01*
X103059450Y-89470000D01*
X103083910Y-89471202D01*
X103083910Y-89471202D01*
G37*
D12*
X102734000Y-90170000D03*
D11*
G36*
X105133910Y-89471202D02*
X105158135Y-89474795D01*
X105181891Y-89480746D01*
X105204949Y-89488996D01*
X105227087Y-89499467D01*
X105248093Y-89512057D01*
X105267763Y-89526645D01*
X105285908Y-89543092D01*
X105302355Y-89561237D01*
X105316943Y-89580907D01*
X105329533Y-89601913D01*
X105340004Y-89624051D01*
X105348254Y-89647109D01*
X105354205Y-89670865D01*
X105357798Y-89695090D01*
X105359000Y-89719550D01*
X105359000Y-90620450D01*
X105357798Y-90644910D01*
X105354205Y-90669135D01*
X105348254Y-90692891D01*
X105340004Y-90715949D01*
X105329533Y-90738087D01*
X105316943Y-90759093D01*
X105302355Y-90778763D01*
X105285908Y-90796908D01*
X105267763Y-90813355D01*
X105248093Y-90827943D01*
X105227087Y-90840533D01*
X105204949Y-90851004D01*
X105181891Y-90859254D01*
X105158135Y-90865205D01*
X105133910Y-90868798D01*
X105109450Y-90870000D01*
X104458550Y-90870000D01*
X104434090Y-90868798D01*
X104409865Y-90865205D01*
X104386109Y-90859254D01*
X104363051Y-90851004D01*
X104340913Y-90840533D01*
X104319907Y-90827943D01*
X104300237Y-90813355D01*
X104282092Y-90796908D01*
X104265645Y-90778763D01*
X104251057Y-90759093D01*
X104238467Y-90738087D01*
X104227996Y-90715949D01*
X104219746Y-90692891D01*
X104213795Y-90669135D01*
X104210202Y-90644910D01*
X104209000Y-90620450D01*
X104209000Y-89719550D01*
X104210202Y-89695090D01*
X104213795Y-89670865D01*
X104219746Y-89647109D01*
X104227996Y-89624051D01*
X104238467Y-89601913D01*
X104251057Y-89580907D01*
X104265645Y-89561237D01*
X104282092Y-89543092D01*
X104300237Y-89526645D01*
X104319907Y-89512057D01*
X104340913Y-89499467D01*
X104363051Y-89488996D01*
X104386109Y-89480746D01*
X104409865Y-89474795D01*
X104434090Y-89471202D01*
X104458550Y-89470000D01*
X105109450Y-89470000D01*
X105133910Y-89471202D01*
X105133910Y-89471202D01*
G37*
D12*
X104784000Y-90170000D03*
G04 #@! TD*
D11*
G04 #@! TO.C,C20*
G36*
X141319910Y-84518202D02*
X141344135Y-84521795D01*
X141367891Y-84527746D01*
X141390949Y-84535996D01*
X141413087Y-84546467D01*
X141434093Y-84559057D01*
X141453763Y-84573645D01*
X141471908Y-84590092D01*
X141488355Y-84608237D01*
X141502943Y-84627907D01*
X141515533Y-84648913D01*
X141526004Y-84671051D01*
X141534254Y-84694109D01*
X141540205Y-84717865D01*
X141543798Y-84742090D01*
X141545000Y-84766550D01*
X141545000Y-85667450D01*
X141543798Y-85691910D01*
X141540205Y-85716135D01*
X141534254Y-85739891D01*
X141526004Y-85762949D01*
X141515533Y-85785087D01*
X141502943Y-85806093D01*
X141488355Y-85825763D01*
X141471908Y-85843908D01*
X141453763Y-85860355D01*
X141434093Y-85874943D01*
X141413087Y-85887533D01*
X141390949Y-85898004D01*
X141367891Y-85906254D01*
X141344135Y-85912205D01*
X141319910Y-85915798D01*
X141295450Y-85917000D01*
X140644550Y-85917000D01*
X140620090Y-85915798D01*
X140595865Y-85912205D01*
X140572109Y-85906254D01*
X140549051Y-85898004D01*
X140526913Y-85887533D01*
X140505907Y-85874943D01*
X140486237Y-85860355D01*
X140468092Y-85843908D01*
X140451645Y-85825763D01*
X140437057Y-85806093D01*
X140424467Y-85785087D01*
X140413996Y-85762949D01*
X140405746Y-85739891D01*
X140399795Y-85716135D01*
X140396202Y-85691910D01*
X140395000Y-85667450D01*
X140395000Y-84766550D01*
X140396202Y-84742090D01*
X140399795Y-84717865D01*
X140405746Y-84694109D01*
X140413996Y-84671051D01*
X140424467Y-84648913D01*
X140437057Y-84627907D01*
X140451645Y-84608237D01*
X140468092Y-84590092D01*
X140486237Y-84573645D01*
X140505907Y-84559057D01*
X140526913Y-84546467D01*
X140549051Y-84535996D01*
X140572109Y-84527746D01*
X140595865Y-84521795D01*
X140620090Y-84518202D01*
X140644550Y-84517000D01*
X141295450Y-84517000D01*
X141319910Y-84518202D01*
X141319910Y-84518202D01*
G37*
D12*
X140970000Y-85217000D03*
D11*
G36*
X143369910Y-84518202D02*
X143394135Y-84521795D01*
X143417891Y-84527746D01*
X143440949Y-84535996D01*
X143463087Y-84546467D01*
X143484093Y-84559057D01*
X143503763Y-84573645D01*
X143521908Y-84590092D01*
X143538355Y-84608237D01*
X143552943Y-84627907D01*
X143565533Y-84648913D01*
X143576004Y-84671051D01*
X143584254Y-84694109D01*
X143590205Y-84717865D01*
X143593798Y-84742090D01*
X143595000Y-84766550D01*
X143595000Y-85667450D01*
X143593798Y-85691910D01*
X143590205Y-85716135D01*
X143584254Y-85739891D01*
X143576004Y-85762949D01*
X143565533Y-85785087D01*
X143552943Y-85806093D01*
X143538355Y-85825763D01*
X143521908Y-85843908D01*
X143503763Y-85860355D01*
X143484093Y-85874943D01*
X143463087Y-85887533D01*
X143440949Y-85898004D01*
X143417891Y-85906254D01*
X143394135Y-85912205D01*
X143369910Y-85915798D01*
X143345450Y-85917000D01*
X142694550Y-85917000D01*
X142670090Y-85915798D01*
X142645865Y-85912205D01*
X142622109Y-85906254D01*
X142599051Y-85898004D01*
X142576913Y-85887533D01*
X142555907Y-85874943D01*
X142536237Y-85860355D01*
X142518092Y-85843908D01*
X142501645Y-85825763D01*
X142487057Y-85806093D01*
X142474467Y-85785087D01*
X142463996Y-85762949D01*
X142455746Y-85739891D01*
X142449795Y-85716135D01*
X142446202Y-85691910D01*
X142445000Y-85667450D01*
X142445000Y-84766550D01*
X142446202Y-84742090D01*
X142449795Y-84717865D01*
X142455746Y-84694109D01*
X142463996Y-84671051D01*
X142474467Y-84648913D01*
X142487057Y-84627907D01*
X142501645Y-84608237D01*
X142518092Y-84590092D01*
X142536237Y-84573645D01*
X142555907Y-84559057D01*
X142576913Y-84546467D01*
X142599051Y-84535996D01*
X142622109Y-84527746D01*
X142645865Y-84521795D01*
X142670090Y-84518202D01*
X142694550Y-84517000D01*
X143345450Y-84517000D01*
X143369910Y-84518202D01*
X143369910Y-84518202D01*
G37*
D12*
X143020000Y-85217000D03*
G04 #@! TD*
D11*
G04 #@! TO.C,C21*
G36*
X192879910Y-100527202D02*
X192904135Y-100530795D01*
X192927891Y-100536746D01*
X192950949Y-100544996D01*
X192973087Y-100555467D01*
X192994093Y-100568057D01*
X193013763Y-100582645D01*
X193031908Y-100599092D01*
X193048355Y-100617237D01*
X193062943Y-100636907D01*
X193075533Y-100657913D01*
X193086004Y-100680051D01*
X193094254Y-100703109D01*
X193100205Y-100726865D01*
X193103798Y-100751090D01*
X193105000Y-100775550D01*
X193105000Y-101426450D01*
X193103798Y-101450910D01*
X193100205Y-101475135D01*
X193094254Y-101498891D01*
X193086004Y-101521949D01*
X193075533Y-101544087D01*
X193062943Y-101565093D01*
X193048355Y-101584763D01*
X193031908Y-101602908D01*
X193013763Y-101619355D01*
X192994093Y-101633943D01*
X192973087Y-101646533D01*
X192950949Y-101657004D01*
X192927891Y-101665254D01*
X192904135Y-101671205D01*
X192879910Y-101674798D01*
X192855450Y-101676000D01*
X191954550Y-101676000D01*
X191930090Y-101674798D01*
X191905865Y-101671205D01*
X191882109Y-101665254D01*
X191859051Y-101657004D01*
X191836913Y-101646533D01*
X191815907Y-101633943D01*
X191796237Y-101619355D01*
X191778092Y-101602908D01*
X191761645Y-101584763D01*
X191747057Y-101565093D01*
X191734467Y-101544087D01*
X191723996Y-101521949D01*
X191715746Y-101498891D01*
X191709795Y-101475135D01*
X191706202Y-101450910D01*
X191705000Y-101426450D01*
X191705000Y-100775550D01*
X191706202Y-100751090D01*
X191709795Y-100726865D01*
X191715746Y-100703109D01*
X191723996Y-100680051D01*
X191734467Y-100657913D01*
X191747057Y-100636907D01*
X191761645Y-100617237D01*
X191778092Y-100599092D01*
X191796237Y-100582645D01*
X191815907Y-100568057D01*
X191836913Y-100555467D01*
X191859051Y-100544996D01*
X191882109Y-100536746D01*
X191905865Y-100530795D01*
X191930090Y-100527202D01*
X191954550Y-100526000D01*
X192855450Y-100526000D01*
X192879910Y-100527202D01*
X192879910Y-100527202D01*
G37*
D12*
X192405000Y-101101000D03*
D11*
G36*
X192879910Y-98477202D02*
X192904135Y-98480795D01*
X192927891Y-98486746D01*
X192950949Y-98494996D01*
X192973087Y-98505467D01*
X192994093Y-98518057D01*
X193013763Y-98532645D01*
X193031908Y-98549092D01*
X193048355Y-98567237D01*
X193062943Y-98586907D01*
X193075533Y-98607913D01*
X193086004Y-98630051D01*
X193094254Y-98653109D01*
X193100205Y-98676865D01*
X193103798Y-98701090D01*
X193105000Y-98725550D01*
X193105000Y-99376450D01*
X193103798Y-99400910D01*
X193100205Y-99425135D01*
X193094254Y-99448891D01*
X193086004Y-99471949D01*
X193075533Y-99494087D01*
X193062943Y-99515093D01*
X193048355Y-99534763D01*
X193031908Y-99552908D01*
X193013763Y-99569355D01*
X192994093Y-99583943D01*
X192973087Y-99596533D01*
X192950949Y-99607004D01*
X192927891Y-99615254D01*
X192904135Y-99621205D01*
X192879910Y-99624798D01*
X192855450Y-99626000D01*
X191954550Y-99626000D01*
X191930090Y-99624798D01*
X191905865Y-99621205D01*
X191882109Y-99615254D01*
X191859051Y-99607004D01*
X191836913Y-99596533D01*
X191815907Y-99583943D01*
X191796237Y-99569355D01*
X191778092Y-99552908D01*
X191761645Y-99534763D01*
X191747057Y-99515093D01*
X191734467Y-99494087D01*
X191723996Y-99471949D01*
X191715746Y-99448891D01*
X191709795Y-99425135D01*
X191706202Y-99400910D01*
X191705000Y-99376450D01*
X191705000Y-98725550D01*
X191706202Y-98701090D01*
X191709795Y-98676865D01*
X191715746Y-98653109D01*
X191723996Y-98630051D01*
X191734467Y-98607913D01*
X191747057Y-98586907D01*
X191761645Y-98567237D01*
X191778092Y-98549092D01*
X191796237Y-98532645D01*
X191815907Y-98518057D01*
X191836913Y-98505467D01*
X191859051Y-98494996D01*
X191882109Y-98486746D01*
X191905865Y-98480795D01*
X191930090Y-98477202D01*
X191954550Y-98476000D01*
X192855450Y-98476000D01*
X192879910Y-98477202D01*
X192879910Y-98477202D01*
G37*
D12*
X192405000Y-99051000D03*
G04 #@! TD*
D11*
G04 #@! TO.C,C22*
G36*
X121253910Y-105981202D02*
X121278135Y-105984795D01*
X121301891Y-105990746D01*
X121324949Y-105998996D01*
X121347087Y-106009467D01*
X121368093Y-106022057D01*
X121387763Y-106036645D01*
X121405908Y-106053092D01*
X121422355Y-106071237D01*
X121436943Y-106090907D01*
X121449533Y-106111913D01*
X121460004Y-106134051D01*
X121468254Y-106157109D01*
X121474205Y-106180865D01*
X121477798Y-106205090D01*
X121479000Y-106229550D01*
X121479000Y-107130450D01*
X121477798Y-107154910D01*
X121474205Y-107179135D01*
X121468254Y-107202891D01*
X121460004Y-107225949D01*
X121449533Y-107248087D01*
X121436943Y-107269093D01*
X121422355Y-107288763D01*
X121405908Y-107306908D01*
X121387763Y-107323355D01*
X121368093Y-107337943D01*
X121347087Y-107350533D01*
X121324949Y-107361004D01*
X121301891Y-107369254D01*
X121278135Y-107375205D01*
X121253910Y-107378798D01*
X121229450Y-107380000D01*
X120578550Y-107380000D01*
X120554090Y-107378798D01*
X120529865Y-107375205D01*
X120506109Y-107369254D01*
X120483051Y-107361004D01*
X120460913Y-107350533D01*
X120439907Y-107337943D01*
X120420237Y-107323355D01*
X120402092Y-107306908D01*
X120385645Y-107288763D01*
X120371057Y-107269093D01*
X120358467Y-107248087D01*
X120347996Y-107225949D01*
X120339746Y-107202891D01*
X120333795Y-107179135D01*
X120330202Y-107154910D01*
X120329000Y-107130450D01*
X120329000Y-106229550D01*
X120330202Y-106205090D01*
X120333795Y-106180865D01*
X120339746Y-106157109D01*
X120347996Y-106134051D01*
X120358467Y-106111913D01*
X120371057Y-106090907D01*
X120385645Y-106071237D01*
X120402092Y-106053092D01*
X120420237Y-106036645D01*
X120439907Y-106022057D01*
X120460913Y-106009467D01*
X120483051Y-105998996D01*
X120506109Y-105990746D01*
X120529865Y-105984795D01*
X120554090Y-105981202D01*
X120578550Y-105980000D01*
X121229450Y-105980000D01*
X121253910Y-105981202D01*
X121253910Y-105981202D01*
G37*
D12*
X120904000Y-106680000D03*
D11*
G36*
X123303910Y-105981202D02*
X123328135Y-105984795D01*
X123351891Y-105990746D01*
X123374949Y-105998996D01*
X123397087Y-106009467D01*
X123418093Y-106022057D01*
X123437763Y-106036645D01*
X123455908Y-106053092D01*
X123472355Y-106071237D01*
X123486943Y-106090907D01*
X123499533Y-106111913D01*
X123510004Y-106134051D01*
X123518254Y-106157109D01*
X123524205Y-106180865D01*
X123527798Y-106205090D01*
X123529000Y-106229550D01*
X123529000Y-107130450D01*
X123527798Y-107154910D01*
X123524205Y-107179135D01*
X123518254Y-107202891D01*
X123510004Y-107225949D01*
X123499533Y-107248087D01*
X123486943Y-107269093D01*
X123472355Y-107288763D01*
X123455908Y-107306908D01*
X123437763Y-107323355D01*
X123418093Y-107337943D01*
X123397087Y-107350533D01*
X123374949Y-107361004D01*
X123351891Y-107369254D01*
X123328135Y-107375205D01*
X123303910Y-107378798D01*
X123279450Y-107380000D01*
X122628550Y-107380000D01*
X122604090Y-107378798D01*
X122579865Y-107375205D01*
X122556109Y-107369254D01*
X122533051Y-107361004D01*
X122510913Y-107350533D01*
X122489907Y-107337943D01*
X122470237Y-107323355D01*
X122452092Y-107306908D01*
X122435645Y-107288763D01*
X122421057Y-107269093D01*
X122408467Y-107248087D01*
X122397996Y-107225949D01*
X122389746Y-107202891D01*
X122383795Y-107179135D01*
X122380202Y-107154910D01*
X122379000Y-107130450D01*
X122379000Y-106229550D01*
X122380202Y-106205090D01*
X122383795Y-106180865D01*
X122389746Y-106157109D01*
X122397996Y-106134051D01*
X122408467Y-106111913D01*
X122421057Y-106090907D01*
X122435645Y-106071237D01*
X122452092Y-106053092D01*
X122470237Y-106036645D01*
X122489907Y-106022057D01*
X122510913Y-106009467D01*
X122533051Y-105998996D01*
X122556109Y-105990746D01*
X122579865Y-105984795D01*
X122604090Y-105981202D01*
X122628550Y-105980000D01*
X123279450Y-105980000D01*
X123303910Y-105981202D01*
X123303910Y-105981202D01*
G37*
D12*
X122954000Y-106680000D03*
G04 #@! TD*
D11*
G04 #@! TO.C,C23*
G36*
X204955910Y-78676202D02*
X204980135Y-78679795D01*
X205003891Y-78685746D01*
X205026949Y-78693996D01*
X205049087Y-78704467D01*
X205070093Y-78717057D01*
X205089763Y-78731645D01*
X205107908Y-78748092D01*
X205124355Y-78766237D01*
X205138943Y-78785907D01*
X205151533Y-78806913D01*
X205162004Y-78829051D01*
X205170254Y-78852109D01*
X205176205Y-78875865D01*
X205179798Y-78900090D01*
X205181000Y-78924550D01*
X205181000Y-79825450D01*
X205179798Y-79849910D01*
X205176205Y-79874135D01*
X205170254Y-79897891D01*
X205162004Y-79920949D01*
X205151533Y-79943087D01*
X205138943Y-79964093D01*
X205124355Y-79983763D01*
X205107908Y-80001908D01*
X205089763Y-80018355D01*
X205070093Y-80032943D01*
X205049087Y-80045533D01*
X205026949Y-80056004D01*
X205003891Y-80064254D01*
X204980135Y-80070205D01*
X204955910Y-80073798D01*
X204931450Y-80075000D01*
X204280550Y-80075000D01*
X204256090Y-80073798D01*
X204231865Y-80070205D01*
X204208109Y-80064254D01*
X204185051Y-80056004D01*
X204162913Y-80045533D01*
X204141907Y-80032943D01*
X204122237Y-80018355D01*
X204104092Y-80001908D01*
X204087645Y-79983763D01*
X204073057Y-79964093D01*
X204060467Y-79943087D01*
X204049996Y-79920949D01*
X204041746Y-79897891D01*
X204035795Y-79874135D01*
X204032202Y-79849910D01*
X204031000Y-79825450D01*
X204031000Y-78924550D01*
X204032202Y-78900090D01*
X204035795Y-78875865D01*
X204041746Y-78852109D01*
X204049996Y-78829051D01*
X204060467Y-78806913D01*
X204073057Y-78785907D01*
X204087645Y-78766237D01*
X204104092Y-78748092D01*
X204122237Y-78731645D01*
X204141907Y-78717057D01*
X204162913Y-78704467D01*
X204185051Y-78693996D01*
X204208109Y-78685746D01*
X204231865Y-78679795D01*
X204256090Y-78676202D01*
X204280550Y-78675000D01*
X204931450Y-78675000D01*
X204955910Y-78676202D01*
X204955910Y-78676202D01*
G37*
D12*
X204606000Y-79375000D03*
D11*
G36*
X202905910Y-78676202D02*
X202930135Y-78679795D01*
X202953891Y-78685746D01*
X202976949Y-78693996D01*
X202999087Y-78704467D01*
X203020093Y-78717057D01*
X203039763Y-78731645D01*
X203057908Y-78748092D01*
X203074355Y-78766237D01*
X203088943Y-78785907D01*
X203101533Y-78806913D01*
X203112004Y-78829051D01*
X203120254Y-78852109D01*
X203126205Y-78875865D01*
X203129798Y-78900090D01*
X203131000Y-78924550D01*
X203131000Y-79825450D01*
X203129798Y-79849910D01*
X203126205Y-79874135D01*
X203120254Y-79897891D01*
X203112004Y-79920949D01*
X203101533Y-79943087D01*
X203088943Y-79964093D01*
X203074355Y-79983763D01*
X203057908Y-80001908D01*
X203039763Y-80018355D01*
X203020093Y-80032943D01*
X202999087Y-80045533D01*
X202976949Y-80056004D01*
X202953891Y-80064254D01*
X202930135Y-80070205D01*
X202905910Y-80073798D01*
X202881450Y-80075000D01*
X202230550Y-80075000D01*
X202206090Y-80073798D01*
X202181865Y-80070205D01*
X202158109Y-80064254D01*
X202135051Y-80056004D01*
X202112913Y-80045533D01*
X202091907Y-80032943D01*
X202072237Y-80018355D01*
X202054092Y-80001908D01*
X202037645Y-79983763D01*
X202023057Y-79964093D01*
X202010467Y-79943087D01*
X201999996Y-79920949D01*
X201991746Y-79897891D01*
X201985795Y-79874135D01*
X201982202Y-79849910D01*
X201981000Y-79825450D01*
X201981000Y-78924550D01*
X201982202Y-78900090D01*
X201985795Y-78875865D01*
X201991746Y-78852109D01*
X201999996Y-78829051D01*
X202010467Y-78806913D01*
X202023057Y-78785907D01*
X202037645Y-78766237D01*
X202054092Y-78748092D01*
X202072237Y-78731645D01*
X202091907Y-78717057D01*
X202112913Y-78704467D01*
X202135051Y-78693996D01*
X202158109Y-78685746D01*
X202181865Y-78679795D01*
X202206090Y-78676202D01*
X202230550Y-78675000D01*
X202881450Y-78675000D01*
X202905910Y-78676202D01*
X202905910Y-78676202D01*
G37*
D12*
X202556000Y-79375000D03*
G04 #@! TD*
D11*
G04 #@! TO.C,C24*
G36*
X83516910Y-54546202D02*
X83541135Y-54549795D01*
X83564891Y-54555746D01*
X83587949Y-54563996D01*
X83610087Y-54574467D01*
X83631093Y-54587057D01*
X83650763Y-54601645D01*
X83668908Y-54618092D01*
X83685355Y-54636237D01*
X83699943Y-54655907D01*
X83712533Y-54676913D01*
X83723004Y-54699051D01*
X83731254Y-54722109D01*
X83737205Y-54745865D01*
X83740798Y-54770090D01*
X83742000Y-54794550D01*
X83742000Y-55695450D01*
X83740798Y-55719910D01*
X83737205Y-55744135D01*
X83731254Y-55767891D01*
X83723004Y-55790949D01*
X83712533Y-55813087D01*
X83699943Y-55834093D01*
X83685355Y-55853763D01*
X83668908Y-55871908D01*
X83650763Y-55888355D01*
X83631093Y-55902943D01*
X83610087Y-55915533D01*
X83587949Y-55926004D01*
X83564891Y-55934254D01*
X83541135Y-55940205D01*
X83516910Y-55943798D01*
X83492450Y-55945000D01*
X82841550Y-55945000D01*
X82817090Y-55943798D01*
X82792865Y-55940205D01*
X82769109Y-55934254D01*
X82746051Y-55926004D01*
X82723913Y-55915533D01*
X82702907Y-55902943D01*
X82683237Y-55888355D01*
X82665092Y-55871908D01*
X82648645Y-55853763D01*
X82634057Y-55834093D01*
X82621467Y-55813087D01*
X82610996Y-55790949D01*
X82602746Y-55767891D01*
X82596795Y-55744135D01*
X82593202Y-55719910D01*
X82592000Y-55695450D01*
X82592000Y-54794550D01*
X82593202Y-54770090D01*
X82596795Y-54745865D01*
X82602746Y-54722109D01*
X82610996Y-54699051D01*
X82621467Y-54676913D01*
X82634057Y-54655907D01*
X82648645Y-54636237D01*
X82665092Y-54618092D01*
X82683237Y-54601645D01*
X82702907Y-54587057D01*
X82723913Y-54574467D01*
X82746051Y-54563996D01*
X82769109Y-54555746D01*
X82792865Y-54549795D01*
X82817090Y-54546202D01*
X82841550Y-54545000D01*
X83492450Y-54545000D01*
X83516910Y-54546202D01*
X83516910Y-54546202D01*
G37*
D12*
X83167000Y-55245000D03*
D11*
G36*
X85566910Y-54546202D02*
X85591135Y-54549795D01*
X85614891Y-54555746D01*
X85637949Y-54563996D01*
X85660087Y-54574467D01*
X85681093Y-54587057D01*
X85700763Y-54601645D01*
X85718908Y-54618092D01*
X85735355Y-54636237D01*
X85749943Y-54655907D01*
X85762533Y-54676913D01*
X85773004Y-54699051D01*
X85781254Y-54722109D01*
X85787205Y-54745865D01*
X85790798Y-54770090D01*
X85792000Y-54794550D01*
X85792000Y-55695450D01*
X85790798Y-55719910D01*
X85787205Y-55744135D01*
X85781254Y-55767891D01*
X85773004Y-55790949D01*
X85762533Y-55813087D01*
X85749943Y-55834093D01*
X85735355Y-55853763D01*
X85718908Y-55871908D01*
X85700763Y-55888355D01*
X85681093Y-55902943D01*
X85660087Y-55915533D01*
X85637949Y-55926004D01*
X85614891Y-55934254D01*
X85591135Y-55940205D01*
X85566910Y-55943798D01*
X85542450Y-55945000D01*
X84891550Y-55945000D01*
X84867090Y-55943798D01*
X84842865Y-55940205D01*
X84819109Y-55934254D01*
X84796051Y-55926004D01*
X84773913Y-55915533D01*
X84752907Y-55902943D01*
X84733237Y-55888355D01*
X84715092Y-55871908D01*
X84698645Y-55853763D01*
X84684057Y-55834093D01*
X84671467Y-55813087D01*
X84660996Y-55790949D01*
X84652746Y-55767891D01*
X84646795Y-55744135D01*
X84643202Y-55719910D01*
X84642000Y-55695450D01*
X84642000Y-54794550D01*
X84643202Y-54770090D01*
X84646795Y-54745865D01*
X84652746Y-54722109D01*
X84660996Y-54699051D01*
X84671467Y-54676913D01*
X84684057Y-54655907D01*
X84698645Y-54636237D01*
X84715092Y-54618092D01*
X84733237Y-54601645D01*
X84752907Y-54587057D01*
X84773913Y-54574467D01*
X84796051Y-54563996D01*
X84819109Y-54555746D01*
X84842865Y-54549795D01*
X84867090Y-54546202D01*
X84891550Y-54545000D01*
X85542450Y-54545000D01*
X85566910Y-54546202D01*
X85566910Y-54546202D01*
G37*
D12*
X85217000Y-55245000D03*
G04 #@! TD*
D11*
G04 #@! TO.C,C25*
G36*
X120990910Y-87312202D02*
X121015135Y-87315795D01*
X121038891Y-87321746D01*
X121061949Y-87329996D01*
X121084087Y-87340467D01*
X121105093Y-87353057D01*
X121124763Y-87367645D01*
X121142908Y-87384092D01*
X121159355Y-87402237D01*
X121173943Y-87421907D01*
X121186533Y-87442913D01*
X121197004Y-87465051D01*
X121205254Y-87488109D01*
X121211205Y-87511865D01*
X121214798Y-87536090D01*
X121216000Y-87560550D01*
X121216000Y-88461450D01*
X121214798Y-88485910D01*
X121211205Y-88510135D01*
X121205254Y-88533891D01*
X121197004Y-88556949D01*
X121186533Y-88579087D01*
X121173943Y-88600093D01*
X121159355Y-88619763D01*
X121142908Y-88637908D01*
X121124763Y-88654355D01*
X121105093Y-88668943D01*
X121084087Y-88681533D01*
X121061949Y-88692004D01*
X121038891Y-88700254D01*
X121015135Y-88706205D01*
X120990910Y-88709798D01*
X120966450Y-88711000D01*
X120315550Y-88711000D01*
X120291090Y-88709798D01*
X120266865Y-88706205D01*
X120243109Y-88700254D01*
X120220051Y-88692004D01*
X120197913Y-88681533D01*
X120176907Y-88668943D01*
X120157237Y-88654355D01*
X120139092Y-88637908D01*
X120122645Y-88619763D01*
X120108057Y-88600093D01*
X120095467Y-88579087D01*
X120084996Y-88556949D01*
X120076746Y-88533891D01*
X120070795Y-88510135D01*
X120067202Y-88485910D01*
X120066000Y-88461450D01*
X120066000Y-87560550D01*
X120067202Y-87536090D01*
X120070795Y-87511865D01*
X120076746Y-87488109D01*
X120084996Y-87465051D01*
X120095467Y-87442913D01*
X120108057Y-87421907D01*
X120122645Y-87402237D01*
X120139092Y-87384092D01*
X120157237Y-87367645D01*
X120176907Y-87353057D01*
X120197913Y-87340467D01*
X120220051Y-87329996D01*
X120243109Y-87321746D01*
X120266865Y-87315795D01*
X120291090Y-87312202D01*
X120315550Y-87311000D01*
X120966450Y-87311000D01*
X120990910Y-87312202D01*
X120990910Y-87312202D01*
G37*
D12*
X120641000Y-88011000D03*
D11*
G36*
X123040910Y-87312202D02*
X123065135Y-87315795D01*
X123088891Y-87321746D01*
X123111949Y-87329996D01*
X123134087Y-87340467D01*
X123155093Y-87353057D01*
X123174763Y-87367645D01*
X123192908Y-87384092D01*
X123209355Y-87402237D01*
X123223943Y-87421907D01*
X123236533Y-87442913D01*
X123247004Y-87465051D01*
X123255254Y-87488109D01*
X123261205Y-87511865D01*
X123264798Y-87536090D01*
X123266000Y-87560550D01*
X123266000Y-88461450D01*
X123264798Y-88485910D01*
X123261205Y-88510135D01*
X123255254Y-88533891D01*
X123247004Y-88556949D01*
X123236533Y-88579087D01*
X123223943Y-88600093D01*
X123209355Y-88619763D01*
X123192908Y-88637908D01*
X123174763Y-88654355D01*
X123155093Y-88668943D01*
X123134087Y-88681533D01*
X123111949Y-88692004D01*
X123088891Y-88700254D01*
X123065135Y-88706205D01*
X123040910Y-88709798D01*
X123016450Y-88711000D01*
X122365550Y-88711000D01*
X122341090Y-88709798D01*
X122316865Y-88706205D01*
X122293109Y-88700254D01*
X122270051Y-88692004D01*
X122247913Y-88681533D01*
X122226907Y-88668943D01*
X122207237Y-88654355D01*
X122189092Y-88637908D01*
X122172645Y-88619763D01*
X122158057Y-88600093D01*
X122145467Y-88579087D01*
X122134996Y-88556949D01*
X122126746Y-88533891D01*
X122120795Y-88510135D01*
X122117202Y-88485910D01*
X122116000Y-88461450D01*
X122116000Y-87560550D01*
X122117202Y-87536090D01*
X122120795Y-87511865D01*
X122126746Y-87488109D01*
X122134996Y-87465051D01*
X122145467Y-87442913D01*
X122158057Y-87421907D01*
X122172645Y-87402237D01*
X122189092Y-87384092D01*
X122207237Y-87367645D01*
X122226907Y-87353057D01*
X122247913Y-87340467D01*
X122270051Y-87329996D01*
X122293109Y-87321746D01*
X122316865Y-87315795D01*
X122341090Y-87312202D01*
X122365550Y-87311000D01*
X123016450Y-87311000D01*
X123040910Y-87312202D01*
X123040910Y-87312202D01*
G37*
D12*
X122691000Y-88011000D03*
G04 #@! TD*
D11*
G04 #@! TO.C,C26*
G36*
X205209910Y-59245202D02*
X205234135Y-59248795D01*
X205257891Y-59254746D01*
X205280949Y-59262996D01*
X205303087Y-59273467D01*
X205324093Y-59286057D01*
X205343763Y-59300645D01*
X205361908Y-59317092D01*
X205378355Y-59335237D01*
X205392943Y-59354907D01*
X205405533Y-59375913D01*
X205416004Y-59398051D01*
X205424254Y-59421109D01*
X205430205Y-59444865D01*
X205433798Y-59469090D01*
X205435000Y-59493550D01*
X205435000Y-60394450D01*
X205433798Y-60418910D01*
X205430205Y-60443135D01*
X205424254Y-60466891D01*
X205416004Y-60489949D01*
X205405533Y-60512087D01*
X205392943Y-60533093D01*
X205378355Y-60552763D01*
X205361908Y-60570908D01*
X205343763Y-60587355D01*
X205324093Y-60601943D01*
X205303087Y-60614533D01*
X205280949Y-60625004D01*
X205257891Y-60633254D01*
X205234135Y-60639205D01*
X205209910Y-60642798D01*
X205185450Y-60644000D01*
X204534550Y-60644000D01*
X204510090Y-60642798D01*
X204485865Y-60639205D01*
X204462109Y-60633254D01*
X204439051Y-60625004D01*
X204416913Y-60614533D01*
X204395907Y-60601943D01*
X204376237Y-60587355D01*
X204358092Y-60570908D01*
X204341645Y-60552763D01*
X204327057Y-60533093D01*
X204314467Y-60512087D01*
X204303996Y-60489949D01*
X204295746Y-60466891D01*
X204289795Y-60443135D01*
X204286202Y-60418910D01*
X204285000Y-60394450D01*
X204285000Y-59493550D01*
X204286202Y-59469090D01*
X204289795Y-59444865D01*
X204295746Y-59421109D01*
X204303996Y-59398051D01*
X204314467Y-59375913D01*
X204327057Y-59354907D01*
X204341645Y-59335237D01*
X204358092Y-59317092D01*
X204376237Y-59300645D01*
X204395907Y-59286057D01*
X204416913Y-59273467D01*
X204439051Y-59262996D01*
X204462109Y-59254746D01*
X204485865Y-59248795D01*
X204510090Y-59245202D01*
X204534550Y-59244000D01*
X205185450Y-59244000D01*
X205209910Y-59245202D01*
X205209910Y-59245202D01*
G37*
D12*
X204860000Y-59944000D03*
D11*
G36*
X203159910Y-59245202D02*
X203184135Y-59248795D01*
X203207891Y-59254746D01*
X203230949Y-59262996D01*
X203253087Y-59273467D01*
X203274093Y-59286057D01*
X203293763Y-59300645D01*
X203311908Y-59317092D01*
X203328355Y-59335237D01*
X203342943Y-59354907D01*
X203355533Y-59375913D01*
X203366004Y-59398051D01*
X203374254Y-59421109D01*
X203380205Y-59444865D01*
X203383798Y-59469090D01*
X203385000Y-59493550D01*
X203385000Y-60394450D01*
X203383798Y-60418910D01*
X203380205Y-60443135D01*
X203374254Y-60466891D01*
X203366004Y-60489949D01*
X203355533Y-60512087D01*
X203342943Y-60533093D01*
X203328355Y-60552763D01*
X203311908Y-60570908D01*
X203293763Y-60587355D01*
X203274093Y-60601943D01*
X203253087Y-60614533D01*
X203230949Y-60625004D01*
X203207891Y-60633254D01*
X203184135Y-60639205D01*
X203159910Y-60642798D01*
X203135450Y-60644000D01*
X202484550Y-60644000D01*
X202460090Y-60642798D01*
X202435865Y-60639205D01*
X202412109Y-60633254D01*
X202389051Y-60625004D01*
X202366913Y-60614533D01*
X202345907Y-60601943D01*
X202326237Y-60587355D01*
X202308092Y-60570908D01*
X202291645Y-60552763D01*
X202277057Y-60533093D01*
X202264467Y-60512087D01*
X202253996Y-60489949D01*
X202245746Y-60466891D01*
X202239795Y-60443135D01*
X202236202Y-60418910D01*
X202235000Y-60394450D01*
X202235000Y-59493550D01*
X202236202Y-59469090D01*
X202239795Y-59444865D01*
X202245746Y-59421109D01*
X202253996Y-59398051D01*
X202264467Y-59375913D01*
X202277057Y-59354907D01*
X202291645Y-59335237D01*
X202308092Y-59317092D01*
X202326237Y-59300645D01*
X202345907Y-59286057D01*
X202366913Y-59273467D01*
X202389051Y-59262996D01*
X202412109Y-59254746D01*
X202435865Y-59248795D01*
X202460090Y-59245202D01*
X202484550Y-59244000D01*
X203135450Y-59244000D01*
X203159910Y-59245202D01*
X203159910Y-59245202D01*
G37*
D12*
X202810000Y-59944000D03*
G04 #@! TD*
D11*
G04 #@! TO.C,C27*
G36*
X102702910Y-109537202D02*
X102727135Y-109540795D01*
X102750891Y-109546746D01*
X102773949Y-109554996D01*
X102796087Y-109565467D01*
X102817093Y-109578057D01*
X102836763Y-109592645D01*
X102854908Y-109609092D01*
X102871355Y-109627237D01*
X102885943Y-109646907D01*
X102898533Y-109667913D01*
X102909004Y-109690051D01*
X102917254Y-109713109D01*
X102923205Y-109736865D01*
X102926798Y-109761090D01*
X102928000Y-109785550D01*
X102928000Y-110686450D01*
X102926798Y-110710910D01*
X102923205Y-110735135D01*
X102917254Y-110758891D01*
X102909004Y-110781949D01*
X102898533Y-110804087D01*
X102885943Y-110825093D01*
X102871355Y-110844763D01*
X102854908Y-110862908D01*
X102836763Y-110879355D01*
X102817093Y-110893943D01*
X102796087Y-110906533D01*
X102773949Y-110917004D01*
X102750891Y-110925254D01*
X102727135Y-110931205D01*
X102702910Y-110934798D01*
X102678450Y-110936000D01*
X102027550Y-110936000D01*
X102003090Y-110934798D01*
X101978865Y-110931205D01*
X101955109Y-110925254D01*
X101932051Y-110917004D01*
X101909913Y-110906533D01*
X101888907Y-110893943D01*
X101869237Y-110879355D01*
X101851092Y-110862908D01*
X101834645Y-110844763D01*
X101820057Y-110825093D01*
X101807467Y-110804087D01*
X101796996Y-110781949D01*
X101788746Y-110758891D01*
X101782795Y-110735135D01*
X101779202Y-110710910D01*
X101778000Y-110686450D01*
X101778000Y-109785550D01*
X101779202Y-109761090D01*
X101782795Y-109736865D01*
X101788746Y-109713109D01*
X101796996Y-109690051D01*
X101807467Y-109667913D01*
X101820057Y-109646907D01*
X101834645Y-109627237D01*
X101851092Y-109609092D01*
X101869237Y-109592645D01*
X101888907Y-109578057D01*
X101909913Y-109565467D01*
X101932051Y-109554996D01*
X101955109Y-109546746D01*
X101978865Y-109540795D01*
X102003090Y-109537202D01*
X102027550Y-109536000D01*
X102678450Y-109536000D01*
X102702910Y-109537202D01*
X102702910Y-109537202D01*
G37*
D12*
X102353000Y-110236000D03*
D11*
G36*
X104752910Y-109537202D02*
X104777135Y-109540795D01*
X104800891Y-109546746D01*
X104823949Y-109554996D01*
X104846087Y-109565467D01*
X104867093Y-109578057D01*
X104886763Y-109592645D01*
X104904908Y-109609092D01*
X104921355Y-109627237D01*
X104935943Y-109646907D01*
X104948533Y-109667913D01*
X104959004Y-109690051D01*
X104967254Y-109713109D01*
X104973205Y-109736865D01*
X104976798Y-109761090D01*
X104978000Y-109785550D01*
X104978000Y-110686450D01*
X104976798Y-110710910D01*
X104973205Y-110735135D01*
X104967254Y-110758891D01*
X104959004Y-110781949D01*
X104948533Y-110804087D01*
X104935943Y-110825093D01*
X104921355Y-110844763D01*
X104904908Y-110862908D01*
X104886763Y-110879355D01*
X104867093Y-110893943D01*
X104846087Y-110906533D01*
X104823949Y-110917004D01*
X104800891Y-110925254D01*
X104777135Y-110931205D01*
X104752910Y-110934798D01*
X104728450Y-110936000D01*
X104077550Y-110936000D01*
X104053090Y-110934798D01*
X104028865Y-110931205D01*
X104005109Y-110925254D01*
X103982051Y-110917004D01*
X103959913Y-110906533D01*
X103938907Y-110893943D01*
X103919237Y-110879355D01*
X103901092Y-110862908D01*
X103884645Y-110844763D01*
X103870057Y-110825093D01*
X103857467Y-110804087D01*
X103846996Y-110781949D01*
X103838746Y-110758891D01*
X103832795Y-110735135D01*
X103829202Y-110710910D01*
X103828000Y-110686450D01*
X103828000Y-109785550D01*
X103829202Y-109761090D01*
X103832795Y-109736865D01*
X103838746Y-109713109D01*
X103846996Y-109690051D01*
X103857467Y-109667913D01*
X103870057Y-109646907D01*
X103884645Y-109627237D01*
X103901092Y-109609092D01*
X103919237Y-109592645D01*
X103938907Y-109578057D01*
X103959913Y-109565467D01*
X103982051Y-109554996D01*
X104005109Y-109546746D01*
X104028865Y-109540795D01*
X104053090Y-109537202D01*
X104077550Y-109536000D01*
X104728450Y-109536000D01*
X104752910Y-109537202D01*
X104752910Y-109537202D01*
G37*
D12*
X104403000Y-110236000D03*
G04 #@! TD*
D15*
G04 #@! TO.C,D1*
X93345000Y-63120000D03*
X93345000Y-66420000D03*
G04 #@! TD*
G04 #@! TO.C,D2*
X93980000Y-82170000D03*
X93980000Y-85470000D03*
G04 #@! TD*
G04 #@! TO.C,D3*
X93980000Y-101220000D03*
X93980000Y-104520000D03*
G04 #@! TD*
G04 #@! TO.C,D4*
X93345000Y-119965000D03*
X93345000Y-123265000D03*
G04 #@! TD*
G04 #@! TO.C,D5*
X113030000Y-60580000D03*
X113030000Y-63880000D03*
G04 #@! TD*
G04 #@! TO.C,D6*
X113030000Y-80105000D03*
X113030000Y-83405000D03*
G04 #@! TD*
G04 #@! TO.C,D7*
X113030000Y-98985000D03*
X113030000Y-102285000D03*
G04 #@! TD*
G04 #@! TO.C,D8*
X113030000Y-117730000D03*
X113030000Y-121030000D03*
G04 #@! TD*
G04 #@! TO.C,D9*
X130810000Y-58370000D03*
X130810000Y-61670000D03*
G04 #@! TD*
G04 #@! TO.C,D10*
X131445000Y-82170000D03*
X131445000Y-85470000D03*
G04 #@! TD*
G04 #@! TO.C,D11*
X132080000Y-96140000D03*
X132080000Y-99440000D03*
G04 #@! TD*
G04 #@! TO.C,D12*
X132080000Y-115495000D03*
X132080000Y-118795000D03*
G04 #@! TD*
G04 #@! TO.C,D13*
X152400000Y-58585000D03*
X152400000Y-61885000D03*
G04 #@! TD*
G04 #@! TO.C,D14*
X151130000Y-82170000D03*
X151130000Y-85470000D03*
G04 #@! TD*
G04 #@! TO.C,D15*
X151130000Y-94235000D03*
X151130000Y-97535000D03*
G04 #@! TD*
G04 #@! TO.C,D16*
X151130000Y-112955000D03*
X151130000Y-116255000D03*
G04 #@! TD*
G04 #@! TO.C,D17*
X170180000Y-58345000D03*
X170180000Y-61645000D03*
G04 #@! TD*
G04 #@! TO.C,D18*
X170180000Y-77725000D03*
X170180000Y-81025000D03*
G04 #@! TD*
G04 #@! TO.C,D19*
X170180000Y-96230000D03*
X170180000Y-99530000D03*
G04 #@! TD*
G04 #@! TO.C,D20*
X179070000Y-114465000D03*
X179070000Y-117765000D03*
G04 #@! TD*
G04 #@! TO.C,D21*
X189230000Y-60740000D03*
X189230000Y-64040000D03*
G04 #@! TD*
G04 #@! TO.C,D22*
X189230000Y-79630000D03*
X189230000Y-82930000D03*
G04 #@! TD*
G04 #@! TO.C,D23*
X189230000Y-97885000D03*
X189230000Y-101185000D03*
G04 #@! TD*
G04 #@! TO.C,D24*
X182880000Y-114250000D03*
X182880000Y-117550000D03*
G04 #@! TD*
D16*
G04 #@! TO.C,D25*
X201200000Y-76200000D03*
X197900000Y-76200000D03*
G04 #@! TD*
G04 #@! TO.C,D26*
X202400000Y-93980000D03*
X199100000Y-93980000D03*
G04 #@! TD*
G04 #@! TO.C,D27*
X202310000Y-96520000D03*
X199010000Y-96520000D03*
G04 #@! TD*
D15*
G04 #@! TO.C,D28*
X154940000Y-112979999D03*
X154940000Y-116279999D03*
G04 #@! TD*
D17*
G04 #@! TO.C,D29*
X84905000Y-58859000D03*
X84905000Y-59759000D03*
X84005000Y-59759000D03*
X84005000Y-58859000D03*
G04 #@! TD*
G04 #@! TO.C,D30*
X84905000Y-77909000D03*
X84905000Y-78809000D03*
X84005000Y-78809000D03*
X84005000Y-77909000D03*
G04 #@! TD*
G04 #@! TO.C,D31*
X84778000Y-96959000D03*
X84778000Y-97859000D03*
X83878000Y-97859000D03*
X83878000Y-96959000D03*
G04 #@! TD*
G04 #@! TO.C,D32*
X84778000Y-115882000D03*
X84778000Y-116782000D03*
X83878000Y-116782000D03*
X83878000Y-115882000D03*
G04 #@! TD*
G04 #@! TO.C,D33*
X104082000Y-56446000D03*
X104082000Y-57346000D03*
X103182000Y-57346000D03*
X103182000Y-56446000D03*
G04 #@! TD*
G04 #@! TO.C,D34*
X103955000Y-75496000D03*
X103955000Y-76396000D03*
X103055000Y-76396000D03*
X103055000Y-75496000D03*
G04 #@! TD*
G04 #@! TO.C,D35*
X103955000Y-94419000D03*
X103955000Y-95319000D03*
X103055000Y-95319000D03*
X103055000Y-94419000D03*
G04 #@! TD*
G04 #@! TO.C,D36*
X103955000Y-113596000D03*
X103955000Y-114496000D03*
X103055000Y-114496000D03*
X103055000Y-113596000D03*
G04 #@! TD*
G04 #@! TO.C,D37*
X123005000Y-53906000D03*
X123005000Y-54806000D03*
X122105000Y-54806000D03*
X122105000Y-53906000D03*
G04 #@! TD*
G04 #@! TO.C,D38*
X123005000Y-73210000D03*
X123005000Y-74110000D03*
X122105000Y-74110000D03*
X122105000Y-73210000D03*
G04 #@! TD*
G04 #@! TO.C,D39*
X122878000Y-92133000D03*
X122878000Y-93033000D03*
X121978000Y-93033000D03*
X121978000Y-92133000D03*
G04 #@! TD*
G04 #@! TO.C,D40*
X123005000Y-111310000D03*
X123005000Y-112210000D03*
X122105000Y-112210000D03*
X122105000Y-111310000D03*
G04 #@! TD*
G04 #@! TO.C,D41*
X142182000Y-51620000D03*
X142182000Y-52520000D03*
X141282000Y-52520000D03*
X141282000Y-51620000D03*
G04 #@! TD*
G04 #@! TO.C,D42*
X142055000Y-70670000D03*
X142055000Y-71570000D03*
X141155000Y-71570000D03*
X141155000Y-70670000D03*
G04 #@! TD*
G04 #@! TO.C,D43*
X142055000Y-89847000D03*
X142055000Y-90747000D03*
X141155000Y-90747000D03*
X141155000Y-89847000D03*
G04 #@! TD*
G04 #@! TO.C,D44*
X142055000Y-108897000D03*
X142055000Y-109797000D03*
X141155000Y-109797000D03*
X141155000Y-108897000D03*
G04 #@! TD*
G04 #@! TO.C,D45*
X161105000Y-54033000D03*
X161105000Y-54933000D03*
X160205000Y-54933000D03*
X160205000Y-54033000D03*
G04 #@! TD*
G04 #@! TO.C,D46*
X161105000Y-73083000D03*
X161105000Y-73983000D03*
X160205000Y-73983000D03*
X160205000Y-73083000D03*
G04 #@! TD*
G04 #@! TO.C,D47*
X161163000Y-92191000D03*
X161163000Y-93091000D03*
X160263000Y-93091000D03*
X160263000Y-92191000D03*
G04 #@! TD*
D18*
G04 #@! TO.C,D48*
X168669305Y-113426978D03*
D11*
G36*
X168958919Y-113224188D02*
X168872095Y-113716592D01*
X168379691Y-113629768D01*
X168466515Y-113137364D01*
X168958919Y-113224188D01*
X168958919Y-113224188D01*
G37*
D18*
X168513022Y-114313305D03*
D11*
G36*
X168802636Y-114110515D02*
X168715812Y-114602919D01*
X168223408Y-114516095D01*
X168310232Y-114023691D01*
X168802636Y-114110515D01*
X168802636Y-114110515D01*
G37*
D18*
X167626695Y-114157022D03*
D11*
G36*
X167916309Y-113954232D02*
X167829485Y-114446636D01*
X167337081Y-114359812D01*
X167423905Y-113867408D01*
X167916309Y-113954232D01*
X167916309Y-113954232D01*
G37*
D18*
X167782978Y-113270695D03*
D11*
G36*
X168072592Y-113067905D02*
X167985768Y-113560309D01*
X167493364Y-113473485D01*
X167580188Y-112981081D01*
X168072592Y-113067905D01*
X168072592Y-113067905D01*
G37*
G04 #@! TD*
D17*
G04 #@! TO.C,D49*
X180155000Y-56446000D03*
X180155000Y-57346000D03*
X179255000Y-57346000D03*
X179255000Y-56446000D03*
G04 #@! TD*
G04 #@! TO.C,D50*
X180213000Y-75554000D03*
X180213000Y-76454000D03*
X179313000Y-76454000D03*
X179313000Y-75554000D03*
G04 #@! TD*
G04 #@! TO.C,D51*
X180155000Y-94546000D03*
X180155000Y-95446000D03*
X179255000Y-95446000D03*
X179255000Y-94546000D03*
G04 #@! TD*
D18*
G04 #@! TO.C,D52*
X186017289Y-123210289D03*
D11*
G36*
X185925783Y-122868783D02*
X186358795Y-123118783D01*
X186108795Y-123551795D01*
X185675783Y-123301795D01*
X185925783Y-122868783D01*
X185925783Y-122868783D01*
G37*
D18*
X186796711Y-123660289D03*
D11*
G36*
X186705205Y-123318783D02*
X187138217Y-123568783D01*
X186888217Y-124001795D01*
X186455205Y-123751795D01*
X186705205Y-123318783D01*
X186705205Y-123318783D01*
G37*
D18*
X186346711Y-124439711D03*
D11*
G36*
X186255205Y-124098205D02*
X186688217Y-124348205D01*
X186438217Y-124781217D01*
X186005205Y-124531217D01*
X186255205Y-124098205D01*
X186255205Y-124098205D01*
G37*
D18*
X185567289Y-123989711D03*
D11*
G36*
X185475783Y-123648205D02*
X185908795Y-123898205D01*
X185658795Y-124331217D01*
X185225783Y-124081217D01*
X185475783Y-123648205D01*
X185475783Y-123648205D01*
G37*
G04 #@! TD*
D17*
G04 #@! TO.C,D53*
X199205000Y-61145000D03*
X199205000Y-62045000D03*
X198305000Y-62045000D03*
X198305000Y-61145000D03*
G04 #@! TD*
G04 #@! TO.C,D54*
X199205000Y-80195000D03*
X199205000Y-81095000D03*
X198305000Y-81095000D03*
X198305000Y-80195000D03*
G04 #@! TD*
D18*
G04 #@! TO.C,D55*
X195796289Y-106700289D03*
D11*
G36*
X195704783Y-106358783D02*
X196137795Y-106608783D01*
X195887795Y-107041795D01*
X195454783Y-106791795D01*
X195704783Y-106358783D01*
X195704783Y-106358783D01*
G37*
D18*
X196575711Y-107150289D03*
D11*
G36*
X196484205Y-106808783D02*
X196917217Y-107058783D01*
X196667217Y-107491795D01*
X196234205Y-107241795D01*
X196484205Y-106808783D01*
X196484205Y-106808783D01*
G37*
D18*
X196125711Y-107929711D03*
D11*
G36*
X196034205Y-107588205D02*
X196467217Y-107838205D01*
X196217217Y-108271217D01*
X195784205Y-108021217D01*
X196034205Y-107588205D01*
X196034205Y-107588205D01*
G37*
D18*
X195346289Y-107479711D03*
D11*
G36*
X195254783Y-107138205D02*
X195687795Y-107388205D01*
X195437795Y-107821217D01*
X195004783Y-107571217D01*
X195254783Y-107138205D01*
X195254783Y-107138205D01*
G37*
G04 #@! TD*
G04 #@! TO.C,R9*
G36*
X90011505Y-53022204D02*
X90035773Y-53025804D01*
X90059572Y-53031765D01*
X90082671Y-53040030D01*
X90104850Y-53050520D01*
X90125893Y-53063132D01*
X90145599Y-53077747D01*
X90163777Y-53094223D01*
X90180253Y-53112401D01*
X90194868Y-53132107D01*
X90207480Y-53153150D01*
X90217970Y-53175329D01*
X90226235Y-53198428D01*
X90232196Y-53222227D01*
X90235796Y-53246495D01*
X90237000Y-53270999D01*
X90237000Y-54171001D01*
X90235796Y-54195505D01*
X90232196Y-54219773D01*
X90226235Y-54243572D01*
X90217970Y-54266671D01*
X90207480Y-54288850D01*
X90194868Y-54309893D01*
X90180253Y-54329599D01*
X90163777Y-54347777D01*
X90145599Y-54364253D01*
X90125893Y-54378868D01*
X90104850Y-54391480D01*
X90082671Y-54401970D01*
X90059572Y-54410235D01*
X90035773Y-54416196D01*
X90011505Y-54419796D01*
X89987001Y-54421000D01*
X89336999Y-54421000D01*
X89312495Y-54419796D01*
X89288227Y-54416196D01*
X89264428Y-54410235D01*
X89241329Y-54401970D01*
X89219150Y-54391480D01*
X89198107Y-54378868D01*
X89178401Y-54364253D01*
X89160223Y-54347777D01*
X89143747Y-54329599D01*
X89129132Y-54309893D01*
X89116520Y-54288850D01*
X89106030Y-54266671D01*
X89097765Y-54243572D01*
X89091804Y-54219773D01*
X89088204Y-54195505D01*
X89087000Y-54171001D01*
X89087000Y-53270999D01*
X89088204Y-53246495D01*
X89091804Y-53222227D01*
X89097765Y-53198428D01*
X89106030Y-53175329D01*
X89116520Y-53153150D01*
X89129132Y-53132107D01*
X89143747Y-53112401D01*
X89160223Y-53094223D01*
X89178401Y-53077747D01*
X89198107Y-53063132D01*
X89219150Y-53050520D01*
X89241329Y-53040030D01*
X89264428Y-53031765D01*
X89288227Y-53025804D01*
X89312495Y-53022204D01*
X89336999Y-53021000D01*
X89987001Y-53021000D01*
X90011505Y-53022204D01*
X90011505Y-53022204D01*
G37*
D12*
X89662000Y-53721000D03*
D11*
G36*
X87961505Y-53022204D02*
X87985773Y-53025804D01*
X88009572Y-53031765D01*
X88032671Y-53040030D01*
X88054850Y-53050520D01*
X88075893Y-53063132D01*
X88095599Y-53077747D01*
X88113777Y-53094223D01*
X88130253Y-53112401D01*
X88144868Y-53132107D01*
X88157480Y-53153150D01*
X88167970Y-53175329D01*
X88176235Y-53198428D01*
X88182196Y-53222227D01*
X88185796Y-53246495D01*
X88187000Y-53270999D01*
X88187000Y-54171001D01*
X88185796Y-54195505D01*
X88182196Y-54219773D01*
X88176235Y-54243572D01*
X88167970Y-54266671D01*
X88157480Y-54288850D01*
X88144868Y-54309893D01*
X88130253Y-54329599D01*
X88113777Y-54347777D01*
X88095599Y-54364253D01*
X88075893Y-54378868D01*
X88054850Y-54391480D01*
X88032671Y-54401970D01*
X88009572Y-54410235D01*
X87985773Y-54416196D01*
X87961505Y-54419796D01*
X87937001Y-54421000D01*
X87286999Y-54421000D01*
X87262495Y-54419796D01*
X87238227Y-54416196D01*
X87214428Y-54410235D01*
X87191329Y-54401970D01*
X87169150Y-54391480D01*
X87148107Y-54378868D01*
X87128401Y-54364253D01*
X87110223Y-54347777D01*
X87093747Y-54329599D01*
X87079132Y-54309893D01*
X87066520Y-54288850D01*
X87056030Y-54266671D01*
X87047765Y-54243572D01*
X87041804Y-54219773D01*
X87038204Y-54195505D01*
X87037000Y-54171001D01*
X87037000Y-53270999D01*
X87038204Y-53246495D01*
X87041804Y-53222227D01*
X87047765Y-53198428D01*
X87056030Y-53175329D01*
X87066520Y-53153150D01*
X87079132Y-53132107D01*
X87093747Y-53112401D01*
X87110223Y-53094223D01*
X87128401Y-53077747D01*
X87148107Y-53063132D01*
X87169150Y-53050520D01*
X87191329Y-53040030D01*
X87214428Y-53031765D01*
X87238227Y-53025804D01*
X87262495Y-53022204D01*
X87286999Y-53021000D01*
X87937001Y-53021000D01*
X87961505Y-53022204D01*
X87961505Y-53022204D01*
G37*
D12*
X87612000Y-53721000D03*
G04 #@! TD*
D19*
G04 #@! TO.C,J2*
X195575000Y-49250000D03*
X196675000Y-55750000D03*
X200675000Y-55750000D03*
X203675000Y-55750000D03*
G04 #@! TD*
M02*
