M48
;DRILL file {KiCad (5.0.0)} date 11/12/19 20:48:14
;FORMAT={-:-/ absolute / inch / decimal}
FMAT,2
INCH,TZ
T1C0.0354
T2C0.0472
T3C0.0591
T4C0.0669
T5C0.0866
T6C0.1339
%
G90
G05
M72
T1
X4.7374Y-1.8983
X4.8555Y-1.8983
X4.7374Y-1.8983
X4.8555Y-1.8983
T2
X3.1183Y-4.6024
X3.5293Y-4.6024
X4.6185Y-2.1623
X5.0295Y-2.1623
X7.6204Y-2.4446
X8.0314Y-2.4446
X3.1183Y-3.8546
X3.5293Y-3.8546
X6.8687Y-3.7585
X7.2798Y-3.7585
X3.1183Y-3.1045
X3.5293Y-3.1045
X3.8707Y-2.2607
X4.2818Y-2.2607
X4.6185Y-2.917
X5.0295Y-2.917
X7.6188Y-3.196
X8.0298Y-3.196
X3.8707Y-3.0131
X4.2818Y-3.0131
X4.6201Y-4.4172
X5.0311Y-4.4172
X6.4107Y-4.4637
X6.8154Y-4.5351
X3.8707Y-3.7585
X4.2818Y-3.7585
X5.3709Y-3.5734
X5.7819Y-3.5734
X6.8687Y-2.2584
X7.2798Y-2.2584
X4.6161Y-3.6648
X5.0272Y-3.6648
X5.3686Y-4.3234
X5.7796Y-4.3234
X6.8711Y-3.0108
X7.2821Y-3.0108
X7.2502Y-5.0646
X7.4557Y-4.7087
X5.3701Y-2.8209
X5.7812Y-2.8209
X6.1186Y-2.1646
X6.5297Y-2.1646
X7.6268Y-4.4132
X7.8323Y-4.0573
X3.1191Y-2.3521
X3.5301Y-2.3521
X3.8684Y-4.511
X4.2794Y-4.511
X6.1186Y-3.6648
X6.5297Y-3.6648
X5.3717Y-2.0708
X5.7827Y-2.0708
X6.1186Y-2.917
X6.5297Y-2.917
T3
X7.8061Y-2.0669
X8.0817Y-2.0669
X7.8061Y-2.0669
X8.0817Y-2.0669
T4
X3.8597Y-3.1785
X4.2928Y-3.1785
X4.609Y-4.5826
X5.0421Y-4.5826
X6.3711Y-4.6246
X6.7976Y-4.6998
X3.8597Y-3.9239
X4.2928Y-3.9239
X5.3599Y-3.7387
X5.7929Y-3.7387
X6.8577Y-2.4237
X7.2908Y-2.4237
X4.6051Y-3.8301
X5.0382Y-3.8301
X5.3575Y-4.4888
X5.7906Y-4.4888
X6.86Y-3.1761
X7.2931Y-3.1761
X7.3879Y-5.1568
X7.6044Y-4.7818
X5.3591Y-2.9863
X5.7922Y-2.9863
X6.1076Y-2.33
X6.5407Y-2.33
X7.7645Y-4.5055
X7.981Y-4.1304
X3.108Y-2.5175
X3.5411Y-2.5175
X3.8574Y-4.6763
X4.2904Y-4.6763
X6.1076Y-3.8301
X6.5407Y-3.8301
X5.3606Y-2.2362
X5.7937Y-2.2362
X6.1076Y-3.0824
X6.5407Y-3.0824
X3.1073Y-4.7677
X3.5403Y-4.7677
X4.6074Y-2.3276
X5.0405Y-2.3276
X7.6094Y-2.61
X8.0424Y-2.61
X3.1073Y-4.02
X3.5403Y-4.02
X6.8577Y-3.9239
X7.2908Y-3.9239
X3.1073Y-3.2699
X3.5403Y-3.2699
X3.8597Y-2.4261
X4.2928Y-2.4261
X4.6074Y-3.0824
X5.0405Y-3.0824
X7.6078Y-3.3613
X8.0409Y-3.3613
T5
X3.6992Y-4.3445
X5.0591Y-4.2067
X6.0988Y-4.2067
X6.0988Y-2.7067
X5.0591Y-2.7067
X7.275Y-4.3
X7.4508Y-2.8406
X3.6992Y-2.8406
T6
X3.3238Y-3.2699
X4.0762Y-2.4261
X4.824Y-3.0824
X7.8243Y-3.3613
X4.0762Y-3.1785
X4.8256Y-4.5826
X6.5843Y-4.6622
X4.0762Y-3.9239
X5.5764Y-3.7387
X7.0742Y-2.4237
X4.8216Y-3.8301
X5.5741Y-4.4888
X7.0766Y-3.1761
X7.4962Y-4.9693
X5.5757Y-2.9863
X6.3242Y-2.33
X7.8728Y-4.3179
X3.3246Y-2.5175
X4.0739Y-4.6763
X6.3242Y-3.8301
X5.5772Y-2.2362
X6.3242Y-3.0824
X3.3238Y-4.7677
X4.824Y-2.3276
X7.8259Y-2.61
X3.3238Y-4.02
X7.0742Y-3.9239
T0
M30
