G04 #@! TF.GenerationSoftware,KiCad,Pcbnew,(5.0.0)*
G04 #@! TF.CreationDate,2019-11-12T20:48:11-06:00*
G04 #@! TF.ProjectId,ErgoTravel,4572676F54726176656C2E6B69636164,rev?*
G04 #@! TF.SameCoordinates,Original*
G04 #@! TF.FileFunction,Legend,Bot*
G04 #@! TF.FilePolarity,Positive*
%FSLAX46Y46*%
G04 Gerber Fmt 4.6, Leading zero omitted, Abs format (unit mm)*
G04 Created by KiCad (PCBNEW (5.0.0)) date 11/12/19 20:48:11*
%MOMM*%
%LPD*%
G01*
G04 APERTURE LIST*
%ADD10C,0.100000*%
%ADD11C,0.250000*%
%ADD12C,0.150000*%
%ADD13C,0.200000*%
%ADD14C,0.120000*%
%ADD15C,0.381000*%
G04 APERTURE END LIST*
D10*
X89652571Y-57247285D02*
X89402571Y-57997285D01*
X89152571Y-57247285D01*
X88474000Y-57925857D02*
X88509714Y-57961571D01*
X88616857Y-57997285D01*
X88688285Y-57997285D01*
X88795428Y-57961571D01*
X88866857Y-57890142D01*
X88902571Y-57818714D01*
X88938285Y-57675857D01*
X88938285Y-57568714D01*
X88902571Y-57425857D01*
X88866857Y-57354428D01*
X88795428Y-57283000D01*
X88688285Y-57247285D01*
X88616857Y-57247285D01*
X88509714Y-57283000D01*
X88474000Y-57318714D01*
X87724000Y-57925857D02*
X87759714Y-57961571D01*
X87866857Y-57997285D01*
X87938285Y-57997285D01*
X88045428Y-57961571D01*
X88116857Y-57890142D01*
X88152571Y-57818714D01*
X88188285Y-57675857D01*
X88188285Y-57568714D01*
X88152571Y-57425857D01*
X88116857Y-57354428D01*
X88045428Y-57283000D01*
X87938285Y-57247285D01*
X87866857Y-57247285D01*
X87759714Y-57283000D01*
X87724000Y-57318714D01*
D11*
X171949666Y-52395380D02*
X172425857Y-52395380D01*
X172425857Y-51395380D01*
X171473476Y-52395380D02*
X171568714Y-52347761D01*
X171616333Y-52300142D01*
X171663952Y-52204904D01*
X171663952Y-51919190D01*
X171616333Y-51823952D01*
X171568714Y-51776333D01*
X171473476Y-51728714D01*
X171330619Y-51728714D01*
X171235380Y-51776333D01*
X171187761Y-51823952D01*
X171140142Y-51919190D01*
X171140142Y-52204904D01*
X171187761Y-52300142D01*
X171235380Y-52347761D01*
X171330619Y-52395380D01*
X171473476Y-52395380D01*
X170283000Y-52347761D02*
X170378238Y-52395380D01*
X170568714Y-52395380D01*
X170663952Y-52347761D01*
X170711571Y-52300142D01*
X170759190Y-52204904D01*
X170759190Y-51919190D01*
X170711571Y-51823952D01*
X170663952Y-51776333D01*
X170568714Y-51728714D01*
X170378238Y-51728714D01*
X170283000Y-51776333D01*
X169425857Y-52395380D02*
X169425857Y-51871571D01*
X169473476Y-51776333D01*
X169568714Y-51728714D01*
X169759190Y-51728714D01*
X169854428Y-51776333D01*
X169425857Y-52347761D02*
X169521095Y-52395380D01*
X169759190Y-52395380D01*
X169854428Y-52347761D01*
X169902047Y-52252523D01*
X169902047Y-52157285D01*
X169854428Y-52062047D01*
X169759190Y-52014428D01*
X169521095Y-52014428D01*
X169425857Y-51966809D01*
X168806809Y-52395380D02*
X168902047Y-52347761D01*
X168949666Y-52252523D01*
X168949666Y-51395380D01*
X167092523Y-52395380D02*
X167425857Y-51919190D01*
X167663952Y-52395380D02*
X167663952Y-51395380D01*
X167283000Y-51395380D01*
X167187761Y-51443000D01*
X167140142Y-51490619D01*
X167092523Y-51585857D01*
X167092523Y-51728714D01*
X167140142Y-51823952D01*
X167187761Y-51871571D01*
X167283000Y-51919190D01*
X167663952Y-51919190D01*
X166140142Y-51443000D02*
X166235380Y-51395380D01*
X166378238Y-51395380D01*
X166521095Y-51443000D01*
X166616333Y-51538238D01*
X166663952Y-51633476D01*
X166711571Y-51823952D01*
X166711571Y-51966809D01*
X166663952Y-52157285D01*
X166616333Y-52252523D01*
X166521095Y-52347761D01*
X166378238Y-52395380D01*
X166283000Y-52395380D01*
X166140142Y-52347761D01*
X166092523Y-52300142D01*
X166092523Y-51966809D01*
X166283000Y-51966809D01*
X165330619Y-51871571D02*
X165187761Y-51919190D01*
X165140142Y-51966809D01*
X165092523Y-52062047D01*
X165092523Y-52204904D01*
X165140142Y-52300142D01*
X165187761Y-52347761D01*
X165283000Y-52395380D01*
X165663952Y-52395380D01*
X165663952Y-51395380D01*
X165330619Y-51395380D01*
X165235380Y-51443000D01*
X165187761Y-51490619D01*
X165140142Y-51585857D01*
X165140142Y-51681095D01*
X165187761Y-51776333D01*
X165235380Y-51823952D01*
X165330619Y-51871571D01*
X165663952Y-51871571D01*
X185641761Y-50109380D02*
X185975095Y-49633190D01*
X186213190Y-50109380D02*
X186213190Y-49109380D01*
X185832238Y-49109380D01*
X185737000Y-49157000D01*
X185689380Y-49204619D01*
X185641761Y-49299857D01*
X185641761Y-49442714D01*
X185689380Y-49537952D01*
X185737000Y-49585571D01*
X185832238Y-49633190D01*
X186213190Y-49633190D01*
X184832238Y-50061761D02*
X184927476Y-50109380D01*
X185117952Y-50109380D01*
X185213190Y-50061761D01*
X185260809Y-49966523D01*
X185260809Y-49585571D01*
X185213190Y-49490333D01*
X185117952Y-49442714D01*
X184927476Y-49442714D01*
X184832238Y-49490333D01*
X184784619Y-49585571D01*
X184784619Y-49680809D01*
X185260809Y-49776047D01*
X183927476Y-50061761D02*
X184022714Y-50109380D01*
X184213190Y-50109380D01*
X184308428Y-50061761D01*
X184356047Y-50014142D01*
X184403666Y-49918904D01*
X184403666Y-49633190D01*
X184356047Y-49537952D01*
X184308428Y-49490333D01*
X184213190Y-49442714D01*
X184022714Y-49442714D01*
X183927476Y-49490333D01*
X183117952Y-50061761D02*
X183213190Y-50109380D01*
X183403666Y-50109380D01*
X183498904Y-50061761D01*
X183546523Y-49966523D01*
X183546523Y-49585571D01*
X183498904Y-49490333D01*
X183403666Y-49442714D01*
X183213190Y-49442714D01*
X183117952Y-49490333D01*
X183070333Y-49585571D01*
X183070333Y-49680809D01*
X183546523Y-49776047D01*
X182641761Y-50109380D02*
X182641761Y-49442714D01*
X182641761Y-49109380D02*
X182689380Y-49157000D01*
X182641761Y-49204619D01*
X182594142Y-49157000D01*
X182641761Y-49109380D01*
X182641761Y-49204619D01*
X182260809Y-49442714D02*
X182022714Y-50109380D01*
X181784619Y-49442714D01*
X181022714Y-50061761D02*
X181117952Y-50109380D01*
X181308428Y-50109380D01*
X181403666Y-50061761D01*
X181451285Y-49966523D01*
X181451285Y-49585571D01*
X181403666Y-49490333D01*
X181308428Y-49442714D01*
X181117952Y-49442714D01*
X181022714Y-49490333D01*
X180975095Y-49585571D01*
X180975095Y-49680809D01*
X181451285Y-49776047D01*
X179213190Y-50109380D02*
X179546523Y-49633190D01*
X179784619Y-50109380D02*
X179784619Y-49109380D01*
X179403666Y-49109380D01*
X179308428Y-49157000D01*
X179260809Y-49204619D01*
X179213190Y-49299857D01*
X179213190Y-49442714D01*
X179260809Y-49537952D01*
X179308428Y-49585571D01*
X179403666Y-49633190D01*
X179784619Y-49633190D01*
X178260809Y-49157000D02*
X178356047Y-49109380D01*
X178498904Y-49109380D01*
X178641761Y-49157000D01*
X178737000Y-49252238D01*
X178784619Y-49347476D01*
X178832238Y-49537952D01*
X178832238Y-49680809D01*
X178784619Y-49871285D01*
X178737000Y-49966523D01*
X178641761Y-50061761D01*
X178498904Y-50109380D01*
X178403666Y-50109380D01*
X178260809Y-50061761D01*
X178213190Y-50014142D01*
X178213190Y-49680809D01*
X178403666Y-49680809D01*
X177451285Y-49585571D02*
X177308428Y-49633190D01*
X177260809Y-49680809D01*
X177213190Y-49776047D01*
X177213190Y-49918904D01*
X177260809Y-50014142D01*
X177308428Y-50061761D01*
X177403666Y-50109380D01*
X177784619Y-50109380D01*
X177784619Y-49109380D01*
X177451285Y-49109380D01*
X177356047Y-49157000D01*
X177308428Y-49204619D01*
X177260809Y-49299857D01*
X177260809Y-49395095D01*
X177308428Y-49490333D01*
X177356047Y-49537952D01*
X177451285Y-49585571D01*
X177784619Y-49585571D01*
D12*
X120659666Y-47246333D02*
X120793000Y-47246333D01*
X120859666Y-47213000D01*
X120926333Y-47146333D01*
X120959666Y-47013000D01*
X120959666Y-46779666D01*
X120926333Y-46646333D01*
X120859666Y-46579666D01*
X120793000Y-46546333D01*
X120659666Y-46546333D01*
X120593000Y-46579666D01*
X120526333Y-46646333D01*
X120493000Y-46779666D01*
X120493000Y-47013000D01*
X120526333Y-47146333D01*
X120593000Y-47213000D01*
X120659666Y-47246333D01*
X122293000Y-47279666D02*
X121693000Y-46379666D01*
X123059666Y-46546333D02*
X123059666Y-47246333D01*
D10*
X112990166Y-72897628D02*
X112737628Y-73150166D01*
X113267958Y-73680496D01*
X113166943Y-72720851D02*
X113520497Y-73074405D01*
X113697273Y-73251182D02*
X113646766Y-73251182D01*
X113646766Y-73200674D01*
X113697273Y-73200674D01*
X113697273Y-73251182D01*
X113646766Y-73200674D01*
X113419481Y-72468313D02*
X113949811Y-72998643D01*
X114151842Y-72796613D01*
X114177096Y-72720851D01*
X114177096Y-72670344D01*
X114151842Y-72594582D01*
X114076080Y-72518821D01*
X114000319Y-72493567D01*
X113949811Y-72493567D01*
X113874050Y-72518821D01*
X113672019Y-72720851D01*
X114025573Y-71862222D02*
X114000319Y-71937983D01*
X114000319Y-71988491D01*
X114025573Y-72064252D01*
X114177096Y-72215775D01*
X114252857Y-72241029D01*
X114303365Y-72241029D01*
X114379126Y-72215775D01*
X114454888Y-72140014D01*
X114480141Y-72064252D01*
X114480141Y-72013745D01*
X114454888Y-71937983D01*
X114303365Y-71786460D01*
X114227603Y-71761207D01*
X114177096Y-71761207D01*
X114101334Y-71786460D01*
X114025573Y-71862222D01*
X115288263Y-71155115D02*
X115338771Y-71054100D01*
X115338771Y-71003592D01*
X115313517Y-70927831D01*
X115237756Y-70852069D01*
X115161994Y-70826815D01*
X115111487Y-70826815D01*
X115035725Y-70852069D01*
X114833695Y-71054100D01*
X115364025Y-71584430D01*
X115540802Y-71407653D01*
X115566055Y-71331892D01*
X115566055Y-71281384D01*
X115540802Y-71205623D01*
X115490294Y-71155115D01*
X115414533Y-71129861D01*
X115364025Y-71129861D01*
X115288263Y-71155115D01*
X115111487Y-71331892D01*
X115591309Y-70296485D02*
X115869101Y-70574277D01*
X115894355Y-70650039D01*
X115869101Y-70725800D01*
X115768086Y-70826815D01*
X115692324Y-70852069D01*
X115616563Y-70321739D02*
X115540802Y-70346993D01*
X115414533Y-70473262D01*
X115389279Y-70549023D01*
X115414533Y-70624785D01*
X115465040Y-70675293D01*
X115540802Y-70700546D01*
X115616563Y-70675293D01*
X115742832Y-70549023D01*
X115818594Y-70523770D01*
X116121639Y-70473262D02*
X116323670Y-70271232D01*
X116374177Y-70574277D02*
X115919609Y-70119709D01*
X115894355Y-70043947D01*
X115919609Y-69968186D01*
X115970116Y-69917678D01*
X116424685Y-70170216D02*
X116626716Y-69968186D01*
X116677223Y-70271232D02*
X116222655Y-69816663D01*
X116197401Y-69740901D01*
X116222655Y-69665140D01*
X116273162Y-69614632D01*
X116677223Y-69261079D02*
X116601462Y-69286333D01*
X116500447Y-69387348D01*
X116475193Y-69463109D01*
X116500447Y-69538871D01*
X116702477Y-69740901D01*
X116778238Y-69766155D01*
X116854000Y-69740901D01*
X116955015Y-69639886D01*
X116980269Y-69564125D01*
X116955015Y-69488363D01*
X116904508Y-69437856D01*
X116601462Y-69639886D01*
X116904508Y-68983287D02*
X117258061Y-69336840D01*
X117157046Y-69235825D02*
X117232807Y-69261079D01*
X117283315Y-69261079D01*
X117359076Y-69235825D01*
X117409584Y-69185318D01*
X117535853Y-69059048D02*
X117308569Y-68579226D01*
X117788391Y-68806510D02*
X117308569Y-68579226D01*
X117131792Y-68503465D01*
X117081284Y-68503465D01*
X117005523Y-68528718D01*
X117687376Y-68301434D02*
X117687376Y-68250926D01*
X117636868Y-68250926D01*
X117636868Y-68301434D01*
X117687376Y-68301434D01*
X117636868Y-68250926D01*
X117965168Y-68579226D02*
X117965168Y-68528718D01*
X117914660Y-68528718D01*
X117914660Y-68579226D01*
X117965168Y-68579226D01*
X117914660Y-68528718D01*
X112174468Y-71980914D02*
X112250229Y-72410229D01*
X111871422Y-72283960D02*
X112401752Y-72814290D01*
X112603783Y-72612260D01*
X112629037Y-72536498D01*
X112629037Y-72485991D01*
X112603783Y-72410229D01*
X112528021Y-72334468D01*
X112452260Y-72309214D01*
X112401752Y-72309214D01*
X112325991Y-72334468D01*
X112123960Y-72536498D01*
X112679544Y-72031422D02*
X112856321Y-71854645D01*
X112654291Y-71501092D02*
X112401752Y-71753630D01*
X112932082Y-72283960D01*
X113184621Y-72031422D01*
X112881575Y-71273808D02*
X113411905Y-71804138D01*
X113538174Y-71677869D01*
X113588682Y-71576853D01*
X113588682Y-71475838D01*
X113563428Y-71400077D01*
X113487666Y-71273808D01*
X113411905Y-71198046D01*
X113285636Y-71122285D01*
X113209874Y-71097031D01*
X113108859Y-71097031D01*
X113007844Y-71147539D01*
X112881575Y-71273808D01*
X114017996Y-70541447D02*
X114422057Y-70137386D01*
X114876626Y-69278756D02*
X115406956Y-69809087D01*
X115608987Y-69607056D01*
X115634241Y-69531295D01*
X115634241Y-69480787D01*
X115608987Y-69405026D01*
X115533225Y-69329264D01*
X115457464Y-69304010D01*
X115406956Y-69304010D01*
X115331195Y-69329264D01*
X115129164Y-69531295D01*
X115482718Y-68672665D02*
X115457464Y-68748426D01*
X115457464Y-68798934D01*
X115482718Y-68874695D01*
X115634241Y-69026218D01*
X115710002Y-69051472D01*
X115760510Y-69051472D01*
X115836271Y-69026218D01*
X115912032Y-68950457D01*
X115937286Y-68874695D01*
X115937286Y-68824188D01*
X115912032Y-68748426D01*
X115760510Y-68596903D01*
X115684748Y-68571650D01*
X115634241Y-68571650D01*
X115558479Y-68596903D01*
X115482718Y-68672665D01*
X115886779Y-68319112D02*
X115912032Y-68243350D01*
X116013048Y-68142335D01*
X116088809Y-68117081D01*
X116164571Y-68142335D01*
X116189824Y-68167589D01*
X116215078Y-68243350D01*
X116189824Y-68319112D01*
X116114063Y-68394873D01*
X116088809Y-68470634D01*
X116114063Y-68546396D01*
X116139317Y-68571650D01*
X116215078Y-68596903D01*
X116290840Y-68571650D01*
X116366601Y-68495888D01*
X116391855Y-68420127D01*
X116316093Y-67839289D02*
X116669647Y-68192842D01*
X116846424Y-68369619D02*
X116795916Y-68369619D01*
X116795916Y-68319112D01*
X116846424Y-68319112D01*
X116846424Y-68369619D01*
X116795916Y-68319112D01*
X116846424Y-68016066D02*
X117048454Y-67814035D01*
X117098962Y-68117081D02*
X116644393Y-67662512D01*
X116619139Y-67586751D01*
X116644393Y-67510989D01*
X116694901Y-67460482D01*
X116871677Y-67283705D02*
X117225231Y-67637259D01*
X117402007Y-67814035D02*
X117351500Y-67814035D01*
X117351500Y-67763528D01*
X117402007Y-67763528D01*
X117402007Y-67814035D01*
X117351500Y-67763528D01*
X117427261Y-67435228D02*
X117199977Y-66955406D01*
X117679799Y-67182690D01*
X117755561Y-66450329D02*
X117679799Y-66475583D01*
X117578784Y-66576598D01*
X117553530Y-66652360D01*
X117578784Y-66728121D01*
X117780815Y-66930152D01*
X117856576Y-66955406D01*
X117932338Y-66930152D01*
X118033353Y-66829137D01*
X118058607Y-66753375D01*
X118033353Y-66677614D01*
X117982845Y-66627106D01*
X117679799Y-66829137D01*
X118664698Y-66197791D02*
X118866729Y-65995761D01*
X118917236Y-66298806D02*
X118462668Y-65844238D01*
X118437414Y-65768476D01*
X118462668Y-65692715D01*
X118513175Y-65642207D01*
X118765713Y-65389669D02*
X118740460Y-65465431D01*
X118740460Y-65515938D01*
X118765713Y-65591700D01*
X118917236Y-65743223D01*
X118992998Y-65768476D01*
X119043505Y-65768476D01*
X119119267Y-65743223D01*
X119195028Y-65667461D01*
X119220282Y-65591700D01*
X119220282Y-65541192D01*
X119195028Y-65465431D01*
X119043505Y-65313908D01*
X118967744Y-65288654D01*
X118917236Y-65288654D01*
X118841475Y-65313908D01*
X118765713Y-65389669D01*
X119876881Y-64278501D02*
X119952643Y-64707816D01*
X119573835Y-64581547D02*
X120104166Y-65111877D01*
X120306196Y-64909847D01*
X120331450Y-64834085D01*
X120331450Y-64783578D01*
X120306196Y-64707816D01*
X120230435Y-64632055D01*
X120154673Y-64606801D01*
X120104166Y-64606801D01*
X120028404Y-64632055D01*
X119826374Y-64834085D01*
X120230435Y-64227994D02*
X120482973Y-63975456D01*
X120028404Y-64126978D02*
X120735511Y-64480532D01*
X120381957Y-63773425D01*
X121038557Y-64177486D02*
X120634496Y-63520887D01*
X121114318Y-63798679D01*
X120836526Y-63318856D01*
X121493125Y-63722917D01*
X111459785Y-71518770D02*
X111510293Y-71417754D01*
X111510293Y-71367247D01*
X111485039Y-71291485D01*
X111409277Y-71215724D01*
X111333516Y-71190470D01*
X111283008Y-71190470D01*
X111207247Y-71215724D01*
X111005216Y-71417754D01*
X111535546Y-71948084D01*
X111712323Y-71771308D01*
X111737577Y-71695546D01*
X111737577Y-71645039D01*
X111712323Y-71569277D01*
X111661815Y-71518770D01*
X111586054Y-71493516D01*
X111535546Y-71493516D01*
X111459785Y-71518770D01*
X111283008Y-71695546D01*
X111788085Y-70634886D02*
X111535546Y-70887424D01*
X112065876Y-71417754D01*
X112091130Y-70634886D02*
X112343668Y-70382348D01*
X111889100Y-70533871D02*
X112596207Y-70887424D01*
X112242653Y-70180317D01*
X112772983Y-69751003D02*
X112722476Y-69751003D01*
X112621460Y-69801510D01*
X112570953Y-69852018D01*
X112520445Y-69953033D01*
X112520445Y-70054048D01*
X112545699Y-70129810D01*
X112621460Y-70256079D01*
X112697222Y-70331840D01*
X112823491Y-70407602D01*
X112899252Y-70432856D01*
X113000268Y-70432856D01*
X113101283Y-70382348D01*
X113151790Y-70331840D01*
X113202298Y-70230825D01*
X113202298Y-70180317D01*
X112949760Y-69473211D02*
X113480090Y-70003541D01*
X113252806Y-69170165D02*
X113328567Y-69700495D01*
X113783136Y-69700495D02*
X113177044Y-69700495D01*
X114086182Y-68740850D02*
X114490243Y-68336789D01*
X115298365Y-67831713D02*
X114944811Y-67478159D01*
X115247857Y-67781205D02*
X115298365Y-67781205D01*
X115374126Y-67755951D01*
X115449887Y-67680190D01*
X115475141Y-67604428D01*
X115449887Y-67528667D01*
X115172096Y-67250875D01*
X115651918Y-66821560D02*
X115576157Y-66846814D01*
X115475141Y-66947829D01*
X115449887Y-67023591D01*
X115475141Y-67099352D01*
X115677172Y-67301383D01*
X115752933Y-67326636D01*
X115828695Y-67301383D01*
X115929710Y-67200367D01*
X115954964Y-67124606D01*
X115929710Y-67048845D01*
X115879202Y-66998337D01*
X115576157Y-67200367D01*
X116460040Y-66670037D02*
X116030725Y-66240722D01*
X115954964Y-66215469D01*
X115904456Y-66215469D01*
X115828695Y-66240722D01*
X115752933Y-66316484D01*
X115727679Y-66392245D01*
X116131740Y-66341738D02*
X116055979Y-66366992D01*
X115954964Y-66468007D01*
X115929710Y-66543768D01*
X115929710Y-66594276D01*
X115954964Y-66670037D01*
X116106487Y-66821560D01*
X116182248Y-66846814D01*
X116232756Y-66846814D01*
X116308517Y-66821560D01*
X116409532Y-66720545D01*
X116434786Y-66644783D01*
X116586309Y-65836661D02*
X116864101Y-66114453D01*
X116889355Y-66190215D01*
X116864101Y-66265976D01*
X116763086Y-66366992D01*
X116687324Y-66392245D01*
X116611563Y-65861915D02*
X116535801Y-65887169D01*
X116409532Y-66013438D01*
X116384279Y-66089200D01*
X116409532Y-66164961D01*
X116460040Y-66215469D01*
X116535801Y-66240722D01*
X116611563Y-66215469D01*
X116737832Y-66089200D01*
X116813593Y-66063946D01*
X117116639Y-66013438D02*
X117318670Y-65811408D01*
X117369177Y-66114453D02*
X116914609Y-65659885D01*
X116889355Y-65584123D01*
X116914609Y-65508362D01*
X116965116Y-65457854D01*
X117141893Y-65281078D02*
X117495446Y-65634631D01*
X117672223Y-65811408D02*
X117621715Y-65811408D01*
X117621715Y-65760900D01*
X117672223Y-65760900D01*
X117672223Y-65811408D01*
X117621715Y-65760900D01*
X117697477Y-65432600D02*
X117470193Y-64952778D01*
X117950015Y-65180062D01*
X118025776Y-64447702D02*
X117950015Y-64472956D01*
X117849000Y-64573971D01*
X117823746Y-64649732D01*
X117849000Y-64725494D01*
X118051030Y-64927524D01*
X118126792Y-64952778D01*
X118202553Y-64927524D01*
X118303568Y-64826509D01*
X118328822Y-64750747D01*
X118303568Y-64674986D01*
X118253061Y-64624478D01*
X117950015Y-64826509D01*
X118934914Y-64195164D02*
X119136944Y-63993133D01*
X119187452Y-64296179D02*
X118732883Y-63841610D01*
X118707629Y-63765849D01*
X118732883Y-63690087D01*
X118783391Y-63639580D01*
X119035929Y-63387042D02*
X119010675Y-63462803D01*
X119010675Y-63513311D01*
X119035929Y-63589072D01*
X119187452Y-63740595D01*
X119263213Y-63765849D01*
X119313721Y-63765849D01*
X119389482Y-63740595D01*
X119465244Y-63664833D01*
X119490498Y-63589072D01*
X119490498Y-63538564D01*
X119465244Y-63462803D01*
X119313721Y-63311280D01*
X119237960Y-63286026D01*
X119187452Y-63286026D01*
X119111690Y-63311280D01*
X119035929Y-63387042D01*
X120626919Y-62806204D02*
X120601665Y-62881965D01*
X120525904Y-62957727D01*
X120424889Y-63008234D01*
X120323874Y-63008234D01*
X120248112Y-62982981D01*
X120121843Y-62907219D01*
X120046082Y-62831458D01*
X119970320Y-62705189D01*
X119945066Y-62629427D01*
X119945066Y-62528412D01*
X119995574Y-62427397D01*
X120046082Y-62376889D01*
X120147097Y-62326381D01*
X120197604Y-62326381D01*
X120374381Y-62503158D01*
X120273366Y-62604173D01*
X120374381Y-62048589D02*
X120904711Y-62578919D01*
X120677427Y-61745544D01*
X121207757Y-62275874D01*
X120929965Y-61493006D02*
X121460295Y-62023336D01*
X121586564Y-61897067D01*
X121637072Y-61796051D01*
X121637072Y-61695036D01*
X121611818Y-61619275D01*
X121536057Y-61493006D01*
X121460295Y-61417244D01*
X121334026Y-61341483D01*
X121258265Y-61316229D01*
X121157249Y-61316229D01*
X121056234Y-61366736D01*
X120929965Y-61493006D01*
D12*
X86774825Y-52700026D02*
X86653271Y-52010661D01*
X86390656Y-52056967D01*
X86330790Y-52101371D01*
X86303752Y-52139986D01*
X86282501Y-52211428D01*
X86299866Y-52309909D01*
X86344269Y-52369774D01*
X86382885Y-52396813D01*
X86454327Y-52418063D01*
X86716942Y-52371757D01*
X85986979Y-52838945D02*
X86046844Y-52794542D01*
X86073883Y-52755926D01*
X86095133Y-52684484D01*
X86060404Y-52487523D01*
X86016000Y-52427657D01*
X85977385Y-52400618D01*
X85905943Y-52379368D01*
X85807462Y-52396733D01*
X85747597Y-52441136D01*
X85720558Y-52479752D01*
X85699308Y-52551194D01*
X85734037Y-52748155D01*
X85778441Y-52808021D01*
X85817056Y-52835059D01*
X85888498Y-52856310D01*
X85986979Y-52838945D01*
X85446366Y-52460404D02*
X85396094Y-52943134D01*
X85206904Y-52638018D01*
X85133479Y-52989440D01*
X84921135Y-52553016D01*
X84471152Y-53072379D02*
X84542594Y-53093629D01*
X84673902Y-53070476D01*
X84733767Y-53026072D01*
X84755018Y-52954630D01*
X84708711Y-52692015D01*
X84664308Y-52632149D01*
X84592866Y-52610899D01*
X84461558Y-52634052D01*
X84401693Y-52678455D01*
X84380442Y-52749898D01*
X84392019Y-52815551D01*
X84731865Y-52823323D01*
X84148671Y-53163088D02*
X84067635Y-52703511D01*
X84090788Y-52834819D02*
X84046385Y-52774953D01*
X84007770Y-52747915D01*
X83936327Y-52726664D01*
X83870674Y-52738241D01*
X83223729Y-53292333D02*
X83131036Y-53342525D01*
X82966902Y-53371466D01*
X82895459Y-53350216D01*
X82856844Y-53323177D01*
X82812441Y-53263311D01*
X82800864Y-53197658D01*
X82822115Y-53126215D01*
X82849153Y-53087600D01*
X82909019Y-53043197D01*
X83034538Y-52987217D01*
X83094404Y-52942813D01*
X83121443Y-52904198D01*
X83142693Y-52832756D01*
X83131116Y-52767102D01*
X83086713Y-52707237D01*
X83048098Y-52680198D01*
X82976656Y-52658948D01*
X82812521Y-52687889D01*
X82719828Y-52738081D01*
X82271748Y-53460193D02*
X82343190Y-53481443D01*
X82474498Y-53458290D01*
X82534363Y-53413887D01*
X82555614Y-53342445D01*
X82509308Y-53079829D01*
X82464904Y-53019964D01*
X82393462Y-52998713D01*
X82262154Y-53021866D01*
X82202289Y-53066270D01*
X82181038Y-53137712D01*
X82192615Y-53203366D01*
X82532461Y-53211137D01*
X81850786Y-53568267D02*
X81910652Y-53523864D01*
X81931902Y-53452422D01*
X81827713Y-52861537D01*
X81319767Y-53628053D02*
X81391209Y-53649303D01*
X81522517Y-53626150D01*
X81582382Y-53581747D01*
X81603633Y-53510304D01*
X81557327Y-53247689D01*
X81512923Y-53187823D01*
X81441481Y-53166573D01*
X81310173Y-53189726D01*
X81250308Y-53234130D01*
X81229057Y-53305572D01*
X81240634Y-53371226D01*
X81580480Y-53378997D01*
X80696056Y-53738030D02*
X80767498Y-53759280D01*
X80898805Y-53736127D01*
X80958671Y-53691724D01*
X80985710Y-53653109D01*
X81006960Y-53581666D01*
X80972230Y-53384705D01*
X80927827Y-53324839D01*
X80889212Y-53297801D01*
X80817770Y-53276550D01*
X80686462Y-53299703D01*
X80626596Y-53344107D01*
X80423846Y-53346010D02*
X80161231Y-53392316D01*
X80284848Y-53133586D02*
X80389037Y-53724471D01*
X80367786Y-53795913D01*
X80307921Y-53840316D01*
X80242267Y-53851893D01*
X79913998Y-53909775D02*
X79973863Y-53865372D01*
X80000902Y-53826757D01*
X80022152Y-53755315D01*
X79987423Y-53558353D01*
X79943019Y-53498487D01*
X79904404Y-53471449D01*
X79832962Y-53450198D01*
X79734481Y-53467563D01*
X79674615Y-53511967D01*
X79647577Y-53550582D01*
X79626326Y-53622024D01*
X79661056Y-53818986D01*
X79705459Y-53878851D01*
X79744075Y-53905890D01*
X79815517Y-53927140D01*
X79913998Y-53909775D01*
X79388767Y-54002388D02*
X79307731Y-53542811D01*
X79330884Y-53674119D02*
X79286481Y-53614253D01*
X79247865Y-53587214D01*
X79176423Y-53565964D01*
X79110769Y-53577540D01*
X78183925Y-53504035D02*
X78118271Y-53515612D01*
X78058405Y-53560015D01*
X78031366Y-53598631D01*
X78010116Y-53670073D01*
X78000442Y-53807169D01*
X78029384Y-53971303D01*
X78085364Y-54096823D01*
X78129767Y-54156688D01*
X78168382Y-54183727D01*
X78239824Y-54204977D01*
X78305478Y-54193401D01*
X78365344Y-54148997D01*
X78392382Y-54110382D01*
X78413633Y-54038940D01*
X78423307Y-53901844D01*
X78394365Y-53737709D01*
X78338385Y-53612190D01*
X78293982Y-53552324D01*
X78255367Y-53525286D01*
X78183925Y-53504035D01*
X77386324Y-54355472D02*
X77558230Y-53986685D01*
X77780247Y-54286013D02*
X77658694Y-53596648D01*
X77396078Y-53642954D01*
X77336213Y-53687357D01*
X77309174Y-53725973D01*
X77287924Y-53797415D01*
X77305289Y-53895895D01*
X77349692Y-53955761D01*
X77388307Y-53982800D01*
X77459749Y-54004050D01*
X77722365Y-53957744D01*
D10*
X89116857Y-52536285D02*
X89366857Y-52179142D01*
X89545428Y-52536285D02*
X89545428Y-51786285D01*
X89259714Y-51786285D01*
X89188285Y-51822000D01*
X89152571Y-51857714D01*
X89116857Y-51929142D01*
X89116857Y-52036285D01*
X89152571Y-52107714D01*
X89188285Y-52143428D01*
X89259714Y-52179142D01*
X89545428Y-52179142D01*
X88831142Y-52322000D02*
X88474000Y-52322000D01*
X88902571Y-52536285D02*
X88652571Y-51786285D01*
X88402571Y-52536285D01*
X88224000Y-51786285D02*
X88045428Y-52536285D01*
X87902571Y-52000571D01*
X87759714Y-52536285D01*
X87581142Y-51786285D01*
D12*
X131293333Y-48576666D02*
X131526666Y-48243333D01*
X131693333Y-48576666D02*
X131693333Y-47876666D01*
X131426666Y-47876666D01*
X131360000Y-47910000D01*
X131326666Y-47943333D01*
X131293333Y-48010000D01*
X131293333Y-48110000D01*
X131326666Y-48176666D01*
X131360000Y-48210000D01*
X131426666Y-48243333D01*
X131693333Y-48243333D01*
X131026666Y-48376666D02*
X130693333Y-48376666D01*
X131093333Y-48576666D02*
X130860000Y-47876666D01*
X130626666Y-48576666D01*
X130460000Y-47876666D02*
X130293333Y-48576666D01*
X130160000Y-48076666D01*
X130026666Y-48576666D01*
X129860000Y-47876666D01*
X131216333Y-50450000D02*
X131283000Y-50416666D01*
X131383000Y-50416666D01*
X131483000Y-50450000D01*
X131549666Y-50516666D01*
X131583000Y-50583333D01*
X131616333Y-50716666D01*
X131616333Y-50816666D01*
X131583000Y-50950000D01*
X131549666Y-51016666D01*
X131483000Y-51083333D01*
X131383000Y-51116666D01*
X131316333Y-51116666D01*
X131216333Y-51083333D01*
X131183000Y-51050000D01*
X131183000Y-50816666D01*
X131316333Y-50816666D01*
X130883000Y-51116666D02*
X130883000Y-50416666D01*
X130483000Y-51116666D01*
X130483000Y-50416666D01*
X130149666Y-51116666D02*
X130149666Y-50416666D01*
X129983000Y-50416666D01*
X129883000Y-50450000D01*
X129816333Y-50516666D01*
X129783000Y-50583333D01*
X129749666Y-50716666D01*
X129749666Y-50816666D01*
X129783000Y-50950000D01*
X129816333Y-51016666D01*
X129883000Y-51083333D01*
X129983000Y-51116666D01*
X130149666Y-51116666D01*
X158197785Y-111558000D02*
X157447785Y-111558000D01*
X157697785Y-111915142D02*
X158197785Y-111915142D01*
X157769214Y-111915142D02*
X157733500Y-111950857D01*
X157697785Y-112022285D01*
X157697785Y-112129428D01*
X157733500Y-112200857D01*
X157804928Y-112236571D01*
X158197785Y-112236571D01*
X158162071Y-112558000D02*
X158197785Y-112629428D01*
X158197785Y-112772285D01*
X158162071Y-112843714D01*
X158090642Y-112879428D01*
X158054928Y-112879428D01*
X157983500Y-112843714D01*
X157947785Y-112772285D01*
X157947785Y-112665142D01*
X157912071Y-112593714D01*
X157840642Y-112558000D01*
X157804928Y-112558000D01*
X157733500Y-112593714D01*
X157697785Y-112665142D01*
X157697785Y-112772285D01*
X157733500Y-112843714D01*
X157697785Y-113093714D02*
X157697785Y-113379428D01*
X157447785Y-113200857D02*
X158090642Y-113200857D01*
X158162071Y-113236571D01*
X158197785Y-113308000D01*
X158197785Y-113379428D01*
X158197785Y-113950857D02*
X157804928Y-113950857D01*
X157733500Y-113915142D01*
X157697785Y-113843714D01*
X157697785Y-113700857D01*
X157733500Y-113629428D01*
X158162071Y-113950857D02*
X158197785Y-113879428D01*
X158197785Y-113700857D01*
X158162071Y-113629428D01*
X158090642Y-113593714D01*
X158019214Y-113593714D01*
X157947785Y-113629428D01*
X157912071Y-113700857D01*
X157912071Y-113879428D01*
X157876357Y-113950857D01*
X158197785Y-114415142D02*
X158162071Y-114343714D01*
X158090642Y-114308000D01*
X157447785Y-114308000D01*
X158197785Y-114808000D02*
X158162071Y-114736571D01*
X158090642Y-114700857D01*
X157447785Y-114700857D01*
X158197785Y-115665142D02*
X157447785Y-115665142D01*
X157447785Y-115843714D01*
X157483500Y-115950857D01*
X157554928Y-116022285D01*
X157626357Y-116058000D01*
X157769214Y-116093714D01*
X157876357Y-116093714D01*
X158019214Y-116058000D01*
X158090642Y-116022285D01*
X158162071Y-115950857D01*
X158197785Y-115843714D01*
X158197785Y-115665142D01*
X157519214Y-116379428D02*
X157483500Y-116415142D01*
X157447785Y-116486571D01*
X157447785Y-116665142D01*
X157483500Y-116736571D01*
X157519214Y-116772285D01*
X157590642Y-116808000D01*
X157662071Y-116808000D01*
X157769214Y-116772285D01*
X158197785Y-116343714D01*
X158197785Y-116808000D01*
X157769214Y-117236571D02*
X157733500Y-117165142D01*
X157697785Y-117129428D01*
X157626357Y-117093714D01*
X157590642Y-117093714D01*
X157519214Y-117129428D01*
X157483500Y-117165142D01*
X157447785Y-117236571D01*
X157447785Y-117379428D01*
X157483500Y-117450857D01*
X157519214Y-117486571D01*
X157590642Y-117522285D01*
X157626357Y-117522285D01*
X157697785Y-117486571D01*
X157733500Y-117450857D01*
X157769214Y-117379428D01*
X157769214Y-117236571D01*
X157804928Y-117165142D01*
X157840642Y-117129428D01*
X157912071Y-117093714D01*
X158054928Y-117093714D01*
X158126357Y-117129428D01*
X158162071Y-117165142D01*
X158197785Y-117236571D01*
X158197785Y-117379428D01*
X158162071Y-117450857D01*
X158126357Y-117486571D01*
X158054928Y-117522285D01*
X157912071Y-117522285D01*
X157840642Y-117486571D01*
X157804928Y-117450857D01*
X157769214Y-117379428D01*
X158972785Y-111111571D02*
X158972785Y-111397285D01*
X159472785Y-111218714D02*
X158829928Y-111218714D01*
X158758500Y-111254428D01*
X158722785Y-111325857D01*
X158722785Y-111397285D01*
X159472785Y-111754428D02*
X159437071Y-111683000D01*
X159401357Y-111647285D01*
X159329928Y-111611571D01*
X159115642Y-111611571D01*
X159044214Y-111647285D01*
X159008500Y-111683000D01*
X158972785Y-111754428D01*
X158972785Y-111861571D01*
X159008500Y-111933000D01*
X159044214Y-111968714D01*
X159115642Y-112004428D01*
X159329928Y-112004428D01*
X159401357Y-111968714D01*
X159437071Y-111933000D01*
X159472785Y-111861571D01*
X159472785Y-111754428D01*
X159472785Y-112325857D02*
X158972785Y-112325857D01*
X159115642Y-112325857D02*
X159044214Y-112361571D01*
X159008500Y-112397285D01*
X158972785Y-112468714D01*
X158972785Y-112540142D01*
X159079928Y-113361571D02*
X159079928Y-113611571D01*
X159472785Y-113718714D02*
X159472785Y-113361571D01*
X158722785Y-113361571D01*
X158722785Y-113718714D01*
X159472785Y-113968714D02*
X158972785Y-114361571D01*
X158972785Y-113968714D02*
X159472785Y-114361571D01*
X158972785Y-114540142D02*
X158972785Y-114825857D01*
X158722785Y-114647285D02*
X159365642Y-114647285D01*
X159437071Y-114683000D01*
X159472785Y-114754428D01*
X159472785Y-114825857D01*
X159472785Y-115075857D02*
X158972785Y-115075857D01*
X159115642Y-115075857D02*
X159044214Y-115111571D01*
X159008500Y-115147285D01*
X158972785Y-115218714D01*
X158972785Y-115290142D01*
X159472785Y-115861571D02*
X159079928Y-115861571D01*
X159008500Y-115825857D01*
X158972785Y-115754428D01*
X158972785Y-115611571D01*
X159008500Y-115540142D01*
X159437071Y-115861571D02*
X159472785Y-115790142D01*
X159472785Y-115611571D01*
X159437071Y-115540142D01*
X159365642Y-115504428D01*
X159294214Y-115504428D01*
X159222785Y-115540142D01*
X159187071Y-115611571D01*
X159187071Y-115790142D01*
X159151357Y-115861571D01*
X159472785Y-116790142D02*
X158722785Y-116790142D01*
X159472785Y-117218714D02*
X159044214Y-116897285D01*
X158722785Y-117218714D02*
X159151357Y-116790142D01*
X159437071Y-117825857D02*
X159472785Y-117754428D01*
X159472785Y-117611571D01*
X159437071Y-117540142D01*
X159365642Y-117504428D01*
X159079928Y-117504428D01*
X159008500Y-117540142D01*
X158972785Y-117611571D01*
X158972785Y-117754428D01*
X159008500Y-117825857D01*
X159079928Y-117861571D01*
X159151357Y-117861571D01*
X159222785Y-117504428D01*
X158972785Y-118111571D02*
X159472785Y-118290142D01*
X158972785Y-118468714D02*
X159472785Y-118290142D01*
X159651357Y-118218714D01*
X159687071Y-118183000D01*
X159722785Y-118111571D01*
D13*
X182427142Y-107370571D02*
X182093809Y-107370571D01*
X181950952Y-107894380D02*
X182427142Y-107894380D01*
X182427142Y-106894380D01*
X181950952Y-106894380D01*
X181617619Y-107894380D02*
X181093809Y-107227714D01*
X181617619Y-107227714D02*
X181093809Y-107894380D01*
X180855714Y-107227714D02*
X180474761Y-107227714D01*
X180712857Y-106894380D02*
X180712857Y-107751523D01*
X180665238Y-107846761D01*
X180570000Y-107894380D01*
X180474761Y-107894380D01*
X180141428Y-107894380D02*
X180141428Y-107227714D01*
X180141428Y-107418190D02*
X180093809Y-107322952D01*
X180046190Y-107275333D01*
X179950952Y-107227714D01*
X179855714Y-107227714D01*
X179093809Y-107894380D02*
X179093809Y-107370571D01*
X179141428Y-107275333D01*
X179236666Y-107227714D01*
X179427142Y-107227714D01*
X179522380Y-107275333D01*
X179093809Y-107846761D02*
X179189047Y-107894380D01*
X179427142Y-107894380D01*
X179522380Y-107846761D01*
X179570000Y-107751523D01*
X179570000Y-107656285D01*
X179522380Y-107561047D01*
X179427142Y-107513428D01*
X179189047Y-107513428D01*
X179093809Y-107465809D01*
X177855714Y-107894380D02*
X177855714Y-106894380D01*
X177284285Y-107894380D02*
X177712857Y-107322952D01*
X177284285Y-106894380D02*
X177855714Y-107465809D01*
X176474761Y-107846761D02*
X176570000Y-107894380D01*
X176760476Y-107894380D01*
X176855714Y-107846761D01*
X176903333Y-107751523D01*
X176903333Y-107370571D01*
X176855714Y-107275333D01*
X176760476Y-107227714D01*
X176570000Y-107227714D01*
X176474761Y-107275333D01*
X176427142Y-107370571D01*
X176427142Y-107465809D01*
X176903333Y-107561047D01*
X176093809Y-107227714D02*
X175855714Y-107894380D01*
X175617619Y-107227714D02*
X175855714Y-107894380D01*
X175950952Y-108132476D01*
X175998571Y-108180095D01*
X176093809Y-108227714D01*
D12*
X201821904Y-47605904D02*
X201821904Y-46805904D01*
X201631428Y-46805904D01*
X201517142Y-46844000D01*
X201440952Y-46920190D01*
X201402857Y-46996380D01*
X201364761Y-47148761D01*
X201364761Y-47263047D01*
X201402857Y-47415428D01*
X201440952Y-47491619D01*
X201517142Y-47567809D01*
X201631428Y-47605904D01*
X201821904Y-47605904D01*
X200679047Y-47605904D02*
X200679047Y-47186857D01*
X200717142Y-47110666D01*
X200793333Y-47072571D01*
X200945714Y-47072571D01*
X201021904Y-47110666D01*
X200679047Y-47567809D02*
X200755238Y-47605904D01*
X200945714Y-47605904D01*
X201021904Y-47567809D01*
X201060000Y-47491619D01*
X201060000Y-47415428D01*
X201021904Y-47339238D01*
X200945714Y-47301142D01*
X200755238Y-47301142D01*
X200679047Y-47263047D01*
X200412380Y-47072571D02*
X200107619Y-47072571D01*
X200298095Y-46805904D02*
X200298095Y-47491619D01*
X200260000Y-47567809D01*
X200183809Y-47605904D01*
X200107619Y-47605904D01*
X199498095Y-47605904D02*
X199498095Y-47186857D01*
X199536190Y-47110666D01*
X199612380Y-47072571D01*
X199764761Y-47072571D01*
X199840952Y-47110666D01*
X199498095Y-47567809D02*
X199574285Y-47605904D01*
X199764761Y-47605904D01*
X199840952Y-47567809D01*
X199879047Y-47491619D01*
X199879047Y-47415428D01*
X199840952Y-47339238D01*
X199764761Y-47301142D01*
X199574285Y-47301142D01*
X199498095Y-47263047D01*
D13*
X207327333Y-47966380D02*
X206994000Y-48966380D01*
X206660666Y-47966380D01*
X205755904Y-48871142D02*
X205803523Y-48918761D01*
X205946380Y-48966380D01*
X206041619Y-48966380D01*
X206184476Y-48918761D01*
X206279714Y-48823523D01*
X206327333Y-48728285D01*
X206374952Y-48537809D01*
X206374952Y-48394952D01*
X206327333Y-48204476D01*
X206279714Y-48109238D01*
X206184476Y-48014000D01*
X206041619Y-47966380D01*
X205946380Y-47966380D01*
X205803523Y-48014000D01*
X205755904Y-48061619D01*
X204755904Y-48871142D02*
X204803523Y-48918761D01*
X204946380Y-48966380D01*
X205041619Y-48966380D01*
X205184476Y-48918761D01*
X205279714Y-48823523D01*
X205327333Y-48728285D01*
X205374952Y-48537809D01*
X205374952Y-48394952D01*
X205327333Y-48204476D01*
X205279714Y-48109238D01*
X205184476Y-48014000D01*
X205041619Y-47966380D01*
X204946380Y-47966380D01*
X204803523Y-48014000D01*
X204755904Y-48061619D01*
X196341904Y-57666000D02*
X196437142Y-57618380D01*
X196580000Y-57618380D01*
X196722857Y-57666000D01*
X196818095Y-57761238D01*
X196865714Y-57856476D01*
X196913333Y-58046952D01*
X196913333Y-58189809D01*
X196865714Y-58380285D01*
X196818095Y-58475523D01*
X196722857Y-58570761D01*
X196580000Y-58618380D01*
X196484761Y-58618380D01*
X196341904Y-58570761D01*
X196294285Y-58523142D01*
X196294285Y-58189809D01*
X196484761Y-58189809D01*
X195865714Y-58618380D02*
X195865714Y-57618380D01*
X195294285Y-58618380D01*
X195294285Y-57618380D01*
X194818095Y-58618380D02*
X194818095Y-57618380D01*
X194580000Y-57618380D01*
X194437142Y-57666000D01*
X194341904Y-57761238D01*
X194294285Y-57856476D01*
X194246666Y-58046952D01*
X194246666Y-58189809D01*
X194294285Y-58380285D01*
X194341904Y-58475523D01*
X194437142Y-58570761D01*
X194580000Y-58618380D01*
X194818095Y-58618380D01*
D11*
X188412000Y-52601761D02*
X188269142Y-52649380D01*
X188031047Y-52649380D01*
X187935809Y-52601761D01*
X187888190Y-52554142D01*
X187840571Y-52458904D01*
X187840571Y-52363666D01*
X187888190Y-52268428D01*
X187935809Y-52220809D01*
X188031047Y-52173190D01*
X188221523Y-52125571D01*
X188316761Y-52077952D01*
X188364380Y-52030333D01*
X188412000Y-51935095D01*
X188412000Y-51839857D01*
X188364380Y-51744619D01*
X188316761Y-51697000D01*
X188221523Y-51649380D01*
X187983428Y-51649380D01*
X187840571Y-51697000D01*
X187031047Y-52601761D02*
X187126285Y-52649380D01*
X187316761Y-52649380D01*
X187412000Y-52601761D01*
X187459619Y-52506523D01*
X187459619Y-52125571D01*
X187412000Y-52030333D01*
X187316761Y-51982714D01*
X187126285Y-51982714D01*
X187031047Y-52030333D01*
X186983428Y-52125571D01*
X186983428Y-52220809D01*
X187459619Y-52316047D01*
X186554857Y-51982714D02*
X186554857Y-52649380D01*
X186554857Y-52077952D02*
X186507238Y-52030333D01*
X186412000Y-51982714D01*
X186269142Y-51982714D01*
X186173904Y-52030333D01*
X186126285Y-52125571D01*
X186126285Y-52649380D01*
X185221523Y-52649380D02*
X185221523Y-51649380D01*
X185221523Y-52601761D02*
X185316761Y-52649380D01*
X185507238Y-52649380D01*
X185602476Y-52601761D01*
X185650095Y-52554142D01*
X185697714Y-52458904D01*
X185697714Y-52173190D01*
X185650095Y-52077952D01*
X185602476Y-52030333D01*
X185507238Y-51982714D01*
X185316761Y-51982714D01*
X185221523Y-52030333D01*
X183412000Y-52649380D02*
X183745333Y-52173190D01*
X183983428Y-52649380D02*
X183983428Y-51649380D01*
X183602476Y-51649380D01*
X183507238Y-51697000D01*
X183459619Y-51744619D01*
X183412000Y-51839857D01*
X183412000Y-51982714D01*
X183459619Y-52077952D01*
X183507238Y-52125571D01*
X183602476Y-52173190D01*
X183983428Y-52173190D01*
X182459619Y-51697000D02*
X182554857Y-51649380D01*
X182697714Y-51649380D01*
X182840571Y-51697000D01*
X182935809Y-51792238D01*
X182983428Y-51887476D01*
X183031047Y-52077952D01*
X183031047Y-52220809D01*
X182983428Y-52411285D01*
X182935809Y-52506523D01*
X182840571Y-52601761D01*
X182697714Y-52649380D01*
X182602476Y-52649380D01*
X182459619Y-52601761D01*
X182412000Y-52554142D01*
X182412000Y-52220809D01*
X182602476Y-52220809D01*
X181650095Y-52125571D02*
X181507238Y-52173190D01*
X181459619Y-52220809D01*
X181412000Y-52316047D01*
X181412000Y-52458904D01*
X181459619Y-52554142D01*
X181507238Y-52601761D01*
X181602476Y-52649380D01*
X181983428Y-52649380D01*
X181983428Y-51649380D01*
X181650095Y-51649380D01*
X181554857Y-51697000D01*
X181507238Y-51744619D01*
X181459619Y-51839857D01*
X181459619Y-51935095D01*
X181507238Y-52030333D01*
X181554857Y-52077952D01*
X181650095Y-52125571D01*
X181983428Y-52125571D01*
D14*
G04 #@! TO.C,SW2*
X111780000Y-54566000D02*
X114280000Y-54566000D01*
X110280000Y-52816000D02*
X110280000Y-50816000D01*
X111780000Y-49066000D02*
X114280000Y-49066000D01*
X115780000Y-52816000D02*
X115780000Y-50816000D01*
X111330000Y-54116000D02*
X111780000Y-54566000D01*
X114730000Y-54116000D02*
X114280000Y-54566000D01*
X114730000Y-49516000D02*
X114280000Y-49066000D01*
X111330000Y-49516000D02*
X111780000Y-49066000D01*
D15*
G04 #@! TO.C,U1*
X150530038Y-48784000D02*
X132750038Y-48784000D01*
X132750038Y-48784000D02*
X132750038Y-79264000D01*
X132750038Y-79264000D02*
X150530038Y-79264000D01*
X150530038Y-79264000D02*
X150530038Y-48784000D01*
X135290038Y-48784000D02*
X135290038Y-51324000D01*
X135290038Y-51324000D02*
X132750038Y-51324000D01*
D14*
G04 #@! TO.C,J4*
X104235893Y-52780327D02*
X103773989Y-50160739D01*
X91669746Y-54996078D02*
X104235893Y-52780327D01*
X91207842Y-52376490D02*
X91669746Y-54996078D01*
X103773989Y-50160739D02*
X91207842Y-52376490D01*
G04 #@! TO.C,R3*
X174744748Y-48820000D02*
X175267252Y-48820000D01*
X174744748Y-50240000D02*
X175267252Y-50240000D01*
G04 #@! TO.C,R7*
X88375748Y-53011000D02*
X88898252Y-53011000D01*
X88375748Y-54431000D02*
X88898252Y-54431000D01*
G04 #@! TO.C,R1*
X175267252Y-52526000D02*
X174744748Y-52526000D01*
X175267252Y-51106000D02*
X174744748Y-51106000D01*
G04 #@! TO.C,R5*
X190634252Y-52780000D02*
X190111748Y-52780000D01*
X190634252Y-51360000D02*
X190111748Y-51360000D01*
D12*
G04 #@! TO.C,C1*
X181475000Y-119519000D02*
X180475000Y-119519000D01*
X180475000Y-120969000D02*
X181475000Y-120969000D01*
G04 #@! TO.C,C2*
X184285000Y-56630000D02*
X185285000Y-56630000D01*
X185285000Y-55180000D02*
X184285000Y-55180000D01*
G04 #@! TO.C,C3*
X124853000Y-58047000D02*
X124853000Y-59047000D01*
X126303000Y-59047000D02*
X126303000Y-58047000D01*
G04 #@! TO.C,C4*
X180332000Y-89420000D02*
X179332000Y-89420000D01*
X179332000Y-90870000D02*
X180332000Y-90870000D01*
G04 #@! TO.C,C5*
X180323000Y-70370000D02*
X179323000Y-70370000D01*
X179323000Y-71820000D02*
X180323000Y-71820000D01*
G04 #@! TO.C,C6*
X125107000Y-78240000D02*
X125107000Y-79240000D01*
X126557000Y-79240000D02*
X126557000Y-78240000D01*
G04 #@! TO.C,C7*
X107557000Y-62357999D02*
X107557000Y-61357999D01*
X106107000Y-61357999D02*
X106107000Y-62357999D01*
G04 #@! TO.C,C8*
X168140000Y-106946000D02*
X167140000Y-106946000D01*
X167140000Y-108396000D02*
X168140000Y-108396000D01*
G04 #@! TO.C,C9*
X161164000Y-86880000D02*
X160164000Y-86880000D01*
X160164000Y-88330000D02*
X161164000Y-88330000D01*
G04 #@! TO.C,C10*
X85209000Y-72656000D02*
X84209000Y-72656000D01*
X84209000Y-74106000D02*
X85209000Y-74106000D01*
G04 #@! TO.C,C11*
X161790000Y-67830000D02*
X160790000Y-67830000D01*
X160790000Y-69280000D02*
X161790000Y-69280000D01*
G04 #@! TO.C,C12*
X84946000Y-91833000D02*
X83946000Y-91833000D01*
X83946000Y-93283000D02*
X84946000Y-93283000D01*
G04 #@! TO.C,C13*
X142223000Y-103771000D02*
X141223000Y-103771000D01*
X141223000Y-105221000D02*
X142223000Y-105221000D01*
G04 #@! TO.C,C14*
X141978000Y-65417000D02*
X140978000Y-65417000D01*
X140978000Y-66867000D02*
X141978000Y-66867000D01*
G04 #@! TO.C,C15*
X143756000Y-48780000D02*
X142756000Y-48780000D01*
X142756000Y-50230000D02*
X143756000Y-50230000D01*
G04 #@! TO.C,C16*
X108060000Y-71767000D02*
X107060000Y-71767000D01*
X107060000Y-73217000D02*
X108060000Y-73217000D01*
G04 #@! TO.C,C17*
X161155000Y-49034000D02*
X160155000Y-49034000D01*
X160155000Y-50484000D02*
X161155000Y-50484000D01*
G04 #@! TO.C,C18*
X85073000Y-110883000D02*
X84073000Y-110883000D01*
X84073000Y-112333000D02*
X85073000Y-112333000D01*
G04 #@! TO.C,C19*
X104259000Y-89420000D02*
X103259000Y-89420000D01*
X103259000Y-90870000D02*
X104259000Y-90870000D01*
G04 #@! TO.C,C20*
X142495000Y-84467000D02*
X141495000Y-84467000D01*
X141495000Y-85917000D02*
X142495000Y-85917000D01*
G04 #@! TO.C,C21*
X191655000Y-99576000D02*
X191655000Y-100576000D01*
X193105000Y-100576000D02*
X193105000Y-99576000D01*
G04 #@! TO.C,C22*
X122429000Y-105930000D02*
X121429000Y-105930000D01*
X121429000Y-107380000D02*
X122429000Y-107380000D01*
G04 #@! TO.C,C23*
X203081000Y-80125000D02*
X204081000Y-80125000D01*
X204081000Y-78675000D02*
X203081000Y-78675000D01*
G04 #@! TO.C,C24*
X84692000Y-54495000D02*
X83692000Y-54495000D01*
X83692000Y-55945000D02*
X84692000Y-55945000D01*
G04 #@! TO.C,C25*
X122166000Y-87261000D02*
X121166000Y-87261000D01*
X121166000Y-88711000D02*
X122166000Y-88711000D01*
G04 #@! TO.C,C26*
X203335000Y-60694000D02*
X204335000Y-60694000D01*
X204335000Y-59244000D02*
X203335000Y-59244000D01*
G04 #@! TO.C,C27*
X103878000Y-109486000D02*
X102878000Y-109486000D01*
X102878000Y-110936000D02*
X103878000Y-110936000D01*
G04 #@! TO.C,D1*
X94345000Y-67020000D02*
X94345000Y-63120000D01*
X92345000Y-67020000D02*
X94345000Y-67020000D01*
X92345000Y-63120000D02*
X92345000Y-67020000D01*
G04 #@! TO.C,D2*
X94980000Y-86070000D02*
X94980000Y-82170000D01*
X92980000Y-86070000D02*
X94980000Y-86070000D01*
X92980000Y-82170000D02*
X92980000Y-86070000D01*
G04 #@! TO.C,D3*
X94980000Y-105120000D02*
X94980000Y-101220000D01*
X92980000Y-105120000D02*
X94980000Y-105120000D01*
X92980000Y-101220000D02*
X92980000Y-105120000D01*
G04 #@! TO.C,D4*
X94345000Y-123865000D02*
X94345000Y-119965000D01*
X92345000Y-123865000D02*
X94345000Y-123865000D01*
X92345000Y-119965000D02*
X92345000Y-123865000D01*
G04 #@! TO.C,D5*
X114030000Y-64480000D02*
X114030000Y-60580000D01*
X112030000Y-64480000D02*
X114030000Y-64480000D01*
X112030000Y-60580000D02*
X112030000Y-64480000D01*
G04 #@! TO.C,D6*
X114030000Y-84005000D02*
X114030000Y-80105000D01*
X112030000Y-84005000D02*
X114030000Y-84005000D01*
X112030000Y-80105000D02*
X112030000Y-84005000D01*
G04 #@! TO.C,D7*
X114030000Y-102885000D02*
X114030000Y-98985000D01*
X112030000Y-102885000D02*
X114030000Y-102885000D01*
X112030000Y-98985000D02*
X112030000Y-102885000D01*
G04 #@! TO.C,D8*
X114030000Y-121630000D02*
X114030000Y-117730000D01*
X112030000Y-121630000D02*
X114030000Y-121630000D01*
X112030000Y-117730000D02*
X112030000Y-121630000D01*
G04 #@! TO.C,D9*
X131810000Y-62270000D02*
X131810000Y-58370000D01*
X129810000Y-62270000D02*
X131810000Y-62270000D01*
X129810000Y-58370000D02*
X129810000Y-62270000D01*
G04 #@! TO.C,D10*
X132445000Y-86070000D02*
X132445000Y-82170000D01*
X130445000Y-86070000D02*
X132445000Y-86070000D01*
X130445000Y-82170000D02*
X130445000Y-86070000D01*
G04 #@! TO.C,D11*
X133080000Y-100040000D02*
X133080000Y-96140000D01*
X131080000Y-100040000D02*
X133080000Y-100040000D01*
X131080000Y-96140000D02*
X131080000Y-100040000D01*
G04 #@! TO.C,D12*
X133080000Y-119395000D02*
X133080000Y-115495000D01*
X131080000Y-119395000D02*
X133080000Y-119395000D01*
X131080000Y-115495000D02*
X131080000Y-119395000D01*
G04 #@! TO.C,D13*
X153400000Y-62485000D02*
X153400000Y-58585000D01*
X151400000Y-62485000D02*
X153400000Y-62485000D01*
X151400000Y-58585000D02*
X151400000Y-62485000D01*
G04 #@! TO.C,D14*
X152130000Y-86070000D02*
X152130000Y-82170000D01*
X150130000Y-86070000D02*
X152130000Y-86070000D01*
X150130000Y-82170000D02*
X150130000Y-86070000D01*
G04 #@! TO.C,D15*
X152130000Y-98135000D02*
X152130000Y-94235000D01*
X150130000Y-98135000D02*
X152130000Y-98135000D01*
X150130000Y-94235000D02*
X150130000Y-98135000D01*
G04 #@! TO.C,D16*
X152130000Y-116855000D02*
X152130000Y-112955000D01*
X150130000Y-116855000D02*
X152130000Y-116855000D01*
X150130000Y-112955000D02*
X150130000Y-116855000D01*
G04 #@! TO.C,D17*
X171180000Y-62245000D02*
X171180000Y-58345000D01*
X169180000Y-62245000D02*
X171180000Y-62245000D01*
X169180000Y-58345000D02*
X169180000Y-62245000D01*
G04 #@! TO.C,D18*
X171180000Y-81625000D02*
X171180000Y-77725000D01*
X169180000Y-81625000D02*
X171180000Y-81625000D01*
X169180000Y-77725000D02*
X169180000Y-81625000D01*
G04 #@! TO.C,D19*
X171180000Y-100130000D02*
X171180000Y-96230000D01*
X169180000Y-100130000D02*
X171180000Y-100130000D01*
X169180000Y-96230000D02*
X169180000Y-100130000D01*
G04 #@! TO.C,D20*
X180070000Y-118365000D02*
X180070000Y-114465000D01*
X178070000Y-118365000D02*
X180070000Y-118365000D01*
X178070000Y-114465000D02*
X178070000Y-118365000D01*
G04 #@! TO.C,D21*
X190230000Y-64640000D02*
X190230000Y-60740000D01*
X188230000Y-64640000D02*
X190230000Y-64640000D01*
X188230000Y-60740000D02*
X188230000Y-64640000D01*
G04 #@! TO.C,D22*
X190230000Y-83530000D02*
X190230000Y-79630000D01*
X188230000Y-83530000D02*
X190230000Y-83530000D01*
X188230000Y-79630000D02*
X188230000Y-83530000D01*
G04 #@! TO.C,D23*
X190230000Y-101785000D02*
X190230000Y-97885000D01*
X188230000Y-101785000D02*
X190230000Y-101785000D01*
X188230000Y-97885000D02*
X188230000Y-101785000D01*
G04 #@! TO.C,D24*
X183880000Y-118150000D02*
X183880000Y-114250000D01*
X181880000Y-118150000D02*
X183880000Y-118150000D01*
X181880000Y-114250000D02*
X181880000Y-118150000D01*
G04 #@! TO.C,D25*
X197300000Y-77200000D02*
X201200000Y-77200000D01*
X197300000Y-75200000D02*
X197300000Y-77200000D01*
X201200000Y-75200000D02*
X197300000Y-75200000D01*
G04 #@! TO.C,D26*
X198500000Y-94980000D02*
X202400000Y-94980000D01*
X198500000Y-92980000D02*
X198500000Y-94980000D01*
X202400000Y-92980000D02*
X198500000Y-92980000D01*
G04 #@! TO.C,D27*
X198410000Y-97520000D02*
X202310000Y-97520000D01*
X198410000Y-95520000D02*
X198410000Y-97520000D01*
X202310000Y-95520000D02*
X198410000Y-95520000D01*
G04 #@! TO.C,D28*
X155940000Y-116879999D02*
X155940000Y-112979999D01*
X153940000Y-116879999D02*
X155940000Y-116879999D01*
X153940000Y-112979999D02*
X153940000Y-116879999D01*
D14*
G04 #@! TO.C,R10*
X88257748Y-55297000D02*
X88780252Y-55297000D01*
X88257748Y-56717000D02*
X88780252Y-56717000D01*
G04 #@! TO.C,J3*
X196275000Y-55600000D02*
X206875000Y-55600000D01*
X194875000Y-55600000D02*
X194775000Y-55600000D01*
X195975000Y-49400000D02*
X194775000Y-49400000D01*
X199975000Y-49400000D02*
X197375000Y-49400000D01*
X202975000Y-49400000D02*
X201375000Y-49400000D01*
X206875000Y-49400000D02*
X204375000Y-49400000D01*
X194775000Y-55600000D02*
X194775000Y-49400000D01*
X206875000Y-49400000D02*
X206875000Y-50000000D01*
X206875000Y-55000000D02*
X206875000Y-55600000D01*
X208875000Y-50000000D02*
X208875000Y-55000000D01*
X206875000Y-50000000D02*
X208875000Y-50000000D01*
X206875000Y-55000000D02*
X208875000Y-55000000D01*
G04 #@! TO.C,U1*
D10*
X148019371Y-77944000D02*
X147919371Y-77977333D01*
X147886038Y-78010666D01*
X147852704Y-78077333D01*
X147852704Y-78177333D01*
X147886038Y-78244000D01*
X147919371Y-78277333D01*
X147986038Y-78310666D01*
X148252704Y-78310666D01*
X148252704Y-77610666D01*
X148019371Y-77610666D01*
X147952704Y-77644000D01*
X147919371Y-77677333D01*
X147886038Y-77744000D01*
X147886038Y-77810666D01*
X147919371Y-77877333D01*
X147952704Y-77910666D01*
X148019371Y-77944000D01*
X148252704Y-77944000D01*
X147219371Y-77610666D02*
X147552704Y-77610666D01*
X147586038Y-77944000D01*
X147552704Y-77910666D01*
X147486038Y-77877333D01*
X147319371Y-77877333D01*
X147252704Y-77910666D01*
X147219371Y-77944000D01*
X147186038Y-78010666D01*
X147186038Y-78177333D01*
X147219371Y-78244000D01*
X147252704Y-78277333D01*
X147319371Y-78310666D01*
X147486038Y-78310666D01*
X147552704Y-78277333D01*
X147586038Y-78244000D01*
X148019371Y-75404000D02*
X147919371Y-75437333D01*
X147886038Y-75470666D01*
X147852704Y-75537333D01*
X147852704Y-75637333D01*
X147886038Y-75704000D01*
X147919371Y-75737333D01*
X147986038Y-75770666D01*
X148252704Y-75770666D01*
X148252704Y-75070666D01*
X148019371Y-75070666D01*
X147952704Y-75104000D01*
X147919371Y-75137333D01*
X147886038Y-75204000D01*
X147886038Y-75270666D01*
X147919371Y-75337333D01*
X147952704Y-75370666D01*
X148019371Y-75404000D01*
X148252704Y-75404000D01*
X147252704Y-75304000D02*
X147252704Y-75770666D01*
X147419371Y-75037333D02*
X147586038Y-75537333D01*
X147152704Y-75537333D01*
X148219371Y-72864000D02*
X147986038Y-72864000D01*
X147886038Y-73230666D02*
X148219371Y-73230666D01*
X148219371Y-72530666D01*
X147886038Y-72530666D01*
X147286038Y-72530666D02*
X147419371Y-72530666D01*
X147486038Y-72564000D01*
X147519371Y-72597333D01*
X147586038Y-72697333D01*
X147619371Y-72830666D01*
X147619371Y-73097333D01*
X147586038Y-73164000D01*
X147552704Y-73197333D01*
X147486038Y-73230666D01*
X147352704Y-73230666D01*
X147286038Y-73197333D01*
X147252704Y-73164000D01*
X147219371Y-73097333D01*
X147219371Y-72930666D01*
X147252704Y-72864000D01*
X147286038Y-72830666D01*
X147352704Y-72797333D01*
X147486038Y-72797333D01*
X147552704Y-72830666D01*
X147586038Y-72864000D01*
X147619371Y-72930666D01*
X148252704Y-70690666D02*
X148252704Y-69990666D01*
X148086038Y-69990666D01*
X147986038Y-70024000D01*
X147919371Y-70090666D01*
X147886038Y-70157333D01*
X147852704Y-70290666D01*
X147852704Y-70390666D01*
X147886038Y-70524000D01*
X147919371Y-70590666D01*
X147986038Y-70657333D01*
X148086038Y-70690666D01*
X148252704Y-70690666D01*
X147619371Y-69990666D02*
X147152704Y-69990666D01*
X147452704Y-70690666D01*
X147852704Y-68084000D02*
X147886038Y-68117333D01*
X147986038Y-68150666D01*
X148052704Y-68150666D01*
X148152704Y-68117333D01*
X148219371Y-68050666D01*
X148252704Y-67984000D01*
X148286038Y-67850666D01*
X148286038Y-67750666D01*
X148252704Y-67617333D01*
X148219371Y-67550666D01*
X148152704Y-67484000D01*
X148052704Y-67450666D01*
X147986038Y-67450666D01*
X147886038Y-67484000D01*
X147852704Y-67517333D01*
X147252704Y-67450666D02*
X147386038Y-67450666D01*
X147452704Y-67484000D01*
X147486038Y-67517333D01*
X147552704Y-67617333D01*
X147586038Y-67750666D01*
X147586038Y-68017333D01*
X147552704Y-68084000D01*
X147519371Y-68117333D01*
X147452704Y-68150666D01*
X147319371Y-68150666D01*
X147252704Y-68117333D01*
X147219371Y-68084000D01*
X147186038Y-68017333D01*
X147186038Y-67850666D01*
X147219371Y-67784000D01*
X147252704Y-67750666D01*
X147319371Y-67717333D01*
X147452704Y-67717333D01*
X147519371Y-67750666D01*
X147552704Y-67784000D01*
X147586038Y-67850666D01*
X148252704Y-65610666D02*
X148252704Y-64910666D01*
X148086038Y-64910666D01*
X147986038Y-64944000D01*
X147919371Y-65010666D01*
X147886038Y-65077333D01*
X147852704Y-65210666D01*
X147852704Y-65310666D01*
X147886038Y-65444000D01*
X147919371Y-65510666D01*
X147986038Y-65577333D01*
X148086038Y-65610666D01*
X148252704Y-65610666D01*
X147252704Y-65144000D02*
X147252704Y-65610666D01*
X147419371Y-64877333D02*
X147586038Y-65377333D01*
X147152704Y-65377333D01*
X148252704Y-63070666D02*
X148252704Y-62370666D01*
X148086038Y-62370666D01*
X147986038Y-62404000D01*
X147919371Y-62470666D01*
X147886038Y-62537333D01*
X147852704Y-62670666D01*
X147852704Y-62770666D01*
X147886038Y-62904000D01*
X147919371Y-62970666D01*
X147986038Y-63037333D01*
X148086038Y-63070666D01*
X148252704Y-63070666D01*
X147419371Y-62370666D02*
X147352704Y-62370666D01*
X147286038Y-62404000D01*
X147252704Y-62437333D01*
X147219371Y-62504000D01*
X147186038Y-62637333D01*
X147186038Y-62804000D01*
X147219371Y-62937333D01*
X147252704Y-63004000D01*
X147286038Y-63037333D01*
X147352704Y-63070666D01*
X147419371Y-63070666D01*
X147486038Y-63037333D01*
X147519371Y-63004000D01*
X147552704Y-62937333D01*
X147586038Y-62804000D01*
X147586038Y-62637333D01*
X147552704Y-62504000D01*
X147519371Y-62437333D01*
X147486038Y-62404000D01*
X147419371Y-62370666D01*
X148252704Y-60530666D02*
X148252704Y-59830666D01*
X148086038Y-59830666D01*
X147986038Y-59864000D01*
X147919371Y-59930666D01*
X147886038Y-59997333D01*
X147852704Y-60130666D01*
X147852704Y-60230666D01*
X147886038Y-60364000D01*
X147919371Y-60430666D01*
X147986038Y-60497333D01*
X148086038Y-60530666D01*
X148252704Y-60530666D01*
X147186038Y-60530666D02*
X147586038Y-60530666D01*
X147386038Y-60530666D02*
X147386038Y-59830666D01*
X147452704Y-59930666D01*
X147519371Y-59997333D01*
X147586038Y-60030666D01*
X147761371Y-57324000D02*
X147828038Y-57290666D01*
X147928038Y-57290666D01*
X148028038Y-57324000D01*
X148094704Y-57390666D01*
X148128038Y-57457333D01*
X148161371Y-57590666D01*
X148161371Y-57690666D01*
X148128038Y-57824000D01*
X148094704Y-57890666D01*
X148028038Y-57957333D01*
X147928038Y-57990666D01*
X147861371Y-57990666D01*
X147761371Y-57957333D01*
X147728038Y-57924000D01*
X147728038Y-57690666D01*
X147861371Y-57690666D01*
X147428038Y-57990666D02*
X147428038Y-57290666D01*
X147028038Y-57990666D01*
X147028038Y-57290666D01*
X146694704Y-57990666D02*
X146694704Y-57290666D01*
X146528038Y-57290666D01*
X146428038Y-57324000D01*
X146361371Y-57390666D01*
X146328038Y-57457333D01*
X146294704Y-57590666D01*
X146294704Y-57690666D01*
X146328038Y-57824000D01*
X146361371Y-57890666D01*
X146428038Y-57957333D01*
X146528038Y-57990666D01*
X146694704Y-57990666D01*
X147761371Y-54784000D02*
X147828038Y-54750666D01*
X147928038Y-54750666D01*
X148028038Y-54784000D01*
X148094704Y-54850666D01*
X148128038Y-54917333D01*
X148161371Y-55050666D01*
X148161371Y-55150666D01*
X148128038Y-55284000D01*
X148094704Y-55350666D01*
X148028038Y-55417333D01*
X147928038Y-55450666D01*
X147861371Y-55450666D01*
X147761371Y-55417333D01*
X147728038Y-55384000D01*
X147728038Y-55150666D01*
X147861371Y-55150666D01*
X147428038Y-55450666D02*
X147428038Y-54750666D01*
X147028038Y-55450666D01*
X147028038Y-54750666D01*
X146694704Y-55450666D02*
X146694704Y-54750666D01*
X146528038Y-54750666D01*
X146428038Y-54784000D01*
X146361371Y-54850666D01*
X146328038Y-54917333D01*
X146294704Y-55050666D01*
X146294704Y-55150666D01*
X146328038Y-55284000D01*
X146361371Y-55350666D01*
X146428038Y-55417333D01*
X146528038Y-55450666D01*
X146694704Y-55450666D01*
X148252704Y-52910666D02*
X148252704Y-52210666D01*
X148086038Y-52210666D01*
X147986038Y-52244000D01*
X147919371Y-52310666D01*
X147886038Y-52377333D01*
X147852704Y-52510666D01*
X147852704Y-52610666D01*
X147886038Y-52744000D01*
X147919371Y-52810666D01*
X147986038Y-52877333D01*
X148086038Y-52910666D01*
X148252704Y-52910666D01*
X147586038Y-52277333D02*
X147552704Y-52244000D01*
X147486038Y-52210666D01*
X147319371Y-52210666D01*
X147252704Y-52244000D01*
X147219371Y-52277333D01*
X147186038Y-52344000D01*
X147186038Y-52410666D01*
X147219371Y-52510666D01*
X147619371Y-52910666D01*
X147186038Y-52910666D01*
X148252704Y-50370666D02*
X148252704Y-49670666D01*
X148086038Y-49670666D01*
X147986038Y-49704000D01*
X147919371Y-49770666D01*
X147886038Y-49837333D01*
X147852704Y-49970666D01*
X147852704Y-50070666D01*
X147886038Y-50204000D01*
X147919371Y-50270666D01*
X147986038Y-50337333D01*
X148086038Y-50370666D01*
X148252704Y-50370666D01*
X147619371Y-49670666D02*
X147186038Y-49670666D01*
X147419371Y-49937333D01*
X147319371Y-49937333D01*
X147252704Y-49970666D01*
X147219371Y-50004000D01*
X147186038Y-50070666D01*
X147186038Y-50237333D01*
X147219371Y-50304000D01*
X147252704Y-50337333D01*
X147319371Y-50370666D01*
X147519371Y-50370666D01*
X147586038Y-50337333D01*
X147619371Y-50304000D01*
X135827371Y-77944000D02*
X135727371Y-77977333D01*
X135694038Y-78010666D01*
X135660704Y-78077333D01*
X135660704Y-78177333D01*
X135694038Y-78244000D01*
X135727371Y-78277333D01*
X135794038Y-78310666D01*
X136060704Y-78310666D01*
X136060704Y-77610666D01*
X135827371Y-77610666D01*
X135760704Y-77644000D01*
X135727371Y-77677333D01*
X135694038Y-77744000D01*
X135694038Y-77810666D01*
X135727371Y-77877333D01*
X135760704Y-77910666D01*
X135827371Y-77944000D01*
X136060704Y-77944000D01*
X135060704Y-77610666D02*
X135194038Y-77610666D01*
X135260704Y-77644000D01*
X135294038Y-77677333D01*
X135360704Y-77777333D01*
X135394038Y-77910666D01*
X135394038Y-78177333D01*
X135360704Y-78244000D01*
X135327371Y-78277333D01*
X135260704Y-78310666D01*
X135127371Y-78310666D01*
X135060704Y-78277333D01*
X135027371Y-78244000D01*
X134994038Y-78177333D01*
X134994038Y-78010666D01*
X135027371Y-77944000D01*
X135060704Y-77910666D01*
X135127371Y-77877333D01*
X135260704Y-77877333D01*
X135327371Y-77910666D01*
X135360704Y-77944000D01*
X135394038Y-78010666D01*
X135827371Y-75404000D02*
X135727371Y-75437333D01*
X135694038Y-75470666D01*
X135660704Y-75537333D01*
X135660704Y-75637333D01*
X135694038Y-75704000D01*
X135727371Y-75737333D01*
X135794038Y-75770666D01*
X136060704Y-75770666D01*
X136060704Y-75070666D01*
X135827371Y-75070666D01*
X135760704Y-75104000D01*
X135727371Y-75137333D01*
X135694038Y-75204000D01*
X135694038Y-75270666D01*
X135727371Y-75337333D01*
X135760704Y-75370666D01*
X135827371Y-75404000D01*
X136060704Y-75404000D01*
X135394038Y-75137333D02*
X135360704Y-75104000D01*
X135294038Y-75070666D01*
X135127371Y-75070666D01*
X135060704Y-75104000D01*
X135027371Y-75137333D01*
X134994038Y-75204000D01*
X134994038Y-75270666D01*
X135027371Y-75370666D01*
X135427371Y-75770666D01*
X134994038Y-75770666D01*
X135827371Y-72864000D02*
X135727371Y-72897333D01*
X135694038Y-72930666D01*
X135660704Y-72997333D01*
X135660704Y-73097333D01*
X135694038Y-73164000D01*
X135727371Y-73197333D01*
X135794038Y-73230666D01*
X136060704Y-73230666D01*
X136060704Y-72530666D01*
X135827371Y-72530666D01*
X135760704Y-72564000D01*
X135727371Y-72597333D01*
X135694038Y-72664000D01*
X135694038Y-72730666D01*
X135727371Y-72797333D01*
X135760704Y-72830666D01*
X135827371Y-72864000D01*
X136060704Y-72864000D01*
X135427371Y-72530666D02*
X134994038Y-72530666D01*
X135227371Y-72797333D01*
X135127371Y-72797333D01*
X135060704Y-72830666D01*
X135027371Y-72864000D01*
X134994038Y-72930666D01*
X134994038Y-73097333D01*
X135027371Y-73164000D01*
X135060704Y-73197333D01*
X135127371Y-73230666D01*
X135327371Y-73230666D01*
X135394038Y-73197333D01*
X135427371Y-73164000D01*
X135827371Y-70324000D02*
X135727371Y-70357333D01*
X135694038Y-70390666D01*
X135660704Y-70457333D01*
X135660704Y-70557333D01*
X135694038Y-70624000D01*
X135727371Y-70657333D01*
X135794038Y-70690666D01*
X136060704Y-70690666D01*
X136060704Y-69990666D01*
X135827371Y-69990666D01*
X135760704Y-70024000D01*
X135727371Y-70057333D01*
X135694038Y-70124000D01*
X135694038Y-70190666D01*
X135727371Y-70257333D01*
X135760704Y-70290666D01*
X135827371Y-70324000D01*
X136060704Y-70324000D01*
X134994038Y-70690666D02*
X135394038Y-70690666D01*
X135194038Y-70690666D02*
X135194038Y-69990666D01*
X135260704Y-70090666D01*
X135327371Y-70157333D01*
X135394038Y-70190666D01*
X135777371Y-65244000D02*
X136010704Y-65244000D01*
X136010704Y-65610666D02*
X136010704Y-64910666D01*
X135677371Y-64910666D01*
X135110704Y-64910666D02*
X135244038Y-64910666D01*
X135310704Y-64944000D01*
X135344038Y-64977333D01*
X135410704Y-65077333D01*
X135444038Y-65210666D01*
X135444038Y-65477333D01*
X135410704Y-65544000D01*
X135377371Y-65577333D01*
X135310704Y-65610666D01*
X135177371Y-65610666D01*
X135110704Y-65577333D01*
X135077371Y-65544000D01*
X135044038Y-65477333D01*
X135044038Y-65310666D01*
X135077371Y-65244000D01*
X135110704Y-65210666D01*
X135177371Y-65177333D01*
X135310704Y-65177333D01*
X135377371Y-65210666D01*
X135410704Y-65244000D01*
X135444038Y-65310666D01*
X135777371Y-67784000D02*
X136010704Y-67784000D01*
X136010704Y-68150666D02*
X136010704Y-67450666D01*
X135677371Y-67450666D01*
X135477371Y-67450666D02*
X135010704Y-67450666D01*
X135310704Y-68150666D01*
X135777371Y-62704000D02*
X136010704Y-62704000D01*
X136010704Y-63070666D02*
X136010704Y-62370666D01*
X135677371Y-62370666D01*
X135077371Y-62370666D02*
X135410704Y-62370666D01*
X135444038Y-62704000D01*
X135410704Y-62670666D01*
X135344038Y-62637333D01*
X135177371Y-62637333D01*
X135110704Y-62670666D01*
X135077371Y-62704000D01*
X135044038Y-62770666D01*
X135044038Y-62937333D01*
X135077371Y-63004000D01*
X135110704Y-63037333D01*
X135177371Y-63070666D01*
X135344038Y-63070666D01*
X135410704Y-63037333D01*
X135444038Y-63004000D01*
X135777371Y-60164000D02*
X136010704Y-60164000D01*
X136010704Y-60530666D02*
X136010704Y-59830666D01*
X135677371Y-59830666D01*
X135110704Y-60064000D02*
X135110704Y-60530666D01*
X135277371Y-59797333D02*
X135444038Y-60297333D01*
X135010704Y-60297333D01*
X136985371Y-57290666D02*
X136752038Y-57990666D01*
X136518704Y-57290666D01*
X135885371Y-57924000D02*
X135918704Y-57957333D01*
X136018704Y-57990666D01*
X136085371Y-57990666D01*
X136185371Y-57957333D01*
X136252038Y-57890666D01*
X136285371Y-57824000D01*
X136318704Y-57690666D01*
X136318704Y-57590666D01*
X136285371Y-57457333D01*
X136252038Y-57390666D01*
X136185371Y-57324000D01*
X136085371Y-57290666D01*
X136018704Y-57290666D01*
X135918704Y-57324000D01*
X135885371Y-57357333D01*
X135185371Y-57924000D02*
X135218704Y-57957333D01*
X135318704Y-57990666D01*
X135385371Y-57990666D01*
X135485371Y-57957333D01*
X135552038Y-57890666D01*
X135585371Y-57824000D01*
X135618704Y-57690666D01*
X135618704Y-57590666D01*
X135585371Y-57457333D01*
X135552038Y-57390666D01*
X135485371Y-57324000D01*
X135385371Y-57290666D01*
X135318704Y-57290666D01*
X135218704Y-57324000D01*
X135185371Y-57357333D01*
X136435371Y-55450666D02*
X136668704Y-55117333D01*
X136835371Y-55450666D02*
X136835371Y-54750666D01*
X136568704Y-54750666D01*
X136502038Y-54784000D01*
X136468704Y-54817333D01*
X136435371Y-54884000D01*
X136435371Y-54984000D01*
X136468704Y-55050666D01*
X136502038Y-55084000D01*
X136568704Y-55117333D01*
X136835371Y-55117333D01*
X136168704Y-55417333D02*
X136068704Y-55450666D01*
X135902038Y-55450666D01*
X135835371Y-55417333D01*
X135802038Y-55384000D01*
X135768704Y-55317333D01*
X135768704Y-55250666D01*
X135802038Y-55184000D01*
X135835371Y-55150666D01*
X135902038Y-55117333D01*
X136035371Y-55084000D01*
X136102038Y-55050666D01*
X136135371Y-55017333D01*
X136168704Y-54950666D01*
X136168704Y-54884000D01*
X136135371Y-54817333D01*
X136102038Y-54784000D01*
X136035371Y-54750666D01*
X135868704Y-54750666D01*
X135768704Y-54784000D01*
X135568704Y-54750666D02*
X135168704Y-54750666D01*
X135368704Y-55450666D02*
X135368704Y-54750666D01*
X136585371Y-52244000D02*
X136652038Y-52210666D01*
X136752038Y-52210666D01*
X136852038Y-52244000D01*
X136918704Y-52310666D01*
X136952038Y-52377333D01*
X136985371Y-52510666D01*
X136985371Y-52610666D01*
X136952038Y-52744000D01*
X136918704Y-52810666D01*
X136852038Y-52877333D01*
X136752038Y-52910666D01*
X136685371Y-52910666D01*
X136585371Y-52877333D01*
X136552038Y-52844000D01*
X136552038Y-52610666D01*
X136685371Y-52610666D01*
X136252038Y-52910666D02*
X136252038Y-52210666D01*
X135852038Y-52910666D01*
X135852038Y-52210666D01*
X135518704Y-52910666D02*
X135518704Y-52210666D01*
X135352038Y-52210666D01*
X135252038Y-52244000D01*
X135185371Y-52310666D01*
X135152038Y-52377333D01*
X135118704Y-52510666D01*
X135118704Y-52610666D01*
X135152038Y-52744000D01*
X135185371Y-52810666D01*
X135252038Y-52877333D01*
X135352038Y-52910666D01*
X135518704Y-52910666D01*
X137043371Y-50624666D02*
X137276704Y-50291333D01*
X137443371Y-50624666D02*
X137443371Y-49924666D01*
X137176704Y-49924666D01*
X137110038Y-49958000D01*
X137076704Y-49991333D01*
X137043371Y-50058000D01*
X137043371Y-50158000D01*
X137076704Y-50224666D01*
X137110038Y-50258000D01*
X137176704Y-50291333D01*
X137443371Y-50291333D01*
X136776704Y-50424666D02*
X136443371Y-50424666D01*
X136843371Y-50624666D02*
X136610038Y-49924666D01*
X136376704Y-50624666D01*
X136210038Y-49924666D02*
X136043371Y-50624666D01*
X135910038Y-50124666D01*
X135776704Y-50624666D01*
X135610038Y-49924666D01*
G04 #@! TO.C,J4*
D12*
X103959676Y-53152614D02*
X103851442Y-53882498D01*
X103500099Y-53233650D01*
X102986365Y-53967339D02*
X103024980Y-53994377D01*
X103129249Y-54009840D01*
X103194903Y-53998263D01*
X103287596Y-53948071D01*
X103341673Y-53870841D01*
X103362923Y-53799399D01*
X103372597Y-53662303D01*
X103355232Y-53563822D01*
X103299252Y-53438303D01*
X103254849Y-53378437D01*
X103177618Y-53324360D01*
X103073349Y-53308898D01*
X103007695Y-53320474D01*
X102915003Y-53370666D01*
X102887964Y-53409281D01*
X102296999Y-54088893D02*
X102335615Y-54115931D01*
X102439884Y-54131393D01*
X102505538Y-54119817D01*
X102598230Y-54069625D01*
X102652307Y-53992395D01*
X102673558Y-53920952D01*
X102683232Y-53783857D01*
X102665867Y-53685376D01*
X102609887Y-53559856D01*
X102565483Y-53499991D01*
X102488253Y-53445913D01*
X102383984Y-53430451D01*
X102318330Y-53442028D01*
X102225638Y-53492220D01*
X102198599Y-53530835D01*
X93565895Y-55019165D02*
X93625761Y-54974762D01*
X93724242Y-54957397D01*
X93828511Y-54972859D01*
X93905741Y-55026937D01*
X93950145Y-55086802D01*
X94006125Y-55212322D01*
X94023490Y-55310802D01*
X94013816Y-55447898D01*
X93992565Y-55519340D01*
X93938488Y-55596571D01*
X93845796Y-55646763D01*
X93780142Y-55658339D01*
X93675873Y-55642877D01*
X93637257Y-55615838D01*
X93596740Y-55386050D01*
X93728047Y-55362897D01*
X93353392Y-55733587D02*
X93231838Y-55044221D01*
X92959469Y-55803046D01*
X92837915Y-55113680D01*
X92631199Y-55860929D02*
X92509646Y-55171563D01*
X92345511Y-55200505D01*
X92252818Y-55250696D01*
X92198741Y-55327927D01*
X92177491Y-55399369D01*
X92167817Y-55536465D01*
X92185182Y-55634946D01*
X92241162Y-55760465D01*
X92285565Y-55820331D01*
X92362796Y-55874408D01*
X92467065Y-55889870D01*
X92631199Y-55860929D01*
X96035351Y-55260685D02*
X96207256Y-54891898D01*
X96429274Y-55191226D02*
X96307720Y-54501860D01*
X96045105Y-54548167D01*
X95985239Y-54592570D01*
X95958200Y-54631185D01*
X95936950Y-54702627D01*
X95954315Y-54801108D01*
X95998718Y-54860974D01*
X96037334Y-54888012D01*
X96108776Y-54909263D01*
X96371391Y-54862957D01*
X95766947Y-55274164D02*
X95674255Y-55324356D01*
X95510120Y-55353298D01*
X95438678Y-55332047D01*
X95400063Y-55305008D01*
X95355659Y-55245143D01*
X95344083Y-55179489D01*
X95365333Y-55108047D01*
X95392372Y-55069432D01*
X95452237Y-55025028D01*
X95577757Y-54969048D01*
X95637622Y-54924645D01*
X95664661Y-54886030D01*
X95685911Y-54814587D01*
X95674335Y-54748934D01*
X95629931Y-54689068D01*
X95591316Y-54662029D01*
X95519874Y-54640779D01*
X95355739Y-54669720D01*
X95263047Y-54719912D01*
X95060297Y-54721815D02*
X94666374Y-54791274D01*
X94984889Y-55445910D02*
X94863335Y-54756544D01*
X106746777Y-53371971D02*
X106625223Y-52682606D01*
X106482259Y-53215528D01*
X106165646Y-52763642D01*
X106287200Y-53453007D01*
X105958930Y-53510890D02*
X105837377Y-52821524D01*
X105657700Y-53530157D02*
X105565007Y-53580349D01*
X105400873Y-53609290D01*
X105329431Y-53588040D01*
X105290815Y-53561001D01*
X105246412Y-53501136D01*
X105234835Y-53435482D01*
X105256086Y-53364040D01*
X105283124Y-53325425D01*
X105342990Y-53281021D01*
X105468509Y-53225041D01*
X105528375Y-53180638D01*
X105555414Y-53142023D01*
X105576664Y-53070580D01*
X105565087Y-53004927D01*
X105520684Y-52945061D01*
X105482069Y-52918022D01*
X105410627Y-52896772D01*
X105246492Y-52925713D01*
X105153800Y-52975905D01*
X104721261Y-53018326D02*
X104589954Y-53041479D01*
X104530088Y-53085882D01*
X104476011Y-53163113D01*
X104466337Y-53300209D01*
X104506855Y-53529997D01*
X104562835Y-53655517D01*
X104640065Y-53709594D01*
X104711507Y-53730844D01*
X104842815Y-53707691D01*
X104902681Y-53663288D01*
X104956758Y-53586057D01*
X104966432Y-53448961D01*
X104925914Y-53219173D01*
X104869934Y-53093653D01*
X104792703Y-53039576D01*
X104721261Y-53018326D01*
X101541204Y-54256007D02*
X101448511Y-54306199D01*
X101284377Y-54335140D01*
X101212935Y-54313890D01*
X101174319Y-54286851D01*
X101129916Y-54226985D01*
X101118339Y-54161332D01*
X101139590Y-54089890D01*
X101166628Y-54051274D01*
X101226494Y-54006871D01*
X101352013Y-53950891D01*
X101411879Y-53906487D01*
X101438918Y-53867872D01*
X101460168Y-53796430D01*
X101448591Y-53730776D01*
X101404188Y-53670911D01*
X101365573Y-53643872D01*
X101294131Y-53622622D01*
X101129996Y-53651563D01*
X101037304Y-53701755D01*
X100452127Y-54414193D02*
X100490742Y-54441232D01*
X100595011Y-54456694D01*
X100660665Y-54445117D01*
X100753358Y-54394926D01*
X100807435Y-54317695D01*
X100828685Y-54246253D01*
X100838359Y-54109157D01*
X100820994Y-54010676D01*
X100765014Y-53885157D01*
X100720611Y-53825291D01*
X100643380Y-53771214D01*
X100539111Y-53755752D01*
X100473458Y-53767328D01*
X100380765Y-53817520D01*
X100353726Y-53856135D01*
X100168261Y-54531941D02*
X100046707Y-53842576D01*
X99774338Y-54601401D02*
X100000321Y-54155383D01*
X99652784Y-53912035D02*
X100116167Y-54236499D01*
X99242542Y-54695170D02*
X99120988Y-54005805D01*
X98978024Y-54538727D01*
X98661411Y-54086841D01*
X98782965Y-54776206D01*
X98201834Y-54167876D02*
X98070526Y-54191030D01*
X98010661Y-54235433D01*
X97956583Y-54312663D01*
X97946910Y-54449759D01*
X97987427Y-54679548D01*
X98043407Y-54805067D01*
X98120638Y-54859145D01*
X98192080Y-54880395D01*
X98323388Y-54857242D01*
X98383253Y-54812838D01*
X98437331Y-54735608D01*
X98447004Y-54598512D01*
X98406487Y-54368724D01*
X98350507Y-54243204D01*
X98273276Y-54189127D01*
X98201834Y-54167876D01*
X97759542Y-54922816D02*
X97666849Y-54973007D01*
X97502715Y-55001949D01*
X97431272Y-54980698D01*
X97392657Y-54953660D01*
X97348254Y-54893794D01*
X97336677Y-54828140D01*
X97357928Y-54756698D01*
X97384966Y-54718083D01*
X97444832Y-54673679D01*
X97570351Y-54617699D01*
X97630217Y-54573296D01*
X97657256Y-54534681D01*
X97678506Y-54463239D01*
X97666929Y-54397585D01*
X97622526Y-54337719D01*
X97583911Y-54310681D01*
X97512469Y-54289430D01*
X97348334Y-54318372D01*
X97255641Y-54368563D01*
X97075965Y-55077196D02*
X96954411Y-54387831D01*
G04 #@! TO.C,SW4*
X122962333Y-52271761D02*
X122819476Y-52319380D01*
X122581380Y-52319380D01*
X122486142Y-52271761D01*
X122438523Y-52224142D01*
X122390904Y-52128904D01*
X122390904Y-52033666D01*
X122438523Y-51938428D01*
X122486142Y-51890809D01*
X122581380Y-51843190D01*
X122771857Y-51795571D01*
X122867095Y-51747952D01*
X122914714Y-51700333D01*
X122962333Y-51605095D01*
X122962333Y-51509857D01*
X122914714Y-51414619D01*
X122867095Y-51367000D01*
X122771857Y-51319380D01*
X122533761Y-51319380D01*
X122390904Y-51367000D01*
X122057571Y-51319380D02*
X121819476Y-52319380D01*
X121629000Y-51605095D01*
X121438523Y-52319380D01*
X121200428Y-51319380D01*
X120390904Y-51652714D02*
X120390904Y-52319380D01*
X120629000Y-51271761D02*
X120867095Y-51986047D01*
X120248047Y-51986047D01*
G04 #@! TO.C,C1*
D10*
X180742857Y-120536857D02*
X180778571Y-120572571D01*
X180885714Y-120608285D01*
X180957142Y-120608285D01*
X181064285Y-120572571D01*
X181135714Y-120501142D01*
X181171428Y-120429714D01*
X181207142Y-120286857D01*
X181207142Y-120179714D01*
X181171428Y-120036857D01*
X181135714Y-119965428D01*
X181064285Y-119894000D01*
X180957142Y-119858285D01*
X180885714Y-119858285D01*
X180778571Y-119894000D01*
X180742857Y-119929714D01*
G04 #@! TO.C,C2*
X184552857Y-56147857D02*
X184588571Y-56183571D01*
X184695714Y-56219285D01*
X184767142Y-56219285D01*
X184874285Y-56183571D01*
X184945714Y-56112142D01*
X184981428Y-56040714D01*
X185017142Y-55897857D01*
X185017142Y-55790714D01*
X184981428Y-55647857D01*
X184945714Y-55576428D01*
X184874285Y-55505000D01*
X184767142Y-55469285D01*
X184695714Y-55469285D01*
X184588571Y-55505000D01*
X184552857Y-55540714D01*
G04 #@! TO.C,C3*
X125870857Y-58779142D02*
X125906571Y-58743428D01*
X125942285Y-58636285D01*
X125942285Y-58564857D01*
X125906571Y-58457714D01*
X125835142Y-58386285D01*
X125763714Y-58350571D01*
X125620857Y-58314857D01*
X125513714Y-58314857D01*
X125370857Y-58350571D01*
X125299428Y-58386285D01*
X125228000Y-58457714D01*
X125192285Y-58564857D01*
X125192285Y-58636285D01*
X125228000Y-58743428D01*
X125263714Y-58779142D01*
G04 #@! TO.C,C4*
X179599857Y-90437857D02*
X179635571Y-90473571D01*
X179742714Y-90509285D01*
X179814142Y-90509285D01*
X179921285Y-90473571D01*
X179992714Y-90402142D01*
X180028428Y-90330714D01*
X180064142Y-90187857D01*
X180064142Y-90080714D01*
X180028428Y-89937857D01*
X179992714Y-89866428D01*
X179921285Y-89795000D01*
X179814142Y-89759285D01*
X179742714Y-89759285D01*
X179635571Y-89795000D01*
X179599857Y-89830714D01*
G04 #@! TO.C,C5*
X179590857Y-71387857D02*
X179626571Y-71423571D01*
X179733714Y-71459285D01*
X179805142Y-71459285D01*
X179912285Y-71423571D01*
X179983714Y-71352142D01*
X180019428Y-71280714D01*
X180055142Y-71137857D01*
X180055142Y-71030714D01*
X180019428Y-70887857D01*
X179983714Y-70816428D01*
X179912285Y-70745000D01*
X179805142Y-70709285D01*
X179733714Y-70709285D01*
X179626571Y-70745000D01*
X179590857Y-70780714D01*
G04 #@! TO.C,C6*
X126124857Y-78972142D02*
X126160571Y-78936428D01*
X126196285Y-78829285D01*
X126196285Y-78757857D01*
X126160571Y-78650714D01*
X126089142Y-78579285D01*
X126017714Y-78543571D01*
X125874857Y-78507857D01*
X125767714Y-78507857D01*
X125624857Y-78543571D01*
X125553428Y-78579285D01*
X125482000Y-78650714D01*
X125446285Y-78757857D01*
X125446285Y-78829285D01*
X125482000Y-78936428D01*
X125517714Y-78972142D01*
G04 #@! TO.C,C7*
X107074857Y-62090141D02*
X107110571Y-62054427D01*
X107146285Y-61947284D01*
X107146285Y-61875856D01*
X107110571Y-61768713D01*
X107039142Y-61697284D01*
X106967714Y-61661570D01*
X106824857Y-61625856D01*
X106717714Y-61625856D01*
X106574857Y-61661570D01*
X106503428Y-61697284D01*
X106432000Y-61768713D01*
X106396285Y-61875856D01*
X106396285Y-61947284D01*
X106432000Y-62054427D01*
X106467714Y-62090141D01*
G04 #@! TO.C,C8*
X167407857Y-107963857D02*
X167443571Y-107999571D01*
X167550714Y-108035285D01*
X167622142Y-108035285D01*
X167729285Y-107999571D01*
X167800714Y-107928142D01*
X167836428Y-107856714D01*
X167872142Y-107713857D01*
X167872142Y-107606714D01*
X167836428Y-107463857D01*
X167800714Y-107392428D01*
X167729285Y-107321000D01*
X167622142Y-107285285D01*
X167550714Y-107285285D01*
X167443571Y-107321000D01*
X167407857Y-107356714D01*
G04 #@! TO.C,C9*
X160431857Y-87897857D02*
X160467571Y-87933571D01*
X160574714Y-87969285D01*
X160646142Y-87969285D01*
X160753285Y-87933571D01*
X160824714Y-87862142D01*
X160860428Y-87790714D01*
X160896142Y-87647857D01*
X160896142Y-87540714D01*
X160860428Y-87397857D01*
X160824714Y-87326428D01*
X160753285Y-87255000D01*
X160646142Y-87219285D01*
X160574714Y-87219285D01*
X160467571Y-87255000D01*
X160431857Y-87290714D01*
G04 #@! TO.C,C10*
X84476857Y-73673857D02*
X84512571Y-73709571D01*
X84619714Y-73745285D01*
X84691142Y-73745285D01*
X84798285Y-73709571D01*
X84869714Y-73638142D01*
X84905428Y-73566714D01*
X84941142Y-73423857D01*
X84941142Y-73316714D01*
X84905428Y-73173857D01*
X84869714Y-73102428D01*
X84798285Y-73031000D01*
X84691142Y-72995285D01*
X84619714Y-72995285D01*
X84512571Y-73031000D01*
X84476857Y-73066714D01*
G04 #@! TO.C,C11*
X161057857Y-68847857D02*
X161093571Y-68883571D01*
X161200714Y-68919285D01*
X161272142Y-68919285D01*
X161379285Y-68883571D01*
X161450714Y-68812142D01*
X161486428Y-68740714D01*
X161522142Y-68597857D01*
X161522142Y-68490714D01*
X161486428Y-68347857D01*
X161450714Y-68276428D01*
X161379285Y-68205000D01*
X161272142Y-68169285D01*
X161200714Y-68169285D01*
X161093571Y-68205000D01*
X161057857Y-68240714D01*
G04 #@! TO.C,C12*
X84213857Y-92850857D02*
X84249571Y-92886571D01*
X84356714Y-92922285D01*
X84428142Y-92922285D01*
X84535285Y-92886571D01*
X84606714Y-92815142D01*
X84642428Y-92743714D01*
X84678142Y-92600857D01*
X84678142Y-92493714D01*
X84642428Y-92350857D01*
X84606714Y-92279428D01*
X84535285Y-92208000D01*
X84428142Y-92172285D01*
X84356714Y-92172285D01*
X84249571Y-92208000D01*
X84213857Y-92243714D01*
G04 #@! TO.C,C13*
X141490857Y-104788857D02*
X141526571Y-104824571D01*
X141633714Y-104860285D01*
X141705142Y-104860285D01*
X141812285Y-104824571D01*
X141883714Y-104753142D01*
X141919428Y-104681714D01*
X141955142Y-104538857D01*
X141955142Y-104431714D01*
X141919428Y-104288857D01*
X141883714Y-104217428D01*
X141812285Y-104146000D01*
X141705142Y-104110285D01*
X141633714Y-104110285D01*
X141526571Y-104146000D01*
X141490857Y-104181714D01*
G04 #@! TO.C,C14*
X141245857Y-66434857D02*
X141281571Y-66470571D01*
X141388714Y-66506285D01*
X141460142Y-66506285D01*
X141567285Y-66470571D01*
X141638714Y-66399142D01*
X141674428Y-66327714D01*
X141710142Y-66184857D01*
X141710142Y-66077714D01*
X141674428Y-65934857D01*
X141638714Y-65863428D01*
X141567285Y-65792000D01*
X141460142Y-65756285D01*
X141388714Y-65756285D01*
X141281571Y-65792000D01*
X141245857Y-65827714D01*
G04 #@! TO.C,C15*
X143023857Y-49797857D02*
X143059571Y-49833571D01*
X143166714Y-49869285D01*
X143238142Y-49869285D01*
X143345285Y-49833571D01*
X143416714Y-49762142D01*
X143452428Y-49690714D01*
X143488142Y-49547857D01*
X143488142Y-49440714D01*
X143452428Y-49297857D01*
X143416714Y-49226428D01*
X143345285Y-49155000D01*
X143238142Y-49119285D01*
X143166714Y-49119285D01*
X143059571Y-49155000D01*
X143023857Y-49190714D01*
G04 #@! TO.C,C16*
X107327857Y-72784857D02*
X107363571Y-72820571D01*
X107470714Y-72856285D01*
X107542142Y-72856285D01*
X107649285Y-72820571D01*
X107720714Y-72749142D01*
X107756428Y-72677714D01*
X107792142Y-72534857D01*
X107792142Y-72427714D01*
X107756428Y-72284857D01*
X107720714Y-72213428D01*
X107649285Y-72142000D01*
X107542142Y-72106285D01*
X107470714Y-72106285D01*
X107363571Y-72142000D01*
X107327857Y-72177714D01*
G04 #@! TO.C,C17*
X160422857Y-50051857D02*
X160458571Y-50087571D01*
X160565714Y-50123285D01*
X160637142Y-50123285D01*
X160744285Y-50087571D01*
X160815714Y-50016142D01*
X160851428Y-49944714D01*
X160887142Y-49801857D01*
X160887142Y-49694714D01*
X160851428Y-49551857D01*
X160815714Y-49480428D01*
X160744285Y-49409000D01*
X160637142Y-49373285D01*
X160565714Y-49373285D01*
X160458571Y-49409000D01*
X160422857Y-49444714D01*
G04 #@! TO.C,C18*
X84340857Y-111900857D02*
X84376571Y-111936571D01*
X84483714Y-111972285D01*
X84555142Y-111972285D01*
X84662285Y-111936571D01*
X84733714Y-111865142D01*
X84769428Y-111793714D01*
X84805142Y-111650857D01*
X84805142Y-111543714D01*
X84769428Y-111400857D01*
X84733714Y-111329428D01*
X84662285Y-111258000D01*
X84555142Y-111222285D01*
X84483714Y-111222285D01*
X84376571Y-111258000D01*
X84340857Y-111293714D01*
G04 #@! TO.C,C19*
X103526857Y-90437857D02*
X103562571Y-90473571D01*
X103669714Y-90509285D01*
X103741142Y-90509285D01*
X103848285Y-90473571D01*
X103919714Y-90402142D01*
X103955428Y-90330714D01*
X103991142Y-90187857D01*
X103991142Y-90080714D01*
X103955428Y-89937857D01*
X103919714Y-89866428D01*
X103848285Y-89795000D01*
X103741142Y-89759285D01*
X103669714Y-89759285D01*
X103562571Y-89795000D01*
X103526857Y-89830714D01*
G04 #@! TO.C,C20*
X141762857Y-85484857D02*
X141798571Y-85520571D01*
X141905714Y-85556285D01*
X141977142Y-85556285D01*
X142084285Y-85520571D01*
X142155714Y-85449142D01*
X142191428Y-85377714D01*
X142227142Y-85234857D01*
X142227142Y-85127714D01*
X142191428Y-84984857D01*
X142155714Y-84913428D01*
X142084285Y-84842000D01*
X141977142Y-84806285D01*
X141905714Y-84806285D01*
X141798571Y-84842000D01*
X141762857Y-84877714D01*
G04 #@! TO.C,C21*
X192672857Y-100308142D02*
X192708571Y-100272428D01*
X192744285Y-100165285D01*
X192744285Y-100093857D01*
X192708571Y-99986714D01*
X192637142Y-99915285D01*
X192565714Y-99879571D01*
X192422857Y-99843857D01*
X192315714Y-99843857D01*
X192172857Y-99879571D01*
X192101428Y-99915285D01*
X192030000Y-99986714D01*
X191994285Y-100093857D01*
X191994285Y-100165285D01*
X192030000Y-100272428D01*
X192065714Y-100308142D01*
G04 #@! TO.C,C22*
X121696857Y-106947857D02*
X121732571Y-106983571D01*
X121839714Y-107019285D01*
X121911142Y-107019285D01*
X122018285Y-106983571D01*
X122089714Y-106912142D01*
X122125428Y-106840714D01*
X122161142Y-106697857D01*
X122161142Y-106590714D01*
X122125428Y-106447857D01*
X122089714Y-106376428D01*
X122018285Y-106305000D01*
X121911142Y-106269285D01*
X121839714Y-106269285D01*
X121732571Y-106305000D01*
X121696857Y-106340714D01*
G04 #@! TO.C,C23*
X203348857Y-79642857D02*
X203384571Y-79678571D01*
X203491714Y-79714285D01*
X203563142Y-79714285D01*
X203670285Y-79678571D01*
X203741714Y-79607142D01*
X203777428Y-79535714D01*
X203813142Y-79392857D01*
X203813142Y-79285714D01*
X203777428Y-79142857D01*
X203741714Y-79071428D01*
X203670285Y-79000000D01*
X203563142Y-78964285D01*
X203491714Y-78964285D01*
X203384571Y-79000000D01*
X203348857Y-79035714D01*
G04 #@! TO.C,C24*
X83959857Y-55512857D02*
X83995571Y-55548571D01*
X84102714Y-55584285D01*
X84174142Y-55584285D01*
X84281285Y-55548571D01*
X84352714Y-55477142D01*
X84388428Y-55405714D01*
X84424142Y-55262857D01*
X84424142Y-55155714D01*
X84388428Y-55012857D01*
X84352714Y-54941428D01*
X84281285Y-54870000D01*
X84174142Y-54834285D01*
X84102714Y-54834285D01*
X83995571Y-54870000D01*
X83959857Y-54905714D01*
G04 #@! TO.C,C25*
X121433857Y-88278857D02*
X121469571Y-88314571D01*
X121576714Y-88350285D01*
X121648142Y-88350285D01*
X121755285Y-88314571D01*
X121826714Y-88243142D01*
X121862428Y-88171714D01*
X121898142Y-88028857D01*
X121898142Y-87921714D01*
X121862428Y-87778857D01*
X121826714Y-87707428D01*
X121755285Y-87636000D01*
X121648142Y-87600285D01*
X121576714Y-87600285D01*
X121469571Y-87636000D01*
X121433857Y-87671714D01*
G04 #@! TO.C,C26*
X203602857Y-60211857D02*
X203638571Y-60247571D01*
X203745714Y-60283285D01*
X203817142Y-60283285D01*
X203924285Y-60247571D01*
X203995714Y-60176142D01*
X204031428Y-60104714D01*
X204067142Y-59961857D01*
X204067142Y-59854714D01*
X204031428Y-59711857D01*
X203995714Y-59640428D01*
X203924285Y-59569000D01*
X203817142Y-59533285D01*
X203745714Y-59533285D01*
X203638571Y-59569000D01*
X203602857Y-59604714D01*
G04 #@! TO.C,C27*
X103145857Y-110503857D02*
X103181571Y-110539571D01*
X103288714Y-110575285D01*
X103360142Y-110575285D01*
X103467285Y-110539571D01*
X103538714Y-110468142D01*
X103574428Y-110396714D01*
X103610142Y-110253857D01*
X103610142Y-110146714D01*
X103574428Y-110003857D01*
X103538714Y-109932428D01*
X103467285Y-109861000D01*
X103360142Y-109825285D01*
X103288714Y-109825285D01*
X103181571Y-109861000D01*
X103145857Y-109896714D01*
G04 #@! TD*
M02*
