  0
SECTION
  2
HEADER
  9
$ACADVER
  1
AC1009
  9
$EXTMIN
 10
0.0
 20
0.0
 30
0.0
  9
$EXTMAX
 10
1000.0
 20
1000.0
 30
0.0
  9
$FILLMODE
 70
 0
  9
$SPLFRAME
 70
 1
  0
ENDSEC
  0
SECTION
  2
TABLES
  0
TABLE
  2
LAYER
 70
1
  0
LAYER
  2
0
 70
     0
 62
     7
  6
CONTINUOUS
  0
ENDTAB
  0
ENDSEC
  0
SECTION
  2
ENTITIES
  0
LINE
  8
0
 62
     0
 10
0.0950846
 20
91.9977
 30
0.0
 11
138.122
 21
91.9977
 31
0.0
  0
LINE
  8
0
 62
     0
 10
138.122
 20
91.9977
 30
0.0
 11
138.122
 21
0.0854385
 31
0.0
  0
LINE
  8
0
 62
     0
 10
138.122
 20
0.0854385
 30
0.0
 11
0.0950846
 21
0.0854385
 31
0.0
  0
LINE
  8
0
 62
     0
 10
0.0950846
 20
0.0854385
 30
0.0
 11
0.0950846
 21
91.9977
 31
0.0
  0
LINE
  8
0
 62
     0
 10
122.334
 20
35.8468
 30
0.0
 11
121.536
 21
36.3086
 31
0.0
  0
LINE
  8
0
 62
     0
 10
121.536
 20
36.3086
 30
0.0
 11
119.887
 21
33.4505
 31
0.0
  0
LINE
  8
0
 62
     0
 10
119.887
 20
33.4505
 30
0.0
 11
120.683
 21
32.9902
 31
0.0
  0
LINE
  8
0
 62
     0
 10
120.683
 20
32.9902
 30
0.0
 11
119.82
 21
31.4965
 31
0.0
  0
LINE
  8
0
 62
     0
 10
119.82
 20
31.4965
 30
0.0
 11
122.618
 21
29.88
 31
0.0
  0
LINE
  8
0
 62
     0
 10
122.618
 20
29.88
 30
0.0
 11
121.854
 21
28.5612
 31
0.0
  0
LINE
  8
0
 62
     0
 10
121.854
 20
28.5612
 30
0.0
 11
117.785
 21
30.9094
 31
0.0
  0
LINE
  8
0
 62
     0
 10
117.785
 20
30.9094
 30
0.0
 11
110.785
 21
18.7868
 31
0.0
  0
LINE
  8
0
 62
     0
 10
110.785
 20
18.7868
 30
0.0
 11
114.855
 21
16.4358
 31
0.0
  0
LINE
  8
0
 62
     0
 10
114.855
 20
16.4358
 30
0.0
 11
114.093
 21
15.1157
 31
0.0
  0
LINE
  8
0
 62
     0
 10
114.093
 20
15.1157
 30
0.0
 11
111.296
 21
16.7308
 31
0.0
  0
LINE
  8
0
 62
     0
 10
111.296
 20
16.7308
 30
0.0
 11
110.433
 21
15.237
 31
0.0
  0
LINE
  8
0
 62
     0
 10
110.433
 20
15.237
 30
0.0
 11
109.637
 21
15.6959
 31
0.0
  0
LINE
  8
0
 62
     0
 10
109.637
 20
15.6959
 30
0.0
 11
107.987
 21
12.8392
 31
0.0
  0
LINE
  8
0
 62
     0
 10
107.987
 20
12.8392
 30
0.0
 11
108.784
 21
12.3789
 31
0.0
  0
LINE
  8
0
 62
     0
 10
108.784
 20
12.3789
 30
0.0
 11
107.921
 21
10.8851
 31
0.0
  0
LINE
  8
0
 62
     0
 10
107.921
 20
10.8851
 30
0.0
 11
110.717
 21
9.27005
 31
0.0
  0
LINE
  8
0
 62
     0
 10
110.717
 20
9.27005
 30
0.0
 11
110.305
 21
8.55486
 31
0.0
  0
LINE
  8
0
 62
     0
 10
110.305
 20
8.55486
 30
0.0
 11
112.73
 21
7.15479
 31
0.0
  0
LINE
  8
0
 62
     0
 10
112.73
 20
7.15479
 30
0.0
 11
113.143
 21
7.86998
 31
0.0
  0
LINE
  8
0
 62
     0
 10
113.143
 20
7.86998
 30
0.0
 11
118.573
 21
4.73495
 31
0.0
  0
LINE
  8
0
 62
     0
 10
118.573
 20
4.73495
 30
0.0
 11
119.436
 21
6.22875
 31
0.0
  0
LINE
  8
0
 62
     0
 10
119.436
 20
6.22875
 30
0.0
 11
120.283
 21
5.73814
 31
0.0
  0
LINE
  8
0
 62
     0
 10
120.283
 20
5.73814
 30
0.0
 11
121.934
 21
8.59483
 31
0.0
  0
LINE
  8
0
 62
     0
 10
121.934
 20
8.59483
 30
0.0
 11
121.085
 21
9.08678
 31
0.0
  0
LINE
  8
0
 62
     0
 10
121.085
 20
9.08678
 30
0.0
 11
121.948
 21
10.5806
 31
0.0
  0
LINE
  8
0
 62
     0
 10
121.948
 20
10.5806
 30
0.0
 11
118.077
 21
12.8144
 31
0.0
  0
LINE
  8
0
 62
     0
 10
118.077
 20
12.8144
 30
0.0
 11
118.839
 21
14.1359
 31
0.0
  0
LINE
  8
0
 62
     0
 10
118.839
 20
14.1359
 30
0.0
 11
122.91
 21
11.785
 31
0.0
  0
LINE
  8
0
 62
     0
 10
122.91
 20
11.785
 30
0.0
 11
129.91
 21
23.9103
 31
0.0
  0
LINE
  8
0
 62
     0
 10
129.91
 20
23.9103
 30
0.0
 11
125.838
 21
26.2599
 31
0.0
  0
LINE
  8
0
 62
     0
 10
125.838
 20
26.2599
 30
0.0
 11
126.602
 21
27.5814
 31
0.0
  0
LINE
  8
0
 62
     0
 10
126.602
 20
27.5814
 30
0.0
 11
130.473
 21
25.3463
 31
0.0
  0
LINE
  8
0
 62
     0
 10
130.473
 20
25.3463
 30
0.0
 11
131.335
 21
26.84
 31
0.0
  0
LINE
  8
0
 62
     0
 10
131.335
 20
26.84
 30
0.0
 11
132.184
 21
26.3508
 31
0.0
  0
LINE
  8
0
 62
     0
 10
132.184
 20
26.3508
 30
0.0
 11
133.834
 21
29.2089
 31
0.0
  0
LINE
  8
0
 62
     0
 10
133.834
 20
29.2089
 30
0.0
 11
132.986
 21
29.6981
 31
0.0
  0
LINE
  8
0
 62
     0
 10
132.986
 20
29.6981
 30
0.0
 11
133.847
 21
31.1919
 31
0.0
  0
LINE
  8
0
 62
     0
 10
133.847
 20
31.1919
 30
0.0
 11
128.418
 21
34.3269
 31
0.0
  0
LINE
  8
0
 62
     0
 10
128.418
 20
34.3269
 30
0.0
 11
128.831
 21
35.0421
 31
0.0
  0
LINE
  8
0
 62
     0
 10
128.831
 20
35.0421
 30
0.0
 11
126.406
 21
36.4423
 31
0.0
  0
LINE
  8
0
 62
     0
 10
126.406
 20
36.4423
 30
0.0
 11
125.993
 21
35.7269
 31
0.0
  0
LINE
  8
0
 62
     0
 10
125.993
 20
35.7269
 30
0.0
 11
123.195
 21
37.3422
 31
0.0
  0
LINE
  8
0
 62
     0
 10
123.195
 20
37.3422
 30
0.0
 11
122.334
 21
35.8468
 31
0.0
  0
LINE
  8
0
 62
     0
 10
2.61965
 20
25.1809
 30
0.0
 11
16.6192
 21
25.1809
 31
0.0
  0
LINE
  8
0
 62
     0
 10
16.6192
 20
25.1809
 30
0.0
 11
16.6192
 21
11.18
 31
0.0
  0
LINE
  8
0
 62
     0
 10
16.6192
 20
11.18
 30
0.0
 11
2.61965
 21
11.18
 31
0.0
  0
LINE
  8
0
 62
     0
 10
2.61965
 20
11.18
 30
0.0
 11
2.61965
 21
25.1809
 31
0.0
  0
LINE
  8
0
 62
     0
 10
84.2603
 20
15.2342
 30
0.0
 11
98.0475
 21
12.8034
 31
0.0
  0
LINE
  8
0
 62
     0
 10
98.0475
 20
12.8034
 30
0.0
 11
100.478
 21
26.5906
 31
0.0
  0
LINE
  8
0
 62
     0
 10
100.478
 20
26.5906
 30
0.0
 11
86.6909
 21
29.0215
 31
0.0
  0
LINE
  8
0
 62
     0
 10
86.6909
 20
29.0215
 30
0.0
 11
84.2603
 21
15.2342
 31
0.0
  0
LINE
  8
0
 62
     0
 10
21.6697
 20
27.5621
 30
0.0
 11
35.669
 21
27.5621
 31
0.0
  0
LINE
  8
0
 62
     0
 10
35.669
 20
27.5621
 30
0.0
 11
35.669
 21
13.5613
 31
0.0
  0
LINE
  8
0
 62
     0
 10
35.669
 20
13.5613
 30
0.0
 11
21.6697
 21
13.5613
 31
0.0
  0
LINE
  8
0
 62
     0
 10
21.6697
 20
13.5613
 30
0.0
 11
21.6697
 21
27.5621
 31
0.0
  0
LINE
  8
0
 62
     0
 10
40.7197
 20
29.8483
 30
0.0
 11
54.719
 21
29.8483
 31
0.0
  0
LINE
  8
0
 62
     0
 10
54.719
 20
29.8483
 30
0.0
 11
54.719
 21
15.8488
 31
0.0
  0
LINE
  8
0
 62
     0
 10
54.719
 20
15.8488
 30
0.0
 11
40.7197
 21
15.8488
 31
0.0
  0
LINE
  8
0
 62
     0
 10
40.7197
 20
15.8488
 30
0.0
 11
40.7197
 21
29.8483
 31
0.0
  0
LINE
  8
0
 62
     0
 10
59.7697
 20
32.3246
 30
0.0
 11
73.769
 21
32.3246
 31
0.0
  0
LINE
  8
0
 62
     0
 10
73.769
 20
32.3246
 30
0.0
 11
73.769
 21
18.3238
 31
0.0
  0
LINE
  8
0
 62
     0
 10
73.769
 20
18.3238
 30
0.0
 11
59.7697
 21
18.3238
 31
0.0
  0
LINE
  8
0
 62
     0
 10
59.7697
 20
18.3238
 30
0.0
 11
59.7697
 21
32.3246
 31
0.0
  0
LINE
  8
0
 62
     0
 10
2.61965
 20
44.2309
 30
0.0
 11
16.6192
 21
44.2309
 31
0.0
  0
LINE
  8
0
 62
     0
 10
16.6192
 20
44.2309
 30
0.0
 11
16.6192
 21
30.23
 31
0.0
  0
LINE
  8
0
 62
     0
 10
16.6192
 20
30.23
 30
0.0
 11
2.61965
 21
30.23
 31
0.0
  0
LINE
  8
0
 62
     0
 10
2.61965
 20
30.23
 30
0.0
 11
2.61965
 21
44.2309
 31
0.0
  0
LINE
  8
0
 62
     0
 10
21.6697
 20
46.6122
 30
0.0
 11
35.669
 21
46.6122
 31
0.0
  0
LINE
  8
0
 62
     0
 10
35.669
 20
46.6122
 30
0.0
 11
35.669
 21
32.6113
 31
0.0
  0
LINE
  8
0
 62
     0
 10
35.669
 20
32.6113
 30
0.0
 11
21.6697
 21
32.6113
 31
0.0
  0
LINE
  8
0
 62
     0
 10
21.6697
 20
32.6113
 30
0.0
 11
21.6697
 21
46.6122
 31
0.0
  0
LINE
  8
0
 62
     0
 10
97.8697
 20
46.6122
 30
0.0
 11
111.869
 21
46.6122
 31
0.0
  0
LINE
  8
0
 62
     0
 10
111.869
 20
46.6122
 30
0.0
 11
111.869
 21
32.6113
 31
0.0
  0
LINE
  8
0
 62
     0
 10
111.869
 20
32.6113
 30
0.0
 11
97.8697
 21
32.6113
 31
0.0
  0
LINE
  8
0
 62
     0
 10
97.8697
 20
32.6113
 30
0.0
 11
97.8697
 21
46.6122
 31
0.0
  0
LINE
  8
0
 62
     0
 10
40.7197
 20
48.9934
 30
0.0
 11
54.719
 21
48.9934
 31
0.0
  0
LINE
  8
0
 62
     0
 10
54.719
 20
48.9934
 30
0.0
 11
54.719
 21
34.9925
 31
0.0
  0
LINE
  8
0
 62
     0
 10
54.719
 20
34.9925
 30
0.0
 11
40.7197
 21
34.9925
 31
0.0
  0
LINE
  8
0
 62
     0
 10
40.7197
 20
34.9925
 30
0.0
 11
40.7197
 21
48.9934
 31
0.0
  0
LINE
  8
0
 62
     0
 10
78.8197
 20
48.9934
 30
0.0
 11
92.819
 21
48.9934
 31
0.0
  0
LINE
  8
0
 62
     0
 10
92.819
 20
48.9934
 30
0.0
 11
92.819
 21
34.9925
 31
0.0
  0
LINE
  8
0
 62
     0
 10
92.819
 20
34.9925
 30
0.0
 11
78.8197
 21
34.9925
 31
0.0
  0
LINE
  8
0
 62
     0
 10
78.8197
 20
34.9925
 30
0.0
 11
78.8197
 21
48.9934
 31
0.0
  0
LINE
  8
0
 62
     0
 10
59.7697
 20
51.3747
 30
0.0
 11
73.769
 21
51.3747
 31
0.0
  0
LINE
  8
0
 62
     0
 10
73.769
 20
51.3747
 30
0.0
 11
73.769
 21
37.3736
 31
0.0
  0
LINE
  8
0
 62
     0
 10
73.769
 20
37.3736
 30
0.0
 11
59.7697
 21
37.3736
 31
0.0
  0
LINE
  8
0
 62
     0
 10
59.7697
 20
37.3736
 30
0.0
 11
59.7697
 21
51.3747
 31
0.0
  0
LINE
  8
0
 62
     0
 10
116.92
 20
60.8997
 30
0.0
 11
130.919
 21
60.8997
 31
0.0
  0
LINE
  8
0
 62
     0
 10
130.919
 20
60.8997
 30
0.0
 11
130.919
 21
46.8986
 31
0.0
  0
LINE
  8
0
 62
     0
 10
130.919
 20
46.8986
 30
0.0
 11
116.92
 21
46.8986
 31
0.0
  0
LINE
  8
0
 62
     0
 10
116.92
 20
46.8986
 30
0.0
 11
116.92
 21
60.8997
 31
0.0
  0
LINE
  8
0
 62
     0
 10
2.61965
 20
63.2809
 30
0.0
 11
16.6192
 21
63.2809
 31
0.0
  0
LINE
  8
0
 62
     0
 10
16.6192
 20
63.2809
 30
0.0
 11
16.6192
 21
49.2799
 31
0.0
  0
LINE
  8
0
 62
     0
 10
16.6192
 20
49.2799
 30
0.0
 11
2.61965
 21
49.2799
 31
0.0
  0
LINE
  8
0
 62
     0
 10
2.61965
 20
49.2799
 30
0.0
 11
2.61965
 21
63.2809
 31
0.0
  0
LINE
  8
0
 62
     0
 10
21.6697
 20
65.6622
 30
0.0
 11
35.669
 21
65.6622
 31
0.0
  0
LINE
  8
0
 62
     0
 10
35.669
 20
65.6622
 30
0.0
 11
35.669
 21
51.6611
 31
0.0
  0
LINE
  8
0
 62
     0
 10
35.669
 20
51.6611
 30
0.0
 11
21.6697
 21
51.6611
 31
0.0
  0
LINE
  8
0
 62
     0
 10
21.6697
 20
51.6611
 30
0.0
 11
21.6697
 21
65.6622
 31
0.0
  0
LINE
  8
0
 62
     0
 10
97.8697
 20
65.6622
 30
0.0
 11
111.869
 21
65.6622
 31
0.0
  0
LINE
  8
0
 62
     0
 10
111.869
 20
65.6622
 30
0.0
 11
111.869
 21
51.6611
 31
0.0
  0
LINE
  8
0
 62
     0
 10
111.869
 20
51.6611
 30
0.0
 11
97.8697
 21
51.6611
 31
0.0
  0
LINE
  8
0
 62
     0
 10
97.8697
 20
51.6611
 30
0.0
 11
97.8697
 21
65.6622
 31
0.0
  0
LINE
  8
0
 62
     0
 10
40.7197
 20
68.0434
 30
0.0
 11
54.719
 21
68.0434
 31
0.0
  0
LINE
  8
0
 62
     0
 10
54.719
 20
68.0434
 30
0.0
 11
54.719
 21
54.0424
 31
0.0
  0
LINE
  8
0
 62
     0
 10
54.719
 20
54.0424
 30
0.0
 11
40.7197
 21
54.0424
 31
0.0
  0
LINE
  8
0
 62
     0
 10
40.7197
 20
54.0424
 30
0.0
 11
40.7197
 21
68.0434
 31
0.0
  0
LINE
  8
0
 62
     0
 10
78.8197
 20
68.0434
 30
0.0
 11
92.819
 21
68.0434
 31
0.0
  0
LINE
  8
0
 62
     0
 10
92.819
 20
68.0434
 30
0.0
 11
92.819
 21
54.0424
 31
0.0
  0
LINE
  8
0
 62
     0
 10
92.819
 20
54.0424
 30
0.0
 11
78.8197
 21
54.0424
 31
0.0
  0
LINE
  8
0
 62
     0
 10
78.8197
 20
54.0424
 30
0.0
 11
78.8197
 21
68.0434
 31
0.0
  0
LINE
  8
0
 62
     0
 10
59.7697
 20
70.4247
 30
0.0
 11
73.769
 21
70.4247
 31
0.0
  0
LINE
  8
0
 62
     0
 10
73.769
 20
70.4247
 30
0.0
 11
73.769
 21
56.4236
 31
0.0
  0
LINE
  8
0
 62
     0
 10
73.769
 20
56.4236
 30
0.0
 11
59.7697
 21
56.4236
 31
0.0
  0
LINE
  8
0
 62
     0
 10
59.7697
 20
56.4236
 30
0.0
 11
59.7697
 21
70.4247
 31
0.0
  0
LINE
  8
0
 62
     0
 10
116.92
 20
79.9497
 30
0.0
 11
130.919
 21
79.9497
 31
0.0
  0
LINE
  8
0
 62
     0
 10
130.919
 20
79.9497
 30
0.0
 11
130.919
 21
65.9486
 31
0.0
  0
LINE
  8
0
 62
     0
 10
130.919
 20
65.9486
 30
0.0
 11
116.92
 21
65.9486
 31
0.0
  0
LINE
  8
0
 62
     0
 10
116.92
 20
65.9486
 30
0.0
 11
116.92
 21
79.9497
 31
0.0
  0
LINE
  8
0
 62
     0
 10
2.61965
 20
82.3309
 30
0.0
 11
16.6192
 21
82.3309
 31
0.0
  0
LINE
  8
0
 62
     0
 10
16.6192
 20
82.3309
 30
0.0
 11
16.6192
 21
68.3299
 31
0.0
  0
LINE
  8
0
 62
     0
 10
16.6192
 20
68.3299
 30
0.0
 11
2.61965
 21
68.3299
 31
0.0
  0
LINE
  8
0
 62
     0
 10
2.61965
 20
68.3299
 30
0.0
 11
2.61965
 21
82.3309
 31
0.0
  0
LINE
  8
0
 62
     0
 10
21.6697
 20
84.7122
 30
0.0
 11
35.669
 21
84.7122
 31
0.0
  0
LINE
  8
0
 62
     0
 10
35.669
 20
84.7122
 30
0.0
 11
35.669
 21
70.7111
 31
0.0
  0
LINE
  8
0
 62
     0
 10
35.669
 20
70.7111
 30
0.0
 11
21.6697
 21
70.7111
 31
0.0
  0
LINE
  8
0
 62
     0
 10
21.6697
 20
70.7111
 30
0.0
 11
21.6697
 21
84.7122
 31
0.0
  0
LINE
  8
0
 62
     0
 10
97.8697
 20
84.7122
 30
0.0
 11
111.869
 21
84.7122
 31
0.0
  0
LINE
  8
0
 62
     0
 10
111.869
 20
84.7122
 30
0.0
 11
111.869
 21
70.7111
 31
0.0
  0
LINE
  8
0
 62
     0
 10
111.869
 20
70.7111
 30
0.0
 11
97.8697
 21
70.7111
 31
0.0
  0
LINE
  8
0
 62
     0
 10
97.8697
 20
70.7111
 30
0.0
 11
97.8697
 21
84.7122
 31
0.0
  0
LINE
  8
0
 62
     0
 10
40.7197
 20
87.0934
 30
0.0
 11
54.719
 21
87.0934
 31
0.0
  0
LINE
  8
0
 62
     0
 10
54.719
 20
87.0934
 30
0.0
 11
54.719
 21
73.0924
 31
0.0
  0
LINE
  8
0
 62
     0
 10
54.719
 20
73.0924
 30
0.0
 11
40.7197
 21
73.0924
 31
0.0
  0
LINE
  8
0
 62
     0
 10
40.7197
 20
73.0924
 30
0.0
 11
40.7197
 21
87.0934
 31
0.0
  0
LINE
  8
0
 62
     0
 10
78.8197
 20
87.0934
 30
0.0
 11
92.819
 21
87.0934
 31
0.0
  0
LINE
  8
0
 62
     0
 10
92.819
 20
87.0934
 30
0.0
 11
92.819
 21
73.0924
 31
0.0
  0
LINE
  8
0
 62
     0
 10
92.819
 20
73.0924
 30
0.0
 11
78.8197
 21
73.0924
 31
0.0
  0
LINE
  8
0
 62
     0
 10
78.8197
 20
73.0924
 30
0.0
 11
78.8197
 21
87.0934
 31
0.0
  0
LINE
  8
0
 62
     0
 10
59.7697
 20
89.4747
 30
0.0
 11
73.769
 21
89.4747
 31
0.0
  0
LINE
  8
0
 62
     0
 10
73.769
 20
89.4747
 30
0.0
 11
73.769
 21
75.4736
 31
0.0
  0
LINE
  8
0
 62
     0
 10
73.769
 20
75.4736
 30
0.0
 11
59.7697
 21
75.4736
 31
0.0
  0
LINE
  8
0
 62
     0
 10
59.7697
 20
75.4736
 30
0.0
 11
59.7697
 21
89.4747
 31
0.0
  0
ENDSEC
  0
EOF
