  0
SECTION
  2
HEADER
  9
$ACADVER
  1
AC1009
  9
$EXTMIN
 10
0.0
 20
0.0
 30
0.0
  9
$EXTMAX
 10
1000.0
 20
1000.0
 30
0.0
  9
$FILLMODE
 70
 0
  9
$SPLFRAME
 70
 1
  0
ENDSEC
  0
SECTION
  2
TABLES
  0
TABLE
  2
LAYER
 70
1
  0
LAYER
  2
0
 70
     0
 62
     7
  6
CONTINUOUS
  0
ENDTAB
  0
ENDSEC
  0
SECTION
  2
ENTITIES
  0
LINE
  8
0
 62
     0
 10
0.0950846
 20
91.9977
 30
0.0
 11
138.122
 21
91.9977
 31
0.0
  0
LINE
  8
0
 62
     0
 10
138.122
 20
91.9977
 30
0.0
 11
138.122
 21
0.0854385
 31
0.0
  0
LINE
  8
0
 62
     0
 10
138.122
 20
0.0854385
 30
0.0
 11
0.0950846
 21
0.0854385
 31
0.0
  0
LINE
  8
0
 62
     0
 10
0.0950846
 20
0.0854385
 30
0.0
 11
0.0950846
 21
91.9977
 31
0.0
  0
LINE
  8
0
 62
     0
 10
122.334
 20
35.8468
 30
0.0
 11
121.536
 21
36.3086
 31
0.0
  0
LINE
  8
0
 62
     0
 10
121.536
 20
36.3086
 30
0.0
 11
119.887
 21
33.4505
 31
0.0
  0
LINE
  8
0
 62
     0
 10
119.887
 20
33.4505
 30
0.0
 11
120.683
 21
32.9902
 31
0.0
  0
LINE
  8
0
 62
     0
 10
120.683
 20
32.9902
 30
0.0
 11
119.82
 21
31.4965
 31
0.0
  0
LINE
  8
0
 62
     0
 10
119.82
 20
31.4965
 30
0.0
 11
122.618
 21
29.88
 31
0.0
  0
LINE
  8
0
 62
     0
 10
122.618
 20
29.88
 30
0.0
 11
121.854
 21
28.5612
 31
0.0
  0
LINE
  8
0
 62
     0
 10
121.854
 20
28.5612
 30
0.0
 11
121.336
 21
28.8603
 31
0.0
  0
LINE
  8
0
 62
     0
 10
121.336
 20
28.8603
 30
0.0
 11
121.736
 21
29.5534
 31
0.0
  0
LINE
  8
0
 62
     0
 10
121.736
 20
29.5534
 30
0.0
 11
119.05
 21
31.1037
 31
0.0
  0
LINE
  8
0
 62
     0
 10
119.05
 20
31.1037
 30
0.0
 11
118.65
 21
30.4092
 31
0.0
  0
LINE
  8
0
 62
     0
 10
118.65
 20
30.4092
 30
0.0
 11
117.785
 21
30.9094
 31
0.0
  0
LINE
  8
0
 62
     0
 10
117.785
 20
30.9094
 30
0.0
 11
110.785
 21
18.7868
 31
0.0
  0
LINE
  8
0
 62
     0
 10
110.785
 20
18.7868
 30
0.0
 11
111.651
 21
18.2866
 31
0.0
  0
LINE
  8
0
 62
     0
 10
111.651
 20
18.2866
 30
0.0
 11
111.25
 21
17.592
 31
0.0
  0
LINE
  8
0
 62
     0
 10
111.25
 20
17.592
 30
0.0
 11
113.936
 21
16.0431
 31
0.0
  0
LINE
  8
0
 62
     0
 10
113.936
 20
16.0431
 30
0.0
 11
114.336
 21
16.7363
 31
0.0
  0
LINE
  8
0
 62
     0
 10
114.336
 20
16.7363
 30
0.0
 11
114.855
 21
16.4358
 31
0.0
  0
LINE
  8
0
 62
     0
 10
114.855
 20
16.4358
 30
0.0
 11
114.093
 21
15.1157
 31
0.0
  0
LINE
  8
0
 62
     0
 10
114.093
 20
15.1157
 30
0.0
 11
111.296
 21
16.7308
 31
0.0
  0
LINE
  8
0
 62
     0
 10
111.296
 20
16.7308
 30
0.0
 11
110.433
 21
15.237
 31
0.0
  0
LINE
  8
0
 62
     0
 10
110.433
 20
15.237
 30
0.0
 11
109.637
 21
15.6959
 31
0.0
  0
LINE
  8
0
 62
     0
 10
109.637
 20
15.6959
 30
0.0
 11
107.987
 21
12.8392
 31
0.0
  0
LINE
  8
0
 62
     0
 10
107.987
 20
12.8392
 30
0.0
 11
108.784
 21
12.3789
 31
0.0
  0
LINE
  8
0
 62
     0
 10
108.784
 20
12.3789
 30
0.0
 11
107.921
 21
10.8851
 31
0.0
  0
LINE
  8
0
 62
     0
 10
107.921
 20
10.8851
 30
0.0
 11
110.717
 21
9.27005
 31
0.0
  0
LINE
  8
0
 62
     0
 10
110.717
 20
9.27005
 30
0.0
 11
110.305
 21
8.55486
 31
0.0
  0
LINE
  8
0
 62
     0
 10
110.305
 20
8.55486
 30
0.0
 11
112.73
 21
7.15479
 31
0.0
  0
LINE
  8
0
 62
     0
 10
112.73
 20
7.15479
 30
0.0
 11
113.143
 21
7.86998
 31
0.0
  0
LINE
  8
0
 62
     0
 10
113.143
 20
7.86998
 30
0.0
 11
118.573
 21
4.73495
 31
0.0
  0
LINE
  8
0
 62
     0
 10
118.573
 20
4.73495
 30
0.0
 11
119.436
 21
6.22875
 31
0.0
  0
LINE
  8
0
 62
     0
 10
119.436
 20
6.22875
 30
0.0
 11
120.283
 21
5.73814
 31
0.0
  0
LINE
  8
0
 62
     0
 10
120.283
 20
5.73814
 30
0.0
 11
121.934
 21
8.59483
 31
0.0
  0
LINE
  8
0
 62
     0
 10
121.934
 20
8.59483
 30
0.0
 11
121.085
 21
9.08678
 31
0.0
  0
LINE
  8
0
 62
     0
 10
121.085
 20
9.08678
 30
0.0
 11
121.948
 21
10.5806
 31
0.0
  0
LINE
  8
0
 62
     0
 10
121.948
 20
10.5806
 30
0.0
 11
118.077
 21
12.8144
 31
0.0
  0
LINE
  8
0
 62
     0
 10
118.077
 20
12.8144
 30
0.0
 11
118.839
 21
14.1359
 31
0.0
  0
LINE
  8
0
 62
     0
 10
118.839
 20
14.1359
 30
0.0
 11
119.359
 21
13.8369
 31
0.0
  0
LINE
  8
0
 62
     0
 10
119.359
 20
13.8369
 30
0.0
 11
118.959
 21
13.1437
 31
0.0
  0
LINE
  8
0
 62
     0
 10
118.959
 20
13.1437
 30
0.0
 11
121.643
 21
11.5934
 31
0.0
  0
LINE
  8
0
 62
     0
 10
121.643
 20
11.5934
 30
0.0
 11
122.043
 21
12.2852
 31
0.0
  0
LINE
  8
0
 62
     0
 10
122.043
 20
12.2852
 30
0.0
 11
122.91
 21
11.785
 31
0.0
  0
LINE
  8
0
 62
     0
 10
122.91
 20
11.785
 30
0.0
 11
129.91
 21
23.9103
 31
0.0
  0
LINE
  8
0
 62
     0
 10
129.91
 20
23.9103
 30
0.0
 11
129.044
 21
24.4106
 31
0.0
  0
LINE
  8
0
 62
     0
 10
129.044
 20
24.4106
 30
0.0
 11
129.443
 21
25.1024
 31
0.0
  0
LINE
  8
0
 62
     0
 10
129.443
 20
25.1024
 30
0.0
 11
126.759
 21
26.654
 31
0.0
  0
LINE
  8
0
 62
     0
 10
126.759
 20
26.654
 30
0.0
 11
126.359
 21
25.9608
 31
0.0
  0
LINE
  8
0
 62
     0
 10
126.359
 20
25.9608
 30
0.0
 11
125.838
 21
26.2599
 31
0.0
  0
LINE
  8
0
 62
     0
 10
125.838
 20
26.2599
 30
0.0
 11
126.602
 21
27.5814
 31
0.0
  0
LINE
  8
0
 62
     0
 10
126.602
 20
27.5814
 30
0.0
 11
130.473
 21
25.3463
 31
0.0
  0
LINE
  8
0
 62
     0
 10
130.473
 20
25.3463
 30
0.0
 11
131.335
 21
26.84
 31
0.0
  0
LINE
  8
0
 62
     0
 10
131.335
 20
26.84
 30
0.0
 11
132.184
 21
26.3508
 31
0.0
  0
LINE
  8
0
 62
     0
 10
132.184
 20
26.3508
 30
0.0
 11
133.834
 21
29.2089
 31
0.0
  0
LINE
  8
0
 62
     0
 10
133.834
 20
29.2089
 30
0.0
 11
132.986
 21
29.6981
 31
0.0
  0
LINE
  8
0
 62
     0
 10
132.986
 20
29.6981
 30
0.0
 11
133.847
 21
31.1919
 31
0.0
  0
LINE
  8
0
 62
     0
 10
133.847
 20
31.1919
 30
0.0
 11
128.418
 21
34.3269
 31
0.0
  0
LINE
  8
0
 62
     0
 10
128.418
 20
34.3269
 30
0.0
 11
128.831
 21
35.0421
 31
0.0
  0
LINE
  8
0
 62
     0
 10
128.831
 20
35.0421
 30
0.0
 11
126.406
 21
36.4423
 31
0.0
  0
LINE
  8
0
 62
     0
 10
126.406
 20
36.4423
 30
0.0
 11
125.993
 21
35.7269
 31
0.0
  0
LINE
  8
0
 62
     0
 10
125.993
 20
35.7269
 30
0.0
 11
123.195
 21
37.3422
 31
0.0
  0
LINE
  8
0
 62
     0
 10
123.195
 20
37.3422
 30
0.0
 11
122.334
 21
35.8468
 31
0.0
  0
LINE
  8
0
 62
     0
 10
2.61965
 20
25.1809
 30
0.0
 11
2.61965
 21
24.1818
 31
0.0
  0
LINE
  8
0
 62
     0
 10
2.61965
 20
24.1818
 30
0.0
 11
1.82039
 21
24.1818
 31
0.0
  0
LINE
  8
0
 62
     0
 10
1.82039
 20
24.1818
 30
0.0
 11
1.82039
 21
21.0812
 31
0.0
  0
LINE
  8
0
 62
     0
 10
1.82039
 20
21.0812
 30
0.0
 11
2.61965
 21
21.0812
 31
0.0
  0
LINE
  8
0
 62
     0
 10
2.61965
 20
21.0812
 30
0.0
 11
2.61965
 21
15.2811
 31
0.0
  0
LINE
  8
0
 62
     0
 10
2.61965
 20
15.2811
 30
0.0
 11
1.82039
 21
15.2811
 31
0.0
  0
LINE
  8
0
 62
     0
 10
1.82039
 20
15.2811
 30
0.0
 11
1.82039
 21
12.1819
 31
0.0
  0
LINE
  8
0
 62
     0
 10
1.82039
 20
12.1819
 30
0.0
 11
2.61965
 21
12.1819
 31
0.0
  0
LINE
  8
0
 62
     0
 10
2.61965
 20
12.1819
 30
0.0
 11
2.61965
 21
11.1814
 31
0.0
  0
LINE
  8
0
 62
     0
 10
2.61965
 20
11.1814
 30
0.0
 11
16.6192
 21
11.1814
 31
0.0
  0
LINE
  8
0
 62
     0
 10
16.6192
 20
11.1814
 30
0.0
 11
16.6192
 21
12.1819
 31
0.0
  0
LINE
  8
0
 62
     0
 10
16.6192
 20
12.1819
 30
0.0
 11
17.4198
 21
12.1819
 31
0.0
  0
LINE
  8
0
 62
     0
 10
17.4198
 20
12.1819
 30
0.0
 11
17.4198
 21
15.2811
 31
0.0
  0
LINE
  8
0
 62
     0
 10
17.4198
 20
15.2811
 30
0.0
 11
16.6192
 21
15.2811
 31
0.0
  0
LINE
  8
0
 62
     0
 10
16.6192
 20
15.2811
 30
0.0
 11
16.6192
 21
21.0812
 31
0.0
  0
LINE
  8
0
 62
     0
 10
16.6192
 20
21.0812
 30
0.0
 11
17.4198
 21
21.0812
 31
0.0
  0
LINE
  8
0
 62
     0
 10
17.4198
 20
21.0812
 30
0.0
 11
17.4198
 21
24.1818
 31
0.0
  0
LINE
  8
0
 62
     0
 10
17.4198
 20
24.1818
 30
0.0
 11
16.6192
 21
24.1818
 31
0.0
  0
LINE
  8
0
 62
     0
 10
16.6192
 20
24.1818
 30
0.0
 11
16.6192
 21
25.1809
 31
0.0
  0
LINE
  8
0
 62
     0
 10
16.6192
 20
25.1809
 30
0.0
 11
2.61965
 21
25.1809
 31
0.0
  0
LINE
  8
0
 62
     0
 10
86.5173
 20
28.0362
 30
0.0
 11
85.7292
 21
28.174
 31
0.0
  0
LINE
  8
0
 62
     0
 10
85.7292
 20
28.174
 30
0.0
 11
85.1902
 21
25.123
 31
0.0
  0
LINE
  8
0
 62
     0
 10
85.1902
 20
25.123
 30
0.0
 11
85.9786
 21
24.9838
 31
0.0
  0
LINE
  8
0
 62
     0
 10
85.9786
 20
24.9838
 30
0.0
 11
84.9711
 21
19.2719
 31
0.0
  0
LINE
  8
0
 62
     0
 10
84.9711
 20
19.2719
 30
0.0
 11
84.1844
 21
19.411
 31
0.0
  0
LINE
  8
0
 62
     0
 10
84.1844
 20
19.411
 30
0.0
 11
83.6443
 21
16.3573
 31
0.0
  0
LINE
  8
0
 62
     0
 10
83.6443
 20
16.3573
 30
0.0
 11
84.4324
 21
16.2195
 31
0.0
  0
LINE
  8
0
 62
     0
 10
84.4324
 20
16.2195
 30
0.0
 11
84.2603
 21
15.2342
 31
0.0
  0
LINE
  8
0
 62
     0
 10
84.2603
 20
15.2342
 30
0.0
 11
98.0475
 21
12.8034
 31
0.0
  0
LINE
  8
0
 62
     0
 10
98.0475
 20
12.8034
 30
0.0
 11
98.2211
 21
13.7886
 31
0.0
  0
LINE
  8
0
 62
     0
 10
98.2211
 20
13.7886
 30
0.0
 11
99.0078
 21
13.6495
 31
0.0
  0
LINE
  8
0
 62
     0
 10
99.0078
 20
13.6495
 30
0.0
 11
99.5468
 21
16.7032
 31
0.0
  0
LINE
  8
0
 62
     0
 10
99.5468
 20
16.7032
 30
0.0
 11
98.7584
 21
16.841
 31
0.0
  0
LINE
  8
0
 62
     0
 10
98.7584
 20
16.841
 30
0.0
 11
99.7659
 21
22.553
 31
0.0
  0
LINE
  8
0
 62
     0
 10
99.7659
 20
22.553
 30
0.0
 11
100.554
 21
22.4124
 31
0.0
  0
LINE
  8
0
 62
     0
 10
100.554
 20
22.4124
 30
0.0
 11
101.092
 21
25.4661
 31
0.0
  0
LINE
  8
0
 62
     0
 10
101.092
 20
25.4661
 30
0.0
 11
100.303
 21
25.6053
 31
0.0
  0
LINE
  8
0
 62
     0
 10
100.303
 20
25.6053
 30
0.0
 11
100.478
 21
26.5906
 31
0.0
  0
LINE
  8
0
 62
     0
 10
100.478
 20
26.5906
 30
0.0
 11
86.6909
 21
29.0215
 31
0.0
  0
LINE
  8
0
 62
     0
 10
86.6909
 20
29.0215
 30
0.0
 11
86.5173
 21
28.0362
 31
0.0
  0
LINE
  8
0
 62
     0
 10
21.6697
 20
27.5621
 30
0.0
 11
21.6697
 21
26.5631
 31
0.0
  0
LINE
  8
0
 62
     0
 10
21.6697
 20
26.5631
 30
0.0
 11
20.8704
 21
26.5631
 31
0.0
  0
LINE
  8
0
 62
     0
 10
20.8704
 20
26.5631
 30
0.0
 11
20.8704
 21
23.4625
 31
0.0
  0
LINE
  8
0
 62
     0
 10
20.8704
 20
23.4625
 30
0.0
 11
21.6697
 21
23.4625
 31
0.0
  0
LINE
  8
0
 62
     0
 10
21.6697
 20
23.4625
 30
0.0
 11
21.6697
 21
17.6623
 31
0.0
  0
LINE
  8
0
 62
     0
 10
21.6697
 20
17.6623
 30
0.0
 11
20.8704
 21
17.6623
 31
0.0
  0
LINE
  8
0
 62
     0
 10
20.8704
 20
17.6623
 30
0.0
 11
20.8704
 21
14.5631
 31
0.0
  0
LINE
  8
0
 62
     0
 10
20.8704
 20
14.5631
 30
0.0
 11
21.6697
 21
14.5631
 31
0.0
  0
LINE
  8
0
 62
     0
 10
21.6697
 20
14.5631
 30
0.0
 11
21.6697
 21
13.5626
 31
0.0
  0
LINE
  8
0
 62
     0
 10
21.6697
 20
13.5626
 30
0.0
 11
35.669
 21
13.5626
 31
0.0
  0
LINE
  8
0
 62
     0
 10
35.669
 20
13.5626
 30
0.0
 11
35.669
 21
14.5631
 31
0.0
  0
LINE
  8
0
 62
     0
 10
35.669
 20
14.5631
 30
0.0
 11
36.4698
 21
14.5631
 31
0.0
  0
LINE
  8
0
 62
     0
 10
36.4698
 20
14.5631
 30
0.0
 11
36.4698
 21
17.6623
 31
0.0
  0
LINE
  8
0
 62
     0
 10
36.4698
 20
17.6623
 30
0.0
 11
35.669
 21
17.6623
 31
0.0
  0
LINE
  8
0
 62
     0
 10
35.669
 20
17.6623
 30
0.0
 11
35.669
 21
23.4625
 31
0.0
  0
LINE
  8
0
 62
     0
 10
35.669
 20
23.4625
 30
0.0
 11
36.4698
 21
23.4625
 31
0.0
  0
LINE
  8
0
 62
     0
 10
36.4698
 20
23.4625
 30
0.0
 11
36.4698
 21
26.5631
 31
0.0
  0
LINE
  8
0
 62
     0
 10
36.4698
 20
26.5631
 30
0.0
 11
35.669
 21
26.5631
 31
0.0
  0
LINE
  8
0
 62
     0
 10
35.669
 20
26.5631
 30
0.0
 11
35.669
 21
27.5621
 31
0.0
  0
LINE
  8
0
 62
     0
 10
35.669
 20
27.5621
 30
0.0
 11
21.6697
 21
27.5621
 31
0.0
  0
LINE
  8
0
 62
     0
 10
40.7197
 20
29.8483
 30
0.0
 11
40.7197
 21
28.8492
 31
0.0
  0
LINE
  8
0
 62
     0
 10
40.7197
 20
28.8492
 30
0.0
 11
39.9203
 21
28.8492
 31
0.0
  0
LINE
  8
0
 62
     0
 10
39.9203
 20
28.8492
 30
0.0
 11
39.9203
 21
25.7486
 31
0.0
  0
LINE
  8
0
 62
     0
 10
39.9203
 20
25.7486
 30
0.0
 11
40.7197
 21
25.7486
 31
0.0
  0
LINE
  8
0
 62
     0
 10
40.7197
 20
25.7486
 30
0.0
 11
40.7197
 21
19.9485
 31
0.0
  0
LINE
  8
0
 62
     0
 10
40.7197
 20
19.9485
 30
0.0
 11
39.9203
 21
19.9485
 31
0.0
  0
LINE
  8
0
 62
     0
 10
39.9203
 20
19.9485
 30
0.0
 11
39.9203
 21
16.8479
 31
0.0
  0
LINE
  8
0
 62
     0
 10
39.9203
 20
16.8479
 30
0.0
 11
40.7197
 21
16.8479
 31
0.0
  0
LINE
  8
0
 62
     0
 10
40.7197
 20
16.8479
 30
0.0
 11
40.7197
 21
15.8488
 31
0.0
  0
LINE
  8
0
 62
     0
 10
40.7197
 20
15.8488
 30
0.0
 11
54.719
 21
15.8488
 31
0.0
  0
LINE
  8
0
 62
     0
 10
54.719
 20
15.8488
 30
0.0
 11
54.719
 21
16.8479
 31
0.0
  0
LINE
  8
0
 62
     0
 10
54.719
 20
16.8479
 30
0.0
 11
55.5198
 21
16.8479
 31
0.0
  0
LINE
  8
0
 62
     0
 10
55.5198
 20
16.8479
 30
0.0
 11
55.5198
 21
19.9485
 31
0.0
  0
LINE
  8
0
 62
     0
 10
55.5198
 20
19.9485
 30
0.0
 11
54.719
 21
19.9485
 31
0.0
  0
LINE
  8
0
 62
     0
 10
54.719
 20
19.9485
 30
0.0
 11
54.719
 21
25.7486
 31
0.0
  0
LINE
  8
0
 62
     0
 10
54.719
 20
25.7486
 30
0.0
 11
55.5198
 21
25.7486
 31
0.0
  0
LINE
  8
0
 62
     0
 10
55.5198
 20
25.7486
 30
0.0
 11
55.5198
 21
28.8492
 31
0.0
  0
LINE
  8
0
 62
     0
 10
55.5198
 20
28.8492
 30
0.0
 11
54.719
 21
28.8492
 31
0.0
  0
LINE
  8
0
 62
     0
 10
54.719
 20
28.8492
 30
0.0
 11
54.719
 21
29.8483
 31
0.0
  0
LINE
  8
0
 62
     0
 10
54.719
 20
29.8483
 30
0.0
 11
40.7197
 21
29.8483
 31
0.0
  0
LINE
  8
0
 62
     0
 10
59.7697
 20
32.3246
 30
0.0
 11
59.7697
 21
31.3242
 31
0.0
  0
LINE
  8
0
 62
     0
 10
59.7697
 20
31.3242
 30
0.0
 11
58.9703
 21
31.3242
 31
0.0
  0
LINE
  8
0
 62
     0
 10
58.9703
 20
31.3242
 30
0.0
 11
58.9703
 21
28.225
 31
0.0
  0
LINE
  8
0
 62
     0
 10
58.9703
 20
28.225
 30
0.0
 11
59.7697
 21
28.225
 31
0.0
  0
LINE
  8
0
 62
     0
 10
59.7697
 20
28.225
 30
0.0
 11
59.7697
 21
22.4248
 31
0.0
  0
LINE
  8
0
 62
     0
 10
59.7697
 20
22.4248
 30
0.0
 11
58.9703
 21
22.4248
 31
0.0
  0
LINE
  8
0
 62
     0
 10
58.9703
 20
22.4248
 30
0.0
 11
58.9703
 21
19.3242
 31
0.0
  0
LINE
  8
0
 62
     0
 10
58.9703
 20
19.3242
 30
0.0
 11
59.7697
 21
19.3242
 31
0.0
  0
LINE
  8
0
 62
     0
 10
59.7697
 20
19.3242
 30
0.0
 11
59.7697
 21
18.3251
 31
0.0
  0
LINE
  8
0
 62
     0
 10
59.7697
 20
18.3251
 30
0.0
 11
73.769
 21
18.3251
 31
0.0
  0
LINE
  8
0
 62
     0
 10
73.769
 20
18.3251
 30
0.0
 11
73.769
 21
19.3242
 31
0.0
  0
LINE
  8
0
 62
     0
 10
73.769
 20
19.3242
 30
0.0
 11
74.5698
 21
19.3242
 31
0.0
  0
LINE
  8
0
 62
     0
 10
74.5698
 20
19.3242
 30
0.0
 11
74.5698
 21
22.4248
 31
0.0
  0
LINE
  8
0
 62
     0
 10
74.5698
 20
22.4248
 30
0.0
 11
73.769
 21
22.4248
 31
0.0
  0
LINE
  8
0
 62
     0
 10
73.769
 20
22.4248
 30
0.0
 11
73.769
 21
28.225
 31
0.0
  0
LINE
  8
0
 62
     0
 10
73.769
 20
28.225
 30
0.0
 11
74.5698
 21
28.225
 31
0.0
  0
LINE
  8
0
 62
     0
 10
74.5698
 20
28.225
 30
0.0
 11
74.5698
 21
31.3242
 31
0.0
  0
LINE
  8
0
 62
     0
 10
74.5698
 20
31.3242
 30
0.0
 11
73.769
 21
31.3242
 31
0.0
  0
LINE
  8
0
 62
     0
 10
73.769
 20
31.3242
 30
0.0
 11
73.769
 21
32.3246
 31
0.0
  0
LINE
  8
0
 62
     0
 10
73.769
 20
32.3246
 30
0.0
 11
59.7697
 21
32.3246
 31
0.0
  0
LINE
  8
0
 62
     0
 10
2.61965
 20
44.2309
 30
0.0
 11
2.61965
 21
43.2319
 31
0.0
  0
LINE
  8
0
 62
     0
 10
2.61965
 20
43.2319
 30
0.0
 11
1.82039
 21
43.2319
 31
0.0
  0
LINE
  8
0
 62
     0
 10
1.82039
 20
43.2319
 30
0.0
 11
1.82039
 21
40.1313
 31
0.0
  0
LINE
  8
0
 62
     0
 10
1.82039
 20
40.1313
 30
0.0
 11
2.61965
 21
40.1313
 31
0.0
  0
LINE
  8
0
 62
     0
 10
2.61965
 20
40.1313
 30
0.0
 11
2.61965
 21
34.3311
 31
0.0
  0
LINE
  8
0
 62
     0
 10
2.61965
 20
34.3311
 30
0.0
 11
1.82039
 21
34.3311
 31
0.0
  0
LINE
  8
0
 62
     0
 10
1.82039
 20
34.3311
 30
0.0
 11
1.82039
 21
31.2319
 31
0.0
  0
LINE
  8
0
 62
     0
 10
1.82039
 20
31.2319
 30
0.0
 11
2.61965
 21
31.2319
 31
0.0
  0
LINE
  8
0
 62
     0
 10
2.61965
 20
31.2319
 30
0.0
 11
2.61965
 21
30.2314
 31
0.0
  0
LINE
  8
0
 62
     0
 10
2.61965
 20
30.2314
 30
0.0
 11
16.6192
 21
30.2314
 31
0.0
  0
LINE
  8
0
 62
     0
 10
16.6192
 20
30.2314
 30
0.0
 11
16.6192
 21
31.2319
 31
0.0
  0
LINE
  8
0
 62
     0
 10
16.6192
 20
31.2319
 30
0.0
 11
17.4198
 21
31.2319
 31
0.0
  0
LINE
  8
0
 62
     0
 10
17.4198
 20
31.2319
 30
0.0
 11
17.4198
 21
34.3311
 31
0.0
  0
LINE
  8
0
 62
     0
 10
17.4198
 20
34.3311
 30
0.0
 11
16.6192
 21
34.3311
 31
0.0
  0
LINE
  8
0
 62
     0
 10
16.6192
 20
34.3311
 30
0.0
 11
16.6192
 21
40.1313
 31
0.0
  0
LINE
  8
0
 62
     0
 10
16.6192
 20
40.1313
 30
0.0
 11
17.4198
 21
40.1313
 31
0.0
  0
LINE
  8
0
 62
     0
 10
17.4198
 20
40.1313
 30
0.0
 11
17.4198
 21
43.2319
 31
0.0
  0
LINE
  8
0
 62
     0
 10
17.4198
 20
43.2319
 30
0.0
 11
16.6192
 21
43.2319
 31
0.0
  0
LINE
  8
0
 62
     0
 10
16.6192
 20
43.2319
 30
0.0
 11
16.6192
 21
44.2309
 31
0.0
  0
LINE
  8
0
 62
     0
 10
16.6192
 20
44.2309
 30
0.0
 11
2.61965
 21
44.2309
 31
0.0
  0
LINE
  8
0
 62
     0
 10
21.6697
 20
46.6122
 30
0.0
 11
21.6697
 21
45.6131
 31
0.0
  0
LINE
  8
0
 62
     0
 10
21.6697
 20
45.6131
 30
0.0
 11
20.8704
 21
45.6131
 31
0.0
  0
LINE
  8
0
 62
     0
 10
20.8704
 20
45.6131
 30
0.0
 11
20.8704
 21
42.5125
 31
0.0
  0
LINE
  8
0
 62
     0
 10
20.8704
 20
42.5125
 30
0.0
 11
21.6697
 21
42.5125
 31
0.0
  0
LINE
  8
0
 62
     0
 10
21.6697
 20
42.5125
 30
0.0
 11
21.6697
 21
36.7122
 31
0.0
  0
LINE
  8
0
 62
     0
 10
21.6697
 20
36.7122
 30
0.0
 11
20.8704
 21
36.7122
 31
0.0
  0
LINE
  8
0
 62
     0
 10
20.8704
 20
36.7122
 30
0.0
 11
20.8704
 21
33.6131
 31
0.0
  0
LINE
  8
0
 62
     0
 10
20.8704
 20
33.6131
 30
0.0
 11
21.6697
 21
33.6131
 31
0.0
  0
LINE
  8
0
 62
     0
 10
21.6697
 20
33.6131
 30
0.0
 11
21.6697
 21
32.6126
 31
0.0
  0
LINE
  8
0
 62
     0
 10
21.6697
 20
32.6126
 30
0.0
 11
35.669
 21
32.6126
 31
0.0
  0
LINE
  8
0
 62
     0
 10
35.669
 20
32.6126
 30
0.0
 11
35.669
 21
33.6131
 31
0.0
  0
LINE
  8
0
 62
     0
 10
35.669
 20
33.6131
 30
0.0
 11
36.4698
 21
33.6131
 31
0.0
  0
LINE
  8
0
 62
     0
 10
36.4698
 20
33.6131
 30
0.0
 11
36.4698
 21
36.7122
 31
0.0
  0
LINE
  8
0
 62
     0
 10
36.4698
 20
36.7122
 30
0.0
 11
35.669
 21
36.7122
 31
0.0
  0
LINE
  8
0
 62
     0
 10
35.669
 20
36.7122
 30
0.0
 11
35.669
 21
42.5125
 31
0.0
  0
LINE
  8
0
 62
     0
 10
35.669
 20
42.5125
 30
0.0
 11
36.4698
 21
42.5125
 31
0.0
  0
LINE
  8
0
 62
     0
 10
36.4698
 20
42.5125
 30
0.0
 11
36.4698
 21
45.6131
 31
0.0
  0
LINE
  8
0
 62
     0
 10
36.4698
 20
45.6131
 30
0.0
 11
35.669
 21
45.6131
 31
0.0
  0
LINE
  8
0
 62
     0
 10
35.669
 20
45.6131
 30
0.0
 11
35.669
 21
46.6122
 31
0.0
  0
LINE
  8
0
 62
     0
 10
35.669
 20
46.6122
 30
0.0
 11
21.6697
 21
46.6122
 31
0.0
  0
LINE
  8
0
 62
     0
 10
97.8697
 20
46.6122
 30
0.0
 11
97.8697
 21
45.6131
 31
0.0
  0
LINE
  8
0
 62
     0
 10
97.8697
 20
45.6131
 30
0.0
 11
97.0703
 21
45.6131
 31
0.0
  0
LINE
  8
0
 62
     0
 10
97.0703
 20
45.6131
 30
0.0
 11
97.0703
 21
42.5125
 31
0.0
  0
LINE
  8
0
 62
     0
 10
97.0703
 20
42.5125
 30
0.0
 11
97.8697
 21
42.5125
 31
0.0
  0
LINE
  8
0
 62
     0
 10
97.8697
 20
42.5125
 30
0.0
 11
97.8697
 21
36.7122
 31
0.0
  0
LINE
  8
0
 62
     0
 10
97.8697
 20
36.7122
 30
0.0
 11
97.0703
 21
36.7122
 31
0.0
  0
LINE
  8
0
 62
     0
 10
97.0703
 20
36.7122
 30
0.0
 11
97.0703
 21
33.6131
 31
0.0
  0
LINE
  8
0
 62
     0
 10
97.0703
 20
33.6131
 30
0.0
 11
97.8697
 21
33.6131
 31
0.0
  0
LINE
  8
0
 62
     0
 10
97.8697
 20
33.6131
 30
0.0
 11
97.8697
 21
32.6126
 31
0.0
  0
LINE
  8
0
 62
     0
 10
97.8697
 20
32.6126
 30
0.0
 11
111.869
 21
32.6126
 31
0.0
  0
LINE
  8
0
 62
     0
 10
111.869
 20
32.6126
 30
0.0
 11
111.869
 21
33.6131
 31
0.0
  0
LINE
  8
0
 62
     0
 10
111.869
 20
33.6131
 30
0.0
 11
112.67
 21
33.6131
 31
0.0
  0
LINE
  8
0
 62
     0
 10
112.67
 20
33.6131
 30
0.0
 11
112.67
 21
36.7122
 31
0.0
  0
LINE
  8
0
 62
     0
 10
112.67
 20
36.7122
 30
0.0
 11
111.869
 21
36.7122
 31
0.0
  0
LINE
  8
0
 62
     0
 10
111.869
 20
36.7122
 30
0.0
 11
111.869
 21
42.5125
 31
0.0
  0
LINE
  8
0
 62
     0
 10
111.869
 20
42.5125
 30
0.0
 11
112.67
 21
42.5125
 31
0.0
  0
LINE
  8
0
 62
     0
 10
112.67
 20
42.5125
 30
0.0
 11
112.67
 21
45.6131
 31
0.0
  0
LINE
  8
0
 62
     0
 10
112.67
 20
45.6131
 30
0.0
 11
111.869
 21
45.6131
 31
0.0
  0
LINE
  8
0
 62
     0
 10
111.869
 20
45.6131
 30
0.0
 11
111.869
 21
46.6122
 31
0.0
  0
LINE
  8
0
 62
     0
 10
111.869
 20
46.6122
 30
0.0
 11
97.8697
 21
46.6122
 31
0.0
  0
LINE
  8
0
 62
     0
 10
40.7197
 20
48.9934
 30
0.0
 11
40.7197
 21
47.9929
 31
0.0
  0
LINE
  8
0
 62
     0
 10
40.7197
 20
47.9929
 30
0.0
 11
39.9203
 21
47.9929
 31
0.0
  0
LINE
  8
0
 62
     0
 10
39.9203
 20
47.9929
 30
0.0
 11
39.9203
 21
44.8938
 31
0.0
  0
LINE
  8
0
 62
     0
 10
39.9203
 20
44.8938
 30
0.0
 11
40.7197
 21
44.8938
 31
0.0
  0
LINE
  8
0
 62
     0
 10
40.7197
 20
44.8938
 30
0.0
 11
40.7197
 21
39.0934
 31
0.0
  0
LINE
  8
0
 62
     0
 10
40.7197
 20
39.0934
 30
0.0
 11
39.9203
 21
39.0934
 31
0.0
  0
LINE
  8
0
 62
     0
 10
39.9203
 20
39.0934
 30
0.0
 11
39.9203
 21
35.9929
 31
0.0
  0
LINE
  8
0
 62
     0
 10
39.9203
 20
35.9929
 30
0.0
 11
40.7197
 21
35.9929
 31
0.0
  0
LINE
  8
0
 62
     0
 10
40.7197
 20
35.9929
 30
0.0
 11
40.7197
 21
34.9939
 31
0.0
  0
LINE
  8
0
 62
     0
 10
40.7197
 20
34.9939
 30
0.0
 11
54.719
 21
34.9939
 31
0.0
  0
LINE
  8
0
 62
     0
 10
54.719
 20
34.9939
 30
0.0
 11
54.719
 21
35.9929
 31
0.0
  0
LINE
  8
0
 62
     0
 10
54.719
 20
35.9929
 30
0.0
 11
55.5198
 21
35.9929
 31
0.0
  0
LINE
  8
0
 62
     0
 10
55.5198
 20
35.9929
 30
0.0
 11
55.5198
 21
39.0934
 31
0.0
  0
LINE
  8
0
 62
     0
 10
55.5198
 20
39.0934
 30
0.0
 11
54.719
 21
39.0934
 31
0.0
  0
LINE
  8
0
 62
     0
 10
54.719
 20
39.0934
 30
0.0
 11
54.719
 21
44.8938
 31
0.0
  0
LINE
  8
0
 62
     0
 10
54.719
 20
44.8938
 30
0.0
 11
55.5198
 21
44.8938
 31
0.0
  0
LINE
  8
0
 62
     0
 10
55.5198
 20
44.8938
 30
0.0
 11
55.5198
 21
47.9929
 31
0.0
  0
LINE
  8
0
 62
     0
 10
55.5198
 20
47.9929
 30
0.0
 11
54.719
 21
47.9929
 31
0.0
  0
LINE
  8
0
 62
     0
 10
54.719
 20
47.9929
 30
0.0
 11
54.719
 21
48.9934
 31
0.0
  0
LINE
  8
0
 62
     0
 10
54.719
 20
48.9934
 30
0.0
 11
40.7197
 21
48.9934
 31
0.0
  0
LINE
  8
0
 62
     0
 10
78.8197
 20
48.9934
 30
0.0
 11
78.8197
 21
47.9929
 31
0.0
  0
LINE
  8
0
 62
     0
 10
78.8197
 20
47.9929
 30
0.0
 11
78.0203
 21
47.9929
 31
0.0
  0
LINE
  8
0
 62
     0
 10
78.0203
 20
47.9929
 30
0.0
 11
78.0203
 21
44.8938
 31
0.0
  0
LINE
  8
0
 62
     0
 10
78.0203
 20
44.8938
 30
0.0
 11
78.8197
 21
44.8938
 31
0.0
  0
LINE
  8
0
 62
     0
 10
78.8197
 20
44.8938
 30
0.0
 11
78.8197
 21
39.0934
 31
0.0
  0
LINE
  8
0
 62
     0
 10
78.8197
 20
39.0934
 30
0.0
 11
78.0203
 21
39.0934
 31
0.0
  0
LINE
  8
0
 62
     0
 10
78.0203
 20
39.0934
 30
0.0
 11
78.0203
 21
35.9929
 31
0.0
  0
LINE
  8
0
 62
     0
 10
78.0203
 20
35.9929
 30
0.0
 11
78.8197
 21
35.9929
 31
0.0
  0
LINE
  8
0
 62
     0
 10
78.8197
 20
35.9929
 30
0.0
 11
78.8197
 21
34.9939
 31
0.0
  0
LINE
  8
0
 62
     0
 10
78.8197
 20
34.9939
 30
0.0
 11
92.819
 21
34.9939
 31
0.0
  0
LINE
  8
0
 62
     0
 10
92.819
 20
34.9939
 30
0.0
 11
92.819
 21
35.9929
 31
0.0
  0
LINE
  8
0
 62
     0
 10
92.819
 20
35.9929
 30
0.0
 11
93.6184
 21
35.9929
 31
0.0
  0
LINE
  8
0
 62
     0
 10
93.6184
 20
35.9929
 30
0.0
 11
93.6184
 21
39.0934
 31
0.0
  0
LINE
  8
0
 62
     0
 10
93.6184
 20
39.0934
 30
0.0
 11
92.819
 21
39.0934
 31
0.0
  0
LINE
  8
0
 62
     0
 10
92.819
 20
39.0934
 30
0.0
 11
92.819
 21
44.8938
 31
0.0
  0
LINE
  8
0
 62
     0
 10
92.819
 20
44.8938
 30
0.0
 11
93.6184
 21
44.8938
 31
0.0
  0
LINE
  8
0
 62
     0
 10
93.6184
 20
44.8938
 30
0.0
 11
93.6184
 21
47.9929
 31
0.0
  0
LINE
  8
0
 62
     0
 10
93.6184
 20
47.9929
 30
0.0
 11
92.819
 21
47.9929
 31
0.0
  0
LINE
  8
0
 62
     0
 10
92.819
 20
47.9929
 30
0.0
 11
92.819
 21
48.9934
 31
0.0
  0
LINE
  8
0
 62
     0
 10
92.819
 20
48.9934
 30
0.0
 11
78.8197
 21
48.9934
 31
0.0
  0
LINE
  8
0
 62
     0
 10
59.7697
 20
51.3747
 30
0.0
 11
59.7697
 21
50.3742
 31
0.0
  0
LINE
  8
0
 62
     0
 10
59.7697
 20
50.3742
 30
0.0
 11
58.9703
 21
50.3742
 31
0.0
  0
LINE
  8
0
 62
     0
 10
58.9703
 20
50.3742
 30
0.0
 11
58.9703
 21
47.275
 31
0.0
  0
LINE
  8
0
 62
     0
 10
58.9703
 20
47.275
 30
0.0
 11
59.7697
 21
47.275
 31
0.0
  0
LINE
  8
0
 62
     0
 10
59.7697
 20
47.275
 30
0.0
 11
59.7697
 21
41.4747
 31
0.0
  0
LINE
  8
0
 62
     0
 10
59.7697
 20
41.4747
 30
0.0
 11
58.9703
 21
41.4747
 31
0.0
  0
LINE
  8
0
 62
     0
 10
58.9703
 20
41.4747
 30
0.0
 11
58.9703
 21
38.3741
 31
0.0
  0
LINE
  8
0
 62
     0
 10
58.9703
 20
38.3741
 30
0.0
 11
59.7697
 21
38.3741
 31
0.0
  0
LINE
  8
0
 62
     0
 10
59.7697
 20
38.3741
 30
0.0
 11
59.7697
 21
37.375
 31
0.0
  0
LINE
  8
0
 62
     0
 10
59.7697
 20
37.375
 30
0.0
 11
73.769
 21
37.375
 31
0.0
  0
LINE
  8
0
 62
     0
 10
73.769
 20
37.375
 30
0.0
 11
73.769
 21
38.3741
 31
0.0
  0
LINE
  8
0
 62
     0
 10
73.769
 20
38.3741
 30
0.0
 11
74.5698
 21
38.3741
 31
0.0
  0
LINE
  8
0
 62
     0
 10
74.5698
 20
38.3741
 30
0.0
 11
74.5698
 21
41.4747
 31
0.0
  0
LINE
  8
0
 62
     0
 10
74.5698
 20
41.4747
 30
0.0
 11
73.769
 21
41.4747
 31
0.0
  0
LINE
  8
0
 62
     0
 10
73.769
 20
41.4747
 30
0.0
 11
73.769
 21
47.275
 31
0.0
  0
LINE
  8
0
 62
     0
 10
73.769
 20
47.275
 30
0.0
 11
74.5698
 21
47.275
 31
0.0
  0
LINE
  8
0
 62
     0
 10
74.5698
 20
47.275
 30
0.0
 11
74.5698
 21
50.3742
 31
0.0
  0
LINE
  8
0
 62
     0
 10
74.5698
 20
50.3742
 30
0.0
 11
73.769
 21
50.3742
 31
0.0
  0
LINE
  8
0
 62
     0
 10
73.769
 20
50.3742
 30
0.0
 11
73.769
 21
51.3747
 31
0.0
  0
LINE
  8
0
 62
     0
 10
73.769
 20
51.3747
 30
0.0
 11
59.7697
 21
51.3747
 31
0.0
  0
LINE
  8
0
 62
     0
 10
116.92
 20
60.8997
 30
0.0
 11
116.92
 21
59.8992
 31
0.0
  0
LINE
  8
0
 62
     0
 10
116.92
 20
59.8992
 30
0.0
 11
116.12
 21
59.8992
 31
0.0
  0
LINE
  8
0
 62
     0
 10
116.12
 20
59.8992
 30
0.0
 11
116.12
 21
56.8
 31
0.0
  0
LINE
  8
0
 62
     0
 10
116.12
 20
56.8
 30
0.0
 11
116.92
 21
56.8
 31
0.0
  0
LINE
  8
0
 62
     0
 10
116.92
 20
56.8
 30
0.0
 11
116.92
 21
50.9997
 31
0.0
  0
LINE
  8
0
 62
     0
 10
116.92
 20
50.9997
 30
0.0
 11
116.12
 21
50.9997
 31
0.0
  0
LINE
  8
0
 62
     0
 10
116.12
 20
50.9997
 30
0.0
 11
116.12
 21
47.8991
 31
0.0
  0
LINE
  8
0
 62
     0
 10
116.12
 20
47.8991
 30
0.0
 11
116.92
 21
47.8991
 31
0.0
  0
LINE
  8
0
 62
     0
 10
116.92
 20
47.8991
 30
0.0
 11
116.92
 21
46.9
 31
0.0
  0
LINE
  8
0
 62
     0
 10
116.92
 20
46.9
 30
0.0
 11
130.919
 21
46.9
 31
0.0
  0
LINE
  8
0
 62
     0
 10
130.919
 20
46.9
 30
0.0
 11
130.919
 21
47.8991
 31
0.0
  0
LINE
  8
0
 62
     0
 10
130.919
 20
47.8991
 30
0.0
 11
131.72
 21
47.8991
 31
0.0
  0
LINE
  8
0
 62
     0
 10
131.72
 20
47.8991
 30
0.0
 11
131.72
 21
50.9997
 31
0.0
  0
LINE
  8
0
 62
     0
 10
131.72
 20
50.9997
 30
0.0
 11
130.919
 21
50.9997
 31
0.0
  0
LINE
  8
0
 62
     0
 10
130.919
 20
50.9997
 30
0.0
 11
130.919
 21
56.8
 31
0.0
  0
LINE
  8
0
 62
     0
 10
130.919
 20
56.8
 30
0.0
 11
131.72
 21
56.8
 31
0.0
  0
LINE
  8
0
 62
     0
 10
131.72
 20
56.8
 30
0.0
 11
131.72
 21
59.8992
 31
0.0
  0
LINE
  8
0
 62
     0
 10
131.72
 20
59.8992
 30
0.0
 11
130.919
 21
59.8992
 31
0.0
  0
LINE
  8
0
 62
     0
 10
130.919
 20
59.8992
 30
0.0
 11
130.919
 21
60.8997
 31
0.0
  0
LINE
  8
0
 62
     0
 10
130.919
 20
60.8997
 30
0.0
 11
116.92
 21
60.8997
 31
0.0
  0
LINE
  8
0
 62
     0
 10
2.61965
 20
63.2809
 30
0.0
 11
2.61965
 21
62.2819
 31
0.0
  0
LINE
  8
0
 62
     0
 10
2.61965
 20
62.2819
 30
0.0
 11
1.82039
 21
62.2819
 31
0.0
  0
LINE
  8
0
 62
     0
 10
1.82039
 20
62.2819
 30
0.0
 11
1.82039
 21
59.1813
 31
0.0
  0
LINE
  8
0
 62
     0
 10
1.82039
 20
59.1813
 30
0.0
 11
2.61965
 21
59.1813
 31
0.0
  0
LINE
  8
0
 62
     0
 10
2.61965
 20
59.1813
 30
0.0
 11
2.61965
 21
53.3809
 31
0.0
  0
LINE
  8
0
 62
     0
 10
2.61965
 20
53.3809
 30
0.0
 11
1.82039
 21
53.3809
 31
0.0
  0
LINE
  8
0
 62
     0
 10
1.82039
 20
53.3809
 30
0.0
 11
1.82039
 21
50.2818
 31
0.0
  0
LINE
  8
0
 62
     0
 10
1.82039
 20
50.2818
 30
0.0
 11
2.61965
 21
50.2818
 31
0.0
  0
LINE
  8
0
 62
     0
 10
2.61965
 20
50.2818
 30
0.0
 11
2.61965
 21
49.2813
 31
0.0
  0
LINE
  8
0
 62
     0
 10
2.61965
 20
49.2813
 30
0.0
 11
16.6192
 21
49.2813
 31
0.0
  0
LINE
  8
0
 62
     0
 10
16.6192
 20
49.2813
 30
0.0
 11
16.6192
 21
50.2818
 31
0.0
  0
LINE
  8
0
 62
     0
 10
16.6192
 20
50.2818
 30
0.0
 11
17.4198
 21
50.2818
 31
0.0
  0
LINE
  8
0
 62
     0
 10
17.4198
 20
50.2818
 30
0.0
 11
17.4198
 21
53.3809
 31
0.0
  0
LINE
  8
0
 62
     0
 10
17.4198
 20
53.3809
 30
0.0
 11
16.6192
 21
53.3809
 31
0.0
  0
LINE
  8
0
 62
     0
 10
16.6192
 20
53.3809
 30
0.0
 11
16.6192
 21
59.1813
 31
0.0
  0
LINE
  8
0
 62
     0
 10
16.6192
 20
59.1813
 30
0.0
 11
17.4198
 21
59.1813
 31
0.0
  0
LINE
  8
0
 62
     0
 10
17.4198
 20
59.1813
 30
0.0
 11
17.4198
 21
62.2819
 31
0.0
  0
LINE
  8
0
 62
     0
 10
17.4198
 20
62.2819
 30
0.0
 11
16.6192
 21
62.2819
 31
0.0
  0
LINE
  8
0
 62
     0
 10
16.6192
 20
62.2819
 30
0.0
 11
16.6192
 21
63.2809
 31
0.0
  0
LINE
  8
0
 62
     0
 10
16.6192
 20
63.2809
 30
0.0
 11
2.61965
 21
63.2809
 31
0.0
  0
LINE
  8
0
 62
     0
 10
21.6697
 20
65.6622
 30
0.0
 11
21.6697
 21
64.6631
 31
0.0
  0
LINE
  8
0
 62
     0
 10
21.6697
 20
64.6631
 30
0.0
 11
20.8704
 21
64.6631
 31
0.0
  0
LINE
  8
0
 62
     0
 10
20.8704
 20
64.6631
 30
0.0
 11
20.8704
 21
61.5625
 31
0.0
  0
LINE
  8
0
 62
     0
 10
20.8704
 20
61.5625
 30
0.0
 11
21.6697
 21
61.5625
 31
0.0
  0
LINE
  8
0
 62
     0
 10
21.6697
 20
61.5625
 30
0.0
 11
21.6697
 21
55.7622
 31
0.0
  0
LINE
  8
0
 62
     0
 10
21.6697
 20
55.7622
 30
0.0
 11
20.8704
 21
55.7622
 31
0.0
  0
LINE
  8
0
 62
     0
 10
20.8704
 20
55.7622
 30
0.0
 11
20.8704
 21
52.663
 31
0.0
  0
LINE
  8
0
 62
     0
 10
20.8704
 20
52.663
 30
0.0
 11
21.6697
 21
52.663
 31
0.0
  0
LINE
  8
0
 62
     0
 10
21.6697
 20
52.663
 30
0.0
 11
21.6697
 21
51.6625
 31
0.0
  0
LINE
  8
0
 62
     0
 10
21.6697
 20
51.6625
 30
0.0
 11
35.669
 21
51.6625
 31
0.0
  0
LINE
  8
0
 62
     0
 10
35.669
 20
51.6625
 30
0.0
 11
35.669
 21
52.663
 31
0.0
  0
LINE
  8
0
 62
     0
 10
35.669
 20
52.663
 30
0.0
 11
36.4698
 21
52.663
 31
0.0
  0
LINE
  8
0
 62
     0
 10
36.4698
 20
52.663
 30
0.0
 11
36.4698
 21
55.7622
 31
0.0
  0
LINE
  8
0
 62
     0
 10
36.4698
 20
55.7622
 30
0.0
 11
35.669
 21
55.7622
 31
0.0
  0
LINE
  8
0
 62
     0
 10
35.669
 20
55.7622
 30
0.0
 11
35.669
 21
61.5625
 31
0.0
  0
LINE
  8
0
 62
     0
 10
35.669
 20
61.5625
 30
0.0
 11
36.4698
 21
61.5625
 31
0.0
  0
LINE
  8
0
 62
     0
 10
36.4698
 20
61.5625
 30
0.0
 11
36.4698
 21
64.6631
 31
0.0
  0
LINE
  8
0
 62
     0
 10
36.4698
 20
64.6631
 30
0.0
 11
35.669
 21
64.6631
 31
0.0
  0
LINE
  8
0
 62
     0
 10
35.669
 20
64.6631
 30
0.0
 11
35.669
 21
65.6622
 31
0.0
  0
LINE
  8
0
 62
     0
 10
35.669
 20
65.6622
 30
0.0
 11
21.6697
 21
65.6622
 31
0.0
  0
LINE
  8
0
 62
     0
 10
97.8697
 20
65.6622
 30
0.0
 11
97.8697
 21
64.6631
 31
0.0
  0
LINE
  8
0
 62
     0
 10
97.8697
 20
64.6631
 30
0.0
 11
97.0703
 21
64.6631
 31
0.0
  0
LINE
  8
0
 62
     0
 10
97.0703
 20
64.6631
 30
0.0
 11
97.0703
 21
61.5625
 31
0.0
  0
LINE
  8
0
 62
     0
 10
97.0703
 20
61.5625
 30
0.0
 11
97.8697
 21
61.5625
 31
0.0
  0
LINE
  8
0
 62
     0
 10
97.8697
 20
61.5625
 30
0.0
 11
97.8697
 21
55.7622
 31
0.0
  0
LINE
  8
0
 62
     0
 10
97.8697
 20
55.7622
 30
0.0
 11
97.0703
 21
55.7622
 31
0.0
  0
LINE
  8
0
 62
     0
 10
97.0703
 20
55.7622
 30
0.0
 11
97.0703
 21
52.663
 31
0.0
  0
LINE
  8
0
 62
     0
 10
97.0703
 20
52.663
 30
0.0
 11
97.8697
 21
52.663
 31
0.0
  0
LINE
  8
0
 62
     0
 10
97.8697
 20
52.663
 30
0.0
 11
97.8697
 21
51.6625
 31
0.0
  0
LINE
  8
0
 62
     0
 10
97.8697
 20
51.6625
 30
0.0
 11
111.869
 21
51.6625
 31
0.0
  0
LINE
  8
0
 62
     0
 10
111.869
 20
51.6625
 30
0.0
 11
111.869
 21
52.663
 31
0.0
  0
LINE
  8
0
 62
     0
 10
111.869
 20
52.663
 30
0.0
 11
112.67
 21
52.663
 31
0.0
  0
LINE
  8
0
 62
     0
 10
112.67
 20
52.663
 30
0.0
 11
112.67
 21
55.7622
 31
0.0
  0
LINE
  8
0
 62
     0
 10
112.67
 20
55.7622
 30
0.0
 11
111.869
 21
55.7622
 31
0.0
  0
LINE
  8
0
 62
     0
 10
111.869
 20
55.7622
 30
0.0
 11
111.869
 21
61.5625
 31
0.0
  0
LINE
  8
0
 62
     0
 10
111.869
 20
61.5625
 30
0.0
 11
112.67
 21
61.5625
 31
0.0
  0
LINE
  8
0
 62
     0
 10
112.67
 20
61.5625
 30
0.0
 11
112.67
 21
64.6631
 31
0.0
  0
LINE
  8
0
 62
     0
 10
112.67
 20
64.6631
 30
0.0
 11
111.869
 21
64.6631
 31
0.0
  0
LINE
  8
0
 62
     0
 10
111.869
 20
64.6631
 30
0.0
 11
111.869
 21
65.6622
 31
0.0
  0
LINE
  8
0
 62
     0
 10
111.869
 20
65.6622
 30
0.0
 11
97.8697
 21
65.6622
 31
0.0
  0
LINE
  8
0
 62
     0
 10
40.7197
 20
68.0434
 30
0.0
 11
40.7197
 21
67.0429
 31
0.0
  0
LINE
  8
0
 62
     0
 10
40.7197
 20
67.0429
 30
0.0
 11
39.9203
 21
67.0429
 31
0.0
  0
LINE
  8
0
 62
     0
 10
39.9203
 20
67.0429
 30
0.0
 11
39.9203
 21
63.9438
 31
0.0
  0
LINE
  8
0
 62
     0
 10
39.9203
 20
63.9438
 30
0.0
 11
40.7197
 21
63.9438
 31
0.0
  0
LINE
  8
0
 62
     0
 10
40.7197
 20
63.9438
 30
0.0
 11
40.7197
 21
58.1434
 31
0.0
  0
LINE
  8
0
 62
     0
 10
40.7197
 20
58.1434
 30
0.0
 11
39.9203
 21
58.1434
 31
0.0
  0
LINE
  8
0
 62
     0
 10
39.9203
 20
58.1434
 30
0.0
 11
39.9203
 21
55.0429
 31
0.0
  0
LINE
  8
0
 62
     0
 10
39.9203
 20
55.0429
 30
0.0
 11
40.7197
 21
55.0429
 31
0.0
  0
LINE
  8
0
 62
     0
 10
40.7197
 20
55.0429
 30
0.0
 11
40.7197
 21
54.0438
 31
0.0
  0
LINE
  8
0
 62
     0
 10
40.7197
 20
54.0438
 30
0.0
 11
54.719
 21
54.0438
 31
0.0
  0
LINE
  8
0
 62
     0
 10
54.719
 20
54.0438
 30
0.0
 11
54.719
 21
55.0429
 31
0.0
  0
LINE
  8
0
 62
     0
 10
54.719
 20
55.0429
 30
0.0
 11
55.5198
 21
55.0429
 31
0.0
  0
LINE
  8
0
 62
     0
 10
55.5198
 20
55.0429
 30
0.0
 11
55.5198
 21
58.1434
 31
0.0
  0
LINE
  8
0
 62
     0
 10
55.5198
 20
58.1434
 30
0.0
 11
54.719
 21
58.1434
 31
0.0
  0
LINE
  8
0
 62
     0
 10
54.719
 20
58.1434
 30
0.0
 11
54.719
 21
63.9438
 31
0.0
  0
LINE
  8
0
 62
     0
 10
54.719
 20
63.9438
 30
0.0
 11
55.5198
 21
63.9438
 31
0.0
  0
LINE
  8
0
 62
     0
 10
55.5198
 20
63.9438
 30
0.0
 11
55.5198
 21
67.0429
 31
0.0
  0
LINE
  8
0
 62
     0
 10
55.5198
 20
67.0429
 30
0.0
 11
54.719
 21
67.0429
 31
0.0
  0
LINE
  8
0
 62
     0
 10
54.719
 20
67.0429
 30
0.0
 11
54.719
 21
68.0434
 31
0.0
  0
LINE
  8
0
 62
     0
 10
54.719
 20
68.0434
 30
0.0
 11
40.7197
 21
68.0434
 31
0.0
  0
LINE
  8
0
 62
     0
 10
78.8197
 20
68.0434
 30
0.0
 11
78.8197
 21
67.0429
 31
0.0
  0
LINE
  8
0
 62
     0
 10
78.8197
 20
67.0429
 30
0.0
 11
78.0203
 21
67.0429
 31
0.0
  0
LINE
  8
0
 62
     0
 10
78.0203
 20
67.0429
 30
0.0
 11
78.0203
 21
63.9438
 31
0.0
  0
LINE
  8
0
 62
     0
 10
78.0203
 20
63.9438
 30
0.0
 11
78.8197
 21
63.9438
 31
0.0
  0
LINE
  8
0
 62
     0
 10
78.8197
 20
63.9438
 30
0.0
 11
78.8197
 21
58.1434
 31
0.0
  0
LINE
  8
0
 62
     0
 10
78.8197
 20
58.1434
 30
0.0
 11
78.0203
 21
58.1434
 31
0.0
  0
LINE
  8
0
 62
     0
 10
78.0203
 20
58.1434
 30
0.0
 11
78.0203
 21
55.0429
 31
0.0
  0
LINE
  8
0
 62
     0
 10
78.0203
 20
55.0429
 30
0.0
 11
78.8197
 21
55.0429
 31
0.0
  0
LINE
  8
0
 62
     0
 10
78.8197
 20
55.0429
 30
0.0
 11
78.8197
 21
54.0438
 31
0.0
  0
LINE
  8
0
 62
     0
 10
78.8197
 20
54.0438
 30
0.0
 11
92.819
 21
54.0438
 31
0.0
  0
LINE
  8
0
 62
     0
 10
92.819
 20
54.0438
 30
0.0
 11
92.819
 21
55.0429
 31
0.0
  0
LINE
  8
0
 62
     0
 10
92.819
 20
55.0429
 30
0.0
 11
93.6184
 21
55.0429
 31
0.0
  0
LINE
  8
0
 62
     0
 10
93.6184
 20
55.0429
 30
0.0
 11
93.6184
 21
58.1434
 31
0.0
  0
LINE
  8
0
 62
     0
 10
93.6184
 20
58.1434
 30
0.0
 11
92.819
 21
58.1434
 31
0.0
  0
LINE
  8
0
 62
     0
 10
92.819
 20
58.1434
 30
0.0
 11
92.819
 21
63.9438
 31
0.0
  0
LINE
  8
0
 62
     0
 10
92.819
 20
63.9438
 30
0.0
 11
93.6184
 21
63.9438
 31
0.0
  0
LINE
  8
0
 62
     0
 10
93.6184
 20
63.9438
 30
0.0
 11
93.6184
 21
67.0429
 31
0.0
  0
LINE
  8
0
 62
     0
 10
93.6184
 20
67.0429
 30
0.0
 11
92.819
 21
67.0429
 31
0.0
  0
LINE
  8
0
 62
     0
 10
92.819
 20
67.0429
 30
0.0
 11
92.819
 21
68.0434
 31
0.0
  0
LINE
  8
0
 62
     0
 10
92.819
 20
68.0434
 30
0.0
 11
78.8197
 21
68.0434
 31
0.0
  0
LINE
  8
0
 62
     0
 10
59.7697
 20
70.4247
 30
0.0
 11
59.7697
 21
69.4242
 31
0.0
  0
LINE
  8
0
 62
     0
 10
59.7697
 20
69.4242
 30
0.0
 11
58.9703
 21
69.4242
 31
0.0
  0
LINE
  8
0
 62
     0
 10
58.9703
 20
69.4242
 30
0.0
 11
58.9703
 21
66.325
 31
0.0
  0
LINE
  8
0
 62
     0
 10
58.9703
 20
66.325
 30
0.0
 11
59.7697
 21
66.325
 31
0.0
  0
LINE
  8
0
 62
     0
 10
59.7697
 20
66.325
 30
0.0
 11
59.7697
 21
60.5247
 31
0.0
  0
LINE
  8
0
 62
     0
 10
59.7697
 20
60.5247
 30
0.0
 11
58.9703
 21
60.5247
 31
0.0
  0
LINE
  8
0
 62
     0
 10
58.9703
 20
60.5247
 30
0.0
 11
58.9703
 21
57.4241
 31
0.0
  0
LINE
  8
0
 62
     0
 10
58.9703
 20
57.4241
 30
0.0
 11
59.7697
 21
57.4241
 31
0.0
  0
LINE
  8
0
 62
     0
 10
59.7697
 20
57.4241
 30
0.0
 11
59.7697
 21
56.425
 31
0.0
  0
LINE
  8
0
 62
     0
 10
59.7697
 20
56.425
 30
0.0
 11
73.769
 21
56.425
 31
0.0
  0
LINE
  8
0
 62
     0
 10
73.769
 20
56.425
 30
0.0
 11
73.769
 21
57.4241
 31
0.0
  0
LINE
  8
0
 62
     0
 10
73.769
 20
57.4241
 30
0.0
 11
74.5698
 21
57.4241
 31
0.0
  0
LINE
  8
0
 62
     0
 10
74.5698
 20
57.4241
 30
0.0
 11
74.5698
 21
60.5247
 31
0.0
  0
LINE
  8
0
 62
     0
 10
74.5698
 20
60.5247
 30
0.0
 11
73.769
 21
60.5247
 31
0.0
  0
LINE
  8
0
 62
     0
 10
73.769
 20
60.5247
 30
0.0
 11
73.769
 21
66.325
 31
0.0
  0
LINE
  8
0
 62
     0
 10
73.769
 20
66.325
 30
0.0
 11
74.5698
 21
66.325
 31
0.0
  0
LINE
  8
0
 62
     0
 10
74.5698
 20
66.325
 30
0.0
 11
74.5698
 21
69.4242
 31
0.0
  0
LINE
  8
0
 62
     0
 10
74.5698
 20
69.4242
 30
0.0
 11
73.769
 21
69.4242
 31
0.0
  0
LINE
  8
0
 62
     0
 10
73.769
 20
69.4242
 30
0.0
 11
73.769
 21
70.4247
 31
0.0
  0
LINE
  8
0
 62
     0
 10
73.769
 20
70.4247
 30
0.0
 11
59.7697
 21
70.4247
 31
0.0
  0
LINE
  8
0
 62
     0
 10
116.92
 20
79.9497
 30
0.0
 11
116.92
 21
78.9492
 31
0.0
  0
LINE
  8
0
 62
     0
 10
116.92
 20
78.9492
 30
0.0
 11
116.12
 21
78.9492
 31
0.0
  0
LINE
  8
0
 62
     0
 10
116.12
 20
78.9492
 30
0.0
 11
116.12
 21
75.85
 31
0.0
  0
LINE
  8
0
 62
     0
 10
116.12
 20
75.85
 30
0.0
 11
116.92
 21
75.85
 31
0.0
  0
LINE
  8
0
 62
     0
 10
116.92
 20
75.85
 30
0.0
 11
116.92
 21
70.0497
 31
0.0
  0
LINE
  8
0
 62
     0
 10
116.92
 20
70.0497
 30
0.0
 11
116.12
 21
70.0497
 31
0.0
  0
LINE
  8
0
 62
     0
 10
116.12
 20
70.0497
 30
0.0
 11
116.12
 21
66.9491
 31
0.0
  0
LINE
  8
0
 62
     0
 10
116.12
 20
66.9491
 30
0.0
 11
116.92
 21
66.9491
 31
0.0
  0
LINE
  8
0
 62
     0
 10
116.92
 20
66.9491
 30
0.0
 11
116.92
 21
65.95
 31
0.0
  0
LINE
  8
0
 62
     0
 10
116.92
 20
65.95
 30
0.0
 11
130.919
 21
65.95
 31
0.0
  0
LINE
  8
0
 62
     0
 10
130.919
 20
65.95
 30
0.0
 11
130.919
 21
66.9491
 31
0.0
  0
LINE
  8
0
 62
     0
 10
130.919
 20
66.9491
 30
0.0
 11
131.72
 21
66.9491
 31
0.0
  0
LINE
  8
0
 62
     0
 10
131.72
 20
66.9491
 30
0.0
 11
131.72
 21
70.0497
 31
0.0
  0
LINE
  8
0
 62
     0
 10
131.72
 20
70.0497
 30
0.0
 11
130.919
 21
70.0497
 31
0.0
  0
LINE
  8
0
 62
     0
 10
130.919
 20
70.0497
 30
0.0
 11
130.919
 21
75.85
 31
0.0
  0
LINE
  8
0
 62
     0
 10
130.919
 20
75.85
 30
0.0
 11
131.72
 21
75.85
 31
0.0
  0
LINE
  8
0
 62
     0
 10
131.72
 20
75.85
 30
0.0
 11
131.72
 21
78.9492
 31
0.0
  0
LINE
  8
0
 62
     0
 10
131.72
 20
78.9492
 30
0.0
 11
130.919
 21
78.9492
 31
0.0
  0
LINE
  8
0
 62
     0
 10
130.919
 20
78.9492
 30
0.0
 11
130.919
 21
79.9497
 31
0.0
  0
LINE
  8
0
 62
     0
 10
130.919
 20
79.9497
 30
0.0
 11
116.92
 21
79.9497
 31
0.0
  0
LINE
  8
0
 62
     0
 10
2.61965
 20
82.3309
 30
0.0
 11
2.61965
 21
81.3319
 31
0.0
  0
LINE
  8
0
 62
     0
 10
2.61965
 20
81.3319
 30
0.0
 11
1.82039
 21
81.3319
 31
0.0
  0
LINE
  8
0
 62
     0
 10
1.82039
 20
81.3319
 30
0.0
 11
1.82039
 21
78.2313
 31
0.0
  0
LINE
  8
0
 62
     0
 10
1.82039
 20
78.2313
 30
0.0
 11
2.61965
 21
78.2313
 31
0.0
  0
LINE
  8
0
 62
     0
 10
2.61965
 20
78.2313
 30
0.0
 11
2.61965
 21
72.4309
 31
0.0
  0
LINE
  8
0
 62
     0
 10
2.61965
 20
72.4309
 30
0.0
 11
1.82039
 21
72.4309
 31
0.0
  0
LINE
  8
0
 62
     0
 10
1.82039
 20
72.4309
 30
0.0
 11
1.82039
 21
69.3318
 31
0.0
  0
LINE
  8
0
 62
     0
 10
1.82039
 20
69.3318
 30
0.0
 11
2.61965
 21
69.3318
 31
0.0
  0
LINE
  8
0
 62
     0
 10
2.61965
 20
69.3318
 30
0.0
 11
2.61965
 21
68.3313
 31
0.0
  0
LINE
  8
0
 62
     0
 10
2.61965
 20
68.3313
 30
0.0
 11
16.6192
 21
68.3313
 31
0.0
  0
LINE
  8
0
 62
     0
 10
16.6192
 20
68.3313
 30
0.0
 11
16.6192
 21
69.3318
 31
0.0
  0
LINE
  8
0
 62
     0
 10
16.6192
 20
69.3318
 30
0.0
 11
17.4198
 21
69.3318
 31
0.0
  0
LINE
  8
0
 62
     0
 10
17.4198
 20
69.3318
 30
0.0
 11
17.4198
 21
72.4309
 31
0.0
  0
LINE
  8
0
 62
     0
 10
17.4198
 20
72.4309
 30
0.0
 11
16.6192
 21
72.4309
 31
0.0
  0
LINE
  8
0
 62
     0
 10
16.6192
 20
72.4309
 30
0.0
 11
16.6192
 21
78.2313
 31
0.0
  0
LINE
  8
0
 62
     0
 10
16.6192
 20
78.2313
 30
0.0
 11
17.4198
 21
78.2313
 31
0.0
  0
LINE
  8
0
 62
     0
 10
17.4198
 20
78.2313
 30
0.0
 11
17.4198
 21
81.3319
 31
0.0
  0
LINE
  8
0
 62
     0
 10
17.4198
 20
81.3319
 30
0.0
 11
16.6192
 21
81.3319
 31
0.0
  0
LINE
  8
0
 62
     0
 10
16.6192
 20
81.3319
 30
0.0
 11
16.6192
 21
82.3309
 31
0.0
  0
LINE
  8
0
 62
     0
 10
16.6192
 20
82.3309
 30
0.0
 11
2.61965
 21
82.3309
 31
0.0
  0
LINE
  8
0
 62
     0
 10
21.6697
 20
84.7122
 30
0.0
 11
21.6697
 21
83.7131
 31
0.0
  0
LINE
  8
0
 62
     0
 10
21.6697
 20
83.7131
 30
0.0
 11
20.8704
 21
83.7131
 31
0.0
  0
LINE
  8
0
 62
     0
 10
20.8704
 20
83.7131
 30
0.0
 11
20.8704
 21
80.6125
 31
0.0
  0
LINE
  8
0
 62
     0
 10
20.8704
 20
80.6125
 30
0.0
 11
21.6697
 21
80.6125
 31
0.0
  0
LINE
  8
0
 62
     0
 10
21.6697
 20
80.6125
 30
0.0
 11
21.6697
 21
74.8122
 31
0.0
  0
LINE
  8
0
 62
     0
 10
21.6697
 20
74.8122
 30
0.0
 11
20.8704
 21
74.8122
 31
0.0
  0
LINE
  8
0
 62
     0
 10
20.8704
 20
74.8122
 30
0.0
 11
20.8704
 21
71.713
 31
0.0
  0
LINE
  8
0
 62
     0
 10
20.8704
 20
71.713
 30
0.0
 11
21.6697
 21
71.713
 31
0.0
  0
LINE
  8
0
 62
     0
 10
21.6697
 20
71.713
 30
0.0
 11
21.6697
 21
70.7125
 31
0.0
  0
LINE
  8
0
 62
     0
 10
21.6697
 20
70.7125
 30
0.0
 11
35.669
 21
70.7125
 31
0.0
  0
LINE
  8
0
 62
     0
 10
35.669
 20
70.7125
 30
0.0
 11
35.669
 21
71.713
 31
0.0
  0
LINE
  8
0
 62
     0
 10
35.669
 20
71.713
 30
0.0
 11
36.4698
 21
71.713
 31
0.0
  0
LINE
  8
0
 62
     0
 10
36.4698
 20
71.713
 30
0.0
 11
36.4698
 21
74.8122
 31
0.0
  0
LINE
  8
0
 62
     0
 10
36.4698
 20
74.8122
 30
0.0
 11
35.669
 21
74.8122
 31
0.0
  0
LINE
  8
0
 62
     0
 10
35.669
 20
74.8122
 30
0.0
 11
35.669
 21
80.6125
 31
0.0
  0
LINE
  8
0
 62
     0
 10
35.669
 20
80.6125
 30
0.0
 11
36.4698
 21
80.6125
 31
0.0
  0
LINE
  8
0
 62
     0
 10
36.4698
 20
80.6125
 30
0.0
 11
36.4698
 21
83.7131
 31
0.0
  0
LINE
  8
0
 62
     0
 10
36.4698
 20
83.7131
 30
0.0
 11
35.669
 21
83.7131
 31
0.0
  0
LINE
  8
0
 62
     0
 10
35.669
 20
83.7131
 30
0.0
 11
35.669
 21
84.7122
 31
0.0
  0
LINE
  8
0
 62
     0
 10
35.669
 20
84.7122
 30
0.0
 11
21.6697
 21
84.7122
 31
0.0
  0
LINE
  8
0
 62
     0
 10
97.8697
 20
84.7122
 30
0.0
 11
97.8697
 21
83.7131
 31
0.0
  0
LINE
  8
0
 62
     0
 10
97.8697
 20
83.7131
 30
0.0
 11
97.0703
 21
83.7131
 31
0.0
  0
LINE
  8
0
 62
     0
 10
97.0703
 20
83.7131
 30
0.0
 11
97.0703
 21
80.6125
 31
0.0
  0
LINE
  8
0
 62
     0
 10
97.0703
 20
80.6125
 30
0.0
 11
97.8697
 21
80.6125
 31
0.0
  0
LINE
  8
0
 62
     0
 10
97.8697
 20
80.6125
 30
0.0
 11
97.8697
 21
74.8122
 31
0.0
  0
LINE
  8
0
 62
     0
 10
97.8697
 20
74.8122
 30
0.0
 11
97.0703
 21
74.8122
 31
0.0
  0
LINE
  8
0
 62
     0
 10
97.0703
 20
74.8122
 30
0.0
 11
97.0703
 21
71.713
 31
0.0
  0
LINE
  8
0
 62
     0
 10
97.0703
 20
71.713
 30
0.0
 11
97.8697
 21
71.713
 31
0.0
  0
LINE
  8
0
 62
     0
 10
97.8697
 20
71.713
 30
0.0
 11
97.8697
 21
70.7125
 31
0.0
  0
LINE
  8
0
 62
     0
 10
97.8697
 20
70.7125
 30
0.0
 11
111.869
 21
70.7125
 31
0.0
  0
LINE
  8
0
 62
     0
 10
111.869
 20
70.7125
 30
0.0
 11
111.869
 21
71.713
 31
0.0
  0
LINE
  8
0
 62
     0
 10
111.869
 20
71.713
 30
0.0
 11
112.67
 21
71.713
 31
0.0
  0
LINE
  8
0
 62
     0
 10
112.67
 20
71.713
 30
0.0
 11
112.67
 21
74.8122
 31
0.0
  0
LINE
  8
0
 62
     0
 10
112.67
 20
74.8122
 30
0.0
 11
111.869
 21
74.8122
 31
0.0
  0
LINE
  8
0
 62
     0
 10
111.869
 20
74.8122
 30
0.0
 11
111.869
 21
80.6125
 31
0.0
  0
LINE
  8
0
 62
     0
 10
111.869
 20
80.6125
 30
0.0
 11
112.67
 21
80.6125
 31
0.0
  0
LINE
  8
0
 62
     0
 10
112.67
 20
80.6125
 30
0.0
 11
112.67
 21
83.7131
 31
0.0
  0
LINE
  8
0
 62
     0
 10
112.67
 20
83.7131
 30
0.0
 11
111.869
 21
83.7131
 31
0.0
  0
LINE
  8
0
 62
     0
 10
111.869
 20
83.7131
 30
0.0
 11
111.869
 21
84.7122
 31
0.0
  0
LINE
  8
0
 62
     0
 10
111.869
 20
84.7122
 30
0.0
 11
97.8697
 21
84.7122
 31
0.0
  0
LINE
  8
0
 62
     0
 10
40.7197
 20
87.0934
 30
0.0
 11
40.7197
 21
86.0929
 31
0.0
  0
LINE
  8
0
 62
     0
 10
40.7197
 20
86.0929
 30
0.0
 11
39.9203
 21
86.0929
 31
0.0
  0
LINE
  8
0
 62
     0
 10
39.9203
 20
86.0929
 30
0.0
 11
39.9203
 21
82.9938
 31
0.0
  0
LINE
  8
0
 62
     0
 10
39.9203
 20
82.9938
 30
0.0
 11
40.7197
 21
82.9938
 31
0.0
  0
LINE
  8
0
 62
     0
 10
40.7197
 20
82.9938
 30
0.0
 11
40.7197
 21
77.1934
 31
0.0
  0
LINE
  8
0
 62
     0
 10
40.7197
 20
77.1934
 30
0.0
 11
39.9203
 21
77.1934
 31
0.0
  0
LINE
  8
0
 62
     0
 10
39.9203
 20
77.1934
 30
0.0
 11
39.9203
 21
74.0929
 31
0.0
  0
LINE
  8
0
 62
     0
 10
39.9203
 20
74.0929
 30
0.0
 11
40.7197
 21
74.0929
 31
0.0
  0
LINE
  8
0
 62
     0
 10
40.7197
 20
74.0929
 30
0.0
 11
40.7197
 21
73.0938
 31
0.0
  0
LINE
  8
0
 62
     0
 10
40.7197
 20
73.0938
 30
0.0
 11
54.719
 21
73.0938
 31
0.0
  0
LINE
  8
0
 62
     0
 10
54.719
 20
73.0938
 30
0.0
 11
54.719
 21
74.0929
 31
0.0
  0
LINE
  8
0
 62
     0
 10
54.719
 20
74.0929
 30
0.0
 11
55.5198
 21
74.0929
 31
0.0
  0
LINE
  8
0
 62
     0
 10
55.5198
 20
74.0929
 30
0.0
 11
55.5198
 21
77.1934
 31
0.0
  0
LINE
  8
0
 62
     0
 10
55.5198
 20
77.1934
 30
0.0
 11
54.719
 21
77.1934
 31
0.0
  0
LINE
  8
0
 62
     0
 10
54.719
 20
77.1934
 30
0.0
 11
54.719
 21
82.9938
 31
0.0
  0
LINE
  8
0
 62
     0
 10
54.719
 20
82.9938
 30
0.0
 11
55.5198
 21
82.9938
 31
0.0
  0
LINE
  8
0
 62
     0
 10
55.5198
 20
82.9938
 30
0.0
 11
55.5198
 21
86.0929
 31
0.0
  0
LINE
  8
0
 62
     0
 10
55.5198
 20
86.0929
 30
0.0
 11
54.719
 21
86.0929
 31
0.0
  0
LINE
  8
0
 62
     0
 10
54.719
 20
86.0929
 30
0.0
 11
54.719
 21
87.0934
 31
0.0
  0
LINE
  8
0
 62
     0
 10
54.719
 20
87.0934
 30
0.0
 11
40.7197
 21
87.0934
 31
0.0
  0
LINE
  8
0
 62
     0
 10
78.8197
 20
87.0934
 30
0.0
 11
78.8197
 21
86.0929
 31
0.0
  0
LINE
  8
0
 62
     0
 10
78.8197
 20
86.0929
 30
0.0
 11
78.0203
 21
86.0929
 31
0.0
  0
LINE
  8
0
 62
     0
 10
78.0203
 20
86.0929
 30
0.0
 11
78.0203
 21
82.9938
 31
0.0
  0
LINE
  8
0
 62
     0
 10
78.0203
 20
82.9938
 30
0.0
 11
78.8197
 21
82.9938
 31
0.0
  0
LINE
  8
0
 62
     0
 10
78.8197
 20
82.9938
 30
0.0
 11
78.8197
 21
77.1934
 31
0.0
  0
LINE
  8
0
 62
     0
 10
78.8197
 20
77.1934
 30
0.0
 11
78.0203
 21
77.1934
 31
0.0
  0
LINE
  8
0
 62
     0
 10
78.0203
 20
77.1934
 30
0.0
 11
78.0203
 21
74.0929
 31
0.0
  0
LINE
  8
0
 62
     0
 10
78.0203
 20
74.0929
 30
0.0
 11
78.8197
 21
74.0929
 31
0.0
  0
LINE
  8
0
 62
     0
 10
78.8197
 20
74.0929
 30
0.0
 11
78.8197
 21
73.0938
 31
0.0
  0
LINE
  8
0
 62
     0
 10
78.8197
 20
73.0938
 30
0.0
 11
92.819
 21
73.0938
 31
0.0
  0
LINE
  8
0
 62
     0
 10
92.819
 20
73.0938
 30
0.0
 11
92.819
 21
74.0929
 31
0.0
  0
LINE
  8
0
 62
     0
 10
92.819
 20
74.0929
 30
0.0
 11
93.6184
 21
74.0929
 31
0.0
  0
LINE
  8
0
 62
     0
 10
93.6184
 20
74.0929
 30
0.0
 11
93.6184
 21
77.1934
 31
0.0
  0
LINE
  8
0
 62
     0
 10
93.6184
 20
77.1934
 30
0.0
 11
92.819
 21
77.1934
 31
0.0
  0
LINE
  8
0
 62
     0
 10
92.819
 20
77.1934
 30
0.0
 11
92.819
 21
82.9938
 31
0.0
  0
LINE
  8
0
 62
     0
 10
92.819
 20
82.9938
 30
0.0
 11
93.6184
 21
82.9938
 31
0.0
  0
LINE
  8
0
 62
     0
 10
93.6184
 20
82.9938
 30
0.0
 11
93.6184
 21
86.0929
 31
0.0
  0
LINE
  8
0
 62
     0
 10
93.6184
 20
86.0929
 30
0.0
 11
92.819
 21
86.0929
 31
0.0
  0
LINE
  8
0
 62
     0
 10
92.819
 20
86.0929
 30
0.0
 11
92.819
 21
87.0934
 31
0.0
  0
LINE
  8
0
 62
     0
 10
92.819
 20
87.0934
 30
0.0
 11
78.8197
 21
87.0934
 31
0.0
  0
LINE
  8
0
 62
     0
 10
59.7697
 20
89.4747
 30
0.0
 11
59.7697
 21
88.4742
 31
0.0
  0
LINE
  8
0
 62
     0
 10
59.7697
 20
88.4742
 30
0.0
 11
58.9703
 21
88.4742
 31
0.0
  0
LINE
  8
0
 62
     0
 10
58.9703
 20
88.4742
 30
0.0
 11
58.9703
 21
85.375
 31
0.0
  0
LINE
  8
0
 62
     0
 10
58.9703
 20
85.375
 30
0.0
 11
59.7697
 21
85.375
 31
0.0
  0
LINE
  8
0
 62
     0
 10
59.7697
 20
85.375
 30
0.0
 11
59.7697
 21
79.5747
 31
0.0
  0
LINE
  8
0
 62
     0
 10
59.7697
 20
79.5747
 30
0.0
 11
58.9703
 21
79.5747
 31
0.0
  0
LINE
  8
0
 62
     0
 10
58.9703
 20
79.5747
 30
0.0
 11
58.9703
 21
76.4741
 31
0.0
  0
LINE
  8
0
 62
     0
 10
58.9703
 20
76.4741
 30
0.0
 11
59.7697
 21
76.4741
 31
0.0
  0
LINE
  8
0
 62
     0
 10
59.7697
 20
76.4741
 30
0.0
 11
59.7697
 21
75.475
 31
0.0
  0
LINE
  8
0
 62
     0
 10
59.7697
 20
75.475
 30
0.0
 11
73.769
 21
75.475
 31
0.0
  0
LINE
  8
0
 62
     0
 10
73.769
 20
75.475
 30
0.0
 11
73.769
 21
76.4741
 31
0.0
  0
LINE
  8
0
 62
     0
 10
73.769
 20
76.4741
 30
0.0
 11
74.5698
 21
76.4741
 31
0.0
  0
LINE
  8
0
 62
     0
 10
74.5698
 20
76.4741
 30
0.0
 11
74.5698
 21
79.5747
 31
0.0
  0
LINE
  8
0
 62
     0
 10
74.5698
 20
79.5747
 30
0.0
 11
73.769
 21
79.5747
 31
0.0
  0
LINE
  8
0
 62
     0
 10
73.769
 20
79.5747
 30
0.0
 11
73.769
 21
85.375
 31
0.0
  0
LINE
  8
0
 62
     0
 10
73.769
 20
85.375
 30
0.0
 11
74.5698
 21
85.375
 31
0.0
  0
LINE
  8
0
 62
     0
 10
74.5698
 20
85.375
 30
0.0
 11
74.5698
 21
88.4742
 31
0.0
  0
LINE
  8
0
 62
     0
 10
74.5698
 20
88.4742
 30
0.0
 11
73.769
 21
88.4742
 31
0.0
  0
LINE
  8
0
 62
     0
 10
73.769
 20
88.4742
 30
0.0
 11
73.769
 21
89.4747
 31
0.0
  0
LINE
  8
0
 62
     0
 10
73.769
 20
89.4747
 30
0.0
 11
59.7697
 21
89.4747
 31
0.0
  0
ENDSEC
  0
EOF
