  0
SECTION
  2
HEADER
  9
$ACADVER
  1
AC1009
  9
$EXTMIN
 10
0.0
 20
0.0
 30
0.0
  9
$EXTMAX
 10
1000.0
 20
1000.0
 30
0.0
  9
$FILLMODE
 70
 0
  9
$SPLFRAME
 70
 1
  0
ENDSEC
  0
SECTION
  2
TABLES
  0
TABLE
  2
LAYER
 70
1
  0
LAYER
  2
0
 70
     0
 62
     7
  6
CONTINUOUS
  0
ENDTAB
  0
ENDSEC
  0
SECTION
  2
ENTITIES
  0
LINE
  8
0
 62
     0
 10
0.0950846
 20
91.9977
 30
0.0
 11
138.122
 21
91.9977
 31
0.0
  0
LINE
  8
0
 62
     0
 10
138.122
 20
91.9977
 30
0.0
 11
138.122
 21
0.0854385
 31
0.0
  0
LINE
  8
0
 62
     0
 10
138.122
 20
0.0854385
 30
0.0
 11
0.0950846
 21
0.0854385
 31
0.0
  0
LINE
  8
0
 62
     0
 10
0.0950846
 20
0.0854385
 30
0.0
 11
0.0950846
 21
91.9977
 31
0.0
  0
LINE
  8
0
 62
     0
 10
106.022
 20
10.5365
 30
0.0
 11
118.146
 21
3.53741
 31
0.0
  0
LINE
  8
0
 62
     0
 10
118.146
 20
3.53741
 30
0.0
 11
125.145
 21
15.6614
 31
0.0
  0
LINE
  8
0
 62
     0
 10
125.145
 20
15.6614
 30
0.0
 11
113.023
 21
22.6618
 31
0.0
  0
LINE
  8
0
 62
     0
 10
113.023
 20
22.6618
 30
0.0
 11
106.022
 21
10.5365
 31
0.0
  0
LINE
  8
0
 62
     0
 10
2.61965
 20
25.1809
 30
0.0
 11
16.6192
 21
25.1809
 31
0.0
  0
LINE
  8
0
 62
     0
 10
16.6192
 20
25.1809
 30
0.0
 11
16.6192
 21
11.18
 31
0.0
  0
LINE
  8
0
 62
     0
 10
16.6192
 20
11.18
 30
0.0
 11
2.61965
 21
11.18
 31
0.0
  0
LINE
  8
0
 62
     0
 10
2.61965
 20
11.18
 30
0.0
 11
2.61965
 21
25.1809
 31
0.0
  0
LINE
  8
0
 62
     0
 10
84.2603
 20
15.2342
 30
0.0
 11
98.0475
 21
12.8034
 31
0.0
  0
LINE
  8
0
 62
     0
 10
98.0475
 20
12.8034
 30
0.0
 11
100.478
 21
26.5906
 31
0.0
  0
LINE
  8
0
 62
     0
 10
100.478
 20
26.5906
 30
0.0
 11
86.6909
 21
29.0215
 31
0.0
  0
LINE
  8
0
 62
     0
 10
86.6909
 20
29.0215
 30
0.0
 11
84.2603
 21
15.2342
 31
0.0
  0
LINE
  8
0
 62
     0
 10
21.6697
 20
27.5621
 30
0.0
 11
35.669
 21
27.5621
 31
0.0
  0
LINE
  8
0
 62
     0
 10
35.669
 20
27.5621
 30
0.0
 11
35.669
 21
13.5613
 31
0.0
  0
LINE
  8
0
 62
     0
 10
35.669
 20
13.5613
 30
0.0
 11
21.6697
 21
13.5613
 31
0.0
  0
LINE
  8
0
 62
     0
 10
21.6697
 20
13.5613
 30
0.0
 11
21.6697
 21
27.5621
 31
0.0
  0
LINE
  8
0
 62
     0
 10
40.7197
 20
29.8483
 30
0.0
 11
54.719
 21
29.8483
 31
0.0
  0
LINE
  8
0
 62
     0
 10
54.719
 20
29.8483
 30
0.0
 11
54.719
 21
15.8488
 31
0.0
  0
LINE
  8
0
 62
     0
 10
54.719
 20
15.8488
 30
0.0
 11
40.7197
 21
15.8488
 31
0.0
  0
LINE
  8
0
 62
     0
 10
40.7197
 20
15.8488
 30
0.0
 11
40.7197
 21
29.8483
 31
0.0
  0
LINE
  8
0
 62
     0
 10
59.7697
 20
32.3246
 30
0.0
 11
73.769
 21
32.3246
 31
0.0
  0
LINE
  8
0
 62
     0
 10
73.769
 20
32.3246
 30
0.0
 11
73.769
 21
18.3238
 31
0.0
  0
LINE
  8
0
 62
     0
 10
73.769
 20
18.3238
 30
0.0
 11
59.7697
 21
18.3238
 31
0.0
  0
LINE
  8
0
 62
     0
 10
59.7697
 20
18.3238
 30
0.0
 11
59.7697
 21
32.3246
 31
0.0
  0
LINE
  8
0
 62
     0
 10
115.547
 20
27.0357
 30
0.0
 11
127.671
 21
20.0353
 31
0.0
  0
LINE
  8
0
 62
     0
 10
127.671
 20
20.0353
 30
0.0
 11
134.672
 21
32.1579
 31
0.0
  0
LINE
  8
0
 62
     0
 10
134.672
 20
32.1579
 30
0.0
 11
122.548
 21
39.1597
 31
0.0
  0
LINE
  8
0
 62
     0
 10
122.548
 20
39.1597
 30
0.0
 11
115.547
 21
27.0357
 31
0.0
  0
LINE
  8
0
 62
     0
 10
2.61965
 20
44.2309
 30
0.0
 11
16.6192
 21
44.2309
 31
0.0
  0
LINE
  8
0
 62
     0
 10
16.6192
 20
44.2309
 30
0.0
 11
16.6192
 21
30.23
 31
0.0
  0
LINE
  8
0
 62
     0
 10
16.6192
 20
30.23
 30
0.0
 11
2.61965
 21
30.23
 31
0.0
  0
LINE
  8
0
 62
     0
 10
2.61965
 20
30.23
 30
0.0
 11
2.61965
 21
44.2309
 31
0.0
  0
LINE
  8
0
 62
     0
 10
21.6697
 20
46.6122
 30
0.0
 11
35.669
 21
46.6122
 31
0.0
  0
LINE
  8
0
 62
     0
 10
35.669
 20
46.6122
 30
0.0
 11
35.669
 21
32.6113
 31
0.0
  0
LINE
  8
0
 62
     0
 10
35.669
 20
32.6113
 30
0.0
 11
21.6697
 21
32.6113
 31
0.0
  0
LINE
  8
0
 62
     0
 10
21.6697
 20
32.6113
 30
0.0
 11
21.6697
 21
46.6122
 31
0.0
  0
LINE
  8
0
 62
     0
 10
97.8697
 20
46.6122
 30
0.0
 11
111.869
 21
46.6122
 31
0.0
  0
LINE
  8
0
 62
     0
 10
111.869
 20
46.6122
 30
0.0
 11
111.869
 21
32.6113
 31
0.0
  0
LINE
  8
0
 62
     0
 10
111.869
 20
32.6113
 30
0.0
 11
97.8697
 21
32.6113
 31
0.0
  0
LINE
  8
0
 62
     0
 10
97.8697
 20
32.6113
 30
0.0
 11
97.8697
 21
46.6122
 31
0.0
  0
LINE
  8
0
 62
     0
 10
40.7197
 20
48.9934
 30
0.0
 11
54.719
 21
48.9934
 31
0.0
  0
LINE
  8
0
 62
     0
 10
54.719
 20
48.9934
 30
0.0
 11
54.719
 21
34.9925
 31
0.0
  0
LINE
  8
0
 62
     0
 10
54.719
 20
34.9925
 30
0.0
 11
40.7197
 21
34.9925
 31
0.0
  0
LINE
  8
0
 62
     0
 10
40.7197
 20
34.9925
 30
0.0
 11
40.7197
 21
48.9934
 31
0.0
  0
LINE
  8
0
 62
     0
 10
78.8197
 20
48.9934
 30
0.0
 11
92.819
 21
48.9934
 31
0.0
  0
LINE
  8
0
 62
     0
 10
92.819
 20
48.9934
 30
0.0
 11
92.819
 21
34.9925
 31
0.0
  0
LINE
  8
0
 62
     0
 10
92.819
 20
34.9925
 30
0.0
 11
78.8197
 21
34.9925
 31
0.0
  0
LINE
  8
0
 62
     0
 10
78.8197
 20
34.9925
 30
0.0
 11
78.8197
 21
48.9934
 31
0.0
  0
LINE
  8
0
 62
     0
 10
59.7697
 20
51.3747
 30
0.0
 11
73.769
 21
51.3747
 31
0.0
  0
LINE
  8
0
 62
     0
 10
73.769
 20
51.3747
 30
0.0
 11
73.769
 21
37.3736
 31
0.0
  0
LINE
  8
0
 62
     0
 10
73.769
 20
37.3736
 30
0.0
 11
59.7697
 21
37.3736
 31
0.0
  0
LINE
  8
0
 62
     0
 10
59.7697
 20
37.3736
 30
0.0
 11
59.7697
 21
51.3747
 31
0.0
  0
LINE
  8
0
 62
     0
 10
116.92
 20
60.8997
 30
0.0
 11
130.919
 21
60.8997
 31
0.0
  0
LINE
  8
0
 62
     0
 10
130.919
 20
60.8997
 30
0.0
 11
130.919
 21
46.8986
 31
0.0
  0
LINE
  8
0
 62
     0
 10
130.919
 20
46.8986
 30
0.0
 11
116.92
 21
46.8986
 31
0.0
  0
LINE
  8
0
 62
     0
 10
116.92
 20
46.8986
 30
0.0
 11
116.92
 21
60.8997
 31
0.0
  0
LINE
  8
0
 62
     0
 10
2.61965
 20
63.2809
 30
0.0
 11
16.6192
 21
63.2809
 31
0.0
  0
LINE
  8
0
 62
     0
 10
16.6192
 20
63.2809
 30
0.0
 11
16.6192
 21
49.2799
 31
0.0
  0
LINE
  8
0
 62
     0
 10
16.6192
 20
49.2799
 30
0.0
 11
2.61965
 21
49.2799
 31
0.0
  0
LINE
  8
0
 62
     0
 10
2.61965
 20
49.2799
 30
0.0
 11
2.61965
 21
63.2809
 31
0.0
  0
LINE
  8
0
 62
     0
 10
21.6697
 20
65.6622
 30
0.0
 11
35.669
 21
65.6622
 31
0.0
  0
LINE
  8
0
 62
     0
 10
35.669
 20
65.6622
 30
0.0
 11
35.669
 21
51.6611
 31
0.0
  0
LINE
  8
0
 62
     0
 10
35.669
 20
51.6611
 30
0.0
 11
21.6697
 21
51.6611
 31
0.0
  0
LINE
  8
0
 62
     0
 10
21.6697
 20
51.6611
 30
0.0
 11
21.6697
 21
65.6622
 31
0.0
  0
LINE
  8
0
 62
     0
 10
97.8697
 20
65.6622
 30
0.0
 11
111.869
 21
65.6622
 31
0.0
  0
LINE
  8
0
 62
     0
 10
111.869
 20
65.6622
 30
0.0
 11
111.869
 21
51.6611
 31
0.0
  0
LINE
  8
0
 62
     0
 10
111.869
 20
51.6611
 30
0.0
 11
97.8697
 21
51.6611
 31
0.0
  0
LINE
  8
0
 62
     0
 10
97.8697
 20
51.6611
 30
0.0
 11
97.8697
 21
65.6622
 31
0.0
  0
LINE
  8
0
 62
     0
 10
40.7197
 20
68.0434
 30
0.0
 11
54.719
 21
68.0434
 31
0.0
  0
LINE
  8
0
 62
     0
 10
54.719
 20
68.0434
 30
0.0
 11
54.719
 21
54.0424
 31
0.0
  0
LINE
  8
0
 62
     0
 10
54.719
 20
54.0424
 30
0.0
 11
40.7197
 21
54.0424
 31
0.0
  0
LINE
  8
0
 62
     0
 10
40.7197
 20
54.0424
 30
0.0
 11
40.7197
 21
68.0434
 31
0.0
  0
LINE
  8
0
 62
     0
 10
78.8197
 20
68.0434
 30
0.0
 11
92.819
 21
68.0434
 31
0.0
  0
LINE
  8
0
 62
     0
 10
92.819
 20
68.0434
 30
0.0
 11
92.819
 21
54.0424
 31
0.0
  0
LINE
  8
0
 62
     0
 10
92.819
 20
54.0424
 30
0.0
 11
78.8197
 21
54.0424
 31
0.0
  0
LINE
  8
0
 62
     0
 10
78.8197
 20
54.0424
 30
0.0
 11
78.8197
 21
68.0434
 31
0.0
  0
LINE
  8
0
 62
     0
 10
59.7697
 20
70.4247
 30
0.0
 11
73.769
 21
70.4247
 31
0.0
  0
LINE
  8
0
 62
     0
 10
73.769
 20
70.4247
 30
0.0
 11
73.769
 21
56.4236
 31
0.0
  0
LINE
  8
0
 62
     0
 10
73.769
 20
56.4236
 30
0.0
 11
59.7697
 21
56.4236
 31
0.0
  0
LINE
  8
0
 62
     0
 10
59.7697
 20
56.4236
 30
0.0
 11
59.7697
 21
70.4247
 31
0.0
  0
LINE
  8
0
 62
     0
 10
116.92
 20
79.9497
 30
0.0
 11
130.919
 21
79.9497
 31
0.0
  0
LINE
  8
0
 62
     0
 10
130.919
 20
79.9497
 30
0.0
 11
130.919
 21
65.9486
 31
0.0
  0
LINE
  8
0
 62
     0
 10
130.919
 20
65.9486
 30
0.0
 11
116.92
 21
65.9486
 31
0.0
  0
LINE
  8
0
 62
     0
 10
116.92
 20
65.9486
 30
0.0
 11
116.92
 21
79.9497
 31
0.0
  0
LINE
  8
0
 62
     0
 10
2.61965
 20
82.3309
 30
0.0
 11
16.6192
 21
82.3309
 31
0.0
  0
LINE
  8
0
 62
     0
 10
16.6192
 20
82.3309
 30
0.0
 11
16.6192
 21
68.3299
 31
0.0
  0
LINE
  8
0
 62
     0
 10
16.6192
 20
68.3299
 30
0.0
 11
2.61965
 21
68.3299
 31
0.0
  0
LINE
  8
0
 62
     0
 10
2.61965
 20
68.3299
 30
0.0
 11
2.61965
 21
82.3309
 31
0.0
  0
LINE
  8
0
 62
     0
 10
21.6697
 20
84.7122
 30
0.0
 11
35.669
 21
84.7122
 31
0.0
  0
LINE
  8
0
 62
     0
 10
35.669
 20
84.7122
 30
0.0
 11
35.669
 21
70.7111
 31
0.0
  0
LINE
  8
0
 62
     0
 10
35.669
 20
70.7111
 30
0.0
 11
21.6697
 21
70.7111
 31
0.0
  0
LINE
  8
0
 62
     0
 10
21.6697
 20
70.7111
 30
0.0
 11
21.6697
 21
84.7122
 31
0.0
  0
LINE
  8
0
 62
     0
 10
97.8697
 20
84.7122
 30
0.0
 11
111.869
 21
84.7122
 31
0.0
  0
LINE
  8
0
 62
     0
 10
111.869
 20
84.7122
 30
0.0
 11
111.869
 21
70.7111
 31
0.0
  0
LINE
  8
0
 62
     0
 10
111.869
 20
70.7111
 30
0.0
 11
97.8697
 21
70.7111
 31
0.0
  0
LINE
  8
0
 62
     0
 10
97.8697
 20
70.7111
 30
0.0
 11
97.8697
 21
84.7122
 31
0.0
  0
LINE
  8
0
 62
     0
 10
40.7197
 20
87.0934
 30
0.0
 11
54.719
 21
87.0934
 31
0.0
  0
LINE
  8
0
 62
     0
 10
54.719
 20
87.0934
 30
0.0
 11
54.719
 21
73.0924
 31
0.0
  0
LINE
  8
0
 62
     0
 10
54.719
 20
73.0924
 30
0.0
 11
40.7197
 21
73.0924
 31
0.0
  0
LINE
  8
0
 62
     0
 10
40.7197
 20
73.0924
 30
0.0
 11
40.7197
 21
87.0934
 31
0.0
  0
LINE
  8
0
 62
     0
 10
78.8197
 20
87.0934
 30
0.0
 11
92.819
 21
87.0934
 31
0.0
  0
LINE
  8
0
 62
     0
 10
92.819
 20
87.0934
 30
0.0
 11
92.819
 21
73.0924
 31
0.0
  0
LINE
  8
0
 62
     0
 10
92.819
 20
73.0924
 30
0.0
 11
78.8197
 21
73.0924
 31
0.0
  0
LINE
  8
0
 62
     0
 10
78.8197
 20
73.0924
 30
0.0
 11
78.8197
 21
87.0934
 31
0.0
  0
LINE
  8
0
 62
     0
 10
59.7697
 20
89.4747
 30
0.0
 11
73.769
 21
89.4747
 31
0.0
  0
LINE
  8
0
 62
     0
 10
73.769
 20
89.4747
 30
0.0
 11
73.769
 21
75.4736
 31
0.0
  0
LINE
  8
0
 62
     0
 10
73.769
 20
75.4736
 30
0.0
 11
59.7697
 21
75.4736
 31
0.0
  0
LINE
  8
0
 62
     0
 10
59.7697
 20
75.4736
 30
0.0
 11
59.7697
 21
89.4747
 31
0.0
  0
ENDSEC
  0
EOF
