M48
;DRILL file {KiCad 4.0.7} date 08/17/18 08:34:56
;FORMAT={-:-/ absolute / inch / decimal}
FMAT,2
INCH,TZ
T1C0.012
T2C0.016
T3C0.028
T4C0.031
T5C0.039
T6C0.043
T7C0.059
%
G90
G05
M72
T1
X6.7546Y-1.99
X6.7546Y-1.99
X6.79Y-1.99
X6.79Y-1.99
T2
X4.1Y-2.0896
X4.45Y-1.9772
X4.45Y-2.1228
X4.45Y-2.1228
X4.6063Y-2.7047
X4.6555Y-2.7067
X4.6555Y-2.7953
X4.765Y-1.9357
X4.801Y-1.9496
X5.45Y-3.025
X6.Y-3.525
X6.015Y-3.87
X6.0677Y-3.4393
X6.25Y-3.4
X6.62Y-2.
X6.7Y-3.45
X7.51Y-3.675
X7.6554Y-2.0627
X7.7422Y-2.0627
X7.9015Y-2.0627
X8.0187Y-2.0627
T3
X3.675Y-2.3965
X3.675Y-2.7035
X3.675Y-4.6344
X3.675Y-4.9415
X3.7Y-3.1465
X3.7Y-3.4535
X3.7Y-3.8965
X3.7Y-4.2035
X4.45Y-2.2965
X4.45Y-2.6035
X4.45Y-3.0652
X4.45Y-3.3722
X4.45Y-3.8085
X4.45Y-4.1156
X4.45Y-4.5465
X4.45Y-4.8535
X5.15Y-2.2094
X5.15Y-2.5165
X5.175Y-3.1465
X5.175Y-3.4535
X5.2Y-3.6965
X5.2Y-4.0035
X5.2Y-4.4585
X5.2Y-4.7656
X5.95Y-3.1465
X5.95Y-3.4535
X5.95Y-3.6215
X5.95Y-3.9285
X5.95Y-4.3585
X5.95Y-4.6656
X6.Y-2.2179
X6.Y-2.525
X6.1Y-4.3594
X6.1Y-4.6665
X6.7Y-2.2085
X6.7Y-2.5156
X6.7Y-2.9715
X6.7Y-3.2785
X6.7Y-3.7
X6.7Y-4.0071
X7.05Y-4.4179
X7.05Y-4.725
X7.17Y-4.3894
X7.17Y-4.6965
X7.45Y-2.3028
X7.45Y-2.6098
X7.45Y-3.0465
X7.45Y-3.3535
X7.45Y-3.7652
X7.45Y-4.0722
X7.7028Y-3.
X7.7465Y-3.8
X7.75Y-3.7
X8.0098Y-3.
X8.0535Y-3.8
X8.0571Y-3.7
T4
X6.8831Y-1.93
X6.8844Y-2.06
X7.2831Y-1.93
X7.2844Y-2.06
T5
X3.6515Y-2.1045
X3.75Y-2.0872
X3.8485Y-2.0698
X3.947Y-2.0524
X4.0454Y-2.0351
X4.1439Y-2.0177
X5.05Y-1.9
X5.05Y-2.
X6.14Y-1.92
X6.24Y-1.92
X6.34Y-1.92
X6.44Y-1.92
X6.54Y-1.92
X7.Y-4.3
X7.1Y-4.3
T6
X5.2764Y-1.9706
X5.2764Y-2.0706
X5.2764Y-2.1706
X5.2764Y-2.2706
X5.2764Y-2.3706
X5.2764Y-2.4706
X5.2764Y-2.5706
X5.2764Y-2.6706
X5.2764Y-2.7706
X5.2764Y-2.8706
X5.2764Y-2.9706
X5.2764Y-3.0706
X5.8764Y-1.9706
X5.8764Y-2.0706
X5.8764Y-2.1706
X5.8764Y-2.2706
X5.8764Y-2.3706
X5.8764Y-2.4706
X5.8764Y-2.5706
X5.8764Y-2.6706
X5.8764Y-2.7706
X5.8764Y-2.8706
X5.8764Y-2.9706
X5.8764Y-3.0706
T7
X3.2057Y-3.1124G85X3.1738Y-3.1699
G05
X3.2057Y-3.8625G85X3.1738Y-3.92
G05
X3.2057Y-4.6102G85X3.1738Y-4.6677
G05
X3.2065Y-2.36G85X3.1746Y-2.4175
G05
X3.2238Y-3.0699G85X3.2254Y-3.0927
G05
X3.2238Y-3.82G85X3.2254Y-3.8428
G05
X3.2238Y-4.5678G85X3.2254Y-4.5905
G05
X3.2246Y-2.3175G85X3.2261Y-2.3403
G05
X3.4238Y-3.0699G85X3.4223Y-3.0927
G05
X3.4238Y-3.82G85X3.4223Y-3.8428
G05
X3.4238Y-4.5678G85X3.4223Y-4.5905
G05
X3.4246Y-2.3175G85X3.423Y-2.3403
G05
X3.4419Y-3.1124G85X3.4738Y-3.1699
G05
X3.4419Y-3.8625G85X3.4738Y-3.92
G05
X3.4419Y-4.6102G85X3.4738Y-4.6677
G05
X3.4427Y-2.36G85X3.4746Y-2.4175
G05
X3.9558Y-4.5188G85X3.9239Y-4.5763
G05
X3.9582Y-2.2686G85X3.9262Y-2.3261
G05
X3.9582Y-3.021G85X3.9262Y-3.0785
G05
X3.9582Y-3.7664G85X3.9262Y-3.8239
G05
X3.9739Y-4.4763G85X3.9755Y-4.4991
G05
X3.9763Y-2.2261G85X3.9778Y-2.2489
G05
X3.9763Y-2.9785G85X3.9778Y-3.0013
G05
X3.9763Y-3.7239G85X3.9778Y-3.7467
G05
X4.1739Y-4.4763G85X4.1723Y-4.4991
G05
X4.1762Y-2.2261G85X4.1747Y-2.2489
G05
X4.1762Y-2.9785G85X4.1747Y-3.0013
G05
X4.1762Y-3.7239G85X4.1747Y-3.7467
G05
X4.192Y-4.5188G85X4.2239Y-4.5763
G05
X4.1943Y-2.2686G85X4.2263Y-2.3261
G05
X4.1943Y-3.021G85X4.2263Y-3.0785
G05
X4.1943Y-3.7664G85X4.2263Y-3.8239
G05
X4.7035Y-3.6726G85X4.6716Y-3.7301
G05
X4.7059Y-2.1701G85X4.674Y-2.2276
G05
X4.7059Y-2.9249G85X4.674Y-2.9824
G05
X4.7075Y-4.4251G85X4.6756Y-4.4825
G05
X4.7217Y-3.6301G85X4.7232Y-3.6529
G05
X4.724Y-2.1276G85X4.7255Y-2.1504
G05
X4.724Y-2.8824G85X4.7255Y-2.9052
G05
X4.7256Y-4.3826G85X4.7271Y-4.4054
G05
X4.9216Y-3.6301G85X4.9201Y-3.6529
G05
X4.924Y-2.1276G85X4.9224Y-2.1504
G05
X4.924Y-2.8824G85X4.9224Y-2.9052
G05
X4.9256Y-4.3826G85X4.924Y-4.4054
G05
X4.9397Y-3.6726G85X4.9717Y-3.7301
G05
X4.9421Y-2.1701G85X4.974Y-2.2276
G05
X4.9421Y-2.9249G85X4.974Y-2.9824
G05
X4.9437Y-4.4251G85X4.9756Y-4.4825
G05
X5.456Y-4.3313G85X5.4241Y-4.3888
G05
X5.4576Y-2.8288G85X5.4256Y-2.8863
G05
X5.4583Y-3.5812G85X5.4264Y-3.6387
G05
X5.4591Y-2.0787G85X5.4272Y-2.1362
G05
X5.4741Y-4.2888G85X5.4756Y-4.3116
G05
X5.4757Y-2.7863G85X5.4772Y-2.8091
G05
X5.4764Y-3.5387G85X5.478Y-3.5615
G05
X5.4772Y-2.0362G85X5.4787Y-2.059
G05
X5.6741Y-4.2888G85X5.6725Y-4.3116
G05
X5.6756Y-2.7863G85X5.6741Y-2.8091
G05
X5.6764Y-3.5387G85X5.6748Y-3.5615
G05
X5.6772Y-2.0362G85X5.6756Y-2.059
G05
X5.6922Y-4.3313G85X5.7241Y-4.3888
G05
X5.6937Y-2.8288G85X5.7257Y-2.8863
G05
X5.6945Y-3.5812G85X5.7264Y-3.6387
G05
X5.6953Y-2.0787G85X5.7272Y-2.1362
G05
X6.2061Y-2.1725G85X6.1741Y-2.2299
G05
X6.2061Y-2.9249G85X6.1741Y-2.9824
G05
X6.2061Y-3.6726G85X6.1741Y-3.7301
G05
X6.2242Y-2.13G85X6.2257Y-2.1528
G05
X6.2242Y-2.8824G85X6.2257Y-2.9052
G05
X6.2242Y-3.6301G85X6.2257Y-3.6529
G05
X6.4241Y-2.13G85X6.4226Y-2.1528
G05
X6.4241Y-2.8824G85X6.4226Y-2.9052
G05
X6.4241Y-3.6301G85X6.4226Y-3.6529
G05
X6.4422Y-2.1725G85X6.4742Y-2.2299
G05
X6.4422Y-2.9249G85X6.4742Y-2.9824
G05
X6.4422Y-3.6726G85X6.4742Y-3.7301
G05
X6.4954Y-4.4867G85X6.454Y-4.5377
G05
X6.5206Y-4.4479G85X6.5182Y-4.4707
G05
X6.7175Y-4.4827G85X6.712Y-4.5048
G05
X6.728Y-4.5277G85X6.7494Y-4.5898
G05
X6.9561Y-2.2662G85X6.9242Y-2.3237
G05
X6.9561Y-3.7664G85X6.9242Y-3.8239
G05
X6.9585Y-3.0187G85X6.9266Y-3.0761
G05
X6.9743Y-2.2237G85X6.9758Y-2.2465
G05
X6.9743Y-3.7239G85X6.9758Y-3.7467
G05
X6.9766Y-2.9762G85X6.9781Y-2.9989
G05
X7.1742Y-2.2237G85X7.1727Y-2.2465
G05
X7.1742Y-3.7239G85X7.1727Y-3.7467
G05
X7.1766Y-2.9762G85X7.175Y-2.9989
G05
X7.1923Y-2.2662G85X7.2243Y-2.3237
G05
X7.1923Y-3.7664G85X7.2243Y-3.8239
G05
X7.1947Y-3.0187G85X7.2266Y-3.0761
G05
X7.273Y-4.9559G85X7.2935Y-4.966
G05
X7.3007Y-4.9928G85X7.3345Y-5.0492
G05
X7.373Y-4.7827G85X7.3919Y-4.7955
G05
X7.4188Y-4.7883G85X7.4846Y-4.7894
G05
X7.6496Y-4.3045G85X7.6701Y-4.3146
G05
X7.7062Y-3.2038G85X7.6743Y-3.2613
G05
X7.7078Y-2.4525G85X7.6759Y-2.5099
G05
X7.6773Y-4.3415G85X7.7111Y-4.3978
G05
X7.7243Y-3.1613G85X7.7259Y-3.1841
G05
X7.7259Y-2.41G85X7.7275Y-2.4328
G05
X7.7618Y-4.8219G85X7.6961Y-4.8208
G05
X7.7496Y-4.1313G85X7.7685Y-4.1441
G05
X7.8077Y-4.8275G85X7.7887Y-4.8147
G05
X7.7954Y-4.1369G85X7.8612Y-4.138
G05
X7.8799Y-4.6174G85X7.8461Y-4.561
G05
X7.9077Y-4.6543G85X7.8871Y-4.6442
G05
X7.9243Y-3.1613G85X7.9228Y-3.1841
G05
X7.9259Y-2.41G85X7.9243Y-2.4328
G05
X7.9424Y-3.2038G85X7.9743Y-3.2613
G05
X7.944Y-2.4525G85X7.9759Y-2.5099
G05
T0
M30
