G04 #@! TF.FileFunction,Legend,Bot*
%FSLAX46Y46*%
G04 Gerber Fmt 4.6, Leading zero omitted, Abs format (unit mm)*
G04 Created by KiCad (PCBNEW 4.0.7) date 08/17/18 08:34:53*
%MOMM*%
%LPD*%
G01*
G04 APERTURE LIST*
%ADD10C,0.100000*%
%ADD11C,0.150000*%
%ADD12C,0.200000*%
%ADD13C,0.250000*%
%ADD14C,0.120000*%
%ADD15C,0.381000*%
G04 APERTURE END LIST*
D10*
D11*
X131166333Y-47941667D02*
X131399667Y-47608333D01*
X131566333Y-47941667D02*
X131566333Y-47241667D01*
X131299667Y-47241667D01*
X131233000Y-47275000D01*
X131199667Y-47308333D01*
X131166333Y-47375000D01*
X131166333Y-47475000D01*
X131199667Y-47541667D01*
X131233000Y-47575000D01*
X131299667Y-47608333D01*
X131566333Y-47608333D01*
X130899667Y-47741667D02*
X130566333Y-47741667D01*
X130966333Y-47941667D02*
X130733000Y-47241667D01*
X130499667Y-47941667D01*
X130333000Y-47241667D02*
X130166333Y-47941667D01*
X130033000Y-47441667D01*
X129899667Y-47941667D01*
X129733000Y-47241667D01*
X131216333Y-50450000D02*
X131282999Y-50416667D01*
X131382999Y-50416667D01*
X131482999Y-50450000D01*
X131549666Y-50516667D01*
X131582999Y-50583333D01*
X131616333Y-50716667D01*
X131616333Y-50816667D01*
X131582999Y-50950000D01*
X131549666Y-51016667D01*
X131482999Y-51083333D01*
X131382999Y-51116667D01*
X131316333Y-51116667D01*
X131216333Y-51083333D01*
X131182999Y-51050000D01*
X131182999Y-50816667D01*
X131316333Y-50816667D01*
X130882999Y-51116667D02*
X130882999Y-50416667D01*
X130482999Y-51116667D01*
X130482999Y-50416667D01*
X130149666Y-51116667D02*
X130149666Y-50416667D01*
X129983000Y-50416667D01*
X129883000Y-50450000D01*
X129816333Y-50516667D01*
X129783000Y-50583333D01*
X129749666Y-50716667D01*
X129749666Y-50816667D01*
X129783000Y-50950000D01*
X129816333Y-51016667D01*
X129883000Y-51083333D01*
X129983000Y-51116667D01*
X130149666Y-51116667D01*
X158197786Y-111558000D02*
X157447786Y-111558000D01*
X157697786Y-111915143D02*
X158197786Y-111915143D01*
X157769214Y-111915143D02*
X157733500Y-111950858D01*
X157697786Y-112022286D01*
X157697786Y-112129429D01*
X157733500Y-112200858D01*
X157804929Y-112236572D01*
X158197786Y-112236572D01*
X158162071Y-112558000D02*
X158197786Y-112629429D01*
X158197786Y-112772286D01*
X158162071Y-112843714D01*
X158090643Y-112879429D01*
X158054929Y-112879429D01*
X157983500Y-112843714D01*
X157947786Y-112772286D01*
X157947786Y-112665143D01*
X157912071Y-112593714D01*
X157840643Y-112558000D01*
X157804929Y-112558000D01*
X157733500Y-112593714D01*
X157697786Y-112665143D01*
X157697786Y-112772286D01*
X157733500Y-112843714D01*
X157697786Y-113093715D02*
X157697786Y-113379429D01*
X157447786Y-113200857D02*
X158090643Y-113200857D01*
X158162071Y-113236572D01*
X158197786Y-113308000D01*
X158197786Y-113379429D01*
X158197786Y-113950857D02*
X157804929Y-113950857D01*
X157733500Y-113915143D01*
X157697786Y-113843714D01*
X157697786Y-113700857D01*
X157733500Y-113629428D01*
X158162071Y-113950857D02*
X158197786Y-113879428D01*
X158197786Y-113700857D01*
X158162071Y-113629428D01*
X158090643Y-113593714D01*
X158019214Y-113593714D01*
X157947786Y-113629428D01*
X157912071Y-113700857D01*
X157912071Y-113879428D01*
X157876357Y-113950857D01*
X158197786Y-114415142D02*
X158162071Y-114343714D01*
X158090643Y-114307999D01*
X157447786Y-114307999D01*
X158197786Y-114807999D02*
X158162071Y-114736571D01*
X158090643Y-114700856D01*
X157447786Y-114700856D01*
X158197786Y-115665142D02*
X157447786Y-115665142D01*
X157447786Y-115843714D01*
X157483500Y-115950857D01*
X157554929Y-116022285D01*
X157626357Y-116058000D01*
X157769214Y-116093714D01*
X157876357Y-116093714D01*
X158019214Y-116058000D01*
X158090643Y-116022285D01*
X158162071Y-115950857D01*
X158197786Y-115843714D01*
X158197786Y-115665142D01*
X157519214Y-116379428D02*
X157483500Y-116415142D01*
X157447786Y-116486571D01*
X157447786Y-116665142D01*
X157483500Y-116736571D01*
X157519214Y-116772285D01*
X157590643Y-116808000D01*
X157662071Y-116808000D01*
X157769214Y-116772285D01*
X158197786Y-116343714D01*
X158197786Y-116808000D01*
X157769214Y-117236571D02*
X157733500Y-117165143D01*
X157697786Y-117129428D01*
X157626357Y-117093714D01*
X157590643Y-117093714D01*
X157519214Y-117129428D01*
X157483500Y-117165143D01*
X157447786Y-117236571D01*
X157447786Y-117379428D01*
X157483500Y-117450857D01*
X157519214Y-117486571D01*
X157590643Y-117522286D01*
X157626357Y-117522286D01*
X157697786Y-117486571D01*
X157733500Y-117450857D01*
X157769214Y-117379428D01*
X157769214Y-117236571D01*
X157804929Y-117165143D01*
X157840643Y-117129428D01*
X157912071Y-117093714D01*
X158054929Y-117093714D01*
X158126357Y-117129428D01*
X158162071Y-117165143D01*
X158197786Y-117236571D01*
X158197786Y-117379428D01*
X158162071Y-117450857D01*
X158126357Y-117486571D01*
X158054929Y-117522286D01*
X157912071Y-117522286D01*
X157840643Y-117486571D01*
X157804929Y-117450857D01*
X157769214Y-117379428D01*
X158972786Y-111111572D02*
X158972786Y-111397286D01*
X159472786Y-111218714D02*
X158829929Y-111218714D01*
X158758500Y-111254429D01*
X158722786Y-111325857D01*
X158722786Y-111397286D01*
X159472786Y-111754428D02*
X159437071Y-111683000D01*
X159401357Y-111647285D01*
X159329929Y-111611571D01*
X159115643Y-111611571D01*
X159044214Y-111647285D01*
X159008500Y-111683000D01*
X158972786Y-111754428D01*
X158972786Y-111861571D01*
X159008500Y-111933000D01*
X159044214Y-111968714D01*
X159115643Y-112004428D01*
X159329929Y-112004428D01*
X159401357Y-111968714D01*
X159437071Y-111933000D01*
X159472786Y-111861571D01*
X159472786Y-111754428D01*
X159472786Y-112325856D02*
X158972786Y-112325856D01*
X159115643Y-112325856D02*
X159044214Y-112361571D01*
X159008500Y-112397285D01*
X158972786Y-112468714D01*
X158972786Y-112540142D01*
X159079929Y-113361571D02*
X159079929Y-113611571D01*
X159472786Y-113718714D02*
X159472786Y-113361571D01*
X158722786Y-113361571D01*
X158722786Y-113718714D01*
X159472786Y-113968714D02*
X158972786Y-114361571D01*
X158972786Y-113968714D02*
X159472786Y-114361571D01*
X158972786Y-114540143D02*
X158972786Y-114825857D01*
X158722786Y-114647285D02*
X159365643Y-114647285D01*
X159437071Y-114683000D01*
X159472786Y-114754428D01*
X159472786Y-114825857D01*
X159472786Y-115075856D02*
X158972786Y-115075856D01*
X159115643Y-115075856D02*
X159044214Y-115111571D01*
X159008500Y-115147285D01*
X158972786Y-115218714D01*
X158972786Y-115290142D01*
X159472786Y-115861571D02*
X159079929Y-115861571D01*
X159008500Y-115825857D01*
X158972786Y-115754428D01*
X158972786Y-115611571D01*
X159008500Y-115540142D01*
X159437071Y-115861571D02*
X159472786Y-115790142D01*
X159472786Y-115611571D01*
X159437071Y-115540142D01*
X159365643Y-115504428D01*
X159294214Y-115504428D01*
X159222786Y-115540142D01*
X159187071Y-115611571D01*
X159187071Y-115790142D01*
X159151357Y-115861571D01*
X159472786Y-116790142D02*
X158722786Y-116790142D01*
X159472786Y-117218714D02*
X159044214Y-116897285D01*
X158722786Y-117218714D02*
X159151357Y-116790142D01*
X159437071Y-117825857D02*
X159472786Y-117754428D01*
X159472786Y-117611571D01*
X159437071Y-117540142D01*
X159365643Y-117504428D01*
X159079929Y-117504428D01*
X159008500Y-117540142D01*
X158972786Y-117611571D01*
X158972786Y-117754428D01*
X159008500Y-117825857D01*
X159079929Y-117861571D01*
X159151357Y-117861571D01*
X159222786Y-117504428D01*
X158972786Y-118111571D02*
X159472786Y-118290142D01*
X158972786Y-118468714D02*
X159472786Y-118290142D01*
X159651357Y-118218714D01*
X159687071Y-118182999D01*
X159722786Y-118111571D01*
D12*
X182427144Y-107370571D02*
X182093810Y-107370571D01*
X181950953Y-107894381D02*
X182427144Y-107894381D01*
X182427144Y-106894381D01*
X181950953Y-106894381D01*
X181617620Y-107894381D02*
X181093810Y-107227714D01*
X181617620Y-107227714D02*
X181093810Y-107894381D01*
X180855715Y-107227714D02*
X180474763Y-107227714D01*
X180712858Y-106894381D02*
X180712858Y-107751524D01*
X180665239Y-107846762D01*
X180570001Y-107894381D01*
X180474763Y-107894381D01*
X180141429Y-107894381D02*
X180141429Y-107227714D01*
X180141429Y-107418190D02*
X180093810Y-107322952D01*
X180046191Y-107275333D01*
X179950953Y-107227714D01*
X179855714Y-107227714D01*
X179093809Y-107894381D02*
X179093809Y-107370571D01*
X179141428Y-107275333D01*
X179236666Y-107227714D01*
X179427143Y-107227714D01*
X179522381Y-107275333D01*
X179093809Y-107846762D02*
X179189047Y-107894381D01*
X179427143Y-107894381D01*
X179522381Y-107846762D01*
X179570000Y-107751524D01*
X179570000Y-107656286D01*
X179522381Y-107561048D01*
X179427143Y-107513429D01*
X179189047Y-107513429D01*
X179093809Y-107465810D01*
X177855714Y-107894381D02*
X177855714Y-106894381D01*
X177284285Y-107894381D02*
X177712857Y-107322952D01*
X177284285Y-106894381D02*
X177855714Y-107465810D01*
X176474761Y-107846762D02*
X176569999Y-107894381D01*
X176760476Y-107894381D01*
X176855714Y-107846762D01*
X176903333Y-107751524D01*
X176903333Y-107370571D01*
X176855714Y-107275333D01*
X176760476Y-107227714D01*
X176569999Y-107227714D01*
X176474761Y-107275333D01*
X176427142Y-107370571D01*
X176427142Y-107465810D01*
X176903333Y-107561048D01*
X176093809Y-107227714D02*
X175855714Y-107894381D01*
X175617618Y-107227714D02*
X175855714Y-107894381D01*
X175950952Y-108132476D01*
X175998571Y-108180095D01*
X176093809Y-108227714D01*
D11*
X195730666Y-47102000D02*
X195497333Y-47102000D01*
X195397333Y-47468667D02*
X195730666Y-47468667D01*
X195730666Y-46768667D01*
X195397333Y-46768667D01*
X195164000Y-47468667D02*
X194797333Y-47002000D01*
X195164000Y-47002000D02*
X194797333Y-47468667D01*
X194630666Y-47002000D02*
X194364000Y-47002000D01*
X194530666Y-46768667D02*
X194530666Y-47368667D01*
X194497333Y-47435333D01*
X194430666Y-47468667D01*
X194364000Y-47468667D01*
X194130666Y-47468667D02*
X194130666Y-47002000D01*
X194130666Y-47135333D02*
X194097333Y-47068667D01*
X194064000Y-47035333D01*
X193997333Y-47002000D01*
X193930666Y-47002000D01*
X193397333Y-47468667D02*
X193397333Y-47102000D01*
X193430667Y-47035333D01*
X193497333Y-47002000D01*
X193630667Y-47002000D01*
X193697333Y-47035333D01*
X193397333Y-47435333D02*
X193464000Y-47468667D01*
X193630667Y-47468667D01*
X193697333Y-47435333D01*
X193730667Y-47368667D01*
X193730667Y-47302000D01*
X193697333Y-47235333D01*
X193630667Y-47202000D01*
X193464000Y-47202000D01*
X193397333Y-47168667D01*
X195580666Y-48668667D02*
X195580666Y-47968667D01*
X195414000Y-47968667D01*
X195314000Y-48002000D01*
X195247333Y-48068667D01*
X195214000Y-48135333D01*
X195180666Y-48268667D01*
X195180666Y-48368667D01*
X195214000Y-48502000D01*
X195247333Y-48568667D01*
X195314000Y-48635333D01*
X195414000Y-48668667D01*
X195580666Y-48668667D01*
X194580666Y-48668667D02*
X194580666Y-48302000D01*
X194614000Y-48235333D01*
X194680666Y-48202000D01*
X194814000Y-48202000D01*
X194880666Y-48235333D01*
X194580666Y-48635333D02*
X194647333Y-48668667D01*
X194814000Y-48668667D01*
X194880666Y-48635333D01*
X194914000Y-48568667D01*
X194914000Y-48502000D01*
X194880666Y-48435333D01*
X194814000Y-48402000D01*
X194647333Y-48402000D01*
X194580666Y-48368667D01*
X194347333Y-48202000D02*
X194080667Y-48202000D01*
X194247333Y-47968667D02*
X194247333Y-48568667D01*
X194214000Y-48635333D01*
X194147333Y-48668667D01*
X194080667Y-48668667D01*
X193547333Y-48668667D02*
X193547333Y-48302000D01*
X193580667Y-48235333D01*
X193647333Y-48202000D01*
X193780667Y-48202000D01*
X193847333Y-48235333D01*
X193547333Y-48635333D02*
X193614000Y-48668667D01*
X193780667Y-48668667D01*
X193847333Y-48635333D01*
X193880667Y-48568667D01*
X193880667Y-48502000D01*
X193847333Y-48435333D01*
X193780667Y-48402000D01*
X193614000Y-48402000D01*
X193547333Y-48368667D01*
X201821905Y-47605905D02*
X201821905Y-46805905D01*
X201631429Y-46805905D01*
X201517143Y-46844000D01*
X201440952Y-46920190D01*
X201402857Y-46996381D01*
X201364762Y-47148762D01*
X201364762Y-47263048D01*
X201402857Y-47415429D01*
X201440952Y-47491619D01*
X201517143Y-47567810D01*
X201631429Y-47605905D01*
X201821905Y-47605905D01*
X200679048Y-47605905D02*
X200679048Y-47186857D01*
X200717143Y-47110667D01*
X200793333Y-47072571D01*
X200945714Y-47072571D01*
X201021905Y-47110667D01*
X200679048Y-47567810D02*
X200755238Y-47605905D01*
X200945714Y-47605905D01*
X201021905Y-47567810D01*
X201060000Y-47491619D01*
X201060000Y-47415429D01*
X201021905Y-47339238D01*
X200945714Y-47301143D01*
X200755238Y-47301143D01*
X200679048Y-47263048D01*
X200412381Y-47072571D02*
X200107619Y-47072571D01*
X200298095Y-46805905D02*
X200298095Y-47491619D01*
X200260000Y-47567810D01*
X200183809Y-47605905D01*
X200107619Y-47605905D01*
X199498095Y-47605905D02*
X199498095Y-47186857D01*
X199536190Y-47110667D01*
X199612380Y-47072571D01*
X199764761Y-47072571D01*
X199840952Y-47110667D01*
X199498095Y-47567810D02*
X199574285Y-47605905D01*
X199764761Y-47605905D01*
X199840952Y-47567810D01*
X199879047Y-47491619D01*
X199879047Y-47415429D01*
X199840952Y-47339238D01*
X199764761Y-47301143D01*
X199574285Y-47301143D01*
X199498095Y-47263048D01*
D12*
X207327333Y-47966381D02*
X206994000Y-48966381D01*
X206660666Y-47966381D01*
X205755904Y-48871143D02*
X205803523Y-48918762D01*
X205946380Y-48966381D01*
X206041618Y-48966381D01*
X206184476Y-48918762D01*
X206279714Y-48823524D01*
X206327333Y-48728286D01*
X206374952Y-48537810D01*
X206374952Y-48394952D01*
X206327333Y-48204476D01*
X206279714Y-48109238D01*
X206184476Y-48014000D01*
X206041618Y-47966381D01*
X205946380Y-47966381D01*
X205803523Y-48014000D01*
X205755904Y-48061619D01*
X204755904Y-48871143D02*
X204803523Y-48918762D01*
X204946380Y-48966381D01*
X205041618Y-48966381D01*
X205184476Y-48918762D01*
X205279714Y-48823524D01*
X205327333Y-48728286D01*
X205374952Y-48537810D01*
X205374952Y-48394952D01*
X205327333Y-48204476D01*
X205279714Y-48109238D01*
X205184476Y-48014000D01*
X205041618Y-47966381D01*
X204946380Y-47966381D01*
X204803523Y-48014000D01*
X204755904Y-48061619D01*
X196341904Y-57666000D02*
X196437142Y-57618381D01*
X196579999Y-57618381D01*
X196722857Y-57666000D01*
X196818095Y-57761238D01*
X196865714Y-57856476D01*
X196913333Y-58046952D01*
X196913333Y-58189810D01*
X196865714Y-58380286D01*
X196818095Y-58475524D01*
X196722857Y-58570762D01*
X196579999Y-58618381D01*
X196484761Y-58618381D01*
X196341904Y-58570762D01*
X196294285Y-58523143D01*
X196294285Y-58189810D01*
X196484761Y-58189810D01*
X195865714Y-58618381D02*
X195865714Y-57618381D01*
X195294285Y-58618381D01*
X195294285Y-57618381D01*
X194818095Y-58618381D02*
X194818095Y-57618381D01*
X194580000Y-57618381D01*
X194437142Y-57666000D01*
X194341904Y-57761238D01*
X194294285Y-57856476D01*
X194246666Y-58046952D01*
X194246666Y-58189810D01*
X194294285Y-58380286D01*
X194341904Y-58475524D01*
X194437142Y-58570762D01*
X194580000Y-58618381D01*
X194818095Y-58618381D01*
D11*
X164109333Y-46860667D02*
X163709333Y-46860667D01*
X163909333Y-47560667D02*
X163909333Y-46860667D01*
X163542667Y-46860667D02*
X163076000Y-47560667D01*
X163076000Y-46860667D02*
X163542667Y-47560667D01*
X161152666Y-47560667D02*
X161386000Y-47227333D01*
X161552666Y-47560667D02*
X161552666Y-46860667D01*
X161286000Y-46860667D01*
X161219333Y-46894000D01*
X161186000Y-46927333D01*
X161152666Y-46994000D01*
X161152666Y-47094000D01*
X161186000Y-47160667D01*
X161219333Y-47194000D01*
X161286000Y-47227333D01*
X161552666Y-47227333D01*
X160919333Y-46860667D02*
X160452666Y-47560667D01*
X160452666Y-46860667D02*
X160919333Y-47560667D01*
X159006333Y-47560667D02*
X159239667Y-47227333D01*
X159406333Y-47560667D02*
X159406333Y-46860667D01*
X159139667Y-46860667D01*
X159073000Y-46894000D01*
X159039667Y-46927333D01*
X159006333Y-46994000D01*
X159006333Y-47094000D01*
X159039667Y-47160667D01*
X159073000Y-47194000D01*
X159139667Y-47227333D01*
X159406333Y-47227333D01*
X158739667Y-47527333D02*
X158639667Y-47560667D01*
X158473000Y-47560667D01*
X158406333Y-47527333D01*
X158373000Y-47494000D01*
X158339667Y-47427333D01*
X158339667Y-47360667D01*
X158373000Y-47294000D01*
X158406333Y-47260667D01*
X158473000Y-47227333D01*
X158606333Y-47194000D01*
X158673000Y-47160667D01*
X158706333Y-47127333D01*
X158739667Y-47060667D01*
X158739667Y-46994000D01*
X158706333Y-46927333D01*
X158673000Y-46894000D01*
X158606333Y-46860667D01*
X158439667Y-46860667D01*
X158339667Y-46894000D01*
X158139666Y-46860667D02*
X157739666Y-46860667D01*
X157939666Y-47560667D02*
X157939666Y-46860667D01*
D12*
X171862477Y-47638762D02*
X171719620Y-47686381D01*
X171481524Y-47686381D01*
X171386286Y-47638762D01*
X171338667Y-47591143D01*
X171291048Y-47495905D01*
X171291048Y-47400667D01*
X171338667Y-47305429D01*
X171386286Y-47257810D01*
X171481524Y-47210190D01*
X171672001Y-47162571D01*
X171767239Y-47114952D01*
X171814858Y-47067333D01*
X171862477Y-46972095D01*
X171862477Y-46876857D01*
X171814858Y-46781619D01*
X171767239Y-46734000D01*
X171672001Y-46686381D01*
X171433905Y-46686381D01*
X171291048Y-46734000D01*
X170719620Y-47686381D02*
X170814858Y-47638762D01*
X170862477Y-47591143D01*
X170910096Y-47495905D01*
X170910096Y-47210190D01*
X170862477Y-47114952D01*
X170814858Y-47067333D01*
X170719620Y-47019714D01*
X170576762Y-47019714D01*
X170481524Y-47067333D01*
X170433905Y-47114952D01*
X170386286Y-47210190D01*
X170386286Y-47495905D01*
X170433905Y-47591143D01*
X170481524Y-47638762D01*
X170576762Y-47686381D01*
X170719620Y-47686381D01*
X169814858Y-47686381D02*
X169910096Y-47638762D01*
X169957715Y-47543524D01*
X169957715Y-46686381D01*
X169005333Y-47686381D02*
X169005333Y-46686381D01*
X169005333Y-47638762D02*
X169100571Y-47686381D01*
X169291048Y-47686381D01*
X169386286Y-47638762D01*
X169433905Y-47591143D01*
X169481524Y-47495905D01*
X169481524Y-47210190D01*
X169433905Y-47114952D01*
X169386286Y-47067333D01*
X169291048Y-47019714D01*
X169100571Y-47019714D01*
X169005333Y-47067333D01*
X168148190Y-47638762D02*
X168243428Y-47686381D01*
X168433905Y-47686381D01*
X168529143Y-47638762D01*
X168576762Y-47543524D01*
X168576762Y-47162571D01*
X168529143Y-47067333D01*
X168433905Y-47019714D01*
X168243428Y-47019714D01*
X168148190Y-47067333D01*
X168100571Y-47162571D01*
X168100571Y-47257810D01*
X168576762Y-47353048D01*
X167672000Y-47686381D02*
X167672000Y-47019714D01*
X167672000Y-47210190D02*
X167624381Y-47114952D01*
X167576762Y-47067333D01*
X167481524Y-47019714D01*
X167386285Y-47019714D01*
X171838666Y-48386381D02*
X171838666Y-49100667D01*
X171886286Y-49243524D01*
X171981524Y-49338762D01*
X172124381Y-49386381D01*
X172219619Y-49386381D01*
X170933904Y-48719714D02*
X170933904Y-49386381D01*
X171362476Y-48719714D02*
X171362476Y-49243524D01*
X171314857Y-49338762D01*
X171219619Y-49386381D01*
X171076761Y-49386381D01*
X170981523Y-49338762D01*
X170933904Y-49291143D01*
X170457714Y-49386381D02*
X170457714Y-48719714D01*
X170457714Y-48814952D02*
X170410095Y-48767333D01*
X170314857Y-48719714D01*
X170171999Y-48719714D01*
X170076761Y-48767333D01*
X170029142Y-48862571D01*
X170029142Y-49386381D01*
X170029142Y-48862571D02*
X169981523Y-48767333D01*
X169886285Y-48719714D01*
X169743428Y-48719714D01*
X169648190Y-48767333D01*
X169600571Y-48862571D01*
X169600571Y-49386381D01*
X169124381Y-48719714D02*
X169124381Y-49719714D01*
X169124381Y-48767333D02*
X169029143Y-48719714D01*
X168838666Y-48719714D01*
X168743428Y-48767333D01*
X168695809Y-48814952D01*
X168648190Y-48910190D01*
X168648190Y-49195905D01*
X168695809Y-49291143D01*
X168743428Y-49338762D01*
X168838666Y-49386381D01*
X169029143Y-49386381D01*
X169124381Y-49338762D01*
X167838666Y-49338762D02*
X167933904Y-49386381D01*
X168124381Y-49386381D01*
X168219619Y-49338762D01*
X168267238Y-49243524D01*
X168267238Y-48862571D01*
X168219619Y-48767333D01*
X168124381Y-48719714D01*
X167933904Y-48719714D01*
X167838666Y-48767333D01*
X167791047Y-48862571D01*
X167791047Y-48957810D01*
X168267238Y-49053048D01*
X167362476Y-49386381D02*
X167362476Y-48719714D01*
X167362476Y-48910190D02*
X167314857Y-48814952D01*
X167267238Y-48767333D01*
X167172000Y-48719714D01*
X167076761Y-48719714D01*
X171005334Y-50419714D02*
X170624382Y-50419714D01*
X170862477Y-51086381D02*
X170862477Y-50229238D01*
X170814858Y-50134000D01*
X170719620Y-50086381D01*
X170624382Y-50086381D01*
X170148191Y-51086381D02*
X170243429Y-51038762D01*
X170291048Y-50991143D01*
X170338667Y-50895905D01*
X170338667Y-50610190D01*
X170291048Y-50514952D01*
X170243429Y-50467333D01*
X170148191Y-50419714D01*
X170005333Y-50419714D01*
X169910095Y-50467333D01*
X169862476Y-50514952D01*
X169814857Y-50610190D01*
X169814857Y-50895905D01*
X169862476Y-50991143D01*
X169910095Y-51038762D01*
X170005333Y-51086381D01*
X170148191Y-51086381D01*
X169386286Y-51086381D02*
X169386286Y-50419714D01*
X169386286Y-50610190D02*
X169338667Y-50514952D01*
X169291048Y-50467333D01*
X169195810Y-50419714D01*
X169100571Y-50419714D01*
X170648190Y-52786381D02*
X170648190Y-51786381D01*
X170219619Y-51881619D02*
X170172000Y-51834000D01*
X170076762Y-51786381D01*
X169838666Y-51786381D01*
X169743428Y-51834000D01*
X169695809Y-51881619D01*
X169648190Y-51976857D01*
X169648190Y-52072095D01*
X169695809Y-52214952D01*
X170267238Y-52786381D01*
X169648190Y-52786381D01*
X168648190Y-52691143D02*
X168695809Y-52738762D01*
X168838666Y-52786381D01*
X168933904Y-52786381D01*
X169076762Y-52738762D01*
X169172000Y-52643524D01*
X169219619Y-52548286D01*
X169267238Y-52357810D01*
X169267238Y-52214952D01*
X169219619Y-52024476D01*
X169172000Y-51929238D01*
X169076762Y-51834000D01*
X168933904Y-51786381D01*
X168838666Y-51786381D01*
X168695809Y-51834000D01*
X168648190Y-51881619D01*
X191857048Y-47520381D02*
X191857048Y-46520381D01*
X191380858Y-46853714D02*
X191380858Y-47520381D01*
X191380858Y-46948952D02*
X191333239Y-46901333D01*
X191238001Y-46853714D01*
X191095143Y-46853714D01*
X190999905Y-46901333D01*
X190952286Y-46996571D01*
X190952286Y-47520381D01*
X190523715Y-47472762D02*
X190428477Y-47520381D01*
X190238001Y-47520381D01*
X190142762Y-47472762D01*
X190095143Y-47377524D01*
X190095143Y-47329905D01*
X190142762Y-47234667D01*
X190238001Y-47187048D01*
X190380858Y-47187048D01*
X190476096Y-47139429D01*
X190523715Y-47044190D01*
X190523715Y-46996571D01*
X190476096Y-46901333D01*
X190380858Y-46853714D01*
X190238001Y-46853714D01*
X190142762Y-46901333D01*
X189809429Y-46853714D02*
X189428477Y-46853714D01*
X189666572Y-46520381D02*
X189666572Y-47377524D01*
X189618953Y-47472762D01*
X189523715Y-47520381D01*
X189428477Y-47520381D01*
X188666571Y-47520381D02*
X188666571Y-46996571D01*
X188714190Y-46901333D01*
X188809428Y-46853714D01*
X188999905Y-46853714D01*
X189095143Y-46901333D01*
X188666571Y-47472762D02*
X188761809Y-47520381D01*
X188999905Y-47520381D01*
X189095143Y-47472762D01*
X189142762Y-47377524D01*
X189142762Y-47282286D01*
X189095143Y-47187048D01*
X188999905Y-47139429D01*
X188761809Y-47139429D01*
X188666571Y-47091810D01*
X188047524Y-47520381D02*
X188142762Y-47472762D01*
X188190381Y-47377524D01*
X188190381Y-46520381D01*
X187523714Y-47520381D02*
X187618952Y-47472762D01*
X187666571Y-47377524D01*
X187666571Y-46520381D01*
X192738000Y-49220381D02*
X193071334Y-48744190D01*
X193309429Y-49220381D02*
X193309429Y-48220381D01*
X192928476Y-48220381D01*
X192833238Y-48268000D01*
X192785619Y-48315619D01*
X192738000Y-48410857D01*
X192738000Y-48553714D01*
X192785619Y-48648952D01*
X192833238Y-48696571D01*
X192928476Y-48744190D01*
X193309429Y-48744190D01*
X191928476Y-49172762D02*
X192023714Y-49220381D01*
X192214191Y-49220381D01*
X192309429Y-49172762D01*
X192357048Y-49077524D01*
X192357048Y-48696571D01*
X192309429Y-48601333D01*
X192214191Y-48553714D01*
X192023714Y-48553714D01*
X191928476Y-48601333D01*
X191880857Y-48696571D01*
X191880857Y-48791810D01*
X192357048Y-48887048D01*
X191499905Y-49172762D02*
X191404667Y-49220381D01*
X191214191Y-49220381D01*
X191118952Y-49172762D01*
X191071333Y-49077524D01*
X191071333Y-49029905D01*
X191118952Y-48934667D01*
X191214191Y-48887048D01*
X191357048Y-48887048D01*
X191452286Y-48839429D01*
X191499905Y-48744190D01*
X191499905Y-48696571D01*
X191452286Y-48601333D01*
X191357048Y-48553714D01*
X191214191Y-48553714D01*
X191118952Y-48601333D01*
X190642762Y-49220381D02*
X190642762Y-48553714D01*
X190642762Y-48220381D02*
X190690381Y-48268000D01*
X190642762Y-48315619D01*
X190595143Y-48268000D01*
X190642762Y-48220381D01*
X190642762Y-48315619D01*
X190214191Y-49172762D02*
X190118953Y-49220381D01*
X189928477Y-49220381D01*
X189833238Y-49172762D01*
X189785619Y-49077524D01*
X189785619Y-49029905D01*
X189833238Y-48934667D01*
X189928477Y-48887048D01*
X190071334Y-48887048D01*
X190166572Y-48839429D01*
X190214191Y-48744190D01*
X190214191Y-48696571D01*
X190166572Y-48601333D01*
X190071334Y-48553714D01*
X189928477Y-48553714D01*
X189833238Y-48601333D01*
X189499905Y-48553714D02*
X189118953Y-48553714D01*
X189357048Y-48220381D02*
X189357048Y-49077524D01*
X189309429Y-49172762D01*
X189214191Y-49220381D01*
X189118953Y-49220381D01*
X188642762Y-49220381D02*
X188738000Y-49172762D01*
X188785619Y-49125143D01*
X188833238Y-49029905D01*
X188833238Y-48744190D01*
X188785619Y-48648952D01*
X188738000Y-48601333D01*
X188642762Y-48553714D01*
X188499904Y-48553714D01*
X188404666Y-48601333D01*
X188357047Y-48648952D01*
X188309428Y-48744190D01*
X188309428Y-49029905D01*
X188357047Y-49125143D01*
X188404666Y-49172762D01*
X188499904Y-49220381D01*
X188642762Y-49220381D01*
X187880857Y-49220381D02*
X187880857Y-48553714D01*
X187880857Y-48744190D02*
X187833238Y-48648952D01*
X187785619Y-48601333D01*
X187690381Y-48553714D01*
X187595142Y-48553714D01*
X187309428Y-49172762D02*
X187214190Y-49220381D01*
X187023714Y-49220381D01*
X186928475Y-49172762D01*
X186880856Y-49077524D01*
X186880856Y-49029905D01*
X186928475Y-48934667D01*
X187023714Y-48887048D01*
X187166571Y-48887048D01*
X187261809Y-48839429D01*
X187309428Y-48744190D01*
X187309428Y-48696571D01*
X187261809Y-48601333D01*
X187166571Y-48553714D01*
X187023714Y-48553714D01*
X186928475Y-48601333D01*
X192285619Y-50253714D02*
X191904667Y-50253714D01*
X192142762Y-50920381D02*
X192142762Y-50063238D01*
X192095143Y-49968000D01*
X191999905Y-49920381D01*
X191904667Y-49920381D01*
X191428476Y-50920381D02*
X191523714Y-50872762D01*
X191571333Y-50825143D01*
X191618952Y-50729905D01*
X191618952Y-50444190D01*
X191571333Y-50348952D01*
X191523714Y-50301333D01*
X191428476Y-50253714D01*
X191285618Y-50253714D01*
X191190380Y-50301333D01*
X191142761Y-50348952D01*
X191095142Y-50444190D01*
X191095142Y-50729905D01*
X191142761Y-50825143D01*
X191190380Y-50872762D01*
X191285618Y-50920381D01*
X191428476Y-50920381D01*
X190666571Y-50920381D02*
X190666571Y-50253714D01*
X190666571Y-50444190D02*
X190618952Y-50348952D01*
X190571333Y-50301333D01*
X190476095Y-50253714D01*
X190380856Y-50253714D01*
X189285618Y-50920381D02*
X189285618Y-49920381D01*
X188857047Y-50015619D02*
X188809428Y-49968000D01*
X188714190Y-49920381D01*
X188476094Y-49920381D01*
X188380856Y-49968000D01*
X188333237Y-50015619D01*
X188285618Y-50110857D01*
X188285618Y-50206095D01*
X188333237Y-50348952D01*
X188904666Y-50920381D01*
X188285618Y-50920381D01*
X187285618Y-50825143D02*
X187333237Y-50872762D01*
X187476094Y-50920381D01*
X187571332Y-50920381D01*
X187714190Y-50872762D01*
X187809428Y-50777524D01*
X187857047Y-50682286D01*
X187904666Y-50491810D01*
X187904666Y-50348952D01*
X187857047Y-50158476D01*
X187809428Y-50063238D01*
X187714190Y-49968000D01*
X187571332Y-49920381D01*
X187476094Y-49920381D01*
X187333237Y-49968000D01*
X187285618Y-50015619D01*
D11*
X191719665Y-52274000D02*
X191486332Y-52274000D01*
X191386332Y-52640667D02*
X191719665Y-52640667D01*
X191719665Y-51940667D01*
X191386332Y-51940667D01*
X191152999Y-52640667D02*
X190786332Y-52174000D01*
X191152999Y-52174000D02*
X190786332Y-52640667D01*
X190619665Y-52174000D02*
X190352999Y-52174000D01*
X190519665Y-51940667D02*
X190519665Y-52540667D01*
X190486332Y-52607333D01*
X190419665Y-52640667D01*
X190352999Y-52640667D01*
X190119665Y-52640667D02*
X190119665Y-52174000D01*
X190119665Y-52307333D02*
X190086332Y-52240667D01*
X190052999Y-52207333D01*
X189986332Y-52174000D01*
X189919665Y-52174000D01*
X189386332Y-52640667D02*
X189386332Y-52274000D01*
X189419666Y-52207333D01*
X189486332Y-52174000D01*
X189619666Y-52174000D01*
X189686332Y-52207333D01*
X189386332Y-52607333D02*
X189452999Y-52640667D01*
X189619666Y-52640667D01*
X189686332Y-52607333D01*
X189719666Y-52540667D01*
X189719666Y-52474000D01*
X189686332Y-52407333D01*
X189619666Y-52374000D01*
X189452999Y-52374000D01*
X189386332Y-52340667D01*
X188519666Y-52640667D02*
X188519666Y-51940667D01*
X188353000Y-51940667D01*
X188253000Y-51974000D01*
X188186333Y-52040667D01*
X188153000Y-52107333D01*
X188119666Y-52240667D01*
X188119666Y-52340667D01*
X188153000Y-52474000D01*
X188186333Y-52540667D01*
X188253000Y-52607333D01*
X188353000Y-52640667D01*
X188519666Y-52640667D01*
X187519666Y-52640667D02*
X187519666Y-52274000D01*
X187553000Y-52207333D01*
X187619666Y-52174000D01*
X187753000Y-52174000D01*
X187819666Y-52207333D01*
X187519666Y-52607333D02*
X187586333Y-52640667D01*
X187753000Y-52640667D01*
X187819666Y-52607333D01*
X187853000Y-52540667D01*
X187853000Y-52474000D01*
X187819666Y-52407333D01*
X187753000Y-52374000D01*
X187586333Y-52374000D01*
X187519666Y-52340667D01*
X187286333Y-52174000D02*
X187019667Y-52174000D01*
X187186333Y-51940667D02*
X187186333Y-52540667D01*
X187153000Y-52607333D01*
X187086333Y-52640667D01*
X187019667Y-52640667D01*
X186486333Y-52640667D02*
X186486333Y-52274000D01*
X186519667Y-52207333D01*
X186586333Y-52174000D01*
X186719667Y-52174000D01*
X186786333Y-52207333D01*
X186486333Y-52607333D02*
X186553000Y-52640667D01*
X186719667Y-52640667D01*
X186786333Y-52607333D01*
X186819667Y-52540667D01*
X186819667Y-52474000D01*
X186786333Y-52407333D01*
X186719667Y-52374000D01*
X186553000Y-52374000D01*
X186486333Y-52340667D01*
X156235333Y-46894000D02*
X156301999Y-46860667D01*
X156401999Y-46860667D01*
X156501999Y-46894000D01*
X156568666Y-46960667D01*
X156601999Y-47027333D01*
X156635333Y-47160667D01*
X156635333Y-47260667D01*
X156601999Y-47394000D01*
X156568666Y-47460667D01*
X156501999Y-47527333D01*
X156401999Y-47560667D01*
X156335333Y-47560667D01*
X156235333Y-47527333D01*
X156201999Y-47494000D01*
X156201999Y-47260667D01*
X156335333Y-47260667D01*
X155901999Y-47560667D02*
X155901999Y-46860667D01*
X155501999Y-47560667D01*
X155501999Y-46860667D01*
X155168666Y-47560667D02*
X155168666Y-46860667D01*
X155002000Y-46860667D01*
X154902000Y-46894000D01*
X154835333Y-46960667D01*
X154802000Y-47027333D01*
X154768666Y-47160667D01*
X154768666Y-47260667D01*
X154802000Y-47394000D01*
X154835333Y-47460667D01*
X154902000Y-47527333D01*
X155002000Y-47560667D01*
X155168666Y-47560667D01*
X167049333Y-46860667D02*
X166816000Y-47560667D01*
X166582667Y-46860667D01*
X165949333Y-47494000D02*
X165982667Y-47527333D01*
X166082667Y-47560667D01*
X166149333Y-47560667D01*
X166249333Y-47527333D01*
X166316000Y-47460667D01*
X166349333Y-47394000D01*
X166382667Y-47260667D01*
X166382667Y-47160667D01*
X166349333Y-47027333D01*
X166316000Y-46960667D01*
X166249333Y-46894000D01*
X166149333Y-46860667D01*
X166082667Y-46860667D01*
X165982667Y-46894000D01*
X165949333Y-46927333D01*
X165249333Y-47494000D02*
X165282667Y-47527333D01*
X165382667Y-47560667D01*
X165449333Y-47560667D01*
X165549333Y-47527333D01*
X165616000Y-47460667D01*
X165649333Y-47394000D01*
X165682667Y-47260667D01*
X165682667Y-47160667D01*
X165649333Y-47027333D01*
X165616000Y-46960667D01*
X165549333Y-46894000D01*
X165449333Y-46860667D01*
X165382667Y-46860667D01*
X165282667Y-46894000D01*
X165249333Y-46927333D01*
D13*
X164076000Y-51125381D02*
X164076000Y-50125381D01*
X163837905Y-50125381D01*
X163695047Y-50173000D01*
X163599809Y-50268238D01*
X163552190Y-50363476D01*
X163504571Y-50553952D01*
X163504571Y-50696810D01*
X163552190Y-50887286D01*
X163599809Y-50982524D01*
X163695047Y-51077762D01*
X163837905Y-51125381D01*
X164076000Y-51125381D01*
X163076000Y-51125381D02*
X163076000Y-50125381D01*
D12*
X94545000Y-61970000D02*
X94545000Y-67770000D01*
X92145000Y-61970000D02*
X94545000Y-61970000D01*
X92145000Y-67770000D02*
X92145000Y-61970000D01*
X92145000Y-67695000D02*
X94545000Y-67695000D01*
X92145000Y-67570000D02*
X94545000Y-67570000D01*
X94545000Y-67795000D02*
X92145000Y-67795000D01*
X92145000Y-67395000D02*
X94545000Y-67395000D01*
X92145000Y-67220000D02*
X94545000Y-67220000D01*
X92145000Y-67045000D02*
X94545000Y-67045000D01*
X95180000Y-81020000D02*
X95180000Y-86820000D01*
X92780000Y-81020000D02*
X95180000Y-81020000D01*
X92780000Y-86820000D02*
X92780000Y-81020000D01*
X92780000Y-86745000D02*
X95180000Y-86745000D01*
X92780000Y-86620000D02*
X95180000Y-86620000D01*
X95180000Y-86845000D02*
X92780000Y-86845000D01*
X92780000Y-86445000D02*
X95180000Y-86445000D01*
X92780000Y-86270000D02*
X95180000Y-86270000D01*
X92780000Y-86095000D02*
X95180000Y-86095000D01*
X95180000Y-100070000D02*
X95180000Y-105870000D01*
X92780000Y-100070000D02*
X95180000Y-100070000D01*
X92780000Y-105870000D02*
X92780000Y-100070000D01*
X92780000Y-105795000D02*
X95180000Y-105795000D01*
X92780000Y-105670000D02*
X95180000Y-105670000D01*
X95180000Y-105895000D02*
X92780000Y-105895000D01*
X92780000Y-105495000D02*
X95180000Y-105495000D01*
X92780000Y-105320000D02*
X95180000Y-105320000D01*
X92780000Y-105145000D02*
X95180000Y-105145000D01*
X94545000Y-118815000D02*
X94545000Y-124615000D01*
X92145000Y-118815000D02*
X94545000Y-118815000D01*
X92145000Y-124615000D02*
X92145000Y-118815000D01*
X92145000Y-124540000D02*
X94545000Y-124540000D01*
X92145000Y-124415000D02*
X94545000Y-124415000D01*
X94545000Y-124640000D02*
X92145000Y-124640000D01*
X92145000Y-124240000D02*
X94545000Y-124240000D01*
X92145000Y-124065000D02*
X94545000Y-124065000D01*
X92145000Y-123890000D02*
X94545000Y-123890000D01*
X114230000Y-59430000D02*
X114230000Y-65230000D01*
X111830000Y-59430000D02*
X114230000Y-59430000D01*
X111830000Y-65230000D02*
X111830000Y-59430000D01*
X111830000Y-65155000D02*
X114230000Y-65155000D01*
X111830000Y-65030000D02*
X114230000Y-65030000D01*
X114230000Y-65255000D02*
X111830000Y-65255000D01*
X111830000Y-64855000D02*
X114230000Y-64855000D01*
X111830000Y-64680000D02*
X114230000Y-64680000D01*
X111830000Y-64505000D02*
X114230000Y-64505000D01*
X114230000Y-78955000D02*
X114230000Y-84755000D01*
X111830000Y-78955000D02*
X114230000Y-78955000D01*
X111830000Y-84755000D02*
X111830000Y-78955000D01*
X111830000Y-84680000D02*
X114230000Y-84680000D01*
X111830000Y-84555000D02*
X114230000Y-84555000D01*
X114230000Y-84780000D02*
X111830000Y-84780000D01*
X111830000Y-84380000D02*
X114230000Y-84380000D01*
X111830000Y-84205000D02*
X114230000Y-84205000D01*
X111830000Y-84030000D02*
X114230000Y-84030000D01*
X114230000Y-97835000D02*
X114230000Y-103635000D01*
X111830000Y-97835000D02*
X114230000Y-97835000D01*
X111830000Y-103635000D02*
X111830000Y-97835000D01*
X111830000Y-103560000D02*
X114230000Y-103560000D01*
X111830000Y-103435000D02*
X114230000Y-103435000D01*
X114230000Y-103660000D02*
X111830000Y-103660000D01*
X111830000Y-103260000D02*
X114230000Y-103260000D01*
X111830000Y-103085000D02*
X114230000Y-103085000D01*
X111830000Y-102910000D02*
X114230000Y-102910000D01*
X114230000Y-116580000D02*
X114230000Y-122380000D01*
X111830000Y-116580000D02*
X114230000Y-116580000D01*
X111830000Y-122380000D02*
X111830000Y-116580000D01*
X111830000Y-122305000D02*
X114230000Y-122305000D01*
X111830000Y-122180000D02*
X114230000Y-122180000D01*
X114230000Y-122405000D02*
X111830000Y-122405000D01*
X111830000Y-122005000D02*
X114230000Y-122005000D01*
X111830000Y-121830000D02*
X114230000Y-121830000D01*
X111830000Y-121655000D02*
X114230000Y-121655000D01*
X132010000Y-57220000D02*
X132010000Y-63020000D01*
X129610000Y-57220000D02*
X132010000Y-57220000D01*
X129610000Y-63020000D02*
X129610000Y-57220000D01*
X129610000Y-62945000D02*
X132010000Y-62945000D01*
X129610000Y-62820000D02*
X132010000Y-62820000D01*
X132010000Y-63045000D02*
X129610000Y-63045000D01*
X129610000Y-62645000D02*
X132010000Y-62645000D01*
X129610000Y-62470000D02*
X132010000Y-62470000D01*
X129610000Y-62295000D02*
X132010000Y-62295000D01*
X132645000Y-81020000D02*
X132645000Y-86820000D01*
X130245000Y-81020000D02*
X132645000Y-81020000D01*
X130245000Y-86820000D02*
X130245000Y-81020000D01*
X130245000Y-86745000D02*
X132645000Y-86745000D01*
X130245000Y-86620000D02*
X132645000Y-86620000D01*
X132645000Y-86845000D02*
X130245000Y-86845000D01*
X130245000Y-86445000D02*
X132645000Y-86445000D01*
X130245000Y-86270000D02*
X132645000Y-86270000D01*
X130245000Y-86095000D02*
X132645000Y-86095000D01*
X133280000Y-94990000D02*
X133280000Y-100790000D01*
X130880000Y-94990000D02*
X133280000Y-94990000D01*
X130880000Y-100790000D02*
X130880000Y-94990000D01*
X130880000Y-100715000D02*
X133280000Y-100715000D01*
X130880000Y-100590000D02*
X133280000Y-100590000D01*
X133280000Y-100815000D02*
X130880000Y-100815000D01*
X130880000Y-100415000D02*
X133280000Y-100415000D01*
X130880000Y-100240000D02*
X133280000Y-100240000D01*
X130880000Y-100065000D02*
X133280000Y-100065000D01*
X133280000Y-114345000D02*
X133280000Y-120145000D01*
X130880000Y-114345000D02*
X133280000Y-114345000D01*
X130880000Y-120145000D02*
X130880000Y-114345000D01*
X130880000Y-120070000D02*
X133280000Y-120070000D01*
X130880000Y-119945000D02*
X133280000Y-119945000D01*
X133280000Y-120170000D02*
X130880000Y-120170000D01*
X130880000Y-119770000D02*
X133280000Y-119770000D01*
X130880000Y-119595000D02*
X133280000Y-119595000D01*
X130880000Y-119420000D02*
X133280000Y-119420000D01*
X153600000Y-57435000D02*
X153600000Y-63235000D01*
X151200000Y-57435000D02*
X153600000Y-57435000D01*
X151200000Y-63235000D02*
X151200000Y-57435000D01*
X151200000Y-63160000D02*
X153600000Y-63160000D01*
X151200000Y-63035000D02*
X153600000Y-63035000D01*
X153600000Y-63260000D02*
X151200000Y-63260000D01*
X151200000Y-62860000D02*
X153600000Y-62860000D01*
X151200000Y-62685000D02*
X153600000Y-62685000D01*
X151200000Y-62510000D02*
X153600000Y-62510000D01*
X152330000Y-81020000D02*
X152330000Y-86820000D01*
X149930000Y-81020000D02*
X152330000Y-81020000D01*
X149930000Y-86820000D02*
X149930000Y-81020000D01*
X149930000Y-86745000D02*
X152330000Y-86745000D01*
X149930000Y-86620000D02*
X152330000Y-86620000D01*
X152330000Y-86845000D02*
X149930000Y-86845000D01*
X149930000Y-86445000D02*
X152330000Y-86445000D01*
X149930000Y-86270000D02*
X152330000Y-86270000D01*
X149930000Y-86095000D02*
X152330000Y-86095000D01*
X152330000Y-93085000D02*
X152330000Y-98885000D01*
X149930000Y-93085000D02*
X152330000Y-93085000D01*
X149930000Y-98885000D02*
X149930000Y-93085000D01*
X149930000Y-98810000D02*
X152330000Y-98810000D01*
X149930000Y-98685000D02*
X152330000Y-98685000D01*
X152330000Y-98910000D02*
X149930000Y-98910000D01*
X149930000Y-98510000D02*
X152330000Y-98510000D01*
X149930000Y-98335000D02*
X152330000Y-98335000D01*
X149930000Y-98160000D02*
X152330000Y-98160000D01*
X152330000Y-111805000D02*
X152330000Y-117605000D01*
X149930000Y-111805000D02*
X152330000Y-111805000D01*
X149930000Y-117605000D02*
X149930000Y-111805000D01*
X149930000Y-117530000D02*
X152330000Y-117530000D01*
X149930000Y-117405000D02*
X152330000Y-117405000D01*
X152330000Y-117630000D02*
X149930000Y-117630000D01*
X149930000Y-117230000D02*
X152330000Y-117230000D01*
X149930000Y-117055000D02*
X152330000Y-117055000D01*
X149930000Y-116880000D02*
X152330000Y-116880000D01*
X171380000Y-57195000D02*
X171380000Y-62995000D01*
X168980000Y-57195000D02*
X171380000Y-57195000D01*
X168980000Y-62995000D02*
X168980000Y-57195000D01*
X168980000Y-62920000D02*
X171380000Y-62920000D01*
X168980000Y-62795000D02*
X171380000Y-62795000D01*
X171380000Y-63020000D02*
X168980000Y-63020000D01*
X168980000Y-62620000D02*
X171380000Y-62620000D01*
X168980000Y-62445000D02*
X171380000Y-62445000D01*
X168980000Y-62270000D02*
X171380000Y-62270000D01*
X171380000Y-76575000D02*
X171380000Y-82375000D01*
X168980000Y-76575000D02*
X171380000Y-76575000D01*
X168980000Y-82375000D02*
X168980000Y-76575000D01*
X168980000Y-82300000D02*
X171380000Y-82300000D01*
X168980000Y-82175000D02*
X171380000Y-82175000D01*
X171380000Y-82400000D02*
X168980000Y-82400000D01*
X168980000Y-82000000D02*
X171380000Y-82000000D01*
X168980000Y-81825000D02*
X171380000Y-81825000D01*
X168980000Y-81650000D02*
X171380000Y-81650000D01*
X171380000Y-95080000D02*
X171380000Y-100880000D01*
X168980000Y-95080000D02*
X171380000Y-95080000D01*
X168980000Y-100880000D02*
X168980000Y-95080000D01*
X168980000Y-100805000D02*
X171380000Y-100805000D01*
X168980000Y-100680000D02*
X171380000Y-100680000D01*
X171380000Y-100905000D02*
X168980000Y-100905000D01*
X168980000Y-100505000D02*
X171380000Y-100505000D01*
X168980000Y-100330000D02*
X171380000Y-100330000D01*
X168980000Y-100155000D02*
X171380000Y-100155000D01*
X180270000Y-113315000D02*
X180270000Y-119115000D01*
X177870000Y-113315000D02*
X180270000Y-113315000D01*
X177870000Y-119115000D02*
X177870000Y-113315000D01*
X177870000Y-119040000D02*
X180270000Y-119040000D01*
X177870000Y-118915000D02*
X180270000Y-118915000D01*
X180270000Y-119140000D02*
X177870000Y-119140000D01*
X177870000Y-118740000D02*
X180270000Y-118740000D01*
X177870000Y-118565000D02*
X180270000Y-118565000D01*
X177870000Y-118390000D02*
X180270000Y-118390000D01*
X190430000Y-59590000D02*
X190430000Y-65390000D01*
X188030000Y-59590000D02*
X190430000Y-59590000D01*
X188030000Y-65390000D02*
X188030000Y-59590000D01*
X188030000Y-65315000D02*
X190430000Y-65315000D01*
X188030000Y-65190000D02*
X190430000Y-65190000D01*
X190430000Y-65415000D02*
X188030000Y-65415000D01*
X188030000Y-65015000D02*
X190430000Y-65015000D01*
X188030000Y-64840000D02*
X190430000Y-64840000D01*
X188030000Y-64665000D02*
X190430000Y-64665000D01*
X190430000Y-78480000D02*
X190430000Y-84280000D01*
X188030000Y-78480000D02*
X190430000Y-78480000D01*
X188030000Y-84280000D02*
X188030000Y-78480000D01*
X188030000Y-84205000D02*
X190430000Y-84205000D01*
X188030000Y-84080000D02*
X190430000Y-84080000D01*
X190430000Y-84305000D02*
X188030000Y-84305000D01*
X188030000Y-83905000D02*
X190430000Y-83905000D01*
X188030000Y-83730000D02*
X190430000Y-83730000D01*
X188030000Y-83555000D02*
X190430000Y-83555000D01*
X190430000Y-96735000D02*
X190430000Y-102535000D01*
X188030000Y-96735000D02*
X190430000Y-96735000D01*
X188030000Y-102535000D02*
X188030000Y-96735000D01*
X188030000Y-102460000D02*
X190430000Y-102460000D01*
X188030000Y-102335000D02*
X190430000Y-102335000D01*
X190430000Y-102560000D02*
X188030000Y-102560000D01*
X188030000Y-102160000D02*
X190430000Y-102160000D01*
X188030000Y-101985000D02*
X190430000Y-101985000D01*
X188030000Y-101810000D02*
X190430000Y-101810000D01*
X183318000Y-112592000D02*
X183318000Y-118392000D01*
X180918000Y-112592000D02*
X183318000Y-112592000D01*
X180918000Y-118392000D02*
X180918000Y-112592000D01*
X180918000Y-118317000D02*
X183318000Y-118317000D01*
X180918000Y-118192000D02*
X183318000Y-118192000D01*
X183318000Y-118417000D02*
X180918000Y-118417000D01*
X180918000Y-118017000D02*
X183318000Y-118017000D01*
X180918000Y-117842000D02*
X183318000Y-117842000D01*
X180918000Y-117667000D02*
X183318000Y-117667000D01*
X202350000Y-77400000D02*
X196550000Y-77400000D01*
X202350000Y-75000000D02*
X202350000Y-77400000D01*
X196550000Y-75000000D02*
X202350000Y-75000000D01*
X196625000Y-75000000D02*
X196625000Y-77400000D01*
X196750000Y-75000000D02*
X196750000Y-77400000D01*
X196525000Y-77400000D02*
X196525000Y-75000000D01*
X196925000Y-75000000D02*
X196925000Y-77400000D01*
X197100000Y-75000000D02*
X197100000Y-77400000D01*
X197275000Y-75000000D02*
X197275000Y-77400000D01*
X203550000Y-95180000D02*
X197750000Y-95180000D01*
X203550000Y-92780000D02*
X203550000Y-95180000D01*
X197750000Y-92780000D02*
X203550000Y-92780000D01*
X197825000Y-92780000D02*
X197825000Y-95180000D01*
X197950000Y-92780000D02*
X197950000Y-95180000D01*
X197725000Y-95180000D02*
X197725000Y-92780000D01*
X198125000Y-92780000D02*
X198125000Y-95180000D01*
X198300000Y-92780000D02*
X198300000Y-95180000D01*
X198475000Y-92780000D02*
X198475000Y-95180000D01*
X203460000Y-97720000D02*
X197660000Y-97720000D01*
X203460000Y-95320000D02*
X203460000Y-97720000D01*
X197660000Y-95320000D02*
X203460000Y-95320000D01*
X197735000Y-95320000D02*
X197735000Y-97720000D01*
X197860000Y-95320000D02*
X197860000Y-97720000D01*
X197635000Y-97720000D02*
X197635000Y-95320000D01*
X198035000Y-95320000D02*
X198035000Y-97720000D01*
X198210000Y-95320000D02*
X198210000Y-97720000D01*
X198385000Y-95320000D02*
X198385000Y-97720000D01*
D14*
X196275000Y-55600000D02*
X206875000Y-55600000D01*
X194875000Y-55600000D02*
X194775000Y-55600000D01*
X195975000Y-49400000D02*
X194775000Y-49400000D01*
X199975000Y-49400000D02*
X197375000Y-49400000D01*
X202975000Y-49400000D02*
X201375000Y-49400000D01*
X206875000Y-49400000D02*
X204375000Y-49400000D01*
X194775000Y-55600000D02*
X194775000Y-49400000D01*
X206875000Y-49400000D02*
X206875000Y-50000000D01*
X206875000Y-55000000D02*
X206875000Y-55600000D01*
X208875000Y-50000000D02*
X208875000Y-55000000D01*
X206875000Y-50000000D02*
X208875000Y-50000000D01*
X206875000Y-55000000D02*
X208875000Y-55000000D01*
D15*
X79872288Y-70293812D02*
X78094288Y-70293812D01*
X78094288Y-70293812D02*
X78094288Y-68515812D01*
X78094288Y-59371812D02*
X78094288Y-57593812D01*
X78094288Y-57593812D02*
X79872288Y-57593812D01*
X90794288Y-59371812D02*
X90794288Y-57593812D01*
X90794288Y-57593812D02*
X89016288Y-57593812D01*
X90794288Y-68515812D02*
X90794288Y-70293812D01*
X90794288Y-70293812D02*
X89016288Y-70293812D01*
X79852884Y-89405510D02*
X78074884Y-89405510D01*
X78074884Y-89405510D02*
X78074884Y-87627510D01*
X78074884Y-78483510D02*
X78074884Y-76705510D01*
X78074884Y-76705510D02*
X79852884Y-76705510D01*
X90774884Y-78483510D02*
X90774884Y-76705510D01*
X90774884Y-76705510D02*
X88996884Y-76705510D01*
X90774884Y-87627510D02*
X90774884Y-89405510D01*
X90774884Y-89405510D02*
X88996884Y-89405510D01*
X79852884Y-108457670D02*
X78074884Y-108457670D01*
X78074884Y-108457670D02*
X78074884Y-106679670D01*
X78074884Y-97535670D02*
X78074884Y-95757670D01*
X78074884Y-95757670D02*
X79852884Y-95757670D01*
X90774884Y-97535670D02*
X90774884Y-95757670D01*
X90774884Y-95757670D02*
X88996884Y-95757670D01*
X90774884Y-106679670D02*
X90774884Y-108457670D01*
X90774884Y-108457670D02*
X88996884Y-108457670D01*
X79852884Y-127450292D02*
X78074884Y-127450292D01*
X78074884Y-127450292D02*
X78074884Y-125672292D01*
X78074884Y-116528292D02*
X78074884Y-114750292D01*
X78074884Y-114750292D02*
X79852884Y-114750292D01*
X90774884Y-116528292D02*
X90774884Y-114750292D01*
X90774884Y-114750292D02*
X88996884Y-114750292D01*
X90774884Y-125672292D02*
X90774884Y-127450292D01*
X90774884Y-127450292D02*
X88996884Y-127450292D01*
X98964582Y-67971830D02*
X97186582Y-67971830D01*
X97186582Y-67971830D02*
X97186582Y-66193830D01*
X97186582Y-57049830D02*
X97186582Y-55271830D01*
X97186582Y-55271830D02*
X98964582Y-55271830D01*
X109886582Y-57049830D02*
X109886582Y-55271830D01*
X109886582Y-55271830D02*
X108108582Y-55271830D01*
X109886582Y-66193830D02*
X109886582Y-67971830D01*
X109886582Y-67971830D02*
X108108582Y-67971830D01*
X98964582Y-87083528D02*
X97186582Y-87083528D01*
X97186582Y-87083528D02*
X97186582Y-85305528D01*
X97186582Y-76161528D02*
X97186582Y-74383528D01*
X97186582Y-74383528D02*
X98964582Y-74383528D01*
X109886582Y-76161528D02*
X109886582Y-74383528D01*
X109886582Y-74383528D02*
X108108582Y-74383528D01*
X109886582Y-85305528D02*
X109886582Y-87083528D01*
X109886582Y-87083528D02*
X108108582Y-87083528D01*
X98964582Y-106016612D02*
X97186582Y-106016612D01*
X97186582Y-106016612D02*
X97186582Y-104238612D01*
X97186582Y-95094612D02*
X97186582Y-93316612D01*
X97186582Y-93316612D02*
X98964582Y-93316612D01*
X109886582Y-95094612D02*
X109886582Y-93316612D01*
X109886582Y-93316612D02*
X108108582Y-93316612D01*
X109886582Y-104238612D02*
X109886582Y-106016612D01*
X109886582Y-106016612D02*
X108108582Y-106016612D01*
X98905044Y-125128310D02*
X97127044Y-125128310D01*
X97127044Y-125128310D02*
X97127044Y-123350310D01*
X97127044Y-114206310D02*
X97127044Y-112428310D01*
X97127044Y-112428310D02*
X98905044Y-112428310D01*
X109827044Y-114206310D02*
X109827044Y-112428310D01*
X109827044Y-112428310D02*
X108049044Y-112428310D01*
X109827044Y-123350310D02*
X109827044Y-125128310D01*
X109827044Y-125128310D02*
X108049044Y-125128310D01*
X117957204Y-65471234D02*
X116179204Y-65471234D01*
X116179204Y-65471234D02*
X116179204Y-63693234D01*
X116179204Y-54549234D02*
X116179204Y-52771234D01*
X116179204Y-52771234D02*
X117957204Y-52771234D01*
X128879204Y-54549234D02*
X128879204Y-52771234D01*
X128879204Y-52771234D02*
X127101204Y-52771234D01*
X128879204Y-63693234D02*
X128879204Y-65471234D01*
X128879204Y-65471234D02*
X127101204Y-65471234D01*
X117957204Y-84642470D02*
X116179204Y-84642470D01*
X116179204Y-84642470D02*
X116179204Y-82864470D01*
X116179204Y-73720470D02*
X116179204Y-71942470D01*
X116179204Y-71942470D02*
X117957204Y-71942470D01*
X128879204Y-73720470D02*
X128879204Y-71942470D01*
X128879204Y-71942470D02*
X127101204Y-71942470D01*
X128879204Y-82864470D02*
X128879204Y-84642470D01*
X128879204Y-84642470D02*
X127101204Y-84642470D01*
X117897666Y-103635092D02*
X116119666Y-103635092D01*
X116119666Y-103635092D02*
X116119666Y-101857092D01*
X116119666Y-92713092D02*
X116119666Y-90935092D01*
X116119666Y-90935092D02*
X117897666Y-90935092D01*
X128819666Y-92713092D02*
X128819666Y-90935092D01*
X128819666Y-90935092D02*
X127041666Y-90935092D01*
X128819666Y-101857092D02*
X128819666Y-103635092D01*
X128819666Y-103635092D02*
X127041666Y-103635092D01*
X117997472Y-122746790D02*
X116219472Y-122746790D01*
X116219472Y-122746790D02*
X116219472Y-120968790D01*
X116219472Y-111824790D02*
X116219472Y-110046790D01*
X116219472Y-110046790D02*
X117997472Y-110046790D01*
X128919472Y-111824790D02*
X128919472Y-110046790D01*
X128919472Y-110046790D02*
X127141472Y-110046790D01*
X128919472Y-120968790D02*
X128919472Y-122746790D01*
X128919472Y-122746790D02*
X127141472Y-122746790D01*
X137088172Y-63149252D02*
X135310172Y-63149252D01*
X135310172Y-63149252D02*
X135310172Y-61371252D01*
X135310172Y-52227252D02*
X135310172Y-50449252D01*
X135310172Y-50449252D02*
X137088172Y-50449252D01*
X148010172Y-52227252D02*
X148010172Y-50449252D01*
X148010172Y-50449252D02*
X146232172Y-50449252D01*
X148010172Y-61371252D02*
X148010172Y-63149252D01*
X148010172Y-63149252D02*
X146232172Y-63149252D01*
X137049632Y-82201412D02*
X135271632Y-82201412D01*
X135271632Y-82201412D02*
X135271632Y-80423412D01*
X135271632Y-71279412D02*
X135271632Y-69501412D01*
X135271632Y-69501412D02*
X137049632Y-69501412D01*
X147971632Y-71279412D02*
X147971632Y-69501412D01*
X147971632Y-69501412D02*
X146193632Y-69501412D01*
X147971632Y-80423412D02*
X147971632Y-82201412D01*
X147971632Y-82201412D02*
X146193632Y-82201412D01*
X137068902Y-101313110D02*
X135290902Y-101313110D01*
X135290902Y-101313110D02*
X135290902Y-99535110D01*
X135290902Y-90391110D02*
X135290902Y-88613110D01*
X135290902Y-88613110D02*
X137068902Y-88613110D01*
X147990902Y-90391110D02*
X147990902Y-88613110D01*
X147990902Y-88613110D02*
X146212902Y-88613110D01*
X147990902Y-99535110D02*
X147990902Y-101313110D01*
X147990902Y-101313110D02*
X146212902Y-101313110D01*
X137009364Y-120365270D02*
X135231364Y-120365270D01*
X135231364Y-120365270D02*
X135231364Y-118587270D01*
X135231364Y-109443270D02*
X135231364Y-107665270D01*
X135231364Y-107665270D02*
X137009364Y-107665270D01*
X147931364Y-109443270D02*
X147931364Y-107665270D01*
X147931364Y-107665270D02*
X146153364Y-107665270D01*
X147931364Y-118587270D02*
X147931364Y-120365270D01*
X147931364Y-120365270D02*
X146153364Y-120365270D01*
X156061524Y-65530772D02*
X154283524Y-65530772D01*
X154283524Y-65530772D02*
X154283524Y-63752772D01*
X154283524Y-54608772D02*
X154283524Y-52830772D01*
X154283524Y-52830772D02*
X156061524Y-52830772D01*
X166983524Y-54608772D02*
X166983524Y-52830772D01*
X166983524Y-52830772D02*
X165205524Y-52830772D01*
X166983524Y-63752772D02*
X166983524Y-65530772D01*
X166983524Y-65530772D02*
X165205524Y-65530772D01*
X156061524Y-84642470D02*
X154283524Y-84642470D01*
X154283524Y-84642470D02*
X154283524Y-82864470D01*
X154283524Y-73720470D02*
X154283524Y-71942470D01*
X154283524Y-71942470D02*
X156061524Y-71942470D01*
X166983524Y-73720470D02*
X166983524Y-71942470D01*
X166983524Y-71942470D02*
X165205524Y-71942470D01*
X166983524Y-82864470D02*
X166983524Y-84642470D01*
X166983524Y-84642470D02*
X165205524Y-84642470D01*
X156061524Y-103635092D02*
X154283524Y-103635092D01*
X154283524Y-103635092D02*
X154283524Y-101857092D01*
X154283524Y-92713092D02*
X154283524Y-90935092D01*
X154283524Y-90935092D02*
X156061524Y-90935092D01*
X166983524Y-92713092D02*
X166983524Y-90935092D01*
X166983524Y-90935092D02*
X165205524Y-90935092D01*
X166983524Y-101857092D02*
X166983524Y-103635092D01*
X166983524Y-103635092D02*
X165205524Y-103635092D01*
X161637035Y-123880692D02*
X159886047Y-123571945D01*
X159886047Y-123571945D02*
X160194793Y-121820957D01*
X161782632Y-112815875D02*
X162091379Y-111064887D01*
X162091379Y-111064887D02*
X163842367Y-111373633D01*
X174289691Y-115021207D02*
X174598437Y-113270219D01*
X174598437Y-113270219D02*
X172847449Y-112961472D01*
X172701852Y-124026289D02*
X172393105Y-125777277D01*
X172393105Y-125777277D02*
X170642117Y-125468531D01*
X175113684Y-67912292D02*
X173335684Y-67912292D01*
X173335684Y-67912292D02*
X173335684Y-66134292D01*
X173335684Y-56990292D02*
X173335684Y-55212292D01*
X173335684Y-55212292D02*
X175113684Y-55212292D01*
X186035684Y-56990292D02*
X186035684Y-55212292D01*
X186035684Y-55212292D02*
X184257684Y-55212292D01*
X186035684Y-66134292D02*
X186035684Y-67912292D01*
X186035684Y-67912292D02*
X184257684Y-67912292D01*
X175173222Y-87023990D02*
X173395222Y-87023990D01*
X173395222Y-87023990D02*
X173395222Y-85245990D01*
X173395222Y-76101990D02*
X173395222Y-74323990D01*
X173395222Y-74323990D02*
X175173222Y-74323990D01*
X186095222Y-76101990D02*
X186095222Y-74323990D01*
X186095222Y-74323990D02*
X184317222Y-74323990D01*
X186095222Y-85245990D02*
X186095222Y-87023990D01*
X186095222Y-87023990D02*
X184317222Y-87023990D01*
X175113684Y-106016612D02*
X173335684Y-106016612D01*
X173335684Y-106016612D02*
X173335684Y-104238612D01*
X173335684Y-95094612D02*
X173335684Y-93316612D01*
X173335684Y-93316612D02*
X175113684Y-93316612D01*
X186035684Y-95094612D02*
X186035684Y-93316612D01*
X186035684Y-93316612D02*
X184257684Y-93316612D01*
X186035684Y-104238612D02*
X186035684Y-106016612D01*
X186035684Y-106016612D02*
X184257684Y-106016612D01*
X193615785Y-133355028D02*
X192726785Y-134894821D01*
X192726785Y-134894821D02*
X191186992Y-134005821D01*
X183268056Y-129433821D02*
X181728263Y-128544821D01*
X181728263Y-128544821D02*
X182617263Y-127005028D01*
X189618056Y-118435299D02*
X188078263Y-117546299D01*
X188078263Y-117546299D02*
X187189263Y-119086092D01*
X197536992Y-123007299D02*
X199076785Y-123896299D01*
X199076785Y-123896299D02*
X198187785Y-125436092D01*
X194205978Y-72642754D02*
X192427978Y-72642754D01*
X192427978Y-72642754D02*
X192427978Y-70864754D01*
X192427978Y-61720754D02*
X192427978Y-59942754D01*
X192427978Y-59942754D02*
X194205978Y-59942754D01*
X205127978Y-61720754D02*
X205127978Y-59942754D01*
X205127978Y-59942754D02*
X203349978Y-59942754D01*
X205127978Y-70864754D02*
X205127978Y-72642754D01*
X205127978Y-72642754D02*
X203349978Y-72642754D01*
X194165844Y-91727492D02*
X192387844Y-91727492D01*
X192387844Y-91727492D02*
X192387844Y-89949492D01*
X192387844Y-80805492D02*
X192387844Y-79027492D01*
X192387844Y-79027492D02*
X194165844Y-79027492D01*
X205087844Y-80805492D02*
X205087844Y-79027492D01*
X205087844Y-79027492D02*
X203309844Y-79027492D01*
X205087844Y-89949492D02*
X205087844Y-91727492D01*
X205087844Y-91727492D02*
X203309844Y-91727492D01*
X203181269Y-116809867D02*
X202292269Y-118349660D01*
X202292269Y-118349660D02*
X200752476Y-117460660D01*
X192833540Y-112888660D02*
X191293747Y-111999660D01*
X191293747Y-111999660D02*
X192182747Y-110459867D01*
X199183540Y-101890138D02*
X197643747Y-101001138D01*
X197643747Y-101001138D02*
X196754747Y-102540931D01*
X207102476Y-106462138D02*
X208642269Y-107351138D01*
X208642269Y-107351138D02*
X207753269Y-108890931D01*
D14*
X111330000Y-49770000D02*
X111780000Y-49320000D01*
X114730000Y-49770000D02*
X114280000Y-49320000D01*
X114730000Y-54370000D02*
X114280000Y-54820000D01*
X111330000Y-54370000D02*
X111780000Y-54820000D01*
X115780000Y-53070000D02*
X115780000Y-51070000D01*
X111780000Y-49320000D02*
X114280000Y-49320000D01*
X110280000Y-53070000D02*
X110280000Y-51070000D01*
X111780000Y-54820000D02*
X114280000Y-54820000D01*
D15*
X135290038Y-51324000D02*
X132750038Y-51324000D01*
X135290038Y-48784000D02*
X135290038Y-51324000D01*
X150530038Y-79264000D02*
X150530038Y-48784000D01*
X132750038Y-79264000D02*
X150530038Y-79264000D01*
X132750038Y-48784000D02*
X132750038Y-79264000D01*
X150530038Y-48784000D02*
X132750038Y-48784000D01*
X195970166Y-125664098D02*
X197509959Y-126553098D01*
X186511437Y-120203098D02*
X188051230Y-121092098D01*
X187400437Y-118663305D02*
X186511437Y-120203098D01*
X192861437Y-109204576D02*
X191972437Y-110744369D01*
X194401230Y-110093576D02*
X192861437Y-109204576D01*
X203859959Y-115554576D02*
X202320166Y-114665576D01*
X202970959Y-117094369D02*
X203859959Y-115554576D01*
X197509959Y-126553098D02*
X198398959Y-125013305D01*
D14*
X103773989Y-50160739D02*
X91207842Y-52376490D01*
X91207842Y-52376490D02*
X91669746Y-54996078D01*
X91669746Y-54996078D02*
X104235893Y-52780327D01*
X104235893Y-52780327D02*
X103773989Y-50160739D01*
D12*
X156140000Y-111829999D02*
X156140000Y-117629999D01*
X153740000Y-111829999D02*
X156140000Y-111829999D01*
X153740000Y-117629999D02*
X153740000Y-111829999D01*
X153740000Y-117554999D02*
X156140000Y-117554999D01*
X153740000Y-117429999D02*
X156140000Y-117429999D01*
X156140000Y-117654999D02*
X153740000Y-117654999D01*
X153740000Y-117254999D02*
X156140000Y-117254999D01*
X153740000Y-117079999D02*
X156140000Y-117079999D01*
X153740000Y-116904999D02*
X156140000Y-116904999D01*
D10*
X137043371Y-50624667D02*
X137276705Y-50291333D01*
X137443371Y-50624667D02*
X137443371Y-49924667D01*
X137176705Y-49924667D01*
X137110038Y-49958000D01*
X137076705Y-49991333D01*
X137043371Y-50058000D01*
X137043371Y-50158000D01*
X137076705Y-50224667D01*
X137110038Y-50258000D01*
X137176705Y-50291333D01*
X137443371Y-50291333D01*
X136776705Y-50424667D02*
X136443371Y-50424667D01*
X136843371Y-50624667D02*
X136610038Y-49924667D01*
X136376705Y-50624667D01*
X136210038Y-49924667D02*
X136043371Y-50624667D01*
X135910038Y-50124667D01*
X135776705Y-50624667D01*
X135610038Y-49924667D01*
X136585371Y-52244000D02*
X136652037Y-52210667D01*
X136752037Y-52210667D01*
X136852037Y-52244000D01*
X136918704Y-52310667D01*
X136952037Y-52377333D01*
X136985371Y-52510667D01*
X136985371Y-52610667D01*
X136952037Y-52744000D01*
X136918704Y-52810667D01*
X136852037Y-52877333D01*
X136752037Y-52910667D01*
X136685371Y-52910667D01*
X136585371Y-52877333D01*
X136552037Y-52844000D01*
X136552037Y-52610667D01*
X136685371Y-52610667D01*
X136252037Y-52910667D02*
X136252037Y-52210667D01*
X135852037Y-52910667D01*
X135852037Y-52210667D01*
X135518704Y-52910667D02*
X135518704Y-52210667D01*
X135352038Y-52210667D01*
X135252038Y-52244000D01*
X135185371Y-52310667D01*
X135152038Y-52377333D01*
X135118704Y-52510667D01*
X135118704Y-52610667D01*
X135152038Y-52744000D01*
X135185371Y-52810667D01*
X135252038Y-52877333D01*
X135352038Y-52910667D01*
X135518704Y-52910667D01*
X136435371Y-55450667D02*
X136668705Y-55117333D01*
X136835371Y-55450667D02*
X136835371Y-54750667D01*
X136568705Y-54750667D01*
X136502038Y-54784000D01*
X136468705Y-54817333D01*
X136435371Y-54884000D01*
X136435371Y-54984000D01*
X136468705Y-55050667D01*
X136502038Y-55084000D01*
X136568705Y-55117333D01*
X136835371Y-55117333D01*
X136168705Y-55417333D02*
X136068705Y-55450667D01*
X135902038Y-55450667D01*
X135835371Y-55417333D01*
X135802038Y-55384000D01*
X135768705Y-55317333D01*
X135768705Y-55250667D01*
X135802038Y-55184000D01*
X135835371Y-55150667D01*
X135902038Y-55117333D01*
X136035371Y-55084000D01*
X136102038Y-55050667D01*
X136135371Y-55017333D01*
X136168705Y-54950667D01*
X136168705Y-54884000D01*
X136135371Y-54817333D01*
X136102038Y-54784000D01*
X136035371Y-54750667D01*
X135868705Y-54750667D01*
X135768705Y-54784000D01*
X135568704Y-54750667D02*
X135168704Y-54750667D01*
X135368704Y-55450667D02*
X135368704Y-54750667D01*
X136985371Y-57290667D02*
X136752038Y-57990667D01*
X136518705Y-57290667D01*
X135885371Y-57924000D02*
X135918705Y-57957333D01*
X136018705Y-57990667D01*
X136085371Y-57990667D01*
X136185371Y-57957333D01*
X136252038Y-57890667D01*
X136285371Y-57824000D01*
X136318705Y-57690667D01*
X136318705Y-57590667D01*
X136285371Y-57457333D01*
X136252038Y-57390667D01*
X136185371Y-57324000D01*
X136085371Y-57290667D01*
X136018705Y-57290667D01*
X135918705Y-57324000D01*
X135885371Y-57357333D01*
X135185371Y-57924000D02*
X135218705Y-57957333D01*
X135318705Y-57990667D01*
X135385371Y-57990667D01*
X135485371Y-57957333D01*
X135552038Y-57890667D01*
X135585371Y-57824000D01*
X135618705Y-57690667D01*
X135618705Y-57590667D01*
X135585371Y-57457333D01*
X135552038Y-57390667D01*
X135485371Y-57324000D01*
X135385371Y-57290667D01*
X135318705Y-57290667D01*
X135218705Y-57324000D01*
X135185371Y-57357333D01*
X135777371Y-60164000D02*
X136010704Y-60164000D01*
X136010704Y-60530667D02*
X136010704Y-59830667D01*
X135677371Y-59830667D01*
X135110704Y-60064000D02*
X135110704Y-60530667D01*
X135277371Y-59797333D02*
X135444038Y-60297333D01*
X135010704Y-60297333D01*
X135777371Y-62704000D02*
X136010704Y-62704000D01*
X136010704Y-63070667D02*
X136010704Y-62370667D01*
X135677371Y-62370667D01*
X135077371Y-62370667D02*
X135410704Y-62370667D01*
X135444038Y-62704000D01*
X135410704Y-62670667D01*
X135344038Y-62637333D01*
X135177371Y-62637333D01*
X135110704Y-62670667D01*
X135077371Y-62704000D01*
X135044038Y-62770667D01*
X135044038Y-62937333D01*
X135077371Y-63004000D01*
X135110704Y-63037333D01*
X135177371Y-63070667D01*
X135344038Y-63070667D01*
X135410704Y-63037333D01*
X135444038Y-63004000D01*
X135777371Y-67784000D02*
X136010704Y-67784000D01*
X136010704Y-68150667D02*
X136010704Y-67450667D01*
X135677371Y-67450667D01*
X135477371Y-67450667D02*
X135010704Y-67450667D01*
X135310704Y-68150667D01*
X135777371Y-65244000D02*
X136010704Y-65244000D01*
X136010704Y-65610667D02*
X136010704Y-64910667D01*
X135677371Y-64910667D01*
X135110704Y-64910667D02*
X135244038Y-64910667D01*
X135310704Y-64944000D01*
X135344038Y-64977333D01*
X135410704Y-65077333D01*
X135444038Y-65210667D01*
X135444038Y-65477333D01*
X135410704Y-65544000D01*
X135377371Y-65577333D01*
X135310704Y-65610667D01*
X135177371Y-65610667D01*
X135110704Y-65577333D01*
X135077371Y-65544000D01*
X135044038Y-65477333D01*
X135044038Y-65310667D01*
X135077371Y-65244000D01*
X135110704Y-65210667D01*
X135177371Y-65177333D01*
X135310704Y-65177333D01*
X135377371Y-65210667D01*
X135410704Y-65244000D01*
X135444038Y-65310667D01*
X135827371Y-70324000D02*
X135727371Y-70357333D01*
X135694038Y-70390667D01*
X135660704Y-70457333D01*
X135660704Y-70557333D01*
X135694038Y-70624000D01*
X135727371Y-70657333D01*
X135794038Y-70690667D01*
X136060704Y-70690667D01*
X136060704Y-69990667D01*
X135827371Y-69990667D01*
X135760704Y-70024000D01*
X135727371Y-70057333D01*
X135694038Y-70124000D01*
X135694038Y-70190667D01*
X135727371Y-70257333D01*
X135760704Y-70290667D01*
X135827371Y-70324000D01*
X136060704Y-70324000D01*
X134994038Y-70690667D02*
X135394038Y-70690667D01*
X135194038Y-70690667D02*
X135194038Y-69990667D01*
X135260704Y-70090667D01*
X135327371Y-70157333D01*
X135394038Y-70190667D01*
X135827371Y-72864000D02*
X135727371Y-72897333D01*
X135694038Y-72930667D01*
X135660704Y-72997333D01*
X135660704Y-73097333D01*
X135694038Y-73164000D01*
X135727371Y-73197333D01*
X135794038Y-73230667D01*
X136060704Y-73230667D01*
X136060704Y-72530667D01*
X135827371Y-72530667D01*
X135760704Y-72564000D01*
X135727371Y-72597333D01*
X135694038Y-72664000D01*
X135694038Y-72730667D01*
X135727371Y-72797333D01*
X135760704Y-72830667D01*
X135827371Y-72864000D01*
X136060704Y-72864000D01*
X135427371Y-72530667D02*
X134994038Y-72530667D01*
X135227371Y-72797333D01*
X135127371Y-72797333D01*
X135060704Y-72830667D01*
X135027371Y-72864000D01*
X134994038Y-72930667D01*
X134994038Y-73097333D01*
X135027371Y-73164000D01*
X135060704Y-73197333D01*
X135127371Y-73230667D01*
X135327371Y-73230667D01*
X135394038Y-73197333D01*
X135427371Y-73164000D01*
X135827371Y-75404000D02*
X135727371Y-75437333D01*
X135694038Y-75470667D01*
X135660704Y-75537333D01*
X135660704Y-75637333D01*
X135694038Y-75704000D01*
X135727371Y-75737333D01*
X135794038Y-75770667D01*
X136060704Y-75770667D01*
X136060704Y-75070667D01*
X135827371Y-75070667D01*
X135760704Y-75104000D01*
X135727371Y-75137333D01*
X135694038Y-75204000D01*
X135694038Y-75270667D01*
X135727371Y-75337333D01*
X135760704Y-75370667D01*
X135827371Y-75404000D01*
X136060704Y-75404000D01*
X135394038Y-75137333D02*
X135360704Y-75104000D01*
X135294038Y-75070667D01*
X135127371Y-75070667D01*
X135060704Y-75104000D01*
X135027371Y-75137333D01*
X134994038Y-75204000D01*
X134994038Y-75270667D01*
X135027371Y-75370667D01*
X135427371Y-75770667D01*
X134994038Y-75770667D01*
X135827371Y-77944000D02*
X135727371Y-77977333D01*
X135694038Y-78010667D01*
X135660704Y-78077333D01*
X135660704Y-78177333D01*
X135694038Y-78244000D01*
X135727371Y-78277333D01*
X135794038Y-78310667D01*
X136060704Y-78310667D01*
X136060704Y-77610667D01*
X135827371Y-77610667D01*
X135760704Y-77644000D01*
X135727371Y-77677333D01*
X135694038Y-77744000D01*
X135694038Y-77810667D01*
X135727371Y-77877333D01*
X135760704Y-77910667D01*
X135827371Y-77944000D01*
X136060704Y-77944000D01*
X135060704Y-77610667D02*
X135194038Y-77610667D01*
X135260704Y-77644000D01*
X135294038Y-77677333D01*
X135360704Y-77777333D01*
X135394038Y-77910667D01*
X135394038Y-78177333D01*
X135360704Y-78244000D01*
X135327371Y-78277333D01*
X135260704Y-78310667D01*
X135127371Y-78310667D01*
X135060704Y-78277333D01*
X135027371Y-78244000D01*
X134994038Y-78177333D01*
X134994038Y-78010667D01*
X135027371Y-77944000D01*
X135060704Y-77910667D01*
X135127371Y-77877333D01*
X135260704Y-77877333D01*
X135327371Y-77910667D01*
X135360704Y-77944000D01*
X135394038Y-78010667D01*
X148252704Y-50370667D02*
X148252704Y-49670667D01*
X148086038Y-49670667D01*
X147986038Y-49704000D01*
X147919371Y-49770667D01*
X147886038Y-49837333D01*
X147852704Y-49970667D01*
X147852704Y-50070667D01*
X147886038Y-50204000D01*
X147919371Y-50270667D01*
X147986038Y-50337333D01*
X148086038Y-50370667D01*
X148252704Y-50370667D01*
X147619371Y-49670667D02*
X147186038Y-49670667D01*
X147419371Y-49937333D01*
X147319371Y-49937333D01*
X147252704Y-49970667D01*
X147219371Y-50004000D01*
X147186038Y-50070667D01*
X147186038Y-50237333D01*
X147219371Y-50304000D01*
X147252704Y-50337333D01*
X147319371Y-50370667D01*
X147519371Y-50370667D01*
X147586038Y-50337333D01*
X147619371Y-50304000D01*
X148252704Y-52910667D02*
X148252704Y-52210667D01*
X148086038Y-52210667D01*
X147986038Y-52244000D01*
X147919371Y-52310667D01*
X147886038Y-52377333D01*
X147852704Y-52510667D01*
X147852704Y-52610667D01*
X147886038Y-52744000D01*
X147919371Y-52810667D01*
X147986038Y-52877333D01*
X148086038Y-52910667D01*
X148252704Y-52910667D01*
X147586038Y-52277333D02*
X147552704Y-52244000D01*
X147486038Y-52210667D01*
X147319371Y-52210667D01*
X147252704Y-52244000D01*
X147219371Y-52277333D01*
X147186038Y-52344000D01*
X147186038Y-52410667D01*
X147219371Y-52510667D01*
X147619371Y-52910667D01*
X147186038Y-52910667D01*
X147761371Y-54784000D02*
X147828037Y-54750667D01*
X147928037Y-54750667D01*
X148028037Y-54784000D01*
X148094704Y-54850667D01*
X148128037Y-54917333D01*
X148161371Y-55050667D01*
X148161371Y-55150667D01*
X148128037Y-55284000D01*
X148094704Y-55350667D01*
X148028037Y-55417333D01*
X147928037Y-55450667D01*
X147861371Y-55450667D01*
X147761371Y-55417333D01*
X147728037Y-55384000D01*
X147728037Y-55150667D01*
X147861371Y-55150667D01*
X147428037Y-55450667D02*
X147428037Y-54750667D01*
X147028037Y-55450667D01*
X147028037Y-54750667D01*
X146694704Y-55450667D02*
X146694704Y-54750667D01*
X146528038Y-54750667D01*
X146428038Y-54784000D01*
X146361371Y-54850667D01*
X146328038Y-54917333D01*
X146294704Y-55050667D01*
X146294704Y-55150667D01*
X146328038Y-55284000D01*
X146361371Y-55350667D01*
X146428038Y-55417333D01*
X146528038Y-55450667D01*
X146694704Y-55450667D01*
X147761371Y-57324000D02*
X147828037Y-57290667D01*
X147928037Y-57290667D01*
X148028037Y-57324000D01*
X148094704Y-57390667D01*
X148128037Y-57457333D01*
X148161371Y-57590667D01*
X148161371Y-57690667D01*
X148128037Y-57824000D01*
X148094704Y-57890667D01*
X148028037Y-57957333D01*
X147928037Y-57990667D01*
X147861371Y-57990667D01*
X147761371Y-57957333D01*
X147728037Y-57924000D01*
X147728037Y-57690667D01*
X147861371Y-57690667D01*
X147428037Y-57990667D02*
X147428037Y-57290667D01*
X147028037Y-57990667D01*
X147028037Y-57290667D01*
X146694704Y-57990667D02*
X146694704Y-57290667D01*
X146528038Y-57290667D01*
X146428038Y-57324000D01*
X146361371Y-57390667D01*
X146328038Y-57457333D01*
X146294704Y-57590667D01*
X146294704Y-57690667D01*
X146328038Y-57824000D01*
X146361371Y-57890667D01*
X146428038Y-57957333D01*
X146528038Y-57990667D01*
X146694704Y-57990667D01*
X148252704Y-60530667D02*
X148252704Y-59830667D01*
X148086038Y-59830667D01*
X147986038Y-59864000D01*
X147919371Y-59930667D01*
X147886038Y-59997333D01*
X147852704Y-60130667D01*
X147852704Y-60230667D01*
X147886038Y-60364000D01*
X147919371Y-60430667D01*
X147986038Y-60497333D01*
X148086038Y-60530667D01*
X148252704Y-60530667D01*
X147186038Y-60530667D02*
X147586038Y-60530667D01*
X147386038Y-60530667D02*
X147386038Y-59830667D01*
X147452704Y-59930667D01*
X147519371Y-59997333D01*
X147586038Y-60030667D01*
X148252704Y-63070667D02*
X148252704Y-62370667D01*
X148086038Y-62370667D01*
X147986038Y-62404000D01*
X147919371Y-62470667D01*
X147886038Y-62537333D01*
X147852704Y-62670667D01*
X147852704Y-62770667D01*
X147886038Y-62904000D01*
X147919371Y-62970667D01*
X147986038Y-63037333D01*
X148086038Y-63070667D01*
X148252704Y-63070667D01*
X147419371Y-62370667D02*
X147352704Y-62370667D01*
X147286038Y-62404000D01*
X147252704Y-62437333D01*
X147219371Y-62504000D01*
X147186038Y-62637333D01*
X147186038Y-62804000D01*
X147219371Y-62937333D01*
X147252704Y-63004000D01*
X147286038Y-63037333D01*
X147352704Y-63070667D01*
X147419371Y-63070667D01*
X147486038Y-63037333D01*
X147519371Y-63004000D01*
X147552704Y-62937333D01*
X147586038Y-62804000D01*
X147586038Y-62637333D01*
X147552704Y-62504000D01*
X147519371Y-62437333D01*
X147486038Y-62404000D01*
X147419371Y-62370667D01*
X148252704Y-65610667D02*
X148252704Y-64910667D01*
X148086038Y-64910667D01*
X147986038Y-64944000D01*
X147919371Y-65010667D01*
X147886038Y-65077333D01*
X147852704Y-65210667D01*
X147852704Y-65310667D01*
X147886038Y-65444000D01*
X147919371Y-65510667D01*
X147986038Y-65577333D01*
X148086038Y-65610667D01*
X148252704Y-65610667D01*
X147252704Y-65144000D02*
X147252704Y-65610667D01*
X147419371Y-64877333D02*
X147586038Y-65377333D01*
X147152704Y-65377333D01*
X147852704Y-68084000D02*
X147886038Y-68117333D01*
X147986038Y-68150667D01*
X148052704Y-68150667D01*
X148152704Y-68117333D01*
X148219371Y-68050667D01*
X148252704Y-67984000D01*
X148286038Y-67850667D01*
X148286038Y-67750667D01*
X148252704Y-67617333D01*
X148219371Y-67550667D01*
X148152704Y-67484000D01*
X148052704Y-67450667D01*
X147986038Y-67450667D01*
X147886038Y-67484000D01*
X147852704Y-67517333D01*
X147252704Y-67450667D02*
X147386038Y-67450667D01*
X147452704Y-67484000D01*
X147486038Y-67517333D01*
X147552704Y-67617333D01*
X147586038Y-67750667D01*
X147586038Y-68017333D01*
X147552704Y-68084000D01*
X147519371Y-68117333D01*
X147452704Y-68150667D01*
X147319371Y-68150667D01*
X147252704Y-68117333D01*
X147219371Y-68084000D01*
X147186038Y-68017333D01*
X147186038Y-67850667D01*
X147219371Y-67784000D01*
X147252704Y-67750667D01*
X147319371Y-67717333D01*
X147452704Y-67717333D01*
X147519371Y-67750667D01*
X147552704Y-67784000D01*
X147586038Y-67850667D01*
X148252704Y-70690667D02*
X148252704Y-69990667D01*
X148086038Y-69990667D01*
X147986038Y-70024000D01*
X147919371Y-70090667D01*
X147886038Y-70157333D01*
X147852704Y-70290667D01*
X147852704Y-70390667D01*
X147886038Y-70524000D01*
X147919371Y-70590667D01*
X147986038Y-70657333D01*
X148086038Y-70690667D01*
X148252704Y-70690667D01*
X147619371Y-69990667D02*
X147152704Y-69990667D01*
X147452704Y-70690667D01*
X148219371Y-72864000D02*
X147986038Y-72864000D01*
X147886038Y-73230667D02*
X148219371Y-73230667D01*
X148219371Y-72530667D01*
X147886038Y-72530667D01*
X147286038Y-72530667D02*
X147419372Y-72530667D01*
X147486038Y-72564000D01*
X147519372Y-72597333D01*
X147586038Y-72697333D01*
X147619372Y-72830667D01*
X147619372Y-73097333D01*
X147586038Y-73164000D01*
X147552705Y-73197333D01*
X147486038Y-73230667D01*
X147352705Y-73230667D01*
X147286038Y-73197333D01*
X147252705Y-73164000D01*
X147219372Y-73097333D01*
X147219372Y-72930667D01*
X147252705Y-72864000D01*
X147286038Y-72830667D01*
X147352705Y-72797333D01*
X147486038Y-72797333D01*
X147552705Y-72830667D01*
X147586038Y-72864000D01*
X147619372Y-72930667D01*
X148019371Y-75404000D02*
X147919371Y-75437333D01*
X147886038Y-75470667D01*
X147852704Y-75537333D01*
X147852704Y-75637333D01*
X147886038Y-75704000D01*
X147919371Y-75737333D01*
X147986038Y-75770667D01*
X148252704Y-75770667D01*
X148252704Y-75070667D01*
X148019371Y-75070667D01*
X147952704Y-75104000D01*
X147919371Y-75137333D01*
X147886038Y-75204000D01*
X147886038Y-75270667D01*
X147919371Y-75337333D01*
X147952704Y-75370667D01*
X148019371Y-75404000D01*
X148252704Y-75404000D01*
X147252704Y-75304000D02*
X147252704Y-75770667D01*
X147419371Y-75037333D02*
X147586038Y-75537333D01*
X147152704Y-75537333D01*
X148019371Y-77944000D02*
X147919371Y-77977333D01*
X147886038Y-78010667D01*
X147852704Y-78077333D01*
X147852704Y-78177333D01*
X147886038Y-78244000D01*
X147919371Y-78277333D01*
X147986038Y-78310667D01*
X148252704Y-78310667D01*
X148252704Y-77610667D01*
X148019371Y-77610667D01*
X147952704Y-77644000D01*
X147919371Y-77677333D01*
X147886038Y-77744000D01*
X147886038Y-77810667D01*
X147919371Y-77877333D01*
X147952704Y-77910667D01*
X148019371Y-77944000D01*
X148252704Y-77944000D01*
X147219371Y-77610667D02*
X147552704Y-77610667D01*
X147586038Y-77944000D01*
X147552704Y-77910667D01*
X147486038Y-77877333D01*
X147319371Y-77877333D01*
X147252704Y-77910667D01*
X147219371Y-77944000D01*
X147186038Y-78010667D01*
X147186038Y-78177333D01*
X147219371Y-78244000D01*
X147252704Y-78277333D01*
X147319371Y-78310667D01*
X147486038Y-78310667D01*
X147552704Y-78277333D01*
X147586038Y-78244000D01*
D11*
X99242541Y-54695171D02*
X99120987Y-54005806D01*
X98978023Y-54538728D01*
X98661411Y-54086842D01*
X98782965Y-54776207D01*
X98201834Y-54167877D02*
X98070527Y-54191030D01*
X98010661Y-54235434D01*
X97956583Y-54312664D01*
X97946909Y-54449760D01*
X97987427Y-54679548D01*
X98043407Y-54805068D01*
X98120638Y-54859145D01*
X98192080Y-54880396D01*
X98323388Y-54857243D01*
X98383253Y-54812839D01*
X98437330Y-54735609D01*
X98447005Y-54598512D01*
X98406487Y-54368724D01*
X98350506Y-54243205D01*
X98273276Y-54189127D01*
X98201834Y-54167877D01*
X97759542Y-54922816D02*
X97666850Y-54973008D01*
X97502715Y-55001950D01*
X97431272Y-54980699D01*
X97392657Y-54953660D01*
X97348254Y-54893794D01*
X97336678Y-54828141D01*
X97357928Y-54756699D01*
X97384966Y-54718084D01*
X97444832Y-54673680D01*
X97570351Y-54617700D01*
X97630217Y-54573297D01*
X97657255Y-54534681D01*
X97678506Y-54463240D01*
X97666930Y-54397585D01*
X97622526Y-54337720D01*
X97583911Y-54310681D01*
X97512468Y-54289431D01*
X97348334Y-54318372D01*
X97255642Y-54368564D01*
X97075964Y-55077197D02*
X96954410Y-54387832D01*
X101541204Y-54256007D02*
X101448512Y-54306200D01*
X101284377Y-54335141D01*
X101212934Y-54313890D01*
X101174320Y-54286852D01*
X101129916Y-54226986D01*
X101118340Y-54161332D01*
X101139590Y-54089890D01*
X101166628Y-54051275D01*
X101226494Y-54006871D01*
X101352013Y-53950891D01*
X101411879Y-53906488D01*
X101438917Y-53867872D01*
X101460169Y-53796431D01*
X101448592Y-53730777D01*
X101404188Y-53670911D01*
X101365573Y-53643873D01*
X101294131Y-53622623D01*
X101129997Y-53651564D01*
X101037304Y-53701755D01*
X100452127Y-54414194D02*
X100490742Y-54441232D01*
X100595011Y-54456695D01*
X100660665Y-54445118D01*
X100753357Y-54394926D01*
X100807435Y-54317696D01*
X100828685Y-54246254D01*
X100838359Y-54109158D01*
X100820995Y-54010677D01*
X100765014Y-53885157D01*
X100720611Y-53825292D01*
X100643380Y-53771215D01*
X100539111Y-53755753D01*
X100473458Y-53767329D01*
X100380765Y-53817521D01*
X100353726Y-53856136D01*
X100168261Y-54531942D02*
X100046707Y-53842577D01*
X99774338Y-54601402D02*
X100000321Y-54155384D01*
X99652784Y-53912036D02*
X100116166Y-54236500D01*
X106746776Y-53371972D02*
X106625222Y-52682607D01*
X106482258Y-53215529D01*
X106165646Y-52763643D01*
X106287200Y-53453008D01*
X105958930Y-53510891D02*
X105837376Y-52821525D01*
X105657700Y-53530158D02*
X105565008Y-53580350D01*
X105400873Y-53609291D01*
X105329430Y-53588040D01*
X105290816Y-53561002D01*
X105246412Y-53501136D01*
X105234836Y-53435483D01*
X105256086Y-53364040D01*
X105283124Y-53325426D01*
X105342990Y-53281021D01*
X105468509Y-53225042D01*
X105528375Y-53180639D01*
X105555413Y-53142023D01*
X105576665Y-53070581D01*
X105565088Y-53004927D01*
X105520684Y-52945061D01*
X105482069Y-52918023D01*
X105410627Y-52896773D01*
X105246493Y-52925714D01*
X105153800Y-52975906D01*
X104721261Y-53018327D02*
X104589954Y-53041480D01*
X104530088Y-53085883D01*
X104476010Y-53163114D01*
X104466337Y-53300209D01*
X104506855Y-53529997D01*
X104562834Y-53655518D01*
X104640065Y-53709594D01*
X104711507Y-53730845D01*
X104842815Y-53707692D01*
X104902681Y-53663288D01*
X104956757Y-53586058D01*
X104966432Y-53448961D01*
X104925914Y-53219173D01*
X104869933Y-53093654D01*
X104792704Y-53039577D01*
X104721261Y-53018327D01*
X96035351Y-55260686D02*
X96207257Y-54891898D01*
X96429274Y-55191227D02*
X96307720Y-54501861D01*
X96045106Y-54548167D01*
X95985240Y-54592571D01*
X95958201Y-54631185D01*
X95936950Y-54702628D01*
X95954315Y-54801109D01*
X95998719Y-54860975D01*
X96037334Y-54888013D01*
X96108776Y-54909263D01*
X96371391Y-54862957D01*
X95766948Y-55274165D02*
X95674255Y-55324357D01*
X95510120Y-55353298D01*
X95438678Y-55332047D01*
X95400063Y-55305009D01*
X95355660Y-55245143D01*
X95344083Y-55179490D01*
X95365333Y-55108047D01*
X95392372Y-55069433D01*
X95452238Y-55025028D01*
X95577757Y-54969049D01*
X95637623Y-54924646D01*
X95664661Y-54886030D01*
X95685912Y-54814588D01*
X95674336Y-54748934D01*
X95629931Y-54689068D01*
X95591317Y-54662030D01*
X95519874Y-54640780D01*
X95355740Y-54669721D01*
X95263048Y-54719913D01*
X95060297Y-54721816D02*
X94666374Y-54791275D01*
X94984889Y-55445911D02*
X94863335Y-54756545D01*
X93565896Y-55019166D02*
X93625761Y-54974763D01*
X93724241Y-54957398D01*
X93828510Y-54972860D01*
X93905741Y-55026937D01*
X93950144Y-55086802D01*
X94006125Y-55212322D01*
X94023490Y-55310803D01*
X94013815Y-55447899D01*
X93992565Y-55519341D01*
X93938487Y-55596571D01*
X93845795Y-55646764D01*
X93780142Y-55658340D01*
X93675873Y-55642877D01*
X93637257Y-55615839D01*
X93596739Y-55386051D01*
X93728047Y-55362898D01*
X93353391Y-55733588D02*
X93231837Y-55044222D01*
X92959468Y-55803047D01*
X92837914Y-55113681D01*
X92631199Y-55860930D02*
X92509645Y-55171564D01*
X92345511Y-55200505D01*
X92252819Y-55250697D01*
X92198741Y-55327928D01*
X92177491Y-55399369D01*
X92167817Y-55536466D01*
X92185182Y-55634947D01*
X92241162Y-55760466D01*
X92285565Y-55820331D01*
X92362796Y-55874408D01*
X92467065Y-55889871D01*
X92631199Y-55860930D01*
X103959676Y-53152615D02*
X103851442Y-53882498D01*
X103500100Y-53233651D01*
X102986365Y-53967339D02*
X103024981Y-53994378D01*
X103129250Y-54009840D01*
X103194903Y-53998264D01*
X103287596Y-53948072D01*
X103341673Y-53870842D01*
X103362923Y-53799399D01*
X103372598Y-53662304D01*
X103355233Y-53563823D01*
X103299252Y-53438303D01*
X103254849Y-53378438D01*
X103177619Y-53324360D01*
X103073350Y-53308898D01*
X103007696Y-53320475D01*
X102915004Y-53370666D01*
X102887964Y-53409281D01*
X102297000Y-54088893D02*
X102335615Y-54115931D01*
X102439885Y-54131394D01*
X102505538Y-54119818D01*
X102598230Y-54069625D01*
X102652308Y-53992395D01*
X102673558Y-53920953D01*
X102683232Y-53783857D01*
X102665868Y-53685377D01*
X102609887Y-53559857D01*
X102565484Y-53499992D01*
X102488253Y-53445914D01*
X102383984Y-53430452D01*
X102318331Y-53442029D01*
X102225638Y-53492220D01*
X102198599Y-53530835D01*
M02*
