G04 #@! TF.FileFunction,Legend,Top*
%FSLAX46Y46*%
G04 Gerber Fmt 4.6, Leading zero omitted, Abs format (unit mm)*
G04 Created by KiCad (PCBNEW 4.0.7) date 04/12/18 00:57:27*
%MOMM*%
%LPD*%
G01*
G04 APERTURE LIST*
%ADD10C,0.100000*%
%ADD11C,0.200000*%
%ADD12C,0.150000*%
%ADD13C,0.250000*%
%ADD14C,0.300000*%
%ADD15C,0.120000*%
%ADD16C,0.381000*%
%ADD17C,0.203200*%
G04 APERTURE END LIST*
D10*
D11*
X130556000Y-48768000D02*
X152908000Y-48768000D01*
X130556000Y-110998000D02*
X130556000Y-48768000D01*
X152908000Y-110998000D02*
X130556000Y-110998000D01*
X152908000Y-48768000D02*
X152908000Y-110998000D01*
X130556000Y-48768000D02*
X130556000Y-49784000D01*
X141732000Y-48768000D02*
X141732000Y-50292000D01*
X193556000Y-50037904D02*
X193508381Y-50133142D01*
X193508381Y-50275999D01*
X193556000Y-50418857D01*
X193651238Y-50514095D01*
X193746476Y-50561714D01*
X193936952Y-50609333D01*
X194079810Y-50609333D01*
X194270286Y-50561714D01*
X194365524Y-50514095D01*
X194460762Y-50418857D01*
X194508381Y-50275999D01*
X194508381Y-50180761D01*
X194460762Y-50037904D01*
X194413143Y-49990285D01*
X194079810Y-49990285D01*
X194079810Y-50180761D01*
X194508381Y-49561714D02*
X193508381Y-49561714D01*
X194508381Y-48990285D01*
X193508381Y-48990285D01*
X194508381Y-48514095D02*
X193508381Y-48514095D01*
X193508381Y-48276000D01*
X193556000Y-48133142D01*
X193651238Y-48037904D01*
X193746476Y-47990285D01*
X193936952Y-47942666D01*
X194079810Y-47942666D01*
X194270286Y-47990285D01*
X194365524Y-48037904D01*
X194460762Y-48133142D01*
X194508381Y-48276000D01*
X194508381Y-48514095D01*
X202882667Y-57618381D02*
X203216000Y-58618381D01*
X203549334Y-57618381D01*
X204454096Y-58523143D02*
X204406477Y-58570762D01*
X204263620Y-58618381D01*
X204168382Y-58618381D01*
X204025524Y-58570762D01*
X203930286Y-58475524D01*
X203882667Y-58380286D01*
X203835048Y-58189810D01*
X203835048Y-58046952D01*
X203882667Y-57856476D01*
X203930286Y-57761238D01*
X204025524Y-57666000D01*
X204168382Y-57618381D01*
X204263620Y-57618381D01*
X204406477Y-57666000D01*
X204454096Y-57713619D01*
X205454096Y-58523143D02*
X205406477Y-58570762D01*
X205263620Y-58618381D01*
X205168382Y-58618381D01*
X205025524Y-58570762D01*
X204930286Y-58475524D01*
X204882667Y-58380286D01*
X204835048Y-58189810D01*
X204835048Y-58046952D01*
X204882667Y-57856476D01*
X204930286Y-57761238D01*
X205025524Y-57666000D01*
X205168382Y-57618381D01*
X205263620Y-57618381D01*
X205406477Y-57666000D01*
X205454096Y-57713619D01*
D12*
X193143334Y-56754000D02*
X193376667Y-56754000D01*
X193476667Y-57120667D02*
X193143334Y-57120667D01*
X193143334Y-56420667D01*
X193476667Y-56420667D01*
X193710000Y-57120667D02*
X194076667Y-56654000D01*
X193710000Y-56654000D02*
X194076667Y-57120667D01*
X194243334Y-56654000D02*
X194510000Y-56654000D01*
X194343334Y-56420667D02*
X194343334Y-57020667D01*
X194376667Y-57087333D01*
X194443334Y-57120667D01*
X194510000Y-57120667D01*
X194743334Y-57120667D02*
X194743334Y-56654000D01*
X194743334Y-56787333D02*
X194776667Y-56720667D01*
X194810000Y-56687333D01*
X194876667Y-56654000D01*
X194943334Y-56654000D01*
X195476667Y-57120667D02*
X195476667Y-56754000D01*
X195443333Y-56687333D01*
X195376667Y-56654000D01*
X195243333Y-56654000D01*
X195176667Y-56687333D01*
X195476667Y-57087333D02*
X195410000Y-57120667D01*
X195243333Y-57120667D01*
X195176667Y-57087333D01*
X195143333Y-57020667D01*
X195143333Y-56954000D01*
X195176667Y-56887333D01*
X195243333Y-56854000D01*
X195410000Y-56854000D01*
X195476667Y-56820667D01*
X193293334Y-58320667D02*
X193293334Y-57620667D01*
X193460000Y-57620667D01*
X193560000Y-57654000D01*
X193626667Y-57720667D01*
X193660000Y-57787333D01*
X193693334Y-57920667D01*
X193693334Y-58020667D01*
X193660000Y-58154000D01*
X193626667Y-58220667D01*
X193560000Y-58287333D01*
X193460000Y-58320667D01*
X193293334Y-58320667D01*
X194293334Y-58320667D02*
X194293334Y-57954000D01*
X194260000Y-57887333D01*
X194193334Y-57854000D01*
X194060000Y-57854000D01*
X193993334Y-57887333D01*
X194293334Y-58287333D02*
X194226667Y-58320667D01*
X194060000Y-58320667D01*
X193993334Y-58287333D01*
X193960000Y-58220667D01*
X193960000Y-58154000D01*
X193993334Y-58087333D01*
X194060000Y-58054000D01*
X194226667Y-58054000D01*
X194293334Y-58020667D01*
X194526667Y-57854000D02*
X194793333Y-57854000D01*
X194626667Y-57620667D02*
X194626667Y-58220667D01*
X194660000Y-58287333D01*
X194726667Y-58320667D01*
X194793333Y-58320667D01*
X195326667Y-58320667D02*
X195326667Y-57954000D01*
X195293333Y-57887333D01*
X195226667Y-57854000D01*
X195093333Y-57854000D01*
X195026667Y-57887333D01*
X195326667Y-58287333D02*
X195260000Y-58320667D01*
X195093333Y-58320667D01*
X195026667Y-58287333D01*
X194993333Y-58220667D01*
X194993333Y-58154000D01*
X195026667Y-58087333D01*
X195093333Y-58054000D01*
X195260000Y-58054000D01*
X195326667Y-58020667D01*
X199498095Y-58273905D02*
X199498095Y-57473905D01*
X199688571Y-57473905D01*
X199802857Y-57512000D01*
X199879048Y-57588190D01*
X199917143Y-57664381D01*
X199955238Y-57816762D01*
X199955238Y-57931048D01*
X199917143Y-58083429D01*
X199879048Y-58159619D01*
X199802857Y-58235810D01*
X199688571Y-58273905D01*
X199498095Y-58273905D01*
X200640952Y-58273905D02*
X200640952Y-57854857D01*
X200602857Y-57778667D01*
X200526667Y-57740571D01*
X200374286Y-57740571D01*
X200298095Y-57778667D01*
X200640952Y-58235810D02*
X200564762Y-58273905D01*
X200374286Y-58273905D01*
X200298095Y-58235810D01*
X200260000Y-58159619D01*
X200260000Y-58083429D01*
X200298095Y-58007238D01*
X200374286Y-57969143D01*
X200564762Y-57969143D01*
X200640952Y-57931048D01*
X200907619Y-57740571D02*
X201212381Y-57740571D01*
X201021905Y-57473905D02*
X201021905Y-58159619D01*
X201060000Y-58235810D01*
X201136191Y-58273905D01*
X201212381Y-58273905D01*
X201821905Y-58273905D02*
X201821905Y-57854857D01*
X201783810Y-57778667D01*
X201707620Y-57740571D01*
X201555239Y-57740571D01*
X201479048Y-57778667D01*
X201821905Y-58235810D02*
X201745715Y-58273905D01*
X201555239Y-58273905D01*
X201479048Y-58235810D01*
X201440953Y-58159619D01*
X201440953Y-58083429D01*
X201479048Y-58007238D01*
X201555239Y-57969143D01*
X201745715Y-57969143D01*
X201821905Y-57931048D01*
D11*
X160274095Y-51522381D02*
X160845524Y-51522381D01*
X160559809Y-52522381D02*
X160559809Y-51522381D01*
X161083619Y-51522381D02*
X161750286Y-52522381D01*
X161750286Y-51522381D02*
X161083619Y-52522381D01*
X158329334Y-51252381D02*
X157996000Y-50776190D01*
X157757905Y-51252381D02*
X157757905Y-50252381D01*
X158138858Y-50252381D01*
X158234096Y-50300000D01*
X158281715Y-50347619D01*
X158329334Y-50442857D01*
X158329334Y-50585714D01*
X158281715Y-50680952D01*
X158234096Y-50728571D01*
X158138858Y-50776190D01*
X157757905Y-50776190D01*
X158662667Y-50252381D02*
X159329334Y-51252381D01*
X159329334Y-50252381D02*
X158662667Y-51252381D01*
X155662381Y-51252381D02*
X155329047Y-50776190D01*
X155090952Y-51252381D02*
X155090952Y-50252381D01*
X155471905Y-50252381D01*
X155567143Y-50300000D01*
X155614762Y-50347619D01*
X155662381Y-50442857D01*
X155662381Y-50585714D01*
X155614762Y-50680952D01*
X155567143Y-50728571D01*
X155471905Y-50776190D01*
X155090952Y-50776190D01*
X156043333Y-51204762D02*
X156186190Y-51252381D01*
X156424286Y-51252381D01*
X156519524Y-51204762D01*
X156567143Y-51157143D01*
X156614762Y-51061905D01*
X156614762Y-50966667D01*
X156567143Y-50871429D01*
X156519524Y-50823810D01*
X156424286Y-50776190D01*
X156233809Y-50728571D01*
X156138571Y-50680952D01*
X156090952Y-50633333D01*
X156043333Y-50538095D01*
X156043333Y-50442857D01*
X156090952Y-50347619D01*
X156138571Y-50300000D01*
X156233809Y-50252381D01*
X156471905Y-50252381D01*
X156614762Y-50300000D01*
X156900476Y-50252381D02*
X157471905Y-50252381D01*
X157186190Y-51252381D02*
X157186190Y-50252381D01*
X166084571Y-48400762D02*
X166227428Y-48448381D01*
X166465524Y-48448381D01*
X166560762Y-48400762D01*
X166608381Y-48353143D01*
X166656000Y-48257905D01*
X166656000Y-48162667D01*
X166608381Y-48067429D01*
X166560762Y-48019810D01*
X166465524Y-47972190D01*
X166275047Y-47924571D01*
X166179809Y-47876952D01*
X166132190Y-47829333D01*
X166084571Y-47734095D01*
X166084571Y-47638857D01*
X166132190Y-47543619D01*
X166179809Y-47496000D01*
X166275047Y-47448381D01*
X166513143Y-47448381D01*
X166656000Y-47496000D01*
X167227428Y-48448381D02*
X167132190Y-48400762D01*
X167084571Y-48353143D01*
X167036952Y-48257905D01*
X167036952Y-47972190D01*
X167084571Y-47876952D01*
X167132190Y-47829333D01*
X167227428Y-47781714D01*
X167370286Y-47781714D01*
X167465524Y-47829333D01*
X167513143Y-47876952D01*
X167560762Y-47972190D01*
X167560762Y-48257905D01*
X167513143Y-48353143D01*
X167465524Y-48400762D01*
X167370286Y-48448381D01*
X167227428Y-48448381D01*
X168132190Y-48448381D02*
X168036952Y-48400762D01*
X167989333Y-48305524D01*
X167989333Y-47448381D01*
X168941715Y-48448381D02*
X168941715Y-47448381D01*
X168941715Y-48400762D02*
X168846477Y-48448381D01*
X168656000Y-48448381D01*
X168560762Y-48400762D01*
X168513143Y-48353143D01*
X168465524Y-48257905D01*
X168465524Y-47972190D01*
X168513143Y-47876952D01*
X168560762Y-47829333D01*
X168656000Y-47781714D01*
X168846477Y-47781714D01*
X168941715Y-47829333D01*
X169798858Y-48400762D02*
X169703620Y-48448381D01*
X169513143Y-48448381D01*
X169417905Y-48400762D01*
X169370286Y-48305524D01*
X169370286Y-47924571D01*
X169417905Y-47829333D01*
X169513143Y-47781714D01*
X169703620Y-47781714D01*
X169798858Y-47829333D01*
X169846477Y-47924571D01*
X169846477Y-48019810D01*
X169370286Y-48115048D01*
X170275048Y-48448381D02*
X170275048Y-47781714D01*
X170275048Y-47972190D02*
X170322667Y-47876952D01*
X170370286Y-47829333D01*
X170465524Y-47781714D01*
X170560763Y-47781714D01*
X166489334Y-49148381D02*
X166489334Y-49862667D01*
X166441714Y-50005524D01*
X166346476Y-50100762D01*
X166203619Y-50148381D01*
X166108381Y-50148381D01*
X167394096Y-49481714D02*
X167394096Y-50148381D01*
X166965524Y-49481714D02*
X166965524Y-50005524D01*
X167013143Y-50100762D01*
X167108381Y-50148381D01*
X167251239Y-50148381D01*
X167346477Y-50100762D01*
X167394096Y-50053143D01*
X167870286Y-50148381D02*
X167870286Y-49481714D01*
X167870286Y-49576952D02*
X167917905Y-49529333D01*
X168013143Y-49481714D01*
X168156001Y-49481714D01*
X168251239Y-49529333D01*
X168298858Y-49624571D01*
X168298858Y-50148381D01*
X168298858Y-49624571D02*
X168346477Y-49529333D01*
X168441715Y-49481714D01*
X168584572Y-49481714D01*
X168679810Y-49529333D01*
X168727429Y-49624571D01*
X168727429Y-50148381D01*
X169203619Y-49481714D02*
X169203619Y-50481714D01*
X169203619Y-49529333D02*
X169298857Y-49481714D01*
X169489334Y-49481714D01*
X169584572Y-49529333D01*
X169632191Y-49576952D01*
X169679810Y-49672190D01*
X169679810Y-49957905D01*
X169632191Y-50053143D01*
X169584572Y-50100762D01*
X169489334Y-50148381D01*
X169298857Y-50148381D01*
X169203619Y-50100762D01*
X170489334Y-50100762D02*
X170394096Y-50148381D01*
X170203619Y-50148381D01*
X170108381Y-50100762D01*
X170060762Y-50005524D01*
X170060762Y-49624571D01*
X170108381Y-49529333D01*
X170203619Y-49481714D01*
X170394096Y-49481714D01*
X170489334Y-49529333D01*
X170536953Y-49624571D01*
X170536953Y-49719810D01*
X170060762Y-49815048D01*
X170965524Y-50148381D02*
X170965524Y-49481714D01*
X170965524Y-49672190D02*
X171013143Y-49576952D01*
X171060762Y-49529333D01*
X171156000Y-49481714D01*
X171251239Y-49481714D01*
X167322666Y-51181714D02*
X167703618Y-51181714D01*
X167465523Y-51848381D02*
X167465523Y-50991238D01*
X167513142Y-50896000D01*
X167608380Y-50848381D01*
X167703618Y-50848381D01*
X168179809Y-51848381D02*
X168084571Y-51800762D01*
X168036952Y-51753143D01*
X167989333Y-51657905D01*
X167989333Y-51372190D01*
X168036952Y-51276952D01*
X168084571Y-51229333D01*
X168179809Y-51181714D01*
X168322667Y-51181714D01*
X168417905Y-51229333D01*
X168465524Y-51276952D01*
X168513143Y-51372190D01*
X168513143Y-51657905D01*
X168465524Y-51753143D01*
X168417905Y-51800762D01*
X168322667Y-51848381D01*
X168179809Y-51848381D01*
X168941714Y-51848381D02*
X168941714Y-51181714D01*
X168941714Y-51372190D02*
X168989333Y-51276952D01*
X169036952Y-51229333D01*
X169132190Y-51181714D01*
X169227429Y-51181714D01*
X167679810Y-53548381D02*
X167679810Y-52548381D01*
X168108381Y-52643619D02*
X168156000Y-52596000D01*
X168251238Y-52548381D01*
X168489334Y-52548381D01*
X168584572Y-52596000D01*
X168632191Y-52643619D01*
X168679810Y-52738857D01*
X168679810Y-52834095D01*
X168632191Y-52976952D01*
X168060762Y-53548381D01*
X168679810Y-53548381D01*
X169679810Y-53453143D02*
X169632191Y-53500762D01*
X169489334Y-53548381D01*
X169394096Y-53548381D01*
X169251238Y-53500762D01*
X169156000Y-53405524D01*
X169108381Y-53310286D01*
X169060762Y-53119810D01*
X169060762Y-52976952D01*
X169108381Y-52786476D01*
X169156000Y-52691238D01*
X169251238Y-52596000D01*
X169394096Y-52548381D01*
X169489334Y-52548381D01*
X169632191Y-52596000D01*
X169679810Y-52643619D01*
X187618952Y-47520381D02*
X187618952Y-46520381D01*
X188095142Y-46853714D02*
X188095142Y-47520381D01*
X188095142Y-46948952D02*
X188142761Y-46901333D01*
X188237999Y-46853714D01*
X188380857Y-46853714D01*
X188476095Y-46901333D01*
X188523714Y-46996571D01*
X188523714Y-47520381D01*
X188952285Y-47472762D02*
X189047523Y-47520381D01*
X189237999Y-47520381D01*
X189333238Y-47472762D01*
X189380857Y-47377524D01*
X189380857Y-47329905D01*
X189333238Y-47234667D01*
X189237999Y-47187048D01*
X189095142Y-47187048D01*
X188999904Y-47139429D01*
X188952285Y-47044190D01*
X188952285Y-46996571D01*
X188999904Y-46901333D01*
X189095142Y-46853714D01*
X189237999Y-46853714D01*
X189333238Y-46901333D01*
X189666571Y-46853714D02*
X190047523Y-46853714D01*
X189809428Y-46520381D02*
X189809428Y-47377524D01*
X189857047Y-47472762D01*
X189952285Y-47520381D01*
X190047523Y-47520381D01*
X190809429Y-47520381D02*
X190809429Y-46996571D01*
X190761810Y-46901333D01*
X190666572Y-46853714D01*
X190476095Y-46853714D01*
X190380857Y-46901333D01*
X190809429Y-47472762D02*
X190714191Y-47520381D01*
X190476095Y-47520381D01*
X190380857Y-47472762D01*
X190333238Y-47377524D01*
X190333238Y-47282286D01*
X190380857Y-47187048D01*
X190476095Y-47139429D01*
X190714191Y-47139429D01*
X190809429Y-47091810D01*
X191428476Y-47520381D02*
X191333238Y-47472762D01*
X191285619Y-47377524D01*
X191285619Y-46520381D01*
X191952286Y-47520381D02*
X191857048Y-47472762D01*
X191809429Y-47377524D01*
X191809429Y-46520381D01*
X186738000Y-49220381D02*
X186404666Y-48744190D01*
X186166571Y-49220381D02*
X186166571Y-48220381D01*
X186547524Y-48220381D01*
X186642762Y-48268000D01*
X186690381Y-48315619D01*
X186738000Y-48410857D01*
X186738000Y-48553714D01*
X186690381Y-48648952D01*
X186642762Y-48696571D01*
X186547524Y-48744190D01*
X186166571Y-48744190D01*
X187547524Y-49172762D02*
X187452286Y-49220381D01*
X187261809Y-49220381D01*
X187166571Y-49172762D01*
X187118952Y-49077524D01*
X187118952Y-48696571D01*
X187166571Y-48601333D01*
X187261809Y-48553714D01*
X187452286Y-48553714D01*
X187547524Y-48601333D01*
X187595143Y-48696571D01*
X187595143Y-48791810D01*
X187118952Y-48887048D01*
X187976095Y-49172762D02*
X188071333Y-49220381D01*
X188261809Y-49220381D01*
X188357048Y-49172762D01*
X188404667Y-49077524D01*
X188404667Y-49029905D01*
X188357048Y-48934667D01*
X188261809Y-48887048D01*
X188118952Y-48887048D01*
X188023714Y-48839429D01*
X187976095Y-48744190D01*
X187976095Y-48696571D01*
X188023714Y-48601333D01*
X188118952Y-48553714D01*
X188261809Y-48553714D01*
X188357048Y-48601333D01*
X188833238Y-49220381D02*
X188833238Y-48553714D01*
X188833238Y-48220381D02*
X188785619Y-48268000D01*
X188833238Y-48315619D01*
X188880857Y-48268000D01*
X188833238Y-48220381D01*
X188833238Y-48315619D01*
X189261809Y-49172762D02*
X189357047Y-49220381D01*
X189547523Y-49220381D01*
X189642762Y-49172762D01*
X189690381Y-49077524D01*
X189690381Y-49029905D01*
X189642762Y-48934667D01*
X189547523Y-48887048D01*
X189404666Y-48887048D01*
X189309428Y-48839429D01*
X189261809Y-48744190D01*
X189261809Y-48696571D01*
X189309428Y-48601333D01*
X189404666Y-48553714D01*
X189547523Y-48553714D01*
X189642762Y-48601333D01*
X189976095Y-48553714D02*
X190357047Y-48553714D01*
X190118952Y-48220381D02*
X190118952Y-49077524D01*
X190166571Y-49172762D01*
X190261809Y-49220381D01*
X190357047Y-49220381D01*
X190833238Y-49220381D02*
X190738000Y-49172762D01*
X190690381Y-49125143D01*
X190642762Y-49029905D01*
X190642762Y-48744190D01*
X190690381Y-48648952D01*
X190738000Y-48601333D01*
X190833238Y-48553714D01*
X190976096Y-48553714D01*
X191071334Y-48601333D01*
X191118953Y-48648952D01*
X191166572Y-48744190D01*
X191166572Y-49029905D01*
X191118953Y-49125143D01*
X191071334Y-49172762D01*
X190976096Y-49220381D01*
X190833238Y-49220381D01*
X191595143Y-49220381D02*
X191595143Y-48553714D01*
X191595143Y-48744190D02*
X191642762Y-48648952D01*
X191690381Y-48601333D01*
X191785619Y-48553714D01*
X191880858Y-48553714D01*
X192166572Y-49172762D02*
X192261810Y-49220381D01*
X192452286Y-49220381D01*
X192547525Y-49172762D01*
X192595144Y-49077524D01*
X192595144Y-49029905D01*
X192547525Y-48934667D01*
X192452286Y-48887048D01*
X192309429Y-48887048D01*
X192214191Y-48839429D01*
X192166572Y-48744190D01*
X192166572Y-48696571D01*
X192214191Y-48601333D01*
X192309429Y-48553714D01*
X192452286Y-48553714D01*
X192547525Y-48601333D01*
X187190381Y-50253714D02*
X187571333Y-50253714D01*
X187333238Y-50920381D02*
X187333238Y-50063238D01*
X187380857Y-49968000D01*
X187476095Y-49920381D01*
X187571333Y-49920381D01*
X188047524Y-50920381D02*
X187952286Y-50872762D01*
X187904667Y-50825143D01*
X187857048Y-50729905D01*
X187857048Y-50444190D01*
X187904667Y-50348952D01*
X187952286Y-50301333D01*
X188047524Y-50253714D01*
X188190382Y-50253714D01*
X188285620Y-50301333D01*
X188333239Y-50348952D01*
X188380858Y-50444190D01*
X188380858Y-50729905D01*
X188333239Y-50825143D01*
X188285620Y-50872762D01*
X188190382Y-50920381D01*
X188047524Y-50920381D01*
X188809429Y-50920381D02*
X188809429Y-50253714D01*
X188809429Y-50444190D02*
X188857048Y-50348952D01*
X188904667Y-50301333D01*
X188999905Y-50253714D01*
X189095144Y-50253714D01*
X190190382Y-50920381D02*
X190190382Y-49920381D01*
X190618953Y-50015619D02*
X190666572Y-49968000D01*
X190761810Y-49920381D01*
X190999906Y-49920381D01*
X191095144Y-49968000D01*
X191142763Y-50015619D01*
X191190382Y-50110857D01*
X191190382Y-50206095D01*
X191142763Y-50348952D01*
X190571334Y-50920381D01*
X191190382Y-50920381D01*
X192190382Y-50825143D02*
X192142763Y-50872762D01*
X191999906Y-50920381D01*
X191904668Y-50920381D01*
X191761810Y-50872762D01*
X191666572Y-50777524D01*
X191618953Y-50682286D01*
X191571334Y-50491810D01*
X191571334Y-50348952D01*
X191618953Y-50158476D01*
X191666572Y-50063238D01*
X191761810Y-49968000D01*
X191904668Y-49920381D01*
X191999906Y-49920381D01*
X192142763Y-49968000D01*
X192190382Y-50015619D01*
X186253904Y-52252571D02*
X186587238Y-52252571D01*
X186730095Y-52776381D02*
X186253904Y-52776381D01*
X186253904Y-51776381D01*
X186730095Y-51776381D01*
X187063428Y-52776381D02*
X187587238Y-52109714D01*
X187063428Y-52109714D02*
X187587238Y-52776381D01*
X187825333Y-52109714D02*
X188206285Y-52109714D01*
X187968190Y-51776381D02*
X187968190Y-52633524D01*
X188015809Y-52728762D01*
X188111047Y-52776381D01*
X188206285Y-52776381D01*
X188539619Y-52776381D02*
X188539619Y-52109714D01*
X188539619Y-52300190D02*
X188587238Y-52204952D01*
X188634857Y-52157333D01*
X188730095Y-52109714D01*
X188825334Y-52109714D01*
X189587239Y-52776381D02*
X189587239Y-52252571D01*
X189539620Y-52157333D01*
X189444382Y-52109714D01*
X189253905Y-52109714D01*
X189158667Y-52157333D01*
X189587239Y-52728762D02*
X189492001Y-52776381D01*
X189253905Y-52776381D01*
X189158667Y-52728762D01*
X189111048Y-52633524D01*
X189111048Y-52538286D01*
X189158667Y-52443048D01*
X189253905Y-52395429D01*
X189492001Y-52395429D01*
X189587239Y-52347810D01*
X190825334Y-52776381D02*
X190825334Y-51776381D01*
X191063429Y-51776381D01*
X191206287Y-51824000D01*
X191301525Y-51919238D01*
X191349144Y-52014476D01*
X191396763Y-52204952D01*
X191396763Y-52347810D01*
X191349144Y-52538286D01*
X191301525Y-52633524D01*
X191206287Y-52728762D01*
X191063429Y-52776381D01*
X190825334Y-52776381D01*
X192253906Y-52776381D02*
X192253906Y-52252571D01*
X192206287Y-52157333D01*
X192111049Y-52109714D01*
X191920572Y-52109714D01*
X191825334Y-52157333D01*
X192253906Y-52728762D02*
X192158668Y-52776381D01*
X191920572Y-52776381D01*
X191825334Y-52728762D01*
X191777715Y-52633524D01*
X191777715Y-52538286D01*
X191825334Y-52443048D01*
X191920572Y-52395429D01*
X192158668Y-52395429D01*
X192253906Y-52347810D01*
X192587239Y-52109714D02*
X192968191Y-52109714D01*
X192730096Y-51776381D02*
X192730096Y-52633524D01*
X192777715Y-52728762D01*
X192872953Y-52776381D01*
X192968191Y-52776381D01*
X193730097Y-52776381D02*
X193730097Y-52252571D01*
X193682478Y-52157333D01*
X193587240Y-52109714D01*
X193396763Y-52109714D01*
X193301525Y-52157333D01*
X193730097Y-52728762D02*
X193634859Y-52776381D01*
X193396763Y-52776381D01*
X193301525Y-52728762D01*
X193253906Y-52633524D01*
X193253906Y-52538286D01*
X193301525Y-52443048D01*
X193396763Y-52395429D01*
X193634859Y-52395429D01*
X193730097Y-52347810D01*
D13*
X162242667Y-50252381D02*
X162576000Y-51252381D01*
X162909334Y-50252381D01*
X163814096Y-51157143D02*
X163766477Y-51204762D01*
X163623620Y-51252381D01*
X163528382Y-51252381D01*
X163385524Y-51204762D01*
X163290286Y-51109524D01*
X163242667Y-51014286D01*
X163195048Y-50823810D01*
X163195048Y-50680952D01*
X163242667Y-50490476D01*
X163290286Y-50395238D01*
X163385524Y-50300000D01*
X163528382Y-50252381D01*
X163623620Y-50252381D01*
X163766477Y-50300000D01*
X163814096Y-50347619D01*
X164814096Y-51157143D02*
X164766477Y-51204762D01*
X164623620Y-51252381D01*
X164528382Y-51252381D01*
X164385524Y-51204762D01*
X164290286Y-51109524D01*
X164242667Y-51014286D01*
X164195048Y-50823810D01*
X164195048Y-50680952D01*
X164242667Y-50490476D01*
X164290286Y-50395238D01*
X164385524Y-50300000D01*
X164528382Y-50252381D01*
X164623620Y-50252381D01*
X164766477Y-50300000D01*
X164814096Y-50347619D01*
X160536000Y-51252381D02*
X160536000Y-50252381D01*
X160774095Y-50252381D01*
X160916953Y-50300000D01*
X161012191Y-50395238D01*
X161059810Y-50490476D01*
X161107429Y-50680952D01*
X161107429Y-50823810D01*
X161059810Y-51014286D01*
X161012191Y-51109524D01*
X160916953Y-51204762D01*
X160774095Y-51252381D01*
X160536000Y-51252381D01*
X161536000Y-51252381D02*
X161536000Y-50252381D01*
X152654096Y-50300000D02*
X152558858Y-50252381D01*
X152416001Y-50252381D01*
X152273143Y-50300000D01*
X152177905Y-50395238D01*
X152130286Y-50490476D01*
X152082667Y-50680952D01*
X152082667Y-50823810D01*
X152130286Y-51014286D01*
X152177905Y-51109524D01*
X152273143Y-51204762D01*
X152416001Y-51252381D01*
X152511239Y-51252381D01*
X152654096Y-51204762D01*
X152701715Y-51157143D01*
X152701715Y-50823810D01*
X152511239Y-50823810D01*
X153130286Y-51252381D02*
X153130286Y-50252381D01*
X153701715Y-51252381D01*
X153701715Y-50252381D01*
X154177905Y-51252381D02*
X154177905Y-50252381D01*
X154416000Y-50252381D01*
X154558858Y-50300000D01*
X154654096Y-50395238D01*
X154701715Y-50490476D01*
X154749334Y-50680952D01*
X154749334Y-50823810D01*
X154701715Y-51014286D01*
X154654096Y-51109524D01*
X154558858Y-51204762D01*
X154416000Y-51252381D01*
X154177905Y-51252381D01*
D14*
X132320167Y-123696183D02*
X132986834Y-123696183D01*
X133272548Y-124743802D02*
X132320167Y-124743802D01*
X132320167Y-122743802D01*
X133272548Y-122743802D01*
X134129691Y-124743802D02*
X134129691Y-123410469D01*
X134129691Y-123791421D02*
X134224930Y-123600945D01*
X134320168Y-123505707D01*
X134510644Y-123410469D01*
X134701120Y-123410469D01*
X136224929Y-123410469D02*
X136224929Y-125029516D01*
X136129691Y-125219992D01*
X136034453Y-125315230D01*
X135843977Y-125410469D01*
X135558263Y-125410469D01*
X135367786Y-125315230D01*
X136224929Y-124648564D02*
X136034453Y-124743802D01*
X135653501Y-124743802D01*
X135463025Y-124648564D01*
X135367786Y-124553326D01*
X135272548Y-124362850D01*
X135272548Y-123791421D01*
X135367786Y-123600945D01*
X135463025Y-123505707D01*
X135653501Y-123410469D01*
X136034453Y-123410469D01*
X136224929Y-123505707D01*
X137463025Y-124743802D02*
X137272549Y-124648564D01*
X137177310Y-124553326D01*
X137082072Y-124362850D01*
X137082072Y-123791421D01*
X137177310Y-123600945D01*
X137272549Y-123505707D01*
X137463025Y-123410469D01*
X137748739Y-123410469D01*
X137939215Y-123505707D01*
X138034453Y-123600945D01*
X138129691Y-123791421D01*
X138129691Y-124362850D01*
X138034453Y-124553326D01*
X137939215Y-124648564D01*
X137748739Y-124743802D01*
X137463025Y-124743802D01*
X138701120Y-122743802D02*
X139843977Y-122743802D01*
X139272549Y-124743802D02*
X139272549Y-122743802D01*
X140510644Y-124743802D02*
X140510644Y-123410469D01*
X140510644Y-123791421D02*
X140605883Y-123600945D01*
X140701121Y-123505707D01*
X140891597Y-123410469D01*
X141082073Y-123410469D01*
X142605882Y-124743802D02*
X142605882Y-123696183D01*
X142510644Y-123505707D01*
X142320168Y-123410469D01*
X141939216Y-123410469D01*
X141748739Y-123505707D01*
X142605882Y-124648564D02*
X142415406Y-124743802D01*
X141939216Y-124743802D01*
X141748739Y-124648564D01*
X141653501Y-124458088D01*
X141653501Y-124267611D01*
X141748739Y-124077135D01*
X141939216Y-123981897D01*
X142415406Y-123981897D01*
X142605882Y-123886659D01*
X143367787Y-123410469D02*
X143843978Y-124743802D01*
X144320168Y-123410469D01*
X145843978Y-124648564D02*
X145653502Y-124743802D01*
X145272550Y-124743802D01*
X145082073Y-124648564D01*
X144986835Y-124458088D01*
X144986835Y-123696183D01*
X145082073Y-123505707D01*
X145272550Y-123410469D01*
X145653502Y-123410469D01*
X145843978Y-123505707D01*
X145939216Y-123696183D01*
X145939216Y-123886659D01*
X144986835Y-124077135D01*
X147082074Y-124743802D02*
X146891598Y-124648564D01*
X146796359Y-124458088D01*
X146796359Y-122743802D01*
X149082074Y-122743802D02*
X149748741Y-124743802D01*
X150415408Y-122743802D01*
X152129694Y-124743802D02*
X150986836Y-124743802D01*
X151558265Y-124743802D02*
X151558265Y-122743802D01*
X151367789Y-123029516D01*
X151177313Y-123219992D01*
X150986836Y-123315230D01*
X152986836Y-124553326D02*
X153082075Y-124648564D01*
X152986836Y-124743802D01*
X152891598Y-124648564D01*
X152986836Y-124553326D01*
X152986836Y-124743802D01*
X154320170Y-122743802D02*
X154510646Y-122743802D01*
X154701122Y-122839040D01*
X154796360Y-122934278D01*
X154891598Y-123124754D01*
X154986837Y-123505707D01*
X154986837Y-123981897D01*
X154891598Y-124362850D01*
X154796360Y-124553326D01*
X154701122Y-124648564D01*
X154510646Y-124743802D01*
X154320170Y-124743802D01*
X154129694Y-124648564D01*
X154034456Y-124553326D01*
X153939217Y-124362850D01*
X153843979Y-123981897D01*
X153843979Y-123505707D01*
X153939217Y-123124754D01*
X154034456Y-122934278D01*
X154129694Y-122839040D01*
X154320170Y-122743802D01*
X156891599Y-124743802D02*
X155748741Y-124743802D01*
X156320170Y-124743802D02*
X156320170Y-122743802D01*
X156129694Y-123029516D01*
X155939218Y-123219992D01*
X155748741Y-123315230D01*
X97635596Y-110099290D02*
X97572025Y-110177794D01*
X97366379Y-110271230D01*
X97224304Y-110286162D01*
X97003727Y-110237525D01*
X96846719Y-110110383D01*
X96760750Y-109975775D01*
X96659847Y-109699091D01*
X96637448Y-109485980D01*
X96678620Y-109194364D01*
X96734724Y-109044823D01*
X96861867Y-108887816D01*
X97067512Y-108794380D01*
X97209586Y-108779447D01*
X97430165Y-108828086D01*
X97508669Y-108891657D01*
X98502976Y-110151769D02*
X98353434Y-110095665D01*
X98274931Y-110032093D01*
X98188961Y-109897485D01*
X98144163Y-109471262D01*
X98200268Y-109321721D01*
X98263839Y-109243217D01*
X98398448Y-109157247D01*
X98611559Y-109134848D01*
X98761100Y-109190953D01*
X98839604Y-109254524D01*
X98925574Y-109389132D01*
X98970372Y-109815356D01*
X98914267Y-109964896D01*
X98850695Y-110043400D01*
X98716087Y-110129370D01*
X98502976Y-110151769D01*
X99535044Y-109037786D02*
X99691837Y-110529569D01*
X99542510Y-109108823D02*
X99677118Y-109022853D01*
X99961267Y-108992988D01*
X100110808Y-109049093D01*
X100189312Y-109112664D01*
X100275282Y-109247272D01*
X100320080Y-109673496D01*
X100263975Y-109823036D01*
X100200404Y-109901540D01*
X100065796Y-109987510D01*
X99781647Y-110017375D01*
X99632106Y-109961271D01*
X100742678Y-108910858D02*
X101202393Y-109868049D01*
X101453050Y-108836195D02*
X101202393Y-109868049D01*
X101097649Y-110238168D01*
X101034079Y-110316672D01*
X100899471Y-110402641D01*
X102125877Y-109770986D02*
X102021349Y-108776465D01*
X102051214Y-109060614D02*
X102107318Y-108911074D01*
X102170889Y-108832570D01*
X102305497Y-108746599D01*
X102447572Y-108731667D01*
X103049361Y-109673924D02*
X102944833Y-108679402D01*
X102892569Y-108182141D02*
X102828997Y-108260646D01*
X102907501Y-108324217D01*
X102971072Y-108245713D01*
X102892569Y-108182141D01*
X102907501Y-108324217D01*
X104294541Y-108537542D02*
X104421469Y-109745176D01*
X104365364Y-109894717D01*
X104301793Y-109973221D01*
X104167185Y-110059190D01*
X103954073Y-110081589D01*
X103804532Y-110025485D01*
X104391603Y-109461028D02*
X104256995Y-109546997D01*
X103972846Y-109576862D01*
X103823305Y-109520758D01*
X103744802Y-109457187D01*
X103658831Y-109322579D01*
X103614034Y-108896355D01*
X103670139Y-108746815D01*
X103733709Y-108668311D01*
X103868318Y-108582340D01*
X104152467Y-108552475D01*
X104302008Y-108608580D01*
X105109443Y-109457401D02*
X104952650Y-107965618D01*
X105748778Y-109390204D02*
X105666649Y-108608794D01*
X105580678Y-108474186D01*
X105431138Y-108418081D01*
X105218026Y-108440480D01*
X105083417Y-108526451D01*
X105019847Y-108604955D01*
X106141511Y-108343418D02*
X106709809Y-108283687D01*
X106302359Y-107823758D02*
X106436752Y-109102430D01*
X106522722Y-109237038D01*
X106672263Y-109293142D01*
X106814338Y-109278209D01*
X108235297Y-107764243D02*
X108298869Y-107685739D01*
X108433477Y-107599769D01*
X108788663Y-107562437D01*
X108938204Y-107618542D01*
X109016708Y-107682113D01*
X109102677Y-107816722D01*
X109117610Y-107958796D01*
X109068972Y-108179374D01*
X108306121Y-109121417D01*
X109229605Y-109024355D01*
X109996296Y-107435510D02*
X110138371Y-107420577D01*
X110287911Y-107476682D01*
X110366416Y-107540253D01*
X110452386Y-107674861D01*
X110553288Y-107951544D01*
X110590619Y-108306731D01*
X110549448Y-108598346D01*
X110493343Y-108747886D01*
X110429772Y-108826391D01*
X110295163Y-108912360D01*
X110153089Y-108927292D01*
X110003548Y-108871188D01*
X109925044Y-108807617D01*
X109839075Y-108673009D01*
X109738172Y-108396326D01*
X109700840Y-108041140D01*
X109742013Y-107749525D01*
X109798117Y-107599984D01*
X109861688Y-107521480D01*
X109996296Y-107435510D01*
X112071095Y-108725702D02*
X111218648Y-108815298D01*
X111644872Y-108770500D02*
X111488079Y-107278717D01*
X111368404Y-107506762D01*
X111241261Y-107663769D01*
X111106653Y-107749739D01*
X112833947Y-107783660D02*
X112684405Y-107727555D01*
X112605902Y-107663983D01*
X112519932Y-107529375D01*
X112512465Y-107458338D01*
X112568570Y-107308798D01*
X112632141Y-107230294D01*
X112766750Y-107144323D01*
X113050899Y-107114458D01*
X113200439Y-107170563D01*
X113278944Y-107234134D01*
X113364913Y-107368743D01*
X113372379Y-107439779D01*
X113316275Y-107589320D01*
X113252704Y-107667824D01*
X113118096Y-107753794D01*
X112833947Y-107783660D01*
X112699338Y-107869629D01*
X112635767Y-107948133D01*
X112579662Y-108097674D01*
X112609527Y-108381823D01*
X112695498Y-108516431D01*
X112774001Y-108580002D01*
X112923543Y-108636106D01*
X113207691Y-108606241D01*
X113342300Y-108520271D01*
X113405871Y-108441767D01*
X113461975Y-108292227D01*
X113432110Y-108008078D01*
X113346140Y-107873470D01*
X113267636Y-107809898D01*
X113118096Y-107753794D01*
X115208041Y-107821420D02*
X116344638Y-107701959D01*
X118251338Y-108076132D02*
X118094545Y-106584349D01*
X118703801Y-107597645D01*
X119089067Y-106479821D01*
X119245859Y-107971604D01*
X119956233Y-107896941D02*
X119799440Y-106405158D01*
X120296701Y-106352893D02*
X121149148Y-106263298D01*
X120879718Y-107799878D02*
X120722925Y-106308096D01*
X123650171Y-107508692D02*
X122939798Y-107583355D01*
X122783006Y-106091572D01*
X124147432Y-107456428D02*
X124042904Y-106461906D01*
X123990640Y-105964645D02*
X123927068Y-106043149D01*
X124005572Y-106106720D01*
X124069143Y-106028216D01*
X123990640Y-105964645D01*
X124005572Y-106106720D01*
X125489674Y-107243531D02*
X125355066Y-107329500D01*
X125070917Y-107359366D01*
X124921376Y-107303262D01*
X124842873Y-107239690D01*
X124756902Y-107105082D01*
X124712104Y-106678859D01*
X124768210Y-106529318D01*
X124831780Y-106450814D01*
X124966389Y-106364844D01*
X125250538Y-106334978D01*
X125400079Y-106391083D01*
X126697307Y-107116604D02*
X126562699Y-107202573D01*
X126278550Y-107232438D01*
X126129010Y-107176334D01*
X126043039Y-107041726D01*
X125983309Y-106473427D01*
X126039414Y-106323887D01*
X126174022Y-106237916D01*
X126458171Y-106208051D01*
X126607712Y-106264156D01*
X126693682Y-106398764D01*
X126708615Y-106540839D01*
X126013174Y-106757576D01*
X127310618Y-106118455D02*
X127415147Y-107112977D01*
X127325551Y-106260531D02*
X127389121Y-106182027D01*
X127523730Y-106096056D01*
X127736842Y-106073657D01*
X127886382Y-106129762D01*
X127972353Y-106264370D01*
X128054482Y-107045780D01*
X128686351Y-106907547D02*
X128835892Y-106963651D01*
X129120042Y-106933785D01*
X129254650Y-106847816D01*
X129310754Y-106698275D01*
X129303288Y-106627238D01*
X129217318Y-106492630D01*
X129067777Y-106436524D01*
X128854665Y-106458923D01*
X128705125Y-106402819D01*
X128619154Y-106268211D01*
X128611688Y-106197174D01*
X128667793Y-106047633D01*
X128802401Y-105961662D01*
X129015513Y-105939264D01*
X129165054Y-105995369D01*
X130533321Y-106713422D02*
X130398712Y-106799392D01*
X130114564Y-106829257D01*
X129965023Y-106773153D01*
X129879053Y-106638545D01*
X129819322Y-106070246D01*
X129875427Y-105920705D01*
X130010035Y-105834735D01*
X130294184Y-105804870D01*
X130443725Y-105860975D01*
X130529695Y-105995583D01*
X130544628Y-106137657D01*
X129849187Y-106354395D01*
X93054331Y-91766689D02*
X92897538Y-90274906D01*
X93252725Y-90237575D01*
X93473302Y-90286214D01*
X93630310Y-90413355D01*
X93716279Y-90547963D01*
X93817182Y-90824647D01*
X93839581Y-91037758D01*
X93798409Y-91329374D01*
X93742305Y-91478915D01*
X93615162Y-91635922D01*
X93409517Y-91729358D01*
X93054331Y-91766689D01*
X95106945Y-91479129D02*
X94972337Y-91565099D01*
X94688188Y-91594964D01*
X94538647Y-91538860D01*
X94452677Y-91404252D01*
X94392946Y-90835953D01*
X94449051Y-90686412D01*
X94583660Y-90600442D01*
X94867808Y-90570577D01*
X95017349Y-90626682D01*
X95103319Y-90761290D01*
X95118252Y-90903364D01*
X94422812Y-91120102D01*
X95746280Y-91411932D02*
X95895821Y-91468036D01*
X96179971Y-91438171D01*
X96314579Y-91352202D01*
X96370683Y-91202661D01*
X96363217Y-91131623D01*
X96277247Y-90997015D01*
X96127707Y-90940910D01*
X95914595Y-90963309D01*
X95765054Y-90907205D01*
X95679084Y-90772597D01*
X95671617Y-90701559D01*
X95727722Y-90552019D01*
X95862330Y-90466048D01*
X96075442Y-90443649D01*
X96224983Y-90499754D01*
X97032418Y-91348575D02*
X96927890Y-90354053D01*
X96875626Y-89856792D02*
X96812054Y-89935297D01*
X96890558Y-89998868D01*
X96954129Y-89920364D01*
X96875626Y-89856792D01*
X96890558Y-89998868D01*
X98277598Y-90212193D02*
X98404526Y-91419827D01*
X98348421Y-91569368D01*
X98284850Y-91647872D01*
X98150242Y-91733841D01*
X97937130Y-91756240D01*
X97787589Y-91700136D01*
X98374661Y-91135679D02*
X98240052Y-91221648D01*
X97955904Y-91251513D01*
X97806362Y-91195409D01*
X97727859Y-91131838D01*
X97641888Y-90997230D01*
X97597091Y-90571006D01*
X97653196Y-90421466D01*
X97716766Y-90342962D01*
X97851375Y-90256991D01*
X98135524Y-90227126D01*
X98285065Y-90283231D01*
X98987971Y-90137530D02*
X99092500Y-91132052D01*
X99002904Y-90279606D02*
X99066474Y-90201102D01*
X99201083Y-90115131D01*
X99414195Y-90092732D01*
X99563735Y-90148837D01*
X99649706Y-90283445D01*
X99731835Y-91064855D01*
X101003040Y-90859425D02*
X100868432Y-90945394D01*
X100584283Y-90975259D01*
X100434742Y-90919155D01*
X100348772Y-90784547D01*
X100289041Y-90216249D01*
X100345146Y-90066708D01*
X100479754Y-89980737D01*
X100763903Y-89950872D01*
X100913444Y-90006977D01*
X100999414Y-90141585D01*
X101014347Y-90283660D01*
X100318906Y-90500397D01*
X102360214Y-90788601D02*
X102203422Y-89296819D01*
X102352748Y-90717565D02*
X102218140Y-90803534D01*
X101933991Y-90833399D01*
X101784449Y-90777295D01*
X101705946Y-90713724D01*
X101619976Y-90579116D01*
X101575178Y-90152893D01*
X101631283Y-90003352D01*
X101694854Y-89924848D01*
X101829463Y-89838877D01*
X102113611Y-89809012D01*
X102263152Y-89865117D01*
X104207184Y-90594477D02*
X104050391Y-89102694D01*
X104110122Y-89670993D02*
X104244730Y-89585023D01*
X104528879Y-89555157D01*
X104678419Y-89611262D01*
X104756923Y-89674834D01*
X104842894Y-89809442D01*
X104887692Y-90235665D01*
X104831586Y-90385206D01*
X104768015Y-90463710D01*
X104633407Y-90549679D01*
X104349258Y-90579544D01*
X104199717Y-90523440D01*
X105310289Y-89473028D02*
X105770004Y-90430218D01*
X106020661Y-89398365D02*
X105770004Y-90430218D01*
X105665260Y-90800337D01*
X105601690Y-90878841D01*
X105467082Y-90964811D01*
X108731384Y-88538881D02*
X107654304Y-90591280D01*
X109927712Y-88987717D02*
X110032241Y-89982239D01*
X109288377Y-89054914D02*
X109370506Y-89836325D01*
X109456476Y-89970933D01*
X109606017Y-90027037D01*
X109819129Y-90004638D01*
X109953737Y-89918669D01*
X110017308Y-89840164D01*
X111643913Y-88232761D02*
X110566833Y-90285161D01*
X112200906Y-88748795D02*
X112335300Y-90027466D01*
X112279195Y-90177007D01*
X112144586Y-90262977D01*
X112073550Y-90270443D01*
X112148642Y-88251534D02*
X112085070Y-88330038D01*
X112163574Y-88393609D01*
X112227145Y-88315105D01*
X112148642Y-88251534D01*
X112163574Y-88393609D01*
X112911279Y-88674132D02*
X113068072Y-90165914D01*
X112918745Y-88745169D02*
X113053353Y-88659199D01*
X113337502Y-88629334D01*
X113487043Y-88685439D01*
X113565547Y-88749010D01*
X113651517Y-88883618D01*
X113696315Y-89309841D01*
X113640210Y-89459382D01*
X113576639Y-89537886D01*
X113442031Y-89623856D01*
X113157882Y-89653721D01*
X113008341Y-89597617D01*
X114997385Y-89388560D02*
X114862777Y-89474529D01*
X114578628Y-89504394D01*
X114429086Y-89448290D01*
X114350583Y-89384719D01*
X114264613Y-89250111D01*
X114219815Y-88823888D01*
X114275920Y-88674347D01*
X114339490Y-88595843D01*
X114474099Y-88509872D01*
X114758248Y-88480007D01*
X114907789Y-88536112D01*
X115857299Y-89370001D02*
X115707757Y-89313897D01*
X115629254Y-89250325D01*
X115543284Y-89115717D01*
X115498486Y-88689494D01*
X115554591Y-88539953D01*
X115618161Y-88461449D01*
X115752770Y-88375479D01*
X115965881Y-88353080D01*
X116115422Y-88409185D01*
X116193926Y-88472756D01*
X116279896Y-88607364D01*
X116324694Y-89033588D01*
X116268589Y-89183128D01*
X116205018Y-89261632D01*
X116070410Y-89347602D01*
X115857299Y-89370001D01*
X116889366Y-88256018D02*
X116993895Y-89250540D01*
X116904299Y-88398093D02*
X116967870Y-88319589D01*
X117102479Y-88233619D01*
X117315590Y-88211220D01*
X117465130Y-88267325D01*
X117551101Y-88401933D01*
X117633230Y-89183343D01*
X118265099Y-89045109D02*
X118414640Y-89101213D01*
X118698790Y-89071348D01*
X118833398Y-88985379D01*
X118889502Y-88835838D01*
X118882036Y-88764800D01*
X118796066Y-88630192D01*
X118646526Y-88574087D01*
X118433414Y-88596486D01*
X118283873Y-88540382D01*
X118197903Y-88405774D01*
X118190436Y-88334736D01*
X118246541Y-88185195D01*
X118381149Y-88099225D01*
X118594261Y-88076826D01*
X118743802Y-88132931D01*
X119233597Y-88009629D02*
X119801895Y-87949899D01*
X119394445Y-87489969D02*
X119528839Y-88768641D01*
X119614808Y-88903249D01*
X119764350Y-88959353D01*
X119906424Y-88944420D01*
X121043020Y-88824959D02*
X120960891Y-88043550D01*
X120874920Y-87908942D01*
X120725380Y-87852836D01*
X120441231Y-87882702D01*
X120306623Y-87968672D01*
X121035554Y-88753923D02*
X120900946Y-88839892D01*
X120545759Y-88877224D01*
X120396219Y-88821119D01*
X120310248Y-88686511D01*
X120295316Y-88544437D01*
X120351421Y-88394895D01*
X120486029Y-88308926D01*
X120841215Y-88271594D01*
X120975823Y-88185624D01*
X121648865Y-87755774D02*
X121753393Y-88750296D01*
X121663798Y-87897850D02*
X121727368Y-87819346D01*
X121861977Y-87733375D01*
X122075088Y-87710976D01*
X122224629Y-87767081D01*
X122310599Y-87901689D01*
X122392729Y-88683099D01*
X122785461Y-87636313D02*
X123353760Y-87576583D01*
X122946309Y-87116653D02*
X123080703Y-88395325D01*
X123166672Y-88529933D01*
X123316214Y-88586037D01*
X123458288Y-88571104D01*
X123955549Y-88518840D02*
X123851021Y-87524318D01*
X123798757Y-87027057D02*
X123735185Y-87105561D01*
X123813689Y-87169133D01*
X123877260Y-87090629D01*
X123798757Y-87027057D01*
X123813689Y-87169133D01*
X124561394Y-87449655D02*
X124665922Y-88444177D01*
X124576327Y-87591731D02*
X124639897Y-87513227D01*
X124774506Y-87427256D01*
X124987617Y-87404857D01*
X125137158Y-87460962D01*
X125223128Y-87595570D01*
X125305258Y-88376980D01*
X126576462Y-88171550D02*
X126441854Y-88257519D01*
X126157705Y-88287384D01*
X126008164Y-88231280D01*
X125922194Y-88096672D01*
X125862464Y-87528374D01*
X125918569Y-87378833D01*
X126053177Y-87292862D01*
X126337325Y-87262997D01*
X126486866Y-87319102D01*
X126572837Y-87453710D01*
X126587769Y-87595785D01*
X125892329Y-87812522D01*
X127933637Y-88100726D02*
X127851507Y-87319317D01*
X127765537Y-87184709D01*
X127615996Y-87128603D01*
X127331847Y-87158469D01*
X127197239Y-87244439D01*
X127926171Y-88029690D02*
X127791562Y-88115659D01*
X127436376Y-88152991D01*
X127286835Y-88096887D01*
X127200865Y-87962278D01*
X127185932Y-87820204D01*
X127242037Y-87670662D01*
X127376645Y-87584693D01*
X127731832Y-87547361D01*
X127866440Y-87461391D01*
X129178817Y-86964344D02*
X129283345Y-87958866D01*
X128539481Y-87031541D02*
X128621611Y-87812952D01*
X128707580Y-87947560D01*
X128857122Y-88003664D01*
X129070233Y-87981265D01*
X129204841Y-87895296D01*
X129268413Y-87816792D01*
D11*
X92145000Y-67045000D02*
X94545000Y-67045000D01*
X92145000Y-67220000D02*
X94545000Y-67220000D01*
X92145000Y-67395000D02*
X94545000Y-67395000D01*
X94545000Y-67795000D02*
X92145000Y-67795000D01*
X92145000Y-67570000D02*
X94545000Y-67570000D01*
X92145000Y-67695000D02*
X94545000Y-67695000D01*
X92145000Y-67770000D02*
X92145000Y-61970000D01*
X92145000Y-61970000D02*
X94545000Y-61970000D01*
X94545000Y-61970000D02*
X94545000Y-67770000D01*
X92780000Y-86095000D02*
X95180000Y-86095000D01*
X92780000Y-86270000D02*
X95180000Y-86270000D01*
X92780000Y-86445000D02*
X95180000Y-86445000D01*
X95180000Y-86845000D02*
X92780000Y-86845000D01*
X92780000Y-86620000D02*
X95180000Y-86620000D01*
X92780000Y-86745000D02*
X95180000Y-86745000D01*
X92780000Y-86820000D02*
X92780000Y-81020000D01*
X92780000Y-81020000D02*
X95180000Y-81020000D01*
X95180000Y-81020000D02*
X95180000Y-86820000D01*
X92780000Y-105145000D02*
X95180000Y-105145000D01*
X92780000Y-105320000D02*
X95180000Y-105320000D01*
X92780000Y-105495000D02*
X95180000Y-105495000D01*
X95180000Y-105895000D02*
X92780000Y-105895000D01*
X92780000Y-105670000D02*
X95180000Y-105670000D01*
X92780000Y-105795000D02*
X95180000Y-105795000D01*
X92780000Y-105870000D02*
X92780000Y-100070000D01*
X92780000Y-100070000D02*
X95180000Y-100070000D01*
X95180000Y-100070000D02*
X95180000Y-105870000D01*
X92145000Y-123890000D02*
X94545000Y-123890000D01*
X92145000Y-124065000D02*
X94545000Y-124065000D01*
X92145000Y-124240000D02*
X94545000Y-124240000D01*
X94545000Y-124640000D02*
X92145000Y-124640000D01*
X92145000Y-124415000D02*
X94545000Y-124415000D01*
X92145000Y-124540000D02*
X94545000Y-124540000D01*
X92145000Y-124615000D02*
X92145000Y-118815000D01*
X92145000Y-118815000D02*
X94545000Y-118815000D01*
X94545000Y-118815000D02*
X94545000Y-124615000D01*
X111830000Y-64505000D02*
X114230000Y-64505000D01*
X111830000Y-64680000D02*
X114230000Y-64680000D01*
X111830000Y-64855000D02*
X114230000Y-64855000D01*
X114230000Y-65255000D02*
X111830000Y-65255000D01*
X111830000Y-65030000D02*
X114230000Y-65030000D01*
X111830000Y-65155000D02*
X114230000Y-65155000D01*
X111830000Y-65230000D02*
X111830000Y-59430000D01*
X111830000Y-59430000D02*
X114230000Y-59430000D01*
X114230000Y-59430000D02*
X114230000Y-65230000D01*
X111830000Y-84030000D02*
X114230000Y-84030000D01*
X111830000Y-84205000D02*
X114230000Y-84205000D01*
X111830000Y-84380000D02*
X114230000Y-84380000D01*
X114230000Y-84780000D02*
X111830000Y-84780000D01*
X111830000Y-84555000D02*
X114230000Y-84555000D01*
X111830000Y-84680000D02*
X114230000Y-84680000D01*
X111830000Y-84755000D02*
X111830000Y-78955000D01*
X111830000Y-78955000D02*
X114230000Y-78955000D01*
X114230000Y-78955000D02*
X114230000Y-84755000D01*
X111830000Y-102910000D02*
X114230000Y-102910000D01*
X111830000Y-103085000D02*
X114230000Y-103085000D01*
X111830000Y-103260000D02*
X114230000Y-103260000D01*
X114230000Y-103660000D02*
X111830000Y-103660000D01*
X111830000Y-103435000D02*
X114230000Y-103435000D01*
X111830000Y-103560000D02*
X114230000Y-103560000D01*
X111830000Y-103635000D02*
X111830000Y-97835000D01*
X111830000Y-97835000D02*
X114230000Y-97835000D01*
X114230000Y-97835000D02*
X114230000Y-103635000D01*
X111830000Y-121655000D02*
X114230000Y-121655000D01*
X111830000Y-121830000D02*
X114230000Y-121830000D01*
X111830000Y-122005000D02*
X114230000Y-122005000D01*
X114230000Y-122405000D02*
X111830000Y-122405000D01*
X111830000Y-122180000D02*
X114230000Y-122180000D01*
X111830000Y-122305000D02*
X114230000Y-122305000D01*
X111830000Y-122380000D02*
X111830000Y-116580000D01*
X111830000Y-116580000D02*
X114230000Y-116580000D01*
X114230000Y-116580000D02*
X114230000Y-122380000D01*
X129610000Y-62295000D02*
X132010000Y-62295000D01*
X129610000Y-62470000D02*
X132010000Y-62470000D01*
X129610000Y-62645000D02*
X132010000Y-62645000D01*
X132010000Y-63045000D02*
X129610000Y-63045000D01*
X129610000Y-62820000D02*
X132010000Y-62820000D01*
X129610000Y-62945000D02*
X132010000Y-62945000D01*
X129610000Y-63020000D02*
X129610000Y-57220000D01*
X129610000Y-57220000D02*
X132010000Y-57220000D01*
X132010000Y-57220000D02*
X132010000Y-63020000D01*
X130245000Y-86095000D02*
X132645000Y-86095000D01*
X130245000Y-86270000D02*
X132645000Y-86270000D01*
X130245000Y-86445000D02*
X132645000Y-86445000D01*
X132645000Y-86845000D02*
X130245000Y-86845000D01*
X130245000Y-86620000D02*
X132645000Y-86620000D01*
X130245000Y-86745000D02*
X132645000Y-86745000D01*
X130245000Y-86820000D02*
X130245000Y-81020000D01*
X130245000Y-81020000D02*
X132645000Y-81020000D01*
X132645000Y-81020000D02*
X132645000Y-86820000D01*
X130880000Y-100065000D02*
X133280000Y-100065000D01*
X130880000Y-100240000D02*
X133280000Y-100240000D01*
X130880000Y-100415000D02*
X133280000Y-100415000D01*
X133280000Y-100815000D02*
X130880000Y-100815000D01*
X130880000Y-100590000D02*
X133280000Y-100590000D01*
X130880000Y-100715000D02*
X133280000Y-100715000D01*
X130880000Y-100790000D02*
X130880000Y-94990000D01*
X130880000Y-94990000D02*
X133280000Y-94990000D01*
X133280000Y-94990000D02*
X133280000Y-100790000D01*
X130880000Y-119420000D02*
X133280000Y-119420000D01*
X130880000Y-119595000D02*
X133280000Y-119595000D01*
X130880000Y-119770000D02*
X133280000Y-119770000D01*
X133280000Y-120170000D02*
X130880000Y-120170000D01*
X130880000Y-119945000D02*
X133280000Y-119945000D01*
X130880000Y-120070000D02*
X133280000Y-120070000D01*
X130880000Y-120145000D02*
X130880000Y-114345000D01*
X130880000Y-114345000D02*
X133280000Y-114345000D01*
X133280000Y-114345000D02*
X133280000Y-120145000D01*
X151200000Y-62510000D02*
X153600000Y-62510000D01*
X151200000Y-62685000D02*
X153600000Y-62685000D01*
X151200000Y-62860000D02*
X153600000Y-62860000D01*
X153600000Y-63260000D02*
X151200000Y-63260000D01*
X151200000Y-63035000D02*
X153600000Y-63035000D01*
X151200000Y-63160000D02*
X153600000Y-63160000D01*
X151200000Y-63235000D02*
X151200000Y-57435000D01*
X151200000Y-57435000D02*
X153600000Y-57435000D01*
X153600000Y-57435000D02*
X153600000Y-63235000D01*
X149930000Y-86095000D02*
X152330000Y-86095000D01*
X149930000Y-86270000D02*
X152330000Y-86270000D01*
X149930000Y-86445000D02*
X152330000Y-86445000D01*
X152330000Y-86845000D02*
X149930000Y-86845000D01*
X149930000Y-86620000D02*
X152330000Y-86620000D01*
X149930000Y-86745000D02*
X152330000Y-86745000D01*
X149930000Y-86820000D02*
X149930000Y-81020000D01*
X149930000Y-81020000D02*
X152330000Y-81020000D01*
X152330000Y-81020000D02*
X152330000Y-86820000D01*
X149930000Y-98160000D02*
X152330000Y-98160000D01*
X149930000Y-98335000D02*
X152330000Y-98335000D01*
X149930000Y-98510000D02*
X152330000Y-98510000D01*
X152330000Y-98910000D02*
X149930000Y-98910000D01*
X149930000Y-98685000D02*
X152330000Y-98685000D01*
X149930000Y-98810000D02*
X152330000Y-98810000D01*
X149930000Y-98885000D02*
X149930000Y-93085000D01*
X149930000Y-93085000D02*
X152330000Y-93085000D01*
X152330000Y-93085000D02*
X152330000Y-98885000D01*
X149930000Y-116880000D02*
X152330000Y-116880000D01*
X149930000Y-117055000D02*
X152330000Y-117055000D01*
X149930000Y-117230000D02*
X152330000Y-117230000D01*
X152330000Y-117630000D02*
X149930000Y-117630000D01*
X149930000Y-117405000D02*
X152330000Y-117405000D01*
X149930000Y-117530000D02*
X152330000Y-117530000D01*
X149930000Y-117605000D02*
X149930000Y-111805000D01*
X149930000Y-111805000D02*
X152330000Y-111805000D01*
X152330000Y-111805000D02*
X152330000Y-117605000D01*
X168980000Y-62270000D02*
X171380000Y-62270000D01*
X168980000Y-62445000D02*
X171380000Y-62445000D01*
X168980000Y-62620000D02*
X171380000Y-62620000D01*
X171380000Y-63020000D02*
X168980000Y-63020000D01*
X168980000Y-62795000D02*
X171380000Y-62795000D01*
X168980000Y-62920000D02*
X171380000Y-62920000D01*
X168980000Y-62995000D02*
X168980000Y-57195000D01*
X168980000Y-57195000D02*
X171380000Y-57195000D01*
X171380000Y-57195000D02*
X171380000Y-62995000D01*
X168980000Y-81650000D02*
X171380000Y-81650000D01*
X168980000Y-81825000D02*
X171380000Y-81825000D01*
X168980000Y-82000000D02*
X171380000Y-82000000D01*
X171380000Y-82400000D02*
X168980000Y-82400000D01*
X168980000Y-82175000D02*
X171380000Y-82175000D01*
X168980000Y-82300000D02*
X171380000Y-82300000D01*
X168980000Y-82375000D02*
X168980000Y-76575000D01*
X168980000Y-76575000D02*
X171380000Y-76575000D01*
X171380000Y-76575000D02*
X171380000Y-82375000D01*
X168980000Y-100155000D02*
X171380000Y-100155000D01*
X168980000Y-100330000D02*
X171380000Y-100330000D01*
X168980000Y-100505000D02*
X171380000Y-100505000D01*
X171380000Y-100905000D02*
X168980000Y-100905000D01*
X168980000Y-100680000D02*
X171380000Y-100680000D01*
X168980000Y-100805000D02*
X171380000Y-100805000D01*
X168980000Y-100880000D02*
X168980000Y-95080000D01*
X168980000Y-95080000D02*
X171380000Y-95080000D01*
X171380000Y-95080000D02*
X171380000Y-100880000D01*
X177870000Y-118390000D02*
X180270000Y-118390000D01*
X177870000Y-118565000D02*
X180270000Y-118565000D01*
X177870000Y-118740000D02*
X180270000Y-118740000D01*
X180270000Y-119140000D02*
X177870000Y-119140000D01*
X177870000Y-118915000D02*
X180270000Y-118915000D01*
X177870000Y-119040000D02*
X180270000Y-119040000D01*
X177870000Y-119115000D02*
X177870000Y-113315000D01*
X177870000Y-113315000D02*
X180270000Y-113315000D01*
X180270000Y-113315000D02*
X180270000Y-119115000D01*
X188030000Y-64665000D02*
X190430000Y-64665000D01*
X188030000Y-64840000D02*
X190430000Y-64840000D01*
X188030000Y-65015000D02*
X190430000Y-65015000D01*
X190430000Y-65415000D02*
X188030000Y-65415000D01*
X188030000Y-65190000D02*
X190430000Y-65190000D01*
X188030000Y-65315000D02*
X190430000Y-65315000D01*
X188030000Y-65390000D02*
X188030000Y-59590000D01*
X188030000Y-59590000D02*
X190430000Y-59590000D01*
X190430000Y-59590000D02*
X190430000Y-65390000D01*
X188030000Y-83555000D02*
X190430000Y-83555000D01*
X188030000Y-83730000D02*
X190430000Y-83730000D01*
X188030000Y-83905000D02*
X190430000Y-83905000D01*
X190430000Y-84305000D02*
X188030000Y-84305000D01*
X188030000Y-84080000D02*
X190430000Y-84080000D01*
X188030000Y-84205000D02*
X190430000Y-84205000D01*
X188030000Y-84280000D02*
X188030000Y-78480000D01*
X188030000Y-78480000D02*
X190430000Y-78480000D01*
X190430000Y-78480000D02*
X190430000Y-84280000D01*
X188030000Y-101810000D02*
X190430000Y-101810000D01*
X188030000Y-101985000D02*
X190430000Y-101985000D01*
X188030000Y-102160000D02*
X190430000Y-102160000D01*
X190430000Y-102560000D02*
X188030000Y-102560000D01*
X188030000Y-102335000D02*
X190430000Y-102335000D01*
X188030000Y-102460000D02*
X190430000Y-102460000D01*
X188030000Y-102535000D02*
X188030000Y-96735000D01*
X188030000Y-96735000D02*
X190430000Y-96735000D01*
X190430000Y-96735000D02*
X190430000Y-102535000D01*
X181680000Y-118175000D02*
X184080000Y-118175000D01*
X181680000Y-118350000D02*
X184080000Y-118350000D01*
X181680000Y-118525000D02*
X184080000Y-118525000D01*
X184080000Y-118925000D02*
X181680000Y-118925000D01*
X181680000Y-118700000D02*
X184080000Y-118700000D01*
X181680000Y-118825000D02*
X184080000Y-118825000D01*
X181680000Y-118900000D02*
X181680000Y-113100000D01*
X181680000Y-113100000D02*
X184080000Y-113100000D01*
X184080000Y-113100000D02*
X184080000Y-118900000D01*
X197275000Y-75000000D02*
X197275000Y-77400000D01*
X197100000Y-75000000D02*
X197100000Y-77400000D01*
X196925000Y-75000000D02*
X196925000Y-77400000D01*
X196525000Y-77400000D02*
X196525000Y-75000000D01*
X196750000Y-75000000D02*
X196750000Y-77400000D01*
X196625000Y-75000000D02*
X196625000Y-77400000D01*
X196550000Y-75000000D02*
X202350000Y-75000000D01*
X202350000Y-75000000D02*
X202350000Y-77400000D01*
X202350000Y-77400000D02*
X196550000Y-77400000D01*
X198475000Y-92780000D02*
X198475000Y-95180000D01*
X198300000Y-92780000D02*
X198300000Y-95180000D01*
X198125000Y-92780000D02*
X198125000Y-95180000D01*
X197725000Y-95180000D02*
X197725000Y-92780000D01*
X197950000Y-92780000D02*
X197950000Y-95180000D01*
X197825000Y-92780000D02*
X197825000Y-95180000D01*
X197750000Y-92780000D02*
X203550000Y-92780000D01*
X203550000Y-92780000D02*
X203550000Y-95180000D01*
X203550000Y-95180000D02*
X197750000Y-95180000D01*
X198385000Y-95320000D02*
X198385000Y-97720000D01*
X198210000Y-95320000D02*
X198210000Y-97720000D01*
X198035000Y-95320000D02*
X198035000Y-97720000D01*
X197635000Y-97720000D02*
X197635000Y-95320000D01*
X197860000Y-95320000D02*
X197860000Y-97720000D01*
X197735000Y-95320000D02*
X197735000Y-97720000D01*
X197660000Y-95320000D02*
X203460000Y-95320000D01*
X203460000Y-95320000D02*
X203460000Y-97720000D01*
X203460000Y-97720000D02*
X197660000Y-97720000D01*
D15*
X196275000Y-49400000D02*
X206875000Y-49400000D01*
X194875000Y-49400000D02*
X194775000Y-49400000D01*
X195975000Y-55600000D02*
X194775000Y-55600000D01*
X199975000Y-55600000D02*
X197375000Y-55600000D01*
X202975000Y-55600000D02*
X201375000Y-55600000D01*
X206875000Y-55600000D02*
X204375000Y-55600000D01*
X194775000Y-49400000D02*
X194775000Y-55600000D01*
X206875000Y-55600000D02*
X206875000Y-55000000D01*
X206875000Y-50000000D02*
X206875000Y-49400000D01*
X208875000Y-55000000D02*
X208875000Y-50000000D01*
X206875000Y-55000000D02*
X208875000Y-55000000D01*
X206875000Y-50000000D02*
X208875000Y-50000000D01*
D16*
X89016288Y-70293812D02*
X90794288Y-70293812D01*
X78094288Y-57593812D02*
X79872288Y-57593812D01*
X89016288Y-57593812D02*
X90794288Y-57593812D01*
X90794288Y-57593812D02*
X90794288Y-59371812D01*
X90794288Y-68515812D02*
X90794288Y-70293812D01*
X90794288Y-70293812D02*
X89016288Y-70293812D01*
X79872288Y-70293812D02*
X78094288Y-70293812D01*
X78094288Y-70293812D02*
X78094288Y-68515812D01*
X78094288Y-59371812D02*
X78094288Y-57593812D01*
X88996884Y-89405510D02*
X90774884Y-89405510D01*
X78074884Y-76705510D02*
X79852884Y-76705510D01*
X88996884Y-76705510D02*
X90774884Y-76705510D01*
X90774884Y-76705510D02*
X90774884Y-78483510D01*
X90774884Y-87627510D02*
X90774884Y-89405510D01*
X90774884Y-89405510D02*
X88996884Y-89405510D01*
X79852884Y-89405510D02*
X78074884Y-89405510D01*
X78074884Y-89405510D02*
X78074884Y-87627510D01*
X78074884Y-78483510D02*
X78074884Y-76705510D01*
X88996884Y-108457670D02*
X90774884Y-108457670D01*
X78074884Y-95757670D02*
X79852884Y-95757670D01*
X88996884Y-95757670D02*
X90774884Y-95757670D01*
X90774884Y-95757670D02*
X90774884Y-97535670D01*
X90774884Y-106679670D02*
X90774884Y-108457670D01*
X90774884Y-108457670D02*
X88996884Y-108457670D01*
X79852884Y-108457670D02*
X78074884Y-108457670D01*
X78074884Y-108457670D02*
X78074884Y-106679670D01*
X78074884Y-97535670D02*
X78074884Y-95757670D01*
X88996884Y-127450292D02*
X90774884Y-127450292D01*
X78074884Y-114750292D02*
X79852884Y-114750292D01*
X88996884Y-114750292D02*
X90774884Y-114750292D01*
X90774884Y-114750292D02*
X90774884Y-116528292D01*
X90774884Y-125672292D02*
X90774884Y-127450292D01*
X90774884Y-127450292D02*
X88996884Y-127450292D01*
X79852884Y-127450292D02*
X78074884Y-127450292D01*
X78074884Y-127450292D02*
X78074884Y-125672292D01*
X78074884Y-116528292D02*
X78074884Y-114750292D01*
X108108582Y-67971830D02*
X109886582Y-67971830D01*
X97186582Y-55271830D02*
X98964582Y-55271830D01*
X108108582Y-55271830D02*
X109886582Y-55271830D01*
X109886582Y-55271830D02*
X109886582Y-57049830D01*
X109886582Y-66193830D02*
X109886582Y-67971830D01*
X109886582Y-67971830D02*
X108108582Y-67971830D01*
X98964582Y-67971830D02*
X97186582Y-67971830D01*
X97186582Y-67971830D02*
X97186582Y-66193830D01*
X97186582Y-57049830D02*
X97186582Y-55271830D01*
X108108582Y-87083528D02*
X109886582Y-87083528D01*
X97186582Y-74383528D02*
X98964582Y-74383528D01*
X108108582Y-74383528D02*
X109886582Y-74383528D01*
X109886582Y-74383528D02*
X109886582Y-76161528D01*
X109886582Y-85305528D02*
X109886582Y-87083528D01*
X109886582Y-87083528D02*
X108108582Y-87083528D01*
X98964582Y-87083528D02*
X97186582Y-87083528D01*
X97186582Y-87083528D02*
X97186582Y-85305528D01*
X97186582Y-76161528D02*
X97186582Y-74383528D01*
X108108582Y-106016612D02*
X109886582Y-106016612D01*
X97186582Y-93316612D02*
X98964582Y-93316612D01*
X108108582Y-93316612D02*
X109886582Y-93316612D01*
X109886582Y-93316612D02*
X109886582Y-95094612D01*
X109886582Y-104238612D02*
X109886582Y-106016612D01*
X109886582Y-106016612D02*
X108108582Y-106016612D01*
X98964582Y-106016612D02*
X97186582Y-106016612D01*
X97186582Y-106016612D02*
X97186582Y-104238612D01*
X97186582Y-95094612D02*
X97186582Y-93316612D01*
X108049044Y-125128310D02*
X109827044Y-125128310D01*
X97127044Y-112428310D02*
X98905044Y-112428310D01*
X108049044Y-112428310D02*
X109827044Y-112428310D01*
X109827044Y-112428310D02*
X109827044Y-114206310D01*
X109827044Y-123350310D02*
X109827044Y-125128310D01*
X109827044Y-125128310D02*
X108049044Y-125128310D01*
X98905044Y-125128310D02*
X97127044Y-125128310D01*
X97127044Y-125128310D02*
X97127044Y-123350310D01*
X97127044Y-114206310D02*
X97127044Y-112428310D01*
X127101204Y-65471234D02*
X128879204Y-65471234D01*
X116179204Y-52771234D02*
X117957204Y-52771234D01*
X127101204Y-52771234D02*
X128879204Y-52771234D01*
X128879204Y-52771234D02*
X128879204Y-54549234D01*
X128879204Y-63693234D02*
X128879204Y-65471234D01*
X128879204Y-65471234D02*
X127101204Y-65471234D01*
X117957204Y-65471234D02*
X116179204Y-65471234D01*
X116179204Y-65471234D02*
X116179204Y-63693234D01*
X116179204Y-54549234D02*
X116179204Y-52771234D01*
X127101204Y-84642470D02*
X128879204Y-84642470D01*
X116179204Y-71942470D02*
X117957204Y-71942470D01*
X127101204Y-71942470D02*
X128879204Y-71942470D01*
X128879204Y-71942470D02*
X128879204Y-73720470D01*
X128879204Y-82864470D02*
X128879204Y-84642470D01*
X128879204Y-84642470D02*
X127101204Y-84642470D01*
X117957204Y-84642470D02*
X116179204Y-84642470D01*
X116179204Y-84642470D02*
X116179204Y-82864470D01*
X116179204Y-73720470D02*
X116179204Y-71942470D01*
X127041666Y-103635092D02*
X128819666Y-103635092D01*
X116119666Y-90935092D02*
X117897666Y-90935092D01*
X127041666Y-90935092D02*
X128819666Y-90935092D01*
X128819666Y-90935092D02*
X128819666Y-92713092D01*
X128819666Y-101857092D02*
X128819666Y-103635092D01*
X128819666Y-103635092D02*
X127041666Y-103635092D01*
X117897666Y-103635092D02*
X116119666Y-103635092D01*
X116119666Y-103635092D02*
X116119666Y-101857092D01*
X116119666Y-92713092D02*
X116119666Y-90935092D01*
X127141472Y-122746790D02*
X128919472Y-122746790D01*
X116219472Y-110046790D02*
X117997472Y-110046790D01*
X127141472Y-110046790D02*
X128919472Y-110046790D01*
X128919472Y-110046790D02*
X128919472Y-111824790D01*
X128919472Y-120968790D02*
X128919472Y-122746790D01*
X128919472Y-122746790D02*
X127141472Y-122746790D01*
X117997472Y-122746790D02*
X116219472Y-122746790D01*
X116219472Y-122746790D02*
X116219472Y-120968790D01*
X116219472Y-111824790D02*
X116219472Y-110046790D01*
X146232172Y-63149252D02*
X148010172Y-63149252D01*
X135310172Y-50449252D02*
X137088172Y-50449252D01*
X146232172Y-50449252D02*
X148010172Y-50449252D01*
X148010172Y-50449252D02*
X148010172Y-52227252D01*
X148010172Y-61371252D02*
X148010172Y-63149252D01*
X148010172Y-63149252D02*
X146232172Y-63149252D01*
X137088172Y-63149252D02*
X135310172Y-63149252D01*
X135310172Y-63149252D02*
X135310172Y-61371252D01*
X135310172Y-52227252D02*
X135310172Y-50449252D01*
X146193632Y-82201412D02*
X147971632Y-82201412D01*
X135271632Y-69501412D02*
X137049632Y-69501412D01*
X146193632Y-69501412D02*
X147971632Y-69501412D01*
X147971632Y-69501412D02*
X147971632Y-71279412D01*
X147971632Y-80423412D02*
X147971632Y-82201412D01*
X147971632Y-82201412D02*
X146193632Y-82201412D01*
X137049632Y-82201412D02*
X135271632Y-82201412D01*
X135271632Y-82201412D02*
X135271632Y-80423412D01*
X135271632Y-71279412D02*
X135271632Y-69501412D01*
X146212902Y-101313110D02*
X147990902Y-101313110D01*
X135290902Y-88613110D02*
X137068902Y-88613110D01*
X146212902Y-88613110D02*
X147990902Y-88613110D01*
X147990902Y-88613110D02*
X147990902Y-90391110D01*
X147990902Y-99535110D02*
X147990902Y-101313110D01*
X147990902Y-101313110D02*
X146212902Y-101313110D01*
X137068902Y-101313110D02*
X135290902Y-101313110D01*
X135290902Y-101313110D02*
X135290902Y-99535110D01*
X135290902Y-90391110D02*
X135290902Y-88613110D01*
X146153364Y-120365270D02*
X147931364Y-120365270D01*
X135231364Y-107665270D02*
X137009364Y-107665270D01*
X146153364Y-107665270D02*
X147931364Y-107665270D01*
X147931364Y-107665270D02*
X147931364Y-109443270D01*
X147931364Y-118587270D02*
X147931364Y-120365270D01*
X147931364Y-120365270D02*
X146153364Y-120365270D01*
X137009364Y-120365270D02*
X135231364Y-120365270D01*
X135231364Y-120365270D02*
X135231364Y-118587270D01*
X135231364Y-109443270D02*
X135231364Y-107665270D01*
X165205524Y-65530772D02*
X166983524Y-65530772D01*
X154283524Y-52830772D02*
X156061524Y-52830772D01*
X165205524Y-52830772D02*
X166983524Y-52830772D01*
X166983524Y-52830772D02*
X166983524Y-54608772D01*
X166983524Y-63752772D02*
X166983524Y-65530772D01*
X166983524Y-65530772D02*
X165205524Y-65530772D01*
X156061524Y-65530772D02*
X154283524Y-65530772D01*
X154283524Y-65530772D02*
X154283524Y-63752772D01*
X154283524Y-54608772D02*
X154283524Y-52830772D01*
X165205524Y-84642470D02*
X166983524Y-84642470D01*
X154283524Y-71942470D02*
X156061524Y-71942470D01*
X165205524Y-71942470D02*
X166983524Y-71942470D01*
X166983524Y-71942470D02*
X166983524Y-73720470D01*
X166983524Y-82864470D02*
X166983524Y-84642470D01*
X166983524Y-84642470D02*
X165205524Y-84642470D01*
X156061524Y-84642470D02*
X154283524Y-84642470D01*
X154283524Y-84642470D02*
X154283524Y-82864470D01*
X154283524Y-73720470D02*
X154283524Y-71942470D01*
X165205524Y-103635092D02*
X166983524Y-103635092D01*
X154283524Y-90935092D02*
X156061524Y-90935092D01*
X165205524Y-90935092D02*
X166983524Y-90935092D01*
X166983524Y-90935092D02*
X166983524Y-92713092D01*
X166983524Y-101857092D02*
X166983524Y-103635092D01*
X166983524Y-103635092D02*
X165205524Y-103635092D01*
X156061524Y-103635092D02*
X154283524Y-103635092D01*
X154283524Y-103635092D02*
X154283524Y-101857092D01*
X154283524Y-92713092D02*
X154283524Y-90935092D01*
X170642117Y-125468531D02*
X172393105Y-125777277D01*
X162091379Y-111064887D02*
X163842367Y-111373633D01*
X172847449Y-112961472D02*
X174598437Y-113270219D01*
X174598437Y-113270219D02*
X174289691Y-115021207D01*
X172701852Y-124026289D02*
X172393105Y-125777277D01*
X172393105Y-125777277D02*
X170642117Y-125468531D01*
X161637035Y-123880692D02*
X159886047Y-123571945D01*
X159886047Y-123571945D02*
X160194793Y-121820957D01*
X161782632Y-112815875D02*
X162091379Y-111064887D01*
X184257684Y-67912292D02*
X186035684Y-67912292D01*
X173335684Y-55212292D02*
X175113684Y-55212292D01*
X184257684Y-55212292D02*
X186035684Y-55212292D01*
X186035684Y-55212292D02*
X186035684Y-56990292D01*
X186035684Y-66134292D02*
X186035684Y-67912292D01*
X186035684Y-67912292D02*
X184257684Y-67912292D01*
X175113684Y-67912292D02*
X173335684Y-67912292D01*
X173335684Y-67912292D02*
X173335684Y-66134292D01*
X173335684Y-56990292D02*
X173335684Y-55212292D01*
X184317222Y-87023990D02*
X186095222Y-87023990D01*
X173395222Y-74323990D02*
X175173222Y-74323990D01*
X184317222Y-74323990D02*
X186095222Y-74323990D01*
X186095222Y-74323990D02*
X186095222Y-76101990D01*
X186095222Y-85245990D02*
X186095222Y-87023990D01*
X186095222Y-87023990D02*
X184317222Y-87023990D01*
X175173222Y-87023990D02*
X173395222Y-87023990D01*
X173395222Y-87023990D02*
X173395222Y-85245990D01*
X173395222Y-76101990D02*
X173395222Y-74323990D01*
X184257684Y-106016612D02*
X186035684Y-106016612D01*
X173335684Y-93316612D02*
X175113684Y-93316612D01*
X184257684Y-93316612D02*
X186035684Y-93316612D01*
X186035684Y-93316612D02*
X186035684Y-95094612D01*
X186035684Y-104238612D02*
X186035684Y-106016612D01*
X186035684Y-106016612D02*
X184257684Y-106016612D01*
X175113684Y-106016612D02*
X173335684Y-106016612D01*
X173335684Y-106016612D02*
X173335684Y-104238612D01*
X173335684Y-95094612D02*
X173335684Y-93316612D01*
X198187785Y-125436092D02*
X199076785Y-123896299D01*
X181728263Y-128544821D02*
X182617263Y-127005028D01*
X187189263Y-119086092D02*
X188078263Y-117546299D01*
X188078263Y-117546299D02*
X189618056Y-118435299D01*
X197536992Y-123007299D02*
X199076785Y-123896299D01*
X199076785Y-123896299D02*
X198187785Y-125436092D01*
X193615785Y-133355028D02*
X192726785Y-134894821D01*
X192726785Y-134894821D02*
X191186992Y-134005821D01*
X183268056Y-129433821D02*
X181728263Y-128544821D01*
X203349978Y-72642754D02*
X205127978Y-72642754D01*
X192427978Y-59942754D02*
X194205978Y-59942754D01*
X203349978Y-59942754D02*
X205127978Y-59942754D01*
X205127978Y-59942754D02*
X205127978Y-61720754D01*
X205127978Y-70864754D02*
X205127978Y-72642754D01*
X205127978Y-72642754D02*
X203349978Y-72642754D01*
X194205978Y-72642754D02*
X192427978Y-72642754D01*
X192427978Y-72642754D02*
X192427978Y-70864754D01*
X192427978Y-61720754D02*
X192427978Y-59942754D01*
X203309844Y-91727492D02*
X205087844Y-91727492D01*
X192387844Y-79027492D02*
X194165844Y-79027492D01*
X203309844Y-79027492D02*
X205087844Y-79027492D01*
X205087844Y-79027492D02*
X205087844Y-80805492D01*
X205087844Y-89949492D02*
X205087844Y-91727492D01*
X205087844Y-91727492D02*
X203309844Y-91727492D01*
X194165844Y-91727492D02*
X192387844Y-91727492D01*
X192387844Y-91727492D02*
X192387844Y-89949492D01*
X192387844Y-80805492D02*
X192387844Y-79027492D01*
X207753269Y-108890931D02*
X208642269Y-107351138D01*
X191293747Y-111999660D02*
X192182747Y-110459867D01*
X196754747Y-102540931D02*
X197643747Y-101001138D01*
X197643747Y-101001138D02*
X199183540Y-101890138D01*
X207102476Y-106462138D02*
X208642269Y-107351138D01*
X208642269Y-107351138D02*
X207753269Y-108890931D01*
X203181269Y-116809867D02*
X202292269Y-118349660D01*
X202292269Y-118349660D02*
X200752476Y-117460660D01*
X192833540Y-112888660D02*
X191293747Y-111999660D01*
D15*
X114730000Y-49770000D02*
X114280000Y-49320000D01*
X111330000Y-49770000D02*
X111780000Y-49320000D01*
X111330000Y-54370000D02*
X111780000Y-54820000D01*
X114730000Y-54370000D02*
X114280000Y-54820000D01*
X110280000Y-53070000D02*
X110280000Y-51070000D01*
X114280000Y-49320000D02*
X111780000Y-49320000D01*
X115780000Y-53070000D02*
X115780000Y-51070000D01*
X114280000Y-54820000D02*
X111780000Y-54820000D01*
D16*
X150530038Y-48784000D02*
X132750038Y-48784000D01*
X132750038Y-48784000D02*
X132750038Y-79264000D01*
X132750038Y-79264000D02*
X150530038Y-79264000D01*
X150530038Y-79264000D02*
X150530038Y-48784000D01*
X135290038Y-48784000D02*
X135290038Y-51324000D01*
X135290038Y-51324000D02*
X132750038Y-51324000D01*
X203859959Y-115554576D02*
X202970959Y-117094369D01*
X198398959Y-125013305D02*
X197509959Y-126553098D01*
X197509959Y-126553098D02*
X195970166Y-125664098D01*
X188051230Y-121092098D02*
X186511437Y-120203098D01*
X186511437Y-120203098D02*
X187400437Y-118663305D01*
X191972437Y-110744369D02*
X192861437Y-109204576D01*
X192861437Y-109204576D02*
X194401230Y-110093576D01*
X202320166Y-114665576D02*
X203859959Y-115554576D01*
D15*
X91207842Y-52376490D02*
X91669746Y-54996078D01*
X91669746Y-54996078D02*
X104235893Y-52780327D01*
X104235893Y-52780327D02*
X103773989Y-50160739D01*
X103773989Y-50160739D02*
X91207842Y-52376490D01*
X105024695Y-49940206D02*
X106334489Y-49709254D01*
X106334489Y-49709254D02*
X106565441Y-51019048D01*
X176733760Y-51014000D02*
X176733760Y-53634000D01*
X176733760Y-53634000D02*
X183153760Y-53634000D01*
X183153760Y-53634000D02*
X183153760Y-51014000D01*
X183153760Y-51014000D02*
X176733760Y-51014000D01*
X175843760Y-52324000D02*
X176733760Y-52324000D01*
X184043760Y-52324000D02*
X183153760Y-52324000D01*
X176700740Y-47712000D02*
X176700740Y-50332000D01*
X176700740Y-50332000D02*
X183120740Y-50332000D01*
X183120740Y-50332000D02*
X183120740Y-47712000D01*
X183120740Y-47712000D02*
X176700740Y-47712000D01*
X175810740Y-49022000D02*
X176700740Y-49022000D01*
X184010740Y-49022000D02*
X183120740Y-49022000D01*
X164906000Y-50208000D02*
X152086000Y-50208000D01*
X152086000Y-50208000D02*
X152086000Y-52868000D01*
X152086000Y-52868000D02*
X164906000Y-52868000D01*
X164906000Y-52868000D02*
X164906000Y-50208000D01*
X163956000Y-52868000D02*
X163956000Y-58868000D01*
X163956000Y-58868000D02*
X163196000Y-58868000D01*
X163196000Y-58868000D02*
X163196000Y-52868000D01*
X163896000Y-52868000D02*
X163896000Y-58868000D01*
X163776000Y-52868000D02*
X163776000Y-58868000D01*
X163656000Y-52868000D02*
X163656000Y-58868000D01*
X163536000Y-52868000D02*
X163536000Y-58868000D01*
X163416000Y-52868000D02*
X163416000Y-58868000D01*
X163296000Y-52868000D02*
X163296000Y-58868000D01*
X163956000Y-49878000D02*
X163956000Y-50208000D01*
X163196000Y-49878000D02*
X163196000Y-50208000D01*
X162306000Y-50208000D02*
X162306000Y-52868000D01*
X161416000Y-52868000D02*
X161416000Y-58868000D01*
X161416000Y-58868000D02*
X160656000Y-58868000D01*
X160656000Y-58868000D02*
X160656000Y-52868000D01*
X161416000Y-49810929D02*
X161416000Y-50208000D01*
X160656000Y-49810929D02*
X160656000Y-50208000D01*
X159766000Y-50208000D02*
X159766000Y-52868000D01*
X158876000Y-52868000D02*
X158876000Y-58868000D01*
X158876000Y-58868000D02*
X158116000Y-58868000D01*
X158116000Y-58868000D02*
X158116000Y-52868000D01*
X158876000Y-49810929D02*
X158876000Y-50208000D01*
X158116000Y-49810929D02*
X158116000Y-50208000D01*
X157226000Y-50208000D02*
X157226000Y-52868000D01*
X156336000Y-52868000D02*
X156336000Y-58868000D01*
X156336000Y-58868000D02*
X155576000Y-58868000D01*
X155576000Y-58868000D02*
X155576000Y-52868000D01*
X156336000Y-49810929D02*
X156336000Y-50208000D01*
X155576000Y-49810929D02*
X155576000Y-50208000D01*
X154686000Y-50208000D02*
X154686000Y-52868000D01*
X153796000Y-52868000D02*
X153796000Y-58868000D01*
X153796000Y-58868000D02*
X153036000Y-58868000D01*
X153036000Y-58868000D02*
X153036000Y-52868000D01*
X153796000Y-49810929D02*
X153796000Y-50208000D01*
X153036000Y-49810929D02*
X153036000Y-50208000D01*
X163576000Y-47498000D02*
X164846000Y-47498000D01*
X164846000Y-47498000D02*
X164846000Y-48768000D01*
D12*
X95631905Y-65360476D02*
X94831905Y-65360476D01*
X94831905Y-65170000D01*
X94870000Y-65055714D01*
X94946190Y-64979523D01*
X95022381Y-64941428D01*
X95174762Y-64903333D01*
X95289048Y-64903333D01*
X95441429Y-64941428D01*
X95517619Y-64979523D01*
X95593810Y-65055714D01*
X95631905Y-65170000D01*
X95631905Y-65360476D01*
X95631905Y-64141428D02*
X95631905Y-64598571D01*
X95631905Y-64370000D02*
X94831905Y-64370000D01*
X94946190Y-64446190D01*
X95022381Y-64522381D01*
X95060476Y-64598571D01*
X96266905Y-84410476D02*
X95466905Y-84410476D01*
X95466905Y-84220000D01*
X95505000Y-84105714D01*
X95581190Y-84029523D01*
X95657381Y-83991428D01*
X95809762Y-83953333D01*
X95924048Y-83953333D01*
X96076429Y-83991428D01*
X96152619Y-84029523D01*
X96228810Y-84105714D01*
X96266905Y-84220000D01*
X96266905Y-84410476D01*
X95543095Y-83648571D02*
X95505000Y-83610476D01*
X95466905Y-83534285D01*
X95466905Y-83343809D01*
X95505000Y-83267619D01*
X95543095Y-83229523D01*
X95619286Y-83191428D01*
X95695476Y-83191428D01*
X95809762Y-83229523D01*
X96266905Y-83686666D01*
X96266905Y-83191428D01*
X96266905Y-103460476D02*
X95466905Y-103460476D01*
X95466905Y-103270000D01*
X95505000Y-103155714D01*
X95581190Y-103079523D01*
X95657381Y-103041428D01*
X95809762Y-103003333D01*
X95924048Y-103003333D01*
X96076429Y-103041428D01*
X96152619Y-103079523D01*
X96228810Y-103155714D01*
X96266905Y-103270000D01*
X96266905Y-103460476D01*
X95466905Y-102736666D02*
X95466905Y-102241428D01*
X95771667Y-102508095D01*
X95771667Y-102393809D01*
X95809762Y-102317619D01*
X95847857Y-102279523D01*
X95924048Y-102241428D01*
X96114524Y-102241428D01*
X96190714Y-102279523D01*
X96228810Y-102317619D01*
X96266905Y-102393809D01*
X96266905Y-102622381D01*
X96228810Y-102698571D01*
X96190714Y-102736666D01*
X95631905Y-122205476D02*
X94831905Y-122205476D01*
X94831905Y-122015000D01*
X94870000Y-121900714D01*
X94946190Y-121824523D01*
X95022381Y-121786428D01*
X95174762Y-121748333D01*
X95289048Y-121748333D01*
X95441429Y-121786428D01*
X95517619Y-121824523D01*
X95593810Y-121900714D01*
X95631905Y-122015000D01*
X95631905Y-122205476D01*
X95098571Y-121062619D02*
X95631905Y-121062619D01*
X94793810Y-121253095D02*
X95365238Y-121443571D01*
X95365238Y-120948333D01*
X115316905Y-62820476D02*
X114516905Y-62820476D01*
X114516905Y-62630000D01*
X114555000Y-62515714D01*
X114631190Y-62439523D01*
X114707381Y-62401428D01*
X114859762Y-62363333D01*
X114974048Y-62363333D01*
X115126429Y-62401428D01*
X115202619Y-62439523D01*
X115278810Y-62515714D01*
X115316905Y-62630000D01*
X115316905Y-62820476D01*
X114516905Y-61639523D02*
X114516905Y-62020476D01*
X114897857Y-62058571D01*
X114859762Y-62020476D01*
X114821667Y-61944285D01*
X114821667Y-61753809D01*
X114859762Y-61677619D01*
X114897857Y-61639523D01*
X114974048Y-61601428D01*
X115164524Y-61601428D01*
X115240714Y-61639523D01*
X115278810Y-61677619D01*
X115316905Y-61753809D01*
X115316905Y-61944285D01*
X115278810Y-62020476D01*
X115240714Y-62058571D01*
X115316905Y-82345476D02*
X114516905Y-82345476D01*
X114516905Y-82155000D01*
X114555000Y-82040714D01*
X114631190Y-81964523D01*
X114707381Y-81926428D01*
X114859762Y-81888333D01*
X114974048Y-81888333D01*
X115126429Y-81926428D01*
X115202619Y-81964523D01*
X115278810Y-82040714D01*
X115316905Y-82155000D01*
X115316905Y-82345476D01*
X114516905Y-81202619D02*
X114516905Y-81355000D01*
X114555000Y-81431190D01*
X114593095Y-81469285D01*
X114707381Y-81545476D01*
X114859762Y-81583571D01*
X115164524Y-81583571D01*
X115240714Y-81545476D01*
X115278810Y-81507381D01*
X115316905Y-81431190D01*
X115316905Y-81278809D01*
X115278810Y-81202619D01*
X115240714Y-81164523D01*
X115164524Y-81126428D01*
X114974048Y-81126428D01*
X114897857Y-81164523D01*
X114859762Y-81202619D01*
X114821667Y-81278809D01*
X114821667Y-81431190D01*
X114859762Y-81507381D01*
X114897857Y-81545476D01*
X114974048Y-81583571D01*
X115316905Y-101225476D02*
X114516905Y-101225476D01*
X114516905Y-101035000D01*
X114555000Y-100920714D01*
X114631190Y-100844523D01*
X114707381Y-100806428D01*
X114859762Y-100768333D01*
X114974048Y-100768333D01*
X115126429Y-100806428D01*
X115202619Y-100844523D01*
X115278810Y-100920714D01*
X115316905Y-101035000D01*
X115316905Y-101225476D01*
X114516905Y-100501666D02*
X114516905Y-99968333D01*
X115316905Y-100311190D01*
X115316905Y-119970476D02*
X114516905Y-119970476D01*
X114516905Y-119780000D01*
X114555000Y-119665714D01*
X114631190Y-119589523D01*
X114707381Y-119551428D01*
X114859762Y-119513333D01*
X114974048Y-119513333D01*
X115126429Y-119551428D01*
X115202619Y-119589523D01*
X115278810Y-119665714D01*
X115316905Y-119780000D01*
X115316905Y-119970476D01*
X114859762Y-119056190D02*
X114821667Y-119132381D01*
X114783571Y-119170476D01*
X114707381Y-119208571D01*
X114669286Y-119208571D01*
X114593095Y-119170476D01*
X114555000Y-119132381D01*
X114516905Y-119056190D01*
X114516905Y-118903809D01*
X114555000Y-118827619D01*
X114593095Y-118789523D01*
X114669286Y-118751428D01*
X114707381Y-118751428D01*
X114783571Y-118789523D01*
X114821667Y-118827619D01*
X114859762Y-118903809D01*
X114859762Y-119056190D01*
X114897857Y-119132381D01*
X114935952Y-119170476D01*
X115012143Y-119208571D01*
X115164524Y-119208571D01*
X115240714Y-119170476D01*
X115278810Y-119132381D01*
X115316905Y-119056190D01*
X115316905Y-118903809D01*
X115278810Y-118827619D01*
X115240714Y-118789523D01*
X115164524Y-118751428D01*
X115012143Y-118751428D01*
X114935952Y-118789523D01*
X114897857Y-118827619D01*
X114859762Y-118903809D01*
X133096905Y-60610476D02*
X132296905Y-60610476D01*
X132296905Y-60420000D01*
X132335000Y-60305714D01*
X132411190Y-60229523D01*
X132487381Y-60191428D01*
X132639762Y-60153333D01*
X132754048Y-60153333D01*
X132906429Y-60191428D01*
X132982619Y-60229523D01*
X133058810Y-60305714D01*
X133096905Y-60420000D01*
X133096905Y-60610476D01*
X133096905Y-59772381D02*
X133096905Y-59620000D01*
X133058810Y-59543809D01*
X133020714Y-59505714D01*
X132906429Y-59429523D01*
X132754048Y-59391428D01*
X132449286Y-59391428D01*
X132373095Y-59429523D01*
X132335000Y-59467619D01*
X132296905Y-59543809D01*
X132296905Y-59696190D01*
X132335000Y-59772381D01*
X132373095Y-59810476D01*
X132449286Y-59848571D01*
X132639762Y-59848571D01*
X132715952Y-59810476D01*
X132754048Y-59772381D01*
X132792143Y-59696190D01*
X132792143Y-59543809D01*
X132754048Y-59467619D01*
X132715952Y-59429523D01*
X132639762Y-59391428D01*
X133731905Y-84791429D02*
X132931905Y-84791429D01*
X132931905Y-84600953D01*
X132970000Y-84486667D01*
X133046190Y-84410476D01*
X133122381Y-84372381D01*
X133274762Y-84334286D01*
X133389048Y-84334286D01*
X133541429Y-84372381D01*
X133617619Y-84410476D01*
X133693810Y-84486667D01*
X133731905Y-84600953D01*
X133731905Y-84791429D01*
X133731905Y-83572381D02*
X133731905Y-84029524D01*
X133731905Y-83800953D02*
X132931905Y-83800953D01*
X133046190Y-83877143D01*
X133122381Y-83953334D01*
X133160476Y-84029524D01*
X132931905Y-83077143D02*
X132931905Y-83000952D01*
X132970000Y-82924762D01*
X133008095Y-82886667D01*
X133084286Y-82848571D01*
X133236667Y-82810476D01*
X133427143Y-82810476D01*
X133579524Y-82848571D01*
X133655714Y-82886667D01*
X133693810Y-82924762D01*
X133731905Y-83000952D01*
X133731905Y-83077143D01*
X133693810Y-83153333D01*
X133655714Y-83191429D01*
X133579524Y-83229524D01*
X133427143Y-83267619D01*
X133236667Y-83267619D01*
X133084286Y-83229524D01*
X133008095Y-83191429D01*
X132970000Y-83153333D01*
X132931905Y-83077143D01*
X134366905Y-98761429D02*
X133566905Y-98761429D01*
X133566905Y-98570953D01*
X133605000Y-98456667D01*
X133681190Y-98380476D01*
X133757381Y-98342381D01*
X133909762Y-98304286D01*
X134024048Y-98304286D01*
X134176429Y-98342381D01*
X134252619Y-98380476D01*
X134328810Y-98456667D01*
X134366905Y-98570953D01*
X134366905Y-98761429D01*
X134366905Y-97542381D02*
X134366905Y-97999524D01*
X134366905Y-97770953D02*
X133566905Y-97770953D01*
X133681190Y-97847143D01*
X133757381Y-97923334D01*
X133795476Y-97999524D01*
X134366905Y-96780476D02*
X134366905Y-97237619D01*
X134366905Y-97009048D02*
X133566905Y-97009048D01*
X133681190Y-97085238D01*
X133757381Y-97161429D01*
X133795476Y-97237619D01*
X134366905Y-118116429D02*
X133566905Y-118116429D01*
X133566905Y-117925953D01*
X133605000Y-117811667D01*
X133681190Y-117735476D01*
X133757381Y-117697381D01*
X133909762Y-117659286D01*
X134024048Y-117659286D01*
X134176429Y-117697381D01*
X134252619Y-117735476D01*
X134328810Y-117811667D01*
X134366905Y-117925953D01*
X134366905Y-118116429D01*
X134366905Y-116897381D02*
X134366905Y-117354524D01*
X134366905Y-117125953D02*
X133566905Y-117125953D01*
X133681190Y-117202143D01*
X133757381Y-117278334D01*
X133795476Y-117354524D01*
X133643095Y-116592619D02*
X133605000Y-116554524D01*
X133566905Y-116478333D01*
X133566905Y-116287857D01*
X133605000Y-116211667D01*
X133643095Y-116173571D01*
X133719286Y-116135476D01*
X133795476Y-116135476D01*
X133909762Y-116173571D01*
X134366905Y-116630714D01*
X134366905Y-116135476D01*
X154686905Y-61206429D02*
X153886905Y-61206429D01*
X153886905Y-61015953D01*
X153925000Y-60901667D01*
X154001190Y-60825476D01*
X154077381Y-60787381D01*
X154229762Y-60749286D01*
X154344048Y-60749286D01*
X154496429Y-60787381D01*
X154572619Y-60825476D01*
X154648810Y-60901667D01*
X154686905Y-61015953D01*
X154686905Y-61206429D01*
X154686905Y-59987381D02*
X154686905Y-60444524D01*
X154686905Y-60215953D02*
X153886905Y-60215953D01*
X154001190Y-60292143D01*
X154077381Y-60368334D01*
X154115476Y-60444524D01*
X153886905Y-59720714D02*
X153886905Y-59225476D01*
X154191667Y-59492143D01*
X154191667Y-59377857D01*
X154229762Y-59301667D01*
X154267857Y-59263571D01*
X154344048Y-59225476D01*
X154534524Y-59225476D01*
X154610714Y-59263571D01*
X154648810Y-59301667D01*
X154686905Y-59377857D01*
X154686905Y-59606429D01*
X154648810Y-59682619D01*
X154610714Y-59720714D01*
X153416905Y-84791429D02*
X152616905Y-84791429D01*
X152616905Y-84600953D01*
X152655000Y-84486667D01*
X152731190Y-84410476D01*
X152807381Y-84372381D01*
X152959762Y-84334286D01*
X153074048Y-84334286D01*
X153226429Y-84372381D01*
X153302619Y-84410476D01*
X153378810Y-84486667D01*
X153416905Y-84600953D01*
X153416905Y-84791429D01*
X153416905Y-83572381D02*
X153416905Y-84029524D01*
X153416905Y-83800953D02*
X152616905Y-83800953D01*
X152731190Y-83877143D01*
X152807381Y-83953334D01*
X152845476Y-84029524D01*
X152883571Y-82886667D02*
X153416905Y-82886667D01*
X152578810Y-83077143D02*
X153150238Y-83267619D01*
X153150238Y-82772381D01*
X153416905Y-96856429D02*
X152616905Y-96856429D01*
X152616905Y-96665953D01*
X152655000Y-96551667D01*
X152731190Y-96475476D01*
X152807381Y-96437381D01*
X152959762Y-96399286D01*
X153074048Y-96399286D01*
X153226429Y-96437381D01*
X153302619Y-96475476D01*
X153378810Y-96551667D01*
X153416905Y-96665953D01*
X153416905Y-96856429D01*
X153416905Y-95637381D02*
X153416905Y-96094524D01*
X153416905Y-95865953D02*
X152616905Y-95865953D01*
X152731190Y-95942143D01*
X152807381Y-96018334D01*
X152845476Y-96094524D01*
X152616905Y-94913571D02*
X152616905Y-95294524D01*
X152997857Y-95332619D01*
X152959762Y-95294524D01*
X152921667Y-95218333D01*
X152921667Y-95027857D01*
X152959762Y-94951667D01*
X152997857Y-94913571D01*
X153074048Y-94875476D01*
X153264524Y-94875476D01*
X153340714Y-94913571D01*
X153378810Y-94951667D01*
X153416905Y-95027857D01*
X153416905Y-95218333D01*
X153378810Y-95294524D01*
X153340714Y-95332619D01*
X153416905Y-115576429D02*
X152616905Y-115576429D01*
X152616905Y-115385953D01*
X152655000Y-115271667D01*
X152731190Y-115195476D01*
X152807381Y-115157381D01*
X152959762Y-115119286D01*
X153074048Y-115119286D01*
X153226429Y-115157381D01*
X153302619Y-115195476D01*
X153378810Y-115271667D01*
X153416905Y-115385953D01*
X153416905Y-115576429D01*
X153416905Y-114357381D02*
X153416905Y-114814524D01*
X153416905Y-114585953D02*
X152616905Y-114585953D01*
X152731190Y-114662143D01*
X152807381Y-114738334D01*
X152845476Y-114814524D01*
X152616905Y-113671667D02*
X152616905Y-113824048D01*
X152655000Y-113900238D01*
X152693095Y-113938333D01*
X152807381Y-114014524D01*
X152959762Y-114052619D01*
X153264524Y-114052619D01*
X153340714Y-114014524D01*
X153378810Y-113976429D01*
X153416905Y-113900238D01*
X153416905Y-113747857D01*
X153378810Y-113671667D01*
X153340714Y-113633571D01*
X153264524Y-113595476D01*
X153074048Y-113595476D01*
X152997857Y-113633571D01*
X152959762Y-113671667D01*
X152921667Y-113747857D01*
X152921667Y-113900238D01*
X152959762Y-113976429D01*
X152997857Y-114014524D01*
X153074048Y-114052619D01*
X172466905Y-60966429D02*
X171666905Y-60966429D01*
X171666905Y-60775953D01*
X171705000Y-60661667D01*
X171781190Y-60585476D01*
X171857381Y-60547381D01*
X172009762Y-60509286D01*
X172124048Y-60509286D01*
X172276429Y-60547381D01*
X172352619Y-60585476D01*
X172428810Y-60661667D01*
X172466905Y-60775953D01*
X172466905Y-60966429D01*
X172466905Y-59747381D02*
X172466905Y-60204524D01*
X172466905Y-59975953D02*
X171666905Y-59975953D01*
X171781190Y-60052143D01*
X171857381Y-60128334D01*
X171895476Y-60204524D01*
X171666905Y-59480714D02*
X171666905Y-58947381D01*
X172466905Y-59290238D01*
X172466905Y-80346429D02*
X171666905Y-80346429D01*
X171666905Y-80155953D01*
X171705000Y-80041667D01*
X171781190Y-79965476D01*
X171857381Y-79927381D01*
X172009762Y-79889286D01*
X172124048Y-79889286D01*
X172276429Y-79927381D01*
X172352619Y-79965476D01*
X172428810Y-80041667D01*
X172466905Y-80155953D01*
X172466905Y-80346429D01*
X172466905Y-79127381D02*
X172466905Y-79584524D01*
X172466905Y-79355953D02*
X171666905Y-79355953D01*
X171781190Y-79432143D01*
X171857381Y-79508334D01*
X171895476Y-79584524D01*
X172009762Y-78670238D02*
X171971667Y-78746429D01*
X171933571Y-78784524D01*
X171857381Y-78822619D01*
X171819286Y-78822619D01*
X171743095Y-78784524D01*
X171705000Y-78746429D01*
X171666905Y-78670238D01*
X171666905Y-78517857D01*
X171705000Y-78441667D01*
X171743095Y-78403571D01*
X171819286Y-78365476D01*
X171857381Y-78365476D01*
X171933571Y-78403571D01*
X171971667Y-78441667D01*
X172009762Y-78517857D01*
X172009762Y-78670238D01*
X172047857Y-78746429D01*
X172085952Y-78784524D01*
X172162143Y-78822619D01*
X172314524Y-78822619D01*
X172390714Y-78784524D01*
X172428810Y-78746429D01*
X172466905Y-78670238D01*
X172466905Y-78517857D01*
X172428810Y-78441667D01*
X172390714Y-78403571D01*
X172314524Y-78365476D01*
X172162143Y-78365476D01*
X172085952Y-78403571D01*
X172047857Y-78441667D01*
X172009762Y-78517857D01*
X172466905Y-98851429D02*
X171666905Y-98851429D01*
X171666905Y-98660953D01*
X171705000Y-98546667D01*
X171781190Y-98470476D01*
X171857381Y-98432381D01*
X172009762Y-98394286D01*
X172124048Y-98394286D01*
X172276429Y-98432381D01*
X172352619Y-98470476D01*
X172428810Y-98546667D01*
X172466905Y-98660953D01*
X172466905Y-98851429D01*
X172466905Y-97632381D02*
X172466905Y-98089524D01*
X172466905Y-97860953D02*
X171666905Y-97860953D01*
X171781190Y-97937143D01*
X171857381Y-98013334D01*
X171895476Y-98089524D01*
X172466905Y-97251429D02*
X172466905Y-97099048D01*
X172428810Y-97022857D01*
X172390714Y-96984762D01*
X172276429Y-96908571D01*
X172124048Y-96870476D01*
X171819286Y-96870476D01*
X171743095Y-96908571D01*
X171705000Y-96946667D01*
X171666905Y-97022857D01*
X171666905Y-97175238D01*
X171705000Y-97251429D01*
X171743095Y-97289524D01*
X171819286Y-97327619D01*
X172009762Y-97327619D01*
X172085952Y-97289524D01*
X172124048Y-97251429D01*
X172162143Y-97175238D01*
X172162143Y-97022857D01*
X172124048Y-96946667D01*
X172085952Y-96908571D01*
X172009762Y-96870476D01*
X181356905Y-117086429D02*
X180556905Y-117086429D01*
X180556905Y-116895953D01*
X180595000Y-116781667D01*
X180671190Y-116705476D01*
X180747381Y-116667381D01*
X180899762Y-116629286D01*
X181014048Y-116629286D01*
X181166429Y-116667381D01*
X181242619Y-116705476D01*
X181318810Y-116781667D01*
X181356905Y-116895953D01*
X181356905Y-117086429D01*
X180633095Y-116324524D02*
X180595000Y-116286429D01*
X180556905Y-116210238D01*
X180556905Y-116019762D01*
X180595000Y-115943572D01*
X180633095Y-115905476D01*
X180709286Y-115867381D01*
X180785476Y-115867381D01*
X180899762Y-115905476D01*
X181356905Y-116362619D01*
X181356905Y-115867381D01*
X180556905Y-115372143D02*
X180556905Y-115295952D01*
X180595000Y-115219762D01*
X180633095Y-115181667D01*
X180709286Y-115143571D01*
X180861667Y-115105476D01*
X181052143Y-115105476D01*
X181204524Y-115143571D01*
X181280714Y-115181667D01*
X181318810Y-115219762D01*
X181356905Y-115295952D01*
X181356905Y-115372143D01*
X181318810Y-115448333D01*
X181280714Y-115486429D01*
X181204524Y-115524524D01*
X181052143Y-115562619D01*
X180861667Y-115562619D01*
X180709286Y-115524524D01*
X180633095Y-115486429D01*
X180595000Y-115448333D01*
X180556905Y-115372143D01*
X191516905Y-63361429D02*
X190716905Y-63361429D01*
X190716905Y-63170953D01*
X190755000Y-63056667D01*
X190831190Y-62980476D01*
X190907381Y-62942381D01*
X191059762Y-62904286D01*
X191174048Y-62904286D01*
X191326429Y-62942381D01*
X191402619Y-62980476D01*
X191478810Y-63056667D01*
X191516905Y-63170953D01*
X191516905Y-63361429D01*
X190793095Y-62599524D02*
X190755000Y-62561429D01*
X190716905Y-62485238D01*
X190716905Y-62294762D01*
X190755000Y-62218572D01*
X190793095Y-62180476D01*
X190869286Y-62142381D01*
X190945476Y-62142381D01*
X191059762Y-62180476D01*
X191516905Y-62637619D01*
X191516905Y-62142381D01*
X191516905Y-61380476D02*
X191516905Y-61837619D01*
X191516905Y-61609048D02*
X190716905Y-61609048D01*
X190831190Y-61685238D01*
X190907381Y-61761429D01*
X190945476Y-61837619D01*
X191516905Y-82251429D02*
X190716905Y-82251429D01*
X190716905Y-82060953D01*
X190755000Y-81946667D01*
X190831190Y-81870476D01*
X190907381Y-81832381D01*
X191059762Y-81794286D01*
X191174048Y-81794286D01*
X191326429Y-81832381D01*
X191402619Y-81870476D01*
X191478810Y-81946667D01*
X191516905Y-82060953D01*
X191516905Y-82251429D01*
X190793095Y-81489524D02*
X190755000Y-81451429D01*
X190716905Y-81375238D01*
X190716905Y-81184762D01*
X190755000Y-81108572D01*
X190793095Y-81070476D01*
X190869286Y-81032381D01*
X190945476Y-81032381D01*
X191059762Y-81070476D01*
X191516905Y-81527619D01*
X191516905Y-81032381D01*
X190793095Y-80727619D02*
X190755000Y-80689524D01*
X190716905Y-80613333D01*
X190716905Y-80422857D01*
X190755000Y-80346667D01*
X190793095Y-80308571D01*
X190869286Y-80270476D01*
X190945476Y-80270476D01*
X191059762Y-80308571D01*
X191516905Y-80765714D01*
X191516905Y-80270476D01*
X191516905Y-100506429D02*
X190716905Y-100506429D01*
X190716905Y-100315953D01*
X190755000Y-100201667D01*
X190831190Y-100125476D01*
X190907381Y-100087381D01*
X191059762Y-100049286D01*
X191174048Y-100049286D01*
X191326429Y-100087381D01*
X191402619Y-100125476D01*
X191478810Y-100201667D01*
X191516905Y-100315953D01*
X191516905Y-100506429D01*
X190793095Y-99744524D02*
X190755000Y-99706429D01*
X190716905Y-99630238D01*
X190716905Y-99439762D01*
X190755000Y-99363572D01*
X190793095Y-99325476D01*
X190869286Y-99287381D01*
X190945476Y-99287381D01*
X191059762Y-99325476D01*
X191516905Y-99782619D01*
X191516905Y-99287381D01*
X190716905Y-99020714D02*
X190716905Y-98525476D01*
X191021667Y-98792143D01*
X191021667Y-98677857D01*
X191059762Y-98601667D01*
X191097857Y-98563571D01*
X191174048Y-98525476D01*
X191364524Y-98525476D01*
X191440714Y-98563571D01*
X191478810Y-98601667D01*
X191516905Y-98677857D01*
X191516905Y-98906429D01*
X191478810Y-98982619D01*
X191440714Y-99020714D01*
X185166905Y-116871429D02*
X184366905Y-116871429D01*
X184366905Y-116680953D01*
X184405000Y-116566667D01*
X184481190Y-116490476D01*
X184557381Y-116452381D01*
X184709762Y-116414286D01*
X184824048Y-116414286D01*
X184976429Y-116452381D01*
X185052619Y-116490476D01*
X185128810Y-116566667D01*
X185166905Y-116680953D01*
X185166905Y-116871429D01*
X184443095Y-116109524D02*
X184405000Y-116071429D01*
X184366905Y-115995238D01*
X184366905Y-115804762D01*
X184405000Y-115728572D01*
X184443095Y-115690476D01*
X184519286Y-115652381D01*
X184595476Y-115652381D01*
X184709762Y-115690476D01*
X185166905Y-116147619D01*
X185166905Y-115652381D01*
X184633571Y-114966667D02*
X185166905Y-114966667D01*
X184328810Y-115157143D02*
X184900238Y-115347619D01*
X184900238Y-114852381D01*
X198578571Y-78486905D02*
X198578571Y-77686905D01*
X198769047Y-77686905D01*
X198883333Y-77725000D01*
X198959524Y-77801190D01*
X198997619Y-77877381D01*
X199035714Y-78029762D01*
X199035714Y-78144048D01*
X198997619Y-78296429D01*
X198959524Y-78372619D01*
X198883333Y-78448810D01*
X198769047Y-78486905D01*
X198578571Y-78486905D01*
X199340476Y-77763095D02*
X199378571Y-77725000D01*
X199454762Y-77686905D01*
X199645238Y-77686905D01*
X199721428Y-77725000D01*
X199759524Y-77763095D01*
X199797619Y-77839286D01*
X199797619Y-77915476D01*
X199759524Y-78029762D01*
X199302381Y-78486905D01*
X199797619Y-78486905D01*
X200521429Y-77686905D02*
X200140476Y-77686905D01*
X200102381Y-78067857D01*
X200140476Y-78029762D01*
X200216667Y-77991667D01*
X200407143Y-77991667D01*
X200483333Y-78029762D01*
X200521429Y-78067857D01*
X200559524Y-78144048D01*
X200559524Y-78334524D01*
X200521429Y-78410714D01*
X200483333Y-78448810D01*
X200407143Y-78486905D01*
X200216667Y-78486905D01*
X200140476Y-78448810D01*
X200102381Y-78410714D01*
X199778571Y-96266905D02*
X199778571Y-95466905D01*
X199969047Y-95466905D01*
X200083333Y-95505000D01*
X200159524Y-95581190D01*
X200197619Y-95657381D01*
X200235714Y-95809762D01*
X200235714Y-95924048D01*
X200197619Y-96076429D01*
X200159524Y-96152619D01*
X200083333Y-96228810D01*
X199969047Y-96266905D01*
X199778571Y-96266905D01*
X200540476Y-95543095D02*
X200578571Y-95505000D01*
X200654762Y-95466905D01*
X200845238Y-95466905D01*
X200921428Y-95505000D01*
X200959524Y-95543095D01*
X200997619Y-95619286D01*
X200997619Y-95695476D01*
X200959524Y-95809762D01*
X200502381Y-96266905D01*
X200997619Y-96266905D01*
X201683333Y-95466905D02*
X201530952Y-95466905D01*
X201454762Y-95505000D01*
X201416667Y-95543095D01*
X201340476Y-95657381D01*
X201302381Y-95809762D01*
X201302381Y-96114524D01*
X201340476Y-96190714D01*
X201378571Y-96228810D01*
X201454762Y-96266905D01*
X201607143Y-96266905D01*
X201683333Y-96228810D01*
X201721429Y-96190714D01*
X201759524Y-96114524D01*
X201759524Y-95924048D01*
X201721429Y-95847857D01*
X201683333Y-95809762D01*
X201607143Y-95771667D01*
X201454762Y-95771667D01*
X201378571Y-95809762D01*
X201340476Y-95847857D01*
X201302381Y-95924048D01*
X199688571Y-98806905D02*
X199688571Y-98006905D01*
X199879047Y-98006905D01*
X199993333Y-98045000D01*
X200069524Y-98121190D01*
X200107619Y-98197381D01*
X200145714Y-98349762D01*
X200145714Y-98464048D01*
X200107619Y-98616429D01*
X200069524Y-98692619D01*
X199993333Y-98768810D01*
X199879047Y-98806905D01*
X199688571Y-98806905D01*
X200450476Y-98083095D02*
X200488571Y-98045000D01*
X200564762Y-98006905D01*
X200755238Y-98006905D01*
X200831428Y-98045000D01*
X200869524Y-98083095D01*
X200907619Y-98159286D01*
X200907619Y-98235476D01*
X200869524Y-98349762D01*
X200412381Y-98806905D01*
X200907619Y-98806905D01*
X201174286Y-98006905D02*
X201707619Y-98006905D01*
X201364762Y-98806905D01*
D11*
X83716905Y-69032381D02*
X83716905Y-68032381D01*
X84288334Y-69032381D02*
X83859762Y-68460952D01*
X84288334Y-68032381D02*
X83716905Y-68603810D01*
X85240715Y-69032381D02*
X84669286Y-69032381D01*
X84955000Y-69032381D02*
X84955000Y-68032381D01*
X84859762Y-68175238D01*
X84764524Y-68270476D01*
X84669286Y-68318095D01*
X83466789Y-88082381D02*
X83466789Y-87082381D01*
X84038218Y-88082381D02*
X83609646Y-87510952D01*
X84038218Y-87082381D02*
X83466789Y-87653810D01*
X84419170Y-87177619D02*
X84466789Y-87130000D01*
X84562027Y-87082381D01*
X84800123Y-87082381D01*
X84895361Y-87130000D01*
X84942980Y-87177619D01*
X84990599Y-87272857D01*
X84990599Y-87368095D01*
X84942980Y-87510952D01*
X84371551Y-88082381D01*
X84990599Y-88082381D01*
X83466789Y-107132381D02*
X83466789Y-106132381D01*
X84038218Y-107132381D02*
X83609646Y-106560952D01*
X84038218Y-106132381D02*
X83466789Y-106703810D01*
X84371551Y-106132381D02*
X84990599Y-106132381D01*
X84657265Y-106513333D01*
X84800123Y-106513333D01*
X84895361Y-106560952D01*
X84942980Y-106608571D01*
X84990599Y-106703810D01*
X84990599Y-106941905D01*
X84942980Y-107037143D01*
X84895361Y-107084762D01*
X84800123Y-107132381D01*
X84514408Y-107132381D01*
X84419170Y-107084762D01*
X84371551Y-107037143D01*
X83466789Y-126182381D02*
X83466789Y-125182381D01*
X84038218Y-126182381D02*
X83609646Y-125610952D01*
X84038218Y-125182381D02*
X83466789Y-125753810D01*
X84895361Y-125515714D02*
X84895361Y-126182381D01*
X84657265Y-125134762D02*
X84419170Y-125849048D01*
X85038218Y-125849048D01*
X102766905Y-66492381D02*
X102766905Y-65492381D01*
X103338334Y-66492381D02*
X102909762Y-65920952D01*
X103338334Y-65492381D02*
X102766905Y-66063810D01*
X104243096Y-65492381D02*
X103766905Y-65492381D01*
X103719286Y-65968571D01*
X103766905Y-65920952D01*
X103862143Y-65873333D01*
X104100239Y-65873333D01*
X104195477Y-65920952D01*
X104243096Y-65968571D01*
X104290715Y-66063810D01*
X104290715Y-66301905D01*
X104243096Y-66397143D01*
X104195477Y-66444762D01*
X104100239Y-66492381D01*
X103862143Y-66492381D01*
X103766905Y-66444762D01*
X103719286Y-66397143D01*
X102578487Y-85542381D02*
X102578487Y-84542381D01*
X103149916Y-85542381D02*
X102721344Y-84970952D01*
X103149916Y-84542381D02*
X102578487Y-85113810D01*
X104007059Y-84542381D02*
X103816582Y-84542381D01*
X103721344Y-84590000D01*
X103673725Y-84637619D01*
X103578487Y-84780476D01*
X103530868Y-84970952D01*
X103530868Y-85351905D01*
X103578487Y-85447143D01*
X103626106Y-85494762D01*
X103721344Y-85542381D01*
X103911821Y-85542381D01*
X104007059Y-85494762D01*
X104054678Y-85447143D01*
X104102297Y-85351905D01*
X104102297Y-85113810D01*
X104054678Y-85018571D01*
X104007059Y-84970952D01*
X103911821Y-84923333D01*
X103721344Y-84923333D01*
X103626106Y-84970952D01*
X103578487Y-85018571D01*
X103530868Y-85113810D01*
X102578487Y-104592381D02*
X102578487Y-103592381D01*
X103149916Y-104592381D02*
X102721344Y-104020952D01*
X103149916Y-103592381D02*
X102578487Y-104163810D01*
X103483249Y-103592381D02*
X104149916Y-103592381D01*
X103721344Y-104592381D01*
X102518949Y-123642381D02*
X102518949Y-122642381D01*
X103090378Y-123642381D02*
X102661806Y-123070952D01*
X103090378Y-122642381D02*
X102518949Y-123213810D01*
X103661806Y-123070952D02*
X103566568Y-123023333D01*
X103518949Y-122975714D01*
X103471330Y-122880476D01*
X103471330Y-122832857D01*
X103518949Y-122737619D01*
X103566568Y-122690000D01*
X103661806Y-122642381D01*
X103852283Y-122642381D01*
X103947521Y-122690000D01*
X103995140Y-122737619D01*
X104042759Y-122832857D01*
X104042759Y-122880476D01*
X103995140Y-122975714D01*
X103947521Y-123023333D01*
X103852283Y-123070952D01*
X103661806Y-123070952D01*
X103566568Y-123118571D01*
X103518949Y-123166190D01*
X103471330Y-123261429D01*
X103471330Y-123451905D01*
X103518949Y-123547143D01*
X103566568Y-123594762D01*
X103661806Y-123642381D01*
X103852283Y-123642381D01*
X103947521Y-123594762D01*
X103995140Y-123547143D01*
X104042759Y-123451905D01*
X104042759Y-123261429D01*
X103995140Y-123166190D01*
X103947521Y-123118571D01*
X103852283Y-123070952D01*
X121816905Y-63952381D02*
X121816905Y-62952381D01*
X122388334Y-63952381D02*
X121959762Y-63380952D01*
X122388334Y-62952381D02*
X121816905Y-63523810D01*
X122864524Y-63952381D02*
X123055000Y-63952381D01*
X123150239Y-63904762D01*
X123197858Y-63857143D01*
X123293096Y-63714286D01*
X123340715Y-63523810D01*
X123340715Y-63142857D01*
X123293096Y-63047619D01*
X123245477Y-63000000D01*
X123150239Y-62952381D01*
X122959762Y-62952381D01*
X122864524Y-63000000D01*
X122816905Y-63047619D01*
X122769286Y-63142857D01*
X122769286Y-63380952D01*
X122816905Y-63476190D01*
X122864524Y-63523810D01*
X122959762Y-63571429D01*
X123150239Y-63571429D01*
X123245477Y-63523810D01*
X123293096Y-63476190D01*
X123340715Y-63380952D01*
X121094918Y-83002381D02*
X121094918Y-82002381D01*
X121666347Y-83002381D02*
X121237775Y-82430952D01*
X121666347Y-82002381D02*
X121094918Y-82573810D01*
X122618728Y-83002381D02*
X122047299Y-83002381D01*
X122333013Y-83002381D02*
X122333013Y-82002381D01*
X122237775Y-82145238D01*
X122142537Y-82240476D01*
X122047299Y-82288095D01*
X123237775Y-82002381D02*
X123333014Y-82002381D01*
X123428252Y-82050000D01*
X123475871Y-82097619D01*
X123523490Y-82192857D01*
X123571109Y-82383333D01*
X123571109Y-82621429D01*
X123523490Y-82811905D01*
X123475871Y-82907143D01*
X123428252Y-82954762D01*
X123333014Y-83002381D01*
X123237775Y-83002381D01*
X123142537Y-82954762D01*
X123094918Y-82907143D01*
X123047299Y-82811905D01*
X122999680Y-82621429D01*
X122999680Y-82383333D01*
X123047299Y-82192857D01*
X123094918Y-82097619D01*
X123142537Y-82050000D01*
X123237775Y-82002381D01*
X121035380Y-102052381D02*
X121035380Y-101052381D01*
X121606809Y-102052381D02*
X121178237Y-101480952D01*
X121606809Y-101052381D02*
X121035380Y-101623810D01*
X122559190Y-102052381D02*
X121987761Y-102052381D01*
X122273475Y-102052381D02*
X122273475Y-101052381D01*
X122178237Y-101195238D01*
X122082999Y-101290476D01*
X121987761Y-101338095D01*
X123511571Y-102052381D02*
X122940142Y-102052381D01*
X123225856Y-102052381D02*
X123225856Y-101052381D01*
X123130618Y-101195238D01*
X123035380Y-101290476D01*
X122940142Y-101338095D01*
X121135186Y-121102381D02*
X121135186Y-120102381D01*
X121706615Y-121102381D02*
X121278043Y-120530952D01*
X121706615Y-120102381D02*
X121135186Y-120673810D01*
X122658996Y-121102381D02*
X122087567Y-121102381D01*
X122373281Y-121102381D02*
X122373281Y-120102381D01*
X122278043Y-120245238D01*
X122182805Y-120340476D01*
X122087567Y-120388095D01*
X123039948Y-120197619D02*
X123087567Y-120150000D01*
X123182805Y-120102381D01*
X123420901Y-120102381D01*
X123516139Y-120150000D01*
X123563758Y-120197619D01*
X123611377Y-120292857D01*
X123611377Y-120388095D01*
X123563758Y-120530952D01*
X122992329Y-121102381D01*
X123611377Y-121102381D01*
X140390714Y-60777381D02*
X140390714Y-59777381D01*
X140962143Y-60777381D02*
X140533571Y-60205952D01*
X140962143Y-59777381D02*
X140390714Y-60348810D01*
X141914524Y-60777381D02*
X141343095Y-60777381D01*
X141628809Y-60777381D02*
X141628809Y-59777381D01*
X141533571Y-59920238D01*
X141438333Y-60015476D01*
X141343095Y-60063095D01*
X142247857Y-59777381D02*
X142866905Y-59777381D01*
X142533571Y-60158333D01*
X142676429Y-60158333D01*
X142771667Y-60205952D01*
X142819286Y-60253571D01*
X142866905Y-60348810D01*
X142866905Y-60586905D01*
X142819286Y-60682143D01*
X142771667Y-60729762D01*
X142676429Y-60777381D01*
X142390714Y-60777381D01*
X142295476Y-60729762D01*
X142247857Y-60682143D01*
X140187346Y-81097381D02*
X140187346Y-80097381D01*
X140758775Y-81097381D02*
X140330203Y-80525952D01*
X140758775Y-80097381D02*
X140187346Y-80668810D01*
X141711156Y-81097381D02*
X141139727Y-81097381D01*
X141425441Y-81097381D02*
X141425441Y-80097381D01*
X141330203Y-80240238D01*
X141234965Y-80335476D01*
X141139727Y-80383095D01*
X142568299Y-80430714D02*
X142568299Y-81097381D01*
X142330203Y-80049762D02*
X142092108Y-80764048D01*
X142711156Y-80764048D01*
X140206616Y-99512381D02*
X140206616Y-98512381D01*
X140778045Y-99512381D02*
X140349473Y-98940952D01*
X140778045Y-98512381D02*
X140206616Y-99083810D01*
X141730426Y-99512381D02*
X141158997Y-99512381D01*
X141444711Y-99512381D02*
X141444711Y-98512381D01*
X141349473Y-98655238D01*
X141254235Y-98750476D01*
X141158997Y-98798095D01*
X142635188Y-98512381D02*
X142158997Y-98512381D01*
X142111378Y-98988571D01*
X142158997Y-98940952D01*
X142254235Y-98893333D01*
X142492331Y-98893333D01*
X142587569Y-98940952D01*
X142635188Y-98988571D01*
X142682807Y-99083810D01*
X142682807Y-99321905D01*
X142635188Y-99417143D01*
X142587569Y-99464762D01*
X142492331Y-99512381D01*
X142254235Y-99512381D01*
X142158997Y-99464762D01*
X142111378Y-99417143D01*
X140147078Y-119197381D02*
X140147078Y-118197381D01*
X140718507Y-119197381D02*
X140289935Y-118625952D01*
X140718507Y-118197381D02*
X140147078Y-118768810D01*
X141670888Y-119197381D02*
X141099459Y-119197381D01*
X141385173Y-119197381D02*
X141385173Y-118197381D01*
X141289935Y-118340238D01*
X141194697Y-118435476D01*
X141099459Y-118483095D01*
X142528031Y-118197381D02*
X142337554Y-118197381D01*
X142242316Y-118245000D01*
X142194697Y-118292619D01*
X142099459Y-118435476D01*
X142051840Y-118625952D01*
X142051840Y-119006905D01*
X142099459Y-119102143D01*
X142147078Y-119149762D01*
X142242316Y-119197381D01*
X142432793Y-119197381D01*
X142528031Y-119149762D01*
X142575650Y-119102143D01*
X142623269Y-119006905D01*
X142623269Y-118768810D01*
X142575650Y-118673571D01*
X142528031Y-118625952D01*
X142432793Y-118578333D01*
X142242316Y-118578333D01*
X142147078Y-118625952D01*
X142099459Y-118673571D01*
X142051840Y-118768810D01*
X159199238Y-63952381D02*
X159199238Y-62952381D01*
X159770667Y-63952381D02*
X159342095Y-63380952D01*
X159770667Y-62952381D02*
X159199238Y-63523810D01*
X160723048Y-63952381D02*
X160151619Y-63952381D01*
X160437333Y-63952381D02*
X160437333Y-62952381D01*
X160342095Y-63095238D01*
X160246857Y-63190476D01*
X160151619Y-63238095D01*
X161056381Y-62952381D02*
X161723048Y-62952381D01*
X161294476Y-63952381D01*
X159199238Y-83002381D02*
X159199238Y-82002381D01*
X159770667Y-83002381D02*
X159342095Y-82430952D01*
X159770667Y-82002381D02*
X159199238Y-82573810D01*
X160723048Y-83002381D02*
X160151619Y-83002381D01*
X160437333Y-83002381D02*
X160437333Y-82002381D01*
X160342095Y-82145238D01*
X160246857Y-82240476D01*
X160151619Y-82288095D01*
X161294476Y-82430952D02*
X161199238Y-82383333D01*
X161151619Y-82335714D01*
X161104000Y-82240476D01*
X161104000Y-82192857D01*
X161151619Y-82097619D01*
X161199238Y-82050000D01*
X161294476Y-82002381D01*
X161484953Y-82002381D01*
X161580191Y-82050000D01*
X161627810Y-82097619D01*
X161675429Y-82192857D01*
X161675429Y-82240476D01*
X161627810Y-82335714D01*
X161580191Y-82383333D01*
X161484953Y-82430952D01*
X161294476Y-82430952D01*
X161199238Y-82478571D01*
X161151619Y-82526190D01*
X161104000Y-82621429D01*
X161104000Y-82811905D01*
X161151619Y-82907143D01*
X161199238Y-82954762D01*
X161294476Y-83002381D01*
X161484953Y-83002381D01*
X161580191Y-82954762D01*
X161627810Y-82907143D01*
X161675429Y-82811905D01*
X161675429Y-82621429D01*
X161627810Y-82526190D01*
X161580191Y-82478571D01*
X161484953Y-82430952D01*
X159199238Y-102052381D02*
X159199238Y-101052381D01*
X159770667Y-102052381D02*
X159342095Y-101480952D01*
X159770667Y-101052381D02*
X159199238Y-101623810D01*
X160723048Y-102052381D02*
X160151619Y-102052381D01*
X160437333Y-102052381D02*
X160437333Y-101052381D01*
X160342095Y-101195238D01*
X160246857Y-101290476D01*
X160151619Y-101338095D01*
X161199238Y-102052381D02*
X161389714Y-102052381D01*
X161484953Y-102004762D01*
X161532572Y-101957143D01*
X161627810Y-101814286D01*
X161675429Y-101623810D01*
X161675429Y-101242857D01*
X161627810Y-101147619D01*
X161580191Y-101100000D01*
X161484953Y-101052381D01*
X161294476Y-101052381D01*
X161199238Y-101100000D01*
X161151619Y-101147619D01*
X161104000Y-101242857D01*
X161104000Y-101480952D01*
X161151619Y-101576190D01*
X161199238Y-101623810D01*
X161294476Y-101671429D01*
X161484953Y-101671429D01*
X161580191Y-101623810D01*
X161627810Y-101576190D01*
X161675429Y-101480952D01*
X165095607Y-122789650D02*
X165269255Y-121804842D01*
X165658354Y-122888877D02*
X165335521Y-122251709D01*
X165832002Y-121904070D02*
X165170027Y-122367590D01*
X166190629Y-122064012D02*
X166245794Y-122025386D01*
X166347854Y-121995028D01*
X166582332Y-122036373D01*
X166667855Y-122099806D01*
X166706481Y-122154971D01*
X166736839Y-122257031D01*
X166720301Y-122350822D01*
X166648599Y-122483240D01*
X165986623Y-122946760D01*
X166596266Y-123054257D01*
X167379557Y-122176945D02*
X167473349Y-122193483D01*
X167558871Y-122256917D01*
X167597498Y-122312081D01*
X167627855Y-122414141D01*
X167641675Y-122609993D01*
X167600330Y-122844471D01*
X167520359Y-123023785D01*
X167456925Y-123109307D01*
X167401761Y-123147933D01*
X167299701Y-123178291D01*
X167205909Y-123161753D01*
X167120387Y-123098320D01*
X167081760Y-123043155D01*
X167051402Y-122941095D01*
X167037583Y-122745244D01*
X167078928Y-122510765D01*
X167158899Y-122331452D01*
X167222332Y-122245929D01*
X167277497Y-122207303D01*
X167379557Y-122176945D01*
X178490714Y-66492381D02*
X178490714Y-65492381D01*
X179062143Y-66492381D02*
X178633571Y-65920952D01*
X179062143Y-65492381D02*
X178490714Y-66063810D01*
X179443095Y-65587619D02*
X179490714Y-65540000D01*
X179585952Y-65492381D01*
X179824048Y-65492381D01*
X179919286Y-65540000D01*
X179966905Y-65587619D01*
X180014524Y-65682857D01*
X180014524Y-65778095D01*
X179966905Y-65920952D01*
X179395476Y-66492381D01*
X180014524Y-66492381D01*
X180966905Y-66492381D02*
X180395476Y-66492381D01*
X180681190Y-66492381D02*
X180681190Y-65492381D01*
X180585952Y-65635238D01*
X180490714Y-65730476D01*
X180395476Y-65778095D01*
X178310936Y-85542381D02*
X178310936Y-84542381D01*
X178882365Y-85542381D02*
X178453793Y-84970952D01*
X178882365Y-84542381D02*
X178310936Y-85113810D01*
X179263317Y-84637619D02*
X179310936Y-84590000D01*
X179406174Y-84542381D01*
X179644270Y-84542381D01*
X179739508Y-84590000D01*
X179787127Y-84637619D01*
X179834746Y-84732857D01*
X179834746Y-84828095D01*
X179787127Y-84970952D01*
X179215698Y-85542381D01*
X179834746Y-85542381D01*
X180215698Y-84637619D02*
X180263317Y-84590000D01*
X180358555Y-84542381D01*
X180596651Y-84542381D01*
X180691889Y-84590000D01*
X180739508Y-84637619D01*
X180787127Y-84732857D01*
X180787127Y-84828095D01*
X180739508Y-84970952D01*
X180168079Y-85542381D01*
X180787127Y-85542381D01*
X178251398Y-104592381D02*
X178251398Y-103592381D01*
X178822827Y-104592381D02*
X178394255Y-104020952D01*
X178822827Y-103592381D02*
X178251398Y-104163810D01*
X179203779Y-103687619D02*
X179251398Y-103640000D01*
X179346636Y-103592381D01*
X179584732Y-103592381D01*
X179679970Y-103640000D01*
X179727589Y-103687619D01*
X179775208Y-103782857D01*
X179775208Y-103878095D01*
X179727589Y-104020952D01*
X179156160Y-104592381D01*
X179775208Y-104592381D01*
X180108541Y-103592381D02*
X180727589Y-103592381D01*
X180394255Y-103973333D01*
X180537113Y-103973333D01*
X180632351Y-104020952D01*
X180679970Y-104068571D01*
X180727589Y-104163810D01*
X180727589Y-104401905D01*
X180679970Y-104497143D01*
X180632351Y-104544762D01*
X180537113Y-104592381D01*
X180251398Y-104592381D01*
X180156160Y-104544762D01*
X180108541Y-104497143D01*
X194094630Y-130182793D02*
X193228605Y-129682793D01*
X194380345Y-129687921D02*
X193671187Y-129773361D01*
X193514320Y-129187921D02*
X193723477Y-129968508D01*
X193787274Y-128905626D02*
X193769844Y-128840577D01*
X193776224Y-128734289D01*
X193895272Y-128528092D01*
X193984130Y-128469423D01*
X194049179Y-128451993D01*
X194155467Y-128458373D01*
X194237946Y-128505992D01*
X194337854Y-128618660D01*
X194547011Y-129399246D01*
X194856535Y-128863135D01*
X194707756Y-127787494D02*
X195285107Y-128120827D01*
X194258794Y-127803215D02*
X194758337Y-128366554D01*
X195067861Y-127830443D01*
X197343692Y-71572381D02*
X197343692Y-70572381D01*
X197915121Y-71572381D02*
X197486549Y-71000952D01*
X197915121Y-70572381D02*
X197343692Y-71143810D01*
X198296073Y-70667619D02*
X198343692Y-70620000D01*
X198438930Y-70572381D01*
X198677026Y-70572381D01*
X198772264Y-70620000D01*
X198819883Y-70667619D01*
X198867502Y-70762857D01*
X198867502Y-70858095D01*
X198819883Y-71000952D01*
X198248454Y-71572381D01*
X198867502Y-71572381D01*
X199724645Y-70572381D02*
X199534168Y-70572381D01*
X199438930Y-70620000D01*
X199391311Y-70667619D01*
X199296073Y-70810476D01*
X199248454Y-71000952D01*
X199248454Y-71381905D01*
X199296073Y-71477143D01*
X199343692Y-71524762D01*
X199438930Y-71572381D01*
X199629407Y-71572381D01*
X199724645Y-71524762D01*
X199772264Y-71477143D01*
X199819883Y-71381905D01*
X199819883Y-71143810D01*
X199772264Y-71048571D01*
X199724645Y-71000952D01*
X199629407Y-70953333D01*
X199438930Y-70953333D01*
X199343692Y-71000952D01*
X199296073Y-71048571D01*
X199248454Y-71143810D01*
X197303558Y-89987381D02*
X197303558Y-88987381D01*
X197874987Y-89987381D02*
X197446415Y-89415952D01*
X197874987Y-88987381D02*
X197303558Y-89558810D01*
X198255939Y-89082619D02*
X198303558Y-89035000D01*
X198398796Y-88987381D01*
X198636892Y-88987381D01*
X198732130Y-89035000D01*
X198779749Y-89082619D01*
X198827368Y-89177857D01*
X198827368Y-89273095D01*
X198779749Y-89415952D01*
X198208320Y-89987381D01*
X198827368Y-89987381D01*
X199160701Y-88987381D02*
X199827368Y-88987381D01*
X199398796Y-89987381D01*
X202984630Y-113672794D02*
X202118605Y-113172794D01*
X203270345Y-113177922D02*
X202561187Y-113263362D01*
X202404320Y-112677922D02*
X202613477Y-113458509D01*
X202677274Y-112395627D02*
X202659844Y-112330578D01*
X202666224Y-112224290D01*
X202785272Y-112018093D01*
X202874130Y-111959424D01*
X202939179Y-111941994D01*
X203045467Y-111948374D01*
X203127946Y-111995993D01*
X203227854Y-112108661D01*
X203437011Y-112889247D01*
X203746535Y-112353136D01*
X203537377Y-111572550D02*
X203448519Y-111631219D01*
X203383470Y-111648649D01*
X203277182Y-111642269D01*
X203235943Y-111618460D01*
X203177274Y-111529601D01*
X203159844Y-111464553D01*
X203166224Y-111358265D01*
X203261463Y-111193307D01*
X203350321Y-111134638D01*
X203415370Y-111117208D01*
X203521658Y-111123588D01*
X203562897Y-111147397D01*
X203621566Y-111236255D01*
X203638996Y-111301304D01*
X203632616Y-111407592D01*
X203537377Y-111572550D01*
X203530998Y-111678838D01*
X203548427Y-111743887D01*
X203607097Y-111832746D01*
X203772054Y-111927984D01*
X203878342Y-111934363D01*
X203943391Y-111916934D01*
X204032249Y-111858265D01*
X204127488Y-111693307D01*
X204133868Y-111587019D01*
X204116438Y-111521970D01*
X204057769Y-111433112D01*
X203892812Y-111337874D01*
X203786523Y-111331493D01*
X203721474Y-111348923D01*
X203632616Y-111407592D01*
D17*
X137631714Y-64253654D02*
X137631714Y-62983654D01*
X138212286Y-62983654D01*
X138357428Y-63044130D01*
X138430000Y-63104606D01*
X138502571Y-63225559D01*
X138502571Y-63406987D01*
X138430000Y-63527940D01*
X138357428Y-63588416D01*
X138212286Y-63648892D01*
X137631714Y-63648892D01*
X139155714Y-64253654D02*
X139155714Y-63406987D01*
X139155714Y-63648892D02*
X139228286Y-63527940D01*
X139300857Y-63467463D01*
X139446000Y-63406987D01*
X139591143Y-63406987D01*
X140316857Y-64253654D02*
X140171715Y-64193178D01*
X140099143Y-64132701D01*
X140026572Y-64011749D01*
X140026572Y-63648892D01*
X140099143Y-63527940D01*
X140171715Y-63467463D01*
X140316857Y-63406987D01*
X140534572Y-63406987D01*
X140679715Y-63467463D01*
X140752286Y-63527940D01*
X140824857Y-63648892D01*
X140824857Y-64011749D01*
X140752286Y-64132701D01*
X140679715Y-64193178D01*
X140534572Y-64253654D01*
X140316857Y-64253654D01*
X141478000Y-64253654D02*
X141478000Y-62983654D01*
X141986000Y-63890797D01*
X142494000Y-62983654D01*
X142494000Y-64253654D01*
X143219714Y-64253654D02*
X143219714Y-63406987D01*
X143219714Y-62983654D02*
X143147143Y-63044130D01*
X143219714Y-63104606D01*
X143292286Y-63044130D01*
X143219714Y-62983654D01*
X143219714Y-63104606D01*
X144598571Y-64193178D02*
X144453428Y-64253654D01*
X144163142Y-64253654D01*
X144018000Y-64193178D01*
X143945428Y-64132701D01*
X143872857Y-64011749D01*
X143872857Y-63648892D01*
X143945428Y-63527940D01*
X144018000Y-63467463D01*
X144163142Y-63406987D01*
X144453428Y-63406987D01*
X144598571Y-63467463D01*
X145251714Y-64253654D02*
X145251714Y-63406987D01*
X145251714Y-63648892D02*
X145324286Y-63527940D01*
X145396857Y-63467463D01*
X145542000Y-63406987D01*
X145687143Y-63406987D01*
X146412857Y-64253654D02*
X146267715Y-64193178D01*
X146195143Y-64132701D01*
X146122572Y-64011749D01*
X146122572Y-63648892D01*
X146195143Y-63527940D01*
X146267715Y-63467463D01*
X146412857Y-63406987D01*
X146630572Y-63406987D01*
X146775715Y-63467463D01*
X146848286Y-63527940D01*
X146920857Y-63648892D01*
X146920857Y-64011749D01*
X146848286Y-64132701D01*
X146775715Y-64193178D01*
X146630572Y-64253654D01*
X146412857Y-64253654D01*
D10*
X147452705Y-77944000D02*
X147552705Y-77977333D01*
X147586038Y-78010667D01*
X147619372Y-78077333D01*
X147619372Y-78177333D01*
X147586038Y-78244000D01*
X147552705Y-78277333D01*
X147486038Y-78310667D01*
X147219372Y-78310667D01*
X147219372Y-77610667D01*
X147452705Y-77610667D01*
X147519372Y-77644000D01*
X147552705Y-77677333D01*
X147586038Y-77744000D01*
X147586038Y-77810667D01*
X147552705Y-77877333D01*
X147519372Y-77910667D01*
X147452705Y-77944000D01*
X147219372Y-77944000D01*
X148252705Y-77610667D02*
X147919372Y-77610667D01*
X147886038Y-77944000D01*
X147919372Y-77910667D01*
X147986038Y-77877333D01*
X148152705Y-77877333D01*
X148219372Y-77910667D01*
X148252705Y-77944000D01*
X148286038Y-78010667D01*
X148286038Y-78177333D01*
X148252705Y-78244000D01*
X148219372Y-78277333D01*
X148152705Y-78310667D01*
X147986038Y-78310667D01*
X147919372Y-78277333D01*
X147886038Y-78244000D01*
X147452705Y-75404000D02*
X147552705Y-75437333D01*
X147586038Y-75470667D01*
X147619372Y-75537333D01*
X147619372Y-75637333D01*
X147586038Y-75704000D01*
X147552705Y-75737333D01*
X147486038Y-75770667D01*
X147219372Y-75770667D01*
X147219372Y-75070667D01*
X147452705Y-75070667D01*
X147519372Y-75104000D01*
X147552705Y-75137333D01*
X147586038Y-75204000D01*
X147586038Y-75270667D01*
X147552705Y-75337333D01*
X147519372Y-75370667D01*
X147452705Y-75404000D01*
X147219372Y-75404000D01*
X148219372Y-75304000D02*
X148219372Y-75770667D01*
X148052705Y-75037333D02*
X147886038Y-75537333D01*
X148319372Y-75537333D01*
X147252705Y-72864000D02*
X147486038Y-72864000D01*
X147586038Y-73230667D02*
X147252705Y-73230667D01*
X147252705Y-72530667D01*
X147586038Y-72530667D01*
X148186038Y-72530667D02*
X148052704Y-72530667D01*
X147986038Y-72564000D01*
X147952704Y-72597333D01*
X147886038Y-72697333D01*
X147852704Y-72830667D01*
X147852704Y-73097333D01*
X147886038Y-73164000D01*
X147919371Y-73197333D01*
X147986038Y-73230667D01*
X148119371Y-73230667D01*
X148186038Y-73197333D01*
X148219371Y-73164000D01*
X148252704Y-73097333D01*
X148252704Y-72930667D01*
X148219371Y-72864000D01*
X148186038Y-72830667D01*
X148119371Y-72797333D01*
X147986038Y-72797333D01*
X147919371Y-72830667D01*
X147886038Y-72864000D01*
X147852704Y-72930667D01*
X147219372Y-70690667D02*
X147219372Y-69990667D01*
X147386038Y-69990667D01*
X147486038Y-70024000D01*
X147552705Y-70090667D01*
X147586038Y-70157333D01*
X147619372Y-70290667D01*
X147619372Y-70390667D01*
X147586038Y-70524000D01*
X147552705Y-70590667D01*
X147486038Y-70657333D01*
X147386038Y-70690667D01*
X147219372Y-70690667D01*
X147852705Y-69990667D02*
X148319372Y-69990667D01*
X148019372Y-70690667D01*
X147619372Y-68084000D02*
X147586038Y-68117333D01*
X147486038Y-68150667D01*
X147419372Y-68150667D01*
X147319372Y-68117333D01*
X147252705Y-68050667D01*
X147219372Y-67984000D01*
X147186038Y-67850667D01*
X147186038Y-67750667D01*
X147219372Y-67617333D01*
X147252705Y-67550667D01*
X147319372Y-67484000D01*
X147419372Y-67450667D01*
X147486038Y-67450667D01*
X147586038Y-67484000D01*
X147619372Y-67517333D01*
X148219372Y-67450667D02*
X148086038Y-67450667D01*
X148019372Y-67484000D01*
X147986038Y-67517333D01*
X147919372Y-67617333D01*
X147886038Y-67750667D01*
X147886038Y-68017333D01*
X147919372Y-68084000D01*
X147952705Y-68117333D01*
X148019372Y-68150667D01*
X148152705Y-68150667D01*
X148219372Y-68117333D01*
X148252705Y-68084000D01*
X148286038Y-68017333D01*
X148286038Y-67850667D01*
X148252705Y-67784000D01*
X148219372Y-67750667D01*
X148152705Y-67717333D01*
X148019372Y-67717333D01*
X147952705Y-67750667D01*
X147919372Y-67784000D01*
X147886038Y-67850667D01*
X147219372Y-65610667D02*
X147219372Y-64910667D01*
X147386038Y-64910667D01*
X147486038Y-64944000D01*
X147552705Y-65010667D01*
X147586038Y-65077333D01*
X147619372Y-65210667D01*
X147619372Y-65310667D01*
X147586038Y-65444000D01*
X147552705Y-65510667D01*
X147486038Y-65577333D01*
X147386038Y-65610667D01*
X147219372Y-65610667D01*
X148219372Y-65144000D02*
X148219372Y-65610667D01*
X148052705Y-64877333D02*
X147886038Y-65377333D01*
X148319372Y-65377333D01*
X147219372Y-63070667D02*
X147219372Y-62370667D01*
X147386038Y-62370667D01*
X147486038Y-62404000D01*
X147552705Y-62470667D01*
X147586038Y-62537333D01*
X147619372Y-62670667D01*
X147619372Y-62770667D01*
X147586038Y-62904000D01*
X147552705Y-62970667D01*
X147486038Y-63037333D01*
X147386038Y-63070667D01*
X147219372Y-63070667D01*
X148052705Y-62370667D02*
X148119372Y-62370667D01*
X148186038Y-62404000D01*
X148219372Y-62437333D01*
X148252705Y-62504000D01*
X148286038Y-62637333D01*
X148286038Y-62804000D01*
X148252705Y-62937333D01*
X148219372Y-63004000D01*
X148186038Y-63037333D01*
X148119372Y-63070667D01*
X148052705Y-63070667D01*
X147986038Y-63037333D01*
X147952705Y-63004000D01*
X147919372Y-62937333D01*
X147886038Y-62804000D01*
X147886038Y-62637333D01*
X147919372Y-62504000D01*
X147952705Y-62437333D01*
X147986038Y-62404000D01*
X148052705Y-62370667D01*
X147219372Y-60530667D02*
X147219372Y-59830667D01*
X147386038Y-59830667D01*
X147486038Y-59864000D01*
X147552705Y-59930667D01*
X147586038Y-59997333D01*
X147619372Y-60130667D01*
X147619372Y-60230667D01*
X147586038Y-60364000D01*
X147552705Y-60430667D01*
X147486038Y-60497333D01*
X147386038Y-60530667D01*
X147219372Y-60530667D01*
X148286038Y-60530667D02*
X147886038Y-60530667D01*
X148086038Y-60530667D02*
X148086038Y-59830667D01*
X148019372Y-59930667D01*
X147952705Y-59997333D01*
X147886038Y-60030667D01*
X146694705Y-57324000D02*
X146628039Y-57290667D01*
X146528039Y-57290667D01*
X146428039Y-57324000D01*
X146361372Y-57390667D01*
X146328039Y-57457333D01*
X146294705Y-57590667D01*
X146294705Y-57690667D01*
X146328039Y-57824000D01*
X146361372Y-57890667D01*
X146428039Y-57957333D01*
X146528039Y-57990667D01*
X146594705Y-57990667D01*
X146694705Y-57957333D01*
X146728039Y-57924000D01*
X146728039Y-57690667D01*
X146594705Y-57690667D01*
X147028039Y-57990667D02*
X147028039Y-57290667D01*
X147428039Y-57990667D01*
X147428039Y-57290667D01*
X147761372Y-57990667D02*
X147761372Y-57290667D01*
X147928038Y-57290667D01*
X148028038Y-57324000D01*
X148094705Y-57390667D01*
X148128038Y-57457333D01*
X148161372Y-57590667D01*
X148161372Y-57690667D01*
X148128038Y-57824000D01*
X148094705Y-57890667D01*
X148028038Y-57957333D01*
X147928038Y-57990667D01*
X147761372Y-57990667D01*
X146694705Y-54784000D02*
X146628039Y-54750667D01*
X146528039Y-54750667D01*
X146428039Y-54784000D01*
X146361372Y-54850667D01*
X146328039Y-54917333D01*
X146294705Y-55050667D01*
X146294705Y-55150667D01*
X146328039Y-55284000D01*
X146361372Y-55350667D01*
X146428039Y-55417333D01*
X146528039Y-55450667D01*
X146594705Y-55450667D01*
X146694705Y-55417333D01*
X146728039Y-55384000D01*
X146728039Y-55150667D01*
X146594705Y-55150667D01*
X147028039Y-55450667D02*
X147028039Y-54750667D01*
X147428039Y-55450667D01*
X147428039Y-54750667D01*
X147761372Y-55450667D02*
X147761372Y-54750667D01*
X147928038Y-54750667D01*
X148028038Y-54784000D01*
X148094705Y-54850667D01*
X148128038Y-54917333D01*
X148161372Y-55050667D01*
X148161372Y-55150667D01*
X148128038Y-55284000D01*
X148094705Y-55350667D01*
X148028038Y-55417333D01*
X147928038Y-55450667D01*
X147761372Y-55450667D01*
X147219372Y-52910667D02*
X147219372Y-52210667D01*
X147386038Y-52210667D01*
X147486038Y-52244000D01*
X147552705Y-52310667D01*
X147586038Y-52377333D01*
X147619372Y-52510667D01*
X147619372Y-52610667D01*
X147586038Y-52744000D01*
X147552705Y-52810667D01*
X147486038Y-52877333D01*
X147386038Y-52910667D01*
X147219372Y-52910667D01*
X147886038Y-52277333D02*
X147919372Y-52244000D01*
X147986038Y-52210667D01*
X148152705Y-52210667D01*
X148219372Y-52244000D01*
X148252705Y-52277333D01*
X148286038Y-52344000D01*
X148286038Y-52410667D01*
X148252705Y-52510667D01*
X147852705Y-52910667D01*
X148286038Y-52910667D01*
X147219372Y-50370667D02*
X147219372Y-49670667D01*
X147386038Y-49670667D01*
X147486038Y-49704000D01*
X147552705Y-49770667D01*
X147586038Y-49837333D01*
X147619372Y-49970667D01*
X147619372Y-50070667D01*
X147586038Y-50204000D01*
X147552705Y-50270667D01*
X147486038Y-50337333D01*
X147386038Y-50370667D01*
X147219372Y-50370667D01*
X147852705Y-49670667D02*
X148286038Y-49670667D01*
X148052705Y-49937333D01*
X148152705Y-49937333D01*
X148219372Y-49970667D01*
X148252705Y-50004000D01*
X148286038Y-50070667D01*
X148286038Y-50237333D01*
X148252705Y-50304000D01*
X148219372Y-50337333D01*
X148152705Y-50370667D01*
X147952705Y-50370667D01*
X147886038Y-50337333D01*
X147852705Y-50304000D01*
X135260705Y-77944000D02*
X135360705Y-77977333D01*
X135394038Y-78010667D01*
X135427372Y-78077333D01*
X135427372Y-78177333D01*
X135394038Y-78244000D01*
X135360705Y-78277333D01*
X135294038Y-78310667D01*
X135027372Y-78310667D01*
X135027372Y-77610667D01*
X135260705Y-77610667D01*
X135327372Y-77644000D01*
X135360705Y-77677333D01*
X135394038Y-77744000D01*
X135394038Y-77810667D01*
X135360705Y-77877333D01*
X135327372Y-77910667D01*
X135260705Y-77944000D01*
X135027372Y-77944000D01*
X136027372Y-77610667D02*
X135894038Y-77610667D01*
X135827372Y-77644000D01*
X135794038Y-77677333D01*
X135727372Y-77777333D01*
X135694038Y-77910667D01*
X135694038Y-78177333D01*
X135727372Y-78244000D01*
X135760705Y-78277333D01*
X135827372Y-78310667D01*
X135960705Y-78310667D01*
X136027372Y-78277333D01*
X136060705Y-78244000D01*
X136094038Y-78177333D01*
X136094038Y-78010667D01*
X136060705Y-77944000D01*
X136027372Y-77910667D01*
X135960705Y-77877333D01*
X135827372Y-77877333D01*
X135760705Y-77910667D01*
X135727372Y-77944000D01*
X135694038Y-78010667D01*
X135260705Y-75404000D02*
X135360705Y-75437333D01*
X135394038Y-75470667D01*
X135427372Y-75537333D01*
X135427372Y-75637333D01*
X135394038Y-75704000D01*
X135360705Y-75737333D01*
X135294038Y-75770667D01*
X135027372Y-75770667D01*
X135027372Y-75070667D01*
X135260705Y-75070667D01*
X135327372Y-75104000D01*
X135360705Y-75137333D01*
X135394038Y-75204000D01*
X135394038Y-75270667D01*
X135360705Y-75337333D01*
X135327372Y-75370667D01*
X135260705Y-75404000D01*
X135027372Y-75404000D01*
X135694038Y-75137333D02*
X135727372Y-75104000D01*
X135794038Y-75070667D01*
X135960705Y-75070667D01*
X136027372Y-75104000D01*
X136060705Y-75137333D01*
X136094038Y-75204000D01*
X136094038Y-75270667D01*
X136060705Y-75370667D01*
X135660705Y-75770667D01*
X136094038Y-75770667D01*
X135260705Y-72864000D02*
X135360705Y-72897333D01*
X135394038Y-72930667D01*
X135427372Y-72997333D01*
X135427372Y-73097333D01*
X135394038Y-73164000D01*
X135360705Y-73197333D01*
X135294038Y-73230667D01*
X135027372Y-73230667D01*
X135027372Y-72530667D01*
X135260705Y-72530667D01*
X135327372Y-72564000D01*
X135360705Y-72597333D01*
X135394038Y-72664000D01*
X135394038Y-72730667D01*
X135360705Y-72797333D01*
X135327372Y-72830667D01*
X135260705Y-72864000D01*
X135027372Y-72864000D01*
X135660705Y-72530667D02*
X136094038Y-72530667D01*
X135860705Y-72797333D01*
X135960705Y-72797333D01*
X136027372Y-72830667D01*
X136060705Y-72864000D01*
X136094038Y-72930667D01*
X136094038Y-73097333D01*
X136060705Y-73164000D01*
X136027372Y-73197333D01*
X135960705Y-73230667D01*
X135760705Y-73230667D01*
X135694038Y-73197333D01*
X135660705Y-73164000D01*
X135260705Y-70324000D02*
X135360705Y-70357333D01*
X135394038Y-70390667D01*
X135427372Y-70457333D01*
X135427372Y-70557333D01*
X135394038Y-70624000D01*
X135360705Y-70657333D01*
X135294038Y-70690667D01*
X135027372Y-70690667D01*
X135027372Y-69990667D01*
X135260705Y-69990667D01*
X135327372Y-70024000D01*
X135360705Y-70057333D01*
X135394038Y-70124000D01*
X135394038Y-70190667D01*
X135360705Y-70257333D01*
X135327372Y-70290667D01*
X135260705Y-70324000D01*
X135027372Y-70324000D01*
X136094038Y-70690667D02*
X135694038Y-70690667D01*
X135894038Y-70690667D02*
X135894038Y-69990667D01*
X135827372Y-70090667D01*
X135760705Y-70157333D01*
X135694038Y-70190667D01*
X135310705Y-65244000D02*
X135077372Y-65244000D01*
X135077372Y-65610667D02*
X135077372Y-64910667D01*
X135410705Y-64910667D01*
X135977372Y-64910667D02*
X135844038Y-64910667D01*
X135777372Y-64944000D01*
X135744038Y-64977333D01*
X135677372Y-65077333D01*
X135644038Y-65210667D01*
X135644038Y-65477333D01*
X135677372Y-65544000D01*
X135710705Y-65577333D01*
X135777372Y-65610667D01*
X135910705Y-65610667D01*
X135977372Y-65577333D01*
X136010705Y-65544000D01*
X136044038Y-65477333D01*
X136044038Y-65310667D01*
X136010705Y-65244000D01*
X135977372Y-65210667D01*
X135910705Y-65177333D01*
X135777372Y-65177333D01*
X135710705Y-65210667D01*
X135677372Y-65244000D01*
X135644038Y-65310667D01*
X135310705Y-67784000D02*
X135077372Y-67784000D01*
X135077372Y-68150667D02*
X135077372Y-67450667D01*
X135410705Y-67450667D01*
X135610705Y-67450667D02*
X136077372Y-67450667D01*
X135777372Y-68150667D01*
X135310705Y-62704000D02*
X135077372Y-62704000D01*
X135077372Y-63070667D02*
X135077372Y-62370667D01*
X135410705Y-62370667D01*
X136010705Y-62370667D02*
X135677372Y-62370667D01*
X135644038Y-62704000D01*
X135677372Y-62670667D01*
X135744038Y-62637333D01*
X135910705Y-62637333D01*
X135977372Y-62670667D01*
X136010705Y-62704000D01*
X136044038Y-62770667D01*
X136044038Y-62937333D01*
X136010705Y-63004000D01*
X135977372Y-63037333D01*
X135910705Y-63070667D01*
X135744038Y-63070667D01*
X135677372Y-63037333D01*
X135644038Y-63004000D01*
X135310705Y-60164000D02*
X135077372Y-60164000D01*
X135077372Y-60530667D02*
X135077372Y-59830667D01*
X135410705Y-59830667D01*
X135977372Y-60064000D02*
X135977372Y-60530667D01*
X135810705Y-59797333D02*
X135644038Y-60297333D01*
X136077372Y-60297333D01*
X135118705Y-57290667D02*
X135352038Y-57990667D01*
X135585371Y-57290667D01*
X136218705Y-57924000D02*
X136185371Y-57957333D01*
X136085371Y-57990667D01*
X136018705Y-57990667D01*
X135918705Y-57957333D01*
X135852038Y-57890667D01*
X135818705Y-57824000D01*
X135785371Y-57690667D01*
X135785371Y-57590667D01*
X135818705Y-57457333D01*
X135852038Y-57390667D01*
X135918705Y-57324000D01*
X136018705Y-57290667D01*
X136085371Y-57290667D01*
X136185371Y-57324000D01*
X136218705Y-57357333D01*
X136918705Y-57924000D02*
X136885371Y-57957333D01*
X136785371Y-57990667D01*
X136718705Y-57990667D01*
X136618705Y-57957333D01*
X136552038Y-57890667D01*
X136518705Y-57824000D01*
X136485371Y-57690667D01*
X136485371Y-57590667D01*
X136518705Y-57457333D01*
X136552038Y-57390667D01*
X136618705Y-57324000D01*
X136718705Y-57290667D01*
X136785371Y-57290667D01*
X136885371Y-57324000D01*
X136918705Y-57357333D01*
X135668705Y-55450667D02*
X135435371Y-55117333D01*
X135268705Y-55450667D02*
X135268705Y-54750667D01*
X135535371Y-54750667D01*
X135602038Y-54784000D01*
X135635371Y-54817333D01*
X135668705Y-54884000D01*
X135668705Y-54984000D01*
X135635371Y-55050667D01*
X135602038Y-55084000D01*
X135535371Y-55117333D01*
X135268705Y-55117333D01*
X135935371Y-55417333D02*
X136035371Y-55450667D01*
X136202038Y-55450667D01*
X136268705Y-55417333D01*
X136302038Y-55384000D01*
X136335371Y-55317333D01*
X136335371Y-55250667D01*
X136302038Y-55184000D01*
X136268705Y-55150667D01*
X136202038Y-55117333D01*
X136068705Y-55084000D01*
X136002038Y-55050667D01*
X135968705Y-55017333D01*
X135935371Y-54950667D01*
X135935371Y-54884000D01*
X135968705Y-54817333D01*
X136002038Y-54784000D01*
X136068705Y-54750667D01*
X136235371Y-54750667D01*
X136335371Y-54784000D01*
X136535372Y-54750667D02*
X136935372Y-54750667D01*
X136735372Y-55450667D02*
X136735372Y-54750667D01*
X135518705Y-52244000D02*
X135452039Y-52210667D01*
X135352039Y-52210667D01*
X135252039Y-52244000D01*
X135185372Y-52310667D01*
X135152039Y-52377333D01*
X135118705Y-52510667D01*
X135118705Y-52610667D01*
X135152039Y-52744000D01*
X135185372Y-52810667D01*
X135252039Y-52877333D01*
X135352039Y-52910667D01*
X135418705Y-52910667D01*
X135518705Y-52877333D01*
X135552039Y-52844000D01*
X135552039Y-52610667D01*
X135418705Y-52610667D01*
X135852039Y-52910667D02*
X135852039Y-52210667D01*
X136252039Y-52910667D01*
X136252039Y-52210667D01*
X136585372Y-52910667D02*
X136585372Y-52210667D01*
X136752038Y-52210667D01*
X136852038Y-52244000D01*
X136918705Y-52310667D01*
X136952038Y-52377333D01*
X136985372Y-52510667D01*
X136985372Y-52610667D01*
X136952038Y-52744000D01*
X136918705Y-52810667D01*
X136852038Y-52877333D01*
X136752038Y-52910667D01*
X136585372Y-52910667D01*
X136076705Y-50624667D02*
X135843371Y-50291333D01*
X135676705Y-50624667D02*
X135676705Y-49924667D01*
X135943371Y-49924667D01*
X136010038Y-49958000D01*
X136043371Y-49991333D01*
X136076705Y-50058000D01*
X136076705Y-50158000D01*
X136043371Y-50224667D01*
X136010038Y-50258000D01*
X135943371Y-50291333D01*
X135676705Y-50291333D01*
X136343371Y-50424667D02*
X136676705Y-50424667D01*
X136276705Y-50624667D02*
X136510038Y-49924667D01*
X136743371Y-50624667D01*
X136910038Y-49924667D02*
X137076705Y-50624667D01*
X137210038Y-50124667D01*
X137343371Y-50624667D01*
X137510038Y-49924667D01*
D11*
X190919630Y-116847793D02*
X190053605Y-116347793D01*
X191205345Y-116352921D02*
X190496187Y-116438361D01*
X190339320Y-115852921D02*
X190548477Y-116633508D01*
X190612274Y-115570626D02*
X190594844Y-115505577D01*
X190601224Y-115399289D01*
X190720272Y-115193092D01*
X190809130Y-115134423D01*
X190874179Y-115116993D01*
X190980467Y-115123373D01*
X191062946Y-115170992D01*
X191162854Y-115283660D01*
X191372011Y-116064246D01*
X191681535Y-115528135D01*
X191267891Y-114244588D02*
X191029796Y-114656981D01*
X191418379Y-114936316D01*
X191400949Y-114871267D01*
X191407329Y-114764979D01*
X191526377Y-114558782D01*
X191615235Y-114500113D01*
X191680284Y-114482683D01*
X191786573Y-114489063D01*
X191992769Y-114608111D01*
X192051438Y-114696969D01*
X192068868Y-114762018D01*
X192062488Y-114868306D01*
X191943440Y-115074503D01*
X191854582Y-115133172D01*
X191789533Y-115150602D01*
D12*
X92515435Y-55204391D02*
X92443993Y-55183140D01*
X92345512Y-55200505D01*
X92252820Y-55250697D01*
X92198742Y-55327927D01*
X92177492Y-55399369D01*
X92167818Y-55536466D01*
X92185183Y-55634946D01*
X92241163Y-55760465D01*
X92285566Y-55820331D01*
X92362797Y-55874408D01*
X92467066Y-55889871D01*
X92532719Y-55878294D01*
X92625412Y-55828102D01*
X92652451Y-55789487D01*
X92611933Y-55559699D01*
X92480625Y-55582852D01*
X92959470Y-55803047D02*
X92837916Y-55113681D01*
X93353393Y-55733587D01*
X93231839Y-55044222D01*
X93681662Y-55675705D02*
X93560108Y-54986339D01*
X93724242Y-54957398D01*
X93828511Y-54972860D01*
X93905742Y-55026937D01*
X93950145Y-55086802D01*
X94006126Y-55212322D01*
X94023491Y-55310803D01*
X94013816Y-55447899D01*
X93992566Y-55519341D01*
X93938488Y-55596571D01*
X93845796Y-55646763D01*
X93681662Y-55675705D01*
X95280332Y-55393816D02*
X94992660Y-55106064D01*
X94886409Y-55463275D02*
X94764856Y-54773910D01*
X95027470Y-54727604D01*
X95098913Y-54748854D01*
X95137527Y-54775892D01*
X95181932Y-54835758D01*
X95199296Y-54934239D01*
X95178045Y-55005681D01*
X95151007Y-55044296D01*
X95091141Y-55088699D01*
X94828526Y-55135006D01*
X95537159Y-55314683D02*
X95641428Y-55330145D01*
X95805563Y-55301204D01*
X95865429Y-55256800D01*
X95892467Y-55218185D01*
X95913717Y-55146743D01*
X95902141Y-55081089D01*
X95857737Y-55021223D01*
X95819123Y-54994185D01*
X95747680Y-54972934D01*
X95610584Y-54963260D01*
X95539142Y-54942010D01*
X95500527Y-54914971D01*
X95456123Y-54855106D01*
X95444546Y-54789452D01*
X95465797Y-54718010D01*
X95492836Y-54679395D01*
X95552702Y-54634991D01*
X95716836Y-54606050D01*
X95821105Y-54621512D01*
X96012279Y-54553956D02*
X96406202Y-54484496D01*
X96330794Y-55208591D02*
X96209241Y-54519226D01*
X97075966Y-55077197D02*
X96954412Y-54387832D01*
X97271025Y-54839718D01*
X97413989Y-54306796D01*
X97535542Y-54996161D01*
X97873566Y-54225760D02*
X98004873Y-54202607D01*
X98076316Y-54223857D01*
X98153547Y-54277934D01*
X98209526Y-54403454D01*
X98250044Y-54633242D01*
X98240371Y-54770338D01*
X98186293Y-54847568D01*
X98126427Y-54891972D01*
X97995120Y-54915125D01*
X97923677Y-54893874D01*
X97846447Y-54839798D01*
X97790467Y-54714278D01*
X97749949Y-54484490D01*
X97759623Y-54347394D01*
X97813700Y-54270163D01*
X97873566Y-54225760D01*
X98547388Y-54783897D02*
X98651658Y-54799360D01*
X98815792Y-54770419D01*
X98875658Y-54726014D01*
X98902697Y-54687400D01*
X98923947Y-54615957D01*
X98912370Y-54550304D01*
X98867967Y-54490438D01*
X98829352Y-54463400D01*
X98757910Y-54442149D01*
X98620814Y-54432475D01*
X98549372Y-54411225D01*
X98510757Y-54384186D01*
X98466353Y-54324321D01*
X98454776Y-54258667D01*
X98476027Y-54187224D01*
X98503065Y-54148609D01*
X98562931Y-54104206D01*
X98727065Y-54075265D01*
X98831334Y-54090727D01*
X99242543Y-54695171D02*
X99120989Y-54005806D01*
X99768550Y-54568574D02*
X99872819Y-54584037D01*
X100036954Y-54555095D01*
X100096820Y-54510691D01*
X100123859Y-54472076D01*
X100145109Y-54400634D01*
X100133532Y-54334981D01*
X100089129Y-54275115D01*
X100050514Y-54248076D01*
X99979072Y-54226825D01*
X99841976Y-54217152D01*
X99770534Y-54195902D01*
X99731919Y-54168862D01*
X99687515Y-54108998D01*
X99675938Y-54043343D01*
X99697189Y-53971901D01*
X99724227Y-53933286D01*
X99784093Y-53888883D01*
X99948227Y-53859942D01*
X100052496Y-53875403D01*
X100846052Y-54344734D02*
X100819012Y-54383349D01*
X100726320Y-54433542D01*
X100660667Y-54445118D01*
X100556397Y-54429655D01*
X100479167Y-54375579D01*
X100434764Y-54315713D01*
X100378783Y-54190194D01*
X100361418Y-54091713D01*
X100371093Y-53954616D01*
X100392343Y-53883175D01*
X100446420Y-53805944D01*
X100539113Y-53755753D01*
X100604766Y-53744176D01*
X100709035Y-53759638D01*
X100747651Y-53786676D01*
X101153071Y-54358294D02*
X101031517Y-53668928D01*
X101546994Y-54288835D02*
X101182092Y-53947006D01*
X101425440Y-53599469D02*
X101100976Y-54062852D01*
X102121369Y-53476758D02*
X102472711Y-54125606D01*
X102580946Y-53395723D01*
X103314635Y-53909457D02*
X103287596Y-53948072D01*
X103194903Y-53998264D01*
X103129250Y-54009840D01*
X103024981Y-53994378D01*
X102947750Y-53940301D01*
X102903347Y-53880435D01*
X102847366Y-53754916D01*
X102830002Y-53656435D01*
X102839676Y-53519339D01*
X102860926Y-53447897D01*
X102915004Y-53370666D01*
X103007696Y-53320475D01*
X103073350Y-53308898D01*
X103177619Y-53324360D01*
X103216234Y-53351398D01*
X104004000Y-53787903D02*
X103976961Y-53826518D01*
X103884269Y-53876710D01*
X103818615Y-53888287D01*
X103714346Y-53872824D01*
X103637116Y-53818747D01*
X103592713Y-53758881D01*
X103536732Y-53633362D01*
X103519367Y-53534882D01*
X103529041Y-53397785D01*
X103550292Y-53326343D01*
X103604369Y-53249113D01*
X103697062Y-53198921D01*
X103762715Y-53187345D01*
X103866984Y-53202807D01*
X103905600Y-53229845D01*
X104580201Y-53753998D02*
X104458647Y-53064633D01*
X104775260Y-53516519D01*
X104918224Y-52983597D01*
X105039777Y-53672962D01*
X105368047Y-53615079D02*
X105246494Y-52925714D01*
X105657700Y-53530158D02*
X105761969Y-53545620D01*
X105926104Y-53516679D01*
X105985970Y-53472275D01*
X106013009Y-53433660D01*
X106034259Y-53362217D01*
X106022682Y-53296564D01*
X105978279Y-53236698D01*
X105939664Y-53209660D01*
X105868222Y-53188409D01*
X105731126Y-53178735D01*
X105659684Y-53157485D01*
X105621069Y-53130446D01*
X105576665Y-53070581D01*
X105565088Y-53004927D01*
X105586339Y-52933484D01*
X105613377Y-52894870D01*
X105673243Y-52850466D01*
X105837377Y-52821525D01*
X105941646Y-52836987D01*
X106362609Y-52728913D02*
X106493916Y-52705760D01*
X106565358Y-52727010D01*
X106642589Y-52781087D01*
X106698569Y-52906606D01*
X106739087Y-53136395D01*
X106729413Y-53273491D01*
X106675336Y-53350721D01*
X106615470Y-53395125D01*
X106484162Y-53418278D01*
X106412720Y-53397027D01*
X106335490Y-53342950D01*
X106279509Y-53217430D01*
X106238992Y-52987642D01*
X106248666Y-52850547D01*
X106302743Y-52773316D01*
X106362609Y-52728913D01*
X179777094Y-52702381D02*
X179443760Y-52226190D01*
X179205665Y-52702381D02*
X179205665Y-51702381D01*
X179586618Y-51702381D01*
X179681856Y-51750000D01*
X179729475Y-51797619D01*
X179777094Y-51892857D01*
X179777094Y-52035714D01*
X179729475Y-52130952D01*
X179681856Y-52178571D01*
X179586618Y-52226190D01*
X179205665Y-52226190D01*
X180729475Y-52702381D02*
X180158046Y-52702381D01*
X180443760Y-52702381D02*
X180443760Y-51702381D01*
X180348522Y-51845238D01*
X180253284Y-51940476D01*
X180158046Y-51988095D01*
X179583334Y-49452381D02*
X179250000Y-48976190D01*
X179011905Y-49452381D02*
X179011905Y-48452381D01*
X179392858Y-48452381D01*
X179488096Y-48500000D01*
X179535715Y-48547619D01*
X179583334Y-48642857D01*
X179583334Y-48785714D01*
X179535715Y-48880952D01*
X179488096Y-48928571D01*
X179392858Y-48976190D01*
X179011905Y-48976190D01*
X179964286Y-48547619D02*
X180011905Y-48500000D01*
X180107143Y-48452381D01*
X180345239Y-48452381D01*
X180440477Y-48500000D01*
X180488096Y-48547619D01*
X180535715Y-48642857D01*
X180535715Y-48738095D01*
X180488096Y-48880952D01*
X179916667Y-49452381D01*
X180535715Y-49452381D01*
X165298381Y-53486333D02*
X166012667Y-53486333D01*
X166155524Y-53533953D01*
X166250762Y-53629191D01*
X166298381Y-53772048D01*
X166298381Y-53867286D01*
X166298381Y-52486333D02*
X166298381Y-53057762D01*
X166298381Y-52772048D02*
X165298381Y-52772048D01*
X165441238Y-52867286D01*
X165536476Y-52962524D01*
X165584095Y-53057762D01*
M02*
