G04 #@! TF.FileFunction,Profile,NP*
%FSLAX46Y46*%
G04 Gerber Fmt 4.6, Leading zero omitted, Abs format (unit mm)*
G04 Created by KiCad (PCBNEW 4.0.7) date 04/12/18 00:57:27*
%MOMM*%
%LPD*%
G01*
G04 APERTURE LIST*
%ADD10C,0.100000*%
%ADD11C,0.150000*%
G04 APERTURE END LIST*
D10*
D11*
X212725000Y-107315000D02*
G75*
G03X212090000Y-105410000I-1270000J635000D01*
G01*
X191620097Y-138579903D02*
G75*
G03X194945000Y-137795000I1419903J1419903D01*
G01*
X74930000Y-127635000D02*
G75*
G03X78105000Y-130810000I3175000J0D01*
G01*
X75565000Y-53340000D02*
G75*
G03X74930000Y-53975000I0J-635000D01*
G01*
X208218344Y-48907331D02*
G75*
G03X205105000Y-46355000I-3113344J-622669D01*
G01*
X74930000Y-53340000D02*
X74930000Y-130810000D01*
X116205000Y-46355000D02*
X74930000Y-53340000D01*
X132080000Y-46355000D02*
X116205000Y-46355000D01*
X208280000Y-46355000D02*
X132080000Y-46355000D01*
X208280000Y-95250000D02*
X208280000Y-46355000D01*
X208280000Y-102870000D02*
X208280000Y-95250000D01*
X213360000Y-106045000D02*
X208280000Y-102870000D01*
X193675000Y-139700000D02*
X213360000Y-106045000D01*
X178435000Y-130810000D02*
X193675000Y-139700000D01*
X156210000Y-130810000D02*
X178435000Y-130810000D01*
X134620000Y-130810000D02*
X156210000Y-130810000D01*
X99060000Y-130810000D02*
X134620000Y-130810000D01*
X74930000Y-130810000D02*
X99060000Y-130810000D01*
X208280000Y-55880000D02*
X208280000Y-58420000D01*
X208280000Y-57150000D02*
X208280000Y-55880000D01*
M02*
