G04 #@! TF.FileFunction,Copper,L1,Top,Signal*
%FSLAX46Y46*%
G04 Gerber Fmt 4.6, Leading zero omitted, Abs format (unit mm)*
G04 Created by KiCad (PCBNEW 4.0.7) date 03/05/18 20:51:52*
%MOMM*%
%LPD*%
G01*
G04 APERTURE LIST*
%ADD10C,0.100000*%
%ADD11R,1.200000X1.200000*%
%ADD12R,1.600000X1.600000*%
%ADD13C,1.600000*%
%ADD14R,0.500000X2.500000*%
%ADD15R,2.500000X0.500000*%
%ADD16R,1.700000X1.700000*%
%ADD17O,1.700000X1.700000*%
%ADD18R,2.500000X1.200000*%
%ADD19C,2.500000*%
%ADD20R,1.998980X1.998980*%
%ADD21R,1.800000X1.100000*%
%ADD22R,1.752600X1.752600*%
%ADD23C,1.752600*%
%ADD24C,0.600000*%
%ADD25C,0.250000*%
%ADD26C,0.500000*%
G04 APERTURE END LIST*
D10*
D11*
X93345000Y-63195000D03*
X93345000Y-66345000D03*
D12*
X93345000Y-68670000D03*
D13*
X93345000Y-60870000D03*
D14*
X93345000Y-67470000D03*
X93345000Y-62070000D03*
D11*
X93980000Y-82245000D03*
X93980000Y-85395000D03*
D12*
X93980000Y-87720000D03*
D13*
X93980000Y-79920000D03*
D14*
X93980000Y-86520000D03*
X93980000Y-81120000D03*
D11*
X93980000Y-101295000D03*
X93980000Y-104445000D03*
D12*
X93980000Y-106770000D03*
D13*
X93980000Y-98970000D03*
D14*
X93980000Y-105570000D03*
X93980000Y-100170000D03*
D11*
X93345000Y-120040000D03*
X93345000Y-123190000D03*
D12*
X93345000Y-125515000D03*
D13*
X93345000Y-117715000D03*
D14*
X93345000Y-124315000D03*
X93345000Y-118915000D03*
D11*
X113030000Y-60655000D03*
X113030000Y-63805000D03*
D12*
X113030000Y-66130000D03*
D13*
X113030000Y-58330000D03*
D14*
X113030000Y-64930000D03*
X113030000Y-59530000D03*
D11*
X113030000Y-80180000D03*
X113030000Y-83330000D03*
D12*
X113030000Y-85655000D03*
D13*
X113030000Y-77855000D03*
D14*
X113030000Y-84455000D03*
X113030000Y-79055000D03*
D11*
X113030000Y-99060000D03*
X113030000Y-102210000D03*
D12*
X113030000Y-104535000D03*
D13*
X113030000Y-96735000D03*
D14*
X113030000Y-103335000D03*
X113030000Y-97935000D03*
D11*
X113030000Y-117805000D03*
X113030000Y-120955000D03*
D12*
X113030000Y-123280000D03*
D13*
X113030000Y-115480000D03*
D14*
X113030000Y-122080000D03*
X113030000Y-116680000D03*
D11*
X130810000Y-58445000D03*
X130810000Y-61595000D03*
D12*
X130810000Y-63920000D03*
D13*
X130810000Y-56120000D03*
D14*
X130810000Y-62720000D03*
X130810000Y-57320000D03*
D11*
X131445000Y-82245000D03*
X131445000Y-85395000D03*
D12*
X131445000Y-87720000D03*
D13*
X131445000Y-79920000D03*
D14*
X131445000Y-86520000D03*
X131445000Y-81120000D03*
D11*
X132080000Y-96215000D03*
X132080000Y-99365000D03*
D12*
X132080000Y-101690000D03*
D13*
X132080000Y-93890000D03*
D14*
X132080000Y-100490000D03*
X132080000Y-95090000D03*
D11*
X132080000Y-115570000D03*
X132080000Y-118720000D03*
D12*
X132080000Y-121045000D03*
D13*
X132080000Y-113245000D03*
D14*
X132080000Y-119845000D03*
X132080000Y-114445000D03*
D11*
X144120000Y-66040000D03*
X140970000Y-66040000D03*
D12*
X138645000Y-66040000D03*
D13*
X146445000Y-66040000D03*
D15*
X139845000Y-66040000D03*
X145245000Y-66040000D03*
D11*
X151130000Y-81940000D03*
X151130000Y-85090000D03*
D12*
X151130000Y-87415000D03*
D13*
X151130000Y-79615000D03*
D14*
X151130000Y-86215000D03*
X151130000Y-80815000D03*
D11*
X151130000Y-94310000D03*
X151130000Y-97460000D03*
D12*
X151130000Y-99785000D03*
D13*
X151130000Y-91985000D03*
D14*
X151130000Y-98585000D03*
X151130000Y-93185000D03*
D11*
X151130000Y-113030000D03*
X151130000Y-116180000D03*
D12*
X151130000Y-118505000D03*
D13*
X151130000Y-110705000D03*
D14*
X151130000Y-117305000D03*
X151130000Y-111905000D03*
D11*
X170180000Y-58420000D03*
X170180000Y-61570000D03*
D12*
X170180000Y-63895000D03*
D13*
X170180000Y-56095000D03*
D14*
X170180000Y-62695000D03*
X170180000Y-57295000D03*
D11*
X170180000Y-77800000D03*
X170180000Y-80950000D03*
D12*
X170180000Y-83275000D03*
D13*
X170180000Y-75475000D03*
D14*
X170180000Y-82075000D03*
X170180000Y-76675000D03*
D11*
X170180000Y-96305000D03*
X170180000Y-99455000D03*
D12*
X170180000Y-101780000D03*
D13*
X170180000Y-93980000D03*
D14*
X170180000Y-100580000D03*
X170180000Y-95180000D03*
D11*
X179070000Y-114540000D03*
X179070000Y-117690000D03*
D12*
X179070000Y-120015000D03*
D13*
X179070000Y-112215000D03*
D14*
X179070000Y-118815000D03*
X179070000Y-113415000D03*
D11*
X189230000Y-60815000D03*
X189230000Y-63965000D03*
D12*
X189230000Y-66290000D03*
D13*
X189230000Y-58490000D03*
D14*
X189230000Y-65090000D03*
X189230000Y-59690000D03*
D11*
X189230000Y-79705000D03*
X189230000Y-82855000D03*
D12*
X189230000Y-85180000D03*
D13*
X189230000Y-77380000D03*
D14*
X189230000Y-83980000D03*
X189230000Y-78580000D03*
D11*
X189230000Y-97960000D03*
X189230000Y-101110000D03*
D12*
X189230000Y-103435000D03*
D13*
X189230000Y-95635000D03*
D14*
X189230000Y-102235000D03*
X189230000Y-96835000D03*
D11*
X182880000Y-114325000D03*
X182880000Y-117475000D03*
D12*
X182880000Y-119800000D03*
D13*
X182880000Y-112000000D03*
D14*
X182880000Y-118600000D03*
X182880000Y-113200000D03*
D11*
X201125000Y-76200000D03*
X197975000Y-76200000D03*
D12*
X195650000Y-76200000D03*
D13*
X203450000Y-76200000D03*
D15*
X196850000Y-76200000D03*
X202250000Y-76200000D03*
D11*
X202325000Y-93980000D03*
X199175000Y-93980000D03*
D12*
X196850000Y-93980000D03*
D13*
X204650000Y-93980000D03*
D15*
X198050000Y-93980000D03*
X203450000Y-93980000D03*
D11*
X202235000Y-96520000D03*
X199085000Y-96520000D03*
D12*
X196760000Y-96520000D03*
D13*
X204560000Y-96520000D03*
D15*
X197960000Y-96520000D03*
X203360000Y-96520000D03*
D16*
X125287224Y-48999773D03*
D17*
X122747224Y-48999773D03*
X120207224Y-48999773D03*
D18*
X192330000Y-57325000D03*
X198830000Y-56225000D03*
X198830000Y-52225000D03*
X198830000Y-49225000D03*
D19*
X81904564Y-58864484D02*
X81944012Y-59443140D01*
X87443835Y-59943858D02*
X88254741Y-61403766D01*
X81444741Y-59943858D02*
X80633835Y-61403766D01*
X86984012Y-58864484D02*
X86944564Y-59443140D01*
X81885160Y-77976182D02*
X81924608Y-78554838D01*
X87424431Y-79055556D02*
X88235337Y-80515464D01*
X81425337Y-79055556D02*
X80614431Y-80515464D01*
X86964608Y-77976182D02*
X86925160Y-78554838D01*
X81885160Y-97028342D02*
X81924608Y-97606998D01*
X87424431Y-98107716D02*
X88235337Y-99567624D01*
X81425337Y-98107716D02*
X80614431Y-99567624D01*
X86964608Y-97028342D02*
X86925160Y-97606998D01*
X81885160Y-116020964D02*
X81924608Y-116599620D01*
X87424431Y-117100338D02*
X88235337Y-118560246D01*
X81425337Y-117100338D02*
X80614431Y-118560246D01*
X86964608Y-116020964D02*
X86925160Y-116599620D01*
X100996858Y-56542502D02*
X101036306Y-57121158D01*
X106536129Y-57621876D02*
X107347035Y-59081784D01*
X100537035Y-57621876D02*
X99726129Y-59081784D01*
X106076306Y-56542502D02*
X106036858Y-57121158D01*
X100996858Y-75654200D02*
X101036306Y-76232856D01*
X106536129Y-76733574D02*
X107347035Y-78193482D01*
X100537035Y-76733574D02*
X99726129Y-78193482D01*
X106076306Y-75654200D02*
X106036858Y-76232856D01*
X100996858Y-94587284D02*
X101036306Y-95165940D01*
X106536129Y-95666658D02*
X107347035Y-97126566D01*
X100537035Y-95666658D02*
X99726129Y-97126566D01*
X106076306Y-94587284D02*
X106036858Y-95165940D01*
X100937320Y-113698982D02*
X100976768Y-114277638D01*
X106476591Y-114778356D02*
X107287497Y-116238264D01*
X100477497Y-114778356D02*
X99666591Y-116238264D01*
X106016768Y-113698982D02*
X105977320Y-114277638D01*
X119989480Y-54041906D02*
X120028928Y-54620562D01*
X125528751Y-55121280D02*
X126339657Y-56581188D01*
X119529657Y-55121280D02*
X118718751Y-56581188D01*
X125068928Y-54041906D02*
X125029480Y-54620562D01*
X119989480Y-73213142D02*
X120028928Y-73791798D01*
X125528751Y-74292516D02*
X126339657Y-75752424D01*
X119529657Y-74292516D02*
X118718751Y-75752424D01*
X125068928Y-73213142D02*
X125029480Y-73791798D01*
X119929942Y-92205764D02*
X119969390Y-92784420D01*
X125469213Y-93285138D02*
X126280119Y-94745046D01*
X119470119Y-93285138D02*
X118659213Y-94745046D01*
X125009390Y-92205764D02*
X124969942Y-92784420D01*
X120029748Y-111317462D02*
X120069196Y-111896118D01*
X125569019Y-112396836D02*
X126379925Y-113856744D01*
X119569925Y-112396836D02*
X118759019Y-113856744D01*
X125109196Y-111317462D02*
X125069748Y-111896118D01*
X139120448Y-51719924D02*
X139159896Y-52298580D01*
X144659719Y-52799298D02*
X145470625Y-54259206D01*
X138660625Y-52799298D02*
X137849719Y-54259206D01*
X144199896Y-51719924D02*
X144160448Y-52298580D01*
X139081908Y-70772084D02*
X139121356Y-71350740D01*
X144621179Y-71851458D02*
X145432085Y-73311366D01*
X138622085Y-71851458D02*
X137811179Y-73311366D01*
X144161356Y-70772084D02*
X144121908Y-71350740D01*
X139101178Y-89883782D02*
X139140626Y-90462438D01*
X144640449Y-90963156D02*
X145451355Y-92423064D01*
X138641355Y-90963156D02*
X137830449Y-92423064D01*
X144180626Y-89883782D02*
X144141178Y-90462438D01*
X139041640Y-108935942D02*
X139081088Y-109514598D01*
X144580911Y-110015316D02*
X145391817Y-111475224D01*
X138581817Y-110015316D02*
X137770911Y-111475224D01*
X144121088Y-108935942D02*
X144081640Y-109514598D01*
X158093800Y-54101444D02*
X158133248Y-54680100D01*
X163633071Y-55180818D02*
X164443977Y-56640726D01*
X157633977Y-55180818D02*
X156823071Y-56640726D01*
X163173248Y-54101444D02*
X163133800Y-54680100D01*
X158093800Y-73213142D02*
X158133248Y-73791798D01*
X163633071Y-74292516D02*
X164443977Y-75752424D01*
X157633977Y-74292516D02*
X156823071Y-75752424D01*
X163173248Y-73213142D02*
X163133800Y-73791798D01*
X158093800Y-92205764D02*
X158133248Y-92784420D01*
X163633071Y-93285138D02*
X164443977Y-94745046D01*
X157633977Y-93285138D02*
X156823071Y-94745046D01*
X163173248Y-92205764D02*
X163133800Y-92784420D01*
X165623118Y-112977901D02*
X165561484Y-113554617D01*
X170890804Y-115002763D02*
X171435880Y-116581303D01*
X164982850Y-113961031D02*
X163930752Y-115257947D01*
X170625398Y-113859938D02*
X170486066Y-114422954D01*
X177145960Y-56482964D02*
X177185408Y-57061620D01*
X182685231Y-57562338D02*
X183496137Y-59022246D01*
X176686137Y-57562338D02*
X175875231Y-59022246D01*
X182225408Y-56482964D02*
X182185960Y-57061620D01*
X177205498Y-75594662D02*
X177244946Y-76173318D01*
X182744769Y-76674036D02*
X183555675Y-78133944D01*
X176745675Y-76674036D02*
X175934769Y-78133944D01*
X182284946Y-75594662D02*
X182245498Y-76173318D01*
X177145960Y-94587284D02*
X177185408Y-95165940D01*
X182685231Y-95666658D02*
X183496137Y-97126566D01*
X176686137Y-95666658D02*
X175875231Y-97126566D01*
X182225408Y-94587284D02*
X182185960Y-95165940D01*
X184733834Y-125880362D02*
X185254690Y-126135526D01*
X188438236Y-121622900D02*
X190108006Y-121650588D01*
X185438689Y-126818266D02*
X186297553Y-128250486D01*
X187273558Y-121481430D02*
X187754966Y-121804922D01*
X196238254Y-61213426D02*
X196277702Y-61792082D01*
X201777525Y-62292800D02*
X202588431Y-63752708D01*
X195778431Y-62292800D02*
X194967525Y-63752708D01*
X201317702Y-61213426D02*
X201278254Y-61792082D01*
X196198120Y-80298164D02*
X196237568Y-80876820D01*
X201737391Y-81377538D02*
X202548297Y-82837446D01*
X195738297Y-81377538D02*
X194927391Y-82837446D01*
X201277568Y-80298164D02*
X201238120Y-80876820D01*
X194299318Y-109335201D02*
X194820174Y-109590365D01*
X198003720Y-105077739D02*
X199673490Y-105105427D01*
X195004173Y-110273105D02*
X195863037Y-111705325D01*
X196839042Y-104936269D02*
X197320450Y-105259761D01*
D10*
G36*
X163974780Y-48331120D02*
X163974780Y-50728880D01*
X161175700Y-50330100D01*
X161175700Y-48729900D01*
X163974780Y-48331120D01*
X163974780Y-48331120D01*
G37*
G36*
X157177740Y-50728880D02*
X157177740Y-48331120D01*
X159976820Y-48729900D01*
X159976820Y-50330100D01*
X157177740Y-50728880D01*
X157177740Y-50728880D01*
G37*
D20*
X165577520Y-49530000D03*
X155575000Y-49530000D03*
D10*
G36*
X176400460Y-50728880D02*
X176400460Y-48331120D01*
X179199540Y-48729900D01*
X179199540Y-50330100D01*
X176400460Y-50728880D01*
X176400460Y-50728880D01*
G37*
G36*
X183197500Y-48331120D02*
X183197500Y-50728880D01*
X180398420Y-50330100D01*
X180398420Y-48729900D01*
X183197500Y-48331120D01*
X183197500Y-48331120D01*
G37*
D20*
X174797720Y-49530000D03*
X184800240Y-49530000D03*
D21*
X116130000Y-53920000D03*
X109930000Y-53920000D03*
X116130000Y-50220000D03*
X109930000Y-50220000D03*
D22*
X134020038Y-48604870D03*
D23*
X134020038Y-51144870D03*
X134020038Y-53684870D03*
X134020038Y-56224870D03*
X134020038Y-58764870D03*
X134020038Y-61304870D03*
X134020038Y-63844870D03*
X134020038Y-66384870D03*
X134020038Y-68924870D03*
X134020038Y-71464870D03*
X134020038Y-74004870D03*
X134020038Y-76544870D03*
X149260038Y-76544870D03*
X149260038Y-74004870D03*
X149260038Y-71464870D03*
X149260038Y-68924870D03*
X149260038Y-66384870D03*
X149260038Y-63844870D03*
X149260038Y-61304870D03*
X149260038Y-58764870D03*
X149260038Y-56224870D03*
X149260038Y-53684870D03*
X149260038Y-51144870D03*
X149260038Y-48604870D03*
D19*
X200854388Y-118219035D02*
X200333532Y-117963871D01*
X197149986Y-122476497D02*
X195480216Y-122448809D01*
X200149533Y-117281131D02*
X199290669Y-115848911D01*
X198314664Y-122617967D02*
X197833256Y-122294475D01*
D24*
X153670000Y-98425000D03*
X152400000Y-89535000D03*
X195580000Y-56515000D03*
X195580000Y-52070000D03*
X195580000Y-57785000D03*
X195580000Y-50165000D03*
X130810000Y-65405000D03*
X138430000Y-76835000D03*
X158750000Y-86360000D03*
X170180000Y-87630000D03*
X191135000Y-93345000D03*
X113030000Y-53920000D03*
X113030000Y-53920000D03*
D25*
X97065000Y-87720000D02*
X97155000Y-87630000D01*
X149260038Y-66384870D02*
X147699908Y-67945000D01*
X147699908Y-67945000D02*
X141600000Y-67945000D01*
X139695000Y-66040000D02*
X138645000Y-66040000D01*
X141600000Y-67945000D02*
X139695000Y-66040000D01*
X130595000Y-64135000D02*
X130810000Y-63920000D01*
X113030000Y-67180000D02*
X113030000Y-66130000D01*
X87849288Y-60673812D02*
X93148812Y-60673812D01*
X93148812Y-60673812D02*
X93345000Y-60870000D01*
X149260038Y-68924870D02*
X144145000Y-68924870D01*
X141605000Y-69850000D02*
X142530130Y-68924870D01*
X144145000Y-68924870D02*
X143781492Y-68924870D01*
X142530130Y-68924870D02*
X144145000Y-68924870D01*
X141605000Y-72390000D02*
X141605000Y-69850000D01*
X140508559Y-73486441D02*
X141605000Y-72390000D01*
X140508559Y-73624819D02*
X140508559Y-73486441D01*
X132370001Y-85744999D02*
X131445000Y-86670000D01*
X131445000Y-86670000D02*
X131445000Y-87720000D01*
X140508559Y-73624819D02*
X132370001Y-81763377D01*
X132370001Y-81763377D02*
X132370001Y-85744999D01*
X113030000Y-86705000D02*
X113030000Y-85655000D01*
X87829884Y-79785510D02*
X93845510Y-79785510D01*
X93845510Y-79785510D02*
X93980000Y-79920000D01*
X149260038Y-71464870D02*
X153670000Y-75874832D01*
X153670000Y-75874832D02*
X153670000Y-96195000D01*
X153670000Y-96195000D02*
X151130000Y-98735000D01*
X151130000Y-98735000D02*
X151130000Y-99785000D01*
X113030000Y-105585000D02*
X113030000Y-104535000D01*
X87829884Y-98837670D02*
X93847670Y-98837670D01*
X93847670Y-98837670D02*
X93980000Y-98970000D01*
X179070000Y-120015000D02*
X182665000Y-120015000D01*
X182665000Y-120015000D02*
X182880000Y-119800000D01*
X153670000Y-98425000D02*
X153670000Y-117015000D01*
X153670000Y-117015000D02*
X152180000Y-118505000D01*
X152180000Y-118505000D02*
X151130000Y-118505000D01*
X149260038Y-74004870D02*
X152400000Y-77144832D01*
X152400000Y-77144832D02*
X152400000Y-77906906D01*
X152400000Y-77906906D02*
X152400000Y-89535000D01*
X132080000Y-121045000D02*
X149640000Y-121045000D01*
X149640000Y-121045000D02*
X151130000Y-119555000D01*
X151130000Y-119555000D02*
X151130000Y-118505000D01*
X113030000Y-123280000D02*
X130895000Y-123280000D01*
X130895000Y-123280000D02*
X132080000Y-122095000D01*
X132080000Y-122095000D02*
X132080000Y-121045000D01*
X93345000Y-125515000D02*
X111845000Y-125515000D01*
X111845000Y-125515000D02*
X113030000Y-124330000D01*
X113030000Y-124330000D02*
X113030000Y-123280000D01*
X87829884Y-117830292D02*
X93229708Y-117830292D01*
X93229708Y-117830292D02*
X93345000Y-117715000D01*
X106941582Y-58351830D02*
X113008170Y-58351830D01*
X113008170Y-58351830D02*
X113030000Y-58330000D01*
X106941582Y-77463528D02*
X112638528Y-77463528D01*
X112638528Y-77463528D02*
X113030000Y-77855000D01*
X106941582Y-96396612D02*
X112691612Y-96396612D01*
X112691612Y-96396612D02*
X113030000Y-96735000D01*
X106882044Y-115508310D02*
X113001690Y-115508310D01*
X113001690Y-115508310D02*
X113030000Y-115480000D01*
X125934204Y-55851234D02*
X130541234Y-55851234D01*
X130541234Y-55851234D02*
X130810000Y-56120000D01*
X125934204Y-75022470D02*
X127438393Y-76526659D01*
X127438393Y-76526659D02*
X128051659Y-76526659D01*
X128051659Y-76526659D02*
X130645001Y-79120001D01*
X130645001Y-79120001D02*
X131445000Y-79920000D01*
X125874666Y-94015092D02*
X131954908Y-94015092D01*
X131954908Y-94015092D02*
X132080000Y-93890000D01*
X125974472Y-113126790D02*
X131961790Y-113126790D01*
X131961790Y-113126790D02*
X132080000Y-113245000D01*
X145065172Y-53529252D02*
X145065172Y-64660172D01*
X145065172Y-64660172D02*
X146445000Y-66040000D01*
X145026632Y-72581412D02*
X145026632Y-75916746D01*
X145026632Y-75916746D02*
X148724886Y-79615000D01*
X148724886Y-79615000D02*
X149998630Y-79615000D01*
X149998630Y-79615000D02*
X151130000Y-79615000D01*
X151130000Y-91985000D02*
X145337792Y-91985000D01*
X145337792Y-91985000D02*
X145045902Y-91693110D01*
X150838110Y-91693110D02*
X151130000Y-91985000D01*
X144986364Y-110745270D02*
X151089730Y-110745270D01*
X151089730Y-110745270D02*
X151130000Y-110705000D01*
X164038524Y-55910772D02*
X169995772Y-55910772D01*
X169995772Y-55910772D02*
X170180000Y-56095000D01*
X164038524Y-75022470D02*
X169727470Y-75022470D01*
X169727470Y-75022470D02*
X170180000Y-75475000D01*
X164038524Y-94015092D02*
X170144908Y-94015092D01*
X170144908Y-94015092D02*
X170180000Y-93980000D01*
X183090684Y-58292292D02*
X189032292Y-58292292D01*
X189032292Y-58292292D02*
X189230000Y-58490000D01*
X182205684Y-56772292D02*
X182205684Y-57407292D01*
X182205684Y-57407292D02*
X183090684Y-58292292D01*
X183150222Y-77403990D02*
X189206010Y-77403990D01*
X189206010Y-77403990D02*
X189230000Y-77380000D01*
X183090684Y-96396612D02*
X188468388Y-96396612D01*
X188468388Y-96396612D02*
X189230000Y-95635000D01*
X189273121Y-121636744D02*
X187997519Y-120361142D01*
X187997519Y-120361142D02*
X187997519Y-117117519D01*
X187997519Y-117117519D02*
X185205000Y-114325000D01*
X185205000Y-114325000D02*
X183730000Y-114325000D01*
X183730000Y-114325000D02*
X182880000Y-114325000D01*
X202182978Y-63022754D02*
X202182978Y-74932978D01*
X202182978Y-74932978D02*
X203450000Y-76200000D01*
X202142844Y-82107492D02*
X202142844Y-91472844D01*
X202142844Y-91472844D02*
X204650000Y-93980000D01*
X198838605Y-105091583D02*
X204560000Y-99370188D01*
X204560000Y-99370188D02*
X204560000Y-96520000D01*
X165577520Y-49530000D02*
X166827010Y-49530000D01*
X166827010Y-49530000D02*
X174797720Y-49530000D01*
X162575240Y-49530000D02*
X165577520Y-49530000D01*
X174797720Y-49530000D02*
X177800000Y-49530000D01*
X197140000Y-56225000D02*
X196850000Y-56515000D01*
X196850000Y-56515000D02*
X195580000Y-56515000D01*
X198830000Y-56225000D02*
X197140000Y-56225000D01*
X122747224Y-48999773D02*
X123922225Y-50174774D01*
X123922225Y-50174774D02*
X133212208Y-50174774D01*
X133212208Y-50174774D02*
X133443413Y-49943569D01*
X133443413Y-49943569D02*
X147921339Y-49943569D01*
X147921339Y-49943569D02*
X148383739Y-49481169D01*
X148383739Y-49481169D02*
X149260038Y-48604870D01*
X195580000Y-52070000D02*
X198675000Y-52070000D01*
X198675000Y-52070000D02*
X198830000Y-52225000D01*
X155575000Y-49530000D02*
X158577280Y-49530000D01*
X151765000Y-51435000D02*
X153670000Y-49530000D01*
X153670000Y-49530000D02*
X155575000Y-49530000D01*
X151765000Y-56259908D02*
X151765000Y-51435000D01*
X149260038Y-58764870D02*
X151765000Y-56259908D01*
X195580000Y-57785000D02*
X192790000Y-57785000D01*
X192790000Y-57785000D02*
X192330000Y-57325000D01*
X181797960Y-49530000D02*
X184800240Y-49530000D01*
X153035000Y-52070000D02*
X179257960Y-52070000D01*
X179257960Y-52070000D02*
X181797960Y-49530000D01*
X153035000Y-57529908D02*
X153035000Y-52070000D01*
X149260038Y-61304870D02*
X153035000Y-57529908D01*
X184800240Y-49530000D02*
X194945000Y-49530000D01*
X194945000Y-49530000D02*
X195580000Y-50165000D01*
X198830000Y-49225000D02*
X196520000Y-49225000D01*
X196520000Y-49225000D02*
X195580000Y-50165000D01*
X81019884Y-98837670D02*
X81019884Y-117830292D01*
X81019884Y-79785510D02*
X81019884Y-98837670D01*
X81039288Y-60673812D02*
X81039288Y-79766106D01*
X81039288Y-79766106D02*
X81019884Y-79785510D01*
X100131582Y-77463528D02*
X100131582Y-93991612D01*
X100131582Y-93991612D02*
X101016582Y-94876612D01*
X130810000Y-65405000D02*
X132459908Y-65405000D01*
X132459908Y-65405000D02*
X134020038Y-63844870D01*
X100072044Y-115508310D02*
X100072044Y-96456150D01*
X100072044Y-96456150D02*
X100131582Y-96396612D01*
X100131582Y-58351830D02*
X100131582Y-77463528D01*
X119124204Y-55851234D02*
X119124204Y-66675000D01*
X119124204Y-66675000D02*
X119124204Y-75022470D01*
X134020038Y-66384870D02*
X119414334Y-66384870D01*
X119414334Y-66384870D02*
X119124204Y-66675000D01*
X119064666Y-94015092D02*
X119064666Y-75082008D01*
X119064666Y-75082008D02*
X119124204Y-75022470D01*
X119164472Y-113126790D02*
X119164472Y-94114898D01*
X119164472Y-94114898D02*
X119064666Y-94015092D01*
X138430000Y-76835000D02*
X138430000Y-91499012D01*
X138430000Y-91499012D02*
X138235902Y-91693110D01*
X134020038Y-68924870D02*
X137676580Y-72581412D01*
X137676580Y-72581412D02*
X138216632Y-72581412D01*
X138235902Y-91693110D02*
X138235902Y-110685732D01*
X138235902Y-110685732D02*
X138176364Y-110745270D01*
X138255172Y-53529252D02*
X138255172Y-56864586D01*
X138255172Y-56864586D02*
X137226648Y-57893110D01*
X137226648Y-57893110D02*
X137226648Y-71591428D01*
X137226648Y-71591428D02*
X138216632Y-72581412D01*
X157228524Y-94015092D02*
X157228524Y-107381212D01*
X157228524Y-107381212D02*
X163497421Y-113650109D01*
X163497421Y-113650109D02*
X164456801Y-114609489D01*
X157228524Y-55910772D02*
X157228524Y-75022470D01*
X157228524Y-75022470D02*
X157228524Y-94015092D01*
X185868121Y-127534376D02*
X188284366Y-127534376D01*
X191515597Y-128539461D02*
X196261141Y-123793917D01*
X188284366Y-127534376D02*
X189289451Y-128539461D01*
X189289451Y-128539461D02*
X191515597Y-128539461D01*
X196261141Y-123793917D02*
X196261141Y-122462653D01*
X176280684Y-96396612D02*
X176280684Y-121734948D01*
X176280684Y-121734948D02*
X182080112Y-127534376D01*
X182080112Y-127534376D02*
X184310593Y-127534376D01*
X184310593Y-127534376D02*
X185868121Y-127534376D01*
X176340222Y-77403990D02*
X176340222Y-96337074D01*
X176340222Y-96337074D02*
X176280684Y-96396612D01*
X176280684Y-58292292D02*
X176280684Y-77344452D01*
X176280684Y-77344452D02*
X176340222Y-77403990D01*
X170180000Y-87630000D02*
X160020000Y-87630000D01*
X160020000Y-87630000D02*
X158750000Y-86360000D01*
X191135000Y-93345000D02*
X191135000Y-106038037D01*
X191135000Y-106038037D02*
X194559746Y-109462783D01*
X195332844Y-89147156D02*
X191135000Y-93345000D01*
X195332844Y-82107492D02*
X195332844Y-89147156D01*
X195372978Y-63022754D02*
X195372978Y-66358088D01*
X195372978Y-66358088D02*
X194342860Y-67388206D01*
X194342860Y-67388206D02*
X194342860Y-81117508D01*
X194342860Y-81117508D02*
X195332844Y-82107492D01*
X116130000Y-53920000D02*
X116130000Y-53120000D01*
X116130000Y-53120000D02*
X117815000Y-51435000D01*
X117815000Y-51435000D02*
X131770168Y-51435000D01*
X131770168Y-51435000D02*
X134020038Y-53684870D01*
X113030000Y-53920000D02*
X116130000Y-53920000D01*
X109930000Y-53920000D02*
X113030000Y-53920000D01*
X116130000Y-53920000D02*
X116480000Y-53920000D01*
D26*
G36*
X122096662Y-47395873D02*
X121545142Y-47764386D01*
X121457372Y-47895743D01*
X121203220Y-47622097D01*
X120600191Y-47345815D01*
X120477113Y-47321333D01*
X120211224Y-47512278D01*
X120211224Y-48995773D01*
X120231224Y-48995773D01*
X120231224Y-49003773D01*
X120211224Y-49003773D01*
X120211224Y-49023773D01*
X120203224Y-49023773D01*
X120203224Y-49003773D01*
X118719728Y-49003773D01*
X118528784Y-49269662D01*
X118759830Y-49891429D01*
X119211228Y-50377449D01*
X119391409Y-50460000D01*
X117880000Y-50460000D01*
X117880000Y-50436500D01*
X117667500Y-50224000D01*
X116134000Y-50224000D01*
X116134000Y-51407500D01*
X116298821Y-51572321D01*
X115440571Y-52430571D01*
X115391943Y-52503348D01*
X115230000Y-52503348D01*
X114915009Y-52562618D01*
X114625709Y-52748777D01*
X114491636Y-52945000D01*
X113680717Y-52945000D01*
X113259753Y-52770200D01*
X112802254Y-52769801D01*
X112379428Y-52944509D01*
X112378936Y-52945000D01*
X111566593Y-52945000D01*
X111451223Y-52765709D01*
X111167176Y-52571628D01*
X110830000Y-52503348D01*
X109030000Y-52503348D01*
X108715009Y-52562618D01*
X108425709Y-52748777D01*
X108231628Y-53032824D01*
X108163348Y-53370000D01*
X108163348Y-54470000D01*
X108222618Y-54784991D01*
X108408777Y-55074291D01*
X108692824Y-55268372D01*
X109030000Y-55336652D01*
X110830000Y-55336652D01*
X111144991Y-55277382D01*
X111434291Y-55091223D01*
X111568364Y-54895000D01*
X112379283Y-54895000D01*
X112800247Y-55069800D01*
X113257746Y-55070199D01*
X113680572Y-54895491D01*
X113681064Y-54895000D01*
X114493407Y-54895000D01*
X114608777Y-55074291D01*
X114892824Y-55268372D01*
X115230000Y-55336652D01*
X117007822Y-55336652D01*
X116855018Y-55611750D01*
X116604538Y-56391905D01*
X116671676Y-57208530D01*
X116838525Y-57533184D01*
X116486980Y-57678440D01*
X116008092Y-58156493D01*
X115748600Y-58781420D01*
X115748009Y-59458080D01*
X116006410Y-60083458D01*
X116484463Y-60562346D01*
X117109390Y-60821838D01*
X117786050Y-60822429D01*
X118149204Y-60672377D01*
X118149204Y-72229612D01*
X117995982Y-72496612D01*
X117934736Y-72971422D01*
X117721766Y-73222547D01*
X116855018Y-74782986D01*
X116604538Y-75563141D01*
X116671676Y-76379766D01*
X116838525Y-76704420D01*
X116486980Y-76849676D01*
X116008092Y-77327729D01*
X115748600Y-77952656D01*
X115748009Y-78629316D01*
X116006410Y-79254694D01*
X116484463Y-79733582D01*
X117109390Y-79993074D01*
X117786050Y-79993665D01*
X118089666Y-79868213D01*
X118089666Y-91222234D01*
X117936444Y-91489234D01*
X117875198Y-91964044D01*
X117662228Y-92215169D01*
X116795480Y-93775608D01*
X116545000Y-94555763D01*
X116612138Y-95372388D01*
X116778987Y-95697042D01*
X116427442Y-95842298D01*
X115948554Y-96320351D01*
X115689062Y-96945278D01*
X115688471Y-97621938D01*
X115946872Y-98247316D01*
X116424925Y-98726204D01*
X117049852Y-98985696D01*
X117726512Y-98986287D01*
X118189472Y-98794996D01*
X118189472Y-110333932D01*
X118036250Y-110600932D01*
X117975004Y-111075742D01*
X117762034Y-111326867D01*
X116895286Y-112887306D01*
X116644806Y-113667461D01*
X116711944Y-114484086D01*
X116878793Y-114808740D01*
X116527248Y-114953996D01*
X116048360Y-115432049D01*
X115788868Y-116056976D01*
X115788277Y-116733636D01*
X116046678Y-117359014D01*
X116524731Y-117837902D01*
X117149658Y-118097394D01*
X117826318Y-118097985D01*
X118451696Y-117839584D01*
X118930584Y-117361531D01*
X119190076Y-116736604D01*
X119190667Y-116059944D01*
X119141067Y-115939903D01*
X119308174Y-115926164D01*
X119787949Y-115679593D01*
X119726067Y-115828622D01*
X119725080Y-116959995D01*
X120157125Y-118005625D01*
X120956429Y-118806325D01*
X122001304Y-119240195D01*
X123132677Y-119241182D01*
X124178307Y-118809137D01*
X124979007Y-118009833D01*
X125412877Y-116964958D01*
X125413864Y-115833585D01*
X125350031Y-115679098D01*
X125830770Y-115926164D01*
X125997494Y-115939871D01*
X125948868Y-116056976D01*
X125948277Y-116733636D01*
X126206678Y-117359014D01*
X126684731Y-117837902D01*
X127309658Y-118097394D01*
X127986318Y-118097985D01*
X128611696Y-117839584D01*
X129090584Y-117361531D01*
X129350076Y-116736604D01*
X129350667Y-116059944D01*
X129092266Y-115434566D01*
X128614213Y-114955678D01*
X128260185Y-114808673D01*
X128427000Y-114484086D01*
X128458430Y-114101790D01*
X130648716Y-114101790D01*
X130680383Y-114178429D01*
X130865439Y-114363808D01*
X130681628Y-114632824D01*
X130613348Y-114970000D01*
X130613348Y-116170000D01*
X130672618Y-116484991D01*
X130858777Y-116774291D01*
X131142824Y-116968372D01*
X131480000Y-117036652D01*
X132680000Y-117036652D01*
X132994991Y-116977382D01*
X133284291Y-116791223D01*
X133478372Y-116507176D01*
X133546652Y-116170000D01*
X133546652Y-114970000D01*
X133487382Y-114655009D01*
X133301223Y-114365709D01*
X133296237Y-114362302D01*
X133477986Y-114180870D01*
X133729713Y-113574645D01*
X133730285Y-112918235D01*
X133479617Y-112311571D01*
X133015870Y-111847014D01*
X132409645Y-111595287D01*
X131753235Y-111594715D01*
X131146571Y-111845383D01*
X130839629Y-112151790D01*
X127835115Y-112151790D01*
X127376910Y-111326866D01*
X127163940Y-111075741D01*
X127102694Y-110600932D01*
X126694863Y-109890259D01*
X126046114Y-109389752D01*
X125255212Y-109175610D01*
X124442566Y-109280434D01*
X123731893Y-109688265D01*
X123231386Y-110337014D01*
X123017244Y-111127916D01*
X122971426Y-111800002D01*
X123076250Y-112612648D01*
X123484081Y-113323321D01*
X123829412Y-113589742D01*
X124010548Y-113915848D01*
X123137640Y-113553385D01*
X122006267Y-113552398D01*
X121128917Y-113914911D01*
X121309532Y-113589742D01*
X121654863Y-113323321D01*
X122062694Y-112612648D01*
X122167518Y-111800002D01*
X122121700Y-111127916D01*
X121907558Y-110337014D01*
X121407051Y-109688265D01*
X120696378Y-109280434D01*
X120139472Y-109208598D01*
X120139472Y-100890000D01*
X130413348Y-100890000D01*
X130413348Y-102490000D01*
X130472618Y-102804991D01*
X130658777Y-103094291D01*
X130942824Y-103288372D01*
X131280000Y-103356652D01*
X132880000Y-103356652D01*
X133194991Y-103297382D01*
X133484291Y-103111223D01*
X133678372Y-102827176D01*
X133746652Y-102490000D01*
X133746652Y-100890000D01*
X133687382Y-100575009D01*
X133501223Y-100285709D01*
X133484079Y-100273995D01*
X133546652Y-99965000D01*
X133546652Y-98765000D01*
X133487382Y-98450009D01*
X133301223Y-98160709D01*
X133017176Y-97966628D01*
X132680000Y-97898348D01*
X131480000Y-97898348D01*
X131165009Y-97957618D01*
X130875709Y-98143777D01*
X130681628Y-98427824D01*
X130613348Y-98765000D01*
X130613348Y-99965000D01*
X130671631Y-100274745D01*
X130481628Y-100552824D01*
X130413348Y-100890000D01*
X120139472Y-100890000D01*
X120139472Y-98976223D01*
X120856623Y-99694627D01*
X121901498Y-100128497D01*
X123032871Y-100129484D01*
X124078501Y-99697439D01*
X124879201Y-98898135D01*
X125313071Y-97853260D01*
X125314058Y-96721887D01*
X125250225Y-96567400D01*
X125730964Y-96814466D01*
X125897688Y-96828173D01*
X125849062Y-96945278D01*
X125848471Y-97621938D01*
X126106872Y-98247316D01*
X126584925Y-98726204D01*
X127209852Y-98985696D01*
X127886512Y-98986287D01*
X128511890Y-98727886D01*
X128990778Y-98249833D01*
X129250270Y-97624906D01*
X129250861Y-96948246D01*
X128992460Y-96322868D01*
X128514407Y-95843980D01*
X128160379Y-95696975D01*
X128327194Y-95372388D01*
X128358624Y-94990092D01*
X130846755Y-94990092D01*
X130865439Y-95008808D01*
X130681628Y-95277824D01*
X130613348Y-95615000D01*
X130613348Y-96815000D01*
X130672618Y-97129991D01*
X130858777Y-97419291D01*
X131142824Y-97613372D01*
X131480000Y-97681652D01*
X132680000Y-97681652D01*
X132994991Y-97622382D01*
X133284291Y-97436223D01*
X133478372Y-97152176D01*
X133546652Y-96815000D01*
X133546652Y-95615000D01*
X133487382Y-95300009D01*
X133301223Y-95010709D01*
X133296237Y-95007302D01*
X133477986Y-94825870D01*
X133729713Y-94219645D01*
X133730285Y-93563235D01*
X133479617Y-92956571D01*
X133015870Y-92492014D01*
X132409645Y-92240287D01*
X131753235Y-92239715D01*
X131146571Y-92490383D01*
X130682014Y-92954130D01*
X130646319Y-93040092D01*
X127735309Y-93040092D01*
X127277104Y-92215168D01*
X127064134Y-91964043D01*
X127002888Y-91489234D01*
X126595057Y-90778561D01*
X125946308Y-90278054D01*
X125155406Y-90063912D01*
X124342760Y-90168736D01*
X123632087Y-90576567D01*
X123131580Y-91225316D01*
X122917438Y-92016218D01*
X122871620Y-92688304D01*
X122976444Y-93500950D01*
X123384275Y-94211623D01*
X123729606Y-94478044D01*
X123910742Y-94804150D01*
X123037834Y-94441687D01*
X121906461Y-94440700D01*
X121029111Y-94803213D01*
X121209726Y-94478044D01*
X121555057Y-94211623D01*
X121962888Y-93500950D01*
X122067712Y-92688304D01*
X122021894Y-92016218D01*
X121807752Y-91225316D01*
X121307245Y-90576567D01*
X120596572Y-90168736D01*
X120039666Y-90096900D01*
X120039666Y-79714488D01*
X120116857Y-79901305D01*
X120916161Y-80702005D01*
X121961036Y-81135875D01*
X123092409Y-81136862D01*
X124138039Y-80704817D01*
X124938739Y-79905513D01*
X125372609Y-78860638D01*
X125373596Y-77729265D01*
X125309763Y-77574778D01*
X125790502Y-77821844D01*
X125957226Y-77835551D01*
X125908600Y-77952656D01*
X125908009Y-78629316D01*
X126166410Y-79254694D01*
X126644463Y-79733582D01*
X127269390Y-79993074D01*
X127946050Y-79993665D01*
X128571428Y-79735264D01*
X129050316Y-79257211D01*
X129153898Y-79007756D01*
X129795236Y-79649094D01*
X129794715Y-80246765D01*
X130045383Y-80853429D01*
X130230439Y-81038808D01*
X130046628Y-81307824D01*
X129978348Y-81645000D01*
X129978348Y-82845000D01*
X130037618Y-83159991D01*
X130223777Y-83449291D01*
X130507824Y-83643372D01*
X130845000Y-83711652D01*
X131395001Y-83711652D01*
X131395001Y-83928348D01*
X130845000Y-83928348D01*
X130530009Y-83987618D01*
X130240709Y-84173777D01*
X130046628Y-84457824D01*
X129978348Y-84795000D01*
X129978348Y-85995000D01*
X130036631Y-86304745D01*
X129846628Y-86582824D01*
X129778348Y-86920000D01*
X129778348Y-88520000D01*
X129837618Y-88834991D01*
X130023777Y-89124291D01*
X130307824Y-89318372D01*
X130645000Y-89386652D01*
X132245000Y-89386652D01*
X132559991Y-89327382D01*
X132849291Y-89141223D01*
X133043372Y-88857176D01*
X133111652Y-88520000D01*
X133111652Y-86920000D01*
X133052382Y-86605009D01*
X132988353Y-86505505D01*
X133059430Y-86434428D01*
X133270784Y-86118116D01*
X133345001Y-85744999D01*
X133345001Y-82167235D01*
X137455000Y-78057236D01*
X137455000Y-88562023D01*
X137107680Y-89167252D01*
X137046434Y-89642062D01*
X136833464Y-89893187D01*
X135966716Y-91453626D01*
X135716236Y-92233781D01*
X135783374Y-93050406D01*
X135950223Y-93375060D01*
X135598678Y-93520316D01*
X135119790Y-93998369D01*
X134860298Y-94623296D01*
X134859707Y-95299956D01*
X135118108Y-95925334D01*
X135596161Y-96404222D01*
X136221088Y-96663714D01*
X136897748Y-96664305D01*
X137260902Y-96514253D01*
X137260902Y-107848663D01*
X137048142Y-108219412D01*
X136986896Y-108694222D01*
X136773926Y-108945347D01*
X135907178Y-110505786D01*
X135656698Y-111285941D01*
X135723836Y-112102566D01*
X135890685Y-112427220D01*
X135539140Y-112572476D01*
X135060252Y-113050529D01*
X134800760Y-113675456D01*
X134800169Y-114352116D01*
X135058570Y-114977494D01*
X135536623Y-115456382D01*
X136161550Y-115715874D01*
X136838210Y-115716465D01*
X137463588Y-115458064D01*
X137942476Y-114980011D01*
X138201968Y-114355084D01*
X138202559Y-113678424D01*
X138152959Y-113558383D01*
X138320066Y-113544644D01*
X138799841Y-113298073D01*
X138737959Y-113447102D01*
X138736972Y-114578475D01*
X139169017Y-115624105D01*
X139968321Y-116424805D01*
X141013196Y-116858675D01*
X142144569Y-116859662D01*
X143190199Y-116427617D01*
X143990899Y-115628313D01*
X144424769Y-114583438D01*
X144425756Y-113452065D01*
X144361923Y-113297578D01*
X144842662Y-113544644D01*
X145009386Y-113558351D01*
X144960760Y-113675456D01*
X144960169Y-114352116D01*
X145218570Y-114977494D01*
X145696623Y-115456382D01*
X146321550Y-115715874D01*
X146998210Y-115716465D01*
X147623588Y-115458064D01*
X148102476Y-114980011D01*
X148361968Y-114355084D01*
X148362559Y-113678424D01*
X148104158Y-113053046D01*
X147626105Y-112574158D01*
X147272077Y-112427153D01*
X147438892Y-112102566D01*
X147470322Y-111720270D01*
X149812081Y-111720270D01*
X149915439Y-111823808D01*
X149731628Y-112092824D01*
X149663348Y-112430000D01*
X149663348Y-113630000D01*
X149722618Y-113944991D01*
X149908777Y-114234291D01*
X150192824Y-114428372D01*
X150530000Y-114496652D01*
X151730000Y-114496652D01*
X152044991Y-114437382D01*
X152334291Y-114251223D01*
X152528372Y-113967176D01*
X152596652Y-113630000D01*
X152596652Y-112430000D01*
X152537382Y-112115009D01*
X152351223Y-111825709D01*
X152346237Y-111822302D01*
X152527986Y-111640870D01*
X152695000Y-111238656D01*
X152695000Y-116611142D01*
X152596652Y-116709490D01*
X152596652Y-115580000D01*
X152537382Y-115265009D01*
X152351223Y-114975709D01*
X152067176Y-114781628D01*
X151730000Y-114713348D01*
X150530000Y-114713348D01*
X150215009Y-114772618D01*
X149925709Y-114958777D01*
X149731628Y-115242824D01*
X149663348Y-115580000D01*
X149663348Y-116780000D01*
X149721631Y-117089745D01*
X149531628Y-117367824D01*
X149463348Y-117705000D01*
X149463348Y-119305000D01*
X149522618Y-119619991D01*
X149586647Y-119719495D01*
X149236142Y-120070000D01*
X133713723Y-120070000D01*
X133687382Y-119930009D01*
X133501223Y-119640709D01*
X133484079Y-119628995D01*
X133546652Y-119320000D01*
X133546652Y-118120000D01*
X133487382Y-117805009D01*
X133301223Y-117515709D01*
X133017176Y-117321628D01*
X132680000Y-117253348D01*
X131480000Y-117253348D01*
X131165009Y-117312618D01*
X130875709Y-117498777D01*
X130681628Y-117782824D01*
X130613348Y-118120000D01*
X130613348Y-119320000D01*
X130671631Y-119629745D01*
X130481628Y-119907824D01*
X130413348Y-120245000D01*
X130413348Y-121845000D01*
X130472618Y-122159991D01*
X130536647Y-122259495D01*
X130491142Y-122305000D01*
X114663723Y-122305000D01*
X114637382Y-122165009D01*
X114451223Y-121875709D01*
X114434079Y-121863995D01*
X114496652Y-121555000D01*
X114496652Y-120355000D01*
X114437382Y-120040009D01*
X114251223Y-119750709D01*
X113967176Y-119556628D01*
X113630000Y-119488348D01*
X112430000Y-119488348D01*
X112115009Y-119547618D01*
X111825709Y-119733777D01*
X111631628Y-120017824D01*
X111563348Y-120355000D01*
X111563348Y-121555000D01*
X111621631Y-121864745D01*
X111431628Y-122142824D01*
X111363348Y-122480000D01*
X111363348Y-124080000D01*
X111422618Y-124394991D01*
X111486647Y-124494495D01*
X111441142Y-124540000D01*
X94978723Y-124540000D01*
X94952382Y-124400009D01*
X94766223Y-124110709D01*
X94749079Y-124098995D01*
X94811652Y-123790000D01*
X94811652Y-122590000D01*
X94752382Y-122275009D01*
X94566223Y-121985709D01*
X94282176Y-121791628D01*
X93945000Y-121723348D01*
X92745000Y-121723348D01*
X92430009Y-121782618D01*
X92140709Y-121968777D01*
X91946628Y-122252824D01*
X91878348Y-122590000D01*
X91878348Y-123790000D01*
X91936631Y-124099745D01*
X91746628Y-124377824D01*
X91678348Y-124715000D01*
X91678348Y-126315000D01*
X91737618Y-126629991D01*
X91923777Y-126919291D01*
X92207824Y-127113372D01*
X92545000Y-127181652D01*
X94145000Y-127181652D01*
X94459991Y-127122382D01*
X94749291Y-126936223D01*
X94943372Y-126652176D01*
X94976214Y-126490000D01*
X111845000Y-126490000D01*
X112218117Y-126415783D01*
X112534429Y-126204429D01*
X113719429Y-125019429D01*
X113768057Y-124946652D01*
X113830000Y-124946652D01*
X114144991Y-124887382D01*
X114434291Y-124701223D01*
X114628372Y-124417176D01*
X114661214Y-124255000D01*
X130317369Y-124255000D01*
X130130339Y-124705419D01*
X130129662Y-125481177D01*
X130425906Y-126198143D01*
X130973971Y-126747166D01*
X131690419Y-127044661D01*
X132466177Y-127045338D01*
X133183143Y-126749094D01*
X133732166Y-126201029D01*
X134029661Y-125484581D01*
X134030338Y-124708823D01*
X133734094Y-123991857D01*
X133186029Y-123442834D01*
X132469581Y-123145339D01*
X132408572Y-123145286D01*
X132769429Y-122784429D01*
X132818057Y-122711652D01*
X132880000Y-122711652D01*
X133194991Y-122652382D01*
X133484291Y-122466223D01*
X133678372Y-122182176D01*
X133711214Y-122020000D01*
X149640000Y-122020000D01*
X150013117Y-121945783D01*
X150329429Y-121734429D01*
X151819429Y-120244429D01*
X151868057Y-120171652D01*
X151930000Y-120171652D01*
X152244991Y-120112382D01*
X152534291Y-119926223D01*
X152728372Y-119642176D01*
X152796652Y-119305000D01*
X152796652Y-119243057D01*
X152869429Y-119194429D01*
X154359429Y-117704429D01*
X154437637Y-117587382D01*
X154570783Y-117388116D01*
X154645000Y-117015000D01*
X154645000Y-99075717D01*
X154760520Y-98797515D01*
X155213710Y-98985696D01*
X155890370Y-98986287D01*
X156253524Y-98836235D01*
X156253524Y-107381212D01*
X156327741Y-107754329D01*
X156539095Y-108070641D01*
X162346258Y-113877804D01*
X162263675Y-113979603D01*
X161881527Y-114704410D01*
X161805840Y-115520287D01*
X161904113Y-115837755D01*
X161902573Y-115837754D01*
X161277195Y-116096155D01*
X160798307Y-116574208D01*
X160538815Y-117199135D01*
X160538224Y-117875795D01*
X160796625Y-118501173D01*
X161274678Y-118980061D01*
X161899605Y-119239553D01*
X162576265Y-119240144D01*
X163201643Y-118981743D01*
X163680531Y-118503690D01*
X163940023Y-117878763D01*
X163940463Y-117375355D01*
X164112213Y-117391288D01*
X164661069Y-117221389D01*
X164398837Y-117852914D01*
X164397850Y-118984287D01*
X164829895Y-120029917D01*
X165629199Y-120830617D01*
X166674074Y-121264487D01*
X167805447Y-121265474D01*
X168851077Y-120833429D01*
X169651777Y-120034125D01*
X170085647Y-118989250D01*
X170086351Y-118182837D01*
X170535717Y-118523924D01*
X170708162Y-118569164D01*
X170544461Y-118963401D01*
X170543870Y-119640061D01*
X170802271Y-120265439D01*
X171280324Y-120744327D01*
X171905251Y-121003819D01*
X172581911Y-121004410D01*
X173207289Y-120746009D01*
X173686177Y-120267956D01*
X173945669Y-119643029D01*
X173946260Y-118966369D01*
X173687859Y-118340991D01*
X173209806Y-117862103D01*
X173133538Y-117830434D01*
X173342918Y-117554585D01*
X173550842Y-116762026D01*
X173439639Y-115950228D01*
X172857027Y-114262986D01*
X172690900Y-113978693D01*
X172713034Y-113500459D01*
X172434805Y-112729764D01*
X171882824Y-112124207D01*
X171141123Y-111775980D01*
X170322620Y-111738098D01*
X169551924Y-112016326D01*
X168946368Y-112568308D01*
X168598141Y-113310009D01*
X168436313Y-113963930D01*
X168398430Y-114782433D01*
X168676659Y-115553128D01*
X168970481Y-115875468D01*
X169103238Y-116259933D01*
X168855285Y-116011547D01*
X167810410Y-115577677D01*
X166679037Y-115576690D01*
X166223641Y-115764856D01*
X166488883Y-115437893D01*
X166875232Y-115235485D01*
X167400274Y-114606427D01*
X167644619Y-113824328D01*
X167716203Y-113154497D01*
X167642652Y-112338425D01*
X167262403Y-111612620D01*
X166633345Y-111087578D01*
X165851246Y-110843233D01*
X165035175Y-110916784D01*
X164309370Y-111297034D01*
X163784328Y-111926092D01*
X163641563Y-112383053D01*
X163623893Y-112397723D01*
X158203524Y-106977354D01*
X158203524Y-100980000D01*
X168513348Y-100980000D01*
X168513348Y-102580000D01*
X168572618Y-102894991D01*
X168758777Y-103184291D01*
X169042824Y-103378372D01*
X169380000Y-103446652D01*
X170980000Y-103446652D01*
X171294991Y-103387382D01*
X171584291Y-103201223D01*
X171778372Y-102917176D01*
X171846652Y-102580000D01*
X171846652Y-100980000D01*
X171787382Y-100665009D01*
X171601223Y-100375709D01*
X171584079Y-100363995D01*
X171646652Y-100055000D01*
X171646652Y-98855000D01*
X171587382Y-98540009D01*
X171401223Y-98250709D01*
X171117176Y-98056628D01*
X170780000Y-97988348D01*
X169580000Y-97988348D01*
X169265009Y-98047618D01*
X168975709Y-98233777D01*
X168781628Y-98517824D01*
X168713348Y-98855000D01*
X168713348Y-100055000D01*
X168771631Y-100364745D01*
X168581628Y-100642824D01*
X168513348Y-100980000D01*
X158203524Y-100980000D01*
X158203524Y-98851203D01*
X158221177Y-98893927D01*
X159020481Y-99694627D01*
X160065356Y-100128497D01*
X161196729Y-100129484D01*
X162242359Y-99697439D01*
X163043059Y-98898135D01*
X163476929Y-97853260D01*
X163477916Y-96721887D01*
X163414083Y-96567400D01*
X163894822Y-96814466D01*
X164061546Y-96828173D01*
X164012920Y-96945278D01*
X164012329Y-97621938D01*
X164270730Y-98247316D01*
X164748783Y-98726204D01*
X165373710Y-98985696D01*
X166050370Y-98986287D01*
X166675748Y-98727886D01*
X167154636Y-98249833D01*
X167414128Y-97624906D01*
X167414719Y-96948246D01*
X167156318Y-96322868D01*
X166678265Y-95843980D01*
X166324237Y-95696975D01*
X166491052Y-95372388D01*
X166522482Y-94990092D01*
X168856912Y-94990092D01*
X168965439Y-95098808D01*
X168781628Y-95367824D01*
X168713348Y-95705000D01*
X168713348Y-96905000D01*
X168772618Y-97219991D01*
X168958777Y-97509291D01*
X169242824Y-97703372D01*
X169580000Y-97771652D01*
X170780000Y-97771652D01*
X171094991Y-97712382D01*
X171384291Y-97526223D01*
X171578372Y-97242176D01*
X171646652Y-96905000D01*
X171646652Y-95705000D01*
X171587382Y-95390009D01*
X171401223Y-95100709D01*
X171396237Y-95097302D01*
X171577986Y-94915870D01*
X171829713Y-94309645D01*
X171830285Y-93653235D01*
X171579617Y-93046571D01*
X171115870Y-92582014D01*
X170509645Y-92330287D01*
X169853235Y-92329715D01*
X169246571Y-92580383D01*
X168786059Y-93040092D01*
X165899167Y-93040092D01*
X165440962Y-92215168D01*
X165227992Y-91964043D01*
X165166746Y-91489234D01*
X164758915Y-90778561D01*
X164110166Y-90278054D01*
X163319264Y-90063912D01*
X162506618Y-90168736D01*
X161795945Y-90576567D01*
X161295438Y-91225316D01*
X161081296Y-92016218D01*
X161035478Y-92688304D01*
X161140302Y-93500950D01*
X161548133Y-94211623D01*
X161893464Y-94478044D01*
X162074600Y-94804150D01*
X161201692Y-94441687D01*
X160070319Y-94440700D01*
X159192969Y-94803213D01*
X159373584Y-94478044D01*
X159718915Y-94211623D01*
X160126746Y-93500950D01*
X160231570Y-92688304D01*
X160185752Y-92016218D01*
X159971610Y-91225316D01*
X159471103Y-90576567D01*
X158760430Y-90168736D01*
X158203524Y-90096900D01*
X158203524Y-87378285D01*
X158520247Y-87509800D01*
X158520943Y-87509801D01*
X159330571Y-88319429D01*
X159646884Y-88530783D01*
X160020000Y-88605000D01*
X169529283Y-88605000D01*
X169950247Y-88779800D01*
X170407746Y-88780199D01*
X170830572Y-88605491D01*
X171154354Y-88282273D01*
X171329800Y-87859753D01*
X171330199Y-87402254D01*
X171155491Y-86979428D01*
X170832273Y-86655646D01*
X170409753Y-86480200D01*
X169952254Y-86479801D01*
X169529428Y-86654509D01*
X169528936Y-86655000D01*
X160423858Y-86655000D01*
X159899556Y-86130698D01*
X159725491Y-85709428D01*
X159402273Y-85385646D01*
X158979753Y-85210200D01*
X158522254Y-85209801D01*
X158203524Y-85341497D01*
X158203524Y-82475000D01*
X168513348Y-82475000D01*
X168513348Y-84075000D01*
X168572618Y-84389991D01*
X168758777Y-84679291D01*
X169042824Y-84873372D01*
X169380000Y-84941652D01*
X170980000Y-84941652D01*
X171294991Y-84882382D01*
X171584291Y-84696223D01*
X171778372Y-84412176D01*
X171846652Y-84075000D01*
X171846652Y-82475000D01*
X171787382Y-82160009D01*
X171601223Y-81870709D01*
X171584079Y-81858995D01*
X171646652Y-81550000D01*
X171646652Y-80350000D01*
X171587382Y-80035009D01*
X171401223Y-79745709D01*
X171117176Y-79551628D01*
X170780000Y-79483348D01*
X169580000Y-79483348D01*
X169265009Y-79542618D01*
X168975709Y-79728777D01*
X168781628Y-80012824D01*
X168713348Y-80350000D01*
X168713348Y-81550000D01*
X168771631Y-81859745D01*
X168581628Y-82137824D01*
X168513348Y-82475000D01*
X158203524Y-82475000D01*
X158203524Y-79858581D01*
X158221177Y-79901305D01*
X159020481Y-80702005D01*
X160065356Y-81135875D01*
X161196729Y-81136862D01*
X162242359Y-80704817D01*
X163043059Y-79905513D01*
X163476929Y-78860638D01*
X163477916Y-77729265D01*
X163414083Y-77574778D01*
X163894822Y-77821844D01*
X164061546Y-77835551D01*
X164012920Y-77952656D01*
X164012329Y-78629316D01*
X164270730Y-79254694D01*
X164748783Y-79733582D01*
X165373710Y-79993074D01*
X166050370Y-79993665D01*
X166675748Y-79735264D01*
X167154636Y-79257211D01*
X167414128Y-78632284D01*
X167414719Y-77955624D01*
X167156318Y-77330246D01*
X166678265Y-76851358D01*
X166324237Y-76704353D01*
X166491052Y-76379766D01*
X166522482Y-75997470D01*
X168610579Y-75997470D01*
X168780383Y-76408429D01*
X168965439Y-76593808D01*
X168781628Y-76862824D01*
X168713348Y-77200000D01*
X168713348Y-78400000D01*
X168772618Y-78714991D01*
X168958777Y-79004291D01*
X169242824Y-79198372D01*
X169580000Y-79266652D01*
X170780000Y-79266652D01*
X171094991Y-79207382D01*
X171384291Y-79021223D01*
X171578372Y-78737176D01*
X171646652Y-78400000D01*
X171646652Y-77200000D01*
X171587382Y-76885009D01*
X171401223Y-76595709D01*
X171396237Y-76592302D01*
X171577986Y-76410870D01*
X171829713Y-75804645D01*
X171830285Y-75148235D01*
X171579617Y-74541571D01*
X171115870Y-74077014D01*
X170509645Y-73825287D01*
X169853235Y-73824715D01*
X169314126Y-74047470D01*
X165899167Y-74047470D01*
X165440962Y-73222546D01*
X165227992Y-72971421D01*
X165166746Y-72496612D01*
X164758915Y-71785939D01*
X164110166Y-71285432D01*
X163319264Y-71071290D01*
X162506618Y-71176114D01*
X161795945Y-71583945D01*
X161295438Y-72232694D01*
X161081296Y-73023596D01*
X161035478Y-73695682D01*
X161140302Y-74508328D01*
X161548133Y-75219001D01*
X161893464Y-75485422D01*
X162074600Y-75811528D01*
X161201692Y-75449065D01*
X160070319Y-75448078D01*
X159192969Y-75810591D01*
X159373584Y-75485422D01*
X159718915Y-75219001D01*
X160126746Y-74508328D01*
X160231570Y-73695682D01*
X160185752Y-73023596D01*
X159971610Y-72232694D01*
X159471103Y-71583945D01*
X158760430Y-71176114D01*
X158203524Y-71104278D01*
X158203524Y-68966177D01*
X167594662Y-68966177D01*
X167890906Y-69683143D01*
X168438971Y-70232166D01*
X169155419Y-70529661D01*
X169931177Y-70530338D01*
X170648143Y-70234094D01*
X171197166Y-69686029D01*
X171494661Y-68969581D01*
X171495338Y-68193823D01*
X171199094Y-67476857D01*
X170651029Y-66927834D01*
X169934581Y-66630339D01*
X169158823Y-66629662D01*
X168441857Y-66925906D01*
X167892834Y-67473971D01*
X167595339Y-68190419D01*
X167594662Y-68966177D01*
X158203524Y-68966177D01*
X158203524Y-63095000D01*
X168513348Y-63095000D01*
X168513348Y-64695000D01*
X168572618Y-65009991D01*
X168758777Y-65299291D01*
X169042824Y-65493372D01*
X169380000Y-65561652D01*
X170980000Y-65561652D01*
X171294991Y-65502382D01*
X171584291Y-65316223D01*
X171778372Y-65032176D01*
X171846652Y-64695000D01*
X171846652Y-63095000D01*
X171787382Y-62780009D01*
X171601223Y-62490709D01*
X171584079Y-62478995D01*
X171646652Y-62170000D01*
X171646652Y-61899138D01*
X172904489Y-61899138D01*
X173162890Y-62524516D01*
X173640943Y-63003404D01*
X174265870Y-63262896D01*
X174942530Y-63263487D01*
X175305684Y-63113435D01*
X175305684Y-74714881D01*
X175212000Y-74878132D01*
X175150754Y-75352942D01*
X174937784Y-75604067D01*
X174071036Y-77164506D01*
X173820556Y-77944661D01*
X173887694Y-78761286D01*
X174054543Y-79085940D01*
X173702998Y-79231196D01*
X173224110Y-79709249D01*
X172964618Y-80334176D01*
X172964027Y-81010836D01*
X173222428Y-81636214D01*
X173700481Y-82115102D01*
X174325408Y-82374594D01*
X175002068Y-82375185D01*
X175365222Y-82225133D01*
X175365222Y-93500005D01*
X175152462Y-93870754D01*
X175091216Y-94345564D01*
X174878246Y-94596689D01*
X174011498Y-96157128D01*
X173761018Y-96937283D01*
X173828156Y-97753908D01*
X173995005Y-98078562D01*
X173643460Y-98223818D01*
X173164572Y-98701871D01*
X172905080Y-99326798D01*
X172904489Y-100003458D01*
X173162890Y-100628836D01*
X173640943Y-101107724D01*
X174265870Y-101367216D01*
X174942530Y-101367807D01*
X175305684Y-101217755D01*
X175305684Y-121734948D01*
X175379901Y-122108065D01*
X175591255Y-122424377D01*
X176311686Y-123144808D01*
X176143823Y-123144662D01*
X175426857Y-123440906D01*
X174877834Y-123988971D01*
X174580339Y-124705419D01*
X174579662Y-125481177D01*
X174875906Y-126198143D01*
X175423971Y-126747166D01*
X176140419Y-127044661D01*
X176916177Y-127045338D01*
X177633143Y-126749094D01*
X178182166Y-126201029D01*
X178479661Y-125484581D01*
X178479811Y-125312933D01*
X181390683Y-128223805D01*
X181706995Y-128435159D01*
X182080112Y-128509376D01*
X184004156Y-128509376D01*
X184526131Y-129379808D01*
X185076525Y-129986808D01*
X185817311Y-130336976D01*
X186161856Y-130353827D01*
X186161329Y-130956815D01*
X186419730Y-131582193D01*
X186897783Y-132061081D01*
X187522710Y-132320573D01*
X188199370Y-132321164D01*
X188824748Y-132062763D01*
X189303636Y-131584710D01*
X189563128Y-130959783D01*
X189563719Y-130283123D01*
X189305318Y-129657745D01*
X189130777Y-129482899D01*
X189289451Y-129514461D01*
X191515597Y-129514461D01*
X191888714Y-129440244D01*
X192205026Y-129228890D01*
X196861907Y-124572009D01*
X197172659Y-124577162D01*
X197496628Y-124518287D01*
X197938447Y-124702651D01*
X198757824Y-124704796D01*
X199515650Y-124393216D01*
X200096553Y-123815346D01*
X200412096Y-123059161D01*
X200414241Y-122239785D01*
X200102661Y-121481959D01*
X199524791Y-120901055D01*
X198965657Y-120525334D01*
X198209472Y-120209790D01*
X197390096Y-120207646D01*
X196986702Y-120373502D01*
X196610411Y-120367262D01*
X196794533Y-120291184D01*
X197595233Y-119491880D01*
X198029103Y-118447005D01*
X198029642Y-117829355D01*
X198246643Y-118191220D01*
X198304704Y-118623495D01*
X198716249Y-119332024D01*
X199367609Y-119829128D01*
X199972561Y-120125492D01*
X200764573Y-120335491D01*
X201576660Y-120226415D01*
X202285189Y-119814870D01*
X202782293Y-119163510D01*
X202992292Y-118371498D01*
X202883216Y-117559412D01*
X202471671Y-116850882D01*
X202091095Y-116560435D01*
X201980099Y-116250435D01*
X201062091Y-114719589D01*
X200511697Y-114112589D01*
X199770911Y-113762421D01*
X199426366Y-113745570D01*
X199426893Y-113142582D01*
X199168492Y-112517204D01*
X199007431Y-112355861D01*
X199399840Y-112518804D01*
X200531213Y-112519791D01*
X201576843Y-112087746D01*
X202377543Y-111288442D01*
X202811413Y-110243567D01*
X202812400Y-109112194D01*
X202380355Y-108066564D01*
X201581051Y-107265864D01*
X200730369Y-106912630D01*
X201191081Y-106615722D01*
X201293873Y-106467272D01*
X201543267Y-106717102D01*
X202168194Y-106976594D01*
X202844854Y-106977185D01*
X203470232Y-106718784D01*
X203949120Y-106240731D01*
X204208612Y-105615804D01*
X204209203Y-104939144D01*
X203950802Y-104313766D01*
X203472749Y-103834878D01*
X202847822Y-103575386D01*
X202171162Y-103574795D01*
X201545784Y-103833196D01*
X201433205Y-103945578D01*
X201405875Y-103903171D01*
X203345442Y-101963604D01*
X203363971Y-101982166D01*
X204080419Y-102279661D01*
X204856177Y-102280338D01*
X205573143Y-101984094D01*
X206122166Y-101436029D01*
X206419661Y-100719581D01*
X206420338Y-99943823D01*
X206124094Y-99226857D01*
X205576029Y-98677834D01*
X205535000Y-98660797D01*
X205535000Y-97878118D01*
X205957986Y-97455870D01*
X206209713Y-96849645D01*
X206210285Y-96193235D01*
X205959617Y-95586571D01*
X205668374Y-95294820D01*
X206047986Y-94915870D01*
X206299713Y-94309645D01*
X206300285Y-93653235D01*
X206049617Y-93046571D01*
X205585870Y-92582014D01*
X204979645Y-92330287D01*
X204378621Y-92329763D01*
X203117844Y-91068986D01*
X203117844Y-86928534D01*
X203478030Y-87078096D01*
X204154690Y-87078687D01*
X204780068Y-86820286D01*
X205258956Y-86342233D01*
X205518448Y-85717306D01*
X205519039Y-85040646D01*
X205260638Y-84415268D01*
X204782585Y-83936380D01*
X204428557Y-83789375D01*
X204595372Y-83464788D01*
X204662510Y-82648163D01*
X204412030Y-81868008D01*
X203545282Y-80307568D01*
X203332312Y-80056443D01*
X203271066Y-79581634D01*
X202863235Y-78870961D01*
X202214486Y-78370454D01*
X201423584Y-78156312D01*
X200610938Y-78261136D01*
X199900265Y-78668967D01*
X199399758Y-79317716D01*
X199185616Y-80108618D01*
X199139798Y-80780704D01*
X199244622Y-81593350D01*
X199652453Y-82304023D01*
X199997784Y-82570444D01*
X200178920Y-82896550D01*
X199306012Y-82534087D01*
X198174639Y-82533100D01*
X197297289Y-82895613D01*
X197477904Y-82570444D01*
X197823235Y-82304023D01*
X198231066Y-81593350D01*
X198335890Y-80780704D01*
X198290072Y-80108618D01*
X198075930Y-79317716D01*
X197575423Y-78668967D01*
X196864750Y-78261136D01*
X196052104Y-78156312D01*
X195317860Y-78355113D01*
X195317860Y-77866652D01*
X196450000Y-77866652D01*
X196764991Y-77807382D01*
X197054291Y-77621223D01*
X197066005Y-77604079D01*
X197375000Y-77666652D01*
X198575000Y-77666652D01*
X198889991Y-77607382D01*
X199179291Y-77421223D01*
X199373372Y-77137176D01*
X199441652Y-76800000D01*
X199441652Y-75600000D01*
X199382382Y-75285009D01*
X199196223Y-74995709D01*
X198912176Y-74801628D01*
X198575000Y-74733348D01*
X197375000Y-74733348D01*
X197065255Y-74791631D01*
X196787176Y-74601628D01*
X196450000Y-74533348D01*
X195317860Y-74533348D01*
X195317860Y-67792064D01*
X196027259Y-67082665D01*
X196365631Y-67901589D01*
X197164935Y-68702289D01*
X198209810Y-69136159D01*
X199341183Y-69137146D01*
X200386813Y-68705101D01*
X201187513Y-67905797D01*
X201207978Y-67856512D01*
X201207978Y-74733348D01*
X200525000Y-74733348D01*
X200210009Y-74792618D01*
X199920709Y-74978777D01*
X199726628Y-75262824D01*
X199658348Y-75600000D01*
X199658348Y-76800000D01*
X199717618Y-77114991D01*
X199903777Y-77404291D01*
X200187824Y-77598372D01*
X200525000Y-77666652D01*
X201725000Y-77666652D01*
X202039991Y-77607382D01*
X202329291Y-77421223D01*
X202332698Y-77416237D01*
X202514130Y-77597986D01*
X203120355Y-77849713D01*
X203776765Y-77850285D01*
X204383429Y-77599617D01*
X204847986Y-77135870D01*
X205099713Y-76529645D01*
X205100285Y-75873235D01*
X204849617Y-75266571D01*
X204385870Y-74802014D01*
X203779645Y-74550287D01*
X203178621Y-74549763D01*
X203157978Y-74529120D01*
X203157978Y-67843796D01*
X203518164Y-67993358D01*
X204194824Y-67993949D01*
X204820202Y-67735548D01*
X205299090Y-67257495D01*
X205558582Y-66632568D01*
X205559173Y-65955908D01*
X205300772Y-65330530D01*
X204822719Y-64851642D01*
X204468691Y-64704637D01*
X204635506Y-64380050D01*
X204702644Y-63563425D01*
X204452164Y-62783270D01*
X203585416Y-61222830D01*
X203372446Y-60971705D01*
X203311200Y-60496896D01*
X202903369Y-59786223D01*
X202254620Y-59285716D01*
X201463718Y-59071574D01*
X200651072Y-59176398D01*
X199940399Y-59584229D01*
X199439892Y-60232978D01*
X199225750Y-61023880D01*
X199179932Y-61695966D01*
X199284756Y-62508612D01*
X199692587Y-63219285D01*
X200037918Y-63485706D01*
X200219054Y-63811812D01*
X199346146Y-63449349D01*
X198214773Y-63448362D01*
X197337423Y-63810875D01*
X197518038Y-63485706D01*
X197863369Y-63219285D01*
X198271200Y-62508612D01*
X198376024Y-61695966D01*
X198330206Y-61023880D01*
X198116064Y-60232978D01*
X197615557Y-59584229D01*
X196904884Y-59176398D01*
X196092238Y-59071574D01*
X195301336Y-59285716D01*
X194652587Y-59786223D01*
X194244756Y-60496896D01*
X194183510Y-60971706D01*
X193970540Y-61222831D01*
X193103792Y-62783270D01*
X192853312Y-63563425D01*
X192920450Y-64380050D01*
X193087299Y-64704704D01*
X192735754Y-64849960D01*
X192256866Y-65328013D01*
X191997374Y-65952940D01*
X191996783Y-66629600D01*
X192255184Y-67254978D01*
X192733237Y-67733866D01*
X193358164Y-67993358D01*
X193367860Y-67993366D01*
X193367860Y-81117508D01*
X193397567Y-81266858D01*
X193063658Y-81868008D01*
X192813178Y-82648163D01*
X192880316Y-83464788D01*
X193047165Y-83789442D01*
X192695620Y-83934698D01*
X192216732Y-84412751D01*
X191957240Y-85037678D01*
X191956649Y-85714338D01*
X192215050Y-86339716D01*
X192693103Y-86818604D01*
X193318030Y-87078096D01*
X193994690Y-87078687D01*
X194357844Y-86928635D01*
X194357844Y-88743298D01*
X190905698Y-92195444D01*
X190484428Y-92369509D01*
X190160646Y-92692727D01*
X189985200Y-93115247D01*
X189984801Y-93572746D01*
X190159509Y-93995572D01*
X190160000Y-93996064D01*
X190160000Y-94234577D01*
X189559645Y-93985287D01*
X188903235Y-93984715D01*
X188296571Y-94235383D01*
X187832014Y-94699130D01*
X187580287Y-95305355D01*
X187580186Y-95421612D01*
X184951327Y-95421612D01*
X184493122Y-94596688D01*
X184280152Y-94345563D01*
X184218906Y-93870754D01*
X183811075Y-93160081D01*
X183162326Y-92659574D01*
X182371424Y-92445432D01*
X181558778Y-92550256D01*
X180848105Y-92958087D01*
X180347598Y-93606836D01*
X180133456Y-94397738D01*
X180087638Y-95069824D01*
X180192462Y-95882470D01*
X180600293Y-96593143D01*
X180945624Y-96859564D01*
X181126760Y-97185670D01*
X180253852Y-96823207D01*
X179122479Y-96822220D01*
X178245129Y-97184733D01*
X178425744Y-96859564D01*
X178771075Y-96593143D01*
X179178906Y-95882470D01*
X179283730Y-95069824D01*
X179237912Y-94397738D01*
X179023770Y-93606836D01*
X178523263Y-92958087D01*
X177812590Y-92550256D01*
X177315222Y-92486100D01*
X177315222Y-84380000D01*
X187563348Y-84380000D01*
X187563348Y-85980000D01*
X187622618Y-86294991D01*
X187808777Y-86584291D01*
X188092824Y-86778372D01*
X188430000Y-86846652D01*
X190030000Y-86846652D01*
X190344991Y-86787382D01*
X190634291Y-86601223D01*
X190828372Y-86317176D01*
X190896652Y-85980000D01*
X190896652Y-84380000D01*
X190837382Y-84065009D01*
X190651223Y-83775709D01*
X190634079Y-83763995D01*
X190696652Y-83455000D01*
X190696652Y-82255000D01*
X190637382Y-81940009D01*
X190451223Y-81650709D01*
X190167176Y-81456628D01*
X189830000Y-81388348D01*
X188630000Y-81388348D01*
X188315009Y-81447618D01*
X188025709Y-81633777D01*
X187831628Y-81917824D01*
X187763348Y-82255000D01*
X187763348Y-83455000D01*
X187821631Y-83764745D01*
X187631628Y-84042824D01*
X187563348Y-84380000D01*
X177315222Y-84380000D01*
X177315222Y-82240101D01*
X177332875Y-82282825D01*
X178132179Y-83083525D01*
X179177054Y-83517395D01*
X180308427Y-83518382D01*
X181354057Y-83086337D01*
X182154757Y-82287033D01*
X182588627Y-81242158D01*
X182589614Y-80110785D01*
X182525781Y-79956298D01*
X183006520Y-80203364D01*
X183173244Y-80217071D01*
X183124618Y-80334176D01*
X183124027Y-81010836D01*
X183382428Y-81636214D01*
X183860481Y-82115102D01*
X184485408Y-82374594D01*
X185162068Y-82375185D01*
X185787446Y-82116784D01*
X186266334Y-81638731D01*
X186525826Y-81013804D01*
X186526417Y-80337144D01*
X186268016Y-79711766D01*
X185789963Y-79232878D01*
X185435935Y-79085873D01*
X185602750Y-78761286D01*
X185634180Y-78378990D01*
X187895830Y-78378990D01*
X188015439Y-78498808D01*
X187831628Y-78767824D01*
X187763348Y-79105000D01*
X187763348Y-80305000D01*
X187822618Y-80619991D01*
X188008777Y-80909291D01*
X188292824Y-81103372D01*
X188630000Y-81171652D01*
X189830000Y-81171652D01*
X190144991Y-81112382D01*
X190434291Y-80926223D01*
X190628372Y-80642176D01*
X190696652Y-80305000D01*
X190696652Y-79105000D01*
X190637382Y-78790009D01*
X190451223Y-78500709D01*
X190446237Y-78497302D01*
X190627986Y-78315870D01*
X190879713Y-77709645D01*
X190880285Y-77053235D01*
X190629617Y-76446571D01*
X190165870Y-75982014D01*
X189559645Y-75730287D01*
X188903235Y-75729715D01*
X188296571Y-75980383D01*
X187847180Y-76428990D01*
X185010865Y-76428990D01*
X184552660Y-75604066D01*
X184339690Y-75352941D01*
X184278444Y-74878132D01*
X183870613Y-74167459D01*
X183221864Y-73666952D01*
X182430962Y-73452810D01*
X181618316Y-73557634D01*
X180907643Y-73965465D01*
X180407136Y-74614214D01*
X180192994Y-75405116D01*
X180147176Y-76077202D01*
X180252000Y-76889848D01*
X180659831Y-77600521D01*
X181005162Y-77866942D01*
X181186298Y-78193048D01*
X180313390Y-77830585D01*
X179182017Y-77829598D01*
X178304667Y-78192111D01*
X178485282Y-77866942D01*
X178830613Y-77600521D01*
X179238444Y-76889848D01*
X179343268Y-76077202D01*
X179297450Y-75405116D01*
X179083308Y-74614214D01*
X178582801Y-73965465D01*
X177872128Y-73557634D01*
X177255684Y-73478118D01*
X177255684Y-65490000D01*
X187563348Y-65490000D01*
X187563348Y-67090000D01*
X187622618Y-67404991D01*
X187808777Y-67694291D01*
X188092824Y-67888372D01*
X188430000Y-67956652D01*
X190030000Y-67956652D01*
X190344991Y-67897382D01*
X190634291Y-67711223D01*
X190828372Y-67427176D01*
X190896652Y-67090000D01*
X190896652Y-65490000D01*
X190837382Y-65175009D01*
X190651223Y-64885709D01*
X190634079Y-64873995D01*
X190696652Y-64565000D01*
X190696652Y-63365000D01*
X190637382Y-63050009D01*
X190451223Y-62760709D01*
X190167176Y-62566628D01*
X189830000Y-62498348D01*
X188630000Y-62498348D01*
X188315009Y-62557618D01*
X188025709Y-62743777D01*
X187831628Y-63027824D01*
X187763348Y-63365000D01*
X187763348Y-64565000D01*
X187821631Y-64874745D01*
X187631628Y-65152824D01*
X187563348Y-65490000D01*
X177255684Y-65490000D01*
X177255684Y-63128403D01*
X177273337Y-63171127D01*
X178072641Y-63971827D01*
X179117516Y-64405697D01*
X180248889Y-64406684D01*
X181294519Y-63974639D01*
X182095219Y-63175335D01*
X182529089Y-62130460D01*
X182530076Y-60999087D01*
X182466243Y-60844600D01*
X182946982Y-61091666D01*
X183113706Y-61105373D01*
X183065080Y-61222478D01*
X183064489Y-61899138D01*
X183322890Y-62524516D01*
X183800943Y-63003404D01*
X184425870Y-63262896D01*
X185102530Y-63263487D01*
X185727908Y-63005086D01*
X186206796Y-62527033D01*
X186466288Y-61902106D01*
X186466879Y-61225446D01*
X186208478Y-60600068D01*
X185730425Y-60121180D01*
X185376397Y-59974175D01*
X185543212Y-59649588D01*
X185574642Y-59267292D01*
X187765869Y-59267292D01*
X187830383Y-59423429D01*
X188015439Y-59608808D01*
X187831628Y-59877824D01*
X187763348Y-60215000D01*
X187763348Y-61415000D01*
X187822618Y-61729991D01*
X188008777Y-62019291D01*
X188292824Y-62213372D01*
X188630000Y-62281652D01*
X189830000Y-62281652D01*
X190144991Y-62222382D01*
X190434291Y-62036223D01*
X190628372Y-61752176D01*
X190696652Y-61415000D01*
X190696652Y-60215000D01*
X190637382Y-59900009D01*
X190451223Y-59610709D01*
X190446237Y-59607302D01*
X190627986Y-59425870D01*
X190879713Y-58819645D01*
X190879773Y-58751105D01*
X191080000Y-58791652D01*
X193580000Y-58791652D01*
X193748215Y-58760000D01*
X194929283Y-58760000D01*
X195350247Y-58934800D01*
X195807746Y-58935199D01*
X196230572Y-58760491D01*
X196554354Y-58437273D01*
X196729800Y-58014753D01*
X196730199Y-57557254D01*
X196702410Y-57490000D01*
X196850000Y-57490000D01*
X197003067Y-57459553D01*
X197242824Y-57623372D01*
X197580000Y-57691652D01*
X200080000Y-57691652D01*
X200394991Y-57632382D01*
X200684291Y-57446223D01*
X200878372Y-57162176D01*
X200946652Y-56825000D01*
X200946652Y-55625000D01*
X200887382Y-55310009D01*
X200701223Y-55020709D01*
X200417176Y-54826628D01*
X200080000Y-54758348D01*
X197580000Y-54758348D01*
X197265009Y-54817618D01*
X197179785Y-54872458D01*
X197180277Y-54308137D01*
X196937205Y-53719857D01*
X196487511Y-53269377D01*
X195899656Y-53025278D01*
X195263137Y-53024723D01*
X194674857Y-53267795D01*
X194224377Y-53717489D01*
X193980278Y-54305344D01*
X193979723Y-54941863D01*
X194222795Y-55530143D01*
X194590709Y-55898700D01*
X194430200Y-56285247D01*
X194429894Y-56635940D01*
X194387382Y-56410009D01*
X194201223Y-56120709D01*
X193917176Y-55926628D01*
X193580000Y-55858348D01*
X191080000Y-55858348D01*
X190765009Y-55917618D01*
X190475709Y-56103777D01*
X190281628Y-56387824D01*
X190213348Y-56725000D01*
X190213348Y-57139575D01*
X190165870Y-57092014D01*
X189559645Y-56840287D01*
X188903235Y-56839715D01*
X188296571Y-57090383D01*
X188069266Y-57317292D01*
X184951327Y-57317292D01*
X184493122Y-56492368D01*
X184280152Y-56241243D01*
X184218906Y-55766434D01*
X183811075Y-55055761D01*
X183162326Y-54555254D01*
X182371424Y-54341112D01*
X181558778Y-54445936D01*
X180848105Y-54853767D01*
X180347598Y-55502516D01*
X180133456Y-56293418D01*
X180087638Y-56965504D01*
X180192462Y-57778150D01*
X180600293Y-58488823D01*
X180945624Y-58755244D01*
X181126760Y-59081350D01*
X180253852Y-58718887D01*
X179122479Y-58717900D01*
X178245129Y-59080413D01*
X178425744Y-58755244D01*
X178771075Y-58488823D01*
X179178906Y-57778150D01*
X179283730Y-56965504D01*
X179237912Y-56293418D01*
X179023770Y-55502516D01*
X178523263Y-54853767D01*
X177812590Y-54445936D01*
X176999944Y-54341112D01*
X176209042Y-54555254D01*
X175560293Y-55055761D01*
X175152462Y-55766434D01*
X175091216Y-56241244D01*
X174878246Y-56492369D01*
X174011498Y-58052808D01*
X173761018Y-58832963D01*
X173828156Y-59649588D01*
X173995005Y-59974242D01*
X173643460Y-60119498D01*
X173164572Y-60597551D01*
X172905080Y-61222478D01*
X172904489Y-61899138D01*
X171646652Y-61899138D01*
X171646652Y-60970000D01*
X171587382Y-60655009D01*
X171401223Y-60365709D01*
X171117176Y-60171628D01*
X170780000Y-60103348D01*
X169580000Y-60103348D01*
X169265009Y-60162618D01*
X168975709Y-60348777D01*
X168781628Y-60632824D01*
X168713348Y-60970000D01*
X168713348Y-62170000D01*
X168771631Y-62479745D01*
X168581628Y-62757824D01*
X168513348Y-63095000D01*
X158203524Y-63095000D01*
X158203524Y-60746883D01*
X158221177Y-60789607D01*
X159020481Y-61590307D01*
X160065356Y-62024177D01*
X161196729Y-62025164D01*
X162242359Y-61593119D01*
X163043059Y-60793815D01*
X163476929Y-59748940D01*
X163477916Y-58617567D01*
X163414083Y-58463080D01*
X163894822Y-58710146D01*
X164061546Y-58723853D01*
X164012920Y-58840958D01*
X164012329Y-59517618D01*
X164270730Y-60142996D01*
X164748783Y-60621884D01*
X165373710Y-60881376D01*
X166050370Y-60881967D01*
X166675748Y-60623566D01*
X167154636Y-60145513D01*
X167414128Y-59520586D01*
X167414719Y-58843926D01*
X167156318Y-58218548D01*
X166678265Y-57739660D01*
X166324237Y-57592655D01*
X166491052Y-57268068D01*
X166522482Y-56885772D01*
X168721438Y-56885772D01*
X168780383Y-57028429D01*
X168965439Y-57213808D01*
X168781628Y-57482824D01*
X168713348Y-57820000D01*
X168713348Y-59020000D01*
X168772618Y-59334991D01*
X168958777Y-59624291D01*
X169242824Y-59818372D01*
X169580000Y-59886652D01*
X170780000Y-59886652D01*
X171094991Y-59827382D01*
X171384291Y-59641223D01*
X171578372Y-59357176D01*
X171646652Y-59020000D01*
X171646652Y-57820000D01*
X171587382Y-57505009D01*
X171401223Y-57215709D01*
X171396237Y-57212302D01*
X171577986Y-57030870D01*
X171829713Y-56424645D01*
X171830285Y-55768235D01*
X171579617Y-55161571D01*
X171115870Y-54697014D01*
X170509645Y-54445287D01*
X169853235Y-54444715D01*
X169246571Y-54695383D01*
X169005762Y-54935772D01*
X165899167Y-54935772D01*
X165440962Y-54110848D01*
X165227992Y-53859723D01*
X165166746Y-53384914D01*
X164971681Y-53045000D01*
X179257960Y-53045000D01*
X179631077Y-52970783D01*
X179947389Y-52759429D01*
X180265318Y-52441500D01*
X196730000Y-52441500D01*
X196730000Y-52994075D01*
X196859405Y-53306486D01*
X197098513Y-53545595D01*
X197410924Y-53675000D01*
X198613500Y-53675000D01*
X198826000Y-53462500D01*
X198826000Y-52229000D01*
X198834000Y-52229000D01*
X198834000Y-53462500D01*
X199046500Y-53675000D01*
X200249076Y-53675000D01*
X200561487Y-53545595D01*
X200800595Y-53306486D01*
X200930000Y-52994075D01*
X200930000Y-52441500D01*
X200717500Y-52229000D01*
X198834000Y-52229000D01*
X198826000Y-52229000D01*
X196942500Y-52229000D01*
X196730000Y-52441500D01*
X180265318Y-52441500D01*
X181363782Y-51343036D01*
X183075264Y-51586868D01*
X183512491Y-51536262D01*
X183637338Y-51455925D01*
X196730000Y-51455925D01*
X196730000Y-52008500D01*
X196942500Y-52221000D01*
X198826000Y-52221000D01*
X198826000Y-50987500D01*
X198834000Y-50987500D01*
X198834000Y-52221000D01*
X200717500Y-52221000D01*
X200930000Y-52008500D01*
X200930000Y-51821177D01*
X201884662Y-51821177D01*
X202180906Y-52538143D01*
X202728971Y-53087166D01*
X203445419Y-53384661D01*
X204221177Y-53385338D01*
X204938143Y-53089094D01*
X205487166Y-52541029D01*
X205784661Y-51824581D01*
X205785338Y-51048823D01*
X205489094Y-50331857D01*
X204941029Y-49782834D01*
X204224581Y-49485339D01*
X203448823Y-49484662D01*
X202731857Y-49780906D01*
X202182834Y-50328971D01*
X201885339Y-51045419D01*
X201884662Y-51821177D01*
X200930000Y-51821177D01*
X200930000Y-51455925D01*
X200800595Y-51143514D01*
X200561487Y-50904405D01*
X200249076Y-50775000D01*
X199046500Y-50775000D01*
X198834000Y-50987500D01*
X198826000Y-50987500D01*
X198613500Y-50775000D01*
X197410924Y-50775000D01*
X197098513Y-50904405D01*
X196859405Y-51143514D01*
X196730000Y-51455925D01*
X183637338Y-51455925D01*
X183747121Y-51385282D01*
X183800750Y-51396142D01*
X185799730Y-51396142D01*
X186114721Y-51336872D01*
X186404021Y-51150713D01*
X186598102Y-50866666D01*
X186666382Y-50529490D01*
X186666382Y-50505000D01*
X194476183Y-50505000D01*
X194604509Y-50815572D01*
X194927727Y-51139354D01*
X195350247Y-51314800D01*
X195807746Y-51315199D01*
X196230572Y-51140491D01*
X196554354Y-50817273D01*
X196729800Y-50394753D01*
X196729801Y-50394057D01*
X196855329Y-50268529D01*
X196958777Y-50429291D01*
X197242824Y-50623372D01*
X197580000Y-50691652D01*
X200080000Y-50691652D01*
X200394991Y-50632382D01*
X200684291Y-50446223D01*
X200878372Y-50162176D01*
X200946652Y-49825000D01*
X200946652Y-48625000D01*
X200887382Y-48310009D01*
X200701223Y-48020709D01*
X200417176Y-47826628D01*
X200080000Y-47758348D01*
X197580000Y-47758348D01*
X197265009Y-47817618D01*
X197179785Y-47872458D01*
X197180277Y-47308137D01*
X197168651Y-47280000D01*
X205013898Y-47280000D01*
X205959104Y-47468014D01*
X206683176Y-47951824D01*
X207193116Y-48715002D01*
X207333315Y-49176307D01*
X207355000Y-49216826D01*
X207355000Y-102870000D01*
X207375490Y-102973013D01*
X207378688Y-103077995D01*
X207410362Y-103148327D01*
X207425411Y-103223982D01*
X207483764Y-103311314D01*
X207526893Y-103407080D01*
X207583071Y-103459937D01*
X207625926Y-103524074D01*
X207713259Y-103582428D01*
X207789751Y-103654398D01*
X211274484Y-105832356D01*
X211286395Y-105868088D01*
X211522869Y-106140744D01*
X211815187Y-106367613D01*
X211907314Y-106529228D01*
X211924664Y-106666856D01*
X209578195Y-110678561D01*
X209578296Y-110562580D01*
X209217637Y-109689720D01*
X208550404Y-109021321D01*
X207678174Y-108659139D01*
X206733739Y-108658315D01*
X205860879Y-109018974D01*
X205192480Y-109686207D01*
X204830298Y-110558437D01*
X204829474Y-111502872D01*
X205190133Y-112375732D01*
X205857366Y-113044131D01*
X206729596Y-113406313D01*
X207674031Y-113407137D01*
X208080461Y-113239203D01*
X197603664Y-131151145D01*
X197279637Y-130366942D01*
X196612404Y-129698543D01*
X195740174Y-129336361D01*
X194795739Y-129335537D01*
X193922879Y-129696196D01*
X193254480Y-130363429D01*
X192892298Y-131235659D01*
X192891474Y-132180094D01*
X193252133Y-133052954D01*
X193919366Y-133721353D01*
X194791596Y-134083535D01*
X195736031Y-134084359D01*
X195936447Y-134001549D01*
X193544965Y-138090212D01*
X193516251Y-138112496D01*
X193115491Y-138222245D01*
X192939448Y-138200052D01*
X178901081Y-130011005D01*
X178841437Y-129990460D01*
X178788982Y-129955411D01*
X178672309Y-129932203D01*
X178559840Y-129893463D01*
X178496873Y-129897307D01*
X178435000Y-129885000D01*
X78196103Y-129885000D01*
X77250898Y-129696988D01*
X76526824Y-129213176D01*
X76043014Y-128489104D01*
X75855000Y-127543898D01*
X75855000Y-83392356D01*
X77643689Y-83392356D01*
X77902090Y-84017734D01*
X78380143Y-84496622D01*
X79005070Y-84756114D01*
X79681730Y-84756705D01*
X80044884Y-84606653D01*
X80044884Y-96044812D01*
X79891662Y-96311812D01*
X79830416Y-96786622D01*
X79617446Y-97037747D01*
X78750698Y-98598186D01*
X78500218Y-99378341D01*
X78567356Y-100194966D01*
X78734205Y-100519620D01*
X78382660Y-100664876D01*
X77903772Y-101142929D01*
X77644280Y-101767856D01*
X77643689Y-102444516D01*
X77902090Y-103069894D01*
X78380143Y-103548782D01*
X79005070Y-103808274D01*
X79681730Y-103808865D01*
X80044884Y-103658813D01*
X80044884Y-115037434D01*
X79891662Y-115304434D01*
X79830416Y-115779244D01*
X79617446Y-116030369D01*
X78750698Y-117590808D01*
X78500218Y-118370963D01*
X78567356Y-119187588D01*
X78734205Y-119512242D01*
X78382660Y-119657498D01*
X77903772Y-120135551D01*
X77644280Y-120760478D01*
X77643689Y-121437138D01*
X77902090Y-122062516D01*
X78380143Y-122541404D01*
X79005070Y-122800896D01*
X79681730Y-122801487D01*
X80307108Y-122543086D01*
X80785996Y-122065033D01*
X81045488Y-121440106D01*
X81046079Y-120763446D01*
X80996479Y-120643405D01*
X81163586Y-120629666D01*
X81643361Y-120383095D01*
X81581479Y-120532124D01*
X81580492Y-121663497D01*
X82012537Y-122709127D01*
X82811841Y-123509827D01*
X83856716Y-123943697D01*
X84988089Y-123944684D01*
X86033719Y-123512639D01*
X86834419Y-122713335D01*
X87268289Y-121668460D01*
X87269276Y-120537087D01*
X87205443Y-120382600D01*
X87686182Y-120629666D01*
X87852906Y-120643373D01*
X87804280Y-120760478D01*
X87803689Y-121437138D01*
X88062090Y-122062516D01*
X88540143Y-122541404D01*
X89165070Y-122800896D01*
X89841730Y-122801487D01*
X90467108Y-122543086D01*
X90945996Y-122065033D01*
X91205488Y-121440106D01*
X91206079Y-120763446D01*
X90947678Y-120138068D01*
X90469625Y-119659180D01*
X90115597Y-119512175D01*
X90282412Y-119187588D01*
X90313842Y-118805292D01*
X92101972Y-118805292D01*
X92130439Y-118833808D01*
X91946628Y-119102824D01*
X91878348Y-119440000D01*
X91878348Y-120640000D01*
X91937618Y-120954991D01*
X92123777Y-121244291D01*
X92407824Y-121438372D01*
X92745000Y-121506652D01*
X93945000Y-121506652D01*
X94259991Y-121447382D01*
X94549291Y-121261223D01*
X94743372Y-120977176D01*
X94811652Y-120640000D01*
X94811652Y-119440000D01*
X94752382Y-119125009D01*
X94746042Y-119115156D01*
X96695849Y-119115156D01*
X96954250Y-119740534D01*
X97432303Y-120219422D01*
X98057230Y-120478914D01*
X98733890Y-120479505D01*
X99359268Y-120221104D01*
X99838156Y-119743051D01*
X100097648Y-119118124D01*
X100098239Y-118441464D01*
X100048639Y-118321423D01*
X100215746Y-118307684D01*
X100695521Y-118061113D01*
X100633639Y-118210142D01*
X100632652Y-119341515D01*
X101064697Y-120387145D01*
X101864001Y-121187845D01*
X102908876Y-121621715D01*
X104040249Y-121622702D01*
X105085879Y-121190657D01*
X105886579Y-120391353D01*
X106320449Y-119346478D01*
X106321436Y-118215105D01*
X106257603Y-118060618D01*
X106738342Y-118307684D01*
X106905066Y-118321391D01*
X106856440Y-118438496D01*
X106855849Y-119115156D01*
X107114250Y-119740534D01*
X107592303Y-120219422D01*
X108217230Y-120478914D01*
X108893890Y-120479505D01*
X109519268Y-120221104D01*
X109998156Y-119743051D01*
X110257648Y-119118124D01*
X110258239Y-118441464D01*
X109999838Y-117816086D01*
X109521785Y-117337198D01*
X109167757Y-117190193D01*
X109334572Y-116865606D01*
X109366002Y-116483310D01*
X111700142Y-116483310D01*
X111815439Y-116598808D01*
X111631628Y-116867824D01*
X111563348Y-117205000D01*
X111563348Y-118405000D01*
X111622618Y-118719991D01*
X111808777Y-119009291D01*
X112092824Y-119203372D01*
X112430000Y-119271652D01*
X113630000Y-119271652D01*
X113944991Y-119212382D01*
X114234291Y-119026223D01*
X114428372Y-118742176D01*
X114496652Y-118405000D01*
X114496652Y-117205000D01*
X114437382Y-116890009D01*
X114251223Y-116600709D01*
X114246237Y-116597302D01*
X114427986Y-116415870D01*
X114679713Y-115809645D01*
X114680285Y-115153235D01*
X114429617Y-114546571D01*
X113965870Y-114082014D01*
X113359645Y-113830287D01*
X112703235Y-113829715D01*
X112096571Y-114080383D01*
X111642853Y-114533310D01*
X108742687Y-114533310D01*
X108284482Y-113708386D01*
X108071512Y-113457261D01*
X108010266Y-112982452D01*
X107602435Y-112271779D01*
X106953686Y-111771272D01*
X106162784Y-111557130D01*
X105350138Y-111661954D01*
X104639465Y-112069785D01*
X104138958Y-112718534D01*
X103924816Y-113509436D01*
X103878998Y-114181522D01*
X103983822Y-114994168D01*
X104391653Y-115704841D01*
X104736984Y-115971262D01*
X104918120Y-116297368D01*
X104045212Y-115934905D01*
X102913839Y-115933918D01*
X102036489Y-116296431D01*
X102217104Y-115971262D01*
X102562435Y-115704841D01*
X102970266Y-114994168D01*
X103075090Y-114181522D01*
X103029272Y-113509436D01*
X102815130Y-112718534D01*
X102314623Y-112069785D01*
X101603950Y-111661954D01*
X101047044Y-111590118D01*
X101047044Y-103735000D01*
X111363348Y-103735000D01*
X111363348Y-105335000D01*
X111422618Y-105649991D01*
X111608777Y-105939291D01*
X111892824Y-106133372D01*
X112230000Y-106201652D01*
X112291943Y-106201652D01*
X112340571Y-106274429D01*
X112656884Y-106485783D01*
X113030000Y-106560000D01*
X113403116Y-106485783D01*
X113719429Y-106274429D01*
X113768057Y-106201652D01*
X113830000Y-106201652D01*
X114144991Y-106142382D01*
X114434291Y-105956223D01*
X114628372Y-105672176D01*
X114696652Y-105335000D01*
X114696652Y-103735000D01*
X114637382Y-103420009D01*
X114451223Y-103130709D01*
X114434079Y-103118995D01*
X114496652Y-102810000D01*
X114496652Y-101610000D01*
X114437382Y-101295009D01*
X114251223Y-101005709D01*
X113967176Y-100811628D01*
X113630000Y-100743348D01*
X112430000Y-100743348D01*
X112115009Y-100802618D01*
X111825709Y-100988777D01*
X111631628Y-101272824D01*
X111563348Y-101610000D01*
X111563348Y-102810000D01*
X111621631Y-103119745D01*
X111431628Y-103397824D01*
X111363348Y-103735000D01*
X101047044Y-103735000D01*
X101047044Y-101088630D01*
X101124235Y-101275447D01*
X101923539Y-102076147D01*
X102968414Y-102510017D01*
X104099787Y-102511004D01*
X105145417Y-102078959D01*
X105946117Y-101279655D01*
X106379987Y-100234780D01*
X106380974Y-99103407D01*
X106317141Y-98948920D01*
X106797880Y-99195986D01*
X106964604Y-99209693D01*
X106915978Y-99326798D01*
X106915387Y-100003458D01*
X107173788Y-100628836D01*
X107651841Y-101107724D01*
X108276768Y-101367216D01*
X108953428Y-101367807D01*
X109578806Y-101109406D01*
X110057694Y-100631353D01*
X110317186Y-100006426D01*
X110317777Y-99329766D01*
X110059376Y-98704388D01*
X109581323Y-98225500D01*
X109227295Y-98078495D01*
X109394110Y-97753908D01*
X109425540Y-97371612D01*
X111507741Y-97371612D01*
X111630383Y-97668429D01*
X111815439Y-97853808D01*
X111631628Y-98122824D01*
X111563348Y-98460000D01*
X111563348Y-99660000D01*
X111622618Y-99974991D01*
X111808777Y-100264291D01*
X112092824Y-100458372D01*
X112430000Y-100526652D01*
X113630000Y-100526652D01*
X113944991Y-100467382D01*
X114234291Y-100281223D01*
X114428372Y-99997176D01*
X114496652Y-99660000D01*
X114496652Y-98460000D01*
X114437382Y-98145009D01*
X114251223Y-97855709D01*
X114246237Y-97852302D01*
X114427986Y-97670870D01*
X114679713Y-97064645D01*
X114680285Y-96408235D01*
X114429617Y-95801571D01*
X113965870Y-95337014D01*
X113359645Y-95085287D01*
X112703235Y-95084715D01*
X112096571Y-95335383D01*
X112010191Y-95421612D01*
X108802225Y-95421612D01*
X108344020Y-94596688D01*
X108131050Y-94345563D01*
X108069804Y-93870754D01*
X107661973Y-93160081D01*
X107013224Y-92659574D01*
X106222322Y-92445432D01*
X105409676Y-92550256D01*
X104699003Y-92958087D01*
X104198496Y-93606836D01*
X103984354Y-94397738D01*
X103938536Y-95069824D01*
X104043360Y-95882470D01*
X104451191Y-96593143D01*
X104796522Y-96859564D01*
X104977658Y-97185670D01*
X104104750Y-96823207D01*
X102973377Y-96822220D01*
X102096027Y-97184733D01*
X102276642Y-96859564D01*
X102621973Y-96593143D01*
X103029804Y-95882470D01*
X103134628Y-95069824D01*
X103088810Y-94397738D01*
X102874668Y-93606836D01*
X102374161Y-92958087D01*
X101663488Y-92550256D01*
X101106582Y-92478420D01*
X101106582Y-84855000D01*
X111363348Y-84855000D01*
X111363348Y-86455000D01*
X111422618Y-86769991D01*
X111608777Y-87059291D01*
X111892824Y-87253372D01*
X112230000Y-87321652D01*
X112291943Y-87321652D01*
X112340571Y-87394429D01*
X112656884Y-87605783D01*
X113030000Y-87680000D01*
X113403116Y-87605783D01*
X113719429Y-87394429D01*
X113768057Y-87321652D01*
X113830000Y-87321652D01*
X114144991Y-87262382D01*
X114434291Y-87076223D01*
X114628372Y-86792176D01*
X114696652Y-86455000D01*
X114696652Y-84855000D01*
X114637382Y-84540009D01*
X114451223Y-84250709D01*
X114434079Y-84238995D01*
X114496652Y-83930000D01*
X114496652Y-82730000D01*
X114437382Y-82415009D01*
X114251223Y-82125709D01*
X113967176Y-81931628D01*
X113630000Y-81863348D01*
X112430000Y-81863348D01*
X112115009Y-81922618D01*
X111825709Y-82108777D01*
X111631628Y-82392824D01*
X111563348Y-82730000D01*
X111563348Y-83930000D01*
X111621631Y-84239745D01*
X111431628Y-84517824D01*
X111363348Y-84855000D01*
X101106582Y-84855000D01*
X101106582Y-82299639D01*
X101124235Y-82342363D01*
X101923539Y-83143063D01*
X102968414Y-83576933D01*
X104099787Y-83577920D01*
X105145417Y-83145875D01*
X105946117Y-82346571D01*
X106379987Y-81301696D01*
X106380974Y-80170323D01*
X106317141Y-80015836D01*
X106797880Y-80262902D01*
X106964604Y-80276609D01*
X106915978Y-80393714D01*
X106915387Y-81070374D01*
X107173788Y-81695752D01*
X107651841Y-82174640D01*
X108276768Y-82434132D01*
X108953428Y-82434723D01*
X109578806Y-82176322D01*
X110057694Y-81698269D01*
X110317186Y-81073342D01*
X110317777Y-80396682D01*
X110059376Y-79771304D01*
X109581323Y-79292416D01*
X109227295Y-79145411D01*
X109394110Y-78820824D01*
X109425540Y-78438528D01*
X111485807Y-78438528D01*
X111630383Y-78788429D01*
X111815439Y-78973808D01*
X111631628Y-79242824D01*
X111563348Y-79580000D01*
X111563348Y-80780000D01*
X111622618Y-81094991D01*
X111808777Y-81384291D01*
X112092824Y-81578372D01*
X112430000Y-81646652D01*
X113630000Y-81646652D01*
X113944991Y-81587382D01*
X114234291Y-81401223D01*
X114428372Y-81117176D01*
X114496652Y-80780000D01*
X114496652Y-79580000D01*
X114437382Y-79265009D01*
X114251223Y-78975709D01*
X114246237Y-78972302D01*
X114427986Y-78790870D01*
X114679713Y-78184645D01*
X114680285Y-77528235D01*
X114429617Y-76921571D01*
X113965870Y-76457014D01*
X113359645Y-76205287D01*
X112703235Y-76204715D01*
X112096571Y-76455383D01*
X112063368Y-76488528D01*
X108802225Y-76488528D01*
X108344020Y-75663604D01*
X108131050Y-75412479D01*
X108069804Y-74937670D01*
X107661973Y-74226997D01*
X107013224Y-73726490D01*
X106222322Y-73512348D01*
X105409676Y-73617172D01*
X104699003Y-74025003D01*
X104198496Y-74673752D01*
X103984354Y-75464654D01*
X103938536Y-76136740D01*
X104043360Y-76949386D01*
X104451191Y-77660059D01*
X104796522Y-77926480D01*
X104977658Y-78252586D01*
X104104750Y-77890123D01*
X102973377Y-77889136D01*
X102096027Y-78251649D01*
X102276642Y-77926480D01*
X102621973Y-77660059D01*
X103029804Y-76949386D01*
X103134628Y-76136740D01*
X103088810Y-75464654D01*
X102874668Y-74673752D01*
X102374161Y-74025003D01*
X101663488Y-73617172D01*
X101106582Y-73545336D01*
X101106582Y-65330000D01*
X111363348Y-65330000D01*
X111363348Y-66930000D01*
X111422618Y-67244991D01*
X111608777Y-67534291D01*
X111892824Y-67728372D01*
X112230000Y-67796652D01*
X112291943Y-67796652D01*
X112340571Y-67869429D01*
X112656884Y-68080783D01*
X113030000Y-68155000D01*
X113403116Y-68080783D01*
X113719429Y-67869429D01*
X113768057Y-67796652D01*
X113830000Y-67796652D01*
X114144991Y-67737382D01*
X114434291Y-67551223D01*
X114628372Y-67267176D01*
X114696652Y-66930000D01*
X114696652Y-65330000D01*
X114637382Y-65015009D01*
X114451223Y-64725709D01*
X114434079Y-64713995D01*
X114496652Y-64405000D01*
X114496652Y-63205000D01*
X114437382Y-62890009D01*
X114251223Y-62600709D01*
X113967176Y-62406628D01*
X113630000Y-62338348D01*
X112430000Y-62338348D01*
X112115009Y-62397618D01*
X111825709Y-62583777D01*
X111631628Y-62867824D01*
X111563348Y-63205000D01*
X111563348Y-64405000D01*
X111621631Y-64714745D01*
X111431628Y-64992824D01*
X111363348Y-65330000D01*
X101106582Y-65330000D01*
X101106582Y-63187941D01*
X101124235Y-63230665D01*
X101923539Y-64031365D01*
X102968414Y-64465235D01*
X104099787Y-64466222D01*
X105145417Y-64034177D01*
X105946117Y-63234873D01*
X106379987Y-62189998D01*
X106380974Y-61058625D01*
X106317141Y-60904138D01*
X106797880Y-61151204D01*
X106964604Y-61164911D01*
X106915978Y-61282016D01*
X106915387Y-61958676D01*
X107173788Y-62584054D01*
X107651841Y-63062942D01*
X108276768Y-63322434D01*
X108953428Y-63323025D01*
X109578806Y-63064624D01*
X110057694Y-62586571D01*
X110317186Y-61961644D01*
X110317777Y-61284984D01*
X110059376Y-60659606D01*
X109581323Y-60180718D01*
X109227295Y-60033713D01*
X109394110Y-59709126D01*
X109425540Y-59326830D01*
X111693673Y-59326830D01*
X111815439Y-59448808D01*
X111631628Y-59717824D01*
X111563348Y-60055000D01*
X111563348Y-61255000D01*
X111622618Y-61569991D01*
X111808777Y-61859291D01*
X112092824Y-62053372D01*
X112430000Y-62121652D01*
X113630000Y-62121652D01*
X113944991Y-62062382D01*
X114234291Y-61876223D01*
X114428372Y-61592176D01*
X114496652Y-61255000D01*
X114496652Y-60055000D01*
X114437382Y-59740009D01*
X114251223Y-59450709D01*
X114246237Y-59447302D01*
X114427986Y-59265870D01*
X114679713Y-58659645D01*
X114680285Y-58003235D01*
X114429617Y-57396571D01*
X113965870Y-56932014D01*
X113359645Y-56680287D01*
X112703235Y-56679715D01*
X112096571Y-56930383D01*
X111649344Y-57376830D01*
X108802225Y-57376830D01*
X108344020Y-56551906D01*
X108131050Y-56300781D01*
X108069804Y-55825972D01*
X107661973Y-55115299D01*
X107013224Y-54614792D01*
X106222322Y-54400650D01*
X105409676Y-54505474D01*
X104699003Y-54913305D01*
X104198496Y-55562054D01*
X103984354Y-56352956D01*
X103938536Y-57025042D01*
X104043360Y-57837688D01*
X104451191Y-58548361D01*
X104796522Y-58814782D01*
X104977658Y-59140888D01*
X104104750Y-58778425D01*
X102973377Y-58777438D01*
X102096027Y-59139951D01*
X102276642Y-58814782D01*
X102621973Y-58548361D01*
X103029804Y-57837688D01*
X103134628Y-57025042D01*
X103088810Y-56352956D01*
X102874668Y-55562054D01*
X102374161Y-54913305D01*
X101663488Y-54505474D01*
X100850842Y-54400650D01*
X100059940Y-54614792D01*
X99411191Y-55115299D01*
X99003360Y-55825972D01*
X98942114Y-56300782D01*
X98729144Y-56551907D01*
X97862396Y-58112346D01*
X97611916Y-58892501D01*
X97679054Y-59709126D01*
X97845903Y-60033780D01*
X97494358Y-60179036D01*
X97015470Y-60657089D01*
X96755978Y-61282016D01*
X96755387Y-61958676D01*
X97013788Y-62584054D01*
X97491841Y-63062942D01*
X98116768Y-63322434D01*
X98793428Y-63323025D01*
X99156582Y-63172973D01*
X99156582Y-74670670D01*
X99003360Y-74937670D01*
X98942114Y-75412480D01*
X98729144Y-75663605D01*
X97862396Y-77224044D01*
X97611916Y-78004199D01*
X97679054Y-78820824D01*
X97845903Y-79145478D01*
X97494358Y-79290734D01*
X97015470Y-79768787D01*
X96755978Y-80393714D01*
X96755387Y-81070374D01*
X97013788Y-81695752D01*
X97491841Y-82174640D01*
X98116768Y-82434132D01*
X98793428Y-82434723D01*
X99156582Y-82284671D01*
X99156582Y-93603754D01*
X99003360Y-93870754D01*
X98942114Y-94345564D01*
X98729144Y-94596689D01*
X97862396Y-96157128D01*
X97611916Y-96937283D01*
X97679054Y-97753908D01*
X97845903Y-98078562D01*
X97494358Y-98223818D01*
X97015470Y-98701871D01*
X96755978Y-99326798D01*
X96755387Y-100003458D01*
X97013788Y-100628836D01*
X97491841Y-101107724D01*
X98116768Y-101367216D01*
X98793428Y-101367807D01*
X99097044Y-101242355D01*
X99097044Y-112715452D01*
X98943822Y-112982452D01*
X98882576Y-113457262D01*
X98669606Y-113708387D01*
X97802858Y-115268826D01*
X97552378Y-116048981D01*
X97619516Y-116865606D01*
X97786365Y-117190260D01*
X97434820Y-117335516D01*
X96955932Y-117813569D01*
X96696440Y-118438496D01*
X96695849Y-119115156D01*
X94746042Y-119115156D01*
X94566223Y-118835709D01*
X94561237Y-118832302D01*
X94742986Y-118650870D01*
X94994713Y-118044645D01*
X94995285Y-117388235D01*
X94744617Y-116781571D01*
X94280870Y-116317014D01*
X93674645Y-116065287D01*
X93018235Y-116064715D01*
X92411571Y-116315383D01*
X91947014Y-116779130D01*
X91915389Y-116855292D01*
X89690527Y-116855292D01*
X89232322Y-116030368D01*
X89019352Y-115779243D01*
X88958106Y-115304434D01*
X88550275Y-114593761D01*
X87901526Y-114093254D01*
X87110624Y-113879112D01*
X86297978Y-113983936D01*
X85587305Y-114391767D01*
X85086798Y-115040516D01*
X84872656Y-115831418D01*
X84826838Y-116503504D01*
X84931662Y-117316150D01*
X85339493Y-118026823D01*
X85684824Y-118293244D01*
X85865960Y-118619350D01*
X84993052Y-118256887D01*
X83861679Y-118255900D01*
X82984329Y-118618413D01*
X83164944Y-118293244D01*
X83510275Y-118026823D01*
X83918106Y-117316150D01*
X84022930Y-116503504D01*
X83977112Y-115831418D01*
X83762970Y-115040516D01*
X83262463Y-114391767D01*
X82551790Y-113983936D01*
X81994884Y-113912100D01*
X81994884Y-110876177D01*
X92029662Y-110876177D01*
X92325906Y-111593143D01*
X92873971Y-112142166D01*
X93590419Y-112439661D01*
X94366177Y-112440338D01*
X95083143Y-112144094D01*
X95632166Y-111596029D01*
X95929661Y-110879581D01*
X95930338Y-110103823D01*
X95634094Y-109386857D01*
X95086029Y-108837834D01*
X94369581Y-108540339D01*
X93593823Y-108539662D01*
X92876857Y-108835906D01*
X92327834Y-109383971D01*
X92030339Y-110100419D01*
X92029662Y-110876177D01*
X81994884Y-110876177D01*
X81994884Y-105970000D01*
X92313348Y-105970000D01*
X92313348Y-107570000D01*
X92372618Y-107884991D01*
X92558777Y-108174291D01*
X92842824Y-108368372D01*
X93180000Y-108436652D01*
X94780000Y-108436652D01*
X95094991Y-108377382D01*
X95384291Y-108191223D01*
X95578372Y-107907176D01*
X95646652Y-107570000D01*
X95646652Y-105970000D01*
X95587382Y-105655009D01*
X95401223Y-105365709D01*
X95384079Y-105353995D01*
X95446652Y-105045000D01*
X95446652Y-103845000D01*
X95387382Y-103530009D01*
X95201223Y-103240709D01*
X94917176Y-103046628D01*
X94580000Y-102978348D01*
X93380000Y-102978348D01*
X93065009Y-103037618D01*
X92775709Y-103223777D01*
X92581628Y-103507824D01*
X92513348Y-103845000D01*
X92513348Y-105045000D01*
X92571631Y-105354745D01*
X92381628Y-105632824D01*
X92313348Y-105970000D01*
X81994884Y-105970000D01*
X81994884Y-103673781D01*
X82012537Y-103716505D01*
X82811841Y-104517205D01*
X83856716Y-104951075D01*
X84988089Y-104952062D01*
X86033719Y-104520017D01*
X86834419Y-103720713D01*
X87268289Y-102675838D01*
X87269276Y-101544465D01*
X87205443Y-101389978D01*
X87686182Y-101637044D01*
X87852906Y-101650751D01*
X87804280Y-101767856D01*
X87803689Y-102444516D01*
X88062090Y-103069894D01*
X88540143Y-103548782D01*
X89165070Y-103808274D01*
X89841730Y-103808865D01*
X90467108Y-103550464D01*
X90945996Y-103072411D01*
X91205488Y-102447484D01*
X91206079Y-101770824D01*
X90947678Y-101145446D01*
X90469625Y-100666558D01*
X90115597Y-100519553D01*
X90282412Y-100194966D01*
X90313842Y-99812670D01*
X92542882Y-99812670D01*
X92580383Y-99903429D01*
X92765439Y-100088808D01*
X92581628Y-100357824D01*
X92513348Y-100695000D01*
X92513348Y-101895000D01*
X92572618Y-102209991D01*
X92758777Y-102499291D01*
X93042824Y-102693372D01*
X93380000Y-102761652D01*
X94580000Y-102761652D01*
X94894991Y-102702382D01*
X95184291Y-102516223D01*
X95378372Y-102232176D01*
X95446652Y-101895000D01*
X95446652Y-100695000D01*
X95387382Y-100380009D01*
X95201223Y-100090709D01*
X95196237Y-100087302D01*
X95377986Y-99905870D01*
X95629713Y-99299645D01*
X95630285Y-98643235D01*
X95379617Y-98036571D01*
X94915870Y-97572014D01*
X94309645Y-97320287D01*
X93653235Y-97319715D01*
X93046571Y-97570383D01*
X92753773Y-97862670D01*
X89690527Y-97862670D01*
X89232322Y-97037746D01*
X89019352Y-96786621D01*
X88958106Y-96311812D01*
X88550275Y-95601139D01*
X87901526Y-95100632D01*
X87110624Y-94886490D01*
X86297978Y-94991314D01*
X85587305Y-95399145D01*
X85086798Y-96047894D01*
X84872656Y-96838796D01*
X84826838Y-97510882D01*
X84931662Y-98323528D01*
X85339493Y-99034201D01*
X85684824Y-99300622D01*
X85865960Y-99626728D01*
X84993052Y-99264265D01*
X83861679Y-99263278D01*
X82984329Y-99625791D01*
X83164944Y-99300622D01*
X83510275Y-99034201D01*
X83918106Y-98323528D01*
X84022930Y-97510882D01*
X83977112Y-96838796D01*
X83762970Y-96047894D01*
X83262463Y-95399145D01*
X82551790Y-94991314D01*
X81994884Y-94919478D01*
X81994884Y-86920000D01*
X92313348Y-86920000D01*
X92313348Y-88520000D01*
X92372618Y-88834991D01*
X92558777Y-89124291D01*
X92842824Y-89318372D01*
X93180000Y-89386652D01*
X94780000Y-89386652D01*
X95094991Y-89327382D01*
X95384291Y-89141223D01*
X95578372Y-88857176D01*
X95646652Y-88520000D01*
X95646652Y-87720000D01*
X96090000Y-87720000D01*
X96164217Y-88093117D01*
X96375571Y-88409429D01*
X96691883Y-88620783D01*
X97065000Y-88695000D01*
X97438117Y-88620783D01*
X97754429Y-88409429D01*
X97844429Y-88319429D01*
X98055782Y-88003117D01*
X98130000Y-87630000D01*
X98055782Y-87256883D01*
X97844429Y-86940571D01*
X97528117Y-86729218D01*
X97155000Y-86655000D01*
X96781883Y-86729218D01*
X96465571Y-86940571D01*
X96375571Y-87030571D01*
X96164217Y-87346883D01*
X96090000Y-87720000D01*
X95646652Y-87720000D01*
X95646652Y-86920000D01*
X95587382Y-86605009D01*
X95401223Y-86315709D01*
X95384079Y-86303995D01*
X95446652Y-85995000D01*
X95446652Y-84795000D01*
X95387382Y-84480009D01*
X95201223Y-84190709D01*
X94917176Y-83996628D01*
X94580000Y-83928348D01*
X93380000Y-83928348D01*
X93065009Y-83987618D01*
X92775709Y-84173777D01*
X92581628Y-84457824D01*
X92513348Y-84795000D01*
X92513348Y-85995000D01*
X92571631Y-86304745D01*
X92381628Y-86582824D01*
X92313348Y-86920000D01*
X81994884Y-86920000D01*
X81994884Y-84621621D01*
X82012537Y-84664345D01*
X82811841Y-85465045D01*
X83856716Y-85898915D01*
X84988089Y-85899902D01*
X86033719Y-85467857D01*
X86834419Y-84668553D01*
X87268289Y-83623678D01*
X87269276Y-82492305D01*
X87205443Y-82337818D01*
X87686182Y-82584884D01*
X87852906Y-82598591D01*
X87804280Y-82715696D01*
X87803689Y-83392356D01*
X88062090Y-84017734D01*
X88540143Y-84496622D01*
X89165070Y-84756114D01*
X89841730Y-84756705D01*
X90467108Y-84498304D01*
X90945996Y-84020251D01*
X91205488Y-83395324D01*
X91206079Y-82718664D01*
X90947678Y-82093286D01*
X90469625Y-81614398D01*
X90115597Y-81467393D01*
X90282412Y-81142806D01*
X90313842Y-80760510D01*
X92541990Y-80760510D01*
X92580383Y-80853429D01*
X92765439Y-81038808D01*
X92581628Y-81307824D01*
X92513348Y-81645000D01*
X92513348Y-82845000D01*
X92572618Y-83159991D01*
X92758777Y-83449291D01*
X93042824Y-83643372D01*
X93380000Y-83711652D01*
X94580000Y-83711652D01*
X94894991Y-83652382D01*
X95184291Y-83466223D01*
X95378372Y-83182176D01*
X95446652Y-82845000D01*
X95446652Y-81645000D01*
X95387382Y-81330009D01*
X95201223Y-81040709D01*
X95196237Y-81037302D01*
X95377986Y-80855870D01*
X95629713Y-80249645D01*
X95630285Y-79593235D01*
X95379617Y-78986571D01*
X94915870Y-78522014D01*
X94309645Y-78270287D01*
X93653235Y-78269715D01*
X93046571Y-78520383D01*
X92755937Y-78810510D01*
X89690527Y-78810510D01*
X89232322Y-77985586D01*
X89019352Y-77734461D01*
X88958106Y-77259652D01*
X88550275Y-76548979D01*
X87901526Y-76048472D01*
X87110624Y-75834330D01*
X86297978Y-75939154D01*
X85587305Y-76346985D01*
X85086798Y-76995734D01*
X84872656Y-77786636D01*
X84826838Y-78458722D01*
X84931662Y-79271368D01*
X85339493Y-79982041D01*
X85684824Y-80248462D01*
X85865960Y-80574568D01*
X84993052Y-80212105D01*
X83861679Y-80211118D01*
X82984329Y-80573631D01*
X83164944Y-80248462D01*
X83510275Y-79982041D01*
X83918106Y-79271368D01*
X84022930Y-78458722D01*
X83977112Y-77786636D01*
X83762970Y-76995734D01*
X83262463Y-76346985D01*
X82551790Y-75939154D01*
X82014288Y-75869821D01*
X82014288Y-72776177D01*
X92029662Y-72776177D01*
X92325906Y-73493143D01*
X92873971Y-74042166D01*
X93590419Y-74339661D01*
X94366177Y-74340338D01*
X95083143Y-74044094D01*
X95632166Y-73496029D01*
X95929661Y-72779581D01*
X95930338Y-72003823D01*
X95634094Y-71286857D01*
X95086029Y-70737834D01*
X94369581Y-70440339D01*
X93593823Y-70439662D01*
X92876857Y-70735906D01*
X92327834Y-71283971D01*
X92030339Y-72000419D01*
X92029662Y-72776177D01*
X82014288Y-72776177D01*
X82014288Y-67870000D01*
X91678348Y-67870000D01*
X91678348Y-69470000D01*
X91737618Y-69784991D01*
X91923777Y-70074291D01*
X92207824Y-70268372D01*
X92545000Y-70336652D01*
X94145000Y-70336652D01*
X94459991Y-70277382D01*
X94749291Y-70091223D01*
X94943372Y-69807176D01*
X95011652Y-69470000D01*
X95011652Y-67870000D01*
X94952382Y-67555009D01*
X94766223Y-67265709D01*
X94749079Y-67253995D01*
X94811652Y-66945000D01*
X94811652Y-65745000D01*
X94752382Y-65430009D01*
X94566223Y-65140709D01*
X94282176Y-64946628D01*
X93945000Y-64878348D01*
X92745000Y-64878348D01*
X92430009Y-64937618D01*
X92140709Y-65123777D01*
X91946628Y-65407824D01*
X91878348Y-65745000D01*
X91878348Y-66945000D01*
X91936631Y-67254745D01*
X91746628Y-67532824D01*
X91678348Y-67870000D01*
X82014288Y-67870000D01*
X82014288Y-65509923D01*
X82031941Y-65552647D01*
X82831245Y-66353347D01*
X83876120Y-66787217D01*
X85007493Y-66788204D01*
X86053123Y-66356159D01*
X86853823Y-65556855D01*
X87287693Y-64511980D01*
X87288680Y-63380607D01*
X87224847Y-63226120D01*
X87705586Y-63473186D01*
X87872310Y-63486893D01*
X87823684Y-63603998D01*
X87823093Y-64280658D01*
X88081494Y-64906036D01*
X88559547Y-65384924D01*
X89184474Y-65644416D01*
X89861134Y-65645007D01*
X90486512Y-65386606D01*
X90965400Y-64908553D01*
X91224892Y-64283626D01*
X91225483Y-63606966D01*
X90967082Y-62981588D01*
X90489029Y-62502700D01*
X90135001Y-62355695D01*
X90301816Y-62031108D01*
X90333246Y-61648812D01*
X91881497Y-61648812D01*
X91945383Y-61803429D01*
X92130439Y-61988808D01*
X91946628Y-62257824D01*
X91878348Y-62595000D01*
X91878348Y-63795000D01*
X91937618Y-64109991D01*
X92123777Y-64399291D01*
X92407824Y-64593372D01*
X92745000Y-64661652D01*
X93945000Y-64661652D01*
X94259991Y-64602382D01*
X94549291Y-64416223D01*
X94743372Y-64132176D01*
X94811652Y-63795000D01*
X94811652Y-62595000D01*
X94752382Y-62280009D01*
X94566223Y-61990709D01*
X94561237Y-61987302D01*
X94742986Y-61805870D01*
X94994713Y-61199645D01*
X94995285Y-60543235D01*
X94744617Y-59936571D01*
X94280870Y-59472014D01*
X93674645Y-59220287D01*
X93018235Y-59219715D01*
X92411571Y-59470383D01*
X92182743Y-59698812D01*
X89709931Y-59698812D01*
X89251726Y-58873888D01*
X89038756Y-58622763D01*
X88977510Y-58147954D01*
X88569679Y-57437281D01*
X87920930Y-56936774D01*
X87130028Y-56722632D01*
X86317382Y-56827456D01*
X85606709Y-57235287D01*
X85106202Y-57884036D01*
X84892060Y-58674938D01*
X84846242Y-59347024D01*
X84951066Y-60159670D01*
X85358897Y-60870343D01*
X85704228Y-61136764D01*
X85885364Y-61462870D01*
X85012456Y-61100407D01*
X83881083Y-61099420D01*
X83003733Y-61461933D01*
X83184348Y-61136764D01*
X83529679Y-60870343D01*
X83937510Y-60159670D01*
X84042334Y-59347024D01*
X83996516Y-58674938D01*
X83782374Y-57884036D01*
X83281867Y-57235287D01*
X82571194Y-56827456D01*
X81758548Y-56722632D01*
X80967646Y-56936774D01*
X80318897Y-57437281D01*
X79911066Y-58147954D01*
X79849820Y-58622764D01*
X79636850Y-58873889D01*
X78770102Y-60434328D01*
X78519622Y-61214483D01*
X78586760Y-62031108D01*
X78753609Y-62355762D01*
X78402064Y-62501018D01*
X77923176Y-62979071D01*
X77663684Y-63603998D01*
X77663093Y-64280658D01*
X77921494Y-64906036D01*
X78399547Y-65384924D01*
X79024474Y-65644416D01*
X79701134Y-65645007D01*
X80064288Y-65494955D01*
X80064288Y-76958840D01*
X79891662Y-77259652D01*
X79830416Y-77734462D01*
X79617446Y-77985587D01*
X78750698Y-79546026D01*
X78500218Y-80326181D01*
X78567356Y-81142806D01*
X78734205Y-81467460D01*
X78382660Y-81612716D01*
X77903772Y-82090769D01*
X77644280Y-82715696D01*
X77643689Y-83392356D01*
X75855000Y-83392356D01*
X75855000Y-54201853D01*
X76078901Y-54109111D01*
X76109462Y-54078551D01*
X97630670Y-50436500D01*
X108180000Y-50436500D01*
X108180000Y-50939076D01*
X108309405Y-51251487D01*
X108548514Y-51490595D01*
X108860925Y-51620000D01*
X109713500Y-51620000D01*
X109926000Y-51407500D01*
X109926000Y-50224000D01*
X109934000Y-50224000D01*
X109934000Y-51407500D01*
X110146500Y-51620000D01*
X110999075Y-51620000D01*
X111311486Y-51490595D01*
X111550595Y-51251487D01*
X111680000Y-50939076D01*
X111680000Y-50436500D01*
X114380000Y-50436500D01*
X114380000Y-50939076D01*
X114509405Y-51251487D01*
X114748514Y-51490595D01*
X115060925Y-51620000D01*
X115913500Y-51620000D01*
X116126000Y-51407500D01*
X116126000Y-50224000D01*
X114592500Y-50224000D01*
X114380000Y-50436500D01*
X111680000Y-50436500D01*
X111467500Y-50224000D01*
X109934000Y-50224000D01*
X109926000Y-50224000D01*
X108392500Y-50224000D01*
X108180000Y-50436500D01*
X97630670Y-50436500D01*
X103159073Y-49500924D01*
X108180000Y-49500924D01*
X108180000Y-50003500D01*
X108392500Y-50216000D01*
X109926000Y-50216000D01*
X109926000Y-49032500D01*
X109934000Y-49032500D01*
X109934000Y-50216000D01*
X111467500Y-50216000D01*
X111680000Y-50003500D01*
X111680000Y-49500924D01*
X114380000Y-49500924D01*
X114380000Y-50003500D01*
X114592500Y-50216000D01*
X116126000Y-50216000D01*
X116126000Y-49032500D01*
X116134000Y-49032500D01*
X116134000Y-50216000D01*
X117667500Y-50216000D01*
X117880000Y-50003500D01*
X117880000Y-49500924D01*
X117750595Y-49188513D01*
X117511486Y-48949405D01*
X117199075Y-48820000D01*
X116346500Y-48820000D01*
X116134000Y-49032500D01*
X116126000Y-49032500D01*
X115913500Y-48820000D01*
X115060925Y-48820000D01*
X114748514Y-48949405D01*
X114509405Y-49188513D01*
X114380000Y-49500924D01*
X111680000Y-49500924D01*
X111550595Y-49188513D01*
X111311486Y-48949405D01*
X110999075Y-48820000D01*
X110146500Y-48820000D01*
X109934000Y-49032500D01*
X109926000Y-49032500D01*
X109713500Y-48820000D01*
X108860925Y-48820000D01*
X108548514Y-48949405D01*
X108309405Y-49188513D01*
X108180000Y-49500924D01*
X103159073Y-49500924D01*
X107715218Y-48729884D01*
X118528784Y-48729884D01*
X118719728Y-48995773D01*
X120203224Y-48995773D01*
X120203224Y-47512278D01*
X119937335Y-47321333D01*
X119814257Y-47345815D01*
X119211228Y-47622097D01*
X118759830Y-48108117D01*
X118528784Y-48729884D01*
X107715218Y-48729884D01*
X116282715Y-47280000D01*
X122679194Y-47280000D01*
X122096662Y-47395873D01*
X122096662Y-47395873D01*
G37*
X122096662Y-47395873D02*
X121545142Y-47764386D01*
X121457372Y-47895743D01*
X121203220Y-47622097D01*
X120600191Y-47345815D01*
X120477113Y-47321333D01*
X120211224Y-47512278D01*
X120211224Y-48995773D01*
X120231224Y-48995773D01*
X120231224Y-49003773D01*
X120211224Y-49003773D01*
X120211224Y-49023773D01*
X120203224Y-49023773D01*
X120203224Y-49003773D01*
X118719728Y-49003773D01*
X118528784Y-49269662D01*
X118759830Y-49891429D01*
X119211228Y-50377449D01*
X119391409Y-50460000D01*
X117880000Y-50460000D01*
X117880000Y-50436500D01*
X117667500Y-50224000D01*
X116134000Y-50224000D01*
X116134000Y-51407500D01*
X116298821Y-51572321D01*
X115440571Y-52430571D01*
X115391943Y-52503348D01*
X115230000Y-52503348D01*
X114915009Y-52562618D01*
X114625709Y-52748777D01*
X114491636Y-52945000D01*
X113680717Y-52945000D01*
X113259753Y-52770200D01*
X112802254Y-52769801D01*
X112379428Y-52944509D01*
X112378936Y-52945000D01*
X111566593Y-52945000D01*
X111451223Y-52765709D01*
X111167176Y-52571628D01*
X110830000Y-52503348D01*
X109030000Y-52503348D01*
X108715009Y-52562618D01*
X108425709Y-52748777D01*
X108231628Y-53032824D01*
X108163348Y-53370000D01*
X108163348Y-54470000D01*
X108222618Y-54784991D01*
X108408777Y-55074291D01*
X108692824Y-55268372D01*
X109030000Y-55336652D01*
X110830000Y-55336652D01*
X111144991Y-55277382D01*
X111434291Y-55091223D01*
X111568364Y-54895000D01*
X112379283Y-54895000D01*
X112800247Y-55069800D01*
X113257746Y-55070199D01*
X113680572Y-54895491D01*
X113681064Y-54895000D01*
X114493407Y-54895000D01*
X114608777Y-55074291D01*
X114892824Y-55268372D01*
X115230000Y-55336652D01*
X117007822Y-55336652D01*
X116855018Y-55611750D01*
X116604538Y-56391905D01*
X116671676Y-57208530D01*
X116838525Y-57533184D01*
X116486980Y-57678440D01*
X116008092Y-58156493D01*
X115748600Y-58781420D01*
X115748009Y-59458080D01*
X116006410Y-60083458D01*
X116484463Y-60562346D01*
X117109390Y-60821838D01*
X117786050Y-60822429D01*
X118149204Y-60672377D01*
X118149204Y-72229612D01*
X117995982Y-72496612D01*
X117934736Y-72971422D01*
X117721766Y-73222547D01*
X116855018Y-74782986D01*
X116604538Y-75563141D01*
X116671676Y-76379766D01*
X116838525Y-76704420D01*
X116486980Y-76849676D01*
X116008092Y-77327729D01*
X115748600Y-77952656D01*
X115748009Y-78629316D01*
X116006410Y-79254694D01*
X116484463Y-79733582D01*
X117109390Y-79993074D01*
X117786050Y-79993665D01*
X118089666Y-79868213D01*
X118089666Y-91222234D01*
X117936444Y-91489234D01*
X117875198Y-91964044D01*
X117662228Y-92215169D01*
X116795480Y-93775608D01*
X116545000Y-94555763D01*
X116612138Y-95372388D01*
X116778987Y-95697042D01*
X116427442Y-95842298D01*
X115948554Y-96320351D01*
X115689062Y-96945278D01*
X115688471Y-97621938D01*
X115946872Y-98247316D01*
X116424925Y-98726204D01*
X117049852Y-98985696D01*
X117726512Y-98986287D01*
X118189472Y-98794996D01*
X118189472Y-110333932D01*
X118036250Y-110600932D01*
X117975004Y-111075742D01*
X117762034Y-111326867D01*
X116895286Y-112887306D01*
X116644806Y-113667461D01*
X116711944Y-114484086D01*
X116878793Y-114808740D01*
X116527248Y-114953996D01*
X116048360Y-115432049D01*
X115788868Y-116056976D01*
X115788277Y-116733636D01*
X116046678Y-117359014D01*
X116524731Y-117837902D01*
X117149658Y-118097394D01*
X117826318Y-118097985D01*
X118451696Y-117839584D01*
X118930584Y-117361531D01*
X119190076Y-116736604D01*
X119190667Y-116059944D01*
X119141067Y-115939903D01*
X119308174Y-115926164D01*
X119787949Y-115679593D01*
X119726067Y-115828622D01*
X119725080Y-116959995D01*
X120157125Y-118005625D01*
X120956429Y-118806325D01*
X122001304Y-119240195D01*
X123132677Y-119241182D01*
X124178307Y-118809137D01*
X124979007Y-118009833D01*
X125412877Y-116964958D01*
X125413864Y-115833585D01*
X125350031Y-115679098D01*
X125830770Y-115926164D01*
X125997494Y-115939871D01*
X125948868Y-116056976D01*
X125948277Y-116733636D01*
X126206678Y-117359014D01*
X126684731Y-117837902D01*
X127309658Y-118097394D01*
X127986318Y-118097985D01*
X128611696Y-117839584D01*
X129090584Y-117361531D01*
X129350076Y-116736604D01*
X129350667Y-116059944D01*
X129092266Y-115434566D01*
X128614213Y-114955678D01*
X128260185Y-114808673D01*
X128427000Y-114484086D01*
X128458430Y-114101790D01*
X130648716Y-114101790D01*
X130680383Y-114178429D01*
X130865439Y-114363808D01*
X130681628Y-114632824D01*
X130613348Y-114970000D01*
X130613348Y-116170000D01*
X130672618Y-116484991D01*
X130858777Y-116774291D01*
X131142824Y-116968372D01*
X131480000Y-117036652D01*
X132680000Y-117036652D01*
X132994991Y-116977382D01*
X133284291Y-116791223D01*
X133478372Y-116507176D01*
X133546652Y-116170000D01*
X133546652Y-114970000D01*
X133487382Y-114655009D01*
X133301223Y-114365709D01*
X133296237Y-114362302D01*
X133477986Y-114180870D01*
X133729713Y-113574645D01*
X133730285Y-112918235D01*
X133479617Y-112311571D01*
X133015870Y-111847014D01*
X132409645Y-111595287D01*
X131753235Y-111594715D01*
X131146571Y-111845383D01*
X130839629Y-112151790D01*
X127835115Y-112151790D01*
X127376910Y-111326866D01*
X127163940Y-111075741D01*
X127102694Y-110600932D01*
X126694863Y-109890259D01*
X126046114Y-109389752D01*
X125255212Y-109175610D01*
X124442566Y-109280434D01*
X123731893Y-109688265D01*
X123231386Y-110337014D01*
X123017244Y-111127916D01*
X122971426Y-111800002D01*
X123076250Y-112612648D01*
X123484081Y-113323321D01*
X123829412Y-113589742D01*
X124010548Y-113915848D01*
X123137640Y-113553385D01*
X122006267Y-113552398D01*
X121128917Y-113914911D01*
X121309532Y-113589742D01*
X121654863Y-113323321D01*
X122062694Y-112612648D01*
X122167518Y-111800002D01*
X122121700Y-111127916D01*
X121907558Y-110337014D01*
X121407051Y-109688265D01*
X120696378Y-109280434D01*
X120139472Y-109208598D01*
X120139472Y-100890000D01*
X130413348Y-100890000D01*
X130413348Y-102490000D01*
X130472618Y-102804991D01*
X130658777Y-103094291D01*
X130942824Y-103288372D01*
X131280000Y-103356652D01*
X132880000Y-103356652D01*
X133194991Y-103297382D01*
X133484291Y-103111223D01*
X133678372Y-102827176D01*
X133746652Y-102490000D01*
X133746652Y-100890000D01*
X133687382Y-100575009D01*
X133501223Y-100285709D01*
X133484079Y-100273995D01*
X133546652Y-99965000D01*
X133546652Y-98765000D01*
X133487382Y-98450009D01*
X133301223Y-98160709D01*
X133017176Y-97966628D01*
X132680000Y-97898348D01*
X131480000Y-97898348D01*
X131165009Y-97957618D01*
X130875709Y-98143777D01*
X130681628Y-98427824D01*
X130613348Y-98765000D01*
X130613348Y-99965000D01*
X130671631Y-100274745D01*
X130481628Y-100552824D01*
X130413348Y-100890000D01*
X120139472Y-100890000D01*
X120139472Y-98976223D01*
X120856623Y-99694627D01*
X121901498Y-100128497D01*
X123032871Y-100129484D01*
X124078501Y-99697439D01*
X124879201Y-98898135D01*
X125313071Y-97853260D01*
X125314058Y-96721887D01*
X125250225Y-96567400D01*
X125730964Y-96814466D01*
X125897688Y-96828173D01*
X125849062Y-96945278D01*
X125848471Y-97621938D01*
X126106872Y-98247316D01*
X126584925Y-98726204D01*
X127209852Y-98985696D01*
X127886512Y-98986287D01*
X128511890Y-98727886D01*
X128990778Y-98249833D01*
X129250270Y-97624906D01*
X129250861Y-96948246D01*
X128992460Y-96322868D01*
X128514407Y-95843980D01*
X128160379Y-95696975D01*
X128327194Y-95372388D01*
X128358624Y-94990092D01*
X130846755Y-94990092D01*
X130865439Y-95008808D01*
X130681628Y-95277824D01*
X130613348Y-95615000D01*
X130613348Y-96815000D01*
X130672618Y-97129991D01*
X130858777Y-97419291D01*
X131142824Y-97613372D01*
X131480000Y-97681652D01*
X132680000Y-97681652D01*
X132994991Y-97622382D01*
X133284291Y-97436223D01*
X133478372Y-97152176D01*
X133546652Y-96815000D01*
X133546652Y-95615000D01*
X133487382Y-95300009D01*
X133301223Y-95010709D01*
X133296237Y-95007302D01*
X133477986Y-94825870D01*
X133729713Y-94219645D01*
X133730285Y-93563235D01*
X133479617Y-92956571D01*
X133015870Y-92492014D01*
X132409645Y-92240287D01*
X131753235Y-92239715D01*
X131146571Y-92490383D01*
X130682014Y-92954130D01*
X130646319Y-93040092D01*
X127735309Y-93040092D01*
X127277104Y-92215168D01*
X127064134Y-91964043D01*
X127002888Y-91489234D01*
X126595057Y-90778561D01*
X125946308Y-90278054D01*
X125155406Y-90063912D01*
X124342760Y-90168736D01*
X123632087Y-90576567D01*
X123131580Y-91225316D01*
X122917438Y-92016218D01*
X122871620Y-92688304D01*
X122976444Y-93500950D01*
X123384275Y-94211623D01*
X123729606Y-94478044D01*
X123910742Y-94804150D01*
X123037834Y-94441687D01*
X121906461Y-94440700D01*
X121029111Y-94803213D01*
X121209726Y-94478044D01*
X121555057Y-94211623D01*
X121962888Y-93500950D01*
X122067712Y-92688304D01*
X122021894Y-92016218D01*
X121807752Y-91225316D01*
X121307245Y-90576567D01*
X120596572Y-90168736D01*
X120039666Y-90096900D01*
X120039666Y-79714488D01*
X120116857Y-79901305D01*
X120916161Y-80702005D01*
X121961036Y-81135875D01*
X123092409Y-81136862D01*
X124138039Y-80704817D01*
X124938739Y-79905513D01*
X125372609Y-78860638D01*
X125373596Y-77729265D01*
X125309763Y-77574778D01*
X125790502Y-77821844D01*
X125957226Y-77835551D01*
X125908600Y-77952656D01*
X125908009Y-78629316D01*
X126166410Y-79254694D01*
X126644463Y-79733582D01*
X127269390Y-79993074D01*
X127946050Y-79993665D01*
X128571428Y-79735264D01*
X129050316Y-79257211D01*
X129153898Y-79007756D01*
X129795236Y-79649094D01*
X129794715Y-80246765D01*
X130045383Y-80853429D01*
X130230439Y-81038808D01*
X130046628Y-81307824D01*
X129978348Y-81645000D01*
X129978348Y-82845000D01*
X130037618Y-83159991D01*
X130223777Y-83449291D01*
X130507824Y-83643372D01*
X130845000Y-83711652D01*
X131395001Y-83711652D01*
X131395001Y-83928348D01*
X130845000Y-83928348D01*
X130530009Y-83987618D01*
X130240709Y-84173777D01*
X130046628Y-84457824D01*
X129978348Y-84795000D01*
X129978348Y-85995000D01*
X130036631Y-86304745D01*
X129846628Y-86582824D01*
X129778348Y-86920000D01*
X129778348Y-88520000D01*
X129837618Y-88834991D01*
X130023777Y-89124291D01*
X130307824Y-89318372D01*
X130645000Y-89386652D01*
X132245000Y-89386652D01*
X132559991Y-89327382D01*
X132849291Y-89141223D01*
X133043372Y-88857176D01*
X133111652Y-88520000D01*
X133111652Y-86920000D01*
X133052382Y-86605009D01*
X132988353Y-86505505D01*
X133059430Y-86434428D01*
X133270784Y-86118116D01*
X133345001Y-85744999D01*
X133345001Y-82167235D01*
X137455000Y-78057236D01*
X137455000Y-88562023D01*
X137107680Y-89167252D01*
X137046434Y-89642062D01*
X136833464Y-89893187D01*
X135966716Y-91453626D01*
X135716236Y-92233781D01*
X135783374Y-93050406D01*
X135950223Y-93375060D01*
X135598678Y-93520316D01*
X135119790Y-93998369D01*
X134860298Y-94623296D01*
X134859707Y-95299956D01*
X135118108Y-95925334D01*
X135596161Y-96404222D01*
X136221088Y-96663714D01*
X136897748Y-96664305D01*
X137260902Y-96514253D01*
X137260902Y-107848663D01*
X137048142Y-108219412D01*
X136986896Y-108694222D01*
X136773926Y-108945347D01*
X135907178Y-110505786D01*
X135656698Y-111285941D01*
X135723836Y-112102566D01*
X135890685Y-112427220D01*
X135539140Y-112572476D01*
X135060252Y-113050529D01*
X134800760Y-113675456D01*
X134800169Y-114352116D01*
X135058570Y-114977494D01*
X135536623Y-115456382D01*
X136161550Y-115715874D01*
X136838210Y-115716465D01*
X137463588Y-115458064D01*
X137942476Y-114980011D01*
X138201968Y-114355084D01*
X138202559Y-113678424D01*
X138152959Y-113558383D01*
X138320066Y-113544644D01*
X138799841Y-113298073D01*
X138737959Y-113447102D01*
X138736972Y-114578475D01*
X139169017Y-115624105D01*
X139968321Y-116424805D01*
X141013196Y-116858675D01*
X142144569Y-116859662D01*
X143190199Y-116427617D01*
X143990899Y-115628313D01*
X144424769Y-114583438D01*
X144425756Y-113452065D01*
X144361923Y-113297578D01*
X144842662Y-113544644D01*
X145009386Y-113558351D01*
X144960760Y-113675456D01*
X144960169Y-114352116D01*
X145218570Y-114977494D01*
X145696623Y-115456382D01*
X146321550Y-115715874D01*
X146998210Y-115716465D01*
X147623588Y-115458064D01*
X148102476Y-114980011D01*
X148361968Y-114355084D01*
X148362559Y-113678424D01*
X148104158Y-113053046D01*
X147626105Y-112574158D01*
X147272077Y-112427153D01*
X147438892Y-112102566D01*
X147470322Y-111720270D01*
X149812081Y-111720270D01*
X149915439Y-111823808D01*
X149731628Y-112092824D01*
X149663348Y-112430000D01*
X149663348Y-113630000D01*
X149722618Y-113944991D01*
X149908777Y-114234291D01*
X150192824Y-114428372D01*
X150530000Y-114496652D01*
X151730000Y-114496652D01*
X152044991Y-114437382D01*
X152334291Y-114251223D01*
X152528372Y-113967176D01*
X152596652Y-113630000D01*
X152596652Y-112430000D01*
X152537382Y-112115009D01*
X152351223Y-111825709D01*
X152346237Y-111822302D01*
X152527986Y-111640870D01*
X152695000Y-111238656D01*
X152695000Y-116611142D01*
X152596652Y-116709490D01*
X152596652Y-115580000D01*
X152537382Y-115265009D01*
X152351223Y-114975709D01*
X152067176Y-114781628D01*
X151730000Y-114713348D01*
X150530000Y-114713348D01*
X150215009Y-114772618D01*
X149925709Y-114958777D01*
X149731628Y-115242824D01*
X149663348Y-115580000D01*
X149663348Y-116780000D01*
X149721631Y-117089745D01*
X149531628Y-117367824D01*
X149463348Y-117705000D01*
X149463348Y-119305000D01*
X149522618Y-119619991D01*
X149586647Y-119719495D01*
X149236142Y-120070000D01*
X133713723Y-120070000D01*
X133687382Y-119930009D01*
X133501223Y-119640709D01*
X133484079Y-119628995D01*
X133546652Y-119320000D01*
X133546652Y-118120000D01*
X133487382Y-117805009D01*
X133301223Y-117515709D01*
X133017176Y-117321628D01*
X132680000Y-117253348D01*
X131480000Y-117253348D01*
X131165009Y-117312618D01*
X130875709Y-117498777D01*
X130681628Y-117782824D01*
X130613348Y-118120000D01*
X130613348Y-119320000D01*
X130671631Y-119629745D01*
X130481628Y-119907824D01*
X130413348Y-120245000D01*
X130413348Y-121845000D01*
X130472618Y-122159991D01*
X130536647Y-122259495D01*
X130491142Y-122305000D01*
X114663723Y-122305000D01*
X114637382Y-122165009D01*
X114451223Y-121875709D01*
X114434079Y-121863995D01*
X114496652Y-121555000D01*
X114496652Y-120355000D01*
X114437382Y-120040009D01*
X114251223Y-119750709D01*
X113967176Y-119556628D01*
X113630000Y-119488348D01*
X112430000Y-119488348D01*
X112115009Y-119547618D01*
X111825709Y-119733777D01*
X111631628Y-120017824D01*
X111563348Y-120355000D01*
X111563348Y-121555000D01*
X111621631Y-121864745D01*
X111431628Y-122142824D01*
X111363348Y-122480000D01*
X111363348Y-124080000D01*
X111422618Y-124394991D01*
X111486647Y-124494495D01*
X111441142Y-124540000D01*
X94978723Y-124540000D01*
X94952382Y-124400009D01*
X94766223Y-124110709D01*
X94749079Y-124098995D01*
X94811652Y-123790000D01*
X94811652Y-122590000D01*
X94752382Y-122275009D01*
X94566223Y-121985709D01*
X94282176Y-121791628D01*
X93945000Y-121723348D01*
X92745000Y-121723348D01*
X92430009Y-121782618D01*
X92140709Y-121968777D01*
X91946628Y-122252824D01*
X91878348Y-122590000D01*
X91878348Y-123790000D01*
X91936631Y-124099745D01*
X91746628Y-124377824D01*
X91678348Y-124715000D01*
X91678348Y-126315000D01*
X91737618Y-126629991D01*
X91923777Y-126919291D01*
X92207824Y-127113372D01*
X92545000Y-127181652D01*
X94145000Y-127181652D01*
X94459991Y-127122382D01*
X94749291Y-126936223D01*
X94943372Y-126652176D01*
X94976214Y-126490000D01*
X111845000Y-126490000D01*
X112218117Y-126415783D01*
X112534429Y-126204429D01*
X113719429Y-125019429D01*
X113768057Y-124946652D01*
X113830000Y-124946652D01*
X114144991Y-124887382D01*
X114434291Y-124701223D01*
X114628372Y-124417176D01*
X114661214Y-124255000D01*
X130317369Y-124255000D01*
X130130339Y-124705419D01*
X130129662Y-125481177D01*
X130425906Y-126198143D01*
X130973971Y-126747166D01*
X131690419Y-127044661D01*
X132466177Y-127045338D01*
X133183143Y-126749094D01*
X133732166Y-126201029D01*
X134029661Y-125484581D01*
X134030338Y-124708823D01*
X133734094Y-123991857D01*
X133186029Y-123442834D01*
X132469581Y-123145339D01*
X132408572Y-123145286D01*
X132769429Y-122784429D01*
X132818057Y-122711652D01*
X132880000Y-122711652D01*
X133194991Y-122652382D01*
X133484291Y-122466223D01*
X133678372Y-122182176D01*
X133711214Y-122020000D01*
X149640000Y-122020000D01*
X150013117Y-121945783D01*
X150329429Y-121734429D01*
X151819429Y-120244429D01*
X151868057Y-120171652D01*
X151930000Y-120171652D01*
X152244991Y-120112382D01*
X152534291Y-119926223D01*
X152728372Y-119642176D01*
X152796652Y-119305000D01*
X152796652Y-119243057D01*
X152869429Y-119194429D01*
X154359429Y-117704429D01*
X154437637Y-117587382D01*
X154570783Y-117388116D01*
X154645000Y-117015000D01*
X154645000Y-99075717D01*
X154760520Y-98797515D01*
X155213710Y-98985696D01*
X155890370Y-98986287D01*
X156253524Y-98836235D01*
X156253524Y-107381212D01*
X156327741Y-107754329D01*
X156539095Y-108070641D01*
X162346258Y-113877804D01*
X162263675Y-113979603D01*
X161881527Y-114704410D01*
X161805840Y-115520287D01*
X161904113Y-115837755D01*
X161902573Y-115837754D01*
X161277195Y-116096155D01*
X160798307Y-116574208D01*
X160538815Y-117199135D01*
X160538224Y-117875795D01*
X160796625Y-118501173D01*
X161274678Y-118980061D01*
X161899605Y-119239553D01*
X162576265Y-119240144D01*
X163201643Y-118981743D01*
X163680531Y-118503690D01*
X163940023Y-117878763D01*
X163940463Y-117375355D01*
X164112213Y-117391288D01*
X164661069Y-117221389D01*
X164398837Y-117852914D01*
X164397850Y-118984287D01*
X164829895Y-120029917D01*
X165629199Y-120830617D01*
X166674074Y-121264487D01*
X167805447Y-121265474D01*
X168851077Y-120833429D01*
X169651777Y-120034125D01*
X170085647Y-118989250D01*
X170086351Y-118182837D01*
X170535717Y-118523924D01*
X170708162Y-118569164D01*
X170544461Y-118963401D01*
X170543870Y-119640061D01*
X170802271Y-120265439D01*
X171280324Y-120744327D01*
X171905251Y-121003819D01*
X172581911Y-121004410D01*
X173207289Y-120746009D01*
X173686177Y-120267956D01*
X173945669Y-119643029D01*
X173946260Y-118966369D01*
X173687859Y-118340991D01*
X173209806Y-117862103D01*
X173133538Y-117830434D01*
X173342918Y-117554585D01*
X173550842Y-116762026D01*
X173439639Y-115950228D01*
X172857027Y-114262986D01*
X172690900Y-113978693D01*
X172713034Y-113500459D01*
X172434805Y-112729764D01*
X171882824Y-112124207D01*
X171141123Y-111775980D01*
X170322620Y-111738098D01*
X169551924Y-112016326D01*
X168946368Y-112568308D01*
X168598141Y-113310009D01*
X168436313Y-113963930D01*
X168398430Y-114782433D01*
X168676659Y-115553128D01*
X168970481Y-115875468D01*
X169103238Y-116259933D01*
X168855285Y-116011547D01*
X167810410Y-115577677D01*
X166679037Y-115576690D01*
X166223641Y-115764856D01*
X166488883Y-115437893D01*
X166875232Y-115235485D01*
X167400274Y-114606427D01*
X167644619Y-113824328D01*
X167716203Y-113154497D01*
X167642652Y-112338425D01*
X167262403Y-111612620D01*
X166633345Y-111087578D01*
X165851246Y-110843233D01*
X165035175Y-110916784D01*
X164309370Y-111297034D01*
X163784328Y-111926092D01*
X163641563Y-112383053D01*
X163623893Y-112397723D01*
X158203524Y-106977354D01*
X158203524Y-100980000D01*
X168513348Y-100980000D01*
X168513348Y-102580000D01*
X168572618Y-102894991D01*
X168758777Y-103184291D01*
X169042824Y-103378372D01*
X169380000Y-103446652D01*
X170980000Y-103446652D01*
X171294991Y-103387382D01*
X171584291Y-103201223D01*
X171778372Y-102917176D01*
X171846652Y-102580000D01*
X171846652Y-100980000D01*
X171787382Y-100665009D01*
X171601223Y-100375709D01*
X171584079Y-100363995D01*
X171646652Y-100055000D01*
X171646652Y-98855000D01*
X171587382Y-98540009D01*
X171401223Y-98250709D01*
X171117176Y-98056628D01*
X170780000Y-97988348D01*
X169580000Y-97988348D01*
X169265009Y-98047618D01*
X168975709Y-98233777D01*
X168781628Y-98517824D01*
X168713348Y-98855000D01*
X168713348Y-100055000D01*
X168771631Y-100364745D01*
X168581628Y-100642824D01*
X168513348Y-100980000D01*
X158203524Y-100980000D01*
X158203524Y-98851203D01*
X158221177Y-98893927D01*
X159020481Y-99694627D01*
X160065356Y-100128497D01*
X161196729Y-100129484D01*
X162242359Y-99697439D01*
X163043059Y-98898135D01*
X163476929Y-97853260D01*
X163477916Y-96721887D01*
X163414083Y-96567400D01*
X163894822Y-96814466D01*
X164061546Y-96828173D01*
X164012920Y-96945278D01*
X164012329Y-97621938D01*
X164270730Y-98247316D01*
X164748783Y-98726204D01*
X165373710Y-98985696D01*
X166050370Y-98986287D01*
X166675748Y-98727886D01*
X167154636Y-98249833D01*
X167414128Y-97624906D01*
X167414719Y-96948246D01*
X167156318Y-96322868D01*
X166678265Y-95843980D01*
X166324237Y-95696975D01*
X166491052Y-95372388D01*
X166522482Y-94990092D01*
X168856912Y-94990092D01*
X168965439Y-95098808D01*
X168781628Y-95367824D01*
X168713348Y-95705000D01*
X168713348Y-96905000D01*
X168772618Y-97219991D01*
X168958777Y-97509291D01*
X169242824Y-97703372D01*
X169580000Y-97771652D01*
X170780000Y-97771652D01*
X171094991Y-97712382D01*
X171384291Y-97526223D01*
X171578372Y-97242176D01*
X171646652Y-96905000D01*
X171646652Y-95705000D01*
X171587382Y-95390009D01*
X171401223Y-95100709D01*
X171396237Y-95097302D01*
X171577986Y-94915870D01*
X171829713Y-94309645D01*
X171830285Y-93653235D01*
X171579617Y-93046571D01*
X171115870Y-92582014D01*
X170509645Y-92330287D01*
X169853235Y-92329715D01*
X169246571Y-92580383D01*
X168786059Y-93040092D01*
X165899167Y-93040092D01*
X165440962Y-92215168D01*
X165227992Y-91964043D01*
X165166746Y-91489234D01*
X164758915Y-90778561D01*
X164110166Y-90278054D01*
X163319264Y-90063912D01*
X162506618Y-90168736D01*
X161795945Y-90576567D01*
X161295438Y-91225316D01*
X161081296Y-92016218D01*
X161035478Y-92688304D01*
X161140302Y-93500950D01*
X161548133Y-94211623D01*
X161893464Y-94478044D01*
X162074600Y-94804150D01*
X161201692Y-94441687D01*
X160070319Y-94440700D01*
X159192969Y-94803213D01*
X159373584Y-94478044D01*
X159718915Y-94211623D01*
X160126746Y-93500950D01*
X160231570Y-92688304D01*
X160185752Y-92016218D01*
X159971610Y-91225316D01*
X159471103Y-90576567D01*
X158760430Y-90168736D01*
X158203524Y-90096900D01*
X158203524Y-87378285D01*
X158520247Y-87509800D01*
X158520943Y-87509801D01*
X159330571Y-88319429D01*
X159646884Y-88530783D01*
X160020000Y-88605000D01*
X169529283Y-88605000D01*
X169950247Y-88779800D01*
X170407746Y-88780199D01*
X170830572Y-88605491D01*
X171154354Y-88282273D01*
X171329800Y-87859753D01*
X171330199Y-87402254D01*
X171155491Y-86979428D01*
X170832273Y-86655646D01*
X170409753Y-86480200D01*
X169952254Y-86479801D01*
X169529428Y-86654509D01*
X169528936Y-86655000D01*
X160423858Y-86655000D01*
X159899556Y-86130698D01*
X159725491Y-85709428D01*
X159402273Y-85385646D01*
X158979753Y-85210200D01*
X158522254Y-85209801D01*
X158203524Y-85341497D01*
X158203524Y-82475000D01*
X168513348Y-82475000D01*
X168513348Y-84075000D01*
X168572618Y-84389991D01*
X168758777Y-84679291D01*
X169042824Y-84873372D01*
X169380000Y-84941652D01*
X170980000Y-84941652D01*
X171294991Y-84882382D01*
X171584291Y-84696223D01*
X171778372Y-84412176D01*
X171846652Y-84075000D01*
X171846652Y-82475000D01*
X171787382Y-82160009D01*
X171601223Y-81870709D01*
X171584079Y-81858995D01*
X171646652Y-81550000D01*
X171646652Y-80350000D01*
X171587382Y-80035009D01*
X171401223Y-79745709D01*
X171117176Y-79551628D01*
X170780000Y-79483348D01*
X169580000Y-79483348D01*
X169265009Y-79542618D01*
X168975709Y-79728777D01*
X168781628Y-80012824D01*
X168713348Y-80350000D01*
X168713348Y-81550000D01*
X168771631Y-81859745D01*
X168581628Y-82137824D01*
X168513348Y-82475000D01*
X158203524Y-82475000D01*
X158203524Y-79858581D01*
X158221177Y-79901305D01*
X159020481Y-80702005D01*
X160065356Y-81135875D01*
X161196729Y-81136862D01*
X162242359Y-80704817D01*
X163043059Y-79905513D01*
X163476929Y-78860638D01*
X163477916Y-77729265D01*
X163414083Y-77574778D01*
X163894822Y-77821844D01*
X164061546Y-77835551D01*
X164012920Y-77952656D01*
X164012329Y-78629316D01*
X164270730Y-79254694D01*
X164748783Y-79733582D01*
X165373710Y-79993074D01*
X166050370Y-79993665D01*
X166675748Y-79735264D01*
X167154636Y-79257211D01*
X167414128Y-78632284D01*
X167414719Y-77955624D01*
X167156318Y-77330246D01*
X166678265Y-76851358D01*
X166324237Y-76704353D01*
X166491052Y-76379766D01*
X166522482Y-75997470D01*
X168610579Y-75997470D01*
X168780383Y-76408429D01*
X168965439Y-76593808D01*
X168781628Y-76862824D01*
X168713348Y-77200000D01*
X168713348Y-78400000D01*
X168772618Y-78714991D01*
X168958777Y-79004291D01*
X169242824Y-79198372D01*
X169580000Y-79266652D01*
X170780000Y-79266652D01*
X171094991Y-79207382D01*
X171384291Y-79021223D01*
X171578372Y-78737176D01*
X171646652Y-78400000D01*
X171646652Y-77200000D01*
X171587382Y-76885009D01*
X171401223Y-76595709D01*
X171396237Y-76592302D01*
X171577986Y-76410870D01*
X171829713Y-75804645D01*
X171830285Y-75148235D01*
X171579617Y-74541571D01*
X171115870Y-74077014D01*
X170509645Y-73825287D01*
X169853235Y-73824715D01*
X169314126Y-74047470D01*
X165899167Y-74047470D01*
X165440962Y-73222546D01*
X165227992Y-72971421D01*
X165166746Y-72496612D01*
X164758915Y-71785939D01*
X164110166Y-71285432D01*
X163319264Y-71071290D01*
X162506618Y-71176114D01*
X161795945Y-71583945D01*
X161295438Y-72232694D01*
X161081296Y-73023596D01*
X161035478Y-73695682D01*
X161140302Y-74508328D01*
X161548133Y-75219001D01*
X161893464Y-75485422D01*
X162074600Y-75811528D01*
X161201692Y-75449065D01*
X160070319Y-75448078D01*
X159192969Y-75810591D01*
X159373584Y-75485422D01*
X159718915Y-75219001D01*
X160126746Y-74508328D01*
X160231570Y-73695682D01*
X160185752Y-73023596D01*
X159971610Y-72232694D01*
X159471103Y-71583945D01*
X158760430Y-71176114D01*
X158203524Y-71104278D01*
X158203524Y-68966177D01*
X167594662Y-68966177D01*
X167890906Y-69683143D01*
X168438971Y-70232166D01*
X169155419Y-70529661D01*
X169931177Y-70530338D01*
X170648143Y-70234094D01*
X171197166Y-69686029D01*
X171494661Y-68969581D01*
X171495338Y-68193823D01*
X171199094Y-67476857D01*
X170651029Y-66927834D01*
X169934581Y-66630339D01*
X169158823Y-66629662D01*
X168441857Y-66925906D01*
X167892834Y-67473971D01*
X167595339Y-68190419D01*
X167594662Y-68966177D01*
X158203524Y-68966177D01*
X158203524Y-63095000D01*
X168513348Y-63095000D01*
X168513348Y-64695000D01*
X168572618Y-65009991D01*
X168758777Y-65299291D01*
X169042824Y-65493372D01*
X169380000Y-65561652D01*
X170980000Y-65561652D01*
X171294991Y-65502382D01*
X171584291Y-65316223D01*
X171778372Y-65032176D01*
X171846652Y-64695000D01*
X171846652Y-63095000D01*
X171787382Y-62780009D01*
X171601223Y-62490709D01*
X171584079Y-62478995D01*
X171646652Y-62170000D01*
X171646652Y-61899138D01*
X172904489Y-61899138D01*
X173162890Y-62524516D01*
X173640943Y-63003404D01*
X174265870Y-63262896D01*
X174942530Y-63263487D01*
X175305684Y-63113435D01*
X175305684Y-74714881D01*
X175212000Y-74878132D01*
X175150754Y-75352942D01*
X174937784Y-75604067D01*
X174071036Y-77164506D01*
X173820556Y-77944661D01*
X173887694Y-78761286D01*
X174054543Y-79085940D01*
X173702998Y-79231196D01*
X173224110Y-79709249D01*
X172964618Y-80334176D01*
X172964027Y-81010836D01*
X173222428Y-81636214D01*
X173700481Y-82115102D01*
X174325408Y-82374594D01*
X175002068Y-82375185D01*
X175365222Y-82225133D01*
X175365222Y-93500005D01*
X175152462Y-93870754D01*
X175091216Y-94345564D01*
X174878246Y-94596689D01*
X174011498Y-96157128D01*
X173761018Y-96937283D01*
X173828156Y-97753908D01*
X173995005Y-98078562D01*
X173643460Y-98223818D01*
X173164572Y-98701871D01*
X172905080Y-99326798D01*
X172904489Y-100003458D01*
X173162890Y-100628836D01*
X173640943Y-101107724D01*
X174265870Y-101367216D01*
X174942530Y-101367807D01*
X175305684Y-101217755D01*
X175305684Y-121734948D01*
X175379901Y-122108065D01*
X175591255Y-122424377D01*
X176311686Y-123144808D01*
X176143823Y-123144662D01*
X175426857Y-123440906D01*
X174877834Y-123988971D01*
X174580339Y-124705419D01*
X174579662Y-125481177D01*
X174875906Y-126198143D01*
X175423971Y-126747166D01*
X176140419Y-127044661D01*
X176916177Y-127045338D01*
X177633143Y-126749094D01*
X178182166Y-126201029D01*
X178479661Y-125484581D01*
X178479811Y-125312933D01*
X181390683Y-128223805D01*
X181706995Y-128435159D01*
X182080112Y-128509376D01*
X184004156Y-128509376D01*
X184526131Y-129379808D01*
X185076525Y-129986808D01*
X185817311Y-130336976D01*
X186161856Y-130353827D01*
X186161329Y-130956815D01*
X186419730Y-131582193D01*
X186897783Y-132061081D01*
X187522710Y-132320573D01*
X188199370Y-132321164D01*
X188824748Y-132062763D01*
X189303636Y-131584710D01*
X189563128Y-130959783D01*
X189563719Y-130283123D01*
X189305318Y-129657745D01*
X189130777Y-129482899D01*
X189289451Y-129514461D01*
X191515597Y-129514461D01*
X191888714Y-129440244D01*
X192205026Y-129228890D01*
X196861907Y-124572009D01*
X197172659Y-124577162D01*
X197496628Y-124518287D01*
X197938447Y-124702651D01*
X198757824Y-124704796D01*
X199515650Y-124393216D01*
X200096553Y-123815346D01*
X200412096Y-123059161D01*
X200414241Y-122239785D01*
X200102661Y-121481959D01*
X199524791Y-120901055D01*
X198965657Y-120525334D01*
X198209472Y-120209790D01*
X197390096Y-120207646D01*
X196986702Y-120373502D01*
X196610411Y-120367262D01*
X196794533Y-120291184D01*
X197595233Y-119491880D01*
X198029103Y-118447005D01*
X198029642Y-117829355D01*
X198246643Y-118191220D01*
X198304704Y-118623495D01*
X198716249Y-119332024D01*
X199367609Y-119829128D01*
X199972561Y-120125492D01*
X200764573Y-120335491D01*
X201576660Y-120226415D01*
X202285189Y-119814870D01*
X202782293Y-119163510D01*
X202992292Y-118371498D01*
X202883216Y-117559412D01*
X202471671Y-116850882D01*
X202091095Y-116560435D01*
X201980099Y-116250435D01*
X201062091Y-114719589D01*
X200511697Y-114112589D01*
X199770911Y-113762421D01*
X199426366Y-113745570D01*
X199426893Y-113142582D01*
X199168492Y-112517204D01*
X199007431Y-112355861D01*
X199399840Y-112518804D01*
X200531213Y-112519791D01*
X201576843Y-112087746D01*
X202377543Y-111288442D01*
X202811413Y-110243567D01*
X202812400Y-109112194D01*
X202380355Y-108066564D01*
X201581051Y-107265864D01*
X200730369Y-106912630D01*
X201191081Y-106615722D01*
X201293873Y-106467272D01*
X201543267Y-106717102D01*
X202168194Y-106976594D01*
X202844854Y-106977185D01*
X203470232Y-106718784D01*
X203949120Y-106240731D01*
X204208612Y-105615804D01*
X204209203Y-104939144D01*
X203950802Y-104313766D01*
X203472749Y-103834878D01*
X202847822Y-103575386D01*
X202171162Y-103574795D01*
X201545784Y-103833196D01*
X201433205Y-103945578D01*
X201405875Y-103903171D01*
X203345442Y-101963604D01*
X203363971Y-101982166D01*
X204080419Y-102279661D01*
X204856177Y-102280338D01*
X205573143Y-101984094D01*
X206122166Y-101436029D01*
X206419661Y-100719581D01*
X206420338Y-99943823D01*
X206124094Y-99226857D01*
X205576029Y-98677834D01*
X205535000Y-98660797D01*
X205535000Y-97878118D01*
X205957986Y-97455870D01*
X206209713Y-96849645D01*
X206210285Y-96193235D01*
X205959617Y-95586571D01*
X205668374Y-95294820D01*
X206047986Y-94915870D01*
X206299713Y-94309645D01*
X206300285Y-93653235D01*
X206049617Y-93046571D01*
X205585870Y-92582014D01*
X204979645Y-92330287D01*
X204378621Y-92329763D01*
X203117844Y-91068986D01*
X203117844Y-86928534D01*
X203478030Y-87078096D01*
X204154690Y-87078687D01*
X204780068Y-86820286D01*
X205258956Y-86342233D01*
X205518448Y-85717306D01*
X205519039Y-85040646D01*
X205260638Y-84415268D01*
X204782585Y-83936380D01*
X204428557Y-83789375D01*
X204595372Y-83464788D01*
X204662510Y-82648163D01*
X204412030Y-81868008D01*
X203545282Y-80307568D01*
X203332312Y-80056443D01*
X203271066Y-79581634D01*
X202863235Y-78870961D01*
X202214486Y-78370454D01*
X201423584Y-78156312D01*
X200610938Y-78261136D01*
X199900265Y-78668967D01*
X199399758Y-79317716D01*
X199185616Y-80108618D01*
X199139798Y-80780704D01*
X199244622Y-81593350D01*
X199652453Y-82304023D01*
X199997784Y-82570444D01*
X200178920Y-82896550D01*
X199306012Y-82534087D01*
X198174639Y-82533100D01*
X197297289Y-82895613D01*
X197477904Y-82570444D01*
X197823235Y-82304023D01*
X198231066Y-81593350D01*
X198335890Y-80780704D01*
X198290072Y-80108618D01*
X198075930Y-79317716D01*
X197575423Y-78668967D01*
X196864750Y-78261136D01*
X196052104Y-78156312D01*
X195317860Y-78355113D01*
X195317860Y-77866652D01*
X196450000Y-77866652D01*
X196764991Y-77807382D01*
X197054291Y-77621223D01*
X197066005Y-77604079D01*
X197375000Y-77666652D01*
X198575000Y-77666652D01*
X198889991Y-77607382D01*
X199179291Y-77421223D01*
X199373372Y-77137176D01*
X199441652Y-76800000D01*
X199441652Y-75600000D01*
X199382382Y-75285009D01*
X199196223Y-74995709D01*
X198912176Y-74801628D01*
X198575000Y-74733348D01*
X197375000Y-74733348D01*
X197065255Y-74791631D01*
X196787176Y-74601628D01*
X196450000Y-74533348D01*
X195317860Y-74533348D01*
X195317860Y-67792064D01*
X196027259Y-67082665D01*
X196365631Y-67901589D01*
X197164935Y-68702289D01*
X198209810Y-69136159D01*
X199341183Y-69137146D01*
X200386813Y-68705101D01*
X201187513Y-67905797D01*
X201207978Y-67856512D01*
X201207978Y-74733348D01*
X200525000Y-74733348D01*
X200210009Y-74792618D01*
X199920709Y-74978777D01*
X199726628Y-75262824D01*
X199658348Y-75600000D01*
X199658348Y-76800000D01*
X199717618Y-77114991D01*
X199903777Y-77404291D01*
X200187824Y-77598372D01*
X200525000Y-77666652D01*
X201725000Y-77666652D01*
X202039991Y-77607382D01*
X202329291Y-77421223D01*
X202332698Y-77416237D01*
X202514130Y-77597986D01*
X203120355Y-77849713D01*
X203776765Y-77850285D01*
X204383429Y-77599617D01*
X204847986Y-77135870D01*
X205099713Y-76529645D01*
X205100285Y-75873235D01*
X204849617Y-75266571D01*
X204385870Y-74802014D01*
X203779645Y-74550287D01*
X203178621Y-74549763D01*
X203157978Y-74529120D01*
X203157978Y-67843796D01*
X203518164Y-67993358D01*
X204194824Y-67993949D01*
X204820202Y-67735548D01*
X205299090Y-67257495D01*
X205558582Y-66632568D01*
X205559173Y-65955908D01*
X205300772Y-65330530D01*
X204822719Y-64851642D01*
X204468691Y-64704637D01*
X204635506Y-64380050D01*
X204702644Y-63563425D01*
X204452164Y-62783270D01*
X203585416Y-61222830D01*
X203372446Y-60971705D01*
X203311200Y-60496896D01*
X202903369Y-59786223D01*
X202254620Y-59285716D01*
X201463718Y-59071574D01*
X200651072Y-59176398D01*
X199940399Y-59584229D01*
X199439892Y-60232978D01*
X199225750Y-61023880D01*
X199179932Y-61695966D01*
X199284756Y-62508612D01*
X199692587Y-63219285D01*
X200037918Y-63485706D01*
X200219054Y-63811812D01*
X199346146Y-63449349D01*
X198214773Y-63448362D01*
X197337423Y-63810875D01*
X197518038Y-63485706D01*
X197863369Y-63219285D01*
X198271200Y-62508612D01*
X198376024Y-61695966D01*
X198330206Y-61023880D01*
X198116064Y-60232978D01*
X197615557Y-59584229D01*
X196904884Y-59176398D01*
X196092238Y-59071574D01*
X195301336Y-59285716D01*
X194652587Y-59786223D01*
X194244756Y-60496896D01*
X194183510Y-60971706D01*
X193970540Y-61222831D01*
X193103792Y-62783270D01*
X192853312Y-63563425D01*
X192920450Y-64380050D01*
X193087299Y-64704704D01*
X192735754Y-64849960D01*
X192256866Y-65328013D01*
X191997374Y-65952940D01*
X191996783Y-66629600D01*
X192255184Y-67254978D01*
X192733237Y-67733866D01*
X193358164Y-67993358D01*
X193367860Y-67993366D01*
X193367860Y-81117508D01*
X193397567Y-81266858D01*
X193063658Y-81868008D01*
X192813178Y-82648163D01*
X192880316Y-83464788D01*
X193047165Y-83789442D01*
X192695620Y-83934698D01*
X192216732Y-84412751D01*
X191957240Y-85037678D01*
X191956649Y-85714338D01*
X192215050Y-86339716D01*
X192693103Y-86818604D01*
X193318030Y-87078096D01*
X193994690Y-87078687D01*
X194357844Y-86928635D01*
X194357844Y-88743298D01*
X190905698Y-92195444D01*
X190484428Y-92369509D01*
X190160646Y-92692727D01*
X189985200Y-93115247D01*
X189984801Y-93572746D01*
X190159509Y-93995572D01*
X190160000Y-93996064D01*
X190160000Y-94234577D01*
X189559645Y-93985287D01*
X188903235Y-93984715D01*
X188296571Y-94235383D01*
X187832014Y-94699130D01*
X187580287Y-95305355D01*
X187580186Y-95421612D01*
X184951327Y-95421612D01*
X184493122Y-94596688D01*
X184280152Y-94345563D01*
X184218906Y-93870754D01*
X183811075Y-93160081D01*
X183162326Y-92659574D01*
X182371424Y-92445432D01*
X181558778Y-92550256D01*
X180848105Y-92958087D01*
X180347598Y-93606836D01*
X180133456Y-94397738D01*
X180087638Y-95069824D01*
X180192462Y-95882470D01*
X180600293Y-96593143D01*
X180945624Y-96859564D01*
X181126760Y-97185670D01*
X180253852Y-96823207D01*
X179122479Y-96822220D01*
X178245129Y-97184733D01*
X178425744Y-96859564D01*
X178771075Y-96593143D01*
X179178906Y-95882470D01*
X179283730Y-95069824D01*
X179237912Y-94397738D01*
X179023770Y-93606836D01*
X178523263Y-92958087D01*
X177812590Y-92550256D01*
X177315222Y-92486100D01*
X177315222Y-84380000D01*
X187563348Y-84380000D01*
X187563348Y-85980000D01*
X187622618Y-86294991D01*
X187808777Y-86584291D01*
X188092824Y-86778372D01*
X188430000Y-86846652D01*
X190030000Y-86846652D01*
X190344991Y-86787382D01*
X190634291Y-86601223D01*
X190828372Y-86317176D01*
X190896652Y-85980000D01*
X190896652Y-84380000D01*
X190837382Y-84065009D01*
X190651223Y-83775709D01*
X190634079Y-83763995D01*
X190696652Y-83455000D01*
X190696652Y-82255000D01*
X190637382Y-81940009D01*
X190451223Y-81650709D01*
X190167176Y-81456628D01*
X189830000Y-81388348D01*
X188630000Y-81388348D01*
X188315009Y-81447618D01*
X188025709Y-81633777D01*
X187831628Y-81917824D01*
X187763348Y-82255000D01*
X187763348Y-83455000D01*
X187821631Y-83764745D01*
X187631628Y-84042824D01*
X187563348Y-84380000D01*
X177315222Y-84380000D01*
X177315222Y-82240101D01*
X177332875Y-82282825D01*
X178132179Y-83083525D01*
X179177054Y-83517395D01*
X180308427Y-83518382D01*
X181354057Y-83086337D01*
X182154757Y-82287033D01*
X182588627Y-81242158D01*
X182589614Y-80110785D01*
X182525781Y-79956298D01*
X183006520Y-80203364D01*
X183173244Y-80217071D01*
X183124618Y-80334176D01*
X183124027Y-81010836D01*
X183382428Y-81636214D01*
X183860481Y-82115102D01*
X184485408Y-82374594D01*
X185162068Y-82375185D01*
X185787446Y-82116784D01*
X186266334Y-81638731D01*
X186525826Y-81013804D01*
X186526417Y-80337144D01*
X186268016Y-79711766D01*
X185789963Y-79232878D01*
X185435935Y-79085873D01*
X185602750Y-78761286D01*
X185634180Y-78378990D01*
X187895830Y-78378990D01*
X188015439Y-78498808D01*
X187831628Y-78767824D01*
X187763348Y-79105000D01*
X187763348Y-80305000D01*
X187822618Y-80619991D01*
X188008777Y-80909291D01*
X188292824Y-81103372D01*
X188630000Y-81171652D01*
X189830000Y-81171652D01*
X190144991Y-81112382D01*
X190434291Y-80926223D01*
X190628372Y-80642176D01*
X190696652Y-80305000D01*
X190696652Y-79105000D01*
X190637382Y-78790009D01*
X190451223Y-78500709D01*
X190446237Y-78497302D01*
X190627986Y-78315870D01*
X190879713Y-77709645D01*
X190880285Y-77053235D01*
X190629617Y-76446571D01*
X190165870Y-75982014D01*
X189559645Y-75730287D01*
X188903235Y-75729715D01*
X188296571Y-75980383D01*
X187847180Y-76428990D01*
X185010865Y-76428990D01*
X184552660Y-75604066D01*
X184339690Y-75352941D01*
X184278444Y-74878132D01*
X183870613Y-74167459D01*
X183221864Y-73666952D01*
X182430962Y-73452810D01*
X181618316Y-73557634D01*
X180907643Y-73965465D01*
X180407136Y-74614214D01*
X180192994Y-75405116D01*
X180147176Y-76077202D01*
X180252000Y-76889848D01*
X180659831Y-77600521D01*
X181005162Y-77866942D01*
X181186298Y-78193048D01*
X180313390Y-77830585D01*
X179182017Y-77829598D01*
X178304667Y-78192111D01*
X178485282Y-77866942D01*
X178830613Y-77600521D01*
X179238444Y-76889848D01*
X179343268Y-76077202D01*
X179297450Y-75405116D01*
X179083308Y-74614214D01*
X178582801Y-73965465D01*
X177872128Y-73557634D01*
X177255684Y-73478118D01*
X177255684Y-65490000D01*
X187563348Y-65490000D01*
X187563348Y-67090000D01*
X187622618Y-67404991D01*
X187808777Y-67694291D01*
X188092824Y-67888372D01*
X188430000Y-67956652D01*
X190030000Y-67956652D01*
X190344991Y-67897382D01*
X190634291Y-67711223D01*
X190828372Y-67427176D01*
X190896652Y-67090000D01*
X190896652Y-65490000D01*
X190837382Y-65175009D01*
X190651223Y-64885709D01*
X190634079Y-64873995D01*
X190696652Y-64565000D01*
X190696652Y-63365000D01*
X190637382Y-63050009D01*
X190451223Y-62760709D01*
X190167176Y-62566628D01*
X189830000Y-62498348D01*
X188630000Y-62498348D01*
X188315009Y-62557618D01*
X188025709Y-62743777D01*
X187831628Y-63027824D01*
X187763348Y-63365000D01*
X187763348Y-64565000D01*
X187821631Y-64874745D01*
X187631628Y-65152824D01*
X187563348Y-65490000D01*
X177255684Y-65490000D01*
X177255684Y-63128403D01*
X177273337Y-63171127D01*
X178072641Y-63971827D01*
X179117516Y-64405697D01*
X180248889Y-64406684D01*
X181294519Y-63974639D01*
X182095219Y-63175335D01*
X182529089Y-62130460D01*
X182530076Y-60999087D01*
X182466243Y-60844600D01*
X182946982Y-61091666D01*
X183113706Y-61105373D01*
X183065080Y-61222478D01*
X183064489Y-61899138D01*
X183322890Y-62524516D01*
X183800943Y-63003404D01*
X184425870Y-63262896D01*
X185102530Y-63263487D01*
X185727908Y-63005086D01*
X186206796Y-62527033D01*
X186466288Y-61902106D01*
X186466879Y-61225446D01*
X186208478Y-60600068D01*
X185730425Y-60121180D01*
X185376397Y-59974175D01*
X185543212Y-59649588D01*
X185574642Y-59267292D01*
X187765869Y-59267292D01*
X187830383Y-59423429D01*
X188015439Y-59608808D01*
X187831628Y-59877824D01*
X187763348Y-60215000D01*
X187763348Y-61415000D01*
X187822618Y-61729991D01*
X188008777Y-62019291D01*
X188292824Y-62213372D01*
X188630000Y-62281652D01*
X189830000Y-62281652D01*
X190144991Y-62222382D01*
X190434291Y-62036223D01*
X190628372Y-61752176D01*
X190696652Y-61415000D01*
X190696652Y-60215000D01*
X190637382Y-59900009D01*
X190451223Y-59610709D01*
X190446237Y-59607302D01*
X190627986Y-59425870D01*
X190879713Y-58819645D01*
X190879773Y-58751105D01*
X191080000Y-58791652D01*
X193580000Y-58791652D01*
X193748215Y-58760000D01*
X194929283Y-58760000D01*
X195350247Y-58934800D01*
X195807746Y-58935199D01*
X196230572Y-58760491D01*
X196554354Y-58437273D01*
X196729800Y-58014753D01*
X196730199Y-57557254D01*
X196702410Y-57490000D01*
X196850000Y-57490000D01*
X197003067Y-57459553D01*
X197242824Y-57623372D01*
X197580000Y-57691652D01*
X200080000Y-57691652D01*
X200394991Y-57632382D01*
X200684291Y-57446223D01*
X200878372Y-57162176D01*
X200946652Y-56825000D01*
X200946652Y-55625000D01*
X200887382Y-55310009D01*
X200701223Y-55020709D01*
X200417176Y-54826628D01*
X200080000Y-54758348D01*
X197580000Y-54758348D01*
X197265009Y-54817618D01*
X197179785Y-54872458D01*
X197180277Y-54308137D01*
X196937205Y-53719857D01*
X196487511Y-53269377D01*
X195899656Y-53025278D01*
X195263137Y-53024723D01*
X194674857Y-53267795D01*
X194224377Y-53717489D01*
X193980278Y-54305344D01*
X193979723Y-54941863D01*
X194222795Y-55530143D01*
X194590709Y-55898700D01*
X194430200Y-56285247D01*
X194429894Y-56635940D01*
X194387382Y-56410009D01*
X194201223Y-56120709D01*
X193917176Y-55926628D01*
X193580000Y-55858348D01*
X191080000Y-55858348D01*
X190765009Y-55917618D01*
X190475709Y-56103777D01*
X190281628Y-56387824D01*
X190213348Y-56725000D01*
X190213348Y-57139575D01*
X190165870Y-57092014D01*
X189559645Y-56840287D01*
X188903235Y-56839715D01*
X188296571Y-57090383D01*
X188069266Y-57317292D01*
X184951327Y-57317292D01*
X184493122Y-56492368D01*
X184280152Y-56241243D01*
X184218906Y-55766434D01*
X183811075Y-55055761D01*
X183162326Y-54555254D01*
X182371424Y-54341112D01*
X181558778Y-54445936D01*
X180848105Y-54853767D01*
X180347598Y-55502516D01*
X180133456Y-56293418D01*
X180087638Y-56965504D01*
X180192462Y-57778150D01*
X180600293Y-58488823D01*
X180945624Y-58755244D01*
X181126760Y-59081350D01*
X180253852Y-58718887D01*
X179122479Y-58717900D01*
X178245129Y-59080413D01*
X178425744Y-58755244D01*
X178771075Y-58488823D01*
X179178906Y-57778150D01*
X179283730Y-56965504D01*
X179237912Y-56293418D01*
X179023770Y-55502516D01*
X178523263Y-54853767D01*
X177812590Y-54445936D01*
X176999944Y-54341112D01*
X176209042Y-54555254D01*
X175560293Y-55055761D01*
X175152462Y-55766434D01*
X175091216Y-56241244D01*
X174878246Y-56492369D01*
X174011498Y-58052808D01*
X173761018Y-58832963D01*
X173828156Y-59649588D01*
X173995005Y-59974242D01*
X173643460Y-60119498D01*
X173164572Y-60597551D01*
X172905080Y-61222478D01*
X172904489Y-61899138D01*
X171646652Y-61899138D01*
X171646652Y-60970000D01*
X171587382Y-60655009D01*
X171401223Y-60365709D01*
X171117176Y-60171628D01*
X170780000Y-60103348D01*
X169580000Y-60103348D01*
X169265009Y-60162618D01*
X168975709Y-60348777D01*
X168781628Y-60632824D01*
X168713348Y-60970000D01*
X168713348Y-62170000D01*
X168771631Y-62479745D01*
X168581628Y-62757824D01*
X168513348Y-63095000D01*
X158203524Y-63095000D01*
X158203524Y-60746883D01*
X158221177Y-60789607D01*
X159020481Y-61590307D01*
X160065356Y-62024177D01*
X161196729Y-62025164D01*
X162242359Y-61593119D01*
X163043059Y-60793815D01*
X163476929Y-59748940D01*
X163477916Y-58617567D01*
X163414083Y-58463080D01*
X163894822Y-58710146D01*
X164061546Y-58723853D01*
X164012920Y-58840958D01*
X164012329Y-59517618D01*
X164270730Y-60142996D01*
X164748783Y-60621884D01*
X165373710Y-60881376D01*
X166050370Y-60881967D01*
X166675748Y-60623566D01*
X167154636Y-60145513D01*
X167414128Y-59520586D01*
X167414719Y-58843926D01*
X167156318Y-58218548D01*
X166678265Y-57739660D01*
X166324237Y-57592655D01*
X166491052Y-57268068D01*
X166522482Y-56885772D01*
X168721438Y-56885772D01*
X168780383Y-57028429D01*
X168965439Y-57213808D01*
X168781628Y-57482824D01*
X168713348Y-57820000D01*
X168713348Y-59020000D01*
X168772618Y-59334991D01*
X168958777Y-59624291D01*
X169242824Y-59818372D01*
X169580000Y-59886652D01*
X170780000Y-59886652D01*
X171094991Y-59827382D01*
X171384291Y-59641223D01*
X171578372Y-59357176D01*
X171646652Y-59020000D01*
X171646652Y-57820000D01*
X171587382Y-57505009D01*
X171401223Y-57215709D01*
X171396237Y-57212302D01*
X171577986Y-57030870D01*
X171829713Y-56424645D01*
X171830285Y-55768235D01*
X171579617Y-55161571D01*
X171115870Y-54697014D01*
X170509645Y-54445287D01*
X169853235Y-54444715D01*
X169246571Y-54695383D01*
X169005762Y-54935772D01*
X165899167Y-54935772D01*
X165440962Y-54110848D01*
X165227992Y-53859723D01*
X165166746Y-53384914D01*
X164971681Y-53045000D01*
X179257960Y-53045000D01*
X179631077Y-52970783D01*
X179947389Y-52759429D01*
X180265318Y-52441500D01*
X196730000Y-52441500D01*
X196730000Y-52994075D01*
X196859405Y-53306486D01*
X197098513Y-53545595D01*
X197410924Y-53675000D01*
X198613500Y-53675000D01*
X198826000Y-53462500D01*
X198826000Y-52229000D01*
X198834000Y-52229000D01*
X198834000Y-53462500D01*
X199046500Y-53675000D01*
X200249076Y-53675000D01*
X200561487Y-53545595D01*
X200800595Y-53306486D01*
X200930000Y-52994075D01*
X200930000Y-52441500D01*
X200717500Y-52229000D01*
X198834000Y-52229000D01*
X198826000Y-52229000D01*
X196942500Y-52229000D01*
X196730000Y-52441500D01*
X180265318Y-52441500D01*
X181363782Y-51343036D01*
X183075264Y-51586868D01*
X183512491Y-51536262D01*
X183637338Y-51455925D01*
X196730000Y-51455925D01*
X196730000Y-52008500D01*
X196942500Y-52221000D01*
X198826000Y-52221000D01*
X198826000Y-50987500D01*
X198834000Y-50987500D01*
X198834000Y-52221000D01*
X200717500Y-52221000D01*
X200930000Y-52008500D01*
X200930000Y-51821177D01*
X201884662Y-51821177D01*
X202180906Y-52538143D01*
X202728971Y-53087166D01*
X203445419Y-53384661D01*
X204221177Y-53385338D01*
X204938143Y-53089094D01*
X205487166Y-52541029D01*
X205784661Y-51824581D01*
X205785338Y-51048823D01*
X205489094Y-50331857D01*
X204941029Y-49782834D01*
X204224581Y-49485339D01*
X203448823Y-49484662D01*
X202731857Y-49780906D01*
X202182834Y-50328971D01*
X201885339Y-51045419D01*
X201884662Y-51821177D01*
X200930000Y-51821177D01*
X200930000Y-51455925D01*
X200800595Y-51143514D01*
X200561487Y-50904405D01*
X200249076Y-50775000D01*
X199046500Y-50775000D01*
X198834000Y-50987500D01*
X198826000Y-50987500D01*
X198613500Y-50775000D01*
X197410924Y-50775000D01*
X197098513Y-50904405D01*
X196859405Y-51143514D01*
X196730000Y-51455925D01*
X183637338Y-51455925D01*
X183747121Y-51385282D01*
X183800750Y-51396142D01*
X185799730Y-51396142D01*
X186114721Y-51336872D01*
X186404021Y-51150713D01*
X186598102Y-50866666D01*
X186666382Y-50529490D01*
X186666382Y-50505000D01*
X194476183Y-50505000D01*
X194604509Y-50815572D01*
X194927727Y-51139354D01*
X195350247Y-51314800D01*
X195807746Y-51315199D01*
X196230572Y-51140491D01*
X196554354Y-50817273D01*
X196729800Y-50394753D01*
X196729801Y-50394057D01*
X196855329Y-50268529D01*
X196958777Y-50429291D01*
X197242824Y-50623372D01*
X197580000Y-50691652D01*
X200080000Y-50691652D01*
X200394991Y-50632382D01*
X200684291Y-50446223D01*
X200878372Y-50162176D01*
X200946652Y-49825000D01*
X200946652Y-48625000D01*
X200887382Y-48310009D01*
X200701223Y-48020709D01*
X200417176Y-47826628D01*
X200080000Y-47758348D01*
X197580000Y-47758348D01*
X197265009Y-47817618D01*
X197179785Y-47872458D01*
X197180277Y-47308137D01*
X197168651Y-47280000D01*
X205013898Y-47280000D01*
X205959104Y-47468014D01*
X206683176Y-47951824D01*
X207193116Y-48715002D01*
X207333315Y-49176307D01*
X207355000Y-49216826D01*
X207355000Y-102870000D01*
X207375490Y-102973013D01*
X207378688Y-103077995D01*
X207410362Y-103148327D01*
X207425411Y-103223982D01*
X207483764Y-103311314D01*
X207526893Y-103407080D01*
X207583071Y-103459937D01*
X207625926Y-103524074D01*
X207713259Y-103582428D01*
X207789751Y-103654398D01*
X211274484Y-105832356D01*
X211286395Y-105868088D01*
X211522869Y-106140744D01*
X211815187Y-106367613D01*
X211907314Y-106529228D01*
X211924664Y-106666856D01*
X209578195Y-110678561D01*
X209578296Y-110562580D01*
X209217637Y-109689720D01*
X208550404Y-109021321D01*
X207678174Y-108659139D01*
X206733739Y-108658315D01*
X205860879Y-109018974D01*
X205192480Y-109686207D01*
X204830298Y-110558437D01*
X204829474Y-111502872D01*
X205190133Y-112375732D01*
X205857366Y-113044131D01*
X206729596Y-113406313D01*
X207674031Y-113407137D01*
X208080461Y-113239203D01*
X197603664Y-131151145D01*
X197279637Y-130366942D01*
X196612404Y-129698543D01*
X195740174Y-129336361D01*
X194795739Y-129335537D01*
X193922879Y-129696196D01*
X193254480Y-130363429D01*
X192892298Y-131235659D01*
X192891474Y-132180094D01*
X193252133Y-133052954D01*
X193919366Y-133721353D01*
X194791596Y-134083535D01*
X195736031Y-134084359D01*
X195936447Y-134001549D01*
X193544965Y-138090212D01*
X193516251Y-138112496D01*
X193115491Y-138222245D01*
X192939448Y-138200052D01*
X178901081Y-130011005D01*
X178841437Y-129990460D01*
X178788982Y-129955411D01*
X178672309Y-129932203D01*
X178559840Y-129893463D01*
X178496873Y-129897307D01*
X178435000Y-129885000D01*
X78196103Y-129885000D01*
X77250898Y-129696988D01*
X76526824Y-129213176D01*
X76043014Y-128489104D01*
X75855000Y-127543898D01*
X75855000Y-83392356D01*
X77643689Y-83392356D01*
X77902090Y-84017734D01*
X78380143Y-84496622D01*
X79005070Y-84756114D01*
X79681730Y-84756705D01*
X80044884Y-84606653D01*
X80044884Y-96044812D01*
X79891662Y-96311812D01*
X79830416Y-96786622D01*
X79617446Y-97037747D01*
X78750698Y-98598186D01*
X78500218Y-99378341D01*
X78567356Y-100194966D01*
X78734205Y-100519620D01*
X78382660Y-100664876D01*
X77903772Y-101142929D01*
X77644280Y-101767856D01*
X77643689Y-102444516D01*
X77902090Y-103069894D01*
X78380143Y-103548782D01*
X79005070Y-103808274D01*
X79681730Y-103808865D01*
X80044884Y-103658813D01*
X80044884Y-115037434D01*
X79891662Y-115304434D01*
X79830416Y-115779244D01*
X79617446Y-116030369D01*
X78750698Y-117590808D01*
X78500218Y-118370963D01*
X78567356Y-119187588D01*
X78734205Y-119512242D01*
X78382660Y-119657498D01*
X77903772Y-120135551D01*
X77644280Y-120760478D01*
X77643689Y-121437138D01*
X77902090Y-122062516D01*
X78380143Y-122541404D01*
X79005070Y-122800896D01*
X79681730Y-122801487D01*
X80307108Y-122543086D01*
X80785996Y-122065033D01*
X81045488Y-121440106D01*
X81046079Y-120763446D01*
X80996479Y-120643405D01*
X81163586Y-120629666D01*
X81643361Y-120383095D01*
X81581479Y-120532124D01*
X81580492Y-121663497D01*
X82012537Y-122709127D01*
X82811841Y-123509827D01*
X83856716Y-123943697D01*
X84988089Y-123944684D01*
X86033719Y-123512639D01*
X86834419Y-122713335D01*
X87268289Y-121668460D01*
X87269276Y-120537087D01*
X87205443Y-120382600D01*
X87686182Y-120629666D01*
X87852906Y-120643373D01*
X87804280Y-120760478D01*
X87803689Y-121437138D01*
X88062090Y-122062516D01*
X88540143Y-122541404D01*
X89165070Y-122800896D01*
X89841730Y-122801487D01*
X90467108Y-122543086D01*
X90945996Y-122065033D01*
X91205488Y-121440106D01*
X91206079Y-120763446D01*
X90947678Y-120138068D01*
X90469625Y-119659180D01*
X90115597Y-119512175D01*
X90282412Y-119187588D01*
X90313842Y-118805292D01*
X92101972Y-118805292D01*
X92130439Y-118833808D01*
X91946628Y-119102824D01*
X91878348Y-119440000D01*
X91878348Y-120640000D01*
X91937618Y-120954991D01*
X92123777Y-121244291D01*
X92407824Y-121438372D01*
X92745000Y-121506652D01*
X93945000Y-121506652D01*
X94259991Y-121447382D01*
X94549291Y-121261223D01*
X94743372Y-120977176D01*
X94811652Y-120640000D01*
X94811652Y-119440000D01*
X94752382Y-119125009D01*
X94746042Y-119115156D01*
X96695849Y-119115156D01*
X96954250Y-119740534D01*
X97432303Y-120219422D01*
X98057230Y-120478914D01*
X98733890Y-120479505D01*
X99359268Y-120221104D01*
X99838156Y-119743051D01*
X100097648Y-119118124D01*
X100098239Y-118441464D01*
X100048639Y-118321423D01*
X100215746Y-118307684D01*
X100695521Y-118061113D01*
X100633639Y-118210142D01*
X100632652Y-119341515D01*
X101064697Y-120387145D01*
X101864001Y-121187845D01*
X102908876Y-121621715D01*
X104040249Y-121622702D01*
X105085879Y-121190657D01*
X105886579Y-120391353D01*
X106320449Y-119346478D01*
X106321436Y-118215105D01*
X106257603Y-118060618D01*
X106738342Y-118307684D01*
X106905066Y-118321391D01*
X106856440Y-118438496D01*
X106855849Y-119115156D01*
X107114250Y-119740534D01*
X107592303Y-120219422D01*
X108217230Y-120478914D01*
X108893890Y-120479505D01*
X109519268Y-120221104D01*
X109998156Y-119743051D01*
X110257648Y-119118124D01*
X110258239Y-118441464D01*
X109999838Y-117816086D01*
X109521785Y-117337198D01*
X109167757Y-117190193D01*
X109334572Y-116865606D01*
X109366002Y-116483310D01*
X111700142Y-116483310D01*
X111815439Y-116598808D01*
X111631628Y-116867824D01*
X111563348Y-117205000D01*
X111563348Y-118405000D01*
X111622618Y-118719991D01*
X111808777Y-119009291D01*
X112092824Y-119203372D01*
X112430000Y-119271652D01*
X113630000Y-119271652D01*
X113944991Y-119212382D01*
X114234291Y-119026223D01*
X114428372Y-118742176D01*
X114496652Y-118405000D01*
X114496652Y-117205000D01*
X114437382Y-116890009D01*
X114251223Y-116600709D01*
X114246237Y-116597302D01*
X114427986Y-116415870D01*
X114679713Y-115809645D01*
X114680285Y-115153235D01*
X114429617Y-114546571D01*
X113965870Y-114082014D01*
X113359645Y-113830287D01*
X112703235Y-113829715D01*
X112096571Y-114080383D01*
X111642853Y-114533310D01*
X108742687Y-114533310D01*
X108284482Y-113708386D01*
X108071512Y-113457261D01*
X108010266Y-112982452D01*
X107602435Y-112271779D01*
X106953686Y-111771272D01*
X106162784Y-111557130D01*
X105350138Y-111661954D01*
X104639465Y-112069785D01*
X104138958Y-112718534D01*
X103924816Y-113509436D01*
X103878998Y-114181522D01*
X103983822Y-114994168D01*
X104391653Y-115704841D01*
X104736984Y-115971262D01*
X104918120Y-116297368D01*
X104045212Y-115934905D01*
X102913839Y-115933918D01*
X102036489Y-116296431D01*
X102217104Y-115971262D01*
X102562435Y-115704841D01*
X102970266Y-114994168D01*
X103075090Y-114181522D01*
X103029272Y-113509436D01*
X102815130Y-112718534D01*
X102314623Y-112069785D01*
X101603950Y-111661954D01*
X101047044Y-111590118D01*
X101047044Y-103735000D01*
X111363348Y-103735000D01*
X111363348Y-105335000D01*
X111422618Y-105649991D01*
X111608777Y-105939291D01*
X111892824Y-106133372D01*
X112230000Y-106201652D01*
X112291943Y-106201652D01*
X112340571Y-106274429D01*
X112656884Y-106485783D01*
X113030000Y-106560000D01*
X113403116Y-106485783D01*
X113719429Y-106274429D01*
X113768057Y-106201652D01*
X113830000Y-106201652D01*
X114144991Y-106142382D01*
X114434291Y-105956223D01*
X114628372Y-105672176D01*
X114696652Y-105335000D01*
X114696652Y-103735000D01*
X114637382Y-103420009D01*
X114451223Y-103130709D01*
X114434079Y-103118995D01*
X114496652Y-102810000D01*
X114496652Y-101610000D01*
X114437382Y-101295009D01*
X114251223Y-101005709D01*
X113967176Y-100811628D01*
X113630000Y-100743348D01*
X112430000Y-100743348D01*
X112115009Y-100802618D01*
X111825709Y-100988777D01*
X111631628Y-101272824D01*
X111563348Y-101610000D01*
X111563348Y-102810000D01*
X111621631Y-103119745D01*
X111431628Y-103397824D01*
X111363348Y-103735000D01*
X101047044Y-103735000D01*
X101047044Y-101088630D01*
X101124235Y-101275447D01*
X101923539Y-102076147D01*
X102968414Y-102510017D01*
X104099787Y-102511004D01*
X105145417Y-102078959D01*
X105946117Y-101279655D01*
X106379987Y-100234780D01*
X106380974Y-99103407D01*
X106317141Y-98948920D01*
X106797880Y-99195986D01*
X106964604Y-99209693D01*
X106915978Y-99326798D01*
X106915387Y-100003458D01*
X107173788Y-100628836D01*
X107651841Y-101107724D01*
X108276768Y-101367216D01*
X108953428Y-101367807D01*
X109578806Y-101109406D01*
X110057694Y-100631353D01*
X110317186Y-100006426D01*
X110317777Y-99329766D01*
X110059376Y-98704388D01*
X109581323Y-98225500D01*
X109227295Y-98078495D01*
X109394110Y-97753908D01*
X109425540Y-97371612D01*
X111507741Y-97371612D01*
X111630383Y-97668429D01*
X111815439Y-97853808D01*
X111631628Y-98122824D01*
X111563348Y-98460000D01*
X111563348Y-99660000D01*
X111622618Y-99974991D01*
X111808777Y-100264291D01*
X112092824Y-100458372D01*
X112430000Y-100526652D01*
X113630000Y-100526652D01*
X113944991Y-100467382D01*
X114234291Y-100281223D01*
X114428372Y-99997176D01*
X114496652Y-99660000D01*
X114496652Y-98460000D01*
X114437382Y-98145009D01*
X114251223Y-97855709D01*
X114246237Y-97852302D01*
X114427986Y-97670870D01*
X114679713Y-97064645D01*
X114680285Y-96408235D01*
X114429617Y-95801571D01*
X113965870Y-95337014D01*
X113359645Y-95085287D01*
X112703235Y-95084715D01*
X112096571Y-95335383D01*
X112010191Y-95421612D01*
X108802225Y-95421612D01*
X108344020Y-94596688D01*
X108131050Y-94345563D01*
X108069804Y-93870754D01*
X107661973Y-93160081D01*
X107013224Y-92659574D01*
X106222322Y-92445432D01*
X105409676Y-92550256D01*
X104699003Y-92958087D01*
X104198496Y-93606836D01*
X103984354Y-94397738D01*
X103938536Y-95069824D01*
X104043360Y-95882470D01*
X104451191Y-96593143D01*
X104796522Y-96859564D01*
X104977658Y-97185670D01*
X104104750Y-96823207D01*
X102973377Y-96822220D01*
X102096027Y-97184733D01*
X102276642Y-96859564D01*
X102621973Y-96593143D01*
X103029804Y-95882470D01*
X103134628Y-95069824D01*
X103088810Y-94397738D01*
X102874668Y-93606836D01*
X102374161Y-92958087D01*
X101663488Y-92550256D01*
X101106582Y-92478420D01*
X101106582Y-84855000D01*
X111363348Y-84855000D01*
X111363348Y-86455000D01*
X111422618Y-86769991D01*
X111608777Y-87059291D01*
X111892824Y-87253372D01*
X112230000Y-87321652D01*
X112291943Y-87321652D01*
X112340571Y-87394429D01*
X112656884Y-87605783D01*
X113030000Y-87680000D01*
X113403116Y-87605783D01*
X113719429Y-87394429D01*
X113768057Y-87321652D01*
X113830000Y-87321652D01*
X114144991Y-87262382D01*
X114434291Y-87076223D01*
X114628372Y-86792176D01*
X114696652Y-86455000D01*
X114696652Y-84855000D01*
X114637382Y-84540009D01*
X114451223Y-84250709D01*
X114434079Y-84238995D01*
X114496652Y-83930000D01*
X114496652Y-82730000D01*
X114437382Y-82415009D01*
X114251223Y-82125709D01*
X113967176Y-81931628D01*
X113630000Y-81863348D01*
X112430000Y-81863348D01*
X112115009Y-81922618D01*
X111825709Y-82108777D01*
X111631628Y-82392824D01*
X111563348Y-82730000D01*
X111563348Y-83930000D01*
X111621631Y-84239745D01*
X111431628Y-84517824D01*
X111363348Y-84855000D01*
X101106582Y-84855000D01*
X101106582Y-82299639D01*
X101124235Y-82342363D01*
X101923539Y-83143063D01*
X102968414Y-83576933D01*
X104099787Y-83577920D01*
X105145417Y-83145875D01*
X105946117Y-82346571D01*
X106379987Y-81301696D01*
X106380974Y-80170323D01*
X106317141Y-80015836D01*
X106797880Y-80262902D01*
X106964604Y-80276609D01*
X106915978Y-80393714D01*
X106915387Y-81070374D01*
X107173788Y-81695752D01*
X107651841Y-82174640D01*
X108276768Y-82434132D01*
X108953428Y-82434723D01*
X109578806Y-82176322D01*
X110057694Y-81698269D01*
X110317186Y-81073342D01*
X110317777Y-80396682D01*
X110059376Y-79771304D01*
X109581323Y-79292416D01*
X109227295Y-79145411D01*
X109394110Y-78820824D01*
X109425540Y-78438528D01*
X111485807Y-78438528D01*
X111630383Y-78788429D01*
X111815439Y-78973808D01*
X111631628Y-79242824D01*
X111563348Y-79580000D01*
X111563348Y-80780000D01*
X111622618Y-81094991D01*
X111808777Y-81384291D01*
X112092824Y-81578372D01*
X112430000Y-81646652D01*
X113630000Y-81646652D01*
X113944991Y-81587382D01*
X114234291Y-81401223D01*
X114428372Y-81117176D01*
X114496652Y-80780000D01*
X114496652Y-79580000D01*
X114437382Y-79265009D01*
X114251223Y-78975709D01*
X114246237Y-78972302D01*
X114427986Y-78790870D01*
X114679713Y-78184645D01*
X114680285Y-77528235D01*
X114429617Y-76921571D01*
X113965870Y-76457014D01*
X113359645Y-76205287D01*
X112703235Y-76204715D01*
X112096571Y-76455383D01*
X112063368Y-76488528D01*
X108802225Y-76488528D01*
X108344020Y-75663604D01*
X108131050Y-75412479D01*
X108069804Y-74937670D01*
X107661973Y-74226997D01*
X107013224Y-73726490D01*
X106222322Y-73512348D01*
X105409676Y-73617172D01*
X104699003Y-74025003D01*
X104198496Y-74673752D01*
X103984354Y-75464654D01*
X103938536Y-76136740D01*
X104043360Y-76949386D01*
X104451191Y-77660059D01*
X104796522Y-77926480D01*
X104977658Y-78252586D01*
X104104750Y-77890123D01*
X102973377Y-77889136D01*
X102096027Y-78251649D01*
X102276642Y-77926480D01*
X102621973Y-77660059D01*
X103029804Y-76949386D01*
X103134628Y-76136740D01*
X103088810Y-75464654D01*
X102874668Y-74673752D01*
X102374161Y-74025003D01*
X101663488Y-73617172D01*
X101106582Y-73545336D01*
X101106582Y-65330000D01*
X111363348Y-65330000D01*
X111363348Y-66930000D01*
X111422618Y-67244991D01*
X111608777Y-67534291D01*
X111892824Y-67728372D01*
X112230000Y-67796652D01*
X112291943Y-67796652D01*
X112340571Y-67869429D01*
X112656884Y-68080783D01*
X113030000Y-68155000D01*
X113403116Y-68080783D01*
X113719429Y-67869429D01*
X113768057Y-67796652D01*
X113830000Y-67796652D01*
X114144991Y-67737382D01*
X114434291Y-67551223D01*
X114628372Y-67267176D01*
X114696652Y-66930000D01*
X114696652Y-65330000D01*
X114637382Y-65015009D01*
X114451223Y-64725709D01*
X114434079Y-64713995D01*
X114496652Y-64405000D01*
X114496652Y-63205000D01*
X114437382Y-62890009D01*
X114251223Y-62600709D01*
X113967176Y-62406628D01*
X113630000Y-62338348D01*
X112430000Y-62338348D01*
X112115009Y-62397618D01*
X111825709Y-62583777D01*
X111631628Y-62867824D01*
X111563348Y-63205000D01*
X111563348Y-64405000D01*
X111621631Y-64714745D01*
X111431628Y-64992824D01*
X111363348Y-65330000D01*
X101106582Y-65330000D01*
X101106582Y-63187941D01*
X101124235Y-63230665D01*
X101923539Y-64031365D01*
X102968414Y-64465235D01*
X104099787Y-64466222D01*
X105145417Y-64034177D01*
X105946117Y-63234873D01*
X106379987Y-62189998D01*
X106380974Y-61058625D01*
X106317141Y-60904138D01*
X106797880Y-61151204D01*
X106964604Y-61164911D01*
X106915978Y-61282016D01*
X106915387Y-61958676D01*
X107173788Y-62584054D01*
X107651841Y-63062942D01*
X108276768Y-63322434D01*
X108953428Y-63323025D01*
X109578806Y-63064624D01*
X110057694Y-62586571D01*
X110317186Y-61961644D01*
X110317777Y-61284984D01*
X110059376Y-60659606D01*
X109581323Y-60180718D01*
X109227295Y-60033713D01*
X109394110Y-59709126D01*
X109425540Y-59326830D01*
X111693673Y-59326830D01*
X111815439Y-59448808D01*
X111631628Y-59717824D01*
X111563348Y-60055000D01*
X111563348Y-61255000D01*
X111622618Y-61569991D01*
X111808777Y-61859291D01*
X112092824Y-62053372D01*
X112430000Y-62121652D01*
X113630000Y-62121652D01*
X113944991Y-62062382D01*
X114234291Y-61876223D01*
X114428372Y-61592176D01*
X114496652Y-61255000D01*
X114496652Y-60055000D01*
X114437382Y-59740009D01*
X114251223Y-59450709D01*
X114246237Y-59447302D01*
X114427986Y-59265870D01*
X114679713Y-58659645D01*
X114680285Y-58003235D01*
X114429617Y-57396571D01*
X113965870Y-56932014D01*
X113359645Y-56680287D01*
X112703235Y-56679715D01*
X112096571Y-56930383D01*
X111649344Y-57376830D01*
X108802225Y-57376830D01*
X108344020Y-56551906D01*
X108131050Y-56300781D01*
X108069804Y-55825972D01*
X107661973Y-55115299D01*
X107013224Y-54614792D01*
X106222322Y-54400650D01*
X105409676Y-54505474D01*
X104699003Y-54913305D01*
X104198496Y-55562054D01*
X103984354Y-56352956D01*
X103938536Y-57025042D01*
X104043360Y-57837688D01*
X104451191Y-58548361D01*
X104796522Y-58814782D01*
X104977658Y-59140888D01*
X104104750Y-58778425D01*
X102973377Y-58777438D01*
X102096027Y-59139951D01*
X102276642Y-58814782D01*
X102621973Y-58548361D01*
X103029804Y-57837688D01*
X103134628Y-57025042D01*
X103088810Y-56352956D01*
X102874668Y-55562054D01*
X102374161Y-54913305D01*
X101663488Y-54505474D01*
X100850842Y-54400650D01*
X100059940Y-54614792D01*
X99411191Y-55115299D01*
X99003360Y-55825972D01*
X98942114Y-56300782D01*
X98729144Y-56551907D01*
X97862396Y-58112346D01*
X97611916Y-58892501D01*
X97679054Y-59709126D01*
X97845903Y-60033780D01*
X97494358Y-60179036D01*
X97015470Y-60657089D01*
X96755978Y-61282016D01*
X96755387Y-61958676D01*
X97013788Y-62584054D01*
X97491841Y-63062942D01*
X98116768Y-63322434D01*
X98793428Y-63323025D01*
X99156582Y-63172973D01*
X99156582Y-74670670D01*
X99003360Y-74937670D01*
X98942114Y-75412480D01*
X98729144Y-75663605D01*
X97862396Y-77224044D01*
X97611916Y-78004199D01*
X97679054Y-78820824D01*
X97845903Y-79145478D01*
X97494358Y-79290734D01*
X97015470Y-79768787D01*
X96755978Y-80393714D01*
X96755387Y-81070374D01*
X97013788Y-81695752D01*
X97491841Y-82174640D01*
X98116768Y-82434132D01*
X98793428Y-82434723D01*
X99156582Y-82284671D01*
X99156582Y-93603754D01*
X99003360Y-93870754D01*
X98942114Y-94345564D01*
X98729144Y-94596689D01*
X97862396Y-96157128D01*
X97611916Y-96937283D01*
X97679054Y-97753908D01*
X97845903Y-98078562D01*
X97494358Y-98223818D01*
X97015470Y-98701871D01*
X96755978Y-99326798D01*
X96755387Y-100003458D01*
X97013788Y-100628836D01*
X97491841Y-101107724D01*
X98116768Y-101367216D01*
X98793428Y-101367807D01*
X99097044Y-101242355D01*
X99097044Y-112715452D01*
X98943822Y-112982452D01*
X98882576Y-113457262D01*
X98669606Y-113708387D01*
X97802858Y-115268826D01*
X97552378Y-116048981D01*
X97619516Y-116865606D01*
X97786365Y-117190260D01*
X97434820Y-117335516D01*
X96955932Y-117813569D01*
X96696440Y-118438496D01*
X96695849Y-119115156D01*
X94746042Y-119115156D01*
X94566223Y-118835709D01*
X94561237Y-118832302D01*
X94742986Y-118650870D01*
X94994713Y-118044645D01*
X94995285Y-117388235D01*
X94744617Y-116781571D01*
X94280870Y-116317014D01*
X93674645Y-116065287D01*
X93018235Y-116064715D01*
X92411571Y-116315383D01*
X91947014Y-116779130D01*
X91915389Y-116855292D01*
X89690527Y-116855292D01*
X89232322Y-116030368D01*
X89019352Y-115779243D01*
X88958106Y-115304434D01*
X88550275Y-114593761D01*
X87901526Y-114093254D01*
X87110624Y-113879112D01*
X86297978Y-113983936D01*
X85587305Y-114391767D01*
X85086798Y-115040516D01*
X84872656Y-115831418D01*
X84826838Y-116503504D01*
X84931662Y-117316150D01*
X85339493Y-118026823D01*
X85684824Y-118293244D01*
X85865960Y-118619350D01*
X84993052Y-118256887D01*
X83861679Y-118255900D01*
X82984329Y-118618413D01*
X83164944Y-118293244D01*
X83510275Y-118026823D01*
X83918106Y-117316150D01*
X84022930Y-116503504D01*
X83977112Y-115831418D01*
X83762970Y-115040516D01*
X83262463Y-114391767D01*
X82551790Y-113983936D01*
X81994884Y-113912100D01*
X81994884Y-110876177D01*
X92029662Y-110876177D01*
X92325906Y-111593143D01*
X92873971Y-112142166D01*
X93590419Y-112439661D01*
X94366177Y-112440338D01*
X95083143Y-112144094D01*
X95632166Y-111596029D01*
X95929661Y-110879581D01*
X95930338Y-110103823D01*
X95634094Y-109386857D01*
X95086029Y-108837834D01*
X94369581Y-108540339D01*
X93593823Y-108539662D01*
X92876857Y-108835906D01*
X92327834Y-109383971D01*
X92030339Y-110100419D01*
X92029662Y-110876177D01*
X81994884Y-110876177D01*
X81994884Y-105970000D01*
X92313348Y-105970000D01*
X92313348Y-107570000D01*
X92372618Y-107884991D01*
X92558777Y-108174291D01*
X92842824Y-108368372D01*
X93180000Y-108436652D01*
X94780000Y-108436652D01*
X95094991Y-108377382D01*
X95384291Y-108191223D01*
X95578372Y-107907176D01*
X95646652Y-107570000D01*
X95646652Y-105970000D01*
X95587382Y-105655009D01*
X95401223Y-105365709D01*
X95384079Y-105353995D01*
X95446652Y-105045000D01*
X95446652Y-103845000D01*
X95387382Y-103530009D01*
X95201223Y-103240709D01*
X94917176Y-103046628D01*
X94580000Y-102978348D01*
X93380000Y-102978348D01*
X93065009Y-103037618D01*
X92775709Y-103223777D01*
X92581628Y-103507824D01*
X92513348Y-103845000D01*
X92513348Y-105045000D01*
X92571631Y-105354745D01*
X92381628Y-105632824D01*
X92313348Y-105970000D01*
X81994884Y-105970000D01*
X81994884Y-103673781D01*
X82012537Y-103716505D01*
X82811841Y-104517205D01*
X83856716Y-104951075D01*
X84988089Y-104952062D01*
X86033719Y-104520017D01*
X86834419Y-103720713D01*
X87268289Y-102675838D01*
X87269276Y-101544465D01*
X87205443Y-101389978D01*
X87686182Y-101637044D01*
X87852906Y-101650751D01*
X87804280Y-101767856D01*
X87803689Y-102444516D01*
X88062090Y-103069894D01*
X88540143Y-103548782D01*
X89165070Y-103808274D01*
X89841730Y-103808865D01*
X90467108Y-103550464D01*
X90945996Y-103072411D01*
X91205488Y-102447484D01*
X91206079Y-101770824D01*
X90947678Y-101145446D01*
X90469625Y-100666558D01*
X90115597Y-100519553D01*
X90282412Y-100194966D01*
X90313842Y-99812670D01*
X92542882Y-99812670D01*
X92580383Y-99903429D01*
X92765439Y-100088808D01*
X92581628Y-100357824D01*
X92513348Y-100695000D01*
X92513348Y-101895000D01*
X92572618Y-102209991D01*
X92758777Y-102499291D01*
X93042824Y-102693372D01*
X93380000Y-102761652D01*
X94580000Y-102761652D01*
X94894991Y-102702382D01*
X95184291Y-102516223D01*
X95378372Y-102232176D01*
X95446652Y-101895000D01*
X95446652Y-100695000D01*
X95387382Y-100380009D01*
X95201223Y-100090709D01*
X95196237Y-100087302D01*
X95377986Y-99905870D01*
X95629713Y-99299645D01*
X95630285Y-98643235D01*
X95379617Y-98036571D01*
X94915870Y-97572014D01*
X94309645Y-97320287D01*
X93653235Y-97319715D01*
X93046571Y-97570383D01*
X92753773Y-97862670D01*
X89690527Y-97862670D01*
X89232322Y-97037746D01*
X89019352Y-96786621D01*
X88958106Y-96311812D01*
X88550275Y-95601139D01*
X87901526Y-95100632D01*
X87110624Y-94886490D01*
X86297978Y-94991314D01*
X85587305Y-95399145D01*
X85086798Y-96047894D01*
X84872656Y-96838796D01*
X84826838Y-97510882D01*
X84931662Y-98323528D01*
X85339493Y-99034201D01*
X85684824Y-99300622D01*
X85865960Y-99626728D01*
X84993052Y-99264265D01*
X83861679Y-99263278D01*
X82984329Y-99625791D01*
X83164944Y-99300622D01*
X83510275Y-99034201D01*
X83918106Y-98323528D01*
X84022930Y-97510882D01*
X83977112Y-96838796D01*
X83762970Y-96047894D01*
X83262463Y-95399145D01*
X82551790Y-94991314D01*
X81994884Y-94919478D01*
X81994884Y-86920000D01*
X92313348Y-86920000D01*
X92313348Y-88520000D01*
X92372618Y-88834991D01*
X92558777Y-89124291D01*
X92842824Y-89318372D01*
X93180000Y-89386652D01*
X94780000Y-89386652D01*
X95094991Y-89327382D01*
X95384291Y-89141223D01*
X95578372Y-88857176D01*
X95646652Y-88520000D01*
X95646652Y-87720000D01*
X96090000Y-87720000D01*
X96164217Y-88093117D01*
X96375571Y-88409429D01*
X96691883Y-88620783D01*
X97065000Y-88695000D01*
X97438117Y-88620783D01*
X97754429Y-88409429D01*
X97844429Y-88319429D01*
X98055782Y-88003117D01*
X98130000Y-87630000D01*
X98055782Y-87256883D01*
X97844429Y-86940571D01*
X97528117Y-86729218D01*
X97155000Y-86655000D01*
X96781883Y-86729218D01*
X96465571Y-86940571D01*
X96375571Y-87030571D01*
X96164217Y-87346883D01*
X96090000Y-87720000D01*
X95646652Y-87720000D01*
X95646652Y-86920000D01*
X95587382Y-86605009D01*
X95401223Y-86315709D01*
X95384079Y-86303995D01*
X95446652Y-85995000D01*
X95446652Y-84795000D01*
X95387382Y-84480009D01*
X95201223Y-84190709D01*
X94917176Y-83996628D01*
X94580000Y-83928348D01*
X93380000Y-83928348D01*
X93065009Y-83987618D01*
X92775709Y-84173777D01*
X92581628Y-84457824D01*
X92513348Y-84795000D01*
X92513348Y-85995000D01*
X92571631Y-86304745D01*
X92381628Y-86582824D01*
X92313348Y-86920000D01*
X81994884Y-86920000D01*
X81994884Y-84621621D01*
X82012537Y-84664345D01*
X82811841Y-85465045D01*
X83856716Y-85898915D01*
X84988089Y-85899902D01*
X86033719Y-85467857D01*
X86834419Y-84668553D01*
X87268289Y-83623678D01*
X87269276Y-82492305D01*
X87205443Y-82337818D01*
X87686182Y-82584884D01*
X87852906Y-82598591D01*
X87804280Y-82715696D01*
X87803689Y-83392356D01*
X88062090Y-84017734D01*
X88540143Y-84496622D01*
X89165070Y-84756114D01*
X89841730Y-84756705D01*
X90467108Y-84498304D01*
X90945996Y-84020251D01*
X91205488Y-83395324D01*
X91206079Y-82718664D01*
X90947678Y-82093286D01*
X90469625Y-81614398D01*
X90115597Y-81467393D01*
X90282412Y-81142806D01*
X90313842Y-80760510D01*
X92541990Y-80760510D01*
X92580383Y-80853429D01*
X92765439Y-81038808D01*
X92581628Y-81307824D01*
X92513348Y-81645000D01*
X92513348Y-82845000D01*
X92572618Y-83159991D01*
X92758777Y-83449291D01*
X93042824Y-83643372D01*
X93380000Y-83711652D01*
X94580000Y-83711652D01*
X94894991Y-83652382D01*
X95184291Y-83466223D01*
X95378372Y-83182176D01*
X95446652Y-82845000D01*
X95446652Y-81645000D01*
X95387382Y-81330009D01*
X95201223Y-81040709D01*
X95196237Y-81037302D01*
X95377986Y-80855870D01*
X95629713Y-80249645D01*
X95630285Y-79593235D01*
X95379617Y-78986571D01*
X94915870Y-78522014D01*
X94309645Y-78270287D01*
X93653235Y-78269715D01*
X93046571Y-78520383D01*
X92755937Y-78810510D01*
X89690527Y-78810510D01*
X89232322Y-77985586D01*
X89019352Y-77734461D01*
X88958106Y-77259652D01*
X88550275Y-76548979D01*
X87901526Y-76048472D01*
X87110624Y-75834330D01*
X86297978Y-75939154D01*
X85587305Y-76346985D01*
X85086798Y-76995734D01*
X84872656Y-77786636D01*
X84826838Y-78458722D01*
X84931662Y-79271368D01*
X85339493Y-79982041D01*
X85684824Y-80248462D01*
X85865960Y-80574568D01*
X84993052Y-80212105D01*
X83861679Y-80211118D01*
X82984329Y-80573631D01*
X83164944Y-80248462D01*
X83510275Y-79982041D01*
X83918106Y-79271368D01*
X84022930Y-78458722D01*
X83977112Y-77786636D01*
X83762970Y-76995734D01*
X83262463Y-76346985D01*
X82551790Y-75939154D01*
X82014288Y-75869821D01*
X82014288Y-72776177D01*
X92029662Y-72776177D01*
X92325906Y-73493143D01*
X92873971Y-74042166D01*
X93590419Y-74339661D01*
X94366177Y-74340338D01*
X95083143Y-74044094D01*
X95632166Y-73496029D01*
X95929661Y-72779581D01*
X95930338Y-72003823D01*
X95634094Y-71286857D01*
X95086029Y-70737834D01*
X94369581Y-70440339D01*
X93593823Y-70439662D01*
X92876857Y-70735906D01*
X92327834Y-71283971D01*
X92030339Y-72000419D01*
X92029662Y-72776177D01*
X82014288Y-72776177D01*
X82014288Y-67870000D01*
X91678348Y-67870000D01*
X91678348Y-69470000D01*
X91737618Y-69784991D01*
X91923777Y-70074291D01*
X92207824Y-70268372D01*
X92545000Y-70336652D01*
X94145000Y-70336652D01*
X94459991Y-70277382D01*
X94749291Y-70091223D01*
X94943372Y-69807176D01*
X95011652Y-69470000D01*
X95011652Y-67870000D01*
X94952382Y-67555009D01*
X94766223Y-67265709D01*
X94749079Y-67253995D01*
X94811652Y-66945000D01*
X94811652Y-65745000D01*
X94752382Y-65430009D01*
X94566223Y-65140709D01*
X94282176Y-64946628D01*
X93945000Y-64878348D01*
X92745000Y-64878348D01*
X92430009Y-64937618D01*
X92140709Y-65123777D01*
X91946628Y-65407824D01*
X91878348Y-65745000D01*
X91878348Y-66945000D01*
X91936631Y-67254745D01*
X91746628Y-67532824D01*
X91678348Y-67870000D01*
X82014288Y-67870000D01*
X82014288Y-65509923D01*
X82031941Y-65552647D01*
X82831245Y-66353347D01*
X83876120Y-66787217D01*
X85007493Y-66788204D01*
X86053123Y-66356159D01*
X86853823Y-65556855D01*
X87287693Y-64511980D01*
X87288680Y-63380607D01*
X87224847Y-63226120D01*
X87705586Y-63473186D01*
X87872310Y-63486893D01*
X87823684Y-63603998D01*
X87823093Y-64280658D01*
X88081494Y-64906036D01*
X88559547Y-65384924D01*
X89184474Y-65644416D01*
X89861134Y-65645007D01*
X90486512Y-65386606D01*
X90965400Y-64908553D01*
X91224892Y-64283626D01*
X91225483Y-63606966D01*
X90967082Y-62981588D01*
X90489029Y-62502700D01*
X90135001Y-62355695D01*
X90301816Y-62031108D01*
X90333246Y-61648812D01*
X91881497Y-61648812D01*
X91945383Y-61803429D01*
X92130439Y-61988808D01*
X91946628Y-62257824D01*
X91878348Y-62595000D01*
X91878348Y-63795000D01*
X91937618Y-64109991D01*
X92123777Y-64399291D01*
X92407824Y-64593372D01*
X92745000Y-64661652D01*
X93945000Y-64661652D01*
X94259991Y-64602382D01*
X94549291Y-64416223D01*
X94743372Y-64132176D01*
X94811652Y-63795000D01*
X94811652Y-62595000D01*
X94752382Y-62280009D01*
X94566223Y-61990709D01*
X94561237Y-61987302D01*
X94742986Y-61805870D01*
X94994713Y-61199645D01*
X94995285Y-60543235D01*
X94744617Y-59936571D01*
X94280870Y-59472014D01*
X93674645Y-59220287D01*
X93018235Y-59219715D01*
X92411571Y-59470383D01*
X92182743Y-59698812D01*
X89709931Y-59698812D01*
X89251726Y-58873888D01*
X89038756Y-58622763D01*
X88977510Y-58147954D01*
X88569679Y-57437281D01*
X87920930Y-56936774D01*
X87130028Y-56722632D01*
X86317382Y-56827456D01*
X85606709Y-57235287D01*
X85106202Y-57884036D01*
X84892060Y-58674938D01*
X84846242Y-59347024D01*
X84951066Y-60159670D01*
X85358897Y-60870343D01*
X85704228Y-61136764D01*
X85885364Y-61462870D01*
X85012456Y-61100407D01*
X83881083Y-61099420D01*
X83003733Y-61461933D01*
X83184348Y-61136764D01*
X83529679Y-60870343D01*
X83937510Y-60159670D01*
X84042334Y-59347024D01*
X83996516Y-58674938D01*
X83782374Y-57884036D01*
X83281867Y-57235287D01*
X82571194Y-56827456D01*
X81758548Y-56722632D01*
X80967646Y-56936774D01*
X80318897Y-57437281D01*
X79911066Y-58147954D01*
X79849820Y-58622764D01*
X79636850Y-58873889D01*
X78770102Y-60434328D01*
X78519622Y-61214483D01*
X78586760Y-62031108D01*
X78753609Y-62355762D01*
X78402064Y-62501018D01*
X77923176Y-62979071D01*
X77663684Y-63603998D01*
X77663093Y-64280658D01*
X77921494Y-64906036D01*
X78399547Y-65384924D01*
X79024474Y-65644416D01*
X79701134Y-65645007D01*
X80064288Y-65494955D01*
X80064288Y-76958840D01*
X79891662Y-77259652D01*
X79830416Y-77734462D01*
X79617446Y-77985587D01*
X78750698Y-79546026D01*
X78500218Y-80326181D01*
X78567356Y-81142806D01*
X78734205Y-81467460D01*
X78382660Y-81612716D01*
X77903772Y-82090769D01*
X77644280Y-82715696D01*
X77643689Y-83392356D01*
X75855000Y-83392356D01*
X75855000Y-54201853D01*
X76078901Y-54109111D01*
X76109462Y-54078551D01*
X97630670Y-50436500D01*
X108180000Y-50436500D01*
X108180000Y-50939076D01*
X108309405Y-51251487D01*
X108548514Y-51490595D01*
X108860925Y-51620000D01*
X109713500Y-51620000D01*
X109926000Y-51407500D01*
X109926000Y-50224000D01*
X109934000Y-50224000D01*
X109934000Y-51407500D01*
X110146500Y-51620000D01*
X110999075Y-51620000D01*
X111311486Y-51490595D01*
X111550595Y-51251487D01*
X111680000Y-50939076D01*
X111680000Y-50436500D01*
X114380000Y-50436500D01*
X114380000Y-50939076D01*
X114509405Y-51251487D01*
X114748514Y-51490595D01*
X115060925Y-51620000D01*
X115913500Y-51620000D01*
X116126000Y-51407500D01*
X116126000Y-50224000D01*
X114592500Y-50224000D01*
X114380000Y-50436500D01*
X111680000Y-50436500D01*
X111467500Y-50224000D01*
X109934000Y-50224000D01*
X109926000Y-50224000D01*
X108392500Y-50224000D01*
X108180000Y-50436500D01*
X97630670Y-50436500D01*
X103159073Y-49500924D01*
X108180000Y-49500924D01*
X108180000Y-50003500D01*
X108392500Y-50216000D01*
X109926000Y-50216000D01*
X109926000Y-49032500D01*
X109934000Y-49032500D01*
X109934000Y-50216000D01*
X111467500Y-50216000D01*
X111680000Y-50003500D01*
X111680000Y-49500924D01*
X114380000Y-49500924D01*
X114380000Y-50003500D01*
X114592500Y-50216000D01*
X116126000Y-50216000D01*
X116126000Y-49032500D01*
X116134000Y-49032500D01*
X116134000Y-50216000D01*
X117667500Y-50216000D01*
X117880000Y-50003500D01*
X117880000Y-49500924D01*
X117750595Y-49188513D01*
X117511486Y-48949405D01*
X117199075Y-48820000D01*
X116346500Y-48820000D01*
X116134000Y-49032500D01*
X116126000Y-49032500D01*
X115913500Y-48820000D01*
X115060925Y-48820000D01*
X114748514Y-48949405D01*
X114509405Y-49188513D01*
X114380000Y-49500924D01*
X111680000Y-49500924D01*
X111550595Y-49188513D01*
X111311486Y-48949405D01*
X110999075Y-48820000D01*
X110146500Y-48820000D01*
X109934000Y-49032500D01*
X109926000Y-49032500D01*
X109713500Y-48820000D01*
X108860925Y-48820000D01*
X108548514Y-48949405D01*
X108309405Y-49188513D01*
X108180000Y-49500924D01*
X103159073Y-49500924D01*
X107715218Y-48729884D01*
X118528784Y-48729884D01*
X118719728Y-48995773D01*
X120203224Y-48995773D01*
X120203224Y-47512278D01*
X119937335Y-47321333D01*
X119814257Y-47345815D01*
X119211228Y-47622097D01*
X118759830Y-48108117D01*
X118528784Y-48729884D01*
X107715218Y-48729884D01*
X116282715Y-47280000D01*
X122679194Y-47280000D01*
X122096662Y-47395873D01*
G36*
X147533439Y-51486746D02*
X147795699Y-52121463D01*
X148182869Y-52509309D01*
X148168537Y-52587713D01*
X149260038Y-53679213D01*
X150351539Y-52587713D01*
X150337130Y-52508885D01*
X150722670Y-52124017D01*
X150790000Y-51961868D01*
X150790000Y-52846071D01*
X150758694Y-52761802D01*
X150686352Y-52653536D01*
X150357195Y-52593369D01*
X149265695Y-53684870D01*
X150357195Y-54776371D01*
X150686352Y-54716204D01*
X150790000Y-54490024D01*
X150790000Y-55386071D01*
X150758694Y-55301802D01*
X150686352Y-55193536D01*
X150357195Y-55133369D01*
X149265695Y-56224870D01*
X149279837Y-56239012D01*
X149274180Y-56244669D01*
X149260038Y-56230527D01*
X149245896Y-56244669D01*
X149240239Y-56239012D01*
X149254381Y-56224870D01*
X148162881Y-55133369D01*
X147833724Y-55193536D01*
X147741499Y-55394790D01*
X147704913Y-55358140D01*
X147350885Y-55211135D01*
X147517700Y-54886548D01*
X147526293Y-54782027D01*
X148168537Y-54782027D01*
X148200131Y-54954870D01*
X148168537Y-55127713D01*
X149260038Y-56219213D01*
X150351539Y-55127713D01*
X150319945Y-54954870D01*
X150351539Y-54782027D01*
X149260038Y-53690527D01*
X148168537Y-54782027D01*
X147526293Y-54782027D01*
X147580611Y-54121343D01*
X147761382Y-54607938D01*
X147833724Y-54716204D01*
X148162881Y-54776371D01*
X149254381Y-53684870D01*
X148162881Y-52593369D01*
X147833724Y-52653536D01*
X147547621Y-53277869D01*
X147525181Y-53884113D01*
X147334358Y-53289768D01*
X146467610Y-51729328D01*
X146254640Y-51478203D01*
X146193394Y-51003394D01*
X146144716Y-50918569D01*
X147533935Y-50918569D01*
X147533439Y-51486746D01*
X147533439Y-51486746D01*
G37*
X147533439Y-51486746D02*
X147795699Y-52121463D01*
X148182869Y-52509309D01*
X148168537Y-52587713D01*
X149260038Y-53679213D01*
X150351539Y-52587713D01*
X150337130Y-52508885D01*
X150722670Y-52124017D01*
X150790000Y-51961868D01*
X150790000Y-52846071D01*
X150758694Y-52761802D01*
X150686352Y-52653536D01*
X150357195Y-52593369D01*
X149265695Y-53684870D01*
X150357195Y-54776371D01*
X150686352Y-54716204D01*
X150790000Y-54490024D01*
X150790000Y-55386071D01*
X150758694Y-55301802D01*
X150686352Y-55193536D01*
X150357195Y-55133369D01*
X149265695Y-56224870D01*
X149279837Y-56239012D01*
X149274180Y-56244669D01*
X149260038Y-56230527D01*
X149245896Y-56244669D01*
X149240239Y-56239012D01*
X149254381Y-56224870D01*
X148162881Y-55133369D01*
X147833724Y-55193536D01*
X147741499Y-55394790D01*
X147704913Y-55358140D01*
X147350885Y-55211135D01*
X147517700Y-54886548D01*
X147526293Y-54782027D01*
X148168537Y-54782027D01*
X148200131Y-54954870D01*
X148168537Y-55127713D01*
X149260038Y-56219213D01*
X150351539Y-55127713D01*
X150319945Y-54954870D01*
X150351539Y-54782027D01*
X149260038Y-53690527D01*
X148168537Y-54782027D01*
X147526293Y-54782027D01*
X147580611Y-54121343D01*
X147761382Y-54607938D01*
X147833724Y-54716204D01*
X148162881Y-54776371D01*
X149254381Y-53684870D01*
X148162881Y-52593369D01*
X147833724Y-52653536D01*
X147547621Y-53277869D01*
X147525181Y-53884113D01*
X147334358Y-53289768D01*
X146467610Y-51729328D01*
X146254640Y-51478203D01*
X146193394Y-51003394D01*
X146144716Y-50918569D01*
X147533935Y-50918569D01*
X147533439Y-51486746D01*
G36*
X137126950Y-51003394D02*
X137065704Y-51478204D01*
X136852734Y-51729329D01*
X135985986Y-53289768D01*
X135735506Y-54069923D01*
X135802644Y-54886548D01*
X135969493Y-55211202D01*
X135617948Y-55356458D01*
X135555029Y-55419267D01*
X135484377Y-55248277D01*
X135191395Y-54954784D01*
X135482670Y-54664017D01*
X135746037Y-54029759D01*
X135746637Y-53342994D01*
X135484377Y-52708277D01*
X135097207Y-52320431D01*
X135111539Y-52242027D01*
X134020038Y-51150527D01*
X134005896Y-51164669D01*
X134000239Y-51159012D01*
X134014381Y-51144870D01*
X134000239Y-51130728D01*
X134005896Y-51125071D01*
X134020038Y-51139213D01*
X134034180Y-51125071D01*
X134039837Y-51130728D01*
X134025695Y-51144870D01*
X135117195Y-52236371D01*
X135446352Y-52176204D01*
X135732455Y-51551871D01*
X135755897Y-50918569D01*
X137175628Y-50918569D01*
X137126950Y-51003394D01*
X137126950Y-51003394D01*
G37*
X137126950Y-51003394D02*
X137065704Y-51478204D01*
X136852734Y-51729329D01*
X135985986Y-53289768D01*
X135735506Y-54069923D01*
X135802644Y-54886548D01*
X135969493Y-55211202D01*
X135617948Y-55356458D01*
X135555029Y-55419267D01*
X135484377Y-55248277D01*
X135191395Y-54954784D01*
X135482670Y-54664017D01*
X135746037Y-54029759D01*
X135746637Y-53342994D01*
X135484377Y-52708277D01*
X135097207Y-52320431D01*
X135111539Y-52242027D01*
X134020038Y-51150527D01*
X134005896Y-51164669D01*
X134000239Y-51159012D01*
X134014381Y-51144870D01*
X134000239Y-51130728D01*
X134005896Y-51125071D01*
X134020038Y-51139213D01*
X134034180Y-51125071D01*
X134039837Y-51130728D01*
X134025695Y-51144870D01*
X135117195Y-52236371D01*
X135446352Y-52176204D01*
X135732455Y-51551871D01*
X135755897Y-50918569D01*
X137175628Y-50918569D01*
X137126950Y-51003394D01*
M02*
