M48
; DRILL file {KiCad (5.1.10)-1} date 10/25/21 17:00:02
; FORMAT={-:-/ absolute / inch / decimal}
; #@! TF.CreationDate,2021-10-25T17:00:02-06:00
; #@! TF.GenerationSoftware,Kicad,Pcbnew,(5.1.10)-1
; #@! TF.FileFunction,Plated,1,2,PTH
FMAT,2
INCH
T1C0.0118
T2C0.0157
T3C0.0276
T4C0.0315
T5C0.0394
T6C0.0430
T7C0.0590
%
G90
G05
T1
X6.7546Y-1.99
X6.7546Y-1.99
X6.79Y-1.99
X6.79Y-1.99
T2
X3.8386Y-2.6142
X4.1Y-2.0896
X4.1102Y-2.1654
X4.2677Y-2.2441
X4.3661Y-2.3622
X4.45Y-1.9772
X4.45Y-2.1228
X4.45Y-2.1228
X4.5709Y-2.2126
X4.6063Y-2.7047
X4.6181Y-2.5866
X4.6555Y-2.7067
X4.6555Y-2.7953
X4.765Y-1.9357
X4.7913Y-2.5512
X4.801Y-1.9496
X4.9606Y-2.378
X5.0591Y-2.4843
X5.1575Y-2.7795
X5.1811Y-1.8976
X5.3622Y-2.3937
X5.3661Y-2.6181
X5.45Y-3.025
X5.5787Y-2.8504
X5.5906Y-2.5945
X6.0Y-3.525
X6.015Y-3.87
X6.0354Y-2.8661
X6.0677Y-3.4393
X6.1339Y-3.3661
X6.25Y-3.4
X6.4016Y-3.2835
X6.62Y-2.0
X6.7Y-3.45
X6.8031Y-3.5472
X6.811Y-3.3701
X7.0748Y-1.9331
X7.1024Y-3.5433
X7.1142Y-3.378
X7.2598Y-4.6535
X7.4488Y-4.4291
X7.51Y-3.675
X7.6554Y-2.0627
X7.7422Y-2.0627
X7.9015Y-2.0627
X8.0187Y-2.0627
T3
X3.675Y-2.3965
X3.675Y-2.7035
X3.675Y-4.6344
X3.675Y-4.9415
X3.7Y-3.1465
X3.7Y-3.4535
X3.7Y-3.8965
X3.7Y-4.2035
X4.45Y-2.2965
X4.45Y-2.6035
X4.45Y-3.0652
X4.45Y-3.3722
X4.45Y-3.8085
X4.45Y-4.1156
X4.45Y-4.5465
X4.45Y-4.8535
X5.15Y-2.2094
X5.15Y-2.5165
X5.175Y-3.1465
X5.175Y-3.4535
X5.2Y-3.6965
X5.2Y-4.0035
X5.2Y-4.4585
X5.2Y-4.7656
X5.95Y-3.1465
X5.95Y-3.4535
X5.95Y-3.6215
X5.95Y-3.9285
X5.95Y-4.3585
X5.95Y-4.6656
X6.0Y-2.2179
X6.0Y-2.525
X6.1Y-4.3594
X6.1Y-4.6665
X6.7Y-2.2085
X6.7Y-2.5156
X6.7Y-2.9715
X6.7Y-3.2785
X6.7Y-3.7
X6.7Y-4.0071
X7.05Y-4.4179
X7.05Y-4.725
X7.17Y-4.3894
X7.17Y-4.6965
X7.45Y-2.3028
X7.45Y-2.6098
X7.45Y-3.0465
X7.45Y-3.3535
X7.45Y-3.7652
X7.45Y-4.0722
X7.7028Y-3.0
X7.7465Y-3.8
X7.75Y-3.7
X8.0098Y-3.0
X8.0535Y-3.8
X8.0571Y-3.7
T4
X6.8831Y-1.93
X6.8844Y-2.06
X7.2831Y-1.93
X7.2844Y-2.06
T5
X3.6515Y-2.1045
X3.75Y-2.0872
X3.8485Y-2.0698
X3.947Y-2.0524
X4.0454Y-2.0351
X4.1439Y-2.0177
X5.05Y-1.9
X5.05Y-2.0
X6.14Y-1.92
X6.24Y-1.92
X6.34Y-1.92
X6.44Y-1.92
X6.54Y-1.92
X7.0Y-4.3
X7.1Y-4.3
T6
X5.2764Y-1.9706
X5.2764Y-2.0706
X5.2764Y-2.1706
X5.2764Y-2.2706
X5.2764Y-2.3706
X5.2764Y-2.4706
X5.2764Y-2.5706
X5.2764Y-2.6706
X5.2764Y-2.7706
X5.2764Y-2.8706
X5.2764Y-2.9706
X5.2764Y-3.0706
X5.8764Y-1.9706
X5.8764Y-2.0706
X5.8764Y-2.1706
X5.8764Y-2.2706
X5.8764Y-2.3706
X5.8764Y-2.4706
X5.8764Y-2.5706
X5.8764Y-2.6706
X5.8764Y-2.7706
X5.8764Y-2.8706
X5.8764Y-2.9706
X5.8764Y-3.0706
T7
X3.1738Y-3.1699
X3.1738Y-3.92
X3.1738Y-4.6677
X3.1746Y-2.4175
X3.2238Y-3.0699
X3.2238Y-3.82
X3.2238Y-4.5677
X3.2246Y-2.3175
X3.4238Y-3.0699
X3.4238Y-3.82
X3.4238Y-4.5677
X3.4246Y-2.3175
X3.4738Y-3.1699
X3.4738Y-3.92
X3.4738Y-4.6677
X3.4746Y-2.4175
X3.9239Y-4.5763
X3.9262Y-2.3261
X3.9262Y-3.0785
X3.9262Y-3.8239
X3.9739Y-4.4763
X3.9762Y-2.2261
X3.9762Y-2.9785
X3.9762Y-3.7239
X4.1739Y-4.4763
X4.1762Y-2.2261
X4.1762Y-2.9785
X4.1762Y-3.7239
X4.2239Y-4.5763
X4.2262Y-2.3261
X4.2262Y-3.0785
X4.2262Y-3.8239
X4.6716Y-3.7301
X4.674Y-2.2276
X4.674Y-2.9824
X4.6756Y-4.4826
X4.7216Y-3.6301
X4.724Y-2.1276
X4.724Y-2.8824
X4.7256Y-4.3826
X4.9216Y-3.6301
X4.924Y-2.1276
X4.924Y-2.8824
X4.9256Y-4.3826
X4.9716Y-3.7301
X4.974Y-2.2276
X4.974Y-2.9824
X4.9756Y-4.4826
X5.4241Y-4.3888
X5.4257Y-2.8863
X5.4264Y-3.6387
X5.4272Y-2.1362
X5.4741Y-4.2888
X5.4757Y-2.7863
X5.4764Y-3.5387
X5.4772Y-2.0362
X5.6741Y-4.2888
X5.6757Y-2.7863
X5.6764Y-3.5387
X5.6772Y-2.0362
X5.7241Y-4.3888
X5.7257Y-2.8863
X5.7264Y-3.6387
X5.7272Y-2.1362
X6.1742Y-2.23
X6.1742Y-2.9824
X6.1742Y-3.7301
X6.2242Y-2.13
X6.2242Y-2.8824
X6.2242Y-3.6301
X6.4242Y-2.13
X6.4242Y-2.8824
X6.4242Y-3.6301
X6.454Y-4.5377
X6.4742Y-2.23
X6.4742Y-2.9824
X6.4742Y-3.7301
X6.5206Y-4.4479
X6.7176Y-4.4827
X6.7494Y-4.5898
X6.9242Y-2.3237
X6.9242Y-3.8239
X6.9266Y-3.0761
X6.9742Y-2.2237
X6.9742Y-3.7239
X6.9766Y-2.9761
X7.1742Y-2.2237
X7.1742Y-3.7239
X7.1766Y-2.9761
X7.2242Y-2.3237
X7.2242Y-3.8239
X7.2266Y-3.0761
X7.273Y-4.9559
X7.3346Y-5.0492
X7.373Y-4.7827
X7.4846Y-4.7894
X7.6496Y-4.3045
X7.6743Y-3.2613
X7.6759Y-2.51
X7.6961Y-4.8208
X7.7112Y-4.3978
X7.7243Y-3.1613
X7.7259Y-2.41
X7.7496Y-4.1313
X7.8077Y-4.8275
X7.8461Y-4.561
X7.8612Y-4.138
X7.9077Y-4.6543
X7.9243Y-3.1613
X7.9259Y-2.41
X7.9743Y-3.2613
X7.9759Y-2.51
T0
M30
