G04 #@! TF.FileFunction,Legend,Top*
%FSLAX46Y46*%
G04 Gerber Fmt 4.6, Leading zero omitted, Abs format (unit mm)*
G04 Created by KiCad (PCBNEW 4.0.7) date 03/21/18 00:22:46*
%MOMM*%
%LPD*%
G01*
G04 APERTURE LIST*
%ADD10C,0.100000*%
%ADD11C,0.250000*%
%ADD12C,0.300000*%
%ADD13C,0.200000*%
%ADD14C,0.120000*%
%ADD15C,0.381000*%
%ADD16C,0.150000*%
%ADD17C,0.203200*%
G04 APERTURE END LIST*
D10*
D11*
X162242667Y-50252381D02*
X162576000Y-51252381D01*
X162909334Y-50252381D01*
X163814096Y-51157143D02*
X163766477Y-51204762D01*
X163623620Y-51252381D01*
X163528382Y-51252381D01*
X163385524Y-51204762D01*
X163290286Y-51109524D01*
X163242667Y-51014286D01*
X163195048Y-50823810D01*
X163195048Y-50680952D01*
X163242667Y-50490476D01*
X163290286Y-50395238D01*
X163385524Y-50300000D01*
X163528382Y-50252381D01*
X163623620Y-50252381D01*
X163766477Y-50300000D01*
X163814096Y-50347619D01*
X164814096Y-51157143D02*
X164766477Y-51204762D01*
X164623620Y-51252381D01*
X164528382Y-51252381D01*
X164385524Y-51204762D01*
X164290286Y-51109524D01*
X164242667Y-51014286D01*
X164195048Y-50823810D01*
X164195048Y-50680952D01*
X164242667Y-50490476D01*
X164290286Y-50395238D01*
X164385524Y-50300000D01*
X164528382Y-50252381D01*
X164623620Y-50252381D01*
X164766477Y-50300000D01*
X164814096Y-50347619D01*
X160536000Y-51252381D02*
X160536000Y-50252381D01*
X160774095Y-50252381D01*
X160916953Y-50300000D01*
X161012191Y-50395238D01*
X161059810Y-50490476D01*
X161107429Y-50680952D01*
X161107429Y-50823810D01*
X161059810Y-51014286D01*
X161012191Y-51109524D01*
X160916953Y-51204762D01*
X160774095Y-51252381D01*
X160536000Y-51252381D01*
X161536000Y-51252381D02*
X161536000Y-50252381D01*
X157734096Y-50300000D02*
X157638858Y-50252381D01*
X157496001Y-50252381D01*
X157353143Y-50300000D01*
X157257905Y-50395238D01*
X157210286Y-50490476D01*
X157162667Y-50680952D01*
X157162667Y-50823810D01*
X157210286Y-51014286D01*
X157257905Y-51109524D01*
X157353143Y-51204762D01*
X157496001Y-51252381D01*
X157591239Y-51252381D01*
X157734096Y-51204762D01*
X157781715Y-51157143D01*
X157781715Y-50823810D01*
X157591239Y-50823810D01*
X158210286Y-51252381D02*
X158210286Y-50252381D01*
X158781715Y-51252381D01*
X158781715Y-50252381D01*
X159257905Y-51252381D02*
X159257905Y-50252381D01*
X159496000Y-50252381D01*
X159638858Y-50300000D01*
X159734096Y-50395238D01*
X159781715Y-50490476D01*
X159829334Y-50680952D01*
X159829334Y-50823810D01*
X159781715Y-51014286D01*
X159734096Y-51109524D01*
X159638858Y-51204762D01*
X159496000Y-51252381D01*
X159257905Y-51252381D01*
D12*
X134446903Y-124317143D02*
X135113570Y-124317143D01*
X135399284Y-125364762D02*
X134446903Y-125364762D01*
X134446903Y-123364762D01*
X135399284Y-123364762D01*
X136256427Y-125364762D02*
X136256427Y-124031429D01*
X136256427Y-124412381D02*
X136351666Y-124221905D01*
X136446904Y-124126667D01*
X136637380Y-124031429D01*
X136827856Y-124031429D01*
X138351665Y-124031429D02*
X138351665Y-125650476D01*
X138256427Y-125840952D01*
X138161189Y-125936190D01*
X137970713Y-126031429D01*
X137684999Y-126031429D01*
X137494522Y-125936190D01*
X138351665Y-125269524D02*
X138161189Y-125364762D01*
X137780237Y-125364762D01*
X137589761Y-125269524D01*
X137494522Y-125174286D01*
X137399284Y-124983810D01*
X137399284Y-124412381D01*
X137494522Y-124221905D01*
X137589761Y-124126667D01*
X137780237Y-124031429D01*
X138161189Y-124031429D01*
X138351665Y-124126667D01*
X139589761Y-125364762D02*
X139399285Y-125269524D01*
X139304046Y-125174286D01*
X139208808Y-124983810D01*
X139208808Y-124412381D01*
X139304046Y-124221905D01*
X139399285Y-124126667D01*
X139589761Y-124031429D01*
X139875475Y-124031429D01*
X140065951Y-124126667D01*
X140161189Y-124221905D01*
X140256427Y-124412381D01*
X140256427Y-124983810D01*
X140161189Y-125174286D01*
X140065951Y-125269524D01*
X139875475Y-125364762D01*
X139589761Y-125364762D01*
X140827856Y-123364762D02*
X141970713Y-123364762D01*
X141399285Y-125364762D02*
X141399285Y-123364762D01*
X142637380Y-125364762D02*
X142637380Y-124031429D01*
X142637380Y-124412381D02*
X142732619Y-124221905D01*
X142827857Y-124126667D01*
X143018333Y-124031429D01*
X143208809Y-124031429D01*
X144732618Y-125364762D02*
X144732618Y-124317143D01*
X144637380Y-124126667D01*
X144446904Y-124031429D01*
X144065952Y-124031429D01*
X143875475Y-124126667D01*
X144732618Y-125269524D02*
X144542142Y-125364762D01*
X144065952Y-125364762D01*
X143875475Y-125269524D01*
X143780237Y-125079048D01*
X143780237Y-124888571D01*
X143875475Y-124698095D01*
X144065952Y-124602857D01*
X144542142Y-124602857D01*
X144732618Y-124507619D01*
X145494523Y-124031429D02*
X145970714Y-125364762D01*
X146446904Y-124031429D01*
X147970714Y-125269524D02*
X147780238Y-125364762D01*
X147399286Y-125364762D01*
X147208809Y-125269524D01*
X147113571Y-125079048D01*
X147113571Y-124317143D01*
X147208809Y-124126667D01*
X147399286Y-124031429D01*
X147780238Y-124031429D01*
X147970714Y-124126667D01*
X148065952Y-124317143D01*
X148065952Y-124507619D01*
X147113571Y-124698095D01*
X149208810Y-125364762D02*
X149018334Y-125269524D01*
X148923095Y-125079048D01*
X148923095Y-123364762D01*
X151208810Y-123364762D02*
X151875477Y-125364762D01*
X152542144Y-123364762D01*
X154256430Y-125364762D02*
X153113572Y-125364762D01*
X153685001Y-125364762D02*
X153685001Y-123364762D01*
X153494525Y-123650476D01*
X153304049Y-123840952D01*
X153113572Y-123936190D01*
X155113572Y-125174286D02*
X155208811Y-125269524D01*
X155113572Y-125364762D01*
X155018334Y-125269524D01*
X155113572Y-125174286D01*
X155113572Y-125364762D01*
X156446906Y-123364762D02*
X156637382Y-123364762D01*
X156827858Y-123460000D01*
X156923096Y-123555238D01*
X157018334Y-123745714D01*
X157113573Y-124126667D01*
X157113573Y-124602857D01*
X157018334Y-124983810D01*
X156923096Y-125174286D01*
X156827858Y-125269524D01*
X156637382Y-125364762D01*
X156446906Y-125364762D01*
X156256430Y-125269524D01*
X156161192Y-125174286D01*
X156065953Y-124983810D01*
X155970715Y-124602857D01*
X155970715Y-124126667D01*
X156065953Y-123745714D01*
X156161192Y-123555238D01*
X156256430Y-123460000D01*
X156446906Y-123364762D01*
X159018335Y-125364762D02*
X157875477Y-125364762D01*
X158446906Y-125364762D02*
X158446906Y-123364762D01*
X158256430Y-123650476D01*
X158065954Y-123840952D01*
X157875477Y-123936190D01*
X134387858Y-128805714D02*
X134316429Y-128877143D01*
X134102143Y-128948571D01*
X133959286Y-128948571D01*
X133745001Y-128877143D01*
X133602143Y-128734286D01*
X133530715Y-128591429D01*
X133459286Y-128305714D01*
X133459286Y-128091429D01*
X133530715Y-127805714D01*
X133602143Y-127662857D01*
X133745001Y-127520000D01*
X133959286Y-127448571D01*
X134102143Y-127448571D01*
X134316429Y-127520000D01*
X134387858Y-127591429D01*
X135245001Y-128948571D02*
X135102143Y-128877143D01*
X135030715Y-128805714D01*
X134959286Y-128662857D01*
X134959286Y-128234286D01*
X135030715Y-128091429D01*
X135102143Y-128020000D01*
X135245001Y-127948571D01*
X135459286Y-127948571D01*
X135602143Y-128020000D01*
X135673572Y-128091429D01*
X135745001Y-128234286D01*
X135745001Y-128662857D01*
X135673572Y-128805714D01*
X135602143Y-128877143D01*
X135459286Y-128948571D01*
X135245001Y-128948571D01*
X136387858Y-127948571D02*
X136387858Y-129448571D01*
X136387858Y-128020000D02*
X136530715Y-127948571D01*
X136816429Y-127948571D01*
X136959286Y-128020000D01*
X137030715Y-128091429D01*
X137102144Y-128234286D01*
X137102144Y-128662857D01*
X137030715Y-128805714D01*
X136959286Y-128877143D01*
X136816429Y-128948571D01*
X136530715Y-128948571D01*
X136387858Y-128877143D01*
X137602144Y-127948571D02*
X137959287Y-128948571D01*
X138316429Y-127948571D02*
X137959287Y-128948571D01*
X137816429Y-129305714D01*
X137745001Y-129377143D01*
X137602144Y-129448571D01*
X138887858Y-128948571D02*
X138887858Y-127948571D01*
X138887858Y-128234286D02*
X138959286Y-128091429D01*
X139030715Y-128020000D01*
X139173572Y-127948571D01*
X139316429Y-127948571D01*
X139816429Y-128948571D02*
X139816429Y-127948571D01*
X139816429Y-127448571D02*
X139745000Y-127520000D01*
X139816429Y-127591429D01*
X139887857Y-127520000D01*
X139816429Y-127448571D01*
X139816429Y-127591429D01*
X141173572Y-127948571D02*
X141173572Y-129162857D01*
X141102143Y-129305714D01*
X141030715Y-129377143D01*
X140887858Y-129448571D01*
X140673572Y-129448571D01*
X140530715Y-129377143D01*
X141173572Y-128877143D02*
X141030715Y-128948571D01*
X140745001Y-128948571D01*
X140602143Y-128877143D01*
X140530715Y-128805714D01*
X140459286Y-128662857D01*
X140459286Y-128234286D01*
X140530715Y-128091429D01*
X140602143Y-128020000D01*
X140745001Y-127948571D01*
X141030715Y-127948571D01*
X141173572Y-128020000D01*
X141887858Y-128948571D02*
X141887858Y-127448571D01*
X142530715Y-128948571D02*
X142530715Y-128162857D01*
X142459286Y-128020000D01*
X142316429Y-127948571D01*
X142102144Y-127948571D01*
X141959286Y-128020000D01*
X141887858Y-128091429D01*
X143030715Y-127948571D02*
X143602144Y-127948571D01*
X143245001Y-127448571D02*
X143245001Y-128734286D01*
X143316429Y-128877143D01*
X143459287Y-128948571D01*
X143602144Y-128948571D01*
X145173572Y-127591429D02*
X145245001Y-127520000D01*
X145387858Y-127448571D01*
X145745001Y-127448571D01*
X145887858Y-127520000D01*
X145959287Y-127591429D01*
X146030715Y-127734286D01*
X146030715Y-127877143D01*
X145959287Y-128091429D01*
X145102144Y-128948571D01*
X146030715Y-128948571D01*
X146959286Y-127448571D02*
X147102143Y-127448571D01*
X147245000Y-127520000D01*
X147316429Y-127591429D01*
X147387858Y-127734286D01*
X147459286Y-128020000D01*
X147459286Y-128377143D01*
X147387858Y-128662857D01*
X147316429Y-128805714D01*
X147245000Y-128877143D01*
X147102143Y-128948571D01*
X146959286Y-128948571D01*
X146816429Y-128877143D01*
X146745000Y-128805714D01*
X146673572Y-128662857D01*
X146602143Y-128377143D01*
X146602143Y-128020000D01*
X146673572Y-127734286D01*
X146745000Y-127591429D01*
X146816429Y-127520000D01*
X146959286Y-127448571D01*
X148887857Y-128948571D02*
X148030714Y-128948571D01*
X148459286Y-128948571D02*
X148459286Y-127448571D01*
X148316429Y-127662857D01*
X148173571Y-127805714D01*
X148030714Y-127877143D01*
X149745000Y-128091429D02*
X149602142Y-128020000D01*
X149530714Y-127948571D01*
X149459285Y-127805714D01*
X149459285Y-127734286D01*
X149530714Y-127591429D01*
X149602142Y-127520000D01*
X149745000Y-127448571D01*
X150030714Y-127448571D01*
X150173571Y-127520000D01*
X150245000Y-127591429D01*
X150316428Y-127734286D01*
X150316428Y-127805714D01*
X150245000Y-127948571D01*
X150173571Y-128020000D01*
X150030714Y-128091429D01*
X149745000Y-128091429D01*
X149602142Y-128162857D01*
X149530714Y-128234286D01*
X149459285Y-128377143D01*
X149459285Y-128662857D01*
X149530714Y-128805714D01*
X149602142Y-128877143D01*
X149745000Y-128948571D01*
X150030714Y-128948571D01*
X150173571Y-128877143D01*
X150245000Y-128805714D01*
X150316428Y-128662857D01*
X150316428Y-128377143D01*
X150245000Y-128234286D01*
X150173571Y-128162857D01*
X150030714Y-128091429D01*
X152102142Y-128377143D02*
X153244999Y-128377143D01*
X155102142Y-128948571D02*
X155102142Y-127448571D01*
X155602142Y-128520000D01*
X156102142Y-127448571D01*
X156102142Y-128948571D01*
X156816428Y-128948571D02*
X156816428Y-127448571D01*
X157316428Y-127448571D02*
X158173571Y-127448571D01*
X157745000Y-128948571D02*
X157745000Y-127448571D01*
X160530714Y-128948571D02*
X159816428Y-128948571D01*
X159816428Y-127448571D01*
X161030714Y-128948571D02*
X161030714Y-127948571D01*
X161030714Y-127448571D02*
X160959285Y-127520000D01*
X161030714Y-127591429D01*
X161102142Y-127520000D01*
X161030714Y-127448571D01*
X161030714Y-127591429D01*
X162387857Y-128877143D02*
X162245000Y-128948571D01*
X161959286Y-128948571D01*
X161816428Y-128877143D01*
X161745000Y-128805714D01*
X161673571Y-128662857D01*
X161673571Y-128234286D01*
X161745000Y-128091429D01*
X161816428Y-128020000D01*
X161959286Y-127948571D01*
X162245000Y-127948571D01*
X162387857Y-128020000D01*
X163602142Y-128877143D02*
X163459285Y-128948571D01*
X163173571Y-128948571D01*
X163030714Y-128877143D01*
X162959285Y-128734286D01*
X162959285Y-128162857D01*
X163030714Y-128020000D01*
X163173571Y-127948571D01*
X163459285Y-127948571D01*
X163602142Y-128020000D01*
X163673571Y-128162857D01*
X163673571Y-128305714D01*
X162959285Y-128448571D01*
X164316428Y-127948571D02*
X164316428Y-128948571D01*
X164316428Y-128091429D02*
X164387856Y-128020000D01*
X164530714Y-127948571D01*
X164744999Y-127948571D01*
X164887856Y-128020000D01*
X164959285Y-128162857D01*
X164959285Y-128948571D01*
X165602142Y-128877143D02*
X165744999Y-128948571D01*
X166030714Y-128948571D01*
X166173571Y-128877143D01*
X166244999Y-128734286D01*
X166244999Y-128662857D01*
X166173571Y-128520000D01*
X166030714Y-128448571D01*
X165816428Y-128448571D01*
X165673571Y-128377143D01*
X165602142Y-128234286D01*
X165602142Y-128162857D01*
X165673571Y-128020000D01*
X165816428Y-127948571D01*
X166030714Y-127948571D01*
X166173571Y-128020000D01*
X167459285Y-128877143D02*
X167316428Y-128948571D01*
X167030714Y-128948571D01*
X166887857Y-128877143D01*
X166816428Y-128734286D01*
X166816428Y-128162857D01*
X166887857Y-128020000D01*
X167030714Y-127948571D01*
X167316428Y-127948571D01*
X167459285Y-128020000D01*
X167530714Y-128162857D01*
X167530714Y-128305714D01*
X166816428Y-128448571D01*
X94815713Y-128948571D02*
X94815713Y-127448571D01*
X95172856Y-127448571D01*
X95387141Y-127520000D01*
X95529999Y-127662857D01*
X95601427Y-127805714D01*
X95672856Y-128091429D01*
X95672856Y-128305714D01*
X95601427Y-128591429D01*
X95529999Y-128734286D01*
X95387141Y-128877143D01*
X95172856Y-128948571D01*
X94815713Y-128948571D01*
X96887141Y-128877143D02*
X96744284Y-128948571D01*
X96458570Y-128948571D01*
X96315713Y-128877143D01*
X96244284Y-128734286D01*
X96244284Y-128162857D01*
X96315713Y-128020000D01*
X96458570Y-127948571D01*
X96744284Y-127948571D01*
X96887141Y-128020000D01*
X96958570Y-128162857D01*
X96958570Y-128305714D01*
X96244284Y-128448571D01*
X97529998Y-128877143D02*
X97672855Y-128948571D01*
X97958570Y-128948571D01*
X98101427Y-128877143D01*
X98172855Y-128734286D01*
X98172855Y-128662857D01*
X98101427Y-128520000D01*
X97958570Y-128448571D01*
X97744284Y-128448571D01*
X97601427Y-128377143D01*
X97529998Y-128234286D01*
X97529998Y-128162857D01*
X97601427Y-128020000D01*
X97744284Y-127948571D01*
X97958570Y-127948571D01*
X98101427Y-128020000D01*
X98815713Y-128948571D02*
X98815713Y-127948571D01*
X98815713Y-127448571D02*
X98744284Y-127520000D01*
X98815713Y-127591429D01*
X98887141Y-127520000D01*
X98815713Y-127448571D01*
X98815713Y-127591429D01*
X100172856Y-127948571D02*
X100172856Y-129162857D01*
X100101427Y-129305714D01*
X100029999Y-129377143D01*
X99887142Y-129448571D01*
X99672856Y-129448571D01*
X99529999Y-129377143D01*
X100172856Y-128877143D02*
X100029999Y-128948571D01*
X99744285Y-128948571D01*
X99601427Y-128877143D01*
X99529999Y-128805714D01*
X99458570Y-128662857D01*
X99458570Y-128234286D01*
X99529999Y-128091429D01*
X99601427Y-128020000D01*
X99744285Y-127948571D01*
X100029999Y-127948571D01*
X100172856Y-128020000D01*
X100887142Y-127948571D02*
X100887142Y-128948571D01*
X100887142Y-128091429D02*
X100958570Y-128020000D01*
X101101428Y-127948571D01*
X101315713Y-127948571D01*
X101458570Y-128020000D01*
X101529999Y-128162857D01*
X101529999Y-128948571D01*
X102815713Y-128877143D02*
X102672856Y-128948571D01*
X102387142Y-128948571D01*
X102244285Y-128877143D01*
X102172856Y-128734286D01*
X102172856Y-128162857D01*
X102244285Y-128020000D01*
X102387142Y-127948571D01*
X102672856Y-127948571D01*
X102815713Y-128020000D01*
X102887142Y-128162857D01*
X102887142Y-128305714D01*
X102172856Y-128448571D01*
X104172856Y-128948571D02*
X104172856Y-127448571D01*
X104172856Y-128877143D02*
X104029999Y-128948571D01*
X103744285Y-128948571D01*
X103601427Y-128877143D01*
X103529999Y-128805714D01*
X103458570Y-128662857D01*
X103458570Y-128234286D01*
X103529999Y-128091429D01*
X103601427Y-128020000D01*
X103744285Y-127948571D01*
X104029999Y-127948571D01*
X104172856Y-128020000D01*
X106029999Y-128948571D02*
X106029999Y-127448571D01*
X106029999Y-128020000D02*
X106172856Y-127948571D01*
X106458570Y-127948571D01*
X106601427Y-128020000D01*
X106672856Y-128091429D01*
X106744285Y-128234286D01*
X106744285Y-128662857D01*
X106672856Y-128805714D01*
X106601427Y-128877143D01*
X106458570Y-128948571D01*
X106172856Y-128948571D01*
X106029999Y-128877143D01*
X107244285Y-127948571D02*
X107601428Y-128948571D01*
X107958570Y-127948571D02*
X107601428Y-128948571D01*
X107458570Y-129305714D01*
X107387142Y-129377143D01*
X107244285Y-129448571D01*
X110744284Y-127377143D02*
X109458570Y-129305714D01*
X111887142Y-127948571D02*
X111887142Y-128948571D01*
X111244285Y-127948571D02*
X111244285Y-128734286D01*
X111315713Y-128877143D01*
X111458571Y-128948571D01*
X111672856Y-128948571D01*
X111815713Y-128877143D01*
X111887142Y-128805714D01*
X113672856Y-127377143D02*
X112387142Y-129305714D01*
X114172857Y-127948571D02*
X114172857Y-129234286D01*
X114101428Y-129377143D01*
X113958571Y-129448571D01*
X113887143Y-129448571D01*
X114172857Y-127448571D02*
X114101428Y-127520000D01*
X114172857Y-127591429D01*
X114244285Y-127520000D01*
X114172857Y-127448571D01*
X114172857Y-127591429D01*
X114887143Y-127948571D02*
X114887143Y-129448571D01*
X114887143Y-128020000D02*
X115030000Y-127948571D01*
X115315714Y-127948571D01*
X115458571Y-128020000D01*
X115530000Y-128091429D01*
X115601429Y-128234286D01*
X115601429Y-128662857D01*
X115530000Y-128805714D01*
X115458571Y-128877143D01*
X115315714Y-128948571D01*
X115030000Y-128948571D01*
X114887143Y-128877143D01*
X116887143Y-128877143D02*
X116744286Y-128948571D01*
X116458572Y-128948571D01*
X116315714Y-128877143D01*
X116244286Y-128805714D01*
X116172857Y-128662857D01*
X116172857Y-128234286D01*
X116244286Y-128091429D01*
X116315714Y-128020000D01*
X116458572Y-127948571D01*
X116744286Y-127948571D01*
X116887143Y-128020000D01*
X117744286Y-128948571D02*
X117601428Y-128877143D01*
X117530000Y-128805714D01*
X117458571Y-128662857D01*
X117458571Y-128234286D01*
X117530000Y-128091429D01*
X117601428Y-128020000D01*
X117744286Y-127948571D01*
X117958571Y-127948571D01*
X118101428Y-128020000D01*
X118172857Y-128091429D01*
X118244286Y-128234286D01*
X118244286Y-128662857D01*
X118172857Y-128805714D01*
X118101428Y-128877143D01*
X117958571Y-128948571D01*
X117744286Y-128948571D01*
X118887143Y-127948571D02*
X118887143Y-128948571D01*
X118887143Y-128091429D02*
X118958571Y-128020000D01*
X119101429Y-127948571D01*
X119315714Y-127948571D01*
X119458571Y-128020000D01*
X119530000Y-128162857D01*
X119530000Y-128948571D01*
X120172857Y-128877143D02*
X120315714Y-128948571D01*
X120601429Y-128948571D01*
X120744286Y-128877143D01*
X120815714Y-128734286D01*
X120815714Y-128662857D01*
X120744286Y-128520000D01*
X120601429Y-128448571D01*
X120387143Y-128448571D01*
X120244286Y-128377143D01*
X120172857Y-128234286D01*
X120172857Y-128162857D01*
X120244286Y-128020000D01*
X120387143Y-127948571D01*
X120601429Y-127948571D01*
X120744286Y-128020000D01*
X121244286Y-127948571D02*
X121815715Y-127948571D01*
X121458572Y-127448571D02*
X121458572Y-128734286D01*
X121530000Y-128877143D01*
X121672858Y-128948571D01*
X121815715Y-128948571D01*
X122958572Y-128948571D02*
X122958572Y-128162857D01*
X122887143Y-128020000D01*
X122744286Y-127948571D01*
X122458572Y-127948571D01*
X122315715Y-128020000D01*
X122958572Y-128877143D02*
X122815715Y-128948571D01*
X122458572Y-128948571D01*
X122315715Y-128877143D01*
X122244286Y-128734286D01*
X122244286Y-128591429D01*
X122315715Y-128448571D01*
X122458572Y-128377143D01*
X122815715Y-128377143D01*
X122958572Y-128305714D01*
X123672858Y-127948571D02*
X123672858Y-128948571D01*
X123672858Y-128091429D02*
X123744286Y-128020000D01*
X123887144Y-127948571D01*
X124101429Y-127948571D01*
X124244286Y-128020000D01*
X124315715Y-128162857D01*
X124315715Y-128948571D01*
X124815715Y-127948571D02*
X125387144Y-127948571D01*
X125030001Y-127448571D02*
X125030001Y-128734286D01*
X125101429Y-128877143D01*
X125244287Y-128948571D01*
X125387144Y-128948571D01*
X125887144Y-128948571D02*
X125887144Y-127948571D01*
X125887144Y-127448571D02*
X125815715Y-127520000D01*
X125887144Y-127591429D01*
X125958572Y-127520000D01*
X125887144Y-127448571D01*
X125887144Y-127591429D01*
X126601430Y-127948571D02*
X126601430Y-128948571D01*
X126601430Y-128091429D02*
X126672858Y-128020000D01*
X126815716Y-127948571D01*
X127030001Y-127948571D01*
X127172858Y-128020000D01*
X127244287Y-128162857D01*
X127244287Y-128948571D01*
X128530001Y-128877143D02*
X128387144Y-128948571D01*
X128101430Y-128948571D01*
X127958573Y-128877143D01*
X127887144Y-128734286D01*
X127887144Y-128162857D01*
X127958573Y-128020000D01*
X128101430Y-127948571D01*
X128387144Y-127948571D01*
X128530001Y-128020000D01*
X128601430Y-128162857D01*
X128601430Y-128305714D01*
X127887144Y-128448571D01*
X129887144Y-128948571D02*
X129887144Y-128162857D01*
X129815715Y-128020000D01*
X129672858Y-127948571D01*
X129387144Y-127948571D01*
X129244287Y-128020000D01*
X129887144Y-128877143D02*
X129744287Y-128948571D01*
X129387144Y-128948571D01*
X129244287Y-128877143D01*
X129172858Y-128734286D01*
X129172858Y-128591429D01*
X129244287Y-128448571D01*
X129387144Y-128377143D01*
X129744287Y-128377143D01*
X129887144Y-128305714D01*
X131244287Y-127948571D02*
X131244287Y-128948571D01*
X130601430Y-127948571D02*
X130601430Y-128734286D01*
X130672858Y-128877143D01*
X130815716Y-128948571D01*
X131030001Y-128948571D01*
X131172858Y-128877143D01*
X131244287Y-128805714D01*
D13*
X92145000Y-67045000D02*
X94545000Y-67045000D01*
X92145000Y-67220000D02*
X94545000Y-67220000D01*
X92145000Y-67395000D02*
X94545000Y-67395000D01*
X94545000Y-67795000D02*
X92145000Y-67795000D01*
X92145000Y-67570000D02*
X94545000Y-67570000D01*
X92145000Y-67695000D02*
X94545000Y-67695000D01*
X92145000Y-67770000D02*
X92145000Y-61970000D01*
X92145000Y-61970000D02*
X94545000Y-61970000D01*
X94545000Y-61970000D02*
X94545000Y-67770000D01*
X92780000Y-86095000D02*
X95180000Y-86095000D01*
X92780000Y-86270000D02*
X95180000Y-86270000D01*
X92780000Y-86445000D02*
X95180000Y-86445000D01*
X95180000Y-86845000D02*
X92780000Y-86845000D01*
X92780000Y-86620000D02*
X95180000Y-86620000D01*
X92780000Y-86745000D02*
X95180000Y-86745000D01*
X92780000Y-86820000D02*
X92780000Y-81020000D01*
X92780000Y-81020000D02*
X95180000Y-81020000D01*
X95180000Y-81020000D02*
X95180000Y-86820000D01*
X92780000Y-105145000D02*
X95180000Y-105145000D01*
X92780000Y-105320000D02*
X95180000Y-105320000D01*
X92780000Y-105495000D02*
X95180000Y-105495000D01*
X95180000Y-105895000D02*
X92780000Y-105895000D01*
X92780000Y-105670000D02*
X95180000Y-105670000D01*
X92780000Y-105795000D02*
X95180000Y-105795000D01*
X92780000Y-105870000D02*
X92780000Y-100070000D01*
X92780000Y-100070000D02*
X95180000Y-100070000D01*
X95180000Y-100070000D02*
X95180000Y-105870000D01*
X92145000Y-123890000D02*
X94545000Y-123890000D01*
X92145000Y-124065000D02*
X94545000Y-124065000D01*
X92145000Y-124240000D02*
X94545000Y-124240000D01*
X94545000Y-124640000D02*
X92145000Y-124640000D01*
X92145000Y-124415000D02*
X94545000Y-124415000D01*
X92145000Y-124540000D02*
X94545000Y-124540000D01*
X92145000Y-124615000D02*
X92145000Y-118815000D01*
X92145000Y-118815000D02*
X94545000Y-118815000D01*
X94545000Y-118815000D02*
X94545000Y-124615000D01*
X111830000Y-64505000D02*
X114230000Y-64505000D01*
X111830000Y-64680000D02*
X114230000Y-64680000D01*
X111830000Y-64855000D02*
X114230000Y-64855000D01*
X114230000Y-65255000D02*
X111830000Y-65255000D01*
X111830000Y-65030000D02*
X114230000Y-65030000D01*
X111830000Y-65155000D02*
X114230000Y-65155000D01*
X111830000Y-65230000D02*
X111830000Y-59430000D01*
X111830000Y-59430000D02*
X114230000Y-59430000D01*
X114230000Y-59430000D02*
X114230000Y-65230000D01*
X111830000Y-84030000D02*
X114230000Y-84030000D01*
X111830000Y-84205000D02*
X114230000Y-84205000D01*
X111830000Y-84380000D02*
X114230000Y-84380000D01*
X114230000Y-84780000D02*
X111830000Y-84780000D01*
X111830000Y-84555000D02*
X114230000Y-84555000D01*
X111830000Y-84680000D02*
X114230000Y-84680000D01*
X111830000Y-84755000D02*
X111830000Y-78955000D01*
X111830000Y-78955000D02*
X114230000Y-78955000D01*
X114230000Y-78955000D02*
X114230000Y-84755000D01*
X111830000Y-102910000D02*
X114230000Y-102910000D01*
X111830000Y-103085000D02*
X114230000Y-103085000D01*
X111830000Y-103260000D02*
X114230000Y-103260000D01*
X114230000Y-103660000D02*
X111830000Y-103660000D01*
X111830000Y-103435000D02*
X114230000Y-103435000D01*
X111830000Y-103560000D02*
X114230000Y-103560000D01*
X111830000Y-103635000D02*
X111830000Y-97835000D01*
X111830000Y-97835000D02*
X114230000Y-97835000D01*
X114230000Y-97835000D02*
X114230000Y-103635000D01*
X111830000Y-121655000D02*
X114230000Y-121655000D01*
X111830000Y-121830000D02*
X114230000Y-121830000D01*
X111830000Y-122005000D02*
X114230000Y-122005000D01*
X114230000Y-122405000D02*
X111830000Y-122405000D01*
X111830000Y-122180000D02*
X114230000Y-122180000D01*
X111830000Y-122305000D02*
X114230000Y-122305000D01*
X111830000Y-122380000D02*
X111830000Y-116580000D01*
X111830000Y-116580000D02*
X114230000Y-116580000D01*
X114230000Y-116580000D02*
X114230000Y-122380000D01*
X129610000Y-62295000D02*
X132010000Y-62295000D01*
X129610000Y-62470000D02*
X132010000Y-62470000D01*
X129610000Y-62645000D02*
X132010000Y-62645000D01*
X132010000Y-63045000D02*
X129610000Y-63045000D01*
X129610000Y-62820000D02*
X132010000Y-62820000D01*
X129610000Y-62945000D02*
X132010000Y-62945000D01*
X129610000Y-63020000D02*
X129610000Y-57220000D01*
X129610000Y-57220000D02*
X132010000Y-57220000D01*
X132010000Y-57220000D02*
X132010000Y-63020000D01*
X130245000Y-86095000D02*
X132645000Y-86095000D01*
X130245000Y-86270000D02*
X132645000Y-86270000D01*
X130245000Y-86445000D02*
X132645000Y-86445000D01*
X132645000Y-86845000D02*
X130245000Y-86845000D01*
X130245000Y-86620000D02*
X132645000Y-86620000D01*
X130245000Y-86745000D02*
X132645000Y-86745000D01*
X130245000Y-86820000D02*
X130245000Y-81020000D01*
X130245000Y-81020000D02*
X132645000Y-81020000D01*
X132645000Y-81020000D02*
X132645000Y-86820000D01*
X130880000Y-100065000D02*
X133280000Y-100065000D01*
X130880000Y-100240000D02*
X133280000Y-100240000D01*
X130880000Y-100415000D02*
X133280000Y-100415000D01*
X133280000Y-100815000D02*
X130880000Y-100815000D01*
X130880000Y-100590000D02*
X133280000Y-100590000D01*
X130880000Y-100715000D02*
X133280000Y-100715000D01*
X130880000Y-100790000D02*
X130880000Y-94990000D01*
X130880000Y-94990000D02*
X133280000Y-94990000D01*
X133280000Y-94990000D02*
X133280000Y-100790000D01*
X130880000Y-119420000D02*
X133280000Y-119420000D01*
X130880000Y-119595000D02*
X133280000Y-119595000D01*
X130880000Y-119770000D02*
X133280000Y-119770000D01*
X133280000Y-120170000D02*
X130880000Y-120170000D01*
X130880000Y-119945000D02*
X133280000Y-119945000D01*
X130880000Y-120070000D02*
X133280000Y-120070000D01*
X130880000Y-120145000D02*
X130880000Y-114345000D01*
X130880000Y-114345000D02*
X133280000Y-114345000D01*
X133280000Y-114345000D02*
X133280000Y-120145000D01*
X140270000Y-64840000D02*
X140270000Y-67240000D01*
X140095000Y-64840000D02*
X140095000Y-67240000D01*
X139920000Y-64840000D02*
X139920000Y-67240000D01*
X139520000Y-67240000D02*
X139520000Y-64840000D01*
X139745000Y-64840000D02*
X139745000Y-67240000D01*
X139620000Y-64840000D02*
X139620000Y-67240000D01*
X139545000Y-64840000D02*
X145345000Y-64840000D01*
X145345000Y-64840000D02*
X145345000Y-67240000D01*
X145345000Y-67240000D02*
X139545000Y-67240000D01*
X149930000Y-85790000D02*
X152330000Y-85790000D01*
X149930000Y-85965000D02*
X152330000Y-85965000D01*
X149930000Y-86140000D02*
X152330000Y-86140000D01*
X152330000Y-86540000D02*
X149930000Y-86540000D01*
X149930000Y-86315000D02*
X152330000Y-86315000D01*
X149930000Y-86440000D02*
X152330000Y-86440000D01*
X149930000Y-86515000D02*
X149930000Y-80715000D01*
X149930000Y-80715000D02*
X152330000Y-80715000D01*
X152330000Y-80715000D02*
X152330000Y-86515000D01*
X149930000Y-98160000D02*
X152330000Y-98160000D01*
X149930000Y-98335000D02*
X152330000Y-98335000D01*
X149930000Y-98510000D02*
X152330000Y-98510000D01*
X152330000Y-98910000D02*
X149930000Y-98910000D01*
X149930000Y-98685000D02*
X152330000Y-98685000D01*
X149930000Y-98810000D02*
X152330000Y-98810000D01*
X149930000Y-98885000D02*
X149930000Y-93085000D01*
X149930000Y-93085000D02*
X152330000Y-93085000D01*
X152330000Y-93085000D02*
X152330000Y-98885000D01*
X149930000Y-116880000D02*
X152330000Y-116880000D01*
X149930000Y-117055000D02*
X152330000Y-117055000D01*
X149930000Y-117230000D02*
X152330000Y-117230000D01*
X152330000Y-117630000D02*
X149930000Y-117630000D01*
X149930000Y-117405000D02*
X152330000Y-117405000D01*
X149930000Y-117530000D02*
X152330000Y-117530000D01*
X149930000Y-117605000D02*
X149930000Y-111805000D01*
X149930000Y-111805000D02*
X152330000Y-111805000D01*
X152330000Y-111805000D02*
X152330000Y-117605000D01*
X168980000Y-62270000D02*
X171380000Y-62270000D01*
X168980000Y-62445000D02*
X171380000Y-62445000D01*
X168980000Y-62620000D02*
X171380000Y-62620000D01*
X171380000Y-63020000D02*
X168980000Y-63020000D01*
X168980000Y-62795000D02*
X171380000Y-62795000D01*
X168980000Y-62920000D02*
X171380000Y-62920000D01*
X168980000Y-62995000D02*
X168980000Y-57195000D01*
X168980000Y-57195000D02*
X171380000Y-57195000D01*
X171380000Y-57195000D02*
X171380000Y-62995000D01*
X168980000Y-81650000D02*
X171380000Y-81650000D01*
X168980000Y-81825000D02*
X171380000Y-81825000D01*
X168980000Y-82000000D02*
X171380000Y-82000000D01*
X171380000Y-82400000D02*
X168980000Y-82400000D01*
X168980000Y-82175000D02*
X171380000Y-82175000D01*
X168980000Y-82300000D02*
X171380000Y-82300000D01*
X168980000Y-82375000D02*
X168980000Y-76575000D01*
X168980000Y-76575000D02*
X171380000Y-76575000D01*
X171380000Y-76575000D02*
X171380000Y-82375000D01*
X168980000Y-100155000D02*
X171380000Y-100155000D01*
X168980000Y-100330000D02*
X171380000Y-100330000D01*
X168980000Y-100505000D02*
X171380000Y-100505000D01*
X171380000Y-100905000D02*
X168980000Y-100905000D01*
X168980000Y-100680000D02*
X171380000Y-100680000D01*
X168980000Y-100805000D02*
X171380000Y-100805000D01*
X168980000Y-100880000D02*
X168980000Y-95080000D01*
X168980000Y-95080000D02*
X171380000Y-95080000D01*
X171380000Y-95080000D02*
X171380000Y-100880000D01*
X177870000Y-118390000D02*
X180270000Y-118390000D01*
X177870000Y-118565000D02*
X180270000Y-118565000D01*
X177870000Y-118740000D02*
X180270000Y-118740000D01*
X180270000Y-119140000D02*
X177870000Y-119140000D01*
X177870000Y-118915000D02*
X180270000Y-118915000D01*
X177870000Y-119040000D02*
X180270000Y-119040000D01*
X177870000Y-119115000D02*
X177870000Y-113315000D01*
X177870000Y-113315000D02*
X180270000Y-113315000D01*
X180270000Y-113315000D02*
X180270000Y-119115000D01*
X188030000Y-64665000D02*
X190430000Y-64665000D01*
X188030000Y-64840000D02*
X190430000Y-64840000D01*
X188030000Y-65015000D02*
X190430000Y-65015000D01*
X190430000Y-65415000D02*
X188030000Y-65415000D01*
X188030000Y-65190000D02*
X190430000Y-65190000D01*
X188030000Y-65315000D02*
X190430000Y-65315000D01*
X188030000Y-65390000D02*
X188030000Y-59590000D01*
X188030000Y-59590000D02*
X190430000Y-59590000D01*
X190430000Y-59590000D02*
X190430000Y-65390000D01*
X188030000Y-83555000D02*
X190430000Y-83555000D01*
X188030000Y-83730000D02*
X190430000Y-83730000D01*
X188030000Y-83905000D02*
X190430000Y-83905000D01*
X190430000Y-84305000D02*
X188030000Y-84305000D01*
X188030000Y-84080000D02*
X190430000Y-84080000D01*
X188030000Y-84205000D02*
X190430000Y-84205000D01*
X188030000Y-84280000D02*
X188030000Y-78480000D01*
X188030000Y-78480000D02*
X190430000Y-78480000D01*
X190430000Y-78480000D02*
X190430000Y-84280000D01*
X188030000Y-101810000D02*
X190430000Y-101810000D01*
X188030000Y-101985000D02*
X190430000Y-101985000D01*
X188030000Y-102160000D02*
X190430000Y-102160000D01*
X190430000Y-102560000D02*
X188030000Y-102560000D01*
X188030000Y-102335000D02*
X190430000Y-102335000D01*
X188030000Y-102460000D02*
X190430000Y-102460000D01*
X188030000Y-102535000D02*
X188030000Y-96735000D01*
X188030000Y-96735000D02*
X190430000Y-96735000D01*
X190430000Y-96735000D02*
X190430000Y-102535000D01*
X181680000Y-118175000D02*
X184080000Y-118175000D01*
X181680000Y-118350000D02*
X184080000Y-118350000D01*
X181680000Y-118525000D02*
X184080000Y-118525000D01*
X184080000Y-118925000D02*
X181680000Y-118925000D01*
X181680000Y-118700000D02*
X184080000Y-118700000D01*
X181680000Y-118825000D02*
X184080000Y-118825000D01*
X181680000Y-118900000D02*
X181680000Y-113100000D01*
X181680000Y-113100000D02*
X184080000Y-113100000D01*
X184080000Y-113100000D02*
X184080000Y-118900000D01*
X197275000Y-75000000D02*
X197275000Y-77400000D01*
X197100000Y-75000000D02*
X197100000Y-77400000D01*
X196925000Y-75000000D02*
X196925000Y-77400000D01*
X196525000Y-77400000D02*
X196525000Y-75000000D01*
X196750000Y-75000000D02*
X196750000Y-77400000D01*
X196625000Y-75000000D02*
X196625000Y-77400000D01*
X196550000Y-75000000D02*
X202350000Y-75000000D01*
X202350000Y-75000000D02*
X202350000Y-77400000D01*
X202350000Y-77400000D02*
X196550000Y-77400000D01*
X198475000Y-92780000D02*
X198475000Y-95180000D01*
X198300000Y-92780000D02*
X198300000Y-95180000D01*
X198125000Y-92780000D02*
X198125000Y-95180000D01*
X197725000Y-95180000D02*
X197725000Y-92780000D01*
X197950000Y-92780000D02*
X197950000Y-95180000D01*
X197825000Y-92780000D02*
X197825000Y-95180000D01*
X197750000Y-92780000D02*
X203550000Y-92780000D01*
X203550000Y-92780000D02*
X203550000Y-95180000D01*
X203550000Y-95180000D02*
X197750000Y-95180000D01*
X198385000Y-95320000D02*
X198385000Y-97720000D01*
X198210000Y-95320000D02*
X198210000Y-97720000D01*
X198035000Y-95320000D02*
X198035000Y-97720000D01*
X197635000Y-97720000D02*
X197635000Y-95320000D01*
X197860000Y-95320000D02*
X197860000Y-97720000D01*
X197735000Y-95320000D02*
X197735000Y-97720000D01*
X197660000Y-95320000D02*
X203460000Y-95320000D01*
X203460000Y-95320000D02*
X203460000Y-97720000D01*
X203460000Y-97720000D02*
X197660000Y-97720000D01*
D14*
X157166000Y-47438000D02*
X157166000Y-50098000D01*
X162306000Y-47438000D02*
X157166000Y-47438000D01*
X162306000Y-50098000D02*
X157166000Y-50098000D01*
X162306000Y-47438000D02*
X162306000Y-50098000D01*
X163576000Y-47438000D02*
X164906000Y-47438000D01*
X164906000Y-47438000D02*
X164906000Y-48768000D01*
X192480000Y-56625000D02*
X192480000Y-46025000D01*
X192480000Y-58025000D02*
X192480000Y-58125000D01*
X198680000Y-56925000D02*
X198680000Y-58125000D01*
X198680000Y-52925000D02*
X198680000Y-55525000D01*
X198680000Y-49925000D02*
X198680000Y-51525000D01*
X198680000Y-46025000D02*
X198680000Y-48525000D01*
X192480000Y-58125000D02*
X198680000Y-58125000D01*
X198680000Y-46025000D02*
X198080000Y-46025000D01*
X193080000Y-46025000D02*
X192480000Y-46025000D01*
X198080000Y-44025000D02*
X193080000Y-44025000D01*
X198080000Y-46025000D02*
X198080000Y-44025000D01*
X193080000Y-46025000D02*
X193080000Y-44025000D01*
D15*
X89016288Y-70293812D02*
X90794288Y-70293812D01*
X78094288Y-57593812D02*
X79872288Y-57593812D01*
X89016288Y-57593812D02*
X90794288Y-57593812D01*
X90794288Y-57593812D02*
X90794288Y-59371812D01*
X90794288Y-68515812D02*
X90794288Y-70293812D01*
X90794288Y-70293812D02*
X89016288Y-70293812D01*
X79872288Y-70293812D02*
X78094288Y-70293812D01*
X78094288Y-70293812D02*
X78094288Y-68515812D01*
X78094288Y-59371812D02*
X78094288Y-57593812D01*
X88996884Y-89405510D02*
X90774884Y-89405510D01*
X78074884Y-76705510D02*
X79852884Y-76705510D01*
X88996884Y-76705510D02*
X90774884Y-76705510D01*
X90774884Y-76705510D02*
X90774884Y-78483510D01*
X90774884Y-87627510D02*
X90774884Y-89405510D01*
X90774884Y-89405510D02*
X88996884Y-89405510D01*
X79852884Y-89405510D02*
X78074884Y-89405510D01*
X78074884Y-89405510D02*
X78074884Y-87627510D01*
X78074884Y-78483510D02*
X78074884Y-76705510D01*
X88996884Y-108457670D02*
X90774884Y-108457670D01*
X78074884Y-95757670D02*
X79852884Y-95757670D01*
X88996884Y-95757670D02*
X90774884Y-95757670D01*
X90774884Y-95757670D02*
X90774884Y-97535670D01*
X90774884Y-106679670D02*
X90774884Y-108457670D01*
X90774884Y-108457670D02*
X88996884Y-108457670D01*
X79852884Y-108457670D02*
X78074884Y-108457670D01*
X78074884Y-108457670D02*
X78074884Y-106679670D01*
X78074884Y-97535670D02*
X78074884Y-95757670D01*
X88996884Y-127450292D02*
X90774884Y-127450292D01*
X78074884Y-114750292D02*
X79852884Y-114750292D01*
X88996884Y-114750292D02*
X90774884Y-114750292D01*
X90774884Y-114750292D02*
X90774884Y-116528292D01*
X90774884Y-125672292D02*
X90774884Y-127450292D01*
X90774884Y-127450292D02*
X88996884Y-127450292D01*
X79852884Y-127450292D02*
X78074884Y-127450292D01*
X78074884Y-127450292D02*
X78074884Y-125672292D01*
X78074884Y-116528292D02*
X78074884Y-114750292D01*
X108108582Y-67971830D02*
X109886582Y-67971830D01*
X97186582Y-55271830D02*
X98964582Y-55271830D01*
X108108582Y-55271830D02*
X109886582Y-55271830D01*
X109886582Y-55271830D02*
X109886582Y-57049830D01*
X109886582Y-66193830D02*
X109886582Y-67971830D01*
X109886582Y-67971830D02*
X108108582Y-67971830D01*
X98964582Y-67971830D02*
X97186582Y-67971830D01*
X97186582Y-67971830D02*
X97186582Y-66193830D01*
X97186582Y-57049830D02*
X97186582Y-55271830D01*
X108108582Y-87083528D02*
X109886582Y-87083528D01*
X97186582Y-74383528D02*
X98964582Y-74383528D01*
X108108582Y-74383528D02*
X109886582Y-74383528D01*
X109886582Y-74383528D02*
X109886582Y-76161528D01*
X109886582Y-85305528D02*
X109886582Y-87083528D01*
X109886582Y-87083528D02*
X108108582Y-87083528D01*
X98964582Y-87083528D02*
X97186582Y-87083528D01*
X97186582Y-87083528D02*
X97186582Y-85305528D01*
X97186582Y-76161528D02*
X97186582Y-74383528D01*
X108108582Y-106016612D02*
X109886582Y-106016612D01*
X97186582Y-93316612D02*
X98964582Y-93316612D01*
X108108582Y-93316612D02*
X109886582Y-93316612D01*
X109886582Y-93316612D02*
X109886582Y-95094612D01*
X109886582Y-104238612D02*
X109886582Y-106016612D01*
X109886582Y-106016612D02*
X108108582Y-106016612D01*
X98964582Y-106016612D02*
X97186582Y-106016612D01*
X97186582Y-106016612D02*
X97186582Y-104238612D01*
X97186582Y-95094612D02*
X97186582Y-93316612D01*
X108049044Y-125128310D02*
X109827044Y-125128310D01*
X97127044Y-112428310D02*
X98905044Y-112428310D01*
X108049044Y-112428310D02*
X109827044Y-112428310D01*
X109827044Y-112428310D02*
X109827044Y-114206310D01*
X109827044Y-123350310D02*
X109827044Y-125128310D01*
X109827044Y-125128310D02*
X108049044Y-125128310D01*
X98905044Y-125128310D02*
X97127044Y-125128310D01*
X97127044Y-125128310D02*
X97127044Y-123350310D01*
X97127044Y-114206310D02*
X97127044Y-112428310D01*
X127101204Y-65471234D02*
X128879204Y-65471234D01*
X116179204Y-52771234D02*
X117957204Y-52771234D01*
X127101204Y-52771234D02*
X128879204Y-52771234D01*
X128879204Y-52771234D02*
X128879204Y-54549234D01*
X128879204Y-63693234D02*
X128879204Y-65471234D01*
X128879204Y-65471234D02*
X127101204Y-65471234D01*
X117957204Y-65471234D02*
X116179204Y-65471234D01*
X116179204Y-65471234D02*
X116179204Y-63693234D01*
X116179204Y-54549234D02*
X116179204Y-52771234D01*
X127101204Y-84642470D02*
X128879204Y-84642470D01*
X116179204Y-71942470D02*
X117957204Y-71942470D01*
X127101204Y-71942470D02*
X128879204Y-71942470D01*
X128879204Y-71942470D02*
X128879204Y-73720470D01*
X128879204Y-82864470D02*
X128879204Y-84642470D01*
X128879204Y-84642470D02*
X127101204Y-84642470D01*
X117957204Y-84642470D02*
X116179204Y-84642470D01*
X116179204Y-84642470D02*
X116179204Y-82864470D01*
X116179204Y-73720470D02*
X116179204Y-71942470D01*
X127041666Y-103635092D02*
X128819666Y-103635092D01*
X116119666Y-90935092D02*
X117897666Y-90935092D01*
X127041666Y-90935092D02*
X128819666Y-90935092D01*
X128819666Y-90935092D02*
X128819666Y-92713092D01*
X128819666Y-101857092D02*
X128819666Y-103635092D01*
X128819666Y-103635092D02*
X127041666Y-103635092D01*
X117897666Y-103635092D02*
X116119666Y-103635092D01*
X116119666Y-103635092D02*
X116119666Y-101857092D01*
X116119666Y-92713092D02*
X116119666Y-90935092D01*
X127141472Y-122746790D02*
X128919472Y-122746790D01*
X116219472Y-110046790D02*
X117997472Y-110046790D01*
X127141472Y-110046790D02*
X128919472Y-110046790D01*
X128919472Y-110046790D02*
X128919472Y-111824790D01*
X128919472Y-120968790D02*
X128919472Y-122746790D01*
X128919472Y-122746790D02*
X127141472Y-122746790D01*
X117997472Y-122746790D02*
X116219472Y-122746790D01*
X116219472Y-122746790D02*
X116219472Y-120968790D01*
X116219472Y-111824790D02*
X116219472Y-110046790D01*
X146232172Y-63149252D02*
X148010172Y-63149252D01*
X135310172Y-50449252D02*
X137088172Y-50449252D01*
X146232172Y-50449252D02*
X148010172Y-50449252D01*
X148010172Y-50449252D02*
X148010172Y-52227252D01*
X148010172Y-61371252D02*
X148010172Y-63149252D01*
X148010172Y-63149252D02*
X146232172Y-63149252D01*
X137088172Y-63149252D02*
X135310172Y-63149252D01*
X135310172Y-63149252D02*
X135310172Y-61371252D01*
X135310172Y-52227252D02*
X135310172Y-50449252D01*
X146193632Y-82201412D02*
X147971632Y-82201412D01*
X135271632Y-69501412D02*
X137049632Y-69501412D01*
X146193632Y-69501412D02*
X147971632Y-69501412D01*
X147971632Y-69501412D02*
X147971632Y-71279412D01*
X147971632Y-80423412D02*
X147971632Y-82201412D01*
X147971632Y-82201412D02*
X146193632Y-82201412D01*
X137049632Y-82201412D02*
X135271632Y-82201412D01*
X135271632Y-82201412D02*
X135271632Y-80423412D01*
X135271632Y-71279412D02*
X135271632Y-69501412D01*
X146212902Y-101313110D02*
X147990902Y-101313110D01*
X135290902Y-88613110D02*
X137068902Y-88613110D01*
X146212902Y-88613110D02*
X147990902Y-88613110D01*
X147990902Y-88613110D02*
X147990902Y-90391110D01*
X147990902Y-99535110D02*
X147990902Y-101313110D01*
X147990902Y-101313110D02*
X146212902Y-101313110D01*
X137068902Y-101313110D02*
X135290902Y-101313110D01*
X135290902Y-101313110D02*
X135290902Y-99535110D01*
X135290902Y-90391110D02*
X135290902Y-88613110D01*
X146153364Y-120365270D02*
X147931364Y-120365270D01*
X135231364Y-107665270D02*
X137009364Y-107665270D01*
X146153364Y-107665270D02*
X147931364Y-107665270D01*
X147931364Y-107665270D02*
X147931364Y-109443270D01*
X147931364Y-118587270D02*
X147931364Y-120365270D01*
X147931364Y-120365270D02*
X146153364Y-120365270D01*
X137009364Y-120365270D02*
X135231364Y-120365270D01*
X135231364Y-120365270D02*
X135231364Y-118587270D01*
X135231364Y-109443270D02*
X135231364Y-107665270D01*
X165205524Y-65530772D02*
X166983524Y-65530772D01*
X154283524Y-52830772D02*
X156061524Y-52830772D01*
X165205524Y-52830772D02*
X166983524Y-52830772D01*
X166983524Y-52830772D02*
X166983524Y-54608772D01*
X166983524Y-63752772D02*
X166983524Y-65530772D01*
X166983524Y-65530772D02*
X165205524Y-65530772D01*
X156061524Y-65530772D02*
X154283524Y-65530772D01*
X154283524Y-65530772D02*
X154283524Y-63752772D01*
X154283524Y-54608772D02*
X154283524Y-52830772D01*
X165205524Y-84642470D02*
X166983524Y-84642470D01*
X154283524Y-71942470D02*
X156061524Y-71942470D01*
X165205524Y-71942470D02*
X166983524Y-71942470D01*
X166983524Y-71942470D02*
X166983524Y-73720470D01*
X166983524Y-82864470D02*
X166983524Y-84642470D01*
X166983524Y-84642470D02*
X165205524Y-84642470D01*
X156061524Y-84642470D02*
X154283524Y-84642470D01*
X154283524Y-84642470D02*
X154283524Y-82864470D01*
X154283524Y-73720470D02*
X154283524Y-71942470D01*
X165205524Y-103635092D02*
X166983524Y-103635092D01*
X154283524Y-90935092D02*
X156061524Y-90935092D01*
X165205524Y-90935092D02*
X166983524Y-90935092D01*
X166983524Y-90935092D02*
X166983524Y-92713092D01*
X166983524Y-101857092D02*
X166983524Y-103635092D01*
X166983524Y-103635092D02*
X165205524Y-103635092D01*
X156061524Y-103635092D02*
X154283524Y-103635092D01*
X154283524Y-103635092D02*
X154283524Y-101857092D01*
X154283524Y-92713092D02*
X154283524Y-90935092D01*
X170642117Y-125468531D02*
X172393105Y-125777277D01*
X162091379Y-111064887D02*
X163842367Y-111373633D01*
X172847449Y-112961472D02*
X174598437Y-113270219D01*
X174598437Y-113270219D02*
X174289691Y-115021207D01*
X172701852Y-124026289D02*
X172393105Y-125777277D01*
X172393105Y-125777277D02*
X170642117Y-125468531D01*
X161637035Y-123880692D02*
X159886047Y-123571945D01*
X159886047Y-123571945D02*
X160194793Y-121820957D01*
X161782632Y-112815875D02*
X162091379Y-111064887D01*
X184257684Y-67912292D02*
X186035684Y-67912292D01*
X173335684Y-55212292D02*
X175113684Y-55212292D01*
X184257684Y-55212292D02*
X186035684Y-55212292D01*
X186035684Y-55212292D02*
X186035684Y-56990292D01*
X186035684Y-66134292D02*
X186035684Y-67912292D01*
X186035684Y-67912292D02*
X184257684Y-67912292D01*
X175113684Y-67912292D02*
X173335684Y-67912292D01*
X173335684Y-67912292D02*
X173335684Y-66134292D01*
X173335684Y-56990292D02*
X173335684Y-55212292D01*
X184317222Y-87023990D02*
X186095222Y-87023990D01*
X173395222Y-74323990D02*
X175173222Y-74323990D01*
X184317222Y-74323990D02*
X186095222Y-74323990D01*
X186095222Y-74323990D02*
X186095222Y-76101990D01*
X186095222Y-85245990D02*
X186095222Y-87023990D01*
X186095222Y-87023990D02*
X184317222Y-87023990D01*
X175173222Y-87023990D02*
X173395222Y-87023990D01*
X173395222Y-87023990D02*
X173395222Y-85245990D01*
X173395222Y-76101990D02*
X173395222Y-74323990D01*
X184257684Y-106016612D02*
X186035684Y-106016612D01*
X173335684Y-93316612D02*
X175113684Y-93316612D01*
X184257684Y-93316612D02*
X186035684Y-93316612D01*
X186035684Y-93316612D02*
X186035684Y-95094612D01*
X186035684Y-104238612D02*
X186035684Y-106016612D01*
X186035684Y-106016612D02*
X184257684Y-106016612D01*
X175113684Y-106016612D02*
X173335684Y-106016612D01*
X173335684Y-106016612D02*
X173335684Y-104238612D01*
X173335684Y-95094612D02*
X173335684Y-93316612D01*
X198187785Y-125436092D02*
X199076785Y-123896299D01*
X181728263Y-128544821D02*
X182617263Y-127005028D01*
X187189263Y-119086092D02*
X188078263Y-117546299D01*
X188078263Y-117546299D02*
X189618056Y-118435299D01*
X197536992Y-123007299D02*
X199076785Y-123896299D01*
X199076785Y-123896299D02*
X198187785Y-125436092D01*
X193615785Y-133355028D02*
X192726785Y-134894821D01*
X192726785Y-134894821D02*
X191186992Y-134005821D01*
X183268056Y-129433821D02*
X181728263Y-128544821D01*
X203349978Y-72642754D02*
X205127978Y-72642754D01*
X192427978Y-59942754D02*
X194205978Y-59942754D01*
X203349978Y-59942754D02*
X205127978Y-59942754D01*
X205127978Y-59942754D02*
X205127978Y-61720754D01*
X205127978Y-70864754D02*
X205127978Y-72642754D01*
X205127978Y-72642754D02*
X203349978Y-72642754D01*
X194205978Y-72642754D02*
X192427978Y-72642754D01*
X192427978Y-72642754D02*
X192427978Y-70864754D01*
X192427978Y-61720754D02*
X192427978Y-59942754D01*
X203309844Y-91727492D02*
X205087844Y-91727492D01*
X192387844Y-79027492D02*
X194165844Y-79027492D01*
X203309844Y-79027492D02*
X205087844Y-79027492D01*
X205087844Y-79027492D02*
X205087844Y-80805492D01*
X205087844Y-89949492D02*
X205087844Y-91727492D01*
X205087844Y-91727492D02*
X203309844Y-91727492D01*
X194165844Y-91727492D02*
X192387844Y-91727492D01*
X192387844Y-91727492D02*
X192387844Y-89949492D01*
X192387844Y-80805492D02*
X192387844Y-79027492D01*
X207753269Y-108890931D02*
X208642269Y-107351138D01*
X191293747Y-111999660D02*
X192182747Y-110459867D01*
X196754747Y-102540931D02*
X197643747Y-101001138D01*
X197643747Y-101001138D02*
X199183540Y-101890138D01*
X207102476Y-106462138D02*
X208642269Y-107351138D01*
X208642269Y-107351138D02*
X207753269Y-108890931D01*
X203181269Y-116809867D02*
X202292269Y-118349660D01*
X202292269Y-118349660D02*
X200752476Y-117460660D01*
X192833540Y-112888660D02*
X191293747Y-111999660D01*
D16*
X179865020Y-53025040D02*
X179964080Y-53025040D01*
X179964080Y-53025040D02*
X179865020Y-53025040D01*
X179865020Y-53025040D02*
X179765960Y-53025040D01*
X179865020Y-51622960D02*
X179765960Y-51622960D01*
X179865020Y-51622960D02*
X179964080Y-51622960D01*
X179832000Y-49723040D02*
X179931060Y-49723040D01*
X179931060Y-49723040D02*
X179832000Y-49723040D01*
X179832000Y-49723040D02*
X179732940Y-49723040D01*
X179832000Y-48320960D02*
X179732940Y-48320960D01*
X179832000Y-48320960D02*
X179931060Y-48320960D01*
D14*
X114730000Y-49770000D02*
X114280000Y-49320000D01*
X111330000Y-49770000D02*
X111780000Y-49320000D01*
X111330000Y-54370000D02*
X111780000Y-54820000D01*
X114730000Y-54370000D02*
X114280000Y-54820000D01*
X110280000Y-53070000D02*
X110280000Y-51070000D01*
X114280000Y-49320000D02*
X111780000Y-49320000D01*
X115780000Y-53070000D02*
X115780000Y-51070000D01*
X114280000Y-54820000D02*
X111780000Y-54820000D01*
D15*
X150530038Y-47334870D02*
X132750038Y-47334870D01*
X132750038Y-47334870D02*
X132750038Y-77814870D01*
X132750038Y-77814870D02*
X150530038Y-77814870D01*
X150530038Y-77814870D02*
X150530038Y-47334870D01*
X135290038Y-47334870D02*
X135290038Y-49874870D01*
X135290038Y-49874870D02*
X132750038Y-49874870D01*
X203859959Y-115554576D02*
X202970959Y-117094369D01*
X198398959Y-125013305D02*
X197509959Y-126553098D01*
X197509959Y-126553098D02*
X195970166Y-125664098D01*
X188051230Y-121092098D02*
X186511437Y-120203098D01*
X186511437Y-120203098D02*
X187400437Y-118663305D01*
X191972437Y-110744369D02*
X192861437Y-109204576D01*
X192861437Y-109204576D02*
X194401230Y-110093576D01*
X202320166Y-114665576D02*
X203859959Y-115554576D01*
D16*
X95631905Y-65360476D02*
X94831905Y-65360476D01*
X94831905Y-65170000D01*
X94870000Y-65055714D01*
X94946190Y-64979523D01*
X95022381Y-64941428D01*
X95174762Y-64903333D01*
X95289048Y-64903333D01*
X95441429Y-64941428D01*
X95517619Y-64979523D01*
X95593810Y-65055714D01*
X95631905Y-65170000D01*
X95631905Y-65360476D01*
X95631905Y-64141428D02*
X95631905Y-64598571D01*
X95631905Y-64370000D02*
X94831905Y-64370000D01*
X94946190Y-64446190D01*
X95022381Y-64522381D01*
X95060476Y-64598571D01*
X96266905Y-84410476D02*
X95466905Y-84410476D01*
X95466905Y-84220000D01*
X95505000Y-84105714D01*
X95581190Y-84029523D01*
X95657381Y-83991428D01*
X95809762Y-83953333D01*
X95924048Y-83953333D01*
X96076429Y-83991428D01*
X96152619Y-84029523D01*
X96228810Y-84105714D01*
X96266905Y-84220000D01*
X96266905Y-84410476D01*
X95543095Y-83648571D02*
X95505000Y-83610476D01*
X95466905Y-83534285D01*
X95466905Y-83343809D01*
X95505000Y-83267619D01*
X95543095Y-83229523D01*
X95619286Y-83191428D01*
X95695476Y-83191428D01*
X95809762Y-83229523D01*
X96266905Y-83686666D01*
X96266905Y-83191428D01*
X96266905Y-103460476D02*
X95466905Y-103460476D01*
X95466905Y-103270000D01*
X95505000Y-103155714D01*
X95581190Y-103079523D01*
X95657381Y-103041428D01*
X95809762Y-103003333D01*
X95924048Y-103003333D01*
X96076429Y-103041428D01*
X96152619Y-103079523D01*
X96228810Y-103155714D01*
X96266905Y-103270000D01*
X96266905Y-103460476D01*
X95466905Y-102736666D02*
X95466905Y-102241428D01*
X95771667Y-102508095D01*
X95771667Y-102393809D01*
X95809762Y-102317619D01*
X95847857Y-102279523D01*
X95924048Y-102241428D01*
X96114524Y-102241428D01*
X96190714Y-102279523D01*
X96228810Y-102317619D01*
X96266905Y-102393809D01*
X96266905Y-102622381D01*
X96228810Y-102698571D01*
X96190714Y-102736666D01*
X95631905Y-122205476D02*
X94831905Y-122205476D01*
X94831905Y-122015000D01*
X94870000Y-121900714D01*
X94946190Y-121824523D01*
X95022381Y-121786428D01*
X95174762Y-121748333D01*
X95289048Y-121748333D01*
X95441429Y-121786428D01*
X95517619Y-121824523D01*
X95593810Y-121900714D01*
X95631905Y-122015000D01*
X95631905Y-122205476D01*
X95098571Y-121062619D02*
X95631905Y-121062619D01*
X94793810Y-121253095D02*
X95365238Y-121443571D01*
X95365238Y-120948333D01*
X115316905Y-62820476D02*
X114516905Y-62820476D01*
X114516905Y-62630000D01*
X114555000Y-62515714D01*
X114631190Y-62439523D01*
X114707381Y-62401428D01*
X114859762Y-62363333D01*
X114974048Y-62363333D01*
X115126429Y-62401428D01*
X115202619Y-62439523D01*
X115278810Y-62515714D01*
X115316905Y-62630000D01*
X115316905Y-62820476D01*
X114516905Y-61639523D02*
X114516905Y-62020476D01*
X114897857Y-62058571D01*
X114859762Y-62020476D01*
X114821667Y-61944285D01*
X114821667Y-61753809D01*
X114859762Y-61677619D01*
X114897857Y-61639523D01*
X114974048Y-61601428D01*
X115164524Y-61601428D01*
X115240714Y-61639523D01*
X115278810Y-61677619D01*
X115316905Y-61753809D01*
X115316905Y-61944285D01*
X115278810Y-62020476D01*
X115240714Y-62058571D01*
X115316905Y-82345476D02*
X114516905Y-82345476D01*
X114516905Y-82155000D01*
X114555000Y-82040714D01*
X114631190Y-81964523D01*
X114707381Y-81926428D01*
X114859762Y-81888333D01*
X114974048Y-81888333D01*
X115126429Y-81926428D01*
X115202619Y-81964523D01*
X115278810Y-82040714D01*
X115316905Y-82155000D01*
X115316905Y-82345476D01*
X114516905Y-81202619D02*
X114516905Y-81355000D01*
X114555000Y-81431190D01*
X114593095Y-81469285D01*
X114707381Y-81545476D01*
X114859762Y-81583571D01*
X115164524Y-81583571D01*
X115240714Y-81545476D01*
X115278810Y-81507381D01*
X115316905Y-81431190D01*
X115316905Y-81278809D01*
X115278810Y-81202619D01*
X115240714Y-81164523D01*
X115164524Y-81126428D01*
X114974048Y-81126428D01*
X114897857Y-81164523D01*
X114859762Y-81202619D01*
X114821667Y-81278809D01*
X114821667Y-81431190D01*
X114859762Y-81507381D01*
X114897857Y-81545476D01*
X114974048Y-81583571D01*
X115316905Y-101225476D02*
X114516905Y-101225476D01*
X114516905Y-101035000D01*
X114555000Y-100920714D01*
X114631190Y-100844523D01*
X114707381Y-100806428D01*
X114859762Y-100768333D01*
X114974048Y-100768333D01*
X115126429Y-100806428D01*
X115202619Y-100844523D01*
X115278810Y-100920714D01*
X115316905Y-101035000D01*
X115316905Y-101225476D01*
X114516905Y-100501666D02*
X114516905Y-99968333D01*
X115316905Y-100311190D01*
X115316905Y-119970476D02*
X114516905Y-119970476D01*
X114516905Y-119780000D01*
X114555000Y-119665714D01*
X114631190Y-119589523D01*
X114707381Y-119551428D01*
X114859762Y-119513333D01*
X114974048Y-119513333D01*
X115126429Y-119551428D01*
X115202619Y-119589523D01*
X115278810Y-119665714D01*
X115316905Y-119780000D01*
X115316905Y-119970476D01*
X114859762Y-119056190D02*
X114821667Y-119132381D01*
X114783571Y-119170476D01*
X114707381Y-119208571D01*
X114669286Y-119208571D01*
X114593095Y-119170476D01*
X114555000Y-119132381D01*
X114516905Y-119056190D01*
X114516905Y-118903809D01*
X114555000Y-118827619D01*
X114593095Y-118789523D01*
X114669286Y-118751428D01*
X114707381Y-118751428D01*
X114783571Y-118789523D01*
X114821667Y-118827619D01*
X114859762Y-118903809D01*
X114859762Y-119056190D01*
X114897857Y-119132381D01*
X114935952Y-119170476D01*
X115012143Y-119208571D01*
X115164524Y-119208571D01*
X115240714Y-119170476D01*
X115278810Y-119132381D01*
X115316905Y-119056190D01*
X115316905Y-118903809D01*
X115278810Y-118827619D01*
X115240714Y-118789523D01*
X115164524Y-118751428D01*
X115012143Y-118751428D01*
X114935952Y-118789523D01*
X114897857Y-118827619D01*
X114859762Y-118903809D01*
X133096905Y-60610476D02*
X132296905Y-60610476D01*
X132296905Y-60420000D01*
X132335000Y-60305714D01*
X132411190Y-60229523D01*
X132487381Y-60191428D01*
X132639762Y-60153333D01*
X132754048Y-60153333D01*
X132906429Y-60191428D01*
X132982619Y-60229523D01*
X133058810Y-60305714D01*
X133096905Y-60420000D01*
X133096905Y-60610476D01*
X133096905Y-59772381D02*
X133096905Y-59620000D01*
X133058810Y-59543809D01*
X133020714Y-59505714D01*
X132906429Y-59429523D01*
X132754048Y-59391428D01*
X132449286Y-59391428D01*
X132373095Y-59429523D01*
X132335000Y-59467619D01*
X132296905Y-59543809D01*
X132296905Y-59696190D01*
X132335000Y-59772381D01*
X132373095Y-59810476D01*
X132449286Y-59848571D01*
X132639762Y-59848571D01*
X132715952Y-59810476D01*
X132754048Y-59772381D01*
X132792143Y-59696190D01*
X132792143Y-59543809D01*
X132754048Y-59467619D01*
X132715952Y-59429523D01*
X132639762Y-59391428D01*
X133731905Y-84791429D02*
X132931905Y-84791429D01*
X132931905Y-84600953D01*
X132970000Y-84486667D01*
X133046190Y-84410476D01*
X133122381Y-84372381D01*
X133274762Y-84334286D01*
X133389048Y-84334286D01*
X133541429Y-84372381D01*
X133617619Y-84410476D01*
X133693810Y-84486667D01*
X133731905Y-84600953D01*
X133731905Y-84791429D01*
X133731905Y-83572381D02*
X133731905Y-84029524D01*
X133731905Y-83800953D02*
X132931905Y-83800953D01*
X133046190Y-83877143D01*
X133122381Y-83953334D01*
X133160476Y-84029524D01*
X132931905Y-83077143D02*
X132931905Y-83000952D01*
X132970000Y-82924762D01*
X133008095Y-82886667D01*
X133084286Y-82848571D01*
X133236667Y-82810476D01*
X133427143Y-82810476D01*
X133579524Y-82848571D01*
X133655714Y-82886667D01*
X133693810Y-82924762D01*
X133731905Y-83000952D01*
X133731905Y-83077143D01*
X133693810Y-83153333D01*
X133655714Y-83191429D01*
X133579524Y-83229524D01*
X133427143Y-83267619D01*
X133236667Y-83267619D01*
X133084286Y-83229524D01*
X133008095Y-83191429D01*
X132970000Y-83153333D01*
X132931905Y-83077143D01*
X134366905Y-98761429D02*
X133566905Y-98761429D01*
X133566905Y-98570953D01*
X133605000Y-98456667D01*
X133681190Y-98380476D01*
X133757381Y-98342381D01*
X133909762Y-98304286D01*
X134024048Y-98304286D01*
X134176429Y-98342381D01*
X134252619Y-98380476D01*
X134328810Y-98456667D01*
X134366905Y-98570953D01*
X134366905Y-98761429D01*
X134366905Y-97542381D02*
X134366905Y-97999524D01*
X134366905Y-97770953D02*
X133566905Y-97770953D01*
X133681190Y-97847143D01*
X133757381Y-97923334D01*
X133795476Y-97999524D01*
X134366905Y-96780476D02*
X134366905Y-97237619D01*
X134366905Y-97009048D02*
X133566905Y-97009048D01*
X133681190Y-97085238D01*
X133757381Y-97161429D01*
X133795476Y-97237619D01*
X134366905Y-118116429D02*
X133566905Y-118116429D01*
X133566905Y-117925953D01*
X133605000Y-117811667D01*
X133681190Y-117735476D01*
X133757381Y-117697381D01*
X133909762Y-117659286D01*
X134024048Y-117659286D01*
X134176429Y-117697381D01*
X134252619Y-117735476D01*
X134328810Y-117811667D01*
X134366905Y-117925953D01*
X134366905Y-118116429D01*
X134366905Y-116897381D02*
X134366905Y-117354524D01*
X134366905Y-117125953D02*
X133566905Y-117125953D01*
X133681190Y-117202143D01*
X133757381Y-117278334D01*
X133795476Y-117354524D01*
X133643095Y-116592619D02*
X133605000Y-116554524D01*
X133566905Y-116478333D01*
X133566905Y-116287857D01*
X133605000Y-116211667D01*
X133643095Y-116173571D01*
X133719286Y-116135476D01*
X133795476Y-116135476D01*
X133909762Y-116173571D01*
X134366905Y-116630714D01*
X134366905Y-116135476D01*
X141573571Y-68326905D02*
X141573571Y-67526905D01*
X141764047Y-67526905D01*
X141878333Y-67565000D01*
X141954524Y-67641190D01*
X141992619Y-67717381D01*
X142030714Y-67869762D01*
X142030714Y-67984048D01*
X141992619Y-68136429D01*
X141954524Y-68212619D01*
X141878333Y-68288810D01*
X141764047Y-68326905D01*
X141573571Y-68326905D01*
X142792619Y-68326905D02*
X142335476Y-68326905D01*
X142564047Y-68326905D02*
X142564047Y-67526905D01*
X142487857Y-67641190D01*
X142411666Y-67717381D01*
X142335476Y-67755476D01*
X143059286Y-67526905D02*
X143554524Y-67526905D01*
X143287857Y-67831667D01*
X143402143Y-67831667D01*
X143478333Y-67869762D01*
X143516429Y-67907857D01*
X143554524Y-67984048D01*
X143554524Y-68174524D01*
X143516429Y-68250714D01*
X143478333Y-68288810D01*
X143402143Y-68326905D01*
X143173571Y-68326905D01*
X143097381Y-68288810D01*
X143059286Y-68250714D01*
X153416905Y-84486429D02*
X152616905Y-84486429D01*
X152616905Y-84295953D01*
X152655000Y-84181667D01*
X152731190Y-84105476D01*
X152807381Y-84067381D01*
X152959762Y-84029286D01*
X153074048Y-84029286D01*
X153226429Y-84067381D01*
X153302619Y-84105476D01*
X153378810Y-84181667D01*
X153416905Y-84295953D01*
X153416905Y-84486429D01*
X153416905Y-83267381D02*
X153416905Y-83724524D01*
X153416905Y-83495953D02*
X152616905Y-83495953D01*
X152731190Y-83572143D01*
X152807381Y-83648334D01*
X152845476Y-83724524D01*
X152883571Y-82581667D02*
X153416905Y-82581667D01*
X152578810Y-82772143D02*
X153150238Y-82962619D01*
X153150238Y-82467381D01*
X153416905Y-96856429D02*
X152616905Y-96856429D01*
X152616905Y-96665953D01*
X152655000Y-96551667D01*
X152731190Y-96475476D01*
X152807381Y-96437381D01*
X152959762Y-96399286D01*
X153074048Y-96399286D01*
X153226429Y-96437381D01*
X153302619Y-96475476D01*
X153378810Y-96551667D01*
X153416905Y-96665953D01*
X153416905Y-96856429D01*
X153416905Y-95637381D02*
X153416905Y-96094524D01*
X153416905Y-95865953D02*
X152616905Y-95865953D01*
X152731190Y-95942143D01*
X152807381Y-96018334D01*
X152845476Y-96094524D01*
X152616905Y-94913571D02*
X152616905Y-95294524D01*
X152997857Y-95332619D01*
X152959762Y-95294524D01*
X152921667Y-95218333D01*
X152921667Y-95027857D01*
X152959762Y-94951667D01*
X152997857Y-94913571D01*
X153074048Y-94875476D01*
X153264524Y-94875476D01*
X153340714Y-94913571D01*
X153378810Y-94951667D01*
X153416905Y-95027857D01*
X153416905Y-95218333D01*
X153378810Y-95294524D01*
X153340714Y-95332619D01*
X153416905Y-115576429D02*
X152616905Y-115576429D01*
X152616905Y-115385953D01*
X152655000Y-115271667D01*
X152731190Y-115195476D01*
X152807381Y-115157381D01*
X152959762Y-115119286D01*
X153074048Y-115119286D01*
X153226429Y-115157381D01*
X153302619Y-115195476D01*
X153378810Y-115271667D01*
X153416905Y-115385953D01*
X153416905Y-115576429D01*
X153416905Y-114357381D02*
X153416905Y-114814524D01*
X153416905Y-114585953D02*
X152616905Y-114585953D01*
X152731190Y-114662143D01*
X152807381Y-114738334D01*
X152845476Y-114814524D01*
X152616905Y-113671667D02*
X152616905Y-113824048D01*
X152655000Y-113900238D01*
X152693095Y-113938333D01*
X152807381Y-114014524D01*
X152959762Y-114052619D01*
X153264524Y-114052619D01*
X153340714Y-114014524D01*
X153378810Y-113976429D01*
X153416905Y-113900238D01*
X153416905Y-113747857D01*
X153378810Y-113671667D01*
X153340714Y-113633571D01*
X153264524Y-113595476D01*
X153074048Y-113595476D01*
X152997857Y-113633571D01*
X152959762Y-113671667D01*
X152921667Y-113747857D01*
X152921667Y-113900238D01*
X152959762Y-113976429D01*
X152997857Y-114014524D01*
X153074048Y-114052619D01*
X172466905Y-60966429D02*
X171666905Y-60966429D01*
X171666905Y-60775953D01*
X171705000Y-60661667D01*
X171781190Y-60585476D01*
X171857381Y-60547381D01*
X172009762Y-60509286D01*
X172124048Y-60509286D01*
X172276429Y-60547381D01*
X172352619Y-60585476D01*
X172428810Y-60661667D01*
X172466905Y-60775953D01*
X172466905Y-60966429D01*
X172466905Y-59747381D02*
X172466905Y-60204524D01*
X172466905Y-59975953D02*
X171666905Y-59975953D01*
X171781190Y-60052143D01*
X171857381Y-60128334D01*
X171895476Y-60204524D01*
X171666905Y-59480714D02*
X171666905Y-58947381D01*
X172466905Y-59290238D01*
X172466905Y-80346429D02*
X171666905Y-80346429D01*
X171666905Y-80155953D01*
X171705000Y-80041667D01*
X171781190Y-79965476D01*
X171857381Y-79927381D01*
X172009762Y-79889286D01*
X172124048Y-79889286D01*
X172276429Y-79927381D01*
X172352619Y-79965476D01*
X172428810Y-80041667D01*
X172466905Y-80155953D01*
X172466905Y-80346429D01*
X172466905Y-79127381D02*
X172466905Y-79584524D01*
X172466905Y-79355953D02*
X171666905Y-79355953D01*
X171781190Y-79432143D01*
X171857381Y-79508334D01*
X171895476Y-79584524D01*
X172009762Y-78670238D02*
X171971667Y-78746429D01*
X171933571Y-78784524D01*
X171857381Y-78822619D01*
X171819286Y-78822619D01*
X171743095Y-78784524D01*
X171705000Y-78746429D01*
X171666905Y-78670238D01*
X171666905Y-78517857D01*
X171705000Y-78441667D01*
X171743095Y-78403571D01*
X171819286Y-78365476D01*
X171857381Y-78365476D01*
X171933571Y-78403571D01*
X171971667Y-78441667D01*
X172009762Y-78517857D01*
X172009762Y-78670238D01*
X172047857Y-78746429D01*
X172085952Y-78784524D01*
X172162143Y-78822619D01*
X172314524Y-78822619D01*
X172390714Y-78784524D01*
X172428810Y-78746429D01*
X172466905Y-78670238D01*
X172466905Y-78517857D01*
X172428810Y-78441667D01*
X172390714Y-78403571D01*
X172314524Y-78365476D01*
X172162143Y-78365476D01*
X172085952Y-78403571D01*
X172047857Y-78441667D01*
X172009762Y-78517857D01*
X172466905Y-98851429D02*
X171666905Y-98851429D01*
X171666905Y-98660953D01*
X171705000Y-98546667D01*
X171781190Y-98470476D01*
X171857381Y-98432381D01*
X172009762Y-98394286D01*
X172124048Y-98394286D01*
X172276429Y-98432381D01*
X172352619Y-98470476D01*
X172428810Y-98546667D01*
X172466905Y-98660953D01*
X172466905Y-98851429D01*
X172466905Y-97632381D02*
X172466905Y-98089524D01*
X172466905Y-97860953D02*
X171666905Y-97860953D01*
X171781190Y-97937143D01*
X171857381Y-98013334D01*
X171895476Y-98089524D01*
X172466905Y-97251429D02*
X172466905Y-97099048D01*
X172428810Y-97022857D01*
X172390714Y-96984762D01*
X172276429Y-96908571D01*
X172124048Y-96870476D01*
X171819286Y-96870476D01*
X171743095Y-96908571D01*
X171705000Y-96946667D01*
X171666905Y-97022857D01*
X171666905Y-97175238D01*
X171705000Y-97251429D01*
X171743095Y-97289524D01*
X171819286Y-97327619D01*
X172009762Y-97327619D01*
X172085952Y-97289524D01*
X172124048Y-97251429D01*
X172162143Y-97175238D01*
X172162143Y-97022857D01*
X172124048Y-96946667D01*
X172085952Y-96908571D01*
X172009762Y-96870476D01*
X181356905Y-117086429D02*
X180556905Y-117086429D01*
X180556905Y-116895953D01*
X180595000Y-116781667D01*
X180671190Y-116705476D01*
X180747381Y-116667381D01*
X180899762Y-116629286D01*
X181014048Y-116629286D01*
X181166429Y-116667381D01*
X181242619Y-116705476D01*
X181318810Y-116781667D01*
X181356905Y-116895953D01*
X181356905Y-117086429D01*
X180633095Y-116324524D02*
X180595000Y-116286429D01*
X180556905Y-116210238D01*
X180556905Y-116019762D01*
X180595000Y-115943572D01*
X180633095Y-115905476D01*
X180709286Y-115867381D01*
X180785476Y-115867381D01*
X180899762Y-115905476D01*
X181356905Y-116362619D01*
X181356905Y-115867381D01*
X180556905Y-115372143D02*
X180556905Y-115295952D01*
X180595000Y-115219762D01*
X180633095Y-115181667D01*
X180709286Y-115143571D01*
X180861667Y-115105476D01*
X181052143Y-115105476D01*
X181204524Y-115143571D01*
X181280714Y-115181667D01*
X181318810Y-115219762D01*
X181356905Y-115295952D01*
X181356905Y-115372143D01*
X181318810Y-115448333D01*
X181280714Y-115486429D01*
X181204524Y-115524524D01*
X181052143Y-115562619D01*
X180861667Y-115562619D01*
X180709286Y-115524524D01*
X180633095Y-115486429D01*
X180595000Y-115448333D01*
X180556905Y-115372143D01*
X191516905Y-63361429D02*
X190716905Y-63361429D01*
X190716905Y-63170953D01*
X190755000Y-63056667D01*
X190831190Y-62980476D01*
X190907381Y-62942381D01*
X191059762Y-62904286D01*
X191174048Y-62904286D01*
X191326429Y-62942381D01*
X191402619Y-62980476D01*
X191478810Y-63056667D01*
X191516905Y-63170953D01*
X191516905Y-63361429D01*
X190793095Y-62599524D02*
X190755000Y-62561429D01*
X190716905Y-62485238D01*
X190716905Y-62294762D01*
X190755000Y-62218572D01*
X190793095Y-62180476D01*
X190869286Y-62142381D01*
X190945476Y-62142381D01*
X191059762Y-62180476D01*
X191516905Y-62637619D01*
X191516905Y-62142381D01*
X191516905Y-61380476D02*
X191516905Y-61837619D01*
X191516905Y-61609048D02*
X190716905Y-61609048D01*
X190831190Y-61685238D01*
X190907381Y-61761429D01*
X190945476Y-61837619D01*
X191516905Y-82251429D02*
X190716905Y-82251429D01*
X190716905Y-82060953D01*
X190755000Y-81946667D01*
X190831190Y-81870476D01*
X190907381Y-81832381D01*
X191059762Y-81794286D01*
X191174048Y-81794286D01*
X191326429Y-81832381D01*
X191402619Y-81870476D01*
X191478810Y-81946667D01*
X191516905Y-82060953D01*
X191516905Y-82251429D01*
X190793095Y-81489524D02*
X190755000Y-81451429D01*
X190716905Y-81375238D01*
X190716905Y-81184762D01*
X190755000Y-81108572D01*
X190793095Y-81070476D01*
X190869286Y-81032381D01*
X190945476Y-81032381D01*
X191059762Y-81070476D01*
X191516905Y-81527619D01*
X191516905Y-81032381D01*
X190793095Y-80727619D02*
X190755000Y-80689524D01*
X190716905Y-80613333D01*
X190716905Y-80422857D01*
X190755000Y-80346667D01*
X190793095Y-80308571D01*
X190869286Y-80270476D01*
X190945476Y-80270476D01*
X191059762Y-80308571D01*
X191516905Y-80765714D01*
X191516905Y-80270476D01*
X191516905Y-100506429D02*
X190716905Y-100506429D01*
X190716905Y-100315953D01*
X190755000Y-100201667D01*
X190831190Y-100125476D01*
X190907381Y-100087381D01*
X191059762Y-100049286D01*
X191174048Y-100049286D01*
X191326429Y-100087381D01*
X191402619Y-100125476D01*
X191478810Y-100201667D01*
X191516905Y-100315953D01*
X191516905Y-100506429D01*
X190793095Y-99744524D02*
X190755000Y-99706429D01*
X190716905Y-99630238D01*
X190716905Y-99439762D01*
X190755000Y-99363572D01*
X190793095Y-99325476D01*
X190869286Y-99287381D01*
X190945476Y-99287381D01*
X191059762Y-99325476D01*
X191516905Y-99782619D01*
X191516905Y-99287381D01*
X190716905Y-99020714D02*
X190716905Y-98525476D01*
X191021667Y-98792143D01*
X191021667Y-98677857D01*
X191059762Y-98601667D01*
X191097857Y-98563571D01*
X191174048Y-98525476D01*
X191364524Y-98525476D01*
X191440714Y-98563571D01*
X191478810Y-98601667D01*
X191516905Y-98677857D01*
X191516905Y-98906429D01*
X191478810Y-98982619D01*
X191440714Y-99020714D01*
X185166905Y-116871429D02*
X184366905Y-116871429D01*
X184366905Y-116680953D01*
X184405000Y-116566667D01*
X184481190Y-116490476D01*
X184557381Y-116452381D01*
X184709762Y-116414286D01*
X184824048Y-116414286D01*
X184976429Y-116452381D01*
X185052619Y-116490476D01*
X185128810Y-116566667D01*
X185166905Y-116680953D01*
X185166905Y-116871429D01*
X184443095Y-116109524D02*
X184405000Y-116071429D01*
X184366905Y-115995238D01*
X184366905Y-115804762D01*
X184405000Y-115728572D01*
X184443095Y-115690476D01*
X184519286Y-115652381D01*
X184595476Y-115652381D01*
X184709762Y-115690476D01*
X185166905Y-116147619D01*
X185166905Y-115652381D01*
X184633571Y-114966667D02*
X185166905Y-114966667D01*
X184328810Y-115157143D02*
X184900238Y-115347619D01*
X184900238Y-114852381D01*
X198578571Y-78486905D02*
X198578571Y-77686905D01*
X198769047Y-77686905D01*
X198883333Y-77725000D01*
X198959524Y-77801190D01*
X198997619Y-77877381D01*
X199035714Y-78029762D01*
X199035714Y-78144048D01*
X198997619Y-78296429D01*
X198959524Y-78372619D01*
X198883333Y-78448810D01*
X198769047Y-78486905D01*
X198578571Y-78486905D01*
X199340476Y-77763095D02*
X199378571Y-77725000D01*
X199454762Y-77686905D01*
X199645238Y-77686905D01*
X199721428Y-77725000D01*
X199759524Y-77763095D01*
X199797619Y-77839286D01*
X199797619Y-77915476D01*
X199759524Y-78029762D01*
X199302381Y-78486905D01*
X199797619Y-78486905D01*
X200521429Y-77686905D02*
X200140476Y-77686905D01*
X200102381Y-78067857D01*
X200140476Y-78029762D01*
X200216667Y-77991667D01*
X200407143Y-77991667D01*
X200483333Y-78029762D01*
X200521429Y-78067857D01*
X200559524Y-78144048D01*
X200559524Y-78334524D01*
X200521429Y-78410714D01*
X200483333Y-78448810D01*
X200407143Y-78486905D01*
X200216667Y-78486905D01*
X200140476Y-78448810D01*
X200102381Y-78410714D01*
X199778571Y-96266905D02*
X199778571Y-95466905D01*
X199969047Y-95466905D01*
X200083333Y-95505000D01*
X200159524Y-95581190D01*
X200197619Y-95657381D01*
X200235714Y-95809762D01*
X200235714Y-95924048D01*
X200197619Y-96076429D01*
X200159524Y-96152619D01*
X200083333Y-96228810D01*
X199969047Y-96266905D01*
X199778571Y-96266905D01*
X200540476Y-95543095D02*
X200578571Y-95505000D01*
X200654762Y-95466905D01*
X200845238Y-95466905D01*
X200921428Y-95505000D01*
X200959524Y-95543095D01*
X200997619Y-95619286D01*
X200997619Y-95695476D01*
X200959524Y-95809762D01*
X200502381Y-96266905D01*
X200997619Y-96266905D01*
X201683333Y-95466905D02*
X201530952Y-95466905D01*
X201454762Y-95505000D01*
X201416667Y-95543095D01*
X201340476Y-95657381D01*
X201302381Y-95809762D01*
X201302381Y-96114524D01*
X201340476Y-96190714D01*
X201378571Y-96228810D01*
X201454762Y-96266905D01*
X201607143Y-96266905D01*
X201683333Y-96228810D01*
X201721429Y-96190714D01*
X201759524Y-96114524D01*
X201759524Y-95924048D01*
X201721429Y-95847857D01*
X201683333Y-95809762D01*
X201607143Y-95771667D01*
X201454762Y-95771667D01*
X201378571Y-95809762D01*
X201340476Y-95847857D01*
X201302381Y-95924048D01*
X199688571Y-98806905D02*
X199688571Y-98006905D01*
X199879047Y-98006905D01*
X199993333Y-98045000D01*
X200069524Y-98121190D01*
X200107619Y-98197381D01*
X200145714Y-98349762D01*
X200145714Y-98464048D01*
X200107619Y-98616429D01*
X200069524Y-98692619D01*
X199993333Y-98768810D01*
X199879047Y-98806905D01*
X199688571Y-98806905D01*
X200450476Y-98083095D02*
X200488571Y-98045000D01*
X200564762Y-98006905D01*
X200755238Y-98006905D01*
X200831428Y-98045000D01*
X200869524Y-98083095D01*
X200907619Y-98159286D01*
X200907619Y-98235476D01*
X200869524Y-98349762D01*
X200412381Y-98806905D01*
X200907619Y-98806905D01*
X201174286Y-98006905D02*
X201707619Y-98006905D01*
X201364762Y-98806905D01*
X165358381Y-49101333D02*
X166072667Y-49101333D01*
X166215524Y-49148953D01*
X166310762Y-49244191D01*
X166358381Y-49387048D01*
X166358381Y-49482286D01*
X166358381Y-48101333D02*
X166358381Y-48672762D01*
X166358381Y-48387048D02*
X165358381Y-48387048D01*
X165501238Y-48482286D01*
X165596476Y-48577524D01*
X165644095Y-48672762D01*
D13*
X83716905Y-69032381D02*
X83716905Y-68032381D01*
X84288334Y-69032381D02*
X83859762Y-68460952D01*
X84288334Y-68032381D02*
X83716905Y-68603810D01*
X85240715Y-69032381D02*
X84669286Y-69032381D01*
X84955000Y-69032381D02*
X84955000Y-68032381D01*
X84859762Y-68175238D01*
X84764524Y-68270476D01*
X84669286Y-68318095D01*
X83466789Y-88082381D02*
X83466789Y-87082381D01*
X84038218Y-88082381D02*
X83609646Y-87510952D01*
X84038218Y-87082381D02*
X83466789Y-87653810D01*
X84419170Y-87177619D02*
X84466789Y-87130000D01*
X84562027Y-87082381D01*
X84800123Y-87082381D01*
X84895361Y-87130000D01*
X84942980Y-87177619D01*
X84990599Y-87272857D01*
X84990599Y-87368095D01*
X84942980Y-87510952D01*
X84371551Y-88082381D01*
X84990599Y-88082381D01*
X83466789Y-107132381D02*
X83466789Y-106132381D01*
X84038218Y-107132381D02*
X83609646Y-106560952D01*
X84038218Y-106132381D02*
X83466789Y-106703810D01*
X84371551Y-106132381D02*
X84990599Y-106132381D01*
X84657265Y-106513333D01*
X84800123Y-106513333D01*
X84895361Y-106560952D01*
X84942980Y-106608571D01*
X84990599Y-106703810D01*
X84990599Y-106941905D01*
X84942980Y-107037143D01*
X84895361Y-107084762D01*
X84800123Y-107132381D01*
X84514408Y-107132381D01*
X84419170Y-107084762D01*
X84371551Y-107037143D01*
X83466789Y-126182381D02*
X83466789Y-125182381D01*
X84038218Y-126182381D02*
X83609646Y-125610952D01*
X84038218Y-125182381D02*
X83466789Y-125753810D01*
X84895361Y-125515714D02*
X84895361Y-126182381D01*
X84657265Y-125134762D02*
X84419170Y-125849048D01*
X85038218Y-125849048D01*
X102766905Y-66492381D02*
X102766905Y-65492381D01*
X103338334Y-66492381D02*
X102909762Y-65920952D01*
X103338334Y-65492381D02*
X102766905Y-66063810D01*
X104243096Y-65492381D02*
X103766905Y-65492381D01*
X103719286Y-65968571D01*
X103766905Y-65920952D01*
X103862143Y-65873333D01*
X104100239Y-65873333D01*
X104195477Y-65920952D01*
X104243096Y-65968571D01*
X104290715Y-66063810D01*
X104290715Y-66301905D01*
X104243096Y-66397143D01*
X104195477Y-66444762D01*
X104100239Y-66492381D01*
X103862143Y-66492381D01*
X103766905Y-66444762D01*
X103719286Y-66397143D01*
X102578487Y-85542381D02*
X102578487Y-84542381D01*
X103149916Y-85542381D02*
X102721344Y-84970952D01*
X103149916Y-84542381D02*
X102578487Y-85113810D01*
X104007059Y-84542381D02*
X103816582Y-84542381D01*
X103721344Y-84590000D01*
X103673725Y-84637619D01*
X103578487Y-84780476D01*
X103530868Y-84970952D01*
X103530868Y-85351905D01*
X103578487Y-85447143D01*
X103626106Y-85494762D01*
X103721344Y-85542381D01*
X103911821Y-85542381D01*
X104007059Y-85494762D01*
X104054678Y-85447143D01*
X104102297Y-85351905D01*
X104102297Y-85113810D01*
X104054678Y-85018571D01*
X104007059Y-84970952D01*
X103911821Y-84923333D01*
X103721344Y-84923333D01*
X103626106Y-84970952D01*
X103578487Y-85018571D01*
X103530868Y-85113810D01*
X102578487Y-104592381D02*
X102578487Y-103592381D01*
X103149916Y-104592381D02*
X102721344Y-104020952D01*
X103149916Y-103592381D02*
X102578487Y-104163810D01*
X103483249Y-103592381D02*
X104149916Y-103592381D01*
X103721344Y-104592381D01*
X102518949Y-123642381D02*
X102518949Y-122642381D01*
X103090378Y-123642381D02*
X102661806Y-123070952D01*
X103090378Y-122642381D02*
X102518949Y-123213810D01*
X103661806Y-123070952D02*
X103566568Y-123023333D01*
X103518949Y-122975714D01*
X103471330Y-122880476D01*
X103471330Y-122832857D01*
X103518949Y-122737619D01*
X103566568Y-122690000D01*
X103661806Y-122642381D01*
X103852283Y-122642381D01*
X103947521Y-122690000D01*
X103995140Y-122737619D01*
X104042759Y-122832857D01*
X104042759Y-122880476D01*
X103995140Y-122975714D01*
X103947521Y-123023333D01*
X103852283Y-123070952D01*
X103661806Y-123070952D01*
X103566568Y-123118571D01*
X103518949Y-123166190D01*
X103471330Y-123261429D01*
X103471330Y-123451905D01*
X103518949Y-123547143D01*
X103566568Y-123594762D01*
X103661806Y-123642381D01*
X103852283Y-123642381D01*
X103947521Y-123594762D01*
X103995140Y-123547143D01*
X104042759Y-123451905D01*
X104042759Y-123261429D01*
X103995140Y-123166190D01*
X103947521Y-123118571D01*
X103852283Y-123070952D01*
X121816905Y-63952381D02*
X121816905Y-62952381D01*
X122388334Y-63952381D02*
X121959762Y-63380952D01*
X122388334Y-62952381D02*
X121816905Y-63523810D01*
X122864524Y-63952381D02*
X123055000Y-63952381D01*
X123150239Y-63904762D01*
X123197858Y-63857143D01*
X123293096Y-63714286D01*
X123340715Y-63523810D01*
X123340715Y-63142857D01*
X123293096Y-63047619D01*
X123245477Y-63000000D01*
X123150239Y-62952381D01*
X122959762Y-62952381D01*
X122864524Y-63000000D01*
X122816905Y-63047619D01*
X122769286Y-63142857D01*
X122769286Y-63380952D01*
X122816905Y-63476190D01*
X122864524Y-63523810D01*
X122959762Y-63571429D01*
X123150239Y-63571429D01*
X123245477Y-63523810D01*
X123293096Y-63476190D01*
X123340715Y-63380952D01*
X121094918Y-83002381D02*
X121094918Y-82002381D01*
X121666347Y-83002381D02*
X121237775Y-82430952D01*
X121666347Y-82002381D02*
X121094918Y-82573810D01*
X122618728Y-83002381D02*
X122047299Y-83002381D01*
X122333013Y-83002381D02*
X122333013Y-82002381D01*
X122237775Y-82145238D01*
X122142537Y-82240476D01*
X122047299Y-82288095D01*
X123237775Y-82002381D02*
X123333014Y-82002381D01*
X123428252Y-82050000D01*
X123475871Y-82097619D01*
X123523490Y-82192857D01*
X123571109Y-82383333D01*
X123571109Y-82621429D01*
X123523490Y-82811905D01*
X123475871Y-82907143D01*
X123428252Y-82954762D01*
X123333014Y-83002381D01*
X123237775Y-83002381D01*
X123142537Y-82954762D01*
X123094918Y-82907143D01*
X123047299Y-82811905D01*
X122999680Y-82621429D01*
X122999680Y-82383333D01*
X123047299Y-82192857D01*
X123094918Y-82097619D01*
X123142537Y-82050000D01*
X123237775Y-82002381D01*
X121035380Y-102052381D02*
X121035380Y-101052381D01*
X121606809Y-102052381D02*
X121178237Y-101480952D01*
X121606809Y-101052381D02*
X121035380Y-101623810D01*
X122559190Y-102052381D02*
X121987761Y-102052381D01*
X122273475Y-102052381D02*
X122273475Y-101052381D01*
X122178237Y-101195238D01*
X122082999Y-101290476D01*
X121987761Y-101338095D01*
X123511571Y-102052381D02*
X122940142Y-102052381D01*
X123225856Y-102052381D02*
X123225856Y-101052381D01*
X123130618Y-101195238D01*
X123035380Y-101290476D01*
X122940142Y-101338095D01*
X121135186Y-121102381D02*
X121135186Y-120102381D01*
X121706615Y-121102381D02*
X121278043Y-120530952D01*
X121706615Y-120102381D02*
X121135186Y-120673810D01*
X122658996Y-121102381D02*
X122087567Y-121102381D01*
X122373281Y-121102381D02*
X122373281Y-120102381D01*
X122278043Y-120245238D01*
X122182805Y-120340476D01*
X122087567Y-120388095D01*
X123039948Y-120197619D02*
X123087567Y-120150000D01*
X123182805Y-120102381D01*
X123420901Y-120102381D01*
X123516139Y-120150000D01*
X123563758Y-120197619D01*
X123611377Y-120292857D01*
X123611377Y-120388095D01*
X123563758Y-120530952D01*
X122992329Y-121102381D01*
X123611377Y-121102381D01*
X140390714Y-60777381D02*
X140390714Y-59777381D01*
X140962143Y-60777381D02*
X140533571Y-60205952D01*
X140962143Y-59777381D02*
X140390714Y-60348810D01*
X141914524Y-60777381D02*
X141343095Y-60777381D01*
X141628809Y-60777381D02*
X141628809Y-59777381D01*
X141533571Y-59920238D01*
X141438333Y-60015476D01*
X141343095Y-60063095D01*
X142247857Y-59777381D02*
X142866905Y-59777381D01*
X142533571Y-60158333D01*
X142676429Y-60158333D01*
X142771667Y-60205952D01*
X142819286Y-60253571D01*
X142866905Y-60348810D01*
X142866905Y-60586905D01*
X142819286Y-60682143D01*
X142771667Y-60729762D01*
X142676429Y-60777381D01*
X142390714Y-60777381D01*
X142295476Y-60729762D01*
X142247857Y-60682143D01*
X140187346Y-81097381D02*
X140187346Y-80097381D01*
X140758775Y-81097381D02*
X140330203Y-80525952D01*
X140758775Y-80097381D02*
X140187346Y-80668810D01*
X141711156Y-81097381D02*
X141139727Y-81097381D01*
X141425441Y-81097381D02*
X141425441Y-80097381D01*
X141330203Y-80240238D01*
X141234965Y-80335476D01*
X141139727Y-80383095D01*
X142568299Y-80430714D02*
X142568299Y-81097381D01*
X142330203Y-80049762D02*
X142092108Y-80764048D01*
X142711156Y-80764048D01*
X140206616Y-99512381D02*
X140206616Y-98512381D01*
X140778045Y-99512381D02*
X140349473Y-98940952D01*
X140778045Y-98512381D02*
X140206616Y-99083810D01*
X141730426Y-99512381D02*
X141158997Y-99512381D01*
X141444711Y-99512381D02*
X141444711Y-98512381D01*
X141349473Y-98655238D01*
X141254235Y-98750476D01*
X141158997Y-98798095D01*
X142635188Y-98512381D02*
X142158997Y-98512381D01*
X142111378Y-98988571D01*
X142158997Y-98940952D01*
X142254235Y-98893333D01*
X142492331Y-98893333D01*
X142587569Y-98940952D01*
X142635188Y-98988571D01*
X142682807Y-99083810D01*
X142682807Y-99321905D01*
X142635188Y-99417143D01*
X142587569Y-99464762D01*
X142492331Y-99512381D01*
X142254235Y-99512381D01*
X142158997Y-99464762D01*
X142111378Y-99417143D01*
X140147078Y-119197381D02*
X140147078Y-118197381D01*
X140718507Y-119197381D02*
X140289935Y-118625952D01*
X140718507Y-118197381D02*
X140147078Y-118768810D01*
X141670888Y-119197381D02*
X141099459Y-119197381D01*
X141385173Y-119197381D02*
X141385173Y-118197381D01*
X141289935Y-118340238D01*
X141194697Y-118435476D01*
X141099459Y-118483095D01*
X142528031Y-118197381D02*
X142337554Y-118197381D01*
X142242316Y-118245000D01*
X142194697Y-118292619D01*
X142099459Y-118435476D01*
X142051840Y-118625952D01*
X142051840Y-119006905D01*
X142099459Y-119102143D01*
X142147078Y-119149762D01*
X142242316Y-119197381D01*
X142432793Y-119197381D01*
X142528031Y-119149762D01*
X142575650Y-119102143D01*
X142623269Y-119006905D01*
X142623269Y-118768810D01*
X142575650Y-118673571D01*
X142528031Y-118625952D01*
X142432793Y-118578333D01*
X142242316Y-118578333D01*
X142147078Y-118625952D01*
X142099459Y-118673571D01*
X142051840Y-118768810D01*
X159199238Y-63952381D02*
X159199238Y-62952381D01*
X159770667Y-63952381D02*
X159342095Y-63380952D01*
X159770667Y-62952381D02*
X159199238Y-63523810D01*
X160723048Y-63952381D02*
X160151619Y-63952381D01*
X160437333Y-63952381D02*
X160437333Y-62952381D01*
X160342095Y-63095238D01*
X160246857Y-63190476D01*
X160151619Y-63238095D01*
X161056381Y-62952381D02*
X161723048Y-62952381D01*
X161294476Y-63952381D01*
X159199238Y-83002381D02*
X159199238Y-82002381D01*
X159770667Y-83002381D02*
X159342095Y-82430952D01*
X159770667Y-82002381D02*
X159199238Y-82573810D01*
X160723048Y-83002381D02*
X160151619Y-83002381D01*
X160437333Y-83002381D02*
X160437333Y-82002381D01*
X160342095Y-82145238D01*
X160246857Y-82240476D01*
X160151619Y-82288095D01*
X161294476Y-82430952D02*
X161199238Y-82383333D01*
X161151619Y-82335714D01*
X161104000Y-82240476D01*
X161104000Y-82192857D01*
X161151619Y-82097619D01*
X161199238Y-82050000D01*
X161294476Y-82002381D01*
X161484953Y-82002381D01*
X161580191Y-82050000D01*
X161627810Y-82097619D01*
X161675429Y-82192857D01*
X161675429Y-82240476D01*
X161627810Y-82335714D01*
X161580191Y-82383333D01*
X161484953Y-82430952D01*
X161294476Y-82430952D01*
X161199238Y-82478571D01*
X161151619Y-82526190D01*
X161104000Y-82621429D01*
X161104000Y-82811905D01*
X161151619Y-82907143D01*
X161199238Y-82954762D01*
X161294476Y-83002381D01*
X161484953Y-83002381D01*
X161580191Y-82954762D01*
X161627810Y-82907143D01*
X161675429Y-82811905D01*
X161675429Y-82621429D01*
X161627810Y-82526190D01*
X161580191Y-82478571D01*
X161484953Y-82430952D01*
X159199238Y-102052381D02*
X159199238Y-101052381D01*
X159770667Y-102052381D02*
X159342095Y-101480952D01*
X159770667Y-101052381D02*
X159199238Y-101623810D01*
X160723048Y-102052381D02*
X160151619Y-102052381D01*
X160437333Y-102052381D02*
X160437333Y-101052381D01*
X160342095Y-101195238D01*
X160246857Y-101290476D01*
X160151619Y-101338095D01*
X161199238Y-102052381D02*
X161389714Y-102052381D01*
X161484953Y-102004762D01*
X161532572Y-101957143D01*
X161627810Y-101814286D01*
X161675429Y-101623810D01*
X161675429Y-101242857D01*
X161627810Y-101147619D01*
X161580191Y-101100000D01*
X161484953Y-101052381D01*
X161294476Y-101052381D01*
X161199238Y-101100000D01*
X161151619Y-101147619D01*
X161104000Y-101242857D01*
X161104000Y-101480952D01*
X161151619Y-101576190D01*
X161199238Y-101623810D01*
X161294476Y-101671429D01*
X161484953Y-101671429D01*
X161580191Y-101623810D01*
X161627810Y-101576190D01*
X161675429Y-101480952D01*
X165095607Y-122789650D02*
X165269255Y-121804842D01*
X165658354Y-122888877D02*
X165335521Y-122251709D01*
X165832002Y-121904070D02*
X165170027Y-122367590D01*
X166190629Y-122064012D02*
X166245794Y-122025386D01*
X166347854Y-121995028D01*
X166582332Y-122036373D01*
X166667855Y-122099806D01*
X166706481Y-122154971D01*
X166736839Y-122257031D01*
X166720301Y-122350822D01*
X166648599Y-122483240D01*
X165986623Y-122946760D01*
X166596266Y-123054257D01*
X167379557Y-122176945D02*
X167473349Y-122193483D01*
X167558871Y-122256917D01*
X167597498Y-122312081D01*
X167627855Y-122414141D01*
X167641675Y-122609993D01*
X167600330Y-122844471D01*
X167520359Y-123023785D01*
X167456925Y-123109307D01*
X167401761Y-123147933D01*
X167299701Y-123178291D01*
X167205909Y-123161753D01*
X167120387Y-123098320D01*
X167081760Y-123043155D01*
X167051402Y-122941095D01*
X167037583Y-122745244D01*
X167078928Y-122510765D01*
X167158899Y-122331452D01*
X167222332Y-122245929D01*
X167277497Y-122207303D01*
X167379557Y-122176945D01*
X178490714Y-66492381D02*
X178490714Y-65492381D01*
X179062143Y-66492381D02*
X178633571Y-65920952D01*
X179062143Y-65492381D02*
X178490714Y-66063810D01*
X179443095Y-65587619D02*
X179490714Y-65540000D01*
X179585952Y-65492381D01*
X179824048Y-65492381D01*
X179919286Y-65540000D01*
X179966905Y-65587619D01*
X180014524Y-65682857D01*
X180014524Y-65778095D01*
X179966905Y-65920952D01*
X179395476Y-66492381D01*
X180014524Y-66492381D01*
X180966905Y-66492381D02*
X180395476Y-66492381D01*
X180681190Y-66492381D02*
X180681190Y-65492381D01*
X180585952Y-65635238D01*
X180490714Y-65730476D01*
X180395476Y-65778095D01*
X178310936Y-85542381D02*
X178310936Y-84542381D01*
X178882365Y-85542381D02*
X178453793Y-84970952D01*
X178882365Y-84542381D02*
X178310936Y-85113810D01*
X179263317Y-84637619D02*
X179310936Y-84590000D01*
X179406174Y-84542381D01*
X179644270Y-84542381D01*
X179739508Y-84590000D01*
X179787127Y-84637619D01*
X179834746Y-84732857D01*
X179834746Y-84828095D01*
X179787127Y-84970952D01*
X179215698Y-85542381D01*
X179834746Y-85542381D01*
X180215698Y-84637619D02*
X180263317Y-84590000D01*
X180358555Y-84542381D01*
X180596651Y-84542381D01*
X180691889Y-84590000D01*
X180739508Y-84637619D01*
X180787127Y-84732857D01*
X180787127Y-84828095D01*
X180739508Y-84970952D01*
X180168079Y-85542381D01*
X180787127Y-85542381D01*
X178251398Y-104592381D02*
X178251398Y-103592381D01*
X178822827Y-104592381D02*
X178394255Y-104020952D01*
X178822827Y-103592381D02*
X178251398Y-104163810D01*
X179203779Y-103687619D02*
X179251398Y-103640000D01*
X179346636Y-103592381D01*
X179584732Y-103592381D01*
X179679970Y-103640000D01*
X179727589Y-103687619D01*
X179775208Y-103782857D01*
X179775208Y-103878095D01*
X179727589Y-104020952D01*
X179156160Y-104592381D01*
X179775208Y-104592381D01*
X180108541Y-103592381D02*
X180727589Y-103592381D01*
X180394255Y-103973333D01*
X180537113Y-103973333D01*
X180632351Y-104020952D01*
X180679970Y-104068571D01*
X180727589Y-104163810D01*
X180727589Y-104401905D01*
X180679970Y-104497143D01*
X180632351Y-104544762D01*
X180537113Y-104592381D01*
X180251398Y-104592381D01*
X180156160Y-104544762D01*
X180108541Y-104497143D01*
X194094630Y-130182793D02*
X193228605Y-129682793D01*
X194380345Y-129687921D02*
X193671187Y-129773361D01*
X193514320Y-129187921D02*
X193723477Y-129968508D01*
X193787274Y-128905626D02*
X193769844Y-128840577D01*
X193776224Y-128734289D01*
X193895272Y-128528092D01*
X193984130Y-128469423D01*
X194049179Y-128451993D01*
X194155467Y-128458373D01*
X194237946Y-128505992D01*
X194337854Y-128618660D01*
X194547011Y-129399246D01*
X194856535Y-128863135D01*
X194707756Y-127787494D02*
X195285107Y-128120827D01*
X194258794Y-127803215D02*
X194758337Y-128366554D01*
X195067861Y-127830443D01*
X197343692Y-71572381D02*
X197343692Y-70572381D01*
X197915121Y-71572381D02*
X197486549Y-71000952D01*
X197915121Y-70572381D02*
X197343692Y-71143810D01*
X198296073Y-70667619D02*
X198343692Y-70620000D01*
X198438930Y-70572381D01*
X198677026Y-70572381D01*
X198772264Y-70620000D01*
X198819883Y-70667619D01*
X198867502Y-70762857D01*
X198867502Y-70858095D01*
X198819883Y-71000952D01*
X198248454Y-71572381D01*
X198867502Y-71572381D01*
X199724645Y-70572381D02*
X199534168Y-70572381D01*
X199438930Y-70620000D01*
X199391311Y-70667619D01*
X199296073Y-70810476D01*
X199248454Y-71000952D01*
X199248454Y-71381905D01*
X199296073Y-71477143D01*
X199343692Y-71524762D01*
X199438930Y-71572381D01*
X199629407Y-71572381D01*
X199724645Y-71524762D01*
X199772264Y-71477143D01*
X199819883Y-71381905D01*
X199819883Y-71143810D01*
X199772264Y-71048571D01*
X199724645Y-71000952D01*
X199629407Y-70953333D01*
X199438930Y-70953333D01*
X199343692Y-71000952D01*
X199296073Y-71048571D01*
X199248454Y-71143810D01*
X197303558Y-89987381D02*
X197303558Y-88987381D01*
X197874987Y-89987381D02*
X197446415Y-89415952D01*
X197874987Y-88987381D02*
X197303558Y-89558810D01*
X198255939Y-89082619D02*
X198303558Y-89035000D01*
X198398796Y-88987381D01*
X198636892Y-88987381D01*
X198732130Y-89035000D01*
X198779749Y-89082619D01*
X198827368Y-89177857D01*
X198827368Y-89273095D01*
X198779749Y-89415952D01*
X198208320Y-89987381D01*
X198827368Y-89987381D01*
X199160701Y-88987381D02*
X199827368Y-88987381D01*
X199398796Y-89987381D01*
X202984630Y-113672793D02*
X202118605Y-113172793D01*
X203270345Y-113177921D02*
X202561187Y-113263361D01*
X202404320Y-112677921D02*
X202613477Y-113458508D01*
X202677274Y-112395626D02*
X202659844Y-112330577D01*
X202666224Y-112224289D01*
X202785272Y-112018092D01*
X202874130Y-111959423D01*
X202939179Y-111941993D01*
X203045467Y-111948373D01*
X203127946Y-111995992D01*
X203227854Y-112108660D01*
X203437011Y-112889246D01*
X203746535Y-112353135D01*
X203537377Y-111572549D02*
X203448519Y-111631218D01*
X203383470Y-111648648D01*
X203277182Y-111642268D01*
X203235943Y-111618459D01*
X203177274Y-111529600D01*
X203159844Y-111464552D01*
X203166224Y-111358264D01*
X203261463Y-111193306D01*
X203350321Y-111134637D01*
X203415370Y-111117207D01*
X203521658Y-111123587D01*
X203562897Y-111147396D01*
X203621566Y-111236254D01*
X203638996Y-111301303D01*
X203632616Y-111407591D01*
X203537377Y-111572549D01*
X203530998Y-111678837D01*
X203548427Y-111743886D01*
X203607097Y-111832745D01*
X203772054Y-111927983D01*
X203878342Y-111934362D01*
X203943391Y-111916933D01*
X204032249Y-111858264D01*
X204127488Y-111693306D01*
X204133868Y-111587018D01*
X204116438Y-111521969D01*
X204057769Y-111433111D01*
X203892812Y-111337873D01*
X203786523Y-111331492D01*
X203721474Y-111348922D01*
X203632616Y-111407591D01*
D16*
X184699614Y-50871381D02*
X184366280Y-50395190D01*
X184128185Y-50871381D02*
X184128185Y-49871381D01*
X184509138Y-49871381D01*
X184604376Y-49919000D01*
X184651995Y-49966619D01*
X184699614Y-50061857D01*
X184699614Y-50204714D01*
X184651995Y-50299952D01*
X184604376Y-50347571D01*
X184509138Y-50395190D01*
X184128185Y-50395190D01*
X185651995Y-50871381D02*
X185080566Y-50871381D01*
X185366280Y-50871381D02*
X185366280Y-49871381D01*
X185271042Y-50014238D01*
X185175804Y-50109476D01*
X185080566Y-50157095D01*
X174491354Y-51379381D02*
X174158020Y-50903190D01*
X173919925Y-51379381D02*
X173919925Y-50379381D01*
X174300878Y-50379381D01*
X174396116Y-50427000D01*
X174443735Y-50474619D01*
X174491354Y-50569857D01*
X174491354Y-50712714D01*
X174443735Y-50807952D01*
X174396116Y-50855571D01*
X174300878Y-50903190D01*
X173919925Y-50903190D01*
X174872306Y-50474619D02*
X174919925Y-50427000D01*
X175015163Y-50379381D01*
X175253259Y-50379381D01*
X175348497Y-50427000D01*
X175396116Y-50474619D01*
X175443735Y-50569857D01*
X175443735Y-50665095D01*
X175396116Y-50807952D01*
X174824687Y-51379381D01*
X175443735Y-51379381D01*
D17*
X137631714Y-62804524D02*
X137631714Y-61534524D01*
X138212286Y-61534524D01*
X138357428Y-61595000D01*
X138430000Y-61655476D01*
X138502571Y-61776429D01*
X138502571Y-61957857D01*
X138430000Y-62078810D01*
X138357428Y-62139286D01*
X138212286Y-62199762D01*
X137631714Y-62199762D01*
X139155714Y-62804524D02*
X139155714Y-61957857D01*
X139155714Y-62199762D02*
X139228286Y-62078810D01*
X139300857Y-62018333D01*
X139446000Y-61957857D01*
X139591143Y-61957857D01*
X140316857Y-62804524D02*
X140171715Y-62744048D01*
X140099143Y-62683571D01*
X140026572Y-62562619D01*
X140026572Y-62199762D01*
X140099143Y-62078810D01*
X140171715Y-62018333D01*
X140316857Y-61957857D01*
X140534572Y-61957857D01*
X140679715Y-62018333D01*
X140752286Y-62078810D01*
X140824857Y-62199762D01*
X140824857Y-62562619D01*
X140752286Y-62683571D01*
X140679715Y-62744048D01*
X140534572Y-62804524D01*
X140316857Y-62804524D01*
X141478000Y-62804524D02*
X141478000Y-61534524D01*
X141986000Y-62441667D01*
X142494000Y-61534524D01*
X142494000Y-62804524D01*
X143219714Y-62804524D02*
X143219714Y-61957857D01*
X143219714Y-61534524D02*
X143147143Y-61595000D01*
X143219714Y-61655476D01*
X143292286Y-61595000D01*
X143219714Y-61534524D01*
X143219714Y-61655476D01*
X144598571Y-62744048D02*
X144453428Y-62804524D01*
X144163142Y-62804524D01*
X144018000Y-62744048D01*
X143945428Y-62683571D01*
X143872857Y-62562619D01*
X143872857Y-62199762D01*
X143945428Y-62078810D01*
X144018000Y-62018333D01*
X144163142Y-61957857D01*
X144453428Y-61957857D01*
X144598571Y-62018333D01*
X145251714Y-62804524D02*
X145251714Y-61957857D01*
X145251714Y-62199762D02*
X145324286Y-62078810D01*
X145396857Y-62018333D01*
X145542000Y-61957857D01*
X145687143Y-61957857D01*
X146412857Y-62804524D02*
X146267715Y-62744048D01*
X146195143Y-62683571D01*
X146122572Y-62562619D01*
X146122572Y-62199762D01*
X146195143Y-62078810D01*
X146267715Y-62018333D01*
X146412857Y-61957857D01*
X146630572Y-61957857D01*
X146775715Y-62018333D01*
X146848286Y-62078810D01*
X146920857Y-62199762D01*
X146920857Y-62562619D01*
X146848286Y-62683571D01*
X146775715Y-62744048D01*
X146630572Y-62804524D01*
X146412857Y-62804524D01*
D10*
X147452705Y-76494870D02*
X147552705Y-76528203D01*
X147586038Y-76561537D01*
X147619372Y-76628203D01*
X147619372Y-76728203D01*
X147586038Y-76794870D01*
X147552705Y-76828203D01*
X147486038Y-76861537D01*
X147219372Y-76861537D01*
X147219372Y-76161537D01*
X147452705Y-76161537D01*
X147519372Y-76194870D01*
X147552705Y-76228203D01*
X147586038Y-76294870D01*
X147586038Y-76361537D01*
X147552705Y-76428203D01*
X147519372Y-76461537D01*
X147452705Y-76494870D01*
X147219372Y-76494870D01*
X148252705Y-76161537D02*
X147919372Y-76161537D01*
X147886038Y-76494870D01*
X147919372Y-76461537D01*
X147986038Y-76428203D01*
X148152705Y-76428203D01*
X148219372Y-76461537D01*
X148252705Y-76494870D01*
X148286038Y-76561537D01*
X148286038Y-76728203D01*
X148252705Y-76794870D01*
X148219372Y-76828203D01*
X148152705Y-76861537D01*
X147986038Y-76861537D01*
X147919372Y-76828203D01*
X147886038Y-76794870D01*
X147452705Y-73954870D02*
X147552705Y-73988203D01*
X147586038Y-74021537D01*
X147619372Y-74088203D01*
X147619372Y-74188203D01*
X147586038Y-74254870D01*
X147552705Y-74288203D01*
X147486038Y-74321537D01*
X147219372Y-74321537D01*
X147219372Y-73621537D01*
X147452705Y-73621537D01*
X147519372Y-73654870D01*
X147552705Y-73688203D01*
X147586038Y-73754870D01*
X147586038Y-73821537D01*
X147552705Y-73888203D01*
X147519372Y-73921537D01*
X147452705Y-73954870D01*
X147219372Y-73954870D01*
X148219372Y-73854870D02*
X148219372Y-74321537D01*
X148052705Y-73588203D02*
X147886038Y-74088203D01*
X148319372Y-74088203D01*
X147252705Y-71414870D02*
X147486038Y-71414870D01*
X147586038Y-71781537D02*
X147252705Y-71781537D01*
X147252705Y-71081537D01*
X147586038Y-71081537D01*
X148186038Y-71081537D02*
X148052704Y-71081537D01*
X147986038Y-71114870D01*
X147952704Y-71148203D01*
X147886038Y-71248203D01*
X147852704Y-71381537D01*
X147852704Y-71648203D01*
X147886038Y-71714870D01*
X147919371Y-71748203D01*
X147986038Y-71781537D01*
X148119371Y-71781537D01*
X148186038Y-71748203D01*
X148219371Y-71714870D01*
X148252704Y-71648203D01*
X148252704Y-71481537D01*
X148219371Y-71414870D01*
X148186038Y-71381537D01*
X148119371Y-71348203D01*
X147986038Y-71348203D01*
X147919371Y-71381537D01*
X147886038Y-71414870D01*
X147852704Y-71481537D01*
X147219372Y-69241537D02*
X147219372Y-68541537D01*
X147386038Y-68541537D01*
X147486038Y-68574870D01*
X147552705Y-68641537D01*
X147586038Y-68708203D01*
X147619372Y-68841537D01*
X147619372Y-68941537D01*
X147586038Y-69074870D01*
X147552705Y-69141537D01*
X147486038Y-69208203D01*
X147386038Y-69241537D01*
X147219372Y-69241537D01*
X147852705Y-68541537D02*
X148319372Y-68541537D01*
X148019372Y-69241537D01*
X147619372Y-66634870D02*
X147586038Y-66668203D01*
X147486038Y-66701537D01*
X147419372Y-66701537D01*
X147319372Y-66668203D01*
X147252705Y-66601537D01*
X147219372Y-66534870D01*
X147186038Y-66401537D01*
X147186038Y-66301537D01*
X147219372Y-66168203D01*
X147252705Y-66101537D01*
X147319372Y-66034870D01*
X147419372Y-66001537D01*
X147486038Y-66001537D01*
X147586038Y-66034870D01*
X147619372Y-66068203D01*
X148219372Y-66001537D02*
X148086038Y-66001537D01*
X148019372Y-66034870D01*
X147986038Y-66068203D01*
X147919372Y-66168203D01*
X147886038Y-66301537D01*
X147886038Y-66568203D01*
X147919372Y-66634870D01*
X147952705Y-66668203D01*
X148019372Y-66701537D01*
X148152705Y-66701537D01*
X148219372Y-66668203D01*
X148252705Y-66634870D01*
X148286038Y-66568203D01*
X148286038Y-66401537D01*
X148252705Y-66334870D01*
X148219372Y-66301537D01*
X148152705Y-66268203D01*
X148019372Y-66268203D01*
X147952705Y-66301537D01*
X147919372Y-66334870D01*
X147886038Y-66401537D01*
X147219372Y-64161537D02*
X147219372Y-63461537D01*
X147386038Y-63461537D01*
X147486038Y-63494870D01*
X147552705Y-63561537D01*
X147586038Y-63628203D01*
X147619372Y-63761537D01*
X147619372Y-63861537D01*
X147586038Y-63994870D01*
X147552705Y-64061537D01*
X147486038Y-64128203D01*
X147386038Y-64161537D01*
X147219372Y-64161537D01*
X148219372Y-63694870D02*
X148219372Y-64161537D01*
X148052705Y-63428203D02*
X147886038Y-63928203D01*
X148319372Y-63928203D01*
X147219372Y-61621537D02*
X147219372Y-60921537D01*
X147386038Y-60921537D01*
X147486038Y-60954870D01*
X147552705Y-61021537D01*
X147586038Y-61088203D01*
X147619372Y-61221537D01*
X147619372Y-61321537D01*
X147586038Y-61454870D01*
X147552705Y-61521537D01*
X147486038Y-61588203D01*
X147386038Y-61621537D01*
X147219372Y-61621537D01*
X148052705Y-60921537D02*
X148119372Y-60921537D01*
X148186038Y-60954870D01*
X148219372Y-60988203D01*
X148252705Y-61054870D01*
X148286038Y-61188203D01*
X148286038Y-61354870D01*
X148252705Y-61488203D01*
X148219372Y-61554870D01*
X148186038Y-61588203D01*
X148119372Y-61621537D01*
X148052705Y-61621537D01*
X147986038Y-61588203D01*
X147952705Y-61554870D01*
X147919372Y-61488203D01*
X147886038Y-61354870D01*
X147886038Y-61188203D01*
X147919372Y-61054870D01*
X147952705Y-60988203D01*
X147986038Y-60954870D01*
X148052705Y-60921537D01*
X147219372Y-59081537D02*
X147219372Y-58381537D01*
X147386038Y-58381537D01*
X147486038Y-58414870D01*
X147552705Y-58481537D01*
X147586038Y-58548203D01*
X147619372Y-58681537D01*
X147619372Y-58781537D01*
X147586038Y-58914870D01*
X147552705Y-58981537D01*
X147486038Y-59048203D01*
X147386038Y-59081537D01*
X147219372Y-59081537D01*
X148286038Y-59081537D02*
X147886038Y-59081537D01*
X148086038Y-59081537D02*
X148086038Y-58381537D01*
X148019372Y-58481537D01*
X147952705Y-58548203D01*
X147886038Y-58581537D01*
X146694705Y-55874870D02*
X146628039Y-55841537D01*
X146528039Y-55841537D01*
X146428039Y-55874870D01*
X146361372Y-55941537D01*
X146328039Y-56008203D01*
X146294705Y-56141537D01*
X146294705Y-56241537D01*
X146328039Y-56374870D01*
X146361372Y-56441537D01*
X146428039Y-56508203D01*
X146528039Y-56541537D01*
X146594705Y-56541537D01*
X146694705Y-56508203D01*
X146728039Y-56474870D01*
X146728039Y-56241537D01*
X146594705Y-56241537D01*
X147028039Y-56541537D02*
X147028039Y-55841537D01*
X147428039Y-56541537D01*
X147428039Y-55841537D01*
X147761372Y-56541537D02*
X147761372Y-55841537D01*
X147928038Y-55841537D01*
X148028038Y-55874870D01*
X148094705Y-55941537D01*
X148128038Y-56008203D01*
X148161372Y-56141537D01*
X148161372Y-56241537D01*
X148128038Y-56374870D01*
X148094705Y-56441537D01*
X148028038Y-56508203D01*
X147928038Y-56541537D01*
X147761372Y-56541537D01*
X146694705Y-53334870D02*
X146628039Y-53301537D01*
X146528039Y-53301537D01*
X146428039Y-53334870D01*
X146361372Y-53401537D01*
X146328039Y-53468203D01*
X146294705Y-53601537D01*
X146294705Y-53701537D01*
X146328039Y-53834870D01*
X146361372Y-53901537D01*
X146428039Y-53968203D01*
X146528039Y-54001537D01*
X146594705Y-54001537D01*
X146694705Y-53968203D01*
X146728039Y-53934870D01*
X146728039Y-53701537D01*
X146594705Y-53701537D01*
X147028039Y-54001537D02*
X147028039Y-53301537D01*
X147428039Y-54001537D01*
X147428039Y-53301537D01*
X147761372Y-54001537D02*
X147761372Y-53301537D01*
X147928038Y-53301537D01*
X148028038Y-53334870D01*
X148094705Y-53401537D01*
X148128038Y-53468203D01*
X148161372Y-53601537D01*
X148161372Y-53701537D01*
X148128038Y-53834870D01*
X148094705Y-53901537D01*
X148028038Y-53968203D01*
X147928038Y-54001537D01*
X147761372Y-54001537D01*
X147219372Y-51461537D02*
X147219372Y-50761537D01*
X147386038Y-50761537D01*
X147486038Y-50794870D01*
X147552705Y-50861537D01*
X147586038Y-50928203D01*
X147619372Y-51061537D01*
X147619372Y-51161537D01*
X147586038Y-51294870D01*
X147552705Y-51361537D01*
X147486038Y-51428203D01*
X147386038Y-51461537D01*
X147219372Y-51461537D01*
X147886038Y-50828203D02*
X147919372Y-50794870D01*
X147986038Y-50761537D01*
X148152705Y-50761537D01*
X148219372Y-50794870D01*
X148252705Y-50828203D01*
X148286038Y-50894870D01*
X148286038Y-50961537D01*
X148252705Y-51061537D01*
X147852705Y-51461537D01*
X148286038Y-51461537D01*
X147219372Y-48921537D02*
X147219372Y-48221537D01*
X147386038Y-48221537D01*
X147486038Y-48254870D01*
X147552705Y-48321537D01*
X147586038Y-48388203D01*
X147619372Y-48521537D01*
X147619372Y-48621537D01*
X147586038Y-48754870D01*
X147552705Y-48821537D01*
X147486038Y-48888203D01*
X147386038Y-48921537D01*
X147219372Y-48921537D01*
X147852705Y-48221537D02*
X148286038Y-48221537D01*
X148052705Y-48488203D01*
X148152705Y-48488203D01*
X148219372Y-48521537D01*
X148252705Y-48554870D01*
X148286038Y-48621537D01*
X148286038Y-48788203D01*
X148252705Y-48854870D01*
X148219372Y-48888203D01*
X148152705Y-48921537D01*
X147952705Y-48921537D01*
X147886038Y-48888203D01*
X147852705Y-48854870D01*
X135260705Y-76494870D02*
X135360705Y-76528203D01*
X135394038Y-76561537D01*
X135427372Y-76628203D01*
X135427372Y-76728203D01*
X135394038Y-76794870D01*
X135360705Y-76828203D01*
X135294038Y-76861537D01*
X135027372Y-76861537D01*
X135027372Y-76161537D01*
X135260705Y-76161537D01*
X135327372Y-76194870D01*
X135360705Y-76228203D01*
X135394038Y-76294870D01*
X135394038Y-76361537D01*
X135360705Y-76428203D01*
X135327372Y-76461537D01*
X135260705Y-76494870D01*
X135027372Y-76494870D01*
X136027372Y-76161537D02*
X135894038Y-76161537D01*
X135827372Y-76194870D01*
X135794038Y-76228203D01*
X135727372Y-76328203D01*
X135694038Y-76461537D01*
X135694038Y-76728203D01*
X135727372Y-76794870D01*
X135760705Y-76828203D01*
X135827372Y-76861537D01*
X135960705Y-76861537D01*
X136027372Y-76828203D01*
X136060705Y-76794870D01*
X136094038Y-76728203D01*
X136094038Y-76561537D01*
X136060705Y-76494870D01*
X136027372Y-76461537D01*
X135960705Y-76428203D01*
X135827372Y-76428203D01*
X135760705Y-76461537D01*
X135727372Y-76494870D01*
X135694038Y-76561537D01*
X135260705Y-73954870D02*
X135360705Y-73988203D01*
X135394038Y-74021537D01*
X135427372Y-74088203D01*
X135427372Y-74188203D01*
X135394038Y-74254870D01*
X135360705Y-74288203D01*
X135294038Y-74321537D01*
X135027372Y-74321537D01*
X135027372Y-73621537D01*
X135260705Y-73621537D01*
X135327372Y-73654870D01*
X135360705Y-73688203D01*
X135394038Y-73754870D01*
X135394038Y-73821537D01*
X135360705Y-73888203D01*
X135327372Y-73921537D01*
X135260705Y-73954870D01*
X135027372Y-73954870D01*
X135694038Y-73688203D02*
X135727372Y-73654870D01*
X135794038Y-73621537D01*
X135960705Y-73621537D01*
X136027372Y-73654870D01*
X136060705Y-73688203D01*
X136094038Y-73754870D01*
X136094038Y-73821537D01*
X136060705Y-73921537D01*
X135660705Y-74321537D01*
X136094038Y-74321537D01*
X135260705Y-71414870D02*
X135360705Y-71448203D01*
X135394038Y-71481537D01*
X135427372Y-71548203D01*
X135427372Y-71648203D01*
X135394038Y-71714870D01*
X135360705Y-71748203D01*
X135294038Y-71781537D01*
X135027372Y-71781537D01*
X135027372Y-71081537D01*
X135260705Y-71081537D01*
X135327372Y-71114870D01*
X135360705Y-71148203D01*
X135394038Y-71214870D01*
X135394038Y-71281537D01*
X135360705Y-71348203D01*
X135327372Y-71381537D01*
X135260705Y-71414870D01*
X135027372Y-71414870D01*
X135660705Y-71081537D02*
X136094038Y-71081537D01*
X135860705Y-71348203D01*
X135960705Y-71348203D01*
X136027372Y-71381537D01*
X136060705Y-71414870D01*
X136094038Y-71481537D01*
X136094038Y-71648203D01*
X136060705Y-71714870D01*
X136027372Y-71748203D01*
X135960705Y-71781537D01*
X135760705Y-71781537D01*
X135694038Y-71748203D01*
X135660705Y-71714870D01*
X135260705Y-68874870D02*
X135360705Y-68908203D01*
X135394038Y-68941537D01*
X135427372Y-69008203D01*
X135427372Y-69108203D01*
X135394038Y-69174870D01*
X135360705Y-69208203D01*
X135294038Y-69241537D01*
X135027372Y-69241537D01*
X135027372Y-68541537D01*
X135260705Y-68541537D01*
X135327372Y-68574870D01*
X135360705Y-68608203D01*
X135394038Y-68674870D01*
X135394038Y-68741537D01*
X135360705Y-68808203D01*
X135327372Y-68841537D01*
X135260705Y-68874870D01*
X135027372Y-68874870D01*
X136094038Y-69241537D02*
X135694038Y-69241537D01*
X135894038Y-69241537D02*
X135894038Y-68541537D01*
X135827372Y-68641537D01*
X135760705Y-68708203D01*
X135694038Y-68741537D01*
X135310705Y-63794870D02*
X135077372Y-63794870D01*
X135077372Y-64161537D02*
X135077372Y-63461537D01*
X135410705Y-63461537D01*
X135977372Y-63461537D02*
X135844038Y-63461537D01*
X135777372Y-63494870D01*
X135744038Y-63528203D01*
X135677372Y-63628203D01*
X135644038Y-63761537D01*
X135644038Y-64028203D01*
X135677372Y-64094870D01*
X135710705Y-64128203D01*
X135777372Y-64161537D01*
X135910705Y-64161537D01*
X135977372Y-64128203D01*
X136010705Y-64094870D01*
X136044038Y-64028203D01*
X136044038Y-63861537D01*
X136010705Y-63794870D01*
X135977372Y-63761537D01*
X135910705Y-63728203D01*
X135777372Y-63728203D01*
X135710705Y-63761537D01*
X135677372Y-63794870D01*
X135644038Y-63861537D01*
X135310705Y-66334870D02*
X135077372Y-66334870D01*
X135077372Y-66701537D02*
X135077372Y-66001537D01*
X135410705Y-66001537D01*
X135610705Y-66001537D02*
X136077372Y-66001537D01*
X135777372Y-66701537D01*
X135310705Y-61254870D02*
X135077372Y-61254870D01*
X135077372Y-61621537D02*
X135077372Y-60921537D01*
X135410705Y-60921537D01*
X136010705Y-60921537D02*
X135677372Y-60921537D01*
X135644038Y-61254870D01*
X135677372Y-61221537D01*
X135744038Y-61188203D01*
X135910705Y-61188203D01*
X135977372Y-61221537D01*
X136010705Y-61254870D01*
X136044038Y-61321537D01*
X136044038Y-61488203D01*
X136010705Y-61554870D01*
X135977372Y-61588203D01*
X135910705Y-61621537D01*
X135744038Y-61621537D01*
X135677372Y-61588203D01*
X135644038Y-61554870D01*
X135310705Y-58714870D02*
X135077372Y-58714870D01*
X135077372Y-59081537D02*
X135077372Y-58381537D01*
X135410705Y-58381537D01*
X135977372Y-58614870D02*
X135977372Y-59081537D01*
X135810705Y-58348203D02*
X135644038Y-58848203D01*
X136077372Y-58848203D01*
X135118705Y-55841537D02*
X135352038Y-56541537D01*
X135585371Y-55841537D01*
X136218705Y-56474870D02*
X136185371Y-56508203D01*
X136085371Y-56541537D01*
X136018705Y-56541537D01*
X135918705Y-56508203D01*
X135852038Y-56441537D01*
X135818705Y-56374870D01*
X135785371Y-56241537D01*
X135785371Y-56141537D01*
X135818705Y-56008203D01*
X135852038Y-55941537D01*
X135918705Y-55874870D01*
X136018705Y-55841537D01*
X136085371Y-55841537D01*
X136185371Y-55874870D01*
X136218705Y-55908203D01*
X136918705Y-56474870D02*
X136885371Y-56508203D01*
X136785371Y-56541537D01*
X136718705Y-56541537D01*
X136618705Y-56508203D01*
X136552038Y-56441537D01*
X136518705Y-56374870D01*
X136485371Y-56241537D01*
X136485371Y-56141537D01*
X136518705Y-56008203D01*
X136552038Y-55941537D01*
X136618705Y-55874870D01*
X136718705Y-55841537D01*
X136785371Y-55841537D01*
X136885371Y-55874870D01*
X136918705Y-55908203D01*
X135668705Y-54001537D02*
X135435371Y-53668203D01*
X135268705Y-54001537D02*
X135268705Y-53301537D01*
X135535371Y-53301537D01*
X135602038Y-53334870D01*
X135635371Y-53368203D01*
X135668705Y-53434870D01*
X135668705Y-53534870D01*
X135635371Y-53601537D01*
X135602038Y-53634870D01*
X135535371Y-53668203D01*
X135268705Y-53668203D01*
X135935371Y-53968203D02*
X136035371Y-54001537D01*
X136202038Y-54001537D01*
X136268705Y-53968203D01*
X136302038Y-53934870D01*
X136335371Y-53868203D01*
X136335371Y-53801537D01*
X136302038Y-53734870D01*
X136268705Y-53701537D01*
X136202038Y-53668203D01*
X136068705Y-53634870D01*
X136002038Y-53601537D01*
X135968705Y-53568203D01*
X135935371Y-53501537D01*
X135935371Y-53434870D01*
X135968705Y-53368203D01*
X136002038Y-53334870D01*
X136068705Y-53301537D01*
X136235371Y-53301537D01*
X136335371Y-53334870D01*
X136535372Y-53301537D02*
X136935372Y-53301537D01*
X136735372Y-54001537D02*
X136735372Y-53301537D01*
X135518705Y-50794870D02*
X135452039Y-50761537D01*
X135352039Y-50761537D01*
X135252039Y-50794870D01*
X135185372Y-50861537D01*
X135152039Y-50928203D01*
X135118705Y-51061537D01*
X135118705Y-51161537D01*
X135152039Y-51294870D01*
X135185372Y-51361537D01*
X135252039Y-51428203D01*
X135352039Y-51461537D01*
X135418705Y-51461537D01*
X135518705Y-51428203D01*
X135552039Y-51394870D01*
X135552039Y-51161537D01*
X135418705Y-51161537D01*
X135852039Y-51461537D02*
X135852039Y-50761537D01*
X136252039Y-51461537D01*
X136252039Y-50761537D01*
X136585372Y-51461537D02*
X136585372Y-50761537D01*
X136752038Y-50761537D01*
X136852038Y-50794870D01*
X136918705Y-50861537D01*
X136952038Y-50928203D01*
X136985372Y-51061537D01*
X136985372Y-51161537D01*
X136952038Y-51294870D01*
X136918705Y-51361537D01*
X136852038Y-51428203D01*
X136752038Y-51461537D01*
X136585372Y-51461537D01*
X136076705Y-49175537D02*
X135843371Y-48842203D01*
X135676705Y-49175537D02*
X135676705Y-48475537D01*
X135943371Y-48475537D01*
X136010038Y-48508870D01*
X136043371Y-48542203D01*
X136076705Y-48608870D01*
X136076705Y-48708870D01*
X136043371Y-48775537D01*
X136010038Y-48808870D01*
X135943371Y-48842203D01*
X135676705Y-48842203D01*
X136343371Y-48975537D02*
X136676705Y-48975537D01*
X136276705Y-49175537D02*
X136510038Y-48475537D01*
X136743371Y-49175537D01*
X136910038Y-48475537D02*
X137076705Y-49175537D01*
X137210038Y-48675537D01*
X137343371Y-49175537D01*
X137510038Y-48475537D01*
D13*
X190919630Y-116847793D02*
X190053605Y-116347793D01*
X191205345Y-116352921D02*
X190496187Y-116438361D01*
X190339320Y-115852921D02*
X190548477Y-116633508D01*
X190612274Y-115570626D02*
X190594844Y-115505577D01*
X190601224Y-115399289D01*
X190720272Y-115193092D01*
X190809130Y-115134423D01*
X190874179Y-115116993D01*
X190980467Y-115123373D01*
X191062946Y-115170992D01*
X191162854Y-115283660D01*
X191372011Y-116064246D01*
X191681535Y-115528135D01*
X191267891Y-114244588D02*
X191029796Y-114656981D01*
X191418379Y-114936316D01*
X191400949Y-114871267D01*
X191407329Y-114764979D01*
X191526377Y-114558782D01*
X191615235Y-114500113D01*
X191680284Y-114482683D01*
X191786573Y-114489063D01*
X191992769Y-114608111D01*
X192051438Y-114696969D01*
X192068868Y-114762018D01*
X192062488Y-114868306D01*
X191943440Y-115074503D01*
X191854582Y-115133172D01*
X191789533Y-115150602D01*
M02*
