M48
;DRILL file {KiCad 4.0.7} date 08/17/18 08:34:56
;FORMAT={-:-/ absolute / inch / decimal}
FMAT,2
INCH,TZ
T1C0.035
T2C0.059
T3C0.067
T4C0.087
T5C0.120
T6C0.157
%
G90
G05
M72
T1
X4.7374Y-1.8983
X4.7374Y-1.8983
X4.8555Y-1.8983
X4.8555Y-1.8983
T2
X7.8061Y-2.0669
X7.8061Y-2.0669
X8.0817Y-2.0669
X8.0817Y-2.0669
T3
X3.1238Y-3.2699
X3.1238Y-4.02
X3.1238Y-4.7677
X3.1246Y-2.5175
X3.5238Y-3.2699
X3.5238Y-4.02
X3.5238Y-4.7677
X3.5246Y-2.5175
X3.8739Y-4.6763
X3.8762Y-2.4261
X3.8762Y-3.1785
X3.8762Y-3.9239
X4.2739Y-4.6763
X4.2762Y-2.4261
X4.2762Y-3.1785
X4.2762Y-3.9239
X4.6216Y-3.8301
X4.624Y-2.3276
X4.624Y-3.0824
X4.6256Y-4.5826
X5.0216Y-3.8301
X5.024Y-2.3276
X5.024Y-3.0824
X5.0256Y-4.5826
X5.3741Y-4.4888
X5.3757Y-2.9863
X5.3764Y-3.7387
X5.3772Y-2.2362
X5.7741Y-4.4888
X5.7757Y-2.9863
X5.7764Y-3.7387
X5.7772Y-2.2362
X6.1242Y-2.33
X6.1242Y-3.0824
X6.1242Y-3.8301
X6.3874Y-4.6275
X6.5242Y-2.33
X6.5242Y-3.0824
X6.5242Y-3.8301
X6.7813Y-4.697
X6.8742Y-2.4237
X6.8742Y-3.9239
X6.8766Y-3.1761
X7.2742Y-2.4237
X7.2742Y-3.9239
X7.2766Y-3.1761
X7.3962Y-5.1425
X7.5845Y-4.8141
X7.5845Y-4.8141
X7.5962Y-4.7961
X7.6243Y-3.3613
X7.6259Y-2.61
X7.7728Y-4.4911
X7.7845Y-4.4677
X7.7845Y-4.4677
X7.9728Y-4.1447
X8.0243Y-3.3613
X8.0259Y-2.61
T4
X3.6992Y-2.8406
X3.6992Y-4.3445
X5.0591Y-2.7067
X5.0591Y-4.2067
X6.0988Y-2.7067
X6.0988Y-4.2067
X7.275Y-4.3
X7.4508Y-2.8406
T5
X7.6876Y-5.1854
X7.6876Y-5.1854
X8.1576Y-4.3714
X8.1576Y-4.3714
T6
X3.3238Y-3.2699
X3.3238Y-4.02
X3.3238Y-4.7677
X3.3246Y-2.5175
X4.0739Y-4.6763
X4.0762Y-2.4261
X4.0762Y-3.1785
X4.0762Y-3.9239
X4.8216Y-3.8301
X4.824Y-2.3276
X4.824Y-3.0824
X4.8256Y-4.5826
X5.5741Y-4.4888
X5.5757Y-2.9863
X5.5764Y-3.7387
X5.5772Y-2.2362
X6.3242Y-2.33
X6.3242Y-3.0824
X6.3242Y-3.8301
X6.5843Y-4.6622
X7.0742Y-2.4237
X7.0742Y-3.9239
X7.0766Y-3.1761
X7.168Y-4.8854
X7.168Y-4.8854
X7.4962Y-4.9693
X7.638Y-4.0714
X7.638Y-4.0714
X7.6845Y-4.6409
X7.6845Y-4.6409
X7.8243Y-3.3613
X7.8259Y-2.61
X7.8728Y-4.3179
T0
M30
