%TF.GenerationSoftware,KiCad,Pcbnew,(5.1.10)-1*%
%TF.CreationDate,2021-10-25T17:00:00-06:00*%
%TF.ProjectId,ErgoTravel,4572676f-5472-4617-9665-6c2e6b696361,rev?*%
%TF.SameCoordinates,Original*%
%TF.FileFunction,Soldermask,Bot*%
%TF.FilePolarity,Negative*%
%FSLAX46Y46*%
G04 Gerber Fmt 4.6, Leading zero omitted, Abs format (unit mm)*
G04 Created by KiCad (PCBNEW (5.1.10)-1) date 2021-10-25 17:00:00*
%MOMM*%
%LPD*%
G01*
G04 APERTURE LIST*
%ADD10C,2.101800*%
%ADD11C,2.686000*%
%ADD12C,4.387800*%
%ADD13C,3.448000*%
%ADD14C,2.000000*%
%ADD15C,1.900000*%
%ADD16C,2.152600*%
%ADD17O,2.000000X2.000000*%
%ADD18C,2.600000*%
%ADD19O,2.100000X2.100000*%
%ADD20C,1.400000*%
G04 APERTURE END LIST*
D10*
%TO.C,K25*%
X197725698Y-113479428D03*
X192645698Y-122278246D03*
D11*
X199290403Y-115849280D03*
D12*
X195185698Y-117878837D03*
D11*
X198315107Y-122618542D03*
X200855107Y-118219132D03*
X195480403Y-122448394D03*
%TD*%
D13*
%TO.C,H1*%
X207184885Y-111065635D03*
X195284885Y-131677039D03*
D12*
X193986658Y-103445635D03*
X182086658Y-124057039D03*
%TD*%
D10*
%TO.C,K28*%
X197428008Y-114074808D03*
X202508008Y-105275990D03*
D11*
X195863303Y-111704956D03*
D12*
X199968008Y-109675399D03*
D11*
X196838599Y-104935694D03*
X194298599Y-109335104D03*
X199673303Y-105105842D03*
%TD*%
D10*
%TO.C,K27*%
X193657844Y-85377492D03*
X203817844Y-85377492D03*
D11*
X194927844Y-82837492D03*
D12*
X198737844Y-85377492D03*
D11*
X201277844Y-80297492D03*
X196197844Y-80297492D03*
X202547844Y-82837492D03*
%TD*%
D10*
%TO.C,K26*%
X193697978Y-66292754D03*
X203857978Y-66292754D03*
D11*
X194967978Y-63752754D03*
D12*
X198777978Y-66292754D03*
D11*
X201317978Y-61212754D03*
X196237978Y-61212754D03*
X202587978Y-63752754D03*
%TD*%
D10*
%TO.C,K24*%
X187862524Y-130619969D03*
X192942524Y-121821151D03*
D11*
X186297819Y-128250117D03*
D12*
X190402524Y-126220560D03*
D11*
X187273115Y-121480855D03*
X184733115Y-125880265D03*
X190107819Y-121651003D03*
%TD*%
D10*
%TO.C,K23*%
X174605684Y-99666612D03*
X184765684Y-99666612D03*
D11*
X175875684Y-97126612D03*
D12*
X179685684Y-99666612D03*
D11*
X182225684Y-94586612D03*
X177145684Y-94586612D03*
X183495684Y-97126612D03*
%TD*%
D10*
%TO.C,K22*%
X174665222Y-80673990D03*
X184825222Y-80673990D03*
D11*
X175935222Y-78133990D03*
D12*
X179745222Y-80673990D03*
D11*
X182285222Y-75593990D03*
X177205222Y-75593990D03*
X183555222Y-78133990D03*
%TD*%
D10*
%TO.C,K21*%
X174605684Y-61562292D03*
X184765684Y-61562292D03*
D11*
X175875684Y-59022292D03*
D12*
X179685684Y-61562292D03*
D11*
X182225684Y-56482292D03*
X177145684Y-56482292D03*
X183495684Y-59022292D03*
%TD*%
D10*
%TO.C,K20*%
X162239419Y-117538949D03*
X172245065Y-119303215D03*
D11*
X163931191Y-115258071D03*
D12*
X167242242Y-118421082D03*
D11*
X170625786Y-113859325D03*
X165622963Y-112977192D03*
X171435426Y-116581270D03*
%TD*%
D10*
%TO.C,K19*%
X155553524Y-97285092D03*
X165713524Y-97285092D03*
D11*
X156823524Y-94745092D03*
D12*
X160633524Y-97285092D03*
D11*
X163173524Y-92205092D03*
X158093524Y-92205092D03*
X164443524Y-94745092D03*
%TD*%
D10*
%TO.C,K18*%
X155553524Y-78292470D03*
X165713524Y-78292470D03*
D11*
X156823524Y-75752470D03*
D12*
X160633524Y-78292470D03*
D11*
X163173524Y-73212470D03*
X158093524Y-73212470D03*
X164443524Y-75752470D03*
%TD*%
D10*
%TO.C,K17*%
X155553524Y-59180772D03*
X165713524Y-59180772D03*
D11*
X156823524Y-56640772D03*
D12*
X160633524Y-59180772D03*
D11*
X163173524Y-54100772D03*
X158093524Y-54100772D03*
X164443524Y-56640772D03*
%TD*%
D10*
%TO.C,K16*%
X136501364Y-114015270D03*
X146661364Y-114015270D03*
D11*
X137771364Y-111475270D03*
D12*
X141581364Y-114015270D03*
D11*
X144121364Y-108935270D03*
X139041364Y-108935270D03*
X145391364Y-111475270D03*
%TD*%
D10*
%TO.C,K15*%
X136560902Y-94963110D03*
X146720902Y-94963110D03*
D11*
X137830902Y-92423110D03*
D12*
X141640902Y-94963110D03*
D11*
X144180902Y-89883110D03*
X139100902Y-89883110D03*
X145450902Y-92423110D03*
%TD*%
D10*
%TO.C,K14*%
X136541632Y-75851412D03*
X146701632Y-75851412D03*
D11*
X137811632Y-73311412D03*
D12*
X141621632Y-75851412D03*
D11*
X144161632Y-70771412D03*
X139081632Y-70771412D03*
X145431632Y-73311412D03*
%TD*%
D10*
%TO.C,K13*%
X136580172Y-56799252D03*
X146740172Y-56799252D03*
D11*
X137850172Y-54259252D03*
D12*
X141660172Y-56799252D03*
D11*
X144200172Y-51719252D03*
X139120172Y-51719252D03*
X145470172Y-54259252D03*
%TD*%
D10*
%TO.C,K12*%
X117489472Y-116396790D03*
X127649472Y-116396790D03*
D11*
X118759472Y-113856790D03*
D12*
X122569472Y-116396790D03*
D11*
X125109472Y-111316790D03*
X120029472Y-111316790D03*
X126379472Y-113856790D03*
%TD*%
D10*
%TO.C,K11*%
X117389666Y-97285092D03*
X127549666Y-97285092D03*
D11*
X118659666Y-94745092D03*
D12*
X122469666Y-97285092D03*
D11*
X125009666Y-92205092D03*
X119929666Y-92205092D03*
X126279666Y-94745092D03*
%TD*%
D10*
%TO.C,K10*%
X117449204Y-78292470D03*
X127609204Y-78292470D03*
D11*
X118719204Y-75752470D03*
D12*
X122529204Y-78292470D03*
D11*
X125069204Y-73212470D03*
X119989204Y-73212470D03*
X126339204Y-75752470D03*
%TD*%
D10*
%TO.C,K9*%
X117449204Y-59121234D03*
X127609204Y-59121234D03*
D11*
X118719204Y-56581234D03*
D12*
X122529204Y-59121234D03*
D11*
X125069204Y-54041234D03*
X119989204Y-54041234D03*
X126339204Y-56581234D03*
%TD*%
D10*
%TO.C,K8*%
X98397044Y-118778310D03*
X108557044Y-118778310D03*
D11*
X99667044Y-116238310D03*
D12*
X103477044Y-118778310D03*
D11*
X106017044Y-113698310D03*
X100937044Y-113698310D03*
X107287044Y-116238310D03*
%TD*%
D10*
%TO.C,K7*%
X98456582Y-99666612D03*
X108616582Y-99666612D03*
D11*
X99726582Y-97126612D03*
D12*
X103536582Y-99666612D03*
D11*
X106076582Y-94586612D03*
X100996582Y-94586612D03*
X107346582Y-97126612D03*
%TD*%
D10*
%TO.C,K6*%
X98456582Y-80733528D03*
X108616582Y-80733528D03*
D11*
X99726582Y-78193528D03*
D12*
X103536582Y-80733528D03*
D11*
X106076582Y-75653528D03*
X100996582Y-75653528D03*
X107346582Y-78193528D03*
%TD*%
D10*
%TO.C,K5*%
X98456582Y-61621830D03*
X108616582Y-61621830D03*
D11*
X99726582Y-59081830D03*
D12*
X103536582Y-61621830D03*
D11*
X106076582Y-56541830D03*
X100996582Y-56541830D03*
X107346582Y-59081830D03*
%TD*%
D10*
%TO.C,K4*%
X79344884Y-121100292D03*
X89504884Y-121100292D03*
D11*
X80614884Y-118560292D03*
D12*
X84424884Y-121100292D03*
D11*
X86964884Y-116020292D03*
X81884884Y-116020292D03*
X88234884Y-118560292D03*
%TD*%
D10*
%TO.C,K3*%
X79344884Y-102107670D03*
X89504884Y-102107670D03*
D11*
X80614884Y-99567670D03*
D12*
X84424884Y-102107670D03*
D11*
X86964884Y-97027670D03*
X81884884Y-97027670D03*
X88234884Y-99567670D03*
%TD*%
D10*
%TO.C,K2*%
X79344884Y-83055510D03*
X89504884Y-83055510D03*
D11*
X80614884Y-80515510D03*
D12*
X84424884Y-83055510D03*
D11*
X86964884Y-77975510D03*
X81884884Y-77975510D03*
X88234884Y-80515510D03*
%TD*%
D10*
%TO.C,K1*%
X79364288Y-63943812D03*
X89524288Y-63943812D03*
D11*
X80634288Y-61403812D03*
D12*
X84444288Y-63943812D03*
D11*
X86984288Y-58863812D03*
X81904288Y-58863812D03*
X88254288Y-61403812D03*
%TD*%
%TO.C,D1*%
G36*
G01*
X93945000Y-67145000D02*
X92745000Y-67145000D01*
G75*
G02*
X92545000Y-66945000I0J200000D01*
G01*
X92545000Y-65745000D01*
G75*
G02*
X92745000Y-65545000I200000J0D01*
G01*
X93945000Y-65545000D01*
G75*
G02*
X94145000Y-65745000I0J-200000D01*
G01*
X94145000Y-66945000D01*
G75*
G02*
X93945000Y-67145000I-200000J0D01*
G01*
G37*
G36*
G01*
X93945000Y-63995000D02*
X92745000Y-63995000D01*
G75*
G02*
X92545000Y-63795000I0J200000D01*
G01*
X92545000Y-62595000D01*
G75*
G02*
X92745000Y-62395000I200000J0D01*
G01*
X93945000Y-62395000D01*
G75*
G02*
X94145000Y-62595000I0J-200000D01*
G01*
X94145000Y-63795000D01*
G75*
G02*
X93945000Y-63995000I-200000J0D01*
G01*
G37*
G36*
G01*
X94145000Y-69670000D02*
X92545000Y-69670000D01*
G75*
G02*
X92345000Y-69470000I0J200000D01*
G01*
X92345000Y-67870000D01*
G75*
G02*
X92545000Y-67670000I200000J0D01*
G01*
X94145000Y-67670000D01*
G75*
G02*
X94345000Y-67870000I0J-200000D01*
G01*
X94345000Y-69470000D01*
G75*
G02*
X94145000Y-69670000I-200000J0D01*
G01*
G37*
D14*
X93345000Y-60870000D03*
%TD*%
%TO.C,D2*%
G36*
G01*
X94580000Y-86195000D02*
X93380000Y-86195000D01*
G75*
G02*
X93180000Y-85995000I0J200000D01*
G01*
X93180000Y-84795000D01*
G75*
G02*
X93380000Y-84595000I200000J0D01*
G01*
X94580000Y-84595000D01*
G75*
G02*
X94780000Y-84795000I0J-200000D01*
G01*
X94780000Y-85995000D01*
G75*
G02*
X94580000Y-86195000I-200000J0D01*
G01*
G37*
G36*
G01*
X94580000Y-83045000D02*
X93380000Y-83045000D01*
G75*
G02*
X93180000Y-82845000I0J200000D01*
G01*
X93180000Y-81645000D01*
G75*
G02*
X93380000Y-81445000I200000J0D01*
G01*
X94580000Y-81445000D01*
G75*
G02*
X94780000Y-81645000I0J-200000D01*
G01*
X94780000Y-82845000D01*
G75*
G02*
X94580000Y-83045000I-200000J0D01*
G01*
G37*
G36*
G01*
X94780000Y-88720000D02*
X93180000Y-88720000D01*
G75*
G02*
X92980000Y-88520000I0J200000D01*
G01*
X92980000Y-86920000D01*
G75*
G02*
X93180000Y-86720000I200000J0D01*
G01*
X94780000Y-86720000D01*
G75*
G02*
X94980000Y-86920000I0J-200000D01*
G01*
X94980000Y-88520000D01*
G75*
G02*
X94780000Y-88720000I-200000J0D01*
G01*
G37*
X93980000Y-79920000D03*
%TD*%
%TO.C,D3*%
G36*
G01*
X94580000Y-105245000D02*
X93380000Y-105245000D01*
G75*
G02*
X93180000Y-105045000I0J200000D01*
G01*
X93180000Y-103845000D01*
G75*
G02*
X93380000Y-103645000I200000J0D01*
G01*
X94580000Y-103645000D01*
G75*
G02*
X94780000Y-103845000I0J-200000D01*
G01*
X94780000Y-105045000D01*
G75*
G02*
X94580000Y-105245000I-200000J0D01*
G01*
G37*
G36*
G01*
X94580000Y-102095000D02*
X93380000Y-102095000D01*
G75*
G02*
X93180000Y-101895000I0J200000D01*
G01*
X93180000Y-100695000D01*
G75*
G02*
X93380000Y-100495000I200000J0D01*
G01*
X94580000Y-100495000D01*
G75*
G02*
X94780000Y-100695000I0J-200000D01*
G01*
X94780000Y-101895000D01*
G75*
G02*
X94580000Y-102095000I-200000J0D01*
G01*
G37*
G36*
G01*
X94780000Y-107770000D02*
X93180000Y-107770000D01*
G75*
G02*
X92980000Y-107570000I0J200000D01*
G01*
X92980000Y-105970000D01*
G75*
G02*
X93180000Y-105770000I200000J0D01*
G01*
X94780000Y-105770000D01*
G75*
G02*
X94980000Y-105970000I0J-200000D01*
G01*
X94980000Y-107570000D01*
G75*
G02*
X94780000Y-107770000I-200000J0D01*
G01*
G37*
X93980000Y-98970000D03*
%TD*%
%TO.C,D4*%
G36*
G01*
X93945000Y-123990000D02*
X92745000Y-123990000D01*
G75*
G02*
X92545000Y-123790000I0J200000D01*
G01*
X92545000Y-122590000D01*
G75*
G02*
X92745000Y-122390000I200000J0D01*
G01*
X93945000Y-122390000D01*
G75*
G02*
X94145000Y-122590000I0J-200000D01*
G01*
X94145000Y-123790000D01*
G75*
G02*
X93945000Y-123990000I-200000J0D01*
G01*
G37*
G36*
G01*
X93945000Y-120840000D02*
X92745000Y-120840000D01*
G75*
G02*
X92545000Y-120640000I0J200000D01*
G01*
X92545000Y-119440000D01*
G75*
G02*
X92745000Y-119240000I200000J0D01*
G01*
X93945000Y-119240000D01*
G75*
G02*
X94145000Y-119440000I0J-200000D01*
G01*
X94145000Y-120640000D01*
G75*
G02*
X93945000Y-120840000I-200000J0D01*
G01*
G37*
G36*
G01*
X94145000Y-126515000D02*
X92545000Y-126515000D01*
G75*
G02*
X92345000Y-126315000I0J200000D01*
G01*
X92345000Y-124715000D01*
G75*
G02*
X92545000Y-124515000I200000J0D01*
G01*
X94145000Y-124515000D01*
G75*
G02*
X94345000Y-124715000I0J-200000D01*
G01*
X94345000Y-126315000D01*
G75*
G02*
X94145000Y-126515000I-200000J0D01*
G01*
G37*
X93345000Y-117715000D03*
%TD*%
%TO.C,D5*%
G36*
G01*
X113630000Y-64605000D02*
X112430000Y-64605000D01*
G75*
G02*
X112230000Y-64405000I0J200000D01*
G01*
X112230000Y-63205000D01*
G75*
G02*
X112430000Y-63005000I200000J0D01*
G01*
X113630000Y-63005000D01*
G75*
G02*
X113830000Y-63205000I0J-200000D01*
G01*
X113830000Y-64405000D01*
G75*
G02*
X113630000Y-64605000I-200000J0D01*
G01*
G37*
G36*
G01*
X113630000Y-61455000D02*
X112430000Y-61455000D01*
G75*
G02*
X112230000Y-61255000I0J200000D01*
G01*
X112230000Y-60055000D01*
G75*
G02*
X112430000Y-59855000I200000J0D01*
G01*
X113630000Y-59855000D01*
G75*
G02*
X113830000Y-60055000I0J-200000D01*
G01*
X113830000Y-61255000D01*
G75*
G02*
X113630000Y-61455000I-200000J0D01*
G01*
G37*
G36*
G01*
X113830000Y-67130000D02*
X112230000Y-67130000D01*
G75*
G02*
X112030000Y-66930000I0J200000D01*
G01*
X112030000Y-65330000D01*
G75*
G02*
X112230000Y-65130000I200000J0D01*
G01*
X113830000Y-65130000D01*
G75*
G02*
X114030000Y-65330000I0J-200000D01*
G01*
X114030000Y-66930000D01*
G75*
G02*
X113830000Y-67130000I-200000J0D01*
G01*
G37*
X113030000Y-58330000D03*
%TD*%
%TO.C,D6*%
G36*
G01*
X113630000Y-84130000D02*
X112430000Y-84130000D01*
G75*
G02*
X112230000Y-83930000I0J200000D01*
G01*
X112230000Y-82730000D01*
G75*
G02*
X112430000Y-82530000I200000J0D01*
G01*
X113630000Y-82530000D01*
G75*
G02*
X113830000Y-82730000I0J-200000D01*
G01*
X113830000Y-83930000D01*
G75*
G02*
X113630000Y-84130000I-200000J0D01*
G01*
G37*
G36*
G01*
X113630000Y-80980000D02*
X112430000Y-80980000D01*
G75*
G02*
X112230000Y-80780000I0J200000D01*
G01*
X112230000Y-79580000D01*
G75*
G02*
X112430000Y-79380000I200000J0D01*
G01*
X113630000Y-79380000D01*
G75*
G02*
X113830000Y-79580000I0J-200000D01*
G01*
X113830000Y-80780000D01*
G75*
G02*
X113630000Y-80980000I-200000J0D01*
G01*
G37*
G36*
G01*
X113830000Y-86655000D02*
X112230000Y-86655000D01*
G75*
G02*
X112030000Y-86455000I0J200000D01*
G01*
X112030000Y-84855000D01*
G75*
G02*
X112230000Y-84655000I200000J0D01*
G01*
X113830000Y-84655000D01*
G75*
G02*
X114030000Y-84855000I0J-200000D01*
G01*
X114030000Y-86455000D01*
G75*
G02*
X113830000Y-86655000I-200000J0D01*
G01*
G37*
X113030000Y-77855000D03*
%TD*%
%TO.C,D7*%
G36*
G01*
X113630000Y-103010000D02*
X112430000Y-103010000D01*
G75*
G02*
X112230000Y-102810000I0J200000D01*
G01*
X112230000Y-101610000D01*
G75*
G02*
X112430000Y-101410000I200000J0D01*
G01*
X113630000Y-101410000D01*
G75*
G02*
X113830000Y-101610000I0J-200000D01*
G01*
X113830000Y-102810000D01*
G75*
G02*
X113630000Y-103010000I-200000J0D01*
G01*
G37*
G36*
G01*
X113630000Y-99860000D02*
X112430000Y-99860000D01*
G75*
G02*
X112230000Y-99660000I0J200000D01*
G01*
X112230000Y-98460000D01*
G75*
G02*
X112430000Y-98260000I200000J0D01*
G01*
X113630000Y-98260000D01*
G75*
G02*
X113830000Y-98460000I0J-200000D01*
G01*
X113830000Y-99660000D01*
G75*
G02*
X113630000Y-99860000I-200000J0D01*
G01*
G37*
G36*
G01*
X113830000Y-105535000D02*
X112230000Y-105535000D01*
G75*
G02*
X112030000Y-105335000I0J200000D01*
G01*
X112030000Y-103735000D01*
G75*
G02*
X112230000Y-103535000I200000J0D01*
G01*
X113830000Y-103535000D01*
G75*
G02*
X114030000Y-103735000I0J-200000D01*
G01*
X114030000Y-105335000D01*
G75*
G02*
X113830000Y-105535000I-200000J0D01*
G01*
G37*
X113030000Y-96735000D03*
%TD*%
%TO.C,D8*%
G36*
G01*
X113630000Y-121755000D02*
X112430000Y-121755000D01*
G75*
G02*
X112230000Y-121555000I0J200000D01*
G01*
X112230000Y-120355000D01*
G75*
G02*
X112430000Y-120155000I200000J0D01*
G01*
X113630000Y-120155000D01*
G75*
G02*
X113830000Y-120355000I0J-200000D01*
G01*
X113830000Y-121555000D01*
G75*
G02*
X113630000Y-121755000I-200000J0D01*
G01*
G37*
G36*
G01*
X113630000Y-118605000D02*
X112430000Y-118605000D01*
G75*
G02*
X112230000Y-118405000I0J200000D01*
G01*
X112230000Y-117205000D01*
G75*
G02*
X112430000Y-117005000I200000J0D01*
G01*
X113630000Y-117005000D01*
G75*
G02*
X113830000Y-117205000I0J-200000D01*
G01*
X113830000Y-118405000D01*
G75*
G02*
X113630000Y-118605000I-200000J0D01*
G01*
G37*
G36*
G01*
X113830000Y-124280000D02*
X112230000Y-124280000D01*
G75*
G02*
X112030000Y-124080000I0J200000D01*
G01*
X112030000Y-122480000D01*
G75*
G02*
X112230000Y-122280000I200000J0D01*
G01*
X113830000Y-122280000D01*
G75*
G02*
X114030000Y-122480000I0J-200000D01*
G01*
X114030000Y-124080000D01*
G75*
G02*
X113830000Y-124280000I-200000J0D01*
G01*
G37*
X113030000Y-115480000D03*
%TD*%
%TO.C,D9*%
G36*
G01*
X131410000Y-62395000D02*
X130210000Y-62395000D01*
G75*
G02*
X130010000Y-62195000I0J200000D01*
G01*
X130010000Y-60995000D01*
G75*
G02*
X130210000Y-60795000I200000J0D01*
G01*
X131410000Y-60795000D01*
G75*
G02*
X131610000Y-60995000I0J-200000D01*
G01*
X131610000Y-62195000D01*
G75*
G02*
X131410000Y-62395000I-200000J0D01*
G01*
G37*
G36*
G01*
X131410000Y-59245000D02*
X130210000Y-59245000D01*
G75*
G02*
X130010000Y-59045000I0J200000D01*
G01*
X130010000Y-57845000D01*
G75*
G02*
X130210000Y-57645000I200000J0D01*
G01*
X131410000Y-57645000D01*
G75*
G02*
X131610000Y-57845000I0J-200000D01*
G01*
X131610000Y-59045000D01*
G75*
G02*
X131410000Y-59245000I-200000J0D01*
G01*
G37*
G36*
G01*
X131610000Y-64920000D02*
X130010000Y-64920000D01*
G75*
G02*
X129810000Y-64720000I0J200000D01*
G01*
X129810000Y-63120000D01*
G75*
G02*
X130010000Y-62920000I200000J0D01*
G01*
X131610000Y-62920000D01*
G75*
G02*
X131810000Y-63120000I0J-200000D01*
G01*
X131810000Y-64720000D01*
G75*
G02*
X131610000Y-64920000I-200000J0D01*
G01*
G37*
X130810000Y-56120000D03*
%TD*%
%TO.C,D10*%
G36*
G01*
X132045000Y-86195000D02*
X130845000Y-86195000D01*
G75*
G02*
X130645000Y-85995000I0J200000D01*
G01*
X130645000Y-84795000D01*
G75*
G02*
X130845000Y-84595000I200000J0D01*
G01*
X132045000Y-84595000D01*
G75*
G02*
X132245000Y-84795000I0J-200000D01*
G01*
X132245000Y-85995000D01*
G75*
G02*
X132045000Y-86195000I-200000J0D01*
G01*
G37*
G36*
G01*
X132045000Y-83045000D02*
X130845000Y-83045000D01*
G75*
G02*
X130645000Y-82845000I0J200000D01*
G01*
X130645000Y-81645000D01*
G75*
G02*
X130845000Y-81445000I200000J0D01*
G01*
X132045000Y-81445000D01*
G75*
G02*
X132245000Y-81645000I0J-200000D01*
G01*
X132245000Y-82845000D01*
G75*
G02*
X132045000Y-83045000I-200000J0D01*
G01*
G37*
G36*
G01*
X132245000Y-88720000D02*
X130645000Y-88720000D01*
G75*
G02*
X130445000Y-88520000I0J200000D01*
G01*
X130445000Y-86920000D01*
G75*
G02*
X130645000Y-86720000I200000J0D01*
G01*
X132245000Y-86720000D01*
G75*
G02*
X132445000Y-86920000I0J-200000D01*
G01*
X132445000Y-88520000D01*
G75*
G02*
X132245000Y-88720000I-200000J0D01*
G01*
G37*
X131445000Y-79920000D03*
%TD*%
%TO.C,D11*%
G36*
G01*
X132680000Y-100165000D02*
X131480000Y-100165000D01*
G75*
G02*
X131280000Y-99965000I0J200000D01*
G01*
X131280000Y-98765000D01*
G75*
G02*
X131480000Y-98565000I200000J0D01*
G01*
X132680000Y-98565000D01*
G75*
G02*
X132880000Y-98765000I0J-200000D01*
G01*
X132880000Y-99965000D01*
G75*
G02*
X132680000Y-100165000I-200000J0D01*
G01*
G37*
G36*
G01*
X132680000Y-97015000D02*
X131480000Y-97015000D01*
G75*
G02*
X131280000Y-96815000I0J200000D01*
G01*
X131280000Y-95615000D01*
G75*
G02*
X131480000Y-95415000I200000J0D01*
G01*
X132680000Y-95415000D01*
G75*
G02*
X132880000Y-95615000I0J-200000D01*
G01*
X132880000Y-96815000D01*
G75*
G02*
X132680000Y-97015000I-200000J0D01*
G01*
G37*
G36*
G01*
X132880000Y-102690000D02*
X131280000Y-102690000D01*
G75*
G02*
X131080000Y-102490000I0J200000D01*
G01*
X131080000Y-100890000D01*
G75*
G02*
X131280000Y-100690000I200000J0D01*
G01*
X132880000Y-100690000D01*
G75*
G02*
X133080000Y-100890000I0J-200000D01*
G01*
X133080000Y-102490000D01*
G75*
G02*
X132880000Y-102690000I-200000J0D01*
G01*
G37*
X132080000Y-93890000D03*
%TD*%
%TO.C,D12*%
G36*
G01*
X132680000Y-119520000D02*
X131480000Y-119520000D01*
G75*
G02*
X131280000Y-119320000I0J200000D01*
G01*
X131280000Y-118120000D01*
G75*
G02*
X131480000Y-117920000I200000J0D01*
G01*
X132680000Y-117920000D01*
G75*
G02*
X132880000Y-118120000I0J-200000D01*
G01*
X132880000Y-119320000D01*
G75*
G02*
X132680000Y-119520000I-200000J0D01*
G01*
G37*
G36*
G01*
X132680000Y-116370000D02*
X131480000Y-116370000D01*
G75*
G02*
X131280000Y-116170000I0J200000D01*
G01*
X131280000Y-114970000D01*
G75*
G02*
X131480000Y-114770000I200000J0D01*
G01*
X132680000Y-114770000D01*
G75*
G02*
X132880000Y-114970000I0J-200000D01*
G01*
X132880000Y-116170000D01*
G75*
G02*
X132680000Y-116370000I-200000J0D01*
G01*
G37*
G36*
G01*
X132880000Y-122045000D02*
X131280000Y-122045000D01*
G75*
G02*
X131080000Y-121845000I0J200000D01*
G01*
X131080000Y-120245000D01*
G75*
G02*
X131280000Y-120045000I200000J0D01*
G01*
X132880000Y-120045000D01*
G75*
G02*
X133080000Y-120245000I0J-200000D01*
G01*
X133080000Y-121845000D01*
G75*
G02*
X132880000Y-122045000I-200000J0D01*
G01*
G37*
X132080000Y-113245000D03*
%TD*%
%TO.C,D13*%
G36*
G01*
X153000000Y-62610000D02*
X151800000Y-62610000D01*
G75*
G02*
X151600000Y-62410000I0J200000D01*
G01*
X151600000Y-61210000D01*
G75*
G02*
X151800000Y-61010000I200000J0D01*
G01*
X153000000Y-61010000D01*
G75*
G02*
X153200000Y-61210000I0J-200000D01*
G01*
X153200000Y-62410000D01*
G75*
G02*
X153000000Y-62610000I-200000J0D01*
G01*
G37*
G36*
G01*
X153000000Y-59460000D02*
X151800000Y-59460000D01*
G75*
G02*
X151600000Y-59260000I0J200000D01*
G01*
X151600000Y-58060000D01*
G75*
G02*
X151800000Y-57860000I200000J0D01*
G01*
X153000000Y-57860000D01*
G75*
G02*
X153200000Y-58060000I0J-200000D01*
G01*
X153200000Y-59260000D01*
G75*
G02*
X153000000Y-59460000I-200000J0D01*
G01*
G37*
G36*
G01*
X153200000Y-65135000D02*
X151600000Y-65135000D01*
G75*
G02*
X151400000Y-64935000I0J200000D01*
G01*
X151400000Y-63335000D01*
G75*
G02*
X151600000Y-63135000I200000J0D01*
G01*
X153200000Y-63135000D01*
G75*
G02*
X153400000Y-63335000I0J-200000D01*
G01*
X153400000Y-64935000D01*
G75*
G02*
X153200000Y-65135000I-200000J0D01*
G01*
G37*
X152400000Y-56335000D03*
%TD*%
%TO.C,D14*%
G36*
G01*
X151730000Y-86195000D02*
X150530000Y-86195000D01*
G75*
G02*
X150330000Y-85995000I0J200000D01*
G01*
X150330000Y-84795000D01*
G75*
G02*
X150530000Y-84595000I200000J0D01*
G01*
X151730000Y-84595000D01*
G75*
G02*
X151930000Y-84795000I0J-200000D01*
G01*
X151930000Y-85995000D01*
G75*
G02*
X151730000Y-86195000I-200000J0D01*
G01*
G37*
G36*
G01*
X151730000Y-83045000D02*
X150530000Y-83045000D01*
G75*
G02*
X150330000Y-82845000I0J200000D01*
G01*
X150330000Y-81645000D01*
G75*
G02*
X150530000Y-81445000I200000J0D01*
G01*
X151730000Y-81445000D01*
G75*
G02*
X151930000Y-81645000I0J-200000D01*
G01*
X151930000Y-82845000D01*
G75*
G02*
X151730000Y-83045000I-200000J0D01*
G01*
G37*
G36*
G01*
X151930000Y-88720000D02*
X150330000Y-88720000D01*
G75*
G02*
X150130000Y-88520000I0J200000D01*
G01*
X150130000Y-86920000D01*
G75*
G02*
X150330000Y-86720000I200000J0D01*
G01*
X151930000Y-86720000D01*
G75*
G02*
X152130000Y-86920000I0J-200000D01*
G01*
X152130000Y-88520000D01*
G75*
G02*
X151930000Y-88720000I-200000J0D01*
G01*
G37*
X151130000Y-79920000D03*
%TD*%
%TO.C,D15*%
G36*
G01*
X151730000Y-98260000D02*
X150530000Y-98260000D01*
G75*
G02*
X150330000Y-98060000I0J200000D01*
G01*
X150330000Y-96860000D01*
G75*
G02*
X150530000Y-96660000I200000J0D01*
G01*
X151730000Y-96660000D01*
G75*
G02*
X151930000Y-96860000I0J-200000D01*
G01*
X151930000Y-98060000D01*
G75*
G02*
X151730000Y-98260000I-200000J0D01*
G01*
G37*
G36*
G01*
X151730000Y-95110000D02*
X150530000Y-95110000D01*
G75*
G02*
X150330000Y-94910000I0J200000D01*
G01*
X150330000Y-93710000D01*
G75*
G02*
X150530000Y-93510000I200000J0D01*
G01*
X151730000Y-93510000D01*
G75*
G02*
X151930000Y-93710000I0J-200000D01*
G01*
X151930000Y-94910000D01*
G75*
G02*
X151730000Y-95110000I-200000J0D01*
G01*
G37*
G36*
G01*
X151930000Y-100785000D02*
X150330000Y-100785000D01*
G75*
G02*
X150130000Y-100585000I0J200000D01*
G01*
X150130000Y-98985000D01*
G75*
G02*
X150330000Y-98785000I200000J0D01*
G01*
X151930000Y-98785000D01*
G75*
G02*
X152130000Y-98985000I0J-200000D01*
G01*
X152130000Y-100585000D01*
G75*
G02*
X151930000Y-100785000I-200000J0D01*
G01*
G37*
X151130000Y-91985000D03*
%TD*%
%TO.C,D16*%
G36*
G01*
X151730000Y-116980000D02*
X150530000Y-116980000D01*
G75*
G02*
X150330000Y-116780000I0J200000D01*
G01*
X150330000Y-115580000D01*
G75*
G02*
X150530000Y-115380000I200000J0D01*
G01*
X151730000Y-115380000D01*
G75*
G02*
X151930000Y-115580000I0J-200000D01*
G01*
X151930000Y-116780000D01*
G75*
G02*
X151730000Y-116980000I-200000J0D01*
G01*
G37*
G36*
G01*
X151730000Y-113830000D02*
X150530000Y-113830000D01*
G75*
G02*
X150330000Y-113630000I0J200000D01*
G01*
X150330000Y-112430000D01*
G75*
G02*
X150530000Y-112230000I200000J0D01*
G01*
X151730000Y-112230000D01*
G75*
G02*
X151930000Y-112430000I0J-200000D01*
G01*
X151930000Y-113630000D01*
G75*
G02*
X151730000Y-113830000I-200000J0D01*
G01*
G37*
G36*
G01*
X151930000Y-119505000D02*
X150330000Y-119505000D01*
G75*
G02*
X150130000Y-119305000I0J200000D01*
G01*
X150130000Y-117705000D01*
G75*
G02*
X150330000Y-117505000I200000J0D01*
G01*
X151930000Y-117505000D01*
G75*
G02*
X152130000Y-117705000I0J-200000D01*
G01*
X152130000Y-119305000D01*
G75*
G02*
X151930000Y-119505000I-200000J0D01*
G01*
G37*
X151130000Y-110705000D03*
%TD*%
%TO.C,D17*%
G36*
G01*
X170780000Y-62370000D02*
X169580000Y-62370000D01*
G75*
G02*
X169380000Y-62170000I0J200000D01*
G01*
X169380000Y-60970000D01*
G75*
G02*
X169580000Y-60770000I200000J0D01*
G01*
X170780000Y-60770000D01*
G75*
G02*
X170980000Y-60970000I0J-200000D01*
G01*
X170980000Y-62170000D01*
G75*
G02*
X170780000Y-62370000I-200000J0D01*
G01*
G37*
G36*
G01*
X170780000Y-59220000D02*
X169580000Y-59220000D01*
G75*
G02*
X169380000Y-59020000I0J200000D01*
G01*
X169380000Y-57820000D01*
G75*
G02*
X169580000Y-57620000I200000J0D01*
G01*
X170780000Y-57620000D01*
G75*
G02*
X170980000Y-57820000I0J-200000D01*
G01*
X170980000Y-59020000D01*
G75*
G02*
X170780000Y-59220000I-200000J0D01*
G01*
G37*
G36*
G01*
X170980000Y-64895000D02*
X169380000Y-64895000D01*
G75*
G02*
X169180000Y-64695000I0J200000D01*
G01*
X169180000Y-63095000D01*
G75*
G02*
X169380000Y-62895000I200000J0D01*
G01*
X170980000Y-62895000D01*
G75*
G02*
X171180000Y-63095000I0J-200000D01*
G01*
X171180000Y-64695000D01*
G75*
G02*
X170980000Y-64895000I-200000J0D01*
G01*
G37*
X170180000Y-56095000D03*
%TD*%
%TO.C,D18*%
G36*
G01*
X170780000Y-81750000D02*
X169580000Y-81750000D01*
G75*
G02*
X169380000Y-81550000I0J200000D01*
G01*
X169380000Y-80350000D01*
G75*
G02*
X169580000Y-80150000I200000J0D01*
G01*
X170780000Y-80150000D01*
G75*
G02*
X170980000Y-80350000I0J-200000D01*
G01*
X170980000Y-81550000D01*
G75*
G02*
X170780000Y-81750000I-200000J0D01*
G01*
G37*
G36*
G01*
X170780000Y-78600000D02*
X169580000Y-78600000D01*
G75*
G02*
X169380000Y-78400000I0J200000D01*
G01*
X169380000Y-77200000D01*
G75*
G02*
X169580000Y-77000000I200000J0D01*
G01*
X170780000Y-77000000D01*
G75*
G02*
X170980000Y-77200000I0J-200000D01*
G01*
X170980000Y-78400000D01*
G75*
G02*
X170780000Y-78600000I-200000J0D01*
G01*
G37*
G36*
G01*
X170980000Y-84275000D02*
X169380000Y-84275000D01*
G75*
G02*
X169180000Y-84075000I0J200000D01*
G01*
X169180000Y-82475000D01*
G75*
G02*
X169380000Y-82275000I200000J0D01*
G01*
X170980000Y-82275000D01*
G75*
G02*
X171180000Y-82475000I0J-200000D01*
G01*
X171180000Y-84075000D01*
G75*
G02*
X170980000Y-84275000I-200000J0D01*
G01*
G37*
X170180000Y-75475000D03*
%TD*%
%TO.C,D19*%
G36*
G01*
X170780000Y-100255000D02*
X169580000Y-100255000D01*
G75*
G02*
X169380000Y-100055000I0J200000D01*
G01*
X169380000Y-98855000D01*
G75*
G02*
X169580000Y-98655000I200000J0D01*
G01*
X170780000Y-98655000D01*
G75*
G02*
X170980000Y-98855000I0J-200000D01*
G01*
X170980000Y-100055000D01*
G75*
G02*
X170780000Y-100255000I-200000J0D01*
G01*
G37*
G36*
G01*
X170780000Y-97105000D02*
X169580000Y-97105000D01*
G75*
G02*
X169380000Y-96905000I0J200000D01*
G01*
X169380000Y-95705000D01*
G75*
G02*
X169580000Y-95505000I200000J0D01*
G01*
X170780000Y-95505000D01*
G75*
G02*
X170980000Y-95705000I0J-200000D01*
G01*
X170980000Y-96905000D01*
G75*
G02*
X170780000Y-97105000I-200000J0D01*
G01*
G37*
G36*
G01*
X170980000Y-102780000D02*
X169380000Y-102780000D01*
G75*
G02*
X169180000Y-102580000I0J200000D01*
G01*
X169180000Y-100980000D01*
G75*
G02*
X169380000Y-100780000I200000J0D01*
G01*
X170980000Y-100780000D01*
G75*
G02*
X171180000Y-100980000I0J-200000D01*
G01*
X171180000Y-102580000D01*
G75*
G02*
X170980000Y-102780000I-200000J0D01*
G01*
G37*
X170180000Y-93980000D03*
%TD*%
%TO.C,D20*%
G36*
G01*
X179670000Y-118490000D02*
X178470000Y-118490000D01*
G75*
G02*
X178270000Y-118290000I0J200000D01*
G01*
X178270000Y-117090000D01*
G75*
G02*
X178470000Y-116890000I200000J0D01*
G01*
X179670000Y-116890000D01*
G75*
G02*
X179870000Y-117090000I0J-200000D01*
G01*
X179870000Y-118290000D01*
G75*
G02*
X179670000Y-118490000I-200000J0D01*
G01*
G37*
G36*
G01*
X179670000Y-115340000D02*
X178470000Y-115340000D01*
G75*
G02*
X178270000Y-115140000I0J200000D01*
G01*
X178270000Y-113940000D01*
G75*
G02*
X178470000Y-113740000I200000J0D01*
G01*
X179670000Y-113740000D01*
G75*
G02*
X179870000Y-113940000I0J-200000D01*
G01*
X179870000Y-115140000D01*
G75*
G02*
X179670000Y-115340000I-200000J0D01*
G01*
G37*
G36*
G01*
X179870000Y-121015000D02*
X178270000Y-121015000D01*
G75*
G02*
X178070000Y-120815000I0J200000D01*
G01*
X178070000Y-119215000D01*
G75*
G02*
X178270000Y-119015000I200000J0D01*
G01*
X179870000Y-119015000D01*
G75*
G02*
X180070000Y-119215000I0J-200000D01*
G01*
X180070000Y-120815000D01*
G75*
G02*
X179870000Y-121015000I-200000J0D01*
G01*
G37*
X179070000Y-112215000D03*
%TD*%
%TO.C,D21*%
G36*
G01*
X189830000Y-64765000D02*
X188630000Y-64765000D01*
G75*
G02*
X188430000Y-64565000I0J200000D01*
G01*
X188430000Y-63365000D01*
G75*
G02*
X188630000Y-63165000I200000J0D01*
G01*
X189830000Y-63165000D01*
G75*
G02*
X190030000Y-63365000I0J-200000D01*
G01*
X190030000Y-64565000D01*
G75*
G02*
X189830000Y-64765000I-200000J0D01*
G01*
G37*
G36*
G01*
X189830000Y-61615000D02*
X188630000Y-61615000D01*
G75*
G02*
X188430000Y-61415000I0J200000D01*
G01*
X188430000Y-60215000D01*
G75*
G02*
X188630000Y-60015000I200000J0D01*
G01*
X189830000Y-60015000D01*
G75*
G02*
X190030000Y-60215000I0J-200000D01*
G01*
X190030000Y-61415000D01*
G75*
G02*
X189830000Y-61615000I-200000J0D01*
G01*
G37*
G36*
G01*
X190030000Y-67290000D02*
X188430000Y-67290000D01*
G75*
G02*
X188230000Y-67090000I0J200000D01*
G01*
X188230000Y-65490000D01*
G75*
G02*
X188430000Y-65290000I200000J0D01*
G01*
X190030000Y-65290000D01*
G75*
G02*
X190230000Y-65490000I0J-200000D01*
G01*
X190230000Y-67090000D01*
G75*
G02*
X190030000Y-67290000I-200000J0D01*
G01*
G37*
X189230000Y-58490000D03*
%TD*%
%TO.C,D22*%
G36*
G01*
X189830000Y-83655000D02*
X188630000Y-83655000D01*
G75*
G02*
X188430000Y-83455000I0J200000D01*
G01*
X188430000Y-82255000D01*
G75*
G02*
X188630000Y-82055000I200000J0D01*
G01*
X189830000Y-82055000D01*
G75*
G02*
X190030000Y-82255000I0J-200000D01*
G01*
X190030000Y-83455000D01*
G75*
G02*
X189830000Y-83655000I-200000J0D01*
G01*
G37*
G36*
G01*
X189830000Y-80505000D02*
X188630000Y-80505000D01*
G75*
G02*
X188430000Y-80305000I0J200000D01*
G01*
X188430000Y-79105000D01*
G75*
G02*
X188630000Y-78905000I200000J0D01*
G01*
X189830000Y-78905000D01*
G75*
G02*
X190030000Y-79105000I0J-200000D01*
G01*
X190030000Y-80305000D01*
G75*
G02*
X189830000Y-80505000I-200000J0D01*
G01*
G37*
G36*
G01*
X190030000Y-86180000D02*
X188430000Y-86180000D01*
G75*
G02*
X188230000Y-85980000I0J200000D01*
G01*
X188230000Y-84380000D01*
G75*
G02*
X188430000Y-84180000I200000J0D01*
G01*
X190030000Y-84180000D01*
G75*
G02*
X190230000Y-84380000I0J-200000D01*
G01*
X190230000Y-85980000D01*
G75*
G02*
X190030000Y-86180000I-200000J0D01*
G01*
G37*
X189230000Y-77380000D03*
%TD*%
%TO.C,D23*%
G36*
G01*
X189830000Y-101910000D02*
X188630000Y-101910000D01*
G75*
G02*
X188430000Y-101710000I0J200000D01*
G01*
X188430000Y-100510000D01*
G75*
G02*
X188630000Y-100310000I200000J0D01*
G01*
X189830000Y-100310000D01*
G75*
G02*
X190030000Y-100510000I0J-200000D01*
G01*
X190030000Y-101710000D01*
G75*
G02*
X189830000Y-101910000I-200000J0D01*
G01*
G37*
G36*
G01*
X189830000Y-98760000D02*
X188630000Y-98760000D01*
G75*
G02*
X188430000Y-98560000I0J200000D01*
G01*
X188430000Y-97360000D01*
G75*
G02*
X188630000Y-97160000I200000J0D01*
G01*
X189830000Y-97160000D01*
G75*
G02*
X190030000Y-97360000I0J-200000D01*
G01*
X190030000Y-98560000D01*
G75*
G02*
X189830000Y-98760000I-200000J0D01*
G01*
G37*
G36*
G01*
X190030000Y-104435000D02*
X188430000Y-104435000D01*
G75*
G02*
X188230000Y-104235000I0J200000D01*
G01*
X188230000Y-102635000D01*
G75*
G02*
X188430000Y-102435000I200000J0D01*
G01*
X190030000Y-102435000D01*
G75*
G02*
X190230000Y-102635000I0J-200000D01*
G01*
X190230000Y-104235000D01*
G75*
G02*
X190030000Y-104435000I-200000J0D01*
G01*
G37*
X189230000Y-95635000D03*
%TD*%
%TO.C,D24*%
G36*
G01*
X182718000Y-117767000D02*
X181518000Y-117767000D01*
G75*
G02*
X181318000Y-117567000I0J200000D01*
G01*
X181318000Y-116367000D01*
G75*
G02*
X181518000Y-116167000I200000J0D01*
G01*
X182718000Y-116167000D01*
G75*
G02*
X182918000Y-116367000I0J-200000D01*
G01*
X182918000Y-117567000D01*
G75*
G02*
X182718000Y-117767000I-200000J0D01*
G01*
G37*
G36*
G01*
X182718000Y-114617000D02*
X181518000Y-114617000D01*
G75*
G02*
X181318000Y-114417000I0J200000D01*
G01*
X181318000Y-113217000D01*
G75*
G02*
X181518000Y-113017000I200000J0D01*
G01*
X182718000Y-113017000D01*
G75*
G02*
X182918000Y-113217000I0J-200000D01*
G01*
X182918000Y-114417000D01*
G75*
G02*
X182718000Y-114617000I-200000J0D01*
G01*
G37*
G36*
G01*
X182918000Y-120292000D02*
X181318000Y-120292000D01*
G75*
G02*
X181118000Y-120092000I0J200000D01*
G01*
X181118000Y-118492000D01*
G75*
G02*
X181318000Y-118292000I200000J0D01*
G01*
X182918000Y-118292000D01*
G75*
G02*
X183118000Y-118492000I0J-200000D01*
G01*
X183118000Y-120092000D01*
G75*
G02*
X182918000Y-120292000I-200000J0D01*
G01*
G37*
X182118000Y-111492000D03*
%TD*%
%TO.C,D25*%
G36*
G01*
X197175000Y-76800000D02*
X197175000Y-75600000D01*
G75*
G02*
X197375000Y-75400000I200000J0D01*
G01*
X198575000Y-75400000D01*
G75*
G02*
X198775000Y-75600000I0J-200000D01*
G01*
X198775000Y-76800000D01*
G75*
G02*
X198575000Y-77000000I-200000J0D01*
G01*
X197375000Y-77000000D01*
G75*
G02*
X197175000Y-76800000I0J200000D01*
G01*
G37*
G36*
G01*
X200325000Y-76800000D02*
X200325000Y-75600000D01*
G75*
G02*
X200525000Y-75400000I200000J0D01*
G01*
X201725000Y-75400000D01*
G75*
G02*
X201925000Y-75600000I0J-200000D01*
G01*
X201925000Y-76800000D01*
G75*
G02*
X201725000Y-77000000I-200000J0D01*
G01*
X200525000Y-77000000D01*
G75*
G02*
X200325000Y-76800000I0J200000D01*
G01*
G37*
G36*
G01*
X194650000Y-77000000D02*
X194650000Y-75400000D01*
G75*
G02*
X194850000Y-75200000I200000J0D01*
G01*
X196450000Y-75200000D01*
G75*
G02*
X196650000Y-75400000I0J-200000D01*
G01*
X196650000Y-77000000D01*
G75*
G02*
X196450000Y-77200000I-200000J0D01*
G01*
X194850000Y-77200000D01*
G75*
G02*
X194650000Y-77000000I0J200000D01*
G01*
G37*
X203450000Y-76200000D03*
%TD*%
%TO.C,D26*%
G36*
G01*
X198375000Y-94580000D02*
X198375000Y-93380000D01*
G75*
G02*
X198575000Y-93180000I200000J0D01*
G01*
X199775000Y-93180000D01*
G75*
G02*
X199975000Y-93380000I0J-200000D01*
G01*
X199975000Y-94580000D01*
G75*
G02*
X199775000Y-94780000I-200000J0D01*
G01*
X198575000Y-94780000D01*
G75*
G02*
X198375000Y-94580000I0J200000D01*
G01*
G37*
G36*
G01*
X201525000Y-94580000D02*
X201525000Y-93380000D01*
G75*
G02*
X201725000Y-93180000I200000J0D01*
G01*
X202925000Y-93180000D01*
G75*
G02*
X203125000Y-93380000I0J-200000D01*
G01*
X203125000Y-94580000D01*
G75*
G02*
X202925000Y-94780000I-200000J0D01*
G01*
X201725000Y-94780000D01*
G75*
G02*
X201525000Y-94580000I0J200000D01*
G01*
G37*
G36*
G01*
X195850000Y-94780000D02*
X195850000Y-93180000D01*
G75*
G02*
X196050000Y-92980000I200000J0D01*
G01*
X197650000Y-92980000D01*
G75*
G02*
X197850000Y-93180000I0J-200000D01*
G01*
X197850000Y-94780000D01*
G75*
G02*
X197650000Y-94980000I-200000J0D01*
G01*
X196050000Y-94980000D01*
G75*
G02*
X195850000Y-94780000I0J200000D01*
G01*
G37*
X204650000Y-93980000D03*
%TD*%
%TO.C,D27*%
G36*
G01*
X198285000Y-97120000D02*
X198285000Y-95920000D01*
G75*
G02*
X198485000Y-95720000I200000J0D01*
G01*
X199685000Y-95720000D01*
G75*
G02*
X199885000Y-95920000I0J-200000D01*
G01*
X199885000Y-97120000D01*
G75*
G02*
X199685000Y-97320000I-200000J0D01*
G01*
X198485000Y-97320000D01*
G75*
G02*
X198285000Y-97120000I0J200000D01*
G01*
G37*
G36*
G01*
X201435000Y-97120000D02*
X201435000Y-95920000D01*
G75*
G02*
X201635000Y-95720000I200000J0D01*
G01*
X202835000Y-95720000D01*
G75*
G02*
X203035000Y-95920000I0J-200000D01*
G01*
X203035000Y-97120000D01*
G75*
G02*
X202835000Y-97320000I-200000J0D01*
G01*
X201635000Y-97320000D01*
G75*
G02*
X201435000Y-97120000I0J200000D01*
G01*
G37*
G36*
G01*
X195760000Y-97320000D02*
X195760000Y-95720000D01*
G75*
G02*
X195960000Y-95520000I200000J0D01*
G01*
X197560000Y-95520000D01*
G75*
G02*
X197760000Y-95720000I0J-200000D01*
G01*
X197760000Y-97320000D01*
G75*
G02*
X197560000Y-97520000I-200000J0D01*
G01*
X195960000Y-97520000D01*
G75*
G02*
X195760000Y-97320000I0J200000D01*
G01*
G37*
X204560000Y-96520000D03*
%TD*%
D15*
%TO.C,J2*%
X205275000Y-52500000D03*
X198275000Y-52500000D03*
%TD*%
%TO.C,J3*%
G36*
G01*
X196375000Y-54500000D02*
X196375000Y-57000000D01*
G75*
G02*
X196175000Y-57200000I-200000J0D01*
G01*
X194975000Y-57200000D01*
G75*
G02*
X194775000Y-57000000I0J200000D01*
G01*
X194775000Y-54500000D01*
G75*
G02*
X194975000Y-54300000I200000J0D01*
G01*
X196175000Y-54300000D01*
G75*
G02*
X196375000Y-54500000I0J-200000D01*
G01*
G37*
G36*
G01*
X197475000Y-48000000D02*
X197475000Y-50500000D01*
G75*
G02*
X197275000Y-50700000I-200000J0D01*
G01*
X196075000Y-50700000D01*
G75*
G02*
X195875000Y-50500000I0J200000D01*
G01*
X195875000Y-48000000D01*
G75*
G02*
X196075000Y-47800000I200000J0D01*
G01*
X197275000Y-47800000D01*
G75*
G02*
X197475000Y-48000000I0J-200000D01*
G01*
G37*
G36*
G01*
X201475000Y-48000000D02*
X201475000Y-50500000D01*
G75*
G02*
X201275000Y-50700000I-200000J0D01*
G01*
X200075000Y-50700000D01*
G75*
G02*
X199875000Y-50500000I0J200000D01*
G01*
X199875000Y-48000000D01*
G75*
G02*
X200075000Y-47800000I200000J0D01*
G01*
X201275000Y-47800000D01*
G75*
G02*
X201475000Y-48000000I0J-200000D01*
G01*
G37*
G36*
G01*
X204475000Y-48000000D02*
X204475000Y-50500000D01*
G75*
G02*
X204275000Y-50700000I-200000J0D01*
G01*
X203075000Y-50700000D01*
G75*
G02*
X202875000Y-50500000I0J200000D01*
G01*
X202875000Y-48000000D01*
G75*
G02*
X203075000Y-47800000I200000J0D01*
G01*
X204275000Y-47800000D01*
G75*
G02*
X204475000Y-48000000I0J-200000D01*
G01*
G37*
X205275000Y-52500000D03*
X198275000Y-52500000D03*
%TD*%
%TO.C,SW2*%
G36*
G01*
X108830000Y-54470000D02*
X108830000Y-53370000D01*
G75*
G02*
X109030000Y-53170000I200000J0D01*
G01*
X110830000Y-53170000D01*
G75*
G02*
X111030000Y-53370000I0J-200000D01*
G01*
X111030000Y-54470000D01*
G75*
G02*
X110830000Y-54670000I-200000J0D01*
G01*
X109030000Y-54670000D01*
G75*
G02*
X108830000Y-54470000I0J200000D01*
G01*
G37*
G36*
G01*
X115030000Y-54470000D02*
X115030000Y-53370000D01*
G75*
G02*
X115230000Y-53170000I200000J0D01*
G01*
X117030000Y-53170000D01*
G75*
G02*
X117230000Y-53370000I0J-200000D01*
G01*
X117230000Y-54470000D01*
G75*
G02*
X117030000Y-54670000I-200000J0D01*
G01*
X115230000Y-54670000D01*
G75*
G02*
X115030000Y-54470000I0J200000D01*
G01*
G37*
G36*
G01*
X108830000Y-50770000D02*
X108830000Y-49670000D01*
G75*
G02*
X109030000Y-49470000I200000J0D01*
G01*
X110830000Y-49470000D01*
G75*
G02*
X111030000Y-49670000I0J-200000D01*
G01*
X111030000Y-50770000D01*
G75*
G02*
X110830000Y-50970000I-200000J0D01*
G01*
X109030000Y-50970000D01*
G75*
G02*
X108830000Y-50770000I0J200000D01*
G01*
G37*
G36*
G01*
X115030000Y-50770000D02*
X115030000Y-49670000D01*
G75*
G02*
X115230000Y-49470000I200000J0D01*
G01*
X117030000Y-49470000D01*
G75*
G02*
X117230000Y-49670000I0J-200000D01*
G01*
X117230000Y-50770000D01*
G75*
G02*
X117030000Y-50970000I-200000J0D01*
G01*
X115230000Y-50970000D01*
G75*
G02*
X115030000Y-50770000I0J200000D01*
G01*
G37*
%TD*%
%TO.C,U1*%
G36*
G01*
X133143738Y-48977700D02*
X134896338Y-48977700D01*
G75*
G02*
X135096338Y-49177700I0J-200000D01*
G01*
X135096338Y-50930300D01*
G75*
G02*
X134896338Y-51130300I-200000J0D01*
G01*
X133143738Y-51130300D01*
G75*
G02*
X132943738Y-50930300I0J200000D01*
G01*
X132943738Y-49177700D01*
G75*
G02*
X133143738Y-48977700I200000J0D01*
G01*
G37*
D16*
X134020038Y-52594000D03*
X134020038Y-55134000D03*
X134020038Y-57674000D03*
X134020038Y-60214000D03*
X134020038Y-62754000D03*
X134020038Y-65294000D03*
X134020038Y-67834000D03*
X134020038Y-70374000D03*
X134020038Y-72914000D03*
X134020038Y-75454000D03*
X134020038Y-77994000D03*
X149260038Y-77994000D03*
X149260038Y-75454000D03*
X149260038Y-72914000D03*
X149260038Y-70374000D03*
X149260038Y-67834000D03*
X149260038Y-65294000D03*
X149260038Y-62754000D03*
X149260038Y-60214000D03*
X149260038Y-57674000D03*
X149260038Y-55134000D03*
X149260038Y-52594000D03*
X149260038Y-50054000D03*
%TD*%
%TO.C,J4*%
G36*
G01*
X104236229Y-50363552D02*
X105910403Y-50068350D01*
G75*
G02*
X106142095Y-50230582I34730J-196962D01*
G01*
X106437297Y-51904756D01*
G75*
G02*
X106275065Y-52136448I-196962J-34730D01*
G01*
X104600891Y-52431650D01*
G75*
G02*
X104369199Y-52269418I-34730J196962D01*
G01*
X104073997Y-50595244D01*
G75*
G02*
X104236229Y-50363552I196962J34730D01*
G01*
G37*
G36*
G01*
X102571904Y-50657018D02*
X102571904Y-50657018D01*
G75*
G02*
X103788283Y-51508735I182331J-1034048D01*
G01*
X103788283Y-51508735D01*
G75*
G02*
X102936566Y-52725114I-1034048J-182331D01*
G01*
X102936566Y-52725114D01*
G75*
G02*
X101720187Y-51873397I-182331J1034048D01*
G01*
X101720187Y-51873397D01*
G75*
G02*
X102571904Y-50657018I1034048J182331D01*
G01*
G37*
G36*
G01*
X100070493Y-51098085D02*
X100070493Y-51098085D01*
G75*
G02*
X101286872Y-51949802I182331J-1034048D01*
G01*
X101286872Y-51949802D01*
G75*
G02*
X100435155Y-53166181I-1034048J-182331D01*
G01*
X100435155Y-53166181D01*
G75*
G02*
X99218776Y-52314464I-182331J1034048D01*
G01*
X99218776Y-52314464D01*
G75*
G02*
X100070493Y-51098085I1034048J182331D01*
G01*
G37*
G36*
G01*
X97569081Y-51539151D02*
X97569081Y-51539151D01*
G75*
G02*
X98785460Y-52390868I182331J-1034048D01*
G01*
X98785460Y-52390868D01*
G75*
G02*
X97933743Y-53607247I-1034048J-182331D01*
G01*
X97933743Y-53607247D01*
G75*
G02*
X96717364Y-52755530I-182331J1034048D01*
G01*
X96717364Y-52755530D01*
G75*
G02*
X97569081Y-51539151I1034048J182331D01*
G01*
G37*
G36*
G01*
X95067669Y-51980217D02*
X95067669Y-51980217D01*
G75*
G02*
X96284048Y-52831934I182331J-1034048D01*
G01*
X96284048Y-52831934D01*
G75*
G02*
X95432331Y-54048313I-1034048J-182331D01*
G01*
X95432331Y-54048313D01*
G75*
G02*
X94215952Y-53196596I-182331J1034048D01*
G01*
X94215952Y-53196596D01*
G75*
G02*
X95067669Y-51980217I1034048J182331D01*
G01*
G37*
G36*
G01*
X92566258Y-52421284D02*
X92566258Y-52421284D01*
G75*
G02*
X93782637Y-53273001I182331J-1034048D01*
G01*
X93782637Y-53273001D01*
G75*
G02*
X92930920Y-54489380I-1034048J-182331D01*
G01*
X92930920Y-54489380D01*
G75*
G02*
X91714541Y-53637663I-182331J1034048D01*
G01*
X91714541Y-53637663D01*
G75*
G02*
X92566258Y-52421284I1034048J182331D01*
G01*
G37*
%TD*%
D14*
%TO.C,R1*%
X174863760Y-52324000D03*
D17*
X185023760Y-52324000D03*
%TD*%
D14*
%TO.C,R2*%
X174830740Y-49022000D03*
D17*
X184990740Y-49022000D03*
%TD*%
D18*
%TO.C,J5*%
X93960000Y-110350000D03*
%TD*%
%TO.C,J6*%
X93960000Y-72150000D03*
%TD*%
%TO.C,J7*%
X189250000Y-72150000D03*
%TD*%
%TO.C,J8*%
X184785000Y-109220000D03*
%TD*%
%TO.C,J9*%
X128500000Y-68750000D03*
%TD*%
%TO.C,J10*%
X128500000Y-106850000D03*
%TD*%
%TO.C,J11*%
X154910000Y-68750000D03*
%TD*%
%TO.C,J12*%
X154910000Y-106850000D03*
%TD*%
%TO.C,J1*%
G36*
G01*
X165266000Y-47718000D02*
X166966000Y-47718000D01*
G75*
G02*
X167166000Y-47918000I0J-200000D01*
G01*
X167166000Y-49618000D01*
G75*
G02*
X166966000Y-49818000I-200000J0D01*
G01*
X165266000Y-49818000D01*
G75*
G02*
X165066000Y-49618000I0J200000D01*
G01*
X165066000Y-47918000D01*
G75*
G02*
X165266000Y-47718000I200000J0D01*
G01*
G37*
D19*
X163576000Y-48768000D03*
X161036000Y-48768000D03*
X158496000Y-48768000D03*
X155956000Y-48768000D03*
%TD*%
%TO.C,SJ1*%
G36*
G01*
X172065000Y-51246000D02*
X172065000Y-49846000D01*
G75*
G02*
X172066000Y-49845000I1000J0D01*
G01*
X172866000Y-49845000D01*
G75*
G02*
X172867000Y-49846000I0J-1000D01*
G01*
X172867000Y-51246000D01*
G75*
G02*
X172866000Y-51247000I-1000J0D01*
G01*
X172066000Y-51247000D01*
G75*
G02*
X172065000Y-51246000I0J1000D01*
G01*
G37*
G36*
G01*
X171165000Y-51246000D02*
X171165000Y-49846000D01*
G75*
G02*
X171166000Y-49845000I1000J0D01*
G01*
X171966000Y-49845000D01*
G75*
G02*
X171967000Y-49846000I0J-1000D01*
G01*
X171967000Y-51246000D01*
G75*
G02*
X171966000Y-51247000I-1000J0D01*
G01*
X171166000Y-51247000D01*
G75*
G02*
X171165000Y-51246000I0J1000D01*
G01*
G37*
G36*
G01*
X171165000Y-51246000D02*
X171165000Y-49846000D01*
G75*
G02*
X171166000Y-49845000I1000J0D01*
G01*
X171966000Y-49845000D01*
G75*
G02*
X171967000Y-49846000I0J-1000D01*
G01*
X171967000Y-51246000D01*
G75*
G02*
X171966000Y-51247000I-1000J0D01*
G01*
X171166000Y-51247000D01*
G75*
G02*
X171165000Y-51246000I0J1000D01*
G01*
G37*
G36*
G01*
X172065000Y-51246000D02*
X172065000Y-49846000D01*
G75*
G02*
X172066000Y-49845000I1000J0D01*
G01*
X172866000Y-49845000D01*
G75*
G02*
X172867000Y-49846000I0J-1000D01*
G01*
X172867000Y-51246000D01*
G75*
G02*
X172866000Y-51247000I-1000J0D01*
G01*
X172066000Y-51247000D01*
G75*
G02*
X172065000Y-51246000I0J1000D01*
G01*
G37*
%TD*%
%TO.C,D28*%
G36*
G01*
X155540000Y-117004999D02*
X154340000Y-117004999D01*
G75*
G02*
X154140000Y-116804999I0J200000D01*
G01*
X154140000Y-115604999D01*
G75*
G02*
X154340000Y-115404999I200000J0D01*
G01*
X155540000Y-115404999D01*
G75*
G02*
X155740000Y-115604999I0J-200000D01*
G01*
X155740000Y-116804999D01*
G75*
G02*
X155540000Y-117004999I-200000J0D01*
G01*
G37*
G36*
G01*
X155540000Y-113854999D02*
X154340000Y-113854999D01*
G75*
G02*
X154140000Y-113654999I0J200000D01*
G01*
X154140000Y-112454999D01*
G75*
G02*
X154340000Y-112254999I200000J0D01*
G01*
X155540000Y-112254999D01*
G75*
G02*
X155740000Y-112454999I0J-200000D01*
G01*
X155740000Y-113654999D01*
G75*
G02*
X155540000Y-113854999I-200000J0D01*
G01*
G37*
G36*
G01*
X155740000Y-119529999D02*
X154140000Y-119529999D01*
G75*
G02*
X153940000Y-119329999I0J200000D01*
G01*
X153940000Y-117729999D01*
G75*
G02*
X154140000Y-117529999I200000J0D01*
G01*
X155740000Y-117529999D01*
G75*
G02*
X155940000Y-117729999I0J-200000D01*
G01*
X155940000Y-119329999D01*
G75*
G02*
X155740000Y-119529999I-200000J0D01*
G01*
G37*
D14*
X154940000Y-110729999D03*
%TD*%
%TO.C,J13*%
G36*
G01*
X178650000Y-110270000D02*
X176950000Y-110270000D01*
G75*
G02*
X176750000Y-110070000I0J200000D01*
G01*
X176750000Y-108370000D01*
G75*
G02*
X176950000Y-108170000I200000J0D01*
G01*
X178650000Y-108170000D01*
G75*
G02*
X178850000Y-108370000I0J-200000D01*
G01*
X178850000Y-110070000D01*
G75*
G02*
X178650000Y-110270000I-200000J0D01*
G01*
G37*
D19*
X180340000Y-109220000D03*
%TD*%
%TO.C,J14*%
G36*
G01*
X129320000Y-49950001D02*
X129320000Y-51650001D01*
G75*
G02*
X129120000Y-51850001I-200000J0D01*
G01*
X127420000Y-51850001D01*
G75*
G02*
X127220000Y-51650001I0J200000D01*
G01*
X127220000Y-49950001D01*
G75*
G02*
X127420000Y-49750001I200000J0D01*
G01*
X129120000Y-49750001D01*
G75*
G02*
X129320000Y-49950001I0J-200000D01*
G01*
G37*
X128270000Y-48260001D03*
%TD*%
D20*
%TO.C,SW3*%
X120329000Y-48217000D03*
X123329000Y-48217000D03*
G36*
G01*
X123229000Y-49667000D02*
X123229000Y-50917000D01*
G75*
G02*
X123029000Y-51117000I-200000J0D01*
G01*
X122129000Y-51117000D01*
G75*
G02*
X121929000Y-50917000I0J200000D01*
G01*
X121929000Y-49667000D01*
G75*
G02*
X122129000Y-49467000I200000J0D01*
G01*
X123029000Y-49467000D01*
G75*
G02*
X123229000Y-49667000I0J-200000D01*
G01*
G37*
G36*
G01*
X124729000Y-49667000D02*
X124729000Y-50917000D01*
G75*
G02*
X124529000Y-51117000I-200000J0D01*
G01*
X123629000Y-51117000D01*
G75*
G02*
X123429000Y-50917000I0J200000D01*
G01*
X123429000Y-49667000D01*
G75*
G02*
X123629000Y-49467000I200000J0D01*
G01*
X124529000Y-49467000D01*
G75*
G02*
X124729000Y-49667000I0J-200000D01*
G01*
G37*
G36*
G01*
X120229000Y-49667000D02*
X120229000Y-50917000D01*
G75*
G02*
X120029000Y-51117000I-200000J0D01*
G01*
X119129000Y-51117000D01*
G75*
G02*
X118929000Y-50917000I0J200000D01*
G01*
X118929000Y-49667000D01*
G75*
G02*
X119129000Y-49467000I200000J0D01*
G01*
X120029000Y-49467000D01*
G75*
G02*
X120229000Y-49667000I0J-200000D01*
G01*
G37*
G36*
G01*
X118779000Y-46667000D02*
X118779000Y-47567000D01*
G75*
G02*
X118579000Y-47767000I-200000J0D01*
G01*
X117679000Y-47767000D01*
G75*
G02*
X117479000Y-47567000I0J200000D01*
G01*
X117479000Y-46667000D01*
G75*
G02*
X117679000Y-46467000I200000J0D01*
G01*
X118579000Y-46467000D01*
G75*
G02*
X118779000Y-46667000I0J-200000D01*
G01*
G37*
G36*
G01*
X118779000Y-48867000D02*
X118779000Y-49767000D01*
G75*
G02*
X118579000Y-49967000I-200000J0D01*
G01*
X117679000Y-49967000D01*
G75*
G02*
X117479000Y-49767000I0J200000D01*
G01*
X117479000Y-48867000D01*
G75*
G02*
X117679000Y-48667000I200000J0D01*
G01*
X118579000Y-48667000D01*
G75*
G02*
X118779000Y-48867000I0J-200000D01*
G01*
G37*
G36*
G01*
X126179000Y-48867000D02*
X126179000Y-49767000D01*
G75*
G02*
X125979000Y-49967000I-200000J0D01*
G01*
X125079000Y-49967000D01*
G75*
G02*
X124879000Y-49767000I0J200000D01*
G01*
X124879000Y-48867000D01*
G75*
G02*
X125079000Y-48667000I200000J0D01*
G01*
X125979000Y-48667000D01*
G75*
G02*
X126179000Y-48867000I0J-200000D01*
G01*
G37*
G36*
G01*
X126179000Y-46667000D02*
X126179000Y-47567000D01*
G75*
G02*
X125979000Y-47767000I-200000J0D01*
G01*
X125079000Y-47767000D01*
G75*
G02*
X124879000Y-47567000I0J200000D01*
G01*
X124879000Y-46667000D01*
G75*
G02*
X125079000Y-46467000I200000J0D01*
G01*
X125979000Y-46467000D01*
G75*
G02*
X126179000Y-46667000I0J-200000D01*
G01*
G37*
%TD*%
%TO.C,SW4*%
X123329000Y-48217000D03*
X120329000Y-48217000D03*
%TD*%
M02*
