G04 #@! TF.FileFunction,Legend,Bot*
%FSLAX46Y46*%
G04 Gerber Fmt 4.6, Leading zero omitted, Abs format (unit mm)*
G04 Created by KiCad (PCBNEW 4.0.7) date 03/27/18 08:57:17*
%MOMM*%
%LPD*%
G01*
G04 APERTURE LIST*
%ADD10C,0.100000*%
%ADD11C,0.250000*%
%ADD12C,0.200000*%
%ADD13C,0.120000*%
%ADD14C,0.381000*%
%ADD15C,0.150000*%
G04 APERTURE END LIST*
D10*
D11*
X159257904Y-50300000D02*
X159353142Y-50252381D01*
X159495999Y-50252381D01*
X159638857Y-50300000D01*
X159734095Y-50395238D01*
X159781714Y-50490476D01*
X159829333Y-50680952D01*
X159829333Y-50823810D01*
X159781714Y-51014286D01*
X159734095Y-51109524D01*
X159638857Y-51204762D01*
X159495999Y-51252381D01*
X159400761Y-51252381D01*
X159257904Y-51204762D01*
X159210285Y-51157143D01*
X159210285Y-50823810D01*
X159400761Y-50823810D01*
X158781714Y-51252381D02*
X158781714Y-50252381D01*
X158210285Y-51252381D01*
X158210285Y-50252381D01*
X157734095Y-51252381D02*
X157734095Y-50252381D01*
X157496000Y-50252381D01*
X157353142Y-50300000D01*
X157257904Y-50395238D01*
X157210285Y-50490476D01*
X157162666Y-50680952D01*
X157162666Y-50823810D01*
X157210285Y-51014286D01*
X157257904Y-51109524D01*
X157353142Y-51204762D01*
X157496000Y-51252381D01*
X157734095Y-51252381D01*
X164909333Y-50252381D02*
X164576000Y-51252381D01*
X164242666Y-50252381D01*
X163337904Y-51157143D02*
X163385523Y-51204762D01*
X163528380Y-51252381D01*
X163623618Y-51252381D01*
X163766476Y-51204762D01*
X163861714Y-51109524D01*
X163909333Y-51014286D01*
X163956952Y-50823810D01*
X163956952Y-50680952D01*
X163909333Y-50490476D01*
X163861714Y-50395238D01*
X163766476Y-50300000D01*
X163623618Y-50252381D01*
X163528380Y-50252381D01*
X163385523Y-50300000D01*
X163337904Y-50347619D01*
X162337904Y-51157143D02*
X162385523Y-51204762D01*
X162528380Y-51252381D01*
X162623618Y-51252381D01*
X162766476Y-51204762D01*
X162861714Y-51109524D01*
X162909333Y-51014286D01*
X162956952Y-50823810D01*
X162956952Y-50680952D01*
X162909333Y-50490476D01*
X162861714Y-50395238D01*
X162766476Y-50300000D01*
X162623618Y-50252381D01*
X162528380Y-50252381D01*
X162385523Y-50300000D01*
X162337904Y-50347619D01*
X161536000Y-51252381D02*
X161536000Y-50252381D01*
X161297905Y-50252381D01*
X161155047Y-50300000D01*
X161059809Y-50395238D01*
X161012190Y-50490476D01*
X160964571Y-50680952D01*
X160964571Y-50823810D01*
X161012190Y-51014286D01*
X161059809Y-51109524D01*
X161155047Y-51204762D01*
X161297905Y-51252381D01*
X161536000Y-51252381D01*
X160536000Y-51252381D02*
X160536000Y-50252381D01*
D12*
X94545000Y-61970000D02*
X94545000Y-67770000D01*
X92145000Y-61970000D02*
X94545000Y-61970000D01*
X92145000Y-67770000D02*
X92145000Y-61970000D01*
X92145000Y-67695000D02*
X94545000Y-67695000D01*
X92145000Y-67570000D02*
X94545000Y-67570000D01*
X94545000Y-67795000D02*
X92145000Y-67795000D01*
X92145000Y-67395000D02*
X94545000Y-67395000D01*
X92145000Y-67220000D02*
X94545000Y-67220000D01*
X92145000Y-67045000D02*
X94545000Y-67045000D01*
X95180000Y-81020000D02*
X95180000Y-86820000D01*
X92780000Y-81020000D02*
X95180000Y-81020000D01*
X92780000Y-86820000D02*
X92780000Y-81020000D01*
X92780000Y-86745000D02*
X95180000Y-86745000D01*
X92780000Y-86620000D02*
X95180000Y-86620000D01*
X95180000Y-86845000D02*
X92780000Y-86845000D01*
X92780000Y-86445000D02*
X95180000Y-86445000D01*
X92780000Y-86270000D02*
X95180000Y-86270000D01*
X92780000Y-86095000D02*
X95180000Y-86095000D01*
X95180000Y-100070000D02*
X95180000Y-105870000D01*
X92780000Y-100070000D02*
X95180000Y-100070000D01*
X92780000Y-105870000D02*
X92780000Y-100070000D01*
X92780000Y-105795000D02*
X95180000Y-105795000D01*
X92780000Y-105670000D02*
X95180000Y-105670000D01*
X95180000Y-105895000D02*
X92780000Y-105895000D01*
X92780000Y-105495000D02*
X95180000Y-105495000D01*
X92780000Y-105320000D02*
X95180000Y-105320000D01*
X92780000Y-105145000D02*
X95180000Y-105145000D01*
X94545000Y-118815000D02*
X94545000Y-124615000D01*
X92145000Y-118815000D02*
X94545000Y-118815000D01*
X92145000Y-124615000D02*
X92145000Y-118815000D01*
X92145000Y-124540000D02*
X94545000Y-124540000D01*
X92145000Y-124415000D02*
X94545000Y-124415000D01*
X94545000Y-124640000D02*
X92145000Y-124640000D01*
X92145000Y-124240000D02*
X94545000Y-124240000D01*
X92145000Y-124065000D02*
X94545000Y-124065000D01*
X92145000Y-123890000D02*
X94545000Y-123890000D01*
X114230000Y-59430000D02*
X114230000Y-65230000D01*
X111830000Y-59430000D02*
X114230000Y-59430000D01*
X111830000Y-65230000D02*
X111830000Y-59430000D01*
X111830000Y-65155000D02*
X114230000Y-65155000D01*
X111830000Y-65030000D02*
X114230000Y-65030000D01*
X114230000Y-65255000D02*
X111830000Y-65255000D01*
X111830000Y-64855000D02*
X114230000Y-64855000D01*
X111830000Y-64680000D02*
X114230000Y-64680000D01*
X111830000Y-64505000D02*
X114230000Y-64505000D01*
X114230000Y-78955000D02*
X114230000Y-84755000D01*
X111830000Y-78955000D02*
X114230000Y-78955000D01*
X111830000Y-84755000D02*
X111830000Y-78955000D01*
X111830000Y-84680000D02*
X114230000Y-84680000D01*
X111830000Y-84555000D02*
X114230000Y-84555000D01*
X114230000Y-84780000D02*
X111830000Y-84780000D01*
X111830000Y-84380000D02*
X114230000Y-84380000D01*
X111830000Y-84205000D02*
X114230000Y-84205000D01*
X111830000Y-84030000D02*
X114230000Y-84030000D01*
X114230000Y-97835000D02*
X114230000Y-103635000D01*
X111830000Y-97835000D02*
X114230000Y-97835000D01*
X111830000Y-103635000D02*
X111830000Y-97835000D01*
X111830000Y-103560000D02*
X114230000Y-103560000D01*
X111830000Y-103435000D02*
X114230000Y-103435000D01*
X114230000Y-103660000D02*
X111830000Y-103660000D01*
X111830000Y-103260000D02*
X114230000Y-103260000D01*
X111830000Y-103085000D02*
X114230000Y-103085000D01*
X111830000Y-102910000D02*
X114230000Y-102910000D01*
X114230000Y-116580000D02*
X114230000Y-122380000D01*
X111830000Y-116580000D02*
X114230000Y-116580000D01*
X111830000Y-122380000D02*
X111830000Y-116580000D01*
X111830000Y-122305000D02*
X114230000Y-122305000D01*
X111830000Y-122180000D02*
X114230000Y-122180000D01*
X114230000Y-122405000D02*
X111830000Y-122405000D01*
X111830000Y-122005000D02*
X114230000Y-122005000D01*
X111830000Y-121830000D02*
X114230000Y-121830000D01*
X111830000Y-121655000D02*
X114230000Y-121655000D01*
X132010000Y-57220000D02*
X132010000Y-63020000D01*
X129610000Y-57220000D02*
X132010000Y-57220000D01*
X129610000Y-63020000D02*
X129610000Y-57220000D01*
X129610000Y-62945000D02*
X132010000Y-62945000D01*
X129610000Y-62820000D02*
X132010000Y-62820000D01*
X132010000Y-63045000D02*
X129610000Y-63045000D01*
X129610000Y-62645000D02*
X132010000Y-62645000D01*
X129610000Y-62470000D02*
X132010000Y-62470000D01*
X129610000Y-62295000D02*
X132010000Y-62295000D01*
X132645000Y-81020000D02*
X132645000Y-86820000D01*
X130245000Y-81020000D02*
X132645000Y-81020000D01*
X130245000Y-86820000D02*
X130245000Y-81020000D01*
X130245000Y-86745000D02*
X132645000Y-86745000D01*
X130245000Y-86620000D02*
X132645000Y-86620000D01*
X132645000Y-86845000D02*
X130245000Y-86845000D01*
X130245000Y-86445000D02*
X132645000Y-86445000D01*
X130245000Y-86270000D02*
X132645000Y-86270000D01*
X130245000Y-86095000D02*
X132645000Y-86095000D01*
X133280000Y-94990000D02*
X133280000Y-100790000D01*
X130880000Y-94990000D02*
X133280000Y-94990000D01*
X130880000Y-100790000D02*
X130880000Y-94990000D01*
X130880000Y-100715000D02*
X133280000Y-100715000D01*
X130880000Y-100590000D02*
X133280000Y-100590000D01*
X133280000Y-100815000D02*
X130880000Y-100815000D01*
X130880000Y-100415000D02*
X133280000Y-100415000D01*
X130880000Y-100240000D02*
X133280000Y-100240000D01*
X130880000Y-100065000D02*
X133280000Y-100065000D01*
X133280000Y-114345000D02*
X133280000Y-120145000D01*
X130880000Y-114345000D02*
X133280000Y-114345000D01*
X130880000Y-120145000D02*
X130880000Y-114345000D01*
X130880000Y-120070000D02*
X133280000Y-120070000D01*
X130880000Y-119945000D02*
X133280000Y-119945000D01*
X133280000Y-120170000D02*
X130880000Y-120170000D01*
X130880000Y-119770000D02*
X133280000Y-119770000D01*
X130880000Y-119595000D02*
X133280000Y-119595000D01*
X130880000Y-119420000D02*
X133280000Y-119420000D01*
X145345000Y-67240000D02*
X139545000Y-67240000D01*
X145345000Y-64840000D02*
X145345000Y-67240000D01*
X139545000Y-64840000D02*
X145345000Y-64840000D01*
X139620000Y-64840000D02*
X139620000Y-67240000D01*
X139745000Y-64840000D02*
X139745000Y-67240000D01*
X139520000Y-67240000D02*
X139520000Y-64840000D01*
X139920000Y-64840000D02*
X139920000Y-67240000D01*
X140095000Y-64840000D02*
X140095000Y-67240000D01*
X140270000Y-64840000D02*
X140270000Y-67240000D01*
X152330000Y-80715000D02*
X152330000Y-86515000D01*
X149930000Y-80715000D02*
X152330000Y-80715000D01*
X149930000Y-86515000D02*
X149930000Y-80715000D01*
X149930000Y-86440000D02*
X152330000Y-86440000D01*
X149930000Y-86315000D02*
X152330000Y-86315000D01*
X152330000Y-86540000D02*
X149930000Y-86540000D01*
X149930000Y-86140000D02*
X152330000Y-86140000D01*
X149930000Y-85965000D02*
X152330000Y-85965000D01*
X149930000Y-85790000D02*
X152330000Y-85790000D01*
X152330000Y-93085000D02*
X152330000Y-98885000D01*
X149930000Y-93085000D02*
X152330000Y-93085000D01*
X149930000Y-98885000D02*
X149930000Y-93085000D01*
X149930000Y-98810000D02*
X152330000Y-98810000D01*
X149930000Y-98685000D02*
X152330000Y-98685000D01*
X152330000Y-98910000D02*
X149930000Y-98910000D01*
X149930000Y-98510000D02*
X152330000Y-98510000D01*
X149930000Y-98335000D02*
X152330000Y-98335000D01*
X149930000Y-98160000D02*
X152330000Y-98160000D01*
X152330000Y-111805000D02*
X152330000Y-117605000D01*
X149930000Y-111805000D02*
X152330000Y-111805000D01*
X149930000Y-117605000D02*
X149930000Y-111805000D01*
X149930000Y-117530000D02*
X152330000Y-117530000D01*
X149930000Y-117405000D02*
X152330000Y-117405000D01*
X152330000Y-117630000D02*
X149930000Y-117630000D01*
X149930000Y-117230000D02*
X152330000Y-117230000D01*
X149930000Y-117055000D02*
X152330000Y-117055000D01*
X149930000Y-116880000D02*
X152330000Y-116880000D01*
X171380000Y-57195000D02*
X171380000Y-62995000D01*
X168980000Y-57195000D02*
X171380000Y-57195000D01*
X168980000Y-62995000D02*
X168980000Y-57195000D01*
X168980000Y-62920000D02*
X171380000Y-62920000D01*
X168980000Y-62795000D02*
X171380000Y-62795000D01*
X171380000Y-63020000D02*
X168980000Y-63020000D01*
X168980000Y-62620000D02*
X171380000Y-62620000D01*
X168980000Y-62445000D02*
X171380000Y-62445000D01*
X168980000Y-62270000D02*
X171380000Y-62270000D01*
X171380000Y-76575000D02*
X171380000Y-82375000D01*
X168980000Y-76575000D02*
X171380000Y-76575000D01*
X168980000Y-82375000D02*
X168980000Y-76575000D01*
X168980000Y-82300000D02*
X171380000Y-82300000D01*
X168980000Y-82175000D02*
X171380000Y-82175000D01*
X171380000Y-82400000D02*
X168980000Y-82400000D01*
X168980000Y-82000000D02*
X171380000Y-82000000D01*
X168980000Y-81825000D02*
X171380000Y-81825000D01*
X168980000Y-81650000D02*
X171380000Y-81650000D01*
X171380000Y-95080000D02*
X171380000Y-100880000D01*
X168980000Y-95080000D02*
X171380000Y-95080000D01*
X168980000Y-100880000D02*
X168980000Y-95080000D01*
X168980000Y-100805000D02*
X171380000Y-100805000D01*
X168980000Y-100680000D02*
X171380000Y-100680000D01*
X171380000Y-100905000D02*
X168980000Y-100905000D01*
X168980000Y-100505000D02*
X171380000Y-100505000D01*
X168980000Y-100330000D02*
X171380000Y-100330000D01*
X168980000Y-100155000D02*
X171380000Y-100155000D01*
X180270000Y-113315000D02*
X180270000Y-119115000D01*
X177870000Y-113315000D02*
X180270000Y-113315000D01*
X177870000Y-119115000D02*
X177870000Y-113315000D01*
X177870000Y-119040000D02*
X180270000Y-119040000D01*
X177870000Y-118915000D02*
X180270000Y-118915000D01*
X180270000Y-119140000D02*
X177870000Y-119140000D01*
X177870000Y-118740000D02*
X180270000Y-118740000D01*
X177870000Y-118565000D02*
X180270000Y-118565000D01*
X177870000Y-118390000D02*
X180270000Y-118390000D01*
X190430000Y-59590000D02*
X190430000Y-65390000D01*
X188030000Y-59590000D02*
X190430000Y-59590000D01*
X188030000Y-65390000D02*
X188030000Y-59590000D01*
X188030000Y-65315000D02*
X190430000Y-65315000D01*
X188030000Y-65190000D02*
X190430000Y-65190000D01*
X190430000Y-65415000D02*
X188030000Y-65415000D01*
X188030000Y-65015000D02*
X190430000Y-65015000D01*
X188030000Y-64840000D02*
X190430000Y-64840000D01*
X188030000Y-64665000D02*
X190430000Y-64665000D01*
X190430000Y-78480000D02*
X190430000Y-84280000D01*
X188030000Y-78480000D02*
X190430000Y-78480000D01*
X188030000Y-84280000D02*
X188030000Y-78480000D01*
X188030000Y-84205000D02*
X190430000Y-84205000D01*
X188030000Y-84080000D02*
X190430000Y-84080000D01*
X190430000Y-84305000D02*
X188030000Y-84305000D01*
X188030000Y-83905000D02*
X190430000Y-83905000D01*
X188030000Y-83730000D02*
X190430000Y-83730000D01*
X188030000Y-83555000D02*
X190430000Y-83555000D01*
X190430000Y-96735000D02*
X190430000Y-102535000D01*
X188030000Y-96735000D02*
X190430000Y-96735000D01*
X188030000Y-102535000D02*
X188030000Y-96735000D01*
X188030000Y-102460000D02*
X190430000Y-102460000D01*
X188030000Y-102335000D02*
X190430000Y-102335000D01*
X190430000Y-102560000D02*
X188030000Y-102560000D01*
X188030000Y-102160000D02*
X190430000Y-102160000D01*
X188030000Y-101985000D02*
X190430000Y-101985000D01*
X188030000Y-101810000D02*
X190430000Y-101810000D01*
X184080000Y-113100000D02*
X184080000Y-118900000D01*
X181680000Y-113100000D02*
X184080000Y-113100000D01*
X181680000Y-118900000D02*
X181680000Y-113100000D01*
X181680000Y-118825000D02*
X184080000Y-118825000D01*
X181680000Y-118700000D02*
X184080000Y-118700000D01*
X184080000Y-118925000D02*
X181680000Y-118925000D01*
X181680000Y-118525000D02*
X184080000Y-118525000D01*
X181680000Y-118350000D02*
X184080000Y-118350000D01*
X181680000Y-118175000D02*
X184080000Y-118175000D01*
X202350000Y-77400000D02*
X196550000Y-77400000D01*
X202350000Y-75000000D02*
X202350000Y-77400000D01*
X196550000Y-75000000D02*
X202350000Y-75000000D01*
X196625000Y-75000000D02*
X196625000Y-77400000D01*
X196750000Y-75000000D02*
X196750000Y-77400000D01*
X196525000Y-77400000D02*
X196525000Y-75000000D01*
X196925000Y-75000000D02*
X196925000Y-77400000D01*
X197100000Y-75000000D02*
X197100000Y-77400000D01*
X197275000Y-75000000D02*
X197275000Y-77400000D01*
X203550000Y-95180000D02*
X197750000Y-95180000D01*
X203550000Y-92780000D02*
X203550000Y-95180000D01*
X197750000Y-92780000D02*
X203550000Y-92780000D01*
X197825000Y-92780000D02*
X197825000Y-95180000D01*
X197950000Y-92780000D02*
X197950000Y-95180000D01*
X197725000Y-95180000D02*
X197725000Y-92780000D01*
X198125000Y-92780000D02*
X198125000Y-95180000D01*
X198300000Y-92780000D02*
X198300000Y-95180000D01*
X198475000Y-92780000D02*
X198475000Y-95180000D01*
X203460000Y-97720000D02*
X197660000Y-97720000D01*
X203460000Y-95320000D02*
X203460000Y-97720000D01*
X197660000Y-95320000D02*
X203460000Y-95320000D01*
X197735000Y-95320000D02*
X197735000Y-97720000D01*
X197860000Y-95320000D02*
X197860000Y-97720000D01*
X197635000Y-97720000D02*
X197635000Y-95320000D01*
X198035000Y-95320000D02*
X198035000Y-97720000D01*
X198210000Y-95320000D02*
X198210000Y-97720000D01*
X198385000Y-95320000D02*
X198385000Y-97720000D01*
D13*
X196275000Y-55600000D02*
X206875000Y-55600000D01*
X194875000Y-55600000D02*
X194775000Y-55600000D01*
X195975000Y-49400000D02*
X194775000Y-49400000D01*
X199975000Y-49400000D02*
X197375000Y-49400000D01*
X202975000Y-49400000D02*
X201375000Y-49400000D01*
X206875000Y-49400000D02*
X204375000Y-49400000D01*
X194775000Y-55600000D02*
X194775000Y-49400000D01*
X206875000Y-49400000D02*
X206875000Y-50000000D01*
X206875000Y-55000000D02*
X206875000Y-55600000D01*
X208875000Y-50000000D02*
X208875000Y-55000000D01*
X206875000Y-50000000D02*
X208875000Y-50000000D01*
X206875000Y-55000000D02*
X208875000Y-55000000D01*
D14*
X79872288Y-70293812D02*
X78094288Y-70293812D01*
X78094288Y-70293812D02*
X78094288Y-68515812D01*
X78094288Y-59371812D02*
X78094288Y-57593812D01*
X78094288Y-57593812D02*
X79872288Y-57593812D01*
X90794288Y-59371812D02*
X90794288Y-57593812D01*
X90794288Y-57593812D02*
X89016288Y-57593812D01*
X90794288Y-68515812D02*
X90794288Y-70293812D01*
X90794288Y-70293812D02*
X89016288Y-70293812D01*
X79852884Y-89405510D02*
X78074884Y-89405510D01*
X78074884Y-89405510D02*
X78074884Y-87627510D01*
X78074884Y-78483510D02*
X78074884Y-76705510D01*
X78074884Y-76705510D02*
X79852884Y-76705510D01*
X90774884Y-78483510D02*
X90774884Y-76705510D01*
X90774884Y-76705510D02*
X88996884Y-76705510D01*
X90774884Y-87627510D02*
X90774884Y-89405510D01*
X90774884Y-89405510D02*
X88996884Y-89405510D01*
X79852884Y-108457670D02*
X78074884Y-108457670D01*
X78074884Y-108457670D02*
X78074884Y-106679670D01*
X78074884Y-97535670D02*
X78074884Y-95757670D01*
X78074884Y-95757670D02*
X79852884Y-95757670D01*
X90774884Y-97535670D02*
X90774884Y-95757670D01*
X90774884Y-95757670D02*
X88996884Y-95757670D01*
X90774884Y-106679670D02*
X90774884Y-108457670D01*
X90774884Y-108457670D02*
X88996884Y-108457670D01*
X79852884Y-127450292D02*
X78074884Y-127450292D01*
X78074884Y-127450292D02*
X78074884Y-125672292D01*
X78074884Y-116528292D02*
X78074884Y-114750292D01*
X78074884Y-114750292D02*
X79852884Y-114750292D01*
X90774884Y-116528292D02*
X90774884Y-114750292D01*
X90774884Y-114750292D02*
X88996884Y-114750292D01*
X90774884Y-125672292D02*
X90774884Y-127450292D01*
X90774884Y-127450292D02*
X88996884Y-127450292D01*
X98964582Y-67971830D02*
X97186582Y-67971830D01*
X97186582Y-67971830D02*
X97186582Y-66193830D01*
X97186582Y-57049830D02*
X97186582Y-55271830D01*
X97186582Y-55271830D02*
X98964582Y-55271830D01*
X109886582Y-57049830D02*
X109886582Y-55271830D01*
X109886582Y-55271830D02*
X108108582Y-55271830D01*
X109886582Y-66193830D02*
X109886582Y-67971830D01*
X109886582Y-67971830D02*
X108108582Y-67971830D01*
X98964582Y-87083528D02*
X97186582Y-87083528D01*
X97186582Y-87083528D02*
X97186582Y-85305528D01*
X97186582Y-76161528D02*
X97186582Y-74383528D01*
X97186582Y-74383528D02*
X98964582Y-74383528D01*
X109886582Y-76161528D02*
X109886582Y-74383528D01*
X109886582Y-74383528D02*
X108108582Y-74383528D01*
X109886582Y-85305528D02*
X109886582Y-87083528D01*
X109886582Y-87083528D02*
X108108582Y-87083528D01*
X98964582Y-106016612D02*
X97186582Y-106016612D01*
X97186582Y-106016612D02*
X97186582Y-104238612D01*
X97186582Y-95094612D02*
X97186582Y-93316612D01*
X97186582Y-93316612D02*
X98964582Y-93316612D01*
X109886582Y-95094612D02*
X109886582Y-93316612D01*
X109886582Y-93316612D02*
X108108582Y-93316612D01*
X109886582Y-104238612D02*
X109886582Y-106016612D01*
X109886582Y-106016612D02*
X108108582Y-106016612D01*
X98905044Y-125128310D02*
X97127044Y-125128310D01*
X97127044Y-125128310D02*
X97127044Y-123350310D01*
X97127044Y-114206310D02*
X97127044Y-112428310D01*
X97127044Y-112428310D02*
X98905044Y-112428310D01*
X109827044Y-114206310D02*
X109827044Y-112428310D01*
X109827044Y-112428310D02*
X108049044Y-112428310D01*
X109827044Y-123350310D02*
X109827044Y-125128310D01*
X109827044Y-125128310D02*
X108049044Y-125128310D01*
X117957204Y-65471234D02*
X116179204Y-65471234D01*
X116179204Y-65471234D02*
X116179204Y-63693234D01*
X116179204Y-54549234D02*
X116179204Y-52771234D01*
X116179204Y-52771234D02*
X117957204Y-52771234D01*
X128879204Y-54549234D02*
X128879204Y-52771234D01*
X128879204Y-52771234D02*
X127101204Y-52771234D01*
X128879204Y-63693234D02*
X128879204Y-65471234D01*
X128879204Y-65471234D02*
X127101204Y-65471234D01*
X117957204Y-84642470D02*
X116179204Y-84642470D01*
X116179204Y-84642470D02*
X116179204Y-82864470D01*
X116179204Y-73720470D02*
X116179204Y-71942470D01*
X116179204Y-71942470D02*
X117957204Y-71942470D01*
X128879204Y-73720470D02*
X128879204Y-71942470D01*
X128879204Y-71942470D02*
X127101204Y-71942470D01*
X128879204Y-82864470D02*
X128879204Y-84642470D01*
X128879204Y-84642470D02*
X127101204Y-84642470D01*
X117897666Y-103635092D02*
X116119666Y-103635092D01*
X116119666Y-103635092D02*
X116119666Y-101857092D01*
X116119666Y-92713092D02*
X116119666Y-90935092D01*
X116119666Y-90935092D02*
X117897666Y-90935092D01*
X128819666Y-92713092D02*
X128819666Y-90935092D01*
X128819666Y-90935092D02*
X127041666Y-90935092D01*
X128819666Y-101857092D02*
X128819666Y-103635092D01*
X128819666Y-103635092D02*
X127041666Y-103635092D01*
X117997472Y-122746790D02*
X116219472Y-122746790D01*
X116219472Y-122746790D02*
X116219472Y-120968790D01*
X116219472Y-111824790D02*
X116219472Y-110046790D01*
X116219472Y-110046790D02*
X117997472Y-110046790D01*
X128919472Y-111824790D02*
X128919472Y-110046790D01*
X128919472Y-110046790D02*
X127141472Y-110046790D01*
X128919472Y-120968790D02*
X128919472Y-122746790D01*
X128919472Y-122746790D02*
X127141472Y-122746790D01*
X137088172Y-63149252D02*
X135310172Y-63149252D01*
X135310172Y-63149252D02*
X135310172Y-61371252D01*
X135310172Y-52227252D02*
X135310172Y-50449252D01*
X135310172Y-50449252D02*
X137088172Y-50449252D01*
X148010172Y-52227252D02*
X148010172Y-50449252D01*
X148010172Y-50449252D02*
X146232172Y-50449252D01*
X148010172Y-61371252D02*
X148010172Y-63149252D01*
X148010172Y-63149252D02*
X146232172Y-63149252D01*
X137049632Y-82201412D02*
X135271632Y-82201412D01*
X135271632Y-82201412D02*
X135271632Y-80423412D01*
X135271632Y-71279412D02*
X135271632Y-69501412D01*
X135271632Y-69501412D02*
X137049632Y-69501412D01*
X147971632Y-71279412D02*
X147971632Y-69501412D01*
X147971632Y-69501412D02*
X146193632Y-69501412D01*
X147971632Y-80423412D02*
X147971632Y-82201412D01*
X147971632Y-82201412D02*
X146193632Y-82201412D01*
X137068902Y-101313110D02*
X135290902Y-101313110D01*
X135290902Y-101313110D02*
X135290902Y-99535110D01*
X135290902Y-90391110D02*
X135290902Y-88613110D01*
X135290902Y-88613110D02*
X137068902Y-88613110D01*
X147990902Y-90391110D02*
X147990902Y-88613110D01*
X147990902Y-88613110D02*
X146212902Y-88613110D01*
X147990902Y-99535110D02*
X147990902Y-101313110D01*
X147990902Y-101313110D02*
X146212902Y-101313110D01*
X137009364Y-120365270D02*
X135231364Y-120365270D01*
X135231364Y-120365270D02*
X135231364Y-118587270D01*
X135231364Y-109443270D02*
X135231364Y-107665270D01*
X135231364Y-107665270D02*
X137009364Y-107665270D01*
X147931364Y-109443270D02*
X147931364Y-107665270D01*
X147931364Y-107665270D02*
X146153364Y-107665270D01*
X147931364Y-118587270D02*
X147931364Y-120365270D01*
X147931364Y-120365270D02*
X146153364Y-120365270D01*
X156061524Y-65530772D02*
X154283524Y-65530772D01*
X154283524Y-65530772D02*
X154283524Y-63752772D01*
X154283524Y-54608772D02*
X154283524Y-52830772D01*
X154283524Y-52830772D02*
X156061524Y-52830772D01*
X166983524Y-54608772D02*
X166983524Y-52830772D01*
X166983524Y-52830772D02*
X165205524Y-52830772D01*
X166983524Y-63752772D02*
X166983524Y-65530772D01*
X166983524Y-65530772D02*
X165205524Y-65530772D01*
X156061524Y-84642470D02*
X154283524Y-84642470D01*
X154283524Y-84642470D02*
X154283524Y-82864470D01*
X154283524Y-73720470D02*
X154283524Y-71942470D01*
X154283524Y-71942470D02*
X156061524Y-71942470D01*
X166983524Y-73720470D02*
X166983524Y-71942470D01*
X166983524Y-71942470D02*
X165205524Y-71942470D01*
X166983524Y-82864470D02*
X166983524Y-84642470D01*
X166983524Y-84642470D02*
X165205524Y-84642470D01*
X156061524Y-103635092D02*
X154283524Y-103635092D01*
X154283524Y-103635092D02*
X154283524Y-101857092D01*
X154283524Y-92713092D02*
X154283524Y-90935092D01*
X154283524Y-90935092D02*
X156061524Y-90935092D01*
X166983524Y-92713092D02*
X166983524Y-90935092D01*
X166983524Y-90935092D02*
X165205524Y-90935092D01*
X166983524Y-101857092D02*
X166983524Y-103635092D01*
X166983524Y-103635092D02*
X165205524Y-103635092D01*
X161637035Y-123880692D02*
X159886047Y-123571945D01*
X159886047Y-123571945D02*
X160194793Y-121820957D01*
X161782632Y-112815875D02*
X162091379Y-111064887D01*
X162091379Y-111064887D02*
X163842367Y-111373633D01*
X174289691Y-115021207D02*
X174598437Y-113270219D01*
X174598437Y-113270219D02*
X172847449Y-112961472D01*
X172701852Y-124026289D02*
X172393105Y-125777277D01*
X172393105Y-125777277D02*
X170642117Y-125468531D01*
X175113684Y-67912292D02*
X173335684Y-67912292D01*
X173335684Y-67912292D02*
X173335684Y-66134292D01*
X173335684Y-56990292D02*
X173335684Y-55212292D01*
X173335684Y-55212292D02*
X175113684Y-55212292D01*
X186035684Y-56990292D02*
X186035684Y-55212292D01*
X186035684Y-55212292D02*
X184257684Y-55212292D01*
X186035684Y-66134292D02*
X186035684Y-67912292D01*
X186035684Y-67912292D02*
X184257684Y-67912292D01*
X175173222Y-87023990D02*
X173395222Y-87023990D01*
X173395222Y-87023990D02*
X173395222Y-85245990D01*
X173395222Y-76101990D02*
X173395222Y-74323990D01*
X173395222Y-74323990D02*
X175173222Y-74323990D01*
X186095222Y-76101990D02*
X186095222Y-74323990D01*
X186095222Y-74323990D02*
X184317222Y-74323990D01*
X186095222Y-85245990D02*
X186095222Y-87023990D01*
X186095222Y-87023990D02*
X184317222Y-87023990D01*
X175113684Y-106016612D02*
X173335684Y-106016612D01*
X173335684Y-106016612D02*
X173335684Y-104238612D01*
X173335684Y-95094612D02*
X173335684Y-93316612D01*
X173335684Y-93316612D02*
X175113684Y-93316612D01*
X186035684Y-95094612D02*
X186035684Y-93316612D01*
X186035684Y-93316612D02*
X184257684Y-93316612D01*
X186035684Y-104238612D02*
X186035684Y-106016612D01*
X186035684Y-106016612D02*
X184257684Y-106016612D01*
X193615785Y-133355028D02*
X192726785Y-134894821D01*
X192726785Y-134894821D02*
X191186992Y-134005821D01*
X183268056Y-129433821D02*
X181728263Y-128544821D01*
X181728263Y-128544821D02*
X182617263Y-127005028D01*
X189618056Y-118435299D02*
X188078263Y-117546299D01*
X188078263Y-117546299D02*
X187189263Y-119086092D01*
X197536992Y-123007299D02*
X199076785Y-123896299D01*
X199076785Y-123896299D02*
X198187785Y-125436092D01*
X194205978Y-72642754D02*
X192427978Y-72642754D01*
X192427978Y-72642754D02*
X192427978Y-70864754D01*
X192427978Y-61720754D02*
X192427978Y-59942754D01*
X192427978Y-59942754D02*
X194205978Y-59942754D01*
X205127978Y-61720754D02*
X205127978Y-59942754D01*
X205127978Y-59942754D02*
X203349978Y-59942754D01*
X205127978Y-70864754D02*
X205127978Y-72642754D01*
X205127978Y-72642754D02*
X203349978Y-72642754D01*
X194165844Y-91727492D02*
X192387844Y-91727492D01*
X192387844Y-91727492D02*
X192387844Y-89949492D01*
X192387844Y-80805492D02*
X192387844Y-79027492D01*
X192387844Y-79027492D02*
X194165844Y-79027492D01*
X205087844Y-80805492D02*
X205087844Y-79027492D01*
X205087844Y-79027492D02*
X203309844Y-79027492D01*
X205087844Y-89949492D02*
X205087844Y-91727492D01*
X205087844Y-91727492D02*
X203309844Y-91727492D01*
X203181269Y-116809867D02*
X202292269Y-118349660D01*
X202292269Y-118349660D02*
X200752476Y-117460660D01*
X192833540Y-112888660D02*
X191293747Y-111999660D01*
X191293747Y-111999660D02*
X192182747Y-110459867D01*
X199183540Y-101890138D02*
X197643747Y-101001138D01*
X197643747Y-101001138D02*
X196754747Y-102540931D01*
X207102476Y-106462138D02*
X208642269Y-107351138D01*
X208642269Y-107351138D02*
X207753269Y-108890931D01*
D13*
X111330000Y-49770000D02*
X111780000Y-49320000D01*
X114730000Y-49770000D02*
X114280000Y-49320000D01*
X114730000Y-54370000D02*
X114280000Y-54820000D01*
X111330000Y-54370000D02*
X111780000Y-54820000D01*
X115780000Y-53070000D02*
X115780000Y-51070000D01*
X111780000Y-49320000D02*
X114280000Y-49320000D01*
X110280000Y-53070000D02*
X110280000Y-51070000D01*
X111780000Y-54820000D02*
X114280000Y-54820000D01*
D14*
X135290038Y-49874870D02*
X132750038Y-49874870D01*
X135290038Y-47334870D02*
X135290038Y-49874870D01*
X150530038Y-77814870D02*
X150530038Y-47334870D01*
X132750038Y-77814870D02*
X150530038Y-77814870D01*
X132750038Y-47334870D02*
X132750038Y-77814870D01*
X150530038Y-47334870D02*
X132750038Y-47334870D01*
X195970166Y-125664098D02*
X197509959Y-126553098D01*
X186511437Y-120203098D02*
X188051230Y-121092098D01*
X187400437Y-118663305D02*
X186511437Y-120203098D01*
X192861437Y-109204576D02*
X191972437Y-110744369D01*
X194401230Y-110093576D02*
X192861437Y-109204576D01*
X203859959Y-115554576D02*
X202320166Y-114665576D01*
X202970959Y-117094369D02*
X203859959Y-115554576D01*
X197509959Y-126553098D02*
X198398959Y-125013305D01*
D13*
X103773989Y-50160739D02*
X91207842Y-52376490D01*
X91207842Y-52376490D02*
X91669746Y-54996078D01*
X91669746Y-54996078D02*
X104235893Y-52780327D01*
X104235893Y-52780327D02*
X103773989Y-50160739D01*
D10*
X137043371Y-49175537D02*
X137276705Y-48842203D01*
X137443371Y-49175537D02*
X137443371Y-48475537D01*
X137176705Y-48475537D01*
X137110038Y-48508870D01*
X137076705Y-48542203D01*
X137043371Y-48608870D01*
X137043371Y-48708870D01*
X137076705Y-48775537D01*
X137110038Y-48808870D01*
X137176705Y-48842203D01*
X137443371Y-48842203D01*
X136776705Y-48975537D02*
X136443371Y-48975537D01*
X136843371Y-49175537D02*
X136610038Y-48475537D01*
X136376705Y-49175537D01*
X136210038Y-48475537D02*
X136043371Y-49175537D01*
X135910038Y-48675537D01*
X135776705Y-49175537D01*
X135610038Y-48475537D01*
X136585371Y-50794870D02*
X136652037Y-50761537D01*
X136752037Y-50761537D01*
X136852037Y-50794870D01*
X136918704Y-50861537D01*
X136952037Y-50928203D01*
X136985371Y-51061537D01*
X136985371Y-51161537D01*
X136952037Y-51294870D01*
X136918704Y-51361537D01*
X136852037Y-51428203D01*
X136752037Y-51461537D01*
X136685371Y-51461537D01*
X136585371Y-51428203D01*
X136552037Y-51394870D01*
X136552037Y-51161537D01*
X136685371Y-51161537D01*
X136252037Y-51461537D02*
X136252037Y-50761537D01*
X135852037Y-51461537D01*
X135852037Y-50761537D01*
X135518704Y-51461537D02*
X135518704Y-50761537D01*
X135352038Y-50761537D01*
X135252038Y-50794870D01*
X135185371Y-50861537D01*
X135152038Y-50928203D01*
X135118704Y-51061537D01*
X135118704Y-51161537D01*
X135152038Y-51294870D01*
X135185371Y-51361537D01*
X135252038Y-51428203D01*
X135352038Y-51461537D01*
X135518704Y-51461537D01*
X136435371Y-54001537D02*
X136668705Y-53668203D01*
X136835371Y-54001537D02*
X136835371Y-53301537D01*
X136568705Y-53301537D01*
X136502038Y-53334870D01*
X136468705Y-53368203D01*
X136435371Y-53434870D01*
X136435371Y-53534870D01*
X136468705Y-53601537D01*
X136502038Y-53634870D01*
X136568705Y-53668203D01*
X136835371Y-53668203D01*
X136168705Y-53968203D02*
X136068705Y-54001537D01*
X135902038Y-54001537D01*
X135835371Y-53968203D01*
X135802038Y-53934870D01*
X135768705Y-53868203D01*
X135768705Y-53801537D01*
X135802038Y-53734870D01*
X135835371Y-53701537D01*
X135902038Y-53668203D01*
X136035371Y-53634870D01*
X136102038Y-53601537D01*
X136135371Y-53568203D01*
X136168705Y-53501537D01*
X136168705Y-53434870D01*
X136135371Y-53368203D01*
X136102038Y-53334870D01*
X136035371Y-53301537D01*
X135868705Y-53301537D01*
X135768705Y-53334870D01*
X135568704Y-53301537D02*
X135168704Y-53301537D01*
X135368704Y-54001537D02*
X135368704Y-53301537D01*
X136985371Y-55841537D02*
X136752038Y-56541537D01*
X136518705Y-55841537D01*
X135885371Y-56474870D02*
X135918705Y-56508203D01*
X136018705Y-56541537D01*
X136085371Y-56541537D01*
X136185371Y-56508203D01*
X136252038Y-56441537D01*
X136285371Y-56374870D01*
X136318705Y-56241537D01*
X136318705Y-56141537D01*
X136285371Y-56008203D01*
X136252038Y-55941537D01*
X136185371Y-55874870D01*
X136085371Y-55841537D01*
X136018705Y-55841537D01*
X135918705Y-55874870D01*
X135885371Y-55908203D01*
X135185371Y-56474870D02*
X135218705Y-56508203D01*
X135318705Y-56541537D01*
X135385371Y-56541537D01*
X135485371Y-56508203D01*
X135552038Y-56441537D01*
X135585371Y-56374870D01*
X135618705Y-56241537D01*
X135618705Y-56141537D01*
X135585371Y-56008203D01*
X135552038Y-55941537D01*
X135485371Y-55874870D01*
X135385371Y-55841537D01*
X135318705Y-55841537D01*
X135218705Y-55874870D01*
X135185371Y-55908203D01*
X135777371Y-58714870D02*
X136010704Y-58714870D01*
X136010704Y-59081537D02*
X136010704Y-58381537D01*
X135677371Y-58381537D01*
X135110704Y-58614870D02*
X135110704Y-59081537D01*
X135277371Y-58348203D02*
X135444038Y-58848203D01*
X135010704Y-58848203D01*
X135777371Y-61254870D02*
X136010704Y-61254870D01*
X136010704Y-61621537D02*
X136010704Y-60921537D01*
X135677371Y-60921537D01*
X135077371Y-60921537D02*
X135410704Y-60921537D01*
X135444038Y-61254870D01*
X135410704Y-61221537D01*
X135344038Y-61188203D01*
X135177371Y-61188203D01*
X135110704Y-61221537D01*
X135077371Y-61254870D01*
X135044038Y-61321537D01*
X135044038Y-61488203D01*
X135077371Y-61554870D01*
X135110704Y-61588203D01*
X135177371Y-61621537D01*
X135344038Y-61621537D01*
X135410704Y-61588203D01*
X135444038Y-61554870D01*
X135777371Y-66334870D02*
X136010704Y-66334870D01*
X136010704Y-66701537D02*
X136010704Y-66001537D01*
X135677371Y-66001537D01*
X135477371Y-66001537D02*
X135010704Y-66001537D01*
X135310704Y-66701537D01*
X135777371Y-63794870D02*
X136010704Y-63794870D01*
X136010704Y-64161537D02*
X136010704Y-63461537D01*
X135677371Y-63461537D01*
X135110704Y-63461537D02*
X135244038Y-63461537D01*
X135310704Y-63494870D01*
X135344038Y-63528203D01*
X135410704Y-63628203D01*
X135444038Y-63761537D01*
X135444038Y-64028203D01*
X135410704Y-64094870D01*
X135377371Y-64128203D01*
X135310704Y-64161537D01*
X135177371Y-64161537D01*
X135110704Y-64128203D01*
X135077371Y-64094870D01*
X135044038Y-64028203D01*
X135044038Y-63861537D01*
X135077371Y-63794870D01*
X135110704Y-63761537D01*
X135177371Y-63728203D01*
X135310704Y-63728203D01*
X135377371Y-63761537D01*
X135410704Y-63794870D01*
X135444038Y-63861537D01*
X135827371Y-68874870D02*
X135727371Y-68908203D01*
X135694038Y-68941537D01*
X135660704Y-69008203D01*
X135660704Y-69108203D01*
X135694038Y-69174870D01*
X135727371Y-69208203D01*
X135794038Y-69241537D01*
X136060704Y-69241537D01*
X136060704Y-68541537D01*
X135827371Y-68541537D01*
X135760704Y-68574870D01*
X135727371Y-68608203D01*
X135694038Y-68674870D01*
X135694038Y-68741537D01*
X135727371Y-68808203D01*
X135760704Y-68841537D01*
X135827371Y-68874870D01*
X136060704Y-68874870D01*
X134994038Y-69241537D02*
X135394038Y-69241537D01*
X135194038Y-69241537D02*
X135194038Y-68541537D01*
X135260704Y-68641537D01*
X135327371Y-68708203D01*
X135394038Y-68741537D01*
X135827371Y-71414870D02*
X135727371Y-71448203D01*
X135694038Y-71481537D01*
X135660704Y-71548203D01*
X135660704Y-71648203D01*
X135694038Y-71714870D01*
X135727371Y-71748203D01*
X135794038Y-71781537D01*
X136060704Y-71781537D01*
X136060704Y-71081537D01*
X135827371Y-71081537D01*
X135760704Y-71114870D01*
X135727371Y-71148203D01*
X135694038Y-71214870D01*
X135694038Y-71281537D01*
X135727371Y-71348203D01*
X135760704Y-71381537D01*
X135827371Y-71414870D01*
X136060704Y-71414870D01*
X135427371Y-71081537D02*
X134994038Y-71081537D01*
X135227371Y-71348203D01*
X135127371Y-71348203D01*
X135060704Y-71381537D01*
X135027371Y-71414870D01*
X134994038Y-71481537D01*
X134994038Y-71648203D01*
X135027371Y-71714870D01*
X135060704Y-71748203D01*
X135127371Y-71781537D01*
X135327371Y-71781537D01*
X135394038Y-71748203D01*
X135427371Y-71714870D01*
X135827371Y-73954870D02*
X135727371Y-73988203D01*
X135694038Y-74021537D01*
X135660704Y-74088203D01*
X135660704Y-74188203D01*
X135694038Y-74254870D01*
X135727371Y-74288203D01*
X135794038Y-74321537D01*
X136060704Y-74321537D01*
X136060704Y-73621537D01*
X135827371Y-73621537D01*
X135760704Y-73654870D01*
X135727371Y-73688203D01*
X135694038Y-73754870D01*
X135694038Y-73821537D01*
X135727371Y-73888203D01*
X135760704Y-73921537D01*
X135827371Y-73954870D01*
X136060704Y-73954870D01*
X135394038Y-73688203D02*
X135360704Y-73654870D01*
X135294038Y-73621537D01*
X135127371Y-73621537D01*
X135060704Y-73654870D01*
X135027371Y-73688203D01*
X134994038Y-73754870D01*
X134994038Y-73821537D01*
X135027371Y-73921537D01*
X135427371Y-74321537D01*
X134994038Y-74321537D01*
X135827371Y-76494870D02*
X135727371Y-76528203D01*
X135694038Y-76561537D01*
X135660704Y-76628203D01*
X135660704Y-76728203D01*
X135694038Y-76794870D01*
X135727371Y-76828203D01*
X135794038Y-76861537D01*
X136060704Y-76861537D01*
X136060704Y-76161537D01*
X135827371Y-76161537D01*
X135760704Y-76194870D01*
X135727371Y-76228203D01*
X135694038Y-76294870D01*
X135694038Y-76361537D01*
X135727371Y-76428203D01*
X135760704Y-76461537D01*
X135827371Y-76494870D01*
X136060704Y-76494870D01*
X135060704Y-76161537D02*
X135194038Y-76161537D01*
X135260704Y-76194870D01*
X135294038Y-76228203D01*
X135360704Y-76328203D01*
X135394038Y-76461537D01*
X135394038Y-76728203D01*
X135360704Y-76794870D01*
X135327371Y-76828203D01*
X135260704Y-76861537D01*
X135127371Y-76861537D01*
X135060704Y-76828203D01*
X135027371Y-76794870D01*
X134994038Y-76728203D01*
X134994038Y-76561537D01*
X135027371Y-76494870D01*
X135060704Y-76461537D01*
X135127371Y-76428203D01*
X135260704Y-76428203D01*
X135327371Y-76461537D01*
X135360704Y-76494870D01*
X135394038Y-76561537D01*
X148252704Y-48921537D02*
X148252704Y-48221537D01*
X148086038Y-48221537D01*
X147986038Y-48254870D01*
X147919371Y-48321537D01*
X147886038Y-48388203D01*
X147852704Y-48521537D01*
X147852704Y-48621537D01*
X147886038Y-48754870D01*
X147919371Y-48821537D01*
X147986038Y-48888203D01*
X148086038Y-48921537D01*
X148252704Y-48921537D01*
X147619371Y-48221537D02*
X147186038Y-48221537D01*
X147419371Y-48488203D01*
X147319371Y-48488203D01*
X147252704Y-48521537D01*
X147219371Y-48554870D01*
X147186038Y-48621537D01*
X147186038Y-48788203D01*
X147219371Y-48854870D01*
X147252704Y-48888203D01*
X147319371Y-48921537D01*
X147519371Y-48921537D01*
X147586038Y-48888203D01*
X147619371Y-48854870D01*
X148252704Y-51461537D02*
X148252704Y-50761537D01*
X148086038Y-50761537D01*
X147986038Y-50794870D01*
X147919371Y-50861537D01*
X147886038Y-50928203D01*
X147852704Y-51061537D01*
X147852704Y-51161537D01*
X147886038Y-51294870D01*
X147919371Y-51361537D01*
X147986038Y-51428203D01*
X148086038Y-51461537D01*
X148252704Y-51461537D01*
X147586038Y-50828203D02*
X147552704Y-50794870D01*
X147486038Y-50761537D01*
X147319371Y-50761537D01*
X147252704Y-50794870D01*
X147219371Y-50828203D01*
X147186038Y-50894870D01*
X147186038Y-50961537D01*
X147219371Y-51061537D01*
X147619371Y-51461537D01*
X147186038Y-51461537D01*
X147761371Y-53334870D02*
X147828037Y-53301537D01*
X147928037Y-53301537D01*
X148028037Y-53334870D01*
X148094704Y-53401537D01*
X148128037Y-53468203D01*
X148161371Y-53601537D01*
X148161371Y-53701537D01*
X148128037Y-53834870D01*
X148094704Y-53901537D01*
X148028037Y-53968203D01*
X147928037Y-54001537D01*
X147861371Y-54001537D01*
X147761371Y-53968203D01*
X147728037Y-53934870D01*
X147728037Y-53701537D01*
X147861371Y-53701537D01*
X147428037Y-54001537D02*
X147428037Y-53301537D01*
X147028037Y-54001537D01*
X147028037Y-53301537D01*
X146694704Y-54001537D02*
X146694704Y-53301537D01*
X146528038Y-53301537D01*
X146428038Y-53334870D01*
X146361371Y-53401537D01*
X146328038Y-53468203D01*
X146294704Y-53601537D01*
X146294704Y-53701537D01*
X146328038Y-53834870D01*
X146361371Y-53901537D01*
X146428038Y-53968203D01*
X146528038Y-54001537D01*
X146694704Y-54001537D01*
X147761371Y-55874870D02*
X147828037Y-55841537D01*
X147928037Y-55841537D01*
X148028037Y-55874870D01*
X148094704Y-55941537D01*
X148128037Y-56008203D01*
X148161371Y-56141537D01*
X148161371Y-56241537D01*
X148128037Y-56374870D01*
X148094704Y-56441537D01*
X148028037Y-56508203D01*
X147928037Y-56541537D01*
X147861371Y-56541537D01*
X147761371Y-56508203D01*
X147728037Y-56474870D01*
X147728037Y-56241537D01*
X147861371Y-56241537D01*
X147428037Y-56541537D02*
X147428037Y-55841537D01*
X147028037Y-56541537D01*
X147028037Y-55841537D01*
X146694704Y-56541537D02*
X146694704Y-55841537D01*
X146528038Y-55841537D01*
X146428038Y-55874870D01*
X146361371Y-55941537D01*
X146328038Y-56008203D01*
X146294704Y-56141537D01*
X146294704Y-56241537D01*
X146328038Y-56374870D01*
X146361371Y-56441537D01*
X146428038Y-56508203D01*
X146528038Y-56541537D01*
X146694704Y-56541537D01*
X148252704Y-59081537D02*
X148252704Y-58381537D01*
X148086038Y-58381537D01*
X147986038Y-58414870D01*
X147919371Y-58481537D01*
X147886038Y-58548203D01*
X147852704Y-58681537D01*
X147852704Y-58781537D01*
X147886038Y-58914870D01*
X147919371Y-58981537D01*
X147986038Y-59048203D01*
X148086038Y-59081537D01*
X148252704Y-59081537D01*
X147186038Y-59081537D02*
X147586038Y-59081537D01*
X147386038Y-59081537D02*
X147386038Y-58381537D01*
X147452704Y-58481537D01*
X147519371Y-58548203D01*
X147586038Y-58581537D01*
X148252704Y-61621537D02*
X148252704Y-60921537D01*
X148086038Y-60921537D01*
X147986038Y-60954870D01*
X147919371Y-61021537D01*
X147886038Y-61088203D01*
X147852704Y-61221537D01*
X147852704Y-61321537D01*
X147886038Y-61454870D01*
X147919371Y-61521537D01*
X147986038Y-61588203D01*
X148086038Y-61621537D01*
X148252704Y-61621537D01*
X147419371Y-60921537D02*
X147352704Y-60921537D01*
X147286038Y-60954870D01*
X147252704Y-60988203D01*
X147219371Y-61054870D01*
X147186038Y-61188203D01*
X147186038Y-61354870D01*
X147219371Y-61488203D01*
X147252704Y-61554870D01*
X147286038Y-61588203D01*
X147352704Y-61621537D01*
X147419371Y-61621537D01*
X147486038Y-61588203D01*
X147519371Y-61554870D01*
X147552704Y-61488203D01*
X147586038Y-61354870D01*
X147586038Y-61188203D01*
X147552704Y-61054870D01*
X147519371Y-60988203D01*
X147486038Y-60954870D01*
X147419371Y-60921537D01*
X148252704Y-64161537D02*
X148252704Y-63461537D01*
X148086038Y-63461537D01*
X147986038Y-63494870D01*
X147919371Y-63561537D01*
X147886038Y-63628203D01*
X147852704Y-63761537D01*
X147852704Y-63861537D01*
X147886038Y-63994870D01*
X147919371Y-64061537D01*
X147986038Y-64128203D01*
X148086038Y-64161537D01*
X148252704Y-64161537D01*
X147252704Y-63694870D02*
X147252704Y-64161537D01*
X147419371Y-63428203D02*
X147586038Y-63928203D01*
X147152704Y-63928203D01*
X147852704Y-66634870D02*
X147886038Y-66668203D01*
X147986038Y-66701537D01*
X148052704Y-66701537D01*
X148152704Y-66668203D01*
X148219371Y-66601537D01*
X148252704Y-66534870D01*
X148286038Y-66401537D01*
X148286038Y-66301537D01*
X148252704Y-66168203D01*
X148219371Y-66101537D01*
X148152704Y-66034870D01*
X148052704Y-66001537D01*
X147986038Y-66001537D01*
X147886038Y-66034870D01*
X147852704Y-66068203D01*
X147252704Y-66001537D02*
X147386038Y-66001537D01*
X147452704Y-66034870D01*
X147486038Y-66068203D01*
X147552704Y-66168203D01*
X147586038Y-66301537D01*
X147586038Y-66568203D01*
X147552704Y-66634870D01*
X147519371Y-66668203D01*
X147452704Y-66701537D01*
X147319371Y-66701537D01*
X147252704Y-66668203D01*
X147219371Y-66634870D01*
X147186038Y-66568203D01*
X147186038Y-66401537D01*
X147219371Y-66334870D01*
X147252704Y-66301537D01*
X147319371Y-66268203D01*
X147452704Y-66268203D01*
X147519371Y-66301537D01*
X147552704Y-66334870D01*
X147586038Y-66401537D01*
X148252704Y-69241537D02*
X148252704Y-68541537D01*
X148086038Y-68541537D01*
X147986038Y-68574870D01*
X147919371Y-68641537D01*
X147886038Y-68708203D01*
X147852704Y-68841537D01*
X147852704Y-68941537D01*
X147886038Y-69074870D01*
X147919371Y-69141537D01*
X147986038Y-69208203D01*
X148086038Y-69241537D01*
X148252704Y-69241537D01*
X147619371Y-68541537D02*
X147152704Y-68541537D01*
X147452704Y-69241537D01*
X148219371Y-71414870D02*
X147986038Y-71414870D01*
X147886038Y-71781537D02*
X148219371Y-71781537D01*
X148219371Y-71081537D01*
X147886038Y-71081537D01*
X147286038Y-71081537D02*
X147419372Y-71081537D01*
X147486038Y-71114870D01*
X147519372Y-71148203D01*
X147586038Y-71248203D01*
X147619372Y-71381537D01*
X147619372Y-71648203D01*
X147586038Y-71714870D01*
X147552705Y-71748203D01*
X147486038Y-71781537D01*
X147352705Y-71781537D01*
X147286038Y-71748203D01*
X147252705Y-71714870D01*
X147219372Y-71648203D01*
X147219372Y-71481537D01*
X147252705Y-71414870D01*
X147286038Y-71381537D01*
X147352705Y-71348203D01*
X147486038Y-71348203D01*
X147552705Y-71381537D01*
X147586038Y-71414870D01*
X147619372Y-71481537D01*
X148019371Y-73954870D02*
X147919371Y-73988203D01*
X147886038Y-74021537D01*
X147852704Y-74088203D01*
X147852704Y-74188203D01*
X147886038Y-74254870D01*
X147919371Y-74288203D01*
X147986038Y-74321537D01*
X148252704Y-74321537D01*
X148252704Y-73621537D01*
X148019371Y-73621537D01*
X147952704Y-73654870D01*
X147919371Y-73688203D01*
X147886038Y-73754870D01*
X147886038Y-73821537D01*
X147919371Y-73888203D01*
X147952704Y-73921537D01*
X148019371Y-73954870D01*
X148252704Y-73954870D01*
X147252704Y-73854870D02*
X147252704Y-74321537D01*
X147419371Y-73588203D02*
X147586038Y-74088203D01*
X147152704Y-74088203D01*
X148019371Y-76494870D02*
X147919371Y-76528203D01*
X147886038Y-76561537D01*
X147852704Y-76628203D01*
X147852704Y-76728203D01*
X147886038Y-76794870D01*
X147919371Y-76828203D01*
X147986038Y-76861537D01*
X148252704Y-76861537D01*
X148252704Y-76161537D01*
X148019371Y-76161537D01*
X147952704Y-76194870D01*
X147919371Y-76228203D01*
X147886038Y-76294870D01*
X147886038Y-76361537D01*
X147919371Y-76428203D01*
X147952704Y-76461537D01*
X148019371Y-76494870D01*
X148252704Y-76494870D01*
X147219371Y-76161537D02*
X147552704Y-76161537D01*
X147586038Y-76494870D01*
X147552704Y-76461537D01*
X147486038Y-76428203D01*
X147319371Y-76428203D01*
X147252704Y-76461537D01*
X147219371Y-76494870D01*
X147186038Y-76561537D01*
X147186038Y-76728203D01*
X147219371Y-76794870D01*
X147252704Y-76828203D01*
X147319371Y-76861537D01*
X147486038Y-76861537D01*
X147552704Y-76828203D01*
X147586038Y-76794870D01*
D15*
X99242541Y-54695171D02*
X99120987Y-54005806D01*
X98978023Y-54538728D01*
X98661411Y-54086842D01*
X98782965Y-54776207D01*
X98201834Y-54167877D02*
X98070527Y-54191030D01*
X98010661Y-54235434D01*
X97956583Y-54312664D01*
X97946909Y-54449760D01*
X97987427Y-54679548D01*
X98043407Y-54805068D01*
X98120638Y-54859145D01*
X98192080Y-54880396D01*
X98323388Y-54857243D01*
X98383253Y-54812839D01*
X98437330Y-54735609D01*
X98447005Y-54598512D01*
X98406487Y-54368724D01*
X98350506Y-54243205D01*
X98273276Y-54189127D01*
X98201834Y-54167877D01*
X97759542Y-54922816D02*
X97666850Y-54973008D01*
X97502715Y-55001950D01*
X97431272Y-54980699D01*
X97392657Y-54953660D01*
X97348254Y-54893794D01*
X97336678Y-54828141D01*
X97357928Y-54756699D01*
X97384966Y-54718084D01*
X97444832Y-54673680D01*
X97570351Y-54617700D01*
X97630217Y-54573297D01*
X97657255Y-54534681D01*
X97678506Y-54463240D01*
X97666930Y-54397585D01*
X97622526Y-54337720D01*
X97583911Y-54310681D01*
X97512468Y-54289431D01*
X97348334Y-54318372D01*
X97255642Y-54368564D01*
X97075964Y-55077197D02*
X96954410Y-54387832D01*
X101541204Y-54256007D02*
X101448512Y-54306200D01*
X101284377Y-54335141D01*
X101212934Y-54313890D01*
X101174320Y-54286852D01*
X101129916Y-54226986D01*
X101118340Y-54161332D01*
X101139590Y-54089890D01*
X101166628Y-54051275D01*
X101226494Y-54006871D01*
X101352013Y-53950891D01*
X101411879Y-53906488D01*
X101438917Y-53867872D01*
X101460169Y-53796431D01*
X101448592Y-53730777D01*
X101404188Y-53670911D01*
X101365573Y-53643873D01*
X101294131Y-53622623D01*
X101129997Y-53651564D01*
X101037304Y-53701755D01*
X100452127Y-54414194D02*
X100490742Y-54441232D01*
X100595011Y-54456695D01*
X100660665Y-54445118D01*
X100753357Y-54394926D01*
X100807435Y-54317696D01*
X100828685Y-54246254D01*
X100838359Y-54109158D01*
X100820995Y-54010677D01*
X100765014Y-53885157D01*
X100720611Y-53825292D01*
X100643380Y-53771215D01*
X100539111Y-53755753D01*
X100473458Y-53767329D01*
X100380765Y-53817521D01*
X100353726Y-53856136D01*
X100168261Y-54531942D02*
X100046707Y-53842577D01*
X99774338Y-54601402D02*
X100000321Y-54155384D01*
X99652784Y-53912036D02*
X100116166Y-54236500D01*
X106746776Y-53371972D02*
X106625222Y-52682607D01*
X106482258Y-53215529D01*
X106165646Y-52763643D01*
X106287200Y-53453008D01*
X105958930Y-53510891D02*
X105837376Y-52821525D01*
X105657700Y-53530158D02*
X105565008Y-53580350D01*
X105400873Y-53609291D01*
X105329430Y-53588040D01*
X105290816Y-53561002D01*
X105246412Y-53501136D01*
X105234836Y-53435483D01*
X105256086Y-53364040D01*
X105283124Y-53325426D01*
X105342990Y-53281021D01*
X105468509Y-53225042D01*
X105528375Y-53180639D01*
X105555413Y-53142023D01*
X105576665Y-53070581D01*
X105565088Y-53004927D01*
X105520684Y-52945061D01*
X105482069Y-52918023D01*
X105410627Y-52896773D01*
X105246493Y-52925714D01*
X105153800Y-52975906D01*
X104721261Y-53018327D02*
X104589954Y-53041480D01*
X104530088Y-53085883D01*
X104476010Y-53163114D01*
X104466337Y-53300209D01*
X104506855Y-53529997D01*
X104562834Y-53655518D01*
X104640065Y-53709594D01*
X104711507Y-53730845D01*
X104842815Y-53707692D01*
X104902681Y-53663288D01*
X104956757Y-53586058D01*
X104966432Y-53448961D01*
X104925914Y-53219173D01*
X104869933Y-53093654D01*
X104792704Y-53039577D01*
X104721261Y-53018327D01*
X96035351Y-55260686D02*
X96207257Y-54891898D01*
X96429274Y-55191227D02*
X96307720Y-54501861D01*
X96045106Y-54548167D01*
X95985240Y-54592571D01*
X95958201Y-54631185D01*
X95936950Y-54702628D01*
X95954315Y-54801109D01*
X95998719Y-54860975D01*
X96037334Y-54888013D01*
X96108776Y-54909263D01*
X96371391Y-54862957D01*
X95766948Y-55274165D02*
X95674255Y-55324357D01*
X95510120Y-55353298D01*
X95438678Y-55332047D01*
X95400063Y-55305009D01*
X95355660Y-55245143D01*
X95344083Y-55179490D01*
X95365333Y-55108047D01*
X95392372Y-55069433D01*
X95452238Y-55025028D01*
X95577757Y-54969049D01*
X95637623Y-54924646D01*
X95664661Y-54886030D01*
X95685912Y-54814588D01*
X95674336Y-54748934D01*
X95629931Y-54689068D01*
X95591317Y-54662030D01*
X95519874Y-54640780D01*
X95355740Y-54669721D01*
X95263048Y-54719913D01*
X95060297Y-54721816D02*
X94666374Y-54791275D01*
X94984889Y-55445911D02*
X94863335Y-54756545D01*
X93565896Y-55019166D02*
X93625761Y-54974763D01*
X93724241Y-54957398D01*
X93828510Y-54972860D01*
X93905741Y-55026937D01*
X93950144Y-55086802D01*
X94006125Y-55212322D01*
X94023490Y-55310803D01*
X94013815Y-55447899D01*
X93992565Y-55519341D01*
X93938487Y-55596571D01*
X93845795Y-55646764D01*
X93780142Y-55658340D01*
X93675873Y-55642877D01*
X93637257Y-55615839D01*
X93596739Y-55386051D01*
X93728047Y-55362898D01*
X93353391Y-55733588D02*
X93231837Y-55044222D01*
X92959468Y-55803047D01*
X92837914Y-55113681D01*
X92631199Y-55860930D02*
X92509645Y-55171564D01*
X92345511Y-55200505D01*
X92252819Y-55250697D01*
X92198741Y-55327928D01*
X92177491Y-55399369D01*
X92167817Y-55536466D01*
X92185182Y-55634947D01*
X92241162Y-55760466D01*
X92285565Y-55820331D01*
X92362796Y-55874408D01*
X92467065Y-55889871D01*
X92631199Y-55860930D01*
X103959676Y-53152615D02*
X103851442Y-53882498D01*
X103500100Y-53233651D01*
X102986365Y-53967339D02*
X103024981Y-53994378D01*
X103129250Y-54009840D01*
X103194903Y-53998264D01*
X103287596Y-53948072D01*
X103341673Y-53870842D01*
X103362923Y-53799399D01*
X103372598Y-53662304D01*
X103355233Y-53563823D01*
X103299252Y-53438303D01*
X103254849Y-53378438D01*
X103177619Y-53324360D01*
X103073350Y-53308898D01*
X103007696Y-53320475D01*
X102915004Y-53370666D01*
X102887964Y-53409281D01*
X102297000Y-54088893D02*
X102335615Y-54115931D01*
X102439885Y-54131394D01*
X102505538Y-54119818D01*
X102598230Y-54069625D01*
X102652308Y-53992395D01*
X102673558Y-53920953D01*
X102683232Y-53783857D01*
X102665868Y-53685377D01*
X102609887Y-53559857D01*
X102565484Y-53499992D01*
X102488253Y-53445914D01*
X102383984Y-53430452D01*
X102318331Y-53442029D01*
X102225638Y-53492220D01*
X102198599Y-53530835D01*
M02*
