G04 #@! TF.FileFunction,Copper,L1,Top,Signal*
%FSLAX46Y46*%
G04 Gerber Fmt 4.6, Leading zero omitted, Abs format (unit mm)*
G04 Created by KiCad (PCBNEW 4.0.7) date 05/28/18 10:59:17*
%MOMM*%
%LPD*%
G01*
G04 APERTURE LIST*
%ADD10C,0.100000*%
%ADD11C,0.254000*%
G04 APERTURE END LIST*
D10*
D11*
G36*
X220856086Y-139574983D02*
X63627000Y-142110936D01*
X63627000Y-53981600D01*
X74320000Y-53981600D01*
X74320000Y-127632000D01*
X74325902Y-127661670D01*
X74322610Y-127691741D01*
X74369710Y-128229741D01*
X74394794Y-128315783D01*
X74408438Y-128404359D01*
X74777638Y-129418359D01*
X74839292Y-129519935D01*
X74896416Y-129624139D01*
X75588216Y-130449139D01*
X75681089Y-130523727D01*
X75770643Y-130602252D01*
X76702643Y-131140252D01*
X76815304Y-131178486D01*
X76926183Y-131221599D01*
X77992683Y-131409599D01*
X78052711Y-131408286D01*
X78111600Y-131420000D01*
X178270671Y-131420000D01*
X192385854Y-139653692D01*
X192449154Y-139675495D01*
X192506929Y-139709315D01*
X192532930Y-139718316D01*
X192600496Y-139727623D01*
X192638557Y-139740733D01*
X192674724Y-139738525D01*
X192775396Y-139755753D01*
X193445397Y-139737753D01*
X193561747Y-139711342D01*
X193679113Y-139689918D01*
X194303113Y-139442918D01*
X194402977Y-139378448D01*
X194505576Y-139318431D01*
X194629576Y-139208431D01*
X194694732Y-139122510D01*
X194766280Y-139041850D01*
X213350280Y-107269850D01*
X213353737Y-107259854D01*
X213356715Y-107256386D01*
X213389619Y-107156079D01*
X213437623Y-107017251D01*
X213437243Y-107010902D01*
X213440023Y-107002427D01*
X213480023Y-106672427D01*
X213470601Y-106548246D01*
X213464548Y-106423863D01*
X213354548Y-105983863D01*
X213306262Y-105881651D01*
X213264334Y-105776683D01*
X213004334Y-105376683D01*
X212970709Y-105342195D01*
X212946791Y-105300387D01*
X212606791Y-104909587D01*
X212527691Y-104848394D01*
X212455098Y-104779607D01*
X208890000Y-102533873D01*
X208890000Y-49002379D01*
X208894991Y-48976624D01*
X208841558Y-48714746D01*
X208421558Y-47714746D01*
X208356168Y-47617921D01*
X208313768Y-47540623D01*
X207621768Y-46715824D01*
X207528979Y-46641343D01*
X207439505Y-46562875D01*
X206507505Y-46024775D01*
X206394786Y-45986511D01*
X206283863Y-45943392D01*
X205216863Y-45755391D01*
X205156861Y-45756708D01*
X205098000Y-45745000D01*
X116211000Y-45745000D01*
X116154394Y-45756260D01*
X116096702Y-45754603D01*
X75512701Y-52622703D01*
X75353419Y-52683385D01*
X75295843Y-52702034D01*
X75277369Y-52712357D01*
X75262939Y-52717855D01*
X75256279Y-52724143D01*
X74955842Y-52892034D01*
X74911149Y-52930135D01*
X74845237Y-52966304D01*
X74696537Y-53091105D01*
X74622059Y-53183922D01*
X74543592Y-53273439D01*
X74446592Y-53441539D01*
X74408421Y-53554075D01*
X74365330Y-53664818D01*
X74330430Y-53862518D01*
X74331730Y-53922630D01*
X74320000Y-53981600D01*
X63627000Y-53981600D01*
X63627000Y-38227000D01*
X223389786Y-38227000D01*
X220856086Y-139574983D01*
X220856086Y-139574983D01*
G37*
X220856086Y-139574983D02*
X63627000Y-142110936D01*
X63627000Y-53981600D01*
X74320000Y-53981600D01*
X74320000Y-127632000D01*
X74325902Y-127661670D01*
X74322610Y-127691741D01*
X74369710Y-128229741D01*
X74394794Y-128315783D01*
X74408438Y-128404359D01*
X74777638Y-129418359D01*
X74839292Y-129519935D01*
X74896416Y-129624139D01*
X75588216Y-130449139D01*
X75681089Y-130523727D01*
X75770643Y-130602252D01*
X76702643Y-131140252D01*
X76815304Y-131178486D01*
X76926183Y-131221599D01*
X77992683Y-131409599D01*
X78052711Y-131408286D01*
X78111600Y-131420000D01*
X178270671Y-131420000D01*
X192385854Y-139653692D01*
X192449154Y-139675495D01*
X192506929Y-139709315D01*
X192532930Y-139718316D01*
X192600496Y-139727623D01*
X192638557Y-139740733D01*
X192674724Y-139738525D01*
X192775396Y-139755753D01*
X193445397Y-139737753D01*
X193561747Y-139711342D01*
X193679113Y-139689918D01*
X194303113Y-139442918D01*
X194402977Y-139378448D01*
X194505576Y-139318431D01*
X194629576Y-139208431D01*
X194694732Y-139122510D01*
X194766280Y-139041850D01*
X213350280Y-107269850D01*
X213353737Y-107259854D01*
X213356715Y-107256386D01*
X213389619Y-107156079D01*
X213437623Y-107017251D01*
X213437243Y-107010902D01*
X213440023Y-107002427D01*
X213480023Y-106672427D01*
X213470601Y-106548246D01*
X213464548Y-106423863D01*
X213354548Y-105983863D01*
X213306262Y-105881651D01*
X213264334Y-105776683D01*
X213004334Y-105376683D01*
X212970709Y-105342195D01*
X212946791Y-105300387D01*
X212606791Y-104909587D01*
X212527691Y-104848394D01*
X212455098Y-104779607D01*
X208890000Y-102533873D01*
X208890000Y-49002379D01*
X208894991Y-48976624D01*
X208841558Y-48714746D01*
X208421558Y-47714746D01*
X208356168Y-47617921D01*
X208313768Y-47540623D01*
X207621768Y-46715824D01*
X207528979Y-46641343D01*
X207439505Y-46562875D01*
X206507505Y-46024775D01*
X206394786Y-45986511D01*
X206283863Y-45943392D01*
X205216863Y-45755391D01*
X205156861Y-45756708D01*
X205098000Y-45745000D01*
X116211000Y-45745000D01*
X116154394Y-45756260D01*
X116096702Y-45754603D01*
X75512701Y-52622703D01*
X75353419Y-52683385D01*
X75295843Y-52702034D01*
X75277369Y-52712357D01*
X75262939Y-52717855D01*
X75256279Y-52724143D01*
X74955842Y-52892034D01*
X74911149Y-52930135D01*
X74845237Y-52966304D01*
X74696537Y-53091105D01*
X74622059Y-53183922D01*
X74543592Y-53273439D01*
X74446592Y-53441539D01*
X74408421Y-53554075D01*
X74365330Y-53664818D01*
X74330430Y-53862518D01*
X74331730Y-53922630D01*
X74320000Y-53981600D01*
X63627000Y-53981600D01*
X63627000Y-38227000D01*
X223389786Y-38227000D01*
X220856086Y-139574983D01*
G36*
X205927138Y-47271642D02*
X206649878Y-47688923D01*
X207200351Y-48345036D01*
X207520000Y-49106106D01*
X207520000Y-102870000D01*
X207524288Y-102891555D01*
X207524000Y-102893000D01*
X207524000Y-102894000D01*
X207528802Y-102918141D01*
X207525724Y-102942559D01*
X207530074Y-102958445D01*
X207529320Y-102982613D01*
X207531320Y-102994614D01*
X207533134Y-102999410D01*
X207533049Y-103004537D01*
X207535049Y-103015536D01*
X207561489Y-103082470D01*
X207576143Y-103156138D01*
X207586999Y-103172385D01*
X207588143Y-103178138D01*
X207591691Y-103183448D01*
X207596317Y-103200341D01*
X207602317Y-103212341D01*
X207618637Y-103233370D01*
X207627617Y-103258430D01*
X207633617Y-103268430D01*
X207672805Y-103311627D01*
X207680893Y-103329757D01*
X207704222Y-103351862D01*
X207736632Y-103400368D01*
X207738632Y-103402368D01*
X207745234Y-103406779D01*
X207747632Y-103410368D01*
X207755632Y-103418368D01*
X207762703Y-103423092D01*
X207767911Y-103429975D01*
X207776911Y-103437976D01*
X207799377Y-103451148D01*
X207813199Y-103466384D01*
X207836893Y-103477577D01*
X207874902Y-103513593D01*
X211639477Y-105884983D01*
X211881771Y-106163479D01*
X212053235Y-106427270D01*
X212104739Y-106633285D01*
X212096706Y-106699559D01*
X193656712Y-138225361D01*
X193287515Y-138371500D01*
X192923523Y-138381279D01*
X178818146Y-130153308D01*
X178750179Y-130129897D01*
X178710138Y-130103143D01*
X178689826Y-130099103D01*
X178670616Y-130088152D01*
X178664616Y-130086152D01*
X178657196Y-130085217D01*
X178656073Y-130084896D01*
X178649184Y-130081356D01*
X178642184Y-130079356D01*
X178599095Y-130075817D01*
X178561821Y-130062461D01*
X178553091Y-130062886D01*
X178538874Y-130057885D01*
X178531874Y-130056885D01*
X178489262Y-130059208D01*
X178448000Y-130051000D01*
X178442000Y-130051000D01*
X178441014Y-130051196D01*
X178435000Y-130050000D01*
X78171513Y-130050000D01*
X77282957Y-129893368D01*
X76560286Y-129476203D01*
X76023691Y-128836291D01*
X75726623Y-128020401D01*
X75690000Y-127602072D01*
X75690000Y-114688480D01*
X75945050Y-114688480D01*
X75945050Y-127489050D01*
X75997193Y-127751188D01*
X76145682Y-127973418D01*
X76367912Y-128121907D01*
X76630050Y-128174050D01*
X76761602Y-128174050D01*
X76796453Y-128349258D01*
X76944942Y-128571488D01*
X77167172Y-128719977D01*
X77429310Y-128772120D01*
X91428860Y-128772120D01*
X91690998Y-128719977D01*
X91913228Y-128571488D01*
X92061717Y-128349258D01*
X92096568Y-128174050D01*
X92229460Y-128174050D01*
X92491598Y-128121907D01*
X92713828Y-127973418D01*
X92862317Y-127751188D01*
X92884591Y-127639210D01*
X180993176Y-127639210D01*
X181002023Y-127773651D01*
X181010631Y-127905550D01*
X181010714Y-127905717D01*
X181010726Y-127905907D01*
X181069980Y-128025983D01*
X181128776Y-128145293D01*
X181128918Y-128145417D01*
X181129001Y-128145586D01*
X181229381Y-128233571D01*
X181329674Y-128321575D01*
X181329852Y-128321635D01*
X181329994Y-128321760D01*
X186167354Y-131112925D01*
X186096211Y-131236067D01*
X186096115Y-131236349D01*
X186095919Y-131236573D01*
X186053150Y-131362803D01*
X186010228Y-131489133D01*
X186010247Y-131489430D01*
X186010152Y-131489712D01*
X186018952Y-131622818D01*
X186027633Y-131755839D01*
X186027764Y-131756106D01*
X186027784Y-131756403D01*
X186086749Y-131875800D01*
X186145777Y-131995583D01*
X186146002Y-131995780D01*
X186146133Y-131996046D01*
X186246196Y-132083698D01*
X186346674Y-132171866D01*
X186346956Y-132171962D01*
X186347180Y-132172158D01*
X188773177Y-133570964D01*
X188899941Y-133613914D01*
X189026086Y-133656701D01*
X189026204Y-133656693D01*
X189026315Y-133656731D01*
X189159263Y-133647941D01*
X189292783Y-133639159D01*
X189292889Y-133639107D01*
X189293006Y-133639099D01*
X189413232Y-133579725D01*
X189532466Y-133520890D01*
X189532543Y-133520802D01*
X189532649Y-133520750D01*
X189621417Y-133419414D01*
X189708645Y-133319903D01*
X189708759Y-133319705D01*
X189708761Y-133319703D01*
X189708762Y-133319701D01*
X189778195Y-133199373D01*
X191981813Y-134471755D01*
X191981882Y-134471778D01*
X191981935Y-134471825D01*
X192108602Y-134514799D01*
X192234899Y-134557677D01*
X192234969Y-134557672D01*
X192235039Y-134557696D01*
X192370989Y-134548763D01*
X192501601Y-134540208D01*
X192501664Y-134540177D01*
X192501737Y-134540172D01*
X192622139Y-134480771D01*
X192741316Y-134422006D01*
X192741364Y-134421952D01*
X192741428Y-134421920D01*
X192829012Y-134322017D01*
X192917551Y-134221067D01*
X192917574Y-134220998D01*
X192917621Y-134220945D01*
X193437570Y-133320026D01*
X193641541Y-133437469D01*
X193767549Y-133480077D01*
X193893821Y-133522964D01*
X193894289Y-133522933D01*
X193894732Y-133523083D01*
X194027534Y-133514222D01*
X194160525Y-133505527D01*
X194160945Y-133505320D01*
X194161412Y-133505289D01*
X194280928Y-133446175D01*
X194400255Y-133387354D01*
X194400563Y-133387003D01*
X194400983Y-133386795D01*
X194488825Y-133286393D01*
X194576514Y-133186437D01*
X196226513Y-130329641D01*
X196269474Y-130203150D01*
X196312428Y-130076858D01*
X196312418Y-130076707D01*
X196312466Y-130076566D01*
X196303797Y-129943963D01*
X196295107Y-129810146D01*
X196295040Y-129810009D01*
X196295030Y-129809861D01*
X196236832Y-129691798D01*
X196177037Y-129570365D01*
X196176922Y-129570264D01*
X196176857Y-129570132D01*
X196077603Y-129483059D01*
X195976195Y-129394020D01*
X195772732Y-129276389D01*
X196292645Y-128375408D01*
X196292728Y-128375165D01*
X196292897Y-128374971D01*
X196312141Y-128341565D01*
X196471948Y-128434150D01*
X196472503Y-128434339D01*
X196472944Y-128434726D01*
X196599053Y-128477510D01*
X196724908Y-128520443D01*
X196725493Y-128520406D01*
X196726048Y-128520594D01*
X196858825Y-128511868D01*
X196991636Y-128503364D01*
X196992162Y-128503105D01*
X196992746Y-128503067D01*
X197111957Y-128444253D01*
X197231524Y-128385513D01*
X197231911Y-128385073D01*
X197232436Y-128384814D01*
X197320090Y-128284829D01*
X197408052Y-128184832D01*
X197408241Y-128184277D01*
X197408628Y-128183836D01*
X197474500Y-128069697D01*
X197518767Y-128084720D01*
X197645751Y-128127862D01*
X197645874Y-128127854D01*
X197645989Y-128127893D01*
X197778885Y-128119171D01*
X197912457Y-128110451D01*
X197912566Y-128110397D01*
X197912689Y-128110389D01*
X198033071Y-128051010D01*
X198152198Y-127992302D01*
X198152278Y-127992211D01*
X198152389Y-127992156D01*
X198240763Y-127891367D01*
X198328477Y-127791402D01*
X198328516Y-127791286D01*
X198328597Y-127791194D01*
X205328598Y-115664388D01*
X205328786Y-115663833D01*
X205329171Y-115663393D01*
X205371647Y-115537533D01*
X205414488Y-115411290D01*
X205414450Y-115410704D01*
X205414636Y-115410152D01*
X205405712Y-115277569D01*
X205396984Y-115144591D01*
X205396725Y-115144067D01*
X205396686Y-115143482D01*
X205337502Y-115024000D01*
X205278751Y-114904891D01*
X205278312Y-114904506D01*
X205278052Y-114903981D01*
X205177672Y-114816262D01*
X205143450Y-114786256D01*
X205208348Y-114674015D01*
X205251387Y-114547493D01*
X205294330Y-114421672D01*
X205294307Y-114421318D01*
X205294422Y-114420981D01*
X205285791Y-114287988D01*
X205277292Y-114154943D01*
X205277135Y-114154623D01*
X205277112Y-114154268D01*
X205218075Y-114034360D01*
X205159477Y-113915037D01*
X205159211Y-113914803D01*
X205159053Y-113914482D01*
X205058790Y-113826441D01*
X204958823Y-113738477D01*
X204797338Y-113644886D01*
X204816105Y-113612543D01*
X204816711Y-113610770D01*
X204817644Y-113609706D01*
X205337152Y-112709428D01*
X205540755Y-112827017D01*
X205663765Y-112868792D01*
X205793773Y-112912957D01*
X205793805Y-112912955D01*
X205793832Y-112912964D01*
X205919330Y-112904757D01*
X206060478Y-112895538D01*
X206060507Y-112895524D01*
X206060536Y-112895522D01*
X206176903Y-112838156D01*
X206300215Y-112777380D01*
X206300236Y-112777356D01*
X206300263Y-112777343D01*
X206388142Y-112677165D01*
X206476488Y-112576474D01*
X208127284Y-109718728D01*
X208127286Y-109718725D01*
X208127287Y-109718722D01*
X208127488Y-109718374D01*
X208170314Y-109592308D01*
X208213405Y-109465705D01*
X208213392Y-109465500D01*
X208213458Y-109465305D01*
X208204738Y-109331788D01*
X208196143Y-109198990D01*
X208196053Y-109198806D01*
X208196039Y-109198599D01*
X208137162Y-109079141D01*
X208078128Y-108959183D01*
X208077971Y-108959045D01*
X208077881Y-108958862D01*
X207978528Y-108871691D01*
X207877326Y-108782792D01*
X207672489Y-108664306D01*
X208193160Y-107764941D01*
X208193304Y-107764518D01*
X208193597Y-107764184D01*
X208236294Y-107638366D01*
X208279372Y-107511953D01*
X208279343Y-107511507D01*
X208279486Y-107511087D01*
X208270784Y-107378502D01*
X208262208Y-107245231D01*
X208262011Y-107244831D01*
X208261982Y-107244387D01*
X208203146Y-107125107D01*
X208144280Y-107005381D01*
X208143945Y-107005087D01*
X208143748Y-107004687D01*
X208043737Y-106916996D01*
X207943542Y-106828917D01*
X207943119Y-106828773D01*
X207942785Y-106828480D01*
X205738139Y-105555893D01*
X205808543Y-105433970D01*
X205808620Y-105433744D01*
X205808775Y-105433567D01*
X205851351Y-105307891D01*
X205894473Y-105180886D01*
X205894457Y-105180648D01*
X205894533Y-105180425D01*
X205885732Y-105047389D01*
X205877011Y-104914183D01*
X205876907Y-104913971D01*
X205876891Y-104913734D01*
X205817616Y-104793722D01*
X205758815Y-104674465D01*
X205758637Y-104674309D01*
X205758532Y-104674096D01*
X205657510Y-104585610D01*
X205557881Y-104498225D01*
X205557659Y-104498150D01*
X205557479Y-104497992D01*
X203131477Y-103099307D01*
X203004305Y-103056225D01*
X202878664Y-103013593D01*
X202878497Y-103013604D01*
X202878335Y-103013549D01*
X202744292Y-103022417D01*
X202611965Y-103031106D01*
X202611813Y-103031181D01*
X202611644Y-103031192D01*
X202491753Y-103090407D01*
X202372269Y-103149348D01*
X202372157Y-103149475D01*
X202372006Y-103149550D01*
X202284267Y-103249719D01*
X202196068Y-103350316D01*
X202126633Y-103470616D01*
X197291005Y-100677007D01*
X197290909Y-100676974D01*
X197290833Y-100676908D01*
X197164335Y-100633970D01*
X197037938Y-100591026D01*
X197037838Y-100591033D01*
X197037742Y-100591000D01*
X196903944Y-100599772D01*
X196771232Y-100608434D01*
X196771142Y-100608478D01*
X196771041Y-100608485D01*
X196651200Y-100667587D01*
X196531490Y-100726581D01*
X196531423Y-100726657D01*
X196531332Y-100726702D01*
X196443304Y-100827082D01*
X196355209Y-100927479D01*
X196355176Y-100927575D01*
X196355110Y-100927651D01*
X195833901Y-101830446D01*
X195579353Y-101683190D01*
X195578974Y-101683061D01*
X195578673Y-101682797D01*
X195452242Y-101639920D01*
X195326337Y-101597060D01*
X195325939Y-101597086D01*
X195325559Y-101596957D01*
X195192468Y-101605718D01*
X195059621Y-101614310D01*
X195059262Y-101614487D01*
X195058862Y-101614513D01*
X194939006Y-101673662D01*
X194819809Y-101732316D01*
X194819546Y-101732615D01*
X194819186Y-101732793D01*
X194731411Y-101832938D01*
X194643409Y-101933110D01*
X194643279Y-101933491D01*
X194643017Y-101933790D01*
X192994015Y-104791816D01*
X192993928Y-104792073D01*
X192993750Y-104792276D01*
X192951070Y-104918446D01*
X192908175Y-105044930D01*
X192908193Y-105045200D01*
X192908106Y-105045457D01*
X192916964Y-105178453D01*
X192925731Y-105311627D01*
X192925851Y-105311870D01*
X192925869Y-105312140D01*
X192985085Y-105431897D01*
X193044012Y-105551303D01*
X193044215Y-105551481D01*
X193044335Y-105551724D01*
X193144797Y-105639639D01*
X193245008Y-105727473D01*
X193245265Y-105727560D01*
X193245468Y-105727738D01*
X193499155Y-105873846D01*
X192979589Y-106776942D01*
X192939389Y-106895967D01*
X192896366Y-107013979D01*
X192896724Y-107022286D01*
X192894064Y-107030163D01*
X192902471Y-107155503D01*
X192907885Y-107281004D01*
X192911395Y-107288540D01*
X192911951Y-107296837D01*
X192967684Y-107409417D01*
X192999483Y-107477703D01*
X192935277Y-107588296D01*
X192933081Y-107594713D01*
X192871252Y-107701632D01*
X192827507Y-107686828D01*
X192700725Y-107643797D01*
X192700413Y-107643817D01*
X192700116Y-107643717D01*
X192567423Y-107652539D01*
X192434024Y-107661287D01*
X192433741Y-107661426D01*
X192433431Y-107661447D01*
X192314016Y-107720475D01*
X192194319Y-107779509D01*
X192194113Y-107779743D01*
X192193831Y-107779883D01*
X192105912Y-107880325D01*
X192018100Y-107980462D01*
X185018102Y-120105861D01*
X185018002Y-120106156D01*
X185017797Y-120106390D01*
X184975111Y-120232525D01*
X184932199Y-120358954D01*
X184932219Y-120359265D01*
X184932120Y-120359559D01*
X184940958Y-120492513D01*
X184949690Y-120625655D01*
X184949827Y-120625934D01*
X184949848Y-120626244D01*
X185008886Y-120745681D01*
X185067911Y-120865361D01*
X185068145Y-120865566D01*
X185068283Y-120865845D01*
X185168490Y-120953560D01*
X185202565Y-120983440D01*
X185137333Y-121096257D01*
X185137125Y-121096870D01*
X185136701Y-121097354D01*
X185073912Y-121206410D01*
X185003905Y-121211007D01*
X184870141Y-121219756D01*
X184870060Y-121219796D01*
X184869970Y-121219802D01*
X184750417Y-121278778D01*
X184630415Y-121337937D01*
X184630356Y-121338005D01*
X184630274Y-121338045D01*
X184542012Y-121438714D01*
X184454162Y-121538860D01*
X184454133Y-121538946D01*
X184454073Y-121539014D01*
X183933594Y-122440774D01*
X183679935Y-122294269D01*
X183553430Y-122251304D01*
X183427049Y-122208341D01*
X183426951Y-122208347D01*
X183426859Y-122208316D01*
X183292766Y-122217083D01*
X183160340Y-122225704D01*
X183160254Y-122225747D01*
X183160155Y-122225753D01*
X183040283Y-122284844D01*
X182920578Y-122343810D01*
X182920513Y-122343884D01*
X182920426Y-122343927D01*
X182832658Y-122443974D01*
X182744263Y-122544679D01*
X181093265Y-125401380D01*
X181093248Y-125401431D01*
X181093211Y-125401473D01*
X181049880Y-125529005D01*
X181007241Y-125654432D01*
X181007245Y-125654486D01*
X181007227Y-125654538D01*
X181016057Y-125789853D01*
X181024604Y-125921141D01*
X181024627Y-125921188D01*
X181024631Y-125921244D01*
X181084470Y-126042672D01*
X181142710Y-126160903D01*
X181142751Y-126160939D01*
X181142775Y-126160988D01*
X181243791Y-126249628D01*
X181343579Y-126337218D01*
X181343630Y-126337235D01*
X181343672Y-126337272D01*
X181599548Y-126485100D01*
X181079207Y-127385778D01*
X181079147Y-127385956D01*
X181079022Y-127386098D01*
X181035837Y-127513425D01*
X180993225Y-127638844D01*
X180993237Y-127639030D01*
X180993176Y-127639210D01*
X92884591Y-127639210D01*
X92914460Y-127489050D01*
X92914460Y-114688480D01*
X92862317Y-114426342D01*
X92713828Y-114204112D01*
X92491598Y-114055623D01*
X92229460Y-114003480D01*
X92096853Y-114003480D01*
X92061717Y-113826842D01*
X91913228Y-113604612D01*
X91690998Y-113456123D01*
X91428860Y-113403980D01*
X77429310Y-113403980D01*
X77167172Y-113456123D01*
X76944942Y-113604612D01*
X76796453Y-113826842D01*
X76761317Y-114003480D01*
X76630050Y-114003480D01*
X76367912Y-114055623D01*
X76145682Y-114204112D01*
X75997193Y-114426342D01*
X75945050Y-114688480D01*
X75690000Y-114688480D01*
X75690000Y-112379620D01*
X94984800Y-112379620D01*
X94984800Y-125180190D01*
X95036943Y-125442328D01*
X95185432Y-125664558D01*
X95407662Y-125813047D01*
X95669800Y-125865190D01*
X95801492Y-125865190D01*
X95836343Y-126040398D01*
X95984832Y-126262628D01*
X96207062Y-126411117D01*
X96469200Y-126463260D01*
X110468500Y-126463260D01*
X110730638Y-126411117D01*
X110952868Y-126262628D01*
X111101357Y-126040398D01*
X111136208Y-125865190D01*
X111269300Y-125865190D01*
X111531438Y-125813047D01*
X111753668Y-125664558D01*
X111902157Y-125442328D01*
X111954300Y-125180190D01*
X111954300Y-112379620D01*
X111902157Y-112117482D01*
X111753668Y-111895252D01*
X111531438Y-111746763D01*
X111269300Y-111694620D01*
X111136493Y-111694620D01*
X111101357Y-111517982D01*
X110952868Y-111295752D01*
X110730638Y-111147263D01*
X110468500Y-111095120D01*
X96469200Y-111095120D01*
X96207062Y-111147263D01*
X95984832Y-111295752D01*
X95836343Y-111517982D01*
X95801207Y-111694620D01*
X95669800Y-111694620D01*
X95407662Y-111746763D01*
X95185432Y-111895252D01*
X95036943Y-112117482D01*
X94984800Y-112379620D01*
X75690000Y-112379620D01*
X75690000Y-110061593D01*
X92214677Y-110061593D01*
X92224975Y-110377507D01*
X92224699Y-110693599D01*
X92236184Y-110721395D01*
X92237164Y-110751453D01*
X92457901Y-111284359D01*
X92470954Y-111289581D01*
X92488281Y-111331515D01*
X92975918Y-111820004D01*
X93020149Y-111838370D01*
X93025641Y-111852099D01*
X93321448Y-111963481D01*
X93613373Y-112084699D01*
X93643448Y-112084725D01*
X93671593Y-112095323D01*
X93987507Y-112085025D01*
X94303599Y-112085301D01*
X94331395Y-112073816D01*
X94361453Y-112072836D01*
X94894359Y-111852099D01*
X94899581Y-111839046D01*
X94941515Y-111821719D01*
X95430004Y-111334082D01*
X95448370Y-111289851D01*
X95462099Y-111284359D01*
X95573481Y-110988552D01*
X95694699Y-110696627D01*
X95694725Y-110666552D01*
X95705323Y-110638407D01*
X95695025Y-110322493D01*
X95695301Y-110006401D01*
X95687260Y-109986940D01*
X114083060Y-109986940D01*
X114083060Y-122787510D01*
X114135203Y-123049648D01*
X114283692Y-123271878D01*
X114505922Y-123420367D01*
X114768060Y-123472510D01*
X114899752Y-123472510D01*
X114934603Y-123647718D01*
X115083092Y-123869948D01*
X115305322Y-124018437D01*
X115567460Y-124070580D01*
X129566760Y-124070580D01*
X129828898Y-124018437D01*
X130051128Y-123869948D01*
X130199617Y-123647718D01*
X130234468Y-123472510D01*
X130367560Y-123472510D01*
X130629698Y-123420367D01*
X130851928Y-123271878D01*
X130857996Y-123262796D01*
X157789086Y-123262796D01*
X157791985Y-123395622D01*
X157794880Y-123529831D01*
X157794917Y-123529915D01*
X157794919Y-123530006D01*
X157848449Y-123651660D01*
X157902461Y-123774497D01*
X157902527Y-123774560D01*
X157902564Y-123774644D01*
X157998825Y-123866792D01*
X158095483Y-123959369D01*
X158095568Y-123959402D01*
X158095634Y-123959465D01*
X158219109Y-124007481D01*
X158344559Y-124056303D01*
X158475604Y-124079444D01*
X158476710Y-124127130D01*
X158479617Y-124260350D01*
X158479812Y-124260793D01*
X158479823Y-124261274D01*
X158533489Y-124382784D01*
X158587260Y-124504989D01*
X158587609Y-124505324D01*
X158587804Y-124505764D01*
X158683967Y-124597565D01*
X158780329Y-124689812D01*
X158780779Y-124689987D01*
X158781128Y-124690320D01*
X158905381Y-124738443D01*
X159029430Y-124786683D01*
X172814821Y-127217443D01*
X172814823Y-127217444D01*
X172814825Y-127217444D01*
X172815330Y-127217533D01*
X172948454Y-127214628D01*
X173082037Y-127211814D01*
X173082277Y-127211709D01*
X173082540Y-127211703D01*
X173204958Y-127157838D01*
X173326757Y-127104355D01*
X173326938Y-127104166D01*
X173327179Y-127104060D01*
X173419619Y-127007496D01*
X173511725Y-126911425D01*
X173511820Y-126911181D01*
X173512002Y-126910991D01*
X173560268Y-126786876D01*
X173577578Y-126742463D01*
X173708066Y-126765504D01*
X173708150Y-126765502D01*
X173708232Y-126765534D01*
X173842119Y-126762612D01*
X173975277Y-126759739D01*
X173975357Y-126759704D01*
X173975442Y-126759702D01*
X174097205Y-126706125D01*
X174219942Y-126652155D01*
X174220001Y-126652093D01*
X174220081Y-126652058D01*
X174312797Y-126555205D01*
X174404813Y-126459132D01*
X174404845Y-126459049D01*
X174404903Y-126458989D01*
X174453163Y-126334890D01*
X174501744Y-126210054D01*
X174501742Y-126209970D01*
X174501774Y-126209888D01*
X176724574Y-113603628D01*
X176724563Y-113603128D01*
X176724743Y-113602663D01*
X176721645Y-113469446D01*
X176718742Y-113336417D01*
X176718542Y-113335962D01*
X176718530Y-113335462D01*
X176664649Y-113213482D01*
X176611098Y-113091779D01*
X176610738Y-113091434D01*
X176610536Y-113090977D01*
X176514183Y-112999003D01*
X176418029Y-112906956D01*
X176417563Y-112906775D01*
X176417203Y-112906431D01*
X176293337Y-112858466D01*
X176168928Y-112810086D01*
X176168428Y-112810097D01*
X176167963Y-112809917D01*
X176039370Y-112787432D01*
X176038382Y-112742139D01*
X176035577Y-112608028D01*
X176035447Y-112607732D01*
X176035440Y-112607411D01*
X175981894Y-112485722D01*
X175928157Y-112363292D01*
X175927924Y-112363069D01*
X175927794Y-112362773D01*
X175831342Y-112270443D01*
X175735256Y-112178293D01*
X175734956Y-112178176D01*
X175734723Y-112177953D01*
X175610530Y-112129658D01*
X175486244Y-112081195D01*
X175485921Y-112081202D01*
X175485621Y-112081085D01*
X161698321Y-109650185D01*
X161565294Y-109653090D01*
X161431728Y-109655883D01*
X161431432Y-109656013D01*
X161431111Y-109656020D01*
X161309422Y-109709566D01*
X161186992Y-109763303D01*
X161186769Y-109763536D01*
X161186473Y-109763666D01*
X161094143Y-109860118D01*
X161001993Y-109956204D01*
X161001876Y-109956504D01*
X161001653Y-109956737D01*
X160953358Y-110080930D01*
X160936056Y-110125303D01*
X160805282Y-110102214D01*
X160805201Y-110102216D01*
X160805124Y-110102186D01*
X160671985Y-110105092D01*
X160538070Y-110107984D01*
X160537994Y-110108017D01*
X160537914Y-110108019D01*
X160417025Y-110161212D01*
X160293407Y-110215572D01*
X160293350Y-110215631D01*
X160293276Y-110215664D01*
X160202308Y-110310692D01*
X160108541Y-110408599D01*
X160108511Y-110408677D01*
X160108455Y-110408735D01*
X160060317Y-110532523D01*
X160011614Y-110657678D01*
X160011616Y-110657759D01*
X160011586Y-110657836D01*
X157789086Y-123262796D01*
X130857996Y-123262796D01*
X131000417Y-123049648D01*
X131052560Y-122787510D01*
X131052560Y-109986940D01*
X131000417Y-109724802D01*
X130851928Y-109502572D01*
X130629698Y-109354083D01*
X130367560Y-109301940D01*
X130234753Y-109301940D01*
X130199617Y-109125302D01*
X130051128Y-108903072D01*
X129828898Y-108754583D01*
X129566760Y-108702440D01*
X115567460Y-108702440D01*
X115305322Y-108754583D01*
X115083092Y-108903072D01*
X114934603Y-109125302D01*
X114899467Y-109301940D01*
X114768060Y-109301940D01*
X114505922Y-109354083D01*
X114283692Y-109502572D01*
X114135203Y-109724802D01*
X114083060Y-109986940D01*
X95687260Y-109986940D01*
X95683816Y-109978605D01*
X95682836Y-109948547D01*
X95462099Y-109415641D01*
X95449046Y-109410419D01*
X95431719Y-109368485D01*
X94944082Y-108879996D01*
X94899851Y-108861630D01*
X94894359Y-108847901D01*
X94598552Y-108736519D01*
X94306627Y-108615301D01*
X94276552Y-108615275D01*
X94248407Y-108604677D01*
X93932493Y-108614975D01*
X93616401Y-108614699D01*
X93588605Y-108626184D01*
X93558547Y-108627164D01*
X93025641Y-108847901D01*
X93020419Y-108860954D01*
X92978485Y-108878281D01*
X92489996Y-109365918D01*
X92471630Y-109410149D01*
X92457901Y-109415641D01*
X92346519Y-109711448D01*
X92225301Y-110003373D01*
X92225275Y-110033448D01*
X92214677Y-110061593D01*
X75690000Y-110061593D01*
X75690000Y-95562280D01*
X76011090Y-95562280D01*
X76011090Y-108362850D01*
X76063233Y-108624988D01*
X76211722Y-108847218D01*
X76433952Y-108995707D01*
X76696090Y-109047850D01*
X76827642Y-109047850D01*
X76862493Y-109223058D01*
X77010982Y-109445288D01*
X77233212Y-109593777D01*
X77495350Y-109645920D01*
X91494900Y-109645920D01*
X91757038Y-109593777D01*
X91979268Y-109445288D01*
X92127757Y-109223058D01*
X92162608Y-109047850D01*
X92295500Y-109047850D01*
X92557638Y-108995707D01*
X92779868Y-108847218D01*
X92928357Y-108624988D01*
X92980500Y-108362850D01*
X92980500Y-95562280D01*
X92928357Y-95300142D01*
X92779868Y-95077912D01*
X92557638Y-94929423D01*
X92295500Y-94877280D01*
X92162893Y-94877280D01*
X92127757Y-94700642D01*
X91979268Y-94478412D01*
X91757038Y-94329923D01*
X91494900Y-94277780D01*
X77495350Y-94277780D01*
X77233212Y-94329923D01*
X77010982Y-94478412D01*
X76862493Y-94700642D01*
X76827357Y-94877280D01*
X76696090Y-94877280D01*
X76433952Y-94929423D01*
X76211722Y-95077912D01*
X76063233Y-95300142D01*
X76011090Y-95562280D01*
X75690000Y-95562280D01*
X75690000Y-93253420D01*
X95050840Y-93253420D01*
X95050840Y-106053990D01*
X95102983Y-106316128D01*
X95251472Y-106538358D01*
X95473702Y-106686847D01*
X95735840Y-106738990D01*
X95867532Y-106738990D01*
X95902383Y-106914198D01*
X96050872Y-107136428D01*
X96273102Y-107284917D01*
X96535240Y-107337060D01*
X110534540Y-107337060D01*
X110796678Y-107284917D01*
X111018908Y-107136428D01*
X111167397Y-106914198D01*
X111202248Y-106738990D01*
X111335340Y-106738990D01*
X111597478Y-106686847D01*
X111784934Y-106561593D01*
X126754677Y-106561593D01*
X126764975Y-106877507D01*
X126764699Y-107193599D01*
X126776184Y-107221395D01*
X126777164Y-107251453D01*
X126997901Y-107784359D01*
X127010954Y-107789581D01*
X127028281Y-107831515D01*
X127515918Y-108320004D01*
X127560149Y-108338370D01*
X127565641Y-108352099D01*
X127861448Y-108463481D01*
X128153373Y-108584699D01*
X128183448Y-108584725D01*
X128211593Y-108595323D01*
X128527507Y-108585025D01*
X128843599Y-108585301D01*
X128871395Y-108573816D01*
X128901453Y-108572836D01*
X129434359Y-108352099D01*
X129439581Y-108339046D01*
X129481515Y-108321719D01*
X129970004Y-107834082D01*
X129988370Y-107789851D01*
X130002099Y-107784359D01*
X130067939Y-107609500D01*
X133087340Y-107609500D01*
X133087340Y-120410070D01*
X133139483Y-120672208D01*
X133287972Y-120894438D01*
X133510202Y-121042927D01*
X133772340Y-121095070D01*
X133904032Y-121095070D01*
X133938883Y-121270278D01*
X134087372Y-121492508D01*
X134309602Y-121640997D01*
X134571740Y-121693140D01*
X148571040Y-121693140D01*
X148833178Y-121640997D01*
X149055408Y-121492508D01*
X149203897Y-121270278D01*
X149238748Y-121095070D01*
X149371840Y-121095070D01*
X149633978Y-121042927D01*
X149856208Y-120894438D01*
X150004697Y-120672208D01*
X150056840Y-120410070D01*
X150056840Y-108931593D01*
X183034677Y-108931593D01*
X183044975Y-109247507D01*
X183044699Y-109563599D01*
X183056184Y-109591395D01*
X183057164Y-109621453D01*
X183277901Y-110154359D01*
X183290954Y-110159581D01*
X183308281Y-110201515D01*
X183795918Y-110690004D01*
X183840149Y-110708370D01*
X183845641Y-110722099D01*
X184141448Y-110833481D01*
X184433373Y-110954699D01*
X184463448Y-110954725D01*
X184491593Y-110965323D01*
X184807507Y-110955025D01*
X185123599Y-110955301D01*
X185151395Y-110943816D01*
X185181453Y-110942836D01*
X185714359Y-110722099D01*
X185719581Y-110709046D01*
X185761515Y-110691719D01*
X186250004Y-110204082D01*
X186268370Y-110159851D01*
X186282099Y-110154359D01*
X186393481Y-109858552D01*
X186514699Y-109566627D01*
X186514725Y-109536552D01*
X186525323Y-109508407D01*
X186515025Y-109192493D01*
X186515301Y-108876401D01*
X186503816Y-108848605D01*
X186502836Y-108818547D01*
X186282099Y-108285641D01*
X186269046Y-108280419D01*
X186251719Y-108238485D01*
X185764082Y-107749996D01*
X185719851Y-107731630D01*
X185714359Y-107717901D01*
X185418552Y-107606519D01*
X185126627Y-107485301D01*
X185096552Y-107485275D01*
X185068407Y-107474677D01*
X184752493Y-107484975D01*
X184436401Y-107484699D01*
X184408605Y-107496184D01*
X184378547Y-107497164D01*
X183845641Y-107717901D01*
X183840419Y-107730954D01*
X183798485Y-107748281D01*
X183309996Y-108235918D01*
X183291630Y-108280149D01*
X183277901Y-108285641D01*
X183166519Y-108581448D01*
X183045301Y-108873373D01*
X183045275Y-108903448D01*
X183034677Y-108931593D01*
X150056840Y-108931593D01*
X150056840Y-107609500D01*
X150004697Y-107347362D01*
X149856208Y-107125132D01*
X149633978Y-106976643D01*
X149371840Y-106924500D01*
X149239033Y-106924500D01*
X149203897Y-106747862D01*
X149079437Y-106561593D01*
X153164677Y-106561593D01*
X153174975Y-106877507D01*
X153174699Y-107193599D01*
X153186184Y-107221395D01*
X153187164Y-107251453D01*
X153407901Y-107784359D01*
X153420954Y-107789581D01*
X153438281Y-107831515D01*
X153925918Y-108320004D01*
X153970149Y-108338370D01*
X153975641Y-108352099D01*
X154271448Y-108463481D01*
X154563373Y-108584699D01*
X154593448Y-108584725D01*
X154621593Y-108595323D01*
X154937507Y-108585025D01*
X155253599Y-108585301D01*
X155281395Y-108573816D01*
X155311453Y-108572836D01*
X155844359Y-108352099D01*
X155849581Y-108339046D01*
X155891515Y-108321719D01*
X156380004Y-107834082D01*
X156398370Y-107789851D01*
X156412099Y-107784359D01*
X156523481Y-107488552D01*
X156644699Y-107196627D01*
X156644725Y-107166552D01*
X156655323Y-107138407D01*
X156645025Y-106822493D01*
X156645301Y-106506401D01*
X156633816Y-106478605D01*
X156632836Y-106448547D01*
X156412099Y-105915641D01*
X156399046Y-105910419D01*
X156381719Y-105868485D01*
X155894082Y-105379996D01*
X155849851Y-105361630D01*
X155844359Y-105347901D01*
X155548552Y-105236519D01*
X155256627Y-105115301D01*
X155226552Y-105115275D01*
X155198407Y-105104677D01*
X154882493Y-105114975D01*
X154566401Y-105114699D01*
X154538605Y-105126184D01*
X154508547Y-105127164D01*
X153975641Y-105347901D01*
X153970419Y-105360954D01*
X153928485Y-105378281D01*
X153439996Y-105865918D01*
X153421630Y-105910149D01*
X153407901Y-105915641D01*
X153296519Y-106211448D01*
X153175301Y-106503373D01*
X153175275Y-106533448D01*
X153164677Y-106561593D01*
X149079437Y-106561593D01*
X149055408Y-106525632D01*
X148833178Y-106377143D01*
X148571040Y-106325000D01*
X134571740Y-106325000D01*
X134309602Y-106377143D01*
X134087372Y-106525632D01*
X133938883Y-106747862D01*
X133903747Y-106924500D01*
X133772340Y-106924500D01*
X133510202Y-106976643D01*
X133287972Y-107125132D01*
X133139483Y-107347362D01*
X133087340Y-107609500D01*
X130067939Y-107609500D01*
X130113481Y-107488552D01*
X130234699Y-107196627D01*
X130234725Y-107166552D01*
X130245323Y-107138407D01*
X130235025Y-106822493D01*
X130235301Y-106506401D01*
X130223816Y-106478605D01*
X130222836Y-106448547D01*
X130002099Y-105915641D01*
X129989046Y-105910419D01*
X129971719Y-105868485D01*
X129484082Y-105379996D01*
X129439851Y-105361630D01*
X129434359Y-105347901D01*
X129138552Y-105236519D01*
X128846627Y-105115301D01*
X128816552Y-105115275D01*
X128788407Y-105104677D01*
X128472493Y-105114975D01*
X128156401Y-105114699D01*
X128128605Y-105126184D01*
X128098547Y-105127164D01*
X127565641Y-105347901D01*
X127560419Y-105360954D01*
X127518485Y-105378281D01*
X127029996Y-105865918D01*
X127011630Y-105910149D01*
X126997901Y-105915641D01*
X126886519Y-106211448D01*
X126765301Y-106503373D01*
X126765275Y-106533448D01*
X126754677Y-106561593D01*
X111784934Y-106561593D01*
X111819708Y-106538358D01*
X111968197Y-106316128D01*
X112020340Y-106053990D01*
X112020340Y-93253420D01*
X111968197Y-92991282D01*
X111819708Y-92769052D01*
X111597478Y-92620563D01*
X111335340Y-92568420D01*
X111202533Y-92568420D01*
X111167397Y-92391782D01*
X111018908Y-92169552D01*
X110796678Y-92021063D01*
X110534540Y-91968920D01*
X96535240Y-91968920D01*
X96273102Y-92021063D01*
X96050872Y-92169552D01*
X95902383Y-92391782D01*
X95867247Y-92568420D01*
X95735840Y-92568420D01*
X95473702Y-92620563D01*
X95251472Y-92769052D01*
X95102983Y-92991282D01*
X95050840Y-93253420D01*
X75690000Y-93253420D01*
X75690000Y-90860740D01*
X114149100Y-90860740D01*
X114149100Y-103661310D01*
X114201243Y-103923448D01*
X114349732Y-104145678D01*
X114571962Y-104294167D01*
X114834100Y-104346310D01*
X114965792Y-104346310D01*
X115000643Y-104521518D01*
X115149132Y-104743748D01*
X115371362Y-104892237D01*
X115633500Y-104944380D01*
X129632800Y-104944380D01*
X129894938Y-104892237D01*
X130117168Y-104743748D01*
X130265657Y-104521518D01*
X130300508Y-104346310D01*
X130433600Y-104346310D01*
X130695738Y-104294167D01*
X130917968Y-104145678D01*
X131066457Y-103923448D01*
X131118600Y-103661310D01*
X131118600Y-90860740D01*
X131066457Y-90598602D01*
X130917968Y-90376372D01*
X130695738Y-90227883D01*
X130433600Y-90175740D01*
X130300793Y-90175740D01*
X130265657Y-89999102D01*
X130117168Y-89776872D01*
X129894938Y-89628383D01*
X129632800Y-89576240D01*
X115633500Y-89576240D01*
X115371362Y-89628383D01*
X115149132Y-89776872D01*
X115000643Y-89999102D01*
X114965507Y-90175740D01*
X114834100Y-90175740D01*
X114571962Y-90227883D01*
X114349732Y-90376372D01*
X114201243Y-90598602D01*
X114149100Y-90860740D01*
X75690000Y-90860740D01*
X75690000Y-76639280D01*
X76018710Y-76639280D01*
X76018710Y-89439850D01*
X76070853Y-89701988D01*
X76219342Y-89924218D01*
X76441572Y-90072707D01*
X76703710Y-90124850D01*
X76835262Y-90124850D01*
X76870113Y-90300058D01*
X77018602Y-90522288D01*
X77240832Y-90670777D01*
X77502970Y-90722920D01*
X91502520Y-90722920D01*
X91764658Y-90670777D01*
X91986888Y-90522288D01*
X92135377Y-90300058D01*
X92170228Y-90124850D01*
X92303120Y-90124850D01*
X92565258Y-90072707D01*
X92787488Y-89924218D01*
X92935977Y-89701988D01*
X92988120Y-89439850D01*
X92988120Y-88483300D01*
X133153380Y-88483300D01*
X133153380Y-101283870D01*
X133205523Y-101546008D01*
X133354012Y-101768238D01*
X133576242Y-101916727D01*
X133838380Y-101968870D01*
X133970072Y-101968870D01*
X134004923Y-102144078D01*
X134153412Y-102366308D01*
X134375642Y-102514797D01*
X134637780Y-102566940D01*
X148637080Y-102566940D01*
X148899218Y-102514797D01*
X149121448Y-102366308D01*
X149269937Y-102144078D01*
X149304788Y-101968870D01*
X149437880Y-101968870D01*
X149700018Y-101916727D01*
X149922248Y-101768238D01*
X150070737Y-101546008D01*
X150122880Y-101283870D01*
X150122880Y-90837880D01*
X152144960Y-90837880D01*
X152144960Y-103638450D01*
X152197103Y-103900588D01*
X152345592Y-104122818D01*
X152567822Y-104271307D01*
X152829960Y-104323450D01*
X152961652Y-104323450D01*
X152996503Y-104498658D01*
X153144992Y-104720888D01*
X153367222Y-104869377D01*
X153629360Y-104921520D01*
X167628660Y-104921520D01*
X167890798Y-104869377D01*
X168113028Y-104720888D01*
X168261517Y-104498658D01*
X168296368Y-104323450D01*
X168429460Y-104323450D01*
X168691598Y-104271307D01*
X168913828Y-104122818D01*
X169062317Y-103900588D01*
X169114460Y-103638450D01*
X169114460Y-93210240D01*
X171250840Y-93210240D01*
X171250840Y-106010810D01*
X171302983Y-106272948D01*
X171451472Y-106495178D01*
X171673702Y-106643667D01*
X171935840Y-106695810D01*
X172067532Y-106695810D01*
X172102383Y-106871018D01*
X172250872Y-107093248D01*
X172473102Y-107241737D01*
X172735240Y-107293880D01*
X186734540Y-107293880D01*
X186996678Y-107241737D01*
X187218908Y-107093248D01*
X187367397Y-106871018D01*
X187402248Y-106695810D01*
X187535340Y-106695810D01*
X187797478Y-106643667D01*
X188019708Y-106495178D01*
X188168197Y-106272948D01*
X188220340Y-106010810D01*
X188220340Y-93210240D01*
X188168197Y-92948102D01*
X188019708Y-92725872D01*
X187797478Y-92577383D01*
X187535340Y-92525240D01*
X187402533Y-92525240D01*
X187367397Y-92348602D01*
X187218908Y-92126372D01*
X186996678Y-91977883D01*
X186734540Y-91925740D01*
X172735240Y-91925740D01*
X172473102Y-91977883D01*
X172250872Y-92126372D01*
X172102383Y-92348602D01*
X172067247Y-92525240D01*
X171935840Y-92525240D01*
X171673702Y-92577383D01*
X171451472Y-92725872D01*
X171302983Y-92948102D01*
X171250840Y-93210240D01*
X169114460Y-93210240D01*
X169114460Y-90837880D01*
X169062317Y-90575742D01*
X168913828Y-90353512D01*
X168691598Y-90205023D01*
X168429460Y-90152880D01*
X168296653Y-90152880D01*
X168261517Y-89976242D01*
X168113028Y-89754012D01*
X167890798Y-89605523D01*
X167628660Y-89553380D01*
X153629360Y-89553380D01*
X153367222Y-89605523D01*
X153144992Y-89754012D01*
X152996503Y-89976242D01*
X152961367Y-90152880D01*
X152829960Y-90152880D01*
X152567822Y-90205023D01*
X152345592Y-90353512D01*
X152197103Y-90575742D01*
X152144960Y-90837880D01*
X150122880Y-90837880D01*
X150122880Y-88483300D01*
X150070737Y-88221162D01*
X149922248Y-87998932D01*
X149700018Y-87850443D01*
X149437880Y-87798300D01*
X149305073Y-87798300D01*
X149269937Y-87621662D01*
X149121448Y-87399432D01*
X148899218Y-87250943D01*
X148637080Y-87198800D01*
X134637780Y-87198800D01*
X134375642Y-87250943D01*
X134153412Y-87399432D01*
X134004923Y-87621662D01*
X133969787Y-87798300D01*
X133838380Y-87798300D01*
X133576242Y-87850443D01*
X133354012Y-87998932D01*
X133205523Y-88221162D01*
X133153380Y-88483300D01*
X92988120Y-88483300D01*
X92988120Y-76639280D01*
X92935977Y-76377142D01*
X92787488Y-76154912D01*
X92565258Y-76006423D01*
X92303120Y-75954280D01*
X92170513Y-75954280D01*
X92135377Y-75777642D01*
X91986888Y-75555412D01*
X91764658Y-75406923D01*
X91502520Y-75354780D01*
X77502970Y-75354780D01*
X77240832Y-75406923D01*
X77018602Y-75555412D01*
X76870113Y-75777642D01*
X76834977Y-75954280D01*
X76703710Y-75954280D01*
X76441572Y-76006423D01*
X76219342Y-76154912D01*
X76070853Y-76377142D01*
X76018710Y-76639280D01*
X75690000Y-76639280D01*
X75690000Y-74330420D01*
X95058460Y-74330420D01*
X95058460Y-87130990D01*
X95110603Y-87393128D01*
X95259092Y-87615358D01*
X95481322Y-87763847D01*
X95743460Y-87815990D01*
X95875152Y-87815990D01*
X95910003Y-87991198D01*
X96058492Y-88213428D01*
X96280722Y-88361917D01*
X96542860Y-88414060D01*
X110542160Y-88414060D01*
X110804298Y-88361917D01*
X111026528Y-88213428D01*
X111175017Y-87991198D01*
X111209868Y-87815990D01*
X111342960Y-87815990D01*
X111605098Y-87763847D01*
X111827328Y-87615358D01*
X111975817Y-87393128D01*
X112027960Y-87130990D01*
X112027960Y-74330420D01*
X111975817Y-74068282D01*
X111827328Y-73846052D01*
X111605098Y-73697563D01*
X111342960Y-73645420D01*
X111210153Y-73645420D01*
X111175017Y-73468782D01*
X111026528Y-73246552D01*
X110804298Y-73098063D01*
X110542160Y-73045920D01*
X96542860Y-73045920D01*
X96280722Y-73098063D01*
X96058492Y-73246552D01*
X95910003Y-73468782D01*
X95874867Y-73645420D01*
X95743460Y-73645420D01*
X95481322Y-73697563D01*
X95259092Y-73846052D01*
X95110603Y-74068282D01*
X95058460Y-74330420D01*
X75690000Y-74330420D01*
X75690000Y-71861593D01*
X92214677Y-71861593D01*
X92224975Y-72177507D01*
X92224699Y-72493599D01*
X92236184Y-72521395D01*
X92237164Y-72551453D01*
X92457901Y-73084359D01*
X92470954Y-73089581D01*
X92488281Y-73131515D01*
X92975918Y-73620004D01*
X93020149Y-73638370D01*
X93025641Y-73652099D01*
X93321448Y-73763481D01*
X93613373Y-73884699D01*
X93643448Y-73884725D01*
X93671593Y-73895323D01*
X93987507Y-73885025D01*
X94303599Y-73885301D01*
X94331395Y-73873816D01*
X94361453Y-73872836D01*
X94894359Y-73652099D01*
X94899581Y-73639046D01*
X94941515Y-73621719D01*
X95430004Y-73134082D01*
X95448370Y-73089851D01*
X95462099Y-73084359D01*
X95573481Y-72788552D01*
X95694699Y-72496627D01*
X95694725Y-72466552D01*
X95705323Y-72438407D01*
X95695025Y-72122493D01*
X95695186Y-71937740D01*
X114156720Y-71937740D01*
X114156720Y-84738310D01*
X114208863Y-85000448D01*
X114357352Y-85222678D01*
X114579582Y-85371167D01*
X114841720Y-85423310D01*
X114973412Y-85423310D01*
X115008263Y-85598518D01*
X115156752Y-85820748D01*
X115378982Y-85969237D01*
X115641120Y-86021380D01*
X129640420Y-86021380D01*
X129902558Y-85969237D01*
X130124788Y-85820748D01*
X130273277Y-85598518D01*
X130308128Y-85423310D01*
X130441220Y-85423310D01*
X130703358Y-85371167D01*
X130925588Y-85222678D01*
X131074077Y-85000448D01*
X131126220Y-84738310D01*
X131126220Y-71937740D01*
X131074077Y-71675602D01*
X130925588Y-71453372D01*
X130703358Y-71304883D01*
X130441220Y-71252740D01*
X130308413Y-71252740D01*
X130273277Y-71076102D01*
X130124788Y-70853872D01*
X129902558Y-70705383D01*
X129640420Y-70653240D01*
X115641120Y-70653240D01*
X115378982Y-70705383D01*
X115156752Y-70853872D01*
X115008263Y-71076102D01*
X114973127Y-71252740D01*
X114841720Y-71252740D01*
X114579582Y-71304883D01*
X114357352Y-71453372D01*
X114208863Y-71675602D01*
X114156720Y-71937740D01*
X95695186Y-71937740D01*
X95695301Y-71806401D01*
X95683816Y-71778605D01*
X95682836Y-71748547D01*
X95462099Y-71215641D01*
X95449046Y-71210419D01*
X95431719Y-71168485D01*
X94944082Y-70679996D01*
X94899851Y-70661630D01*
X94894359Y-70647901D01*
X94598552Y-70536519D01*
X94306627Y-70415301D01*
X94276552Y-70415275D01*
X94248407Y-70404677D01*
X93932493Y-70414975D01*
X93616401Y-70414699D01*
X93588605Y-70426184D01*
X93558547Y-70427164D01*
X93025641Y-70647901D01*
X93020419Y-70660954D01*
X92978485Y-70678281D01*
X92489996Y-71165918D01*
X92471630Y-71210149D01*
X92457901Y-71215641D01*
X92346519Y-71511448D01*
X92225301Y-71803373D01*
X92225275Y-71833448D01*
X92214677Y-71861593D01*
X75690000Y-71861593D01*
X75690000Y-57416560D01*
X75901870Y-57416560D01*
X75901870Y-70217130D01*
X75954013Y-70479268D01*
X76102502Y-70701498D01*
X76324732Y-70849987D01*
X76586870Y-70902130D01*
X76718422Y-70902130D01*
X76753273Y-71077338D01*
X76901762Y-71299568D01*
X77123992Y-71448057D01*
X77386130Y-71500200D01*
X91385680Y-71500200D01*
X91647818Y-71448057D01*
X91870048Y-71299568D01*
X92018537Y-71077338D01*
X92053388Y-70902130D01*
X92186280Y-70902130D01*
X92448418Y-70849987D01*
X92670648Y-70701498D01*
X92819137Y-70479268D01*
X92871280Y-70217130D01*
X92871280Y-57416560D01*
X92819137Y-57154422D01*
X92670648Y-56932192D01*
X92448418Y-56783703D01*
X92186280Y-56731560D01*
X92053673Y-56731560D01*
X92018537Y-56554922D01*
X91870048Y-56332692D01*
X91647818Y-56184203D01*
X91385680Y-56132060D01*
X77386130Y-56132060D01*
X77123992Y-56184203D01*
X76901762Y-56332692D01*
X76753273Y-56554922D01*
X76718137Y-56731560D01*
X76586870Y-56731560D01*
X76324732Y-56783703D01*
X76102502Y-56932192D01*
X75954013Y-57154422D01*
X75901870Y-57416560D01*
X75690000Y-57416560D01*
X75690000Y-55107700D01*
X94941620Y-55107700D01*
X94941620Y-67908270D01*
X94993763Y-68170408D01*
X95142252Y-68392638D01*
X95364482Y-68541127D01*
X95626620Y-68593270D01*
X95758312Y-68593270D01*
X95793163Y-68768478D01*
X95941652Y-68990708D01*
X96163882Y-69139197D01*
X96426020Y-69191340D01*
X110425320Y-69191340D01*
X110687458Y-69139197D01*
X110909688Y-68990708D01*
X111058177Y-68768478D01*
X111093028Y-68593270D01*
X111226120Y-68593270D01*
X111488258Y-68541127D01*
X111607289Y-68461593D01*
X126754677Y-68461593D01*
X126764975Y-68777507D01*
X126764699Y-69093599D01*
X126776184Y-69121395D01*
X126777164Y-69151453D01*
X126997901Y-69684359D01*
X127010954Y-69689581D01*
X127028281Y-69731515D01*
X127515918Y-70220004D01*
X127560149Y-70238370D01*
X127565641Y-70252099D01*
X127861448Y-70363481D01*
X128153373Y-70484699D01*
X128183448Y-70484725D01*
X128211593Y-70495323D01*
X128527507Y-70485025D01*
X128843599Y-70485301D01*
X128871395Y-70473816D01*
X128901453Y-70472836D01*
X129434359Y-70252099D01*
X129439581Y-70239046D01*
X129481515Y-70221719D01*
X129970004Y-69734082D01*
X129988370Y-69689851D01*
X130002099Y-69684359D01*
X130048811Y-69560300D01*
X133161000Y-69560300D01*
X133161000Y-82360870D01*
X133213143Y-82623008D01*
X133361632Y-82845238D01*
X133583862Y-82993727D01*
X133846000Y-83045870D01*
X133977692Y-83045870D01*
X134012543Y-83221078D01*
X134161032Y-83443308D01*
X134383262Y-83591797D01*
X134645400Y-83643940D01*
X148644700Y-83643940D01*
X148906838Y-83591797D01*
X149129068Y-83443308D01*
X149277557Y-83221078D01*
X149312408Y-83045870D01*
X149445500Y-83045870D01*
X149707638Y-82993727D01*
X149929868Y-82845238D01*
X150078357Y-82623008D01*
X150130500Y-82360870D01*
X150130500Y-71914880D01*
X152152580Y-71914880D01*
X152152580Y-84715450D01*
X152204723Y-84977588D01*
X152353212Y-85199818D01*
X152575442Y-85348307D01*
X152837580Y-85400450D01*
X152969272Y-85400450D01*
X153004123Y-85575658D01*
X153152612Y-85797888D01*
X153374842Y-85946377D01*
X153636980Y-85998520D01*
X167636280Y-85998520D01*
X167898418Y-85946377D01*
X168120648Y-85797888D01*
X168269137Y-85575658D01*
X168303988Y-85400450D01*
X168437080Y-85400450D01*
X168699218Y-85348307D01*
X168921448Y-85199818D01*
X169069937Y-84977588D01*
X169122080Y-84715450D01*
X169122080Y-74287240D01*
X171258460Y-74287240D01*
X171258460Y-87087810D01*
X171310603Y-87349948D01*
X171459092Y-87572178D01*
X171681322Y-87720667D01*
X171943460Y-87772810D01*
X172075152Y-87772810D01*
X172110003Y-87948018D01*
X172258492Y-88170248D01*
X172480722Y-88318737D01*
X172742860Y-88370880D01*
X186742160Y-88370880D01*
X187004298Y-88318737D01*
X187226528Y-88170248D01*
X187375017Y-87948018D01*
X187409868Y-87772810D01*
X187542960Y-87772810D01*
X187805098Y-87720667D01*
X188027328Y-87572178D01*
X188175817Y-87349948D01*
X188227960Y-87087810D01*
X188227960Y-78976080D01*
X190267820Y-78976080D01*
X190267820Y-91776650D01*
X190319963Y-92038788D01*
X190468452Y-92261018D01*
X190690682Y-92409507D01*
X190952820Y-92461650D01*
X191084512Y-92461650D01*
X191119363Y-92636858D01*
X191267852Y-92859088D01*
X191490082Y-93007577D01*
X191752220Y-93059720D01*
X205751520Y-93059720D01*
X206013658Y-93007577D01*
X206235888Y-92859088D01*
X206384377Y-92636858D01*
X206419228Y-92461650D01*
X206552320Y-92461650D01*
X206814458Y-92409507D01*
X207036688Y-92261018D01*
X207185177Y-92038788D01*
X207237320Y-91776650D01*
X207237320Y-78976080D01*
X207185177Y-78713942D01*
X207036688Y-78491712D01*
X206814458Y-78343223D01*
X206552320Y-78291080D01*
X206419513Y-78291080D01*
X206384377Y-78114442D01*
X206235888Y-77892212D01*
X206013658Y-77743723D01*
X205751520Y-77691580D01*
X191752220Y-77691580D01*
X191490082Y-77743723D01*
X191267852Y-77892212D01*
X191119363Y-78114442D01*
X191084227Y-78291080D01*
X190952820Y-78291080D01*
X190690682Y-78343223D01*
X190468452Y-78491712D01*
X190319963Y-78713942D01*
X190267820Y-78976080D01*
X188227960Y-78976080D01*
X188227960Y-74287240D01*
X188175817Y-74025102D01*
X188027328Y-73802872D01*
X187805098Y-73654383D01*
X187542960Y-73602240D01*
X187410153Y-73602240D01*
X187375017Y-73425602D01*
X187226528Y-73203372D01*
X187004298Y-73054883D01*
X186742160Y-73002740D01*
X172742860Y-73002740D01*
X172480722Y-73054883D01*
X172258492Y-73203372D01*
X172110003Y-73425602D01*
X172074867Y-73602240D01*
X171943460Y-73602240D01*
X171681322Y-73654383D01*
X171459092Y-73802872D01*
X171310603Y-74025102D01*
X171258460Y-74287240D01*
X169122080Y-74287240D01*
X169122080Y-71914880D01*
X169111481Y-71861593D01*
X187504677Y-71861593D01*
X187514975Y-72177507D01*
X187514699Y-72493599D01*
X187526184Y-72521395D01*
X187527164Y-72551453D01*
X187747901Y-73084359D01*
X187760954Y-73089581D01*
X187778281Y-73131515D01*
X188265918Y-73620004D01*
X188310149Y-73638370D01*
X188315641Y-73652099D01*
X188611448Y-73763481D01*
X188903373Y-73884699D01*
X188933448Y-73884725D01*
X188961593Y-73895323D01*
X189277507Y-73885025D01*
X189593599Y-73885301D01*
X189621395Y-73873816D01*
X189651453Y-73872836D01*
X190184359Y-73652099D01*
X190189581Y-73639046D01*
X190231515Y-73621719D01*
X190651694Y-73202273D01*
X190835980Y-73238930D01*
X190967672Y-73238930D01*
X191002523Y-73414138D01*
X191151012Y-73636368D01*
X191373242Y-73784857D01*
X191635380Y-73837000D01*
X205634680Y-73837000D01*
X205896818Y-73784857D01*
X206119048Y-73636368D01*
X206267537Y-73414138D01*
X206302388Y-73238930D01*
X206435480Y-73238930D01*
X206697618Y-73186787D01*
X206919848Y-73038298D01*
X207068337Y-72816068D01*
X207120480Y-72553930D01*
X207120480Y-59753360D01*
X207068337Y-59491222D01*
X206919848Y-59268992D01*
X206697618Y-59120503D01*
X206435480Y-59068360D01*
X206302673Y-59068360D01*
X206267537Y-58891722D01*
X206119048Y-58669492D01*
X205896818Y-58521003D01*
X205634680Y-58468860D01*
X191635380Y-58468860D01*
X191373242Y-58521003D01*
X191151012Y-58669492D01*
X191002523Y-58891722D01*
X190967387Y-59068360D01*
X190835980Y-59068360D01*
X190573842Y-59120503D01*
X190351612Y-59268992D01*
X190203123Y-59491222D01*
X190150980Y-59753360D01*
X190150980Y-70635333D01*
X189888552Y-70536519D01*
X189596627Y-70415301D01*
X189566552Y-70415275D01*
X189538407Y-70404677D01*
X189222493Y-70414975D01*
X188906401Y-70414699D01*
X188878605Y-70426184D01*
X188848547Y-70427164D01*
X188315641Y-70647901D01*
X188310419Y-70660954D01*
X188268485Y-70678281D01*
X187779996Y-71165918D01*
X187761630Y-71210149D01*
X187747901Y-71215641D01*
X187636519Y-71511448D01*
X187515301Y-71803373D01*
X187515275Y-71833448D01*
X187504677Y-71861593D01*
X169111481Y-71861593D01*
X169069937Y-71652742D01*
X168921448Y-71430512D01*
X168699218Y-71282023D01*
X168437080Y-71229880D01*
X168304273Y-71229880D01*
X168269137Y-71053242D01*
X168120648Y-70831012D01*
X167898418Y-70682523D01*
X167636280Y-70630380D01*
X153636980Y-70630380D01*
X153374842Y-70682523D01*
X153152612Y-70831012D01*
X153004123Y-71053242D01*
X152968987Y-71229880D01*
X152837580Y-71229880D01*
X152575442Y-71282023D01*
X152353212Y-71430512D01*
X152204723Y-71652742D01*
X152152580Y-71914880D01*
X150130500Y-71914880D01*
X150130500Y-69560300D01*
X150078357Y-69298162D01*
X149929868Y-69075932D01*
X149707638Y-68927443D01*
X149445500Y-68875300D01*
X149312693Y-68875300D01*
X149277557Y-68698662D01*
X149129068Y-68476432D01*
X149106860Y-68461593D01*
X153164677Y-68461593D01*
X153174975Y-68777507D01*
X153174699Y-69093599D01*
X153186184Y-69121395D01*
X153187164Y-69151453D01*
X153407901Y-69684359D01*
X153420954Y-69689581D01*
X153438281Y-69731515D01*
X153925918Y-70220004D01*
X153970149Y-70238370D01*
X153975641Y-70252099D01*
X154271448Y-70363481D01*
X154563373Y-70484699D01*
X154593448Y-70484725D01*
X154621593Y-70495323D01*
X154937507Y-70485025D01*
X155253599Y-70485301D01*
X155281395Y-70473816D01*
X155311453Y-70472836D01*
X155844359Y-70252099D01*
X155849581Y-70239046D01*
X155891515Y-70221719D01*
X156380004Y-69734082D01*
X156398370Y-69689851D01*
X156412099Y-69684359D01*
X156523481Y-69388552D01*
X156644699Y-69096627D01*
X156644725Y-69066552D01*
X156655323Y-69038407D01*
X156645025Y-68722493D01*
X156645301Y-68406401D01*
X156633816Y-68378605D01*
X156632836Y-68348547D01*
X156412099Y-67815641D01*
X156399046Y-67810419D01*
X156381719Y-67768485D01*
X155894082Y-67279996D01*
X155849851Y-67261630D01*
X155844359Y-67247901D01*
X155548552Y-67136519D01*
X155256627Y-67015301D01*
X155226552Y-67015275D01*
X155198407Y-67004677D01*
X154882493Y-67014975D01*
X154566401Y-67014699D01*
X154538605Y-67026184D01*
X154508547Y-67027164D01*
X153975641Y-67247901D01*
X153970419Y-67260954D01*
X153928485Y-67278281D01*
X153439996Y-67765918D01*
X153421630Y-67810149D01*
X153407901Y-67815641D01*
X153296519Y-68111448D01*
X153175301Y-68403373D01*
X153175275Y-68433448D01*
X153164677Y-68461593D01*
X149106860Y-68461593D01*
X148906838Y-68327943D01*
X148644700Y-68275800D01*
X134645400Y-68275800D01*
X134383262Y-68327943D01*
X134161032Y-68476432D01*
X134012543Y-68698662D01*
X133977407Y-68875300D01*
X133846000Y-68875300D01*
X133583862Y-68927443D01*
X133361632Y-69075932D01*
X133213143Y-69298162D01*
X133161000Y-69560300D01*
X130048811Y-69560300D01*
X130113481Y-69388552D01*
X130234699Y-69096627D01*
X130234725Y-69066552D01*
X130245323Y-69038407D01*
X130235025Y-68722493D01*
X130235301Y-68406401D01*
X130223816Y-68378605D01*
X130222836Y-68348547D01*
X130002099Y-67815641D01*
X129989046Y-67810419D01*
X129971719Y-67768485D01*
X129484082Y-67279996D01*
X129439851Y-67261630D01*
X129434359Y-67247901D01*
X129138552Y-67136519D01*
X128846627Y-67015301D01*
X128816552Y-67015275D01*
X128788407Y-67004677D01*
X128472493Y-67014975D01*
X128156401Y-67014699D01*
X128128605Y-67026184D01*
X128098547Y-67027164D01*
X127565641Y-67247901D01*
X127560419Y-67260954D01*
X127518485Y-67278281D01*
X127029996Y-67765918D01*
X127011630Y-67810149D01*
X126997901Y-67815641D01*
X126886519Y-68111448D01*
X126765301Y-68403373D01*
X126765275Y-68433448D01*
X126754677Y-68461593D01*
X111607289Y-68461593D01*
X111710488Y-68392638D01*
X111858977Y-68170408D01*
X111911120Y-67908270D01*
X111911120Y-55107700D01*
X111858977Y-54845562D01*
X111710488Y-54623332D01*
X111488258Y-54474843D01*
X111226120Y-54422700D01*
X111093313Y-54422700D01*
X111058177Y-54246062D01*
X110909688Y-54023832D01*
X110687458Y-53875343D01*
X110425320Y-53823200D01*
X96426020Y-53823200D01*
X96163882Y-53875343D01*
X95941652Y-54023832D01*
X95793163Y-54246062D01*
X95758027Y-54422700D01*
X95626620Y-54422700D01*
X95364482Y-54474843D01*
X95142252Y-54623332D01*
X94993763Y-54845562D01*
X94941620Y-55107700D01*
X75690000Y-55107700D01*
X75690000Y-54051172D01*
X75867092Y-53952209D01*
X83177713Y-52715020D01*
X114039880Y-52715020D01*
X114039880Y-65515590D01*
X114092023Y-65777728D01*
X114240512Y-65999958D01*
X114462742Y-66148447D01*
X114724880Y-66200590D01*
X114856572Y-66200590D01*
X114891423Y-66375798D01*
X115039912Y-66598028D01*
X115262142Y-66746517D01*
X115524280Y-66798660D01*
X129523580Y-66798660D01*
X129785718Y-66746517D01*
X130007948Y-66598028D01*
X130156437Y-66375798D01*
X130191288Y-66200590D01*
X130324380Y-66200590D01*
X130586518Y-66148447D01*
X130808748Y-65999958D01*
X130957237Y-65777728D01*
X131009380Y-65515590D01*
X131009380Y-52715020D01*
X130957237Y-52452882D01*
X130808748Y-52230652D01*
X130586518Y-52082163D01*
X130324380Y-52030020D01*
X130191573Y-52030020D01*
X130156437Y-51853382D01*
X130007948Y-51631152D01*
X129785718Y-51482663D01*
X129523580Y-51430520D01*
X115524280Y-51430520D01*
X115262142Y-51482663D01*
X115039912Y-51631152D01*
X114891423Y-51853382D01*
X114856287Y-52030020D01*
X114724880Y-52030020D01*
X114462742Y-52082163D01*
X114240512Y-52230652D01*
X114092023Y-52452882D01*
X114039880Y-52715020D01*
X83177713Y-52715020D01*
X97226143Y-50337580D01*
X133044160Y-50337580D01*
X133044160Y-63138150D01*
X133096303Y-63400288D01*
X133244792Y-63622518D01*
X133467022Y-63771007D01*
X133729160Y-63823150D01*
X133860852Y-63823150D01*
X133895703Y-63998358D01*
X134044192Y-64220588D01*
X134266422Y-64369077D01*
X134528560Y-64421220D01*
X148527860Y-64421220D01*
X148789998Y-64369077D01*
X149012228Y-64220588D01*
X149160717Y-63998358D01*
X149195568Y-63823150D01*
X149328660Y-63823150D01*
X149590798Y-63771007D01*
X149813028Y-63622518D01*
X149961517Y-63400288D01*
X150013660Y-63138150D01*
X150013660Y-52692160D01*
X152035740Y-52692160D01*
X152035740Y-65492730D01*
X152087883Y-65754868D01*
X152236372Y-65977098D01*
X152458602Y-66125587D01*
X152720740Y-66177730D01*
X152852432Y-66177730D01*
X152887283Y-66352938D01*
X153035772Y-66575168D01*
X153258002Y-66723657D01*
X153520140Y-66775800D01*
X167519440Y-66775800D01*
X167781578Y-66723657D01*
X168003808Y-66575168D01*
X168152297Y-66352938D01*
X168187148Y-66177730D01*
X168320240Y-66177730D01*
X168582378Y-66125587D01*
X168804608Y-65977098D01*
X168953097Y-65754868D01*
X169005240Y-65492730D01*
X169005240Y-55064520D01*
X171141620Y-55064520D01*
X171141620Y-67865090D01*
X171193763Y-68127228D01*
X171342252Y-68349458D01*
X171564482Y-68497947D01*
X171826620Y-68550090D01*
X171958312Y-68550090D01*
X171993163Y-68725298D01*
X172141652Y-68947528D01*
X172363882Y-69096017D01*
X172626020Y-69148160D01*
X186625320Y-69148160D01*
X186887458Y-69096017D01*
X187109688Y-68947528D01*
X187258177Y-68725298D01*
X187293028Y-68550090D01*
X187426120Y-68550090D01*
X187688258Y-68497947D01*
X187910488Y-68349458D01*
X188058977Y-68127228D01*
X188111120Y-67865090D01*
X188111120Y-55064520D01*
X188058977Y-54802382D01*
X187910488Y-54580152D01*
X187688258Y-54431663D01*
X187426120Y-54379520D01*
X187293313Y-54379520D01*
X187258177Y-54202882D01*
X187109688Y-53980652D01*
X186887458Y-53832163D01*
X186625320Y-53780020D01*
X172626020Y-53780020D01*
X172363882Y-53832163D01*
X172141652Y-53980652D01*
X171993163Y-54202882D01*
X171958027Y-54379520D01*
X171826620Y-54379520D01*
X171564482Y-54431663D01*
X171342252Y-54580152D01*
X171193763Y-54802382D01*
X171141620Y-55064520D01*
X169005240Y-55064520D01*
X169005240Y-52692160D01*
X168953097Y-52430022D01*
X168804608Y-52207792D01*
X168582378Y-52059303D01*
X168320240Y-52007160D01*
X168187433Y-52007160D01*
X168152297Y-51830522D01*
X168003808Y-51608292D01*
X167781578Y-51459803D01*
X167519440Y-51407660D01*
X153520140Y-51407660D01*
X153258002Y-51459803D01*
X153035772Y-51608292D01*
X152887283Y-51830522D01*
X152852147Y-52007160D01*
X152720740Y-52007160D01*
X152458602Y-52059303D01*
X152236372Y-52207792D01*
X152087883Y-52430022D01*
X152035740Y-52692160D01*
X150013660Y-52692160D01*
X150013660Y-50337580D01*
X149961517Y-50075442D01*
X149813028Y-49853212D01*
X149590798Y-49704723D01*
X149328660Y-49652580D01*
X149195853Y-49652580D01*
X149160717Y-49475942D01*
X149012228Y-49253712D01*
X148789998Y-49105223D01*
X148527860Y-49053080D01*
X134528560Y-49053080D01*
X134266422Y-49105223D01*
X134044192Y-49253712D01*
X133895703Y-49475942D01*
X133860567Y-49652580D01*
X133729160Y-49652580D01*
X133467022Y-49704723D01*
X133244792Y-49853212D01*
X133096303Y-50075442D01*
X133044160Y-50337580D01*
X97226143Y-50337580D01*
X116268554Y-47115000D01*
X205038112Y-47115000D01*
X205927138Y-47271642D01*
X205927138Y-47271642D01*
G37*
X205927138Y-47271642D02*
X206649878Y-47688923D01*
X207200351Y-48345036D01*
X207520000Y-49106106D01*
X207520000Y-102870000D01*
X207524288Y-102891555D01*
X207524000Y-102893000D01*
X207524000Y-102894000D01*
X207528802Y-102918141D01*
X207525724Y-102942559D01*
X207530074Y-102958445D01*
X207529320Y-102982613D01*
X207531320Y-102994614D01*
X207533134Y-102999410D01*
X207533049Y-103004537D01*
X207535049Y-103015536D01*
X207561489Y-103082470D01*
X207576143Y-103156138D01*
X207586999Y-103172385D01*
X207588143Y-103178138D01*
X207591691Y-103183448D01*
X207596317Y-103200341D01*
X207602317Y-103212341D01*
X207618637Y-103233370D01*
X207627617Y-103258430D01*
X207633617Y-103268430D01*
X207672805Y-103311627D01*
X207680893Y-103329757D01*
X207704222Y-103351862D01*
X207736632Y-103400368D01*
X207738632Y-103402368D01*
X207745234Y-103406779D01*
X207747632Y-103410368D01*
X207755632Y-103418368D01*
X207762703Y-103423092D01*
X207767911Y-103429975D01*
X207776911Y-103437976D01*
X207799377Y-103451148D01*
X207813199Y-103466384D01*
X207836893Y-103477577D01*
X207874902Y-103513593D01*
X211639477Y-105884983D01*
X211881771Y-106163479D01*
X212053235Y-106427270D01*
X212104739Y-106633285D01*
X212096706Y-106699559D01*
X193656712Y-138225361D01*
X193287515Y-138371500D01*
X192923523Y-138381279D01*
X178818146Y-130153308D01*
X178750179Y-130129897D01*
X178710138Y-130103143D01*
X178689826Y-130099103D01*
X178670616Y-130088152D01*
X178664616Y-130086152D01*
X178657196Y-130085217D01*
X178656073Y-130084896D01*
X178649184Y-130081356D01*
X178642184Y-130079356D01*
X178599095Y-130075817D01*
X178561821Y-130062461D01*
X178553091Y-130062886D01*
X178538874Y-130057885D01*
X178531874Y-130056885D01*
X178489262Y-130059208D01*
X178448000Y-130051000D01*
X178442000Y-130051000D01*
X178441014Y-130051196D01*
X178435000Y-130050000D01*
X78171513Y-130050000D01*
X77282957Y-129893368D01*
X76560286Y-129476203D01*
X76023691Y-128836291D01*
X75726623Y-128020401D01*
X75690000Y-127602072D01*
X75690000Y-114688480D01*
X75945050Y-114688480D01*
X75945050Y-127489050D01*
X75997193Y-127751188D01*
X76145682Y-127973418D01*
X76367912Y-128121907D01*
X76630050Y-128174050D01*
X76761602Y-128174050D01*
X76796453Y-128349258D01*
X76944942Y-128571488D01*
X77167172Y-128719977D01*
X77429310Y-128772120D01*
X91428860Y-128772120D01*
X91690998Y-128719977D01*
X91913228Y-128571488D01*
X92061717Y-128349258D01*
X92096568Y-128174050D01*
X92229460Y-128174050D01*
X92491598Y-128121907D01*
X92713828Y-127973418D01*
X92862317Y-127751188D01*
X92884591Y-127639210D01*
X180993176Y-127639210D01*
X181002023Y-127773651D01*
X181010631Y-127905550D01*
X181010714Y-127905717D01*
X181010726Y-127905907D01*
X181069980Y-128025983D01*
X181128776Y-128145293D01*
X181128918Y-128145417D01*
X181129001Y-128145586D01*
X181229381Y-128233571D01*
X181329674Y-128321575D01*
X181329852Y-128321635D01*
X181329994Y-128321760D01*
X186167354Y-131112925D01*
X186096211Y-131236067D01*
X186096115Y-131236349D01*
X186095919Y-131236573D01*
X186053150Y-131362803D01*
X186010228Y-131489133D01*
X186010247Y-131489430D01*
X186010152Y-131489712D01*
X186018952Y-131622818D01*
X186027633Y-131755839D01*
X186027764Y-131756106D01*
X186027784Y-131756403D01*
X186086749Y-131875800D01*
X186145777Y-131995583D01*
X186146002Y-131995780D01*
X186146133Y-131996046D01*
X186246196Y-132083698D01*
X186346674Y-132171866D01*
X186346956Y-132171962D01*
X186347180Y-132172158D01*
X188773177Y-133570964D01*
X188899941Y-133613914D01*
X189026086Y-133656701D01*
X189026204Y-133656693D01*
X189026315Y-133656731D01*
X189159263Y-133647941D01*
X189292783Y-133639159D01*
X189292889Y-133639107D01*
X189293006Y-133639099D01*
X189413232Y-133579725D01*
X189532466Y-133520890D01*
X189532543Y-133520802D01*
X189532649Y-133520750D01*
X189621417Y-133419414D01*
X189708645Y-133319903D01*
X189708759Y-133319705D01*
X189708761Y-133319703D01*
X189708762Y-133319701D01*
X189778195Y-133199373D01*
X191981813Y-134471755D01*
X191981882Y-134471778D01*
X191981935Y-134471825D01*
X192108602Y-134514799D01*
X192234899Y-134557677D01*
X192234969Y-134557672D01*
X192235039Y-134557696D01*
X192370989Y-134548763D01*
X192501601Y-134540208D01*
X192501664Y-134540177D01*
X192501737Y-134540172D01*
X192622139Y-134480771D01*
X192741316Y-134422006D01*
X192741364Y-134421952D01*
X192741428Y-134421920D01*
X192829012Y-134322017D01*
X192917551Y-134221067D01*
X192917574Y-134220998D01*
X192917621Y-134220945D01*
X193437570Y-133320026D01*
X193641541Y-133437469D01*
X193767549Y-133480077D01*
X193893821Y-133522964D01*
X193894289Y-133522933D01*
X193894732Y-133523083D01*
X194027534Y-133514222D01*
X194160525Y-133505527D01*
X194160945Y-133505320D01*
X194161412Y-133505289D01*
X194280928Y-133446175D01*
X194400255Y-133387354D01*
X194400563Y-133387003D01*
X194400983Y-133386795D01*
X194488825Y-133286393D01*
X194576514Y-133186437D01*
X196226513Y-130329641D01*
X196269474Y-130203150D01*
X196312428Y-130076858D01*
X196312418Y-130076707D01*
X196312466Y-130076566D01*
X196303797Y-129943963D01*
X196295107Y-129810146D01*
X196295040Y-129810009D01*
X196295030Y-129809861D01*
X196236832Y-129691798D01*
X196177037Y-129570365D01*
X196176922Y-129570264D01*
X196176857Y-129570132D01*
X196077603Y-129483059D01*
X195976195Y-129394020D01*
X195772732Y-129276389D01*
X196292645Y-128375408D01*
X196292728Y-128375165D01*
X196292897Y-128374971D01*
X196312141Y-128341565D01*
X196471948Y-128434150D01*
X196472503Y-128434339D01*
X196472944Y-128434726D01*
X196599053Y-128477510D01*
X196724908Y-128520443D01*
X196725493Y-128520406D01*
X196726048Y-128520594D01*
X196858825Y-128511868D01*
X196991636Y-128503364D01*
X196992162Y-128503105D01*
X196992746Y-128503067D01*
X197111957Y-128444253D01*
X197231524Y-128385513D01*
X197231911Y-128385073D01*
X197232436Y-128384814D01*
X197320090Y-128284829D01*
X197408052Y-128184832D01*
X197408241Y-128184277D01*
X197408628Y-128183836D01*
X197474500Y-128069697D01*
X197518767Y-128084720D01*
X197645751Y-128127862D01*
X197645874Y-128127854D01*
X197645989Y-128127893D01*
X197778885Y-128119171D01*
X197912457Y-128110451D01*
X197912566Y-128110397D01*
X197912689Y-128110389D01*
X198033071Y-128051010D01*
X198152198Y-127992302D01*
X198152278Y-127992211D01*
X198152389Y-127992156D01*
X198240763Y-127891367D01*
X198328477Y-127791402D01*
X198328516Y-127791286D01*
X198328597Y-127791194D01*
X205328598Y-115664388D01*
X205328786Y-115663833D01*
X205329171Y-115663393D01*
X205371647Y-115537533D01*
X205414488Y-115411290D01*
X205414450Y-115410704D01*
X205414636Y-115410152D01*
X205405712Y-115277569D01*
X205396984Y-115144591D01*
X205396725Y-115144067D01*
X205396686Y-115143482D01*
X205337502Y-115024000D01*
X205278751Y-114904891D01*
X205278312Y-114904506D01*
X205278052Y-114903981D01*
X205177672Y-114816262D01*
X205143450Y-114786256D01*
X205208348Y-114674015D01*
X205251387Y-114547493D01*
X205294330Y-114421672D01*
X205294307Y-114421318D01*
X205294422Y-114420981D01*
X205285791Y-114287988D01*
X205277292Y-114154943D01*
X205277135Y-114154623D01*
X205277112Y-114154268D01*
X205218075Y-114034360D01*
X205159477Y-113915037D01*
X205159211Y-113914803D01*
X205159053Y-113914482D01*
X205058790Y-113826441D01*
X204958823Y-113738477D01*
X204797338Y-113644886D01*
X204816105Y-113612543D01*
X204816711Y-113610770D01*
X204817644Y-113609706D01*
X205337152Y-112709428D01*
X205540755Y-112827017D01*
X205663765Y-112868792D01*
X205793773Y-112912957D01*
X205793805Y-112912955D01*
X205793832Y-112912964D01*
X205919330Y-112904757D01*
X206060478Y-112895538D01*
X206060507Y-112895524D01*
X206060536Y-112895522D01*
X206176903Y-112838156D01*
X206300215Y-112777380D01*
X206300236Y-112777356D01*
X206300263Y-112777343D01*
X206388142Y-112677165D01*
X206476488Y-112576474D01*
X208127284Y-109718728D01*
X208127286Y-109718725D01*
X208127287Y-109718722D01*
X208127488Y-109718374D01*
X208170314Y-109592308D01*
X208213405Y-109465705D01*
X208213392Y-109465500D01*
X208213458Y-109465305D01*
X208204738Y-109331788D01*
X208196143Y-109198990D01*
X208196053Y-109198806D01*
X208196039Y-109198599D01*
X208137162Y-109079141D01*
X208078128Y-108959183D01*
X208077971Y-108959045D01*
X208077881Y-108958862D01*
X207978528Y-108871691D01*
X207877326Y-108782792D01*
X207672489Y-108664306D01*
X208193160Y-107764941D01*
X208193304Y-107764518D01*
X208193597Y-107764184D01*
X208236294Y-107638366D01*
X208279372Y-107511953D01*
X208279343Y-107511507D01*
X208279486Y-107511087D01*
X208270784Y-107378502D01*
X208262208Y-107245231D01*
X208262011Y-107244831D01*
X208261982Y-107244387D01*
X208203146Y-107125107D01*
X208144280Y-107005381D01*
X208143945Y-107005087D01*
X208143748Y-107004687D01*
X208043737Y-106916996D01*
X207943542Y-106828917D01*
X207943119Y-106828773D01*
X207942785Y-106828480D01*
X205738139Y-105555893D01*
X205808543Y-105433970D01*
X205808620Y-105433744D01*
X205808775Y-105433567D01*
X205851351Y-105307891D01*
X205894473Y-105180886D01*
X205894457Y-105180648D01*
X205894533Y-105180425D01*
X205885732Y-105047389D01*
X205877011Y-104914183D01*
X205876907Y-104913971D01*
X205876891Y-104913734D01*
X205817616Y-104793722D01*
X205758815Y-104674465D01*
X205758637Y-104674309D01*
X205758532Y-104674096D01*
X205657510Y-104585610D01*
X205557881Y-104498225D01*
X205557659Y-104498150D01*
X205557479Y-104497992D01*
X203131477Y-103099307D01*
X203004305Y-103056225D01*
X202878664Y-103013593D01*
X202878497Y-103013604D01*
X202878335Y-103013549D01*
X202744292Y-103022417D01*
X202611965Y-103031106D01*
X202611813Y-103031181D01*
X202611644Y-103031192D01*
X202491753Y-103090407D01*
X202372269Y-103149348D01*
X202372157Y-103149475D01*
X202372006Y-103149550D01*
X202284267Y-103249719D01*
X202196068Y-103350316D01*
X202126633Y-103470616D01*
X197291005Y-100677007D01*
X197290909Y-100676974D01*
X197290833Y-100676908D01*
X197164335Y-100633970D01*
X197037938Y-100591026D01*
X197037838Y-100591033D01*
X197037742Y-100591000D01*
X196903944Y-100599772D01*
X196771232Y-100608434D01*
X196771142Y-100608478D01*
X196771041Y-100608485D01*
X196651200Y-100667587D01*
X196531490Y-100726581D01*
X196531423Y-100726657D01*
X196531332Y-100726702D01*
X196443304Y-100827082D01*
X196355209Y-100927479D01*
X196355176Y-100927575D01*
X196355110Y-100927651D01*
X195833901Y-101830446D01*
X195579353Y-101683190D01*
X195578974Y-101683061D01*
X195578673Y-101682797D01*
X195452242Y-101639920D01*
X195326337Y-101597060D01*
X195325939Y-101597086D01*
X195325559Y-101596957D01*
X195192468Y-101605718D01*
X195059621Y-101614310D01*
X195059262Y-101614487D01*
X195058862Y-101614513D01*
X194939006Y-101673662D01*
X194819809Y-101732316D01*
X194819546Y-101732615D01*
X194819186Y-101732793D01*
X194731411Y-101832938D01*
X194643409Y-101933110D01*
X194643279Y-101933491D01*
X194643017Y-101933790D01*
X192994015Y-104791816D01*
X192993928Y-104792073D01*
X192993750Y-104792276D01*
X192951070Y-104918446D01*
X192908175Y-105044930D01*
X192908193Y-105045200D01*
X192908106Y-105045457D01*
X192916964Y-105178453D01*
X192925731Y-105311627D01*
X192925851Y-105311870D01*
X192925869Y-105312140D01*
X192985085Y-105431897D01*
X193044012Y-105551303D01*
X193044215Y-105551481D01*
X193044335Y-105551724D01*
X193144797Y-105639639D01*
X193245008Y-105727473D01*
X193245265Y-105727560D01*
X193245468Y-105727738D01*
X193499155Y-105873846D01*
X192979589Y-106776942D01*
X192939389Y-106895967D01*
X192896366Y-107013979D01*
X192896724Y-107022286D01*
X192894064Y-107030163D01*
X192902471Y-107155503D01*
X192907885Y-107281004D01*
X192911395Y-107288540D01*
X192911951Y-107296837D01*
X192967684Y-107409417D01*
X192999483Y-107477703D01*
X192935277Y-107588296D01*
X192933081Y-107594713D01*
X192871252Y-107701632D01*
X192827507Y-107686828D01*
X192700725Y-107643797D01*
X192700413Y-107643817D01*
X192700116Y-107643717D01*
X192567423Y-107652539D01*
X192434024Y-107661287D01*
X192433741Y-107661426D01*
X192433431Y-107661447D01*
X192314016Y-107720475D01*
X192194319Y-107779509D01*
X192194113Y-107779743D01*
X192193831Y-107779883D01*
X192105912Y-107880325D01*
X192018100Y-107980462D01*
X185018102Y-120105861D01*
X185018002Y-120106156D01*
X185017797Y-120106390D01*
X184975111Y-120232525D01*
X184932199Y-120358954D01*
X184932219Y-120359265D01*
X184932120Y-120359559D01*
X184940958Y-120492513D01*
X184949690Y-120625655D01*
X184949827Y-120625934D01*
X184949848Y-120626244D01*
X185008886Y-120745681D01*
X185067911Y-120865361D01*
X185068145Y-120865566D01*
X185068283Y-120865845D01*
X185168490Y-120953560D01*
X185202565Y-120983440D01*
X185137333Y-121096257D01*
X185137125Y-121096870D01*
X185136701Y-121097354D01*
X185073912Y-121206410D01*
X185003905Y-121211007D01*
X184870141Y-121219756D01*
X184870060Y-121219796D01*
X184869970Y-121219802D01*
X184750417Y-121278778D01*
X184630415Y-121337937D01*
X184630356Y-121338005D01*
X184630274Y-121338045D01*
X184542012Y-121438714D01*
X184454162Y-121538860D01*
X184454133Y-121538946D01*
X184454073Y-121539014D01*
X183933594Y-122440774D01*
X183679935Y-122294269D01*
X183553430Y-122251304D01*
X183427049Y-122208341D01*
X183426951Y-122208347D01*
X183426859Y-122208316D01*
X183292766Y-122217083D01*
X183160340Y-122225704D01*
X183160254Y-122225747D01*
X183160155Y-122225753D01*
X183040283Y-122284844D01*
X182920578Y-122343810D01*
X182920513Y-122343884D01*
X182920426Y-122343927D01*
X182832658Y-122443974D01*
X182744263Y-122544679D01*
X181093265Y-125401380D01*
X181093248Y-125401431D01*
X181093211Y-125401473D01*
X181049880Y-125529005D01*
X181007241Y-125654432D01*
X181007245Y-125654486D01*
X181007227Y-125654538D01*
X181016057Y-125789853D01*
X181024604Y-125921141D01*
X181024627Y-125921188D01*
X181024631Y-125921244D01*
X181084470Y-126042672D01*
X181142710Y-126160903D01*
X181142751Y-126160939D01*
X181142775Y-126160988D01*
X181243791Y-126249628D01*
X181343579Y-126337218D01*
X181343630Y-126337235D01*
X181343672Y-126337272D01*
X181599548Y-126485100D01*
X181079207Y-127385778D01*
X181079147Y-127385956D01*
X181079022Y-127386098D01*
X181035837Y-127513425D01*
X180993225Y-127638844D01*
X180993237Y-127639030D01*
X180993176Y-127639210D01*
X92884591Y-127639210D01*
X92914460Y-127489050D01*
X92914460Y-114688480D01*
X92862317Y-114426342D01*
X92713828Y-114204112D01*
X92491598Y-114055623D01*
X92229460Y-114003480D01*
X92096853Y-114003480D01*
X92061717Y-113826842D01*
X91913228Y-113604612D01*
X91690998Y-113456123D01*
X91428860Y-113403980D01*
X77429310Y-113403980D01*
X77167172Y-113456123D01*
X76944942Y-113604612D01*
X76796453Y-113826842D01*
X76761317Y-114003480D01*
X76630050Y-114003480D01*
X76367912Y-114055623D01*
X76145682Y-114204112D01*
X75997193Y-114426342D01*
X75945050Y-114688480D01*
X75690000Y-114688480D01*
X75690000Y-112379620D01*
X94984800Y-112379620D01*
X94984800Y-125180190D01*
X95036943Y-125442328D01*
X95185432Y-125664558D01*
X95407662Y-125813047D01*
X95669800Y-125865190D01*
X95801492Y-125865190D01*
X95836343Y-126040398D01*
X95984832Y-126262628D01*
X96207062Y-126411117D01*
X96469200Y-126463260D01*
X110468500Y-126463260D01*
X110730638Y-126411117D01*
X110952868Y-126262628D01*
X111101357Y-126040398D01*
X111136208Y-125865190D01*
X111269300Y-125865190D01*
X111531438Y-125813047D01*
X111753668Y-125664558D01*
X111902157Y-125442328D01*
X111954300Y-125180190D01*
X111954300Y-112379620D01*
X111902157Y-112117482D01*
X111753668Y-111895252D01*
X111531438Y-111746763D01*
X111269300Y-111694620D01*
X111136493Y-111694620D01*
X111101357Y-111517982D01*
X110952868Y-111295752D01*
X110730638Y-111147263D01*
X110468500Y-111095120D01*
X96469200Y-111095120D01*
X96207062Y-111147263D01*
X95984832Y-111295752D01*
X95836343Y-111517982D01*
X95801207Y-111694620D01*
X95669800Y-111694620D01*
X95407662Y-111746763D01*
X95185432Y-111895252D01*
X95036943Y-112117482D01*
X94984800Y-112379620D01*
X75690000Y-112379620D01*
X75690000Y-110061593D01*
X92214677Y-110061593D01*
X92224975Y-110377507D01*
X92224699Y-110693599D01*
X92236184Y-110721395D01*
X92237164Y-110751453D01*
X92457901Y-111284359D01*
X92470954Y-111289581D01*
X92488281Y-111331515D01*
X92975918Y-111820004D01*
X93020149Y-111838370D01*
X93025641Y-111852099D01*
X93321448Y-111963481D01*
X93613373Y-112084699D01*
X93643448Y-112084725D01*
X93671593Y-112095323D01*
X93987507Y-112085025D01*
X94303599Y-112085301D01*
X94331395Y-112073816D01*
X94361453Y-112072836D01*
X94894359Y-111852099D01*
X94899581Y-111839046D01*
X94941515Y-111821719D01*
X95430004Y-111334082D01*
X95448370Y-111289851D01*
X95462099Y-111284359D01*
X95573481Y-110988552D01*
X95694699Y-110696627D01*
X95694725Y-110666552D01*
X95705323Y-110638407D01*
X95695025Y-110322493D01*
X95695301Y-110006401D01*
X95687260Y-109986940D01*
X114083060Y-109986940D01*
X114083060Y-122787510D01*
X114135203Y-123049648D01*
X114283692Y-123271878D01*
X114505922Y-123420367D01*
X114768060Y-123472510D01*
X114899752Y-123472510D01*
X114934603Y-123647718D01*
X115083092Y-123869948D01*
X115305322Y-124018437D01*
X115567460Y-124070580D01*
X129566760Y-124070580D01*
X129828898Y-124018437D01*
X130051128Y-123869948D01*
X130199617Y-123647718D01*
X130234468Y-123472510D01*
X130367560Y-123472510D01*
X130629698Y-123420367D01*
X130851928Y-123271878D01*
X130857996Y-123262796D01*
X157789086Y-123262796D01*
X157791985Y-123395622D01*
X157794880Y-123529831D01*
X157794917Y-123529915D01*
X157794919Y-123530006D01*
X157848449Y-123651660D01*
X157902461Y-123774497D01*
X157902527Y-123774560D01*
X157902564Y-123774644D01*
X157998825Y-123866792D01*
X158095483Y-123959369D01*
X158095568Y-123959402D01*
X158095634Y-123959465D01*
X158219109Y-124007481D01*
X158344559Y-124056303D01*
X158475604Y-124079444D01*
X158476710Y-124127130D01*
X158479617Y-124260350D01*
X158479812Y-124260793D01*
X158479823Y-124261274D01*
X158533489Y-124382784D01*
X158587260Y-124504989D01*
X158587609Y-124505324D01*
X158587804Y-124505764D01*
X158683967Y-124597565D01*
X158780329Y-124689812D01*
X158780779Y-124689987D01*
X158781128Y-124690320D01*
X158905381Y-124738443D01*
X159029430Y-124786683D01*
X172814821Y-127217443D01*
X172814823Y-127217444D01*
X172814825Y-127217444D01*
X172815330Y-127217533D01*
X172948454Y-127214628D01*
X173082037Y-127211814D01*
X173082277Y-127211709D01*
X173082540Y-127211703D01*
X173204958Y-127157838D01*
X173326757Y-127104355D01*
X173326938Y-127104166D01*
X173327179Y-127104060D01*
X173419619Y-127007496D01*
X173511725Y-126911425D01*
X173511820Y-126911181D01*
X173512002Y-126910991D01*
X173560268Y-126786876D01*
X173577578Y-126742463D01*
X173708066Y-126765504D01*
X173708150Y-126765502D01*
X173708232Y-126765534D01*
X173842119Y-126762612D01*
X173975277Y-126759739D01*
X173975357Y-126759704D01*
X173975442Y-126759702D01*
X174097205Y-126706125D01*
X174219942Y-126652155D01*
X174220001Y-126652093D01*
X174220081Y-126652058D01*
X174312797Y-126555205D01*
X174404813Y-126459132D01*
X174404845Y-126459049D01*
X174404903Y-126458989D01*
X174453163Y-126334890D01*
X174501744Y-126210054D01*
X174501742Y-126209970D01*
X174501774Y-126209888D01*
X176724574Y-113603628D01*
X176724563Y-113603128D01*
X176724743Y-113602663D01*
X176721645Y-113469446D01*
X176718742Y-113336417D01*
X176718542Y-113335962D01*
X176718530Y-113335462D01*
X176664649Y-113213482D01*
X176611098Y-113091779D01*
X176610738Y-113091434D01*
X176610536Y-113090977D01*
X176514183Y-112999003D01*
X176418029Y-112906956D01*
X176417563Y-112906775D01*
X176417203Y-112906431D01*
X176293337Y-112858466D01*
X176168928Y-112810086D01*
X176168428Y-112810097D01*
X176167963Y-112809917D01*
X176039370Y-112787432D01*
X176038382Y-112742139D01*
X176035577Y-112608028D01*
X176035447Y-112607732D01*
X176035440Y-112607411D01*
X175981894Y-112485722D01*
X175928157Y-112363292D01*
X175927924Y-112363069D01*
X175927794Y-112362773D01*
X175831342Y-112270443D01*
X175735256Y-112178293D01*
X175734956Y-112178176D01*
X175734723Y-112177953D01*
X175610530Y-112129658D01*
X175486244Y-112081195D01*
X175485921Y-112081202D01*
X175485621Y-112081085D01*
X161698321Y-109650185D01*
X161565294Y-109653090D01*
X161431728Y-109655883D01*
X161431432Y-109656013D01*
X161431111Y-109656020D01*
X161309422Y-109709566D01*
X161186992Y-109763303D01*
X161186769Y-109763536D01*
X161186473Y-109763666D01*
X161094143Y-109860118D01*
X161001993Y-109956204D01*
X161001876Y-109956504D01*
X161001653Y-109956737D01*
X160953358Y-110080930D01*
X160936056Y-110125303D01*
X160805282Y-110102214D01*
X160805201Y-110102216D01*
X160805124Y-110102186D01*
X160671985Y-110105092D01*
X160538070Y-110107984D01*
X160537994Y-110108017D01*
X160537914Y-110108019D01*
X160417025Y-110161212D01*
X160293407Y-110215572D01*
X160293350Y-110215631D01*
X160293276Y-110215664D01*
X160202308Y-110310692D01*
X160108541Y-110408599D01*
X160108511Y-110408677D01*
X160108455Y-110408735D01*
X160060317Y-110532523D01*
X160011614Y-110657678D01*
X160011616Y-110657759D01*
X160011586Y-110657836D01*
X157789086Y-123262796D01*
X130857996Y-123262796D01*
X131000417Y-123049648D01*
X131052560Y-122787510D01*
X131052560Y-109986940D01*
X131000417Y-109724802D01*
X130851928Y-109502572D01*
X130629698Y-109354083D01*
X130367560Y-109301940D01*
X130234753Y-109301940D01*
X130199617Y-109125302D01*
X130051128Y-108903072D01*
X129828898Y-108754583D01*
X129566760Y-108702440D01*
X115567460Y-108702440D01*
X115305322Y-108754583D01*
X115083092Y-108903072D01*
X114934603Y-109125302D01*
X114899467Y-109301940D01*
X114768060Y-109301940D01*
X114505922Y-109354083D01*
X114283692Y-109502572D01*
X114135203Y-109724802D01*
X114083060Y-109986940D01*
X95687260Y-109986940D01*
X95683816Y-109978605D01*
X95682836Y-109948547D01*
X95462099Y-109415641D01*
X95449046Y-109410419D01*
X95431719Y-109368485D01*
X94944082Y-108879996D01*
X94899851Y-108861630D01*
X94894359Y-108847901D01*
X94598552Y-108736519D01*
X94306627Y-108615301D01*
X94276552Y-108615275D01*
X94248407Y-108604677D01*
X93932493Y-108614975D01*
X93616401Y-108614699D01*
X93588605Y-108626184D01*
X93558547Y-108627164D01*
X93025641Y-108847901D01*
X93020419Y-108860954D01*
X92978485Y-108878281D01*
X92489996Y-109365918D01*
X92471630Y-109410149D01*
X92457901Y-109415641D01*
X92346519Y-109711448D01*
X92225301Y-110003373D01*
X92225275Y-110033448D01*
X92214677Y-110061593D01*
X75690000Y-110061593D01*
X75690000Y-95562280D01*
X76011090Y-95562280D01*
X76011090Y-108362850D01*
X76063233Y-108624988D01*
X76211722Y-108847218D01*
X76433952Y-108995707D01*
X76696090Y-109047850D01*
X76827642Y-109047850D01*
X76862493Y-109223058D01*
X77010982Y-109445288D01*
X77233212Y-109593777D01*
X77495350Y-109645920D01*
X91494900Y-109645920D01*
X91757038Y-109593777D01*
X91979268Y-109445288D01*
X92127757Y-109223058D01*
X92162608Y-109047850D01*
X92295500Y-109047850D01*
X92557638Y-108995707D01*
X92779868Y-108847218D01*
X92928357Y-108624988D01*
X92980500Y-108362850D01*
X92980500Y-95562280D01*
X92928357Y-95300142D01*
X92779868Y-95077912D01*
X92557638Y-94929423D01*
X92295500Y-94877280D01*
X92162893Y-94877280D01*
X92127757Y-94700642D01*
X91979268Y-94478412D01*
X91757038Y-94329923D01*
X91494900Y-94277780D01*
X77495350Y-94277780D01*
X77233212Y-94329923D01*
X77010982Y-94478412D01*
X76862493Y-94700642D01*
X76827357Y-94877280D01*
X76696090Y-94877280D01*
X76433952Y-94929423D01*
X76211722Y-95077912D01*
X76063233Y-95300142D01*
X76011090Y-95562280D01*
X75690000Y-95562280D01*
X75690000Y-93253420D01*
X95050840Y-93253420D01*
X95050840Y-106053990D01*
X95102983Y-106316128D01*
X95251472Y-106538358D01*
X95473702Y-106686847D01*
X95735840Y-106738990D01*
X95867532Y-106738990D01*
X95902383Y-106914198D01*
X96050872Y-107136428D01*
X96273102Y-107284917D01*
X96535240Y-107337060D01*
X110534540Y-107337060D01*
X110796678Y-107284917D01*
X111018908Y-107136428D01*
X111167397Y-106914198D01*
X111202248Y-106738990D01*
X111335340Y-106738990D01*
X111597478Y-106686847D01*
X111784934Y-106561593D01*
X126754677Y-106561593D01*
X126764975Y-106877507D01*
X126764699Y-107193599D01*
X126776184Y-107221395D01*
X126777164Y-107251453D01*
X126997901Y-107784359D01*
X127010954Y-107789581D01*
X127028281Y-107831515D01*
X127515918Y-108320004D01*
X127560149Y-108338370D01*
X127565641Y-108352099D01*
X127861448Y-108463481D01*
X128153373Y-108584699D01*
X128183448Y-108584725D01*
X128211593Y-108595323D01*
X128527507Y-108585025D01*
X128843599Y-108585301D01*
X128871395Y-108573816D01*
X128901453Y-108572836D01*
X129434359Y-108352099D01*
X129439581Y-108339046D01*
X129481515Y-108321719D01*
X129970004Y-107834082D01*
X129988370Y-107789851D01*
X130002099Y-107784359D01*
X130067939Y-107609500D01*
X133087340Y-107609500D01*
X133087340Y-120410070D01*
X133139483Y-120672208D01*
X133287972Y-120894438D01*
X133510202Y-121042927D01*
X133772340Y-121095070D01*
X133904032Y-121095070D01*
X133938883Y-121270278D01*
X134087372Y-121492508D01*
X134309602Y-121640997D01*
X134571740Y-121693140D01*
X148571040Y-121693140D01*
X148833178Y-121640997D01*
X149055408Y-121492508D01*
X149203897Y-121270278D01*
X149238748Y-121095070D01*
X149371840Y-121095070D01*
X149633978Y-121042927D01*
X149856208Y-120894438D01*
X150004697Y-120672208D01*
X150056840Y-120410070D01*
X150056840Y-108931593D01*
X183034677Y-108931593D01*
X183044975Y-109247507D01*
X183044699Y-109563599D01*
X183056184Y-109591395D01*
X183057164Y-109621453D01*
X183277901Y-110154359D01*
X183290954Y-110159581D01*
X183308281Y-110201515D01*
X183795918Y-110690004D01*
X183840149Y-110708370D01*
X183845641Y-110722099D01*
X184141448Y-110833481D01*
X184433373Y-110954699D01*
X184463448Y-110954725D01*
X184491593Y-110965323D01*
X184807507Y-110955025D01*
X185123599Y-110955301D01*
X185151395Y-110943816D01*
X185181453Y-110942836D01*
X185714359Y-110722099D01*
X185719581Y-110709046D01*
X185761515Y-110691719D01*
X186250004Y-110204082D01*
X186268370Y-110159851D01*
X186282099Y-110154359D01*
X186393481Y-109858552D01*
X186514699Y-109566627D01*
X186514725Y-109536552D01*
X186525323Y-109508407D01*
X186515025Y-109192493D01*
X186515301Y-108876401D01*
X186503816Y-108848605D01*
X186502836Y-108818547D01*
X186282099Y-108285641D01*
X186269046Y-108280419D01*
X186251719Y-108238485D01*
X185764082Y-107749996D01*
X185719851Y-107731630D01*
X185714359Y-107717901D01*
X185418552Y-107606519D01*
X185126627Y-107485301D01*
X185096552Y-107485275D01*
X185068407Y-107474677D01*
X184752493Y-107484975D01*
X184436401Y-107484699D01*
X184408605Y-107496184D01*
X184378547Y-107497164D01*
X183845641Y-107717901D01*
X183840419Y-107730954D01*
X183798485Y-107748281D01*
X183309996Y-108235918D01*
X183291630Y-108280149D01*
X183277901Y-108285641D01*
X183166519Y-108581448D01*
X183045301Y-108873373D01*
X183045275Y-108903448D01*
X183034677Y-108931593D01*
X150056840Y-108931593D01*
X150056840Y-107609500D01*
X150004697Y-107347362D01*
X149856208Y-107125132D01*
X149633978Y-106976643D01*
X149371840Y-106924500D01*
X149239033Y-106924500D01*
X149203897Y-106747862D01*
X149079437Y-106561593D01*
X153164677Y-106561593D01*
X153174975Y-106877507D01*
X153174699Y-107193599D01*
X153186184Y-107221395D01*
X153187164Y-107251453D01*
X153407901Y-107784359D01*
X153420954Y-107789581D01*
X153438281Y-107831515D01*
X153925918Y-108320004D01*
X153970149Y-108338370D01*
X153975641Y-108352099D01*
X154271448Y-108463481D01*
X154563373Y-108584699D01*
X154593448Y-108584725D01*
X154621593Y-108595323D01*
X154937507Y-108585025D01*
X155253599Y-108585301D01*
X155281395Y-108573816D01*
X155311453Y-108572836D01*
X155844359Y-108352099D01*
X155849581Y-108339046D01*
X155891515Y-108321719D01*
X156380004Y-107834082D01*
X156398370Y-107789851D01*
X156412099Y-107784359D01*
X156523481Y-107488552D01*
X156644699Y-107196627D01*
X156644725Y-107166552D01*
X156655323Y-107138407D01*
X156645025Y-106822493D01*
X156645301Y-106506401D01*
X156633816Y-106478605D01*
X156632836Y-106448547D01*
X156412099Y-105915641D01*
X156399046Y-105910419D01*
X156381719Y-105868485D01*
X155894082Y-105379996D01*
X155849851Y-105361630D01*
X155844359Y-105347901D01*
X155548552Y-105236519D01*
X155256627Y-105115301D01*
X155226552Y-105115275D01*
X155198407Y-105104677D01*
X154882493Y-105114975D01*
X154566401Y-105114699D01*
X154538605Y-105126184D01*
X154508547Y-105127164D01*
X153975641Y-105347901D01*
X153970419Y-105360954D01*
X153928485Y-105378281D01*
X153439996Y-105865918D01*
X153421630Y-105910149D01*
X153407901Y-105915641D01*
X153296519Y-106211448D01*
X153175301Y-106503373D01*
X153175275Y-106533448D01*
X153164677Y-106561593D01*
X149079437Y-106561593D01*
X149055408Y-106525632D01*
X148833178Y-106377143D01*
X148571040Y-106325000D01*
X134571740Y-106325000D01*
X134309602Y-106377143D01*
X134087372Y-106525632D01*
X133938883Y-106747862D01*
X133903747Y-106924500D01*
X133772340Y-106924500D01*
X133510202Y-106976643D01*
X133287972Y-107125132D01*
X133139483Y-107347362D01*
X133087340Y-107609500D01*
X130067939Y-107609500D01*
X130113481Y-107488552D01*
X130234699Y-107196627D01*
X130234725Y-107166552D01*
X130245323Y-107138407D01*
X130235025Y-106822493D01*
X130235301Y-106506401D01*
X130223816Y-106478605D01*
X130222836Y-106448547D01*
X130002099Y-105915641D01*
X129989046Y-105910419D01*
X129971719Y-105868485D01*
X129484082Y-105379996D01*
X129439851Y-105361630D01*
X129434359Y-105347901D01*
X129138552Y-105236519D01*
X128846627Y-105115301D01*
X128816552Y-105115275D01*
X128788407Y-105104677D01*
X128472493Y-105114975D01*
X128156401Y-105114699D01*
X128128605Y-105126184D01*
X128098547Y-105127164D01*
X127565641Y-105347901D01*
X127560419Y-105360954D01*
X127518485Y-105378281D01*
X127029996Y-105865918D01*
X127011630Y-105910149D01*
X126997901Y-105915641D01*
X126886519Y-106211448D01*
X126765301Y-106503373D01*
X126765275Y-106533448D01*
X126754677Y-106561593D01*
X111784934Y-106561593D01*
X111819708Y-106538358D01*
X111968197Y-106316128D01*
X112020340Y-106053990D01*
X112020340Y-93253420D01*
X111968197Y-92991282D01*
X111819708Y-92769052D01*
X111597478Y-92620563D01*
X111335340Y-92568420D01*
X111202533Y-92568420D01*
X111167397Y-92391782D01*
X111018908Y-92169552D01*
X110796678Y-92021063D01*
X110534540Y-91968920D01*
X96535240Y-91968920D01*
X96273102Y-92021063D01*
X96050872Y-92169552D01*
X95902383Y-92391782D01*
X95867247Y-92568420D01*
X95735840Y-92568420D01*
X95473702Y-92620563D01*
X95251472Y-92769052D01*
X95102983Y-92991282D01*
X95050840Y-93253420D01*
X75690000Y-93253420D01*
X75690000Y-90860740D01*
X114149100Y-90860740D01*
X114149100Y-103661310D01*
X114201243Y-103923448D01*
X114349732Y-104145678D01*
X114571962Y-104294167D01*
X114834100Y-104346310D01*
X114965792Y-104346310D01*
X115000643Y-104521518D01*
X115149132Y-104743748D01*
X115371362Y-104892237D01*
X115633500Y-104944380D01*
X129632800Y-104944380D01*
X129894938Y-104892237D01*
X130117168Y-104743748D01*
X130265657Y-104521518D01*
X130300508Y-104346310D01*
X130433600Y-104346310D01*
X130695738Y-104294167D01*
X130917968Y-104145678D01*
X131066457Y-103923448D01*
X131118600Y-103661310D01*
X131118600Y-90860740D01*
X131066457Y-90598602D01*
X130917968Y-90376372D01*
X130695738Y-90227883D01*
X130433600Y-90175740D01*
X130300793Y-90175740D01*
X130265657Y-89999102D01*
X130117168Y-89776872D01*
X129894938Y-89628383D01*
X129632800Y-89576240D01*
X115633500Y-89576240D01*
X115371362Y-89628383D01*
X115149132Y-89776872D01*
X115000643Y-89999102D01*
X114965507Y-90175740D01*
X114834100Y-90175740D01*
X114571962Y-90227883D01*
X114349732Y-90376372D01*
X114201243Y-90598602D01*
X114149100Y-90860740D01*
X75690000Y-90860740D01*
X75690000Y-76639280D01*
X76018710Y-76639280D01*
X76018710Y-89439850D01*
X76070853Y-89701988D01*
X76219342Y-89924218D01*
X76441572Y-90072707D01*
X76703710Y-90124850D01*
X76835262Y-90124850D01*
X76870113Y-90300058D01*
X77018602Y-90522288D01*
X77240832Y-90670777D01*
X77502970Y-90722920D01*
X91502520Y-90722920D01*
X91764658Y-90670777D01*
X91986888Y-90522288D01*
X92135377Y-90300058D01*
X92170228Y-90124850D01*
X92303120Y-90124850D01*
X92565258Y-90072707D01*
X92787488Y-89924218D01*
X92935977Y-89701988D01*
X92988120Y-89439850D01*
X92988120Y-88483300D01*
X133153380Y-88483300D01*
X133153380Y-101283870D01*
X133205523Y-101546008D01*
X133354012Y-101768238D01*
X133576242Y-101916727D01*
X133838380Y-101968870D01*
X133970072Y-101968870D01*
X134004923Y-102144078D01*
X134153412Y-102366308D01*
X134375642Y-102514797D01*
X134637780Y-102566940D01*
X148637080Y-102566940D01*
X148899218Y-102514797D01*
X149121448Y-102366308D01*
X149269937Y-102144078D01*
X149304788Y-101968870D01*
X149437880Y-101968870D01*
X149700018Y-101916727D01*
X149922248Y-101768238D01*
X150070737Y-101546008D01*
X150122880Y-101283870D01*
X150122880Y-90837880D01*
X152144960Y-90837880D01*
X152144960Y-103638450D01*
X152197103Y-103900588D01*
X152345592Y-104122818D01*
X152567822Y-104271307D01*
X152829960Y-104323450D01*
X152961652Y-104323450D01*
X152996503Y-104498658D01*
X153144992Y-104720888D01*
X153367222Y-104869377D01*
X153629360Y-104921520D01*
X167628660Y-104921520D01*
X167890798Y-104869377D01*
X168113028Y-104720888D01*
X168261517Y-104498658D01*
X168296368Y-104323450D01*
X168429460Y-104323450D01*
X168691598Y-104271307D01*
X168913828Y-104122818D01*
X169062317Y-103900588D01*
X169114460Y-103638450D01*
X169114460Y-93210240D01*
X171250840Y-93210240D01*
X171250840Y-106010810D01*
X171302983Y-106272948D01*
X171451472Y-106495178D01*
X171673702Y-106643667D01*
X171935840Y-106695810D01*
X172067532Y-106695810D01*
X172102383Y-106871018D01*
X172250872Y-107093248D01*
X172473102Y-107241737D01*
X172735240Y-107293880D01*
X186734540Y-107293880D01*
X186996678Y-107241737D01*
X187218908Y-107093248D01*
X187367397Y-106871018D01*
X187402248Y-106695810D01*
X187535340Y-106695810D01*
X187797478Y-106643667D01*
X188019708Y-106495178D01*
X188168197Y-106272948D01*
X188220340Y-106010810D01*
X188220340Y-93210240D01*
X188168197Y-92948102D01*
X188019708Y-92725872D01*
X187797478Y-92577383D01*
X187535340Y-92525240D01*
X187402533Y-92525240D01*
X187367397Y-92348602D01*
X187218908Y-92126372D01*
X186996678Y-91977883D01*
X186734540Y-91925740D01*
X172735240Y-91925740D01*
X172473102Y-91977883D01*
X172250872Y-92126372D01*
X172102383Y-92348602D01*
X172067247Y-92525240D01*
X171935840Y-92525240D01*
X171673702Y-92577383D01*
X171451472Y-92725872D01*
X171302983Y-92948102D01*
X171250840Y-93210240D01*
X169114460Y-93210240D01*
X169114460Y-90837880D01*
X169062317Y-90575742D01*
X168913828Y-90353512D01*
X168691598Y-90205023D01*
X168429460Y-90152880D01*
X168296653Y-90152880D01*
X168261517Y-89976242D01*
X168113028Y-89754012D01*
X167890798Y-89605523D01*
X167628660Y-89553380D01*
X153629360Y-89553380D01*
X153367222Y-89605523D01*
X153144992Y-89754012D01*
X152996503Y-89976242D01*
X152961367Y-90152880D01*
X152829960Y-90152880D01*
X152567822Y-90205023D01*
X152345592Y-90353512D01*
X152197103Y-90575742D01*
X152144960Y-90837880D01*
X150122880Y-90837880D01*
X150122880Y-88483300D01*
X150070737Y-88221162D01*
X149922248Y-87998932D01*
X149700018Y-87850443D01*
X149437880Y-87798300D01*
X149305073Y-87798300D01*
X149269937Y-87621662D01*
X149121448Y-87399432D01*
X148899218Y-87250943D01*
X148637080Y-87198800D01*
X134637780Y-87198800D01*
X134375642Y-87250943D01*
X134153412Y-87399432D01*
X134004923Y-87621662D01*
X133969787Y-87798300D01*
X133838380Y-87798300D01*
X133576242Y-87850443D01*
X133354012Y-87998932D01*
X133205523Y-88221162D01*
X133153380Y-88483300D01*
X92988120Y-88483300D01*
X92988120Y-76639280D01*
X92935977Y-76377142D01*
X92787488Y-76154912D01*
X92565258Y-76006423D01*
X92303120Y-75954280D01*
X92170513Y-75954280D01*
X92135377Y-75777642D01*
X91986888Y-75555412D01*
X91764658Y-75406923D01*
X91502520Y-75354780D01*
X77502970Y-75354780D01*
X77240832Y-75406923D01*
X77018602Y-75555412D01*
X76870113Y-75777642D01*
X76834977Y-75954280D01*
X76703710Y-75954280D01*
X76441572Y-76006423D01*
X76219342Y-76154912D01*
X76070853Y-76377142D01*
X76018710Y-76639280D01*
X75690000Y-76639280D01*
X75690000Y-74330420D01*
X95058460Y-74330420D01*
X95058460Y-87130990D01*
X95110603Y-87393128D01*
X95259092Y-87615358D01*
X95481322Y-87763847D01*
X95743460Y-87815990D01*
X95875152Y-87815990D01*
X95910003Y-87991198D01*
X96058492Y-88213428D01*
X96280722Y-88361917D01*
X96542860Y-88414060D01*
X110542160Y-88414060D01*
X110804298Y-88361917D01*
X111026528Y-88213428D01*
X111175017Y-87991198D01*
X111209868Y-87815990D01*
X111342960Y-87815990D01*
X111605098Y-87763847D01*
X111827328Y-87615358D01*
X111975817Y-87393128D01*
X112027960Y-87130990D01*
X112027960Y-74330420D01*
X111975817Y-74068282D01*
X111827328Y-73846052D01*
X111605098Y-73697563D01*
X111342960Y-73645420D01*
X111210153Y-73645420D01*
X111175017Y-73468782D01*
X111026528Y-73246552D01*
X110804298Y-73098063D01*
X110542160Y-73045920D01*
X96542860Y-73045920D01*
X96280722Y-73098063D01*
X96058492Y-73246552D01*
X95910003Y-73468782D01*
X95874867Y-73645420D01*
X95743460Y-73645420D01*
X95481322Y-73697563D01*
X95259092Y-73846052D01*
X95110603Y-74068282D01*
X95058460Y-74330420D01*
X75690000Y-74330420D01*
X75690000Y-71861593D01*
X92214677Y-71861593D01*
X92224975Y-72177507D01*
X92224699Y-72493599D01*
X92236184Y-72521395D01*
X92237164Y-72551453D01*
X92457901Y-73084359D01*
X92470954Y-73089581D01*
X92488281Y-73131515D01*
X92975918Y-73620004D01*
X93020149Y-73638370D01*
X93025641Y-73652099D01*
X93321448Y-73763481D01*
X93613373Y-73884699D01*
X93643448Y-73884725D01*
X93671593Y-73895323D01*
X93987507Y-73885025D01*
X94303599Y-73885301D01*
X94331395Y-73873816D01*
X94361453Y-73872836D01*
X94894359Y-73652099D01*
X94899581Y-73639046D01*
X94941515Y-73621719D01*
X95430004Y-73134082D01*
X95448370Y-73089851D01*
X95462099Y-73084359D01*
X95573481Y-72788552D01*
X95694699Y-72496627D01*
X95694725Y-72466552D01*
X95705323Y-72438407D01*
X95695025Y-72122493D01*
X95695186Y-71937740D01*
X114156720Y-71937740D01*
X114156720Y-84738310D01*
X114208863Y-85000448D01*
X114357352Y-85222678D01*
X114579582Y-85371167D01*
X114841720Y-85423310D01*
X114973412Y-85423310D01*
X115008263Y-85598518D01*
X115156752Y-85820748D01*
X115378982Y-85969237D01*
X115641120Y-86021380D01*
X129640420Y-86021380D01*
X129902558Y-85969237D01*
X130124788Y-85820748D01*
X130273277Y-85598518D01*
X130308128Y-85423310D01*
X130441220Y-85423310D01*
X130703358Y-85371167D01*
X130925588Y-85222678D01*
X131074077Y-85000448D01*
X131126220Y-84738310D01*
X131126220Y-71937740D01*
X131074077Y-71675602D01*
X130925588Y-71453372D01*
X130703358Y-71304883D01*
X130441220Y-71252740D01*
X130308413Y-71252740D01*
X130273277Y-71076102D01*
X130124788Y-70853872D01*
X129902558Y-70705383D01*
X129640420Y-70653240D01*
X115641120Y-70653240D01*
X115378982Y-70705383D01*
X115156752Y-70853872D01*
X115008263Y-71076102D01*
X114973127Y-71252740D01*
X114841720Y-71252740D01*
X114579582Y-71304883D01*
X114357352Y-71453372D01*
X114208863Y-71675602D01*
X114156720Y-71937740D01*
X95695186Y-71937740D01*
X95695301Y-71806401D01*
X95683816Y-71778605D01*
X95682836Y-71748547D01*
X95462099Y-71215641D01*
X95449046Y-71210419D01*
X95431719Y-71168485D01*
X94944082Y-70679996D01*
X94899851Y-70661630D01*
X94894359Y-70647901D01*
X94598552Y-70536519D01*
X94306627Y-70415301D01*
X94276552Y-70415275D01*
X94248407Y-70404677D01*
X93932493Y-70414975D01*
X93616401Y-70414699D01*
X93588605Y-70426184D01*
X93558547Y-70427164D01*
X93025641Y-70647901D01*
X93020419Y-70660954D01*
X92978485Y-70678281D01*
X92489996Y-71165918D01*
X92471630Y-71210149D01*
X92457901Y-71215641D01*
X92346519Y-71511448D01*
X92225301Y-71803373D01*
X92225275Y-71833448D01*
X92214677Y-71861593D01*
X75690000Y-71861593D01*
X75690000Y-57416560D01*
X75901870Y-57416560D01*
X75901870Y-70217130D01*
X75954013Y-70479268D01*
X76102502Y-70701498D01*
X76324732Y-70849987D01*
X76586870Y-70902130D01*
X76718422Y-70902130D01*
X76753273Y-71077338D01*
X76901762Y-71299568D01*
X77123992Y-71448057D01*
X77386130Y-71500200D01*
X91385680Y-71500200D01*
X91647818Y-71448057D01*
X91870048Y-71299568D01*
X92018537Y-71077338D01*
X92053388Y-70902130D01*
X92186280Y-70902130D01*
X92448418Y-70849987D01*
X92670648Y-70701498D01*
X92819137Y-70479268D01*
X92871280Y-70217130D01*
X92871280Y-57416560D01*
X92819137Y-57154422D01*
X92670648Y-56932192D01*
X92448418Y-56783703D01*
X92186280Y-56731560D01*
X92053673Y-56731560D01*
X92018537Y-56554922D01*
X91870048Y-56332692D01*
X91647818Y-56184203D01*
X91385680Y-56132060D01*
X77386130Y-56132060D01*
X77123992Y-56184203D01*
X76901762Y-56332692D01*
X76753273Y-56554922D01*
X76718137Y-56731560D01*
X76586870Y-56731560D01*
X76324732Y-56783703D01*
X76102502Y-56932192D01*
X75954013Y-57154422D01*
X75901870Y-57416560D01*
X75690000Y-57416560D01*
X75690000Y-55107700D01*
X94941620Y-55107700D01*
X94941620Y-67908270D01*
X94993763Y-68170408D01*
X95142252Y-68392638D01*
X95364482Y-68541127D01*
X95626620Y-68593270D01*
X95758312Y-68593270D01*
X95793163Y-68768478D01*
X95941652Y-68990708D01*
X96163882Y-69139197D01*
X96426020Y-69191340D01*
X110425320Y-69191340D01*
X110687458Y-69139197D01*
X110909688Y-68990708D01*
X111058177Y-68768478D01*
X111093028Y-68593270D01*
X111226120Y-68593270D01*
X111488258Y-68541127D01*
X111607289Y-68461593D01*
X126754677Y-68461593D01*
X126764975Y-68777507D01*
X126764699Y-69093599D01*
X126776184Y-69121395D01*
X126777164Y-69151453D01*
X126997901Y-69684359D01*
X127010954Y-69689581D01*
X127028281Y-69731515D01*
X127515918Y-70220004D01*
X127560149Y-70238370D01*
X127565641Y-70252099D01*
X127861448Y-70363481D01*
X128153373Y-70484699D01*
X128183448Y-70484725D01*
X128211593Y-70495323D01*
X128527507Y-70485025D01*
X128843599Y-70485301D01*
X128871395Y-70473816D01*
X128901453Y-70472836D01*
X129434359Y-70252099D01*
X129439581Y-70239046D01*
X129481515Y-70221719D01*
X129970004Y-69734082D01*
X129988370Y-69689851D01*
X130002099Y-69684359D01*
X130048811Y-69560300D01*
X133161000Y-69560300D01*
X133161000Y-82360870D01*
X133213143Y-82623008D01*
X133361632Y-82845238D01*
X133583862Y-82993727D01*
X133846000Y-83045870D01*
X133977692Y-83045870D01*
X134012543Y-83221078D01*
X134161032Y-83443308D01*
X134383262Y-83591797D01*
X134645400Y-83643940D01*
X148644700Y-83643940D01*
X148906838Y-83591797D01*
X149129068Y-83443308D01*
X149277557Y-83221078D01*
X149312408Y-83045870D01*
X149445500Y-83045870D01*
X149707638Y-82993727D01*
X149929868Y-82845238D01*
X150078357Y-82623008D01*
X150130500Y-82360870D01*
X150130500Y-71914880D01*
X152152580Y-71914880D01*
X152152580Y-84715450D01*
X152204723Y-84977588D01*
X152353212Y-85199818D01*
X152575442Y-85348307D01*
X152837580Y-85400450D01*
X152969272Y-85400450D01*
X153004123Y-85575658D01*
X153152612Y-85797888D01*
X153374842Y-85946377D01*
X153636980Y-85998520D01*
X167636280Y-85998520D01*
X167898418Y-85946377D01*
X168120648Y-85797888D01*
X168269137Y-85575658D01*
X168303988Y-85400450D01*
X168437080Y-85400450D01*
X168699218Y-85348307D01*
X168921448Y-85199818D01*
X169069937Y-84977588D01*
X169122080Y-84715450D01*
X169122080Y-74287240D01*
X171258460Y-74287240D01*
X171258460Y-87087810D01*
X171310603Y-87349948D01*
X171459092Y-87572178D01*
X171681322Y-87720667D01*
X171943460Y-87772810D01*
X172075152Y-87772810D01*
X172110003Y-87948018D01*
X172258492Y-88170248D01*
X172480722Y-88318737D01*
X172742860Y-88370880D01*
X186742160Y-88370880D01*
X187004298Y-88318737D01*
X187226528Y-88170248D01*
X187375017Y-87948018D01*
X187409868Y-87772810D01*
X187542960Y-87772810D01*
X187805098Y-87720667D01*
X188027328Y-87572178D01*
X188175817Y-87349948D01*
X188227960Y-87087810D01*
X188227960Y-78976080D01*
X190267820Y-78976080D01*
X190267820Y-91776650D01*
X190319963Y-92038788D01*
X190468452Y-92261018D01*
X190690682Y-92409507D01*
X190952820Y-92461650D01*
X191084512Y-92461650D01*
X191119363Y-92636858D01*
X191267852Y-92859088D01*
X191490082Y-93007577D01*
X191752220Y-93059720D01*
X205751520Y-93059720D01*
X206013658Y-93007577D01*
X206235888Y-92859088D01*
X206384377Y-92636858D01*
X206419228Y-92461650D01*
X206552320Y-92461650D01*
X206814458Y-92409507D01*
X207036688Y-92261018D01*
X207185177Y-92038788D01*
X207237320Y-91776650D01*
X207237320Y-78976080D01*
X207185177Y-78713942D01*
X207036688Y-78491712D01*
X206814458Y-78343223D01*
X206552320Y-78291080D01*
X206419513Y-78291080D01*
X206384377Y-78114442D01*
X206235888Y-77892212D01*
X206013658Y-77743723D01*
X205751520Y-77691580D01*
X191752220Y-77691580D01*
X191490082Y-77743723D01*
X191267852Y-77892212D01*
X191119363Y-78114442D01*
X191084227Y-78291080D01*
X190952820Y-78291080D01*
X190690682Y-78343223D01*
X190468452Y-78491712D01*
X190319963Y-78713942D01*
X190267820Y-78976080D01*
X188227960Y-78976080D01*
X188227960Y-74287240D01*
X188175817Y-74025102D01*
X188027328Y-73802872D01*
X187805098Y-73654383D01*
X187542960Y-73602240D01*
X187410153Y-73602240D01*
X187375017Y-73425602D01*
X187226528Y-73203372D01*
X187004298Y-73054883D01*
X186742160Y-73002740D01*
X172742860Y-73002740D01*
X172480722Y-73054883D01*
X172258492Y-73203372D01*
X172110003Y-73425602D01*
X172074867Y-73602240D01*
X171943460Y-73602240D01*
X171681322Y-73654383D01*
X171459092Y-73802872D01*
X171310603Y-74025102D01*
X171258460Y-74287240D01*
X169122080Y-74287240D01*
X169122080Y-71914880D01*
X169111481Y-71861593D01*
X187504677Y-71861593D01*
X187514975Y-72177507D01*
X187514699Y-72493599D01*
X187526184Y-72521395D01*
X187527164Y-72551453D01*
X187747901Y-73084359D01*
X187760954Y-73089581D01*
X187778281Y-73131515D01*
X188265918Y-73620004D01*
X188310149Y-73638370D01*
X188315641Y-73652099D01*
X188611448Y-73763481D01*
X188903373Y-73884699D01*
X188933448Y-73884725D01*
X188961593Y-73895323D01*
X189277507Y-73885025D01*
X189593599Y-73885301D01*
X189621395Y-73873816D01*
X189651453Y-73872836D01*
X190184359Y-73652099D01*
X190189581Y-73639046D01*
X190231515Y-73621719D01*
X190651694Y-73202273D01*
X190835980Y-73238930D01*
X190967672Y-73238930D01*
X191002523Y-73414138D01*
X191151012Y-73636368D01*
X191373242Y-73784857D01*
X191635380Y-73837000D01*
X205634680Y-73837000D01*
X205896818Y-73784857D01*
X206119048Y-73636368D01*
X206267537Y-73414138D01*
X206302388Y-73238930D01*
X206435480Y-73238930D01*
X206697618Y-73186787D01*
X206919848Y-73038298D01*
X207068337Y-72816068D01*
X207120480Y-72553930D01*
X207120480Y-59753360D01*
X207068337Y-59491222D01*
X206919848Y-59268992D01*
X206697618Y-59120503D01*
X206435480Y-59068360D01*
X206302673Y-59068360D01*
X206267537Y-58891722D01*
X206119048Y-58669492D01*
X205896818Y-58521003D01*
X205634680Y-58468860D01*
X191635380Y-58468860D01*
X191373242Y-58521003D01*
X191151012Y-58669492D01*
X191002523Y-58891722D01*
X190967387Y-59068360D01*
X190835980Y-59068360D01*
X190573842Y-59120503D01*
X190351612Y-59268992D01*
X190203123Y-59491222D01*
X190150980Y-59753360D01*
X190150980Y-70635333D01*
X189888552Y-70536519D01*
X189596627Y-70415301D01*
X189566552Y-70415275D01*
X189538407Y-70404677D01*
X189222493Y-70414975D01*
X188906401Y-70414699D01*
X188878605Y-70426184D01*
X188848547Y-70427164D01*
X188315641Y-70647901D01*
X188310419Y-70660954D01*
X188268485Y-70678281D01*
X187779996Y-71165918D01*
X187761630Y-71210149D01*
X187747901Y-71215641D01*
X187636519Y-71511448D01*
X187515301Y-71803373D01*
X187515275Y-71833448D01*
X187504677Y-71861593D01*
X169111481Y-71861593D01*
X169069937Y-71652742D01*
X168921448Y-71430512D01*
X168699218Y-71282023D01*
X168437080Y-71229880D01*
X168304273Y-71229880D01*
X168269137Y-71053242D01*
X168120648Y-70831012D01*
X167898418Y-70682523D01*
X167636280Y-70630380D01*
X153636980Y-70630380D01*
X153374842Y-70682523D01*
X153152612Y-70831012D01*
X153004123Y-71053242D01*
X152968987Y-71229880D01*
X152837580Y-71229880D01*
X152575442Y-71282023D01*
X152353212Y-71430512D01*
X152204723Y-71652742D01*
X152152580Y-71914880D01*
X150130500Y-71914880D01*
X150130500Y-69560300D01*
X150078357Y-69298162D01*
X149929868Y-69075932D01*
X149707638Y-68927443D01*
X149445500Y-68875300D01*
X149312693Y-68875300D01*
X149277557Y-68698662D01*
X149129068Y-68476432D01*
X149106860Y-68461593D01*
X153164677Y-68461593D01*
X153174975Y-68777507D01*
X153174699Y-69093599D01*
X153186184Y-69121395D01*
X153187164Y-69151453D01*
X153407901Y-69684359D01*
X153420954Y-69689581D01*
X153438281Y-69731515D01*
X153925918Y-70220004D01*
X153970149Y-70238370D01*
X153975641Y-70252099D01*
X154271448Y-70363481D01*
X154563373Y-70484699D01*
X154593448Y-70484725D01*
X154621593Y-70495323D01*
X154937507Y-70485025D01*
X155253599Y-70485301D01*
X155281395Y-70473816D01*
X155311453Y-70472836D01*
X155844359Y-70252099D01*
X155849581Y-70239046D01*
X155891515Y-70221719D01*
X156380004Y-69734082D01*
X156398370Y-69689851D01*
X156412099Y-69684359D01*
X156523481Y-69388552D01*
X156644699Y-69096627D01*
X156644725Y-69066552D01*
X156655323Y-69038407D01*
X156645025Y-68722493D01*
X156645301Y-68406401D01*
X156633816Y-68378605D01*
X156632836Y-68348547D01*
X156412099Y-67815641D01*
X156399046Y-67810419D01*
X156381719Y-67768485D01*
X155894082Y-67279996D01*
X155849851Y-67261630D01*
X155844359Y-67247901D01*
X155548552Y-67136519D01*
X155256627Y-67015301D01*
X155226552Y-67015275D01*
X155198407Y-67004677D01*
X154882493Y-67014975D01*
X154566401Y-67014699D01*
X154538605Y-67026184D01*
X154508547Y-67027164D01*
X153975641Y-67247901D01*
X153970419Y-67260954D01*
X153928485Y-67278281D01*
X153439996Y-67765918D01*
X153421630Y-67810149D01*
X153407901Y-67815641D01*
X153296519Y-68111448D01*
X153175301Y-68403373D01*
X153175275Y-68433448D01*
X153164677Y-68461593D01*
X149106860Y-68461593D01*
X148906838Y-68327943D01*
X148644700Y-68275800D01*
X134645400Y-68275800D01*
X134383262Y-68327943D01*
X134161032Y-68476432D01*
X134012543Y-68698662D01*
X133977407Y-68875300D01*
X133846000Y-68875300D01*
X133583862Y-68927443D01*
X133361632Y-69075932D01*
X133213143Y-69298162D01*
X133161000Y-69560300D01*
X130048811Y-69560300D01*
X130113481Y-69388552D01*
X130234699Y-69096627D01*
X130234725Y-69066552D01*
X130245323Y-69038407D01*
X130235025Y-68722493D01*
X130235301Y-68406401D01*
X130223816Y-68378605D01*
X130222836Y-68348547D01*
X130002099Y-67815641D01*
X129989046Y-67810419D01*
X129971719Y-67768485D01*
X129484082Y-67279996D01*
X129439851Y-67261630D01*
X129434359Y-67247901D01*
X129138552Y-67136519D01*
X128846627Y-67015301D01*
X128816552Y-67015275D01*
X128788407Y-67004677D01*
X128472493Y-67014975D01*
X128156401Y-67014699D01*
X128128605Y-67026184D01*
X128098547Y-67027164D01*
X127565641Y-67247901D01*
X127560419Y-67260954D01*
X127518485Y-67278281D01*
X127029996Y-67765918D01*
X127011630Y-67810149D01*
X126997901Y-67815641D01*
X126886519Y-68111448D01*
X126765301Y-68403373D01*
X126765275Y-68433448D01*
X126754677Y-68461593D01*
X111607289Y-68461593D01*
X111710488Y-68392638D01*
X111858977Y-68170408D01*
X111911120Y-67908270D01*
X111911120Y-55107700D01*
X111858977Y-54845562D01*
X111710488Y-54623332D01*
X111488258Y-54474843D01*
X111226120Y-54422700D01*
X111093313Y-54422700D01*
X111058177Y-54246062D01*
X110909688Y-54023832D01*
X110687458Y-53875343D01*
X110425320Y-53823200D01*
X96426020Y-53823200D01*
X96163882Y-53875343D01*
X95941652Y-54023832D01*
X95793163Y-54246062D01*
X95758027Y-54422700D01*
X95626620Y-54422700D01*
X95364482Y-54474843D01*
X95142252Y-54623332D01*
X94993763Y-54845562D01*
X94941620Y-55107700D01*
X75690000Y-55107700D01*
X75690000Y-54051172D01*
X75867092Y-53952209D01*
X83177713Y-52715020D01*
X114039880Y-52715020D01*
X114039880Y-65515590D01*
X114092023Y-65777728D01*
X114240512Y-65999958D01*
X114462742Y-66148447D01*
X114724880Y-66200590D01*
X114856572Y-66200590D01*
X114891423Y-66375798D01*
X115039912Y-66598028D01*
X115262142Y-66746517D01*
X115524280Y-66798660D01*
X129523580Y-66798660D01*
X129785718Y-66746517D01*
X130007948Y-66598028D01*
X130156437Y-66375798D01*
X130191288Y-66200590D01*
X130324380Y-66200590D01*
X130586518Y-66148447D01*
X130808748Y-65999958D01*
X130957237Y-65777728D01*
X131009380Y-65515590D01*
X131009380Y-52715020D01*
X130957237Y-52452882D01*
X130808748Y-52230652D01*
X130586518Y-52082163D01*
X130324380Y-52030020D01*
X130191573Y-52030020D01*
X130156437Y-51853382D01*
X130007948Y-51631152D01*
X129785718Y-51482663D01*
X129523580Y-51430520D01*
X115524280Y-51430520D01*
X115262142Y-51482663D01*
X115039912Y-51631152D01*
X114891423Y-51853382D01*
X114856287Y-52030020D01*
X114724880Y-52030020D01*
X114462742Y-52082163D01*
X114240512Y-52230652D01*
X114092023Y-52452882D01*
X114039880Y-52715020D01*
X83177713Y-52715020D01*
X97226143Y-50337580D01*
X133044160Y-50337580D01*
X133044160Y-63138150D01*
X133096303Y-63400288D01*
X133244792Y-63622518D01*
X133467022Y-63771007D01*
X133729160Y-63823150D01*
X133860852Y-63823150D01*
X133895703Y-63998358D01*
X134044192Y-64220588D01*
X134266422Y-64369077D01*
X134528560Y-64421220D01*
X148527860Y-64421220D01*
X148789998Y-64369077D01*
X149012228Y-64220588D01*
X149160717Y-63998358D01*
X149195568Y-63823150D01*
X149328660Y-63823150D01*
X149590798Y-63771007D01*
X149813028Y-63622518D01*
X149961517Y-63400288D01*
X150013660Y-63138150D01*
X150013660Y-52692160D01*
X152035740Y-52692160D01*
X152035740Y-65492730D01*
X152087883Y-65754868D01*
X152236372Y-65977098D01*
X152458602Y-66125587D01*
X152720740Y-66177730D01*
X152852432Y-66177730D01*
X152887283Y-66352938D01*
X153035772Y-66575168D01*
X153258002Y-66723657D01*
X153520140Y-66775800D01*
X167519440Y-66775800D01*
X167781578Y-66723657D01*
X168003808Y-66575168D01*
X168152297Y-66352938D01*
X168187148Y-66177730D01*
X168320240Y-66177730D01*
X168582378Y-66125587D01*
X168804608Y-65977098D01*
X168953097Y-65754868D01*
X169005240Y-65492730D01*
X169005240Y-55064520D01*
X171141620Y-55064520D01*
X171141620Y-67865090D01*
X171193763Y-68127228D01*
X171342252Y-68349458D01*
X171564482Y-68497947D01*
X171826620Y-68550090D01*
X171958312Y-68550090D01*
X171993163Y-68725298D01*
X172141652Y-68947528D01*
X172363882Y-69096017D01*
X172626020Y-69148160D01*
X186625320Y-69148160D01*
X186887458Y-69096017D01*
X187109688Y-68947528D01*
X187258177Y-68725298D01*
X187293028Y-68550090D01*
X187426120Y-68550090D01*
X187688258Y-68497947D01*
X187910488Y-68349458D01*
X188058977Y-68127228D01*
X188111120Y-67865090D01*
X188111120Y-55064520D01*
X188058977Y-54802382D01*
X187910488Y-54580152D01*
X187688258Y-54431663D01*
X187426120Y-54379520D01*
X187293313Y-54379520D01*
X187258177Y-54202882D01*
X187109688Y-53980652D01*
X186887458Y-53832163D01*
X186625320Y-53780020D01*
X172626020Y-53780020D01*
X172363882Y-53832163D01*
X172141652Y-53980652D01*
X171993163Y-54202882D01*
X171958027Y-54379520D01*
X171826620Y-54379520D01*
X171564482Y-54431663D01*
X171342252Y-54580152D01*
X171193763Y-54802382D01*
X171141620Y-55064520D01*
X169005240Y-55064520D01*
X169005240Y-52692160D01*
X168953097Y-52430022D01*
X168804608Y-52207792D01*
X168582378Y-52059303D01*
X168320240Y-52007160D01*
X168187433Y-52007160D01*
X168152297Y-51830522D01*
X168003808Y-51608292D01*
X167781578Y-51459803D01*
X167519440Y-51407660D01*
X153520140Y-51407660D01*
X153258002Y-51459803D01*
X153035772Y-51608292D01*
X152887283Y-51830522D01*
X152852147Y-52007160D01*
X152720740Y-52007160D01*
X152458602Y-52059303D01*
X152236372Y-52207792D01*
X152087883Y-52430022D01*
X152035740Y-52692160D01*
X150013660Y-52692160D01*
X150013660Y-50337580D01*
X149961517Y-50075442D01*
X149813028Y-49853212D01*
X149590798Y-49704723D01*
X149328660Y-49652580D01*
X149195853Y-49652580D01*
X149160717Y-49475942D01*
X149012228Y-49253712D01*
X148789998Y-49105223D01*
X148527860Y-49053080D01*
X134528560Y-49053080D01*
X134266422Y-49105223D01*
X134044192Y-49253712D01*
X133895703Y-49475942D01*
X133860567Y-49652580D01*
X133729160Y-49652580D01*
X133467022Y-49704723D01*
X133244792Y-49853212D01*
X133096303Y-50075442D01*
X133044160Y-50337580D01*
X97226143Y-50337580D01*
X116268554Y-47115000D01*
X205038112Y-47115000D01*
X205927138Y-47271642D01*
G36*
X202034679Y-104999681D02*
X202034811Y-104999726D01*
X202034915Y-104999817D01*
X202160434Y-105042407D01*
X202287745Y-105085662D01*
X202287885Y-105085653D01*
X202288015Y-105085697D01*
X202421098Y-105076958D01*
X202554451Y-105068254D01*
X202554574Y-105068193D01*
X202554714Y-105068184D01*
X202675632Y-105008535D01*
X202794194Y-104950107D01*
X202794284Y-104950004D01*
X202794410Y-104949942D01*
X202883143Y-104848736D01*
X202970475Y-104749208D01*
X202970519Y-104749078D01*
X202970611Y-104748973D01*
X203040347Y-104628152D01*
X204279362Y-105342493D01*
X204209136Y-105464109D01*
X204209117Y-105464164D01*
X204209082Y-105464204D01*
X204167350Y-105587179D01*
X204123207Y-105717192D01*
X204123211Y-105717249D01*
X204123193Y-105717301D01*
X204131961Y-105850894D01*
X204140669Y-105983895D01*
X204140693Y-105983944D01*
X204140697Y-105984001D01*
X204200010Y-106104248D01*
X204258864Y-106223613D01*
X204258906Y-106223650D01*
X204258931Y-106223700D01*
X204357508Y-106310134D01*
X204459799Y-106399854D01*
X204459854Y-106399873D01*
X204459894Y-106399908D01*
X206663877Y-107672113D01*
X206143519Y-108570937D01*
X206143477Y-108571059D01*
X206143394Y-108571154D01*
X206100689Y-108696620D01*
X206057307Y-108823925D01*
X206057315Y-108824052D01*
X206057274Y-108824173D01*
X206065858Y-108956810D01*
X206074471Y-109090647D01*
X206074528Y-109090763D01*
X206074536Y-109090888D01*
X206132379Y-109208424D01*
X206192399Y-109330497D01*
X206192497Y-109330583D01*
X206192552Y-109330695D01*
X206291199Y-109417350D01*
X206393137Y-109506961D01*
X206393259Y-109507003D01*
X206393354Y-109507086D01*
X206598756Y-109625900D01*
X205632796Y-111298105D01*
X205428924Y-111180361D01*
X205428803Y-111180320D01*
X205428707Y-111180236D01*
X205302864Y-111137550D01*
X205175846Y-111094413D01*
X205175718Y-111094421D01*
X205175599Y-111094381D01*
X205043645Y-111103059D01*
X204909143Y-111111856D01*
X204909028Y-111111913D01*
X204908901Y-111111921D01*
X204789718Y-111170729D01*
X204669416Y-111230034D01*
X204669331Y-111230131D01*
X204669217Y-111230187D01*
X204581516Y-111330236D01*
X204493161Y-111430956D01*
X204493120Y-111431077D01*
X204493036Y-111431173D01*
X203631036Y-112924970D01*
X203630891Y-112925398D01*
X203269686Y-113547908D01*
X203267742Y-113550117D01*
X203181410Y-113803063D01*
X203198448Y-114069793D01*
X203198570Y-114070041D01*
X203198581Y-114070218D01*
X203316274Y-114310184D01*
X203516839Y-114486845D01*
X203519499Y-114487754D01*
X203679802Y-114580661D01*
X203622331Y-114680057D01*
X203622061Y-114680850D01*
X203621509Y-114681482D01*
X203579000Y-114807439D01*
X203536257Y-114933091D01*
X203536311Y-114933927D01*
X203536043Y-114934722D01*
X203544975Y-115067417D01*
X203553567Y-115199804D01*
X203553937Y-115200555D01*
X203553993Y-115201392D01*
X203612969Y-115320454D01*
X203671626Y-115439590D01*
X203672256Y-115440143D01*
X203672628Y-115440894D01*
X203772647Y-115528297D01*
X203807585Y-115558976D01*
X197476239Y-126527406D01*
X197430390Y-126511851D01*
X197304930Y-126469226D01*
X197304778Y-126469236D01*
X197304634Y-126469187D01*
X197171145Y-126477959D01*
X197038224Y-126486636D01*
X197038088Y-126486703D01*
X197037936Y-126486713D01*
X196917411Y-126546175D01*
X196798483Y-126604786D01*
X196798384Y-126604899D01*
X196798246Y-126604967D01*
X196709697Y-126705973D01*
X196622204Y-126805686D01*
X196622155Y-126805830D01*
X196622055Y-126805944D01*
X196565027Y-126904758D01*
X196403453Y-126811149D01*
X196403287Y-126811092D01*
X196403275Y-126811082D01*
X196400992Y-126810310D01*
X196150493Y-126724856D01*
X195883765Y-126741935D01*
X195643877Y-126859786D01*
X195467349Y-127060467D01*
X195464836Y-127067835D01*
X195106037Y-127690674D01*
X194244038Y-129184473D01*
X194201248Y-129310622D01*
X194158256Y-129437025D01*
X194158275Y-129437312D01*
X194158183Y-129437582D01*
X194166916Y-129570365D01*
X194175578Y-129703737D01*
X194175704Y-129703993D01*
X194175723Y-129704279D01*
X194234615Y-129823632D01*
X194293647Y-129943518D01*
X194293863Y-129943708D01*
X194293989Y-129943963D01*
X194394133Y-130031748D01*
X194494489Y-130119863D01*
X194697721Y-130237361D01*
X193732311Y-131908865D01*
X193528146Y-131791310D01*
X193401543Y-131748500D01*
X193275643Y-131705786D01*
X193275291Y-131705809D01*
X193274956Y-131705696D01*
X193142026Y-131714566D01*
X193008945Y-131723310D01*
X193008628Y-131723466D01*
X193008275Y-131723490D01*
X192888534Y-131782715D01*
X192769254Y-131841562D01*
X192769022Y-131841827D01*
X192768704Y-131841984D01*
X192680919Y-131942321D01*
X192593060Y-132042537D01*
X192073528Y-132942734D01*
X189869869Y-131670328D01*
X189869776Y-131670297D01*
X189869705Y-131670234D01*
X189745045Y-131627950D01*
X189616783Y-131584405D01*
X189616686Y-131584411D01*
X189616596Y-131584381D01*
X189484755Y-131593053D01*
X189350081Y-131601875D01*
X189349994Y-131601918D01*
X189349899Y-131601924D01*
X189231203Y-131660493D01*
X189110365Y-131720077D01*
X189110301Y-131720150D01*
X189110216Y-131720192D01*
X189023653Y-131818945D01*
X188934131Y-131921016D01*
X188934100Y-131921109D01*
X188934037Y-131921180D01*
X188864277Y-132042072D01*
X187625433Y-131327766D01*
X187696470Y-131204807D01*
X187696531Y-131204626D01*
X187696656Y-131204484D01*
X187739266Y-131078849D01*
X187782453Y-130951741D01*
X187782441Y-130951550D01*
X187782501Y-130951372D01*
X187773812Y-130819330D01*
X187765048Y-130685035D01*
X187764963Y-130684863D01*
X187764951Y-130684675D01*
X187706386Y-130565996D01*
X187646904Y-130445291D01*
X187646759Y-130445163D01*
X187646676Y-130444996D01*
X187547481Y-130358050D01*
X187446007Y-130269008D01*
X187445826Y-130268947D01*
X187445684Y-130268822D01*
X182608321Y-127477656D01*
X183128470Y-126577310D01*
X183128473Y-126577307D01*
X183214457Y-126324241D01*
X183197053Y-126057535D01*
X183078909Y-125817791D01*
X183078907Y-125817789D01*
X183078906Y-125817787D01*
X182942595Y-125698178D01*
X182878013Y-125641508D01*
X182622232Y-125493735D01*
X183587749Y-123823113D01*
X183841744Y-123969812D01*
X183841841Y-123969845D01*
X183841915Y-123969910D01*
X183966429Y-124012159D01*
X184094820Y-124055765D01*
X184094922Y-124055758D01*
X184095015Y-124055790D01*
X184226916Y-124047129D01*
X184361524Y-124038328D01*
X184361614Y-124038284D01*
X184361714Y-124038277D01*
X184481637Y-123979119D01*
X184601253Y-123920154D01*
X184601319Y-123920079D01*
X184601410Y-123920034D01*
X184689268Y-123819826D01*
X184777512Y-123719236D01*
X184777545Y-123719139D01*
X184777610Y-123719065D01*
X185341314Y-122742417D01*
X185546403Y-122729003D01*
X185786129Y-122610822D01*
X185962382Y-122409899D01*
X185963146Y-122407650D01*
X186323677Y-121781450D01*
X186723350Y-121090224D01*
X186723527Y-121089703D01*
X186723888Y-121089291D01*
X186766564Y-120963185D01*
X186809424Y-120837190D01*
X186809389Y-120836643D01*
X186809565Y-120836122D01*
X186800726Y-120703160D01*
X186792116Y-120570477D01*
X186791873Y-120569984D01*
X186791837Y-120569437D01*
X186732873Y-120450149D01*
X186674058Y-120330691D01*
X186673646Y-120330329D01*
X186673402Y-120329836D01*
X186572927Y-120241886D01*
X186538787Y-120211907D01*
X192870905Y-109243408D01*
X192914325Y-109258102D01*
X193040453Y-109301015D01*
X193041023Y-109300978D01*
X193041566Y-109301162D01*
X193174720Y-109292309D01*
X193307167Y-109283722D01*
X193307679Y-109283470D01*
X193308250Y-109283432D01*
X193427620Y-109224426D01*
X193546960Y-109165679D01*
X193547337Y-109165249D01*
X193547850Y-109164996D01*
X193635479Y-109064887D01*
X193723328Y-108964856D01*
X194123327Y-108273159D01*
X194125466Y-108266871D01*
X194484089Y-107649148D01*
X194549813Y-107457048D01*
X194565333Y-107414477D01*
X194565226Y-107411999D01*
X194570609Y-107396266D01*
X194553769Y-107129523D01*
X194463382Y-106945121D01*
X195028089Y-105963562D01*
X195070979Y-105836574D01*
X195113572Y-105710659D01*
X195113561Y-105710497D01*
X195113614Y-105710341D01*
X195104616Y-105576197D01*
X195095810Y-105443976D01*
X195095738Y-105443830D01*
X195095727Y-105443667D01*
X195036698Y-105324429D01*
X194977344Y-105204391D01*
X194977220Y-105204283D01*
X194977148Y-105204137D01*
X194876494Y-105116137D01*
X194776210Y-105028378D01*
X194775935Y-105028219D01*
X194775931Y-105028217D01*
X194523262Y-104882695D01*
X195486941Y-103212459D01*
X195741332Y-103359624D01*
X195741623Y-103359723D01*
X195741853Y-103359925D01*
X195868101Y-103402778D01*
X195994347Y-103445754D01*
X195994653Y-103445734D01*
X195994944Y-103445833D01*
X196127872Y-103437118D01*
X196261063Y-103428504D01*
X196261339Y-103428368D01*
X196261645Y-103428348D01*
X196381316Y-103369331D01*
X196500876Y-103310498D01*
X196501078Y-103310268D01*
X196501354Y-103310132D01*
X196589152Y-103210014D01*
X196677275Y-103109704D01*
X196677374Y-103109412D01*
X196677576Y-103109182D01*
X197198987Y-102206036D01*
X202034679Y-104999681D01*
X202034679Y-104999681D01*
G37*
X202034679Y-104999681D02*
X202034811Y-104999726D01*
X202034915Y-104999817D01*
X202160434Y-105042407D01*
X202287745Y-105085662D01*
X202287885Y-105085653D01*
X202288015Y-105085697D01*
X202421098Y-105076958D01*
X202554451Y-105068254D01*
X202554574Y-105068193D01*
X202554714Y-105068184D01*
X202675632Y-105008535D01*
X202794194Y-104950107D01*
X202794284Y-104950004D01*
X202794410Y-104949942D01*
X202883143Y-104848736D01*
X202970475Y-104749208D01*
X202970519Y-104749078D01*
X202970611Y-104748973D01*
X203040347Y-104628152D01*
X204279362Y-105342493D01*
X204209136Y-105464109D01*
X204209117Y-105464164D01*
X204209082Y-105464204D01*
X204167350Y-105587179D01*
X204123207Y-105717192D01*
X204123211Y-105717249D01*
X204123193Y-105717301D01*
X204131961Y-105850894D01*
X204140669Y-105983895D01*
X204140693Y-105983944D01*
X204140697Y-105984001D01*
X204200010Y-106104248D01*
X204258864Y-106223613D01*
X204258906Y-106223650D01*
X204258931Y-106223700D01*
X204357508Y-106310134D01*
X204459799Y-106399854D01*
X204459854Y-106399873D01*
X204459894Y-106399908D01*
X206663877Y-107672113D01*
X206143519Y-108570937D01*
X206143477Y-108571059D01*
X206143394Y-108571154D01*
X206100689Y-108696620D01*
X206057307Y-108823925D01*
X206057315Y-108824052D01*
X206057274Y-108824173D01*
X206065858Y-108956810D01*
X206074471Y-109090647D01*
X206074528Y-109090763D01*
X206074536Y-109090888D01*
X206132379Y-109208424D01*
X206192399Y-109330497D01*
X206192497Y-109330583D01*
X206192552Y-109330695D01*
X206291199Y-109417350D01*
X206393137Y-109506961D01*
X206393259Y-109507003D01*
X206393354Y-109507086D01*
X206598756Y-109625900D01*
X205632796Y-111298105D01*
X205428924Y-111180361D01*
X205428803Y-111180320D01*
X205428707Y-111180236D01*
X205302864Y-111137550D01*
X205175846Y-111094413D01*
X205175718Y-111094421D01*
X205175599Y-111094381D01*
X205043645Y-111103059D01*
X204909143Y-111111856D01*
X204909028Y-111111913D01*
X204908901Y-111111921D01*
X204789718Y-111170729D01*
X204669416Y-111230034D01*
X204669331Y-111230131D01*
X204669217Y-111230187D01*
X204581516Y-111330236D01*
X204493161Y-111430956D01*
X204493120Y-111431077D01*
X204493036Y-111431173D01*
X203631036Y-112924970D01*
X203630891Y-112925398D01*
X203269686Y-113547908D01*
X203267742Y-113550117D01*
X203181410Y-113803063D01*
X203198448Y-114069793D01*
X203198570Y-114070041D01*
X203198581Y-114070218D01*
X203316274Y-114310184D01*
X203516839Y-114486845D01*
X203519499Y-114487754D01*
X203679802Y-114580661D01*
X203622331Y-114680057D01*
X203622061Y-114680850D01*
X203621509Y-114681482D01*
X203579000Y-114807439D01*
X203536257Y-114933091D01*
X203536311Y-114933927D01*
X203536043Y-114934722D01*
X203544975Y-115067417D01*
X203553567Y-115199804D01*
X203553937Y-115200555D01*
X203553993Y-115201392D01*
X203612969Y-115320454D01*
X203671626Y-115439590D01*
X203672256Y-115440143D01*
X203672628Y-115440894D01*
X203772647Y-115528297D01*
X203807585Y-115558976D01*
X197476239Y-126527406D01*
X197430390Y-126511851D01*
X197304930Y-126469226D01*
X197304778Y-126469236D01*
X197304634Y-126469187D01*
X197171145Y-126477959D01*
X197038224Y-126486636D01*
X197038088Y-126486703D01*
X197037936Y-126486713D01*
X196917411Y-126546175D01*
X196798483Y-126604786D01*
X196798384Y-126604899D01*
X196798246Y-126604967D01*
X196709697Y-126705973D01*
X196622204Y-126805686D01*
X196622155Y-126805830D01*
X196622055Y-126805944D01*
X196565027Y-126904758D01*
X196403453Y-126811149D01*
X196403287Y-126811092D01*
X196403275Y-126811082D01*
X196400992Y-126810310D01*
X196150493Y-126724856D01*
X195883765Y-126741935D01*
X195643877Y-126859786D01*
X195467349Y-127060467D01*
X195464836Y-127067835D01*
X195106037Y-127690674D01*
X194244038Y-129184473D01*
X194201248Y-129310622D01*
X194158256Y-129437025D01*
X194158275Y-129437312D01*
X194158183Y-129437582D01*
X194166916Y-129570365D01*
X194175578Y-129703737D01*
X194175704Y-129703993D01*
X194175723Y-129704279D01*
X194234615Y-129823632D01*
X194293647Y-129943518D01*
X194293863Y-129943708D01*
X194293989Y-129943963D01*
X194394133Y-130031748D01*
X194494489Y-130119863D01*
X194697721Y-130237361D01*
X193732311Y-131908865D01*
X193528146Y-131791310D01*
X193401543Y-131748500D01*
X193275643Y-131705786D01*
X193275291Y-131705809D01*
X193274956Y-131705696D01*
X193142026Y-131714566D01*
X193008945Y-131723310D01*
X193008628Y-131723466D01*
X193008275Y-131723490D01*
X192888534Y-131782715D01*
X192769254Y-131841562D01*
X192769022Y-131841827D01*
X192768704Y-131841984D01*
X192680919Y-131942321D01*
X192593060Y-132042537D01*
X192073528Y-132942734D01*
X189869869Y-131670328D01*
X189869776Y-131670297D01*
X189869705Y-131670234D01*
X189745045Y-131627950D01*
X189616783Y-131584405D01*
X189616686Y-131584411D01*
X189616596Y-131584381D01*
X189484755Y-131593053D01*
X189350081Y-131601875D01*
X189349994Y-131601918D01*
X189349899Y-131601924D01*
X189231203Y-131660493D01*
X189110365Y-131720077D01*
X189110301Y-131720150D01*
X189110216Y-131720192D01*
X189023653Y-131818945D01*
X188934131Y-131921016D01*
X188934100Y-131921109D01*
X188934037Y-131921180D01*
X188864277Y-132042072D01*
X187625433Y-131327766D01*
X187696470Y-131204807D01*
X187696531Y-131204626D01*
X187696656Y-131204484D01*
X187739266Y-131078849D01*
X187782453Y-130951741D01*
X187782441Y-130951550D01*
X187782501Y-130951372D01*
X187773812Y-130819330D01*
X187765048Y-130685035D01*
X187764963Y-130684863D01*
X187764951Y-130684675D01*
X187706386Y-130565996D01*
X187646904Y-130445291D01*
X187646759Y-130445163D01*
X187646676Y-130444996D01*
X187547481Y-130358050D01*
X187446007Y-130269008D01*
X187445826Y-130268947D01*
X187445684Y-130268822D01*
X182608321Y-127477656D01*
X183128470Y-126577310D01*
X183128473Y-126577307D01*
X183214457Y-126324241D01*
X183197053Y-126057535D01*
X183078909Y-125817791D01*
X183078907Y-125817789D01*
X183078906Y-125817787D01*
X182942595Y-125698178D01*
X182878013Y-125641508D01*
X182622232Y-125493735D01*
X183587749Y-123823113D01*
X183841744Y-123969812D01*
X183841841Y-123969845D01*
X183841915Y-123969910D01*
X183966429Y-124012159D01*
X184094820Y-124055765D01*
X184094922Y-124055758D01*
X184095015Y-124055790D01*
X184226916Y-124047129D01*
X184361524Y-124038328D01*
X184361614Y-124038284D01*
X184361714Y-124038277D01*
X184481637Y-123979119D01*
X184601253Y-123920154D01*
X184601319Y-123920079D01*
X184601410Y-123920034D01*
X184689268Y-123819826D01*
X184777512Y-123719236D01*
X184777545Y-123719139D01*
X184777610Y-123719065D01*
X185341314Y-122742417D01*
X185546403Y-122729003D01*
X185786129Y-122610822D01*
X185962382Y-122409899D01*
X185963146Y-122407650D01*
X186323677Y-121781450D01*
X186723350Y-121090224D01*
X186723527Y-121089703D01*
X186723888Y-121089291D01*
X186766564Y-120963185D01*
X186809424Y-120837190D01*
X186809389Y-120836643D01*
X186809565Y-120836122D01*
X186800726Y-120703160D01*
X186792116Y-120570477D01*
X186791873Y-120569984D01*
X186791837Y-120569437D01*
X186732873Y-120450149D01*
X186674058Y-120330691D01*
X186673646Y-120330329D01*
X186673402Y-120329836D01*
X186572927Y-120241886D01*
X186538787Y-120211907D01*
X192870905Y-109243408D01*
X192914325Y-109258102D01*
X193040453Y-109301015D01*
X193041023Y-109300978D01*
X193041566Y-109301162D01*
X193174720Y-109292309D01*
X193307167Y-109283722D01*
X193307679Y-109283470D01*
X193308250Y-109283432D01*
X193427620Y-109224426D01*
X193546960Y-109165679D01*
X193547337Y-109165249D01*
X193547850Y-109164996D01*
X193635479Y-109064887D01*
X193723328Y-108964856D01*
X194123327Y-108273159D01*
X194125466Y-108266871D01*
X194484089Y-107649148D01*
X194549813Y-107457048D01*
X194565333Y-107414477D01*
X194565226Y-107411999D01*
X194570609Y-107396266D01*
X194553769Y-107129523D01*
X194463382Y-106945121D01*
X195028089Y-105963562D01*
X195070979Y-105836574D01*
X195113572Y-105710659D01*
X195113561Y-105710497D01*
X195113614Y-105710341D01*
X195104616Y-105576197D01*
X195095810Y-105443976D01*
X195095738Y-105443830D01*
X195095727Y-105443667D01*
X195036698Y-105324429D01*
X194977344Y-105204391D01*
X194977220Y-105204283D01*
X194977148Y-105204137D01*
X194876494Y-105116137D01*
X194776210Y-105028378D01*
X194775935Y-105028219D01*
X194775931Y-105028217D01*
X194523262Y-104882695D01*
X195486941Y-103212459D01*
X195741332Y-103359624D01*
X195741623Y-103359723D01*
X195741853Y-103359925D01*
X195868101Y-103402778D01*
X195994347Y-103445754D01*
X195994653Y-103445734D01*
X195994944Y-103445833D01*
X196127872Y-103437118D01*
X196261063Y-103428504D01*
X196261339Y-103428368D01*
X196261645Y-103428348D01*
X196381316Y-103369331D01*
X196500876Y-103310498D01*
X196501078Y-103310268D01*
X196501354Y-103310132D01*
X196589152Y-103210014D01*
X196677275Y-103109704D01*
X196677374Y-103109412D01*
X196677576Y-103109182D01*
X197198987Y-102206036D01*
X202034679Y-104999681D01*
G36*
X90796003Y-114950618D02*
X90944492Y-115172848D01*
X91166722Y-115321337D01*
X91428860Y-115373480D01*
X91544460Y-115373480D01*
X91544460Y-126804050D01*
X91428860Y-126804050D01*
X91166722Y-126856193D01*
X90944492Y-127004682D01*
X90796003Y-127226912D01*
X90761152Y-127402120D01*
X78097018Y-127402120D01*
X78062167Y-127226912D01*
X77913678Y-127004682D01*
X77691448Y-126856193D01*
X77429310Y-126804050D01*
X77315050Y-126804050D01*
X77315050Y-115373480D01*
X77429310Y-115373480D01*
X77691448Y-115321337D01*
X77913678Y-115172848D01*
X78062167Y-114950618D01*
X78097303Y-114773980D01*
X90760867Y-114773980D01*
X90796003Y-114950618D01*
X90796003Y-114950618D01*
G37*
X90796003Y-114950618D02*
X90944492Y-115172848D01*
X91166722Y-115321337D01*
X91428860Y-115373480D01*
X91544460Y-115373480D01*
X91544460Y-126804050D01*
X91428860Y-126804050D01*
X91166722Y-126856193D01*
X90944492Y-127004682D01*
X90796003Y-127226912D01*
X90761152Y-127402120D01*
X78097018Y-127402120D01*
X78062167Y-127226912D01*
X77913678Y-127004682D01*
X77691448Y-126856193D01*
X77429310Y-126804050D01*
X77315050Y-126804050D01*
X77315050Y-115373480D01*
X77429310Y-115373480D01*
X77691448Y-115321337D01*
X77913678Y-115172848D01*
X78062167Y-114950618D01*
X78097303Y-114773980D01*
X90760867Y-114773980D01*
X90796003Y-114950618D01*
G36*
X174589100Y-113314147D02*
X174590203Y-113361609D01*
X174592983Y-113494532D01*
X174593312Y-113495282D01*
X174593331Y-113496099D01*
X174647009Y-113617621D01*
X174700403Y-113739268D01*
X174700993Y-113739834D01*
X174701324Y-113740583D01*
X174797456Y-113832345D01*
X174893304Y-113924267D01*
X174894066Y-113924564D01*
X174894658Y-113925129D01*
X175018452Y-113973066D01*
X175142316Y-114021365D01*
X175143135Y-114021348D01*
X175143897Y-114021643D01*
X175256269Y-114041291D01*
X173271563Y-125297232D01*
X173158440Y-125277257D01*
X173158437Y-125277256D01*
X173158434Y-125277256D01*
X173158094Y-125277196D01*
X173025092Y-125280065D01*
X172891223Y-125282886D01*
X172891061Y-125282957D01*
X172890883Y-125282961D01*
X172769007Y-125336552D01*
X172646503Y-125390345D01*
X172646379Y-125390474D01*
X172646218Y-125390545D01*
X172554085Y-125486741D01*
X172461535Y-125583275D01*
X172461471Y-125583440D01*
X172461347Y-125583569D01*
X172412971Y-125707878D01*
X172395622Y-125752392D01*
X159924552Y-123553384D01*
X159923449Y-123505835D01*
X159920580Y-123372819D01*
X159920350Y-123372296D01*
X159920337Y-123371727D01*
X159866694Y-123250268D01*
X159812999Y-123128153D01*
X159812586Y-123127757D01*
X159812356Y-123127237D01*
X159716326Y-123035562D01*
X159619977Y-122943281D01*
X159619444Y-122943074D01*
X159619032Y-122942680D01*
X159495219Y-122894728D01*
X159370901Y-122846347D01*
X159257187Y-122826266D01*
X161241802Y-111570475D01*
X161355013Y-111590464D01*
X161355016Y-111590465D01*
X161355019Y-111590465D01*
X161355478Y-111590546D01*
X161488526Y-111587673D01*
X161622232Y-111584877D01*
X161622450Y-111584781D01*
X161622690Y-111584776D01*
X161745028Y-111530979D01*
X161866968Y-111477457D01*
X161867133Y-111477285D01*
X161867353Y-111477188D01*
X161959859Y-111380598D01*
X162051967Y-111284556D01*
X162052054Y-111284334D01*
X162052219Y-111284161D01*
X162100299Y-111160606D01*
X162117963Y-111115306D01*
X174589100Y-113314147D01*
X174589100Y-113314147D01*
G37*
X174589100Y-113314147D02*
X174590203Y-113361609D01*
X174592983Y-113494532D01*
X174593312Y-113495282D01*
X174593331Y-113496099D01*
X174647009Y-113617621D01*
X174700403Y-113739268D01*
X174700993Y-113739834D01*
X174701324Y-113740583D01*
X174797456Y-113832345D01*
X174893304Y-113924267D01*
X174894066Y-113924564D01*
X174894658Y-113925129D01*
X175018452Y-113973066D01*
X175142316Y-114021365D01*
X175143135Y-114021348D01*
X175143897Y-114021643D01*
X175256269Y-114041291D01*
X173271563Y-125297232D01*
X173158440Y-125277257D01*
X173158437Y-125277256D01*
X173158434Y-125277256D01*
X173158094Y-125277196D01*
X173025092Y-125280065D01*
X172891223Y-125282886D01*
X172891061Y-125282957D01*
X172890883Y-125282961D01*
X172769007Y-125336552D01*
X172646503Y-125390345D01*
X172646379Y-125390474D01*
X172646218Y-125390545D01*
X172554085Y-125486741D01*
X172461535Y-125583275D01*
X172461471Y-125583440D01*
X172461347Y-125583569D01*
X172412971Y-125707878D01*
X172395622Y-125752392D01*
X159924552Y-123553384D01*
X159923449Y-123505835D01*
X159920580Y-123372819D01*
X159920350Y-123372296D01*
X159920337Y-123371727D01*
X159866694Y-123250268D01*
X159812999Y-123128153D01*
X159812586Y-123127757D01*
X159812356Y-123127237D01*
X159716326Y-123035562D01*
X159619977Y-122943281D01*
X159619444Y-122943074D01*
X159619032Y-122942680D01*
X159495219Y-122894728D01*
X159370901Y-122846347D01*
X159257187Y-122826266D01*
X161241802Y-111570475D01*
X161355013Y-111590464D01*
X161355016Y-111590465D01*
X161355019Y-111590465D01*
X161355478Y-111590546D01*
X161488526Y-111587673D01*
X161622232Y-111584877D01*
X161622450Y-111584781D01*
X161622690Y-111584776D01*
X161745028Y-111530979D01*
X161866968Y-111477457D01*
X161867133Y-111477285D01*
X161867353Y-111477188D01*
X161959859Y-111380598D01*
X162051967Y-111284556D01*
X162052054Y-111284334D01*
X162052219Y-111284161D01*
X162100299Y-111160606D01*
X162117963Y-111115306D01*
X174589100Y-113314147D01*
G36*
X109835643Y-112641758D02*
X109984132Y-112863988D01*
X110206362Y-113012477D01*
X110468500Y-113064620D01*
X110584300Y-113064620D01*
X110584300Y-124495190D01*
X110468500Y-124495190D01*
X110206362Y-124547333D01*
X109984132Y-124695822D01*
X109835643Y-124918052D01*
X109800792Y-125093260D01*
X97136908Y-125093260D01*
X97102057Y-124918052D01*
X96953568Y-124695822D01*
X96731338Y-124547333D01*
X96469200Y-124495190D01*
X96354800Y-124495190D01*
X96354800Y-113064620D01*
X96469200Y-113064620D01*
X96731338Y-113012477D01*
X96953568Y-112863988D01*
X97102057Y-112641758D01*
X97137193Y-112465120D01*
X109800507Y-112465120D01*
X109835643Y-112641758D01*
X109835643Y-112641758D01*
G37*
X109835643Y-112641758D02*
X109984132Y-112863988D01*
X110206362Y-113012477D01*
X110468500Y-113064620D01*
X110584300Y-113064620D01*
X110584300Y-124495190D01*
X110468500Y-124495190D01*
X110206362Y-124547333D01*
X109984132Y-124695822D01*
X109835643Y-124918052D01*
X109800792Y-125093260D01*
X97136908Y-125093260D01*
X97102057Y-124918052D01*
X96953568Y-124695822D01*
X96731338Y-124547333D01*
X96469200Y-124495190D01*
X96354800Y-124495190D01*
X96354800Y-113064620D01*
X96469200Y-113064620D01*
X96731338Y-113012477D01*
X96953568Y-112863988D01*
X97102057Y-112641758D01*
X97137193Y-112465120D01*
X109800507Y-112465120D01*
X109835643Y-112641758D01*
G36*
X128933903Y-110249078D02*
X129082392Y-110471308D01*
X129304622Y-110619797D01*
X129566760Y-110671940D01*
X129682560Y-110671940D01*
X129682560Y-122102510D01*
X129566760Y-122102510D01*
X129304622Y-122154653D01*
X129082392Y-122303142D01*
X128933903Y-122525372D01*
X128899052Y-122700580D01*
X116235168Y-122700580D01*
X116200317Y-122525372D01*
X116051828Y-122303142D01*
X115829598Y-122154653D01*
X115567460Y-122102510D01*
X115453060Y-122102510D01*
X115453060Y-110671940D01*
X115567460Y-110671940D01*
X115829598Y-110619797D01*
X116051828Y-110471308D01*
X116200317Y-110249078D01*
X116235453Y-110072440D01*
X128898767Y-110072440D01*
X128933903Y-110249078D01*
X128933903Y-110249078D01*
G37*
X128933903Y-110249078D02*
X129082392Y-110471308D01*
X129304622Y-110619797D01*
X129566760Y-110671940D01*
X129682560Y-110671940D01*
X129682560Y-122102510D01*
X129566760Y-122102510D01*
X129304622Y-122154653D01*
X129082392Y-122303142D01*
X128933903Y-122525372D01*
X128899052Y-122700580D01*
X116235168Y-122700580D01*
X116200317Y-122525372D01*
X116051828Y-122303142D01*
X115829598Y-122154653D01*
X115567460Y-122102510D01*
X115453060Y-122102510D01*
X115453060Y-110671940D01*
X115567460Y-110671940D01*
X115829598Y-110619797D01*
X116051828Y-110471308D01*
X116200317Y-110249078D01*
X116235453Y-110072440D01*
X128898767Y-110072440D01*
X128933903Y-110249078D01*
G36*
X147938183Y-107871638D02*
X148086672Y-108093868D01*
X148308902Y-108242357D01*
X148571040Y-108294500D01*
X148686840Y-108294500D01*
X148686840Y-119725070D01*
X148571040Y-119725070D01*
X148308902Y-119777213D01*
X148086672Y-119925702D01*
X147938183Y-120147932D01*
X147903332Y-120323140D01*
X135239448Y-120323140D01*
X135204597Y-120147932D01*
X135056108Y-119925702D01*
X134833878Y-119777213D01*
X134571740Y-119725070D01*
X134457340Y-119725070D01*
X134457340Y-108294500D01*
X134571740Y-108294500D01*
X134833878Y-108242357D01*
X135056108Y-108093868D01*
X135204597Y-107871638D01*
X135239733Y-107695000D01*
X147903047Y-107695000D01*
X147938183Y-107871638D01*
X147938183Y-107871638D01*
G37*
X147938183Y-107871638D02*
X148086672Y-108093868D01*
X148308902Y-108242357D01*
X148571040Y-108294500D01*
X148686840Y-108294500D01*
X148686840Y-119725070D01*
X148571040Y-119725070D01*
X148308902Y-119777213D01*
X148086672Y-119925702D01*
X147938183Y-120147932D01*
X147903332Y-120323140D01*
X135239448Y-120323140D01*
X135204597Y-120147932D01*
X135056108Y-119925702D01*
X134833878Y-119777213D01*
X134571740Y-119725070D01*
X134457340Y-119725070D01*
X134457340Y-108294500D01*
X134571740Y-108294500D01*
X134833878Y-108242357D01*
X135056108Y-108093868D01*
X135204597Y-107871638D01*
X135239733Y-107695000D01*
X147903047Y-107695000D01*
X147938183Y-107871638D01*
G36*
X90862043Y-95824418D02*
X91010532Y-96046648D01*
X91232762Y-96195137D01*
X91494900Y-96247280D01*
X91610500Y-96247280D01*
X91610500Y-107677850D01*
X91494900Y-107677850D01*
X91232762Y-107729993D01*
X91010532Y-107878482D01*
X90862043Y-108100712D01*
X90827192Y-108275920D01*
X78163058Y-108275920D01*
X78128207Y-108100712D01*
X77979718Y-107878482D01*
X77757488Y-107729993D01*
X77495350Y-107677850D01*
X77381090Y-107677850D01*
X77381090Y-96247280D01*
X77495350Y-96247280D01*
X77757488Y-96195137D01*
X77979718Y-96046648D01*
X78128207Y-95824418D01*
X78163343Y-95647780D01*
X90826907Y-95647780D01*
X90862043Y-95824418D01*
X90862043Y-95824418D01*
G37*
X90862043Y-95824418D02*
X91010532Y-96046648D01*
X91232762Y-96195137D01*
X91494900Y-96247280D01*
X91610500Y-96247280D01*
X91610500Y-107677850D01*
X91494900Y-107677850D01*
X91232762Y-107729993D01*
X91010532Y-107878482D01*
X90862043Y-108100712D01*
X90827192Y-108275920D01*
X78163058Y-108275920D01*
X78128207Y-108100712D01*
X77979718Y-107878482D01*
X77757488Y-107729993D01*
X77495350Y-107677850D01*
X77381090Y-107677850D01*
X77381090Y-96247280D01*
X77495350Y-96247280D01*
X77757488Y-96195137D01*
X77979718Y-96046648D01*
X78128207Y-95824418D01*
X78163343Y-95647780D01*
X90826907Y-95647780D01*
X90862043Y-95824418D01*
G36*
X109901683Y-93515558D02*
X110050172Y-93737788D01*
X110272402Y-93886277D01*
X110534540Y-93938420D01*
X110650340Y-93938420D01*
X110650340Y-105368990D01*
X110534540Y-105368990D01*
X110272402Y-105421133D01*
X110050172Y-105569622D01*
X109901683Y-105791852D01*
X109866832Y-105967060D01*
X97202948Y-105967060D01*
X97168097Y-105791852D01*
X97019608Y-105569622D01*
X96797378Y-105421133D01*
X96535240Y-105368990D01*
X96420840Y-105368990D01*
X96420840Y-93938420D01*
X96535240Y-93938420D01*
X96797378Y-93886277D01*
X97019608Y-93737788D01*
X97168097Y-93515558D01*
X97203233Y-93338920D01*
X109866547Y-93338920D01*
X109901683Y-93515558D01*
X109901683Y-93515558D01*
G37*
X109901683Y-93515558D02*
X110050172Y-93737788D01*
X110272402Y-93886277D01*
X110534540Y-93938420D01*
X110650340Y-93938420D01*
X110650340Y-105368990D01*
X110534540Y-105368990D01*
X110272402Y-105421133D01*
X110050172Y-105569622D01*
X109901683Y-105791852D01*
X109866832Y-105967060D01*
X97202948Y-105967060D01*
X97168097Y-105791852D01*
X97019608Y-105569622D01*
X96797378Y-105421133D01*
X96535240Y-105368990D01*
X96420840Y-105368990D01*
X96420840Y-93938420D01*
X96535240Y-93938420D01*
X96797378Y-93886277D01*
X97019608Y-93737788D01*
X97168097Y-93515558D01*
X97203233Y-93338920D01*
X109866547Y-93338920D01*
X109901683Y-93515558D01*
G36*
X186101683Y-93472378D02*
X186250172Y-93694608D01*
X186472402Y-93843097D01*
X186734540Y-93895240D01*
X186850340Y-93895240D01*
X186850340Y-105325810D01*
X186734540Y-105325810D01*
X186472402Y-105377953D01*
X186250172Y-105526442D01*
X186101683Y-105748672D01*
X186066832Y-105923880D01*
X173402948Y-105923880D01*
X173368097Y-105748672D01*
X173219608Y-105526442D01*
X172997378Y-105377953D01*
X172735240Y-105325810D01*
X172620840Y-105325810D01*
X172620840Y-93895240D01*
X172735240Y-93895240D01*
X172997378Y-93843097D01*
X173219608Y-93694608D01*
X173368097Y-93472378D01*
X173403233Y-93295740D01*
X186066547Y-93295740D01*
X186101683Y-93472378D01*
X186101683Y-93472378D01*
G37*
X186101683Y-93472378D02*
X186250172Y-93694608D01*
X186472402Y-93843097D01*
X186734540Y-93895240D01*
X186850340Y-93895240D01*
X186850340Y-105325810D01*
X186734540Y-105325810D01*
X186472402Y-105377953D01*
X186250172Y-105526442D01*
X186101683Y-105748672D01*
X186066832Y-105923880D01*
X173402948Y-105923880D01*
X173368097Y-105748672D01*
X173219608Y-105526442D01*
X172997378Y-105377953D01*
X172735240Y-105325810D01*
X172620840Y-105325810D01*
X172620840Y-93895240D01*
X172735240Y-93895240D01*
X172997378Y-93843097D01*
X173219608Y-93694608D01*
X173368097Y-93472378D01*
X173403233Y-93295740D01*
X186066547Y-93295740D01*
X186101683Y-93472378D01*
G36*
X128999943Y-91122878D02*
X129148432Y-91345108D01*
X129370662Y-91493597D01*
X129632800Y-91545740D01*
X129748600Y-91545740D01*
X129748600Y-102976310D01*
X129632800Y-102976310D01*
X129370662Y-103028453D01*
X129148432Y-103176942D01*
X128999943Y-103399172D01*
X128965092Y-103574380D01*
X116301208Y-103574380D01*
X116266357Y-103399172D01*
X116117868Y-103176942D01*
X115895638Y-103028453D01*
X115633500Y-102976310D01*
X115519100Y-102976310D01*
X115519100Y-91545740D01*
X115633500Y-91545740D01*
X115895638Y-91493597D01*
X116117868Y-91345108D01*
X116266357Y-91122878D01*
X116301493Y-90946240D01*
X128964807Y-90946240D01*
X128999943Y-91122878D01*
X128999943Y-91122878D01*
G37*
X128999943Y-91122878D02*
X129148432Y-91345108D01*
X129370662Y-91493597D01*
X129632800Y-91545740D01*
X129748600Y-91545740D01*
X129748600Y-102976310D01*
X129632800Y-102976310D01*
X129370662Y-103028453D01*
X129148432Y-103176942D01*
X128999943Y-103399172D01*
X128965092Y-103574380D01*
X116301208Y-103574380D01*
X116266357Y-103399172D01*
X116117868Y-103176942D01*
X115895638Y-103028453D01*
X115633500Y-102976310D01*
X115519100Y-102976310D01*
X115519100Y-91545740D01*
X115633500Y-91545740D01*
X115895638Y-91493597D01*
X116117868Y-91345108D01*
X116266357Y-91122878D01*
X116301493Y-90946240D01*
X128964807Y-90946240D01*
X128999943Y-91122878D01*
G36*
X166995803Y-91100018D02*
X167144292Y-91322248D01*
X167366522Y-91470737D01*
X167628660Y-91522880D01*
X167744460Y-91522880D01*
X167744460Y-102953450D01*
X167628660Y-102953450D01*
X167366522Y-103005593D01*
X167144292Y-103154082D01*
X166995803Y-103376312D01*
X166960952Y-103551520D01*
X154297068Y-103551520D01*
X154262217Y-103376312D01*
X154113728Y-103154082D01*
X153891498Y-103005593D01*
X153629360Y-102953450D01*
X153514960Y-102953450D01*
X153514960Y-91522880D01*
X153629360Y-91522880D01*
X153891498Y-91470737D01*
X154113728Y-91322248D01*
X154262217Y-91100018D01*
X154297353Y-90923380D01*
X166960667Y-90923380D01*
X166995803Y-91100018D01*
X166995803Y-91100018D01*
G37*
X166995803Y-91100018D02*
X167144292Y-91322248D01*
X167366522Y-91470737D01*
X167628660Y-91522880D01*
X167744460Y-91522880D01*
X167744460Y-102953450D01*
X167628660Y-102953450D01*
X167366522Y-103005593D01*
X167144292Y-103154082D01*
X166995803Y-103376312D01*
X166960952Y-103551520D01*
X154297068Y-103551520D01*
X154262217Y-103376312D01*
X154113728Y-103154082D01*
X153891498Y-103005593D01*
X153629360Y-102953450D01*
X153514960Y-102953450D01*
X153514960Y-91522880D01*
X153629360Y-91522880D01*
X153891498Y-91470737D01*
X154113728Y-91322248D01*
X154262217Y-91100018D01*
X154297353Y-90923380D01*
X166960667Y-90923380D01*
X166995803Y-91100018D01*
G36*
X148004223Y-88745438D02*
X148152712Y-88967668D01*
X148374942Y-89116157D01*
X148637080Y-89168300D01*
X148752880Y-89168300D01*
X148752880Y-100598870D01*
X148637080Y-100598870D01*
X148374942Y-100651013D01*
X148152712Y-100799502D01*
X148004223Y-101021732D01*
X147969372Y-101196940D01*
X135305488Y-101196940D01*
X135270637Y-101021732D01*
X135122148Y-100799502D01*
X134899918Y-100651013D01*
X134637780Y-100598870D01*
X134523380Y-100598870D01*
X134523380Y-89168300D01*
X134637780Y-89168300D01*
X134899918Y-89116157D01*
X135122148Y-88967668D01*
X135270637Y-88745438D01*
X135305773Y-88568800D01*
X147969087Y-88568800D01*
X148004223Y-88745438D01*
X148004223Y-88745438D01*
G37*
X148004223Y-88745438D02*
X148152712Y-88967668D01*
X148374942Y-89116157D01*
X148637080Y-89168300D01*
X148752880Y-89168300D01*
X148752880Y-100598870D01*
X148637080Y-100598870D01*
X148374942Y-100651013D01*
X148152712Y-100799502D01*
X148004223Y-101021732D01*
X147969372Y-101196940D01*
X135305488Y-101196940D01*
X135270637Y-101021732D01*
X135122148Y-100799502D01*
X134899918Y-100651013D01*
X134637780Y-100598870D01*
X134523380Y-100598870D01*
X134523380Y-89168300D01*
X134637780Y-89168300D01*
X134899918Y-89116157D01*
X135122148Y-88967668D01*
X135270637Y-88745438D01*
X135305773Y-88568800D01*
X147969087Y-88568800D01*
X148004223Y-88745438D01*
G36*
X205118663Y-79238218D02*
X205267152Y-79460448D01*
X205489382Y-79608937D01*
X205751520Y-79661080D01*
X205867320Y-79661080D01*
X205867320Y-91091650D01*
X205751520Y-91091650D01*
X205489382Y-91143793D01*
X205267152Y-91292282D01*
X205118663Y-91514512D01*
X205083812Y-91689720D01*
X192419928Y-91689720D01*
X192385077Y-91514512D01*
X192236588Y-91292282D01*
X192014358Y-91143793D01*
X191752220Y-91091650D01*
X191637820Y-91091650D01*
X191637820Y-79661080D01*
X191752220Y-79661080D01*
X192014358Y-79608937D01*
X192236588Y-79460448D01*
X192385077Y-79238218D01*
X192420213Y-79061580D01*
X205083527Y-79061580D01*
X205118663Y-79238218D01*
X205118663Y-79238218D01*
G37*
X205118663Y-79238218D02*
X205267152Y-79460448D01*
X205489382Y-79608937D01*
X205751520Y-79661080D01*
X205867320Y-79661080D01*
X205867320Y-91091650D01*
X205751520Y-91091650D01*
X205489382Y-91143793D01*
X205267152Y-91292282D01*
X205118663Y-91514512D01*
X205083812Y-91689720D01*
X192419928Y-91689720D01*
X192385077Y-91514512D01*
X192236588Y-91292282D01*
X192014358Y-91143793D01*
X191752220Y-91091650D01*
X191637820Y-91091650D01*
X191637820Y-79661080D01*
X191752220Y-79661080D01*
X192014358Y-79608937D01*
X192236588Y-79460448D01*
X192385077Y-79238218D01*
X192420213Y-79061580D01*
X205083527Y-79061580D01*
X205118663Y-79238218D01*
G36*
X90869663Y-76901418D02*
X91018152Y-77123648D01*
X91240382Y-77272137D01*
X91502520Y-77324280D01*
X91618120Y-77324280D01*
X91618120Y-88754850D01*
X91502520Y-88754850D01*
X91240382Y-88806993D01*
X91018152Y-88955482D01*
X90869663Y-89177712D01*
X90834812Y-89352920D01*
X78170678Y-89352920D01*
X78135827Y-89177712D01*
X77987338Y-88955482D01*
X77765108Y-88806993D01*
X77502970Y-88754850D01*
X77388710Y-88754850D01*
X77388710Y-77324280D01*
X77502970Y-77324280D01*
X77765108Y-77272137D01*
X77987338Y-77123648D01*
X78135827Y-76901418D01*
X78170963Y-76724780D01*
X90834527Y-76724780D01*
X90869663Y-76901418D01*
X90869663Y-76901418D01*
G37*
X90869663Y-76901418D02*
X91018152Y-77123648D01*
X91240382Y-77272137D01*
X91502520Y-77324280D01*
X91618120Y-77324280D01*
X91618120Y-88754850D01*
X91502520Y-88754850D01*
X91240382Y-88806993D01*
X91018152Y-88955482D01*
X90869663Y-89177712D01*
X90834812Y-89352920D01*
X78170678Y-89352920D01*
X78135827Y-89177712D01*
X77987338Y-88955482D01*
X77765108Y-88806993D01*
X77502970Y-88754850D01*
X77388710Y-88754850D01*
X77388710Y-77324280D01*
X77502970Y-77324280D01*
X77765108Y-77272137D01*
X77987338Y-77123648D01*
X78135827Y-76901418D01*
X78170963Y-76724780D01*
X90834527Y-76724780D01*
X90869663Y-76901418D01*
G36*
X109909303Y-74592558D02*
X110057792Y-74814788D01*
X110280022Y-74963277D01*
X110542160Y-75015420D01*
X110657960Y-75015420D01*
X110657960Y-86445990D01*
X110542160Y-86445990D01*
X110280022Y-86498133D01*
X110057792Y-86646622D01*
X109909303Y-86868852D01*
X109874452Y-87044060D01*
X97210568Y-87044060D01*
X97175717Y-86868852D01*
X97027228Y-86646622D01*
X96804998Y-86498133D01*
X96542860Y-86445990D01*
X96428460Y-86445990D01*
X96428460Y-75015420D01*
X96542860Y-75015420D01*
X96804998Y-74963277D01*
X97027228Y-74814788D01*
X97175717Y-74592558D01*
X97210853Y-74415920D01*
X109874167Y-74415920D01*
X109909303Y-74592558D01*
X109909303Y-74592558D01*
G37*
X109909303Y-74592558D02*
X110057792Y-74814788D01*
X110280022Y-74963277D01*
X110542160Y-75015420D01*
X110657960Y-75015420D01*
X110657960Y-86445990D01*
X110542160Y-86445990D01*
X110280022Y-86498133D01*
X110057792Y-86646622D01*
X109909303Y-86868852D01*
X109874452Y-87044060D01*
X97210568Y-87044060D01*
X97175717Y-86868852D01*
X97027228Y-86646622D01*
X96804998Y-86498133D01*
X96542860Y-86445990D01*
X96428460Y-86445990D01*
X96428460Y-75015420D01*
X96542860Y-75015420D01*
X96804998Y-74963277D01*
X97027228Y-74814788D01*
X97175717Y-74592558D01*
X97210853Y-74415920D01*
X109874167Y-74415920D01*
X109909303Y-74592558D01*
G36*
X186109303Y-74549378D02*
X186257792Y-74771608D01*
X186480022Y-74920097D01*
X186742160Y-74972240D01*
X186857960Y-74972240D01*
X186857960Y-86402810D01*
X186742160Y-86402810D01*
X186480022Y-86454953D01*
X186257792Y-86603442D01*
X186109303Y-86825672D01*
X186074452Y-87000880D01*
X173410568Y-87000880D01*
X173375717Y-86825672D01*
X173227228Y-86603442D01*
X173004998Y-86454953D01*
X172742860Y-86402810D01*
X172628460Y-86402810D01*
X172628460Y-74972240D01*
X172742860Y-74972240D01*
X173004998Y-74920097D01*
X173227228Y-74771608D01*
X173375717Y-74549378D01*
X173410853Y-74372740D01*
X186074167Y-74372740D01*
X186109303Y-74549378D01*
X186109303Y-74549378D01*
G37*
X186109303Y-74549378D02*
X186257792Y-74771608D01*
X186480022Y-74920097D01*
X186742160Y-74972240D01*
X186857960Y-74972240D01*
X186857960Y-86402810D01*
X186742160Y-86402810D01*
X186480022Y-86454953D01*
X186257792Y-86603442D01*
X186109303Y-86825672D01*
X186074452Y-87000880D01*
X173410568Y-87000880D01*
X173375717Y-86825672D01*
X173227228Y-86603442D01*
X173004998Y-86454953D01*
X172742860Y-86402810D01*
X172628460Y-86402810D01*
X172628460Y-74972240D01*
X172742860Y-74972240D01*
X173004998Y-74920097D01*
X173227228Y-74771608D01*
X173375717Y-74549378D01*
X173410853Y-74372740D01*
X186074167Y-74372740D01*
X186109303Y-74549378D01*
G36*
X129007563Y-72199878D02*
X129156052Y-72422108D01*
X129378282Y-72570597D01*
X129640420Y-72622740D01*
X129756220Y-72622740D01*
X129756220Y-84053310D01*
X129640420Y-84053310D01*
X129378282Y-84105453D01*
X129156052Y-84253942D01*
X129007563Y-84476172D01*
X128972712Y-84651380D01*
X116308828Y-84651380D01*
X116273977Y-84476172D01*
X116125488Y-84253942D01*
X115903258Y-84105453D01*
X115641120Y-84053310D01*
X115526720Y-84053310D01*
X115526720Y-72622740D01*
X115641120Y-72622740D01*
X115903258Y-72570597D01*
X116125488Y-72422108D01*
X116273977Y-72199878D01*
X116309113Y-72023240D01*
X128972427Y-72023240D01*
X129007563Y-72199878D01*
X129007563Y-72199878D01*
G37*
X129007563Y-72199878D02*
X129156052Y-72422108D01*
X129378282Y-72570597D01*
X129640420Y-72622740D01*
X129756220Y-72622740D01*
X129756220Y-84053310D01*
X129640420Y-84053310D01*
X129378282Y-84105453D01*
X129156052Y-84253942D01*
X129007563Y-84476172D01*
X128972712Y-84651380D01*
X116308828Y-84651380D01*
X116273977Y-84476172D01*
X116125488Y-84253942D01*
X115903258Y-84105453D01*
X115641120Y-84053310D01*
X115526720Y-84053310D01*
X115526720Y-72622740D01*
X115641120Y-72622740D01*
X115903258Y-72570597D01*
X116125488Y-72422108D01*
X116273977Y-72199878D01*
X116309113Y-72023240D01*
X128972427Y-72023240D01*
X129007563Y-72199878D01*
G36*
X167003423Y-72177018D02*
X167151912Y-72399248D01*
X167374142Y-72547737D01*
X167636280Y-72599880D01*
X167752080Y-72599880D01*
X167752080Y-84030450D01*
X167636280Y-84030450D01*
X167374142Y-84082593D01*
X167151912Y-84231082D01*
X167003423Y-84453312D01*
X166968572Y-84628520D01*
X154304688Y-84628520D01*
X154269837Y-84453312D01*
X154121348Y-84231082D01*
X153899118Y-84082593D01*
X153636980Y-84030450D01*
X153522580Y-84030450D01*
X153522580Y-72599880D01*
X153636980Y-72599880D01*
X153899118Y-72547737D01*
X154121348Y-72399248D01*
X154269837Y-72177018D01*
X154304973Y-72000380D01*
X166968287Y-72000380D01*
X167003423Y-72177018D01*
X167003423Y-72177018D01*
G37*
X167003423Y-72177018D02*
X167151912Y-72399248D01*
X167374142Y-72547737D01*
X167636280Y-72599880D01*
X167752080Y-72599880D01*
X167752080Y-84030450D01*
X167636280Y-84030450D01*
X167374142Y-84082593D01*
X167151912Y-84231082D01*
X167003423Y-84453312D01*
X166968572Y-84628520D01*
X154304688Y-84628520D01*
X154269837Y-84453312D01*
X154121348Y-84231082D01*
X153899118Y-84082593D01*
X153636980Y-84030450D01*
X153522580Y-84030450D01*
X153522580Y-72599880D01*
X153636980Y-72599880D01*
X153899118Y-72547737D01*
X154121348Y-72399248D01*
X154269837Y-72177018D01*
X154304973Y-72000380D01*
X166968287Y-72000380D01*
X167003423Y-72177018D01*
G36*
X148011843Y-69822438D02*
X148160332Y-70044668D01*
X148382562Y-70193157D01*
X148644700Y-70245300D01*
X148760500Y-70245300D01*
X148760500Y-81675870D01*
X148644700Y-81675870D01*
X148382562Y-81728013D01*
X148160332Y-81876502D01*
X148011843Y-82098732D01*
X147976992Y-82273940D01*
X135313108Y-82273940D01*
X135278257Y-82098732D01*
X135129768Y-81876502D01*
X134907538Y-81728013D01*
X134645400Y-81675870D01*
X134531000Y-81675870D01*
X134531000Y-70245300D01*
X134645400Y-70245300D01*
X134907538Y-70193157D01*
X135129768Y-70044668D01*
X135278257Y-69822438D01*
X135313393Y-69645800D01*
X147976707Y-69645800D01*
X148011843Y-69822438D01*
X148011843Y-69822438D01*
G37*
X148011843Y-69822438D02*
X148160332Y-70044668D01*
X148382562Y-70193157D01*
X148644700Y-70245300D01*
X148760500Y-70245300D01*
X148760500Y-81675870D01*
X148644700Y-81675870D01*
X148382562Y-81728013D01*
X148160332Y-81876502D01*
X148011843Y-82098732D01*
X147976992Y-82273940D01*
X135313108Y-82273940D01*
X135278257Y-82098732D01*
X135129768Y-81876502D01*
X134907538Y-81728013D01*
X134645400Y-81675870D01*
X134531000Y-81675870D01*
X134531000Y-70245300D01*
X134645400Y-70245300D01*
X134907538Y-70193157D01*
X135129768Y-70044668D01*
X135278257Y-69822438D01*
X135313393Y-69645800D01*
X147976707Y-69645800D01*
X148011843Y-69822438D01*
G36*
X205001823Y-60015498D02*
X205150312Y-60237728D01*
X205372542Y-60386217D01*
X205634680Y-60438360D01*
X205750480Y-60438360D01*
X205750480Y-71868930D01*
X205634680Y-71868930D01*
X205372542Y-71921073D01*
X205150312Y-72069562D01*
X205001823Y-72291792D01*
X204966972Y-72467000D01*
X192303088Y-72467000D01*
X192268237Y-72291792D01*
X192119748Y-72069562D01*
X191897518Y-71921073D01*
X191635380Y-71868930D01*
X191520980Y-71868930D01*
X191520980Y-60438360D01*
X191635380Y-60438360D01*
X191897518Y-60386217D01*
X192119748Y-60237728D01*
X192268237Y-60015498D01*
X192303373Y-59838860D01*
X204966687Y-59838860D01*
X205001823Y-60015498D01*
X205001823Y-60015498D01*
G37*
X205001823Y-60015498D02*
X205150312Y-60237728D01*
X205372542Y-60386217D01*
X205634680Y-60438360D01*
X205750480Y-60438360D01*
X205750480Y-71868930D01*
X205634680Y-71868930D01*
X205372542Y-71921073D01*
X205150312Y-72069562D01*
X205001823Y-72291792D01*
X204966972Y-72467000D01*
X192303088Y-72467000D01*
X192268237Y-72291792D01*
X192119748Y-72069562D01*
X191897518Y-71921073D01*
X191635380Y-71868930D01*
X191520980Y-71868930D01*
X191520980Y-60438360D01*
X191635380Y-60438360D01*
X191897518Y-60386217D01*
X192119748Y-60237728D01*
X192268237Y-60015498D01*
X192303373Y-59838860D01*
X204966687Y-59838860D01*
X205001823Y-60015498D01*
G36*
X90752823Y-57678698D02*
X90901312Y-57900928D01*
X91123542Y-58049417D01*
X91385680Y-58101560D01*
X91501280Y-58101560D01*
X91501280Y-69532130D01*
X91385680Y-69532130D01*
X91123542Y-69584273D01*
X90901312Y-69732762D01*
X90752823Y-69954992D01*
X90717972Y-70130200D01*
X78053838Y-70130200D01*
X78018987Y-69954992D01*
X77870498Y-69732762D01*
X77648268Y-69584273D01*
X77386130Y-69532130D01*
X77271870Y-69532130D01*
X77271870Y-58101560D01*
X77386130Y-58101560D01*
X77648268Y-58049417D01*
X77870498Y-57900928D01*
X78018987Y-57678698D01*
X78054123Y-57502060D01*
X90717687Y-57502060D01*
X90752823Y-57678698D01*
X90752823Y-57678698D01*
G37*
X90752823Y-57678698D02*
X90901312Y-57900928D01*
X91123542Y-58049417D01*
X91385680Y-58101560D01*
X91501280Y-58101560D01*
X91501280Y-69532130D01*
X91385680Y-69532130D01*
X91123542Y-69584273D01*
X90901312Y-69732762D01*
X90752823Y-69954992D01*
X90717972Y-70130200D01*
X78053838Y-70130200D01*
X78018987Y-69954992D01*
X77870498Y-69732762D01*
X77648268Y-69584273D01*
X77386130Y-69532130D01*
X77271870Y-69532130D01*
X77271870Y-58101560D01*
X77386130Y-58101560D01*
X77648268Y-58049417D01*
X77870498Y-57900928D01*
X78018987Y-57678698D01*
X78054123Y-57502060D01*
X90717687Y-57502060D01*
X90752823Y-57678698D01*
G36*
X109792463Y-55369838D02*
X109940952Y-55592068D01*
X110163182Y-55740557D01*
X110425320Y-55792700D01*
X110541120Y-55792700D01*
X110541120Y-67223270D01*
X110425320Y-67223270D01*
X110163182Y-67275413D01*
X109940952Y-67423902D01*
X109792463Y-67646132D01*
X109757612Y-67821340D01*
X97093728Y-67821340D01*
X97058877Y-67646132D01*
X96910388Y-67423902D01*
X96688158Y-67275413D01*
X96426020Y-67223270D01*
X96311620Y-67223270D01*
X96311620Y-55792700D01*
X96426020Y-55792700D01*
X96688158Y-55740557D01*
X96910388Y-55592068D01*
X97058877Y-55369838D01*
X97094013Y-55193200D01*
X109757327Y-55193200D01*
X109792463Y-55369838D01*
X109792463Y-55369838D01*
G37*
X109792463Y-55369838D02*
X109940952Y-55592068D01*
X110163182Y-55740557D01*
X110425320Y-55792700D01*
X110541120Y-55792700D01*
X110541120Y-67223270D01*
X110425320Y-67223270D01*
X110163182Y-67275413D01*
X109940952Y-67423902D01*
X109792463Y-67646132D01*
X109757612Y-67821340D01*
X97093728Y-67821340D01*
X97058877Y-67646132D01*
X96910388Y-67423902D01*
X96688158Y-67275413D01*
X96426020Y-67223270D01*
X96311620Y-67223270D01*
X96311620Y-55792700D01*
X96426020Y-55792700D01*
X96688158Y-55740557D01*
X96910388Y-55592068D01*
X97058877Y-55369838D01*
X97094013Y-55193200D01*
X109757327Y-55193200D01*
X109792463Y-55369838D01*
G36*
X185992463Y-55326658D02*
X186140952Y-55548888D01*
X186363182Y-55697377D01*
X186625320Y-55749520D01*
X186741120Y-55749520D01*
X186741120Y-67180090D01*
X186625320Y-67180090D01*
X186363182Y-67232233D01*
X186140952Y-67380722D01*
X185992463Y-67602952D01*
X185957612Y-67778160D01*
X173293728Y-67778160D01*
X173258877Y-67602952D01*
X173110388Y-67380722D01*
X172888158Y-67232233D01*
X172626020Y-67180090D01*
X172511620Y-67180090D01*
X172511620Y-55749520D01*
X172626020Y-55749520D01*
X172888158Y-55697377D01*
X173110388Y-55548888D01*
X173258877Y-55326658D01*
X173294013Y-55150020D01*
X185957327Y-55150020D01*
X185992463Y-55326658D01*
X185992463Y-55326658D01*
G37*
X185992463Y-55326658D02*
X186140952Y-55548888D01*
X186363182Y-55697377D01*
X186625320Y-55749520D01*
X186741120Y-55749520D01*
X186741120Y-67180090D01*
X186625320Y-67180090D01*
X186363182Y-67232233D01*
X186140952Y-67380722D01*
X185992463Y-67602952D01*
X185957612Y-67778160D01*
X173293728Y-67778160D01*
X173258877Y-67602952D01*
X173110388Y-67380722D01*
X172888158Y-67232233D01*
X172626020Y-67180090D01*
X172511620Y-67180090D01*
X172511620Y-55749520D01*
X172626020Y-55749520D01*
X172888158Y-55697377D01*
X173110388Y-55548888D01*
X173258877Y-55326658D01*
X173294013Y-55150020D01*
X185957327Y-55150020D01*
X185992463Y-55326658D01*
G36*
X128890723Y-52977158D02*
X129039212Y-53199388D01*
X129261442Y-53347877D01*
X129523580Y-53400020D01*
X129639380Y-53400020D01*
X129639380Y-64830590D01*
X129523580Y-64830590D01*
X129261442Y-64882733D01*
X129039212Y-65031222D01*
X128890723Y-65253452D01*
X128855872Y-65428660D01*
X116191988Y-65428660D01*
X116157137Y-65253452D01*
X116008648Y-65031222D01*
X115786418Y-64882733D01*
X115524280Y-64830590D01*
X115409880Y-64830590D01*
X115409880Y-53400020D01*
X115524280Y-53400020D01*
X115786418Y-53347877D01*
X116008648Y-53199388D01*
X116157137Y-52977158D01*
X116192273Y-52800520D01*
X128855587Y-52800520D01*
X128890723Y-52977158D01*
X128890723Y-52977158D01*
G37*
X128890723Y-52977158D02*
X129039212Y-53199388D01*
X129261442Y-53347877D01*
X129523580Y-53400020D01*
X129639380Y-53400020D01*
X129639380Y-64830590D01*
X129523580Y-64830590D01*
X129261442Y-64882733D01*
X129039212Y-65031222D01*
X128890723Y-65253452D01*
X128855872Y-65428660D01*
X116191988Y-65428660D01*
X116157137Y-65253452D01*
X116008648Y-65031222D01*
X115786418Y-64882733D01*
X115524280Y-64830590D01*
X115409880Y-64830590D01*
X115409880Y-53400020D01*
X115524280Y-53400020D01*
X115786418Y-53347877D01*
X116008648Y-53199388D01*
X116157137Y-52977158D01*
X116192273Y-52800520D01*
X128855587Y-52800520D01*
X128890723Y-52977158D01*
G36*
X166886583Y-52954298D02*
X167035072Y-53176528D01*
X167257302Y-53325017D01*
X167519440Y-53377160D01*
X167635240Y-53377160D01*
X167635240Y-64807730D01*
X167519440Y-64807730D01*
X167257302Y-64859873D01*
X167035072Y-65008362D01*
X166886583Y-65230592D01*
X166851732Y-65405800D01*
X154187848Y-65405800D01*
X154152997Y-65230592D01*
X154004508Y-65008362D01*
X153782278Y-64859873D01*
X153520140Y-64807730D01*
X153405740Y-64807730D01*
X153405740Y-53377160D01*
X153520140Y-53377160D01*
X153782278Y-53325017D01*
X154004508Y-53176528D01*
X154152997Y-52954298D01*
X154188133Y-52777660D01*
X166851447Y-52777660D01*
X166886583Y-52954298D01*
X166886583Y-52954298D01*
G37*
X166886583Y-52954298D02*
X167035072Y-53176528D01*
X167257302Y-53325017D01*
X167519440Y-53377160D01*
X167635240Y-53377160D01*
X167635240Y-64807730D01*
X167519440Y-64807730D01*
X167257302Y-64859873D01*
X167035072Y-65008362D01*
X166886583Y-65230592D01*
X166851732Y-65405800D01*
X154187848Y-65405800D01*
X154152997Y-65230592D01*
X154004508Y-65008362D01*
X153782278Y-64859873D01*
X153520140Y-64807730D01*
X153405740Y-64807730D01*
X153405740Y-53377160D01*
X153520140Y-53377160D01*
X153782278Y-53325017D01*
X154004508Y-53176528D01*
X154152997Y-52954298D01*
X154188133Y-52777660D01*
X166851447Y-52777660D01*
X166886583Y-52954298D01*
G36*
X147895003Y-50599718D02*
X148043492Y-50821948D01*
X148265722Y-50970437D01*
X148527860Y-51022580D01*
X148643660Y-51022580D01*
X148643660Y-62453150D01*
X148527860Y-62453150D01*
X148265722Y-62505293D01*
X148043492Y-62653782D01*
X147895003Y-62876012D01*
X147860152Y-63051220D01*
X135196268Y-63051220D01*
X135161417Y-62876012D01*
X135012928Y-62653782D01*
X134790698Y-62505293D01*
X134528560Y-62453150D01*
X134414160Y-62453150D01*
X134414160Y-51022580D01*
X134528560Y-51022580D01*
X134790698Y-50970437D01*
X135012928Y-50821948D01*
X135161417Y-50599718D01*
X135196553Y-50423080D01*
X147859867Y-50423080D01*
X147895003Y-50599718D01*
X147895003Y-50599718D01*
G37*
X147895003Y-50599718D02*
X148043492Y-50821948D01*
X148265722Y-50970437D01*
X148527860Y-51022580D01*
X148643660Y-51022580D01*
X148643660Y-62453150D01*
X148527860Y-62453150D01*
X148265722Y-62505293D01*
X148043492Y-62653782D01*
X147895003Y-62876012D01*
X147860152Y-63051220D01*
X135196268Y-63051220D01*
X135161417Y-62876012D01*
X135012928Y-62653782D01*
X134790698Y-62505293D01*
X134528560Y-62453150D01*
X134414160Y-62453150D01*
X134414160Y-51022580D01*
X134528560Y-51022580D01*
X134790698Y-50970437D01*
X135012928Y-50821948D01*
X135161417Y-50599718D01*
X135196553Y-50423080D01*
X147859867Y-50423080D01*
X147895003Y-50599718D01*
M02*
