  0
SECTION
  2
HEADER
  9
$ANGBASE
  50
0.0
  9
$ANGDIR
  70
  1
  9
$MEASUREMENT
  70
0
  0
ENDSEC
  0
SECTION
  2
TABLES
  0
TABLE
  2
LTYPE
  70
1
  0
LTYPE
  2
CONTINUOUS
  70
0
  3
Solid line
  72
65
  73
0
  40
0.0
  0
ENDTAB
  0
TABLE
  2
STYLE
  70
4
  0
STYLE
  2
KICAD
  70
0
  40
0
  41
1
  42
1
  50
0
  71
0
  3
isocp.shx
  0
STYLE
  2
KICADB
  70
0
  40
0
  41
1
  42
1
  50
0
  71
0
  3
isocp.shx
  0
STYLE
  2
KICADI
  70
0
  40
0
  41
1
  42
1
  50
15
  71
0
  3
isocp.shx
  0
STYLE
  2
KICADBI
  70
0
  40
0
  41
1
  42
1
  50
15
  71
0
  3
isocp.shx
  0
ENDTAB
  0
TABLE
  2
LAYER
  70
30
  0
LAYER
  2
BLACK
  70
0
  62
7
  6
CONTINUOUS
  0
LAYER
  2
GRAY1
  70
0
  62
251
  6
CONTINUOUS
  0
LAYER
  2
GRAY2
  70
0
  62
8
  6
CONTINUOUS
  0
LAYER
  2
GRAY3
  70
0
  62
9
  6
CONTINUOUS
  0
LAYER
  2
WHITE
  70
0
  62
7
  6
CONTINUOUS
  0
LAYER
  2
LYELLOW
  70
0
  62
51
  6
CONTINUOUS
  0
LAYER
  2
BLUE1
  70
0
  62
178
  6
CONTINUOUS
  0
LAYER
  2
GREEN1
  70
0
  62
98
  6
CONTINUOUS
  0
LAYER
  2
CYAN1
  70
0
  62
138
  6
CONTINUOUS
  0
LAYER
  2
RED1
  70
0
  62
18
  6
CONTINUOUS
  0
LAYER
  2
MAGENTA1
  70
0
  62
228
  6
CONTINUOUS
  0
LAYER
  2
BROWN1
  70
0
  62
58
  6
CONTINUOUS
  0
LAYER
  2
BLUE2
  70
0
  62
5
  6
CONTINUOUS
  0
LAYER
  2
GREEN2
  70
0
  62
3
  6
CONTINUOUS
  0
LAYER
  2
CYAN2
  70
0
  62
4
  6
CONTINUOUS
  0
LAYER
  2
RED2
  70
0
  62
1
  6
CONTINUOUS
  0
LAYER
  2
MAGENTA2
  70
0
  62
6
  6
CONTINUOUS
  0
LAYER
  2
BROWN2
  70
0
  62
54
  6
CONTINUOUS
  0
LAYER
  2
BLUE3
  70
0
  62
171
  6
CONTINUOUS
  0
LAYER
  2
GREEN3
  70
0
  62
91
  6
CONTINUOUS
  0
LAYER
  2
CYAN3
  70
0
  62
131
  6
CONTINUOUS
  0
LAYER
  2
RED3
  70
0
  62
11
  6
CONTINUOUS
  0
LAYER
  2
MAGENTA3
  70
0
  62
221
  6
CONTINUOUS
  0
LAYER
  2
YELLOW3
  70
0
  62
2
  6
CONTINUOUS
  0
LAYER
  2
BLUE4
  70
0
  62
5
  6
CONTINUOUS
  0
LAYER
  2
GREEN4
  70
0
  62
3
  6
CONTINUOUS
  0
LAYER
  2
CYAN4
  70
0
  62
4
  6
CONTINUOUS
  0
LAYER
  2
RED4
  70
0
  62
1
  6
CONTINUOUS
  0
LAYER
  2
MAGENTA4
  70
0
  62
6
  6
CONTINUOUS
  0
LAYER
  2
YELLOW4
  70
0
  62
2
  6
CONTINUOUS
  0
ENDTAB
  0
ENDSEC
  0
SECTION
  2
ENTITIES
0
LINE
8
Black
10
192.783
20
-140.567
11
193.115
21
-140.759
0
LINE
8
Black
10
193.115
20
-140.759
11
193.361
21
-141.053
0
LINE
8
Black
10
193.361
20
-141.053
11
193.492
21
-141.413
0
LINE
8
Black
10
193.492
20
-141.413
11
193.492
21
-141.797
0
LINE
8
Black
10
193.492
20
-141.797
11
193.361
21
-142.157
0
LINE
8
Black
10
193.361
20
-142.157
11
193.115
21
-142.451
0
LINE
8
Black
10
193.115
20
-142.451
11
192.783
21
-142.643
0
LINE
8
Black
10
192.783
20
-142.643
11
192.405
21
-142.709
0
LINE
8
Black
10
192.405
20
-142.709
11
192.027
21
-142.643
0
LINE
8
Black
10
192.027
20
-142.643
11
191.695
21
-142.451
0
LINE
8
Black
10
191.695
20
-142.451
11
191.449
21
-142.157
0
LINE
8
Black
10
191.449
20
-142.157
11
191.318
21
-141.797
0
LINE
8
Black
10
191.318
20
-141.797
11
191.318
21
-141.413
0
LINE
8
Black
10
191.318
20
-141.413
11
191.449
21
-141.053
0
LINE
8
Black
10
191.449
20
-141.053
11
191.695
21
-140.759
0
LINE
8
Black
10
191.695
20
-140.759
11
192.027
21
-140.567
0
LINE
8
Black
10
192.027
20
-140.567
11
192.405
21
-140.501
0
LINE
8
Black
10
192.405
20
-140.501
11
192.783
21
-140.567
0
LINE
8
Black
10
72.7677
20
-131.677
11
73.0998
21
-131.869
0
LINE
8
Black
10
73.0998
20
-131.869
11
73.3463
21
-132.163
0
LINE
8
Black
10
73.3463
20
-132.163
11
73.4774
21
-132.523
0
LINE
8
Black
10
73.4774
20
-132.523
11
73.4774
21
-132.907
0
LINE
8
Black
10
73.4774
20
-132.907
11
73.3463
21
-133.267
0
LINE
8
Black
10
73.3463
20
-133.267
11
73.0998
21
-133.561
0
LINE
8
Black
10
73.0998
20
-133.561
11
72.7677
21
-133.753
0
LINE
8
Black
10
72.7677
20
-133.753
11
72.39
21
-133.819
0
LINE
8
Black
10
72.39
20
-133.819
11
72.0123
21
-133.753
0
LINE
8
Black
10
72.0123
20
-133.753
11
71.6802
21
-133.561
0
LINE
8
Black
10
71.6802
20
-133.561
11
71.4337
21
-133.267
0
LINE
8
Black
10
71.4337
20
-133.267
11
71.3026
21
-132.907
0
LINE
8
Black
10
71.3026
20
-132.907
11
71.3026
21
-132.523
0
LINE
8
Black
10
71.3026
20
-132.523
11
71.4337
21
-132.163
0
LINE
8
Black
10
71.4337
20
-132.163
11
71.6802
21
-131.869
0
LINE
8
Black
10
71.6802
20
-131.869
11
72.0123
21
-131.677
0
LINE
8
Black
10
72.0123
20
-131.677
11
72.39
21
-131.611
0
LINE
8
Black
10
72.39
20
-131.611
11
72.7677
21
-131.677
0
LINE
8
Black
10
132.458
20
-131.677
11
132.79
21
-131.869
0
LINE
8
Black
10
132.79
20
-131.869
11
133.036
21
-132.163
0
LINE
8
Black
10
133.036
20
-132.163
11
133.167
21
-132.523
0
LINE
8
Black
10
133.167
20
-132.523
11
133.167
21
-132.907
0
LINE
8
Black
10
133.167
20
-132.907
11
133.036
21
-133.267
0
LINE
8
Black
10
133.036
20
-133.267
11
132.79
21
-133.561
0
LINE
8
Black
10
132.79
20
-133.561
11
132.458
21
-133.753
0
LINE
8
Black
10
132.458
20
-133.753
11
132.08
21
-133.819
0
LINE
8
Black
10
132.08
20
-133.819
11
131.702
21
-133.753
0
LINE
8
Black
10
131.702
20
-133.753
11
131.37
21
-133.561
0
LINE
8
Black
10
131.37
20
-133.561
11
131.124
21
-133.267
0
LINE
8
Black
10
131.124
20
-133.267
11
130.993
21
-132.907
0
LINE
8
Black
10
130.993
20
-132.907
11
130.993
21
-132.523
0
LINE
8
Black
10
130.993
20
-132.523
11
131.124
21
-132.163
0
LINE
8
Black
10
131.124
20
-132.163
11
131.37
21
-131.869
0
LINE
8
Black
10
131.37
20
-131.869
11
131.702
21
-131.677
0
LINE
8
Black
10
131.702
20
-131.677
11
132.08
21
-131.611
0
LINE
8
Black
10
132.08
20
-131.611
11
132.458
21
-131.677
0
LINE
8
Black
10
215.643
20
-102.467
11
215.975
21
-102.659
0
LINE
8
Black
10
215.975
20
-102.659
11
216.221
21
-102.953
0
LINE
8
Black
10
216.221
20
-102.953
11
216.352
21
-103.313
0
LINE
8
Black
10
216.352
20
-103.313
11
216.352
21
-103.697
0
LINE
8
Black
10
216.352
20
-103.697
11
216.221
21
-104.057
0
LINE
8
Black
10
216.221
20
-104.057
11
215.975
21
-104.351
0
LINE
8
Black
10
215.975
20
-104.351
11
215.643
21
-104.543
0
LINE
8
Black
10
215.643
20
-104.543
11
215.265
21
-104.609
0
LINE
8
Black
10
215.265
20
-104.609
11
214.887
21
-104.543
0
LINE
8
Black
10
214.887
20
-104.543
11
214.555
21
-104.351
0
LINE
8
Black
10
214.555
20
-104.351
11
214.309
21
-104.057
0
LINE
8
Black
10
214.309
20
-104.057
11
214.178
21
-103.697
0
LINE
8
Black
10
214.178
20
-103.697
11
214.178
21
-103.313
0
LINE
8
Black
10
214.178
20
-103.313
11
214.309
21
-102.953
0
LINE
8
Black
10
214.309
20
-102.953
11
214.555
21
-102.659
0
LINE
8
Black
10
214.555
20
-102.659
11
214.887
21
-102.467
0
LINE
8
Black
10
214.887
20
-102.467
11
215.265
21
-102.401
0
LINE
8
Black
10
215.265
20
-102.401
11
215.643
21
-102.467
0
LINE
8
Black
10
72.7677
20
-91.6724
11
73.0998
21
-91.8641
0
LINE
8
Black
10
73.0998
20
-91.8641
11
73.3463
21
-92.1579
0
LINE
8
Black
10
73.3463
20
-92.1579
11
73.4774
21
-92.5183
0
LINE
8
Black
10
73.4774
20
-92.5183
11
73.4774
21
-92.9017
0
LINE
8
Black
10
73.4774
20
-92.9017
11
73.3463
21
-93.2621
0
LINE
8
Black
10
73.3463
20
-93.2621
11
73.0998
21
-93.5559
0
LINE
8
Black
10
73.0998
20
-93.5559
11
72.7677
21
-93.7476
0
LINE
8
Black
10
72.7677
20
-93.7476
11
72.39
21
-93.8142
0
LINE
8
Black
10
72.39
20
-93.8142
11
72.0123
21
-93.7476
0
LINE
8
Black
10
72.0123
20
-93.7476
11
71.6802
21
-93.5559
0
LINE
8
Black
10
71.6802
20
-93.5559
11
71.4337
21
-93.2621
0
LINE
8
Black
10
71.4337
20
-93.2621
11
71.3026
21
-92.9017
0
LINE
8
Black
10
71.3026
20
-92.9017
11
71.3026
21
-92.5183
0
LINE
8
Black
10
71.3026
20
-92.5183
11
71.4337
21
-92.1579
0
LINE
8
Black
10
71.4337
20
-92.1579
11
71.6802
21
-91.8641
0
LINE
8
Black
10
71.6802
20
-91.8641
11
72.0123
21
-91.6724
0
LINE
8
Black
10
72.0123
20
-91.6724
11
72.39
21
-91.6058
0
LINE
8
Black
10
72.39
20
-91.6058
11
72.7677
21
-91.6724
0
LINE
8
Black
10
72.7677
20
-51.0324
11
73.0998
21
-51.2241
0
LINE
8
Black
10
73.0998
20
-51.2241
11
73.3463
21
-51.5179
0
LINE
8
Black
10
73.3463
20
-51.5179
11
73.4774
21
-51.8783
0
LINE
8
Black
10
73.4774
20
-51.8783
11
73.4774
21
-52.2617
0
LINE
8
Black
10
73.4774
20
-52.2617
11
73.3463
21
-52.6221
0
LINE
8
Black
10
73.3463
20
-52.6221
11
73.0998
21
-52.9159
0
LINE
8
Black
10
73.0998
20
-52.9159
11
72.7677
21
-53.1076
0
LINE
8
Black
10
72.7677
20
-53.1076
11
72.39
21
-53.1742
0
LINE
8
Black
10
72.39
20
-53.1742
11
72.0123
21
-53.1076
0
LINE
8
Black
10
72.0123
20
-53.1076
11
71.6802
21
-52.9159
0
LINE
8
Black
10
71.6802
20
-52.9159
11
71.4337
21
-52.6221
0
LINE
8
Black
10
71.4337
20
-52.6221
11
71.3026
21
-52.2617
0
LINE
8
Black
10
71.3026
20
-52.2617
11
71.3026
21
-51.8783
0
LINE
8
Black
10
71.3026
20
-51.8783
11
71.4337
21
-51.5179
0
LINE
8
Black
10
71.4337
20
-51.5179
11
71.6802
21
-51.2241
0
LINE
8
Black
10
71.6802
20
-51.2241
11
72.0123
21
-51.0324
0
LINE
8
Black
10
72.0123
20
-51.0324
11
72.39
21
-50.9658
0
LINE
8
Black
10
72.39
20
-50.9658
11
72.7677
21
-51.0324
0
LINE
8
Black
10
211.198
20
-42.7774
11
211.53
21
-42.9691
0
LINE
8
Black
10
211.53
20
-42.9691
11
211.776
21
-43.2629
0
LINE
8
Black
10
211.776
20
-43.2629
11
211.907
21
-43.6233
0
LINE
8
Black
10
211.907
20
-43.6233
11
211.907
21
-44.0067
0
LINE
8
Black
10
211.907
20
-44.0067
11
211.776
21
-44.3671
0
LINE
8
Black
10
211.776
20
-44.3671
11
211.53
21
-44.6609
0
LINE
8
Black
10
211.53
20
-44.6609
11
211.198
21
-44.8526
0
LINE
8
Black
10
211.198
20
-44.8526
11
210.82
21
-44.9192
0
LINE
8
Black
10
210.82
20
-44.9192
11
210.442
21
-44.8526
0
LINE
8
Black
10
210.442
20
-44.8526
11
210.11
21
-44.6609
0
LINE
8
Black
10
210.11
20
-44.6609
11
209.864
21
-44.3671
0
LINE
8
Black
10
209.864
20
-44.3671
11
209.733
21
-44.0067
0
LINE
8
Black
10
209.733
20
-44.0067
11
209.733
21
-43.6233
0
LINE
8
Black
10
209.733
20
-43.6233
11
209.864
21
-43.2629
0
LINE
8
Black
10
209.864
20
-43.2629
11
210.11
21
-42.9691
0
LINE
8
Black
10
210.11
20
-42.9691
11
210.442
21
-42.7774
0
LINE
8
Black
10
210.442
20
-42.7774
11
210.82
21
-42.7108
0
LINE
8
Black
10
210.82
20
-42.7108
11
211.198
21
-42.7774
0
LINE
8
Black
10
170.558
20
-42.7774
11
170.89
21
-42.9691
0
LINE
8
Black
10
170.89
20
-42.9691
11
171.136
21
-43.2629
0
LINE
8
Black
10
171.136
20
-43.2629
11
171.267
21
-43.6233
0
LINE
8
Black
10
171.267
20
-43.6233
11
171.267
21
-44.0067
0
LINE
8
Black
10
171.267
20
-44.0067
11
171.136
21
-44.3671
0
LINE
8
Black
10
171.136
20
-44.3671
11
170.89
21
-44.6609
0
LINE
8
Black
10
170.89
20
-44.6609
11
170.558
21
-44.8526
0
LINE
8
Black
10
170.558
20
-44.8526
11
170.18
21
-44.9192
0
LINE
8
Black
10
170.18
20
-44.9192
11
169.802
21
-44.8526
0
LINE
8
Black
10
169.802
20
-44.8526
11
169.47
21
-44.6609
0
LINE
8
Black
10
169.47
20
-44.6609
11
169.224
21
-44.3671
0
LINE
8
Black
10
169.224
20
-44.3671
11
169.093
21
-44.0067
0
LINE
8
Black
10
169.093
20
-44.0067
11
169.093
21
-43.6233
0
LINE
8
Black
10
169.093
20
-43.6233
11
169.224
21
-43.2629
0
LINE
8
Black
10
169.224
20
-43.2629
11
169.47
21
-42.9691
0
LINE
8
Black
10
169.47
20
-42.9691
11
169.802
21
-42.7774
0
LINE
8
Black
10
169.802
20
-42.7774
11
170.18
21
-42.7108
0
LINE
8
Black
10
170.18
20
-42.7108
11
170.558
21
-42.7774
0
LINE
8
Black
10
116.583
20
-42.7774
11
116.915
21
-42.9691
0
LINE
8
Black
10
116.915
20
-42.9691
11
117.161
21
-43.2629
0
LINE
8
Black
10
117.161
20
-43.2629
11
117.292
21
-43.6233
0
LINE
8
Black
10
117.292
20
-43.6233
11
117.292
21
-44.0067
0
LINE
8
Black
10
117.292
20
-44.0067
11
117.161
21
-44.3671
0
LINE
8
Black
10
117.161
20
-44.3671
11
116.915
21
-44.6609
0
LINE
8
Black
10
116.915
20
-44.6609
11
116.583
21
-44.8526
0
LINE
8
Black
10
116.583
20
-44.8526
11
116.205
21
-44.9192
0
LINE
8
Black
10
116.205
20
-44.9192
11
115.827
21
-44.8526
0
LINE
8
Black
10
115.827
20
-44.8526
11
115.495
21
-44.6609
0
LINE
8
Black
10
115.495
20
-44.6609
11
115.249
21
-44.3671
0
LINE
8
Black
10
115.249
20
-44.3671
11
115.118
21
-44.0067
0
LINE
8
Black
10
115.118
20
-44.0067
11
115.118
21
-43.6233
0
LINE
8
Black
10
115.118
20
-43.6233
11
115.249
21
-43.2629
0
LINE
8
Black
10
115.249
20
-43.2629
11
115.495
21
-42.9691
0
LINE
8
Black
10
115.495
20
-42.9691
11
115.827
21
-42.7774
0
LINE
8
Black
10
115.827
20
-42.7774
11
116.205
21
-42.7108
0
LINE
8
Black
10
116.205
20
-42.7108
11
116.583
21
-42.7774
  0
ENDSEC
  0
EOF
