  0
SECTION
  2
HEADER
  9
$ANGBASE
  50
0.0
  9
$ANGDIR
  70
  1
  9
$MEASUREMENT
  70
0
  0
ENDSEC
  0
SECTION
  2
TABLES
  0
TABLE
  2
LTYPE
  70
1
  0
LTYPE
  2
CONTINUOUS
  70
0
  3
Solid line
  72
65
  73
0
  40
0.0
  0
ENDTAB
  0
TABLE
  2
STYLE
  70
4
  0
STYLE
  2
KICAD
  70
0
  40
0
  41
1
  42
1
  50
0
  71
0
  3
isocp.shx
  0
STYLE
  2
KICADB
  70
0
  40
0
  41
1
  42
1
  50
0
  71
0
  3
isocp.shx
  0
STYLE
  2
KICADI
  70
0
  40
0
  41
1
  42
1
  50
15
  71
0
  3
isocp.shx
  0
STYLE
  2
KICADBI
  70
0
  40
0
  41
1
  42
1
  50
15
  71
0
  3
isocp.shx
  0
ENDTAB
  0
TABLE
  2
LAYER
  70
30
  0
LAYER
  2
BLACK
  70
0
  62
7
  6
CONTINUOUS
  0
LAYER
  2
GRAY1
  70
0
  62
251
  6
CONTINUOUS
  0
LAYER
  2
GRAY2
  70
0
  62
8
  6
CONTINUOUS
  0
LAYER
  2
GRAY3
  70
0
  62
9
  6
CONTINUOUS
  0
LAYER
  2
WHITE
  70
0
  62
7
  6
CONTINUOUS
  0
LAYER
  2
LYELLOW
  70
0
  62
51
  6
CONTINUOUS
  0
LAYER
  2
BLUE1
  70
0
  62
178
  6
CONTINUOUS
  0
LAYER
  2
GREEN1
  70
0
  62
98
  6
CONTINUOUS
  0
LAYER
  2
CYAN1
  70
0
  62
138
  6
CONTINUOUS
  0
LAYER
  2
RED1
  70
0
  62
18
  6
CONTINUOUS
  0
LAYER
  2
MAGENTA1
  70
0
  62
228
  6
CONTINUOUS
  0
LAYER
  2
BROWN1
  70
0
  62
58
  6
CONTINUOUS
  0
LAYER
  2
BLUE2
  70
0
  62
5
  6
CONTINUOUS
  0
LAYER
  2
GREEN2
  70
0
  62
3
  6
CONTINUOUS
  0
LAYER
  2
CYAN2
  70
0
  62
4
  6
CONTINUOUS
  0
LAYER
  2
RED2
  70
0
  62
1
  6
CONTINUOUS
  0
LAYER
  2
MAGENTA2
  70
0
  62
6
  6
CONTINUOUS
  0
LAYER
  2
BROWN2
  70
0
  62
54
  6
CONTINUOUS
  0
LAYER
  2
BLUE3
  70
0
  62
171
  6
CONTINUOUS
  0
LAYER
  2
GREEN3
  70
0
  62
91
  6
CONTINUOUS
  0
LAYER
  2
CYAN3
  70
0
  62
131
  6
CONTINUOUS
  0
LAYER
  2
RED3
  70
0
  62
11
  6
CONTINUOUS
  0
LAYER
  2
MAGENTA3
  70
0
  62
221
  6
CONTINUOUS
  0
LAYER
  2
YELLOW3
  70
0
  62
2
  6
CONTINUOUS
  0
LAYER
  2
BLUE4
  70
0
  62
5
  6
CONTINUOUS
  0
LAYER
  2
GREEN4
  70
0
  62
3
  6
CONTINUOUS
  0
LAYER
  2
CYAN4
  70
0
  62
4
  6
CONTINUOUS
  0
LAYER
  2
RED4
  70
0
  62
1
  6
CONTINUOUS
  0
LAYER
  2
MAGENTA4
  70
0
  62
6
  6
CONTINUOUS
  0
LAYER
  2
YELLOW4
  70
0
  62
2
  6
CONTINUOUS
  0
ENDTAB
  0
ENDSEC
  0
SECTION
  2
ENTITIES
0
LINE
8
Black
10
192.851
20
-140.379
11
193.244
21
-140.605
0
LINE
8
Black
10
193.244
20
-140.605
11
193.535
21
-140.953
0
LINE
8
Black
10
193.535
20
-140.953
11
193.69
21
-141.378
0
LINE
8
Black
10
193.69
20
-141.378
11
193.69
21
-141.832
0
LINE
8
Black
10
193.69
20
-141.832
11
193.535
21
-142.257
0
LINE
8
Black
10
193.535
20
-142.257
11
193.244
21
-142.605
0
LINE
8
Black
10
193.244
20
-142.605
11
192.851
21
-142.831
0
LINE
8
Black
10
192.851
20
-142.831
11
192.405
21
-142.91
0
LINE
8
Black
10
192.405
20
-142.91
11
191.959
21
-142.831
0
LINE
8
Black
10
191.959
20
-142.831
11
191.566
21
-142.605
0
LINE
8
Black
10
191.566
20
-142.605
11
191.275
21
-142.257
0
LINE
8
Black
10
191.275
20
-142.257
11
191.12
21
-141.832
0
LINE
8
Black
10
191.12
20
-141.832
11
191.12
21
-141.378
0
LINE
8
Black
10
191.12
20
-141.378
11
191.275
21
-140.953
0
LINE
8
Black
10
191.275
20
-140.953
11
191.566
21
-140.605
0
LINE
8
Black
10
191.566
20
-140.605
11
191.959
21
-140.379
0
LINE
8
Black
10
191.959
20
-140.379
11
192.405
21
-140.3
0
LINE
8
Black
10
192.405
20
-140.3
11
192.851
21
-140.379
0
LINE
8
Black
10
72.8363
20
-131.489
11
73.2288
21
-131.715
0
LINE
8
Black
10
73.2288
20
-131.715
11
73.5201
21
-132.063
0
LINE
8
Black
10
73.5201
20
-132.063
11
73.6751
21
-132.488
0
LINE
8
Black
10
73.6751
20
-132.488
11
73.6751
21
-132.942
0
LINE
8
Black
10
73.6751
20
-132.942
11
73.5201
21
-133.367
0
LINE
8
Black
10
73.5201
20
-133.367
11
73.2288
21
-133.715
0
LINE
8
Black
10
73.2288
20
-133.715
11
72.8363
21
-133.941
0
LINE
8
Black
10
72.8363
20
-133.941
11
72.39
21
-134.02
0
LINE
8
Black
10
72.39
20
-134.02
11
71.9437
21
-133.941
0
LINE
8
Black
10
71.9437
20
-133.941
11
71.5512
21
-133.715
0
LINE
8
Black
10
71.5512
20
-133.715
11
71.2599
21
-133.367
0
LINE
8
Black
10
71.2599
20
-133.367
11
71.1049
21
-132.942
0
LINE
8
Black
10
71.1049
20
-132.942
11
71.1049
21
-132.488
0
LINE
8
Black
10
71.1049
20
-132.488
11
71.2599
21
-132.063
0
LINE
8
Black
10
71.2599
20
-132.063
11
71.5512
21
-131.715
0
LINE
8
Black
10
71.5512
20
-131.715
11
71.9437
21
-131.489
0
LINE
8
Black
10
71.9437
20
-131.489
11
72.39
21
-131.41
0
LINE
8
Black
10
72.39
20
-131.41
11
72.8363
21
-131.489
0
LINE
8
Black
10
132.526
20
-131.489
11
132.919
21
-131.715
0
LINE
8
Black
10
132.919
20
-131.715
11
133.21
21
-132.063
0
LINE
8
Black
10
133.21
20
-132.063
11
133.365
21
-132.488
0
LINE
8
Black
10
133.365
20
-132.488
11
133.365
21
-132.942
0
LINE
8
Black
10
133.365
20
-132.942
11
133.21
21
-133.367
0
LINE
8
Black
10
133.21
20
-133.367
11
132.919
21
-133.715
0
LINE
8
Black
10
132.919
20
-133.715
11
132.526
21
-133.941
0
LINE
8
Black
10
132.526
20
-133.941
11
132.08
21
-134.02
0
LINE
8
Black
10
132.08
20
-134.02
11
131.634
21
-133.941
0
LINE
8
Black
10
131.634
20
-133.941
11
131.241
21
-133.715
0
LINE
8
Black
10
131.241
20
-133.715
11
130.95
21
-133.367
0
LINE
8
Black
10
130.95
20
-133.367
11
130.795
21
-132.942
0
LINE
8
Black
10
130.795
20
-132.942
11
130.795
21
-132.488
0
LINE
8
Black
10
130.795
20
-132.488
11
130.95
21
-132.063
0
LINE
8
Black
10
130.95
20
-132.063
11
131.241
21
-131.715
0
LINE
8
Black
10
131.241
20
-131.715
11
131.634
21
-131.489
0
LINE
8
Black
10
131.634
20
-131.489
11
132.08
21
-131.41
0
LINE
8
Black
10
132.08
20
-131.41
11
132.526
21
-131.489
0
LINE
8
Black
10
215.711
20
-102.279
11
216.104
21
-102.505
0
LINE
8
Black
10
216.104
20
-102.505
11
216.395
21
-102.853
0
LINE
8
Black
10
216.395
20
-102.853
11
216.55
21
-103.278
0
LINE
8
Black
10
216.55
20
-103.278
11
216.55
21
-103.732
0
LINE
8
Black
10
216.55
20
-103.732
11
216.395
21
-104.157
0
LINE
8
Black
10
216.395
20
-104.157
11
216.104
21
-104.505
0
LINE
8
Black
10
216.104
20
-104.505
11
215.711
21
-104.731
0
LINE
8
Black
10
215.711
20
-104.731
11
215.265
21
-104.81
0
LINE
8
Black
10
215.265
20
-104.81
11
214.819
21
-104.731
0
LINE
8
Black
10
214.819
20
-104.731
11
214.426
21
-104.505
0
LINE
8
Black
10
214.426
20
-104.505
11
214.135
21
-104.157
0
LINE
8
Black
10
214.135
20
-104.157
11
213.98
21
-103.732
0
LINE
8
Black
10
213.98
20
-103.732
11
213.98
21
-103.278
0
LINE
8
Black
10
213.98
20
-103.278
11
214.135
21
-102.853
0
LINE
8
Black
10
214.135
20
-102.853
11
214.426
21
-102.505
0
LINE
8
Black
10
214.426
20
-102.505
11
214.819
21
-102.279
0
LINE
8
Black
10
214.819
20
-102.279
11
215.265
21
-102.2
0
LINE
8
Black
10
215.265
20
-102.2
11
215.711
21
-102.279
0
LINE
8
Black
10
72.8363
20
-91.4837
11
73.2288
21
-91.7103
0
LINE
8
Black
10
73.2288
20
-91.7103
11
73.5201
21
-92.0575
0
LINE
8
Black
10
73.5201
20
-92.0575
11
73.6751
21
-92.4834
0
LINE
8
Black
10
73.6751
20
-92.4834
11
73.6751
21
-92.9366
0
LINE
8
Black
10
73.6751
20
-92.9366
11
73.5201
21
-93.3625
0
LINE
8
Black
10
73.5201
20
-93.3625
11
73.2288
21
-93.7097
0
LINE
8
Black
10
73.2288
20
-93.7097
11
72.8363
21
-93.9363
0
LINE
8
Black
10
72.8363
20
-93.9363
11
72.39
21
-94.015
0
LINE
8
Black
10
72.39
20
-94.015
11
71.9437
21
-93.9363
0
LINE
8
Black
10
71.9437
20
-93.9363
11
71.5512
21
-93.7097
0
LINE
8
Black
10
71.5512
20
-93.7097
11
71.2599
21
-93.3625
0
LINE
8
Black
10
71.2599
20
-93.3625
11
71.1049
21
-92.9366
0
LINE
8
Black
10
71.1049
20
-92.9366
11
71.1049
21
-92.4834
0
LINE
8
Black
10
71.1049
20
-92.4834
11
71.2599
21
-92.0575
0
LINE
8
Black
10
71.2599
20
-92.0575
11
71.5512
21
-91.7103
0
LINE
8
Black
10
71.5512
20
-91.7103
11
71.9437
21
-91.4837
0
LINE
8
Black
10
71.9437
20
-91.4837
11
72.39
21
-91.405
0
LINE
8
Black
10
72.39
20
-91.405
11
72.8363
21
-91.4837
0
LINE
8
Black
10
72.8363
20
-50.8437
11
73.2288
21
-51.0703
0
LINE
8
Black
10
73.2288
20
-51.0703
11
73.5201
21
-51.4175
0
LINE
8
Black
10
73.5201
20
-51.4175
11
73.6751
21
-51.8434
0
LINE
8
Black
10
73.6751
20
-51.8434
11
73.6751
21
-52.2966
0
LINE
8
Black
10
73.6751
20
-52.2966
11
73.5201
21
-52.7225
0
LINE
8
Black
10
73.5201
20
-52.7225
11
73.2288
21
-53.0697
0
LINE
8
Black
10
73.2288
20
-53.0697
11
72.8363
21
-53.2963
0
LINE
8
Black
10
72.8363
20
-53.2963
11
72.39
21
-53.375
0
LINE
8
Black
10
72.39
20
-53.375
11
71.9437
21
-53.2963
0
LINE
8
Black
10
71.9437
20
-53.2963
11
71.5512
21
-53.0697
0
LINE
8
Black
10
71.5512
20
-53.0697
11
71.2599
21
-52.7225
0
LINE
8
Black
10
71.2599
20
-52.7225
11
71.1049
21
-52.2966
0
LINE
8
Black
10
71.1049
20
-52.2966
11
71.1049
21
-51.8434
0
LINE
8
Black
10
71.1049
20
-51.8434
11
71.2599
21
-51.4175
0
LINE
8
Black
10
71.2599
20
-51.4175
11
71.5512
21
-51.0703
0
LINE
8
Black
10
71.5512
20
-51.0703
11
71.9437
21
-50.8437
0
LINE
8
Black
10
71.9437
20
-50.8437
11
72.39
21
-50.765
0
LINE
8
Black
10
72.39
20
-50.765
11
72.8363
21
-50.8437
0
LINE
8
Black
10
211.266
20
-42.5887
11
211.659
21
-42.8153
0
LINE
8
Black
10
211.659
20
-42.8153
11
211.95
21
-43.1625
0
LINE
8
Black
10
211.95
20
-43.1625
11
212.105
21
-43.5884
0
LINE
8
Black
10
212.105
20
-43.5884
11
212.105
21
-44.0416
0
LINE
8
Black
10
212.105
20
-44.0416
11
211.95
21
-44.4675
0
LINE
8
Black
10
211.95
20
-44.4675
11
211.659
21
-44.8147
0
LINE
8
Black
10
211.659
20
-44.8147
11
211.266
21
-45.0413
0
LINE
8
Black
10
211.266
20
-45.0413
11
210.82
21
-45.12
0
LINE
8
Black
10
210.82
20
-45.12
11
210.374
21
-45.0413
0
LINE
8
Black
10
210.374
20
-45.0413
11
209.981
21
-44.8147
0
LINE
8
Black
10
209.981
20
-44.8147
11
209.69
21
-44.4675
0
LINE
8
Black
10
209.69
20
-44.4675
11
209.535
21
-44.0416
0
LINE
8
Black
10
209.535
20
-44.0416
11
209.535
21
-43.5884
0
LINE
8
Black
10
209.535
20
-43.5884
11
209.69
21
-43.1625
0
LINE
8
Black
10
209.69
20
-43.1625
11
209.981
21
-42.8153
0
LINE
8
Black
10
209.981
20
-42.8153
11
210.374
21
-42.5887
0
LINE
8
Black
10
210.374
20
-42.5887
11
210.82
21
-42.51
0
LINE
8
Black
10
210.82
20
-42.51
11
211.266
21
-42.5887
0
LINE
8
Black
10
170.626
20
-42.5887
11
171.019
21
-42.8153
0
LINE
8
Black
10
171.019
20
-42.8153
11
171.31
21
-43.1625
0
LINE
8
Black
10
171.31
20
-43.1625
11
171.465
21
-43.5884
0
LINE
8
Black
10
171.465
20
-43.5884
11
171.465
21
-44.0416
0
LINE
8
Black
10
171.465
20
-44.0416
11
171.31
21
-44.4675
0
LINE
8
Black
10
171.31
20
-44.4675
11
171.019
21
-44.8147
0
LINE
8
Black
10
171.019
20
-44.8147
11
170.626
21
-45.0413
0
LINE
8
Black
10
170.626
20
-45.0413
11
170.18
21
-45.12
0
LINE
8
Black
10
170.18
20
-45.12
11
169.734
21
-45.0413
0
LINE
8
Black
10
169.734
20
-45.0413
11
169.341
21
-44.8147
0
LINE
8
Black
10
169.341
20
-44.8147
11
169.05
21
-44.4675
0
LINE
8
Black
10
169.05
20
-44.4675
11
168.895
21
-44.0416
0
LINE
8
Black
10
168.895
20
-44.0416
11
168.895
21
-43.5884
0
LINE
8
Black
10
168.895
20
-43.5884
11
169.05
21
-43.1625
0
LINE
8
Black
10
169.05
20
-43.1625
11
169.341
21
-42.8153
0
LINE
8
Black
10
169.341
20
-42.8153
11
169.734
21
-42.5887
0
LINE
8
Black
10
169.734
20
-42.5887
11
170.18
21
-42.51
0
LINE
8
Black
10
170.18
20
-42.51
11
170.626
21
-42.5887
0
LINE
8
Black
10
116.651
20
-42.5887
11
117.044
21
-42.8153
0
LINE
8
Black
10
117.044
20
-42.8153
11
117.335
21
-43.1625
0
LINE
8
Black
10
117.335
20
-43.1625
11
117.49
21
-43.5884
0
LINE
8
Black
10
117.49
20
-43.5884
11
117.49
21
-44.0416
0
LINE
8
Black
10
117.49
20
-44.0416
11
117.335
21
-44.4675
0
LINE
8
Black
10
117.335
20
-44.4675
11
117.044
21
-44.8147
0
LINE
8
Black
10
117.044
20
-44.8147
11
116.651
21
-45.0413
0
LINE
8
Black
10
116.651
20
-45.0413
11
116.205
21
-45.12
0
LINE
8
Black
10
116.205
20
-45.12
11
115.759
21
-45.0413
0
LINE
8
Black
10
115.759
20
-45.0413
11
115.366
21
-44.8147
0
LINE
8
Black
10
115.366
20
-44.8147
11
115.075
21
-44.4675
0
LINE
8
Black
10
115.075
20
-44.4675
11
114.92
21
-44.0416
0
LINE
8
Black
10
114.92
20
-44.0416
11
114.92
21
-43.5884
0
LINE
8
Black
10
114.92
20
-43.5884
11
115.075
21
-43.1625
0
LINE
8
Black
10
115.075
20
-43.1625
11
115.366
21
-42.8153
0
LINE
8
Black
10
115.366
20
-42.8153
11
115.759
21
-42.5887
0
LINE
8
Black
10
115.759
20
-42.5887
11
116.205
21
-42.51
0
LINE
8
Black
10
116.205
20
-42.51
11
116.651
21
-42.5887
  0
ENDSEC
  0
EOF
