  0
SECTION
  2
HEADER
  9
$ACADVER
  1
AC1009
  9
$EXTMIN
 10
0.0
 20
0.0
 30
0.0
  9
$EXTMAX
 10
1000.0
 20
1000.0
 30
0.0
  9
$FILLMODE
 70
 0
  9
$SPLFRAME
 70
 1
  0
ENDSEC
  0
SECTION
  2
TABLES
  0
TABLE
  2
LAYER
 70
1
  0
LAYER
  2
0
 70
     0
 62
     7
  6
CONTINUOUS
  0
ENDTAB
  0
ENDSEC
  0
SECTION
  2
ENTITIES
  0
POLYLINE
  8
0
 62
     0
 66
     1
 10
0
 20
0
 30
0.0
 70
     1
 40
0.425196
 41
0.425196
  0
VERTEX
  8
0
 10
6.96858
 20
1.74208
 30
0.0
 40
0.0059055
 41
0.0059055
  0
VERTEX
  8
0
 10
11.2205
 20
1.74208
 30
0.0
 40
0.0059055
 41
0.0059055
  0
VERTEX
  8
0
 10
11.2205
 20
0.482206
 30
0.0
 40
0.0059055
 41
0.0059055
  0
VERTEX
  8
0
 10
6.96858
 20
0.482206
 30
0.0
 40
0.0059055
 41
0.0059055
  0
VERTEX
  8
0
 10
6.96858
 20
1.74208
 30
0.0
 40
0.0059055
 41
0.0059055
  0
SEQEND
 8
0
  0
POLYLINE
  8
0
 62
     0
 66
     1
 10
0
 20
0
 30
0.0
 70
     1
 40
0.425196
 41
0.425196
  0
VERTEX
  8
0
 10
0.393718
 20
7.88406
 30
0.0
 40
0.0059055
 41
0.0059055
  0
VERTEX
  8
0
 10
11.2993
 20
7.88406
 30
0.0
 40
0.0059055
 41
0.0059055
  0
VERTEX
  8
0
 10
11.2993
 20
0.403483
 30
0.0
 40
0.0059055
 41
0.0059055
  0
VERTEX
  8
0
 10
0.393718
 20
0.403483
 30
0.0
 40
0.0059055
 41
0.0059055
  0
VERTEX
  8
0
 10
0.393718
 20
7.88406
 30
0.0
 40
0.0059055
 41
0.0059055
  0
SEQEND
 8
0
  0
POLYLINE
  8
0
 62
     0
 66
     1
 10
0
 20
0
 30
0.0
 70
     1
 40
0.425196
 41
0.425196
  0
VERTEX
  8
0
 10
0.472439
 20
7.80533
 30
0.0
 40
0.0059055
 41
0.0059055
  0
VERTEX
  8
0
 10
11.2205
 20
7.80533
 30
0.0
 40
0.0059055
 41
0.0059055
  0
VERTEX
  8
0
 10
11.2205
 20
0.482206
 30
0.0
 40
0.0059055
 41
0.0059055
  0
VERTEX
  8
0
 10
0.472439
 20
0.482206
 30
0.0
 40
0.0059055
 41
0.0059055
  0
VERTEX
  8
0
 10
0.472439
 20
7.80533
 30
0.0
 40
0.0059055
 41
0.0059055
  0
SEQEND
 8
0
  0
POLYLINE
  8
0
 62
     0
 66
     1
 10
0
 20
0
 30
0.0
 40
0.425196
 41
0.425196
  0
VERTEX
  8
0
 10
2.36219
 20
7.80539
 30
0.0
 40
0.0059055
 41
0.0059055
  0
VERTEX
  8
0
 10
2.36219
 20
7.88406
 30
0.0
 40
0.0059055
 41
0.0059055
  0
SEQEND
 8
0
  0
POLYLINE
  8
0
 62
     0
 66
     1
 10
0
 20
0
 30
0.0
 40
0.425196
 41
0.425196
  0
VERTEX
  8
0
 10
4.33068
 20
7.80539
 30
0.0
 40
0.0059055
 41
0.0059055
  0
VERTEX
  8
0
 10
4.33068
 20
7.88406
 30
0.0
 40
0.0059055
 41
0.0059055
  0
SEQEND
 8
0
  0
POLYLINE
  8
0
 62
     0
 66
     1
 10
0
 20
0
 30
0.0
 40
0.425196
 41
0.425196
  0
VERTEX
  8
0
 10
6.29921
 20
7.80539
 30
0.0
 40
0.0059055
 41
0.0059055
  0
VERTEX
  8
0
 10
6.29921
 20
7.88406
 30
0.0
 40
0.0059055
 41
0.0059055
  0
SEQEND
 8
0
  0
POLYLINE
  8
0
 62
     0
 66
     1
 10
0
 20
0
 30
0.0
 40
0.425196
 41
0.425196
  0
VERTEX
  8
0
 10
8.26768
 20
7.80539
 30
0.0
 40
0.0059055
 41
0.0059055
  0
VERTEX
  8
0
 10
8.26768
 20
7.88406
 30
0.0
 40
0.0059055
 41
0.0059055
  0
SEQEND
 8
0
  0
POLYLINE
  8
0
 62
     0
 66
     1
 10
0
 20
0
 30
0.0
 40
0.425196
 41
0.425196
  0
VERTEX
  8
0
 10
10.2362
 20
7.80539
 30
0.0
 40
0.0059055
 41
0.0059055
  0
VERTEX
  8
0
 10
10.2362
 20
7.88406
 30
0.0
 40
0.0059055
 41
0.0059055
  0
SEQEND
 8
0
  0
POLYLINE
  8
0
 62
     0
 66
     1
 10
0
 20
0
 30
0.0
 40
0.425196
 41
0.425196
  0
VERTEX
  8
0
 10
1.41689
 20
7.82156
 30
0.0
 40
0.0059055
 41
0.0059055
  0
VERTEX
  8
0
 10
1.3877
 20
7.82156
 30
0.0
 40
0.0059055
 41
0.0059055
  0
SEQEND
 8
0
  0
POLYLINE
  8
0
 62
     0
 66
     1
 10
0
 20
0
 30
0.0
 40
0.425196
 41
0.425196
  0
VERTEX
  8
0
 10
1.40229
 20
7.82156
 30
0.0
 40
0.0059055
 41
0.0059055
  0
VERTEX
  8
0
 10
1.40229
 20
7.87278
 30
0.0
 40
0.0059055
 41
0.0059055
  0
VERTEX
  8
0
 10
1.3974
 20
7.86546
 30
0.0
 40
0.0059055
 41
0.0059055
  0
VERTEX
  8
0
 10
1.39253
 20
7.86057
 30
0.0
 40
0.0059055
 41
0.0059055
  0
VERTEX
  8
0
 10
1.3877
 20
7.85818
 30
0.0
 40
0.0059055
 41
0.0059055
  0
SEQEND
 8
0
  0
POLYLINE
  8
0
 62
     0
 66
     1
 10
0
 20
0
 30
0.0
 40
0.425196
 41
0.425196
  0
VERTEX
  8
0
 10
3.35618
 20
7.86789
 30
0.0
 40
0.0059055
 41
0.0059055
  0
VERTEX
  8
0
 10
3.35861
 20
7.87039
 30
0.0
 40
0.0059055
 41
0.0059055
  0
VERTEX
  8
0
 10
3.3635
 20
7.87278
 30
0.0
 40
0.0059055
 41
0.0059055
  0
VERTEX
  8
0
 10
3.37571
 20
7.87278
 30
0.0
 40
0.0059055
 41
0.0059055
  0
VERTEX
  8
0
 10
3.38049
 20
7.87039
 30
0.0
 40
0.0059055
 41
0.0059055
  0
VERTEX
  8
0
 10
3.38297
 20
7.86789
 30
0.0
 40
0.0059055
 41
0.0059055
  0
VERTEX
  8
0
 10
3.38542
 20
7.86307
 30
0.0
 40
0.0059055
 41
0.0059055
  0
VERTEX
  8
0
 10
3.38542
 20
7.85818
 30
0.0
 40
0.0059055
 41
0.0059055
  0
VERTEX
  8
0
 10
3.38297
 20
7.85086
 30
0.0
 40
0.0059055
 41
0.0059055
  0
VERTEX
  8
0
 10
3.35368
 20
7.82156
 30
0.0
 40
0.0059055
 41
0.0059055
  0
VERTEX
  8
0
 10
3.38542
 20
7.82156
 30
0.0
 40
0.0059055
 41
0.0059055
  0
SEQEND
 8
0
  0
POLYLINE
  8
0
 62
     0
 66
     1
 10
0
 20
0
 30
0.0
 40
0.425196
 41
0.425196
  0
VERTEX
  8
0
 10
5.32221
 20
7.87278
 30
0.0
 40
0.0059055
 41
0.0059055
  0
VERTEX
  8
0
 10
5.35389
 20
7.87278
 30
0.0
 40
0.0059055
 41
0.0059055
  0
VERTEX
  8
0
 10
5.33681
 20
7.85331
 30
0.0
 40
0.0059055
 41
0.0059055
  0
VERTEX
  8
0
 10
5.34418
 20
7.85331
 30
0.0
 40
0.0059055
 41
0.0059055
  0
VERTEX
  8
0
 10
5.34901
 20
7.85086
 30
0.0
 40
0.0059055
 41
0.0059055
  0
VERTEX
  8
0
 10
5.35151
 20
7.84836
 30
0.0
 40
0.0059055
 41
0.0059055
  0
VERTEX
  8
0
 10
5.35389
 20
7.84358
 30
0.0
 40
0.0059055
 41
0.0059055
  0
VERTEX
  8
0
 10
5.35389
 20
7.83138
 30
0.0
 40
0.0059055
 41
0.0059055
  0
VERTEX
  8
0
 10
5.35151
 20
7.8265
 30
0.0
 40
0.0059055
 41
0.0059055
  0
VERTEX
  8
0
 10
5.34901
 20
7.82406
 30
0.0
 40
0.0059055
 41
0.0059055
  0
VERTEX
  8
0
 10
5.34418
 20
7.82156
 30
0.0
 40
0.0059055
 41
0.0059055
  0
VERTEX
  8
0
 10
5.32949
 20
7.82156
 30
0.0
 40
0.0059055
 41
0.0059055
  0
VERTEX
  8
0
 10
5.32471
 20
7.82406
 30
0.0
 40
0.0059055
 41
0.0059055
  0
VERTEX
  8
0
 10
5.32221
 20
7.8265
 30
0.0
 40
0.0059055
 41
0.0059055
  0
SEQEND
 8
0
  0
POLYLINE
  8
0
 62
     0
 66
     1
 10
0
 20
0
 30
0.0
 40
0.425196
 41
0.425196
  0
VERTEX
  8
0
 10
7.31749
 20
7.85568
 30
0.0
 40
0.0059055
 41
0.0059055
  0
VERTEX
  8
0
 10
7.31749
 20
7.82156
 30
0.0
 40
0.0059055
 41
0.0059055
  0
SEQEND
 8
0
  0
POLYLINE
  8
0
 62
     0
 66
     1
 10
0
 20
0
 30
0.0
 40
0.425196
 41
0.425196
  0
VERTEX
  8
0
 10
7.30528
 20
7.87517
 30
0.0
 40
0.0059055
 41
0.0059055
  0
VERTEX
  8
0
 10
7.29318
 20
7.83871
 30
0.0
 40
0.0059055
 41
0.0059055
  0
VERTEX
  8
0
 10
7.32482
 20
7.83871
 30
0.0
 40
0.0059055
 41
0.0059055
  0
SEQEND
 8
0
  0
POLYLINE
  8
0
 62
     0
 66
     1
 10
0
 20
0
 30
0.0
 40
0.425196
 41
0.425196
  0
VERTEX
  8
0
 10
9.28847
 20
7.87278
 30
0.0
 40
0.0059055
 41
0.0059055
  0
VERTEX
  8
0
 10
9.26411
 20
7.87278
 30
0.0
 40
0.0059055
 41
0.0059055
  0
VERTEX
  8
0
 10
9.26172
 20
7.84836
 30
0.0
 40
0.0059055
 41
0.0059055
  0
VERTEX
  8
0
 10
9.26411
 20
7.85086
 30
0.0
 40
0.0059055
 41
0.0059055
  0
VERTEX
  8
0
 10
9.26899
 20
7.85331
 30
0.0
 40
0.0059055
 41
0.0059055
  0
VERTEX
  8
0
 10
9.28119
 20
7.85331
 30
0.0
 40
0.0059055
 41
0.0059055
  0
VERTEX
  8
0
 10
9.28597
 20
7.85086
 30
0.0
 40
0.0059055
 41
0.0059055
  0
VERTEX
  8
0
 10
9.28847
 20
7.84836
 30
0.0
 40
0.0059055
 41
0.0059055
  0
VERTEX
  8
0
 10
9.2909
 20
7.84358
 30
0.0
 40
0.0059055
 41
0.0059055
  0
VERTEX
  8
0
 10
9.2909
 20
7.83138
 30
0.0
 40
0.0059055
 41
0.0059055
  0
VERTEX
  8
0
 10
9.28847
 20
7.8265
 30
0.0
 40
0.0059055
 41
0.0059055
  0
VERTEX
  8
0
 10
9.28597
 20
7.82406
 30
0.0
 40
0.0059055
 41
0.0059055
  0
VERTEX
  8
0
 10
9.28119
 20
7.82156
 30
0.0
 40
0.0059055
 41
0.0059055
  0
VERTEX
  8
0
 10
9.26899
 20
7.82156
 30
0.0
 40
0.0059055
 41
0.0059055
  0
VERTEX
  8
0
 10
9.26411
 20
7.82406
 30
0.0
 40
0.0059055
 41
0.0059055
  0
VERTEX
  8
0
 10
9.26172
 20
7.8265
 30
0.0
 40
0.0059055
 41
0.0059055
  0
SEQEND
 8
0
  0
POLYLINE
  8
0
 62
     0
 66
     1
 10
0
 20
0
 30
0.0
 40
0.425196
 41
0.425196
  0
VERTEX
  8
0
 10
11.2545
 20
7.87278
 30
0.0
 40
0.0059055
 41
0.0059055
  0
VERTEX
  8
0
 10
11.2448
 20
7.87278
 30
0.0
 40
0.0059055
 41
0.0059055
  0
VERTEX
  8
0
 10
11.2399
 20
7.87039
 30
0.0
 40
0.0059055
 41
0.0059055
  0
VERTEX
  8
0
 10
11.2375
 20
7.86789
 30
0.0
 40
0.0059055
 41
0.0059055
  0
VERTEX
  8
0
 10
11.2326
 20
7.86057
 30
0.0
 40
0.0059055
 41
0.0059055
  0
VERTEX
  8
0
 10
11.2302
 20
7.85086
 30
0.0
 40
0.0059055
 41
0.0059055
  0
VERTEX
  8
0
 10
11.2302
 20
7.83138
 30
0.0
 40
0.0059055
 41
0.0059055
  0
VERTEX
  8
0
 10
11.2326
 20
7.8265
 30
0.0
 40
0.0059055
 41
0.0059055
  0
VERTEX
  8
0
 10
11.235
 20
7.82406
 30
0.0
 40
0.0059055
 41
0.0059055
  0
VERTEX
  8
0
 10
11.2399
 20
7.82156
 30
0.0
 40
0.0059055
 41
0.0059055
  0
VERTEX
  8
0
 10
11.2497
 20
7.82156
 30
0.0
 40
0.0059055
 41
0.0059055
  0
VERTEX
  8
0
 10
11.2545
 20
7.82406
 30
0.0
 40
0.0059055
 41
0.0059055
  0
VERTEX
  8
0
 10
11.257
 20
7.8265
 30
0.0
 40
0.0059055
 41
0.0059055
  0
VERTEX
  8
0
 10
11.2594
 20
7.83138
 30
0.0
 40
0.0059055
 41
0.0059055
  0
VERTEX
  8
0
 10
11.2594
 20
7.84358
 30
0.0
 40
0.0059055
 41
0.0059055
  0
VERTEX
  8
0
 10
11.257
 20
7.84836
 30
0.0
 40
0.0059055
 41
0.0059055
  0
VERTEX
  8
0
 10
11.2545
 20
7.85086
 30
0.0
 40
0.0059055
 41
0.0059055
  0
VERTEX
  8
0
 10
11.2497
 20
7.85331
 30
0.0
 40
0.0059055
 41
0.0059055
  0
VERTEX
  8
0
 10
11.2399
 20
7.85331
 30
0.0
 40
0.0059055
 41
0.0059055
  0
VERTEX
  8
0
 10
11.235
 20
7.85086
 30
0.0
 40
0.0059055
 41
0.0059055
  0
VERTEX
  8
0
 10
11.2326
 20
7.84836
 30
0.0
 40
0.0059055
 41
0.0059055
  0
VERTEX
  8
0
 10
11.2302
 20
7.84358
 30
0.0
 40
0.0059055
 41
0.0059055
  0
SEQEND
 8
0
  0
POLYLINE
  8
0
 62
     0
 66
     1
 10
0
 20
0
 30
0.0
 40
0.425196
 41
0.425196
  0
VERTEX
  8
0
 10
2.36219
 20
0.48226
 30
0.0
 40
0.0059055
 41
0.0059055
  0
VERTEX
  8
0
 10
2.36219
 20
0.403592
 30
0.0
 40
0.0059055
 41
0.0059055
  0
SEQEND
 8
0
  0
POLYLINE
  8
0
 62
     0
 66
     1
 10
0
 20
0
 30
0.0
 40
0.425196
 41
0.425196
  0
VERTEX
  8
0
 10
4.33068
 20
0.48226
 30
0.0
 40
0.0059055
 41
0.0059055
  0
VERTEX
  8
0
 10
4.33068
 20
0.403592
 30
0.0
 40
0.0059055
 41
0.0059055
  0
SEQEND
 8
0
  0
POLYLINE
  8
0
 62
     0
 66
     1
 10
0
 20
0
 30
0.0
 40
0.425196
 41
0.425196
  0
VERTEX
  8
0
 10
6.29921
 20
0.48226
 30
0.0
 40
0.0059055
 41
0.0059055
  0
VERTEX
  8
0
 10
6.29921
 20
0.403592
 30
0.0
 40
0.0059055
 41
0.0059055
  0
SEQEND
 8
0
  0
POLYLINE
  8
0
 62
     0
 66
     1
 10
0
 20
0
 30
0.0
 40
0.425196
 41
0.425196
  0
VERTEX
  8
0
 10
8.26768
 20
0.48226
 30
0.0
 40
0.0059055
 41
0.0059055
  0
VERTEX
  8
0
 10
8.26768
 20
0.403592
 30
0.0
 40
0.0059055
 41
0.0059055
  0
SEQEND
 8
0
  0
POLYLINE
  8
0
 62
     0
 66
     1
 10
0
 20
0
 30
0.0
 40
0.425196
 41
0.425196
  0
VERTEX
  8
0
 10
10.2362
 20
0.48226
 30
0.0
 40
0.0059055
 41
0.0059055
  0
VERTEX
  8
0
 10
10.2362
 20
0.403592
 30
0.0
 40
0.0059055
 41
0.0059055
  0
SEQEND
 8
0
  0
POLYLINE
  8
0
 62
     0
 66
     1
 10
0
 20
0
 30
0.0
 40
0.425196
 41
0.425196
  0
VERTEX
  8
0
 10
1.41689
 20
0.41976
 30
0.0
 40
0.0059055
 41
0.0059055
  0
VERTEX
  8
0
 10
1.3877
 20
0.41976
 30
0.0
 40
0.0059055
 41
0.0059055
  0
SEQEND
 8
0
  0
POLYLINE
  8
0
 62
     0
 66
     1
 10
0
 20
0
 30
0.0
 40
0.425196
 41
0.425196
  0
VERTEX
  8
0
 10
1.40229
 20
0.41976
 30
0.0
 40
0.0059055
 41
0.0059055
  0
VERTEX
  8
0
 10
1.40229
 20
0.470865
 30
0.0
 40
0.0059055
 41
0.0059055
  0
VERTEX
  8
0
 10
1.3974
 20
0.463596
 30
0.0
 40
0.0059055
 41
0.0059055
  0
VERTEX
  8
0
 10
1.39253
 20
0.458768
 30
0.0
 40
0.0059055
 41
0.0059055
  0
VERTEX
  8
0
 10
1.3877
 20
0.456272
 30
0.0
 40
0.0059055
 41
0.0059055
  0
SEQEND
 8
0
  0
POLYLINE
  8
0
 62
     0
 66
     1
 10
0
 20
0
 30
0.0
 40
0.425196
 41
0.425196
  0
VERTEX
  8
0
 10
3.35618
 20
0.466092
 30
0.0
 40
0.0059055
 41
0.0059055
  0
VERTEX
  8
0
 10
3.35861
 20
0.468479
 30
0.0
 40
0.0059055
 41
0.0059055
  0
VERTEX
  8
0
 10
3.3635
 20
0.470865
 30
0.0
 40
0.0059055
 41
0.0059055
  0
VERTEX
  8
0
 10
3.37571
 20
0.470865
 30
0.0
 40
0.0059055
 41
0.0059055
  0
VERTEX
  8
0
 10
3.38049
 20
0.468479
 30
0.0
 40
0.0059055
 41
0.0059055
  0
VERTEX
  8
0
 10
3.38297
 20
0.466092
 30
0.0
 40
0.0059055
 41
0.0059055
  0
VERTEX
  8
0
 10
3.38542
 20
0.461208
 30
0.0
 40
0.0059055
 41
0.0059055
  0
VERTEX
  8
0
 10
3.38542
 20
0.456272
 30
0.0
 40
0.0059055
 41
0.0059055
  0
VERTEX
  8
0
 10
3.38297
 20
0.449001
 30
0.0
 40
0.0059055
 41
0.0059055
  0
VERTEX
  8
0
 10
3.35368
 20
0.41976
 30
0.0
 40
0.0059055
 41
0.0059055
  0
VERTEX
  8
0
 10
3.38542
 20
0.41976
 30
0.0
 40
0.0059055
 41
0.0059055
  0
SEQEND
 8
0
  0
POLYLINE
  8
0
 62
     0
 66
     1
 10
0
 20
0
 30
0.0
 40
0.425196
 41
0.425196
  0
VERTEX
  8
0
 10
5.32221
 20
0.470865
 30
0.0
 40
0.0059055
 41
0.0059055
  0
VERTEX
  8
0
 10
5.35389
 20
0.470865
 30
0.0
 40
0.0059055
 41
0.0059055
  0
VERTEX
  8
0
 10
5.33681
 20
0.451497
 30
0.0
 40
0.0059055
 41
0.0059055
  0
VERTEX
  8
0
 10
5.34418
 20
0.451497
 30
0.0
 40
0.0059055
 41
0.0059055
  0
VERTEX
  8
0
 10
5.34901
 20
0.449001
 30
0.0
 40
0.0059055
 41
0.0059055
  0
VERTEX
  8
0
 10
5.35151
 20
0.44656
 30
0.0
 40
0.0059055
 41
0.0059055
  0
VERTEX
  8
0
 10
5.35389
 20
0.441678
 30
0.0
 40
0.0059055
 41
0.0059055
  0
VERTEX
  8
0
 10
5.35389
 20
0.429471
 30
0.0
 40
0.0059055
 41
0.0059055
  0
VERTEX
  8
0
 10
5.35151
 20
0.424587
 30
0.0
 40
0.0059055
 41
0.0059055
  0
VERTEX
  8
0
 10
5.34901
 20
0.4222
 30
0.0
 40
0.0059055
 41
0.0059055
  0
VERTEX
  8
0
 10
5.34418
 20
0.41976
 30
0.0
 40
0.0059055
 41
0.0059055
  0
VERTEX
  8
0
 10
5.32949
 20
0.41976
 30
0.0
 40
0.0059055
 41
0.0059055
  0
VERTEX
  8
0
 10
5.32471
 20
0.4222
 30
0.0
 40
0.0059055
 41
0.0059055
  0
VERTEX
  8
0
 10
5.32221
 20
0.424587
 30
0.0
 40
0.0059055
 41
0.0059055
  0
SEQEND
 8
0
  0
POLYLINE
  8
0
 62
     0
 66
     1
 10
0
 20
0
 30
0.0
 40
0.425196
 41
0.425196
  0
VERTEX
  8
0
 10
7.31749
 20
0.453885
 30
0.0
 40
0.0059055
 41
0.0059055
  0
VERTEX
  8
0
 10
7.31749
 20
0.41976
 30
0.0
 40
0.0059055
 41
0.0059055
  0
SEQEND
 8
0
  0
POLYLINE
  8
0
 62
     0
 66
     1
 10
0
 20
0
 30
0.0
 40
0.425196
 41
0.425196
  0
VERTEX
  8
0
 10
7.30528
 20
0.473361
 30
0.0
 40
0.0059055
 41
0.0059055
  0
VERTEX
  8
0
 10
7.29318
 20
0.436794
 30
0.0
 40
0.0059055
 41
0.0059055
  0
VERTEX
  8
0
 10
7.32482
 20
0.436794
 30
0.0
 40
0.0059055
 41
0.0059055
  0
SEQEND
 8
0
  0
POLYLINE
  8
0
 62
     0
 66
     1
 10
0
 20
0
 30
0.0
 40
0.425196
 41
0.425196
  0
VERTEX
  8
0
 10
9.28847
 20
0.470865
 30
0.0
 40
0.0059055
 41
0.0059055
  0
VERTEX
  8
0
 10
9.26411
 20
0.470865
 30
0.0
 40
0.0059055
 41
0.0059055
  0
VERTEX
  8
0
 10
9.26172
 20
0.44656
 30
0.0
 40
0.0059055
 41
0.0059055
  0
VERTEX
  8
0
 10
9.26411
 20
0.449001
 30
0.0
 40
0.0059055
 41
0.0059055
  0
VERTEX
  8
0
 10
9.26899
 20
0.451497
 30
0.0
 40
0.0059055
 41
0.0059055
  0
VERTEX
  8
0
 10
9.28119
 20
0.451497
 30
0.0
 40
0.0059055
 41
0.0059055
  0
VERTEX
  8
0
 10
9.28597
 20
0.449001
 30
0.0
 40
0.0059055
 41
0.0059055
  0
VERTEX
  8
0
 10
9.28847
 20
0.44656
 30
0.0
 40
0.0059055
 41
0.0059055
  0
VERTEX
  8
0
 10
9.2909
 20
0.441678
 30
0.0
 40
0.0059055
 41
0.0059055
  0
VERTEX
  8
0
 10
9.2909
 20
0.429471
 30
0.0
 40
0.0059055
 41
0.0059055
  0
VERTEX
  8
0
 10
9.28847
 20
0.424587
 30
0.0
 40
0.0059055
 41
0.0059055
  0
VERTEX
  8
0
 10
9.28597
 20
0.4222
 30
0.0
 40
0.0059055
 41
0.0059055
  0
VERTEX
  8
0
 10
9.28119
 20
0.41976
 30
0.0
 40
0.0059055
 41
0.0059055
  0
VERTEX
  8
0
 10
9.26899
 20
0.41976
 30
0.0
 40
0.0059055
 41
0.0059055
  0
VERTEX
  8
0
 10
9.26411
 20
0.4222
 30
0.0
 40
0.0059055
 41
0.0059055
  0
VERTEX
  8
0
 10
9.26172
 20
0.424587
 30
0.0
 40
0.0059055
 41
0.0059055
  0
SEQEND
 8
0
  0
POLYLINE
  8
0
 62
     0
 66
     1
 10
0
 20
0
 30
0.0
 40
0.425196
 41
0.425196
  0
VERTEX
  8
0
 10
11.2545
 20
0.470865
 30
0.0
 40
0.0059055
 41
0.0059055
  0
VERTEX
  8
0
 10
11.2448
 20
0.470865
 30
0.0
 40
0.0059055
 41
0.0059055
  0
VERTEX
  8
0
 10
11.2399
 20
0.468479
 30
0.0
 40
0.0059055
 41
0.0059055
  0
VERTEX
  8
0
 10
11.2375
 20
0.466092
 30
0.0
 40
0.0059055
 41
0.0059055
  0
VERTEX
  8
0
 10
11.2326
 20
0.458768
 30
0.0
 40
0.0059055
 41
0.0059055
  0
VERTEX
  8
0
 10
11.2302
 20
0.449001
 30
0.0
 40
0.0059055
 41
0.0059055
  0
VERTEX
  8
0
 10
11.2302
 20
0.429471
 30
0.0
 40
0.0059055
 41
0.0059055
  0
VERTEX
  8
0
 10
11.2326
 20
0.424587
 30
0.0
 40
0.0059055
 41
0.0059055
  0
VERTEX
  8
0
 10
11.235
 20
0.4222
 30
0.0
 40
0.0059055
 41
0.0059055
  0
VERTEX
  8
0
 10
11.2399
 20
0.41976
 30
0.0
 40
0.0059055
 41
0.0059055
  0
VERTEX
  8
0
 10
11.2497
 20
0.41976
 30
0.0
 40
0.0059055
 41
0.0059055
  0
VERTEX
  8
0
 10
11.2545
 20
0.4222
 30
0.0
 40
0.0059055
 41
0.0059055
  0
VERTEX
  8
0
 10
11.257
 20
0.424587
 30
0.0
 40
0.0059055
 41
0.0059055
  0
VERTEX
  8
0
 10
11.2594
 20
0.429471
 30
0.0
 40
0.0059055
 41
0.0059055
  0
VERTEX
  8
0
 10
11.2594
 20
0.441678
 30
0.0
 40
0.0059055
 41
0.0059055
  0
VERTEX
  8
0
 10
11.257
 20
0.44656
 30
0.0
 40
0.0059055
 41
0.0059055
  0
VERTEX
  8
0
 10
11.2545
 20
0.449001
 30
0.0
 40
0.0059055
 41
0.0059055
  0
VERTEX
  8
0
 10
11.2497
 20
0.451497
 30
0.0
 40
0.0059055
 41
0.0059055
  0
VERTEX
  8
0
 10
11.2399
 20
0.451497
 30
0.0
 40
0.0059055
 41
0.0059055
  0
VERTEX
  8
0
 10
11.235
 20
0.449001
 30
0.0
 40
0.0059055
 41
0.0059055
  0
VERTEX
  8
0
 10
11.2326
 20
0.44656
 30
0.0
 40
0.0059055
 41
0.0059055
  0
VERTEX
  8
0
 10
11.2302
 20
0.441678
 30
0.0
 40
0.0059055
 41
0.0059055
  0
SEQEND
 8
0
  0
POLYLINE
  8
0
 62
     0
 66
     1
 10
0
 20
0
 30
0.0
 40
0.425196
 41
0.425196
  0
VERTEX
  8
0
 10
0.393718
 20
5.91558
 30
0.0
 40
0.0059055
 41
0.0059055
  0
VERTEX
  8
0
 10
0.472385
 20
5.91558
 30
0.0
 40
0.0059055
 41
0.0059055
  0
SEQEND
 8
0
  0
POLYLINE
  8
0
 62
     0
 66
     1
 10
0
 20
0
 30
0.0
 40
0.425196
 41
0.425196
  0
VERTEX
  8
0
 10
0.393718
 20
3.9471
 30
0.0
 40
0.0059055
 41
0.0059055
  0
VERTEX
  8
0
 10
0.472385
 20
3.9471
 30
0.0
 40
0.0059055
 41
0.0059055
  0
SEQEND
 8
0
  0
POLYLINE
  8
0
 62
     0
 66
     1
 10
0
 20
0
 30
0.0
 40
0.425196
 41
0.425196
  0
VERTEX
  8
0
 10
0.393718
 20
1.97857
 30
0.0
 40
0.0059055
 41
0.0059055
  0
VERTEX
  8
0
 10
0.472385
 20
1.97857
 30
0.0
 40
0.0059055
 41
0.0059055
  0
SEQEND
 8
0
  0
POLYLINE
  8
0
 62
     0
 66
     1
 10
0
 20
0
 30
0.0
 40
0.425196
 41
0.425196
  0
VERTEX
  8
0
 10
0.42079
 20
6.89139
 30
0.0
 40
0.0059055
 41
0.0059055
  0
VERTEX
  8
0
 10
0.445204
 20
6.89139
 30
0.0
 40
0.0059055
 41
0.0059055
  0
SEQEND
 8
0
  0
POLYLINE
  8
0
 62
     0
 66
     1
 10
0
 20
0
 30
0.0
 40
0.425196
 41
0.425196
  0
VERTEX
  8
0
 10
0.416015
 20
6.87668
 30
0.0
 40
0.0059055
 41
0.0059055
  0
VERTEX
  8
0
 10
0.432997
 20
6.9279
 30
0.0
 40
0.0059055
 41
0.0059055
  0
VERTEX
  8
0
 10
0.450087
 20
6.87668
 30
0.0
 40
0.0059055
 41
0.0059055
  0
SEQEND
 8
0
  0
POLYLINE
  8
0
 62
     0
 66
     1
 10
0
 20
0
 30
0.0
 40
0.425196
 41
0.425196
  0
VERTEX
  8
0
 10
0.436686
 20
4.935
 30
0.0
 40
0.0059055
 41
0.0059055
  0
VERTEX
  8
0
 10
0.444011
 20
4.93257
 30
0.0
 40
0.0059055
 41
0.0059055
  0
VERTEX
  8
0
 10
0.446397
 20
4.93018
 30
0.0
 40
0.0059055
 41
0.0059055
  0
VERTEX
  8
0
 10
0.448893
 20
4.92529
 30
0.0
 40
0.0059055
 41
0.0059055
  0
VERTEX
  8
0
 10
0.448893
 20
4.91797
 30
0.0
 40
0.0059055
 41
0.0059055
  0
VERTEX
  8
0
 10
0.446397
 20
4.91308
 30
0.0
 40
0.0059055
 41
0.0059055
  0
VERTEX
  8
0
 10
0.444011
 20
4.91069
 30
0.0
 40
0.0059055
 41
0.0059055
  0
VERTEX
  8
0
 10
0.439074
 20
4.90821
 30
0.0
 40
0.0059055
 41
0.0059055
  0
VERTEX
  8
0
 10
0.419596
 20
4.90821
 30
0.0
 40
0.0059055
 41
0.0059055
  0
VERTEX
  8
0
 10
0.419596
 20
4.95936
 30
0.0
 40
0.0059055
 41
0.0059055
  0
VERTEX
  8
0
 10
0.436686
 20
4.95936
 30
0.0
 40
0.0059055
 41
0.0059055
  0
VERTEX
  8
0
 10
0.441624
 20
4.95697
 30
0.0
 40
0.0059055
 41
0.0059055
  0
VERTEX
  8
0
 10
0.444011
 20
4.95449
 30
0.0
 40
0.0059055
 41
0.0059055
  0
VERTEX
  8
0
 10
0.446397
 20
4.94971
 30
0.0
 40
0.0059055
 41
0.0059055
  0
VERTEX
  8
0
 10
0.446397
 20
4.94476
 30
0.0
 40
0.0059055
 41
0.0059055
  0
VERTEX
  8
0
 10
0.444011
 20
4.93989
 30
0.0
 40
0.0059055
 41
0.0059055
  0
VERTEX
  8
0
 10
0.441624
 20
4.9375
 30
0.0
 40
0.0059055
 41
0.0059055
  0
VERTEX
  8
0
 10
0.436686
 20
4.935
 30
0.0
 40
0.0059055
 41
0.0059055
  0
VERTEX
  8
0
 10
0.419596
 20
4.935
 30
0.0
 40
0.0059055
 41
0.0059055
  0
SEQEND
 8
0
  0
POLYLINE
  8
0
 62
     0
 66
     1
 10
0
 20
0
 30
0.0
 40
0.425196
 41
0.425196
  0
VERTEX
  8
0
 10
0.448893
 20
2.94461
 30
0.0
 40
0.0059055
 41
0.0059055
  0
VERTEX
  8
0
 10
0.446397
 20
2.94217
 30
0.0
 40
0.0059055
 41
0.0059055
  0
VERTEX
  8
0
 10
0.439074
 20
2.93967
 30
0.0
 40
0.0059055
 41
0.0059055
  0
VERTEX
  8
0
 10
0.43419
 20
2.93967
 30
0.0
 40
0.0059055
 41
0.0059055
  0
VERTEX
  8
0
 10
0.426921
 20
2.94217
 30
0.0
 40
0.0059055
 41
0.0059055
  0
VERTEX
  8
0
 10
0.422092
 20
2.947
 30
0.0
 40
0.0059055
 41
0.0059055
  0
VERTEX
  8
0
 10
0.419596
 20
2.95188
 30
0.0
 40
0.0059055
 41
0.0059055
  0
VERTEX
  8
0
 10
0.41721
 20
2.96169
 30
0.0
 40
0.0059055
 41
0.0059055
  0
VERTEX
  8
0
 10
0.41721
 20
2.96897
 30
0.0
 40
0.0059055
 41
0.0059055
  0
VERTEX
  8
0
 10
0.419596
 20
2.97868
 30
0.0
 40
0.0059055
 41
0.0059055
  0
VERTEX
  8
0
 10
0.422092
 20
2.98356
 30
0.0
 40
0.0059055
 41
0.0059055
  0
VERTEX
  8
0
 10
0.426921
 20
2.9885
 30
0.0
 40
0.0059055
 41
0.0059055
  0
VERTEX
  8
0
 10
0.43419
 20
2.99089
 30
0.0
 40
0.0059055
 41
0.0059055
  0
VERTEX
  8
0
 10
0.439074
 20
2.99089
 30
0.0
 40
0.0059055
 41
0.0059055
  0
VERTEX
  8
0
 10
0.446397
 20
2.9885
 30
0.0
 40
0.0059055
 41
0.0059055
  0
VERTEX
  8
0
 10
0.448893
 20
2.986
 30
0.0
 40
0.0059055
 41
0.0059055
  0
SEQEND
 8
0
  0
POLYLINE
  8
0
 62
     0
 66
     1
 10
0
 20
0
 30
0.0
 70
     1
 40
0.425196
 41
0.425196
  0
VERTEX
  8
0
 10
0.419596
 20
0.971192
 30
0.0
 40
0.0059055
 41
0.0059055
  0
VERTEX
  8
0
 10
0.419596
 20
1.02241
 30
0.0
 40
0.0059055
 41
0.0059055
  0
VERTEX
  8
0
 10
0.431803
 20
1.02241
 30
0.0
 40
0.0059055
 41
0.0059055
  0
VERTEX
  8
0
 10
0.439074
 20
1.01997
 30
0.0
 40
0.0059055
 41
0.0059055
  0
VERTEX
  8
0
 10
0.444011
 20
1.01508
 30
0.0
 40
0.0059055
 41
0.0059055
  0
VERTEX
  8
0
 10
0.446397
 20
1.0102
 30
0.0
 40
0.0059055
 41
0.0059055
  0
VERTEX
  8
0
 10
0.448893
 20
1.00049
 30
0.0
 40
0.0059055
 41
0.0059055
  0
VERTEX
  8
0
 10
0.448893
 20
0.993164
 30
0.0
 40
0.0059055
 41
0.0059055
  0
VERTEX
  8
0
 10
0.446397
 20
0.983399
 30
0.0
 40
0.0059055
 41
0.0059055
  0
VERTEX
  8
0
 10
0.444011
 20
0.978461
 30
0.0
 40
0.0059055
 41
0.0059055
  0
VERTEX
  8
0
 10
0.439074
 20
0.973687
 30
0.0
 40
0.0059055
 41
0.0059055
  0
VERTEX
  8
0
 10
0.431803
 20
0.971192
 30
0.0
 40
0.0059055
 41
0.0059055
  0
VERTEX
  8
0
 10
0.419596
 20
0.971192
 30
0.0
 40
0.0059055
 41
0.0059055
  0
SEQEND
 8
0
  0
POLYLINE
  8
0
 62
     0
 66
     1
 10
0
 20
0
 30
0.0
 40
0.425196
 41
0.425196
  0
VERTEX
  8
0
 10
11.2992
 20
5.91558
 30
0.0
 40
0.0059055
 41
0.0059055
  0
VERTEX
  8
0
 10
11.2205
 20
5.91558
 30
0.0
 40
0.0059055
 41
0.0059055
  0
SEQEND
 8
0
  0
POLYLINE
  8
0
 62
     0
 66
     1
 10
0
 20
0
 30
0.0
 40
0.425196
 41
0.425196
  0
VERTEX
  8
0
 10
11.2992
 20
3.9471
 30
0.0
 40
0.0059055
 41
0.0059055
  0
VERTEX
  8
0
 10
11.2205
 20
3.9471
 30
0.0
 40
0.0059055
 41
0.0059055
  0
SEQEND
 8
0
  0
POLYLINE
  8
0
 62
     0
 66
     1
 10
0
 20
0
 30
0.0
 40
0.425196
 41
0.425196
  0
VERTEX
  8
0
 10
11.2992
 20
1.97857
 30
0.0
 40
0.0059055
 41
0.0059055
  0
VERTEX
  8
0
 10
11.2205
 20
1.97857
 30
0.0
 40
0.0059055
 41
0.0059055
  0
SEQEND
 8
0
  0
POLYLINE
  8
0
 62
     0
 66
     1
 10
0
 20
0
 30
0.0
 40
0.425196
 41
0.425196
  0
VERTEX
  8
0
 10
11.2477
 20
6.89139
 30
0.0
 40
0.0059055
 41
0.0059055
  0
VERTEX
  8
0
 10
11.2721
 20
6.89139
 30
0.0
 40
0.0059055
 41
0.0059055
  0
SEQEND
 8
0
  0
POLYLINE
  8
0
 62
     0
 66
     1
 10
0
 20
0
 30
0.0
 40
0.425196
 41
0.425196
  0
VERTEX
  8
0
 10
11.2428
 20
6.87668
 30
0.0
 40
0.0059055
 41
0.0059055
  0
VERTEX
  8
0
 10
11.2599
 20
6.9279
 30
0.0
 40
0.0059055
 41
0.0059055
  0
VERTEX
  8
0
 10
11.2769
 20
6.87668
 30
0.0
 40
0.0059055
 41
0.0059055
  0
SEQEND
 8
0
  0
POLYLINE
  8
0
 62
     0
 66
     1
 10
0
 20
0
 30
0.0
 40
0.425196
 41
0.425196
  0
VERTEX
  8
0
 10
11.2635
 20
4.935
 30
0.0
 40
0.0059055
 41
0.0059055
  0
VERTEX
  8
0
 10
11.2708
 20
4.93257
 30
0.0
 40
0.0059055
 41
0.0059055
  0
VERTEX
  8
0
 10
11.2733
 20
4.93018
 30
0.0
 40
0.0059055
 41
0.0059055
  0
VERTEX
  8
0
 10
11.2757
 20
4.92529
 30
0.0
 40
0.0059055
 41
0.0059055
  0
VERTEX
  8
0
 10
11.2757
 20
4.91797
 30
0.0
 40
0.0059055
 41
0.0059055
  0
VERTEX
  8
0
 10
11.2733
 20
4.91308
 30
0.0
 40
0.0059055
 41
0.0059055
  0
VERTEX
  8
0
 10
11.2708
 20
4.91069
 30
0.0
 40
0.0059055
 41
0.0059055
  0
VERTEX
  8
0
 10
11.266
 20
4.90821
 30
0.0
 40
0.0059055
 41
0.0059055
  0
VERTEX
  8
0
 10
11.2465
 20
4.90821
 30
0.0
 40
0.0059055
 41
0.0059055
  0
VERTEX
  8
0
 10
11.2465
 20
4.95936
 30
0.0
 40
0.0059055
 41
0.0059055
  0
VERTEX
  8
0
 10
11.2635
 20
4.95936
 30
0.0
 40
0.0059055
 41
0.0059055
  0
VERTEX
  8
0
 10
11.2684
 20
4.95697
 30
0.0
 40
0.0059055
 41
0.0059055
  0
VERTEX
  8
0
 10
11.2708
 20
4.95449
 30
0.0
 40
0.0059055
 41
0.0059055
  0
VERTEX
  8
0
 10
11.2733
 20
4.94971
 30
0.0
 40
0.0059055
 41
0.0059055
  0
VERTEX
  8
0
 10
11.2733
 20
4.94476
 30
0.0
 40
0.0059055
 41
0.0059055
  0
VERTEX
  8
0
 10
11.2708
 20
4.93989
 30
0.0
 40
0.0059055
 41
0.0059055
  0
VERTEX
  8
0
 10
11.2684
 20
4.9375
 30
0.0
 40
0.0059055
 41
0.0059055
  0
VERTEX
  8
0
 10
11.2635
 20
4.935
 30
0.0
 40
0.0059055
 41
0.0059055
  0
VERTEX
  8
0
 10
11.2465
 20
4.935
 30
0.0
 40
0.0059055
 41
0.0059055
  0
SEQEND
 8
0
  0
POLYLINE
  8
0
 62
     0
 66
     1
 10
0
 20
0
 30
0.0
 40
0.425196
 41
0.425196
  0
VERTEX
  8
0
 10
11.2757
 20
2.94461
 30
0.0
 40
0.0059055
 41
0.0059055
  0
VERTEX
  8
0
 10
11.2733
 20
2.94217
 30
0.0
 40
0.0059055
 41
0.0059055
  0
VERTEX
  8
0
 10
11.266
 20
2.93967
 30
0.0
 40
0.0059055
 41
0.0059055
  0
VERTEX
  8
0
 10
11.2611
 20
2.93967
 30
0.0
 40
0.0059055
 41
0.0059055
  0
VERTEX
  8
0
 10
11.2538
 20
2.94217
 30
0.0
 40
0.0059055
 41
0.0059055
  0
VERTEX
  8
0
 10
11.2489
 20
2.947
 30
0.0
 40
0.0059055
 41
0.0059055
  0
VERTEX
  8
0
 10
11.2465
 20
2.95188
 30
0.0
 40
0.0059055
 41
0.0059055
  0
VERTEX
  8
0
 10
11.244
 20
2.96169
 30
0.0
 40
0.0059055
 41
0.0059055
  0
VERTEX
  8
0
 10
11.244
 20
2.96897
 30
0.0
 40
0.0059055
 41
0.0059055
  0
VERTEX
  8
0
 10
11.2465
 20
2.97868
 30
0.0
 40
0.0059055
 41
0.0059055
  0
VERTEX
  8
0
 10
11.2489
 20
2.98356
 30
0.0
 40
0.0059055
 41
0.0059055
  0
VERTEX
  8
0
 10
11.2538
 20
2.9885
 30
0.0
 40
0.0059055
 41
0.0059055
  0
VERTEX
  8
0
 10
11.2611
 20
2.99089
 30
0.0
 40
0.0059055
 41
0.0059055
  0
VERTEX
  8
0
 10
11.266
 20
2.99089
 30
0.0
 40
0.0059055
 41
0.0059055
  0
VERTEX
  8
0
 10
11.2733
 20
2.9885
 30
0.0
 40
0.0059055
 41
0.0059055
  0
VERTEX
  8
0
 10
11.2757
 20
2.986
 30
0.0
 40
0.0059055
 41
0.0059055
  0
SEQEND
 8
0
  0
POLYLINE
  8
0
 62
     0
 66
     1
 10
0
 20
0
 30
0.0
 70
     1
 40
0.425196
 41
0.425196
  0
VERTEX
  8
0
 10
11.2465
 20
0.971192
 30
0.0
 40
0.0059055
 41
0.0059055
  0
VERTEX
  8
0
 10
11.2465
 20
1.02241
 30
0.0
 40
0.0059055
 41
0.0059055
  0
VERTEX
  8
0
 10
11.2587
 20
1.02241
 30
0.0
 40
0.0059055
 41
0.0059055
  0
VERTEX
  8
0
 10
11.266
 20
1.01997
 30
0.0
 40
0.0059055
 41
0.0059055
  0
VERTEX
  8
0
 10
11.2708
 20
1.01508
 30
0.0
 40
0.0059055
 41
0.0059055
  0
VERTEX
  8
0
 10
11.2733
 20
1.0102
 30
0.0
 40
0.0059055
 41
0.0059055
  0
VERTEX
  8
0
 10
11.2757
 20
1.00049
 30
0.0
 40
0.0059055
 41
0.0059055
  0
VERTEX
  8
0
 10
11.2757
 20
0.993164
 30
0.0
 40
0.0059055
 41
0.0059055
  0
VERTEX
  8
0
 10
11.2733
 20
0.983399
 30
0.0
 40
0.0059055
 41
0.0059055
  0
VERTEX
  8
0
 10
11.2708
 20
0.978461
 30
0.0
 40
0.0059055
 41
0.0059055
  0
VERTEX
  8
0
 10
11.266
 20
0.973687
 30
0.0
 40
0.0059055
 41
0.0059055
  0
VERTEX
  8
0
 10
11.2587
 20
0.971192
 30
0.0
 40
0.0059055
 41
0.0059055
  0
VERTEX
  8
0
 10
11.2465
 20
0.971192
 30
0.0
 40
0.0059055
 41
0.0059055
  0
SEQEND
 8
0
  0
POLYLINE
  8
0
 62
     0
 66
     1
 10
0
 20
0
 30
0.0
 70
     1
 40
0.425196
 41
0.425196
  0
VERTEX
  8
0
 10
7.88807
 20
0.648492
 30
0.0
 40
0.0059055
 41
0.0059055
  0
VERTEX
  8
0
 10
7.88807
 20
0.707465
 30
0.0
 40
0.0059055
 41
0.0059055
  0
VERTEX
  8
0
 10
7.90218
 20
0.707465
 30
0.0
 40
0.0059055
 41
0.0059055
  0
VERTEX
  8
0
 10
7.9106
 20
0.704699
 30
0.0
 40
0.0059055
 41
0.0059055
  0
VERTEX
  8
0
 10
7.91618
 20
0.69911
 30
0.0
 40
0.0059055
 41
0.0059055
  0
VERTEX
  8
0
 10
7.919
 20
0.693468
 30
0.0
 40
0.0059055
 41
0.0059055
  0
VERTEX
  8
0
 10
7.92188
 20
0.682183
 30
0.0
 40
0.0059055
 41
0.0059055
  0
VERTEX
  8
0
 10
7.92188
 20
0.673774
 30
0.0
 40
0.0059055
 41
0.0059055
  0
VERTEX
  8
0
 10
7.919
 20
0.662489
 30
0.0
 40
0.0059055
 41
0.0059055
  0
VERTEX
  8
0
 10
7.91618
 20
0.656901
 30
0.0
 40
0.0059055
 41
0.0059055
  0
VERTEX
  8
0
 10
7.9106
 20
0.651258
 30
0.0
 40
0.0059055
 41
0.0059055
  0
VERTEX
  8
0
 10
7.90218
 20
0.648492
 30
0.0
 40
0.0059055
 41
0.0059055
  0
VERTEX
  8
0
 10
7.88807
 20
0.648492
 30
0.0
 40
0.0059055
 41
0.0059055
  0
SEQEND
 8
0
  0
POLYLINE
  8
0
 62
     0
 66
     1
 10
0
 20
0
 30
0.0
 40
0.425196
 41
0.425196
  0
VERTEX
  8
0
 10
7.9725
 20
0.648492
 30
0.0
 40
0.0059055
 41
0.0059055
  0
VERTEX
  8
0
 10
7.9725
 20
0.679363
 30
0.0
 40
0.0059055
 41
0.0059055
  0
VERTEX
  8
0
 10
7.96967
 20
0.685004
 30
0.0
 40
0.0059055
 41
0.0059055
  0
VERTEX
  8
0
 10
7.96397
 20
0.687879
 30
0.0
 40
0.0059055
 41
0.0059055
  0
VERTEX
  8
0
 10
7.95281
 20
0.687879
 30
0.0
 40
0.0059055
 41
0.0059055
  0
VERTEX
  8
0
 10
7.94721
 20
0.685004
 30
0.0
 40
0.0059055
 41
0.0059055
  0
SEQEND
 8
0
  0
POLYLINE
  8
0
 62
     0
 66
     1
 10
0
 20
0
 30
0.0
 40
0.425196
 41
0.425196
  0
VERTEX
  8
0
 10
7.9725
 20
0.651258
 30
0.0
 40
0.0059055
 41
0.0059055
  0
VERTEX
  8
0
 10
7.9669
 20
0.648492
 30
0.0
 40
0.0059055
 41
0.0059055
  0
VERTEX
  8
0
 10
7.95281
 20
0.648492
 30
0.0
 40
0.0059055
 41
0.0059055
  0
VERTEX
  8
0
 10
7.94721
 20
0.651258
 30
0.0
 40
0.0059055
 41
0.0059055
  0
VERTEX
  8
0
 10
7.94439
 20
0.656901
 30
0.0
 40
0.0059055
 41
0.0059055
  0
VERTEX
  8
0
 10
7.94439
 20
0.662489
 30
0.0
 40
0.0059055
 41
0.0059055
  0
VERTEX
  8
0
 10
7.94721
 20
0.668186
 30
0.0
 40
0.0059055
 41
0.0059055
  0
VERTEX
  8
0
 10
7.95281
 20
0.671007
 30
0.0
 40
0.0059055
 41
0.0059055
  0
VERTEX
  8
0
 10
7.9669
 20
0.671007
 30
0.0
 40
0.0059055
 41
0.0059055
  0
VERTEX
  8
0
 10
7.9725
 20
0.673774
 30
0.0
 40
0.0059055
 41
0.0059055
  0
SEQEND
 8
0
  0
POLYLINE
  8
0
 62
     0
 66
     1
 10
0
 20
0
 30
0.0
 40
0.425196
 41
0.425196
  0
VERTEX
  8
0
 10
7.99219
 20
0.687879
 30
0.0
 40
0.0059055
 41
0.0059055
  0
VERTEX
  8
0
 10
8.01471
 20
0.687879
 30
0.0
 40
0.0059055
 41
0.0059055
  0
SEQEND
 8
0
  0
POLYLINE
  8
0
 62
     0
 66
     1
 10
0
 20
0
 30
0.0
 40
0.425196
 41
0.425196
  0
VERTEX
  8
0
 10
8.0006
 20
0.707465
 30
0.0
 40
0.0059055
 41
0.0059055
  0
VERTEX
  8
0
 10
8.0006
 20
0.656901
 30
0.0
 40
0.0059055
 41
0.0059055
  0
VERTEX
  8
0
 10
8.00342
 20
0.651258
 30
0.0
 40
0.0059055
 41
0.0059055
  0
VERTEX
  8
0
 10
8.009
 20
0.648492
 30
0.0
 40
0.0059055
 41
0.0059055
  0
VERTEX
  8
0
 10
8.01471
 20
0.648492
 30
0.0
 40
0.0059055
 41
0.0059055
  0
SEQEND
 8
0
  0
POLYLINE
  8
0
 62
     0
 66
     1
 10
0
 20
0
 30
0.0
 40
0.425196
 41
0.425196
  0
VERTEX
  8
0
 10
8.05681
 20
0.651258
 30
0.0
 40
0.0059055
 41
0.0059055
  0
VERTEX
  8
0
 10
8.05122
 20
0.648492
 30
0.0
 40
0.0059055
 41
0.0059055
  0
VERTEX
  8
0
 10
8.03999
 20
0.648492
 30
0.0
 40
0.0059055
 41
0.0059055
  0
VERTEX
  8
0
 10
8.03429
 20
0.651258
 30
0.0
 40
0.0059055
 41
0.0059055
  0
VERTEX
  8
0
 10
8.03147
 20
0.656901
 30
0.0
 40
0.0059055
 41
0.0059055
  0
VERTEX
  8
0
 10
8.03147
 20
0.679363
 30
0.0
 40
0.0059055
 41
0.0059055
  0
VERTEX
  8
0
 10
8.03429
 20
0.685004
 30
0.0
 40
0.0059055
 41
0.0059055
  0
VERTEX
  8
0
 10
8.03999
 20
0.687879
 30
0.0
 40
0.0059055
 41
0.0059055
  0
VERTEX
  8
0
 10
8.05122
 20
0.687879
 30
0.0
 40
0.0059055
 41
0.0059055
  0
VERTEX
  8
0
 10
8.05681
 20
0.685004
 30
0.0
 40
0.0059055
 41
0.0059055
  0
VERTEX
  8
0
 10
8.05968
 20
0.679363
 30
0.0
 40
0.0059055
 41
0.0059055
  0
VERTEX
  8
0
 10
8.05968
 20
0.673774
 30
0.0
 40
0.0059055
 41
0.0059055
  0
VERTEX
  8
0
 10
8.03147
 20
0.668186
 30
0.0
 40
0.0059055
 41
0.0059055
  0
SEQEND
 8
0
  0
POLYLINE
  8
0
 62
     0
 66
     1
 10
0
 20
0
 30
0.0
 40
0.425196
 41
0.425196
  0
VERTEX
  8
0
 10
8.08501
 20
0.654081
 30
0.0
 40
0.0059055
 41
0.0059055
  0
VERTEX
  8
0
 10
8.08778
 20
0.651258
 30
0.0
 40
0.0059055
 41
0.0059055
  0
VERTEX
  8
0
 10
8.08501
 20
0.648492
 30
0.0
 40
0.0059055
 41
0.0059055
  0
VERTEX
  8
0
 10
8.08219
 20
0.651258
 30
0.0
 40
0.0059055
 41
0.0059055
  0
VERTEX
  8
0
 10
8.08501
 20
0.654081
 30
0.0
 40
0.0059055
 41
0.0059055
  0
VERTEX
  8
0
 10
8.08501
 20
0.648492
 30
0.0
 40
0.0059055
 41
0.0059055
  0
SEQEND
 8
0
  0
POLYLINE
  8
0
 62
     0
 66
     1
 10
0
 20
0
 30
0.0
 40
0.425196
 41
0.425196
  0
VERTEX
  8
0
 10
8.08501
 20
0.685004
 30
0.0
 40
0.0059055
 41
0.0059055
  0
VERTEX
  8
0
 10
8.08778
 20
0.682183
 30
0.0
 40
0.0059055
 41
0.0059055
  0
VERTEX
  8
0
 10
8.08501
 20
0.679363
 30
0.0
 40
0.0059055
 41
0.0059055
  0
VERTEX
  8
0
 10
8.08219
 20
0.682183
 30
0.0
 40
0.0059055
 41
0.0059055
  0
VERTEX
  8
0
 10
8.08501
 20
0.685004
 30
0.0
 40
0.0059055
 41
0.0059055
  0
VERTEX
  8
0
 10
8.08501
 20
0.679363
 30
0.0
 40
0.0059055
 41
0.0059055
  0
SEQEND
 8
0
  0
POLYLINE
  8
0
 62
     0
 66
     1
 10
0
 20
0
 30
0.0
 40
0.425196
 41
0.425196
  0
VERTEX
  8
0
 10
6.96847
 20
0.620063
 30
0.0
 40
0.0059055
 41
0.0059055
  0
VERTEX
  8
0
 10
11.2205
 20
0.620063
 30
0.0
 40
0.0059055
 41
0.0059055
  0
SEQEND
 8
0
  0
POLYLINE
  8
0
 62
     0
 66
     1
 10
0
 20
0
 30
0.0
 40
0.425196
 41
0.425196
  0
VERTEX
  8
0
 10
7.02197
 20
0.538303
 30
0.0
 40
0.0059055
 41
0.0059055
  0
VERTEX
  8
0
 10
7.02197
 20
0.597276
 30
0.0
 40
0.0059055
 41
0.0059055
  0
SEQEND
 8
0
  0
POLYLINE
  8
0
 62
     0
 66
     1
 10
0
 20
0
 30
0.0
 40
0.425196
 41
0.425196
  0
VERTEX
  8
0
 10
7.05572
 20
0.538303
 30
0.0
 40
0.0059055
 41
0.0059055
  0
VERTEX
  8
0
 10
7.03039
 20
0.571994
 30
0.0
 40
0.0059055
 41
0.0059055
  0
SEQEND
 8
0
  0
POLYLINE
  8
0
 62
     0
 66
     1
 10
0
 20
0
 30
0.0
 40
0.425196
 41
0.425196
  0
VERTEX
  8
0
 10
7.05572
 20
0.597276
 30
0.0
 40
0.0059055
 41
0.0059055
  0
VERTEX
  8
0
 10
7.02197
 20
0.563585
 30
0.0
 40
0.0059055
 41
0.0059055
  0
SEQEND
 8
0
  0
POLYLINE
  8
0
 62
     0
 66
     1
 10
0
 20
0
 30
0.0
 40
0.425196
 41
0.425196
  0
VERTEX
  8
0
 10
7.081
 20
0.538303
 30
0.0
 40
0.0059055
 41
0.0059055
  0
VERTEX
  8
0
 10
7.081
 20
0.577582
 30
0.0
 40
0.0059055
 41
0.0059055
  0
SEQEND
 8
0
  0
POLYLINE
  8
0
 62
     0
 66
     1
 10
0
 20
0
 30
0.0
 40
0.425196
 41
0.425196
  0
VERTEX
  8
0
 10
7.081
 20
0.597276
 30
0.0
 40
0.0059055
 41
0.0059055
  0
VERTEX
  8
0
 10
7.07818
 20
0.59451
 30
0.0
 40
0.0059055
 41
0.0059055
  0
VERTEX
  8
0
 10
7.081
 20
0.591689
 30
0.0
 40
0.0059055
 41
0.0059055
  0
VERTEX
  8
0
 10
7.08376
 20
0.59451
 30
0.0
 40
0.0059055
 41
0.0059055
  0
VERTEX
  8
0
 10
7.081
 20
0.597276
 30
0.0
 40
0.0059055
 41
0.0059055
  0
VERTEX
  8
0
 10
7.081
 20
0.591689
 30
0.0
 40
0.0059055
 41
0.0059055
  0
SEQEND
 8
0
  0
POLYLINE
  8
0
 62
     0
 66
     1
 10
0
 20
0
 30
0.0
 40
0.425196
 41
0.425196
  0
VERTEX
  8
0
 10
7.1429
 20
0.543892
 30
0.0
 40
0.0059055
 41
0.0059055
  0
VERTEX
  8
0
 10
7.14008
 20
0.541069
 30
0.0
 40
0.0059055
 41
0.0059055
  0
VERTEX
  8
0
 10
7.13162
 20
0.538303
 30
0.0
 40
0.0059055
 41
0.0059055
  0
VERTEX
  8
0
 10
7.12597
 20
0.538303
 30
0.0
 40
0.0059055
 41
0.0059055
  0
VERTEX
  8
0
 10
7.11757
 20
0.541069
 30
0.0
 40
0.0059055
 41
0.0059055
  0
VERTEX
  8
0
 10
7.11199
 20
0.546658
 30
0.0
 40
0.0059055
 41
0.0059055
  0
VERTEX
  8
0
 10
7.1091
 20
0.5523
 30
0.0
 40
0.0059055
 41
0.0059055
  0
VERTEX
  8
0
 10
7.10628
 20
0.563585
 30
0.0
 40
0.0059055
 41
0.0059055
  0
VERTEX
  8
0
 10
7.10628
 20
0.571994
 30
0.0
 40
0.0059055
 41
0.0059055
  0
VERTEX
  8
0
 10
7.1091
 20
0.583171
 30
0.0
 40
0.0059055
 41
0.0059055
  0
VERTEX
  8
0
 10
7.11199
 20
0.588867
 30
0.0
 40
0.0059055
 41
0.0059055
  0
VERTEX
  8
0
 10
7.11757
 20
0.59451
 30
0.0
 40
0.0059055
 41
0.0059055
  0
VERTEX
  8
0
 10
7.12597
 20
0.597276
 30
0.0
 40
0.0059055
 41
0.0059055
  0
VERTEX
  8
0
 10
7.13162
 20
0.597276
 30
0.0
 40
0.0059055
 41
0.0059055
  0
VERTEX
  8
0
 10
7.14008
 20
0.59451
 30
0.0
 40
0.0059055
 41
0.0059055
  0
VERTEX
  8
0
 10
7.1429
 20
0.591689
 30
0.0
 40
0.0059055
 41
0.0059055
  0
SEQEND
 8
0
  0
POLYLINE
  8
0
 62
     0
 66
     1
 10
0
 20
0
 30
0.0
 40
0.425196
 41
0.425196
  0
VERTEX
  8
0
 10
7.19347
 20
0.538303
 30
0.0
 40
0.0059055
 41
0.0059055
  0
VERTEX
  8
0
 10
7.19347
 20
0.569174
 30
0.0
 40
0.0059055
 41
0.0059055
  0
VERTEX
  8
0
 10
7.19069
 20
0.574761
 30
0.0
 40
0.0059055
 41
0.0059055
  0
VERTEX
  8
0
 10
7.18511
 20
0.577582
 30
0.0
 40
0.0059055
 41
0.0059055
  0
VERTEX
  8
0
 10
7.17378
 20
0.577582
 30
0.0
 40
0.0059055
 41
0.0059055
  0
VERTEX
  8
0
 10
7.16818
 20
0.574761
 30
0.0
 40
0.0059055
 41
0.0059055
  0
SEQEND
 8
0
  0
POLYLINE
  8
0
 62
     0
 66
     1
 10
0
 20
0
 30
0.0
 40
0.425196
 41
0.425196
  0
VERTEX
  8
0
 10
7.19347
 20
0.541069
 30
0.0
 40
0.0059055
 41
0.0059055
  0
VERTEX
  8
0
 10
7.18787
 20
0.538303
 30
0.0
 40
0.0059055
 41
0.0059055
  0
VERTEX
  8
0
 10
7.17378
 20
0.538303
 30
0.0
 40
0.0059055
 41
0.0059055
  0
VERTEX
  8
0
 10
7.16818
 20
0.541069
 30
0.0
 40
0.0059055
 41
0.0059055
  0
VERTEX
  8
0
 10
7.16542
 20
0.546658
 30
0.0
 40
0.0059055
 41
0.0059055
  0
VERTEX
  8
0
 10
7.16542
 20
0.5523
 30
0.0
 40
0.0059055
 41
0.0059055
  0
VERTEX
  8
0
 10
7.16818
 20
0.557889
 30
0.0
 40
0.0059055
 41
0.0059055
  0
VERTEX
  8
0
 10
7.17378
 20
0.56071
 30
0.0
 40
0.0059055
 41
0.0059055
  0
VERTEX
  8
0
 10
7.18787
 20
0.56071
 30
0.0
 40
0.0059055
 41
0.0059055
  0
VERTEX
  8
0
 10
7.19347
 20
0.563585
 30
0.0
 40
0.0059055
 41
0.0059055
  0
SEQEND
 8
0
  0
POLYLINE
  8
0
 62
     0
 66
     1
 10
0
 20
0
 30
0.0
 40
0.425196
 41
0.425196
  0
VERTEX
  8
0
 10
7.2469
 20
0.538303
 30
0.0
 40
0.0059055
 41
0.0059055
  0
VERTEX
  8
0
 10
7.2469
 20
0.597276
 30
0.0
 40
0.0059055
 41
0.0059055
  0
SEQEND
 8
0
  0
POLYLINE
  8
0
 62
     0
 66
     1
 10
0
 20
0
 30
0.0
 40
0.425196
 41
0.425196
  0
VERTEX
  8
0
 10
7.2469
 20
0.541069
 30
0.0
 40
0.0059055
 41
0.0059055
  0
VERTEX
  8
0
 10
7.24132
 20
0.538303
 30
0.0
 40
0.0059055
 41
0.0059055
  0
VERTEX
  8
0
 10
7.23008
 20
0.538303
 30
0.0
 40
0.0059055
 41
0.0059055
  0
VERTEX
  8
0
 10
7.22439
 20
0.541069
 30
0.0
 40
0.0059055
 41
0.0059055
  0
VERTEX
  8
0
 10
7.22157
 20
0.543892
 30
0.0
 40
0.0059055
 41
0.0059055
  0
VERTEX
  8
0
 10
7.21881
 20
0.549479
 30
0.0
 40
0.0059055
 41
0.0059055
  0
VERTEX
  8
0
 10
7.21881
 20
0.566407
 30
0.0
 40
0.0059055
 41
0.0059055
  0
VERTEX
  8
0
 10
7.22157
 20
0.571994
 30
0.0
 40
0.0059055
 41
0.0059055
  0
VERTEX
  8
0
 10
7.22439
 20
0.574761
 30
0.0
 40
0.0059055
 41
0.0059055
  0
VERTEX
  8
0
 10
7.23008
 20
0.577582
 30
0.0
 40
0.0059055
 41
0.0059055
  0
VERTEX
  8
0
 10
7.24132
 20
0.577582
 30
0.0
 40
0.0059055
 41
0.0059055
  0
VERTEX
  8
0
 10
7.2469
 20
0.574761
 30
0.0
 40
0.0059055
 41
0.0059055
  0
SEQEND
 8
0
  0
POLYLINE
  8
0
 62
     0
 66
     1
 10
0
 20
0
 30
0.0
 40
0.425196
 41
0.425196
  0
VERTEX
  8
0
 10
7.3201
 20
0.569174
 30
0.0
 40
0.0059055
 41
0.0059055
  0
VERTEX
  8
0
 10
7.33968
 20
0.569174
 30
0.0
 40
0.0059055
 41
0.0059055
  0
SEQEND
 8
0
  0
POLYLINE
  8
0
 62
     0
 66
     1
 10
0
 20
0
 30
0.0
 40
0.425196
 41
0.425196
  0
VERTEX
  8
0
 10
7.34819
 20
0.538303
 30
0.0
 40
0.0059055
 41
0.0059055
  0
VERTEX
  8
0
 10
7.3201
 20
0.538303
 30
0.0
 40
0.0059055
 41
0.0059055
  0
VERTEX
  8
0
 10
7.3201
 20
0.597276
 30
0.0
 40
0.0059055
 41
0.0059055
  0
VERTEX
  8
0
 10
7.34819
 20
0.597276
 30
0.0
 40
0.0059055
 41
0.0059055
  0
SEQEND
 8
0
  0
POLYLINE
  8
0
 62
     0
 66
     1
 10
0
 20
0
 30
0.0
 40
0.425196
 41
0.425196
  0
VERTEX
  8
0
 10
7.37349
 20
0.543892
 30
0.0
 40
0.0059055
 41
0.0059055
  0
VERTEX
  8
0
 10
7.37631
 20
0.541069
 30
0.0
 40
0.0059055
 41
0.0059055
  0
VERTEX
  8
0
 10
7.37349
 20
0.538303
 30
0.0
 40
0.0059055
 41
0.0059055
  0
VERTEX
  8
0
 10
7.37071
 20
0.541069
 30
0.0
 40
0.0059055
 41
0.0059055
  0
VERTEX
  8
0
 10
7.37349
 20
0.543892
 30
0.0
 40
0.0059055
 41
0.0059055
  0
VERTEX
  8
0
 10
7.37349
 20
0.538303
 30
0.0
 40
0.0059055
 41
0.0059055
  0
SEQEND
 8
0
  0
POLYLINE
  8
0
 62
     0
 66
     1
 10
0
 20
0
 30
0.0
 70
     1
 40
0.425196
 41
0.425196
  0
VERTEX
  8
0
 10
7.40158
 20
0.538303
 30
0.0
 40
0.0059055
 41
0.0059055
  0
VERTEX
  8
0
 10
7.40158
 20
0.597276
 30
0.0
 40
0.0059055
 41
0.0059055
  0
VERTEX
  8
0
 10
7.41569
 20
0.597276
 30
0.0
 40
0.0059055
 41
0.0059055
  0
VERTEX
  8
0
 10
7.4241
 20
0.59451
 30
0.0
 40
0.0059055
 41
0.0059055
  0
VERTEX
  8
0
 10
7.42969
 20
0.588867
 30
0.0
 40
0.0059055
 41
0.0059055
  0
VERTEX
  8
0
 10
7.43251
 20
0.583171
 30
0.0
 40
0.0059055
 41
0.0059055
  0
VERTEX
  8
0
 10
7.43539
 20
0.571994
 30
0.0
 40
0.0059055
 41
0.0059055
  0
VERTEX
  8
0
 10
7.43539
 20
0.563585
 30
0.0
 40
0.0059055
 41
0.0059055
  0
VERTEX
  8
0
 10
7.43251
 20
0.5523
 30
0.0
 40
0.0059055
 41
0.0059055
  0
VERTEX
  8
0
 10
7.42969
 20
0.546658
 30
0.0
 40
0.0059055
 41
0.0059055
  0
VERTEX
  8
0
 10
7.4241
 20
0.541069
 30
0.0
 40
0.0059055
 41
0.0059055
  0
VERTEX
  8
0
 10
7.41569
 20
0.538303
 30
0.0
 40
0.0059055
 41
0.0059055
  0
VERTEX
  8
0
 10
7.40158
 20
0.538303
 30
0.0
 40
0.0059055
 41
0.0059055
  0
SEQEND
 8
0
  0
POLYLINE
  8
0
 62
     0
 66
     1
 10
0
 20
0
 30
0.0
 40
0.425196
 41
0.425196
  0
VERTEX
  8
0
 10
7.46072
 20
0.543892
 30
0.0
 40
0.0059055
 41
0.0059055
  0
VERTEX
  8
0
 10
7.46349
 20
0.541069
 30
0.0
 40
0.0059055
 41
0.0059055
  0
VERTEX
  8
0
 10
7.46072
 20
0.538303
 30
0.0
 40
0.0059055
 41
0.0059055
  0
VERTEX
  8
0
 10
7.4579
 20
0.541069
 30
0.0
 40
0.0059055
 41
0.0059055
  0
VERTEX
  8
0
 10
7.46072
 20
0.543892
 30
0.0
 40
0.0059055
 41
0.0059055
  0
VERTEX
  8
0
 10
7.46072
 20
0.538303
 30
0.0
 40
0.0059055
 41
0.0059055
  0
SEQEND
 8
0
  0
POLYLINE
  8
0
 62
     0
 66
     1
 10
0
 20
0
 30
0.0
 40
0.425196
 41
0.425196
  0
VERTEX
  8
0
 10
7.486
 20
0.555067
 30
0.0
 40
0.0059055
 41
0.0059055
  0
VERTEX
  8
0
 10
7.51411
 20
0.555067
 30
0.0
 40
0.0059055
 41
0.0059055
  0
SEQEND
 8
0
  0
POLYLINE
  8
0
 62
     0
 66
     1
 10
0
 20
0
 30
0.0
 40
0.425196
 41
0.425196
  0
VERTEX
  8
0
 10
7.48042
 20
0.538303
 30
0.0
 40
0.0059055
 41
0.0059055
  0
VERTEX
  8
0
 10
7.5
 20
0.597276
 30
0.0
 40
0.0059055
 41
0.0059055
  0
VERTEX
  8
0
 10
7.51969
 20
0.538303
 30
0.0
 40
0.0059055
 41
0.0059055
  0
SEQEND
 8
0
  0
POLYLINE
  8
0
 62
     0
 66
     1
 10
0
 20
0
 30
0.0
 40
0.425196
 41
0.425196
  0
VERTEX
  8
0
 10
7.53939
 20
0.543892
 30
0.0
 40
0.0059055
 41
0.0059055
  0
VERTEX
  8
0
 10
7.54221
 20
0.541069
 30
0.0
 40
0.0059055
 41
0.0059055
  0
VERTEX
  8
0
 10
7.53939
 20
0.538303
 30
0.0
 40
0.0059055
 41
0.0059055
  0
VERTEX
  8
0
 10
7.53657
 20
0.541069
 30
0.0
 40
0.0059055
 41
0.0059055
  0
VERTEX
  8
0
 10
7.53939
 20
0.543892
 30
0.0
 40
0.0059055
 41
0.0059055
  0
VERTEX
  8
0
 10
7.53939
 20
0.538303
 30
0.0
 40
0.0059055
 41
0.0059055
  0
SEQEND
 8
0
  0
POLYLINE
  8
0
 62
     0
 66
     1
 10
0
 20
0
 30
0.0
 40
0.425196
 41
0.425196
  0
VERTEX
  8
0
 10
7.6575
 20
0.538303
 30
0.0
 40
0.0059055
 41
0.0059055
  0
VERTEX
  8
0
 10
7.6575
 20
0.597276
 30
0.0
 40
0.0059055
 41
0.0059055
  0
SEQEND
 8
0
  0
POLYLINE
  8
0
 62
     0
 66
     1
 10
0
 20
0
 30
0.0
 40
0.425196
 41
0.425196
  0
VERTEX
  8
0
 10
7.66308
 20
0.56071
 30
0.0
 40
0.0059055
 41
0.0059055
  0
VERTEX
  8
0
 10
7.68001
 20
0.538303
 30
0.0
 40
0.0059055
 41
0.0059055
  0
SEQEND
 8
0
  0
POLYLINE
  8
0
 62
     0
 66
     1
 10
0
 20
0
 30
0.0
 40
0.425196
 41
0.425196
  0
VERTEX
  8
0
 10
7.68001
 20
0.577582
 30
0.0
 40
0.0059055
 41
0.0059055
  0
VERTEX
  8
0
 10
7.6575
 20
0.555067
 30
0.0
 40
0.0059055
 41
0.0059055
  0
SEQEND
 8
0
  0
POLYLINE
  8
0
 62
     0
 66
     1
 10
0
 20
0
 30
0.0
 40
0.425196
 41
0.425196
  0
VERTEX
  8
0
 10
7.70529
 20
0.538303
 30
0.0
 40
0.0059055
 41
0.0059055
  0
VERTEX
  8
0
 10
7.70529
 20
0.577582
 30
0.0
 40
0.0059055
 41
0.0059055
  0
SEQEND
 8
0
  0
POLYLINE
  8
0
 62
     0
 66
     1
 10
0
 20
0
 30
0.0
 40
0.425196
 41
0.425196
  0
VERTEX
  8
0
 10
7.70529
 20
0.597276
 30
0.0
 40
0.0059055
 41
0.0059055
  0
VERTEX
  8
0
 10
7.70247
 20
0.59451
 30
0.0
 40
0.0059055
 41
0.0059055
  0
VERTEX
  8
0
 10
7.70529
 20
0.591689
 30
0.0
 40
0.0059055
 41
0.0059055
  0
VERTEX
  8
0
 10
7.70811
 20
0.59451
 30
0.0
 40
0.0059055
 41
0.0059055
  0
VERTEX
  8
0
 10
7.70529
 20
0.597276
 30
0.0
 40
0.0059055
 41
0.0059055
  0
VERTEX
  8
0
 10
7.70529
 20
0.591689
 30
0.0
 40
0.0059055
 41
0.0059055
  0
SEQEND
 8
0
  0
POLYLINE
  8
0
 62
     0
 66
     1
 10
0
 20
0
 30
0.0
 40
0.425196
 41
0.425196
  0
VERTEX
  8
0
 10
7.75879
 20
0.541069
 30
0.0
 40
0.0059055
 41
0.0059055
  0
VERTEX
  8
0
 10
7.7531
 20
0.538303
 30
0.0
 40
0.0059055
 41
0.0059055
  0
VERTEX
  8
0
 10
7.74192
 20
0.538303
 30
0.0
 40
0.0059055
 41
0.0059055
  0
VERTEX
  8
0
 10
7.73628
 20
0.541069
 30
0.0
 40
0.0059055
 41
0.0059055
  0
VERTEX
  8
0
 10
7.7334
 20
0.543892
 30
0.0
 40
0.0059055
 41
0.0059055
  0
VERTEX
  8
0
 10
7.73058
 20
0.549479
 30
0.0
 40
0.0059055
 41
0.0059055
  0
VERTEX
  8
0
 10
7.73058
 20
0.566407
 30
0.0
 40
0.0059055
 41
0.0059055
  0
VERTEX
  8
0
 10
7.7334
 20
0.571994
 30
0.0
 40
0.0059055
 41
0.0059055
  0
VERTEX
  8
0
 10
7.73628
 20
0.574761
 30
0.0
 40
0.0059055
 41
0.0059055
  0
VERTEX
  8
0
 10
7.74192
 20
0.577582
 30
0.0
 40
0.0059055
 41
0.0059055
  0
VERTEX
  8
0
 10
7.7531
 20
0.577582
 30
0.0
 40
0.0059055
 41
0.0059055
  0
VERTEX
  8
0
 10
7.75879
 20
0.574761
 30
0.0
 40
0.0059055
 41
0.0059055
  0
SEQEND
 8
0
  0
POLYLINE
  8
0
 62
     0
 66
     1
 10
0
 20
0
 30
0.0
 40
0.425196
 41
0.425196
  0
VERTEX
  8
0
 10
7.8094
 20
0.538303
 30
0.0
 40
0.0059055
 41
0.0059055
  0
VERTEX
  8
0
 10
7.8094
 20
0.569174
 30
0.0
 40
0.0059055
 41
0.0059055
  0
VERTEX
  8
0
 10
7.80658
 20
0.574761
 30
0.0
 40
0.0059055
 41
0.0059055
  0
VERTEX
  8
0
 10
7.80089
 20
0.577582
 30
0.0
 40
0.0059055
 41
0.0059055
  0
VERTEX
  8
0
 10
7.78971
 20
0.577582
 30
0.0
 40
0.0059055
 41
0.0059055
  0
VERTEX
  8
0
 10
7.78407
 20
0.574761
 30
0.0
 40
0.0059055
 41
0.0059055
  0
SEQEND
 8
0
  0
POLYLINE
  8
0
 62
     0
 66
     1
 10
0
 20
0
 30
0.0
 40
0.425196
 41
0.425196
  0
VERTEX
  8
0
 10
7.8094
 20
0.541069
 30
0.0
 40
0.0059055
 41
0.0059055
  0
VERTEX
  8
0
 10
7.80371
 20
0.538303
 30
0.0
 40
0.0059055
 41
0.0059055
  0
VERTEX
  8
0
 10
7.78971
 20
0.538303
 30
0.0
 40
0.0059055
 41
0.0059055
  0
VERTEX
  8
0
 10
7.78407
 20
0.541069
 30
0.0
 40
0.0059055
 41
0.0059055
  0
VERTEX
  8
0
 10
7.78131
 20
0.546658
 30
0.0
 40
0.0059055
 41
0.0059055
  0
VERTEX
  8
0
 10
7.78131
 20
0.5523
 30
0.0
 40
0.0059055
 41
0.0059055
  0
VERTEX
  8
0
 10
7.78407
 20
0.557889
 30
0.0
 40
0.0059055
 41
0.0059055
  0
VERTEX
  8
0
 10
7.78971
 20
0.56071
 30
0.0
 40
0.0059055
 41
0.0059055
  0
VERTEX
  8
0
 10
7.80371
 20
0.56071
 30
0.0
 40
0.0059055
 41
0.0059055
  0
VERTEX
  8
0
 10
7.8094
 20
0.563585
 30
0.0
 40
0.0059055
 41
0.0059055
  0
SEQEND
 8
0
  0
POLYLINE
  8
0
 62
     0
 66
     1
 10
0
 20
0
 30
0.0
 40
0.425196
 41
0.425196
  0
VERTEX
  8
0
 10
7.86279
 20
0.538303
 30
0.0
 40
0.0059055
 41
0.0059055
  0
VERTEX
  8
0
 10
7.86279
 20
0.597276
 30
0.0
 40
0.0059055
 41
0.0059055
  0
SEQEND
 8
0
  0
POLYLINE
  8
0
 62
     0
 66
     1
 10
0
 20
0
 30
0.0
 40
0.425196
 41
0.425196
  0
VERTEX
  8
0
 10
7.86279
 20
0.541069
 30
0.0
 40
0.0059055
 41
0.0059055
  0
VERTEX
  8
0
 10
7.85721
 20
0.538303
 30
0.0
 40
0.0059055
 41
0.0059055
  0
VERTEX
  8
0
 10
7.84592
 20
0.538303
 30
0.0
 40
0.0059055
 41
0.0059055
  0
VERTEX
  8
0
 10
7.84028
 20
0.541069
 30
0.0
 40
0.0059055
 41
0.0059055
  0
VERTEX
  8
0
 10
7.83751
 20
0.543892
 30
0.0
 40
0.0059055
 41
0.0059055
  0
VERTEX
  8
0
 10
7.83469
 20
0.549479
 30
0.0
 40
0.0059055
 41
0.0059055
  0
VERTEX
  8
0
 10
7.83469
 20
0.566407
 30
0.0
 40
0.0059055
 41
0.0059055
  0
VERTEX
  8
0
 10
7.83751
 20
0.571994
 30
0.0
 40
0.0059055
 41
0.0059055
  0
VERTEX
  8
0
 10
7.84028
 20
0.574761
 30
0.0
 40
0.0059055
 41
0.0059055
  0
VERTEX
  8
0
 10
7.84592
 20
0.577582
 30
0.0
 40
0.0059055
 41
0.0059055
  0
VERTEX
  8
0
 10
7.85721
 20
0.577582
 30
0.0
 40
0.0059055
 41
0.0059055
  0
VERTEX
  8
0
 10
7.86279
 20
0.574761
 30
0.0
 40
0.0059055
 41
0.0059055
  0
SEQEND
 8
0
  0
POLYLINE
  8
0
 62
     0
 66
     1
 10
0
 20
0
 30
0.0
 40
0.425196
 41
0.425196
  0
VERTEX
  8
0
 10
7.96121
 20
0.577582
 30
0.0
 40
0.0059055
 41
0.0059055
  0
VERTEX
  8
0
 10
7.96121
 20
0.538303
 30
0.0
 40
0.0059055
 41
0.0059055
  0
SEQEND
 8
0
  0
POLYLINE
  8
0
 62
     0
 66
     1
 10
0
 20
0
 30
0.0
 40
0.425196
 41
0.425196
  0
VERTEX
  8
0
 10
7.94721
 20
0.600097
 30
0.0
 40
0.0059055
 41
0.0059055
  0
VERTEX
  8
0
 10
7.93311
 20
0.557889
 30
0.0
 40
0.0059055
 41
0.0059055
  0
VERTEX
  8
0
 10
7.96967
 20
0.557889
 30
0.0
 40
0.0059055
 41
0.0059055
  0
SEQEND
 8
0
  0
POLYLINE
  8
0
 62
     0
 66
     1
 10
0
 20
0
 30
0.0
 40
0.425196
 41
0.425196
  0
VERTEX
  8
0
 10
7.99219
 20
0.543892
 30
0.0
 40
0.0059055
 41
0.0059055
  0
VERTEX
  8
0
 10
7.99501
 20
0.541069
 30
0.0
 40
0.0059055
 41
0.0059055
  0
VERTEX
  8
0
 10
7.99219
 20
0.538303
 30
0.0
 40
0.0059055
 41
0.0059055
  0
VERTEX
  8
0
 10
7.98936
 20
0.541069
 30
0.0
 40
0.0059055
 41
0.0059055
  0
VERTEX
  8
0
 10
7.99219
 20
0.543892
 30
0.0
 40
0.0059055
 41
0.0059055
  0
VERTEX
  8
0
 10
7.99219
 20
0.538303
 30
0.0
 40
0.0059055
 41
0.0059055
  0
SEQEND
 8
0
  0
POLYLINE
  8
0
 62
     0
 66
     1
 10
0
 20
0
 30
0.0
 70
     1
 40
0.425196
 41
0.425196
  0
VERTEX
  8
0
 10
8.03147
 20
0.597276
 30
0.0
 40
0.0059055
 41
0.0059055
  0
VERTEX
  8
0
 10
8.03722
 20
0.597276
 30
0.0
 40
0.0059055
 41
0.0059055
  0
VERTEX
  8
0
 10
8.04281
 20
0.59451
 30
0.0
 40
0.0059055
 41
0.0059055
  0
VERTEX
  8
0
 10
8.04557
 20
0.591689
 30
0.0
 40
0.0059055
 41
0.0059055
  0
VERTEX
  8
0
 10
8.04839
 20
0.5861
 30
0.0
 40
0.0059055
 41
0.0059055
  0
VERTEX
  8
0
 10
8.05122
 20
0.574761
 30
0.0
 40
0.0059055
 41
0.0059055
  0
VERTEX
  8
0
 10
8.05122
 20
0.56071
 30
0.0
 40
0.0059055
 41
0.0059055
  0
VERTEX
  8
0
 10
8.04839
 20
0.549479
 30
0.0
 40
0.0059055
 41
0.0059055
  0
VERTEX
  8
0
 10
8.04557
 20
0.543892
 30
0.0
 40
0.0059055
 41
0.0059055
  0
VERTEX
  8
0
 10
8.04281
 20
0.541069
 30
0.0
 40
0.0059055
 41
0.0059055
  0
VERTEX
  8
0
 10
8.03722
 20
0.538303
 30
0.0
 40
0.0059055
 41
0.0059055
  0
VERTEX
  8
0
 10
8.03147
 20
0.538303
 30
0.0
 40
0.0059055
 41
0.0059055
  0
VERTEX
  8
0
 10
8.02587
 20
0.541069
 30
0.0
 40
0.0059055
 41
0.0059055
  0
VERTEX
  8
0
 10
8.02311
 20
0.543892
 30
0.0
 40
0.0059055
 41
0.0059055
  0
VERTEX
  8
0
 10
8.02029
 20
0.549479
 30
0.0
 40
0.0059055
 41
0.0059055
  0
VERTEX
  8
0
 10
8.01747
 20
0.56071
 30
0.0
 40
0.0059055
 41
0.0059055
  0
VERTEX
  8
0
 10
8.01747
 20
0.574761
 30
0.0
 40
0.0059055
 41
0.0059055
  0
VERTEX
  8
0
 10
8.02029
 20
0.5861
 30
0.0
 40
0.0059055
 41
0.0059055
  0
VERTEX
  8
0
 10
8.02311
 20
0.591689
 30
0.0
 40
0.0059055
 41
0.0059055
  0
VERTEX
  8
0
 10
8.02587
 20
0.59451
 30
0.0
 40
0.0059055
 41
0.0059055
  0
VERTEX
  8
0
 10
8.03147
 20
0.597276
 30
0.0
 40
0.0059055
 41
0.0059055
  0
SEQEND
 8
0
  0
POLYLINE
  8
0
 62
     0
 66
     1
 10
0
 20
0
 30
0.0
 40
0.425196
 41
0.425196
  0
VERTEX
  8
0
 10
8.0765
 20
0.543892
 30
0.0
 40
0.0059055
 41
0.0059055
  0
VERTEX
  8
0
 10
8.07932
 20
0.541069
 30
0.0
 40
0.0059055
 41
0.0059055
  0
VERTEX
  8
0
 10
8.0765
 20
0.538303
 30
0.0
 40
0.0059055
 41
0.0059055
  0
VERTEX
  8
0
 10
8.07368
 20
0.541069
 30
0.0
 40
0.0059055
 41
0.0059055
  0
VERTEX
  8
0
 10
8.0765
 20
0.543892
 30
0.0
 40
0.0059055
 41
0.0059055
  0
VERTEX
  8
0
 10
8.0765
 20
0.538303
 30
0.0
 40
0.0059055
 41
0.0059055
  0
SEQEND
 8
0
  0
POLYLINE
  8
0
 62
     0
 66
     1
 10
0
 20
0
 30
0.0
 40
0.425196
 41
0.425196
  0
VERTEX
  8
0
 10
8.09901
 20
0.597276
 30
0.0
 40
0.0059055
 41
0.0059055
  0
VERTEX
  8
0
 10
8.1384
 20
0.597276
 30
0.0
 40
0.0059055
 41
0.0059055
  0
VERTEX
  8
0
 10
8.11313
 20
0.538303
 30
0.0
 40
0.0059055
 41
0.0059055
  0
SEQEND
 8
0
  0
POLYLINE
  8
0
 62
     0
 66
     1
 10
0
 20
0
 30
0.0
 40
0.425196
 41
0.425196
  0
VERTEX
  8
0
 10
6.96847
 20
0.738172
 30
0.0
 40
0.0059055
 41
0.0059055
  0
VERTEX
  8
0
 10
11.2205
 20
0.738172
 30
0.0
 40
0.0059055
 41
0.0059055
  0
SEQEND
 8
0
  0
POLYLINE
  8
0
 62
     0
 66
     1
 10
0
 20
0
 30
0.0
 40
0.850391
 41
0.850391
  0
VERTEX
  8
0
 10
10.4022
 20
0.648492
 30
0.0
 40
0.011811
 41
0.011811
  0
VERTEX
  8
0
 10
10.3825
 20
0.676594
 30
0.0
 40
0.011811
 41
0.011811
  0
SEQEND
 8
0
  0
POLYLINE
  8
0
 62
     0
 66
     1
 10
0
 20
0
 30
0.0
 40
0.850391
 41
0.850391
  0
VERTEX
  8
0
 10
10.3684
 20
0.648492
 30
0.0
 40
0.011811
 41
0.011811
  0
VERTEX
  8
0
 10
10.3684
 20
0.707465
 30
0.0
 40
0.011811
 41
0.011811
  0
VERTEX
  8
0
 10
10.3909
 20
0.707465
 30
0.0
 40
0.011811
 41
0.011811
  0
VERTEX
  8
0
 10
10.3965
 20
0.704699
 30
0.0
 40
0.011811
 41
0.011811
  0
VERTEX
  8
0
 10
10.3994
 20
0.701878
 30
0.0
 40
0.011811
 41
0.011811
  0
VERTEX
  8
0
 10
10.4022
 20
0.696289
 30
0.0
 40
0.011811
 41
0.011811
  0
VERTEX
  8
0
 10
10.4022
 20
0.687879
 30
0.0
 40
0.011811
 41
0.011811
  0
VERTEX
  8
0
 10
10.3994
 20
0.682183
 30
0.0
 40
0.011811
 41
0.011811
  0
VERTEX
  8
0
 10
10.3965
 20
0.679363
 30
0.0
 40
0.011811
 41
0.011811
  0
VERTEX
  8
0
 10
10.3909
 20
0.676594
 30
0.0
 40
0.011811
 41
0.011811
  0
VERTEX
  8
0
 10
10.3684
 20
0.676594
 30
0.0
 40
0.011811
 41
0.011811
  0
SEQEND
 8
0
  0
POLYLINE
  8
0
 62
     0
 66
     1
 10
0
 20
0
 30
0.0
 40
0.850391
 41
0.850391
  0
VERTEX
  8
0
 10
10.45
 20
0.651258
 30
0.0
 40
0.011811
 41
0.011811
  0
VERTEX
  8
0
 10
10.4444
 20
0.648492
 30
0.0
 40
0.011811
 41
0.011811
  0
VERTEX
  8
0
 10
10.4331
 20
0.648492
 30
0.0
 40
0.011811
 41
0.011811
  0
VERTEX
  8
0
 10
10.4275
 20
0.651258
 30
0.0
 40
0.011811
 41
0.011811
  0
VERTEX
  8
0
 10
10.4247
 20
0.656901
 30
0.0
 40
0.011811
 41
0.011811
  0
VERTEX
  8
0
 10
10.4247
 20
0.679363
 30
0.0
 40
0.011811
 41
0.011811
  0
VERTEX
  8
0
 10
10.4275
 20
0.685004
 30
0.0
 40
0.011811
 41
0.011811
  0
VERTEX
  8
0
 10
10.4331
 20
0.687879
 30
0.0
 40
0.011811
 41
0.011811
  0
VERTEX
  8
0
 10
10.4444
 20
0.687879
 30
0.0
 40
0.011811
 41
0.011811
  0
VERTEX
  8
0
 10
10.45
 20
0.685004
 30
0.0
 40
0.011811
 41
0.011811
  0
VERTEX
  8
0
 10
10.4528
 20
0.679363
 30
0.0
 40
0.011811
 41
0.011811
  0
VERTEX
  8
0
 10
10.4528
 20
0.673774
 30
0.0
 40
0.011811
 41
0.011811
  0
VERTEX
  8
0
 10
10.4247
 20
0.668186
 30
0.0
 40
0.011811
 41
0.011811
  0
SEQEND
 8
0
  0
POLYLINE
  8
0
 62
     0
 66
     1
 10
0
 20
0
 30
0.0
 40
0.850391
 41
0.850391
  0
VERTEX
  8
0
 10
10.4725
 20
0.687879
 30
0.0
 40
0.011811
 41
0.011811
  0
VERTEX
  8
0
 10
10.4865
 20
0.648492
 30
0.0
 40
0.011811
 41
0.011811
  0
VERTEX
  8
0
 10
10.5006
 20
0.687879
 30
0.0
 40
0.011811
 41
0.011811
  0
SEQEND
 8
0
  0
POLYLINE
  8
0
 62
     0
 66
     1
 10
0
 20
0
 30
0.0
 40
0.850391
 41
0.850391
  0
VERTEX
  8
0
 10
10.5231
 20
0.654081
 30
0.0
 40
0.011811
 41
0.011811
  0
VERTEX
  8
0
 10
10.5259
 20
0.651258
 30
0.0
 40
0.011811
 41
0.011811
  0
VERTEX
  8
0
 10
10.5231
 20
0.648492
 30
0.0
 40
0.011811
 41
0.011811
  0
VERTEX
  8
0
 10
10.5203
 20
0.651258
 30
0.0
 40
0.011811
 41
0.011811
  0
VERTEX
  8
0
 10
10.5231
 20
0.654081
 30
0.0
 40
0.011811
 41
0.011811
  0
VERTEX
  8
0
 10
10.5231
 20
0.648492
 30
0.0
 40
0.011811
 41
0.011811
  0
SEQEND
 8
0
  0
POLYLINE
  8
0
 62
     0
 66
     1
 10
0
 20
0
 30
0.0
 40
0.850391
 41
0.850391
  0
VERTEX
  8
0
 10
10.5231
 20
0.685004
 30
0.0
 40
0.011811
 41
0.011811
  0
VERTEX
  8
0
 10
10.5259
 20
0.682183
 30
0.0
 40
0.011811
 41
0.011811
  0
VERTEX
  8
0
 10
10.5231
 20
0.679363
 30
0.0
 40
0.011811
 41
0.011811
  0
VERTEX
  8
0
 10
10.5203
 20
0.682183
 30
0.0
 40
0.011811
 41
0.011811
  0
VERTEX
  8
0
 10
10.5231
 20
0.685004
 30
0.0
 40
0.011811
 41
0.011811
  0
VERTEX
  8
0
 10
10.5231
 20
0.679363
 30
0.0
 40
0.011811
 41
0.011811
  0
SEQEND
 8
0
  0
POLYLINE
  8
0
 62
     0
 66
     1
 10
0
 20
0
 30
0.0
 40
0.425196
 41
0.425196
  0
VERTEX
  8
0
 10
7.01921
 20
0.651258
 30
0.0
 40
0.0059055
 41
0.0059055
  0
VERTEX
  8
0
 10
7.02761
 20
0.648492
 30
0.0
 40
0.0059055
 41
0.0059055
  0
VERTEX
  8
0
 10
7.04172
 20
0.648492
 30
0.0
 40
0.0059055
 41
0.0059055
  0
VERTEX
  8
0
 10
7.04731
 20
0.651258
 30
0.0
 40
0.0059055
 41
0.0059055
  0
VERTEX
  8
0
 10
7.05007
 20
0.654081
 30
0.0
 40
0.0059055
 41
0.0059055
  0
VERTEX
  8
0
 10
7.0529
 20
0.659668
 30
0.0
 40
0.0059055
 41
0.0059055
  0
VERTEX
  8
0
 10
7.0529
 20
0.665365
 30
0.0
 40
0.0059055
 41
0.0059055
  0
VERTEX
  8
0
 10
7.05007
 20
0.671007
 30
0.0
 40
0.0059055
 41
0.0059055
  0
VERTEX
  8
0
 10
7.04731
 20
0.673774
 30
0.0
 40
0.0059055
 41
0.0059055
  0
VERTEX
  8
0
 10
7.04172
 20
0.676594
 30
0.0
 40
0.0059055
 41
0.0059055
  0
VERTEX
  8
0
 10
7.03039
 20
0.679363
 30
0.0
 40
0.0059055
 41
0.0059055
  0
VERTEX
  8
0
 10
7.02479
 20
0.682183
 30
0.0
 40
0.0059055
 41
0.0059055
  0
VERTEX
  8
0
 10
7.02197
 20
0.685004
 30
0.0
 40
0.0059055
 41
0.0059055
  0
VERTEX
  8
0
 10
7.01921
 20
0.690701
 30
0.0
 40
0.0059055
 41
0.0059055
  0
VERTEX
  8
0
 10
7.01921
 20
0.696289
 30
0.0
 40
0.0059055
 41
0.0059055
  0
VERTEX
  8
0
 10
7.02197
 20
0.701878
 30
0.0
 40
0.0059055
 41
0.0059055
  0
VERTEX
  8
0
 10
7.02479
 20
0.704699
 30
0.0
 40
0.0059055
 41
0.0059055
  0
VERTEX
  8
0
 10
7.03039
 20
0.707465
 30
0.0
 40
0.0059055
 41
0.0059055
  0
VERTEX
  8
0
 10
7.04449
 20
0.707465
 30
0.0
 40
0.0059055
 41
0.0059055
  0
VERTEX
  8
0
 10
7.0529
 20
0.704699
 30
0.0
 40
0.0059055
 41
0.0059055
  0
SEQEND
 8
0
  0
POLYLINE
  8
0
 62
     0
 66
     1
 10
0
 20
0
 30
0.0
 40
0.425196
 41
0.425196
  0
VERTEX
  8
0
 10
7.07818
 20
0.648492
 30
0.0
 40
0.0059055
 41
0.0059055
  0
VERTEX
  8
0
 10
7.07818
 20
0.687879
 30
0.0
 40
0.0059055
 41
0.0059055
  0
SEQEND
 8
0
  0
POLYLINE
  8
0
 62
     0
 66
     1
 10
0
 20
0
 30
0.0
 40
0.425196
 41
0.425196
  0
VERTEX
  8
0
 10
7.07818
 20
0.707465
 30
0.0
 40
0.0059055
 41
0.0059055
  0
VERTEX
  8
0
 10
7.07542
 20
0.704699
 30
0.0
 40
0.0059055
 41
0.0059055
  0
VERTEX
  8
0
 10
7.07818
 20
0.701878
 30
0.0
 40
0.0059055
 41
0.0059055
  0
VERTEX
  8
0
 10
7.081
 20
0.704699
 30
0.0
 40
0.0059055
 41
0.0059055
  0
VERTEX
  8
0
 10
7.07818
 20
0.707465
 30
0.0
 40
0.0059055
 41
0.0059055
  0
VERTEX
  8
0
 10
7.07818
 20
0.701878
 30
0.0
 40
0.0059055
 41
0.0059055
  0
SEQEND
 8
0
  0
POLYLINE
  8
0
 62
     0
 66
     1
 10
0
 20
0
 30
0.0
 40
0.425196
 41
0.425196
  0
VERTEX
  8
0
 10
7.10069
 20
0.687879
 30
0.0
 40
0.0059055
 41
0.0059055
  0
VERTEX
  8
0
 10
7.13162
 20
0.687879
 30
0.0
 40
0.0059055
 41
0.0059055
  0
VERTEX
  8
0
 10
7.10069
 20
0.648492
 30
0.0
 40
0.0059055
 41
0.0059055
  0
VERTEX
  8
0
 10
7.13162
 20
0.648492
 30
0.0
 40
0.0059055
 41
0.0059055
  0
SEQEND
 8
0
  0
POLYLINE
  8
0
 62
     0
 66
     1
 10
0
 20
0
 30
0.0
 40
0.425196
 41
0.425196
  0
VERTEX
  8
0
 10
7.1766
 20
0.651258
 30
0.0
 40
0.0059055
 41
0.0059055
  0
VERTEX
  8
0
 10
7.17101
 20
0.648492
 30
0.0
 40
0.0059055
 41
0.0059055
  0
VERTEX
  8
0
 10
7.15978
 20
0.648492
 30
0.0
 40
0.0059055
 41
0.0059055
  0
VERTEX
  8
0
 10
7.15408
 20
0.651258
 30
0.0
 40
0.0059055
 41
0.0059055
  0
VERTEX
  8
0
 10
7.15132
 20
0.656901
 30
0.0
 40
0.0059055
 41
0.0059055
  0
VERTEX
  8
0
 10
7.15132
 20
0.679363
 30
0.0
 40
0.0059055
 41
0.0059055
  0
VERTEX
  8
0
 10
7.15408
 20
0.685004
 30
0.0
 40
0.0059055
 41
0.0059055
  0
VERTEX
  8
0
 10
7.15978
 20
0.687879
 30
0.0
 40
0.0059055
 41
0.0059055
  0
VERTEX
  8
0
 10
7.17101
 20
0.687879
 30
0.0
 40
0.0059055
 41
0.0059055
  0
VERTEX
  8
0
 10
7.1766
 20
0.685004
 30
0.0
 40
0.0059055
 41
0.0059055
  0
VERTEX
  8
0
 10
7.17947
 20
0.679363
 30
0.0
 40
0.0059055
 41
0.0059055
  0
VERTEX
  8
0
 10
7.17947
 20
0.673774
 30
0.0
 40
0.0059055
 41
0.0059055
  0
VERTEX
  8
0
 10
7.15132
 20
0.668186
 30
0.0
 40
0.0059055
 41
0.0059055
  0
SEQEND
 8
0
  0
POLYLINE
  8
0
 62
     0
 66
     1
 10
0
 20
0
 30
0.0
 40
0.425196
 41
0.425196
  0
VERTEX
  8
0
 10
7.20481
 20
0.654081
 30
0.0
 40
0.0059055
 41
0.0059055
  0
VERTEX
  8
0
 10
7.20757
 20
0.651258
 30
0.0
 40
0.0059055
 41
0.0059055
  0
VERTEX
  8
0
 10
7.20481
 20
0.648492
 30
0.0
 40
0.0059055
 41
0.0059055
  0
VERTEX
  8
0
 10
7.20187
 20
0.651258
 30
0.0
 40
0.0059055
 41
0.0059055
  0
VERTEX
  8
0
 10
7.20481
 20
0.654081
 30
0.0
 40
0.0059055
 41
0.0059055
  0
VERTEX
  8
0
 10
7.20481
 20
0.648492
 30
0.0
 40
0.0059055
 41
0.0059055
  0
SEQEND
 8
0
  0
POLYLINE
  8
0
 62
     0
 66
     1
 10
0
 20
0
 30
0.0
 40
0.425196
 41
0.425196
  0
VERTEX
  8
0
 10
7.20481
 20
0.685004
 30
0.0
 40
0.0059055
 41
0.0059055
  0
VERTEX
  8
0
 10
7.20757
 20
0.682183
 30
0.0
 40
0.0059055
 41
0.0059055
  0
VERTEX
  8
0
 10
7.20481
 20
0.679363
 30
0.0
 40
0.0059055
 41
0.0059055
  0
VERTEX
  8
0
 10
7.20187
 20
0.682183
 30
0.0
 40
0.0059055
 41
0.0059055
  0
VERTEX
  8
0
 10
7.20481
 20
0.685004
 30
0.0
 40
0.0059055
 41
0.0059055
  0
VERTEX
  8
0
 10
7.20481
 20
0.679363
 30
0.0
 40
0.0059055
 41
0.0059055
  0
SEQEND
 8
0
  0
POLYLINE
  8
0
 62
     0
 66
     1
 10
0
 20
0
 30
0.0
 40
0.425196
 41
0.425196
  0
VERTEX
  8
0
 10
7.27513
 20
0.665365
 30
0.0
 40
0.0059055
 41
0.0059055
  0
VERTEX
  8
0
 10
7.30317
 20
0.665365
 30
0.0
 40
0.0059055
 41
0.0059055
  0
SEQEND
 8
0
  0
POLYLINE
  8
0
 62
     0
 66
     1
 10
0
 20
0
 30
0.0
 40
0.425196
 41
0.425196
  0
VERTEX
  8
0
 10
7.26938
 20
0.648492
 30
0.0
 40
0.0059055
 41
0.0059055
  0
VERTEX
  8
0
 10
7.28911
 20
0.707465
 30
0.0
 40
0.0059055
 41
0.0059055
  0
VERTEX
  8
0
 10
7.30881
 20
0.648492
 30
0.0
 40
0.0059055
 41
0.0059055
  0
SEQEND
 8
0
  0
POLYLINE
  8
0
 62
     0
 66
     1
 10
0
 20
0
 30
0.0
 40
0.425196
 41
0.425196
  0
VERTEX
  8
0
 10
7.35379
 20
0.687879
 30
0.0
 40
0.0059055
 41
0.0059055
  0
VERTEX
  8
0
 10
7.35379
 20
0.648492
 30
0.0
 40
0.0059055
 41
0.0059055
  0
SEQEND
 8
0
  0
POLYLINE
  8
0
 62
     0
 66
     1
 10
0
 20
0
 30
0.0
 40
0.425196
 41
0.425196
  0
VERTEX
  8
0
 10
7.33968
 20
0.710394
 30
0.0
 40
0.0059055
 41
0.0059055
  0
VERTEX
  8
0
 10
7.32568
 20
0.668186
 30
0.0
 40
0.0059055
 41
0.0059055
  0
VERTEX
  8
0
 10
7.36219
 20
0.668186
 30
0.0
 40
0.0059055
 41
0.0059055
  0
SEQEND
 8
0
  0
POLYLINE
  8
0
 62
     0
 66
     1
 10
0
 20
0
 30
0.0
 40
0.425196
 41
0.425196
  0
VERTEX
  8
0
 10
10.3684
 20
0.538303
 30
0.0
 40
0.0059055
 41
0.0059055
  0
VERTEX
  8
0
 10
10.3684
 20
0.597276
 30
0.0
 40
0.0059055
 41
0.0059055
  0
SEQEND
 8
0
  0
POLYLINE
  8
0
 62
     0
 66
     1
 10
0
 20
0
 30
0.0
 40
0.425196
 41
0.425196
  0
VERTEX
  8
0
 10
10.4219
 20
0.538303
 30
0.0
 40
0.0059055
 41
0.0059055
  0
VERTEX
  8
0
 10
10.4219
 20
0.597276
 30
0.0
 40
0.0059055
 41
0.0059055
  0
SEQEND
 8
0
  0
POLYLINE
  8
0
 62
     0
 66
     1
 10
0
 20
0
 30
0.0
 40
0.425196
 41
0.425196
  0
VERTEX
  8
0
 10
10.4219
 20
0.541069
 30
0.0
 40
0.0059055
 41
0.0059055
  0
VERTEX
  8
0
 10
10.4162
 20
0.538303
 30
0.0
 40
0.0059055
 41
0.0059055
  0
VERTEX
  8
0
 10
10.405
 20
0.538303
 30
0.0
 40
0.0059055
 41
0.0059055
  0
VERTEX
  8
0
 10
10.3994
 20
0.541069
 30
0.0
 40
0.0059055
 41
0.0059055
  0
VERTEX
  8
0
 10
10.3965
 20
0.543892
 30
0.0
 40
0.0059055
 41
0.0059055
  0
VERTEX
  8
0
 10
10.3937
 20
0.549479
 30
0.0
 40
0.0059055
 41
0.0059055
  0
VERTEX
  8
0
 10
10.3937
 20
0.566407
 30
0.0
 40
0.0059055
 41
0.0059055
  0
VERTEX
  8
0
 10
10.3965
 20
0.571994
 30
0.0
 40
0.0059055
 41
0.0059055
  0
VERTEX
  8
0
 10
10.3994
 20
0.574761
 30
0.0
 40
0.0059055
 41
0.0059055
  0
VERTEX
  8
0
 10
10.405
 20
0.577582
 30
0.0
 40
0.0059055
 41
0.0059055
  0
VERTEX
  8
0
 10
10.4162
 20
0.577582
 30
0.0
 40
0.0059055
 41
0.0059055
  0
VERTEX
  8
0
 10
10.4219
 20
0.574761
 30
0.0
 40
0.0059055
 41
0.0059055
  0
SEQEND
 8
0
  0
POLYLINE
  8
0
 62
     0
 66
     1
 10
0
 20
0
 30
0.0
 40
0.425196
 41
0.425196
  0
VERTEX
  8
0
 10
10.45
 20
0.543892
 30
0.0
 40
0.0059055
 41
0.0059055
  0
VERTEX
  8
0
 10
10.4528
 20
0.541069
 30
0.0
 40
0.0059055
 41
0.0059055
  0
VERTEX
  8
0
 10
10.45
 20
0.538303
 30
0.0
 40
0.0059055
 41
0.0059055
  0
VERTEX
  8
0
 10
10.4472
 20
0.541069
 30
0.0
 40
0.0059055
 41
0.0059055
  0
VERTEX
  8
0
 10
10.45
 20
0.543892
 30
0.0
 40
0.0059055
 41
0.0059055
  0
VERTEX
  8
0
 10
10.45
 20
0.538303
 30
0.0
 40
0.0059055
 41
0.0059055
  0
SEQEND
 8
0
  0
POLYLINE
  8
0
 62
     0
 66
     1
 10
0
 20
0
 30
0.0
 40
0.425196
 41
0.425196
  0
VERTEX
  8
0
 10
10.45
 20
0.574761
 30
0.0
 40
0.0059055
 41
0.0059055
  0
VERTEX
  8
0
 10
10.4528
 20
0.571994
 30
0.0
 40
0.0059055
 41
0.0059055
  0
VERTEX
  8
0
 10
10.45
 20
0.569174
 30
0.0
 40
0.0059055
 41
0.0059055
  0
VERTEX
  8
0
 10
10.4472
 20
0.571994
 30
0.0
 40
0.0059055
 41
0.0059055
  0
VERTEX
  8
0
 10
10.45
 20
0.574761
 30
0.0
 40
0.0059055
 41
0.0059055
  0
VERTEX
  8
0
 10
10.45
 20
0.569174
 30
0.0
 40
0.0059055
 41
0.0059055
  0
SEQEND
 8
0
  0
POLYLINE
  8
0
 62
     0
 66
     1
 10
0
 20
0
 30
0.0
 40
0.425196
 41
0.425196
  0
VERTEX
  8
0
 10
10.554
 20
0.538303
 30
0.0
 40
0.0059055
 41
0.0059055
  0
VERTEX
  8
0
 10
10.5203
 20
0.538303
 30
0.0
 40
0.0059055
 41
0.0059055
  0
SEQEND
 8
0
  0
POLYLINE
  8
0
 62
     0
 66
     1
 10
0
 20
0
 30
0.0
 40
0.425196
 41
0.425196
  0
VERTEX
  8
0
 10
10.5372
 20
0.538303
 30
0.0
 40
0.0059055
 41
0.0059055
  0
VERTEX
  8
0
 10
10.5372
 20
0.597276
 30
0.0
 40
0.0059055
 41
0.0059055
  0
VERTEX
  8
0
 10
10.5315
 20
0.588867
 30
0.0
 40
0.0059055
 41
0.0059055
  0
VERTEX
  8
0
 10
10.5259
 20
0.583171
 30
0.0
 40
0.0059055
 41
0.0059055
  0
VERTEX
  8
0
 10
10.5203
 20
0.580404
 30
0.0
 40
0.0059055
 41
0.0059055
  0
SEQEND
 8
0
  0
POLYLINE
  8
0
 62
     0
 66
     1
 10
0
 20
0
 30
0.0
 40
0.425196
 41
0.425196
  0
VERTEX
  8
0
 10
10.6215
 20
0.600097
 30
0.0
 40
0.0059055
 41
0.0059055
  0
VERTEX
  8
0
 10
10.5709
 20
0.524197
 30
0.0
 40
0.0059055
 41
0.0059055
  0
SEQEND
 8
0
  0
POLYLINE
  8
0
 62
     0
 66
     1
 10
0
 20
0
 30
0.0
 40
0.425196
 41
0.425196
  0
VERTEX
  8
0
 10
10.6721
 20
0.538303
 30
0.0
 40
0.0059055
 41
0.0059055
  0
VERTEX
  8
0
 10
10.6384
 20
0.538303
 30
0.0
 40
0.0059055
 41
0.0059055
  0
SEQEND
 8
0
  0
POLYLINE
  8
0
 62
     0
 66
     1
 10
0
 20
0
 30
0.0
 40
0.425196
 41
0.425196
  0
VERTEX
  8
0
 10
10.6553
 20
0.538303
 30
0.0
 40
0.0059055
 41
0.0059055
  0
VERTEX
  8
0
 10
10.6553
 20
0.597276
 30
0.0
 40
0.0059055
 41
0.0059055
  0
VERTEX
  8
0
 10
10.6496
 20
0.588867
 30
0.0
 40
0.0059055
 41
0.0059055
  0
VERTEX
  8
0
 10
10.644
 20
0.583171
 30
0.0
 40
0.0059055
 41
0.0059055
  0
VERTEX
  8
0
 10
10.6384
 20
0.580404
 30
0.0
 40
0.0059055
 41
0.0059055
  0
SEQEND
 8
0
  0
POLYLINE
  8
0
 62
     0
 66
     1
 10
0
 20
0
 30
0.0
 40
0.425196
 41
0.425196
  0
VERTEX
  8
0
 10
6.96847
 20
0.895671
 30
0.0
 40
0.0059055
 41
0.0059055
  0
VERTEX
  8
0
 10
11.2205
 20
0.895671
 30
0.0
 40
0.0059055
 41
0.0059055
  0
SEQEND
 8
0
  0
POLYLINE
  8
0
 62
     0
 66
     1
 10
0
 20
0
 30
0.0
 40
1.13385
 41
1.13385
  0
VERTEX
  8
0
 10
7.02572
 20
0.867893
 30
0.0
 40
0.0157479
 41
0.0157479
  0
VERTEX
  8
0
 10
7.07069
 20
0.867893
 30
0.0
 40
0.0157479
 41
0.0157479
  0
SEQEND
 8
0
  0
POLYLINE
  8
0
 62
     0
 66
     1
 10
0
 20
0
 30
0.0
 40
1.13385
 41
1.13385
  0
VERTEX
  8
0
 10
7.03842
 20
0.789171
 30
0.0
 40
0.0157479
 41
0.0157479
  0
VERTEX
  8
0
 10
7.04818
 20
0.867893
 30
0.0
 40
0.0157479
 41
0.0157479
  0
SEQEND
 8
0
  0
POLYLINE
  8
0
 62
     0
 66
     1
 10
0
 20
0
 30
0.0
 40
1.13385
 41
1.13385
  0
VERTEX
  8
0
 10
7.08708
 20
0.789171
 30
0.0
 40
0.0157479
 41
0.0157479
  0
VERTEX
  8
0
 10
7.09369
 20
0.841689
 30
0.0
 40
0.0157479
 41
0.0157479
  0
SEQEND
 8
0
  0
POLYLINE
  8
0
 62
     0
 66
     1
 10
0
 20
0
 30
0.0
 40
1.13385
 41
1.13385
  0
VERTEX
  8
0
 10
7.097
 20
0.867893
 30
0.0
 40
0.0157479
 41
0.0157479
  0
VERTEX
  8
0
 10
7.09272
 20
0.864204
 30
0.0
 40
0.0157479
 41
0.0157479
  0
VERTEX
  8
0
 10
7.09597
 20
0.860406
 30
0.0
 40
0.0157479
 41
0.0157479
  0
VERTEX
  8
0
 10
7.10021
 20
0.864204
 30
0.0
 40
0.0157479
 41
0.0157479
  0
VERTEX
  8
0
 10
7.097
 20
0.867893
 30
0.0
 40
0.0157479
 41
0.0157479
  0
VERTEX
  8
0
 10
7.09597
 20
0.860406
 30
0.0
 40
0.0157479
 41
0.0157479
  0
SEQEND
 8
0
  0
POLYLINE
  8
0
 62
     0
 66
     1
 10
0
 20
0
 30
0.0
 40
1.13385
 41
1.13385
  0
VERTEX
  8
0
 10
7.1199
 20
0.841689
 30
0.0
 40
0.0157479
 41
0.0157479
  0
VERTEX
  8
0
 10
7.1499
 20
0.841689
 30
0.0
 40
0.0157479
 41
0.0157479
  0
SEQEND
 8
0
  0
POLYLINE
  8
0
 62
     0
 66
     1
 10
0
 20
0
 30
0.0
 40
1.13385
 41
1.13385
  0
VERTEX
  8
0
 10
7.1345
 20
0.867893
 30
0.0
 40
0.0157479
 41
0.0157479
  0
VERTEX
  8
0
 10
7.12597
 20
0.800401
 30
0.0
 40
0.0157479
 41
0.0157479
  0
VERTEX
  8
0
 10
7.12879
 20
0.79286
 30
0.0
 40
0.0157479
 41
0.0157479
  0
VERTEX
  8
0
 10
7.1359
 20
0.789171
 30
0.0
 40
0.0157479
 41
0.0157479
  0
VERTEX
  8
0
 10
7.14339
 20
0.789171
 30
0.0
 40
0.0157479
 41
0.0157479
  0
SEQEND
 8
0
  0
POLYLINE
  8
0
 62
     0
 66
     1
 10
0
 20
0
 30
0.0
 40
1.13385
 41
1.13385
  0
VERTEX
  8
0
 10
7.18088
 20
0.789171
 30
0.0
 40
0.0157479
 41
0.0157479
  0
VERTEX
  8
0
 10
7.17378
 20
0.79286
 30
0.0
 40
0.0157479
 41
0.0157479
  0
VERTEX
  8
0
 10
7.17101
 20
0.800401
 30
0.0
 40
0.0157479
 41
0.0157479
  0
VERTEX
  8
0
 10
7.17947
 20
0.867893
 30
0.0
 40
0.0157479
 41
0.0157479
  0
SEQEND
 8
0
  0
POLYLINE
  8
0
 62
     0
 66
     1
 10
0
 20
0
 30
0.0
 40
1.13385
 41
1.13385
  0
VERTEX
  8
0
 10
7.24132
 20
0.79286
 30
0.0
 40
0.0157479
 41
0.0157479
  0
VERTEX
  8
0
 10
7.2334
 20
0.789171
 30
0.0
 40
0.0157479
 41
0.0157479
  0
VERTEX
  8
0
 10
7.21838
 20
0.789171
 30
0.0
 40
0.0157479
 41
0.0157479
  0
VERTEX
  8
0
 10
7.21132
 20
0.79286
 30
0.0
 40
0.0157479
 41
0.0157479
  0
VERTEX
  8
0
 10
7.2085
 20
0.800401
 30
0.0
 40
0.0157479
 41
0.0157479
  0
VERTEX
  8
0
 10
7.21229
 20
0.830404
 30
0.0
 40
0.0157479
 41
0.0157479
  0
VERTEX
  8
0
 10
7.2169
 20
0.83789
 30
0.0
 40
0.0157479
 41
0.0157479
  0
VERTEX
  8
0
 10
7.22487
 20
0.841689
 30
0.0
 40
0.0157479
 41
0.0157479
  0
VERTEX
  8
0
 10
7.2399
 20
0.841689
 30
0.0
 40
0.0157479
 41
0.0157479
  0
VERTEX
  8
0
 10
7.2469
 20
0.83789
 30
0.0
 40
0.0157479
 41
0.0157479
  0
VERTEX
  8
0
 10
7.24978
 20
0.830404
 30
0.0
 40
0.0157479
 41
0.0157479
  0
VERTEX
  8
0
 10
7.24881
 20
0.822863
 30
0.0
 40
0.0157479
 41
0.0157479
  0
VERTEX
  8
0
 10
7.21039
 20
0.815375
 30
0.0
 40
0.0157479
 41
0.0157479
  0
SEQEND
 8
0
  0
POLYLINE
  8
0
 62
     0
 66
     1
 10
0
 20
0
 30
0.0
 40
1.13385
 41
1.13385
  0
VERTEX
  8
0
 10
7.27929
 20
0.796658
 30
0.0
 40
0.0157479
 41
0.0157479
  0
VERTEX
  8
0
 10
7.28261
 20
0.79286
 30
0.0
 40
0.0157479
 41
0.0157479
  0
VERTEX
  8
0
 10
7.27832
 20
0.789171
 30
0.0
 40
0.0157479
 41
0.0157479
  0
VERTEX
  8
0
 10
7.27513
 20
0.79286
 30
0.0
 40
0.0157479
 41
0.0157479
  0
VERTEX
  8
0
 10
7.27929
 20
0.796658
 30
0.0
 40
0.0157479
 41
0.0157479
  0
VERTEX
  8
0
 10
7.27832
 20
0.789171
 30
0.0
 40
0.0157479
 41
0.0157479
  0
SEQEND
 8
0
  0
POLYLINE
  8
0
 62
     0
 66
     1
 10
0
 20
0
 30
0.0
 40
1.13385
 41
1.13385
  0
VERTEX
  8
0
 10
7.2844
 20
0.83789
 30
0.0
 40
0.0157479
 41
0.0157479
  0
VERTEX
  8
0
 10
7.28771
 20
0.834201
 30
0.0
 40
0.0157479
 41
0.0157479
  0
VERTEX
  8
0
 10
7.28347
 20
0.830404
 30
0.0
 40
0.0157479
 41
0.0157479
  0
VERTEX
  8
0
 10
7.28022
 20
0.834201
 30
0.0
 40
0.0157479
 41
0.0157479
  0
VERTEX
  8
0
 10
7.2844
 20
0.83789
 30
0.0
 40
0.0157479
 41
0.0157479
  0
VERTEX
  8
0
 10
7.28347
 20
0.830404
 30
0.0
 40
0.0157479
 41
0.0157479
  0
SEQEND
 8
0
  0
POLYLINE
  8
0
 62
     0
 66
     1
 10
0
 20
0
 30
0.0
 40
0.425196
 41
0.425196
  0
VERTEX
  8
0
 10
7.04172
 20
0.970757
 30
0.0
 40
0.0059055
 41
0.0059055
  0
VERTEX
  8
0
 10
7.02197
 20
0.970757
 30
0.0
 40
0.0059055
 41
0.0059055
  0
SEQEND
 8
0
  0
POLYLINE
  8
0
 62
     0
 66
     1
 10
0
 20
0
 30
0.0
 40
0.425196
 41
0.425196
  0
VERTEX
  8
0
 10
7.02197
 20
0.939779
 30
0.0
 40
0.0059055
 41
0.0059055
  0
VERTEX
  8
0
 10
7.02197
 20
0.998861
 30
0.0
 40
0.0059055
 41
0.0059055
  0
VERTEX
  8
0
 10
7.05007
 20
0.998861
 30
0.0
 40
0.0059055
 41
0.0059055
  0
SEQEND
 8
0
  0
POLYLINE
  8
0
 62
     0
 66
     1
 10
0
 20
0
 30
0.0
 40
0.425196
 41
0.425196
  0
VERTEX
  8
0
 10
7.0726
 20
0.939779
 30
0.0
 40
0.0059055
 41
0.0059055
  0
VERTEX
  8
0
 10
7.0726
 20
0.979167
 30
0.0
 40
0.0059055
 41
0.0059055
  0
SEQEND
 8
0
  0
POLYLINE
  8
0
 62
     0
 66
     1
 10
0
 20
0
 30
0.0
 40
0.425196
 41
0.425196
  0
VERTEX
  8
0
 10
7.0726
 20
0.998861
 30
0.0
 40
0.0059055
 41
0.0059055
  0
VERTEX
  8
0
 10
7.06976
 20
0.996094
 30
0.0
 40
0.0059055
 41
0.0059055
  0
VERTEX
  8
0
 10
7.0726
 20
0.993272
 30
0.0
 40
0.0059055
 41
0.0059055
  0
VERTEX
  8
0
 10
7.07542
 20
0.996094
 30
0.0
 40
0.0059055
 41
0.0059055
  0
VERTEX
  8
0
 10
7.0726
 20
0.998861
 30
0.0
 40
0.0059055
 41
0.0059055
  0
VERTEX
  8
0
 10
7.0726
 20
0.993272
 30
0.0
 40
0.0059055
 41
0.0059055
  0
SEQEND
 8
0
  0
POLYLINE
  8
0
 62
     0
 66
     1
 10
0
 20
0
 30
0.0
 40
0.425196
 41
0.425196
  0
VERTEX
  8
0
 10
7.1091
 20
0.939779
 30
0.0
 40
0.0059055
 41
0.0059055
  0
VERTEX
  8
0
 10
7.10351
 20
0.9426
 30
0.0
 40
0.0059055
 41
0.0059055
  0
VERTEX
  8
0
 10
7.10069
 20
0.948296
 30
0.0
 40
0.0059055
 41
0.0059055
  0
VERTEX
  8
0
 10
7.10069
 20
0.998861
 30
0.0
 40
0.0059055
 41
0.0059055
  0
SEQEND
 8
0
  0
POLYLINE
  8
0
 62
     0
 66
     1
 10
0
 20
0
 30
0.0
 40
0.425196
 41
0.425196
  0
VERTEX
  8
0
 10
7.15408
 20
0.9426
 30
0.0
 40
0.0059055
 41
0.0059055
  0
VERTEX
  8
0
 10
7.14849
 20
0.939779
 30
0.0
 40
0.0059055
 41
0.0059055
  0
VERTEX
  8
0
 10
7.13732
 20
0.939779
 30
0.0
 40
0.0059055
 41
0.0059055
  0
VERTEX
  8
0
 10
7.13162
 20
0.9426
 30
0.0
 40
0.0059055
 41
0.0059055
  0
VERTEX
  8
0
 10
7.12879
 20
0.948296
 30
0.0
 40
0.0059055
 41
0.0059055
  0
VERTEX
  8
0
 10
7.12879
 20
0.970757
 30
0.0
 40
0.0059055
 41
0.0059055
  0
VERTEX
  8
0
 10
7.13162
 20
0.9764
 30
0.0
 40
0.0059055
 41
0.0059055
  0
VERTEX
  8
0
 10
7.13732
 20
0.979167
 30
0.0
 40
0.0059055
 41
0.0059055
  0
VERTEX
  8
0
 10
7.14849
 20
0.979167
 30
0.0
 40
0.0059055
 41
0.0059055
  0
VERTEX
  8
0
 10
7.15408
 20
0.9764
 30
0.0
 40
0.0059055
 41
0.0059055
  0
VERTEX
  8
0
 10
7.15701
 20
0.970757
 30
0.0
 40
0.0059055
 41
0.0059055
  0
VERTEX
  8
0
 10
7.15701
 20
0.965061
 30
0.0
 40
0.0059055
 41
0.0059055
  0
VERTEX
  8
0
 10
7.12879
 20
0.959472
 30
0.0
 40
0.0059055
 41
0.0059055
  0
SEQEND
 8
0
  0
POLYLINE
  8
0
 62
     0
 66
     1
 10
0
 20
0
 30
0.0
 40
0.425196
 41
0.425196
  0
VERTEX
  8
0
 10
7.18229
 20
0.945475
 30
0.0
 40
0.0059055
 41
0.0059055
  0
VERTEX
  8
0
 10
7.18511
 20
0.9426
 30
0.0
 40
0.0059055
 41
0.0059055
  0
VERTEX
  8
0
 10
7.18229
 20
0.939779
 30
0.0
 40
0.0059055
 41
0.0059055
  0
VERTEX
  8
0
 10
7.17947
 20
0.9426
 30
0.0
 40
0.0059055
 41
0.0059055
  0
VERTEX
  8
0
 10
7.18229
 20
0.945475
 30
0.0
 40
0.0059055
 41
0.0059055
  0
VERTEX
  8
0
 10
7.18229
 20
0.939779
 30
0.0
 40
0.0059055
 41
0.0059055
  0
SEQEND
 8
0
  0
POLYLINE
  8
0
 62
     0
 66
     1
 10
0
 20
0
 30
0.0
 40
0.425196
 41
0.425196
  0
VERTEX
  8
0
 10
7.18229
 20
0.9764
 30
0.0
 40
0.0059055
 41
0.0059055
  0
VERTEX
  8
0
 10
7.18511
 20
0.973579
 30
0.0
 40
0.0059055
 41
0.0059055
  0
VERTEX
  8
0
 10
7.18229
 20
0.970757
 30
0.0
 40
0.0059055
 41
0.0059055
  0
VERTEX
  8
0
 10
7.17947
 20
0.973579
 30
0.0
 40
0.0059055
 41
0.0059055
  0
VERTEX
  8
0
 10
7.18229
 20
0.9764
 30
0.0
 40
0.0059055
 41
0.0059055
  0
VERTEX
  8
0
 10
7.18229
 20
0.970757
 30
0.0
 40
0.0059055
 41
0.0059055
  0
SEQEND
 8
0
  0
POLYLINE
  8
0
 62
     0
 66
     1
 10
0
 20
0
 30
0.0
 40
0.425196
 41
0.425196
  0
VERTEX
  8
0
 10
7.2469
 20
0.998861
 30
0.0
 40
0.0059055
 41
0.0059055
  0
VERTEX
  8
0
 10
7.28071
 20
0.998861
 30
0.0
 40
0.0059055
 41
0.0059055
  0
SEQEND
 8
0
  0
POLYLINE
  8
0
 62
     0
 66
     1
 10
0
 20
0
 30
0.0
 40
0.425196
 41
0.425196
  0
VERTEX
  8
0
 10
7.26378
 20
0.939779
 30
0.0
 40
0.0059055
 41
0.0059055
  0
VERTEX
  8
0
 10
7.26378
 20
0.998861
 30
0.0
 40
0.0059055
 41
0.0059055
  0
SEQEND
 8
0
  0
POLYLINE
  8
0
 62
     0
 66
     1
 10
0
 20
0
 30
0.0
 70
     1
 40
0.425196
 41
0.425196
  0
VERTEX
  8
0
 10
7.30881
 20
0.939779
 30
0.0
 40
0.0059055
 41
0.0059055
  0
VERTEX
  8
0
 10
7.30317
 20
0.9426
 30
0.0
 40
0.0059055
 41
0.0059055
  0
VERTEX
  8
0
 10
7.3004
 20
0.945475
 30
0.0
 40
0.0059055
 41
0.0059055
  0
VERTEX
  8
0
 10
7.29758
 20
0.951064
 30
0.0
 40
0.0059055
 41
0.0059055
  0
VERTEX
  8
0
 10
7.29758
 20
0.967882
 30
0.0
 40
0.0059055
 41
0.0059055
  0
VERTEX
  8
0
 10
7.3004
 20
0.973579
 30
0.0
 40
0.0059055
 41
0.0059055
  0
VERTEX
  8
0
 10
7.30317
 20
0.9764
 30
0.0
 40
0.0059055
 41
0.0059055
  0
VERTEX
  8
0
 10
7.30881
 20
0.979167
 30
0.0
 40
0.0059055
 41
0.0059055
  0
VERTEX
  8
0
 10
7.31722
 20
0.979167
 30
0.0
 40
0.0059055
 41
0.0059055
  0
VERTEX
  8
0
 10
7.32292
 20
0.9764
 30
0.0
 40
0.0059055
 41
0.0059055
  0
VERTEX
  8
0
 10
7.32568
 20
0.973579
 30
0.0
 40
0.0059055
 41
0.0059055
  0
VERTEX
  8
0
 10
7.3285
 20
0.967882
 30
0.0
 40
0.0059055
 41
0.0059055
  0
VERTEX
  8
0
 10
7.3285
 20
0.951064
 30
0.0
 40
0.0059055
 41
0.0059055
  0
VERTEX
  8
0
 10
7.32568
 20
0.945475
 30
0.0
 40
0.0059055
 41
0.0059055
  0
VERTEX
  8
0
 10
7.32292
 20
0.9426
 30
0.0
 40
0.0059055
 41
0.0059055
  0
VERTEX
  8
0
 10
7.31722
 20
0.939779
 30
0.0
 40
0.0059055
 41
0.0059055
  0
VERTEX
  8
0
 10
7.30881
 20
0.939779
 30
0.0
 40
0.0059055
 41
0.0059055
  0
SEQEND
 8
0
  0
POLYLINE
  8
0
 62
     0
 66
     1
 10
0
 20
0
 30
0.0
 40
0.425196
 41
0.425196
  0
VERTEX
  8
0
 10
7.35379
 20
0.979167
 30
0.0
 40
0.0059055
 41
0.0059055
  0
VERTEX
  8
0
 10
7.35379
 20
0.920085
 30
0.0
 40
0.0059055
 41
0.0059055
  0
SEQEND
 8
0
  0
POLYLINE
  8
0
 62
     0
 66
     1
 10
0
 20
0
 30
0.0
 40
0.425196
 41
0.425196
  0
VERTEX
  8
0
 10
7.35379
 20
0.9764
 30
0.0
 40
0.0059055
 41
0.0059055
  0
VERTEX
  8
0
 10
7.35938
 20
0.979167
 30
0.0
 40
0.0059055
 41
0.0059055
  0
VERTEX
  8
0
 10
7.37071
 20
0.979167
 30
0.0
 40
0.0059055
 41
0.0059055
  0
VERTEX
  8
0
 10
7.37631
 20
0.9764
 30
0.0
 40
0.0059055
 41
0.0059055
  0
VERTEX
  8
0
 10
7.37907
 20
0.973579
 30
0.0
 40
0.0059055
 41
0.0059055
  0
VERTEX
  8
0
 10
7.38189
 20
0.967882
 30
0.0
 40
0.0059055
 41
0.0059055
  0
VERTEX
  8
0
 10
7.38189
 20
0.951064
 30
0.0
 40
0.0059055
 41
0.0059055
  0
VERTEX
  8
0
 10
7.37907
 20
0.945475
 30
0.0
 40
0.0059055
 41
0.0059055
  0
VERTEX
  8
0
 10
7.37631
 20
0.9426
 30
0.0
 40
0.0059055
 41
0.0059055
  0
VERTEX
  8
0
 10
7.37071
 20
0.939779
 30
0.0
 40
0.0059055
 41
0.0059055
  0
VERTEX
  8
0
 10
7.35938
 20
0.939779
 30
0.0
 40
0.0059055
 41
0.0059055
  0
VERTEX
  8
0
 10
7.35379
 20
0.9426
 30
0.0
 40
0.0059055
 41
0.0059055
  0
SEQEND
 8
0
  0
POLYLINE
  8
0
 62
     0
 66
     1
 10
0
 20
0
 30
0.0
 40
0.425196
 41
0.425196
  0
VERTEX
  8
0
 10
7.45221
 20
0.939779
 30
0.0
 40
0.0059055
 41
0.0059055
  0
VERTEX
  8
0
 10
7.45221
 20
0.998861
 30
0.0
 40
0.0059055
 41
0.0059055
  0
VERTEX
  8
0
 10
7.47472
 20
0.998861
 30
0.0
 40
0.0059055
 41
0.0059055
  0
VERTEX
  8
0
 10
7.48042
 20
0.996094
 30
0.0
 40
0.0059055
 41
0.0059055
  0
VERTEX
  8
0
 10
7.48318
 20
0.993272
 30
0.0
 40
0.0059055
 41
0.0059055
  0
VERTEX
  8
0
 10
7.486
 20
0.987576
 30
0.0
 40
0.0059055
 41
0.0059055
  0
VERTEX
  8
0
 10
7.486
 20
0.979167
 30
0.0
 40
0.0059055
 41
0.0059055
  0
VERTEX
  8
0
 10
7.48318
 20
0.973579
 30
0.0
 40
0.0059055
 41
0.0059055
  0
VERTEX
  8
0
 10
7.48042
 20
0.970757
 30
0.0
 40
0.0059055
 41
0.0059055
  0
VERTEX
  8
0
 10
7.47472
 20
0.967882
 30
0.0
 40
0.0059055
 41
0.0059055
  0
VERTEX
  8
0
 10
7.45221
 20
0.967882
 30
0.0
 40
0.0059055
 41
0.0059055
  0
SEQEND
 8
0
  0
POLYLINE
  8
0
 62
     0
 66
     1
 10
0
 20
0
 30
0.0
 40
0.425196
 41
0.425196
  0
VERTEX
  8
0
 10
7.51969
 20
0.939779
 30
0.0
 40
0.0059055
 41
0.0059055
  0
VERTEX
  8
0
 10
7.51411
 20
0.9426
 30
0.0
 40
0.0059055
 41
0.0059055
  0
VERTEX
  8
0
 10
7.51129
 20
0.948296
 30
0.0
 40
0.0059055
 41
0.0059055
  0
VERTEX
  8
0
 10
7.51129
 20
0.998861
 30
0.0
 40
0.0059055
 41
0.0059055
  0
SEQEND
 8
0
  0
POLYLINE
  8
0
 62
     0
 66
     1
 10
0
 20
0
 30
0.0
 40
0.425196
 41
0.425196
  0
VERTEX
  8
0
 10
7.56749
 20
0.939779
 30
0.0
 40
0.0059055
 41
0.0059055
  0
VERTEX
  8
0
 10
7.56749
 20
0.970757
 30
0.0
 40
0.0059055
 41
0.0059055
  0
VERTEX
  8
0
 10
7.56467
 20
0.9764
 30
0.0
 40
0.0059055
 41
0.0059055
  0
VERTEX
  8
0
 10
7.55908
 20
0.979167
 30
0.0
 40
0.0059055
 41
0.0059055
  0
VERTEX
  8
0
 10
7.54779
 20
0.979167
 30
0.0
 40
0.0059055
 41
0.0059055
  0
VERTEX
  8
0
 10
7.54221
 20
0.9764
 30
0.0
 40
0.0059055
 41
0.0059055
  0
SEQEND
 8
0
  0
POLYLINE
  8
0
 62
     0
 66
     1
 10
0
 20
0
 30
0.0
 40
0.425196
 41
0.425196
  0
VERTEX
  8
0
 10
7.56749
 20
0.9426
 30
0.0
 40
0.0059055
 41
0.0059055
  0
VERTEX
  8
0
 10
7.5619
 20
0.939779
 30
0.0
 40
0.0059055
 41
0.0059055
  0
VERTEX
  8
0
 10
7.54779
 20
0.939779
 30
0.0
 40
0.0059055
 41
0.0059055
  0
VERTEX
  8
0
 10
7.54221
 20
0.9426
 30
0.0
 40
0.0059055
 41
0.0059055
  0
VERTEX
  8
0
 10
7.53939
 20
0.948296
 30
0.0
 40
0.0059055
 41
0.0059055
  0
VERTEX
  8
0
 10
7.53939
 20
0.953885
 30
0.0
 40
0.0059055
 41
0.0059055
  0
VERTEX
  8
0
 10
7.54221
 20
0.959472
 30
0.0
 40
0.0059055
 41
0.0059055
  0
VERTEX
  8
0
 10
7.54779
 20
0.962294
 30
0.0
 40
0.0059055
 41
0.0059055
  0
VERTEX
  8
0
 10
7.5619
 20
0.962294
 30
0.0
 40
0.0059055
 41
0.0059055
  0
VERTEX
  8
0
 10
7.56749
 20
0.965061
 30
0.0
 40
0.0059055
 41
0.0059055
  0
SEQEND
 8
0
  0
POLYLINE
  8
0
 62
     0
 66
     1
 10
0
 20
0
 30
0.0
 40
0.425196
 41
0.425196
  0
VERTEX
  8
0
 10
7.58718
 20
0.979167
 30
0.0
 40
0.0059055
 41
0.0059055
  0
VERTEX
  8
0
 10
7.60969
 20
0.979167
 30
0.0
 40
0.0059055
 41
0.0059055
  0
SEQEND
 8
0
  0
POLYLINE
  8
0
 62
     0
 66
     1
 10
0
 20
0
 30
0.0
 40
0.425196
 41
0.425196
  0
VERTEX
  8
0
 10
7.5956
 20
0.998861
 30
0.0
 40
0.0059055
 41
0.0059055
  0
VERTEX
  8
0
 10
7.5956
 20
0.948296
 30
0.0
 40
0.0059055
 41
0.0059055
  0
VERTEX
  8
0
 10
7.59847
 20
0.9426
 30
0.0
 40
0.0059055
 41
0.0059055
  0
VERTEX
  8
0
 10
7.60411
 20
0.939779
 30
0.0
 40
0.0059055
 41
0.0059055
  0
VERTEX
  8
0
 10
7.60969
 20
0.939779
 30
0.0
 40
0.0059055
 41
0.0059055
  0
SEQEND
 8
0
  0
POLYLINE
  8
0
 62
     0
 66
     1
 10
0
 20
0
 30
0.0
 40
0.425196
 41
0.425196
  0
VERTEX
  8
0
 10
7.65192
 20
0.9426
 30
0.0
 40
0.0059055
 41
0.0059055
  0
VERTEX
  8
0
 10
7.64626
 20
0.939779
 30
0.0
 40
0.0059055
 41
0.0059055
  0
VERTEX
  8
0
 10
7.63499
 20
0.939779
 30
0.0
 40
0.0059055
 41
0.0059055
  0
VERTEX
  8
0
 10
7.62939
 20
0.9426
 30
0.0
 40
0.0059055
 41
0.0059055
  0
VERTEX
  8
0
 10
7.62657
 20
0.948296
 30
0.0
 40
0.0059055
 41
0.0059055
  0
VERTEX
  8
0
 10
7.62657
 20
0.970757
 30
0.0
 40
0.0059055
 41
0.0059055
  0
VERTEX
  8
0
 10
7.62939
 20
0.9764
 30
0.0
 40
0.0059055
 41
0.0059055
  0
VERTEX
  8
0
 10
7.63499
 20
0.979167
 30
0.0
 40
0.0059055
 41
0.0059055
  0
VERTEX
  8
0
 10
7.64626
 20
0.979167
 30
0.0
 40
0.0059055
 41
0.0059055
  0
VERTEX
  8
0
 10
7.65192
 20
0.9764
 30
0.0
 40
0.0059055
 41
0.0059055
  0
VERTEX
  8
0
 10
7.65468
 20
0.970757
 30
0.0
 40
0.0059055
 41
0.0059055
  0
VERTEX
  8
0
 10
7.65468
 20
0.965061
 30
0.0
 40
0.0059055
 41
0.0059055
  0
VERTEX
  8
0
 10
7.62657
 20
0.959472
 30
0.0
 40
0.0059055
 41
0.0059055
  0
SEQEND
 8
0
  0
POLYLINE
  8
0
 62
     0
 66
     1
 10
0
 20
0
 30
0.0
 40
0.425196
 41
0.425196
  0
VERTEX
  8
0
 10
7.68001
 20
0.945475
 30
0.0
 40
0.0059055
 41
0.0059055
  0
VERTEX
  8
0
 10
7.68278
 20
0.9426
 30
0.0
 40
0.0059055
 41
0.0059055
  0
VERTEX
  8
0
 10
7.68001
 20
0.939779
 30
0.0
 40
0.0059055
 41
0.0059055
  0
VERTEX
  8
0
 10
7.67719
 20
0.9426
 30
0.0
 40
0.0059055
 41
0.0059055
  0
VERTEX
  8
0
 10
7.68001
 20
0.945475
 30
0.0
 40
0.0059055
 41
0.0059055
  0
VERTEX
  8
0
 10
7.68001
 20
0.939779
 30
0.0
 40
0.0059055
 41
0.0059055
  0
SEQEND
 8
0
  0
POLYLINE
  8
0
 62
     0
 66
     1
 10
0
 20
0
 30
0.0
 40
0.425196
 41
0.425196
  0
VERTEX
  8
0
 10
7.70811
 20
0.939779
 30
0.0
 40
0.0059055
 41
0.0059055
  0
VERTEX
  8
0
 10
7.70811
 20
0.998861
 30
0.0
 40
0.0059055
 41
0.0059055
  0
SEQEND
 8
0
  0
POLYLINE
  8
0
 62
     0
 66
     1
 10
0
 20
0
 30
0.0
 40
0.425196
 41
0.425196
  0
VERTEX
  8
0
 10
7.71382
 20
0.962294
 30
0.0
 40
0.0059055
 41
0.0059055
  0
VERTEX
  8
0
 10
7.73058
 20
0.939779
 30
0.0
 40
0.0059055
 41
0.0059055
  0
SEQEND
 8
0
  0
POLYLINE
  8
0
 62
     0
 66
     1
 10
0
 20
0
 30
0.0
 40
0.425196
 41
0.425196
  0
VERTEX
  8
0
 10
7.73058
 20
0.979167
 30
0.0
 40
0.0059055
 41
0.0059055
  0
VERTEX
  8
0
 10
7.70811
 20
0.956706
 30
0.0
 40
0.0059055
 41
0.0059055
  0
SEQEND
 8
0
  0
POLYLINE
  8
0
 62
     0
 66
     1
 10
0
 20
0
 30
0.0
 40
0.425196
 41
0.425196
  0
VERTEX
  8
0
 10
7.75592
 20
0.939779
 30
0.0
 40
0.0059055
 41
0.0059055
  0
VERTEX
  8
0
 10
7.75592
 20
0.979167
 30
0.0
 40
0.0059055
 41
0.0059055
  0
SEQEND
 8
0
  0
POLYLINE
  8
0
 62
     0
 66
     1
 10
0
 20
0
 30
0.0
 40
0.425196
 41
0.425196
  0
VERTEX
  8
0
 10
7.75592
 20
0.998861
 30
0.0
 40
0.0059055
 41
0.0059055
  0
VERTEX
  8
0
 10
7.7531
 20
0.996094
 30
0.0
 40
0.0059055
 41
0.0059055
  0
VERTEX
  8
0
 10
7.75592
 20
0.993272
 30
0.0
 40
0.0059055
 41
0.0059055
  0
VERTEX
  8
0
 10
7.75879
 20
0.996094
 30
0.0
 40
0.0059055
 41
0.0059055
  0
VERTEX
  8
0
 10
7.75592
 20
0.998861
 30
0.0
 40
0.0059055
 41
0.0059055
  0
VERTEX
  8
0
 10
7.75592
 20
0.993272
 30
0.0
 40
0.0059055
 41
0.0059055
  0
SEQEND
 8
0
  0
POLYLINE
  8
0
 62
     0
 66
     1
 10
0
 20
0
 30
0.0
 40
0.425196
 41
0.425196
  0
VERTEX
  8
0
 10
7.8094
 20
0.9426
 30
0.0
 40
0.0059055
 41
0.0059055
  0
VERTEX
  8
0
 10
7.80371
 20
0.939779
 30
0.0
 40
0.0059055
 41
0.0059055
  0
VERTEX
  8
0
 10
7.79249
 20
0.939779
 30
0.0
 40
0.0059055
 41
0.0059055
  0
VERTEX
  8
0
 10
7.78689
 20
0.9426
 30
0.0
 40
0.0059055
 41
0.0059055
  0
VERTEX
  8
0
 10
7.78407
 20
0.945475
 30
0.0
 40
0.0059055
 41
0.0059055
  0
VERTEX
  8
0
 10
7.78131
 20
0.951064
 30
0.0
 40
0.0059055
 41
0.0059055
  0
VERTEX
  8
0
 10
7.78131
 20
0.967882
 30
0.0
 40
0.0059055
 41
0.0059055
  0
VERTEX
  8
0
 10
7.78407
 20
0.973579
 30
0.0
 40
0.0059055
 41
0.0059055
  0
VERTEX
  8
0
 10
7.78689
 20
0.9764
 30
0.0
 40
0.0059055
 41
0.0059055
  0
VERTEX
  8
0
 10
7.79249
 20
0.979167
 30
0.0
 40
0.0059055
 41
0.0059055
  0
VERTEX
  8
0
 10
7.80371
 20
0.979167
 30
0.0
 40
0.0059055
 41
0.0059055
  0
VERTEX
  8
0
 10
7.8094
 20
0.9764
 30
0.0
 40
0.0059055
 41
0.0059055
  0
SEQEND
 8
0
  0
POLYLINE
  8
0
 62
     0
 66
     1
 10
0
 20
0
 30
0.0
 40
0.425196
 41
0.425196
  0
VERTEX
  8
0
 10
7.85997
 20
0.939779
 30
0.0
 40
0.0059055
 41
0.0059055
  0
VERTEX
  8
0
 10
7.85997
 20
0.970757
 30
0.0
 40
0.0059055
 41
0.0059055
  0
VERTEX
  8
0
 10
7.85721
 20
0.9764
 30
0.0
 40
0.0059055
 41
0.0059055
  0
VERTEX
  8
0
 10
7.85161
 20
0.979167
 30
0.0
 40
0.0059055
 41
0.0059055
  0
VERTEX
  8
0
 10
7.84028
 20
0.979167
 30
0.0
 40
0.0059055
 41
0.0059055
  0
VERTEX
  8
0
 10
7.83469
 20
0.9764
 30
0.0
 40
0.0059055
 41
0.0059055
  0
SEQEND
 8
0
  0
POLYLINE
  8
0
 62
     0
 66
     1
 10
0
 20
0
 30
0.0
 40
0.425196
 41
0.425196
  0
VERTEX
  8
0
 10
7.85997
 20
0.9426
 30
0.0
 40
0.0059055
 41
0.0059055
  0
VERTEX
  8
0
 10
7.85439
 20
0.939779
 30
0.0
 40
0.0059055
 41
0.0059055
  0
VERTEX
  8
0
 10
7.84028
 20
0.939779
 30
0.0
 40
0.0059055
 41
0.0059055
  0
VERTEX
  8
0
 10
7.83469
 20
0.9426
 30
0.0
 40
0.0059055
 41
0.0059055
  0
VERTEX
  8
0
 10
7.83188
 20
0.948296
 30
0.0
 40
0.0059055
 41
0.0059055
  0
VERTEX
  8
0
 10
7.83188
 20
0.953885
 30
0.0
 40
0.0059055
 41
0.0059055
  0
VERTEX
  8
0
 10
7.83469
 20
0.959472
 30
0.0
 40
0.0059055
 41
0.0059055
  0
VERTEX
  8
0
 10
7.84028
 20
0.962294
 30
0.0
 40
0.0059055
 41
0.0059055
  0
VERTEX
  8
0
 10
7.85439
 20
0.962294
 30
0.0
 40
0.0059055
 41
0.0059055
  0
VERTEX
  8
0
 10
7.85997
 20
0.965061
 30
0.0
 40
0.0059055
 41
0.0059055
  0
SEQEND
 8
0
  0
POLYLINE
  8
0
 62
     0
 66
     1
 10
0
 20
0
 30
0.0
 40
0.425196
 41
0.425196
  0
VERTEX
  8
0
 10
7.91342
 20
0.939779
 30
0.0
 40
0.0059055
 41
0.0059055
  0
VERTEX
  8
0
 10
7.91342
 20
0.998861
 30
0.0
 40
0.0059055
 41
0.0059055
  0
SEQEND
 8
0
  0
POLYLINE
  8
0
 62
     0
 66
     1
 10
0
 20
0
 30
0.0
 40
0.425196
 41
0.425196
  0
VERTEX
  8
0
 10
7.91342
 20
0.9426
 30
0.0
 40
0.0059055
 41
0.0059055
  0
VERTEX
  8
0
 10
7.90776
 20
0.939779
 30
0.0
 40
0.0059055
 41
0.0059055
  0
VERTEX
  8
0
 10
7.89649
 20
0.939779
 30
0.0
 40
0.0059055
 41
0.0059055
  0
VERTEX
  8
0
 10
7.8909
 20
0.9426
 30
0.0
 40
0.0059055
 41
0.0059055
  0
VERTEX
  8
0
 10
7.88807
 20
0.945475
 30
0.0
 40
0.0059055
 41
0.0059055
  0
VERTEX
  8
0
 10
7.88531
 20
0.951064
 30
0.0
 40
0.0059055
 41
0.0059055
  0
VERTEX
  8
0
 10
7.88531
 20
0.967882
 30
0.0
 40
0.0059055
 41
0.0059055
  0
VERTEX
  8
0
 10
7.88807
 20
0.973579
 30
0.0
 40
0.0059055
 41
0.0059055
  0
VERTEX
  8
0
 10
7.8909
 20
0.9764
 30
0.0
 40
0.0059055
 41
0.0059055
  0
VERTEX
  8
0
 10
7.89649
 20
0.979167
 30
0.0
 40
0.0059055
 41
0.0059055
  0
VERTEX
  8
0
 10
7.90776
 20
0.979167
 30
0.0
 40
0.0059055
 41
0.0059055
  0
VERTEX
  8
0
 10
7.91342
 20
0.9764
 30
0.0
 40
0.0059055
 41
0.0059055
  0
SEQEND
 8
0
  0
POLYLINE
  8
0
 62
     0
 66
     1
 10
0
 20
0
 30
0.0
 40
0.425196
 41
0.425196
  0
VERTEX
  8
0
 10
7.92751
 20
0.93419
 30
0.0
 40
0.0059055
 41
0.0059055
  0
VERTEX
  8
0
 10
7.9725
 20
0.93419
 30
0.0
 40
0.0059055
 41
0.0059055
  0
SEQEND
 8
0
  0
POLYLINE
  8
0
 62
     0
 66
     1
 10
0
 20
0
 30
0.0
 40
0.425196
 41
0.425196
  0
VERTEX
  8
0
 10
7.98649
 20
0.979167
 30
0.0
 40
0.0059055
 41
0.0059055
  0
VERTEX
  8
0
 10
7.98649
 20
0.920085
 30
0.0
 40
0.0059055
 41
0.0059055
  0
SEQEND
 8
0
  0
POLYLINE
  8
0
 62
     0
 66
     1
 10
0
 20
0
 30
0.0
 40
0.425196
 41
0.425196
  0
VERTEX
  8
0
 10
7.98649
 20
0.9764
 30
0.0
 40
0.0059055
 41
0.0059055
  0
VERTEX
  8
0
 10
7.99219
 20
0.979167
 30
0.0
 40
0.0059055
 41
0.0059055
  0
VERTEX
  8
0
 10
8.00342
 20
0.979167
 30
0.0
 40
0.0059055
 41
0.0059055
  0
VERTEX
  8
0
 10
8.009
 20
0.9764
 30
0.0
 40
0.0059055
 41
0.0059055
  0
VERTEX
  8
0
 10
8.01178
 20
0.973579
 30
0.0
 40
0.0059055
 41
0.0059055
  0
VERTEX
  8
0
 10
8.01471
 20
0.967882
 30
0.0
 40
0.0059055
 41
0.0059055
  0
VERTEX
  8
0
 10
8.01471
 20
0.951064
 30
0.0
 40
0.0059055
 41
0.0059055
  0
VERTEX
  8
0
 10
8.01178
 20
0.945475
 30
0.0
 40
0.0059055
 41
0.0059055
  0
VERTEX
  8
0
 10
8.009
 20
0.9426
 30
0.0
 40
0.0059055
 41
0.0059055
  0
VERTEX
  8
0
 10
8.00342
 20
0.939779
 30
0.0
 40
0.0059055
 41
0.0059055
  0
VERTEX
  8
0
 10
7.99219
 20
0.939779
 30
0.0
 40
0.0059055
 41
0.0059055
  0
VERTEX
  8
0
 10
7.98649
 20
0.9426
 30
0.0
 40
0.0059055
 41
0.0059055
  0
SEQEND
 8
0
  0
POLYLINE
  8
0
 62
     0
 66
     1
 10
0
 20
0
 30
0.0
 40
0.425196
 41
0.425196
  0
VERTEX
  8
0
 10
8.06526
 20
0.9426
 30
0.0
 40
0.0059055
 41
0.0059055
  0
VERTEX
  8
0
 10
8.05968
 20
0.939779
 30
0.0
 40
0.0059055
 41
0.0059055
  0
VERTEX
  8
0
 10
8.04839
 20
0.939779
 30
0.0
 40
0.0059055
 41
0.0059055
  0
VERTEX
  8
0
 10
8.04281
 20
0.9426
 30
0.0
 40
0.0059055
 41
0.0059055
  0
VERTEX
  8
0
 10
8.03999
 20
0.945475
 30
0.0
 40
0.0059055
 41
0.0059055
  0
VERTEX
  8
0
 10
8.03722
 20
0.951064
 30
0.0
 40
0.0059055
 41
0.0059055
  0
VERTEX
  8
0
 10
8.03722
 20
0.967882
 30
0.0
 40
0.0059055
 41
0.0059055
  0
VERTEX
  8
0
 10
8.03999
 20
0.973579
 30
0.0
 40
0.0059055
 41
0.0059055
  0
VERTEX
  8
0
 10
8.04281
 20
0.9764
 30
0.0
 40
0.0059055
 41
0.0059055
  0
VERTEX
  8
0
 10
8.04839
 20
0.979167
 30
0.0
 40
0.0059055
 41
0.0059055
  0
VERTEX
  8
0
 10
8.05968
 20
0.979167
 30
0.0
 40
0.0059055
 41
0.0059055
  0
VERTEX
  8
0
 10
8.06526
 20
0.9764
 30
0.0
 40
0.0059055
 41
0.0059055
  0
SEQEND
 8
0
  0
POLYLINE
  8
0
 62
     0
 66
     1
 10
0
 20
0
 30
0.0
 40
0.425196
 41
0.425196
  0
VERTEX
  8
0
 10
8.0906
 20
0.939779
 30
0.0
 40
0.0059055
 41
0.0059055
  0
VERTEX
  8
0
 10
8.0906
 20
0.998861
 30
0.0
 40
0.0059055
 41
0.0059055
  0
SEQEND
 8
0
  0
POLYLINE
  8
0
 62
     0
 66
     1
 10
0
 20
0
 30
0.0
 40
0.425196
 41
0.425196
  0
VERTEX
  8
0
 10
8.0906
 20
0.9764
 30
0.0
 40
0.0059055
 41
0.0059055
  0
VERTEX
  8
0
 10
8.09619
 20
0.979167
 30
0.0
 40
0.0059055
 41
0.0059055
  0
VERTEX
  8
0
 10
8.10747
 20
0.979167
 30
0.0
 40
0.0059055
 41
0.0059055
  0
VERTEX
  8
0
 10
8.11313
 20
0.9764
 30
0.0
 40
0.0059055
 41
0.0059055
  0
VERTEX
  8
0
 10
8.11589
 20
0.973579
 30
0.0
 40
0.0059055
 41
0.0059055
  0
VERTEX
  8
0
 10
8.11871
 20
0.967882
 30
0.0
 40
0.0059055
 41
0.0059055
  0
VERTEX
  8
0
 10
8.11871
 20
0.951064
 30
0.0
 40
0.0059055
 41
0.0059055
  0
VERTEX
  8
0
 10
8.11589
 20
0.945475
 30
0.0
 40
0.0059055
 41
0.0059055
  0
VERTEX
  8
0
 10
8.11313
 20
0.9426
 30
0.0
 40
0.0059055
 41
0.0059055
  0
VERTEX
  8
0
 10
8.10747
 20
0.939779
 30
0.0
 40
0.0059055
 41
0.0059055
  0
VERTEX
  8
0
 10
8.09619
 20
0.939779
 30
0.0
 40
0.0059055
 41
0.0059055
  0
VERTEX
  8
0
 10
8.0906
 20
0.9426
 30
0.0
 40
0.0059055
 41
0.0059055
  0
SEQEND
 8
0
  0
POLYLINE
  8
0
 62
     0
 66
     1
 10
0
 20
0
 30
0.0
 40
0.425196
 41
0.425196
  0
VERTEX
  8
0
 10
6.96847
 20
1.13189
 30
0.0
 40
0.0059055
 41
0.0059055
  0
VERTEX
  8
0
 10
11.2205
 20
1.13189
 30
0.0
 40
0.0059055
 41
0.0059055
  0
SEQEND
 8
0
  0
POLYLINE
  8
0
 62
     0
 66
     1
 10
0
 20
0
 30
0.0
 40
0.425196
 41
0.425196
  0
VERTEX
  8
0
 10
7.01921
 20
1.04888
 30
0.0
 40
0.0059055
 41
0.0059055
  0
VERTEX
  8
0
 10
7.02761
 20
1.04606
 30
0.0
 40
0.0059055
 41
0.0059055
  0
VERTEX
  8
0
 10
7.04172
 20
1.04606
 30
0.0
 40
0.0059055
 41
0.0059055
  0
VERTEX
  8
0
 10
7.04731
 20
1.04888
 30
0.0
 40
0.0059055
 41
0.0059055
  0
VERTEX
  8
0
 10
7.05007
 20
1.05176
 30
0.0
 40
0.0059055
 41
0.0059055
  0
VERTEX
  8
0
 10
7.0529
 20
1.0574
 30
0.0
 40
0.0059055
 41
0.0059055
  0
VERTEX
  8
0
 10
7.0529
 20
1.06299
 30
0.0
 40
0.0059055
 41
0.0059055
  0
VERTEX
  8
0
 10
7.05007
 20
1.06858
 30
0.0
 40
0.0059055
 41
0.0059055
  0
VERTEX
  8
0
 10
7.04731
 20
1.0714
 30
0.0
 40
0.0059055
 41
0.0059055
  0
VERTEX
  8
0
 10
7.04172
 20
1.07416
 30
0.0
 40
0.0059055
 41
0.0059055
  0
VERTEX
  8
0
 10
7.03039
 20
1.07709
 30
0.0
 40
0.0059055
 41
0.0059055
  0
VERTEX
  8
0
 10
7.02479
 20
1.07986
 30
0.0
 40
0.0059055
 41
0.0059055
  0
VERTEX
  8
0
 10
7.02197
 20
1.08268
 30
0.0
 40
0.0059055
 41
0.0059055
  0
VERTEX
  8
0
 10
7.01921
 20
1.08827
 30
0.0
 40
0.0059055
 41
0.0059055
  0
VERTEX
  8
0
 10
7.01921
 20
1.09386
 30
0.0
 40
0.0059055
 41
0.0059055
  0
VERTEX
  8
0
 10
7.02197
 20
1.09961
 30
0.0
 40
0.0059055
 41
0.0059055
  0
VERTEX
  8
0
 10
7.02479
 20
1.10238
 30
0.0
 40
0.0059055
 41
0.0059055
  0
VERTEX
  8
0
 10
7.03039
 20
1.1052
 30
0.0
 40
0.0059055
 41
0.0059055
  0
VERTEX
  8
0
 10
7.04449
 20
1.1052
 30
0.0
 40
0.0059055
 41
0.0059055
  0
VERTEX
  8
0
 10
7.0529
 20
1.10238
 30
0.0
 40
0.0059055
 41
0.0059055
  0
SEQEND
 8
0
  0
POLYLINE
  8
0
 62
     0
 66
     1
 10
0
 20
0
 30
0.0
 40
0.425196
 41
0.425196
  0
VERTEX
  8
0
 10
7.07818
 20
1.04606
 30
0.0
 40
0.0059055
 41
0.0059055
  0
VERTEX
  8
0
 10
7.07818
 20
1.1052
 30
0.0
 40
0.0059055
 41
0.0059055
  0
SEQEND
 8
0
  0
POLYLINE
  8
0
 62
     0
 66
     1
 10
0
 20
0
 30
0.0
 40
0.425196
 41
0.425196
  0
VERTEX
  8
0
 10
7.10351
 20
1.04606
 30
0.0
 40
0.0059055
 41
0.0059055
  0
VERTEX
  8
0
 10
7.10351
 20
1.07709
 30
0.0
 40
0.0059055
 41
0.0059055
  0
VERTEX
  8
0
 10
7.10069
 20
1.08268
 30
0.0
 40
0.0059055
 41
0.0059055
  0
VERTEX
  8
0
 10
7.09511
 20
1.0855
 30
0.0
 40
0.0059055
 41
0.0059055
  0
VERTEX
  8
0
 10
7.08669
 20
1.0855
 30
0.0
 40
0.0059055
 41
0.0059055
  0
VERTEX
  8
0
 10
7.081
 20
1.08268
 30
0.0
 40
0.0059055
 41
0.0059055
  0
VERTEX
  8
0
 10
7.07818
 20
1.07986
 30
0.0
 40
0.0059055
 41
0.0059055
  0
SEQEND
 8
0
  0
POLYLINE
  8
0
 62
     0
 66
     1
 10
0
 20
0
 30
0.0
 40
0.425196
 41
0.425196
  0
VERTEX
  8
0
 10
7.15408
 20
1.04888
 30
0.0
 40
0.0059055
 41
0.0059055
  0
VERTEX
  8
0
 10
7.14849
 20
1.04606
 30
0.0
 40
0.0059055
 41
0.0059055
  0
VERTEX
  8
0
 10
7.13732
 20
1.04606
 30
0.0
 40
0.0059055
 41
0.0059055
  0
VERTEX
  8
0
 10
7.13162
 20
1.04888
 30
0.0
 40
0.0059055
 41
0.0059055
  0
VERTEX
  8
0
 10
7.12879
 20
1.05458
 30
0.0
 40
0.0059055
 41
0.0059055
  0
VERTEX
  8
0
 10
7.12879
 20
1.07709
 30
0.0
 40
0.0059055
 41
0.0059055
  0
VERTEX
  8
0
 10
7.13162
 20
1.08268
 30
0.0
 40
0.0059055
 41
0.0059055
  0
VERTEX
  8
0
 10
7.13732
 20
1.0855
 30
0.0
 40
0.0059055
 41
0.0059055
  0
VERTEX
  8
0
 10
7.14849
 20
1.0855
 30
0.0
 40
0.0059055
 41
0.0059055
  0
VERTEX
  8
0
 10
7.15408
 20
1.08268
 30
0.0
 40
0.0059055
 41
0.0059055
  0
VERTEX
  8
0
 10
7.15701
 20
1.07709
 30
0.0
 40
0.0059055
 41
0.0059055
  0
VERTEX
  8
0
 10
7.15701
 20
1.0714
 30
0.0
 40
0.0059055
 41
0.0059055
  0
VERTEX
  8
0
 10
7.12879
 20
1.06581
 30
0.0
 40
0.0059055
 41
0.0059055
  0
SEQEND
 8
0
  0
POLYLINE
  8
0
 62
     0
 66
     1
 10
0
 20
0
 30
0.0
 40
0.425196
 41
0.425196
  0
VERTEX
  8
0
 10
7.20481
 20
1.04888
 30
0.0
 40
0.0059055
 41
0.0059055
  0
VERTEX
  8
0
 10
7.19911
 20
1.04606
 30
0.0
 40
0.0059055
 41
0.0059055
  0
VERTEX
  8
0
 10
7.18787
 20
1.04606
 30
0.0
 40
0.0059055
 41
0.0059055
  0
VERTEX
  8
0
 10
7.18229
 20
1.04888
 30
0.0
 40
0.0059055
 41
0.0059055
  0
VERTEX
  8
0
 10
7.17947
 20
1.05458
 30
0.0
 40
0.0059055
 41
0.0059055
  0
VERTEX
  8
0
 10
7.17947
 20
1.07709
 30
0.0
 40
0.0059055
 41
0.0059055
  0
VERTEX
  8
0
 10
7.18229
 20
1.08268
 30
0.0
 40
0.0059055
 41
0.0059055
  0
VERTEX
  8
0
 10
7.18787
 20
1.0855
 30
0.0
 40
0.0059055
 41
0.0059055
  0
VERTEX
  8
0
 10
7.19911
 20
1.0855
 30
0.0
 40
0.0059055
 41
0.0059055
  0
VERTEX
  8
0
 10
7.20481
 20
1.08268
 30
0.0
 40
0.0059055
 41
0.0059055
  0
VERTEX
  8
0
 10
7.20757
 20
1.07709
 30
0.0
 40
0.0059055
 41
0.0059055
  0
VERTEX
  8
0
 10
7.20757
 20
1.0714
 30
0.0
 40
0.0059055
 41
0.0059055
  0
VERTEX
  8
0
 10
7.17947
 20
1.06581
 30
0.0
 40
0.0059055
 41
0.0059055
  0
SEQEND
 8
0
  0
POLYLINE
  8
0
 62
     0
 66
     1
 10
0
 20
0
 30
0.0
 40
0.425196
 41
0.425196
  0
VERTEX
  8
0
 10
7.22439
 20
1.0855
 30
0.0
 40
0.0059055
 41
0.0059055
  0
VERTEX
  8
0
 10
7.2469
 20
1.0855
 30
0.0
 40
0.0059055
 41
0.0059055
  0
SEQEND
 8
0
  0
POLYLINE
  8
0
 62
     0
 66
     1
 10
0
 20
0
 30
0.0
 40
0.425196
 41
0.425196
  0
VERTEX
  8
0
 10
7.23292
 20
1.1052
 30
0.0
 40
0.0059055
 41
0.0059055
  0
VERTEX
  8
0
 10
7.23292
 20
1.05458
 30
0.0
 40
0.0059055
 41
0.0059055
  0
VERTEX
  8
0
 10
7.23568
 20
1.04888
 30
0.0
 40
0.0059055
 41
0.0059055
  0
VERTEX
  8
0
 10
7.24132
 20
1.04606
 30
0.0
 40
0.0059055
 41
0.0059055
  0
VERTEX
  8
0
 10
7.2469
 20
1.04606
 30
0.0
 40
0.0059055
 41
0.0059055
  0
SEQEND
 8
0
  0
POLYLINE
  8
0
 62
     0
 66
     1
 10
0
 20
0
 30
0.0
 40
0.425196
 41
0.425196
  0
VERTEX
  8
0
 10
7.2666
 20
1.05176
 30
0.0
 40
0.0059055
 41
0.0059055
  0
VERTEX
  8
0
 10
7.26938
 20
1.04888
 30
0.0
 40
0.0059055
 41
0.0059055
  0
VERTEX
  8
0
 10
7.2666
 20
1.04606
 30
0.0
 40
0.0059055
 41
0.0059055
  0
VERTEX
  8
0
 10
7.26378
 20
1.04888
 30
0.0
 40
0.0059055
 41
0.0059055
  0
VERTEX
  8
0
 10
7.2666
 20
1.05176
 30
0.0
 40
0.0059055
 41
0.0059055
  0
VERTEX
  8
0
 10
7.2666
 20
1.04606
 30
0.0
 40
0.0059055
 41
0.0059055
  0
SEQEND
 8
0
  0
POLYLINE
  8
0
 62
     0
 66
     1
 10
0
 20
0
 30
0.0
 40
0.425196
 41
0.425196
  0
VERTEX
  8
0
 10
7.2666
 20
1.08268
 30
0.0
 40
0.0059055
 41
0.0059055
  0
VERTEX
  8
0
 10
7.26938
 20
1.07986
 30
0.0
 40
0.0059055
 41
0.0059055
  0
VERTEX
  8
0
 10
7.2666
 20
1.07709
 30
0.0
 40
0.0059055
 41
0.0059055
  0
VERTEX
  8
0
 10
7.26378
 20
1.07986
 30
0.0
 40
0.0059055
 41
0.0059055
  0
VERTEX
  8
0
 10
7.2666
 20
1.08268
 30
0.0
 40
0.0059055
 41
0.0059055
  0
VERTEX
  8
0
 10
7.2666
 20
1.07709
 30
0.0
 40
0.0059055
 41
0.0059055
  0
SEQEND
 8
0
  0
POLYLINE
  8
0
 62
     0
 66
     1
 10
0
 20
0
 30
0.0
 40
0.425196
 41
0.425196
  0
VERTEX
  8
0
 10
7.75592
 20
0.738172
 30
0.0
 40
0.0059055
 41
0.0059055
  0
VERTEX
  8
0
 10
7.75592
 20
0.620063
 30
0.0
 40
0.0059055
 41
0.0059055
  0
SEQEND
 8
0
  0
POLYLINE
  8
0
 62
     0
 66
     1
 10
0
 20
0
 30
0.0
 40
0.425196
 41
0.425196
  0
VERTEX
  8
0
 10
10.2756
 20
0.738172
 30
0.0
 40
0.0059055
 41
0.0059055
  0
VERTEX
  8
0
 10
10.2756
 20
0.48226
 30
0.0
 40
0.0059055
 41
0.0059055
  0
SEQEND
 8
0
  0
POLYLINE
  8
0
 62
     52
 66
     1
 10
0
 20
0
 30
0.0
 40
0.283464
 41
0.283464
  0
VERTEX
  8
0
 10
7.71539
 20
4.23497
 30
0.0
 40
0.003937
 41
0.003937
  0
VERTEX
  8
0
 10
7.68967
 20
4.24929
 30
0.0
 40
0.003937
 41
0.003937
  0
SEQEND
 8
0
  0
POLYLINE
  8
0
 62
     52
 66
     1
 10
0
 20
0
 30
0.0
 40
0.283464
 41
0.283464
  0
VERTEX
  8
0
 10
7.62478
 20
4.13667
 30
0.0
 40
0.003937
 41
0.003937
  0
VERTEX
  8
0
 10
7.65028
 20
4.1219
 30
0.0
 40
0.003937
 41
0.003937
  0
SEQEND
 8
0
  0
POLYLINE
  8
0
 62
     52
 66
     1
 10
0
 20
0
 30
0.0
 40
0.283464
 41
0.283464
  0
VERTEX
  8
0
 10
7.68967
 20
4.24929
 30
0.0
 40
0.003937
 41
0.003937
  0
VERTEX
  8
0
 10
7.62478
 20
4.13667
 30
0.0
 40
0.003937
 41
0.003937
  0
SEQEND
 8
0
  0
POLYLINE
  8
0
 62
     52
 66
     1
 10
0
 20
0
 30
0.0
 40
0.283464
 41
0.283464
  0
VERTEX
  8
0
 10
7.24647
 20
3.42307
 30
0.0
 40
0.003937
 41
0.003937
  0
VERTEX
  8
0
 10
7.22119
 20
3.43778
 30
0.0
 40
0.003937
 41
0.003937
  0
SEQEND
 8
0
  0
POLYLINE
  8
0
 62
     52
 66
     1
 10
0
 20
0
 30
0.0
 40
0.283464
 41
0.283464
  0
VERTEX
  8
0
 10
7.65028
 20
4.1219
 30
0.0
 40
0.003937
 41
0.003937
  0
VERTEX
  8
0
 10
7.24647
 20
3.42307
 30
0.0
 40
0.003937
 41
0.003937
  0
SEQEND
 8
0
  0
POLYLINE
  8
0
 62
     52
 66
     1
 10
0
 20
0
 30
0.0
 40
0.283464
 41
0.283464
  0
VERTEX
  8
0
 10
7.15619
 20
3.32531
 30
0.0
 40
0.003937
 41
0.003937
  0
VERTEX
  8
0
 10
7.18169
 20
3.31065
 30
0.0
 40
0.003937
 41
0.003937
  0
SEQEND
 8
0
  0
POLYLINE
  8
0
 62
     52
 66
     1
 10
0
 20
0
 30
0.0
 40
0.283464
 41
0.283464
  0
VERTEX
  8
0
 10
7.22119
 20
3.43778
 30
0.0
 40
0.003937
 41
0.003937
  0
VERTEX
  8
0
 10
7.15619
 20
3.32531
 30
0.0
 40
0.003937
 41
0.003937
  0
SEQEND
 8
0
  0
POLYLINE
  8
0
 62
     52
 66
     1
 10
0
 20
0
 30
0.0
 40
0.283464
 41
0.283464
  0
VERTEX
  8
0
 10
7.80908
 20
4.35037
 30
0.0
 40
0.003937
 41
0.003937
  0
VERTEX
  8
0
 10
7.7934
 20
4.32308
 30
0.0
 40
0.003937
 41
0.003937
  0
SEQEND
 8
0
  0
POLYLINE
  8
0
 62
     52
 66
     1
 10
0
 20
0
 30
0.0
 40
0.283464
 41
0.283464
  0
VERTEX
  8
0
 10
7.59972
 20
2.9324
 30
0.0
 40
0.003937
 41
0.003937
  0
VERTEX
  8
0
 10
8.25028
 20
4.05931
 30
0.0
 40
0.003937
 41
0.003937
  0
SEQEND
 8
0
  0
POLYLINE
  8
0
 62
     52
 66
     1
 10
0
 20
0
 30
0.0
 40
0.283464
 41
0.283464
  0
VERTEX
  8
0
 10
7.77289
 20
4.3349
 30
0.0
 40
0.003937
 41
0.003937
  0
VERTEX
  8
0
 10
7.71539
 20
4.23497
 30
0.0
 40
0.003937
 41
0.003937
  0
SEQEND
 8
0
  0
POLYLINE
  8
0
 62
     52
 66
     1
 10
0
 20
0
 30
0.0
 40
0.283464
 41
0.283464
  0
VERTEX
  8
0
 10
7.7934
 20
4.32308
 30
0.0
 40
0.003937
 41
0.003937
  0
VERTEX
  8
0
 10
7.77289
 20
4.3349
 30
0.0
 40
0.003937
 41
0.003937
  0
SEQEND
 8
0
  0
POLYLINE
  8
0
 62
     52
 66
     1
 10
0
 20
0
 30
0.0
 40
0.283464
 41
0.283464
  0
VERTEX
  8
0
 10
7.57921
 20
2.94417
 30
0.0
 40
0.003937
 41
0.003937
  0
VERTEX
  8
0
 10
7.59972
 20
2.93251
 30
0.0
 40
0.003937
 41
0.003937
  0
SEQEND
 8
0
  0
POLYLINE
  8
0
 62
     52
 66
     1
 10
0
 20
0
 30
0.0
 40
0.283464
 41
0.283464
  0
VERTEX
  8
0
 10
7.12229
 20
3.20806
 30
0.0
 40
0.003937
 41
0.003937
  0
VERTEX
  8
0
 10
7.14279
 20
3.19618
 30
0.0
 40
0.003937
 41
0.003937
  0
SEQEND
 8
0
  0
POLYLINE
  8
0
 62
     52
 66
     1
 10
0
 20
0
 30
0.0
 40
0.283464
 41
0.283464
  0
VERTEX
  8
0
 10
7.12701
 20
3.169
 30
0.0
 40
0.003937
 41
0.003937
  0
VERTEX
  8
0
 10
7.56337
 20
2.91699
 30
0.0
 40
0.003937
 41
0.003937
  0
SEQEND
 8
0
  0
POLYLINE
  8
0
 62
     52
 66
     1
 10
0
 20
0
 30
0.0
 40
0.283464
 41
0.283464
  0
VERTEX
  8
0
 10
7.14279
 20
3.19618
 30
0.0
 40
0.003937
 41
0.003937
  0
VERTEX
  8
0
 10
7.12701
 20
3.169
 30
0.0
 40
0.003937
 41
0.003937
  0
SEQEND
 8
0
  0
POLYLINE
  8
0
 62
     52
 66
     1
 10
0
 20
0
 30
0.0
 40
0.283464
 41
0.283464
  0
VERTEX
  8
0
 10
7.18169
 20
3.31065
 30
0.0
 40
0.003937
 41
0.003937
  0
VERTEX
  8
0
 10
7.12229
 20
3.20806
 30
0.0
 40
0.003937
 41
0.003937
  0
SEQEND
 8
0
  0
POLYLINE
  8
0
 62
     52
 66
     1
 10
0
 20
0
 30
0.0
 40
0.283464
 41
0.283464
  0
VERTEX
  8
0
 10
8.2455
 20
4.09836
 30
0.0
 40
0.003937
 41
0.003937
  0
VERTEX
  8
0
 10
7.80908
 20
4.35037
 30
0.0
 40
0.003937
 41
0.003937
  0
SEQEND
 8
0
  0
POLYLINE
  8
0
 62
     52
 66
     1
 10
0
 20
0
 30
0.0
 40
0.283464
 41
0.283464
  0
VERTEX
  8
0
 10
7.56337
 20
2.91699
 30
0.0
 40
0.003937
 41
0.003937
  0
VERTEX
  8
0
 10
7.57921
 20
2.94417
 30
0.0
 40
0.003937
 41
0.003937
  0
SEQEND
 8
0
  0
POLYLINE
  8
0
 62
     52
 66
     1
 10
0
 20
0
 30
0.0
 40
0.283464
 41
0.283464
  0
VERTEX
  8
0
 10
8.22982
 20
4.07118
 30
0.0
 40
0.003937
 41
0.003937
  0
VERTEX
  8
0
 10
8.2455
 20
4.09836
 30
0.0
 40
0.003937
 41
0.003937
  0
SEQEND
 8
0
  0
POLYLINE
  8
0
 62
     52
 66
     1
 10
0
 20
0
 30
0.0
 40
0.283464
 41
0.283464
  0
VERTEX
  8
0
 10
8.25028
 20
4.05931
 30
0.0
 40
0.003937
 41
0.003937
  0
VERTEX
  8
0
 10
8.22982
 20
4.07118
 30
0.0
 40
0.003937
 41
0.003937
  0
SEQEND
 8
0
  0
POLYLINE
  8
0
 62
     52
 66
     1
 10
0
 20
0
 30
0.0
 40
0.283464
 41
0.283464
  0
VERTEX
  8
0
 10
6.3234
 20
3.91938
 30
0.0
 40
0.003937
 41
0.003937
  0
VERTEX
  8
0
 10
6.23589
 20
3.42307
 30
0.0
 40
0.003937
 41
0.003937
  0
SEQEND
 8
0
  0
POLYLINE
  8
0
 62
     52
 66
     1
 10
0
 20
0
 30
0.0
 40
0.283464
 41
0.283464
  0
VERTEX
  8
0
 10
6.35439
 20
3.9139
 30
0.0
 40
0.003937
 41
0.003937
  0
VERTEX
  8
0
 10
6.3234
 20
3.91938
 30
0.0
 40
0.003937
 41
0.003937
  0
SEQEND
 8
0
  0
POLYLINE
  8
0
 62
     52
 66
     1
 10
0
 20
0
 30
0.0
 40
0.283464
 41
0.283464
  0
VERTEX
  8
0
 10
3.59978
 20
3.78597
 30
0.0
 40
0.003937
 41
0.003937
  0
VERTEX
  8
0
 10
3.04861
 20
3.78597
 30
0.0
 40
0.003937
 41
0.003937
  0
SEQEND
 8
0
  0
POLYLINE
  8
0
 62
     52
 66
     1
 10
0
 20
0
 30
0.0
 40
0.283464
 41
0.283464
  0
VERTEX
  8
0
 10
3.04861
 20
3.23481
 30
0.0
 40
0.003937
 41
0.003937
  0
VERTEX
  8
0
 10
3.59978
 20
3.23481
 30
0.0
 40
0.003937
 41
0.003937
  0
SEQEND
 8
0
  0
POLYLINE
  8
0
 62
     52
 66
     1
 10
0
 20
0
 30
0.0
 40
0.283464
 41
0.283464
  0
VERTEX
  8
0
 10
3.01719
 20
3.76237
 30
0.0
 40
0.003937
 41
0.003937
  0
VERTEX
  8
0
 10
3.01719
 20
3.25836
 30
0.0
 40
0.003937
 41
0.003937
  0
SEQEND
 8
0
  0
POLYLINE
  8
0
 62
     52
 66
     1
 10
0
 20
0
 30
0.0
 40
0.283464
 41
0.283464
  0
VERTEX
  8
0
 10
3.04861
 20
3.76237
 30
0.0
 40
0.003937
 41
0.003937
  0
VERTEX
  8
0
 10
3.01719
 20
3.76237
 30
0.0
 40
0.003937
 41
0.003937
  0
SEQEND
 8
0
  0
POLYLINE
  8
0
 62
     52
 66
     1
 10
0
 20
0
 30
0.0
 40
0.283464
 41
0.283464
  0
VERTEX
  8
0
 10
3.59978
 20
3.76237
 30
0.0
 40
0.003937
 41
0.003937
  0
VERTEX
  8
0
 10
3.59978
 20
3.78597
 30
0.0
 40
0.003937
 41
0.003937
  0
SEQEND
 8
0
  0
POLYLINE
  8
0
 62
     52
 66
     1
 10
0
 20
0
 30
0.0
 40
0.283464
 41
0.283464
  0
VERTEX
  8
0
 10
3.63129
 20
3.25836
 30
0.0
 40
0.003937
 41
0.003937
  0
VERTEX
  8
0
 10
3.63129
 20
3.76237
 30
0.0
 40
0.003937
 41
0.003937
  0
SEQEND
 8
0
  0
POLYLINE
  8
0
 62
     52
 66
     1
 10
0
 20
0
 30
0.0
 40
0.283464
 41
0.283464
  0
VERTEX
  8
0
 10
3.59978
 20
3.23481
 30
0.0
 40
0.003937
 41
0.003937
  0
VERTEX
  8
0
 10
3.59978
 20
3.25836
 30
0.0
 40
0.003937
 41
0.003937
  0
SEQEND
 8
0
  0
POLYLINE
  8
0
 62
     52
 66
     1
 10
0
 20
0
 30
0.0
 40
0.283464
 41
0.283464
  0
VERTEX
  8
0
 10
3.01719
 20
3.25836
 30
0.0
 40
0.003937
 41
0.003937
  0
VERTEX
  8
0
 10
3.04861
 20
3.25836
 30
0.0
 40
0.003937
 41
0.003937
  0
SEQEND
 8
0
  0
POLYLINE
  8
0
 62
     52
 66
     1
 10
0
 20
0
 30
0.0
 40
0.283464
 41
0.283464
  0
VERTEX
  8
0
 10
3.63129
 20
3.76237
 30
0.0
 40
0.003937
 41
0.003937
  0
VERTEX
  8
0
 10
3.59978
 20
3.76237
 30
0.0
 40
0.003937
 41
0.003937
  0
SEQEND
 8
0
  0
POLYLINE
  8
0
 62
     52
 66
     1
 10
0
 20
0
 30
0.0
 40
0.283464
 41
0.283464
  0
VERTEX
  8
0
 10
3.59978
 20
3.25836
 30
0.0
 40
0.003937
 41
0.003937
  0
VERTEX
  8
0
 10
3.63129
 20
3.25836
 30
0.0
 40
0.003937
 41
0.003937
  0
SEQEND
 8
0
  0
POLYLINE
  8
0
 62
     52
 66
     1
 10
0
 20
0
 30
0.0
 40
0.283464
 41
0.283464
  0
VERTEX
  8
0
 10
3.04861
 20
3.25836
 30
0.0
 40
0.003937
 41
0.003937
  0
VERTEX
  8
0
 10
3.04861
 20
3.23481
 30
0.0
 40
0.003937
 41
0.003937
  0
SEQEND
 8
0
  0
POLYLINE
  8
0
 62
     52
 66
     1
 10
0
 20
0
 30
0.0
 40
0.283464
 41
0.283464
  0
VERTEX
  8
0
 10
3.04861
 20
3.78597
 30
0.0
 40
0.003937
 41
0.003937
  0
VERTEX
  8
0
 10
3.04861
 20
3.76237
 30
0.0
 40
0.003937
 41
0.003937
  0
SEQEND
 8
0
  0
POLYLINE
  8
0
 62
     52
 66
     1
 10
0
 20
0
 30
0.0
 40
0.283464
 41
0.283464
  0
VERTEX
  8
0
 10
4.54872
 20
5.67225
 30
0.0
 40
0.003937
 41
0.003937
  0
VERTEX
  8
0
 10
5.09978
 20
5.67225
 30
0.0
 40
0.003937
 41
0.003937
  0
SEQEND
 8
0
  0
POLYLINE
  8
0
 62
     52
 66
     1
 10
0
 20
0
 30
0.0
 40
0.283464
 41
0.283464
  0
VERTEX
  8
0
 10
5.29872
 20
6.29357
 30
0.0
 40
0.003937
 41
0.003937
  0
VERTEX
  8
0
 10
5.26719
 20
6.29357
 30
0.0
 40
0.003937
 41
0.003937
  0
SEQEND
 8
0
  0
POLYLINE
  8
0
 62
     52
 66
     1
 10
0
 20
0
 30
0.0
 40
0.283464
 41
0.283464
  0
VERTEX
  8
0
 10
5.29872
 20
6.31717
 30
0.0
 40
0.003937
 41
0.003937
  0
VERTEX
  8
0
 10
5.29872
 20
6.29357
 30
0.0
 40
0.003937
 41
0.003937
  0
SEQEND
 8
0
  0
POLYLINE
  8
0
 62
     52
 66
     1
 10
0
 20
0
 30
0.0
 40
0.283464
 41
0.283464
  0
VERTEX
  8
0
 10
6.01719
 20
6.19987
 30
0.0
 40
0.003937
 41
0.003937
  0
VERTEX
  8
0
 10
6.01719
 20
5.69586
 30
0.0
 40
0.003937
 41
0.003937
  0
SEQEND
 8
0
  0
POLYLINE
  8
0
 62
     52
 66
     1
 10
0
 20
0
 30
0.0
 40
0.283464
 41
0.283464
  0
VERTEX
  8
0
 10
4.54872
 20
5.69586
 30
0.0
 40
0.003937
 41
0.003937
  0
VERTEX
  8
0
 10
4.54872
 20
5.67225
 30
0.0
 40
0.003937
 41
0.003937
  0
SEQEND
 8
0
  0
POLYLINE
  8
0
 62
     52
 66
     1
 10
0
 20
0
 30
0.0
 40
0.283464
 41
0.283464
  0
VERTEX
  8
0
 10
6.59978
 20
6.19987
 30
0.0
 40
0.003937
 41
0.003937
  0
VERTEX
  8
0
 10
6.59978
 20
6.22347
 30
0.0
 40
0.003937
 41
0.003937
  0
SEQEND
 8
0
  0
POLYLINE
  8
0
 62
     52
 66
     1
 10
0
 20
0
 30
0.0
 40
0.283464
 41
0.283464
  0
VERTEX
  8
0
 10
6.63129
 20
6.19987
 30
0.0
 40
0.003937
 41
0.003937
  0
VERTEX
  8
0
 10
6.59978
 20
6.19987
 30
0.0
 40
0.003937
 41
0.003937
  0
SEQEND
 8
0
  0
POLYLINE
  8
0
 62
     52
 66
     1
 10
0
 20
0
 30
0.0
 40
0.283464
 41
0.283464
  0
VERTEX
  8
0
 10
6.59978
 20
5.69586
 30
0.0
 40
0.003937
 41
0.003937
  0
VERTEX
  8
0
 10
6.63129
 20
5.69586
 30
0.0
 40
0.003937
 41
0.003937
  0
SEQEND
 8
0
  0
POLYLINE
  8
0
 62
     52
 66
     1
 10
0
 20
0
 30
0.0
 40
0.283464
 41
0.283464
  0
VERTEX
  8
0
 10
6.04872
 20
6.22347
 30
0.0
 40
0.003937
 41
0.003937
  0
VERTEX
  8
0
 10
6.04872
 20
6.19987
 30
0.0
 40
0.003937
 41
0.003937
  0
SEQEND
 8
0
  0
POLYLINE
  8
0
 62
     52
 66
     1
 10
0
 20
0
 30
0.0
 40
0.283464
 41
0.283464
  0
VERTEX
  8
0
 10
5.13129
 20
6.19987
 30
0.0
 40
0.003937
 41
0.003937
  0
VERTEX
  8
0
 10
5.09978
 20
6.19987
 30
0.0
 40
0.003937
 41
0.003937
  0
SEQEND
 8
0
  0
POLYLINE
  8
0
 62
     52
 66
     1
 10
0
 20
0
 30
0.0
 40
0.283464
 41
0.283464
  0
VERTEX
  8
0
 10
5.13129
 20
5.69586
 30
0.0
 40
0.003937
 41
0.003937
  0
VERTEX
  8
0
 10
5.13129
 20
6.19987
 30
0.0
 40
0.003937
 41
0.003937
  0
SEQEND
 8
0
  0
POLYLINE
  8
0
 62
     52
 66
     1
 10
0
 20
0
 30
0.0
 40
0.283464
 41
0.283464
  0
VERTEX
  8
0
 10
4.51719
 20
5.69586
 30
0.0
 40
0.003937
 41
0.003937
  0
VERTEX
  8
0
 10
4.54872
 20
5.69586
 30
0.0
 40
0.003937
 41
0.003937
  0
SEQEND
 8
0
  0
POLYLINE
  8
0
 62
     52
 66
     1
 10
0
 20
0
 30
0.0
 40
0.283464
 41
0.283464
  0
VERTEX
  8
0
 10
4.54872
 20
6.19987
 30
0.0
 40
0.003937
 41
0.003937
  0
VERTEX
  8
0
 10
4.51719
 20
6.19987
 30
0.0
 40
0.003937
 41
0.003937
  0
SEQEND
 8
0
  0
POLYLINE
  8
0
 62
     52
 66
     1
 10
0
 20
0
 30
0.0
 40
0.283464
 41
0.283464
  0
VERTEX
  8
0
 10
6.59978
 20
6.22347
 30
0.0
 40
0.003937
 41
0.003937
  0
VERTEX
  8
0
 10
6.04872
 20
6.22347
 30
0.0
 40
0.003937
 41
0.003937
  0
SEQEND
 8
0
  0
POLYLINE
  8
0
 62
     52
 66
     1
 10
0
 20
0
 30
0.0
 40
0.283464
 41
0.283464
  0
VERTEX
  8
0
 10
4.51719
 20
6.19987
 30
0.0
 40
0.003937
 41
0.003937
  0
VERTEX
  8
0
 10
4.51719
 20
5.69586
 30
0.0
 40
0.003937
 41
0.003937
  0
SEQEND
 8
0
  0
POLYLINE
  8
0
 62
     52
 66
     1
 10
0
 20
0
 30
0.0
 40
0.283464
 41
0.283464
  0
VERTEX
  8
0
 10
6.04872
 20
5.69586
 30
0.0
 40
0.003937
 41
0.003937
  0
VERTEX
  8
0
 10
6.04872
 20
5.67225
 30
0.0
 40
0.003937
 41
0.003937
  0
SEQEND
 8
0
  0
POLYLINE
  8
0
 62
     52
 66
     1
 10
0
 20
0
 30
0.0
 40
0.283464
 41
0.283464
  0
VERTEX
  8
0
 10
6.63129
 20
5.69586
 30
0.0
 40
0.003937
 41
0.003937
  0
VERTEX
  8
0
 10
6.63129
 20
6.19987
 30
0.0
 40
0.003937
 41
0.003937
  0
SEQEND
 8
0
  0
POLYLINE
  8
0
 62
     52
 66
     1
 10
0
 20
0
 30
0.0
 40
0.283464
 41
0.283464
  0
VERTEX
  8
0
 10
5.09978
 20
6.19987
 30
0.0
 40
0.003937
 41
0.003937
  0
VERTEX
  8
0
 10
5.09978
 20
6.22347
 30
0.0
 40
0.003937
 41
0.003937
  0
SEQEND
 8
0
  0
POLYLINE
  8
0
 62
     52
 66
     1
 10
0
 20
0
 30
0.0
 40
0.283464
 41
0.283464
  0
VERTEX
  8
0
 10
6.04872
 20
6.19987
 30
0.0
 40
0.003937
 41
0.003937
  0
VERTEX
  8
0
 10
6.01719
 20
6.19987
 30
0.0
 40
0.003937
 41
0.003937
  0
SEQEND
 8
0
  0
POLYLINE
  8
0
 62
     52
 66
     1
 10
0
 20
0
 30
0.0
 40
0.283464
 41
0.283464
  0
VERTEX
  8
0
 10
6.59978
 20
5.67225
 30
0.0
 40
0.003937
 41
0.003937
  0
VERTEX
  8
0
 10
6.59978
 20
5.69586
 30
0.0
 40
0.003937
 41
0.003937
  0
SEQEND
 8
0
  0
POLYLINE
  8
0
 62
     52
 66
     1
 10
0
 20
0
 30
0.0
 40
0.283464
 41
0.283464
  0
VERTEX
  8
0
 10
6.04872
 20
5.67225
 30
0.0
 40
0.003937
 41
0.003937
  0
VERTEX
  8
0
 10
6.59978
 20
5.67225
 30
0.0
 40
0.003937
 41
0.003937
  0
SEQEND
 8
0
  0
POLYLINE
  8
0
 62
     52
 66
     1
 10
0
 20
0
 30
0.0
 40
0.283464
 41
0.283464
  0
VERTEX
  8
0
 10
6.01719
 20
5.69586
 30
0.0
 40
0.003937
 41
0.003937
  0
VERTEX
  8
0
 10
6.04872
 20
5.69586
 30
0.0
 40
0.003937
 41
0.003937
  0
SEQEND
 8
0
  0
POLYLINE
  8
0
 62
     52
 66
     1
 10
0
 20
0
 30
0.0
 40
0.283464
 41
0.283464
  0
VERTEX
  8
0
 10
5.09978
 20
5.69586
 30
0.0
 40
0.003937
 41
0.003937
  0
VERTEX
  8
0
 10
5.13129
 20
5.69586
 30
0.0
 40
0.003937
 41
0.003937
  0
SEQEND
 8
0
  0
POLYLINE
  8
0
 62
     52
 66
     1
 10
0
 20
0
 30
0.0
 40
0.283464
 41
0.283464
  0
VERTEX
  8
0
 10
5.84978
 20
6.31717
 30
0.0
 40
0.003937
 41
0.003937
  0
VERTEX
  8
0
 10
5.29872
 20
6.31717
 30
0.0
 40
0.003937
 41
0.003937
  0
SEQEND
 8
0
  0
POLYLINE
  8
0
 62
     52
 66
     1
 10
0
 20
0
 30
0.0
 40
0.283464
 41
0.283464
  0
VERTEX
  8
0
 10
5.84978
 20
6.29357
 30
0.0
 40
0.003937
 41
0.003937
  0
VERTEX
  8
0
 10
5.84978
 20
6.31717
 30
0.0
 40
0.003937
 41
0.003937
  0
SEQEND
 8
0
  0
POLYLINE
  8
0
 62
     52
 66
     1
 10
0
 20
0
 30
0.0
 40
0.283464
 41
0.283464
  0
VERTEX
  8
0
 10
5.88129
 20
6.29357
 30
0.0
 40
0.003937
 41
0.003937
  0
VERTEX
  8
0
 10
5.84978
 20
6.29357
 30
0.0
 40
0.003937
 41
0.003937
  0
SEQEND
 8
0
  0
POLYLINE
  8
0
 62
     52
 66
     1
 10
0
 20
0
 30
0.0
 40
0.283464
 41
0.283464
  0
VERTEX
  8
0
 10
5.88129
 20
5.78961
 30
0.0
 40
0.003937
 41
0.003937
  0
VERTEX
  8
0
 10
5.88129
 20
6.29357
 30
0.0
 40
0.003937
 41
0.003937
  0
SEQEND
 8
0
  0
POLYLINE
  8
0
 62
     52
 66
     1
 10
0
 20
0
 30
0.0
 40
0.283464
 41
0.283464
  0
VERTEX
  8
0
 10
5.84978
 20
5.78961
 30
0.0
 40
0.003937
 41
0.003937
  0
VERTEX
  8
0
 10
5.88129
 20
5.78961
 30
0.0
 40
0.003937
 41
0.003937
  0
SEQEND
 8
0
  0
POLYLINE
  8
0
 62
     52
 66
     1
 10
0
 20
0
 30
0.0
 40
0.283464
 41
0.283464
  0
VERTEX
  8
0
 10
5.84978
 20
5.766
 30
0.0
 40
0.003937
 41
0.003937
  0
VERTEX
  8
0
 10
5.84978
 20
5.78961
 30
0.0
 40
0.003937
 41
0.003937
  0
SEQEND
 8
0
  0
POLYLINE
  8
0
 62
     52
 66
     1
 10
0
 20
0
 30
0.0
 40
0.283464
 41
0.283464
  0
VERTEX
  8
0
 10
5.29872
 20
5.766
 30
0.0
 40
0.003937
 41
0.003937
  0
VERTEX
  8
0
 10
5.84978
 20
5.766
 30
0.0
 40
0.003937
 41
0.003937
  0
SEQEND
 8
0
  0
POLYLINE
  8
0
 62
     52
 66
     1
 10
0
 20
0
 30
0.0
 40
0.283464
 41
0.283464
  0
VERTEX
  8
0
 10
5.09978
 20
5.67225
 30
0.0
 40
0.003937
 41
0.003937
  0
VERTEX
  8
0
 10
5.09978
 20
5.69586
 30
0.0
 40
0.003937
 41
0.003937
  0
SEQEND
 8
0
  0
POLYLINE
  8
0
 62
     52
 66
     1
 10
0
 20
0
 30
0.0
 40
0.283464
 41
0.283464
  0
VERTEX
  8
0
 10
5.29872
 20
5.78961
 30
0.0
 40
0.003937
 41
0.003937
  0
VERTEX
  8
0
 10
5.29872
 20
5.766
 30
0.0
 40
0.003937
 41
0.003937
  0
SEQEND
 8
0
  0
POLYLINE
  8
0
 62
     52
 66
     1
 10
0
 20
0
 30
0.0
 40
0.283464
 41
0.283464
  0
VERTEX
  8
0
 10
5.26719
 20
5.78961
 30
0.0
 40
0.003937
 41
0.003937
  0
VERTEX
  8
0
 10
5.29872
 20
5.78961
 30
0.0
 40
0.003937
 41
0.003937
  0
SEQEND
 8
0
  0
POLYLINE
  8
0
 62
     52
 66
     1
 10
0
 20
0
 30
0.0
 40
0.283464
 41
0.283464
  0
VERTEX
  8
0
 10
5.26719
 20
6.29357
 30
0.0
 40
0.003937
 41
0.003937
  0
VERTEX
  8
0
 10
5.26719
 20
5.78961
 30
0.0
 40
0.003937
 41
0.003937
  0
SEQEND
 8
0
  0
POLYLINE
  8
0
 62
     52
 66
     1
 10
0
 20
0
 30
0.0
 40
0.283464
 41
0.283464
  0
VERTEX
  8
0
 10
5.09978
 20
6.22347
 30
0.0
 40
0.003937
 41
0.003937
  0
VERTEX
  8
0
 10
4.54872
 20
6.22347
 30
0.0
 40
0.003937
 41
0.003937
  0
SEQEND
 8
0
  0
POLYLINE
  8
0
 62
     52
 66
     1
 10
0
 20
0
 30
0.0
 40
0.283464
 41
0.283464
  0
VERTEX
  8
0
 10
6.26281
 20
3.39438
 30
0.0
 40
0.003937
 41
0.003937
  0
VERTEX
  8
0
 10
6.80572
 20
3.29856
 30
0.0
 40
0.003937
 41
0.003937
  0
SEQEND
 8
0
  0
POLYLINE
  8
0
 62
     52
 66
     1
 10
0
 20
0
 30
0.0
 40
0.283464
 41
0.283464
  0
VERTEX
  8
0
 10
6.23589
 20
3.42307
 30
0.0
 40
0.003937
 41
0.003937
  0
VERTEX
  8
0
 10
6.26687
 20
3.41758
 30
0.0
 40
0.003937
 41
0.003937
  0
SEQEND
 8
0
  0
POLYLINE
  8
0
 62
     52
 66
     1
 10
0
 20
0
 30
0.0
 40
0.283464
 41
0.283464
  0
VERTEX
  8
0
 10
6.26687
 20
3.41758
 30
0.0
 40
0.003937
 41
0.003937
  0
VERTEX
  8
0
 10
6.26281
 20
3.39438
 30
0.0
 40
0.003937
 41
0.003937
  0
SEQEND
 8
0
  0
POLYLINE
  8
0
 62
     52
 66
     1
 10
0
 20
0
 30
0.0
 40
0.283464
 41
0.283464
  0
VERTEX
  8
0
 10
6.59978
 20
5.47347
 30
0.0
 40
0.003937
 41
0.003937
  0
VERTEX
  8
0
 10
6.04872
 20
5.47347
 30
0.0
 40
0.003937
 41
0.003937
  0
SEQEND
 8
0
  0
POLYLINE
  8
0
 62
     52
 66
     1
 10
0
 20
0
 30
0.0
 40
0.283464
 41
0.283464
  0
VERTEX
  8
0
 10
6.63129
 20
4.94586
 30
0.0
 40
0.003937
 41
0.003937
  0
VERTEX
  8
0
 10
6.63129
 20
5.44987
 30
0.0
 40
0.003937
 41
0.003937
  0
SEQEND
 8
0
  0
POLYLINE
  8
0
 62
     52
 66
     1
 10
0
 20
0
 30
0.0
 40
0.283464
 41
0.283464
  0
VERTEX
  8
0
 10
6.04872
 20
4.94586
 30
0.0
 40
0.003937
 41
0.003937
  0
VERTEX
  8
0
 10
6.04872
 20
4.92225
 30
0.0
 40
0.003937
 41
0.003937
  0
SEQEND
 8
0
  0
POLYLINE
  8
0
 62
     52
 66
     1
 10
0
 20
0
 30
0.0
 40
0.283464
 41
0.283464
  0
VERTEX
  8
0
 10
6.01719
 20
5.44987
 30
0.0
 40
0.003937
 41
0.003937
  0
VERTEX
  8
0
 10
6.01719
 20
4.94586
 30
0.0
 40
0.003937
 41
0.003937
  0
SEQEND
 8
0
  0
POLYLINE
  8
0
 62
     52
 66
     1
 10
0
 20
0
 30
0.0
 40
0.283464
 41
0.283464
  0
VERTEX
  8
0
 10
6.04872
 20
5.47347
 30
0.0
 40
0.003937
 41
0.003937
  0
VERTEX
  8
0
 10
6.04872
 20
5.44987
 30
0.0
 40
0.003937
 41
0.003937
  0
SEQEND
 8
0
  0
POLYLINE
  8
0
 62
     52
 66
     1
 10
0
 20
0
 30
0.0
 40
0.283464
 41
0.283464
  0
VERTEX
  8
0
 10
5.09978
 20
5.47347
 30
0.0
 40
0.003937
 41
0.003937
  0
VERTEX
  8
0
 10
4.54872
 20
5.47347
 30
0.0
 40
0.003937
 41
0.003937
  0
SEQEND
 8
0
  0
POLYLINE
  8
0
 62
     52
 66
     1
 10
0
 20
0
 30
0.0
 40
0.283464
 41
0.283464
  0
VERTEX
  8
0
 10
5.09978
 20
5.44987
 30
0.0
 40
0.003937
 41
0.003937
  0
VERTEX
  8
0
 10
5.09978
 20
5.47347
 30
0.0
 40
0.003937
 41
0.003937
  0
SEQEND
 8
0
  0
POLYLINE
  8
0
 62
     52
 66
     1
 10
0
 20
0
 30
0.0
 40
0.283464
 41
0.283464
  0
VERTEX
  8
0
 10
5.13129
 20
4.94586
 30
0.0
 40
0.003937
 41
0.003937
  0
VERTEX
  8
0
 10
5.13129
 20
5.44987
 30
0.0
 40
0.003937
 41
0.003937
  0
SEQEND
 8
0
  0
POLYLINE
  8
0
 62
     52
 66
     1
 10
0
 20
0
 30
0.0
 40
0.283464
 41
0.283464
  0
VERTEX
  8
0
 10
5.09978
 20
4.92225
 30
0.0
 40
0.003937
 41
0.003937
  0
VERTEX
  8
0
 10
5.09978
 20
4.94586
 30
0.0
 40
0.003937
 41
0.003937
  0
SEQEND
 8
0
  0
POLYLINE
  8
0
 62
     52
 66
     1
 10
0
 20
0
 30
0.0
 40
0.283464
 41
0.283464
  0
VERTEX
  8
0
 10
5.09978
 20
4.94586
 30
0.0
 40
0.003937
 41
0.003937
  0
VERTEX
  8
0
 10
5.13129
 20
4.94586
 30
0.0
 40
0.003937
 41
0.003937
  0
SEQEND
 8
0
  0
POLYLINE
  8
0
 62
     52
 66
     1
 10
0
 20
0
 30
0.0
 40
0.283464
 41
0.283464
  0
VERTEX
  8
0
 10
4.54872
 20
4.94586
 30
0.0
 40
0.003937
 41
0.003937
  0
VERTEX
  8
0
 10
4.54872
 20
4.92225
 30
0.0
 40
0.003937
 41
0.003937
  0
SEQEND
 8
0
  0
POLYLINE
  8
0
 62
     52
 66
     1
 10
0
 20
0
 30
0.0
 40
0.283464
 41
0.283464
  0
VERTEX
  8
0
 10
4.54872
 20
5.47347
 30
0.0
 40
0.003937
 41
0.003937
  0
VERTEX
  8
0
 10
4.54872
 20
5.44987
 30
0.0
 40
0.003937
 41
0.003937
  0
SEQEND
 8
0
  0
POLYLINE
  8
0
 62
     52
 66
     1
 10
0
 20
0
 30
0.0
 40
0.283464
 41
0.283464
  0
VERTEX
  8
0
 10
4.54872
 20
4.92225
 30
0.0
 40
0.003937
 41
0.003937
  0
VERTEX
  8
0
 10
5.09978
 20
4.92225
 30
0.0
 40
0.003937
 41
0.003937
  0
SEQEND
 8
0
  0
POLYLINE
  8
0
 62
     52
 66
     1
 10
0
 20
0
 30
0.0
 40
0.283464
 41
0.283464
  0
VERTEX
  8
0
 10
6.04872
 20
5.44987
 30
0.0
 40
0.003937
 41
0.003937
  0
VERTEX
  8
0
 10
6.01719
 20
5.44987
 30
0.0
 40
0.003937
 41
0.003937
  0
SEQEND
 8
0
  0
POLYLINE
  8
0
 62
     52
 66
     1
 10
0
 20
0
 30
0.0
 40
0.283464
 41
0.283464
  0
VERTEX
  8
0
 10
6.59978
 20
4.94586
 30
0.0
 40
0.003937
 41
0.003937
  0
VERTEX
  8
0
 10
6.63129
 20
4.94586
 30
0.0
 40
0.003937
 41
0.003937
  0
SEQEND
 8
0
  0
POLYLINE
  8
0
 62
     52
 66
     1
 10
0
 20
0
 30
0.0
 40
0.283464
 41
0.283464
  0
VERTEX
  8
0
 10
6.59978
 20
4.92225
 30
0.0
 40
0.003937
 41
0.003937
  0
VERTEX
  8
0
 10
6.59978
 20
4.94586
 30
0.0
 40
0.003937
 41
0.003937
  0
SEQEND
 8
0
  0
POLYLINE
  8
0
 62
     52
 66
     1
 10
0
 20
0
 30
0.0
 40
0.283464
 41
0.283464
  0
VERTEX
  8
0
 10
6.04872
 20
4.92225
 30
0.0
 40
0.003937
 41
0.003937
  0
VERTEX
  8
0
 10
6.59978
 20
4.92225
 30
0.0
 40
0.003937
 41
0.003937
  0
SEQEND
 8
0
  0
POLYLINE
  8
0
 62
     52
 66
     1
 10
0
 20
0
 30
0.0
 40
0.283464
 41
0.283464
  0
VERTEX
  8
0
 10
4.54872
 20
5.44987
 30
0.0
 40
0.003937
 41
0.003937
  0
VERTEX
  8
0
 10
4.51719
 20
5.44987
 30
0.0
 40
0.003937
 41
0.003937
  0
SEQEND
 8
0
  0
POLYLINE
  8
0
 62
     52
 66
     1
 10
0
 20
0
 30
0.0
 40
0.283464
 41
0.283464
  0
VERTEX
  8
0
 10
6.01719
 20
4.94586
 30
0.0
 40
0.003937
 41
0.003937
  0
VERTEX
  8
0
 10
6.04872
 20
4.94586
 30
0.0
 40
0.003937
 41
0.003937
  0
SEQEND
 8
0
  0
POLYLINE
  8
0
 62
     52
 66
     1
 10
0
 20
0
 30
0.0
 40
0.283464
 41
0.283464
  0
VERTEX
  8
0
 10
5.13129
 20
5.44987
 30
0.0
 40
0.003937
 41
0.003937
  0
VERTEX
  8
0
 10
5.09978
 20
5.44987
 30
0.0
 40
0.003937
 41
0.003937
  0
SEQEND
 8
0
  0
POLYLINE
  8
0
 62
     52
 66
     1
 10
0
 20
0
 30
0.0
 40
0.283464
 41
0.283464
  0
VERTEX
  8
0
 10
4.51719
 20
4.94586
 30
0.0
 40
0.003937
 41
0.003937
  0
VERTEX
  8
0
 10
4.54872
 20
4.94586
 30
0.0
 40
0.003937
 41
0.003937
  0
SEQEND
 8
0
  0
POLYLINE
  8
0
 62
     52
 66
     1
 10
0
 20
0
 30
0.0
 40
0.283464
 41
0.283464
  0
VERTEX
  8
0
 10
6.59978
 20
5.44987
 30
0.0
 40
0.003937
 41
0.003937
  0
VERTEX
  8
0
 10
6.59978
 20
5.47347
 30
0.0
 40
0.003937
 41
0.003937
  0
SEQEND
 8
0
  0
POLYLINE
  8
0
 62
     52
 66
     1
 10
0
 20
0
 30
0.0
 40
0.283464
 41
0.283464
  0
VERTEX
  8
0
 10
4.51719
 20
5.44987
 30
0.0
 40
0.003937
 41
0.003937
  0
VERTEX
  8
0
 10
4.51719
 20
4.94586
 30
0.0
 40
0.003937
 41
0.003937
  0
SEQEND
 8
0
  0
POLYLINE
  8
0
 62
     52
 66
     1
 10
0
 20
0
 30
0.0
 40
0.283464
 41
0.283464
  0
VERTEX
  8
0
 10
6.63129
 20
5.44987
 30
0.0
 40
0.003937
 41
0.003937
  0
VERTEX
  8
0
 10
6.59978
 20
5.44987
 30
0.0
 40
0.003937
 41
0.003937
  0
SEQEND
 8
0
  0
POLYLINE
  8
0
 62
     52
 66
     1
 10
0
 20
0
 30
0.0
 40
0.283464
 41
0.283464
  0
VERTEX
  8
0
 10
6.79872
 20
4.8285
 30
0.0
 40
0.003937
 41
0.003937
  0
VERTEX
  8
0
 10
7.34978
 20
4.8285
 30
0.0
 40
0.003937
 41
0.003937
  0
SEQEND
 8
0
  0
POLYLINE
  8
0
 62
     52
 66
     1
 10
0
 20
0
 30
0.0
 40
0.283464
 41
0.283464
  0
VERTEX
  8
0
 10
6.76719
 20
4.85211
 30
0.0
 40
0.003937
 41
0.003937
  0
VERTEX
  8
0
 10
6.79872
 20
4.85211
 30
0.0
 40
0.003937
 41
0.003937
  0
SEQEND
 8
0
  0
POLYLINE
  8
0
 62
     52
 66
     1
 10
0
 20
0
 30
0.0
 40
0.283464
 41
0.283464
  0
VERTEX
  8
0
 10
6.79872
 20
5.37967
 30
0.0
 40
0.003937
 41
0.003937
  0
VERTEX
  8
0
 10
6.79872
 20
5.35607
 30
0.0
 40
0.003937
 41
0.003937
  0
SEQEND
 8
0
  0
POLYLINE
  8
0
 62
     52
 66
     1
 10
0
 20
0
 30
0.0
 40
0.283464
 41
0.283464
  0
VERTEX
  8
0
 10
3.63129
 20
5.26237
 30
0.0
 40
0.003937
 41
0.003937
  0
VERTEX
  8
0
 10
3.59978
 20
5.26237
 30
0.0
 40
0.003937
 41
0.003937
  0
SEQEND
 8
0
  0
POLYLINE
  8
0
 62
     52
 66
     1
 10
0
 20
0
 30
0.0
 40
0.283464
 41
0.283464
  0
VERTEX
  8
0
 10
3.59978
 20
4.73475
 30
0.0
 40
0.003937
 41
0.003937
  0
VERTEX
  8
0
 10
3.59978
 20
4.75836
 30
0.0
 40
0.003937
 41
0.003937
  0
SEQEND
 8
0
  0
POLYLINE
  8
0
 62
     52
 66
     1
 10
0
 20
0
 30
0.0
 40
0.283464
 41
0.283464
  0
VERTEX
  8
0
 10
3.01719
 20
5.26237
 30
0.0
 40
0.003937
 41
0.003937
  0
VERTEX
  8
0
 10
3.01719
 20
4.75836
 30
0.0
 40
0.003937
 41
0.003937
  0
SEQEND
 8
0
  0
POLYLINE
  8
0
 62
     52
 66
     1
 10
0
 20
0
 30
0.0
 40
0.283464
 41
0.283464
  0
VERTEX
  8
0
 10
3.76719
 20
4.85211
 30
0.0
 40
0.003937
 41
0.003937
  0
VERTEX
  8
0
 10
3.79872
 20
4.85211
 30
0.0
 40
0.003937
 41
0.003937
  0
SEQEND
 8
0
  0
POLYLINE
  8
0
 62
     52
 66
     1
 10
0
 20
0
 30
0.0
 40
0.283464
 41
0.283464
  0
VERTEX
  8
0
 10
3.79872
 20
4.85211
 30
0.0
 40
0.003937
 41
0.003937
  0
VERTEX
  8
0
 10
3.79872
 20
4.8285
 30
0.0
 40
0.003937
 41
0.003937
  0
SEQEND
 8
0
  0
POLYLINE
  8
0
 62
     52
 66
     1
 10
0
 20
0
 30
0.0
 40
0.283464
 41
0.283464
  0
VERTEX
  8
0
 10
3.01719
 20
4.75836
 30
0.0
 40
0.003937
 41
0.003937
  0
VERTEX
  8
0
 10
3.04861
 20
4.75836
 30
0.0
 40
0.003937
 41
0.003937
  0
SEQEND
 8
0
  0
POLYLINE
  8
0
 62
     52
 66
     1
 10
0
 20
0
 30
0.0
 40
0.283464
 41
0.283464
  0
VERTEX
  8
0
 10
3.59978
 20
5.26237
 30
0.0
 40
0.003937
 41
0.003937
  0
VERTEX
  8
0
 10
3.59978
 20
5.28597
 30
0.0
 40
0.003937
 41
0.003937
  0
SEQEND
 8
0
  0
POLYLINE
  8
0
 62
     52
 66
     1
 10
0
 20
0
 30
0.0
 40
0.283464
 41
0.283464
  0
VERTEX
  8
0
 10
3.76719
 20
5.35607
 30
0.0
 40
0.003937
 41
0.003937
  0
VERTEX
  8
0
 10
3.76719
 20
4.85211
 30
0.0
 40
0.003937
 41
0.003937
  0
SEQEND
 8
0
  0
POLYLINE
  8
0
 62
     52
 66
     1
 10
0
 20
0
 30
0.0
 40
0.283464
 41
0.283464
  0
VERTEX
  8
0
 10
7.34978
 20
5.37967
 30
0.0
 40
0.003937
 41
0.003937
  0
VERTEX
  8
0
 10
6.79872
 20
5.37967
 30
0.0
 40
0.003937
 41
0.003937
  0
SEQEND
 8
0
  0
POLYLINE
  8
0
 62
     52
 66
     1
 10
0
 20
0
 30
0.0
 40
0.283464
 41
0.283464
  0
VERTEX
  8
0
 10
7.34978
 20
5.35607
 30
0.0
 40
0.003937
 41
0.003937
  0
VERTEX
  8
0
 10
7.34978
 20
5.37967
 30
0.0
 40
0.003937
 41
0.003937
  0
SEQEND
 8
0
  0
POLYLINE
  8
0
 62
     52
 66
     1
 10
0
 20
0
 30
0.0
 40
0.283464
 41
0.283464
  0
VERTEX
  8
0
 10
6.79872
 20
4.85211
 30
0.0
 40
0.003937
 41
0.003937
  0
VERTEX
  8
0
 10
6.79872
 20
4.8285
 30
0.0
 40
0.003937
 41
0.003937
  0
SEQEND
 8
0
  0
POLYLINE
  8
0
 62
     52
 66
     1
 10
0
 20
0
 30
0.0
 40
0.283464
 41
0.283464
  0
VERTEX
  8
0
 10
4.38129
 20
5.35607
 30
0.0
 40
0.003937
 41
0.003937
  0
VERTEX
  8
0
 10
4.34978
 20
5.35607
 30
0.0
 40
0.003937
 41
0.003937
  0
SEQEND
 8
0
  0
POLYLINE
  8
0
 62
     52
 66
     1
 10
0
 20
0
 30
0.0
 40
0.283464
 41
0.283464
  0
VERTEX
  8
0
 10
3.79872
 20
5.35607
 30
0.0
 40
0.003937
 41
0.003937
  0
VERTEX
  8
0
 10
3.76719
 20
5.35607
 30
0.0
 40
0.003937
 41
0.003937
  0
SEQEND
 8
0
  0
POLYLINE
  8
0
 62
     52
 66
     1
 10
0
 20
0
 30
0.0
 40
0.283464
 41
0.283464
  0
VERTEX
  8
0
 10
3.79872
 20
5.37967
 30
0.0
 40
0.003937
 41
0.003937
  0
VERTEX
  8
0
 10
3.79872
 20
5.35607
 30
0.0
 40
0.003937
 41
0.003937
  0
SEQEND
 8
0
  0
POLYLINE
  8
0
 62
     52
 66
     1
 10
0
 20
0
 30
0.0
 40
0.283464
 41
0.283464
  0
VERTEX
  8
0
 10
8.09978
 20
5.16857
 30
0.0
 40
0.003937
 41
0.003937
  0
VERTEX
  8
0
 10
8.09978
 20
5.19217
 30
0.0
 40
0.003937
 41
0.003937
  0
SEQEND
 8
0
  0
POLYLINE
  8
0
 62
     52
 66
     1
 10
0
 20
0
 30
0.0
 40
0.283464
 41
0.283464
  0
VERTEX
  8
0
 10
3.59978
 20
4.75836
 30
0.0
 40
0.003937
 41
0.003937
  0
VERTEX
  8
0
 10
3.63129
 20
4.75836
 30
0.0
 40
0.003937
 41
0.003937
  0
SEQEND
 8
0
  0
POLYLINE
  8
0
 62
     52
 66
     1
 10
0
 20
0
 30
0.0
 40
0.283464
 41
0.283464
  0
VERTEX
  8
0
 10
7.38129
 20
4.85211
 30
0.0
 40
0.003937
 41
0.003937
  0
VERTEX
  8
0
 10
7.38129
 20
5.35607
 30
0.0
 40
0.003937
 41
0.003937
  0
SEQEND
 8
0
  0
POLYLINE
  8
0
 62
     52
 66
     1
 10
0
 20
0
 30
0.0
 40
0.283464
 41
0.283464
  0
VERTEX
  8
0
 10
7.34978
 20
4.8285
 30
0.0
 40
0.003937
 41
0.003937
  0
VERTEX
  8
0
 10
7.34978
 20
4.85211
 30
0.0
 40
0.003937
 41
0.003937
  0
SEQEND
 8
0
  0
POLYLINE
  8
0
 62
     52
 66
     1
 10
0
 20
0
 30
0.0
 40
0.283464
 41
0.283464
  0
VERTEX
  8
0
 10
3.04861
 20
4.73475
 30
0.0
 40
0.003937
 41
0.003937
  0
VERTEX
  8
0
 10
3.59978
 20
4.73475
 30
0.0
 40
0.003937
 41
0.003937
  0
SEQEND
 8
0
  0
POLYLINE
  8
0
 62
     52
 66
     1
 10
0
 20
0
 30
0.0
 40
0.283464
 41
0.283464
  0
VERTEX
  8
0
 10
3.04861
 20
4.75836
 30
0.0
 40
0.003937
 41
0.003937
  0
VERTEX
  8
0
 10
3.04861
 20
4.73475
 30
0.0
 40
0.003937
 41
0.003937
  0
SEQEND
 8
0
  0
POLYLINE
  8
0
 62
     52
 66
     1
 10
0
 20
0
 30
0.0
 40
0.283464
 41
0.283464
  0
VERTEX
  8
0
 10
3.04861
 20
5.26237
 30
0.0
 40
0.003937
 41
0.003937
  0
VERTEX
  8
0
 10
3.01719
 20
5.26237
 30
0.0
 40
0.003937
 41
0.003937
  0
SEQEND
 8
0
  0
POLYLINE
  8
0
 62
     52
 66
     1
 10
0
 20
0
 30
0.0
 40
0.283464
 41
0.283464
  0
VERTEX
  8
0
 10
6.76719
 20
5.35607
 30
0.0
 40
0.003937
 41
0.003937
  0
VERTEX
  8
0
 10
6.76719
 20
4.85211
 30
0.0
 40
0.003937
 41
0.003937
  0
SEQEND
 8
0
  0
POLYLINE
  8
0
 62
     52
 66
     1
 10
0
 20
0
 30
0.0
 40
0.283464
 41
0.283464
  0
VERTEX
  8
0
 10
6.79872
 20
5.35607
 30
0.0
 40
0.003937
 41
0.003937
  0
VERTEX
  8
0
 10
6.76719
 20
5.35607
 30
0.0
 40
0.003937
 41
0.003937
  0
SEQEND
 8
0
  0
POLYLINE
  8
0
 62
     52
 66
     1
 10
0
 20
0
 30
0.0
 40
0.283464
 41
0.283464
  0
VERTEX
  8
0
 10
4.34978
 20
4.85211
 30
0.0
 40
0.003937
 41
0.003937
  0
VERTEX
  8
0
 10
4.38129
 20
4.85211
 30
0.0
 40
0.003937
 41
0.003937
  0
SEQEND
 8
0
  0
POLYLINE
  8
0
 62
     52
 66
     1
 10
0
 20
0
 30
0.0
 40
0.283464
 41
0.283464
  0
VERTEX
  8
0
 10
8.09978
 20
5.19217
 30
0.0
 40
0.003937
 41
0.003937
  0
VERTEX
  8
0
 10
7.54872
 20
5.19217
 30
0.0
 40
0.003937
 41
0.003937
  0
SEQEND
 8
0
  0
POLYLINE
  8
0
 62
     52
 66
     1
 10
0
 20
0
 30
0.0
 40
0.283464
 41
0.283464
  0
VERTEX
  8
0
 10
3.04861
 20
5.28597
 30
0.0
 40
0.003937
 41
0.003937
  0
VERTEX
  8
0
 10
3.04861
 20
5.26237
 30
0.0
 40
0.003937
 41
0.003937
  0
SEQEND
 8
0
  0
POLYLINE
  8
0
 62
     52
 66
     1
 10
0
 20
0
 30
0.0
 40
0.283464
 41
0.283464
  0
VERTEX
  8
0
 10
3.63129
 20
4.75836
 30
0.0
 40
0.003937
 41
0.003937
  0
VERTEX
  8
0
 10
3.63129
 20
5.26237
 30
0.0
 40
0.003937
 41
0.003937
  0
SEQEND
 8
0
  0
POLYLINE
  8
0
 62
     52
 66
     1
 10
0
 20
0
 30
0.0
 40
0.283464
 41
0.283464
  0
VERTEX
  8
0
 10
4.34978
 20
5.37967
 30
0.0
 40
0.003937
 41
0.003937
  0
VERTEX
  8
0
 10
3.79872
 20
5.37967
 30
0.0
 40
0.003937
 41
0.003937
  0
SEQEND
 8
0
  0
POLYLINE
  8
0
 62
     52
 66
     1
 10
0
 20
0
 30
0.0
 40
0.283464
 41
0.283464
  0
VERTEX
  8
0
 10
4.34978
 20
4.8285
 30
0.0
 40
0.003937
 41
0.003937
  0
VERTEX
  8
0
 10
4.34978
 20
4.85211
 30
0.0
 40
0.003937
 41
0.003937
  0
SEQEND
 8
0
  0
POLYLINE
  8
0
 62
     52
 66
     1
 10
0
 20
0
 30
0.0
 40
0.283464
 41
0.283464
  0
VERTEX
  8
0
 10
3.79872
 20
4.8285
 30
0.0
 40
0.003937
 41
0.003937
  0
VERTEX
  8
0
 10
4.34978
 20
4.8285
 30
0.0
 40
0.003937
 41
0.003937
  0
SEQEND
 8
0
  0
POLYLINE
  8
0
 62
     52
 66
     1
 10
0
 20
0
 30
0.0
 40
0.283464
 41
0.283464
  0
VERTEX
  8
0
 10
3.59978
 20
5.28597
 30
0.0
 40
0.003937
 41
0.003937
  0
VERTEX
  8
0
 10
3.04861
 20
5.28597
 30
0.0
 40
0.003937
 41
0.003937
  0
SEQEND
 8
0
  0
POLYLINE
  8
0
 62
     52
 66
     1
 10
0
 20
0
 30
0.0
 40
0.283464
 41
0.283464
  0
VERTEX
  8
0
 10
4.34978
 20
5.35607
 30
0.0
 40
0.003937
 41
0.003937
  0
VERTEX
  8
0
 10
4.34978
 20
5.37967
 30
0.0
 40
0.003937
 41
0.003937
  0
SEQEND
 8
0
  0
POLYLINE
  8
0
 62
     52
 66
     1
 10
0
 20
0
 30
0.0
 40
0.283464
 41
0.283464
  0
VERTEX
  8
0
 10
7.38129
 20
5.35607
 30
0.0
 40
0.003937
 41
0.003937
  0
VERTEX
  8
0
 10
7.34978
 20
5.35607
 30
0.0
 40
0.003937
 41
0.003937
  0
SEQEND
 8
0
  0
POLYLINE
  8
0
 62
     52
 66
     1
 10
0
 20
0
 30
0.0
 40
0.283464
 41
0.283464
  0
VERTEX
  8
0
 10
4.38129
 20
4.85211
 30
0.0
 40
0.003937
 41
0.003937
  0
VERTEX
  8
0
 10
4.38129
 20
5.35607
 30
0.0
 40
0.003937
 41
0.003937
  0
SEQEND
 8
0
  0
POLYLINE
  8
0
 62
     52
 66
     1
 10
0
 20
0
 30
0.0
 40
0.283464
 41
0.283464
  0
VERTEX
  8
0
 10
7.34978
 20
4.85211
 30
0.0
 40
0.003937
 41
0.003937
  0
VERTEX
  8
0
 10
7.38129
 20
4.85211
 30
0.0
 40
0.003937
 41
0.003937
  0
SEQEND
 8
0
  0
POLYLINE
  8
0
 62
     52
 66
     1
 10
0
 20
0
 30
0.0
 40
0.283464
 41
0.283464
  0
VERTEX
  8
0
 10
5.26719
 20
4.79357
 30
0.0
 40
0.003937
 41
0.003937
  0
VERTEX
  8
0
 10
5.26719
 20
4.28961
 30
0.0
 40
0.003937
 41
0.003937
  0
SEQEND
 8
0
  0
POLYLINE
  8
0
 62
     52
 66
     1
 10
0
 20
0
 30
0.0
 40
0.283464
 41
0.283464
  0
VERTEX
  8
0
 10
6.63129
 20
4.69987
 30
0.0
 40
0.003937
 41
0.003937
  0
VERTEX
  8
0
 10
6.59978
 20
4.69987
 30
0.0
 40
0.003937
 41
0.003937
  0
SEQEND
 8
0
  0
POLYLINE
  8
0
 62
     52
 66
     1
 10
0
 20
0
 30
0.0
 40
0.283464
 41
0.283464
  0
VERTEX
  8
0
 10
5.84978
 20
4.266
 30
0.0
 40
0.003937
 41
0.003937
  0
VERTEX
  8
0
 10
5.84978
 20
4.28961
 30
0.0
 40
0.003937
 41
0.003937
  0
SEQEND
 8
0
  0
POLYLINE
  8
0
 62
     52
 66
     1
 10
0
 20
0
 30
0.0
 40
0.283464
 41
0.283464
  0
VERTEX
  8
0
 10
5.84978
 20
4.79357
 30
0.0
 40
0.003937
 41
0.003937
  0
VERTEX
  8
0
 10
5.84978
 20
4.81717
 30
0.0
 40
0.003937
 41
0.003937
  0
SEQEND
 8
0
  0
POLYLINE
  8
0
 62
     52
 66
     1
 10
0
 20
0
 30
0.0
 40
0.283464
 41
0.283464
  0
VERTEX
  8
0
 10
6.59978
 20
4.19586
 30
0.0
 40
0.003937
 41
0.003937
  0
VERTEX
  8
0
 10
6.63129
 20
4.19586
 30
0.0
 40
0.003937
 41
0.003937
  0
SEQEND
 8
0
  0
POLYLINE
  8
0
 62
     52
 66
     1
 10
0
 20
0
 30
0.0
 40
0.283464
 41
0.283464
  0
VERTEX
  8
0
 10
5.26719
 20
4.28961
 30
0.0
 40
0.003937
 41
0.003937
  0
VERTEX
  8
0
 10
5.29872
 20
4.28961
 30
0.0
 40
0.003937
 41
0.003937
  0
SEQEND
 8
0
  0
POLYLINE
  8
0
 62
     52
 66
     1
 10
0
 20
0
 30
0.0
 40
0.283464
 41
0.283464
  0
VERTEX
  8
0
 10
5.29872
 20
4.81717
 30
0.0
 40
0.003937
 41
0.003937
  0
VERTEX
  8
0
 10
5.29872
 20
4.79357
 30
0.0
 40
0.003937
 41
0.003937
  0
SEQEND
 8
0
  0
POLYLINE
  8
0
 62
     52
 66
     1
 10
0
 20
0
 30
0.0
 40
0.283464
 41
0.283464
  0
VERTEX
  8
0
 10
5.88129
 20
4.79357
 30
0.0
 40
0.003937
 41
0.003937
  0
VERTEX
  8
0
 10
5.84978
 20
4.79357
 30
0.0
 40
0.003937
 41
0.003937
  0
SEQEND
 8
0
  0
POLYLINE
  8
0
 62
     52
 66
     1
 10
0
 20
0
 30
0.0
 40
0.283464
 41
0.283464
  0
VERTEX
  8
0
 10
5.29872
 20
4.28961
 30
0.0
 40
0.003937
 41
0.003937
  0
VERTEX
  8
0
 10
5.29872
 20
4.266
 30
0.0
 40
0.003937
 41
0.003937
  0
SEQEND
 8
0
  0
POLYLINE
  8
0
 62
     52
 66
     1
 10
0
 20
0
 30
0.0
 40
0.283464
 41
0.283464
  0
VERTEX
  8
0
 10
7.51719
 20
5.16857
 30
0.0
 40
0.003937
 41
0.003937
  0
VERTEX
  8
0
 10
7.51719
 20
4.66461
 30
0.0
 40
0.003937
 41
0.003937
  0
SEQEND
 8
0
  0
POLYLINE
  8
0
 62
     52
 66
     1
 10
0
 20
0
 30
0.0
 40
0.283464
 41
0.283464
  0
VERTEX
  8
0
 10
6.63129
 20
4.19586
 30
0.0
 40
0.003937
 41
0.003937
  0
VERTEX
  8
0
 10
6.63129
 20
4.69987
 30
0.0
 40
0.003937
 41
0.003937
  0
SEQEND
 8
0
  0
POLYLINE
  8
0
 62
     52
 66
     1
 10
0
 20
0
 30
0.0
 40
0.283464
 41
0.283464
  0
VERTEX
  8
0
 10
5.88129
 20
4.28961
 30
0.0
 40
0.003937
 41
0.003937
  0
VERTEX
  8
0
 10
5.88129
 20
4.79357
 30
0.0
 40
0.003937
 41
0.003937
  0
SEQEND
 8
0
  0
POLYLINE
  8
0
 62
     52
 66
     1
 10
0
 20
0
 30
0.0
 40
0.283464
 41
0.283464
  0
VERTEX
  8
0
 10
6.59978
 20
4.69987
 30
0.0
 40
0.003937
 41
0.003937
  0
VERTEX
  8
0
 10
6.59978
 20
4.72347
 30
0.0
 40
0.003937
 41
0.003937
  0
SEQEND
 8
0
  0
POLYLINE
  8
0
 62
     52
 66
     1
 10
0
 20
0
 30
0.0
 40
0.283464
 41
0.283464
  0
VERTEX
  8
0
 10
5.84978
 20
4.81717
 30
0.0
 40
0.003937
 41
0.003937
  0
VERTEX
  8
0
 10
5.29872
 20
4.81717
 30
0.0
 40
0.003937
 41
0.003937
  0
SEQEND
 8
0
  0
POLYLINE
  8
0
 62
     52
 66
     1
 10
0
 20
0
 30
0.0
 40
0.283464
 41
0.283464
  0
VERTEX
  8
0
 10
6.59978
 20
4.17225
 30
0.0
 40
0.003937
 41
0.003937
  0
VERTEX
  8
0
 10
6.59978
 20
4.19586
 30
0.0
 40
0.003937
 41
0.003937
  0
SEQEND
 8
0
  0
POLYLINE
  8
0
 62
     52
 66
     1
 10
0
 20
0
 30
0.0
 40
0.283464
 41
0.283464
  0
VERTEX
  8
0
 10
5.29872
 20
4.266
 30
0.0
 40
0.003937
 41
0.003937
  0
VERTEX
  8
0
 10
5.84978
 20
4.266
 30
0.0
 40
0.003937
 41
0.003937
  0
SEQEND
 8
0
  0
POLYLINE
  8
0
 62
     52
 66
     1
 10
0
 20
0
 30
0.0
 40
0.283464
 41
0.283464
  0
VERTEX
  8
0
 10
6.59978
 20
4.72347
 30
0.0
 40
0.003937
 41
0.003937
  0
VERTEX
  8
0
 10
6.04872
 20
4.72347
 30
0.0
 40
0.003937
 41
0.003937
  0
SEQEND
 8
0
  0
POLYLINE
  8
0
 62
     52
 66
     1
 10
0
 20
0
 30
0.0
 40
0.283464
 41
0.283464
  0
VERTEX
  8
0
 10
7.54872
 20
4.641
 30
0.0
 40
0.003937
 41
0.003937
  0
VERTEX
  8
0
 10
8.09978
 20
4.641
 30
0.0
 40
0.003937
 41
0.003937
  0
SEQEND
 8
0
  0
POLYLINE
  8
0
 62
     52
 66
     1
 10
0
 20
0
 30
0.0
 40
0.283464
 41
0.283464
  0
VERTEX
  8
0
 10
8.13129
 20
5.16857
 30
0.0
 40
0.003937
 41
0.003937
  0
VERTEX
  8
0
 10
8.09978
 20
5.16857
 30
0.0
 40
0.003937
 41
0.003937
  0
SEQEND
 8
0
  0
POLYLINE
  8
0
 62
     52
 66
     1
 10
0
 20
0
 30
0.0
 40
0.283464
 41
0.283464
  0
VERTEX
  8
0
 10
8.13129
 20
4.66461
 30
0.0
 40
0.003937
 41
0.003937
  0
VERTEX
  8
0
 10
8.13129
 20
5.16857
 30
0.0
 40
0.003937
 41
0.003937
  0
SEQEND
 8
0
  0
POLYLINE
  8
0
 62
     52
 66
     1
 10
0
 20
0
 30
0.0
 40
0.283464
 41
0.283464
  0
VERTEX
  8
0
 10
8.09978
 20
4.66461
 30
0.0
 40
0.003937
 41
0.003937
  0
VERTEX
  8
0
 10
8.13129
 20
4.66461
 30
0.0
 40
0.003937
 41
0.003937
  0
SEQEND
 8
0
  0
POLYLINE
  8
0
 62
     52
 66
     1
 10
0
 20
0
 30
0.0
 40
0.283464
 41
0.283464
  0
VERTEX
  8
0
 10
8.09978
 20
4.641
 30
0.0
 40
0.003937
 41
0.003937
  0
VERTEX
  8
0
 10
8.09978
 20
4.66461
 30
0.0
 40
0.003937
 41
0.003937
  0
SEQEND
 8
0
  0
POLYLINE
  8
0
 62
     52
 66
     1
 10
0
 20
0
 30
0.0
 40
0.283464
 41
0.283464
  0
VERTEX
  8
0
 10
5.84978
 20
4.28961
 30
0.0
 40
0.003937
 41
0.003937
  0
VERTEX
  8
0
 10
5.88129
 20
4.28961
 30
0.0
 40
0.003937
 41
0.003937
  0
SEQEND
 8
0
  0
POLYLINE
  8
0
 62
     52
 66
     1
 10
0
 20
0
 30
0.0
 40
0.283464
 41
0.283464
  0
VERTEX
  8
0
 10
7.51719
 20
4.66461
 30
0.0
 40
0.003937
 41
0.003937
  0
VERTEX
  8
0
 10
7.54872
 20
4.66461
 30
0.0
 40
0.003937
 41
0.003937
  0
SEQEND
 8
0
  0
POLYLINE
  8
0
 62
     52
 66
     1
 10
0
 20
0
 30
0.0
 40
0.283464
 41
0.283464
  0
VERTEX
  8
0
 10
5.29872
 20
4.79357
 30
0.0
 40
0.003937
 41
0.003937
  0
VERTEX
  8
0
 10
5.26719
 20
4.79357
 30
0.0
 40
0.003937
 41
0.003937
  0
SEQEND
 8
0
  0
POLYLINE
  8
0
 62
     52
 66
     1
 10
0
 20
0
 30
0.0
 40
0.283464
 41
0.283464
  0
VERTEX
  8
0
 10
7.54872
 20
4.66461
 30
0.0
 40
0.003937
 41
0.003937
  0
VERTEX
  8
0
 10
7.54872
 20
4.641
 30
0.0
 40
0.003937
 41
0.003937
  0
SEQEND
 8
0
  0
POLYLINE
  8
0
 62
     52
 66
     1
 10
0
 20
0
 30
0.0
 40
0.283464
 41
0.283464
  0
VERTEX
  8
0
 10
7.54872
 20
5.16857
 30
0.0
 40
0.003937
 41
0.003937
  0
VERTEX
  8
0
 10
7.51719
 20
5.16857
 30
0.0
 40
0.003937
 41
0.003937
  0
SEQEND
 8
0
  0
POLYLINE
  8
0
 62
     52
 66
     1
 10
0
 20
0
 30
0.0
 40
0.283464
 41
0.283464
  0
VERTEX
  8
0
 10
7.54872
 20
5.19217
 30
0.0
 40
0.003937
 41
0.003937
  0
VERTEX
  8
0
 10
7.54872
 20
5.16857
 30
0.0
 40
0.003937
 41
0.003937
  0
SEQEND
 8
0
  0
POLYLINE
  8
0
 62
     52
 66
     1
 10
0
 20
0
 30
0.0
 40
0.283464
 41
0.283464
  0
VERTEX
  8
0
 10
7.34978
 20
4.62967
 30
0.0
 40
0.003937
 41
0.003937
  0
VERTEX
  8
0
 10
6.79872
 20
4.62967
 30
0.0
 40
0.003937
 41
0.003937
  0
SEQEND
 8
0
  0
POLYLINE
  8
0
 62
     52
 66
     1
 10
0
 20
0
 30
0.0
 40
0.283464
 41
0.283464
  0
VERTEX
  8
0
 10
5.09978
 20
4.19586
 30
0.0
 40
0.003937
 41
0.003937
  0
VERTEX
  8
0
 10
5.13129
 20
4.19586
 30
0.0
 40
0.003937
 41
0.003937
  0
SEQEND
 8
0
  0
POLYLINE
  8
0
 62
     52
 66
     1
 10
0
 20
0
 30
0.0
 40
0.283464
 41
0.283464
  0
VERTEX
  8
0
 10
5.09978
 20
4.17225
 30
0.0
 40
0.003937
 41
0.003937
  0
VERTEX
  8
0
 10
5.09978
 20
4.19586
 30
0.0
 40
0.003937
 41
0.003937
  0
SEQEND
 8
0
  0
POLYLINE
  8
0
 62
     52
 66
     1
 10
0
 20
0
 30
0.0
 40
0.283464
 41
0.283464
  0
VERTEX
  8
0
 10
4.54872
 20
4.72347
 30
0.0
 40
0.003937
 41
0.003937
  0
VERTEX
  8
0
 10
4.54872
 20
4.69987
 30
0.0
 40
0.003937
 41
0.003937
  0
SEQEND
 8
0
  0
POLYLINE
  8
0
 62
     52
 66
     1
 10
0
 20
0
 30
0.0
 40
0.283464
 41
0.283464
  0
VERTEX
  8
0
 10
7.34978
 20
4.60607
 30
0.0
 40
0.003937
 41
0.003937
  0
VERTEX
  8
0
 10
7.34978
 20
4.62967
 30
0.0
 40
0.003937
 41
0.003937
  0
SEQEND
 8
0
  0
POLYLINE
  8
0
 62
     52
 66
     1
 10
0
 20
0
 30
0.0
 40
0.283464
 41
0.283464
  0
VERTEX
  8
0
 10
4.54872
 20
4.17225
 30
0.0
 40
0.003937
 41
0.003937
  0
VERTEX
  8
0
 10
5.09978
 20
4.17225
 30
0.0
 40
0.003937
 41
0.003937
  0
SEQEND
 8
0
  0
POLYLINE
  8
0
 62
     52
 66
     1
 10
0
 20
0
 30
0.0
 40
0.283464
 41
0.283464
  0
VERTEX
  8
0
 10
4.54872
 20
4.19586
 30
0.0
 40
0.003937
 41
0.003937
  0
VERTEX
  8
0
 10
4.54872
 20
4.17225
 30
0.0
 40
0.003937
 41
0.003937
  0
SEQEND
 8
0
  0
POLYLINE
  8
0
 62
     52
 66
     1
 10
0
 20
0
 30
0.0
 40
0.283464
 41
0.283464
  0
VERTEX
  8
0
 10
6.76719
 20
4.10211
 30
0.0
 40
0.003937
 41
0.003937
  0
VERTEX
  8
0
 10
6.79872
 20
4.10211
 30
0.0
 40
0.003937
 41
0.003937
  0
SEQEND
 8
0
  0
POLYLINE
  8
0
 62
     52
 66
     1
 10
0
 20
0
 30
0.0
 40
0.283464
 41
0.283464
  0
VERTEX
  8
0
 10
6.79872
 20
4.60607
 30
0.0
 40
0.003937
 41
0.003937
  0
VERTEX
  8
0
 10
6.76719
 20
4.60607
 30
0.0
 40
0.003937
 41
0.003937
  0
SEQEND
 8
0
  0
POLYLINE
  8
0
 62
     52
 66
     1
 10
0
 20
0
 30
0.0
 40
0.283464
 41
0.283464
  0
VERTEX
  8
0
 10
4.38129
 20
4.60607
 30
0.0
 40
0.003937
 41
0.003937
  0
VERTEX
  8
0
 10
4.34978
 20
4.60607
 30
0.0
 40
0.003937
 41
0.003937
  0
SEQEND
 8
0
  0
POLYLINE
  8
0
 62
     52
 66
     1
 10
0
 20
0
 30
0.0
 40
0.283464
 41
0.283464
  0
VERTEX
  8
0
 10
4.34978
 20
4.0785
 30
0.0
 40
0.003937
 41
0.003937
  0
VERTEX
  8
0
 10
4.34978
 20
4.10211
 30
0.0
 40
0.003937
 41
0.003937
  0
SEQEND
 8
0
  0
POLYLINE
  8
0
 62
     52
 66
     1
 10
0
 20
0
 30
0.0
 40
0.283464
 41
0.283464
  0
VERTEX
  8
0
 10
3.79872
 20
4.10211
 30
0.0
 40
0.003937
 41
0.003937
  0
VERTEX
  8
0
 10
3.79872
 20
4.0785
 30
0.0
 40
0.003937
 41
0.003937
  0
SEQEND
 8
0
  0
POLYLINE
  8
0
 62
     52
 66
     1
 10
0
 20
0
 30
0.0
 40
0.283464
 41
0.283464
  0
VERTEX
  8
0
 10
7.38129
 20
4.60607
 30
0.0
 40
0.003937
 41
0.003937
  0
VERTEX
  8
0
 10
7.34978
 20
4.60607
 30
0.0
 40
0.003937
 41
0.003937
  0
SEQEND
 8
0
  0
POLYLINE
  8
0
 62
     52
 66
     1
 10
0
 20
0
 30
0.0
 40
0.283464
 41
0.283464
  0
VERTEX
  8
0
 10
4.51719
 20
4.19586
 30
0.0
 40
0.003937
 41
0.003937
  0
VERTEX
  8
0
 10
4.54872
 20
4.19586
 30
0.0
 40
0.003937
 41
0.003937
  0
SEQEND
 8
0
  0
POLYLINE
  8
0
 62
     52
 66
     1
 10
0
 20
0
 30
0.0
 40
0.283464
 41
0.283464
  0
VERTEX
  8
0
 10
4.51719
 20
4.69987
 30
0.0
 40
0.003937
 41
0.003937
  0
VERTEX
  8
0
 10
4.51719
 20
4.19586
 30
0.0
 40
0.003937
 41
0.003937
  0
SEQEND
 8
0
  0
POLYLINE
  8
0
 62
     52
 66
     1
 10
0
 20
0
 30
0.0
 40
0.283464
 41
0.283464
  0
VERTEX
  8
0
 10
4.38129
 20
4.10211
 30
0.0
 40
0.003937
 41
0.003937
  0
VERTEX
  8
0
 10
4.38129
 20
4.60607
 30
0.0
 40
0.003937
 41
0.003937
  0
SEQEND
 8
0
  0
POLYLINE
  8
0
 62
     52
 66
     1
 10
0
 20
0
 30
0.0
 40
0.283464
 41
0.283464
  0
VERTEX
  8
0
 10
4.54872
 20
4.69987
 30
0.0
 40
0.003937
 41
0.003937
  0
VERTEX
  8
0
 10
4.51719
 20
4.69987
 30
0.0
 40
0.003937
 41
0.003937
  0
SEQEND
 8
0
  0
POLYLINE
  8
0
 62
     52
 66
     1
 10
0
 20
0
 30
0.0
 40
0.283464
 41
0.283464
  0
VERTEX
  8
0
 10
7.38129
 20
4.10211
 30
0.0
 40
0.003937
 41
0.003937
  0
VERTEX
  8
0
 10
7.38129
 20
4.60607
 30
0.0
 40
0.003937
 41
0.003937
  0
SEQEND
 8
0
  0
POLYLINE
  8
0
 62
     52
 66
     1
 10
0
 20
0
 30
0.0
 40
0.283464
 41
0.283464
  0
VERTEX
  8
0
 10
6.79872
 20
4.0785
 30
0.0
 40
0.003937
 41
0.003937
  0
VERTEX
  8
0
 10
7.34978
 20
4.0785
 30
0.0
 40
0.003937
 41
0.003937
  0
SEQEND
 8
0
  0
POLYLINE
  8
0
 62
     52
 66
     1
 10
0
 20
0
 30
0.0
 40
0.283464
 41
0.283464
  0
VERTEX
  8
0
 10
6.79872
 20
4.62967
 30
0.0
 40
0.003937
 41
0.003937
  0
VERTEX
  8
0
 10
6.79872
 20
4.60607
 30
0.0
 40
0.003937
 41
0.003937
  0
SEQEND
 8
0
  0
POLYLINE
  8
0
 62
     52
 66
     1
 10
0
 20
0
 30
0.0
 40
0.283464
 41
0.283464
  0
VERTEX
  8
0
 10
4.34978
 20
4.10211
 30
0.0
 40
0.003937
 41
0.003937
  0
VERTEX
  8
0
 10
4.38129
 20
4.10211
 30
0.0
 40
0.003937
 41
0.003937
  0
SEQEND
 8
0
  0
POLYLINE
  8
0
 62
     52
 66
     1
 10
0
 20
0
 30
0.0
 40
0.283464
 41
0.283464
  0
VERTEX
  8
0
 10
6.79872
 20
4.10211
 30
0.0
 40
0.003937
 41
0.003937
  0
VERTEX
  8
0
 10
6.79872
 20
4.0785
 30
0.0
 40
0.003937
 41
0.003937
  0
SEQEND
 8
0
  0
POLYLINE
  8
0
 62
     52
 66
     1
 10
0
 20
0
 30
0.0
 40
0.283464
 41
0.283464
  0
VERTEX
  8
0
 10
6.76719
 20
4.60607
 30
0.0
 40
0.003937
 41
0.003937
  0
VERTEX
  8
0
 10
6.76719
 20
4.10211
 30
0.0
 40
0.003937
 41
0.003937
  0
SEQEND
 8
0
  0
POLYLINE
  8
0
 62
     52
 66
     1
 10
0
 20
0
 30
0.0
 40
0.283464
 41
0.283464
  0
VERTEX
  8
0
 10
6.04872
 20
4.17225
 30
0.0
 40
0.003937
 41
0.003937
  0
VERTEX
  8
0
 10
6.59978
 20
4.17225
 30
0.0
 40
0.003937
 41
0.003937
  0
SEQEND
 8
0
  0
POLYLINE
  8
0
 62
     52
 66
     1
 10
0
 20
0
 30
0.0
 40
0.283464
 41
0.283464
  0
VERTEX
  8
0
 10
6.04872
 20
4.19586
 30
0.0
 40
0.003937
 41
0.003937
  0
VERTEX
  8
0
 10
6.04872
 20
4.17225
 30
0.0
 40
0.003937
 41
0.003937
  0
SEQEND
 8
0
  0
POLYLINE
  8
0
 62
     52
 66
     1
 10
0
 20
0
 30
0.0
 40
0.283464
 41
0.283464
  0
VERTEX
  8
0
 10
6.01719
 20
4.19586
 30
0.0
 40
0.003937
 41
0.003937
  0
VERTEX
  8
0
 10
6.04872
 20
4.19586
 30
0.0
 40
0.003937
 41
0.003937
  0
SEQEND
 8
0
  0
POLYLINE
  8
0
 62
     52
 66
     1
 10
0
 20
0
 30
0.0
 40
0.283464
 41
0.283464
  0
VERTEX
  8
0
 10
6.01719
 20
4.69987
 30
0.0
 40
0.003937
 41
0.003937
  0
VERTEX
  8
0
 10
6.01719
 20
4.19586
 30
0.0
 40
0.003937
 41
0.003937
  0
SEQEND
 8
0
  0
POLYLINE
  8
0
 62
     52
 66
     1
 10
0
 20
0
 30
0.0
 40
0.283464
 41
0.283464
  0
VERTEX
  8
0
 10
6.04872
 20
4.69987
 30
0.0
 40
0.003937
 41
0.003937
  0
VERTEX
  8
0
 10
6.01719
 20
4.69987
 30
0.0
 40
0.003937
 41
0.003937
  0
SEQEND
 8
0
  0
POLYLINE
  8
0
 62
     52
 66
     1
 10
0
 20
0
 30
0.0
 40
0.283464
 41
0.283464
  0
VERTEX
  8
0
 10
5.09978
 20
4.69987
 30
0.0
 40
0.003937
 41
0.003937
  0
VERTEX
  8
0
 10
5.09978
 20
4.72347
 30
0.0
 40
0.003937
 41
0.003937
  0
SEQEND
 8
0
  0
POLYLINE
  8
0
 62
     52
 66
     1
 10
0
 20
0
 30
0.0
 40
0.283464
 41
0.283464
  0
VERTEX
  8
0
 10
4.34978
 20
4.60607
 30
0.0
 40
0.003937
 41
0.003937
  0
VERTEX
  8
0
 10
4.34978
 20
4.62967
 30
0.0
 40
0.003937
 41
0.003937
  0
SEQEND
 8
0
  0
POLYLINE
  8
0
 62
     52
 66
     1
 10
0
 20
0
 30
0.0
 40
0.283464
 41
0.283464
  0
VERTEX
  8
0
 10
7.34978
 20
4.0785
 30
0.0
 40
0.003937
 41
0.003937
  0
VERTEX
  8
0
 10
7.34978
 20
4.10211
 30
0.0
 40
0.003937
 41
0.003937
  0
SEQEND
 8
0
  0
POLYLINE
  8
0
 62
     52
 66
     1
 10
0
 20
0
 30
0.0
 40
0.283464
 41
0.283464
  0
VERTEX
  8
0
 10
3.79872
 20
4.0785
 30
0.0
 40
0.003937
 41
0.003937
  0
VERTEX
  8
0
 10
4.34978
 20
4.0785
 30
0.0
 40
0.003937
 41
0.003937
  0
SEQEND
 8
0
  0
POLYLINE
  8
0
 62
     52
 66
     1
 10
0
 20
0
 30
0.0
 40
0.283464
 41
0.283464
  0
VERTEX
  8
0
 10
3.76719
 20
4.10211
 30
0.0
 40
0.003937
 41
0.003937
  0
VERTEX
  8
0
 10
3.79872
 20
4.10211
 30
0.0
 40
0.003937
 41
0.003937
  0
SEQEND
 8
0
  0
POLYLINE
  8
0
 62
     52
 66
     1
 10
0
 20
0
 30
0.0
 40
0.283464
 41
0.283464
  0
VERTEX
  8
0
 10
7.34978
 20
4.10211
 30
0.0
 40
0.003937
 41
0.003937
  0
VERTEX
  8
0
 10
7.38129
 20
4.10211
 30
0.0
 40
0.003937
 41
0.003937
  0
SEQEND
 8
0
  0
POLYLINE
  8
0
 62
     52
 66
     1
 10
0
 20
0
 30
0.0
 40
0.283464
 41
0.283464
  0
VERTEX
  8
0
 10
3.76719
 20
4.60607
 30
0.0
 40
0.003937
 41
0.003937
  0
VERTEX
  8
0
 10
3.76719
 20
4.10211
 30
0.0
 40
0.003937
 41
0.003937
  0
SEQEND
 8
0
  0
POLYLINE
  8
0
 62
     52
 66
     1
 10
0
 20
0
 30
0.0
 40
0.283464
 41
0.283464
  0
VERTEX
  8
0
 10
6.04872
 20
4.72347
 30
0.0
 40
0.003937
 41
0.003937
  0
VERTEX
  8
0
 10
6.04872
 20
4.69987
 30
0.0
 40
0.003937
 41
0.003937
  0
SEQEND
 8
0
  0
POLYLINE
  8
0
 62
     52
 66
     1
 10
0
 20
0
 30
0.0
 40
0.283464
 41
0.283464
  0
VERTEX
  8
0
 10
5.09978
 20
4.72347
 30
0.0
 40
0.003937
 41
0.003937
  0
VERTEX
  8
0
 10
4.54872
 20
4.72347
 30
0.0
 40
0.003937
 41
0.003937
  0
SEQEND
 8
0
  0
POLYLINE
  8
0
 62
     52
 66
     1
 10
0
 20
0
 30
0.0
 40
0.283464
 41
0.283464
  0
VERTEX
  8
0
 10
5.13129
 20
4.69987
 30
0.0
 40
0.003937
 41
0.003937
  0
VERTEX
  8
0
 10
5.09978
 20
4.69987
 30
0.0
 40
0.003937
 41
0.003937
  0
SEQEND
 8
0
  0
POLYLINE
  8
0
 62
     52
 66
     1
 10
0
 20
0
 30
0.0
 40
0.283464
 41
0.283464
  0
VERTEX
  8
0
 10
4.34978
 20
4.62967
 30
0.0
 40
0.003937
 41
0.003937
  0
VERTEX
  8
0
 10
3.79872
 20
4.62967
 30
0.0
 40
0.003937
 41
0.003937
  0
SEQEND
 8
0
  0
POLYLINE
  8
0
 62
     52
 66
     1
 10
0
 20
0
 30
0.0
 40
0.283464
 41
0.283464
  0
VERTEX
  8
0
 10
5.13129
 20
4.19586
 30
0.0
 40
0.003937
 41
0.003937
  0
VERTEX
  8
0
 10
5.13129
 20
4.69987
 30
0.0
 40
0.003937
 41
0.003937
  0
SEQEND
 8
0
  0
POLYLINE
  8
0
 62
     52
 66
     1
 10
0
 20
0
 30
0.0
 40
0.283464
 41
0.283464
  0
VERTEX
  8
0
 10
3.63129
 20
4.00836
 30
0.0
 40
0.003937
 41
0.003937
  0
VERTEX
  8
0
 10
3.63129
 20
4.51237
 30
0.0
 40
0.003937
 41
0.003937
  0
SEQEND
 8
0
  0
POLYLINE
  8
0
 62
     52
 66
     1
 10
0
 20
0
 30
0.0
 40
0.283464
 41
0.283464
  0
VERTEX
  8
0
 10
3.04861
 20
4.00836
 30
0.0
 40
0.003937
 41
0.003937
  0
VERTEX
  8
0
 10
3.04861
 20
3.98475
 30
0.0
 40
0.003937
 41
0.003937
  0
SEQEND
 8
0
  0
POLYLINE
  8
0
 62
     52
 66
     1
 10
0
 20
0
 30
0.0
 40
0.283464
 41
0.283464
  0
VERTEX
  8
0
 10
3.04861
 20
4.53597
 30
0.0
 40
0.003937
 41
0.003937
  0
VERTEX
  8
0
 10
3.04861
 20
4.51237
 30
0.0
 40
0.003937
 41
0.003937
  0
SEQEND
 8
0
  0
POLYLINE
  8
0
 62
     52
 66
     1
 10
0
 20
0
 30
0.0
 40
0.283464
 41
0.283464
  0
VERTEX
  8
0
 10
5.84978
 20
4.04357
 30
0.0
 40
0.003937
 41
0.003937
  0
VERTEX
  8
0
 10
5.84978
 20
4.06717
 30
0.0
 40
0.003937
 41
0.003937
  0
SEQEND
 8
0
  0
POLYLINE
  8
0
 62
     52
 66
     1
 10
0
 20
0
 30
0.0
 40
0.283464
 41
0.283464
  0
VERTEX
  8
0
 10
3.59978
 20
4.53597
 30
0.0
 40
0.003937
 41
0.003937
  0
VERTEX
  8
0
 10
3.04861
 20
4.53597
 30
0.0
 40
0.003937
 41
0.003937
  0
SEQEND
 8
0
  0
POLYLINE
  8
0
 62
     52
 66
     1
 10
0
 20
0
 30
0.0
 40
0.283464
 41
0.283464
  0
VERTEX
  8
0
 10
3.04861
 20
4.51237
 30
0.0
 40
0.003937
 41
0.003937
  0
VERTEX
  8
0
 10
3.01719
 20
4.51237
 30
0.0
 40
0.003937
 41
0.003937
  0
SEQEND
 8
0
  0
POLYLINE
  8
0
 62
     52
 66
     1
 10
0
 20
0
 30
0.0
 40
0.283464
 41
0.283464
  0
VERTEX
  8
0
 10
3.63129
 20
4.51237
 30
0.0
 40
0.003937
 41
0.003937
  0
VERTEX
  8
0
 10
3.59978
 20
4.51237
 30
0.0
 40
0.003937
 41
0.003937
  0
SEQEND
 8
0
  0
POLYLINE
  8
0
 62
     52
 66
     1
 10
0
 20
0
 30
0.0
 40
0.283464
 41
0.283464
  0
VERTEX
  8
0
 10
5.84978
 20
4.06717
 30
0.0
 40
0.003937
 41
0.003937
  0
VERTEX
  8
0
 10
5.29872
 20
4.06717
 30
0.0
 40
0.003937
 41
0.003937
  0
SEQEND
 8
0
  0
POLYLINE
  8
0
 62
     52
 66
     1
 10
0
 20
0
 30
0.0
 40
0.283464
 41
0.283464
  0
VERTEX
  8
0
 10
3.01719
 20
4.51237
 30
0.0
 40
0.003937
 41
0.003937
  0
VERTEX
  8
0
 10
3.01719
 20
4.00836
 30
0.0
 40
0.003937
 41
0.003937
  0
SEQEND
 8
0
  0
POLYLINE
  8
0
 62
     52
 66
     1
 10
0
 20
0
 30
0.0
 40
0.283464
 41
0.283464
  0
VERTEX
  8
0
 10
3.59978
 20
4.51237
 30
0.0
 40
0.003937
 41
0.003937
  0
VERTEX
  8
0
 10
3.59978
 20
4.53597
 30
0.0
 40
0.003937
 41
0.003937
  0
SEQEND
 8
0
  0
POLYLINE
  8
0
 62
     52
 66
     1
 10
0
 20
0
 30
0.0
 40
0.283464
 41
0.283464
  0
VERTEX
  8
0
 10
3.59978
 20
3.98475
 30
0.0
 40
0.003937
 41
0.003937
  0
VERTEX
  8
0
 10
3.59978
 20
4.00836
 30
0.0
 40
0.003937
 41
0.003937
  0
SEQEND
 8
0
  0
POLYLINE
  8
0
 62
     52
 66
     1
 10
0
 20
0
 30
0.0
 40
0.283464
 41
0.283464
  0
VERTEX
  8
0
 10
3.04861
 20
3.98475
 30
0.0
 40
0.003937
 41
0.003937
  0
VERTEX
  8
0
 10
3.59978
 20
3.98475
 30
0.0
 40
0.003937
 41
0.003937
  0
SEQEND
 8
0
  0
POLYLINE
  8
0
 62
     52
 66
     1
 10
0
 20
0
 30
0.0
 40
0.283464
 41
0.283464
  0
VERTEX
  8
0
 10
3.01719
 20
4.00836
 30
0.0
 40
0.003937
 41
0.003937
  0
VERTEX
  8
0
 10
3.04861
 20
4.00836
 30
0.0
 40
0.003937
 41
0.003937
  0
SEQEND
 8
0
  0
POLYLINE
  8
0
 62
     52
 66
     1
 10
0
 20
0
 30
0.0
 40
0.283464
 41
0.283464
  0
VERTEX
  8
0
 10
3.59978
 20
4.00836
 30
0.0
 40
0.003937
 41
0.003937
  0
VERTEX
  8
0
 10
3.63129
 20
4.00836
 30
0.0
 40
0.003937
 41
0.003937
  0
SEQEND
 8
0
  0
POLYLINE
  8
0
 62
     52
 66
     1
 10
0
 20
0
 30
0.0
 40
0.283464
 41
0.283464
  0
VERTEX
  8
0
 10
3.79872
 20
4.60607
 30
0.0
 40
0.003937
 41
0.003937
  0
VERTEX
  8
0
 10
3.76719
 20
4.60607
 30
0.0
 40
0.003937
 41
0.003937
  0
SEQEND
 8
0
  0
POLYLINE
  8
0
 62
     52
 66
     1
 10
0
 20
0
 30
0.0
 40
0.283464
 41
0.283464
  0
VERTEX
  8
0
 10
3.79872
 20
4.62967
 30
0.0
 40
0.003937
 41
0.003937
  0
VERTEX
  8
0
 10
3.79872
 20
4.60607
 30
0.0
 40
0.003937
 41
0.003937
  0
SEQEND
 8
0
  0
POLYLINE
  8
0
 62
     52
 66
     1
 10
0
 20
0
 30
0.0
 40
0.283464
 41
0.283464
  0
VERTEX
  8
0
 10
3.79872
 20
3.87967
 30
0.0
 40
0.003937
 41
0.003937
  0
VERTEX
  8
0
 10
3.79872
 20
3.85607
 30
0.0
 40
0.003937
 41
0.003937
  0
SEQEND
 8
0
  0
POLYLINE
  8
0
 62
     52
 66
     1
 10
0
 20
0
 30
0.0
 40
0.283464
 41
0.283464
  0
VERTEX
  8
0
 10
5.09978
 20
3.96967
 30
0.0
 40
0.003937
 41
0.003937
  0
VERTEX
  8
0
 10
4.54872
 20
3.96967
 30
0.0
 40
0.003937
 41
0.003937
  0
SEQEND
 8
0
  0
POLYLINE
  8
0
 62
     52
 66
     1
 10
0
 20
0
 30
0.0
 40
0.283464
 41
0.283464
  0
VERTEX
  8
0
 10
5.13129
 20
3.44206
 30
0.0
 40
0.003937
 41
0.003937
  0
VERTEX
  8
0
 10
5.13129
 20
3.94607
 30
0.0
 40
0.003937
 41
0.003937
  0
SEQEND
 8
0
  0
POLYLINE
  8
0
 62
     52
 66
     1
 10
0
 20
0
 30
0.0
 40
0.283464
 41
0.283464
  0
VERTEX
  8
0
 10
3.76719
 20
3.35211
 30
0.0
 40
0.003937
 41
0.003937
  0
VERTEX
  8
0
 10
3.79872
 20
3.35211
 30
0.0
 40
0.003937
 41
0.003937
  0
SEQEND
 8
0
  0
POLYLINE
  8
0
 62
     52
 66
     1
 10
0
 20
0
 30
0.0
 40
0.283464
 41
0.283464
  0
VERTEX
  8
0
 10
3.76719
 20
3.85607
 30
0.0
 40
0.003937
 41
0.003937
  0
VERTEX
  8
0
 10
3.76719
 20
3.35211
 30
0.0
 40
0.003937
 41
0.003937
  0
SEQEND
 8
0
  0
POLYLINE
  8
0
 62
     52
 66
     1
 10
0
 20
0
 30
0.0
 40
0.283464
 41
0.283464
  0
VERTEX
  8
0
 10
3.79872
 20
3.3285
 30
0.0
 40
0.003937
 41
0.003937
  0
VERTEX
  8
0
 10
4.34978
 20
3.3285
 30
0.0
 40
0.003937
 41
0.003937
  0
SEQEND
 8
0
  0
POLYLINE
  8
0
 62
     52
 66
     1
 10
0
 20
0
 30
0.0
 40
0.283464
 41
0.283464
  0
VERTEX
  8
0
 10
3.79872
 20
3.35211
 30
0.0
 40
0.003937
 41
0.003937
  0
VERTEX
  8
0
 10
3.79872
 20
3.3285
 30
0.0
 40
0.003937
 41
0.003937
  0
SEQEND
 8
0
  0
POLYLINE
  8
0
 62
     52
 66
     1
 10
0
 20
0
 30
0.0
 40
0.283464
 41
0.283464
  0
VERTEX
  8
0
 10
4.54872
 20
3.44206
 30
0.0
 40
0.003937
 41
0.003937
  0
VERTEX
  8
0
 10
4.54872
 20
3.41846
 30
0.0
 40
0.003937
 41
0.003937
  0
SEQEND
 8
0
  0
POLYLINE
  8
0
 62
     52
 66
     1
 10
0
 20
0
 30
0.0
 40
0.283464
 41
0.283464
  0
VERTEX
  8
0
 10
6.90132
 20
3.84147
 30
0.0
 40
0.003937
 41
0.003937
  0
VERTEX
  8
0
 10
6.35851
 20
3.93718
 30
0.0
 40
0.003937
 41
0.003937
  0
SEQEND
 8
0
  0
POLYLINE
  8
0
 62
     52
 66
     1
 10
0
 20
0
 30
0.0
 40
0.283464
 41
0.283464
  0
VERTEX
  8
0
 10
5.09978
 20
3.41846
 30
0.0
 40
0.003937
 41
0.003937
  0
VERTEX
  8
0
 10
5.09978
 20
3.44206
 30
0.0
 40
0.003937
 41
0.003937
  0
SEQEND
 8
0
  0
POLYLINE
  8
0
 62
     52
 66
     1
 10
0
 20
0
 30
0.0
 40
0.283464
 41
0.283464
  0
VERTEX
  8
0
 10
5.09978
 20
3.44206
 30
0.0
 40
0.003937
 41
0.003937
  0
VERTEX
  8
0
 10
5.13129
 20
3.44206
 30
0.0
 40
0.003937
 41
0.003937
  0
SEQEND
 8
0
  0
POLYLINE
  8
0
 62
     52
 66
     1
 10
0
 20
0
 30
0.0
 40
0.283464
 41
0.283464
  0
VERTEX
  8
0
 10
6.89719
 20
3.81819
 30
0.0
 40
0.003937
 41
0.003937
  0
VERTEX
  8
0
 10
6.90132
 20
3.84147
 30
0.0
 40
0.003937
 41
0.003937
  0
SEQEND
 8
0
  0
POLYLINE
  8
0
 62
     52
 66
     1
 10
0
 20
0
 30
0.0
 40
0.283464
 41
0.283464
  0
VERTEX
  8
0
 10
6.35851
 20
3.93718
 30
0.0
 40
0.003937
 41
0.003937
  0
VERTEX
  8
0
 10
6.35439
 20
3.9139
 30
0.0
 40
0.003937
 41
0.003937
  0
SEQEND
 8
0
  0
POLYLINE
  8
0
 62
     52
 66
     1
 10
0
 20
0
 30
0.0
 40
0.283464
 41
0.283464
  0
VERTEX
  8
0
 10
4.34978
 20
3.35211
 30
0.0
 40
0.003937
 41
0.003937
  0
VERTEX
  8
0
 10
4.38129
 20
3.35211
 30
0.0
 40
0.003937
 41
0.003937
  0
SEQEND
 8
0
  0
POLYLINE
  8
0
 62
     52
 66
     1
 10
0
 20
0
 30
0.0
 40
0.283464
 41
0.283464
  0
VERTEX
  8
0
 10
6.92828
 20
3.81267
 30
0.0
 40
0.003937
 41
0.003937
  0
VERTEX
  8
0
 10
6.89719
 20
3.81819
 30
0.0
 40
0.003937
 41
0.003937
  0
SEQEND
 8
0
  0
POLYLINE
  8
0
 62
     52
 66
     1
 10
0
 20
0
 30
0.0
 40
0.283464
 41
0.283464
  0
VERTEX
  8
0
 10
6.84071
 20
3.3164
 30
0.0
 40
0.003937
 41
0.003937
  0
VERTEX
  8
0
 10
6.92828
 20
3.81267
 30
0.0
 40
0.003937
 41
0.003937
  0
SEQEND
 8
0
  0
POLYLINE
  8
0
 62
     52
 66
     1
 10
0
 20
0
 30
0.0
 40
0.283464
 41
0.283464
  0
VERTEX
  8
0
 10
4.34978
 20
3.85607
 30
0.0
 40
0.003937
 41
0.003937
  0
VERTEX
  8
0
 10
4.34978
 20
3.87967
 30
0.0
 40
0.003937
 41
0.003937
  0
SEQEND
 8
0
  0
POLYLINE
  8
0
 62
     52
 66
     1
 10
0
 20
0
 30
0.0
 40
0.283464
 41
0.283464
  0
VERTEX
  8
0
 10
4.51719
 20
3.94607
 30
0.0
 40
0.003937
 41
0.003937
  0
VERTEX
  8
0
 10
4.51719
 20
3.44206
 30
0.0
 40
0.003937
 41
0.003937
  0
SEQEND
 8
0
  0
POLYLINE
  8
0
 62
     52
 66
     1
 10
0
 20
0
 30
0.0
 40
0.283464
 41
0.283464
  0
VERTEX
  8
0
 10
5.88129
 20
3.53961
 30
0.0
 40
0.003937
 41
0.003937
  0
VERTEX
  8
0
 10
5.88129
 20
4.04357
 30
0.0
 40
0.003937
 41
0.003937
  0
SEQEND
 8
0
  0
POLYLINE
  8
0
 62
     52
 66
     1
 10
0
 20
0
 30
0.0
 40
0.283464
 41
0.283464
  0
VERTEX
  8
0
 10
4.34978
 20
3.3285
 30
0.0
 40
0.003937
 41
0.003937
  0
VERTEX
  8
0
 10
4.34978
 20
3.35211
 30
0.0
 40
0.003937
 41
0.003937
  0
SEQEND
 8
0
  0
POLYLINE
  8
0
 62
     52
 66
     1
 10
0
 20
0
 30
0.0
 40
0.283464
 41
0.283464
  0
VERTEX
  8
0
 10
5.13129
 20
3.94607
 30
0.0
 40
0.003937
 41
0.003937
  0
VERTEX
  8
0
 10
5.09978
 20
3.94607
 30
0.0
 40
0.003937
 41
0.003937
  0
SEQEND
 8
0
  0
POLYLINE
  8
0
 62
     52
 66
     1
 10
0
 20
0
 30
0.0
 40
0.283464
 41
0.283464
  0
VERTEX
  8
0
 10
6.80968
 20
3.32189
 30
0.0
 40
0.003937
 41
0.003937
  0
VERTEX
  8
0
 10
6.84071
 20
3.3164
 30
0.0
 40
0.003937
 41
0.003937
  0
SEQEND
 8
0
  0
POLYLINE
  8
0
 62
     52
 66
     1
 10
0
 20
0
 30
0.0
 40
0.283464
 41
0.283464
  0
VERTEX
  8
0
 10
5.88129
 20
4.04357
 30
0.0
 40
0.003937
 41
0.003937
  0
VERTEX
  8
0
 10
5.84978
 20
4.04357
 30
0.0
 40
0.003937
 41
0.003937
  0
SEQEND
 8
0
  0
POLYLINE
  8
0
 62
     52
 66
     1
 10
0
 20
0
 30
0.0
 40
0.283464
 41
0.283464
  0
VERTEX
  8
0
 10
5.84978
 20
3.53961
 30
0.0
 40
0.003937
 41
0.003937
  0
VERTEX
  8
0
 10
5.88129
 20
3.53961
 30
0.0
 40
0.003937
 41
0.003937
  0
SEQEND
 8
0
  0
POLYLINE
  8
0
 62
     52
 66
     1
 10
0
 20
0
 30
0.0
 40
0.283464
 41
0.283464
  0
VERTEX
  8
0
 10
4.34978
 20
3.87967
 30
0.0
 40
0.003937
 41
0.003937
  0
VERTEX
  8
0
 10
3.79872
 20
3.87967
 30
0.0
 40
0.003937
 41
0.003937
  0
SEQEND
 8
0
  0
POLYLINE
  8
0
 62
     52
 66
     1
 10
0
 20
0
 30
0.0
 40
0.283464
 41
0.283464
  0
VERTEX
  8
0
 10
5.84978
 20
3.516
 30
0.0
 40
0.003937
 41
0.003937
  0
VERTEX
  8
0
 10
5.84978
 20
3.53961
 30
0.0
 40
0.003937
 41
0.003937
  0
SEQEND
 8
0
  0
POLYLINE
  8
0
 62
     52
 66
     1
 10
0
 20
0
 30
0.0
 40
0.283464
 41
0.283464
  0
VERTEX
  8
0
 10
4.54872
 20
3.41846
 30
0.0
 40
0.003937
 41
0.003937
  0
VERTEX
  8
0
 10
5.09978
 20
3.41846
 30
0.0
 40
0.003937
 41
0.003937
  0
SEQEND
 8
0
  0
POLYLINE
  8
0
 62
     52
 66
     1
 10
0
 20
0
 30
0.0
 40
0.283464
 41
0.283464
  0
VERTEX
  8
0
 10
5.29872
 20
3.516
 30
0.0
 40
0.003937
 41
0.003937
  0
VERTEX
  8
0
 10
5.84978
 20
3.516
 30
0.0
 40
0.003937
 41
0.003937
  0
SEQEND
 8
0
  0
POLYLINE
  8
0
 62
     52
 66
     1
 10
0
 20
0
 30
0.0
 40
0.283464
 41
0.283464
  0
VERTEX
  8
0
 10
5.29872
 20
3.53961
 30
0.0
 40
0.003937
 41
0.003937
  0
VERTEX
  8
0
 10
5.29872
 20
3.516
 30
0.0
 40
0.003937
 41
0.003937
  0
SEQEND
 8
0
  0
POLYLINE
  8
0
 62
     52
 66
     1
 10
0
 20
0
 30
0.0
 40
0.283464
 41
0.283464
  0
VERTEX
  8
0
 10
4.51719
 20
3.44206
 30
0.0
 40
0.003937
 41
0.003937
  0
VERTEX
  8
0
 10
4.54872
 20
3.44206
 30
0.0
 40
0.003937
 41
0.003937
  0
SEQEND
 8
0
  0
POLYLINE
  8
0
 62
     52
 66
     1
 10
0
 20
0
 30
0.0
 40
0.283464
 41
0.283464
  0
VERTEX
  8
0
 10
5.26719
 20
3.53961
 30
0.0
 40
0.003937
 41
0.003937
  0
VERTEX
  8
0
 10
5.29872
 20
3.53961
 30
0.0
 40
0.003937
 41
0.003937
  0
SEQEND
 8
0
  0
POLYLINE
  8
0
 62
     52
 66
     1
 10
0
 20
0
 30
0.0
 40
0.283464
 41
0.283464
  0
VERTEX
  8
0
 10
5.09978
 20
3.94607
 30
0.0
 40
0.003937
 41
0.003937
  0
VERTEX
  8
0
 10
5.09978
 20
3.96967
 30
0.0
 40
0.003937
 41
0.003937
  0
SEQEND
 8
0
  0
POLYLINE
  8
0
 62
     52
 66
     1
 10
0
 20
0
 30
0.0
 40
0.283464
 41
0.283464
  0
VERTEX
  8
0
 10
4.54872
 20
3.94607
 30
0.0
 40
0.003937
 41
0.003937
  0
VERTEX
  8
0
 10
4.51719
 20
3.94607
 30
0.0
 40
0.003937
 41
0.003937
  0
SEQEND
 8
0
  0
POLYLINE
  8
0
 62
     52
 66
     1
 10
0
 20
0
 30
0.0
 40
0.283464
 41
0.283464
  0
VERTEX
  8
0
 10
4.38129
 20
3.85607
 30
0.0
 40
0.003937
 41
0.003937
  0
VERTEX
  8
0
 10
4.34978
 20
3.85607
 30
0.0
 40
0.003937
 41
0.003937
  0
SEQEND
 8
0
  0
POLYLINE
  8
0
 62
     52
 66
     1
 10
0
 20
0
 30
0.0
 40
0.283464
 41
0.283464
  0
VERTEX
  8
0
 10
4.54872
 20
3.96967
 30
0.0
 40
0.003937
 41
0.003937
  0
VERTEX
  8
0
 10
4.54872
 20
3.94607
 30
0.0
 40
0.003937
 41
0.003937
  0
SEQEND
 8
0
  0
POLYLINE
  8
0
 62
     52
 66
     1
 10
0
 20
0
 30
0.0
 40
0.283464
 41
0.283464
  0
VERTEX
  8
0
 10
5.26719
 20
4.04357
 30
0.0
 40
0.003937
 41
0.003937
  0
VERTEX
  8
0
 10
5.26719
 20
3.53961
 30
0.0
 40
0.003937
 41
0.003937
  0
SEQEND
 8
0
  0
POLYLINE
  8
0
 62
     52
 66
     1
 10
0
 20
0
 30
0.0
 40
0.283464
 41
0.283464
  0
VERTEX
  8
0
 10
5.29872
 20
4.04357
 30
0.0
 40
0.003937
 41
0.003937
  0
VERTEX
  8
0
 10
5.26719
 20
4.04357
 30
0.0
 40
0.003937
 41
0.003937
  0
SEQEND
 8
0
  0
POLYLINE
  8
0
 62
     52
 66
     1
 10
0
 20
0
 30
0.0
 40
0.283464
 41
0.283464
  0
VERTEX
  8
0
 10
5.29872
 20
4.06717
 30
0.0
 40
0.003937
 41
0.003937
  0
VERTEX
  8
0
 10
5.29872
 20
4.04357
 30
0.0
 40
0.003937
 41
0.003937
  0
SEQEND
 8
0
  0
POLYLINE
  8
0
 62
     52
 66
     1
 10
0
 20
0
 30
0.0
 40
0.283464
 41
0.283464
  0
VERTEX
  8
0
 10
4.38129
 20
3.35211
 30
0.0
 40
0.003937
 41
0.003937
  0
VERTEX
  8
0
 10
4.38129
 20
3.85607
 30
0.0
 40
0.003937
 41
0.003937
  0
SEQEND
 8
0
  0
POLYLINE
  8
0
 62
     52
 66
     1
 10
0
 20
0
 30
0.0
 40
0.283464
 41
0.283464
  0
VERTEX
  8
0
 10
3.79872
 20
3.85607
 30
0.0
 40
0.003937
 41
0.003937
  0
VERTEX
  8
0
 10
3.76719
 20
3.85607
 30
0.0
 40
0.003937
 41
0.003937
  0
SEQEND
 8
0
  0
POLYLINE
  8
0
 62
     52
 66
     1
 10
0
 20
0
 30
0.0
 40
0.283464
 41
0.283464
  0
VERTEX
  8
0
 10
7.38129
 20
5.60211
 30
0.0
 40
0.003937
 41
0.003937
  0
VERTEX
  8
0
 10
7.38129
 20
6.10607
 30
0.0
 40
0.003937
 41
0.003937
  0
SEQEND
 8
0
  0
POLYLINE
  8
0
 62
     52
 66
     1
 10
0
 20
0
 30
0.0
 40
0.283464
 41
0.283464
  0
VERTEX
  8
0
 10
4.34978
 20
5.60211
 30
0.0
 40
0.003937
 41
0.003937
  0
VERTEX
  8
0
 10
4.38129
 20
5.60211
 30
0.0
 40
0.003937
 41
0.003937
  0
SEQEND
 8
0
  0
POLYLINE
  8
0
 62
     52
 66
     1
 10
0
 20
0
 30
0.0
 40
0.283464
 41
0.283464
  0
VERTEX
  8
0
 10
6.79872
 20
5.60211
 30
0.0
 40
0.003937
 41
0.003937
  0
VERTEX
  8
0
 10
6.79872
 20
5.5785
 30
0.0
 40
0.003937
 41
0.003937
  0
SEQEND
 8
0
  0
POLYLINE
  8
0
 62
     52
 66
     1
 10
0
 20
0
 30
0.0
 40
0.283464
 41
0.283464
  0
VERTEX
  8
0
 10
7.34978
 20
5.60211
 30
0.0
 40
0.003937
 41
0.003937
  0
VERTEX
  8
0
 10
7.38129
 20
5.60211
 30
0.0
 40
0.003937
 41
0.003937
  0
SEQEND
 8
0
  0
POLYLINE
  8
0
 62
     52
 66
     1
 10
0
 20
0
 30
0.0
 40
0.283464
 41
0.283464
  0
VERTEX
  8
0
 10
4.38129
 20
6.10607
 30
0.0
 40
0.003937
 41
0.003937
  0
VERTEX
  8
0
 10
4.34978
 20
6.10607
 30
0.0
 40
0.003937
 41
0.003937
  0
SEQEND
 8
0
  0
POLYLINE
  8
0
 62
     52
 66
     1
 10
0
 20
0
 30
0.0
 40
0.283464
 41
0.283464
  0
VERTEX
  8
0
 10
7.34978
 20
5.5785
 30
0.0
 40
0.003937
 41
0.003937
  0
VERTEX
  8
0
 10
7.34978
 20
5.60211
 30
0.0
 40
0.003937
 41
0.003937
  0
SEQEND
 8
0
  0
POLYLINE
  8
0
 62
     52
 66
     1
 10
0
 20
0
 30
0.0
 40
0.283464
 41
0.283464
  0
VERTEX
  8
0
 10
3.76719
 20
6.10607
 30
0.0
 40
0.003937
 41
0.003937
  0
VERTEX
  8
0
 10
3.76719
 20
5.60211
 30
0.0
 40
0.003937
 41
0.003937
  0
SEQEND
 8
0
  0
POLYLINE
  8
0
 62
     52
 66
     1
 10
0
 20
0
 30
0.0
 40
0.283464
 41
0.283464
  0
VERTEX
  8
0
 10
6.76719
 20
5.60211
 30
0.0
 40
0.003937
 41
0.003937
  0
VERTEX
  8
0
 10
6.79872
 20
5.60211
 30
0.0
 40
0.003937
 41
0.003937
  0
SEQEND
 8
0
  0
POLYLINE
  8
0
 62
     52
 66
     1
 10
0
 20
0
 30
0.0
 40
0.283464
 41
0.283464
  0
VERTEX
  8
0
 10
3.79872
 20
5.60211
 30
0.0
 40
0.003937
 41
0.003937
  0
VERTEX
  8
0
 10
3.79872
 20
5.5785
 30
0.0
 40
0.003937
 41
0.003937
  0
SEQEND
 8
0
  0
POLYLINE
  8
0
 62
     52
 66
     1
 10
0
 20
0
 30
0.0
 40
0.283464
 41
0.283464
  0
VERTEX
  8
0
 10
6.76719
 20
6.10607
 30
0.0
 40
0.003937
 41
0.003937
  0
VERTEX
  8
0
 10
6.76719
 20
5.60211
 30
0.0
 40
0.003937
 41
0.003937
  0
SEQEND
 8
0
  0
POLYLINE
  8
0
 62
     52
 66
     1
 10
0
 20
0
 30
0.0
 40
0.283464
 41
0.283464
  0
VERTEX
  8
0
 10
4.38129
 20
5.60211
 30
0.0
 40
0.003937
 41
0.003937
  0
VERTEX
  8
0
 10
4.38129
 20
6.10607
 30
0.0
 40
0.003937
 41
0.003937
  0
SEQEND
 8
0
  0
POLYLINE
  8
0
 62
     52
 66
     1
 10
0
 20
0
 30
0.0
 40
0.283464
 41
0.283464
  0
VERTEX
  8
0
 10
3.79872
 20
5.5785
 30
0.0
 40
0.003937
 41
0.003937
  0
VERTEX
  8
0
 10
4.34978
 20
5.5785
 30
0.0
 40
0.003937
 41
0.003937
  0
SEQEND
 8
0
  0
POLYLINE
  8
0
 62
     52
 66
     1
 10
0
 20
0
 30
0.0
 40
0.283464
 41
0.283464
  0
VERTEX
  8
0
 10
3.59978
 20
6.03597
 30
0.0
 40
0.003937
 41
0.003937
  0
VERTEX
  8
0
 10
3.04861
 20
6.03597
 30
0.0
 40
0.003937
 41
0.003937
  0
SEQEND
 8
0
  0
POLYLINE
  8
0
 62
     52
 66
     1
 10
0
 20
0
 30
0.0
 40
0.283464
 41
0.283464
  0
VERTEX
  8
0
 10
4.34978
 20
5.5785
 30
0.0
 40
0.003937
 41
0.003937
  0
VERTEX
  8
0
 10
4.34978
 20
5.60211
 30
0.0
 40
0.003937
 41
0.003937
  0
SEQEND
 8
0
  0
POLYLINE
  8
0
 62
     52
 66
     1
 10
0
 20
0
 30
0.0
 40
0.283464
 41
0.283464
  0
VERTEX
  8
0
 10
3.76719
 20
5.60211
 30
0.0
 40
0.003937
 41
0.003937
  0
VERTEX
  8
0
 10
3.79872
 20
5.60211
 30
0.0
 40
0.003937
 41
0.003937
  0
SEQEND
 8
0
  0
POLYLINE
  8
0
 62
     52
 66
     1
 10
0
 20
0
 30
0.0
 40
0.283464
 41
0.283464
  0
VERTEX
  8
0
 10
3.79872
 20
6.10607
 30
0.0
 40
0.003937
 41
0.003937
  0
VERTEX
  8
0
 10
3.76719
 20
6.10607
 30
0.0
 40
0.003937
 41
0.003937
  0
SEQEND
 8
0
  0
POLYLINE
  8
0
 62
     52
 66
     1
 10
0
 20
0
 30
0.0
 40
0.283464
 41
0.283464
  0
VERTEX
  8
0
 10
3.63129
 20
6.01237
 30
0.0
 40
0.003937
 41
0.003937
  0
VERTEX
  8
0
 10
3.59978
 20
6.01237
 30
0.0
 40
0.003937
 41
0.003937
  0
SEQEND
 8
0
  0
POLYLINE
  8
0
 62
     52
 66
     1
 10
0
 20
0
 30
0.0
 40
0.283464
 41
0.283464
  0
VERTEX
  8
0
 10
4.54872
 20
6.22347
 30
0.0
 40
0.003937
 41
0.003937
  0
VERTEX
  8
0
 10
4.54872
 20
6.19987
 30
0.0
 40
0.003937
 41
0.003937
  0
SEQEND
 8
0
  0
POLYLINE
  8
0
 62
     52
 66
     1
 10
0
 20
0
 30
0.0
 40
0.283464
 41
0.283464
  0
VERTEX
  8
0
 10
6.79872
 20
5.5785
 30
0.0
 40
0.003937
 41
0.003937
  0
VERTEX
  8
0
 10
7.34978
 20
5.5785
 30
0.0
 40
0.003937
 41
0.003937
  0
SEQEND
 8
0
  0
POLYLINE
  8
0
 62
     52
 66
     1
 10
0
 20
0
 30
0.0
 40
0.283464
 41
0.283464
  0
VERTEX
  8
0
 10
4.34978
 20
6.10607
 30
0.0
 40
0.003937
 41
0.003937
  0
VERTEX
  8
0
 10
4.34978
 20
6.12967
 30
0.0
 40
0.003937
 41
0.003937
  0
SEQEND
 8
0
  0
POLYLINE
  8
0
 62
     52
 66
     1
 10
0
 20
0
 30
0.0
 40
0.283464
 41
0.283464
  0
VERTEX
  8
0
 10
3.79872
 20
6.12967
 30
0.0
 40
0.003937
 41
0.003937
  0
VERTEX
  8
0
 10
3.79872
 20
6.10607
 30
0.0
 40
0.003937
 41
0.003937
  0
SEQEND
 8
0
  0
POLYLINE
  8
0
 62
     52
 66
     1
 10
0
 20
0
 30
0.0
 40
0.283464
 41
0.283464
  0
VERTEX
  8
0
 10
3.59978
 20
6.01237
 30
0.0
 40
0.003937
 41
0.003937
  0
VERTEX
  8
0
 10
3.59978
 20
6.03597
 30
0.0
 40
0.003937
 41
0.003937
  0
SEQEND
 8
0
  0
POLYLINE
  8
0
 62
     52
 66
     1
 10
0
 20
0
 30
0.0
 40
0.283464
 41
0.283464
  0
VERTEX
  8
0
 10
6.79872
 20
6.12967
 30
0.0
 40
0.003937
 41
0.003937
  0
VERTEX
  8
0
 10
6.79872
 20
6.10607
 30
0.0
 40
0.003937
 41
0.003937
  0
SEQEND
 8
0
  0
POLYLINE
  8
0
 62
     52
 66
     1
 10
0
 20
0
 30
0.0
 40
0.283464
 41
0.283464
  0
VERTEX
  8
0
 10
7.34978
 20
6.12967
 30
0.0
 40
0.003937
 41
0.003937
  0
VERTEX
  8
0
 10
6.79872
 20
6.12967
 30
0.0
 40
0.003937
 41
0.003937
  0
SEQEND
 8
0
  0
POLYLINE
  8
0
 62
     52
 66
     1
 10
0
 20
0
 30
0.0
 40
0.283464
 41
0.283464
  0
VERTEX
  8
0
 10
7.34978
 20
6.10607
 30
0.0
 40
0.003937
 41
0.003937
  0
VERTEX
  8
0
 10
7.34978
 20
6.12967
 30
0.0
 40
0.003937
 41
0.003937
  0
SEQEND
 8
0
  0
POLYLINE
  8
0
 62
     52
 66
     1
 10
0
 20
0
 30
0.0
 40
0.283464
 41
0.283464
  0
VERTEX
  8
0
 10
4.34978
 20
6.12967
 30
0.0
 40
0.003937
 41
0.003937
  0
VERTEX
  8
0
 10
3.79872
 20
6.12967
 30
0.0
 40
0.003937
 41
0.003937
  0
SEQEND
 8
0
  0
POLYLINE
  8
0
 62
     52
 66
     1
 10
0
 20
0
 30
0.0
 40
0.283464
 41
0.283464
  0
VERTEX
  8
0
 10
6.79872
 20
6.10607
 30
0.0
 40
0.003937
 41
0.003937
  0
VERTEX
  8
0
 10
6.76719
 20
6.10607
 30
0.0
 40
0.003937
 41
0.003937
  0
SEQEND
 8
0
  0
POLYLINE
  8
0
 62
     52
 66
     1
 10
0
 20
0
 30
0.0
 40
0.283464
 41
0.283464
  0
VERTEX
  8
0
 10
7.38129
 20
6.10607
 30
0.0
 40
0.003937
 41
0.003937
  0
VERTEX
  8
0
 10
7.34978
 20
6.10607
 30
0.0
 40
0.003937
 41
0.003937
  0
SEQEND
 8
0
  0
POLYLINE
  8
0
 62
     52
 66
     1
 10
0
 20
0
 30
0.0
 40
0.283464
 41
0.283464
  0
VERTEX
  8
0
 10
3.59978
 20
5.48475
 30
0.0
 40
0.003937
 41
0.003937
  0
VERTEX
  8
0
 10
3.59978
 20
5.50836
 30
0.0
 40
0.003937
 41
0.003937
  0
SEQEND
 8
0
  0
POLYLINE
  8
0
 62
     52
 66
     1
 10
0
 20
0
 30
0.0
 40
0.283464
 41
0.283464
  0
VERTEX
  8
0
 10
3.04861
 20
5.48475
 30
0.0
 40
0.003937
 41
0.003937
  0
VERTEX
  8
0
 10
3.59978
 20
5.48475
 30
0.0
 40
0.003937
 41
0.003937
  0
SEQEND
 8
0
  0
POLYLINE
  8
0
 62
     52
 66
     1
 10
0
 20
0
 30
0.0
 40
0.283464
 41
0.283464
  0
VERTEX
  8
0
 10
5.84978
 20
5.56717
 30
0.0
 40
0.003937
 41
0.003937
  0
VERTEX
  8
0
 10
5.29872
 20
5.56717
 30
0.0
 40
0.003937
 41
0.003937
  0
SEQEND
 8
0
  0
POLYLINE
  8
0
 62
     52
 66
     1
 10
0
 20
0
 30
0.0
 40
0.283464
 41
0.283464
  0
VERTEX
  8
0
 10
3.04861
 20
5.50836
 30
0.0
 40
0.003937
 41
0.003937
  0
VERTEX
  8
0
 10
3.04861
 20
5.48475
 30
0.0
 40
0.003937
 41
0.003937
  0
SEQEND
 8
0
  0
POLYLINE
  8
0
 62
     52
 66
     1
 10
0
 20
0
 30
0.0
 40
0.283464
 41
0.283464
  0
VERTEX
  8
0
 10
3.59978
 20
5.50836
 30
0.0
 40
0.003937
 41
0.003937
  0
VERTEX
  8
0
 10
3.63129
 20
5.50836
 30
0.0
 40
0.003937
 41
0.003937
  0
SEQEND
 8
0
  0
POLYLINE
  8
0
 62
     52
 66
     1
 10
0
 20
0
 30
0.0
 40
0.283464
 41
0.283464
  0
VERTEX
  8
0
 10
3.63129
 20
5.50836
 30
0.0
 40
0.003937
 41
0.003937
  0
VERTEX
  8
0
 10
3.63129
 20
6.01237
 30
0.0
 40
0.003937
 41
0.003937
  0
SEQEND
 8
0
  0
POLYLINE
  8
0
 62
     52
 66
     1
 10
0
 20
0
 30
0.0
 40
0.283464
 41
0.283464
  0
VERTEX
  8
0
 10
3.01719
 20
6.01237
 30
0.0
 40
0.003937
 41
0.003937
  0
VERTEX
  8
0
 10
3.01719
 20
5.50836
 30
0.0
 40
0.003937
 41
0.003937
  0
SEQEND
 8
0
  0
POLYLINE
  8
0
 62
     52
 66
     1
 10
0
 20
0
 30
0.0
 40
0.283464
 41
0.283464
  0
VERTEX
  8
0
 10
8.09978
 20
5.391
 30
0.0
 40
0.003937
 41
0.003937
  0
VERTEX
  8
0
 10
8.09978
 20
5.41461
 30
0.0
 40
0.003937
 41
0.003937
  0
SEQEND
 8
0
  0
POLYLINE
  8
0
 62
     52
 66
     1
 10
0
 20
0
 30
0.0
 40
0.283464
 41
0.283464
  0
VERTEX
  8
0
 10
5.84978
 20
5.016
 30
0.0
 40
0.003937
 41
0.003937
  0
VERTEX
  8
0
 10
5.84978
 20
5.03961
 30
0.0
 40
0.003937
 41
0.003937
  0
SEQEND
 8
0
  0
POLYLINE
  8
0
 62
     52
 66
     1
 10
0
 20
0
 30
0.0
 40
0.283464
 41
0.283464
  0
VERTEX
  8
0
 10
7.54872
 20
5.91857
 30
0.0
 40
0.003937
 41
0.003937
  0
VERTEX
  8
0
 10
7.51719
 20
5.91857
 30
0.0
 40
0.003937
 41
0.003937
  0
SEQEND
 8
0
  0
POLYLINE
  8
0
 62
     52
 66
     1
 10
0
 20
0
 30
0.0
 40
0.283464
 41
0.283464
  0
VERTEX
  8
0
 10
7.54872
 20
5.94217
 30
0.0
 40
0.003937
 41
0.003937
  0
VERTEX
  8
0
 10
7.54872
 20
5.91857
 30
0.0
 40
0.003937
 41
0.003937
  0
SEQEND
 8
0
  0
POLYLINE
  8
0
 62
     52
 66
     1
 10
0
 20
0
 30
0.0
 40
0.283464
 41
0.283464
  0
VERTEX
  8
0
 10
8.13129
 20
5.91857
 30
0.0
 40
0.003937
 41
0.003937
  0
VERTEX
  8
0
 10
8.09978
 20
5.91857
 30
0.0
 40
0.003937
 41
0.003937
  0
SEQEND
 8
0
  0
POLYLINE
  8
0
 62
     52
 66
     1
 10
0
 20
0
 30
0.0
 40
0.283464
 41
0.283464
  0
VERTEX
  8
0
 10
3.01719
 20
5.50836
 30
0.0
 40
0.003937
 41
0.003937
  0
VERTEX
  8
0
 10
3.04861
 20
5.50836
 30
0.0
 40
0.003937
 41
0.003937
  0
SEQEND
 8
0
  0
POLYLINE
  8
0
 62
     52
 66
     1
 10
0
 20
0
 30
0.0
 40
0.283464
 41
0.283464
  0
VERTEX
  8
0
 10
3.04861
 20
6.01237
 30
0.0
 40
0.003937
 41
0.003937
  0
VERTEX
  8
0
 10
3.01719
 20
6.01237
 30
0.0
 40
0.003937
 41
0.003937
  0
SEQEND
 8
0
  0
POLYLINE
  8
0
 62
     52
 66
     1
 10
0
 20
0
 30
0.0
 40
0.283464
 41
0.283464
  0
VERTEX
  8
0
 10
3.04861
 20
6.03597
 30
0.0
 40
0.003937
 41
0.003937
  0
VERTEX
  8
0
 10
3.04861
 20
6.01237
 30
0.0
 40
0.003937
 41
0.003937
  0
SEQEND
 8
0
  0
POLYLINE
  8
0
 62
     52
 66
     1
 10
0
 20
0
 30
0.0
 40
0.283464
 41
0.283464
  0
VERTEX
  8
0
 10
7.51719
 20
5.91857
 30
0.0
 40
0.003937
 41
0.003937
  0
VERTEX
  8
0
 10
7.51719
 20
5.41461
 30
0.0
 40
0.003937
 41
0.003937
  0
SEQEND
 8
0
  0
POLYLINE
  8
0
 62
     52
 66
     1
 10
0
 20
0
 30
0.0
 40
0.283464
 41
0.283464
  0
VERTEX
  8
0
 10
7.54872
 20
5.391
 30
0.0
 40
0.003937
 41
0.003937
  0
VERTEX
  8
0
 10
8.09978
 20
5.391
 30
0.0
 40
0.003937
 41
0.003937
  0
SEQEND
 8
0
  0
POLYLINE
  8
0
 62
     52
 66
     1
 10
0
 20
0
 30
0.0
 40
0.283464
 41
0.283464
  0
VERTEX
  8
0
 10
7.54872
 20
5.41461
 30
0.0
 40
0.003937
 41
0.003937
  0
VERTEX
  8
0
 10
7.54872
 20
5.391
 30
0.0
 40
0.003937
 41
0.003937
  0
SEQEND
 8
0
  0
POLYLINE
  8
0
 62
     52
 66
     1
 10
0
 20
0
 30
0.0
 40
0.283464
 41
0.283464
  0
VERTEX
  8
0
 10
5.29872
 20
5.03961
 30
0.0
 40
0.003937
 41
0.003937
  0
VERTEX
  8
0
 10
5.29872
 20
5.016
 30
0.0
 40
0.003937
 41
0.003937
  0
SEQEND
 8
0
  0
POLYLINE
  8
0
 62
     52
 66
     1
 10
0
 20
0
 30
0.0
 40
0.283464
 41
0.283464
  0
VERTEX
  8
0
 10
5.29872
 20
5.54357
 30
0.0
 40
0.003937
 41
0.003937
  0
VERTEX
  8
0
 10
5.26719
 20
5.54357
 30
0.0
 40
0.003937
 41
0.003937
  0
SEQEND
 8
0
  0
POLYLINE
  8
0
 62
     52
 66
     1
 10
0
 20
0
 30
0.0
 40
0.283464
 41
0.283464
  0
VERTEX
  8
0
 10
8.09978
 20
5.41461
 30
0.0
 40
0.003937
 41
0.003937
  0
VERTEX
  8
0
 10
8.13129
 20
5.41461
 30
0.0
 40
0.003937
 41
0.003937
  0
SEQEND
 8
0
  0
POLYLINE
  8
0
 62
     52
 66
     1
 10
0
 20
0
 30
0.0
 40
0.283464
 41
0.283464
  0
VERTEX
  8
0
 10
5.84978
 20
5.03961
 30
0.0
 40
0.003937
 41
0.003937
  0
VERTEX
  8
0
 10
5.88129
 20
5.03961
 30
0.0
 40
0.003937
 41
0.003937
  0
SEQEND
 8
0
  0
POLYLINE
  8
0
 62
     52
 66
     1
 10
0
 20
0
 30
0.0
 40
0.283464
 41
0.283464
  0
VERTEX
  8
0
 10
5.26719
 20
5.54357
 30
0.0
 40
0.003937
 41
0.003937
  0
VERTEX
  8
0
 10
5.26719
 20
5.03961
 30
0.0
 40
0.003937
 41
0.003937
  0
SEQEND
 8
0
  0
POLYLINE
  8
0
 62
     52
 66
     1
 10
0
 20
0
 30
0.0
 40
0.283464
 41
0.283464
  0
VERTEX
  8
0
 10
5.29872
 20
5.56717
 30
0.0
 40
0.003937
 41
0.003937
  0
VERTEX
  8
0
 10
5.29872
 20
5.54357
 30
0.0
 40
0.003937
 41
0.003937
  0
SEQEND
 8
0
  0
POLYLINE
  8
0
 62
     52
 66
     1
 10
0
 20
0
 30
0.0
 40
0.283464
 41
0.283464
  0
VERTEX
  8
0
 10
5.26719
 20
5.03961
 30
0.0
 40
0.003937
 41
0.003937
  0
VERTEX
  8
0
 10
5.29872
 20
5.03961
 30
0.0
 40
0.003937
 41
0.003937
  0
SEQEND
 8
0
  0
POLYLINE
  8
0
 62
     52
 66
     1
 10
0
 20
0
 30
0.0
 40
0.283464
 41
0.283464
  0
VERTEX
  8
0
 10
8.09978
 20
5.91857
 30
0.0
 40
0.003937
 41
0.003937
  0
VERTEX
  8
0
 10
8.09978
 20
5.94217
 30
0.0
 40
0.003937
 41
0.003937
  0
SEQEND
 8
0
  0
POLYLINE
  8
0
 62
     52
 66
     1
 10
0
 20
0
 30
0.0
 40
0.283464
 41
0.283464
  0
VERTEX
  8
0
 10
8.13129
 20
5.41461
 30
0.0
 40
0.003937
 41
0.003937
  0
VERTEX
  8
0
 10
8.13129
 20
5.91857
 30
0.0
 40
0.003937
 41
0.003937
  0
SEQEND
 8
0
  0
POLYLINE
  8
0
 62
     52
 66
     1
 10
0
 20
0
 30
0.0
 40
0.283464
 41
0.283464
  0
VERTEX
  8
0
 10
5.88129
 20
5.03961
 30
0.0
 40
0.003937
 41
0.003937
  0
VERTEX
  8
0
 10
5.88129
 20
5.54357
 30
0.0
 40
0.003937
 41
0.003937
  0
SEQEND
 8
0
  0
POLYLINE
  8
0
 62
     52
 66
     1
 10
0
 20
0
 30
0.0
 40
0.283464
 41
0.283464
  0
VERTEX
  8
0
 10
5.88129
 20
5.54357
 30
0.0
 40
0.003937
 41
0.003937
  0
VERTEX
  8
0
 10
5.84978
 20
5.54357
 30
0.0
 40
0.003937
 41
0.003937
  0
SEQEND
 8
0
  0
POLYLINE
  8
0
 62
     52
 66
     1
 10
0
 20
0
 30
0.0
 40
0.283464
 41
0.283464
  0
VERTEX
  8
0
 10
5.29872
 20
5.016
 30
0.0
 40
0.003937
 41
0.003937
  0
VERTEX
  8
0
 10
5.84978
 20
5.016
 30
0.0
 40
0.003937
 41
0.003937
  0
SEQEND
 8
0
  0
POLYLINE
  8
0
 62
     52
 66
     1
 10
0
 20
0
 30
0.0
 40
0.283464
 41
0.283464
  0
VERTEX
  8
0
 10
8.09978
 20
5.94217
 30
0.0
 40
0.003937
 41
0.003937
  0
VERTEX
  8
0
 10
7.54872
 20
5.94217
 30
0.0
 40
0.003937
 41
0.003937
  0
SEQEND
 8
0
  0
POLYLINE
  8
0
 62
     52
 66
     1
 10
0
 20
0
 30
0.0
 40
0.283464
 41
0.283464
  0
VERTEX
  8
0
 10
7.51719
 20
5.41461
 30
0.0
 40
0.003937
 41
0.003937
  0
VERTEX
  8
0
 10
7.54872
 20
5.41461
 30
0.0
 40
0.003937
 41
0.003937
  0
SEQEND
 8
0
  0
POLYLINE
  8
0
 62
     52
 66
     1
 10
0
 20
0
 30
0.0
 40
0.283464
 41
0.283464
  0
VERTEX
  8
0
 10
5.84978
 20
5.54357
 30
0.0
 40
0.003937
 41
0.003937
  0
VERTEX
  8
0
 10
5.84978
 20
5.56717
 30
0.0
 40
0.003937
 41
0.003937
  0
SEQEND
 8
0
  0
POLYLINE
  8
0
 62
     52
 66
     1
 10
0
 20
0
 30
0.0
 40
0.283464
 41
0.283464
  0
VERTEX
  8
0
 10
6.80572
 20
3.29856
 30
0.0
 40
0.003937
 41
0.003937
  0
VERTEX
  8
0
 10
6.80968
 20
3.32189
 30
0.0
 40
0.003937
 41
0.003937
  0
SEQEND
 8
0
  0
POLYLINE
  8
0
 62
     52
 66
     1
 10
0
 20
0
 30
0.0
 40
0.425196
 41
0.425196
  0
VERTEX
  8
0
 10
8.44997
 20
4.35275
 30
0.0
 40
0.0059055
 41
0.0059055
  0
VERTEX
  8
0
 10
8.5
 20
4.32781
 30
0.0
 40
0.0059055
 41
0.0059055
  0
SEQEND
 8
0
  0
POLYLINE
  8
0
 62
     52
 66
     1
 10
0
 20
0
 30
0.0
 40
0.425196
 41
0.425196
  0
VERTEX
  8
0
 10
8.42497
 20
4.40278
 30
0.0
 40
0.0059055
 41
0.0059055
  0
VERTEX
  8
0
 10
8.44997
 20
4.35275
 30
0.0
 40
0.0059055
 41
0.0059055
  0
SEQEND
 8
0
  0
POLYLINE
  8
0
 62
     52
 66
     1
 10
0
 20
0
 30
0.0
 40
0.425196
 41
0.425196
  0
VERTEX
  8
0
 10
6.94997
 20
2.92779
 30
0.0
 40
0.0059055
 41
0.0059055
  0
VERTEX
  8
0
 10
6.92497
 20
2.92779
 30
0.0
 40
0.0059055
 41
0.0059055
  0
SEQEND
 8
0
  0
POLYLINE
  8
0
 62
     52
 66
     1
 10
0
 20
0
 30
0.0
 40
0.425196
 41
0.425196
  0
VERTEX
  8
0
 10
7
 20
2.90278
 30
0.0
 40
0.0059055
 41
0.0059055
  0
VERTEX
  8
0
 10
6.94997
 20
2.92779
 30
0.0
 40
0.0059055
 41
0.0059055
  0
SEQEND
 8
0
  0
POLYLINE
  8
0
 62
     52
 66
     1
 10
0
 20
0
 30
0.0
 40
0.425196
 41
0.425196
  0
VERTEX
  8
0
 10
2.72499
 20
6.27778
 30
0.0
 40
0.0059055
 41
0.0059055
  0
VERTEX
  8
0
 10
2.72499
 20
5.87776
 30
0.0
 40
0.0059055
 41
0.0059055
  0
SEQEND
 8
0
  0
POLYLINE
  8
0
 62
     52
 66
     1
 10
0
 20
0
 30
0.0
 40
0.425196
 41
0.425196
  0
VERTEX
  8
0
 10
2.75
 20
6.32781
 30
0.0
 40
0.0059055
 41
0.0059055
  0
VERTEX
  8
0
 10
2.72499
 20
6.27778
 30
0.0
 40
0.0059055
 41
0.0059055
  0
SEQEND
 8
0
  0
POLYLINE
  8
0
 62
     52
 66
     1
 10
0
 20
0
 30
0.0
 40
0.425196
 41
0.425196
  0
VERTEX
  8
0
 10
2.77501
 20
6.35275
 30
0.0
 40
0.0059055
 41
0.0059055
  0
VERTEX
  8
0
 10
2.75
 20
6.32781
 30
0.0
 40
0.0059055
 41
0.0059055
  0
SEQEND
 8
0
  0
POLYLINE
  8
0
 62
     52
 66
     1
 10
0
 20
0
 30
0.0
 40
0.425196
 41
0.425196
  0
VERTEX
  8
0
 10
2.82497
 20
6.37776
 30
0.0
 40
0.0059055
 41
0.0059055
  0
VERTEX
  8
0
 10
2.77501
 20
6.35275
 30
0.0
 40
0.0059055
 41
0.0059055
  0
SEQEND
 8
0
  0
POLYLINE
  8
0
 62
     52
 66
     1
 10
0
 20
0
 30
0.0
 40
0.425196
 41
0.425196
  0
VERTEX
  8
0
 10
8.42497
 20
6.55279
 30
0.0
 40
0.0059055
 41
0.0059055
  0
VERTEX
  8
0
 10
8.42497
 20
6.565
 30
0.0
 40
0.0059055
 41
0.0059055
  0
VERTEX
  8
0
 10
8.41515
 20
6.60146
 30
0.0
 40
0.0059055
 41
0.0059055
  0
VERTEX
  8
0
 10
8.38835
 20
6.64117
 30
0.0
 40
0.0059055
 41
0.0059055
  0
VERTEX
  8
0
 10
8.34864
 20
6.66797
 30
0.0
 40
0.0059055
 41
0.0059055
  0
VERTEX
  8
0
 10
8.31213
 20
6.67779
 30
0.0
 40
0.0059055
 41
0.0059055
  0
VERTEX
  8
0
 10
8.29997
 20
6.67779
 30
0.0
 40
0.0059055
 41
0.0059055
  0
SEQEND
 8
0
  0
POLYLINE
  8
0
 62
     52
 66
     1
 10
0
 20
0
 30
0.0
 40
0.425196
 41
0.425196
  0
VERTEX
  8
0
 10
8.42497
 20
6.50276
 30
0.0
 40
0.0059055
 41
0.0059055
  0
VERTEX
  8
0
 10
8.42497
 20
6.55279
 30
0.0
 40
0.0059055
 41
0.0059055
  0
SEQEND
 8
0
  0
POLYLINE
  8
0
 62
     52
 66
     1
 10
0
 20
0
 30
0.0
 40
0.425196
 41
0.425196
  0
VERTEX
  8
0
 10
2.84999
 20
2.92779
 30
0.0
 40
0.0059055
 41
0.0059055
  0
VERTEX
  8
0
 10
2.90001
 20
2.92779
 30
0.0
 40
0.0059055
 41
0.0059055
  0
SEQEND
 8
0
  0
POLYLINE
  8
0
 62
     52
 66
     1
 10
0
 20
0
 30
0.0
 40
0.425196
 41
0.425196
  0
VERTEX
  8
0
 10
2.72499
 20
3.10275
 30
0.0
 40
0.0059055
 41
0.0059055
  0
VERTEX
  8
0
 10
2.72499
 20
3.05279
 30
0.0
 40
0.0059055
 41
0.0059055
  0
SEQEND
 8
0
  0
POLYLINE
  8
0
 62
     52
 66
     1
 10
0
 20
0
 30
0.0
 40
0.425196
 41
0.425196
  0
VERTEX
  8
0
 10
2.72499
 20
3.05279
 30
0.0
 40
0.0059055
 41
0.0059055
  0
VERTEX
  8
0
 10
2.72499
 20
3.04064
 30
0.0
 40
0.0059055
 41
0.0059055
  0
VERTEX
  8
0
 10
2.73481
 20
3.00412
 30
0.0
 40
0.0059055
 41
0.0059055
  0
VERTEX
  8
0
 10
2.76161
 20
2.96442
 30
0.0
 40
0.0059055
 41
0.0059055
  0
VERTEX
  8
0
 10
2.80132
 20
2.93761
 30
0.0
 40
0.0059055
 41
0.0059055
  0
VERTEX
  8
0
 10
2.83778
 20
2.92779
 30
0.0
 40
0.0059055
 41
0.0059055
  0
VERTEX
  8
0
 10
2.84999
 20
2.92779
 30
0.0
 40
0.0059055
 41
0.0059055
  0
SEQEND
 8
0
  0
POLYLINE
  8
0
 62
     52
 66
     1
 10
0
 20
0
 30
0.0
 40
0.425196
 41
0.425196
  0
VERTEX
  8
0
 10
8.5
 20
4.32781
 30
0.0
 40
0.0059055
 41
0.0059055
  0
VERTEX
  8
0
 10
8.59999
 20
4.27778
 30
0.0
 40
0.0059055
 41
0.0059055
  0
SEQEND
 8
0
  0
POLYLINE
  8
0
 62
     52
 66
     1
 10
0
 20
0
 30
0.0
 40
0.425196
 41
0.425196
  0
VERTEX
  8
0
 10
8.625
 20
4.20281
 30
0.0
 40
0.0059055
 41
0.0059055
  0
VERTEX
  8
0
 10
7.67497
 20
2.57781
 30
0.0
 40
0.0059055
 41
0.0059055
  0
SEQEND
 8
0
  0
POLYLINE
  8
0
 62
     52
 66
     1
 10
0
 20
0
 30
0.0
 40
0.425196
 41
0.425196
  0
VERTEX
  8
0
 10
8.625
 20
4.20281
 30
0.0
 40
0.0059055
 41
0.0059055
  0
VERTEX
  8
0
 10
8.62739
 20
4.20768
 30
0.0
 40
0.0059055
 41
0.0059055
  0
VERTEX
  8
0
 10
8.63075
 20
4.22424
 30
0.0
 40
0.0059055
 41
0.0059055
  0
VERTEX
  8
0
 10
8.62799
 20
4.2455
 30
0.0
 40
0.0059055
 41
0.0059055
  0
VERTEX
  8
0
 10
8.61746
 20
4.26417
 30
0.0
 40
0.0059055
 41
0.0059055
  0
VERTEX
  8
0
 10
8.60482
 20
4.27539
 30
0.0
 40
0.0059055
 41
0.0059055
  0
VERTEX
  8
0
 10
8.59999
 20
4.27778
 30
0.0
 40
0.0059055
 41
0.0059055
  0
SEQEND
 8
0
  0
POLYLINE
  8
0
 62
     52
 66
     1
 10
0
 20
0
 30
0.0
 40
0.425196
 41
0.425196
  0
VERTEX
  8
0
 10
8.42497
 20
4.40278
 30
0.0
 40
0.0059055
 41
0.0059055
  0
VERTEX
  8
0
 10
8.42497
 20
4.52778
 30
0.0
 40
0.0059055
 41
0.0059055
  0
SEQEND
 8
0
  0
POLYLINE
  8
0
 62
     52
 66
     1
 10
0
 20
0
 30
0.0
 40
0.425196
 41
0.425196
  0
VERTEX
  8
0
 10
8.42497
 20
6.50276
 30
0.0
 40
0.0059055
 41
0.0059055
  0
VERTEX
  8
0
 10
8.42497
 20
4.52778
 30
0.0
 40
0.0059055
 41
0.0059055
  0
SEQEND
 8
0
  0
POLYLINE
  8
0
 62
     52
 66
     1
 10
0
 20
0
 30
0.0
 40
0.425196
 41
0.425196
  0
VERTEX
  8
0
 10
7.52501
 20
2.57781
 30
0.0
 40
0.0059055
 41
0.0059055
  0
VERTEX
  8
0
 10
7.52994
 20
2.57286
 30
0.0
 40
0.0059055
 41
0.0059055
  0
VERTEX
  8
0
 10
7.5594
 20
2.55479
 30
0.0
 40
0.0059055
 41
0.0059055
  0
VERTEX
  8
0
 10
7.58985
 20
2.54671
 30
0.0
 40
0.0059055
 41
0.0059055
  0
VERTEX
  8
0
 10
7.59999
 20
2.54671
 30
0.0
 40
0.0059055
 41
0.0059055
  0
VERTEX
  8
0
 10
7.61014
 20
2.54671
 30
0.0
 40
0.0059055
 41
0.0059055
  0
VERTEX
  8
0
 10
7.64057
 20
2.55479
 30
0.0
 40
0.0059055
 41
0.0059055
  0
VERTEX
  8
0
 10
7.66997
 20
2.57286
 30
0.0
 40
0.0059055
 41
0.0059055
  0
VERTEX
  8
0
 10
7.67497
 20
2.57781
 30
0.0
 40
0.0059055
 41
0.0059055
  0
SEQEND
 8
0
  0
POLYLINE
  8
0
 62
     52
 66
     1
 10
0
 20
0
 30
0.0
 40
0.425196
 41
0.425196
  0
VERTEX
  8
0
 10
7
 20
2.90278
 30
0.0
 40
0.0059055
 41
0.0059055
  0
VERTEX
  8
0
 10
7.52501
 20
2.57781
 30
0.0
 40
0.0059055
 41
0.0059055
  0
SEQEND
 8
0
  0
POLYLINE
  8
0
 62
     52
 66
     1
 10
0
 20
0
 30
0.0
 40
0.425196
 41
0.425196
  0
VERTEX
  8
0
 10
6.77501
 20
2.92779
 30
0.0
 40
0.0059055
 41
0.0059055
  0
VERTEX
  8
0
 10
6.92497
 20
2.92779
 30
0.0
 40
0.0059055
 41
0.0059055
  0
SEQEND
 8
0
  0
POLYLINE
  8
0
 62
     52
 66
     1
 10
0
 20
0
 30
0.0
 40
0.425196
 41
0.425196
  0
VERTEX
  8
0
 10
4
 20
2.92779
 30
0.0
 40
0.0059055
 41
0.0059055
  0
VERTEX
  8
0
 10
6.77501
 20
2.92779
 30
0.0
 40
0.0059055
 41
0.0059055
  0
SEQEND
 8
0
  0
POLYLINE
  8
0
 62
     52
 66
     1
 10
0
 20
0
 30
0.0
 40
0.425196
 41
0.425196
  0
VERTEX
  8
0
 10
2.90001
 20
2.92779
 30
0.0
 40
0.0059055
 41
0.0059055
  0
VERTEX
  8
0
 10
4
 20
2.92779
 30
0.0
 40
0.0059055
 41
0.0059055
  0
SEQEND
 8
0
  0
POLYLINE
  8
0
 62
     52
 66
     1
 10
0
 20
0
 30
0.0
 40
0.425196
 41
0.425196
  0
VERTEX
  8
0
 10
4.57497
 20
6.67779
 30
0.0
 40
0.0059055
 41
0.0059055
  0
VERTEX
  8
0
 10
8.29997
 20
6.67779
 30
0.0
 40
0.0059055
 41
0.0059055
  0
SEQEND
 8
0
  0
POLYLINE
  8
0
 62
     52
 66
     1
 10
0
 20
0
 30
0.0
 40
0.425196
 41
0.425196
  0
VERTEX
  8
0
 10
2.82497
 20
6.37776
 30
0.0
 40
0.0059055
 41
0.0059055
  0
VERTEX
  8
0
 10
4.57497
 20
6.67779
 30
0.0
 40
0.0059055
 41
0.0059055
  0
SEQEND
 8
0
  0
POLYLINE
  8
0
 62
     52
 66
     1
 10
0
 20
0
 30
0.0
 40
0.425196
 41
0.425196
  0
VERTEX
  8
0
 10
2.72499
 20
4.95281
 30
0.0
 40
0.0059055
 41
0.0059055
  0
VERTEX
  8
0
 10
2.72499
 20
5.87776
 30
0.0
 40
0.0059055
 41
0.0059055
  0
SEQEND
 8
0
  0
POLYLINE
  8
0
 62
     52
 66
     1
 10
0
 20
0
 30
0.0
 40
0.425196
 41
0.425196
  0
VERTEX
  8
0
 10
2.72499
 20
3.10275
 30
0.0
 40
0.0059055
 41
0.0059055
  0
VERTEX
  8
0
 10
2.72499
 20
4.95281
 30
0.0
 40
0.0059055
 41
0.0059055
  0
SEQEND
 8
0
  0
ENDSEC
  0
EOF
