G04 #@! TF.FileFunction,Copper,L1,Top,Signal*
%FSLAX46Y46*%
G04 Gerber Fmt 4.6, Leading zero omitted, Abs format (unit mm)*
G04 Created by KiCad (PCBNEW 4.0.7) date 07/21/18 09:19:22*
%MOMM*%
%LPD*%
G01*
G04 APERTURE LIST*
%ADD10C,0.100000*%
%ADD11C,0.254000*%
G04 APERTURE END LIST*
D10*
D11*
G36*
X222123702Y-147191985D02*
X63626261Y-145924006D01*
X63066709Y-50800000D01*
X68505000Y-50800000D01*
X68505000Y-132715000D01*
X68518642Y-132783584D01*
X68518642Y-132853514D01*
X68760324Y-134068534D01*
X68841168Y-134263707D01*
X68866339Y-134324475D01*
X69554593Y-135354519D01*
X69750481Y-135550407D01*
X70780525Y-136238661D01*
X70855489Y-136269712D01*
X71036466Y-136344676D01*
X72251487Y-136586358D01*
X72321416Y-136586358D01*
X72390000Y-136600000D01*
X176362392Y-136600000D01*
X177453672Y-137145640D01*
X190750805Y-145377199D01*
X191614566Y-145954345D01*
X191870507Y-146060359D01*
X192901485Y-146265434D01*
X193178514Y-146265434D01*
X194209493Y-146060360D01*
X194465434Y-145954345D01*
X195339455Y-145370343D01*
X195354730Y-145355068D01*
X195374154Y-145345620D01*
X195452180Y-145257618D01*
X195535343Y-145174455D01*
X195543609Y-145154500D01*
X195557941Y-145138335D01*
X219687941Y-103863334D01*
X219718265Y-103775572D01*
X219759786Y-103692530D01*
X219906117Y-103158186D01*
X219911969Y-103075845D01*
X219925756Y-102881854D01*
X219856463Y-102332185D01*
X219788136Y-102127207D01*
X219768859Y-102069374D01*
X219494492Y-101588063D01*
X219370549Y-101445157D01*
X219312982Y-101378781D01*
X218875312Y-101039105D01*
X218812764Y-101007831D01*
X218757521Y-100964957D01*
X216217522Y-99694957D01*
X215159203Y-99165797D01*
X214705000Y-98257392D01*
X214705000Y-43815000D01*
X214691358Y-43746416D01*
X214691358Y-43676487D01*
X214449676Y-42461466D01*
X214343661Y-42205526D01*
X214343661Y-42205525D01*
X213655407Y-41175481D01*
X213459519Y-40979593D01*
X212429475Y-40291339D01*
X212173534Y-40185324D01*
X210958514Y-39943642D01*
X210888584Y-39943642D01*
X210820000Y-39930000D01*
X116205000Y-39930000D01*
X116145590Y-39941818D01*
X116085035Y-39940208D01*
X71635036Y-47560208D01*
X71537854Y-47597469D01*
X71437478Y-47624957D01*
X70167478Y-48259957D01*
X70077578Y-48329729D01*
X69982954Y-48392954D01*
X69347954Y-49027954D01*
X69284729Y-49122578D01*
X69214957Y-49212478D01*
X68579957Y-50482478D01*
X68573219Y-50507084D01*
X68559046Y-50528295D01*
X68536844Y-50639913D01*
X68506787Y-50749669D01*
X68509977Y-50774977D01*
X68505000Y-50800000D01*
X63066709Y-50800000D01*
X62992720Y-38222032D01*
X222757272Y-31882168D01*
X222123702Y-147191985D01*
X222123702Y-147191985D01*
G37*
X222123702Y-147191985D02*
X63626261Y-145924006D01*
X63066709Y-50800000D01*
X68505000Y-50800000D01*
X68505000Y-132715000D01*
X68518642Y-132783584D01*
X68518642Y-132853514D01*
X68760324Y-134068534D01*
X68841168Y-134263707D01*
X68866339Y-134324475D01*
X69554593Y-135354519D01*
X69750481Y-135550407D01*
X70780525Y-136238661D01*
X70855489Y-136269712D01*
X71036466Y-136344676D01*
X72251487Y-136586358D01*
X72321416Y-136586358D01*
X72390000Y-136600000D01*
X176362392Y-136600000D01*
X177453672Y-137145640D01*
X190750805Y-145377199D01*
X191614566Y-145954345D01*
X191870507Y-146060359D01*
X192901485Y-146265434D01*
X193178514Y-146265434D01*
X194209493Y-146060360D01*
X194465434Y-145954345D01*
X195339455Y-145370343D01*
X195354730Y-145355068D01*
X195374154Y-145345620D01*
X195452180Y-145257618D01*
X195535343Y-145174455D01*
X195543609Y-145154500D01*
X195557941Y-145138335D01*
X219687941Y-103863334D01*
X219718265Y-103775572D01*
X219759786Y-103692530D01*
X219906117Y-103158186D01*
X219911969Y-103075845D01*
X219925756Y-102881854D01*
X219856463Y-102332185D01*
X219788136Y-102127207D01*
X219768859Y-102069374D01*
X219494492Y-101588063D01*
X219370549Y-101445157D01*
X219312982Y-101378781D01*
X218875312Y-101039105D01*
X218812764Y-101007831D01*
X218757521Y-100964957D01*
X216217522Y-99694957D01*
X215159203Y-99165797D01*
X214705000Y-98257392D01*
X214705000Y-43815000D01*
X214691358Y-43746416D01*
X214691358Y-43676487D01*
X214449676Y-42461466D01*
X214343661Y-42205526D01*
X214343661Y-42205525D01*
X213655407Y-41175481D01*
X213459519Y-40979593D01*
X212429475Y-40291339D01*
X212173534Y-40185324D01*
X210958514Y-39943642D01*
X210888584Y-39943642D01*
X210820000Y-39930000D01*
X116205000Y-39930000D01*
X116145590Y-39941818D01*
X116085035Y-39940208D01*
X71635036Y-47560208D01*
X71537854Y-47597469D01*
X71437478Y-47624957D01*
X70167478Y-48259957D01*
X70077578Y-48329729D01*
X69982954Y-48392954D01*
X69347954Y-49027954D01*
X69284729Y-49122578D01*
X69214957Y-49212478D01*
X68579957Y-50482478D01*
X68573219Y-50507084D01*
X68559046Y-50528295D01*
X68536844Y-50639913D01*
X68506787Y-50749669D01*
X68509977Y-50774977D01*
X68505000Y-50800000D01*
X63066709Y-50800000D01*
X62992720Y-38222032D01*
X222757272Y-31882168D01*
X222123702Y-147191985D01*
G36*
X211757993Y-41550488D02*
X212553183Y-42081817D01*
X213084512Y-42877007D01*
X213285000Y-43884931D01*
X213285000Y-98425000D01*
X213289977Y-98450023D01*
X213286787Y-98475331D01*
X213316844Y-98585087D01*
X213339046Y-98696705D01*
X213353219Y-98717916D01*
X213359957Y-98742522D01*
X213994957Y-100012522D01*
X214049540Y-100082852D01*
X214093628Y-100160193D01*
X214133704Y-100191296D01*
X214164807Y-100231372D01*
X214242148Y-100275460D01*
X214312478Y-100330043D01*
X218059932Y-102203770D01*
X218330790Y-102413983D01*
X218465277Y-102649906D01*
X218499242Y-102919339D01*
X218414897Y-103227337D01*
X194414585Y-144280503D01*
X193793950Y-144695197D01*
X193040002Y-144845167D01*
X192286050Y-144695197D01*
X191529455Y-144189657D01*
X191517877Y-144184861D01*
X191508712Y-144176312D01*
X186889166Y-141316593D01*
X190659677Y-141316593D01*
X190669975Y-141632507D01*
X190669699Y-141948599D01*
X190681184Y-141976395D01*
X190682164Y-142006453D01*
X190902901Y-142539359D01*
X190915954Y-142544581D01*
X190933281Y-142586515D01*
X191420918Y-143075004D01*
X191465149Y-143093370D01*
X191470641Y-143107099D01*
X191766448Y-143218481D01*
X192058373Y-143339699D01*
X192088448Y-143339725D01*
X192116593Y-143350323D01*
X192432507Y-143340025D01*
X192748599Y-143340301D01*
X192776395Y-143328816D01*
X192806453Y-143327836D01*
X193339359Y-143107099D01*
X193344581Y-143094046D01*
X193386515Y-143076719D01*
X193875004Y-142589082D01*
X193893370Y-142544851D01*
X193907099Y-142539359D01*
X194018481Y-142243552D01*
X194139699Y-141951627D01*
X194139725Y-141921552D01*
X194150323Y-141893407D01*
X194140025Y-141577493D01*
X194140301Y-141261401D01*
X194128816Y-141233605D01*
X194127836Y-141203547D01*
X193907099Y-140670641D01*
X193894046Y-140665419D01*
X193876719Y-140623485D01*
X193389082Y-140134996D01*
X193344851Y-140116630D01*
X193339359Y-140102901D01*
X193043552Y-139991519D01*
X192751627Y-139870301D01*
X192721552Y-139870275D01*
X192693407Y-139859677D01*
X192377493Y-139869975D01*
X192061401Y-139869699D01*
X192033605Y-139881184D01*
X192003547Y-139882164D01*
X191470641Y-140102901D01*
X191465419Y-140115954D01*
X191423485Y-140133281D01*
X190934996Y-140620918D01*
X190916630Y-140665149D01*
X190902901Y-140670641D01*
X190791519Y-140966448D01*
X190670301Y-141258373D01*
X190670275Y-141288448D01*
X190659677Y-141316593D01*
X186889166Y-141316593D01*
X178173712Y-135921312D01*
X178143231Y-135909910D01*
X178117522Y-135889957D01*
X176847522Y-135254957D01*
X176822916Y-135248219D01*
X176801705Y-135234046D01*
X176690087Y-135211844D01*
X176580331Y-135181787D01*
X176555023Y-135184977D01*
X176530000Y-135180000D01*
X72459931Y-135180000D01*
X71452007Y-134979512D01*
X70656817Y-134448183D01*
X70125488Y-133652993D01*
X69925000Y-132645069D01*
X69925000Y-132426593D01*
X70644677Y-132426593D01*
X70654975Y-132742507D01*
X70654699Y-133058599D01*
X70666184Y-133086395D01*
X70667164Y-133116453D01*
X70887901Y-133649359D01*
X70900954Y-133654581D01*
X70918281Y-133696515D01*
X71405918Y-134185004D01*
X71450149Y-134203370D01*
X71455641Y-134217099D01*
X71751448Y-134328481D01*
X72043373Y-134449699D01*
X72073448Y-134449725D01*
X72101593Y-134460323D01*
X72417507Y-134450025D01*
X72733599Y-134450301D01*
X72761395Y-134438816D01*
X72791453Y-134437836D01*
X73324359Y-134217099D01*
X73329581Y-134204046D01*
X73371515Y-134186719D01*
X73860004Y-133699082D01*
X73878370Y-133654851D01*
X73892099Y-133649359D01*
X74003481Y-133353552D01*
X74124699Y-133061627D01*
X74124725Y-133031552D01*
X74135323Y-133003407D01*
X74125025Y-132687493D01*
X74125252Y-132426593D01*
X130334677Y-132426593D01*
X130344975Y-132742507D01*
X130344699Y-133058599D01*
X130356184Y-133086395D01*
X130357164Y-133116453D01*
X130577901Y-133649359D01*
X130590954Y-133654581D01*
X130608281Y-133696515D01*
X131095918Y-134185004D01*
X131140149Y-134203370D01*
X131145641Y-134217099D01*
X131441448Y-134328481D01*
X131733373Y-134449699D01*
X131763448Y-134449725D01*
X131791593Y-134460323D01*
X132107507Y-134450025D01*
X132423599Y-134450301D01*
X132451395Y-134438816D01*
X132481453Y-134437836D01*
X133014359Y-134217099D01*
X133019581Y-134204046D01*
X133061515Y-134186719D01*
X133550004Y-133699082D01*
X133568370Y-133654851D01*
X133582099Y-133649359D01*
X133693481Y-133353552D01*
X133814699Y-133061627D01*
X133814725Y-133031552D01*
X133825323Y-133003407D01*
X133815025Y-132687493D01*
X133815301Y-132371401D01*
X133803816Y-132343605D01*
X133802836Y-132313547D01*
X133582099Y-131780641D01*
X133569046Y-131775419D01*
X133551719Y-131733485D01*
X133064082Y-131244996D01*
X133019851Y-131226630D01*
X133014359Y-131212901D01*
X132718552Y-131101519D01*
X132426627Y-130980301D01*
X132396552Y-130980275D01*
X132368407Y-130969677D01*
X132052493Y-130979975D01*
X131736401Y-130979699D01*
X131708605Y-130991184D01*
X131678547Y-130992164D01*
X131145641Y-131212901D01*
X131140419Y-131225954D01*
X131098485Y-131243281D01*
X130609996Y-131730918D01*
X130591630Y-131775149D01*
X130577901Y-131780641D01*
X130466519Y-132076448D01*
X130345301Y-132368373D01*
X130345275Y-132398448D01*
X130334677Y-132426593D01*
X74125252Y-132426593D01*
X74125301Y-132371401D01*
X74113816Y-132343605D01*
X74112836Y-132313547D01*
X73892099Y-131780641D01*
X73879046Y-131775419D01*
X73861719Y-131733485D01*
X73374082Y-131244996D01*
X73329851Y-131226630D01*
X73324359Y-131212901D01*
X73028552Y-131101519D01*
X72736627Y-130980301D01*
X72706552Y-130980275D01*
X72678407Y-130969677D01*
X72362493Y-130979975D01*
X72046401Y-130979699D01*
X72018605Y-130991184D01*
X71988547Y-130992164D01*
X71455641Y-131212901D01*
X71450419Y-131225954D01*
X71408485Y-131243281D01*
X70919996Y-131730918D01*
X70901630Y-131775149D01*
X70887901Y-131780641D01*
X70776519Y-132076448D01*
X70655301Y-132368373D01*
X70655275Y-132398448D01*
X70644677Y-132426593D01*
X69925000Y-132426593D01*
X69925000Y-114693580D01*
X75952670Y-114693580D01*
X75952670Y-127492880D01*
X76004813Y-127755018D01*
X76153302Y-127977248D01*
X76375532Y-128125737D01*
X76637670Y-128177880D01*
X76768679Y-128177880D01*
X76804073Y-128355818D01*
X76952562Y-128578048D01*
X77174792Y-128726537D01*
X77436930Y-128778680D01*
X91436480Y-128778680D01*
X91698618Y-128726537D01*
X91763524Y-128683168D01*
X180229497Y-128683168D01*
X180238206Y-128816421D01*
X180246768Y-128949269D01*
X180246908Y-128949554D01*
X180246929Y-128949873D01*
X180306008Y-129069726D01*
X180364719Y-129189108D01*
X180364958Y-129189318D01*
X180365099Y-129189604D01*
X180465409Y-129277605D01*
X180500354Y-129308319D01*
X180434611Y-129422021D01*
X180434536Y-129422240D01*
X180434385Y-129422413D01*
X180391680Y-129548228D01*
X180348538Y-129675056D01*
X180348553Y-129675287D01*
X180348479Y-129675505D01*
X180357197Y-129808480D01*
X180365848Y-129941769D01*
X180365950Y-129941976D01*
X180365965Y-129942206D01*
X180424749Y-130061400D01*
X180483907Y-130181554D01*
X180484082Y-130181707D01*
X180484183Y-130181913D01*
X180583982Y-130269431D01*
X180684741Y-130357909D01*
X180684960Y-130357984D01*
X180685133Y-130358135D01*
X191770133Y-136757735D01*
X191895740Y-136800369D01*
X192021440Y-136843404D01*
X192022357Y-136843346D01*
X192023225Y-136843641D01*
X192155592Y-136834962D01*
X192288186Y-136826619D01*
X192289011Y-136826215D01*
X192289926Y-136826155D01*
X192409091Y-136767386D01*
X192528203Y-136709032D01*
X192528809Y-136708345D01*
X192529634Y-136707938D01*
X192617274Y-136607999D01*
X192704953Y-136508545D01*
X192771441Y-136394074D01*
X192942977Y-136452300D01*
X192943562Y-136452262D01*
X192943823Y-136452350D01*
X193060982Y-136444564D01*
X193209678Y-136434817D01*
X193209992Y-136434662D01*
X193210508Y-136434628D01*
X193409881Y-136336085D01*
X193449387Y-136316602D01*
X193449455Y-136316525D01*
X193450112Y-136316200D01*
X193626156Y-136115094D01*
X193626470Y-136114166D01*
X210150851Y-107492394D01*
X210193491Y-107366774D01*
X210236662Y-107240051D01*
X210236637Y-107239665D01*
X210236760Y-107239303D01*
X210228072Y-107106772D01*
X210219472Y-106973331D01*
X210219302Y-106972986D01*
X210219277Y-106972602D01*
X210160512Y-106853442D01*
X210101522Y-106733492D01*
X210101231Y-106733237D01*
X210101062Y-106732893D01*
X210000903Y-106645057D01*
X209965332Y-106613794D01*
X210031000Y-106499936D01*
X210073681Y-106374018D01*
X210116762Y-106247095D01*
X210116752Y-106246946D01*
X210116799Y-106246808D01*
X210108064Y-106114437D01*
X210099275Y-105980395D01*
X210099210Y-105980263D01*
X210099200Y-105980115D01*
X210040266Y-105860743D01*
X209981058Y-105740687D01*
X209980946Y-105740589D01*
X209980881Y-105740457D01*
X209881173Y-105653094D01*
X209780107Y-105564465D01*
X205713266Y-103216593D01*
X213519677Y-103216593D01*
X213529975Y-103532507D01*
X213529699Y-103848599D01*
X213541184Y-103876395D01*
X213542164Y-103906453D01*
X213762901Y-104439359D01*
X213775954Y-104444581D01*
X213793281Y-104486515D01*
X214280918Y-104975004D01*
X214325149Y-104993370D01*
X214330641Y-105007099D01*
X214626448Y-105118481D01*
X214918373Y-105239699D01*
X214948448Y-105239725D01*
X214976593Y-105250323D01*
X215292507Y-105240025D01*
X215608599Y-105240301D01*
X215636395Y-105228816D01*
X215666453Y-105227836D01*
X216199359Y-105007099D01*
X216204581Y-104994046D01*
X216246515Y-104976719D01*
X216735004Y-104489082D01*
X216753370Y-104444851D01*
X216767099Y-104439359D01*
X216878481Y-104143552D01*
X216999699Y-103851627D01*
X216999725Y-103821552D01*
X217010323Y-103793407D01*
X217000025Y-103477493D01*
X217000301Y-103161401D01*
X216988816Y-103133605D01*
X216987836Y-103103547D01*
X216767099Y-102570641D01*
X216754046Y-102565419D01*
X216736719Y-102523485D01*
X216249082Y-102034996D01*
X216204851Y-102016630D01*
X216199359Y-102002901D01*
X215903552Y-101891519D01*
X215611627Y-101770301D01*
X215581552Y-101770275D01*
X215553407Y-101759677D01*
X215237493Y-101769975D01*
X214921401Y-101769699D01*
X214893605Y-101781184D01*
X214863547Y-101782164D01*
X214330641Y-102002901D01*
X214325419Y-102015954D01*
X214283485Y-102033281D01*
X213794996Y-102520918D01*
X213776630Y-102565149D01*
X213762901Y-102570641D01*
X213651519Y-102866448D01*
X213530301Y-103158373D01*
X213530275Y-103188448D01*
X213519677Y-103216593D01*
X205713266Y-103216593D01*
X198695107Y-99164865D01*
X198694966Y-99164817D01*
X198694855Y-99164720D01*
X198568599Y-99121925D01*
X198442015Y-99078959D01*
X198441868Y-99078969D01*
X198441727Y-99078921D01*
X198308098Y-99087739D01*
X198175314Y-99096445D01*
X198175182Y-99096510D01*
X198175034Y-99096520D01*
X198055192Y-99155686D01*
X197935607Y-99214663D01*
X197935510Y-99214774D01*
X197935376Y-99214840D01*
X197847429Y-99315214D01*
X197759385Y-99415613D01*
X197759337Y-99415754D01*
X197759240Y-99415865D01*
X197693738Y-99529435D01*
X197649440Y-99514471D01*
X197522640Y-99471509D01*
X197522324Y-99471530D01*
X197522028Y-99471430D01*
X197389316Y-99480325D01*
X197255949Y-99489143D01*
X197255668Y-99489282D01*
X197255353Y-99489303D01*
X197135436Y-99548660D01*
X197016307Y-99607493D01*
X197016101Y-99607729D01*
X197015817Y-99607869D01*
X196927854Y-99708471D01*
X196840196Y-99808541D01*
X195714134Y-101761529D01*
X195652026Y-101727111D01*
X195530224Y-101688136D01*
X195409208Y-101647096D01*
X195403203Y-101647491D01*
X195397467Y-101645656D01*
X195270043Y-101656257D01*
X195142512Y-101664652D01*
X195137114Y-101667316D01*
X195131114Y-101667815D01*
X195017475Y-101726358D01*
X194902836Y-101782933D01*
X194898867Y-101787461D01*
X194893516Y-101790218D01*
X194810939Y-101887781D01*
X194726667Y-101983930D01*
X193077676Y-104841958D01*
X193035010Y-104967768D01*
X192992098Y-105093111D01*
X192992161Y-105094116D01*
X192991837Y-105095072D01*
X193000556Y-105227511D01*
X193008884Y-105359857D01*
X193009328Y-105360763D01*
X193009394Y-105361769D01*
X193068079Y-105480684D01*
X193126472Y-105599874D01*
X193127229Y-105600541D01*
X193127675Y-105601445D01*
X193227419Y-105688868D01*
X193326959Y-105776622D01*
X193382562Y-105808918D01*
X183811492Y-122372226D01*
X183765052Y-122345251D01*
X183764332Y-122345005D01*
X183763762Y-122344504D01*
X183638200Y-122301820D01*
X183512188Y-122258677D01*
X183511427Y-122258725D01*
X183510710Y-122258481D01*
X183378353Y-122267097D01*
X183245442Y-122275459D01*
X183244759Y-122275794D01*
X183244001Y-122275843D01*
X183124865Y-122334529D01*
X183005423Y-122393043D01*
X183004920Y-122393614D01*
X183004239Y-122393949D01*
X182916655Y-122493731D01*
X182828671Y-122593528D01*
X182828425Y-122594248D01*
X182827924Y-122594818D01*
X181176924Y-125451517D01*
X181176556Y-125452600D01*
X181175804Y-125453462D01*
X181133572Y-125579044D01*
X181090900Y-125704568D01*
X181090974Y-125705710D01*
X181090610Y-125706794D01*
X181099654Y-125839043D01*
X181108263Y-125971278D01*
X181108768Y-125972303D01*
X181108846Y-125973444D01*
X181167822Y-126092186D01*
X181226369Y-126211040D01*
X181227228Y-126211794D01*
X181227737Y-126212819D01*
X181327680Y-126299967D01*
X181427238Y-126387355D01*
X181428321Y-126387723D01*
X181429183Y-126388475D01*
X181478374Y-126416690D01*
X180315454Y-128430094D01*
X180272505Y-128556544D01*
X180229579Y-128682549D01*
X180229599Y-128682866D01*
X180229497Y-128683168D01*
X91763524Y-128683168D01*
X91920848Y-128578048D01*
X92069337Y-128355818D01*
X92104731Y-128177880D01*
X92237080Y-128177880D01*
X92499218Y-128125737D01*
X92721448Y-127977248D01*
X92869937Y-127755018D01*
X92922080Y-127492880D01*
X92922080Y-114693580D01*
X92869937Y-114431442D01*
X92721448Y-114209212D01*
X92499218Y-114060723D01*
X92237080Y-114008580D01*
X92104453Y-114008580D01*
X92069337Y-113832042D01*
X91920848Y-113609812D01*
X91698618Y-113461323D01*
X91436480Y-113409180D01*
X77436930Y-113409180D01*
X77174792Y-113461323D01*
X76952562Y-113609812D01*
X76804073Y-113832042D01*
X76768957Y-114008580D01*
X76637670Y-114008580D01*
X76375532Y-114060723D01*
X76153302Y-114209212D01*
X76004813Y-114431442D01*
X75952670Y-114693580D01*
X69925000Y-114693580D01*
X69925000Y-112312380D01*
X95002680Y-112312380D01*
X95002680Y-125112980D01*
X95054823Y-125375118D01*
X95203312Y-125597348D01*
X95425542Y-125745837D01*
X95687680Y-125797980D01*
X95818987Y-125797980D01*
X95854123Y-125974618D01*
X96002612Y-126196848D01*
X96224842Y-126345337D01*
X96486980Y-126397480D01*
X110486280Y-126397480D01*
X110748418Y-126345337D01*
X110970648Y-126196848D01*
X111119137Y-125974618D01*
X111154273Y-125797980D01*
X111287080Y-125797980D01*
X111549218Y-125745837D01*
X111771448Y-125597348D01*
X111919937Y-125375118D01*
X111972080Y-125112980D01*
X111972080Y-112312380D01*
X111919937Y-112050242D01*
X111771448Y-111828012D01*
X111549218Y-111679523D01*
X111287080Y-111627380D01*
X111154253Y-111627380D01*
X111119137Y-111450842D01*
X110970648Y-111228612D01*
X110748418Y-111080123D01*
X110486280Y-111027980D01*
X96486980Y-111027980D01*
X96224842Y-111080123D01*
X96002612Y-111228612D01*
X95854123Y-111450842D01*
X95819007Y-111627380D01*
X95687680Y-111627380D01*
X95425542Y-111679523D01*
X95203312Y-111828012D01*
X95054823Y-112050242D01*
X95002680Y-112312380D01*
X69925000Y-112312380D01*
X69925000Y-110027580D01*
X114052580Y-110027580D01*
X114052580Y-122826780D01*
X114104723Y-123088918D01*
X114253212Y-123311148D01*
X114475442Y-123459637D01*
X114737580Y-123511780D01*
X114868987Y-123511780D01*
X114904123Y-123688418D01*
X115052612Y-123910648D01*
X115274842Y-124059137D01*
X115536980Y-124111280D01*
X129536280Y-124111280D01*
X129798418Y-124059137D01*
X130020648Y-123910648D01*
X130169137Y-123688418D01*
X130204273Y-123511780D01*
X130337080Y-123511780D01*
X130599218Y-123459637D01*
X130821448Y-123311148D01*
X130901429Y-123191447D01*
X157717901Y-123191447D01*
X157720899Y-123329622D01*
X157723684Y-123458590D01*
X157723698Y-123458622D01*
X157723699Y-123458658D01*
X157777447Y-123580851D01*
X157831272Y-123703253D01*
X157831298Y-123703278D01*
X157831312Y-123703310D01*
X157928317Y-123796195D01*
X158024299Y-123888119D01*
X158024332Y-123888132D01*
X158024358Y-123888157D01*
X158154032Y-123938603D01*
X158273378Y-123985046D01*
X158273443Y-123985058D01*
X158273447Y-123985059D01*
X158273451Y-123985059D01*
X158404796Y-124008249D01*
X158405917Y-124056232D01*
X158408820Y-124189153D01*
X158409036Y-124189643D01*
X158409048Y-124190177D01*
X158462767Y-124311752D01*
X158516468Y-124433790D01*
X158516855Y-124434161D01*
X158517071Y-124434649D01*
X158613177Y-124526365D01*
X158709540Y-124618609D01*
X158710040Y-124618803D01*
X158710426Y-124619172D01*
X158834594Y-124667237D01*
X158958643Y-124715475D01*
X172745843Y-127146275D01*
X172746310Y-127146265D01*
X172746747Y-127146434D01*
X172879709Y-127143352D01*
X173013053Y-127140440D01*
X173013483Y-127140251D01*
X173013948Y-127140240D01*
X173135484Y-127086566D01*
X173257689Y-127032792D01*
X173258012Y-127032454D01*
X173258441Y-127032265D01*
X173350648Y-126935682D01*
X173442509Y-126839720D01*
X173442678Y-126839285D01*
X173443002Y-126838946D01*
X173491205Y-126714493D01*
X173507917Y-126671516D01*
X173637135Y-126694339D01*
X173637225Y-126694337D01*
X173637310Y-126694370D01*
X173771955Y-126691436D01*
X173904346Y-126688585D01*
X173904428Y-126688549D01*
X173904521Y-126688547D01*
X174029360Y-126633621D01*
X174149016Y-126581013D01*
X174149078Y-126580948D01*
X174149163Y-126580911D01*
X174242163Y-126483768D01*
X174333896Y-126387998D01*
X174333929Y-126387912D01*
X174333991Y-126387848D01*
X174381852Y-126264786D01*
X174430839Y-126138926D01*
X174430837Y-126138835D01*
X174430870Y-126138750D01*
X176653870Y-113533749D01*
X176653870Y-113533730D01*
X176653877Y-113533711D01*
X176651020Y-113402977D01*
X176648047Y-113266539D01*
X176648038Y-113266519D01*
X176648038Y-113266501D01*
X176594908Y-113145762D01*
X176540411Y-113021897D01*
X176540397Y-113021884D01*
X176540389Y-113021865D01*
X176442302Y-112927972D01*
X176347348Y-112837068D01*
X176347329Y-112837061D01*
X176347315Y-112837047D01*
X176229962Y-112791415D01*
X176098250Y-112740190D01*
X176098228Y-112740190D01*
X176098211Y-112740184D01*
X175967992Y-112717226D01*
X175966961Y-112669994D01*
X175964225Y-112537048D01*
X175964051Y-112536650D01*
X175964041Y-112536212D01*
X175910215Y-112413886D01*
X175856885Y-112292276D01*
X175856571Y-112291974D01*
X175856395Y-112291575D01*
X175760301Y-112199587D01*
X175664046Y-112107214D01*
X175663638Y-112107055D01*
X175663324Y-112106754D01*
X175539412Y-112058568D01*
X175415065Y-112010034D01*
X175414628Y-112010043D01*
X175414222Y-112009885D01*
X161627747Y-109579096D01*
X161627744Y-109579095D01*
X161627741Y-109579095D01*
X161627122Y-109578986D01*
X161494123Y-109581889D01*
X161360528Y-109584683D01*
X161360234Y-109584812D01*
X161359912Y-109584819D01*
X161237912Y-109638502D01*
X161115792Y-109692103D01*
X161115569Y-109692336D01*
X161115275Y-109692465D01*
X161023238Y-109788610D01*
X160930793Y-109885004D01*
X160930676Y-109885304D01*
X160930454Y-109885536D01*
X160882382Y-110009155D01*
X160864947Y-110053869D01*
X160736031Y-110031058D01*
X160735868Y-110031061D01*
X160735713Y-110031001D01*
X160601629Y-110033910D01*
X160468818Y-110036729D01*
X160468667Y-110036795D01*
X160468502Y-110036799D01*
X160345968Y-110090697D01*
X160224115Y-110144227D01*
X160224002Y-110144345D01*
X160223850Y-110144412D01*
X160130898Y-110241487D01*
X160039177Y-110337186D01*
X160039118Y-110337338D01*
X160039003Y-110337458D01*
X159990497Y-110462145D01*
X159942158Y-110586229D01*
X159942162Y-110586394D01*
X159942102Y-110586547D01*
X157717901Y-123191447D01*
X130901429Y-123191447D01*
X130969937Y-123088918D01*
X131022080Y-122826780D01*
X131022080Y-110027580D01*
X130969937Y-109765442D01*
X130821448Y-109543212D01*
X130599218Y-109394723D01*
X130337080Y-109342580D01*
X130204531Y-109342580D01*
X130169137Y-109164642D01*
X130020648Y-108942412D01*
X129798418Y-108793923D01*
X129536280Y-108741780D01*
X115536980Y-108741780D01*
X115274842Y-108793923D01*
X115052612Y-108942412D01*
X114904123Y-109164642D01*
X114868729Y-109342580D01*
X114737580Y-109342580D01*
X114475442Y-109394723D01*
X114253212Y-109543212D01*
X114104723Y-109765442D01*
X114052580Y-110027580D01*
X69925000Y-110027580D01*
X69925000Y-95643480D01*
X75952670Y-95643480D01*
X75952670Y-108442880D01*
X76004813Y-108705018D01*
X76153302Y-108927248D01*
X76375532Y-109075737D01*
X76637670Y-109127880D01*
X76768679Y-109127880D01*
X76804073Y-109305818D01*
X76952562Y-109528048D01*
X77174792Y-109676537D01*
X77436930Y-109728680D01*
X91436480Y-109728680D01*
X91698618Y-109676537D01*
X91920848Y-109528048D01*
X92069337Y-109305818D01*
X92104731Y-109127880D01*
X92237080Y-109127880D01*
X92499218Y-109075737D01*
X92721448Y-108927248D01*
X92869937Y-108705018D01*
X92922080Y-108442880D01*
X92922080Y-107549880D01*
X133102580Y-107549880D01*
X133102580Y-120350480D01*
X133154723Y-120612618D01*
X133303212Y-120834848D01*
X133525442Y-120983337D01*
X133787580Y-121035480D01*
X133918987Y-121035480D01*
X133954123Y-121212118D01*
X134102612Y-121434348D01*
X134324842Y-121582837D01*
X134586980Y-121634980D01*
X148586280Y-121634980D01*
X148848418Y-121582837D01*
X149070648Y-121434348D01*
X149219137Y-121212118D01*
X149254273Y-121035480D01*
X149387080Y-121035480D01*
X149649218Y-120983337D01*
X149871448Y-120834848D01*
X150019937Y-120612618D01*
X150072080Y-120350480D01*
X150072080Y-107549880D01*
X150019937Y-107287742D01*
X149871448Y-107065512D01*
X149649218Y-106917023D01*
X149387080Y-106864880D01*
X149254253Y-106864880D01*
X149219137Y-106688342D01*
X149070648Y-106466112D01*
X148848418Y-106317623D01*
X148586280Y-106265480D01*
X134586980Y-106265480D01*
X134324842Y-106317623D01*
X134102612Y-106466112D01*
X133954123Y-106688342D01*
X133919007Y-106864880D01*
X133787580Y-106864880D01*
X133525442Y-106917023D01*
X133303212Y-107065512D01*
X133154723Y-107287742D01*
X133102580Y-107549880D01*
X92922080Y-107549880D01*
X92922080Y-95643480D01*
X92869937Y-95381342D01*
X92721448Y-95159112D01*
X92499218Y-95010623D01*
X92237080Y-94958480D01*
X92104433Y-94958480D01*
X92069337Y-94782042D01*
X91920848Y-94559812D01*
X91698618Y-94411323D01*
X91436480Y-94359180D01*
X77436930Y-94359180D01*
X77174792Y-94411323D01*
X76952562Y-94559812D01*
X76804073Y-94782042D01*
X76768977Y-94958480D01*
X76637670Y-94958480D01*
X76375532Y-95010623D01*
X76153302Y-95159112D01*
X76004813Y-95381342D01*
X75952670Y-95643480D01*
X69925000Y-95643480D01*
X69925000Y-92421593D01*
X70644677Y-92421593D01*
X70654975Y-92737507D01*
X70654699Y-93053599D01*
X70666184Y-93081395D01*
X70667164Y-93111453D01*
X70887901Y-93644359D01*
X70900954Y-93649581D01*
X70918281Y-93691515D01*
X71405918Y-94180004D01*
X71450149Y-94198370D01*
X71455641Y-94212099D01*
X71751448Y-94323481D01*
X72043373Y-94444699D01*
X72073448Y-94444725D01*
X72101593Y-94455323D01*
X72417507Y-94445025D01*
X72733599Y-94445301D01*
X72761395Y-94433816D01*
X72791453Y-94432836D01*
X73324359Y-94212099D01*
X73329581Y-94199046D01*
X73371515Y-94181719D01*
X73860004Y-93694082D01*
X73878370Y-93649851D01*
X73892099Y-93644359D01*
X74003481Y-93348552D01*
X74039304Y-93262280D01*
X95002680Y-93262280D01*
X95002680Y-106062980D01*
X95054823Y-106325118D01*
X95203312Y-106547348D01*
X95425542Y-106695837D01*
X95687680Y-106747980D01*
X95818987Y-106747980D01*
X95854123Y-106924618D01*
X96002612Y-107146848D01*
X96224842Y-107295337D01*
X96486980Y-107347480D01*
X110486280Y-107347480D01*
X110748418Y-107295337D01*
X110970648Y-107146848D01*
X111119137Y-106924618D01*
X111154273Y-106747980D01*
X111287080Y-106747980D01*
X111549218Y-106695837D01*
X111771448Y-106547348D01*
X111919937Y-106325118D01*
X111972080Y-106062980D01*
X111972080Y-93262280D01*
X111919937Y-93000142D01*
X111771448Y-92777912D01*
X111549218Y-92629423D01*
X111287080Y-92577280D01*
X111154253Y-92577280D01*
X111119137Y-92400742D01*
X110970648Y-92178512D01*
X110748418Y-92030023D01*
X110486280Y-91977880D01*
X96486980Y-91977880D01*
X96224842Y-92030023D01*
X96002612Y-92178512D01*
X95854123Y-92400742D01*
X95819007Y-92577280D01*
X95687680Y-92577280D01*
X95425542Y-92629423D01*
X95203312Y-92777912D01*
X95054823Y-93000142D01*
X95002680Y-93262280D01*
X74039304Y-93262280D01*
X74124699Y-93056627D01*
X74124725Y-93026552D01*
X74135323Y-92998407D01*
X74125025Y-92682493D01*
X74125301Y-92366401D01*
X74113816Y-92338605D01*
X74112836Y-92308547D01*
X73892099Y-91775641D01*
X73879046Y-91770419D01*
X73861719Y-91728485D01*
X73374082Y-91239996D01*
X73329851Y-91221630D01*
X73324359Y-91207901D01*
X73028552Y-91096519D01*
X72736627Y-90975301D01*
X72706552Y-90975275D01*
X72678407Y-90964677D01*
X72362493Y-90974975D01*
X72046401Y-90974699D01*
X72018605Y-90986184D01*
X71988547Y-90987164D01*
X71455641Y-91207901D01*
X71450419Y-91220954D01*
X71408485Y-91238281D01*
X70919996Y-91725918D01*
X70901630Y-91770149D01*
X70887901Y-91775641D01*
X70776519Y-92071448D01*
X70655301Y-92363373D01*
X70655275Y-92393448D01*
X70644677Y-92421593D01*
X69925000Y-92421593D01*
X69925000Y-90880980D01*
X114052580Y-90880980D01*
X114052580Y-103681580D01*
X114104723Y-103943718D01*
X114253212Y-104165948D01*
X114475442Y-104314437D01*
X114737580Y-104366580D01*
X114868967Y-104366580D01*
X114904123Y-104543318D01*
X115052612Y-104765548D01*
X115274842Y-104914037D01*
X115536980Y-104966180D01*
X129536280Y-104966180D01*
X129798418Y-104914037D01*
X130020648Y-104765548D01*
X130169137Y-104543318D01*
X130204293Y-104366580D01*
X130337080Y-104366580D01*
X130599218Y-104314437D01*
X130821448Y-104165948D01*
X130969937Y-103943718D01*
X131022080Y-103681580D01*
X131022080Y-90880980D01*
X130969937Y-90618842D01*
X130821448Y-90396612D01*
X130599218Y-90248123D01*
X130337080Y-90195980D01*
X130204233Y-90195980D01*
X130169137Y-90019542D01*
X130020648Y-89797312D01*
X129798418Y-89648823D01*
X129536280Y-89596680D01*
X115536980Y-89596680D01*
X115274842Y-89648823D01*
X115052612Y-89797312D01*
X114904123Y-90019542D01*
X114869027Y-90195980D01*
X114737580Y-90195980D01*
X114475442Y-90248123D01*
X114253212Y-90396612D01*
X114104723Y-90618842D01*
X114052580Y-90880980D01*
X69925000Y-90880980D01*
X69925000Y-76593480D01*
X75952670Y-76593480D01*
X75952670Y-89392980D01*
X76004813Y-89655118D01*
X76153302Y-89877348D01*
X76375532Y-90025837D01*
X76637670Y-90077980D01*
X76768679Y-90077980D01*
X76804073Y-90255918D01*
X76952562Y-90478148D01*
X77174792Y-90626637D01*
X77436930Y-90678780D01*
X91436480Y-90678780D01*
X91698618Y-90626637D01*
X91920848Y-90478148D01*
X92069337Y-90255918D01*
X92104731Y-90077980D01*
X92237080Y-90077980D01*
X92499218Y-90025837D01*
X92721448Y-89877348D01*
X92869937Y-89655118D01*
X92922080Y-89392980D01*
X92922080Y-88499780D01*
X133102580Y-88499780D01*
X133102580Y-101300280D01*
X133154723Y-101562418D01*
X133303212Y-101784648D01*
X133525442Y-101933137D01*
X133787580Y-101985280D01*
X133918927Y-101985280D01*
X133954123Y-102162218D01*
X134102612Y-102384448D01*
X134324842Y-102532937D01*
X134586980Y-102585080D01*
X148586280Y-102585080D01*
X148848418Y-102532937D01*
X149070648Y-102384448D01*
X149219137Y-102162218D01*
X149254333Y-101985280D01*
X149387080Y-101985280D01*
X149649218Y-101933137D01*
X149871448Y-101784648D01*
X150019937Y-101562418D01*
X150072080Y-101300280D01*
X150072080Y-90880980D01*
X152152580Y-90880980D01*
X152152580Y-103681580D01*
X152204723Y-103943718D01*
X152353212Y-104165948D01*
X152575442Y-104314437D01*
X152837580Y-104366580D01*
X152968967Y-104366580D01*
X153004123Y-104543318D01*
X153152612Y-104765548D01*
X153374842Y-104914037D01*
X153636980Y-104966180D01*
X167636280Y-104966180D01*
X167898418Y-104914037D01*
X168120648Y-104765548D01*
X168269137Y-104543318D01*
X168304293Y-104366580D01*
X168435680Y-104366580D01*
X168697818Y-104314437D01*
X168920048Y-104165948D01*
X169068537Y-103943718D01*
X169120680Y-103681580D01*
X169120680Y-93262280D01*
X171202580Y-93262280D01*
X171202580Y-106062980D01*
X171254723Y-106325118D01*
X171403212Y-106547348D01*
X171625442Y-106695837D01*
X171887580Y-106747980D01*
X172018987Y-106747980D01*
X172054123Y-106924618D01*
X172202612Y-107146848D01*
X172424842Y-107295337D01*
X172686980Y-107347480D01*
X186686280Y-107347480D01*
X186948418Y-107295337D01*
X187170648Y-107146848D01*
X187319137Y-106924618D01*
X187354273Y-106747980D01*
X187487280Y-106747980D01*
X187749418Y-106695837D01*
X187971648Y-106547348D01*
X188120137Y-106325118D01*
X188172280Y-106062980D01*
X188172280Y-93262280D01*
X188120137Y-93000142D01*
X187971648Y-92777912D01*
X187749418Y-92629423D01*
X187487280Y-92577280D01*
X187354253Y-92577280D01*
X187319137Y-92400742D01*
X187170648Y-92178512D01*
X186948418Y-92030023D01*
X186686280Y-91977880D01*
X172686980Y-91977880D01*
X172424842Y-92030023D01*
X172202612Y-92178512D01*
X172054123Y-92400742D01*
X172019007Y-92577280D01*
X171887580Y-92577280D01*
X171625442Y-92629423D01*
X171403212Y-92777912D01*
X171254723Y-93000142D01*
X171202580Y-93262280D01*
X169120680Y-93262280D01*
X169120680Y-90880980D01*
X169068537Y-90618842D01*
X168920048Y-90396612D01*
X168697818Y-90248123D01*
X168435680Y-90195980D01*
X168304233Y-90195980D01*
X168269137Y-90019542D01*
X168120648Y-89797312D01*
X167898418Y-89648823D01*
X167636280Y-89596680D01*
X153636980Y-89596680D01*
X153374842Y-89648823D01*
X153152612Y-89797312D01*
X153004123Y-90019542D01*
X152969027Y-90195980D01*
X152837580Y-90195980D01*
X152575442Y-90248123D01*
X152353212Y-90396612D01*
X152204723Y-90618842D01*
X152152580Y-90880980D01*
X150072080Y-90880980D01*
X150072080Y-88499780D01*
X150019937Y-88237642D01*
X149871448Y-88015412D01*
X149649218Y-87866923D01*
X149387080Y-87814780D01*
X149254253Y-87814780D01*
X149219137Y-87638242D01*
X149070648Y-87416012D01*
X148848418Y-87267523D01*
X148586280Y-87215380D01*
X134586980Y-87215380D01*
X134324842Y-87267523D01*
X134102612Y-87416012D01*
X133954123Y-87638242D01*
X133919007Y-87814780D01*
X133787580Y-87814780D01*
X133525442Y-87866923D01*
X133303212Y-88015412D01*
X133154723Y-88237642D01*
X133102580Y-88499780D01*
X92922080Y-88499780D01*
X92922080Y-76593480D01*
X92869937Y-76331342D01*
X92721448Y-76109112D01*
X92499218Y-75960623D01*
X92237080Y-75908480D01*
X92104433Y-75908480D01*
X92069337Y-75732042D01*
X91920848Y-75509812D01*
X91698618Y-75361323D01*
X91436480Y-75309180D01*
X77436930Y-75309180D01*
X77174792Y-75361323D01*
X76952562Y-75509812D01*
X76804073Y-75732042D01*
X76768977Y-75908480D01*
X76637670Y-75908480D01*
X76375532Y-75960623D01*
X76153302Y-76109112D01*
X76004813Y-76331342D01*
X75952670Y-76593480D01*
X69925000Y-76593480D01*
X69925000Y-74212280D01*
X95002680Y-74212280D01*
X95002680Y-87012780D01*
X95054823Y-87274918D01*
X95203312Y-87497148D01*
X95425542Y-87645637D01*
X95687680Y-87697780D01*
X95818927Y-87697780D01*
X95854123Y-87874718D01*
X96002612Y-88096948D01*
X96224842Y-88245437D01*
X96486980Y-88297580D01*
X110486280Y-88297580D01*
X110748418Y-88245437D01*
X110970648Y-88096948D01*
X111119137Y-87874718D01*
X111154333Y-87697780D01*
X111287080Y-87697780D01*
X111549218Y-87645637D01*
X111771448Y-87497148D01*
X111919937Y-87274918D01*
X111972080Y-87012780D01*
X111972080Y-74212280D01*
X111919937Y-73950142D01*
X111771448Y-73727912D01*
X111549218Y-73579423D01*
X111287080Y-73527280D01*
X111154253Y-73527280D01*
X111119137Y-73350742D01*
X110970648Y-73128512D01*
X110748418Y-72980023D01*
X110486280Y-72927880D01*
X96486980Y-72927880D01*
X96224842Y-72980023D01*
X96002612Y-73128512D01*
X95854123Y-73350742D01*
X95819007Y-73527280D01*
X95687680Y-73527280D01*
X95425542Y-73579423D01*
X95203312Y-73727912D01*
X95054823Y-73950142D01*
X95002680Y-74212280D01*
X69925000Y-74212280D01*
X69925000Y-71830980D01*
X114052580Y-71830980D01*
X114052580Y-84631580D01*
X114104723Y-84893718D01*
X114253212Y-85115948D01*
X114475442Y-85264437D01*
X114737580Y-85316580D01*
X114868947Y-85316580D01*
X114904123Y-85493418D01*
X115052612Y-85715648D01*
X115274842Y-85864137D01*
X115536980Y-85916280D01*
X129536280Y-85916280D01*
X129798418Y-85864137D01*
X130020648Y-85715648D01*
X130169137Y-85493418D01*
X130204313Y-85316580D01*
X130337080Y-85316580D01*
X130599218Y-85264437D01*
X130821448Y-85115948D01*
X130969937Y-84893718D01*
X131022080Y-84631580D01*
X131022080Y-71830980D01*
X130969937Y-71568842D01*
X130821448Y-71346612D01*
X130599218Y-71198123D01*
X130337080Y-71145980D01*
X130204233Y-71145980D01*
X130169137Y-70969542D01*
X130020648Y-70747312D01*
X129798418Y-70598823D01*
X129536280Y-70546680D01*
X115536980Y-70546680D01*
X115274842Y-70598823D01*
X115052612Y-70747312D01*
X114904123Y-70969542D01*
X114869027Y-71145980D01*
X114737580Y-71145980D01*
X114475442Y-71198123D01*
X114253212Y-71346612D01*
X114104723Y-71568842D01*
X114052580Y-71830980D01*
X69925000Y-71830980D01*
X69925000Y-57543480D01*
X75952670Y-57543480D01*
X75952670Y-70342980D01*
X76004813Y-70605118D01*
X76153302Y-70827348D01*
X76375532Y-70975837D01*
X76637670Y-71027980D01*
X76768679Y-71027980D01*
X76804073Y-71205918D01*
X76952562Y-71428148D01*
X77174792Y-71576637D01*
X77436930Y-71628780D01*
X91436480Y-71628780D01*
X91698618Y-71576637D01*
X91920848Y-71428148D01*
X92069337Y-71205918D01*
X92104731Y-71027980D01*
X92237080Y-71027980D01*
X92499218Y-70975837D01*
X92721448Y-70827348D01*
X92869937Y-70605118D01*
X92922080Y-70342980D01*
X92922080Y-69449780D01*
X133102580Y-69449780D01*
X133102580Y-82250280D01*
X133154723Y-82512418D01*
X133303212Y-82734648D01*
X133525442Y-82883137D01*
X133787580Y-82935280D01*
X133918927Y-82935280D01*
X133954123Y-83112218D01*
X134102612Y-83334448D01*
X134324842Y-83482937D01*
X134586980Y-83535080D01*
X148586280Y-83535080D01*
X148848418Y-83482937D01*
X149070648Y-83334448D01*
X149219137Y-83112218D01*
X149254333Y-82935280D01*
X149387080Y-82935280D01*
X149649218Y-82883137D01*
X149871448Y-82734648D01*
X150019937Y-82512418D01*
X150072080Y-82250280D01*
X150072080Y-71830980D01*
X152152580Y-71830980D01*
X152152580Y-84631580D01*
X152204723Y-84893718D01*
X152353212Y-85115948D01*
X152575442Y-85264437D01*
X152837580Y-85316580D01*
X152968947Y-85316580D01*
X153004123Y-85493418D01*
X153152612Y-85715648D01*
X153374842Y-85864137D01*
X153636980Y-85916280D01*
X167636280Y-85916280D01*
X167898418Y-85864137D01*
X168120648Y-85715648D01*
X168269137Y-85493418D01*
X168304313Y-85316580D01*
X168435680Y-85316580D01*
X168697818Y-85264437D01*
X168920048Y-85115948D01*
X169068537Y-84893718D01*
X169120680Y-84631580D01*
X169120680Y-74212280D01*
X171202580Y-74212280D01*
X171202580Y-87012780D01*
X171254723Y-87274918D01*
X171403212Y-87497148D01*
X171625442Y-87645637D01*
X171887580Y-87697780D01*
X172018927Y-87697780D01*
X172054123Y-87874718D01*
X172202612Y-88096948D01*
X172424842Y-88245437D01*
X172686980Y-88297580D01*
X186686280Y-88297580D01*
X186948418Y-88245437D01*
X187170648Y-88096948D01*
X187319137Y-87874718D01*
X187354333Y-87697780D01*
X187487280Y-87697780D01*
X187749418Y-87645637D01*
X187971648Y-87497148D01*
X188120137Y-87274918D01*
X188172280Y-87012780D01*
X188172280Y-78974780D01*
X190252280Y-78974780D01*
X190252280Y-91775280D01*
X190304423Y-92037418D01*
X190452912Y-92259648D01*
X190675142Y-92408137D01*
X190937280Y-92460280D01*
X191069227Y-92460280D01*
X191104423Y-92637218D01*
X191252912Y-92859448D01*
X191475142Y-93007937D01*
X191737280Y-93060080D01*
X205736280Y-93060080D01*
X205998418Y-93007937D01*
X206220648Y-92859448D01*
X206369137Y-92637218D01*
X206404333Y-92460280D01*
X206537280Y-92460280D01*
X206799418Y-92408137D01*
X207021648Y-92259648D01*
X207170137Y-92037418D01*
X207222280Y-91775280D01*
X207222280Y-78974780D01*
X207170137Y-78712642D01*
X207021648Y-78490412D01*
X206799418Y-78341923D01*
X206537280Y-78289780D01*
X206404253Y-78289780D01*
X206369137Y-78113242D01*
X206220648Y-77891012D01*
X205998418Y-77742523D01*
X205736280Y-77690380D01*
X191737280Y-77690380D01*
X191475142Y-77742523D01*
X191252912Y-77891012D01*
X191104423Y-78113242D01*
X191069307Y-78289780D01*
X190937280Y-78289780D01*
X190675142Y-78341923D01*
X190452912Y-78490412D01*
X190304423Y-78712642D01*
X190252280Y-78974780D01*
X188172280Y-78974780D01*
X188172280Y-74212280D01*
X188120137Y-73950142D01*
X187971648Y-73727912D01*
X187749418Y-73579423D01*
X187487280Y-73527280D01*
X187354253Y-73527280D01*
X187319137Y-73350742D01*
X187170648Y-73128512D01*
X186948418Y-72980023D01*
X186686280Y-72927880D01*
X172686980Y-72927880D01*
X172424842Y-72980023D01*
X172202612Y-73128512D01*
X172054123Y-73350742D01*
X172019007Y-73527280D01*
X171887580Y-73527280D01*
X171625442Y-73579423D01*
X171403212Y-73727912D01*
X171254723Y-73950142D01*
X171202580Y-74212280D01*
X169120680Y-74212280D01*
X169120680Y-71830980D01*
X169068537Y-71568842D01*
X168920048Y-71346612D01*
X168697818Y-71198123D01*
X168435680Y-71145980D01*
X168304233Y-71145980D01*
X168269137Y-70969542D01*
X168120648Y-70747312D01*
X167898418Y-70598823D01*
X167636280Y-70546680D01*
X153636980Y-70546680D01*
X153374842Y-70598823D01*
X153152612Y-70747312D01*
X153004123Y-70969542D01*
X152969027Y-71145980D01*
X152837580Y-71145980D01*
X152575442Y-71198123D01*
X152353212Y-71346612D01*
X152204723Y-71568842D01*
X152152580Y-71830980D01*
X150072080Y-71830980D01*
X150072080Y-69449780D01*
X150019937Y-69187642D01*
X149871448Y-68965412D01*
X149649218Y-68816923D01*
X149387080Y-68764780D01*
X149254253Y-68764780D01*
X149219137Y-68588242D01*
X149070648Y-68366012D01*
X148848418Y-68217523D01*
X148586280Y-68165380D01*
X134586980Y-68165380D01*
X134324842Y-68217523D01*
X134102612Y-68366012D01*
X133954123Y-68588242D01*
X133919007Y-68764780D01*
X133787580Y-68764780D01*
X133525442Y-68816923D01*
X133303212Y-68965412D01*
X133154723Y-69187642D01*
X133102580Y-69449780D01*
X92922080Y-69449780D01*
X92922080Y-57543480D01*
X92869937Y-57281342D01*
X92721448Y-57059112D01*
X92499218Y-56910623D01*
X92237080Y-56858480D01*
X92104433Y-56858480D01*
X92069337Y-56682042D01*
X91920848Y-56459812D01*
X91698618Y-56311323D01*
X91436480Y-56259180D01*
X77436930Y-56259180D01*
X77174792Y-56311323D01*
X76952562Y-56459812D01*
X76804073Y-56682042D01*
X76768977Y-56858480D01*
X76637670Y-56858480D01*
X76375532Y-56910623D01*
X76153302Y-57059112D01*
X76004813Y-57281342D01*
X75952670Y-57543480D01*
X69925000Y-57543480D01*
X69925000Y-55162280D01*
X95002680Y-55162280D01*
X95002680Y-67962780D01*
X95054823Y-68224918D01*
X95203312Y-68447148D01*
X95425542Y-68595637D01*
X95687680Y-68647780D01*
X95818927Y-68647780D01*
X95854123Y-68824718D01*
X96002612Y-69046948D01*
X96224842Y-69195437D01*
X96486980Y-69247580D01*
X110486280Y-69247580D01*
X110748418Y-69195437D01*
X110970648Y-69046948D01*
X111119137Y-68824718D01*
X111154333Y-68647780D01*
X111287080Y-68647780D01*
X111549218Y-68595637D01*
X111771448Y-68447148D01*
X111919937Y-68224918D01*
X111972080Y-67962780D01*
X111972080Y-55162280D01*
X111919937Y-54900142D01*
X111771448Y-54677912D01*
X111549218Y-54529423D01*
X111287080Y-54477280D01*
X111154253Y-54477280D01*
X111119137Y-54300742D01*
X110970648Y-54078512D01*
X110748418Y-53930023D01*
X110486280Y-53877880D01*
X96486980Y-53877880D01*
X96224842Y-53930023D01*
X96002612Y-54078512D01*
X95854123Y-54300742D01*
X95819007Y-54477280D01*
X95687680Y-54477280D01*
X95425542Y-54529423D01*
X95203312Y-54677912D01*
X95054823Y-54900142D01*
X95002680Y-55162280D01*
X69925000Y-55162280D01*
X69925000Y-51781593D01*
X70644677Y-51781593D01*
X70654975Y-52097507D01*
X70654699Y-52413599D01*
X70666184Y-52441395D01*
X70667164Y-52471453D01*
X70887901Y-53004359D01*
X70900954Y-53009581D01*
X70918281Y-53051515D01*
X71405918Y-53540004D01*
X71450149Y-53558370D01*
X71455641Y-53572099D01*
X71751448Y-53683481D01*
X72043373Y-53804699D01*
X72073448Y-53804725D01*
X72101593Y-53815323D01*
X72417507Y-53805025D01*
X72733599Y-53805301D01*
X72761395Y-53793816D01*
X72791453Y-53792836D01*
X73324359Y-53572099D01*
X73329581Y-53559046D01*
X73371515Y-53541719D01*
X73860004Y-53054082D01*
X73878370Y-53009851D01*
X73892099Y-53004359D01*
X73976209Y-52780980D01*
X114052580Y-52780980D01*
X114052580Y-65581580D01*
X114104723Y-65843718D01*
X114253212Y-66065948D01*
X114475442Y-66214437D01*
X114737580Y-66266580D01*
X114868947Y-66266580D01*
X114904123Y-66443418D01*
X115052612Y-66665648D01*
X115274842Y-66814137D01*
X115536980Y-66866280D01*
X129536280Y-66866280D01*
X129798418Y-66814137D01*
X130020648Y-66665648D01*
X130169137Y-66443418D01*
X130204313Y-66266580D01*
X130337080Y-66266580D01*
X130599218Y-66214437D01*
X130821448Y-66065948D01*
X130969937Y-65843718D01*
X131022080Y-65581580D01*
X131022080Y-52780980D01*
X130969937Y-52518842D01*
X130821448Y-52296612D01*
X130599218Y-52148123D01*
X130337080Y-52095980D01*
X130204233Y-52095980D01*
X130169137Y-51919542D01*
X130020648Y-51697312D01*
X129798418Y-51548823D01*
X129536280Y-51496680D01*
X115536980Y-51496680D01*
X115274842Y-51548823D01*
X115052612Y-51697312D01*
X114904123Y-51919542D01*
X114869027Y-52095980D01*
X114737580Y-52095980D01*
X114475442Y-52148123D01*
X114253212Y-52296612D01*
X114104723Y-52518842D01*
X114052580Y-52780980D01*
X73976209Y-52780980D01*
X74003481Y-52708552D01*
X74124699Y-52416627D01*
X74124725Y-52386552D01*
X74135323Y-52358407D01*
X74125025Y-52042493D01*
X74125301Y-51726401D01*
X74113816Y-51698605D01*
X74112836Y-51668547D01*
X73892099Y-51135641D01*
X73879046Y-51130419D01*
X73861719Y-51088485D01*
X73374082Y-50599996D01*
X73329851Y-50581630D01*
X73324359Y-50567901D01*
X73028552Y-50456519D01*
X72891910Y-50399780D01*
X133102580Y-50399780D01*
X133102580Y-63200280D01*
X133154723Y-63462418D01*
X133303212Y-63684648D01*
X133525442Y-63833137D01*
X133787580Y-63885280D01*
X133918927Y-63885280D01*
X133954123Y-64062218D01*
X134102612Y-64284448D01*
X134324842Y-64432937D01*
X134586980Y-64485080D01*
X148586280Y-64485080D01*
X148848418Y-64432937D01*
X149070648Y-64284448D01*
X149219137Y-64062218D01*
X149254333Y-63885280D01*
X149387080Y-63885280D01*
X149649218Y-63833137D01*
X149871448Y-63684648D01*
X150019937Y-63462418D01*
X150072080Y-63200280D01*
X150072080Y-52780980D01*
X152152580Y-52780980D01*
X152152580Y-65581580D01*
X152204723Y-65843718D01*
X152353212Y-66065948D01*
X152575442Y-66214437D01*
X152837580Y-66266580D01*
X152968947Y-66266580D01*
X153004123Y-66443418D01*
X153152612Y-66665648D01*
X153374842Y-66814137D01*
X153636980Y-66866280D01*
X167636280Y-66866280D01*
X167898418Y-66814137D01*
X168120648Y-66665648D01*
X168269137Y-66443418D01*
X168304313Y-66266580D01*
X168435680Y-66266580D01*
X168697818Y-66214437D01*
X168920048Y-66065948D01*
X169068537Y-65843718D01*
X169120680Y-65581580D01*
X169120680Y-55162280D01*
X171202580Y-55162280D01*
X171202580Y-67962780D01*
X171254723Y-68224918D01*
X171403212Y-68447148D01*
X171625442Y-68595637D01*
X171887580Y-68647780D01*
X172018927Y-68647780D01*
X172054123Y-68824718D01*
X172202612Y-69046948D01*
X172424842Y-69195437D01*
X172686980Y-69247580D01*
X186686280Y-69247580D01*
X186948418Y-69195437D01*
X187170648Y-69046948D01*
X187319137Y-68824718D01*
X187354333Y-68647780D01*
X187487280Y-68647780D01*
X187749418Y-68595637D01*
X187971648Y-68447148D01*
X188120137Y-68224918D01*
X188172280Y-67962780D01*
X188172280Y-59924780D01*
X190252280Y-59924780D01*
X190252280Y-72725280D01*
X190304423Y-72987418D01*
X190452912Y-73209648D01*
X190675142Y-73358137D01*
X190937280Y-73410280D01*
X191069227Y-73410280D01*
X191104423Y-73587218D01*
X191252912Y-73809448D01*
X191475142Y-73957937D01*
X191737280Y-74010080D01*
X205736280Y-74010080D01*
X205998418Y-73957937D01*
X206220648Y-73809448D01*
X206369137Y-73587218D01*
X206404333Y-73410280D01*
X206537280Y-73410280D01*
X206799418Y-73358137D01*
X207021648Y-73209648D01*
X207170137Y-72987418D01*
X207222280Y-72725280D01*
X207222280Y-59924780D01*
X207170137Y-59662642D01*
X207021648Y-59440412D01*
X206799418Y-59291923D01*
X206537280Y-59239780D01*
X206404253Y-59239780D01*
X206369137Y-59063242D01*
X206220648Y-58841012D01*
X205998418Y-58692523D01*
X205736280Y-58640380D01*
X191737280Y-58640380D01*
X191475142Y-58692523D01*
X191252912Y-58841012D01*
X191104423Y-59063242D01*
X191069307Y-59239780D01*
X190937280Y-59239780D01*
X190675142Y-59291923D01*
X190452912Y-59440412D01*
X190304423Y-59662642D01*
X190252280Y-59924780D01*
X188172280Y-59924780D01*
X188172280Y-55162280D01*
X188120137Y-54900142D01*
X187971648Y-54677912D01*
X187749418Y-54529423D01*
X187487280Y-54477280D01*
X187354253Y-54477280D01*
X187319137Y-54300742D01*
X187170648Y-54078512D01*
X186948418Y-53930023D01*
X186686280Y-53877880D01*
X172686980Y-53877880D01*
X172424842Y-53930023D01*
X172202612Y-54078512D01*
X172054123Y-54300742D01*
X172019007Y-54477280D01*
X171887580Y-54477280D01*
X171625442Y-54529423D01*
X171403212Y-54677912D01*
X171254723Y-54900142D01*
X171202580Y-55162280D01*
X169120680Y-55162280D01*
X169120680Y-52780980D01*
X169068537Y-52518842D01*
X168920048Y-52296612D01*
X168697818Y-52148123D01*
X168435680Y-52095980D01*
X168304233Y-52095980D01*
X168269137Y-51919542D01*
X168120648Y-51697312D01*
X167898418Y-51548823D01*
X167636280Y-51496680D01*
X153636980Y-51496680D01*
X153374842Y-51548823D01*
X153152612Y-51697312D01*
X153004123Y-51919542D01*
X152969027Y-52095980D01*
X152837580Y-52095980D01*
X152575442Y-52148123D01*
X152353212Y-52296612D01*
X152204723Y-52518842D01*
X152152580Y-52780980D01*
X150072080Y-52780980D01*
X150072080Y-50399780D01*
X150019937Y-50137642D01*
X149871448Y-49915412D01*
X149649218Y-49766923D01*
X149387080Y-49714780D01*
X149254253Y-49714780D01*
X149219137Y-49538242D01*
X149070648Y-49316012D01*
X148848418Y-49167523D01*
X148586280Y-49115380D01*
X134586980Y-49115380D01*
X134324842Y-49167523D01*
X134102612Y-49316012D01*
X133954123Y-49538242D01*
X133919007Y-49714780D01*
X133787580Y-49714780D01*
X133525442Y-49766923D01*
X133303212Y-49915412D01*
X133154723Y-50137642D01*
X133102580Y-50399780D01*
X72891910Y-50399780D01*
X72736627Y-50335301D01*
X72706552Y-50335275D01*
X72678407Y-50324677D01*
X72362493Y-50334975D01*
X72046401Y-50334699D01*
X72018605Y-50346184D01*
X71988547Y-50347164D01*
X71455641Y-50567901D01*
X71450419Y-50580954D01*
X71408485Y-50598281D01*
X70919996Y-51085918D01*
X70901630Y-51130149D01*
X70887901Y-51135641D01*
X70776519Y-51431448D01*
X70655301Y-51723373D01*
X70655275Y-51753448D01*
X70644677Y-51781593D01*
X69925000Y-51781593D01*
X69925000Y-50967608D01*
X70433516Y-49950576D01*
X70905576Y-49478516D01*
X71978534Y-48942037D01*
X103568624Y-43526593D01*
X114459677Y-43526593D01*
X114469975Y-43842507D01*
X114469699Y-44158599D01*
X114481184Y-44186395D01*
X114482164Y-44216453D01*
X114702901Y-44749359D01*
X114715954Y-44754581D01*
X114733281Y-44796515D01*
X115220918Y-45285004D01*
X115265149Y-45303370D01*
X115270641Y-45317099D01*
X115566448Y-45428481D01*
X115858373Y-45549699D01*
X115888448Y-45549725D01*
X115916593Y-45560323D01*
X116232507Y-45550025D01*
X116548599Y-45550301D01*
X116576395Y-45538816D01*
X116606453Y-45537836D01*
X117139359Y-45317099D01*
X117144581Y-45304046D01*
X117186515Y-45286719D01*
X117675004Y-44799082D01*
X117693370Y-44754851D01*
X117707099Y-44749359D01*
X117818481Y-44453552D01*
X117939699Y-44161627D01*
X117939725Y-44131552D01*
X117950323Y-44103407D01*
X117940025Y-43787493D01*
X117940252Y-43526593D01*
X168434677Y-43526593D01*
X168444975Y-43842507D01*
X168444699Y-44158599D01*
X168456184Y-44186395D01*
X168457164Y-44216453D01*
X168677901Y-44749359D01*
X168690954Y-44754581D01*
X168708281Y-44796515D01*
X169195918Y-45285004D01*
X169240149Y-45303370D01*
X169245641Y-45317099D01*
X169541448Y-45428481D01*
X169833373Y-45549699D01*
X169863448Y-45549725D01*
X169891593Y-45560323D01*
X170207507Y-45550025D01*
X170523599Y-45550301D01*
X170551395Y-45538816D01*
X170581453Y-45537836D01*
X171114359Y-45317099D01*
X171119581Y-45304046D01*
X171161515Y-45286719D01*
X171650004Y-44799082D01*
X171668370Y-44754851D01*
X171682099Y-44749359D01*
X171793481Y-44453552D01*
X171914699Y-44161627D01*
X171914725Y-44131552D01*
X171925323Y-44103407D01*
X171915025Y-43787493D01*
X171915252Y-43526593D01*
X209074677Y-43526593D01*
X209084975Y-43842507D01*
X209084699Y-44158599D01*
X209096184Y-44186395D01*
X209097164Y-44216453D01*
X209317901Y-44749359D01*
X209330954Y-44754581D01*
X209348281Y-44796515D01*
X209835918Y-45285004D01*
X209880149Y-45303370D01*
X209885641Y-45317099D01*
X210181448Y-45428481D01*
X210473373Y-45549699D01*
X210503448Y-45549725D01*
X210531593Y-45560323D01*
X210847507Y-45550025D01*
X211163599Y-45550301D01*
X211191395Y-45538816D01*
X211221453Y-45537836D01*
X211754359Y-45317099D01*
X211759581Y-45304046D01*
X211801515Y-45286719D01*
X212290004Y-44799082D01*
X212308370Y-44754851D01*
X212322099Y-44749359D01*
X212433481Y-44453552D01*
X212554699Y-44161627D01*
X212554725Y-44131552D01*
X212565323Y-44103407D01*
X212555025Y-43787493D01*
X212555301Y-43471401D01*
X212543816Y-43443605D01*
X212542836Y-43413547D01*
X212322099Y-42880641D01*
X212309046Y-42875419D01*
X212291719Y-42833485D01*
X211804082Y-42344996D01*
X211759851Y-42326630D01*
X211754359Y-42312901D01*
X211458552Y-42201519D01*
X211166627Y-42080301D01*
X211136552Y-42080275D01*
X211108407Y-42069677D01*
X210792493Y-42079975D01*
X210476401Y-42079699D01*
X210448605Y-42091184D01*
X210418547Y-42092164D01*
X209885641Y-42312901D01*
X209880419Y-42325954D01*
X209838485Y-42343281D01*
X209349996Y-42830918D01*
X209331630Y-42875149D01*
X209317901Y-42880641D01*
X209206519Y-43176448D01*
X209085301Y-43468373D01*
X209085275Y-43498448D01*
X209074677Y-43526593D01*
X171915252Y-43526593D01*
X171915301Y-43471401D01*
X171903816Y-43443605D01*
X171902836Y-43413547D01*
X171682099Y-42880641D01*
X171669046Y-42875419D01*
X171651719Y-42833485D01*
X171164082Y-42344996D01*
X171119851Y-42326630D01*
X171114359Y-42312901D01*
X170818552Y-42201519D01*
X170526627Y-42080301D01*
X170496552Y-42080275D01*
X170468407Y-42069677D01*
X170152493Y-42079975D01*
X169836401Y-42079699D01*
X169808605Y-42091184D01*
X169778547Y-42092164D01*
X169245641Y-42312901D01*
X169240419Y-42325954D01*
X169198485Y-42343281D01*
X168709996Y-42830918D01*
X168691630Y-42875149D01*
X168677901Y-42880641D01*
X168566519Y-43176448D01*
X168445301Y-43468373D01*
X168445275Y-43498448D01*
X168434677Y-43526593D01*
X117940252Y-43526593D01*
X117940301Y-43471401D01*
X117928816Y-43443605D01*
X117927836Y-43413547D01*
X117707099Y-42880641D01*
X117694046Y-42875419D01*
X117676719Y-42833485D01*
X117189082Y-42344996D01*
X117144851Y-42326630D01*
X117139359Y-42312901D01*
X116843552Y-42201519D01*
X116551627Y-42080301D01*
X116521552Y-42080275D01*
X116493407Y-42069677D01*
X116177493Y-42079975D01*
X115861401Y-42079699D01*
X115833605Y-42091184D01*
X115803547Y-42092164D01*
X115270641Y-42312901D01*
X115265419Y-42325954D01*
X115223485Y-42343281D01*
X114734996Y-42830918D01*
X114716630Y-42875149D01*
X114702901Y-42880641D01*
X114591519Y-43176448D01*
X114470301Y-43468373D01*
X114470275Y-43498448D01*
X114459677Y-43526593D01*
X103568624Y-43526593D01*
X116265417Y-41350000D01*
X210750069Y-41350000D01*
X211757993Y-41550488D01*
X211757993Y-41550488D01*
G37*
X211757993Y-41550488D02*
X212553183Y-42081817D01*
X213084512Y-42877007D01*
X213285000Y-43884931D01*
X213285000Y-98425000D01*
X213289977Y-98450023D01*
X213286787Y-98475331D01*
X213316844Y-98585087D01*
X213339046Y-98696705D01*
X213353219Y-98717916D01*
X213359957Y-98742522D01*
X213994957Y-100012522D01*
X214049540Y-100082852D01*
X214093628Y-100160193D01*
X214133704Y-100191296D01*
X214164807Y-100231372D01*
X214242148Y-100275460D01*
X214312478Y-100330043D01*
X218059932Y-102203770D01*
X218330790Y-102413983D01*
X218465277Y-102649906D01*
X218499242Y-102919339D01*
X218414897Y-103227337D01*
X194414585Y-144280503D01*
X193793950Y-144695197D01*
X193040002Y-144845167D01*
X192286050Y-144695197D01*
X191529455Y-144189657D01*
X191517877Y-144184861D01*
X191508712Y-144176312D01*
X186889166Y-141316593D01*
X190659677Y-141316593D01*
X190669975Y-141632507D01*
X190669699Y-141948599D01*
X190681184Y-141976395D01*
X190682164Y-142006453D01*
X190902901Y-142539359D01*
X190915954Y-142544581D01*
X190933281Y-142586515D01*
X191420918Y-143075004D01*
X191465149Y-143093370D01*
X191470641Y-143107099D01*
X191766448Y-143218481D01*
X192058373Y-143339699D01*
X192088448Y-143339725D01*
X192116593Y-143350323D01*
X192432507Y-143340025D01*
X192748599Y-143340301D01*
X192776395Y-143328816D01*
X192806453Y-143327836D01*
X193339359Y-143107099D01*
X193344581Y-143094046D01*
X193386515Y-143076719D01*
X193875004Y-142589082D01*
X193893370Y-142544851D01*
X193907099Y-142539359D01*
X194018481Y-142243552D01*
X194139699Y-141951627D01*
X194139725Y-141921552D01*
X194150323Y-141893407D01*
X194140025Y-141577493D01*
X194140301Y-141261401D01*
X194128816Y-141233605D01*
X194127836Y-141203547D01*
X193907099Y-140670641D01*
X193894046Y-140665419D01*
X193876719Y-140623485D01*
X193389082Y-140134996D01*
X193344851Y-140116630D01*
X193339359Y-140102901D01*
X193043552Y-139991519D01*
X192751627Y-139870301D01*
X192721552Y-139870275D01*
X192693407Y-139859677D01*
X192377493Y-139869975D01*
X192061401Y-139869699D01*
X192033605Y-139881184D01*
X192003547Y-139882164D01*
X191470641Y-140102901D01*
X191465419Y-140115954D01*
X191423485Y-140133281D01*
X190934996Y-140620918D01*
X190916630Y-140665149D01*
X190902901Y-140670641D01*
X190791519Y-140966448D01*
X190670301Y-141258373D01*
X190670275Y-141288448D01*
X190659677Y-141316593D01*
X186889166Y-141316593D01*
X178173712Y-135921312D01*
X178143231Y-135909910D01*
X178117522Y-135889957D01*
X176847522Y-135254957D01*
X176822916Y-135248219D01*
X176801705Y-135234046D01*
X176690087Y-135211844D01*
X176580331Y-135181787D01*
X176555023Y-135184977D01*
X176530000Y-135180000D01*
X72459931Y-135180000D01*
X71452007Y-134979512D01*
X70656817Y-134448183D01*
X70125488Y-133652993D01*
X69925000Y-132645069D01*
X69925000Y-132426593D01*
X70644677Y-132426593D01*
X70654975Y-132742507D01*
X70654699Y-133058599D01*
X70666184Y-133086395D01*
X70667164Y-133116453D01*
X70887901Y-133649359D01*
X70900954Y-133654581D01*
X70918281Y-133696515D01*
X71405918Y-134185004D01*
X71450149Y-134203370D01*
X71455641Y-134217099D01*
X71751448Y-134328481D01*
X72043373Y-134449699D01*
X72073448Y-134449725D01*
X72101593Y-134460323D01*
X72417507Y-134450025D01*
X72733599Y-134450301D01*
X72761395Y-134438816D01*
X72791453Y-134437836D01*
X73324359Y-134217099D01*
X73329581Y-134204046D01*
X73371515Y-134186719D01*
X73860004Y-133699082D01*
X73878370Y-133654851D01*
X73892099Y-133649359D01*
X74003481Y-133353552D01*
X74124699Y-133061627D01*
X74124725Y-133031552D01*
X74135323Y-133003407D01*
X74125025Y-132687493D01*
X74125252Y-132426593D01*
X130334677Y-132426593D01*
X130344975Y-132742507D01*
X130344699Y-133058599D01*
X130356184Y-133086395D01*
X130357164Y-133116453D01*
X130577901Y-133649359D01*
X130590954Y-133654581D01*
X130608281Y-133696515D01*
X131095918Y-134185004D01*
X131140149Y-134203370D01*
X131145641Y-134217099D01*
X131441448Y-134328481D01*
X131733373Y-134449699D01*
X131763448Y-134449725D01*
X131791593Y-134460323D01*
X132107507Y-134450025D01*
X132423599Y-134450301D01*
X132451395Y-134438816D01*
X132481453Y-134437836D01*
X133014359Y-134217099D01*
X133019581Y-134204046D01*
X133061515Y-134186719D01*
X133550004Y-133699082D01*
X133568370Y-133654851D01*
X133582099Y-133649359D01*
X133693481Y-133353552D01*
X133814699Y-133061627D01*
X133814725Y-133031552D01*
X133825323Y-133003407D01*
X133815025Y-132687493D01*
X133815301Y-132371401D01*
X133803816Y-132343605D01*
X133802836Y-132313547D01*
X133582099Y-131780641D01*
X133569046Y-131775419D01*
X133551719Y-131733485D01*
X133064082Y-131244996D01*
X133019851Y-131226630D01*
X133014359Y-131212901D01*
X132718552Y-131101519D01*
X132426627Y-130980301D01*
X132396552Y-130980275D01*
X132368407Y-130969677D01*
X132052493Y-130979975D01*
X131736401Y-130979699D01*
X131708605Y-130991184D01*
X131678547Y-130992164D01*
X131145641Y-131212901D01*
X131140419Y-131225954D01*
X131098485Y-131243281D01*
X130609996Y-131730918D01*
X130591630Y-131775149D01*
X130577901Y-131780641D01*
X130466519Y-132076448D01*
X130345301Y-132368373D01*
X130345275Y-132398448D01*
X130334677Y-132426593D01*
X74125252Y-132426593D01*
X74125301Y-132371401D01*
X74113816Y-132343605D01*
X74112836Y-132313547D01*
X73892099Y-131780641D01*
X73879046Y-131775419D01*
X73861719Y-131733485D01*
X73374082Y-131244996D01*
X73329851Y-131226630D01*
X73324359Y-131212901D01*
X73028552Y-131101519D01*
X72736627Y-130980301D01*
X72706552Y-130980275D01*
X72678407Y-130969677D01*
X72362493Y-130979975D01*
X72046401Y-130979699D01*
X72018605Y-130991184D01*
X71988547Y-130992164D01*
X71455641Y-131212901D01*
X71450419Y-131225954D01*
X71408485Y-131243281D01*
X70919996Y-131730918D01*
X70901630Y-131775149D01*
X70887901Y-131780641D01*
X70776519Y-132076448D01*
X70655301Y-132368373D01*
X70655275Y-132398448D01*
X70644677Y-132426593D01*
X69925000Y-132426593D01*
X69925000Y-114693580D01*
X75952670Y-114693580D01*
X75952670Y-127492880D01*
X76004813Y-127755018D01*
X76153302Y-127977248D01*
X76375532Y-128125737D01*
X76637670Y-128177880D01*
X76768679Y-128177880D01*
X76804073Y-128355818D01*
X76952562Y-128578048D01*
X77174792Y-128726537D01*
X77436930Y-128778680D01*
X91436480Y-128778680D01*
X91698618Y-128726537D01*
X91763524Y-128683168D01*
X180229497Y-128683168D01*
X180238206Y-128816421D01*
X180246768Y-128949269D01*
X180246908Y-128949554D01*
X180246929Y-128949873D01*
X180306008Y-129069726D01*
X180364719Y-129189108D01*
X180364958Y-129189318D01*
X180365099Y-129189604D01*
X180465409Y-129277605D01*
X180500354Y-129308319D01*
X180434611Y-129422021D01*
X180434536Y-129422240D01*
X180434385Y-129422413D01*
X180391680Y-129548228D01*
X180348538Y-129675056D01*
X180348553Y-129675287D01*
X180348479Y-129675505D01*
X180357197Y-129808480D01*
X180365848Y-129941769D01*
X180365950Y-129941976D01*
X180365965Y-129942206D01*
X180424749Y-130061400D01*
X180483907Y-130181554D01*
X180484082Y-130181707D01*
X180484183Y-130181913D01*
X180583982Y-130269431D01*
X180684741Y-130357909D01*
X180684960Y-130357984D01*
X180685133Y-130358135D01*
X191770133Y-136757735D01*
X191895740Y-136800369D01*
X192021440Y-136843404D01*
X192022357Y-136843346D01*
X192023225Y-136843641D01*
X192155592Y-136834962D01*
X192288186Y-136826619D01*
X192289011Y-136826215D01*
X192289926Y-136826155D01*
X192409091Y-136767386D01*
X192528203Y-136709032D01*
X192528809Y-136708345D01*
X192529634Y-136707938D01*
X192617274Y-136607999D01*
X192704953Y-136508545D01*
X192771441Y-136394074D01*
X192942977Y-136452300D01*
X192943562Y-136452262D01*
X192943823Y-136452350D01*
X193060982Y-136444564D01*
X193209678Y-136434817D01*
X193209992Y-136434662D01*
X193210508Y-136434628D01*
X193409881Y-136336085D01*
X193449387Y-136316602D01*
X193449455Y-136316525D01*
X193450112Y-136316200D01*
X193626156Y-136115094D01*
X193626470Y-136114166D01*
X210150851Y-107492394D01*
X210193491Y-107366774D01*
X210236662Y-107240051D01*
X210236637Y-107239665D01*
X210236760Y-107239303D01*
X210228072Y-107106772D01*
X210219472Y-106973331D01*
X210219302Y-106972986D01*
X210219277Y-106972602D01*
X210160512Y-106853442D01*
X210101522Y-106733492D01*
X210101231Y-106733237D01*
X210101062Y-106732893D01*
X210000903Y-106645057D01*
X209965332Y-106613794D01*
X210031000Y-106499936D01*
X210073681Y-106374018D01*
X210116762Y-106247095D01*
X210116752Y-106246946D01*
X210116799Y-106246808D01*
X210108064Y-106114437D01*
X210099275Y-105980395D01*
X210099210Y-105980263D01*
X210099200Y-105980115D01*
X210040266Y-105860743D01*
X209981058Y-105740687D01*
X209980946Y-105740589D01*
X209980881Y-105740457D01*
X209881173Y-105653094D01*
X209780107Y-105564465D01*
X205713266Y-103216593D01*
X213519677Y-103216593D01*
X213529975Y-103532507D01*
X213529699Y-103848599D01*
X213541184Y-103876395D01*
X213542164Y-103906453D01*
X213762901Y-104439359D01*
X213775954Y-104444581D01*
X213793281Y-104486515D01*
X214280918Y-104975004D01*
X214325149Y-104993370D01*
X214330641Y-105007099D01*
X214626448Y-105118481D01*
X214918373Y-105239699D01*
X214948448Y-105239725D01*
X214976593Y-105250323D01*
X215292507Y-105240025D01*
X215608599Y-105240301D01*
X215636395Y-105228816D01*
X215666453Y-105227836D01*
X216199359Y-105007099D01*
X216204581Y-104994046D01*
X216246515Y-104976719D01*
X216735004Y-104489082D01*
X216753370Y-104444851D01*
X216767099Y-104439359D01*
X216878481Y-104143552D01*
X216999699Y-103851627D01*
X216999725Y-103821552D01*
X217010323Y-103793407D01*
X217000025Y-103477493D01*
X217000301Y-103161401D01*
X216988816Y-103133605D01*
X216987836Y-103103547D01*
X216767099Y-102570641D01*
X216754046Y-102565419D01*
X216736719Y-102523485D01*
X216249082Y-102034996D01*
X216204851Y-102016630D01*
X216199359Y-102002901D01*
X215903552Y-101891519D01*
X215611627Y-101770301D01*
X215581552Y-101770275D01*
X215553407Y-101759677D01*
X215237493Y-101769975D01*
X214921401Y-101769699D01*
X214893605Y-101781184D01*
X214863547Y-101782164D01*
X214330641Y-102002901D01*
X214325419Y-102015954D01*
X214283485Y-102033281D01*
X213794996Y-102520918D01*
X213776630Y-102565149D01*
X213762901Y-102570641D01*
X213651519Y-102866448D01*
X213530301Y-103158373D01*
X213530275Y-103188448D01*
X213519677Y-103216593D01*
X205713266Y-103216593D01*
X198695107Y-99164865D01*
X198694966Y-99164817D01*
X198694855Y-99164720D01*
X198568599Y-99121925D01*
X198442015Y-99078959D01*
X198441868Y-99078969D01*
X198441727Y-99078921D01*
X198308098Y-99087739D01*
X198175314Y-99096445D01*
X198175182Y-99096510D01*
X198175034Y-99096520D01*
X198055192Y-99155686D01*
X197935607Y-99214663D01*
X197935510Y-99214774D01*
X197935376Y-99214840D01*
X197847429Y-99315214D01*
X197759385Y-99415613D01*
X197759337Y-99415754D01*
X197759240Y-99415865D01*
X197693738Y-99529435D01*
X197649440Y-99514471D01*
X197522640Y-99471509D01*
X197522324Y-99471530D01*
X197522028Y-99471430D01*
X197389316Y-99480325D01*
X197255949Y-99489143D01*
X197255668Y-99489282D01*
X197255353Y-99489303D01*
X197135436Y-99548660D01*
X197016307Y-99607493D01*
X197016101Y-99607729D01*
X197015817Y-99607869D01*
X196927854Y-99708471D01*
X196840196Y-99808541D01*
X195714134Y-101761529D01*
X195652026Y-101727111D01*
X195530224Y-101688136D01*
X195409208Y-101647096D01*
X195403203Y-101647491D01*
X195397467Y-101645656D01*
X195270043Y-101656257D01*
X195142512Y-101664652D01*
X195137114Y-101667316D01*
X195131114Y-101667815D01*
X195017475Y-101726358D01*
X194902836Y-101782933D01*
X194898867Y-101787461D01*
X194893516Y-101790218D01*
X194810939Y-101887781D01*
X194726667Y-101983930D01*
X193077676Y-104841958D01*
X193035010Y-104967768D01*
X192992098Y-105093111D01*
X192992161Y-105094116D01*
X192991837Y-105095072D01*
X193000556Y-105227511D01*
X193008884Y-105359857D01*
X193009328Y-105360763D01*
X193009394Y-105361769D01*
X193068079Y-105480684D01*
X193126472Y-105599874D01*
X193127229Y-105600541D01*
X193127675Y-105601445D01*
X193227419Y-105688868D01*
X193326959Y-105776622D01*
X193382562Y-105808918D01*
X183811492Y-122372226D01*
X183765052Y-122345251D01*
X183764332Y-122345005D01*
X183763762Y-122344504D01*
X183638200Y-122301820D01*
X183512188Y-122258677D01*
X183511427Y-122258725D01*
X183510710Y-122258481D01*
X183378353Y-122267097D01*
X183245442Y-122275459D01*
X183244759Y-122275794D01*
X183244001Y-122275843D01*
X183124865Y-122334529D01*
X183005423Y-122393043D01*
X183004920Y-122393614D01*
X183004239Y-122393949D01*
X182916655Y-122493731D01*
X182828671Y-122593528D01*
X182828425Y-122594248D01*
X182827924Y-122594818D01*
X181176924Y-125451517D01*
X181176556Y-125452600D01*
X181175804Y-125453462D01*
X181133572Y-125579044D01*
X181090900Y-125704568D01*
X181090974Y-125705710D01*
X181090610Y-125706794D01*
X181099654Y-125839043D01*
X181108263Y-125971278D01*
X181108768Y-125972303D01*
X181108846Y-125973444D01*
X181167822Y-126092186D01*
X181226369Y-126211040D01*
X181227228Y-126211794D01*
X181227737Y-126212819D01*
X181327680Y-126299967D01*
X181427238Y-126387355D01*
X181428321Y-126387723D01*
X181429183Y-126388475D01*
X181478374Y-126416690D01*
X180315454Y-128430094D01*
X180272505Y-128556544D01*
X180229579Y-128682549D01*
X180229599Y-128682866D01*
X180229497Y-128683168D01*
X91763524Y-128683168D01*
X91920848Y-128578048D01*
X92069337Y-128355818D01*
X92104731Y-128177880D01*
X92237080Y-128177880D01*
X92499218Y-128125737D01*
X92721448Y-127977248D01*
X92869937Y-127755018D01*
X92922080Y-127492880D01*
X92922080Y-114693580D01*
X92869937Y-114431442D01*
X92721448Y-114209212D01*
X92499218Y-114060723D01*
X92237080Y-114008580D01*
X92104453Y-114008580D01*
X92069337Y-113832042D01*
X91920848Y-113609812D01*
X91698618Y-113461323D01*
X91436480Y-113409180D01*
X77436930Y-113409180D01*
X77174792Y-113461323D01*
X76952562Y-113609812D01*
X76804073Y-113832042D01*
X76768957Y-114008580D01*
X76637670Y-114008580D01*
X76375532Y-114060723D01*
X76153302Y-114209212D01*
X76004813Y-114431442D01*
X75952670Y-114693580D01*
X69925000Y-114693580D01*
X69925000Y-112312380D01*
X95002680Y-112312380D01*
X95002680Y-125112980D01*
X95054823Y-125375118D01*
X95203312Y-125597348D01*
X95425542Y-125745837D01*
X95687680Y-125797980D01*
X95818987Y-125797980D01*
X95854123Y-125974618D01*
X96002612Y-126196848D01*
X96224842Y-126345337D01*
X96486980Y-126397480D01*
X110486280Y-126397480D01*
X110748418Y-126345337D01*
X110970648Y-126196848D01*
X111119137Y-125974618D01*
X111154273Y-125797980D01*
X111287080Y-125797980D01*
X111549218Y-125745837D01*
X111771448Y-125597348D01*
X111919937Y-125375118D01*
X111972080Y-125112980D01*
X111972080Y-112312380D01*
X111919937Y-112050242D01*
X111771448Y-111828012D01*
X111549218Y-111679523D01*
X111287080Y-111627380D01*
X111154253Y-111627380D01*
X111119137Y-111450842D01*
X110970648Y-111228612D01*
X110748418Y-111080123D01*
X110486280Y-111027980D01*
X96486980Y-111027980D01*
X96224842Y-111080123D01*
X96002612Y-111228612D01*
X95854123Y-111450842D01*
X95819007Y-111627380D01*
X95687680Y-111627380D01*
X95425542Y-111679523D01*
X95203312Y-111828012D01*
X95054823Y-112050242D01*
X95002680Y-112312380D01*
X69925000Y-112312380D01*
X69925000Y-110027580D01*
X114052580Y-110027580D01*
X114052580Y-122826780D01*
X114104723Y-123088918D01*
X114253212Y-123311148D01*
X114475442Y-123459637D01*
X114737580Y-123511780D01*
X114868987Y-123511780D01*
X114904123Y-123688418D01*
X115052612Y-123910648D01*
X115274842Y-124059137D01*
X115536980Y-124111280D01*
X129536280Y-124111280D01*
X129798418Y-124059137D01*
X130020648Y-123910648D01*
X130169137Y-123688418D01*
X130204273Y-123511780D01*
X130337080Y-123511780D01*
X130599218Y-123459637D01*
X130821448Y-123311148D01*
X130901429Y-123191447D01*
X157717901Y-123191447D01*
X157720899Y-123329622D01*
X157723684Y-123458590D01*
X157723698Y-123458622D01*
X157723699Y-123458658D01*
X157777447Y-123580851D01*
X157831272Y-123703253D01*
X157831298Y-123703278D01*
X157831312Y-123703310D01*
X157928317Y-123796195D01*
X158024299Y-123888119D01*
X158024332Y-123888132D01*
X158024358Y-123888157D01*
X158154032Y-123938603D01*
X158273378Y-123985046D01*
X158273443Y-123985058D01*
X158273447Y-123985059D01*
X158273451Y-123985059D01*
X158404796Y-124008249D01*
X158405917Y-124056232D01*
X158408820Y-124189153D01*
X158409036Y-124189643D01*
X158409048Y-124190177D01*
X158462767Y-124311752D01*
X158516468Y-124433790D01*
X158516855Y-124434161D01*
X158517071Y-124434649D01*
X158613177Y-124526365D01*
X158709540Y-124618609D01*
X158710040Y-124618803D01*
X158710426Y-124619172D01*
X158834594Y-124667237D01*
X158958643Y-124715475D01*
X172745843Y-127146275D01*
X172746310Y-127146265D01*
X172746747Y-127146434D01*
X172879709Y-127143352D01*
X173013053Y-127140440D01*
X173013483Y-127140251D01*
X173013948Y-127140240D01*
X173135484Y-127086566D01*
X173257689Y-127032792D01*
X173258012Y-127032454D01*
X173258441Y-127032265D01*
X173350648Y-126935682D01*
X173442509Y-126839720D01*
X173442678Y-126839285D01*
X173443002Y-126838946D01*
X173491205Y-126714493D01*
X173507917Y-126671516D01*
X173637135Y-126694339D01*
X173637225Y-126694337D01*
X173637310Y-126694370D01*
X173771955Y-126691436D01*
X173904346Y-126688585D01*
X173904428Y-126688549D01*
X173904521Y-126688547D01*
X174029360Y-126633621D01*
X174149016Y-126581013D01*
X174149078Y-126580948D01*
X174149163Y-126580911D01*
X174242163Y-126483768D01*
X174333896Y-126387998D01*
X174333929Y-126387912D01*
X174333991Y-126387848D01*
X174381852Y-126264786D01*
X174430839Y-126138926D01*
X174430837Y-126138835D01*
X174430870Y-126138750D01*
X176653870Y-113533749D01*
X176653870Y-113533730D01*
X176653877Y-113533711D01*
X176651020Y-113402977D01*
X176648047Y-113266539D01*
X176648038Y-113266519D01*
X176648038Y-113266501D01*
X176594908Y-113145762D01*
X176540411Y-113021897D01*
X176540397Y-113021884D01*
X176540389Y-113021865D01*
X176442302Y-112927972D01*
X176347348Y-112837068D01*
X176347329Y-112837061D01*
X176347315Y-112837047D01*
X176229962Y-112791415D01*
X176098250Y-112740190D01*
X176098228Y-112740190D01*
X176098211Y-112740184D01*
X175967992Y-112717226D01*
X175966961Y-112669994D01*
X175964225Y-112537048D01*
X175964051Y-112536650D01*
X175964041Y-112536212D01*
X175910215Y-112413886D01*
X175856885Y-112292276D01*
X175856571Y-112291974D01*
X175856395Y-112291575D01*
X175760301Y-112199587D01*
X175664046Y-112107214D01*
X175663638Y-112107055D01*
X175663324Y-112106754D01*
X175539412Y-112058568D01*
X175415065Y-112010034D01*
X175414628Y-112010043D01*
X175414222Y-112009885D01*
X161627747Y-109579096D01*
X161627744Y-109579095D01*
X161627741Y-109579095D01*
X161627122Y-109578986D01*
X161494123Y-109581889D01*
X161360528Y-109584683D01*
X161360234Y-109584812D01*
X161359912Y-109584819D01*
X161237912Y-109638502D01*
X161115792Y-109692103D01*
X161115569Y-109692336D01*
X161115275Y-109692465D01*
X161023238Y-109788610D01*
X160930793Y-109885004D01*
X160930676Y-109885304D01*
X160930454Y-109885536D01*
X160882382Y-110009155D01*
X160864947Y-110053869D01*
X160736031Y-110031058D01*
X160735868Y-110031061D01*
X160735713Y-110031001D01*
X160601629Y-110033910D01*
X160468818Y-110036729D01*
X160468667Y-110036795D01*
X160468502Y-110036799D01*
X160345968Y-110090697D01*
X160224115Y-110144227D01*
X160224002Y-110144345D01*
X160223850Y-110144412D01*
X160130898Y-110241487D01*
X160039177Y-110337186D01*
X160039118Y-110337338D01*
X160039003Y-110337458D01*
X159990497Y-110462145D01*
X159942158Y-110586229D01*
X159942162Y-110586394D01*
X159942102Y-110586547D01*
X157717901Y-123191447D01*
X130901429Y-123191447D01*
X130969937Y-123088918D01*
X131022080Y-122826780D01*
X131022080Y-110027580D01*
X130969937Y-109765442D01*
X130821448Y-109543212D01*
X130599218Y-109394723D01*
X130337080Y-109342580D01*
X130204531Y-109342580D01*
X130169137Y-109164642D01*
X130020648Y-108942412D01*
X129798418Y-108793923D01*
X129536280Y-108741780D01*
X115536980Y-108741780D01*
X115274842Y-108793923D01*
X115052612Y-108942412D01*
X114904123Y-109164642D01*
X114868729Y-109342580D01*
X114737580Y-109342580D01*
X114475442Y-109394723D01*
X114253212Y-109543212D01*
X114104723Y-109765442D01*
X114052580Y-110027580D01*
X69925000Y-110027580D01*
X69925000Y-95643480D01*
X75952670Y-95643480D01*
X75952670Y-108442880D01*
X76004813Y-108705018D01*
X76153302Y-108927248D01*
X76375532Y-109075737D01*
X76637670Y-109127880D01*
X76768679Y-109127880D01*
X76804073Y-109305818D01*
X76952562Y-109528048D01*
X77174792Y-109676537D01*
X77436930Y-109728680D01*
X91436480Y-109728680D01*
X91698618Y-109676537D01*
X91920848Y-109528048D01*
X92069337Y-109305818D01*
X92104731Y-109127880D01*
X92237080Y-109127880D01*
X92499218Y-109075737D01*
X92721448Y-108927248D01*
X92869937Y-108705018D01*
X92922080Y-108442880D01*
X92922080Y-107549880D01*
X133102580Y-107549880D01*
X133102580Y-120350480D01*
X133154723Y-120612618D01*
X133303212Y-120834848D01*
X133525442Y-120983337D01*
X133787580Y-121035480D01*
X133918987Y-121035480D01*
X133954123Y-121212118D01*
X134102612Y-121434348D01*
X134324842Y-121582837D01*
X134586980Y-121634980D01*
X148586280Y-121634980D01*
X148848418Y-121582837D01*
X149070648Y-121434348D01*
X149219137Y-121212118D01*
X149254273Y-121035480D01*
X149387080Y-121035480D01*
X149649218Y-120983337D01*
X149871448Y-120834848D01*
X150019937Y-120612618D01*
X150072080Y-120350480D01*
X150072080Y-107549880D01*
X150019937Y-107287742D01*
X149871448Y-107065512D01*
X149649218Y-106917023D01*
X149387080Y-106864880D01*
X149254253Y-106864880D01*
X149219137Y-106688342D01*
X149070648Y-106466112D01*
X148848418Y-106317623D01*
X148586280Y-106265480D01*
X134586980Y-106265480D01*
X134324842Y-106317623D01*
X134102612Y-106466112D01*
X133954123Y-106688342D01*
X133919007Y-106864880D01*
X133787580Y-106864880D01*
X133525442Y-106917023D01*
X133303212Y-107065512D01*
X133154723Y-107287742D01*
X133102580Y-107549880D01*
X92922080Y-107549880D01*
X92922080Y-95643480D01*
X92869937Y-95381342D01*
X92721448Y-95159112D01*
X92499218Y-95010623D01*
X92237080Y-94958480D01*
X92104433Y-94958480D01*
X92069337Y-94782042D01*
X91920848Y-94559812D01*
X91698618Y-94411323D01*
X91436480Y-94359180D01*
X77436930Y-94359180D01*
X77174792Y-94411323D01*
X76952562Y-94559812D01*
X76804073Y-94782042D01*
X76768977Y-94958480D01*
X76637670Y-94958480D01*
X76375532Y-95010623D01*
X76153302Y-95159112D01*
X76004813Y-95381342D01*
X75952670Y-95643480D01*
X69925000Y-95643480D01*
X69925000Y-92421593D01*
X70644677Y-92421593D01*
X70654975Y-92737507D01*
X70654699Y-93053599D01*
X70666184Y-93081395D01*
X70667164Y-93111453D01*
X70887901Y-93644359D01*
X70900954Y-93649581D01*
X70918281Y-93691515D01*
X71405918Y-94180004D01*
X71450149Y-94198370D01*
X71455641Y-94212099D01*
X71751448Y-94323481D01*
X72043373Y-94444699D01*
X72073448Y-94444725D01*
X72101593Y-94455323D01*
X72417507Y-94445025D01*
X72733599Y-94445301D01*
X72761395Y-94433816D01*
X72791453Y-94432836D01*
X73324359Y-94212099D01*
X73329581Y-94199046D01*
X73371515Y-94181719D01*
X73860004Y-93694082D01*
X73878370Y-93649851D01*
X73892099Y-93644359D01*
X74003481Y-93348552D01*
X74039304Y-93262280D01*
X95002680Y-93262280D01*
X95002680Y-106062980D01*
X95054823Y-106325118D01*
X95203312Y-106547348D01*
X95425542Y-106695837D01*
X95687680Y-106747980D01*
X95818987Y-106747980D01*
X95854123Y-106924618D01*
X96002612Y-107146848D01*
X96224842Y-107295337D01*
X96486980Y-107347480D01*
X110486280Y-107347480D01*
X110748418Y-107295337D01*
X110970648Y-107146848D01*
X111119137Y-106924618D01*
X111154273Y-106747980D01*
X111287080Y-106747980D01*
X111549218Y-106695837D01*
X111771448Y-106547348D01*
X111919937Y-106325118D01*
X111972080Y-106062980D01*
X111972080Y-93262280D01*
X111919937Y-93000142D01*
X111771448Y-92777912D01*
X111549218Y-92629423D01*
X111287080Y-92577280D01*
X111154253Y-92577280D01*
X111119137Y-92400742D01*
X110970648Y-92178512D01*
X110748418Y-92030023D01*
X110486280Y-91977880D01*
X96486980Y-91977880D01*
X96224842Y-92030023D01*
X96002612Y-92178512D01*
X95854123Y-92400742D01*
X95819007Y-92577280D01*
X95687680Y-92577280D01*
X95425542Y-92629423D01*
X95203312Y-92777912D01*
X95054823Y-93000142D01*
X95002680Y-93262280D01*
X74039304Y-93262280D01*
X74124699Y-93056627D01*
X74124725Y-93026552D01*
X74135323Y-92998407D01*
X74125025Y-92682493D01*
X74125301Y-92366401D01*
X74113816Y-92338605D01*
X74112836Y-92308547D01*
X73892099Y-91775641D01*
X73879046Y-91770419D01*
X73861719Y-91728485D01*
X73374082Y-91239996D01*
X73329851Y-91221630D01*
X73324359Y-91207901D01*
X73028552Y-91096519D01*
X72736627Y-90975301D01*
X72706552Y-90975275D01*
X72678407Y-90964677D01*
X72362493Y-90974975D01*
X72046401Y-90974699D01*
X72018605Y-90986184D01*
X71988547Y-90987164D01*
X71455641Y-91207901D01*
X71450419Y-91220954D01*
X71408485Y-91238281D01*
X70919996Y-91725918D01*
X70901630Y-91770149D01*
X70887901Y-91775641D01*
X70776519Y-92071448D01*
X70655301Y-92363373D01*
X70655275Y-92393448D01*
X70644677Y-92421593D01*
X69925000Y-92421593D01*
X69925000Y-90880980D01*
X114052580Y-90880980D01*
X114052580Y-103681580D01*
X114104723Y-103943718D01*
X114253212Y-104165948D01*
X114475442Y-104314437D01*
X114737580Y-104366580D01*
X114868967Y-104366580D01*
X114904123Y-104543318D01*
X115052612Y-104765548D01*
X115274842Y-104914037D01*
X115536980Y-104966180D01*
X129536280Y-104966180D01*
X129798418Y-104914037D01*
X130020648Y-104765548D01*
X130169137Y-104543318D01*
X130204293Y-104366580D01*
X130337080Y-104366580D01*
X130599218Y-104314437D01*
X130821448Y-104165948D01*
X130969937Y-103943718D01*
X131022080Y-103681580D01*
X131022080Y-90880980D01*
X130969937Y-90618842D01*
X130821448Y-90396612D01*
X130599218Y-90248123D01*
X130337080Y-90195980D01*
X130204233Y-90195980D01*
X130169137Y-90019542D01*
X130020648Y-89797312D01*
X129798418Y-89648823D01*
X129536280Y-89596680D01*
X115536980Y-89596680D01*
X115274842Y-89648823D01*
X115052612Y-89797312D01*
X114904123Y-90019542D01*
X114869027Y-90195980D01*
X114737580Y-90195980D01*
X114475442Y-90248123D01*
X114253212Y-90396612D01*
X114104723Y-90618842D01*
X114052580Y-90880980D01*
X69925000Y-90880980D01*
X69925000Y-76593480D01*
X75952670Y-76593480D01*
X75952670Y-89392980D01*
X76004813Y-89655118D01*
X76153302Y-89877348D01*
X76375532Y-90025837D01*
X76637670Y-90077980D01*
X76768679Y-90077980D01*
X76804073Y-90255918D01*
X76952562Y-90478148D01*
X77174792Y-90626637D01*
X77436930Y-90678780D01*
X91436480Y-90678780D01*
X91698618Y-90626637D01*
X91920848Y-90478148D01*
X92069337Y-90255918D01*
X92104731Y-90077980D01*
X92237080Y-90077980D01*
X92499218Y-90025837D01*
X92721448Y-89877348D01*
X92869937Y-89655118D01*
X92922080Y-89392980D01*
X92922080Y-88499780D01*
X133102580Y-88499780D01*
X133102580Y-101300280D01*
X133154723Y-101562418D01*
X133303212Y-101784648D01*
X133525442Y-101933137D01*
X133787580Y-101985280D01*
X133918927Y-101985280D01*
X133954123Y-102162218D01*
X134102612Y-102384448D01*
X134324842Y-102532937D01*
X134586980Y-102585080D01*
X148586280Y-102585080D01*
X148848418Y-102532937D01*
X149070648Y-102384448D01*
X149219137Y-102162218D01*
X149254333Y-101985280D01*
X149387080Y-101985280D01*
X149649218Y-101933137D01*
X149871448Y-101784648D01*
X150019937Y-101562418D01*
X150072080Y-101300280D01*
X150072080Y-90880980D01*
X152152580Y-90880980D01*
X152152580Y-103681580D01*
X152204723Y-103943718D01*
X152353212Y-104165948D01*
X152575442Y-104314437D01*
X152837580Y-104366580D01*
X152968967Y-104366580D01*
X153004123Y-104543318D01*
X153152612Y-104765548D01*
X153374842Y-104914037D01*
X153636980Y-104966180D01*
X167636280Y-104966180D01*
X167898418Y-104914037D01*
X168120648Y-104765548D01*
X168269137Y-104543318D01*
X168304293Y-104366580D01*
X168435680Y-104366580D01*
X168697818Y-104314437D01*
X168920048Y-104165948D01*
X169068537Y-103943718D01*
X169120680Y-103681580D01*
X169120680Y-93262280D01*
X171202580Y-93262280D01*
X171202580Y-106062980D01*
X171254723Y-106325118D01*
X171403212Y-106547348D01*
X171625442Y-106695837D01*
X171887580Y-106747980D01*
X172018987Y-106747980D01*
X172054123Y-106924618D01*
X172202612Y-107146848D01*
X172424842Y-107295337D01*
X172686980Y-107347480D01*
X186686280Y-107347480D01*
X186948418Y-107295337D01*
X187170648Y-107146848D01*
X187319137Y-106924618D01*
X187354273Y-106747980D01*
X187487280Y-106747980D01*
X187749418Y-106695837D01*
X187971648Y-106547348D01*
X188120137Y-106325118D01*
X188172280Y-106062980D01*
X188172280Y-93262280D01*
X188120137Y-93000142D01*
X187971648Y-92777912D01*
X187749418Y-92629423D01*
X187487280Y-92577280D01*
X187354253Y-92577280D01*
X187319137Y-92400742D01*
X187170648Y-92178512D01*
X186948418Y-92030023D01*
X186686280Y-91977880D01*
X172686980Y-91977880D01*
X172424842Y-92030023D01*
X172202612Y-92178512D01*
X172054123Y-92400742D01*
X172019007Y-92577280D01*
X171887580Y-92577280D01*
X171625442Y-92629423D01*
X171403212Y-92777912D01*
X171254723Y-93000142D01*
X171202580Y-93262280D01*
X169120680Y-93262280D01*
X169120680Y-90880980D01*
X169068537Y-90618842D01*
X168920048Y-90396612D01*
X168697818Y-90248123D01*
X168435680Y-90195980D01*
X168304233Y-90195980D01*
X168269137Y-90019542D01*
X168120648Y-89797312D01*
X167898418Y-89648823D01*
X167636280Y-89596680D01*
X153636980Y-89596680D01*
X153374842Y-89648823D01*
X153152612Y-89797312D01*
X153004123Y-90019542D01*
X152969027Y-90195980D01*
X152837580Y-90195980D01*
X152575442Y-90248123D01*
X152353212Y-90396612D01*
X152204723Y-90618842D01*
X152152580Y-90880980D01*
X150072080Y-90880980D01*
X150072080Y-88499780D01*
X150019937Y-88237642D01*
X149871448Y-88015412D01*
X149649218Y-87866923D01*
X149387080Y-87814780D01*
X149254253Y-87814780D01*
X149219137Y-87638242D01*
X149070648Y-87416012D01*
X148848418Y-87267523D01*
X148586280Y-87215380D01*
X134586980Y-87215380D01*
X134324842Y-87267523D01*
X134102612Y-87416012D01*
X133954123Y-87638242D01*
X133919007Y-87814780D01*
X133787580Y-87814780D01*
X133525442Y-87866923D01*
X133303212Y-88015412D01*
X133154723Y-88237642D01*
X133102580Y-88499780D01*
X92922080Y-88499780D01*
X92922080Y-76593480D01*
X92869937Y-76331342D01*
X92721448Y-76109112D01*
X92499218Y-75960623D01*
X92237080Y-75908480D01*
X92104433Y-75908480D01*
X92069337Y-75732042D01*
X91920848Y-75509812D01*
X91698618Y-75361323D01*
X91436480Y-75309180D01*
X77436930Y-75309180D01*
X77174792Y-75361323D01*
X76952562Y-75509812D01*
X76804073Y-75732042D01*
X76768977Y-75908480D01*
X76637670Y-75908480D01*
X76375532Y-75960623D01*
X76153302Y-76109112D01*
X76004813Y-76331342D01*
X75952670Y-76593480D01*
X69925000Y-76593480D01*
X69925000Y-74212280D01*
X95002680Y-74212280D01*
X95002680Y-87012780D01*
X95054823Y-87274918D01*
X95203312Y-87497148D01*
X95425542Y-87645637D01*
X95687680Y-87697780D01*
X95818927Y-87697780D01*
X95854123Y-87874718D01*
X96002612Y-88096948D01*
X96224842Y-88245437D01*
X96486980Y-88297580D01*
X110486280Y-88297580D01*
X110748418Y-88245437D01*
X110970648Y-88096948D01*
X111119137Y-87874718D01*
X111154333Y-87697780D01*
X111287080Y-87697780D01*
X111549218Y-87645637D01*
X111771448Y-87497148D01*
X111919937Y-87274918D01*
X111972080Y-87012780D01*
X111972080Y-74212280D01*
X111919937Y-73950142D01*
X111771448Y-73727912D01*
X111549218Y-73579423D01*
X111287080Y-73527280D01*
X111154253Y-73527280D01*
X111119137Y-73350742D01*
X110970648Y-73128512D01*
X110748418Y-72980023D01*
X110486280Y-72927880D01*
X96486980Y-72927880D01*
X96224842Y-72980023D01*
X96002612Y-73128512D01*
X95854123Y-73350742D01*
X95819007Y-73527280D01*
X95687680Y-73527280D01*
X95425542Y-73579423D01*
X95203312Y-73727912D01*
X95054823Y-73950142D01*
X95002680Y-74212280D01*
X69925000Y-74212280D01*
X69925000Y-71830980D01*
X114052580Y-71830980D01*
X114052580Y-84631580D01*
X114104723Y-84893718D01*
X114253212Y-85115948D01*
X114475442Y-85264437D01*
X114737580Y-85316580D01*
X114868947Y-85316580D01*
X114904123Y-85493418D01*
X115052612Y-85715648D01*
X115274842Y-85864137D01*
X115536980Y-85916280D01*
X129536280Y-85916280D01*
X129798418Y-85864137D01*
X130020648Y-85715648D01*
X130169137Y-85493418D01*
X130204313Y-85316580D01*
X130337080Y-85316580D01*
X130599218Y-85264437D01*
X130821448Y-85115948D01*
X130969937Y-84893718D01*
X131022080Y-84631580D01*
X131022080Y-71830980D01*
X130969937Y-71568842D01*
X130821448Y-71346612D01*
X130599218Y-71198123D01*
X130337080Y-71145980D01*
X130204233Y-71145980D01*
X130169137Y-70969542D01*
X130020648Y-70747312D01*
X129798418Y-70598823D01*
X129536280Y-70546680D01*
X115536980Y-70546680D01*
X115274842Y-70598823D01*
X115052612Y-70747312D01*
X114904123Y-70969542D01*
X114869027Y-71145980D01*
X114737580Y-71145980D01*
X114475442Y-71198123D01*
X114253212Y-71346612D01*
X114104723Y-71568842D01*
X114052580Y-71830980D01*
X69925000Y-71830980D01*
X69925000Y-57543480D01*
X75952670Y-57543480D01*
X75952670Y-70342980D01*
X76004813Y-70605118D01*
X76153302Y-70827348D01*
X76375532Y-70975837D01*
X76637670Y-71027980D01*
X76768679Y-71027980D01*
X76804073Y-71205918D01*
X76952562Y-71428148D01*
X77174792Y-71576637D01*
X77436930Y-71628780D01*
X91436480Y-71628780D01*
X91698618Y-71576637D01*
X91920848Y-71428148D01*
X92069337Y-71205918D01*
X92104731Y-71027980D01*
X92237080Y-71027980D01*
X92499218Y-70975837D01*
X92721448Y-70827348D01*
X92869937Y-70605118D01*
X92922080Y-70342980D01*
X92922080Y-69449780D01*
X133102580Y-69449780D01*
X133102580Y-82250280D01*
X133154723Y-82512418D01*
X133303212Y-82734648D01*
X133525442Y-82883137D01*
X133787580Y-82935280D01*
X133918927Y-82935280D01*
X133954123Y-83112218D01*
X134102612Y-83334448D01*
X134324842Y-83482937D01*
X134586980Y-83535080D01*
X148586280Y-83535080D01*
X148848418Y-83482937D01*
X149070648Y-83334448D01*
X149219137Y-83112218D01*
X149254333Y-82935280D01*
X149387080Y-82935280D01*
X149649218Y-82883137D01*
X149871448Y-82734648D01*
X150019937Y-82512418D01*
X150072080Y-82250280D01*
X150072080Y-71830980D01*
X152152580Y-71830980D01*
X152152580Y-84631580D01*
X152204723Y-84893718D01*
X152353212Y-85115948D01*
X152575442Y-85264437D01*
X152837580Y-85316580D01*
X152968947Y-85316580D01*
X153004123Y-85493418D01*
X153152612Y-85715648D01*
X153374842Y-85864137D01*
X153636980Y-85916280D01*
X167636280Y-85916280D01*
X167898418Y-85864137D01*
X168120648Y-85715648D01*
X168269137Y-85493418D01*
X168304313Y-85316580D01*
X168435680Y-85316580D01*
X168697818Y-85264437D01*
X168920048Y-85115948D01*
X169068537Y-84893718D01*
X169120680Y-84631580D01*
X169120680Y-74212280D01*
X171202580Y-74212280D01*
X171202580Y-87012780D01*
X171254723Y-87274918D01*
X171403212Y-87497148D01*
X171625442Y-87645637D01*
X171887580Y-87697780D01*
X172018927Y-87697780D01*
X172054123Y-87874718D01*
X172202612Y-88096948D01*
X172424842Y-88245437D01*
X172686980Y-88297580D01*
X186686280Y-88297580D01*
X186948418Y-88245437D01*
X187170648Y-88096948D01*
X187319137Y-87874718D01*
X187354333Y-87697780D01*
X187487280Y-87697780D01*
X187749418Y-87645637D01*
X187971648Y-87497148D01*
X188120137Y-87274918D01*
X188172280Y-87012780D01*
X188172280Y-78974780D01*
X190252280Y-78974780D01*
X190252280Y-91775280D01*
X190304423Y-92037418D01*
X190452912Y-92259648D01*
X190675142Y-92408137D01*
X190937280Y-92460280D01*
X191069227Y-92460280D01*
X191104423Y-92637218D01*
X191252912Y-92859448D01*
X191475142Y-93007937D01*
X191737280Y-93060080D01*
X205736280Y-93060080D01*
X205998418Y-93007937D01*
X206220648Y-92859448D01*
X206369137Y-92637218D01*
X206404333Y-92460280D01*
X206537280Y-92460280D01*
X206799418Y-92408137D01*
X207021648Y-92259648D01*
X207170137Y-92037418D01*
X207222280Y-91775280D01*
X207222280Y-78974780D01*
X207170137Y-78712642D01*
X207021648Y-78490412D01*
X206799418Y-78341923D01*
X206537280Y-78289780D01*
X206404253Y-78289780D01*
X206369137Y-78113242D01*
X206220648Y-77891012D01*
X205998418Y-77742523D01*
X205736280Y-77690380D01*
X191737280Y-77690380D01*
X191475142Y-77742523D01*
X191252912Y-77891012D01*
X191104423Y-78113242D01*
X191069307Y-78289780D01*
X190937280Y-78289780D01*
X190675142Y-78341923D01*
X190452912Y-78490412D01*
X190304423Y-78712642D01*
X190252280Y-78974780D01*
X188172280Y-78974780D01*
X188172280Y-74212280D01*
X188120137Y-73950142D01*
X187971648Y-73727912D01*
X187749418Y-73579423D01*
X187487280Y-73527280D01*
X187354253Y-73527280D01*
X187319137Y-73350742D01*
X187170648Y-73128512D01*
X186948418Y-72980023D01*
X186686280Y-72927880D01*
X172686980Y-72927880D01*
X172424842Y-72980023D01*
X172202612Y-73128512D01*
X172054123Y-73350742D01*
X172019007Y-73527280D01*
X171887580Y-73527280D01*
X171625442Y-73579423D01*
X171403212Y-73727912D01*
X171254723Y-73950142D01*
X171202580Y-74212280D01*
X169120680Y-74212280D01*
X169120680Y-71830980D01*
X169068537Y-71568842D01*
X168920048Y-71346612D01*
X168697818Y-71198123D01*
X168435680Y-71145980D01*
X168304233Y-71145980D01*
X168269137Y-70969542D01*
X168120648Y-70747312D01*
X167898418Y-70598823D01*
X167636280Y-70546680D01*
X153636980Y-70546680D01*
X153374842Y-70598823D01*
X153152612Y-70747312D01*
X153004123Y-70969542D01*
X152969027Y-71145980D01*
X152837580Y-71145980D01*
X152575442Y-71198123D01*
X152353212Y-71346612D01*
X152204723Y-71568842D01*
X152152580Y-71830980D01*
X150072080Y-71830980D01*
X150072080Y-69449780D01*
X150019937Y-69187642D01*
X149871448Y-68965412D01*
X149649218Y-68816923D01*
X149387080Y-68764780D01*
X149254253Y-68764780D01*
X149219137Y-68588242D01*
X149070648Y-68366012D01*
X148848418Y-68217523D01*
X148586280Y-68165380D01*
X134586980Y-68165380D01*
X134324842Y-68217523D01*
X134102612Y-68366012D01*
X133954123Y-68588242D01*
X133919007Y-68764780D01*
X133787580Y-68764780D01*
X133525442Y-68816923D01*
X133303212Y-68965412D01*
X133154723Y-69187642D01*
X133102580Y-69449780D01*
X92922080Y-69449780D01*
X92922080Y-57543480D01*
X92869937Y-57281342D01*
X92721448Y-57059112D01*
X92499218Y-56910623D01*
X92237080Y-56858480D01*
X92104433Y-56858480D01*
X92069337Y-56682042D01*
X91920848Y-56459812D01*
X91698618Y-56311323D01*
X91436480Y-56259180D01*
X77436930Y-56259180D01*
X77174792Y-56311323D01*
X76952562Y-56459812D01*
X76804073Y-56682042D01*
X76768977Y-56858480D01*
X76637670Y-56858480D01*
X76375532Y-56910623D01*
X76153302Y-57059112D01*
X76004813Y-57281342D01*
X75952670Y-57543480D01*
X69925000Y-57543480D01*
X69925000Y-55162280D01*
X95002680Y-55162280D01*
X95002680Y-67962780D01*
X95054823Y-68224918D01*
X95203312Y-68447148D01*
X95425542Y-68595637D01*
X95687680Y-68647780D01*
X95818927Y-68647780D01*
X95854123Y-68824718D01*
X96002612Y-69046948D01*
X96224842Y-69195437D01*
X96486980Y-69247580D01*
X110486280Y-69247580D01*
X110748418Y-69195437D01*
X110970648Y-69046948D01*
X111119137Y-68824718D01*
X111154333Y-68647780D01*
X111287080Y-68647780D01*
X111549218Y-68595637D01*
X111771448Y-68447148D01*
X111919937Y-68224918D01*
X111972080Y-67962780D01*
X111972080Y-55162280D01*
X111919937Y-54900142D01*
X111771448Y-54677912D01*
X111549218Y-54529423D01*
X111287080Y-54477280D01*
X111154253Y-54477280D01*
X111119137Y-54300742D01*
X110970648Y-54078512D01*
X110748418Y-53930023D01*
X110486280Y-53877880D01*
X96486980Y-53877880D01*
X96224842Y-53930023D01*
X96002612Y-54078512D01*
X95854123Y-54300742D01*
X95819007Y-54477280D01*
X95687680Y-54477280D01*
X95425542Y-54529423D01*
X95203312Y-54677912D01*
X95054823Y-54900142D01*
X95002680Y-55162280D01*
X69925000Y-55162280D01*
X69925000Y-51781593D01*
X70644677Y-51781593D01*
X70654975Y-52097507D01*
X70654699Y-52413599D01*
X70666184Y-52441395D01*
X70667164Y-52471453D01*
X70887901Y-53004359D01*
X70900954Y-53009581D01*
X70918281Y-53051515D01*
X71405918Y-53540004D01*
X71450149Y-53558370D01*
X71455641Y-53572099D01*
X71751448Y-53683481D01*
X72043373Y-53804699D01*
X72073448Y-53804725D01*
X72101593Y-53815323D01*
X72417507Y-53805025D01*
X72733599Y-53805301D01*
X72761395Y-53793816D01*
X72791453Y-53792836D01*
X73324359Y-53572099D01*
X73329581Y-53559046D01*
X73371515Y-53541719D01*
X73860004Y-53054082D01*
X73878370Y-53009851D01*
X73892099Y-53004359D01*
X73976209Y-52780980D01*
X114052580Y-52780980D01*
X114052580Y-65581580D01*
X114104723Y-65843718D01*
X114253212Y-66065948D01*
X114475442Y-66214437D01*
X114737580Y-66266580D01*
X114868947Y-66266580D01*
X114904123Y-66443418D01*
X115052612Y-66665648D01*
X115274842Y-66814137D01*
X115536980Y-66866280D01*
X129536280Y-66866280D01*
X129798418Y-66814137D01*
X130020648Y-66665648D01*
X130169137Y-66443418D01*
X130204313Y-66266580D01*
X130337080Y-66266580D01*
X130599218Y-66214437D01*
X130821448Y-66065948D01*
X130969937Y-65843718D01*
X131022080Y-65581580D01*
X131022080Y-52780980D01*
X130969937Y-52518842D01*
X130821448Y-52296612D01*
X130599218Y-52148123D01*
X130337080Y-52095980D01*
X130204233Y-52095980D01*
X130169137Y-51919542D01*
X130020648Y-51697312D01*
X129798418Y-51548823D01*
X129536280Y-51496680D01*
X115536980Y-51496680D01*
X115274842Y-51548823D01*
X115052612Y-51697312D01*
X114904123Y-51919542D01*
X114869027Y-52095980D01*
X114737580Y-52095980D01*
X114475442Y-52148123D01*
X114253212Y-52296612D01*
X114104723Y-52518842D01*
X114052580Y-52780980D01*
X73976209Y-52780980D01*
X74003481Y-52708552D01*
X74124699Y-52416627D01*
X74124725Y-52386552D01*
X74135323Y-52358407D01*
X74125025Y-52042493D01*
X74125301Y-51726401D01*
X74113816Y-51698605D01*
X74112836Y-51668547D01*
X73892099Y-51135641D01*
X73879046Y-51130419D01*
X73861719Y-51088485D01*
X73374082Y-50599996D01*
X73329851Y-50581630D01*
X73324359Y-50567901D01*
X73028552Y-50456519D01*
X72891910Y-50399780D01*
X133102580Y-50399780D01*
X133102580Y-63200280D01*
X133154723Y-63462418D01*
X133303212Y-63684648D01*
X133525442Y-63833137D01*
X133787580Y-63885280D01*
X133918927Y-63885280D01*
X133954123Y-64062218D01*
X134102612Y-64284448D01*
X134324842Y-64432937D01*
X134586980Y-64485080D01*
X148586280Y-64485080D01*
X148848418Y-64432937D01*
X149070648Y-64284448D01*
X149219137Y-64062218D01*
X149254333Y-63885280D01*
X149387080Y-63885280D01*
X149649218Y-63833137D01*
X149871448Y-63684648D01*
X150019937Y-63462418D01*
X150072080Y-63200280D01*
X150072080Y-52780980D01*
X152152580Y-52780980D01*
X152152580Y-65581580D01*
X152204723Y-65843718D01*
X152353212Y-66065948D01*
X152575442Y-66214437D01*
X152837580Y-66266580D01*
X152968947Y-66266580D01*
X153004123Y-66443418D01*
X153152612Y-66665648D01*
X153374842Y-66814137D01*
X153636980Y-66866280D01*
X167636280Y-66866280D01*
X167898418Y-66814137D01*
X168120648Y-66665648D01*
X168269137Y-66443418D01*
X168304313Y-66266580D01*
X168435680Y-66266580D01*
X168697818Y-66214437D01*
X168920048Y-66065948D01*
X169068537Y-65843718D01*
X169120680Y-65581580D01*
X169120680Y-55162280D01*
X171202580Y-55162280D01*
X171202580Y-67962780D01*
X171254723Y-68224918D01*
X171403212Y-68447148D01*
X171625442Y-68595637D01*
X171887580Y-68647780D01*
X172018927Y-68647780D01*
X172054123Y-68824718D01*
X172202612Y-69046948D01*
X172424842Y-69195437D01*
X172686980Y-69247580D01*
X186686280Y-69247580D01*
X186948418Y-69195437D01*
X187170648Y-69046948D01*
X187319137Y-68824718D01*
X187354333Y-68647780D01*
X187487280Y-68647780D01*
X187749418Y-68595637D01*
X187971648Y-68447148D01*
X188120137Y-68224918D01*
X188172280Y-67962780D01*
X188172280Y-59924780D01*
X190252280Y-59924780D01*
X190252280Y-72725280D01*
X190304423Y-72987418D01*
X190452912Y-73209648D01*
X190675142Y-73358137D01*
X190937280Y-73410280D01*
X191069227Y-73410280D01*
X191104423Y-73587218D01*
X191252912Y-73809448D01*
X191475142Y-73957937D01*
X191737280Y-74010080D01*
X205736280Y-74010080D01*
X205998418Y-73957937D01*
X206220648Y-73809448D01*
X206369137Y-73587218D01*
X206404333Y-73410280D01*
X206537280Y-73410280D01*
X206799418Y-73358137D01*
X207021648Y-73209648D01*
X207170137Y-72987418D01*
X207222280Y-72725280D01*
X207222280Y-59924780D01*
X207170137Y-59662642D01*
X207021648Y-59440412D01*
X206799418Y-59291923D01*
X206537280Y-59239780D01*
X206404253Y-59239780D01*
X206369137Y-59063242D01*
X206220648Y-58841012D01*
X205998418Y-58692523D01*
X205736280Y-58640380D01*
X191737280Y-58640380D01*
X191475142Y-58692523D01*
X191252912Y-58841012D01*
X191104423Y-59063242D01*
X191069307Y-59239780D01*
X190937280Y-59239780D01*
X190675142Y-59291923D01*
X190452912Y-59440412D01*
X190304423Y-59662642D01*
X190252280Y-59924780D01*
X188172280Y-59924780D01*
X188172280Y-55162280D01*
X188120137Y-54900142D01*
X187971648Y-54677912D01*
X187749418Y-54529423D01*
X187487280Y-54477280D01*
X187354253Y-54477280D01*
X187319137Y-54300742D01*
X187170648Y-54078512D01*
X186948418Y-53930023D01*
X186686280Y-53877880D01*
X172686980Y-53877880D01*
X172424842Y-53930023D01*
X172202612Y-54078512D01*
X172054123Y-54300742D01*
X172019007Y-54477280D01*
X171887580Y-54477280D01*
X171625442Y-54529423D01*
X171403212Y-54677912D01*
X171254723Y-54900142D01*
X171202580Y-55162280D01*
X169120680Y-55162280D01*
X169120680Y-52780980D01*
X169068537Y-52518842D01*
X168920048Y-52296612D01*
X168697818Y-52148123D01*
X168435680Y-52095980D01*
X168304233Y-52095980D01*
X168269137Y-51919542D01*
X168120648Y-51697312D01*
X167898418Y-51548823D01*
X167636280Y-51496680D01*
X153636980Y-51496680D01*
X153374842Y-51548823D01*
X153152612Y-51697312D01*
X153004123Y-51919542D01*
X152969027Y-52095980D01*
X152837580Y-52095980D01*
X152575442Y-52148123D01*
X152353212Y-52296612D01*
X152204723Y-52518842D01*
X152152580Y-52780980D01*
X150072080Y-52780980D01*
X150072080Y-50399780D01*
X150019937Y-50137642D01*
X149871448Y-49915412D01*
X149649218Y-49766923D01*
X149387080Y-49714780D01*
X149254253Y-49714780D01*
X149219137Y-49538242D01*
X149070648Y-49316012D01*
X148848418Y-49167523D01*
X148586280Y-49115380D01*
X134586980Y-49115380D01*
X134324842Y-49167523D01*
X134102612Y-49316012D01*
X133954123Y-49538242D01*
X133919007Y-49714780D01*
X133787580Y-49714780D01*
X133525442Y-49766923D01*
X133303212Y-49915412D01*
X133154723Y-50137642D01*
X133102580Y-50399780D01*
X72891910Y-50399780D01*
X72736627Y-50335301D01*
X72706552Y-50335275D01*
X72678407Y-50324677D01*
X72362493Y-50334975D01*
X72046401Y-50334699D01*
X72018605Y-50346184D01*
X71988547Y-50347164D01*
X71455641Y-50567901D01*
X71450419Y-50580954D01*
X71408485Y-50598281D01*
X70919996Y-51085918D01*
X70901630Y-51130149D01*
X70887901Y-51135641D01*
X70776519Y-51431448D01*
X70655301Y-51723373D01*
X70655275Y-51753448D01*
X70644677Y-51781593D01*
X69925000Y-51781593D01*
X69925000Y-50967608D01*
X70433516Y-49950576D01*
X70905576Y-49478516D01*
X71978534Y-48942037D01*
X103568624Y-43526593D01*
X114459677Y-43526593D01*
X114469975Y-43842507D01*
X114469699Y-44158599D01*
X114481184Y-44186395D01*
X114482164Y-44216453D01*
X114702901Y-44749359D01*
X114715954Y-44754581D01*
X114733281Y-44796515D01*
X115220918Y-45285004D01*
X115265149Y-45303370D01*
X115270641Y-45317099D01*
X115566448Y-45428481D01*
X115858373Y-45549699D01*
X115888448Y-45549725D01*
X115916593Y-45560323D01*
X116232507Y-45550025D01*
X116548599Y-45550301D01*
X116576395Y-45538816D01*
X116606453Y-45537836D01*
X117139359Y-45317099D01*
X117144581Y-45304046D01*
X117186515Y-45286719D01*
X117675004Y-44799082D01*
X117693370Y-44754851D01*
X117707099Y-44749359D01*
X117818481Y-44453552D01*
X117939699Y-44161627D01*
X117939725Y-44131552D01*
X117950323Y-44103407D01*
X117940025Y-43787493D01*
X117940252Y-43526593D01*
X168434677Y-43526593D01*
X168444975Y-43842507D01*
X168444699Y-44158599D01*
X168456184Y-44186395D01*
X168457164Y-44216453D01*
X168677901Y-44749359D01*
X168690954Y-44754581D01*
X168708281Y-44796515D01*
X169195918Y-45285004D01*
X169240149Y-45303370D01*
X169245641Y-45317099D01*
X169541448Y-45428481D01*
X169833373Y-45549699D01*
X169863448Y-45549725D01*
X169891593Y-45560323D01*
X170207507Y-45550025D01*
X170523599Y-45550301D01*
X170551395Y-45538816D01*
X170581453Y-45537836D01*
X171114359Y-45317099D01*
X171119581Y-45304046D01*
X171161515Y-45286719D01*
X171650004Y-44799082D01*
X171668370Y-44754851D01*
X171682099Y-44749359D01*
X171793481Y-44453552D01*
X171914699Y-44161627D01*
X171914725Y-44131552D01*
X171925323Y-44103407D01*
X171915025Y-43787493D01*
X171915252Y-43526593D01*
X209074677Y-43526593D01*
X209084975Y-43842507D01*
X209084699Y-44158599D01*
X209096184Y-44186395D01*
X209097164Y-44216453D01*
X209317901Y-44749359D01*
X209330954Y-44754581D01*
X209348281Y-44796515D01*
X209835918Y-45285004D01*
X209880149Y-45303370D01*
X209885641Y-45317099D01*
X210181448Y-45428481D01*
X210473373Y-45549699D01*
X210503448Y-45549725D01*
X210531593Y-45560323D01*
X210847507Y-45550025D01*
X211163599Y-45550301D01*
X211191395Y-45538816D01*
X211221453Y-45537836D01*
X211754359Y-45317099D01*
X211759581Y-45304046D01*
X211801515Y-45286719D01*
X212290004Y-44799082D01*
X212308370Y-44754851D01*
X212322099Y-44749359D01*
X212433481Y-44453552D01*
X212554699Y-44161627D01*
X212554725Y-44131552D01*
X212565323Y-44103407D01*
X212555025Y-43787493D01*
X212555301Y-43471401D01*
X212543816Y-43443605D01*
X212542836Y-43413547D01*
X212322099Y-42880641D01*
X212309046Y-42875419D01*
X212291719Y-42833485D01*
X211804082Y-42344996D01*
X211759851Y-42326630D01*
X211754359Y-42312901D01*
X211458552Y-42201519D01*
X211166627Y-42080301D01*
X211136552Y-42080275D01*
X211108407Y-42069677D01*
X210792493Y-42079975D01*
X210476401Y-42079699D01*
X210448605Y-42091184D01*
X210418547Y-42092164D01*
X209885641Y-42312901D01*
X209880419Y-42325954D01*
X209838485Y-42343281D01*
X209349996Y-42830918D01*
X209331630Y-42875149D01*
X209317901Y-42880641D01*
X209206519Y-43176448D01*
X209085301Y-43468373D01*
X209085275Y-43498448D01*
X209074677Y-43526593D01*
X171915252Y-43526593D01*
X171915301Y-43471401D01*
X171903816Y-43443605D01*
X171902836Y-43413547D01*
X171682099Y-42880641D01*
X171669046Y-42875419D01*
X171651719Y-42833485D01*
X171164082Y-42344996D01*
X171119851Y-42326630D01*
X171114359Y-42312901D01*
X170818552Y-42201519D01*
X170526627Y-42080301D01*
X170496552Y-42080275D01*
X170468407Y-42069677D01*
X170152493Y-42079975D01*
X169836401Y-42079699D01*
X169808605Y-42091184D01*
X169778547Y-42092164D01*
X169245641Y-42312901D01*
X169240419Y-42325954D01*
X169198485Y-42343281D01*
X168709996Y-42830918D01*
X168691630Y-42875149D01*
X168677901Y-42880641D01*
X168566519Y-43176448D01*
X168445301Y-43468373D01*
X168445275Y-43498448D01*
X168434677Y-43526593D01*
X117940252Y-43526593D01*
X117940301Y-43471401D01*
X117928816Y-43443605D01*
X117927836Y-43413547D01*
X117707099Y-42880641D01*
X117694046Y-42875419D01*
X117676719Y-42833485D01*
X117189082Y-42344996D01*
X117144851Y-42326630D01*
X117139359Y-42312901D01*
X116843552Y-42201519D01*
X116551627Y-42080301D01*
X116521552Y-42080275D01*
X116493407Y-42069677D01*
X116177493Y-42079975D01*
X115861401Y-42079699D01*
X115833605Y-42091184D01*
X115803547Y-42092164D01*
X115270641Y-42312901D01*
X115265419Y-42325954D01*
X115223485Y-42343281D01*
X114734996Y-42830918D01*
X114716630Y-42875149D01*
X114702901Y-42880641D01*
X114591519Y-43176448D01*
X114470301Y-43468373D01*
X114470275Y-43498448D01*
X114459677Y-43526593D01*
X103568624Y-43526593D01*
X116265417Y-41350000D01*
X210750069Y-41350000D01*
X211757993Y-41550488D01*
G36*
X208502149Y-106408593D02*
X208445240Y-106507264D01*
X208402407Y-106633633D01*
X208359579Y-106759349D01*
X208359613Y-106759883D01*
X208359441Y-106760392D01*
X208368214Y-106893337D01*
X208376768Y-107026069D01*
X208377005Y-107026550D01*
X208377040Y-107027086D01*
X208436044Y-107146600D01*
X208494719Y-107265908D01*
X208495121Y-107266262D01*
X208495359Y-107266743D01*
X208595652Y-107354619D01*
X208630686Y-107385411D01*
X192772895Y-134852587D01*
X192730060Y-134838090D01*
X192604800Y-134795206D01*
X192603578Y-134795283D01*
X192602417Y-134794890D01*
X192470191Y-134803676D01*
X192338054Y-134811991D01*
X192336954Y-134812530D01*
X192335731Y-134812611D01*
X192216927Y-134871333D01*
X192098037Y-134929578D01*
X192097227Y-134930497D01*
X192096128Y-134931040D01*
X192008846Y-135030747D01*
X191921287Y-135130065D01*
X191863429Y-135229677D01*
X181963734Y-129514378D01*
X182020472Y-129416249D01*
X182020474Y-129416247D01*
X182020475Y-129416245D01*
X182020629Y-129415978D01*
X182063140Y-129291005D01*
X182106662Y-129163251D01*
X182106652Y-129163091D01*
X182106702Y-129162943D01*
X182098106Y-129030488D01*
X182089472Y-128896531D01*
X182089402Y-128896389D01*
X182089392Y-128896231D01*
X182030359Y-128776331D01*
X181971522Y-128656692D01*
X181971403Y-128656588D01*
X181971333Y-128656445D01*
X181870078Y-128567532D01*
X181835651Y-128537274D01*
X183008346Y-126506946D01*
X183008684Y-126505952D01*
X183009376Y-126505158D01*
X183051694Y-126379320D01*
X183094303Y-126253872D01*
X183094234Y-126252823D01*
X183094570Y-126251825D01*
X183085519Y-126119481D01*
X183076871Y-125987168D01*
X183076406Y-125986224D01*
X183076334Y-125985175D01*
X183017298Y-125866311D01*
X182958701Y-125747436D01*
X182957912Y-125746743D01*
X182957443Y-125745800D01*
X182857308Y-125658484D01*
X182757786Y-125571174D01*
X182756792Y-125570836D01*
X182755998Y-125570144D01*
X182706963Y-125542019D01*
X183670567Y-123874710D01*
X183717048Y-123901708D01*
X183717788Y-123901961D01*
X183718379Y-123902480D01*
X183844343Y-123945291D01*
X183969911Y-123988283D01*
X183970694Y-123988234D01*
X183971436Y-123988486D01*
X184103999Y-123979847D01*
X184236658Y-123971501D01*
X184237362Y-123971156D01*
X184238144Y-123971105D01*
X184357331Y-123912383D01*
X184476677Y-123853916D01*
X184477195Y-123853328D01*
X184477898Y-123852982D01*
X184565622Y-123753028D01*
X184653428Y-123653432D01*
X184653681Y-123652692D01*
X184654200Y-123652101D01*
X194910720Y-105902581D01*
X194953547Y-105776570D01*
X194996524Y-105651037D01*
X194996475Y-105650261D01*
X194996726Y-105649523D01*
X194988078Y-105516818D01*
X194979738Y-105384291D01*
X194979396Y-105383592D01*
X194979345Y-105382816D01*
X194920649Y-105263681D01*
X194862150Y-105144274D01*
X194861566Y-105143759D01*
X194861222Y-105143061D01*
X194761249Y-105055321D01*
X194661662Y-104967526D01*
X194605670Y-104935004D01*
X195576850Y-103251757D01*
X195639127Y-103286269D01*
X195760969Y-103325257D01*
X195882140Y-103366311D01*
X195888049Y-103365920D01*
X195893686Y-103367724D01*
X196021169Y-103357118D01*
X196148831Y-103348677D01*
X196154138Y-103346056D01*
X196160040Y-103345565D01*
X196273792Y-103286963D01*
X196388473Y-103230327D01*
X196392374Y-103225874D01*
X196397638Y-103223162D01*
X196480306Y-103125491D01*
X196564584Y-103029279D01*
X197693585Y-101071193D01*
X197737860Y-101086150D01*
X197864512Y-101129079D01*
X197864872Y-101129055D01*
X197865212Y-101129170D01*
X197998129Y-101120262D01*
X198131206Y-101111480D01*
X198131528Y-101111321D01*
X198131887Y-101111297D01*
X198251531Y-101052075D01*
X198370863Y-100993161D01*
X198371099Y-100992891D01*
X198371423Y-100992731D01*
X198459149Y-100892400D01*
X198547000Y-100792136D01*
X198603620Y-100693967D01*
X208502149Y-106408593D01*
X208502149Y-106408593D01*
G37*
X208502149Y-106408593D02*
X208445240Y-106507264D01*
X208402407Y-106633633D01*
X208359579Y-106759349D01*
X208359613Y-106759883D01*
X208359441Y-106760392D01*
X208368214Y-106893337D01*
X208376768Y-107026069D01*
X208377005Y-107026550D01*
X208377040Y-107027086D01*
X208436044Y-107146600D01*
X208494719Y-107265908D01*
X208495121Y-107266262D01*
X208495359Y-107266743D01*
X208595652Y-107354619D01*
X208630686Y-107385411D01*
X192772895Y-134852587D01*
X192730060Y-134838090D01*
X192604800Y-134795206D01*
X192603578Y-134795283D01*
X192602417Y-134794890D01*
X192470191Y-134803676D01*
X192338054Y-134811991D01*
X192336954Y-134812530D01*
X192335731Y-134812611D01*
X192216927Y-134871333D01*
X192098037Y-134929578D01*
X192097227Y-134930497D01*
X192096128Y-134931040D01*
X192008846Y-135030747D01*
X191921287Y-135130065D01*
X191863429Y-135229677D01*
X181963734Y-129514378D01*
X182020472Y-129416249D01*
X182020474Y-129416247D01*
X182020475Y-129416245D01*
X182020629Y-129415978D01*
X182063140Y-129291005D01*
X182106662Y-129163251D01*
X182106652Y-129163091D01*
X182106702Y-129162943D01*
X182098106Y-129030488D01*
X182089472Y-128896531D01*
X182089402Y-128896389D01*
X182089392Y-128896231D01*
X182030359Y-128776331D01*
X181971522Y-128656692D01*
X181971403Y-128656588D01*
X181971333Y-128656445D01*
X181870078Y-128567532D01*
X181835651Y-128537274D01*
X183008346Y-126506946D01*
X183008684Y-126505952D01*
X183009376Y-126505158D01*
X183051694Y-126379320D01*
X183094303Y-126253872D01*
X183094234Y-126252823D01*
X183094570Y-126251825D01*
X183085519Y-126119481D01*
X183076871Y-125987168D01*
X183076406Y-125986224D01*
X183076334Y-125985175D01*
X183017298Y-125866311D01*
X182958701Y-125747436D01*
X182957912Y-125746743D01*
X182957443Y-125745800D01*
X182857308Y-125658484D01*
X182757786Y-125571174D01*
X182756792Y-125570836D01*
X182755998Y-125570144D01*
X182706963Y-125542019D01*
X183670567Y-123874710D01*
X183717048Y-123901708D01*
X183717788Y-123901961D01*
X183718379Y-123902480D01*
X183844343Y-123945291D01*
X183969911Y-123988283D01*
X183970694Y-123988234D01*
X183971436Y-123988486D01*
X184103999Y-123979847D01*
X184236658Y-123971501D01*
X184237362Y-123971156D01*
X184238144Y-123971105D01*
X184357331Y-123912383D01*
X184476677Y-123853916D01*
X184477195Y-123853328D01*
X184477898Y-123852982D01*
X184565622Y-123753028D01*
X184653428Y-123653432D01*
X184653681Y-123652692D01*
X184654200Y-123652101D01*
X194910720Y-105902581D01*
X194953547Y-105776570D01*
X194996524Y-105651037D01*
X194996475Y-105650261D01*
X194996726Y-105649523D01*
X194988078Y-105516818D01*
X194979738Y-105384291D01*
X194979396Y-105383592D01*
X194979345Y-105382816D01*
X194920649Y-105263681D01*
X194862150Y-105144274D01*
X194861566Y-105143759D01*
X194861222Y-105143061D01*
X194761249Y-105055321D01*
X194661662Y-104967526D01*
X194605670Y-104935004D01*
X195576850Y-103251757D01*
X195639127Y-103286269D01*
X195760969Y-103325257D01*
X195882140Y-103366311D01*
X195888049Y-103365920D01*
X195893686Y-103367724D01*
X196021169Y-103357118D01*
X196148831Y-103348677D01*
X196154138Y-103346056D01*
X196160040Y-103345565D01*
X196273792Y-103286963D01*
X196388473Y-103230327D01*
X196392374Y-103225874D01*
X196397638Y-103223162D01*
X196480306Y-103125491D01*
X196564584Y-103029279D01*
X197693585Y-101071193D01*
X197737860Y-101086150D01*
X197864512Y-101129079D01*
X197864872Y-101129055D01*
X197865212Y-101129170D01*
X197998129Y-101120262D01*
X198131206Y-101111480D01*
X198131528Y-101111321D01*
X198131887Y-101111297D01*
X198251531Y-101052075D01*
X198370863Y-100993161D01*
X198371099Y-100992891D01*
X198371423Y-100992731D01*
X198459149Y-100892400D01*
X198547000Y-100792136D01*
X198603620Y-100693967D01*
X208502149Y-106408593D01*
G36*
X90803623Y-114955718D02*
X90952112Y-115177948D01*
X91174342Y-115326437D01*
X91436480Y-115378580D01*
X91552080Y-115378580D01*
X91552080Y-126807880D01*
X91436480Y-126807880D01*
X91174342Y-126860023D01*
X90952112Y-127008512D01*
X90803623Y-127230742D01*
X90768229Y-127408680D01*
X78105181Y-127408680D01*
X78069787Y-127230742D01*
X77921298Y-127008512D01*
X77699068Y-126860023D01*
X77436930Y-126807880D01*
X77322670Y-126807880D01*
X77322670Y-115378580D01*
X77436930Y-115378580D01*
X77699068Y-115326437D01*
X77921298Y-115177948D01*
X78069787Y-114955718D01*
X78104903Y-114779180D01*
X90768507Y-114779180D01*
X90803623Y-114955718D01*
X90803623Y-114955718D01*
G37*
X90803623Y-114955718D02*
X90952112Y-115177948D01*
X91174342Y-115326437D01*
X91436480Y-115378580D01*
X91552080Y-115378580D01*
X91552080Y-126807880D01*
X91436480Y-126807880D01*
X91174342Y-126860023D01*
X90952112Y-127008512D01*
X90803623Y-127230742D01*
X90768229Y-127408680D01*
X78105181Y-127408680D01*
X78069787Y-127230742D01*
X77921298Y-127008512D01*
X77699068Y-126860023D01*
X77436930Y-126807880D01*
X77322670Y-126807880D01*
X77322670Y-115378580D01*
X77436930Y-115378580D01*
X77699068Y-115326437D01*
X77921298Y-115177948D01*
X78069787Y-114955718D01*
X78104903Y-114779180D01*
X90768507Y-114779180D01*
X90803623Y-114955718D01*
G36*
X174517566Y-113242921D02*
X174518603Y-113290358D01*
X174521335Y-113423112D01*
X174521512Y-113423516D01*
X174521522Y-113423959D01*
X174575235Y-113546022D01*
X174628675Y-113667884D01*
X174628994Y-113668190D01*
X174629172Y-113668595D01*
X174725414Y-113760721D01*
X174821514Y-113852946D01*
X174821926Y-113853107D01*
X174822246Y-113853413D01*
X174946788Y-113901841D01*
X175070495Y-113950125D01*
X175070935Y-113950116D01*
X175071349Y-113950277D01*
X175185713Y-113970439D01*
X173200691Y-125226044D01*
X173087325Y-125206021D01*
X173086749Y-125206033D01*
X173086214Y-125205826D01*
X172953023Y-125208913D01*
X172820114Y-125211775D01*
X172819589Y-125212006D01*
X172819012Y-125212019D01*
X172696716Y-125266028D01*
X172575444Y-125319347D01*
X172575048Y-125319760D01*
X172574519Y-125319994D01*
X172482178Y-125416718D01*
X172390565Y-125512362D01*
X172390357Y-125512896D01*
X172389958Y-125513314D01*
X172341790Y-125637678D01*
X172324952Y-125680938D01*
X159853660Y-123482145D01*
X159852538Y-123434121D01*
X159849675Y-123301570D01*
X159849427Y-123301005D01*
X159849412Y-123300383D01*
X159795614Y-123178631D01*
X159742088Y-123056907D01*
X159741639Y-123056477D01*
X159741389Y-123055911D01*
X159645164Y-122964081D01*
X159549060Y-122872040D01*
X159548483Y-122871815D01*
X159548034Y-122871387D01*
X159423762Y-122823282D01*
X159299981Y-122775114D01*
X159186080Y-122755004D01*
X161172170Y-111499509D01*
X161283813Y-111519264D01*
X161283816Y-111519265D01*
X161283819Y-111519265D01*
X161284029Y-111519302D01*
X161415801Y-111516505D01*
X161551032Y-111513677D01*
X161551134Y-111513632D01*
X161551242Y-111513630D01*
X161672073Y-111460550D01*
X161795768Y-111406257D01*
X161795845Y-111406177D01*
X161795945Y-111406133D01*
X161888045Y-111310038D01*
X161980767Y-111213356D01*
X161980807Y-111213253D01*
X161980883Y-111213174D01*
X162028847Y-111090052D01*
X162046763Y-111044107D01*
X174517566Y-113242921D01*
X174517566Y-113242921D01*
G37*
X174517566Y-113242921D02*
X174518603Y-113290358D01*
X174521335Y-113423112D01*
X174521512Y-113423516D01*
X174521522Y-113423959D01*
X174575235Y-113546022D01*
X174628675Y-113667884D01*
X174628994Y-113668190D01*
X174629172Y-113668595D01*
X174725414Y-113760721D01*
X174821514Y-113852946D01*
X174821926Y-113853107D01*
X174822246Y-113853413D01*
X174946788Y-113901841D01*
X175070495Y-113950125D01*
X175070935Y-113950116D01*
X175071349Y-113950277D01*
X175185713Y-113970439D01*
X173200691Y-125226044D01*
X173087325Y-125206021D01*
X173086749Y-125206033D01*
X173086214Y-125205826D01*
X172953023Y-125208913D01*
X172820114Y-125211775D01*
X172819589Y-125212006D01*
X172819012Y-125212019D01*
X172696716Y-125266028D01*
X172575444Y-125319347D01*
X172575048Y-125319760D01*
X172574519Y-125319994D01*
X172482178Y-125416718D01*
X172390565Y-125512362D01*
X172390357Y-125512896D01*
X172389958Y-125513314D01*
X172341790Y-125637678D01*
X172324952Y-125680938D01*
X159853660Y-123482145D01*
X159852538Y-123434121D01*
X159849675Y-123301570D01*
X159849427Y-123301005D01*
X159849412Y-123300383D01*
X159795614Y-123178631D01*
X159742088Y-123056907D01*
X159741639Y-123056477D01*
X159741389Y-123055911D01*
X159645164Y-122964081D01*
X159549060Y-122872040D01*
X159548483Y-122871815D01*
X159548034Y-122871387D01*
X159423762Y-122823282D01*
X159299981Y-122775114D01*
X159186080Y-122755004D01*
X161172170Y-111499509D01*
X161283813Y-111519264D01*
X161283816Y-111519265D01*
X161283819Y-111519265D01*
X161284029Y-111519302D01*
X161415801Y-111516505D01*
X161551032Y-111513677D01*
X161551134Y-111513632D01*
X161551242Y-111513630D01*
X161672073Y-111460550D01*
X161795768Y-111406257D01*
X161795845Y-111406177D01*
X161795945Y-111406133D01*
X161888045Y-111310038D01*
X161980767Y-111213356D01*
X161980807Y-111213253D01*
X161980883Y-111213174D01*
X162028847Y-111090052D01*
X162046763Y-111044107D01*
X174517566Y-113242921D01*
G36*
X109853423Y-112574518D02*
X110001912Y-112796748D01*
X110224142Y-112945237D01*
X110486280Y-112997380D01*
X110602080Y-112997380D01*
X110602080Y-124427980D01*
X110486280Y-124427980D01*
X110224142Y-124480123D01*
X110001912Y-124628612D01*
X109853423Y-124850842D01*
X109818287Y-125027480D01*
X97154973Y-125027480D01*
X97119837Y-124850842D01*
X96971348Y-124628612D01*
X96749118Y-124480123D01*
X96486980Y-124427980D01*
X96372680Y-124427980D01*
X96372680Y-112997380D01*
X96486980Y-112997380D01*
X96749118Y-112945237D01*
X96971348Y-112796748D01*
X97119837Y-112574518D01*
X97154953Y-112397980D01*
X109818307Y-112397980D01*
X109853423Y-112574518D01*
X109853423Y-112574518D01*
G37*
X109853423Y-112574518D02*
X110001912Y-112796748D01*
X110224142Y-112945237D01*
X110486280Y-112997380D01*
X110602080Y-112997380D01*
X110602080Y-124427980D01*
X110486280Y-124427980D01*
X110224142Y-124480123D01*
X110001912Y-124628612D01*
X109853423Y-124850842D01*
X109818287Y-125027480D01*
X97154973Y-125027480D01*
X97119837Y-124850842D01*
X96971348Y-124628612D01*
X96749118Y-124480123D01*
X96486980Y-124427980D01*
X96372680Y-124427980D01*
X96372680Y-112997380D01*
X96486980Y-112997380D01*
X96749118Y-112945237D01*
X96971348Y-112796748D01*
X97119837Y-112574518D01*
X97154953Y-112397980D01*
X109818307Y-112397980D01*
X109853423Y-112574518D01*
G36*
X128903423Y-110289718D02*
X129051912Y-110511948D01*
X129274142Y-110660437D01*
X129536280Y-110712580D01*
X129652080Y-110712580D01*
X129652080Y-122141780D01*
X129536280Y-122141780D01*
X129274142Y-122193923D01*
X129051912Y-122342412D01*
X128903423Y-122564642D01*
X128868287Y-122741280D01*
X116204973Y-122741280D01*
X116169837Y-122564642D01*
X116021348Y-122342412D01*
X115799118Y-122193923D01*
X115536980Y-122141780D01*
X115422580Y-122141780D01*
X115422580Y-110712580D01*
X115536980Y-110712580D01*
X115799118Y-110660437D01*
X116021348Y-110511948D01*
X116169837Y-110289718D01*
X116205231Y-110111780D01*
X128868029Y-110111780D01*
X128903423Y-110289718D01*
X128903423Y-110289718D01*
G37*
X128903423Y-110289718D02*
X129051912Y-110511948D01*
X129274142Y-110660437D01*
X129536280Y-110712580D01*
X129652080Y-110712580D01*
X129652080Y-122141780D01*
X129536280Y-122141780D01*
X129274142Y-122193923D01*
X129051912Y-122342412D01*
X128903423Y-122564642D01*
X128868287Y-122741280D01*
X116204973Y-122741280D01*
X116169837Y-122564642D01*
X116021348Y-122342412D01*
X115799118Y-122193923D01*
X115536980Y-122141780D01*
X115422580Y-122141780D01*
X115422580Y-110712580D01*
X115536980Y-110712580D01*
X115799118Y-110660437D01*
X116021348Y-110511948D01*
X116169837Y-110289718D01*
X116205231Y-110111780D01*
X128868029Y-110111780D01*
X128903423Y-110289718D01*
G36*
X147953423Y-107812018D02*
X148101912Y-108034248D01*
X148324142Y-108182737D01*
X148586280Y-108234880D01*
X148702080Y-108234880D01*
X148702080Y-119665480D01*
X148586280Y-119665480D01*
X148324142Y-119717623D01*
X148101912Y-119866112D01*
X147953423Y-120088342D01*
X147918287Y-120264980D01*
X135254973Y-120264980D01*
X135219837Y-120088342D01*
X135071348Y-119866112D01*
X134849118Y-119717623D01*
X134586980Y-119665480D01*
X134472580Y-119665480D01*
X134472580Y-108234880D01*
X134586980Y-108234880D01*
X134849118Y-108182737D01*
X135071348Y-108034248D01*
X135219837Y-107812018D01*
X135254953Y-107635480D01*
X147918307Y-107635480D01*
X147953423Y-107812018D01*
X147953423Y-107812018D01*
G37*
X147953423Y-107812018D02*
X148101912Y-108034248D01*
X148324142Y-108182737D01*
X148586280Y-108234880D01*
X148702080Y-108234880D01*
X148702080Y-119665480D01*
X148586280Y-119665480D01*
X148324142Y-119717623D01*
X148101912Y-119866112D01*
X147953423Y-120088342D01*
X147918287Y-120264980D01*
X135254973Y-120264980D01*
X135219837Y-120088342D01*
X135071348Y-119866112D01*
X134849118Y-119717623D01*
X134586980Y-119665480D01*
X134472580Y-119665480D01*
X134472580Y-108234880D01*
X134586980Y-108234880D01*
X134849118Y-108182737D01*
X135071348Y-108034248D01*
X135219837Y-107812018D01*
X135254953Y-107635480D01*
X147918307Y-107635480D01*
X147953423Y-107812018D01*
G36*
X90803623Y-95905618D02*
X90952112Y-96127848D01*
X91174342Y-96276337D01*
X91436480Y-96328480D01*
X91552080Y-96328480D01*
X91552080Y-107757880D01*
X91436480Y-107757880D01*
X91174342Y-107810023D01*
X90952112Y-107958512D01*
X90803623Y-108180742D01*
X90768229Y-108358680D01*
X78105181Y-108358680D01*
X78069787Y-108180742D01*
X77921298Y-107958512D01*
X77699068Y-107810023D01*
X77436930Y-107757880D01*
X77322670Y-107757880D01*
X77322670Y-96328480D01*
X77436930Y-96328480D01*
X77699068Y-96276337D01*
X77921298Y-96127848D01*
X78069787Y-95905618D01*
X78104883Y-95729180D01*
X90768527Y-95729180D01*
X90803623Y-95905618D01*
X90803623Y-95905618D01*
G37*
X90803623Y-95905618D02*
X90952112Y-96127848D01*
X91174342Y-96276337D01*
X91436480Y-96328480D01*
X91552080Y-96328480D01*
X91552080Y-107757880D01*
X91436480Y-107757880D01*
X91174342Y-107810023D01*
X90952112Y-107958512D01*
X90803623Y-108180742D01*
X90768229Y-108358680D01*
X78105181Y-108358680D01*
X78069787Y-108180742D01*
X77921298Y-107958512D01*
X77699068Y-107810023D01*
X77436930Y-107757880D01*
X77322670Y-107757880D01*
X77322670Y-96328480D01*
X77436930Y-96328480D01*
X77699068Y-96276337D01*
X77921298Y-96127848D01*
X78069787Y-95905618D01*
X78104883Y-95729180D01*
X90768527Y-95729180D01*
X90803623Y-95905618D01*
G36*
X186053423Y-93524418D02*
X186201912Y-93746648D01*
X186424142Y-93895137D01*
X186686280Y-93947280D01*
X186802280Y-93947280D01*
X186802280Y-105377980D01*
X186686280Y-105377980D01*
X186424142Y-105430123D01*
X186201912Y-105578612D01*
X186053423Y-105800842D01*
X186018287Y-105977480D01*
X173354973Y-105977480D01*
X173319837Y-105800842D01*
X173171348Y-105578612D01*
X172949118Y-105430123D01*
X172686980Y-105377980D01*
X172572580Y-105377980D01*
X172572580Y-93947280D01*
X172686980Y-93947280D01*
X172949118Y-93895137D01*
X173171348Y-93746648D01*
X173319837Y-93524418D01*
X173354953Y-93347880D01*
X186018307Y-93347880D01*
X186053423Y-93524418D01*
X186053423Y-93524418D01*
G37*
X186053423Y-93524418D02*
X186201912Y-93746648D01*
X186424142Y-93895137D01*
X186686280Y-93947280D01*
X186802280Y-93947280D01*
X186802280Y-105377980D01*
X186686280Y-105377980D01*
X186424142Y-105430123D01*
X186201912Y-105578612D01*
X186053423Y-105800842D01*
X186018287Y-105977480D01*
X173354973Y-105977480D01*
X173319837Y-105800842D01*
X173171348Y-105578612D01*
X172949118Y-105430123D01*
X172686980Y-105377980D01*
X172572580Y-105377980D01*
X172572580Y-93947280D01*
X172686980Y-93947280D01*
X172949118Y-93895137D01*
X173171348Y-93746648D01*
X173319837Y-93524418D01*
X173354953Y-93347880D01*
X186018307Y-93347880D01*
X186053423Y-93524418D01*
G36*
X109853423Y-93524418D02*
X110001912Y-93746648D01*
X110224142Y-93895137D01*
X110486280Y-93947280D01*
X110602080Y-93947280D01*
X110602080Y-105377980D01*
X110486280Y-105377980D01*
X110224142Y-105430123D01*
X110001912Y-105578612D01*
X109853423Y-105800842D01*
X109818287Y-105977480D01*
X97154973Y-105977480D01*
X97119837Y-105800842D01*
X96971348Y-105578612D01*
X96749118Y-105430123D01*
X96486980Y-105377980D01*
X96372680Y-105377980D01*
X96372680Y-93947280D01*
X96486980Y-93947280D01*
X96749118Y-93895137D01*
X96971348Y-93746648D01*
X97119837Y-93524418D01*
X97154953Y-93347880D01*
X109818307Y-93347880D01*
X109853423Y-93524418D01*
X109853423Y-93524418D01*
G37*
X109853423Y-93524418D02*
X110001912Y-93746648D01*
X110224142Y-93895137D01*
X110486280Y-93947280D01*
X110602080Y-93947280D01*
X110602080Y-105377980D01*
X110486280Y-105377980D01*
X110224142Y-105430123D01*
X110001912Y-105578612D01*
X109853423Y-105800842D01*
X109818287Y-105977480D01*
X97154973Y-105977480D01*
X97119837Y-105800842D01*
X96971348Y-105578612D01*
X96749118Y-105430123D01*
X96486980Y-105377980D01*
X96372680Y-105377980D01*
X96372680Y-93947280D01*
X96486980Y-93947280D01*
X96749118Y-93895137D01*
X96971348Y-93746648D01*
X97119837Y-93524418D01*
X97154953Y-93347880D01*
X109818307Y-93347880D01*
X109853423Y-93524418D01*
G36*
X128903423Y-91143118D02*
X129051912Y-91365348D01*
X129274142Y-91513837D01*
X129536280Y-91565980D01*
X129652080Y-91565980D01*
X129652080Y-102996580D01*
X129536280Y-102996580D01*
X129274142Y-103048723D01*
X129051912Y-103197212D01*
X128903423Y-103419442D01*
X128868267Y-103596180D01*
X116204993Y-103596180D01*
X116169837Y-103419442D01*
X116021348Y-103197212D01*
X115799118Y-103048723D01*
X115536980Y-102996580D01*
X115422580Y-102996580D01*
X115422580Y-91565980D01*
X115536980Y-91565980D01*
X115799118Y-91513837D01*
X116021348Y-91365348D01*
X116169837Y-91143118D01*
X116204933Y-90966680D01*
X128868327Y-90966680D01*
X128903423Y-91143118D01*
X128903423Y-91143118D01*
G37*
X128903423Y-91143118D02*
X129051912Y-91365348D01*
X129274142Y-91513837D01*
X129536280Y-91565980D01*
X129652080Y-91565980D01*
X129652080Y-102996580D01*
X129536280Y-102996580D01*
X129274142Y-103048723D01*
X129051912Y-103197212D01*
X128903423Y-103419442D01*
X128868267Y-103596180D01*
X116204993Y-103596180D01*
X116169837Y-103419442D01*
X116021348Y-103197212D01*
X115799118Y-103048723D01*
X115536980Y-102996580D01*
X115422580Y-102996580D01*
X115422580Y-91565980D01*
X115536980Y-91565980D01*
X115799118Y-91513837D01*
X116021348Y-91365348D01*
X116169837Y-91143118D01*
X116204933Y-90966680D01*
X128868327Y-90966680D01*
X128903423Y-91143118D01*
G36*
X167003423Y-91143118D02*
X167151912Y-91365348D01*
X167374142Y-91513837D01*
X167636280Y-91565980D01*
X167750680Y-91565980D01*
X167750680Y-102996580D01*
X167636280Y-102996580D01*
X167374142Y-103048723D01*
X167151912Y-103197212D01*
X167003423Y-103419442D01*
X166968267Y-103596180D01*
X154304993Y-103596180D01*
X154269837Y-103419442D01*
X154121348Y-103197212D01*
X153899118Y-103048723D01*
X153636980Y-102996580D01*
X153522580Y-102996580D01*
X153522580Y-91565980D01*
X153636980Y-91565980D01*
X153899118Y-91513837D01*
X154121348Y-91365348D01*
X154269837Y-91143118D01*
X154304933Y-90966680D01*
X166968327Y-90966680D01*
X167003423Y-91143118D01*
X167003423Y-91143118D01*
G37*
X167003423Y-91143118D02*
X167151912Y-91365348D01*
X167374142Y-91513837D01*
X167636280Y-91565980D01*
X167750680Y-91565980D01*
X167750680Y-102996580D01*
X167636280Y-102996580D01*
X167374142Y-103048723D01*
X167151912Y-103197212D01*
X167003423Y-103419442D01*
X166968267Y-103596180D01*
X154304993Y-103596180D01*
X154269837Y-103419442D01*
X154121348Y-103197212D01*
X153899118Y-103048723D01*
X153636980Y-102996580D01*
X153522580Y-102996580D01*
X153522580Y-91565980D01*
X153636980Y-91565980D01*
X153899118Y-91513837D01*
X154121348Y-91365348D01*
X154269837Y-91143118D01*
X154304933Y-90966680D01*
X166968327Y-90966680D01*
X167003423Y-91143118D01*
G36*
X147953423Y-88761918D02*
X148101912Y-88984148D01*
X148324142Y-89132637D01*
X148586280Y-89184780D01*
X148702080Y-89184780D01*
X148702080Y-100615280D01*
X148586280Y-100615280D01*
X148324142Y-100667423D01*
X148101912Y-100815912D01*
X147953423Y-101038142D01*
X147918227Y-101215080D01*
X135255033Y-101215080D01*
X135219837Y-101038142D01*
X135071348Y-100815912D01*
X134849118Y-100667423D01*
X134586980Y-100615280D01*
X134472580Y-100615280D01*
X134472580Y-89184780D01*
X134586980Y-89184780D01*
X134849118Y-89132637D01*
X135071348Y-88984148D01*
X135219837Y-88761918D01*
X135254953Y-88585380D01*
X147918307Y-88585380D01*
X147953423Y-88761918D01*
X147953423Y-88761918D01*
G37*
X147953423Y-88761918D02*
X148101912Y-88984148D01*
X148324142Y-89132637D01*
X148586280Y-89184780D01*
X148702080Y-89184780D01*
X148702080Y-100615280D01*
X148586280Y-100615280D01*
X148324142Y-100667423D01*
X148101912Y-100815912D01*
X147953423Y-101038142D01*
X147918227Y-101215080D01*
X135255033Y-101215080D01*
X135219837Y-101038142D01*
X135071348Y-100815912D01*
X134849118Y-100667423D01*
X134586980Y-100615280D01*
X134472580Y-100615280D01*
X134472580Y-89184780D01*
X134586980Y-89184780D01*
X134849118Y-89132637D01*
X135071348Y-88984148D01*
X135219837Y-88761918D01*
X135254953Y-88585380D01*
X147918307Y-88585380D01*
X147953423Y-88761918D01*
G36*
X205103423Y-79236918D02*
X205251912Y-79459148D01*
X205474142Y-79607637D01*
X205736280Y-79659780D01*
X205852280Y-79659780D01*
X205852280Y-91090280D01*
X205736280Y-91090280D01*
X205474142Y-91142423D01*
X205251912Y-91290912D01*
X205103423Y-91513142D01*
X205068227Y-91690080D01*
X192405333Y-91690080D01*
X192370137Y-91513142D01*
X192221648Y-91290912D01*
X191999418Y-91142423D01*
X191737280Y-91090280D01*
X191622280Y-91090280D01*
X191622280Y-79659780D01*
X191737280Y-79659780D01*
X191999418Y-79607637D01*
X192221648Y-79459148D01*
X192370137Y-79236918D01*
X192405253Y-79060380D01*
X205068307Y-79060380D01*
X205103423Y-79236918D01*
X205103423Y-79236918D01*
G37*
X205103423Y-79236918D02*
X205251912Y-79459148D01*
X205474142Y-79607637D01*
X205736280Y-79659780D01*
X205852280Y-79659780D01*
X205852280Y-91090280D01*
X205736280Y-91090280D01*
X205474142Y-91142423D01*
X205251912Y-91290912D01*
X205103423Y-91513142D01*
X205068227Y-91690080D01*
X192405333Y-91690080D01*
X192370137Y-91513142D01*
X192221648Y-91290912D01*
X191999418Y-91142423D01*
X191737280Y-91090280D01*
X191622280Y-91090280D01*
X191622280Y-79659780D01*
X191737280Y-79659780D01*
X191999418Y-79607637D01*
X192221648Y-79459148D01*
X192370137Y-79236918D01*
X192405253Y-79060380D01*
X205068307Y-79060380D01*
X205103423Y-79236918D01*
G36*
X90803623Y-76855618D02*
X90952112Y-77077848D01*
X91174342Y-77226337D01*
X91436480Y-77278480D01*
X91552080Y-77278480D01*
X91552080Y-88707980D01*
X91436480Y-88707980D01*
X91174342Y-88760123D01*
X90952112Y-88908612D01*
X90803623Y-89130842D01*
X90768229Y-89308780D01*
X78105181Y-89308780D01*
X78069787Y-89130842D01*
X77921298Y-88908612D01*
X77699068Y-88760123D01*
X77436930Y-88707980D01*
X77322670Y-88707980D01*
X77322670Y-77278480D01*
X77436930Y-77278480D01*
X77699068Y-77226337D01*
X77921298Y-77077848D01*
X78069787Y-76855618D01*
X78104883Y-76679180D01*
X90768527Y-76679180D01*
X90803623Y-76855618D01*
X90803623Y-76855618D01*
G37*
X90803623Y-76855618D02*
X90952112Y-77077848D01*
X91174342Y-77226337D01*
X91436480Y-77278480D01*
X91552080Y-77278480D01*
X91552080Y-88707980D01*
X91436480Y-88707980D01*
X91174342Y-88760123D01*
X90952112Y-88908612D01*
X90803623Y-89130842D01*
X90768229Y-89308780D01*
X78105181Y-89308780D01*
X78069787Y-89130842D01*
X77921298Y-88908612D01*
X77699068Y-88760123D01*
X77436930Y-88707980D01*
X77322670Y-88707980D01*
X77322670Y-77278480D01*
X77436930Y-77278480D01*
X77699068Y-77226337D01*
X77921298Y-77077848D01*
X78069787Y-76855618D01*
X78104883Y-76679180D01*
X90768527Y-76679180D01*
X90803623Y-76855618D01*
G36*
X109853423Y-74474418D02*
X110001912Y-74696648D01*
X110224142Y-74845137D01*
X110486280Y-74897280D01*
X110602080Y-74897280D01*
X110602080Y-86327780D01*
X110486280Y-86327780D01*
X110224142Y-86379923D01*
X110001912Y-86528412D01*
X109853423Y-86750642D01*
X109818227Y-86927580D01*
X97155033Y-86927580D01*
X97119837Y-86750642D01*
X96971348Y-86528412D01*
X96749118Y-86379923D01*
X96486980Y-86327780D01*
X96372680Y-86327780D01*
X96372680Y-74897280D01*
X96486980Y-74897280D01*
X96749118Y-74845137D01*
X96971348Y-74696648D01*
X97119837Y-74474418D01*
X97154953Y-74297880D01*
X109818307Y-74297880D01*
X109853423Y-74474418D01*
X109853423Y-74474418D01*
G37*
X109853423Y-74474418D02*
X110001912Y-74696648D01*
X110224142Y-74845137D01*
X110486280Y-74897280D01*
X110602080Y-74897280D01*
X110602080Y-86327780D01*
X110486280Y-86327780D01*
X110224142Y-86379923D01*
X110001912Y-86528412D01*
X109853423Y-86750642D01*
X109818227Y-86927580D01*
X97155033Y-86927580D01*
X97119837Y-86750642D01*
X96971348Y-86528412D01*
X96749118Y-86379923D01*
X96486980Y-86327780D01*
X96372680Y-86327780D01*
X96372680Y-74897280D01*
X96486980Y-74897280D01*
X96749118Y-74845137D01*
X96971348Y-74696648D01*
X97119837Y-74474418D01*
X97154953Y-74297880D01*
X109818307Y-74297880D01*
X109853423Y-74474418D01*
G36*
X186053423Y-74474418D02*
X186201912Y-74696648D01*
X186424142Y-74845137D01*
X186686280Y-74897280D01*
X186802280Y-74897280D01*
X186802280Y-86327780D01*
X186686280Y-86327780D01*
X186424142Y-86379923D01*
X186201912Y-86528412D01*
X186053423Y-86750642D01*
X186018227Y-86927580D01*
X173355033Y-86927580D01*
X173319837Y-86750642D01*
X173171348Y-86528412D01*
X172949118Y-86379923D01*
X172686980Y-86327780D01*
X172572580Y-86327780D01*
X172572580Y-74897280D01*
X172686980Y-74897280D01*
X172949118Y-74845137D01*
X173171348Y-74696648D01*
X173319837Y-74474418D01*
X173354953Y-74297880D01*
X186018307Y-74297880D01*
X186053423Y-74474418D01*
X186053423Y-74474418D01*
G37*
X186053423Y-74474418D02*
X186201912Y-74696648D01*
X186424142Y-74845137D01*
X186686280Y-74897280D01*
X186802280Y-74897280D01*
X186802280Y-86327780D01*
X186686280Y-86327780D01*
X186424142Y-86379923D01*
X186201912Y-86528412D01*
X186053423Y-86750642D01*
X186018227Y-86927580D01*
X173355033Y-86927580D01*
X173319837Y-86750642D01*
X173171348Y-86528412D01*
X172949118Y-86379923D01*
X172686980Y-86327780D01*
X172572580Y-86327780D01*
X172572580Y-74897280D01*
X172686980Y-74897280D01*
X172949118Y-74845137D01*
X173171348Y-74696648D01*
X173319837Y-74474418D01*
X173354953Y-74297880D01*
X186018307Y-74297880D01*
X186053423Y-74474418D01*
G36*
X128903423Y-72093118D02*
X129051912Y-72315348D01*
X129274142Y-72463837D01*
X129536280Y-72515980D01*
X129652080Y-72515980D01*
X129652080Y-83946580D01*
X129536280Y-83946580D01*
X129274142Y-83998723D01*
X129051912Y-84147212D01*
X128903423Y-84369442D01*
X128868247Y-84546280D01*
X116205013Y-84546280D01*
X116169837Y-84369442D01*
X116021348Y-84147212D01*
X115799118Y-83998723D01*
X115536980Y-83946580D01*
X115422580Y-83946580D01*
X115422580Y-72515980D01*
X115536980Y-72515980D01*
X115799118Y-72463837D01*
X116021348Y-72315348D01*
X116169837Y-72093118D01*
X116204933Y-71916680D01*
X128868327Y-71916680D01*
X128903423Y-72093118D01*
X128903423Y-72093118D01*
G37*
X128903423Y-72093118D02*
X129051912Y-72315348D01*
X129274142Y-72463837D01*
X129536280Y-72515980D01*
X129652080Y-72515980D01*
X129652080Y-83946580D01*
X129536280Y-83946580D01*
X129274142Y-83998723D01*
X129051912Y-84147212D01*
X128903423Y-84369442D01*
X128868247Y-84546280D01*
X116205013Y-84546280D01*
X116169837Y-84369442D01*
X116021348Y-84147212D01*
X115799118Y-83998723D01*
X115536980Y-83946580D01*
X115422580Y-83946580D01*
X115422580Y-72515980D01*
X115536980Y-72515980D01*
X115799118Y-72463837D01*
X116021348Y-72315348D01*
X116169837Y-72093118D01*
X116204933Y-71916680D01*
X128868327Y-71916680D01*
X128903423Y-72093118D01*
G36*
X167003423Y-72093118D02*
X167151912Y-72315348D01*
X167374142Y-72463837D01*
X167636280Y-72515980D01*
X167750680Y-72515980D01*
X167750680Y-83946580D01*
X167636280Y-83946580D01*
X167374142Y-83998723D01*
X167151912Y-84147212D01*
X167003423Y-84369442D01*
X166968247Y-84546280D01*
X154305013Y-84546280D01*
X154269837Y-84369442D01*
X154121348Y-84147212D01*
X153899118Y-83998723D01*
X153636980Y-83946580D01*
X153522580Y-83946580D01*
X153522580Y-72515980D01*
X153636980Y-72515980D01*
X153899118Y-72463837D01*
X154121348Y-72315348D01*
X154269837Y-72093118D01*
X154304933Y-71916680D01*
X166968327Y-71916680D01*
X167003423Y-72093118D01*
X167003423Y-72093118D01*
G37*
X167003423Y-72093118D02*
X167151912Y-72315348D01*
X167374142Y-72463837D01*
X167636280Y-72515980D01*
X167750680Y-72515980D01*
X167750680Y-83946580D01*
X167636280Y-83946580D01*
X167374142Y-83998723D01*
X167151912Y-84147212D01*
X167003423Y-84369442D01*
X166968247Y-84546280D01*
X154305013Y-84546280D01*
X154269837Y-84369442D01*
X154121348Y-84147212D01*
X153899118Y-83998723D01*
X153636980Y-83946580D01*
X153522580Y-83946580D01*
X153522580Y-72515980D01*
X153636980Y-72515980D01*
X153899118Y-72463837D01*
X154121348Y-72315348D01*
X154269837Y-72093118D01*
X154304933Y-71916680D01*
X166968327Y-71916680D01*
X167003423Y-72093118D01*
G36*
X147953423Y-69711918D02*
X148101912Y-69934148D01*
X148324142Y-70082637D01*
X148586280Y-70134780D01*
X148702080Y-70134780D01*
X148702080Y-81565280D01*
X148586280Y-81565280D01*
X148324142Y-81617423D01*
X148101912Y-81765912D01*
X147953423Y-81988142D01*
X147918227Y-82165080D01*
X135255033Y-82165080D01*
X135219837Y-81988142D01*
X135071348Y-81765912D01*
X134849118Y-81617423D01*
X134586980Y-81565280D01*
X134472580Y-81565280D01*
X134472580Y-70134780D01*
X134586980Y-70134780D01*
X134849118Y-70082637D01*
X135071348Y-69934148D01*
X135219837Y-69711918D01*
X135254953Y-69535380D01*
X147918307Y-69535380D01*
X147953423Y-69711918D01*
X147953423Y-69711918D01*
G37*
X147953423Y-69711918D02*
X148101912Y-69934148D01*
X148324142Y-70082637D01*
X148586280Y-70134780D01*
X148702080Y-70134780D01*
X148702080Y-81565280D01*
X148586280Y-81565280D01*
X148324142Y-81617423D01*
X148101912Y-81765912D01*
X147953423Y-81988142D01*
X147918227Y-82165080D01*
X135255033Y-82165080D01*
X135219837Y-81988142D01*
X135071348Y-81765912D01*
X134849118Y-81617423D01*
X134586980Y-81565280D01*
X134472580Y-81565280D01*
X134472580Y-70134780D01*
X134586980Y-70134780D01*
X134849118Y-70082637D01*
X135071348Y-69934148D01*
X135219837Y-69711918D01*
X135254953Y-69535380D01*
X147918307Y-69535380D01*
X147953423Y-69711918D01*
G36*
X205103423Y-60186918D02*
X205251912Y-60409148D01*
X205474142Y-60557637D01*
X205736280Y-60609780D01*
X205852280Y-60609780D01*
X205852280Y-72040280D01*
X205736280Y-72040280D01*
X205474142Y-72092423D01*
X205251912Y-72240912D01*
X205103423Y-72463142D01*
X205068227Y-72640080D01*
X192405333Y-72640080D01*
X192370137Y-72463142D01*
X192221648Y-72240912D01*
X191999418Y-72092423D01*
X191737280Y-72040280D01*
X191622280Y-72040280D01*
X191622280Y-60609780D01*
X191737280Y-60609780D01*
X191999418Y-60557637D01*
X192221648Y-60409148D01*
X192370137Y-60186918D01*
X192405253Y-60010380D01*
X205068307Y-60010380D01*
X205103423Y-60186918D01*
X205103423Y-60186918D01*
G37*
X205103423Y-60186918D02*
X205251912Y-60409148D01*
X205474142Y-60557637D01*
X205736280Y-60609780D01*
X205852280Y-60609780D01*
X205852280Y-72040280D01*
X205736280Y-72040280D01*
X205474142Y-72092423D01*
X205251912Y-72240912D01*
X205103423Y-72463142D01*
X205068227Y-72640080D01*
X192405333Y-72640080D01*
X192370137Y-72463142D01*
X192221648Y-72240912D01*
X191999418Y-72092423D01*
X191737280Y-72040280D01*
X191622280Y-72040280D01*
X191622280Y-60609780D01*
X191737280Y-60609780D01*
X191999418Y-60557637D01*
X192221648Y-60409148D01*
X192370137Y-60186918D01*
X192405253Y-60010380D01*
X205068307Y-60010380D01*
X205103423Y-60186918D01*
G36*
X90803623Y-57805618D02*
X90952112Y-58027848D01*
X91174342Y-58176337D01*
X91436480Y-58228480D01*
X91552080Y-58228480D01*
X91552080Y-69657980D01*
X91436480Y-69657980D01*
X91174342Y-69710123D01*
X90952112Y-69858612D01*
X90803623Y-70080842D01*
X90768229Y-70258780D01*
X78105181Y-70258780D01*
X78069787Y-70080842D01*
X77921298Y-69858612D01*
X77699068Y-69710123D01*
X77436930Y-69657980D01*
X77322670Y-69657980D01*
X77322670Y-58228480D01*
X77436930Y-58228480D01*
X77699068Y-58176337D01*
X77921298Y-58027848D01*
X78069787Y-57805618D01*
X78104883Y-57629180D01*
X90768527Y-57629180D01*
X90803623Y-57805618D01*
X90803623Y-57805618D01*
G37*
X90803623Y-57805618D02*
X90952112Y-58027848D01*
X91174342Y-58176337D01*
X91436480Y-58228480D01*
X91552080Y-58228480D01*
X91552080Y-69657980D01*
X91436480Y-69657980D01*
X91174342Y-69710123D01*
X90952112Y-69858612D01*
X90803623Y-70080842D01*
X90768229Y-70258780D01*
X78105181Y-70258780D01*
X78069787Y-70080842D01*
X77921298Y-69858612D01*
X77699068Y-69710123D01*
X77436930Y-69657980D01*
X77322670Y-69657980D01*
X77322670Y-58228480D01*
X77436930Y-58228480D01*
X77699068Y-58176337D01*
X77921298Y-58027848D01*
X78069787Y-57805618D01*
X78104883Y-57629180D01*
X90768527Y-57629180D01*
X90803623Y-57805618D01*
G36*
X109853423Y-55424418D02*
X110001912Y-55646648D01*
X110224142Y-55795137D01*
X110486280Y-55847280D01*
X110602080Y-55847280D01*
X110602080Y-67277780D01*
X110486280Y-67277780D01*
X110224142Y-67329923D01*
X110001912Y-67478412D01*
X109853423Y-67700642D01*
X109818227Y-67877580D01*
X97155033Y-67877580D01*
X97119837Y-67700642D01*
X96971348Y-67478412D01*
X96749118Y-67329923D01*
X96486980Y-67277780D01*
X96372680Y-67277780D01*
X96372680Y-55847280D01*
X96486980Y-55847280D01*
X96749118Y-55795137D01*
X96971348Y-55646648D01*
X97119837Y-55424418D01*
X97154953Y-55247880D01*
X109818307Y-55247880D01*
X109853423Y-55424418D01*
X109853423Y-55424418D01*
G37*
X109853423Y-55424418D02*
X110001912Y-55646648D01*
X110224142Y-55795137D01*
X110486280Y-55847280D01*
X110602080Y-55847280D01*
X110602080Y-67277780D01*
X110486280Y-67277780D01*
X110224142Y-67329923D01*
X110001912Y-67478412D01*
X109853423Y-67700642D01*
X109818227Y-67877580D01*
X97155033Y-67877580D01*
X97119837Y-67700642D01*
X96971348Y-67478412D01*
X96749118Y-67329923D01*
X96486980Y-67277780D01*
X96372680Y-67277780D01*
X96372680Y-55847280D01*
X96486980Y-55847280D01*
X96749118Y-55795137D01*
X96971348Y-55646648D01*
X97119837Y-55424418D01*
X97154953Y-55247880D01*
X109818307Y-55247880D01*
X109853423Y-55424418D01*
G36*
X186053423Y-55424418D02*
X186201912Y-55646648D01*
X186424142Y-55795137D01*
X186686280Y-55847280D01*
X186802280Y-55847280D01*
X186802280Y-67277780D01*
X186686280Y-67277780D01*
X186424142Y-67329923D01*
X186201912Y-67478412D01*
X186053423Y-67700642D01*
X186018227Y-67877580D01*
X173355033Y-67877580D01*
X173319837Y-67700642D01*
X173171348Y-67478412D01*
X172949118Y-67329923D01*
X172686980Y-67277780D01*
X172572580Y-67277780D01*
X172572580Y-55847280D01*
X172686980Y-55847280D01*
X172949118Y-55795137D01*
X173171348Y-55646648D01*
X173319837Y-55424418D01*
X173354953Y-55247880D01*
X186018307Y-55247880D01*
X186053423Y-55424418D01*
X186053423Y-55424418D01*
G37*
X186053423Y-55424418D02*
X186201912Y-55646648D01*
X186424142Y-55795137D01*
X186686280Y-55847280D01*
X186802280Y-55847280D01*
X186802280Y-67277780D01*
X186686280Y-67277780D01*
X186424142Y-67329923D01*
X186201912Y-67478412D01*
X186053423Y-67700642D01*
X186018227Y-67877580D01*
X173355033Y-67877580D01*
X173319837Y-67700642D01*
X173171348Y-67478412D01*
X172949118Y-67329923D01*
X172686980Y-67277780D01*
X172572580Y-67277780D01*
X172572580Y-55847280D01*
X172686980Y-55847280D01*
X172949118Y-55795137D01*
X173171348Y-55646648D01*
X173319837Y-55424418D01*
X173354953Y-55247880D01*
X186018307Y-55247880D01*
X186053423Y-55424418D01*
G36*
X128903423Y-53043118D02*
X129051912Y-53265348D01*
X129274142Y-53413837D01*
X129536280Y-53465980D01*
X129652080Y-53465980D01*
X129652080Y-64896580D01*
X129536280Y-64896580D01*
X129274142Y-64948723D01*
X129051912Y-65097212D01*
X128903423Y-65319442D01*
X128868247Y-65496280D01*
X116205013Y-65496280D01*
X116169837Y-65319442D01*
X116021348Y-65097212D01*
X115799118Y-64948723D01*
X115536980Y-64896580D01*
X115422580Y-64896580D01*
X115422580Y-53465980D01*
X115536980Y-53465980D01*
X115799118Y-53413837D01*
X116021348Y-53265348D01*
X116169837Y-53043118D01*
X116204933Y-52866680D01*
X128868327Y-52866680D01*
X128903423Y-53043118D01*
X128903423Y-53043118D01*
G37*
X128903423Y-53043118D02*
X129051912Y-53265348D01*
X129274142Y-53413837D01*
X129536280Y-53465980D01*
X129652080Y-53465980D01*
X129652080Y-64896580D01*
X129536280Y-64896580D01*
X129274142Y-64948723D01*
X129051912Y-65097212D01*
X128903423Y-65319442D01*
X128868247Y-65496280D01*
X116205013Y-65496280D01*
X116169837Y-65319442D01*
X116021348Y-65097212D01*
X115799118Y-64948723D01*
X115536980Y-64896580D01*
X115422580Y-64896580D01*
X115422580Y-53465980D01*
X115536980Y-53465980D01*
X115799118Y-53413837D01*
X116021348Y-53265348D01*
X116169837Y-53043118D01*
X116204933Y-52866680D01*
X128868327Y-52866680D01*
X128903423Y-53043118D01*
G36*
X167003423Y-53043118D02*
X167151912Y-53265348D01*
X167374142Y-53413837D01*
X167636280Y-53465980D01*
X167750680Y-53465980D01*
X167750680Y-64896580D01*
X167636280Y-64896580D01*
X167374142Y-64948723D01*
X167151912Y-65097212D01*
X167003423Y-65319442D01*
X166968247Y-65496280D01*
X154305013Y-65496280D01*
X154269837Y-65319442D01*
X154121348Y-65097212D01*
X153899118Y-64948723D01*
X153636980Y-64896580D01*
X153522580Y-64896580D01*
X153522580Y-53465980D01*
X153636980Y-53465980D01*
X153899118Y-53413837D01*
X154121348Y-53265348D01*
X154269837Y-53043118D01*
X154304933Y-52866680D01*
X166968327Y-52866680D01*
X167003423Y-53043118D01*
X167003423Y-53043118D01*
G37*
X167003423Y-53043118D02*
X167151912Y-53265348D01*
X167374142Y-53413837D01*
X167636280Y-53465980D01*
X167750680Y-53465980D01*
X167750680Y-64896580D01*
X167636280Y-64896580D01*
X167374142Y-64948723D01*
X167151912Y-65097212D01*
X167003423Y-65319442D01*
X166968247Y-65496280D01*
X154305013Y-65496280D01*
X154269837Y-65319442D01*
X154121348Y-65097212D01*
X153899118Y-64948723D01*
X153636980Y-64896580D01*
X153522580Y-64896580D01*
X153522580Y-53465980D01*
X153636980Y-53465980D01*
X153899118Y-53413837D01*
X154121348Y-53265348D01*
X154269837Y-53043118D01*
X154304933Y-52866680D01*
X166968327Y-52866680D01*
X167003423Y-53043118D01*
G36*
X147953423Y-50661918D02*
X148101912Y-50884148D01*
X148324142Y-51032637D01*
X148586280Y-51084780D01*
X148702080Y-51084780D01*
X148702080Y-62515280D01*
X148586280Y-62515280D01*
X148324142Y-62567423D01*
X148101912Y-62715912D01*
X147953423Y-62938142D01*
X147918227Y-63115080D01*
X135255033Y-63115080D01*
X135219837Y-62938142D01*
X135071348Y-62715912D01*
X134849118Y-62567423D01*
X134586980Y-62515280D01*
X134472580Y-62515280D01*
X134472580Y-51084780D01*
X134586980Y-51084780D01*
X134849118Y-51032637D01*
X135071348Y-50884148D01*
X135219837Y-50661918D01*
X135254953Y-50485380D01*
X147918307Y-50485380D01*
X147953423Y-50661918D01*
X147953423Y-50661918D01*
G37*
X147953423Y-50661918D02*
X148101912Y-50884148D01*
X148324142Y-51032637D01*
X148586280Y-51084780D01*
X148702080Y-51084780D01*
X148702080Y-62515280D01*
X148586280Y-62515280D01*
X148324142Y-62567423D01*
X148101912Y-62715912D01*
X147953423Y-62938142D01*
X147918227Y-63115080D01*
X135255033Y-63115080D01*
X135219837Y-62938142D01*
X135071348Y-62715912D01*
X134849118Y-62567423D01*
X134586980Y-62515280D01*
X134472580Y-62515280D01*
X134472580Y-51084780D01*
X134586980Y-51084780D01*
X134849118Y-51032637D01*
X135071348Y-50884148D01*
X135219837Y-50661918D01*
X135254953Y-50485380D01*
X147918307Y-50485380D01*
X147953423Y-50661918D01*
M02*
