G04 #@! TF.FileFunction,Legend,Top*
%FSLAX46Y46*%
G04 Gerber Fmt 4.6, Leading zero omitted, Abs format (unit mm)*
G04 Created by KiCad (PCBNEW 4.0.7) date 05/24/18 17:37:45*
%MOMM*%
%LPD*%
G01*
G04 APERTURE LIST*
%ADD10C,0.100000*%
%ADD11C,0.150000*%
G04 APERTURE END LIST*
D10*
D11*
X115712513Y-69540886D02*
X115712513Y-70076600D01*
X115676799Y-70183743D01*
X115605370Y-70255171D01*
X115498227Y-70290886D01*
X115426799Y-70290886D01*
X116426799Y-70290886D02*
X116069656Y-70290886D01*
X116069656Y-69540886D01*
X117105371Y-70219457D02*
X117069657Y-70255171D01*
X116962514Y-70290886D01*
X116891085Y-70290886D01*
X116783942Y-70255171D01*
X116712514Y-70183743D01*
X116676799Y-70112314D01*
X116641085Y-69969457D01*
X116641085Y-69862314D01*
X116676799Y-69719457D01*
X116712514Y-69648029D01*
X116783942Y-69576600D01*
X116891085Y-69540886D01*
X116962514Y-69540886D01*
X117069657Y-69576600D01*
X117105371Y-69612314D01*
X117641085Y-69540886D02*
X117641085Y-70076600D01*
X117605371Y-70183743D01*
X117533942Y-70255171D01*
X117426799Y-70290886D01*
X117355371Y-70290886D01*
X118355371Y-70290886D02*
X117998228Y-70290886D01*
X117998228Y-69540886D01*
X119033943Y-70219457D02*
X118998229Y-70255171D01*
X118891086Y-70290886D01*
X118819657Y-70290886D01*
X118712514Y-70255171D01*
X118641086Y-70183743D01*
X118605371Y-70112314D01*
X118569657Y-69969457D01*
X118569657Y-69862314D01*
X118605371Y-69719457D01*
X118641086Y-69648029D01*
X118712514Y-69576600D01*
X118819657Y-69540886D01*
X118891086Y-69540886D01*
X118998229Y-69576600D01*
X119033943Y-69612314D01*
X119569657Y-69540886D02*
X119569657Y-70076600D01*
X119533943Y-70183743D01*
X119462514Y-70255171D01*
X119355371Y-70290886D01*
X119283943Y-70290886D01*
X120283943Y-70290886D02*
X119926800Y-70290886D01*
X119926800Y-69540886D01*
X120962515Y-70219457D02*
X120926801Y-70255171D01*
X120819658Y-70290886D01*
X120748229Y-70290886D01*
X120641086Y-70255171D01*
X120569658Y-70183743D01*
X120533943Y-70112314D01*
X120498229Y-69969457D01*
X120498229Y-69862314D01*
X120533943Y-69719457D01*
X120569658Y-69648029D01*
X120641086Y-69576600D01*
X120748229Y-69540886D01*
X120819658Y-69540886D01*
X120926801Y-69576600D01*
X120962515Y-69612314D01*
X121498229Y-69540886D02*
X121498229Y-70076600D01*
X121462515Y-70183743D01*
X121391086Y-70255171D01*
X121283943Y-70290886D01*
X121212515Y-70290886D01*
X122212515Y-70290886D02*
X121855372Y-70290886D01*
X121855372Y-69540886D01*
X122891087Y-70219457D02*
X122855373Y-70255171D01*
X122748230Y-70290886D01*
X122676801Y-70290886D01*
X122569658Y-70255171D01*
X122498230Y-70183743D01*
X122462515Y-70112314D01*
X122426801Y-69969457D01*
X122426801Y-69862314D01*
X122462515Y-69719457D01*
X122498230Y-69648029D01*
X122569658Y-69576600D01*
X122676801Y-69540886D01*
X122748230Y-69540886D01*
X122855373Y-69576600D01*
X122891087Y-69612314D01*
M02*
