  0
SECTION
  2
HEADER
  9
$ANGBASE
  50
0.0
  9
$ANGDIR
  70
  1
  9
$MEASUREMENT
  70
0
  0
ENDSEC
  0
SECTION
  2
TABLES
  0
TABLE
  2
LTYPE
  70
1
  0
LTYPE
  2
CONTINUOUS
  70
0
  3
Solid line
  72
65
  73
0
  40
0.0
  0
ENDTAB
  0
TABLE
  2
STYLE
  70
4
  0
STYLE
  2
KICAD
  70
0
  40
0
  41
1
  42
1
  50
0
  71
0
  3
isocp.shx
  0
STYLE
  2
KICADB
  70
0
  40
0
  41
1
  42
1
  50
0
  71
0
  3
isocp.shx
  0
STYLE
  2
KICADI
  70
0
  40
0
  41
1
  42
1
  50
15
  71
0
  3
isocp.shx
  0
STYLE
  2
KICADBI
  70
0
  40
0
  41
1
  42
1
  50
15
  71
0
  3
isocp.shx
  0
ENDTAB
  0
TABLE
  2
LAYER
  70
30
  0
LAYER
  2
BLACK
  70
0
  62
7
  6
CONTINUOUS
  0
LAYER
  2
GRAY1
  70
0
  62
251
  6
CONTINUOUS
  0
LAYER
  2
GRAY2
  70
0
  62
8
  6
CONTINUOUS
  0
LAYER
  2
GRAY3
  70
0
  62
9
  6
CONTINUOUS
  0
LAYER
  2
WHITE
  70
0
  62
7
  6
CONTINUOUS
  0
LAYER
  2
LYELLOW
  70
0
  62
51
  6
CONTINUOUS
  0
LAYER
  2
BLUE1
  70
0
  62
178
  6
CONTINUOUS
  0
LAYER
  2
GREEN1
  70
0
  62
98
  6
CONTINUOUS
  0
LAYER
  2
CYAN1
  70
0
  62
138
  6
CONTINUOUS
  0
LAYER
  2
RED1
  70
0
  62
18
  6
CONTINUOUS
  0
LAYER
  2
MAGENTA1
  70
0
  62
228
  6
CONTINUOUS
  0
LAYER
  2
BROWN1
  70
0
  62
58
  6
CONTINUOUS
  0
LAYER
  2
BLUE2
  70
0
  62
5
  6
CONTINUOUS
  0
LAYER
  2
GREEN2
  70
0
  62
3
  6
CONTINUOUS
  0
LAYER
  2
CYAN2
  70
0
  62
4
  6
CONTINUOUS
  0
LAYER
  2
RED2
  70
0
  62
1
  6
CONTINUOUS
  0
LAYER
  2
MAGENTA2
  70
0
  62
6
  6
CONTINUOUS
  0
LAYER
  2
BROWN2
  70
0
  62
54
  6
CONTINUOUS
  0
LAYER
  2
BLUE3
  70
0
  62
171
  6
CONTINUOUS
  0
LAYER
  2
GREEN3
  70
0
  62
91
  6
CONTINUOUS
  0
LAYER
  2
CYAN3
  70
0
  62
131
  6
CONTINUOUS
  0
LAYER
  2
RED3
  70
0
  62
11
  6
CONTINUOUS
  0
LAYER
  2
MAGENTA3
  70
0
  62
221
  6
CONTINUOUS
  0
LAYER
  2
YELLOW3
  70
0
  62
2
  6
CONTINUOUS
  0
LAYER
  2
BLUE4
  70
0
  62
5
  6
CONTINUOUS
  0
LAYER
  2
GREEN4
  70
0
  62
3
  6
CONTINUOUS
  0
LAYER
  2
CYAN4
  70
0
  62
4
  6
CONTINUOUS
  0
LAYER
  2
RED4
  70
0
  62
1
  6
CONTINUOUS
  0
LAYER
  2
MAGENTA4
  70
0
  62
6
  6
CONTINUOUS
  0
LAYER
  2
YELLOW4
  70
0
  62
2
  6
CONTINUOUS
  0
ENDTAB
  0
ENDSEC
  0
SECTION
  2
ENTITIES
0
LINE
8
Black
10
140.747
20
-84.5048
11
140.759
21
-84.5065
0
LINE
8
Black
10
140.759
20
-84.5065
11
140.866
21
-84.5422
0
LINE
8
Black
10
140.866
20
-84.5422
11
140.87
21
-84.5443
0
LINE
8
Black
10
140.87
20
-84.5443
11
140.874
21
-84.5454
0
LINE
8
Black
10
140.874
20
-84.5454
11
140.881
21
-84.5505
0
LINE
8
Black
10
140.881
20
-84.5505
11
140.889
21
-84.5547
0
LINE
8
Black
10
140.889
20
-84.5547
11
140.892
21
-84.5579
0
LINE
8
Black
10
140.892
20
-84.5579
11
140.895
21
-84.5604
0
LINE
8
Black
10
140.895
20
-84.5604
11
140.931
21
-84.5961
0
LINE
8
Black
10
140.931
20
-84.5961
11
140.946
21
-84.6174
0
LINE
8
Black
10
140.946
20
-84.6174
11
140.953
21
-84.6426
0
LINE
8
Black
10
140.953
20
-84.6426
11
140.95
21
-84.6685
0
LINE
8
Black
10
140.95
20
-84.6685
11
140.939
21
-84.6921
0
LINE
8
Black
10
140.939
20
-84.6921
11
140.921
21
-84.7106
0
LINE
8
Black
10
140.921
20
-84.7106
11
140.897
21
-84.7216
0
LINE
8
Black
10
140.897
20
-84.7216
11
140.871
21
-84.7238
0
LINE
8
Black
10
140.871
20
-84.7238
11
140.846
21
-84.7171
0
LINE
8
Black
10
140.846
20
-84.7171
11
140.825
21
-84.7021
0
LINE
8
Black
10
140.825
20
-84.7021
11
140.802
21
-84.679
0
LINE
8
Black
10
140.802
20
-84.679
11
140.723
21
-84.6527
0
LINE
8
Black
10
140.723
20
-84.6527
11
140.676
21
-84.6527
0
LINE
8
Black
10
140.676
20
-84.6527
11
140.597
21
-84.679
0
LINE
8
Black
10
140.597
20
-84.679
11
140.547
21
-84.7293
0
LINE
8
Black
10
140.547
20
-84.7293
11
140.52
21
-84.7824
0
LINE
8
Black
10
140.52
20
-84.7824
11
140.489
21
-84.9083
0
LINE
8
Black
10
140.489
20
-84.9083
11
140.489
21
-84.997
0
LINE
8
Black
10
140.489
20
-84.997
11
140.52
21
-85.1229
0
LINE
8
Black
10
140.52
20
-85.1229
11
140.547
21
-85.1761
0
LINE
8
Black
10
140.547
20
-85.1761
11
140.597
21
-85.2264
0
LINE
8
Black
10
140.597
20
-85.2264
11
140.676
21
-85.2527
0
LINE
8
Black
10
140.676
20
-85.2527
11
140.723
21
-85.2527
0
LINE
8
Black
10
140.723
20
-85.2527
11
140.802
21
-85.2264
0
LINE
8
Black
10
140.802
20
-85.2264
11
140.825
21
-85.2032
0
LINE
8
Black
10
140.825
20
-85.2032
11
140.846
21
-85.1883
0
LINE
8
Black
10
140.846
20
-85.1883
11
140.871
21
-85.1815
0
LINE
8
Black
10
140.871
20
-85.1815
11
140.897
21
-85.1838
0
LINE
8
Black
10
140.897
20
-85.1838
11
140.921
21
-85.1948
0
LINE
8
Black
10
140.921
20
-85.1948
11
140.939
21
-85.2132
0
LINE
8
Black
10
140.939
20
-85.2132
11
140.95
21
-85.2368
0
LINE
8
Black
10
140.95
20
-85.2368
11
140.953
21
-85.2628
0
LINE
8
Black
10
140.953
20
-85.2628
11
140.946
21
-85.288
0
LINE
8
Black
10
140.946
20
-85.288
11
140.931
21
-85.3093
0
LINE
8
Black
10
140.931
20
-85.3093
11
140.895
21
-85.345
0
LINE
8
Black
10
140.895
20
-85.345
11
140.892
21
-85.3475
0
LINE
8
Black
10
140.892
20
-85.3475
11
140.889
21
-85.3507
0
LINE
8
Black
10
140.889
20
-85.3507
11
140.881
21
-85.3549
0
LINE
8
Black
10
140.881
20
-85.3549
11
140.874
21
-85.3599
0
LINE
8
Black
10
140.874
20
-85.3599
11
140.87
21
-85.3611
0
LINE
8
Black
10
140.87
20
-85.3611
11
140.866
21
-85.3631
0
LINE
8
Black
10
140.866
20
-85.3631
11
140.759
21
-85.3988
0
LINE
8
Black
10
140.759
20
-85.3988
11
140.747
21
-85.4006
0
LINE
8
Black
10
140.747
20
-85.4006
11
140.735
21
-85.4027
0
LINE
8
Black
10
140.735
20
-85.4027
11
140.664
21
-85.4027
0
LINE
8
Black
10
140.664
20
-85.4027
11
140.652
21
-85.4006
0
LINE
8
Black
10
140.652
20
-85.4006
11
140.64
21
-85.3988
0
LINE
8
Black
10
140.64
20
-85.3988
11
140.533
21
-85.3631
0
LINE
8
Black
10
140.533
20
-85.3631
11
140.529
21
-85.3611
0
LINE
8
Black
10
140.529
20
-85.3611
11
140.525
21
-85.3599
0
LINE
8
Black
10
140.525
20
-85.3599
11
140.518
21
-85.3549
0
LINE
8
Black
10
140.518
20
-85.3549
11
140.51
21
-85.3507
0
LINE
8
Black
10
140.51
20
-85.3507
11
140.507
21
-85.3475
0
LINE
8
Black
10
140.507
20
-85.3475
11
140.503
21
-85.345
0
LINE
8
Black
10
140.503
20
-85.345
11
140.432
21
-85.2736
0
LINE
8
Black
10
140.432
20
-85.2736
11
140.425
21
-85.2637
0
LINE
8
Black
10
140.425
20
-85.2637
11
140.418
21
-85.2541
0
LINE
8
Black
10
140.418
20
-85.2541
11
140.382
21
-85.1827
0
LINE
8
Black
10
140.382
20
-85.1827
11
140.38
21
-85.1748
0
LINE
8
Black
10
140.38
20
-85.1748
11
140.377
21
-85.1673
0
LINE
8
Black
10
140.377
20
-85.1673
11
140.341
21
-85.0244
0
LINE
8
Black
10
140.341
20
-85.0244
11
140.34
21
-85.0153
0
LINE
8
Black
10
140.34
20
-85.0153
11
140.339
21
-85.0063
0
LINE
8
Black
10
140.339
20
-85.0063
11
140.339
21
-84.8991
0
LINE
8
Black
10
140.339
20
-84.8991
11
140.34
21
-84.8901
0
LINE
8
Black
10
140.34
20
-84.8901
11
140.341
21
-84.8809
0
LINE
8
Black
10
140.341
20
-84.8809
11
140.377
21
-84.7381
0
LINE
8
Black
10
140.377
20
-84.7381
11
140.38
21
-84.7306
0
LINE
8
Black
10
140.38
20
-84.7306
11
140.382
21
-84.7227
0
LINE
8
Black
10
140.382
20
-84.7227
11
140.418
21
-84.6513
0
LINE
8
Black
10
140.418
20
-84.6513
11
140.425
21
-84.6417
0
LINE
8
Black
10
140.425
20
-84.6417
11
140.432
21
-84.6318
0
LINE
8
Black
10
140.432
20
-84.6318
11
140.503
21
-84.5604
0
LINE
8
Black
10
140.503
20
-84.5604
11
140.507
21
-84.5579
0
LINE
8
Black
10
140.507
20
-84.5579
11
140.51
21
-84.5547
0
LINE
8
Black
10
140.51
20
-84.5547
11
140.518
21
-84.5505
0
LINE
8
Black
10
140.518
20
-84.5505
11
140.525
21
-84.5454
0
LINE
8
Black
10
140.525
20
-84.5454
11
140.529
21
-84.5443
0
LINE
8
Black
10
140.529
20
-84.5443
11
140.533
21
-84.5422
0
LINE
8
Black
10
140.533
20
-84.5422
11
140.64
21
-84.5065
0
LINE
8
Black
10
140.64
20
-84.5065
11
140.652
21
-84.5048
0
LINE
8
Black
10
140.652
20
-84.5048
11
140.664
21
-84.5027
0
LINE
8
Black
10
140.664
20
-84.5027
11
140.735
21
-84.5027
0
LINE
8
Black
10
140.735
20
-84.5027
11
140.747
21
-84.5048
0
LINE
8
Black
10
142.675
20
-84.5048
11
142.687
21
-84.5065
0
LINE
8
Black
10
142.687
20
-84.5065
11
142.795
21
-84.5422
0
LINE
8
Black
10
142.795
20
-84.5422
11
142.798
21
-84.5443
0
LINE
8
Black
10
142.798
20
-84.5443
11
142.802
21
-84.5454
0
LINE
8
Black
10
142.802
20
-84.5454
11
142.81
21
-84.5505
0
LINE
8
Black
10
142.81
20
-84.5505
11
142.817
21
-84.5547
0
LINE
8
Black
10
142.817
20
-84.5547
11
142.82
21
-84.5579
0
LINE
8
Black
10
142.82
20
-84.5579
11
142.824
21
-84.5604
0
LINE
8
Black
10
142.824
20
-84.5604
11
142.86
21
-84.5961
0
LINE
8
Black
10
142.86
20
-84.5961
11
142.874
21
-84.6174
0
LINE
8
Black
10
142.874
20
-84.6174
11
142.881
21
-84.6426
0
LINE
8
Black
10
142.881
20
-84.6426
11
142.879
21
-84.6685
0
LINE
8
Black
10
142.879
20
-84.6685
11
142.868
21
-84.6921
0
LINE
8
Black
10
142.868
20
-84.6921
11
142.85
21
-84.7106
0
LINE
8
Black
10
142.85
20
-84.7106
11
142.826
21
-84.7216
0
LINE
8
Black
10
142.826
20
-84.7216
11
142.8
21
-84.7238
0
LINE
8
Black
10
142.8
20
-84.7238
11
142.775
21
-84.7171
0
LINE
8
Black
10
142.775
20
-84.7171
11
142.753
21
-84.7021
0
LINE
8
Black
10
142.753
20
-84.7021
11
142.73
21
-84.679
0
LINE
8
Black
10
142.73
20
-84.679
11
142.651
21
-84.6527
0
LINE
8
Black
10
142.651
20
-84.6527
11
142.604
21
-84.6527
0
LINE
8
Black
10
142.604
20
-84.6527
11
142.526
21
-84.679
0
LINE
8
Black
10
142.526
20
-84.679
11
142.475
21
-84.7293
0
LINE
8
Black
10
142.475
20
-84.7293
11
142.449
21
-84.7824
0
LINE
8
Black
10
142.449
20
-84.7824
11
142.417
21
-84.9083
0
LINE
8
Black
10
142.417
20
-84.9083
11
142.417
21
-84.997
0
LINE
8
Black
10
142.417
20
-84.997
11
142.449
21
-85.1229
0
LINE
8
Black
10
142.449
20
-85.1229
11
142.475
21
-85.1761
0
LINE
8
Black
10
142.475
20
-85.1761
11
142.526
21
-85.2264
0
LINE
8
Black
10
142.526
20
-85.2264
11
142.604
21
-85.2527
0
LINE
8
Black
10
142.604
20
-85.2527
11
142.651
21
-85.2527
0
LINE
8
Black
10
142.651
20
-85.2527
11
142.73
21
-85.2264
0
LINE
8
Black
10
142.73
20
-85.2264
11
142.753
21
-85.2032
0
LINE
8
Black
10
142.753
20
-85.2032
11
142.775
21
-85.1883
0
LINE
8
Black
10
142.775
20
-85.1883
11
142.8
21
-85.1815
0
LINE
8
Black
10
142.8
20
-85.1815
11
142.826
21
-85.1838
0
LINE
8
Black
10
142.826
20
-85.1838
11
142.85
21
-85.1948
0
LINE
8
Black
10
142.85
20
-85.1948
11
142.868
21
-85.2132
0
LINE
8
Black
10
142.868
20
-85.2132
11
142.879
21
-85.2368
0
LINE
8
Black
10
142.879
20
-85.2368
11
142.881
21
-85.2628
0
LINE
8
Black
10
142.881
20
-85.2628
11
142.874
21
-85.288
0
LINE
8
Black
10
142.874
20
-85.288
11
142.86
21
-85.3093
0
LINE
8
Black
10
142.86
20
-85.3093
11
142.824
21
-85.345
0
LINE
8
Black
10
142.824
20
-85.345
11
142.82
21
-85.3475
0
LINE
8
Black
10
142.82
20
-85.3475
11
142.817
21
-85.3507
0
LINE
8
Black
10
142.817
20
-85.3507
11
142.81
21
-85.3549
0
LINE
8
Black
10
142.81
20
-85.3549
11
142.802
21
-85.3599
0
LINE
8
Black
10
142.802
20
-85.3599
11
142.798
21
-85.3611
0
LINE
8
Black
10
142.798
20
-85.3611
11
142.795
21
-85.3631
0
LINE
8
Black
10
142.795
20
-85.3631
11
142.687
21
-85.3988
0
LINE
8
Black
10
142.687
20
-85.3988
11
142.675
21
-85.4006
0
LINE
8
Black
10
142.675
20
-85.4006
11
142.664
21
-85.4027
0
LINE
8
Black
10
142.664
20
-85.4027
11
142.592
21
-85.4027
0
LINE
8
Black
10
142.592
20
-85.4027
11
142.58
21
-85.4006
0
LINE
8
Black
10
142.58
20
-85.4006
11
142.569
21
-85.3988
0
LINE
8
Black
10
142.569
20
-85.3988
11
142.461
21
-85.3631
0
LINE
8
Black
10
142.461
20
-85.3631
11
142.458
21
-85.3611
0
LINE
8
Black
10
142.458
20
-85.3611
11
142.453
21
-85.3599
0
LINE
8
Black
10
142.453
20
-85.3599
11
142.446
21
-85.3549
0
LINE
8
Black
10
142.446
20
-85.3549
11
142.438
21
-85.3507
0
LINE
8
Black
10
142.438
20
-85.3507
11
142.436
21
-85.3475
0
LINE
8
Black
10
142.436
20
-85.3475
11
142.432
21
-85.345
0
LINE
8
Black
10
142.432
20
-85.345
11
142.361
21
-85.2736
0
LINE
8
Black
10
142.361
20
-85.2736
11
142.354
21
-85.2637
0
LINE
8
Black
10
142.354
20
-85.2637
11
142.347
21
-85.2541
0
LINE
8
Black
10
142.347
20
-85.2541
11
142.311
21
-85.1827
0
LINE
8
Black
10
142.311
20
-85.1827
11
142.309
21
-85.1748
0
LINE
8
Black
10
142.309
20
-85.1748
11
142.305
21
-85.1673
0
LINE
8
Black
10
142.305
20
-85.1673
11
142.269
21
-85.0244
0
LINE
8
Black
10
142.269
20
-85.0244
11
142.269
21
-85.0153
0
LINE
8
Black
10
142.269
20
-85.0153
11
142.267
21
-85.0063
0
LINE
8
Black
10
142.267
20
-85.0063
11
142.267
21
-84.8991
0
LINE
8
Black
10
142.267
20
-84.8991
11
142.269
21
-84.8901
0
LINE
8
Black
10
142.269
20
-84.8901
11
142.269
21
-84.8809
0
LINE
8
Black
10
142.269
20
-84.8809
11
142.305
21
-84.7381
0
LINE
8
Black
10
142.305
20
-84.7381
11
142.309
21
-84.7306
0
LINE
8
Black
10
142.309
20
-84.7306
11
142.311
21
-84.7227
0
LINE
8
Black
10
142.311
20
-84.7227
11
142.347
21
-84.6513
0
LINE
8
Black
10
142.347
20
-84.6513
11
142.354
21
-84.6417
0
LINE
8
Black
10
142.354
20
-84.6417
11
142.361
21
-84.6318
0
LINE
8
Black
10
142.361
20
-84.6318
11
142.432
21
-84.5604
0
LINE
8
Black
10
142.432
20
-84.5604
11
142.436
21
-84.5579
0
LINE
8
Black
10
142.436
20
-84.5579
11
142.438
21
-84.5547
0
LINE
8
Black
10
142.438
20
-84.5547
11
142.446
21
-84.5505
0
LINE
8
Black
10
142.446
20
-84.5505
11
142.453
21
-84.5454
0
LINE
8
Black
10
142.453
20
-84.5454
11
142.458
21
-84.5443
0
LINE
8
Black
10
142.458
20
-84.5443
11
142.461
21
-84.5422
0
LINE
8
Black
10
142.461
20
-84.5422
11
142.569
21
-84.5065
0
LINE
8
Black
10
142.569
20
-84.5065
11
142.58
21
-84.5048
0
LINE
8
Black
10
142.58
20
-84.5048
11
142.592
21
-84.5027
0
LINE
8
Black
10
142.592
20
-84.5027
11
142.664
21
-84.5027
0
LINE
8
Black
10
142.664
20
-84.5027
11
142.675
21
-84.5048
0
LINE
8
Black
10
139.88
20
-84.5127
11
139.9
21
-84.5295
0
LINE
8
Black
10
139.9
20
-84.5295
11
139.913
21
-84.552
0
LINE
8
Black
10
139.913
20
-84.552
11
139.917
21
-84.5777
0
LINE
8
Black
10
139.917
20
-84.5777
11
139.917
21
-85.2527
0
LINE
8
Black
10
139.917
20
-85.2527
11
140.199
21
-85.2527
0
LINE
8
Black
10
140.199
20
-85.2527
11
140.225
21
-85.2572
0
LINE
8
Black
10
140.225
20
-85.2572
11
140.248
21
-85.2702
0
LINE
8
Black
10
140.248
20
-85.2702
11
140.264
21
-85.2902
0
LINE
8
Black
10
140.264
20
-85.2902
11
140.273
21
-85.3147
0
LINE
8
Black
10
140.273
20
-85.3147
11
140.273
21
-85.3407
0
LINE
8
Black
10
140.273
20
-85.3407
11
140.264
21
-85.3652
0
LINE
8
Black
10
140.264
20
-85.3652
11
140.248
21
-85.3851
0
LINE
8
Black
10
140.248
20
-85.3851
11
140.225
21
-85.3982
0
LINE
8
Black
10
140.225
20
-85.3982
11
140.199
21
-85.4027
0
LINE
8
Black
10
140.199
20
-85.4027
11
139.842
21
-85.4027
0
LINE
8
Black
10
139.842
20
-85.4027
11
139.836
21
-85.4015
0
LINE
8
Black
10
139.836
20
-85.4015
11
139.829
21
-85.4015
0
LINE
8
Black
10
139.829
20
-85.4015
11
139.823
21
-85.3993
0
LINE
8
Black
10
139.823
20
-85.3993
11
139.817
21
-85.3982
0
LINE
8
Black
10
139.817
20
-85.3982
11
139.811
21
-85.3949
0
LINE
8
Black
10
139.811
20
-85.3949
11
139.805
21
-85.3926
0
LINE
8
Black
10
139.805
20
-85.3926
11
139.8
21
-85.3884
0
LINE
8
Black
10
139.8
20
-85.3884
11
139.794
21
-85.3851
0
LINE
8
Black
10
139.794
20
-85.3851
11
139.79
21
-85.3801
0
LINE
8
Black
10
139.79
20
-85.3801
11
139.785
21
-85.3759
0
LINE
8
Black
10
139.785
20
-85.3759
11
139.781
21
-85.3702
0
LINE
8
Black
10
139.781
20
-85.3702
11
139.777
21
-85.3652
0
LINE
8
Black
10
139.777
20
-85.3652
11
139.775
21
-85.359
0
LINE
8
Black
10
139.775
20
-85.359
11
139.772
21
-85.3533
0
LINE
8
Black
10
139.772
20
-85.3533
11
139.771
21
-85.3469
0
LINE
8
Black
10
139.771
20
-85.3469
11
139.768
21
-85.3407
0
LINE
8
Black
10
139.768
20
-85.3407
11
139.768
21
-85.3341
0
LINE
8
Black
10
139.768
20
-85.3341
11
139.767
21
-85.3277
0
LINE
8
Black
10
139.767
20
-85.3277
11
139.767
21
-84.5777
0
LINE
8
Black
10
139.767
20
-84.5777
11
139.772
21
-84.552
0
LINE
8
Black
10
139.772
20
-84.552
11
139.785
21
-84.5295
0
LINE
8
Black
10
139.785
20
-84.5295
11
139.805
21
-84.5127
0
LINE
8
Black
10
139.805
20
-84.5127
11
139.829
21
-84.5038
0
LINE
8
Black
10
139.829
20
-84.5038
11
139.855
21
-84.5038
0
LINE
8
Black
10
139.855
20
-84.5038
11
139.88
21
-84.5127
0
LINE
8
Black
10
137.594
20
-84.5127
11
137.614
21
-84.5295
0
LINE
8
Black
10
137.614
20
-84.5295
11
137.627
21
-84.552
0
LINE
8
Black
10
137.627
20
-84.552
11
137.632
21
-84.5777
0
LINE
8
Black
10
137.632
20
-84.5777
11
137.632
21
-85.1134
0
LINE
8
Black
10
137.632
20
-85.1134
11
137.629
21
-85.1252
0
LINE
8
Black
10
137.629
20
-85.1252
11
137.628
21
-85.1371
0
LINE
8
Black
10
137.628
20
-85.1371
11
137.592
21
-85.2443
0
LINE
8
Black
10
137.592
20
-85.2443
11
137.59
21
-85.2481
0
LINE
8
Black
10
137.59
20
-85.2481
11
137.589
21
-85.2522
0
LINE
8
Black
10
137.589
20
-85.2522
11
137.584
21
-85.2594
0
LINE
8
Black
10
137.584
20
-85.2594
11
137.58
21
-85.2672
0
LINE
8
Black
10
137.58
20
-85.2672
11
137.576
21
-85.27
0
LINE
8
Black
10
137.576
20
-85.27
11
137.574
21
-85.2736
0
LINE
8
Black
10
137.574
20
-85.2736
11
137.502
21
-85.345
0
LINE
8
Black
10
137.502
20
-85.345
11
137.499
21
-85.3475
0
LINE
8
Black
10
137.499
20
-85.3475
11
137.496
21
-85.3507
0
LINE
8
Black
10
137.496
20
-85.3507
11
137.488
21
-85.3549
0
LINE
8
Black
10
137.488
20
-85.3549
11
137.481
21
-85.3599
0
LINE
8
Black
10
137.481
20
-85.3599
11
137.477
21
-85.3611
0
LINE
8
Black
10
137.477
20
-85.3611
11
137.473
21
-85.3631
0
LINE
8
Black
10
137.473
20
-85.3631
11
137.366
21
-85.3988
0
LINE
8
Black
10
137.366
20
-85.3988
11
137.354
21
-85.4006
0
LINE
8
Black
10
137.354
20
-85.4006
11
137.342
21
-85.4027
0
LINE
8
Black
10
137.342
20
-85.4027
11
137.271
21
-85.4027
0
LINE
8
Black
10
137.271
20
-85.4027
11
137.245
21
-85.3982
0
LINE
8
Black
10
137.245
20
-85.3982
11
137.223
21
-85.3851
0
LINE
8
Black
10
137.223
20
-85.3851
11
137.206
21
-85.3652
0
LINE
8
Black
10
137.206
20
-85.3652
11
137.197
21
-85.3407
0
LINE
8
Black
10
137.197
20
-85.3407
11
137.197
21
-85.3147
0
LINE
8
Black
10
137.197
20
-85.3147
11
137.206
21
-85.2902
0
LINE
8
Black
10
137.206
20
-85.2902
11
137.223
21
-85.2702
0
LINE
8
Black
10
137.223
20
-85.2702
11
137.245
21
-85.2572
0
LINE
8
Black
10
137.245
20
-85.2572
11
137.271
21
-85.2527
0
LINE
8
Black
10
137.271
20
-85.2527
11
137.33
21
-85.2527
0
LINE
8
Black
10
137.33
20
-85.2527
11
137.409
21
-85.2264
0
LINE
8
Black
10
137.409
20
-85.2264
11
137.455
21
-85.18
0
LINE
8
Black
10
137.455
20
-85.18
11
137.482
21
-85.1012
0
LINE
8
Black
10
137.482
20
-85.1012
11
137.482
21
-84.5777
0
LINE
8
Black
10
137.482
20
-84.5777
11
137.486
21
-84.552
0
LINE
8
Black
10
137.486
20
-84.552
11
137.499
21
-84.5295
0
LINE
8
Black
10
137.499
20
-84.5295
11
137.519
21
-84.5127
0
LINE
8
Black
10
137.519
20
-84.5127
11
137.543
21
-84.5038
0
LINE
8
Black
10
137.543
20
-84.5038
11
137.57
21
-84.5038
0
LINE
8
Black
10
137.57
20
-84.5038
11
137.594
21
-84.5127
0
LINE
8
Black
10
137.951
20
-84.5127
11
137.971
21
-84.5295
0
LINE
8
Black
10
137.971
20
-84.5295
11
137.984
21
-84.552
0
LINE
8
Black
10
137.984
20
-84.552
11
137.989
21
-84.5777
0
LINE
8
Black
10
137.989
20
-84.5777
11
137.989
21
-85.2527
0
LINE
8
Black
10
137.989
20
-85.2527
11
138.271
21
-85.2527
0
LINE
8
Black
10
138.271
20
-85.2527
11
138.296
21
-85.2572
0
LINE
8
Black
10
138.296
20
-85.2572
11
138.319
21
-85.2702
0
LINE
8
Black
10
138.319
20
-85.2702
11
138.336
21
-85.2902
0
LINE
8
Black
10
138.336
20
-85.2902
11
138.345
21
-85.3147
0
LINE
8
Black
10
138.345
20
-85.3147
11
138.345
21
-85.3407
0
LINE
8
Black
10
138.345
20
-85.3407
11
138.336
21
-85.3652
0
LINE
8
Black
10
138.336
20
-85.3652
11
138.319
21
-85.3851
0
LINE
8
Black
10
138.319
20
-85.3851
11
138.296
21
-85.3982
0
LINE
8
Black
10
138.296
20
-85.3982
11
138.271
21
-85.4027
0
LINE
8
Black
10
138.271
20
-85.4027
11
137.914
21
-85.4027
0
LINE
8
Black
10
137.914
20
-85.4027
11
137.907
21
-85.4015
0
LINE
8
Black
10
137.907
20
-85.4015
11
137.901
21
-85.4015
0
LINE
8
Black
10
137.901
20
-85.4015
11
137.894
21
-85.3993
0
LINE
8
Black
10
137.894
20
-85.3993
11
137.888
21
-85.3982
0
LINE
8
Black
10
137.888
20
-85.3982
11
137.882
21
-85.3949
0
LINE
8
Black
10
137.882
20
-85.3949
11
137.876
21
-85.3926
0
LINE
8
Black
10
137.876
20
-85.3926
11
137.871
21
-85.3884
0
LINE
8
Black
10
137.871
20
-85.3884
11
137.865
21
-85.3851
0
LINE
8
Black
10
137.865
20
-85.3851
11
137.861
21
-85.3801
0
LINE
8
Black
10
137.861
20
-85.3801
11
137.856
21
-85.3759
0
LINE
8
Black
10
137.856
20
-85.3759
11
137.853
21
-85.3702
0
LINE
8
Black
10
137.853
20
-85.3702
11
137.849
21
-85.3652
0
LINE
8
Black
10
137.849
20
-85.3652
11
137.846
21
-85.359
0
LINE
8
Black
10
137.846
20
-85.359
11
137.843
21
-85.3533
0
LINE
8
Black
10
137.843
20
-85.3533
11
137.842
21
-85.3469
0
LINE
8
Black
10
137.842
20
-85.3469
11
137.84
21
-85.3407
0
LINE
8
Black
10
137.84
20
-85.3407
11
137.84
21
-85.3341
0
LINE
8
Black
10
137.84
20
-85.3341
11
137.839
21
-85.3277
0
LINE
8
Black
10
137.839
20
-85.3277
11
137.839
21
-84.5777
0
LINE
8
Black
10
137.839
20
-84.5777
11
137.843
21
-84.552
0
LINE
8
Black
10
137.843
20
-84.552
11
137.856
21
-84.5295
0
LINE
8
Black
10
137.856
20
-84.5295
11
137.876
21
-84.5127
0
LINE
8
Black
10
137.876
20
-84.5127
11
137.901
21
-84.5038
0
LINE
8
Black
10
137.901
20
-84.5038
11
137.927
21
-84.5038
0
LINE
8
Black
10
137.927
20
-84.5038
11
137.951
21
-84.5127
0
LINE
8
Black
10
139.523
20
-84.5127
11
139.543
21
-84.5295
0
LINE
8
Black
10
139.543
20
-84.5295
11
139.556
21
-84.552
0
LINE
8
Black
10
139.556
20
-84.552
11
139.56
21
-84.5777
0
LINE
8
Black
10
139.56
20
-84.5777
11
139.56
21
-85.1134
0
LINE
8
Black
10
139.56
20
-85.1134
11
139.558
21
-85.1252
0
LINE
8
Black
10
139.558
20
-85.1252
11
139.556
21
-85.1371
0
LINE
8
Black
10
139.556
20
-85.1371
11
139.521
21
-85.2443
0
LINE
8
Black
10
139.521
20
-85.2443
11
139.518
21
-85.2481
0
LINE
8
Black
10
139.518
20
-85.2481
11
139.517
21
-85.2522
0
LINE
8
Black
10
139.517
20
-85.2522
11
139.512
21
-85.2594
0
LINE
8
Black
10
139.512
20
-85.2594
11
139.508
21
-85.2672
0
LINE
8
Black
10
139.508
20
-85.2672
11
139.505
21
-85.27
0
LINE
8
Black
10
139.505
20
-85.27
11
139.502
21
-85.2736
0
LINE
8
Black
10
139.502
20
-85.2736
11
139.431
21
-85.345
0
LINE
8
Black
10
139.431
20
-85.345
11
139.427
21
-85.3475
0
LINE
8
Black
10
139.427
20
-85.3475
11
139.425
21
-85.3507
0
LINE
8
Black
10
139.425
20
-85.3507
11
139.417
21
-85.3549
0
LINE
8
Black
10
139.417
20
-85.3549
11
139.41
21
-85.3599
0
LINE
8
Black
10
139.41
20
-85.3599
11
139.405
21
-85.3611
0
LINE
8
Black
10
139.405
20
-85.3611
11
139.402
21
-85.3631
0
LINE
8
Black
10
139.402
20
-85.3631
11
139.295
21
-85.3988
0
LINE
8
Black
10
139.295
20
-85.3988
11
139.283
21
-85.4006
0
LINE
8
Black
10
139.283
20
-85.4006
11
139.271
21
-85.4027
0
LINE
8
Black
10
139.271
20
-85.4027
11
139.199
21
-85.4027
0
LINE
8
Black
10
139.199
20
-85.4027
11
139.174
21
-85.3982
0
LINE
8
Black
10
139.174
20
-85.3982
11
139.151
21
-85.3851
0
LINE
8
Black
10
139.151
20
-85.3851
11
139.134
21
-85.3652
0
LINE
8
Black
10
139.134
20
-85.3652
11
139.126
21
-85.3407
0
LINE
8
Black
10
139.126
20
-85.3407
11
139.126
21
-85.3147
0
LINE
8
Black
10
139.126
20
-85.3147
11
139.134
21
-85.2902
0
LINE
8
Black
10
139.134
20
-85.2902
11
139.151
21
-85.2702
0
LINE
8
Black
10
139.151
20
-85.2702
11
139.174
21
-85.2572
0
LINE
8
Black
10
139.174
20
-85.2572
11
139.199
21
-85.2527
0
LINE
8
Black
10
139.199
20
-85.2527
11
139.259
21
-85.2527
0
LINE
8
Black
10
139.259
20
-85.2527
11
139.337
21
-85.2264
0
LINE
8
Black
10
139.337
20
-85.2264
11
139.384
21
-85.18
0
LINE
8
Black
10
139.384
20
-85.18
11
139.41
21
-85.1012
0
LINE
8
Black
10
139.41
20
-85.1012
11
139.41
21
-84.5777
0
LINE
8
Black
10
139.41
20
-84.5777
11
139.415
21
-84.552
0
LINE
8
Black
10
139.415
20
-84.552
11
139.428
21
-84.5295
0
LINE
8
Black
10
139.428
20
-84.5295
11
139.448
21
-84.5127
0
LINE
8
Black
10
139.448
20
-84.5127
11
139.472
21
-84.5038
0
LINE
8
Black
10
139.472
20
-84.5038
11
139.498
21
-84.5038
0
LINE
8
Black
10
139.498
20
-84.5038
11
139.523
21
-84.5127
0
LINE
8
Black
10
138.818
20
-84.5048
11
138.83
21
-84.5065
0
LINE
8
Black
10
138.83
20
-84.5065
11
138.937
21
-84.5422
0
LINE
8
Black
10
138.937
20
-84.5422
11
138.941
21
-84.5443
0
LINE
8
Black
10
138.941
20
-84.5443
11
138.945
21
-84.5454
0
LINE
8
Black
10
138.945
20
-84.5454
11
138.953
21
-84.5505
0
LINE
8
Black
10
138.953
20
-84.5505
11
138.96
21
-84.5547
0
LINE
8
Black
10
138.96
20
-84.5547
11
138.963
21
-84.5579
0
LINE
8
Black
10
138.963
20
-84.5579
11
138.967
21
-84.5604
0
LINE
8
Black
10
138.967
20
-84.5604
11
139.002
21
-84.5961
0
LINE
8
Black
10
139.002
20
-84.5961
11
139.017
21
-84.6174
0
LINE
8
Black
10
139.017
20
-84.6174
11
139.024
21
-84.6426
0
LINE
8
Black
10
139.024
20
-84.6426
11
139.022
21
-84.6685
0
LINE
8
Black
10
139.022
20
-84.6685
11
139.011
21
-84.6921
0
LINE
8
Black
10
139.011
20
-84.6921
11
138.992
21
-84.7106
0
LINE
8
Black
10
138.992
20
-84.7106
11
138.969
21
-84.7216
0
LINE
8
Black
10
138.969
20
-84.7216
11
138.943
21
-84.7238
0
LINE
8
Black
10
138.943
20
-84.7238
11
138.918
21
-84.7171
0
LINE
8
Black
10
138.918
20
-84.7171
11
138.896
21
-84.7021
0
LINE
8
Black
10
138.896
20
-84.7021
11
138.873
21
-84.679
0
LINE
8
Black
10
138.873
20
-84.679
11
138.794
21
-84.6527
0
LINE
8
Black
10
138.794
20
-84.6527
11
138.747
21
-84.6527
0
LINE
8
Black
10
138.747
20
-84.6527
11
138.668
21
-84.679
0
LINE
8
Black
10
138.668
20
-84.679
11
138.618
21
-84.7293
0
LINE
8
Black
10
138.618
20
-84.7293
11
138.592
21
-84.7824
0
LINE
8
Black
10
138.592
20
-84.7824
11
138.56
21
-84.9083
0
LINE
8
Black
10
138.56
20
-84.9083
11
138.56
21
-84.997
0
LINE
8
Black
10
138.56
20
-84.997
11
138.592
21
-85.1229
0
LINE
8
Black
10
138.592
20
-85.1229
11
138.618
21
-85.1761
0
LINE
8
Black
10
138.618
20
-85.1761
11
138.668
21
-85.2264
0
LINE
8
Black
10
138.668
20
-85.2264
11
138.747
21
-85.2527
0
LINE
8
Black
10
138.747
20
-85.2527
11
138.794
21
-85.2527
0
LINE
8
Black
10
138.794
20
-85.2527
11
138.873
21
-85.2264
0
LINE
8
Black
10
138.873
20
-85.2264
11
138.896
21
-85.2032
0
LINE
8
Black
10
138.896
20
-85.2032
11
138.918
21
-85.1883
0
LINE
8
Black
10
138.918
20
-85.1883
11
138.943
21
-85.1815
0
LINE
8
Black
10
138.943
20
-85.1815
11
138.969
21
-85.1838
0
LINE
8
Black
10
138.969
20
-85.1838
11
138.992
21
-85.1948
0
LINE
8
Black
10
138.992
20
-85.1948
11
139.011
21
-85.2132
0
LINE
8
Black
10
139.011
20
-85.2132
11
139.022
21
-85.2368
0
LINE
8
Black
10
139.022
20
-85.2368
11
139.024
21
-85.2628
0
LINE
8
Black
10
139.024
20
-85.2628
11
139.017
21
-85.288
0
LINE
8
Black
10
139.017
20
-85.288
11
139.002
21
-85.3093
0
LINE
8
Black
10
139.002
20
-85.3093
11
138.967
21
-85.345
0
LINE
8
Black
10
138.967
20
-85.345
11
138.963
21
-85.3475
0
LINE
8
Black
10
138.963
20
-85.3475
11
138.96
21
-85.3507
0
LINE
8
Black
10
138.96
20
-85.3507
11
138.953
21
-85.3549
0
LINE
8
Black
10
138.953
20
-85.3549
11
138.945
21
-85.3599
0
LINE
8
Black
10
138.945
20
-85.3599
11
138.941
21
-85.3611
0
LINE
8
Black
10
138.941
20
-85.3611
11
138.937
21
-85.3631
0
LINE
8
Black
10
138.937
20
-85.3631
11
138.83
21
-85.3988
0
LINE
8
Black
10
138.83
20
-85.3988
11
138.818
21
-85.4006
0
LINE
8
Black
10
138.818
20
-85.4006
11
138.807
21
-85.4027
0
LINE
8
Black
10
138.807
20
-85.4027
11
138.735
21
-85.4027
0
LINE
8
Black
10
138.735
20
-85.4027
11
138.723
21
-85.4006
0
LINE
8
Black
10
138.723
20
-85.4006
11
138.711
21
-85.3988
0
LINE
8
Black
10
138.711
20
-85.3988
11
138.604
21
-85.3631
0
LINE
8
Black
10
138.604
20
-85.3631
11
138.6
21
-85.3611
0
LINE
8
Black
10
138.6
20
-85.3611
11
138.596
21
-85.3599
0
LINE
8
Black
10
138.596
20
-85.3599
11
138.589
21
-85.3549
0
LINE
8
Black
10
138.589
20
-85.3549
11
138.581
21
-85.3507
0
LINE
8
Black
10
138.581
20
-85.3507
11
138.578
21
-85.3475
0
LINE
8
Black
10
138.578
20
-85.3475
11
138.575
21
-85.345
0
LINE
8
Black
10
138.575
20
-85.345
11
138.503
21
-85.2736
0
LINE
8
Black
10
138.503
20
-85.2736
11
138.497
21
-85.2637
0
LINE
8
Black
10
138.497
20
-85.2637
11
138.489
21
-85.2541
0
LINE
8
Black
10
138.489
20
-85.2541
11
138.454
21
-85.1827
0
LINE
8
Black
10
138.454
20
-85.1827
11
138.451
21
-85.1748
0
LINE
8
Black
10
138.451
20
-85.1748
11
138.448
21
-85.1673
0
LINE
8
Black
10
138.448
20
-85.1673
11
138.412
21
-85.0244
0
LINE
8
Black
10
138.412
20
-85.0244
11
138.412
21
-85.0153
0
LINE
8
Black
10
138.412
20
-85.0153
11
138.41
21
-85.0063
0
LINE
8
Black
10
138.41
20
-85.0063
11
138.41
21
-84.8991
0
LINE
8
Black
10
138.41
20
-84.8991
11
138.412
21
-84.8901
0
LINE
8
Black
10
138.412
20
-84.8901
11
138.412
21
-84.8809
0
LINE
8
Black
10
138.412
20
-84.8809
11
138.448
21
-84.7381
0
LINE
8
Black
10
138.448
20
-84.7381
11
138.451
21
-84.7306
0
LINE
8
Black
10
138.451
20
-84.7306
11
138.454
21
-84.7227
0
LINE
8
Black
10
138.454
20
-84.7227
11
138.489
21
-84.6513
0
LINE
8
Black
10
138.489
20
-84.6513
11
138.497
21
-84.6417
0
LINE
8
Black
10
138.497
20
-84.6417
11
138.503
21
-84.6318
0
LINE
8
Black
10
138.503
20
-84.6318
11
138.575
21
-84.5604
0
LINE
8
Black
10
138.575
20
-84.5604
11
138.578
21
-84.5579
0
LINE
8
Black
10
138.578
20
-84.5579
11
138.581
21
-84.5547
0
LINE
8
Black
10
138.581
20
-84.5547
11
138.589
21
-84.5505
0
LINE
8
Black
10
138.589
20
-84.5505
11
138.596
21
-84.5454
0
LINE
8
Black
10
138.596
20
-84.5454
11
138.6
21
-84.5443
0
LINE
8
Black
10
138.6
20
-84.5443
11
138.604
21
-84.5422
0
LINE
8
Black
10
138.604
20
-84.5422
11
138.711
21
-84.5065
0
LINE
8
Black
10
138.711
20
-84.5065
11
138.723
21
-84.5048
0
LINE
8
Black
10
138.723
20
-84.5048
11
138.735
21
-84.5027
0
LINE
8
Black
10
138.735
20
-84.5027
11
138.807
21
-84.5027
0
LINE
8
Black
10
138.807
20
-84.5027
11
138.818
21
-84.5048
0
LINE
8
Black
10
141.451
20
-84.5127
11
141.471
21
-84.5295
0
LINE
8
Black
10
141.471
20
-84.5295
11
141.484
21
-84.552
0
LINE
8
Black
10
141.484
20
-84.552
11
141.489
21
-84.5777
0
LINE
8
Black
10
141.489
20
-84.5777
11
141.489
21
-85.1134
0
LINE
8
Black
10
141.489
20
-85.1134
11
141.487
21
-85.1252
0
LINE
8
Black
10
141.487
20
-85.1252
11
141.485
21
-85.1371
0
LINE
8
Black
10
141.485
20
-85.1371
11
141.449
21
-85.2443
0
LINE
8
Black
10
141.449
20
-85.2443
11
141.447
21
-85.2481
0
LINE
8
Black
10
141.447
20
-85.2481
11
141.446
21
-85.2522
0
LINE
8
Black
10
141.446
20
-85.2522
11
141.441
21
-85.2594
0
LINE
8
Black
10
141.441
20
-85.2594
11
141.437
21
-85.2672
0
LINE
8
Black
10
141.437
20
-85.2672
11
141.433
21
-85.27
0
LINE
8
Black
10
141.433
20
-85.27
11
141.431
21
-85.2736
0
LINE
8
Black
10
141.431
20
-85.2736
11
141.36
21
-85.345
0
LINE
8
Black
10
141.36
20
-85.345
11
141.356
21
-85.3475
0
LINE
8
Black
10
141.356
20
-85.3475
11
141.353
21
-85.3507
0
LINE
8
Black
10
141.353
20
-85.3507
11
141.345
21
-85.3549
0
LINE
8
Black
10
141.345
20
-85.3549
11
141.338
21
-85.3599
0
LINE
8
Black
10
141.338
20
-85.3599
11
141.334
21
-85.3611
0
LINE
8
Black
10
141.334
20
-85.3611
11
141.33
21
-85.3631
0
LINE
8
Black
10
141.33
20
-85.3631
11
141.223
21
-85.3988
0
LINE
8
Black
10
141.223
20
-85.3988
11
141.211
21
-85.4006
0
LINE
8
Black
10
141.211
20
-85.4006
11
141.199
21
-85.4027
0
LINE
8
Black
10
141.199
20
-85.4027
11
141.128
21
-85.4027
0
LINE
8
Black
10
141.128
20
-85.4027
11
141.102
21
-85.3982
0
LINE
8
Black
10
141.102
20
-85.3982
11
141.08
21
-85.3851
0
LINE
8
Black
10
141.08
20
-85.3851
11
141.063
21
-85.3652
0
LINE
8
Black
10
141.063
20
-85.3652
11
141.054
21
-85.3407
0
LINE
8
Black
10
141.054
20
-85.3407
11
141.054
21
-85.3147
0
LINE
8
Black
10
141.054
20
-85.3147
11
141.063
21
-85.2902
0
LINE
8
Black
10
141.063
20
-85.2902
11
141.08
21
-85.2702
0
LINE
8
Black
10
141.08
20
-85.2702
11
141.102
21
-85.2572
0
LINE
8
Black
10
141.102
20
-85.2572
11
141.128
21
-85.2527
0
LINE
8
Black
10
141.128
20
-85.2527
11
141.187
21
-85.2527
0
LINE
8
Black
10
141.187
20
-85.2527
11
141.266
21
-85.2264
0
LINE
8
Black
10
141.266
20
-85.2264
11
141.312
21
-85.18
0
LINE
8
Black
10
141.312
20
-85.18
11
141.339
21
-85.1012
0
LINE
8
Black
10
141.339
20
-85.1012
11
141.339
21
-84.5777
0
LINE
8
Black
10
141.339
20
-84.5777
11
141.343
21
-84.552
0
LINE
8
Black
10
141.343
20
-84.552
11
141.356
21
-84.5295
0
LINE
8
Black
10
141.356
20
-84.5295
11
141.376
21
-84.5127
0
LINE
8
Black
10
141.376
20
-84.5127
11
141.401
21
-84.5038
0
LINE
8
Black
10
141.401
20
-84.5038
11
141.427
21
-84.5038
0
LINE
8
Black
10
141.427
20
-84.5038
11
141.451
21
-84.5127
0
LINE
8
Black
10
143.38
20
-84.5127
11
143.4
21
-84.5295
0
LINE
8
Black
10
143.4
20
-84.5295
11
143.413
21
-84.552
0
LINE
8
Black
10
143.413
20
-84.552
11
143.417
21
-84.5777
0
LINE
8
Black
10
143.417
20
-84.5777
11
143.417
21
-85.1134
0
LINE
8
Black
10
143.417
20
-85.1134
11
143.415
21
-85.1252
0
LINE
8
Black
10
143.415
20
-85.1252
11
143.413
21
-85.1371
0
LINE
8
Black
10
143.413
20
-85.1371
11
143.378
21
-85.2443
0
LINE
8
Black
10
143.378
20
-85.2443
11
143.376
21
-85.2481
0
LINE
8
Black
10
143.376
20
-85.2481
11
143.374
21
-85.2522
0
LINE
8
Black
10
143.374
20
-85.2522
11
143.369
21
-85.2594
0
LINE
8
Black
10
143.369
20
-85.2594
11
143.365
21
-85.2672
0
LINE
8
Black
10
143.365
20
-85.2672
11
143.362
21
-85.27
0
LINE
8
Black
10
143.362
20
-85.27
11
143.36
21
-85.2736
0
LINE
8
Black
10
143.36
20
-85.2736
11
143.288
21
-85.345
0
LINE
8
Black
10
143.288
20
-85.345
11
143.285
21
-85.3475
0
LINE
8
Black
10
143.285
20
-85.3475
11
143.282
21
-85.3507
0
LINE
8
Black
10
143.282
20
-85.3507
11
143.274
21
-85.3549
0
LINE
8
Black
10
143.274
20
-85.3549
11
143.267
21
-85.3599
0
LINE
8
Black
10
143.267
20
-85.3599
11
143.263
21
-85.3611
0
LINE
8
Black
10
143.263
20
-85.3611
11
143.259
21
-85.3631
0
LINE
8
Black
10
143.259
20
-85.3631
11
143.152
21
-85.3988
0
LINE
8
Black
10
143.152
20
-85.3988
11
143.14
21
-85.4006
0
LINE
8
Black
10
143.14
20
-85.4006
11
143.128
21
-85.4027
0
LINE
8
Black
10
143.128
20
-85.4027
11
143.057
21
-85.4027
0
LINE
8
Black
10
143.057
20
-85.4027
11
143.031
21
-85.3982
0
LINE
8
Black
10
143.031
20
-85.3982
11
143.008
21
-85.3851
0
LINE
8
Black
10
143.008
20
-85.3851
11
142.992
21
-85.3652
0
LINE
8
Black
10
142.992
20
-85.3652
11
142.983
21
-85.3407
0
LINE
8
Black
10
142.983
20
-85.3407
11
142.983
21
-85.3147
0
LINE
8
Black
10
142.983
20
-85.3147
11
142.992
21
-85.2902
0
LINE
8
Black
10
142.992
20
-85.2902
11
143.008
21
-85.2702
0
LINE
8
Black
10
143.008
20
-85.2702
11
143.031
21
-85.2572
0
LINE
8
Black
10
143.031
20
-85.2572
11
143.057
21
-85.2527
0
LINE
8
Black
10
143.057
20
-85.2527
11
143.116
21
-85.2527
0
LINE
8
Black
10
143.116
20
-85.2527
11
143.195
21
-85.2264
0
LINE
8
Black
10
143.195
20
-85.2264
11
143.241
21
-85.18
0
LINE
8
Black
10
143.241
20
-85.18
11
143.267
21
-85.1012
0
LINE
8
Black
10
143.267
20
-85.1012
11
143.267
21
-84.5777
0
LINE
8
Black
10
143.267
20
-84.5777
11
143.272
21
-84.552
0
LINE
8
Black
10
143.272
20
-84.552
11
143.285
21
-84.5295
0
LINE
8
Black
10
143.285
20
-84.5295
11
143.305
21
-84.5127
0
LINE
8
Black
10
143.305
20
-84.5127
11
143.329
21
-84.5038
0
LINE
8
Black
10
143.329
20
-84.5038
11
143.355
21
-84.5038
0
LINE
8
Black
10
143.355
20
-84.5038
11
143.38
21
-84.5127
0
LINE
8
Black
10
143.737
20
-84.5127
11
143.757
21
-84.5295
0
LINE
8
Black
10
143.757
20
-84.5295
11
143.77
21
-84.552
0
LINE
8
Black
10
143.77
20
-84.552
11
143.774
21
-84.5777
0
LINE
8
Black
10
143.774
20
-84.5777
11
143.774
21
-85.2527
0
LINE
8
Black
10
143.774
20
-85.2527
11
144.057
21
-85.2527
0
LINE
8
Black
10
144.057
20
-85.2527
11
144.082
21
-85.2572
0
LINE
8
Black
10
144.082
20
-85.2572
11
144.105
21
-85.2702
0
LINE
8
Black
10
144.105
20
-85.2702
11
144.121
21
-85.2902
0
LINE
8
Black
10
144.121
20
-85.2902
11
144.13
21
-85.3147
0
LINE
8
Black
10
144.13
20
-85.3147
11
144.13
21
-85.3407
0
LINE
8
Black
10
144.13
20
-85.3407
11
144.121
21
-85.3652
0
LINE
8
Black
10
144.121
20
-85.3652
11
144.105
21
-85.3851
0
LINE
8
Black
10
144.105
20
-85.3851
11
144.082
21
-85.3982
0
LINE
8
Black
10
144.082
20
-85.3982
11
144.057
21
-85.4027
0
LINE
8
Black
10
144.057
20
-85.4027
11
143.699
21
-85.4027
0
LINE
8
Black
10
143.699
20
-85.4027
11
143.693
21
-85.4015
0
LINE
8
Black
10
143.693
20
-85.4015
11
143.686
21
-85.4015
0
LINE
8
Black
10
143.686
20
-85.4015
11
143.68
21
-85.3993
0
LINE
8
Black
10
143.68
20
-85.3993
11
143.674
21
-85.3982
0
LINE
8
Black
10
143.674
20
-85.3982
11
143.668
21
-85.3949
0
LINE
8
Black
10
143.668
20
-85.3949
11
143.662
21
-85.3926
0
LINE
8
Black
10
143.662
20
-85.3926
11
143.657
21
-85.3884
0
LINE
8
Black
10
143.657
20
-85.3884
11
143.651
21
-85.3851
0
LINE
8
Black
10
143.651
20
-85.3851
11
143.647
21
-85.3801
0
LINE
8
Black
10
143.647
20
-85.3801
11
143.642
21
-85.3759
0
LINE
8
Black
10
143.642
20
-85.3759
11
143.639
21
-85.3702
0
LINE
8
Black
10
143.639
20
-85.3702
11
143.634
21
-85.3652
0
LINE
8
Black
10
143.634
20
-85.3652
11
143.632
21
-85.359
0
LINE
8
Black
10
143.632
20
-85.359
11
143.629
21
-85.3533
0
LINE
8
Black
10
143.629
20
-85.3533
11
143.628
21
-85.3469
0
LINE
8
Black
10
143.628
20
-85.3469
11
143.626
21
-85.3407
0
LINE
8
Black
10
143.626
20
-85.3407
11
143.626
21
-85.3341
0
LINE
8
Black
10
143.626
20
-85.3341
11
143.624
21
-85.3277
0
LINE
8
Black
10
143.624
20
-85.3277
11
143.624
21
-84.5777
0
LINE
8
Black
10
143.624
20
-84.5777
11
143.629
21
-84.552
0
LINE
8
Black
10
143.629
20
-84.552
11
143.642
21
-84.5295
0
LINE
8
Black
10
143.642
20
-84.5295
11
143.662
21
-84.5127
0
LINE
8
Black
10
143.662
20
-84.5127
11
143.686
21
-84.5038
0
LINE
8
Black
10
143.686
20
-84.5038
11
143.712
21
-84.5038
0
LINE
8
Black
10
143.712
20
-84.5038
11
143.737
21
-84.5127
0
LINE
8
Black
10
141.808
20
-84.5127
11
141.828
21
-84.5295
0
LINE
8
Black
10
141.828
20
-84.5295
11
141.841
21
-84.552
0
LINE
8
Black
10
141.841
20
-84.552
11
141.846
21
-84.5777
0
LINE
8
Black
10
141.846
20
-84.5777
11
141.846
21
-85.2527
0
LINE
8
Black
10
141.846
20
-85.2527
11
142.128
21
-85.2527
0
LINE
8
Black
10
142.128
20
-85.2527
11
142.154
21
-85.2572
0
LINE
8
Black
10
142.154
20
-85.2572
11
142.176
21
-85.2702
0
LINE
8
Black
10
142.176
20
-85.2702
11
142.193
21
-85.2902
0
LINE
8
Black
10
142.193
20
-85.2902
11
142.202
21
-85.3147
0
LINE
8
Black
10
142.202
20
-85.3147
11
142.202
21
-85.3407
0
LINE
8
Black
10
142.202
20
-85.3407
11
142.193
21
-85.3652
0
LINE
8
Black
10
142.193
20
-85.3652
11
142.176
21
-85.3851
0
LINE
8
Black
10
142.176
20
-85.3851
11
142.154
21
-85.3982
0
LINE
8
Black
10
142.154
20
-85.3982
11
142.128
21
-85.4027
0
LINE
8
Black
10
142.128
20
-85.4027
11
141.771
21
-85.4027
0
LINE
8
Black
10
141.771
20
-85.4027
11
141.764
21
-85.4015
0
LINE
8
Black
10
141.764
20
-85.4015
11
141.758
21
-85.4015
0
LINE
8
Black
10
141.758
20
-85.4015
11
141.752
21
-85.3993
0
LINE
8
Black
10
141.752
20
-85.3993
11
141.745
21
-85.3982
0
LINE
8
Black
10
141.745
20
-85.3982
11
141.739
21
-85.3949
0
LINE
8
Black
10
141.739
20
-85.3949
11
141.733
21
-85.3926
0
LINE
8
Black
10
141.733
20
-85.3926
11
141.728
21
-85.3884
0
LINE
8
Black
10
141.728
20
-85.3884
11
141.723
21
-85.3851
0
LINE
8
Black
10
141.723
20
-85.3851
11
141.718
21
-85.3801
0
LINE
8
Black
10
141.718
20
-85.3801
11
141.713
21
-85.3759
0
LINE
8
Black
10
141.713
20
-85.3759
11
141.71
21
-85.3702
0
LINE
8
Black
10
141.71
20
-85.3702
11
141.706
21
-85.3652
0
LINE
8
Black
10
141.706
20
-85.3652
11
141.704
21
-85.359
0
LINE
8
Black
10
141.704
20
-85.359
11
141.7
21
-85.3533
0
LINE
8
Black
10
141.7
20
-85.3533
11
141.699
21
-85.3469
0
LINE
8
Black
10
141.699
20
-85.3469
11
141.697
21
-85.3407
0
LINE
8
Black
10
141.697
20
-85.3407
11
141.697
21
-85.3341
0
LINE
8
Black
10
141.697
20
-85.3341
11
141.696
21
-85.3277
0
LINE
8
Black
10
141.696
20
-85.3277
11
141.696
21
-84.5777
0
LINE
8
Black
10
141.696
20
-84.5777
11
141.7
21
-84.552
0
LINE
8
Black
10
141.7
20
-84.552
11
141.713
21
-84.5295
0
LINE
8
Black
10
141.713
20
-84.5295
11
141.733
21
-84.5127
0
LINE
8
Black
10
141.733
20
-84.5127
11
141.758
21
-84.5038
0
LINE
8
Black
10
141.758
20
-84.5038
11
141.784
21
-84.5038
0
LINE
8
Black
10
141.784
20
-84.5038
11
141.808
21
-84.5127
0
LINE
8
Black
10
144.604
20
-84.5048
11
144.616
21
-84.5065
0
LINE
8
Black
10
144.616
20
-84.5065
11
144.723
21
-84.5422
0
LINE
8
Black
10
144.723
20
-84.5422
11
144.727
21
-84.5443
0
LINE
8
Black
10
144.727
20
-84.5443
11
144.731
21
-84.5454
0
LINE
8
Black
10
144.731
20
-84.5454
11
144.738
21
-84.5505
0
LINE
8
Black
10
144.738
20
-84.5505
11
144.746
21
-84.5547
0
LINE
8
Black
10
144.746
20
-84.5547
11
144.749
21
-84.5579
0
LINE
8
Black
10
144.749
20
-84.5579
11
144.752
21
-84.5604
0
LINE
8
Black
10
144.752
20
-84.5604
11
144.788
21
-84.5961
0
LINE
8
Black
10
144.788
20
-84.5961
11
144.803
21
-84.6174
0
LINE
8
Black
10
144.803
20
-84.6174
11
144.81
21
-84.6426
0
LINE
8
Black
10
144.81
20
-84.6426
11
144.808
21
-84.6685
0
LINE
8
Black
10
144.808
20
-84.6685
11
144.797
21
-84.6921
0
LINE
8
Black
10
144.797
20
-84.6921
11
144.778
21
-84.7106
0
LINE
8
Black
10
144.778
20
-84.7106
11
144.754
21
-84.7216
0
LINE
8
Black
10
144.754
20
-84.7216
11
144.729
21
-84.7238
0
LINE
8
Black
10
144.729
20
-84.7238
11
144.703
21
-84.7171
0
LINE
8
Black
10
144.703
20
-84.7171
11
144.682
21
-84.7021
0
LINE
8
Black
10
144.682
20
-84.7021
11
144.659
21
-84.679
0
LINE
8
Black
10
144.659
20
-84.679
11
144.58
21
-84.6527
0
LINE
8
Black
10
144.58
20
-84.6527
11
144.533
21
-84.6527
0
LINE
8
Black
10
144.533
20
-84.6527
11
144.454
21
-84.679
0
LINE
8
Black
10
144.454
20
-84.679
11
144.404
21
-84.7293
0
LINE
8
Black
10
144.404
20
-84.7293
11
144.377
21
-84.7824
0
LINE
8
Black
10
144.377
20
-84.7824
11
144.346
21
-84.9083
0
LINE
8
Black
10
144.346
20
-84.9083
11
144.346
21
-84.997
0
LINE
8
Black
10
144.346
20
-84.997
11
144.377
21
-85.1229
0
LINE
8
Black
10
144.377
20
-85.1229
11
144.404
21
-85.1761
0
LINE
8
Black
10
144.404
20
-85.1761
11
144.454
21
-85.2264
0
LINE
8
Black
10
144.454
20
-85.2264
11
144.533
21
-85.2527
0
LINE
8
Black
10
144.533
20
-85.2527
11
144.58
21
-85.2527
0
LINE
8
Black
10
144.58
20
-85.2527
11
144.659
21
-85.2264
0
LINE
8
Black
10
144.659
20
-85.2264
11
144.682
21
-85.2032
0
LINE
8
Black
10
144.682
20
-85.2032
11
144.703
21
-85.1883
0
LINE
8
Black
10
144.703
20
-85.1883
11
144.729
21
-85.1815
0
LINE
8
Black
10
144.729
20
-85.1815
11
144.754
21
-85.1838
0
LINE
8
Black
10
144.754
20
-85.1838
11
144.778
21
-85.1948
0
LINE
8
Black
10
144.778
20
-85.1948
11
144.797
21
-85.2132
0
LINE
8
Black
10
144.797
20
-85.2132
11
144.808
21
-85.2368
0
LINE
8
Black
10
144.808
20
-85.2368
11
144.81
21
-85.2628
0
LINE
8
Black
10
144.81
20
-85.2628
11
144.803
21
-85.288
0
LINE
8
Black
10
144.803
20
-85.288
11
144.788
21
-85.3093
0
LINE
8
Black
10
144.788
20
-85.3093
11
144.752
21
-85.345
0
LINE
8
Black
10
144.752
20
-85.345
11
144.749
21
-85.3475
0
LINE
8
Black
10
144.749
20
-85.3475
11
144.746
21
-85.3507
0
LINE
8
Black
10
144.746
20
-85.3507
11
144.738
21
-85.3549
0
LINE
8
Black
10
144.738
20
-85.3549
11
144.731
21
-85.3599
0
LINE
8
Black
10
144.731
20
-85.3599
11
144.727
21
-85.3611
0
LINE
8
Black
10
144.727
20
-85.3611
11
144.723
21
-85.3631
0
LINE
8
Black
10
144.723
20
-85.3631
11
144.616
21
-85.3988
0
LINE
8
Black
10
144.616
20
-85.3988
11
144.604
21
-85.4006
0
LINE
8
Black
10
144.604
20
-85.4006
11
144.592
21
-85.4027
0
LINE
8
Black
10
144.592
20
-85.4027
11
144.521
21
-85.4027
0
LINE
8
Black
10
144.521
20
-85.4027
11
144.509
21
-85.4006
0
LINE
8
Black
10
144.509
20
-85.4006
11
144.497
21
-85.3988
0
LINE
8
Black
10
144.497
20
-85.3988
11
144.39
21
-85.3631
0
LINE
8
Black
10
144.39
20
-85.3631
11
144.386
21
-85.3611
0
LINE
8
Black
10
144.386
20
-85.3611
11
144.382
21
-85.3599
0
LINE
8
Black
10
144.382
20
-85.3599
11
144.375
21
-85.3549
0
LINE
8
Black
10
144.375
20
-85.3549
11
144.367
21
-85.3507
0
LINE
8
Black
10
144.367
20
-85.3507
11
144.364
21
-85.3475
0
LINE
8
Black
10
144.364
20
-85.3475
11
144.361
21
-85.345
0
LINE
8
Black
10
144.361
20
-85.345
11
144.289
21
-85.2736
0
LINE
8
Black
10
144.289
20
-85.2736
11
144.282
21
-85.2637
0
LINE
8
Black
10
144.282
20
-85.2637
11
144.275
21
-85.2541
0
LINE
8
Black
10
144.275
20
-85.2541
11
144.239
21
-85.1827
0
LINE
8
Black
10
144.239
20
-85.1827
11
144.237
21
-85.1748
0
LINE
8
Black
10
144.237
20
-85.1748
11
144.234
21
-85.1673
0
LINE
8
Black
10
144.234
20
-85.1673
11
144.198
21
-85.0244
0
LINE
8
Black
10
144.198
20
-85.0244
11
144.197
21
-85.0153
0
LINE
8
Black
10
144.197
20
-85.0153
11
144.196
21
-85.0063
0
LINE
8
Black
10
144.196
20
-85.0063
11
144.196
21
-84.8991
0
LINE
8
Black
10
144.196
20
-84.8991
11
144.197
21
-84.8901
0
LINE
8
Black
10
144.197
20
-84.8901
11
144.198
21
-84.8809
0
LINE
8
Black
10
144.198
20
-84.8809
11
144.234
21
-84.7381
0
LINE
8
Black
10
144.234
20
-84.7381
11
144.237
21
-84.7306
0
LINE
8
Black
10
144.237
20
-84.7306
11
144.239
21
-84.7227
0
LINE
8
Black
10
144.239
20
-84.7227
11
144.275
21
-84.6513
0
LINE
8
Black
10
144.275
20
-84.6513
11
144.282
21
-84.6417
0
LINE
8
Black
10
144.282
20
-84.6417
11
144.289
21
-84.6318
0
LINE
8
Black
10
144.289
20
-84.6318
11
144.361
21
-84.5604
0
LINE
8
Black
10
144.361
20
-84.5604
11
144.364
21
-84.5579
0
LINE
8
Black
10
144.364
20
-84.5579
11
144.367
21
-84.5547
0
LINE
8
Black
10
144.367
20
-84.5547
11
144.375
21
-84.5505
0
LINE
8
Black
10
144.375
20
-84.5505
11
144.382
21
-84.5454
0
LINE
8
Black
10
144.382
20
-84.5454
11
144.386
21
-84.5443
0
LINE
8
Black
10
144.386
20
-84.5443
11
144.39
21
-84.5422
0
LINE
8
Black
10
144.39
20
-84.5422
11
144.497
21
-84.5065
0
LINE
8
Black
10
144.497
20
-84.5065
11
144.509
21
-84.5048
0
LINE
8
Black
10
144.509
20
-84.5048
11
144.521
21
-84.5027
0
LINE
8
Black
10
144.521
20
-84.5027
11
144.592
21
-84.5027
0
LINE
8
Black
10
144.592
20
-84.5027
11
144.604
21
-84.5048
0
LINE
8
Black
10
134.789
20
-82.6897
11
134.797
21
-82.6892
0
LINE
8
Black
10
134.797
20
-82.6892
11
134.814
21
-82.6942
0
LINE
8
Black
10
134.814
20
-82.6942
11
134.832
21
-82.6972
0
LINE
8
Black
10
134.832
20
-82.6972
11
134.839
21
-82.7015
0
LINE
8
Black
10
134.839
20
-82.7015
11
134.847
21
-82.704
0
LINE
8
Black
10
134.847
20
-82.704
11
134.853
21
-82.7066
0
LINE
8
Black
10
134.853
20
-82.7066
11
134.897
21
-82.6904
0
LINE
8
Black
10
134.897
20
-82.6904
11
134.949
21
-82.6904
0
LINE
8
Black
10
134.949
20
-82.6904
11
134.998
21
-82.7083
0
LINE
8
Black
10
134.998
20
-82.7083
11
135.038
21
-82.7418
0
LINE
8
Black
10
135.038
20
-82.7418
11
135.064
21
-82.7869
0
LINE
8
Black
10
135.064
20
-82.7869
11
135.073
21
-82.8382
0
LINE
8
Black
10
135.073
20
-82.8382
11
135.073
21
-84.0525
0
LINE
8
Black
10
135.073
20
-84.0525
11
135.072
21
-84.061
0
LINE
8
Black
10
135.072
20
-84.061
11
135.072
21
-84.0696
0
LINE
8
Black
10
135.072
20
-84.0696
11
135.067
21
-84.0864
0
LINE
8
Black
10
135.067
20
-84.0864
11
135.064
21
-84.1038
0
LINE
8
Black
10
135.064
20
-84.1038
11
135.06
21
-84.1112
0
LINE
8
Black
10
135.06
20
-84.1112
11
135.057
21
-84.1195
0
LINE
8
Black
10
135.057
20
-84.1195
11
134.986
21
-84.2624
0
LINE
8
Black
10
134.986
20
-84.2624
11
134.972
21
-84.2817
0
LINE
8
Black
10
134.972
20
-84.2817
11
134.958
21
-84.3014
0
LINE
8
Black
10
134.958
20
-84.3014
11
134.886
21
-84.3728
0
LINE
8
Black
10
134.886
20
-84.3728
11
134.867
21
-84.3866
0
LINE
8
Black
10
134.867
20
-84.3866
11
134.847
21
-84.4009
0
LINE
8
Black
10
134.847
20
-84.4009
11
134.705
21
-84.4723
0
LINE
8
Black
10
134.705
20
-84.4723
11
134.696
21
-84.4748
0
LINE
8
Black
10
134.696
20
-84.4748
11
134.689
21
-84.4791
0
LINE
8
Black
10
134.689
20
-84.4791
11
134.671
21
-84.4822
0
LINE
8
Black
10
134.671
20
-84.4822
11
134.655
21
-84.4872
0
LINE
8
Black
10
134.655
20
-84.4872
11
134.646
21
-84.4867
0
LINE
8
Black
10
134.646
20
-84.4867
11
134.637
21
-84.4882
0
LINE
8
Black
10
134.637
20
-84.4882
11
134.423
21
-84.4882
0
LINE
8
Black
10
134.423
20
-84.4882
11
134.415
21
-84.4867
0
LINE
8
Black
10
134.415
20
-84.4867
11
134.406
21
-84.4872
0
LINE
8
Black
10
134.406
20
-84.4872
11
134.389
21
-84.4822
0
LINE
8
Black
10
134.389
20
-84.4822
11
134.372
21
-84.4791
0
LINE
8
Black
10
134.372
20
-84.4791
11
134.364
21
-84.4748
0
LINE
8
Black
10
134.364
20
-84.4748
11
134.356
21
-84.4723
0
LINE
8
Black
10
134.356
20
-84.4723
11
134.213
21
-84.4009
0
LINE
8
Black
10
134.213
20
-84.4009
11
134.171
21
-84.3699
0
LINE
8
Black
10
134.171
20
-84.3699
11
134.143
21
-84.3264
0
LINE
8
Black
10
134.143
20
-84.3264
11
134.131
21
-84.2757
0
LINE
8
Black
10
134.131
20
-84.2757
11
134.137
21
-84.224
0
LINE
8
Black
10
134.137
20
-84.224
11
134.16
21
-84.1774
0
LINE
8
Black
10
134.16
20
-84.1774
11
134.198
21
-84.1416
0
LINE
8
Black
10
134.198
20
-84.1416
11
134.245
21
-84.1208
0
LINE
8
Black
10
134.245
20
-84.1208
11
134.297
21
-84.1177
0
LINE
8
Black
10
134.297
20
-84.1177
11
134.347
21
-84.1326
0
LINE
8
Black
10
134.347
20
-84.1326
11
134.459
21
-84.1882
0
LINE
8
Black
10
134.459
20
-84.1882
11
134.602
21
-84.1882
0
LINE
8
Black
10
134.602
20
-84.1882
11
134.691
21
-84.1435
0
LINE
8
Black
10
134.691
20
-84.1435
11
134.728
21
-84.1065
0
LINE
8
Black
10
134.728
20
-84.1065
11
134.773
21
-84.017
0
LINE
8
Black
10
134.773
20
-84.017
11
134.773
21
-83.9882
0
LINE
8
Black
10
134.773
20
-83.9882
11
134.495
21
-83.9882
0
LINE
8
Black
10
134.495
20
-83.9882
11
134.486
21
-83.9867
0
LINE
8
Black
10
134.486
20
-83.9867
11
134.477
21
-83.9872
0
LINE
8
Black
10
134.477
20
-83.9872
11
134.461
21
-83.9822
0
LINE
8
Black
10
134.461
20
-83.9822
11
134.443
21
-83.9791
0
LINE
8
Black
10
134.443
20
-83.9791
11
134.436
21
-83.9748
0
LINE
8
Black
10
134.436
20
-83.9748
11
134.428
21
-83.9723
0
LINE
8
Black
10
134.428
20
-83.9723
11
134.285
21
-83.9009
0
LINE
8
Black
10
134.285
20
-83.9009
11
134.265
21
-83.8866
0
LINE
8
Black
10
134.265
20
-83.8866
11
134.246
21
-83.8728
0
LINE
8
Black
10
134.246
20
-83.8728
11
134.174
21
-83.8014
0
LINE
8
Black
10
134.174
20
-83.8014
11
134.16
21
-83.7817
0
LINE
8
Black
10
134.16
20
-83.7817
11
134.146
21
-83.7624
0
LINE
8
Black
10
134.146
20
-83.7624
11
134.075
21
-83.6195
0
LINE
8
Black
10
134.075
20
-83.6195
11
134.072
21
-83.6113
0
LINE
8
Black
10
134.072
20
-83.6113
11
134.068
21
-83.6038
0
LINE
8
Black
10
134.068
20
-83.6038
11
134.065
21
-83.5864
0
LINE
8
Black
10
134.065
20
-83.5864
11
134.06
21
-83.5696
0
LINE
8
Black
10
134.06
20
-83.5696
11
134.06
21
-83.561
0
LINE
8
Black
10
134.06
20
-83.561
11
134.059
21
-83.5525
0
LINE
8
Black
10
134.059
20
-83.5525
11
134.059
21
-83.1239
0
LINE
8
Black
10
134.059
20
-83.1239
11
134.06
21
-83.1154
0
LINE
8
Black
10
134.06
20
-83.1154
11
134.06
21
-83.1067
0
LINE
8
Black
10
134.06
20
-83.1067
11
134.065
21
-83.0899
0
LINE
8
Black
10
134.065
20
-83.0899
11
134.068
21
-83.0726
0
LINE
8
Black
10
134.068
20
-83.0726
11
134.072
21
-83.0651
0
LINE
8
Black
10
134.072
20
-83.0651
11
134.075
21
-83.0568
0
LINE
8
Black
10
134.075
20
-83.0568
11
134.146
21
-82.9139
0
LINE
8
Black
10
134.146
20
-82.9139
11
134.16
21
-82.8947
0
LINE
8
Black
10
134.16
20
-82.8947
11
134.174
21
-82.875
0
LINE
8
Black
10
134.174
20
-82.875
11
134.246
21
-82.8035
0
LINE
8
Black
10
134.246
20
-82.8035
11
134.265
21
-82.7897
0
LINE
8
Black
10
134.265
20
-82.7897
11
134.285
21
-82.7754
0
LINE
8
Black
10
134.285
20
-82.7754
11
134.428
21
-82.704
0
LINE
8
Black
10
134.428
20
-82.704
11
134.436
21
-82.7015
0
LINE
8
Black
10
134.436
20
-82.7015
11
134.443
21
-82.6972
0
LINE
8
Black
10
134.443
20
-82.6972
11
134.461
21
-82.6942
0
LINE
8
Black
10
134.461
20
-82.6942
11
134.477
21
-82.6892
0
LINE
8
Black
10
134.477
20
-82.6892
11
134.486
21
-82.6897
0
LINE
8
Black
10
134.486
20
-82.6897
11
134.495
21
-82.6882
0
LINE
8
Black
10
134.495
20
-82.6882
11
134.78
21
-82.6882
0
LINE
8
Black
10
134.78
20
-82.6882
11
134.789
21
-82.6897
0
LINE
8
Black
10
134.53
20
-82.9882
11
134.441
21
-83.0329
0
LINE
8
Black
10
134.441
20
-83.0329
11
134.404
21
-83.0699
0
LINE
8
Black
10
134.404
20
-83.0699
11
134.359
21
-83.1593
0
LINE
8
Black
10
134.359
20
-83.1593
11
134.359
21
-83.517
0
LINE
8
Black
10
134.359
20
-83.517
11
134.404
21
-83.6065
0
LINE
8
Black
10
134.404
20
-83.6065
11
134.441
21
-83.6435
0
LINE
8
Black
10
134.441
20
-83.6435
11
134.53
21
-83.6882
0
LINE
8
Black
10
134.53
20
-83.6882
11
134.745
21
-83.6882
0
LINE
8
Black
10
134.745
20
-83.6882
11
134.773
21
-83.674
0
LINE
8
Black
10
134.773
20
-83.674
11
134.773
21
-83.0023
0
LINE
8
Black
10
134.773
20
-83.0023
11
134.745
21
-82.9882
0
LINE
8
Black
10
134.745
20
-82.9882
11
134.53
21
-82.9882
0
LINE
8
Black
10
150.146
20
-82.1897
11
150.155
21
-82.1892
0
LINE
8
Black
10
150.155
20
-82.1892
11
150.171
21
-82.1942
0
LINE
8
Black
10
150.171
20
-82.1942
11
150.189
21
-82.1972
0
LINE
8
Black
10
150.189
20
-82.1972
11
150.196
21
-82.2015
0
LINE
8
Black
10
150.196
20
-82.2015
11
150.205
21
-82.204
0
LINE
8
Black
10
150.205
20
-82.204
11
150.347
21
-82.2754
0
LINE
8
Black
10
150.347
20
-82.2754
11
150.367
21
-82.2897
0
LINE
8
Black
10
150.367
20
-82.2897
11
150.386
21
-82.3035
0
LINE
8
Black
10
150.386
20
-82.3035
11
150.458
21
-82.375
0
LINE
8
Black
10
150.458
20
-82.375
11
150.472
21
-82.3946
0
LINE
8
Black
10
150.472
20
-82.3946
11
150.486
21
-82.4139
0
LINE
8
Black
10
150.486
20
-82.4139
11
150.557
21
-82.5568
0
LINE
8
Black
10
150.557
20
-82.5568
11
150.56
21
-82.5651
0
LINE
8
Black
10
150.56
20
-82.5651
11
150.564
21
-82.5726
0
LINE
8
Black
10
150.564
20
-82.5726
11
150.567
21
-82.5899
0
LINE
8
Black
10
150.567
20
-82.5899
11
150.572
21
-82.6067
0
LINE
8
Black
10
150.572
20
-82.6067
11
150.572
21
-82.6154
0
LINE
8
Black
10
150.572
20
-82.6154
11
150.573
21
-82.6239
0
LINE
8
Black
10
150.573
20
-82.6239
11
150.573
21
-82.7667
0
LINE
8
Black
10
150.573
20
-82.7667
11
150.569
21
-82.7904
0
LINE
8
Black
10
150.569
20
-82.7904
11
150.566
21
-82.8142
0
LINE
8
Black
10
150.566
20
-82.8142
11
150.494
21
-83.0285
0
LINE
8
Black
10
150.494
20
-83.0285
11
150.49
21
-83.0361
0
LINE
8
Black
10
150.49
20
-83.0361
11
150.488
21
-83.0444
0
LINE
8
Black
10
150.488
20
-83.0444
11
150.478
21
-83.0588
0
LINE
8
Black
10
150.478
20
-83.0588
11
150.469
21
-83.0743
0
LINE
8
Black
10
150.469
20
-83.0743
11
150.463
21
-83.08
0
LINE
8
Black
10
150.463
20
-83.08
11
150.458
21
-83.0871
0
LINE
8
Black
10
150.458
20
-83.0871
11
149.857
21
-83.6882
0
LINE
8
Black
10
149.857
20
-83.6882
11
150.423
21
-83.6882
0
LINE
8
Black
10
150.423
20
-83.6882
11
150.475
21
-83.6972
0
LINE
8
Black
10
150.475
20
-83.6972
11
150.52
21
-83.7233
0
LINE
8
Black
10
150.52
20
-83.7233
11
150.553
21
-83.7632
0
LINE
8
Black
10
150.553
20
-83.7632
11
150.571
21
-83.8121
0
LINE
8
Black
10
150.571
20
-83.8121
11
150.571
21
-83.8642
0
LINE
8
Black
10
150.571
20
-83.8642
11
150.553
21
-83.9132
0
LINE
8
Black
10
150.553
20
-83.9132
11
150.52
21
-83.9531
0
LINE
8
Black
10
150.52
20
-83.9531
11
150.475
21
-83.9791
0
LINE
8
Black
10
150.475
20
-83.9791
11
150.423
21
-83.9882
0
LINE
8
Black
10
150.423
20
-83.9882
11
149.495
21
-83.9882
0
LINE
8
Black
10
149.495
20
-83.9882
11
149.475
21
-83.9848
0
LINE
8
Black
10
149.475
20
-83.9848
11
149.456
21
-83.9831
0
LINE
8
Black
10
149.456
20
-83.9831
11
149.45
21
-83.9803
0
LINE
8
Black
10
149.45
20
-83.9803
11
149.443
21
-83.9791
0
LINE
8
Black
10
149.443
20
-83.9791
11
149.426
21
-83.9693
0
LINE
8
Black
10
149.426
20
-83.9693
11
149.409
21
-83.961
0
LINE
8
Black
10
149.409
20
-83.961
11
149.404
21
-83.9564
0
LINE
8
Black
10
149.404
20
-83.9564
11
149.398
21
-83.9531
0
LINE
8
Black
10
149.398
20
-83.9531
11
149.386
21
-83.9381
0
LINE
8
Black
10
149.386
20
-83.9381
11
149.372
21
-83.9242
0
LINE
8
Black
10
149.372
20
-83.9242
11
149.369
21
-83.9182
0
LINE
8
Black
10
149.369
20
-83.9182
11
149.365
21
-83.9132
0
LINE
8
Black
10
149.365
20
-83.9132
11
149.358
21
-83.8948
0
LINE
8
Black
10
149.358
20
-83.8948
11
149.35
21
-83.877
0
LINE
8
Black
10
149.35
20
-83.877
11
149.349
21
-83.8704
0
LINE
8
Black
10
149.349
20
-83.8704
11
149.347
21
-83.8642
0
LINE
8
Black
10
149.347
20
-83.8642
11
149.347
21
-83.8446
0
LINE
8
Black
10
149.347
20
-83.8446
11
149.345
21
-83.8251
0
LINE
8
Black
10
149.345
20
-83.8251
11
149.347
21
-83.8187
0
LINE
8
Black
10
149.347
20
-83.8187
11
149.347
21
-83.8121
0
LINE
8
Black
10
149.347
20
-83.8121
11
149.354
21
-83.7937
0
LINE
8
Black
10
149.354
20
-83.7937
11
149.359
21
-83.7748
0
LINE
8
Black
10
149.359
20
-83.7748
11
149.362
21
-83.7694
0
LINE
8
Black
10
149.362
20
-83.7694
11
149.365
21
-83.7632
0
LINE
8
Black
10
149.365
20
-83.7632
11
149.377
21
-83.7482
0
LINE
8
Black
10
149.377
20
-83.7482
11
149.389
21
-83.7321
0
LINE
8
Black
10
149.389
20
-83.7321
11
150.221
21
-82.9
0
LINE
8
Black
10
150.221
20
-82.9
11
150.273
21
-82.7424
0
LINE
8
Black
10
150.273
20
-82.7424
11
150.273
21
-82.6593
0
LINE
8
Black
10
150.273
20
-82.6593
11
150.228
21
-82.5699
0
LINE
8
Black
10
150.228
20
-82.5699
11
150.191
21
-82.5329
0
LINE
8
Black
10
150.191
20
-82.5329
11
150.102
21
-82.4882
0
LINE
8
Black
10
150.102
20
-82.4882
11
149.816
21
-82.4882
0
LINE
8
Black
10
149.816
20
-82.4882
11
149.726
21
-82.5329
0
LINE
8
Black
10
149.726
20
-82.5329
11
149.672
21
-82.5871
0
LINE
8
Black
10
149.672
20
-82.5871
11
149.629
21
-82.617
0
LINE
8
Black
10
149.629
20
-82.617
11
149.579
21
-82.6305
0
LINE
8
Black
10
149.579
20
-82.6305
11
149.527
21
-82.6259
0
LINE
8
Black
10
149.527
20
-82.6259
11
149.48
21
-82.6039
0
LINE
8
Black
10
149.48
20
-82.6039
11
149.443
21
-82.5671
0
LINE
8
Black
10
149.443
20
-82.5671
11
149.421
21
-82.5199
0
LINE
8
Black
10
149.421
20
-82.5199
11
149.417
21
-82.468
0
LINE
8
Black
10
149.417
20
-82.468
11
149.43
21
-82.4176
0
LINE
8
Black
10
149.43
20
-82.4176
11
149.46
21
-82.375
0
LINE
8
Black
10
149.46
20
-82.375
11
149.531
21
-82.3035
0
LINE
8
Black
10
149.531
20
-82.3035
11
149.551
21
-82.2897
0
LINE
8
Black
10
149.551
20
-82.2897
11
149.57
21
-82.2754
0
LINE
8
Black
10
149.57
20
-82.2754
11
149.713
21
-82.204
0
LINE
8
Black
10
149.713
20
-82.204
11
149.722
21
-82.2015
0
LINE
8
Black
10
149.722
20
-82.2015
11
149.729
21
-82.1972
0
LINE
8
Black
10
149.729
20
-82.1972
11
149.746
21
-82.1942
0
LINE
8
Black
10
149.746
20
-82.1942
11
149.763
21
-82.1892
0
LINE
8
Black
10
149.763
20
-82.1892
11
149.772
21
-82.1897
0
LINE
8
Black
10
149.772
20
-82.1897
11
149.78
21
-82.1882
0
LINE
8
Black
10
149.78
20
-82.1882
11
150.137
21
-82.1882
0
LINE
8
Black
10
150.137
20
-82.1882
11
150.146
21
-82.1897
0
LINE
8
Black
10
148.646
20
-82.1897
11
148.655
21
-82.1892
0
LINE
8
Black
10
148.655
20
-82.1892
11
148.671
21
-82.1942
0
LINE
8
Black
10
148.671
20
-82.1942
11
148.689
21
-82.1972
0
LINE
8
Black
10
148.689
20
-82.1972
11
148.696
21
-82.2015
0
LINE
8
Black
10
148.696
20
-82.2015
11
148.705
21
-82.204
0
LINE
8
Black
10
148.705
20
-82.204
11
148.847
21
-82.2754
0
LINE
8
Black
10
148.847
20
-82.2754
11
148.867
21
-82.2897
0
LINE
8
Black
10
148.867
20
-82.2897
11
148.886
21
-82.3035
0
LINE
8
Black
10
148.886
20
-82.3035
11
148.958
21
-82.375
0
LINE
8
Black
10
148.958
20
-82.375
11
148.972
21
-82.3946
0
LINE
8
Black
10
148.972
20
-82.3946
11
148.986
21
-82.4139
0
LINE
8
Black
10
148.986
20
-82.4139
11
149.057
21
-82.5568
0
LINE
8
Black
10
149.057
20
-82.5568
11
149.062
21
-82.5725
0
LINE
8
Black
10
149.062
20
-82.5725
11
149.069
21
-82.5875
0
LINE
8
Black
10
149.069
20
-82.5875
11
149.14
21
-82.8732
0
LINE
8
Black
10
149.14
20
-82.8732
11
149.141
21
-82.8915
0
LINE
8
Black
10
149.141
20
-82.8915
11
149.145
21
-82.9096
0
LINE
8
Black
10
149.145
20
-82.9096
11
149.145
21
-83.2667
0
LINE
8
Black
10
149.145
20
-83.2667
11
149.141
21
-83.2848
0
LINE
8
Black
10
149.141
20
-83.2848
11
149.14
21
-83.3031
0
LINE
8
Black
10
149.14
20
-83.3031
11
149.069
21
-83.5888
0
LINE
8
Black
10
149.069
20
-83.5888
11
149.062
21
-83.6038
0
LINE
8
Black
10
149.062
20
-83.6038
11
149.057
21
-83.6195
0
LINE
8
Black
10
149.057
20
-83.6195
11
148.986
21
-83.7624
0
LINE
8
Black
10
148.986
20
-83.7624
11
148.972
21
-83.7817
0
LINE
8
Black
10
148.972
20
-83.7817
11
148.958
21
-83.8014
0
LINE
8
Black
10
148.958
20
-83.8014
11
148.886
21
-83.8728
0
LINE
8
Black
10
148.886
20
-83.8728
11
148.867
21
-83.8866
0
LINE
8
Black
10
148.867
20
-83.8866
11
148.847
21
-83.9009
0
LINE
8
Black
10
148.847
20
-83.9009
11
148.705
21
-83.9723
0
LINE
8
Black
10
148.705
20
-83.9723
11
148.696
21
-83.9748
0
LINE
8
Black
10
148.696
20
-83.9748
11
148.689
21
-83.9791
0
LINE
8
Black
10
148.689
20
-83.9791
11
148.671
21
-83.9822
0
LINE
8
Black
10
148.671
20
-83.9822
11
148.655
21
-83.9872
0
LINE
8
Black
10
148.655
20
-83.9872
11
148.646
21
-83.9867
0
LINE
8
Black
10
148.646
20
-83.9867
11
148.637
21
-83.9882
0
LINE
8
Black
10
148.637
20
-83.9882
11
148.495
21
-83.9882
0
LINE
8
Black
10
148.495
20
-83.9882
11
148.486
21
-83.9867
0
LINE
8
Black
10
148.486
20
-83.9867
11
148.477
21
-83.9872
0
LINE
8
Black
10
148.477
20
-83.9872
11
148.461
21
-83.9822
0
LINE
8
Black
10
148.461
20
-83.9822
11
148.443
21
-83.9791
0
LINE
8
Black
10
148.443
20
-83.9791
11
148.436
21
-83.9748
0
LINE
8
Black
10
148.436
20
-83.9748
11
148.428
21
-83.9723
0
LINE
8
Black
10
148.428
20
-83.9723
11
148.285
21
-83.9009
0
LINE
8
Black
10
148.285
20
-83.9009
11
148.265
21
-83.8866
0
LINE
8
Black
10
148.265
20
-83.8866
11
148.246
21
-83.8728
0
LINE
8
Black
10
148.246
20
-83.8728
11
148.174
21
-83.8014
0
LINE
8
Black
10
148.174
20
-83.8014
11
148.16
21
-83.7817
0
LINE
8
Black
10
148.16
20
-83.7817
11
148.146
21
-83.7624
0
LINE
8
Black
10
148.146
20
-83.7624
11
148.075
21
-83.6195
0
LINE
8
Black
10
148.075
20
-83.6195
11
148.07
21
-83.6038
0
LINE
8
Black
10
148.07
20
-83.6038
11
148.063
21
-83.5888
0
LINE
8
Black
10
148.063
20
-83.5888
11
147.992
21
-83.3031
0
LINE
8
Black
10
147.992
20
-83.3031
11
147.991
21
-83.2848
0
LINE
8
Black
10
147.991
20
-83.2848
11
147.987
21
-83.2667
0
LINE
8
Black
10
147.987
20
-83.2667
11
147.987
21
-82.9096
0
LINE
8
Black
10
147.987
20
-82.9096
11
147.991
21
-82.8915
0
LINE
8
Black
10
147.991
20
-82.8915
11
147.992
21
-82.8732
0
LINE
8
Black
10
147.992
20
-82.8732
11
148.063
21
-82.5875
0
LINE
8
Black
10
148.063
20
-82.5875
11
148.07
21
-82.5725
0
LINE
8
Black
10
148.07
20
-82.5725
11
148.075
21
-82.5568
0
LINE
8
Black
10
148.075
20
-82.5568
11
148.146
21
-82.4139
0
LINE
8
Black
10
148.146
20
-82.4139
11
148.16
21
-82.3946
0
LINE
8
Black
10
148.16
20
-82.3946
11
148.174
21
-82.375
0
LINE
8
Black
10
148.174
20
-82.375
11
148.246
21
-82.3035
0
LINE
8
Black
10
148.246
20
-82.3035
11
148.265
21
-82.2897
0
LINE
8
Black
10
148.265
20
-82.2897
11
148.285
21
-82.2754
0
LINE
8
Black
10
148.285
20
-82.2754
11
148.428
21
-82.204
0
LINE
8
Black
10
148.428
20
-82.204
11
148.436
21
-82.2015
0
LINE
8
Black
10
148.436
20
-82.2015
11
148.443
21
-82.1972
0
LINE
8
Black
10
148.443
20
-82.1972
11
148.461
21
-82.1942
0
LINE
8
Black
10
148.461
20
-82.1942
11
148.477
21
-82.1892
0
LINE
8
Black
10
148.477
20
-82.1892
11
148.486
21
-82.1897
0
LINE
8
Black
10
148.486
20
-82.1897
11
148.495
21
-82.1882
0
LINE
8
Black
10
148.495
20
-82.1882
11
148.637
21
-82.1882
0
LINE
8
Black
10
148.637
20
-82.1882
11
148.646
21
-82.1897
0
LINE
8
Black
10
148.53
20
-82.4882
11
148.441
21
-82.5329
0
LINE
8
Black
10
148.441
20
-82.5329
11
148.404
21
-82.5699
0
LINE
8
Black
10
148.404
20
-82.5699
11
148.35
21
-82.6762
0
LINE
8
Black
10
148.35
20
-82.6762
11
148.287
21
-82.9281
0
LINE
8
Black
10
148.287
20
-82.9281
11
148.287
21
-83.2483
0
LINE
8
Black
10
148.287
20
-83.2483
11
148.35
21
-83.5001
0
LINE
8
Black
10
148.35
20
-83.5001
11
148.404
21
-83.6065
0
LINE
8
Black
10
148.404
20
-83.6065
11
148.441
21
-83.6435
0
LINE
8
Black
10
148.441
20
-83.6435
11
148.53
21
-83.6882
0
LINE
8
Black
10
148.53
20
-83.6882
11
148.602
21
-83.6882
0
LINE
8
Black
10
148.602
20
-83.6882
11
148.691
21
-83.6435
0
LINE
8
Black
10
148.691
20
-83.6435
11
148.728
21
-83.6065
0
LINE
8
Black
10
148.728
20
-83.6065
11
148.782
21
-83.5001
0
LINE
8
Black
10
148.782
20
-83.5001
11
148.845
21
-83.2483
0
LINE
8
Black
10
148.845
20
-83.2483
11
148.845
21
-82.9281
0
LINE
8
Black
10
148.845
20
-82.9281
11
148.782
21
-82.6762
0
LINE
8
Black
10
148.782
20
-82.6762
11
148.728
21
-82.5699
0
LINE
8
Black
10
148.728
20
-82.5699
11
148.691
21
-82.5329
0
LINE
8
Black
10
148.691
20
-82.5329
11
148.602
21
-82.4882
0
LINE
8
Black
10
148.602
20
-82.4882
11
148.53
21
-82.4882
0
LINE
8
Black
10
146.441
20
-82.1904
11
146.449
21
-82.1904
0
LINE
8
Black
10
146.449
20
-82.1904
11
146.466
21
-82.1966
0
LINE
8
Black
10
146.466
20
-82.1966
11
146.483
21
-82.2008
0
LINE
8
Black
10
146.483
20
-82.2008
11
146.49
21
-82.2054
0
LINE
8
Black
10
146.49
20
-82.2054
11
146.498
21
-82.2083
0
LINE
8
Black
10
146.498
20
-82.2083
11
146.512
21
-82.2198
0
LINE
8
Black
10
146.512
20
-82.2198
11
146.527
21
-82.2297
0
LINE
8
Black
10
146.527
20
-82.2297
11
146.532
21
-82.2364
0
LINE
8
Black
10
146.532
20
-82.2364
11
146.538
21
-82.2418
0
LINE
8
Black
10
146.538
20
-82.2418
11
146.547
21
-82.2573
0
LINE
8
Black
10
146.547
20
-82.2573
11
146.558
21
-82.2717
0
LINE
8
Black
10
146.558
20
-82.2717
11
146.56
21
-82.2797
0
LINE
8
Black
10
146.56
20
-82.2797
11
146.564
21
-82.2869
0
LINE
8
Black
10
146.564
20
-82.2869
11
146.567
21
-82.3045
0
LINE
8
Black
10
146.567
20
-82.3045
11
146.572
21
-82.3217
0
LINE
8
Black
10
146.572
20
-82.3217
11
146.572
21
-82.33
0
LINE
8
Black
10
146.572
20
-82.33
11
146.573
21
-82.3382
0
LINE
8
Black
10
146.573
20
-82.3382
11
146.573
21
-83.6882
0
LINE
8
Black
10
146.573
20
-83.6882
11
146.852
21
-83.6882
0
LINE
8
Black
10
146.852
20
-83.6882
11
146.903
21
-83.6972
0
LINE
8
Black
10
146.903
20
-83.6972
11
146.948
21
-83.7233
0
LINE
8
Black
10
146.948
20
-83.7233
11
146.982
21
-83.7632
0
LINE
8
Black
10
146.982
20
-83.7632
11
146.999
21
-83.8121
0
LINE
8
Black
10
146.999
20
-83.8121
11
146.999
21
-83.8642
0
LINE
8
Black
10
146.999
20
-83.8642
11
146.982
21
-83.9132
0
LINE
8
Black
10
146.982
20
-83.9132
11
146.948
21
-83.9531
0
LINE
8
Black
10
146.948
20
-83.9531
11
146.903
21
-83.9791
0
LINE
8
Black
10
146.903
20
-83.9791
11
146.852
21
-83.9882
0
LINE
8
Black
10
146.852
20
-83.9882
11
145.995
21
-83.9882
0
LINE
8
Black
10
145.995
20
-83.9882
11
145.943
21
-83.9791
0
LINE
8
Black
10
145.943
20
-83.9791
11
145.898
21
-83.9531
0
LINE
8
Black
10
145.898
20
-83.9531
11
145.865
21
-83.9132
0
LINE
8
Black
10
145.865
20
-83.9132
11
145.847
21
-83.8642
0
LINE
8
Black
10
145.847
20
-83.8642
11
145.847
21
-83.8121
0
LINE
8
Black
10
145.847
20
-83.8121
11
145.865
21
-83.7632
0
LINE
8
Black
10
145.865
20
-83.7632
11
145.898
21
-83.7233
0
LINE
8
Black
10
145.898
20
-83.7233
11
145.943
21
-83.6972
0
LINE
8
Black
10
145.943
20
-83.6972
11
145.995
21
-83.6882
0
LINE
8
Black
10
145.995
20
-83.6882
11
146.273
21
-83.6882
0
LINE
8
Black
10
146.273
20
-83.6882
11
146.273
21
-82.7717
0
LINE
8
Black
10
146.273
20
-82.7717
11
146.244
21
-82.8014
0
LINE
8
Black
10
146.244
20
-82.8014
11
146.224
21
-82.8152
0
LINE
8
Black
10
146.224
20
-82.8152
11
146.205
21
-82.8295
0
LINE
8
Black
10
146.205
20
-82.8295
11
146.062
21
-82.9009
0
LINE
8
Black
10
146.062
20
-82.9009
11
146.012
21
-82.9158
0
LINE
8
Black
10
146.012
20
-82.9158
11
145.96
21
-82.9126
0
LINE
8
Black
10
145.96
20
-82.9126
11
145.912
21
-82.8919
0
LINE
8
Black
10
145.912
20
-82.8919
11
145.874
21
-82.8561
0
LINE
8
Black
10
145.874
20
-82.8561
11
145.851
21
-82.8095
0
LINE
8
Black
10
145.851
20
-82.8095
11
145.845
21
-82.7578
0
LINE
8
Black
10
145.845
20
-82.7578
11
145.857
21
-82.7071
0
LINE
8
Black
10
145.857
20
-82.7071
11
145.886
21
-82.6636
0
LINE
8
Black
10
145.886
20
-82.6636
11
145.928
21
-82.6326
0
LINE
8
Black
10
145.928
20
-82.6326
11
146.049
21
-82.572
0
LINE
8
Black
10
146.049
20
-82.572
11
146.164
21
-82.4569
0
LINE
8
Black
10
146.164
20
-82.4569
11
146.298
21
-82.255
0
LINE
8
Black
10
146.298
20
-82.255
11
146.304
21
-82.249
0
LINE
8
Black
10
146.304
20
-82.249
11
146.308
21
-82.2418
0
LINE
8
Black
10
146.308
20
-82.2418
11
146.322
21
-82.2302
0
LINE
8
Black
10
146.322
20
-82.2302
11
146.334
21
-82.2173
0
LINE
8
Black
10
146.334
20
-82.2173
11
146.342
21
-82.2136
0
LINE
8
Black
10
146.342
20
-82.2136
11
146.348
21
-82.2083
0
LINE
8
Black
10
146.348
20
-82.2083
11
146.365
21
-82.2021
0
LINE
8
Black
10
146.365
20
-82.2021
11
146.381
21
-82.1942
0
LINE
8
Black
10
146.381
20
-82.1942
11
146.389
21
-82.1933
0
LINE
8
Black
10
146.389
20
-82.1933
11
146.397
21
-82.1904
0
LINE
8
Black
10
146.397
20
-82.1904
11
146.415
21
-82.1904
0
LINE
8
Black
10
146.415
20
-82.1904
11
146.433
21
-82.1885
0
LINE
8
Black
10
146.433
20
-82.1885
11
146.441
21
-82.1904
0
LINE
8
Black
10
142.003
20
-82.6897
11
142.012
21
-82.6892
0
LINE
8
Black
10
142.012
20
-82.6892
11
142.029
21
-82.6942
0
LINE
8
Black
10
142.029
20
-82.6942
11
142.046
21
-82.6972
0
LINE
8
Black
10
142.046
20
-82.6972
11
142.053
21
-82.7015
0
LINE
8
Black
10
142.053
20
-82.7015
11
142.062
21
-82.704
0
LINE
8
Black
10
142.062
20
-82.704
11
142.205
21
-82.7754
0
LINE
8
Black
10
142.205
20
-82.7754
11
142.222
21
-82.7885
0
LINE
8
Black
10
142.222
20
-82.7885
11
142.241
21
-82.8007
0
LINE
8
Black
10
142.241
20
-82.8007
11
142.243
21
-82.804
0
LINE
8
Black
10
142.243
20
-82.804
11
142.246
21
-82.8065
0
LINE
8
Black
10
142.246
20
-82.8065
11
142.259
21
-82.8248
0
LINE
8
Black
10
142.259
20
-82.8248
11
142.272
21
-82.8425
0
LINE
8
Black
10
142.272
20
-82.8425
11
142.343
21
-82.9854
0
LINE
8
Black
10
142.343
20
-82.9854
11
142.346
21
-82.9937
0
LINE
8
Black
10
142.346
20
-82.9937
11
142.35
21
-83.0012
0
LINE
8
Black
10
142.35
20
-83.0012
11
142.353
21
-83.0185
0
LINE
8
Black
10
142.353
20
-83.0185
11
142.358
21
-83.0353
0
LINE
8
Black
10
142.358
20
-83.0353
11
142.357
21
-83.0439
0
LINE
8
Black
10
142.357
20
-83.0439
11
142.359
21
-83.0525
0
LINE
8
Black
10
142.359
20
-83.0525
11
142.359
21
-83.1953
0
LINE
8
Black
10
142.359
20
-83.1953
11
142.355
21
-83.2193
0
LINE
8
Black
10
142.355
20
-83.2193
11
142.351
21
-83.2434
0
LINE
8
Black
10
142.351
20
-83.2434
11
142.35
21
-83.2449
0
LINE
8
Black
10
142.35
20
-83.2449
11
142.35
21
-83.2466
0
LINE
8
Black
10
142.35
20
-83.2466
11
142.338
21
-83.2677
0
LINE
8
Black
10
142.338
20
-83.2677
11
142.326
21
-83.2891
0
LINE
8
Black
10
142.326
20
-83.2891
11
142.325
21
-83.2902
0
LINE
8
Black
10
142.325
20
-83.2902
11
142.324
21
-83.2917
0
LINE
8
Black
10
142.324
20
-83.2917
11
142.305
21
-83.3074
0
LINE
8
Black
10
142.305
20
-83.3074
11
142.287
21
-83.3235
0
LINE
8
Black
10
142.287
20
-83.3235
11
142.285
21
-83.3241
0
LINE
8
Black
10
142.285
20
-83.3241
11
142.284
21
-83.3252
0
LINE
8
Black
10
142.284
20
-83.3252
11
142.261
21
-83.3336
0
LINE
8
Black
10
142.261
20
-83.3336
11
142.238
21
-83.3424
0
LINE
8
Black
10
142.238
20
-83.3424
11
141.645
21
-83.4611
0
LINE
8
Black
10
141.645
20
-83.4611
11
141.645
21
-83.5885
0
LINE
8
Black
10
141.645
20
-83.5885
11
141.678
21
-83.6549
0
LINE
8
Black
10
141.678
20
-83.6549
11
141.744
21
-83.6882
0
LINE
8
Black
10
141.744
20
-83.6882
11
141.959
21
-83.6882
0
LINE
8
Black
10
141.959
20
-83.6882
11
142.07
21
-83.6326
0
LINE
8
Black
10
142.07
20
-83.6326
11
142.12
21
-83.6177
0
LINE
8
Black
10
142.12
20
-83.6177
11
142.172
21
-83.6208
0
LINE
8
Black
10
142.172
20
-83.6208
11
142.22
21
-83.6416
0
LINE
8
Black
10
142.22
20
-83.6416
11
142.258
21
-83.6774
0
LINE
8
Black
10
142.258
20
-83.6774
11
142.281
21
-83.724
0
LINE
8
Black
10
142.281
20
-83.724
11
142.287
21
-83.7757
0
LINE
8
Black
10
142.287
20
-83.7757
11
142.275
21
-83.8264
0
LINE
8
Black
10
142.275
20
-83.8264
11
142.246
21
-83.8699
0
LINE
8
Black
10
142.246
20
-83.8699
11
142.205
21
-83.9009
0
LINE
8
Black
10
142.205
20
-83.9009
11
142.062
21
-83.9723
0
LINE
8
Black
10
142.062
20
-83.9723
11
142.053
21
-83.9748
0
LINE
8
Black
10
142.053
20
-83.9748
11
142.046
21
-83.9791
0
LINE
8
Black
10
142.046
20
-83.9791
11
142.029
21
-83.9822
0
LINE
8
Black
10
142.029
20
-83.9822
11
142.012
21
-83.9872
0
LINE
8
Black
10
142.012
20
-83.9872
11
142.003
21
-83.9867
0
LINE
8
Black
10
142.003
20
-83.9867
11
141.995
21
-83.9882
0
LINE
8
Black
10
141.995
20
-83.9882
11
141.709
21
-83.9882
0
LINE
8
Black
10
141.709
20
-83.9882
11
141.7
21
-83.9867
0
LINE
8
Black
10
141.7
20
-83.9867
11
141.692
21
-83.9872
0
LINE
8
Black
10
141.692
20
-83.9872
11
141.675
21
-83.9822
0
LINE
8
Black
10
141.675
20
-83.9822
11
141.658
21
-83.9791
0
LINE
8
Black
10
141.658
20
-83.9791
11
141.65
21
-83.9748
0
LINE
8
Black
10
141.65
20
-83.9748
11
141.642
21
-83.9723
0
LINE
8
Black
10
141.642
20
-83.9723
11
141.499
21
-83.9009
0
LINE
8
Black
10
141.499
20
-83.9009
11
141.481
21
-83.8878
0
LINE
8
Black
10
141.481
20
-83.8878
11
141.463
21
-83.8757
0
LINE
8
Black
10
141.463
20
-83.8757
11
141.46
21
-83.8723
0
LINE
8
Black
10
141.46
20
-83.8723
11
141.457
21
-83.8699
0
LINE
8
Black
10
141.457
20
-83.8699
11
141.445
21
-83.8515
0
LINE
8
Black
10
141.445
20
-83.8515
11
141.432
21
-83.8338
0
LINE
8
Black
10
141.432
20
-83.8338
11
141.36
21
-83.691
0
LINE
8
Black
10
141.36
20
-83.691
11
141.358
21
-83.6827
0
LINE
8
Black
10
141.358
20
-83.6827
11
141.354
21
-83.6752
0
LINE
8
Black
10
141.354
20
-83.6752
11
141.351
21
-83.6579
0
LINE
8
Black
10
141.351
20
-83.6579
11
141.346
21
-83.641
0
LINE
8
Black
10
141.346
20
-83.641
11
141.346
21
-83.6324
0
LINE
8
Black
10
141.346
20
-83.6324
11
141.345
21
-83.6239
0
LINE
8
Black
10
141.345
20
-83.6239
11
141.345
21
-83.0525
0
LINE
8
Black
10
141.345
20
-83.0525
11
141.346
21
-83.0439
0
LINE
8
Black
10
141.346
20
-83.0439
11
141.346
21
-83.0353
0
LINE
8
Black
10
141.346
20
-83.0353
11
141.351
21
-83.0185
0
LINE
8
Black
10
141.351
20
-83.0185
11
141.354
21
-83.0012
0
LINE
8
Black
10
141.354
20
-83.0012
11
141.358
21
-82.9937
0
LINE
8
Black
10
141.358
20
-82.9937
11
141.36
21
-82.9854
0
LINE
8
Black
10
141.36
20
-82.9854
11
141.432
21
-82.8425
0
LINE
8
Black
10
141.432
20
-82.8425
11
141.445
21
-82.8248
0
LINE
8
Black
10
141.445
20
-82.8248
11
141.457
21
-82.8065
0
LINE
8
Black
10
141.457
20
-82.8065
11
141.46
21
-82.804
0
LINE
8
Black
10
141.46
20
-82.804
11
141.463
21
-82.8007
0
LINE
8
Black
10
141.463
20
-82.8007
11
141.481
21
-82.7886
0
LINE
8
Black
10
141.481
20
-82.7886
11
141.499
21
-82.7754
0
LINE
8
Black
10
141.499
20
-82.7754
11
141.642
21
-82.704
0
LINE
8
Black
10
141.642
20
-82.704
11
141.65
21
-82.7015
0
LINE
8
Black
10
141.65
20
-82.7015
11
141.658
21
-82.6972
0
LINE
8
Black
10
141.658
20
-82.6972
11
141.675
21
-82.6942
0
LINE
8
Black
10
141.675
20
-82.6942
11
141.692
21
-82.6892
0
LINE
8
Black
10
141.692
20
-82.6892
11
141.7
21
-82.6897
0
LINE
8
Black
10
141.7
20
-82.6897
11
141.709
21
-82.6882
0
LINE
8
Black
10
141.709
20
-82.6882
11
141.995
21
-82.6882
0
LINE
8
Black
10
141.995
20
-82.6882
11
142.003
21
-82.6897
0
LINE
8
Black
10
141.744
20
-82.9882
11
141.678
21
-83.0214
0
LINE
8
Black
10
141.678
20
-83.0214
11
141.645
21
-83.0879
0
LINE
8
Black
10
141.645
20
-83.0879
11
141.645
21
-83.1552
0
LINE
8
Black
10
141.645
20
-83.1552
11
142.052
21
-83.0738
0
LINE
8
Black
10
142.052
20
-83.0738
11
142.026
21
-83.0214
0
LINE
8
Black
10
142.026
20
-83.0214
11
141.959
21
-82.9882
0
LINE
8
Black
10
141.959
20
-82.9882
11
141.744
21
-82.9882
0
LINE
8
Black
10
139.503
20
-82.6897
11
139.512
21
-82.6892
0
LINE
8
Black
10
139.512
20
-82.6892
11
139.529
21
-82.6942
0
LINE
8
Black
10
139.529
20
-82.6942
11
139.546
21
-82.6972
0
LINE
8
Black
10
139.546
20
-82.6972
11
139.553
21
-82.7015
0
LINE
8
Black
10
139.553
20
-82.7015
11
139.562
21
-82.704
0
LINE
8
Black
10
139.562
20
-82.704
11
139.705
21
-82.7754
0
LINE
8
Black
10
139.705
20
-82.7754
11
139.722
21
-82.7885
0
LINE
8
Black
10
139.722
20
-82.7885
11
139.741
21
-82.8007
0
LINE
8
Black
10
139.741
20
-82.8007
11
139.743
21
-82.804
0
LINE
8
Black
10
139.743
20
-82.804
11
139.746
21
-82.8065
0
LINE
8
Black
10
139.746
20
-82.8065
11
139.759
21
-82.8248
0
LINE
8
Black
10
139.759
20
-82.8248
11
139.772
21
-82.8425
0
LINE
8
Black
10
139.772
20
-82.8425
11
139.843
21
-82.9854
0
LINE
8
Black
10
139.843
20
-82.9854
11
139.846
21
-82.9937
0
LINE
8
Black
10
139.846
20
-82.9937
11
139.85
21
-83.0012
0
LINE
8
Black
10
139.85
20
-83.0012
11
139.853
21
-83.0185
0
LINE
8
Black
10
139.853
20
-83.0185
11
139.858
21
-83.0353
0
LINE
8
Black
10
139.858
20
-83.0353
11
139.857
21
-83.0439
0
LINE
8
Black
10
139.857
20
-83.0439
11
139.859
21
-83.0525
0
LINE
8
Black
10
139.859
20
-83.0525
11
139.859
21
-83.8382
0
LINE
8
Black
10
139.859
20
-83.8382
11
139.85
21
-83.8895
0
LINE
8
Black
10
139.85
20
-83.8895
11
139.824
21
-83.9346
0
LINE
8
Black
10
139.824
20
-83.9346
11
139.784
21
-83.9681
0
LINE
8
Black
10
139.784
20
-83.9681
11
139.735
21
-83.9859
0
LINE
8
Black
10
139.735
20
-83.9859
11
139.683
21
-83.9859
0
LINE
8
Black
10
139.683
20
-83.9859
11
139.638
21
-83.9697
0
LINE
8
Black
10
139.638
20
-83.9697
11
139.633
21
-83.9723
0
LINE
8
Black
10
139.633
20
-83.9723
11
139.625
21
-83.9748
0
LINE
8
Black
10
139.625
20
-83.9748
11
139.617
21
-83.9791
0
LINE
8
Black
10
139.617
20
-83.9791
11
139.6
21
-83.9822
0
LINE
8
Black
10
139.6
20
-83.9822
11
139.583
21
-83.9872
0
LINE
8
Black
10
139.583
20
-83.9872
11
139.575
21
-83.9867
0
LINE
8
Black
10
139.575
20
-83.9867
11
139.566
21
-83.9882
0
LINE
8
Black
10
139.566
20
-83.9882
11
139.209
21
-83.9882
0
LINE
8
Black
10
139.209
20
-83.9882
11
139.2
21
-83.9867
0
LINE
8
Black
10
139.2
20
-83.9867
11
139.192
21
-83.9872
0
LINE
8
Black
10
139.192
20
-83.9872
11
139.175
21
-83.9822
0
LINE
8
Black
10
139.175
20
-83.9822
11
139.158
21
-83.9791
0
LINE
8
Black
10
139.158
20
-83.9791
11
139.15
21
-83.9748
0
LINE
8
Black
10
139.15
20
-83.9748
11
139.142
21
-83.9723
0
LINE
8
Black
10
139.142
20
-83.9723
11
138.999
21
-83.9009
0
LINE
8
Black
10
138.999
20
-83.9009
11
138.981
21
-83.8878
0
LINE
8
Black
10
138.981
20
-83.8878
11
138.963
21
-83.8757
0
LINE
8
Black
10
138.963
20
-83.8757
11
138.96
21
-83.8723
0
LINE
8
Black
10
138.96
20
-83.8723
11
138.957
21
-83.8699
0
LINE
8
Black
10
138.957
20
-83.8699
11
138.945
21
-83.8515
0
LINE
8
Black
10
138.945
20
-83.8515
11
138.932
21
-83.8338
0
LINE
8
Black
10
138.932
20
-83.8338
11
138.86
21
-83.691
0
LINE
8
Black
10
138.86
20
-83.691
11
138.858
21
-83.6827
0
LINE
8
Black
10
138.858
20
-83.6827
11
138.854
21
-83.6752
0
LINE
8
Black
10
138.854
20
-83.6752
11
138.851
21
-83.6579
0
LINE
8
Black
10
138.851
20
-83.6579
11
138.846
21
-83.641
0
LINE
8
Black
10
138.846
20
-83.641
11
138.846
21
-83.6324
0
LINE
8
Black
10
138.846
20
-83.6324
11
138.845
21
-83.6239
0
LINE
8
Black
10
138.845
20
-83.6239
11
138.845
21
-83.481
0
LINE
8
Black
10
138.845
20
-83.481
11
138.846
21
-83.4725
0
LINE
8
Black
10
138.846
20
-83.4725
11
138.846
21
-83.4639
0
LINE
8
Black
10
138.846
20
-83.4639
11
138.851
21
-83.447
0
LINE
8
Black
10
138.851
20
-83.447
11
138.854
21
-83.4297
0
LINE
8
Black
10
138.854
20
-83.4297
11
138.858
21
-83.4222
0
LINE
8
Black
10
138.858
20
-83.4222
11
138.86
21
-83.4139
0
LINE
8
Black
10
138.86
20
-83.4139
11
138.932
21
-83.2711
0
LINE
8
Black
10
138.932
20
-83.2711
11
138.945
21
-83.2534
0
LINE
8
Black
10
138.945
20
-83.2534
11
138.957
21
-83.235
0
LINE
8
Black
10
138.957
20
-83.235
11
138.96
21
-83.2326
0
LINE
8
Black
10
138.96
20
-83.2326
11
138.963
21
-83.2292
0
LINE
8
Black
10
138.963
20
-83.2292
11
138.981
21
-83.2171
0
LINE
8
Black
10
138.981
20
-83.2171
11
138.999
21
-83.204
0
LINE
8
Black
10
138.999
20
-83.204
11
139.142
21
-83.1326
0
LINE
8
Black
10
139.142
20
-83.1326
11
139.15
21
-83.1301
0
LINE
8
Black
10
139.15
20
-83.1301
11
139.158
21
-83.1258
0
LINE
8
Black
10
139.158
20
-83.1258
11
139.175
21
-83.1227
0
LINE
8
Black
10
139.175
20
-83.1227
11
139.192
21
-83.1177
0
LINE
8
Black
10
139.192
20
-83.1177
11
139.2
21
-83.1182
0
LINE
8
Black
10
139.2
20
-83.1182
11
139.209
21
-83.1167
0
LINE
8
Black
10
139.209
20
-83.1167
11
139.531
21
-83.1167
0
LINE
8
Black
10
139.531
20
-83.1167
11
139.559
21
-83.1026
0
LINE
8
Black
10
139.559
20
-83.1026
11
139.559
21
-83.0879
0
LINE
8
Black
10
139.559
20
-83.0879
11
139.526
21
-83.0214
0
LINE
8
Black
10
139.526
20
-83.0214
11
139.459
21
-82.9882
0
LINE
8
Black
10
139.459
20
-82.9882
11
139.244
21
-82.9882
0
LINE
8
Black
10
139.244
20
-82.9882
11
139.133
21
-83.0438
0
LINE
8
Black
10
139.133
20
-83.0438
11
139.083
21
-83.0586
0
LINE
8
Black
10
139.083
20
-83.0586
11
139.031
21
-83.0555
0
LINE
8
Black
10
139.031
20
-83.0555
11
138.983
21
-83.0348
0
LINE
8
Black
10
138.983
20
-83.0348
11
138.946
21
-82.999
0
LINE
8
Black
10
138.946
20
-82.999
11
138.922
21
-82.9524
0
LINE
8
Black
10
138.922
20
-82.9524
11
138.916
21
-82.9006
0
LINE
8
Black
10
138.916
20
-82.9006
11
138.928
21
-82.8499
0
LINE
8
Black
10
138.928
20
-82.8499
11
138.957
21
-82.8065
0
LINE
8
Black
10
138.957
20
-82.8065
11
138.999
21
-82.7754
0
LINE
8
Black
10
138.999
20
-82.7754
11
139.142
21
-82.704
0
LINE
8
Black
10
139.142
20
-82.704
11
139.15
21
-82.7015
0
LINE
8
Black
10
139.15
20
-82.7015
11
139.158
21
-82.6972
0
LINE
8
Black
10
139.158
20
-82.6972
11
139.175
21
-82.6942
0
LINE
8
Black
10
139.175
20
-82.6942
11
139.192
21
-82.6892
0
LINE
8
Black
10
139.192
20
-82.6892
11
139.2
21
-82.6897
0
LINE
8
Black
10
139.2
20
-82.6897
11
139.209
21
-82.6882
0
LINE
8
Black
10
139.209
20
-82.6882
11
139.495
21
-82.6882
0
LINE
8
Black
10
139.495
20
-82.6882
11
139.503
21
-82.6897
0
LINE
8
Black
10
139.244
20
-83.4167
11
139.178
21
-83.45
0
LINE
8
Black
10
139.178
20
-83.45
11
139.145
21
-83.5164
0
LINE
8
Black
10
139.145
20
-83.5164
11
139.145
21
-83.5885
0
LINE
8
Black
10
139.145
20
-83.5885
11
139.178
21
-83.6549
0
LINE
8
Black
10
139.178
20
-83.6549
11
139.244
21
-83.6882
0
LINE
8
Black
10
139.244
20
-83.6882
11
139.531
21
-83.6882
0
LINE
8
Black
10
139.531
20
-83.6882
11
139.559
21
-83.674
0
LINE
8
Black
10
139.559
20
-83.674
11
139.559
21
-83.4167
0
LINE
8
Black
10
139.559
20
-83.4167
11
139.244
21
-83.4167
0
LINE
8
Black
10
136.075
20
-82.6897
11
136.083
21
-82.6892
0
LINE
8
Black
10
136.083
20
-82.6892
11
136.1
21
-82.6942
0
LINE
8
Black
10
136.1
20
-82.6942
11
136.117
21
-82.6972
0
LINE
8
Black
10
136.117
20
-82.6972
11
136.125
21
-82.7015
0
LINE
8
Black
10
136.125
20
-82.7015
11
136.133
21
-82.704
0
LINE
8
Black
10
136.133
20
-82.704
11
136.276
21
-82.7754
0
LINE
8
Black
10
136.276
20
-82.7754
11
136.295
21
-82.7897
0
LINE
8
Black
10
136.295
20
-82.7897
11
136.315
21
-82.8035
0
LINE
8
Black
10
136.315
20
-82.8035
11
136.386
21
-82.875
0
LINE
8
Black
10
136.386
20
-82.875
11
136.4
21
-82.8946
0
LINE
8
Black
10
136.4
20
-82.8946
11
136.415
21
-82.9139
0
LINE
8
Black
10
136.415
20
-82.9139
11
136.486
21
-83.0568
0
LINE
8
Black
10
136.486
20
-83.0568
11
136.488
21
-83.0651
0
LINE
8
Black
10
136.488
20
-83.0651
11
136.493
21
-83.0726
0
LINE
8
Black
10
136.493
20
-83.0726
11
136.496
21
-83.0899
0
LINE
8
Black
10
136.496
20
-83.0899
11
136.501
21
-83.1067
0
LINE
8
Black
10
136.501
20
-83.1067
11
136.5
21
-83.1154
0
LINE
8
Black
10
136.5
20
-83.1154
11
136.502
21
-83.1239
0
LINE
8
Black
10
136.502
20
-83.1239
11
136.502
21
-83.5525
0
LINE
8
Black
10
136.502
20
-83.5525
11
136.5
21
-83.561
0
LINE
8
Black
10
136.5
20
-83.561
11
136.501
21
-83.5696
0
LINE
8
Black
10
136.501
20
-83.5696
11
136.496
21
-83.5864
0
LINE
8
Black
10
136.496
20
-83.5864
11
136.493
21
-83.6038
0
LINE
8
Black
10
136.493
20
-83.6038
11
136.488
21
-83.6112
0
LINE
8
Black
10
136.488
20
-83.6112
11
136.486
21
-83.6195
0
LINE
8
Black
10
136.486
20
-83.6195
11
136.415
21
-83.7624
0
LINE
8
Black
10
136.415
20
-83.7624
11
136.4
21
-83.7817
0
LINE
8
Black
10
136.4
20
-83.7817
11
136.386
21
-83.8014
0
LINE
8
Black
10
136.386
20
-83.8014
11
136.315
21
-83.8728
0
LINE
8
Black
10
136.315
20
-83.8728
11
136.295
21
-83.8866
0
LINE
8
Black
10
136.295
20
-83.8866
11
136.276
21
-83.9009
0
LINE
8
Black
10
136.276
20
-83.9009
11
136.133
21
-83.9723
0
LINE
8
Black
10
136.133
20
-83.9723
11
136.125
21
-83.9748
0
LINE
8
Black
10
136.125
20
-83.9748
11
136.117
21
-83.9791
0
LINE
8
Black
10
136.117
20
-83.9791
11
136.1
21
-83.9822
0
LINE
8
Black
10
136.1
20
-83.9822
11
136.083
21
-83.9872
0
LINE
8
Black
10
136.083
20
-83.9872
11
136.075
21
-83.9867
0
LINE
8
Black
10
136.075
20
-83.9867
11
136.066
21
-83.9882
0
LINE
8
Black
10
136.066
20
-83.9882
11
135.852
21
-83.9882
0
LINE
8
Black
10
135.852
20
-83.9882
11
135.843
21
-83.9867
0
LINE
8
Black
10
135.843
20
-83.9867
11
135.835
21
-83.9872
0
LINE
8
Black
10
135.835
20
-83.9872
11
135.818
21
-83.9822
0
LINE
8
Black
10
135.818
20
-83.9822
11
135.8
21
-83.9791
0
LINE
8
Black
10
135.8
20
-83.9791
11
135.793
21
-83.9748
0
LINE
8
Black
10
135.793
20
-83.9748
11
135.785
21
-83.9723
0
LINE
8
Black
10
135.785
20
-83.9723
11
135.642
21
-83.9009
0
LINE
8
Black
10
135.642
20
-83.9009
11
135.623
21
-83.8866
0
LINE
8
Black
10
135.623
20
-83.8866
11
135.603
21
-83.8728
0
LINE
8
Black
10
135.603
20
-83.8728
11
135.531
21
-83.8014
0
LINE
8
Black
10
135.531
20
-83.8014
11
135.518
21
-83.7817
0
LINE
8
Black
10
135.518
20
-83.7817
11
135.503
21
-83.7624
0
LINE
8
Black
10
135.503
20
-83.7624
11
135.432
21
-83.6195
0
LINE
8
Black
10
135.432
20
-83.6195
11
135.429
21
-83.6113
0
LINE
8
Black
10
135.429
20
-83.6113
11
135.425
21
-83.6038
0
LINE
8
Black
10
135.425
20
-83.6038
11
135.422
21
-83.5864
0
LINE
8
Black
10
135.422
20
-83.5864
11
135.417
21
-83.5696
0
LINE
8
Black
10
135.417
20
-83.5696
11
135.418
21
-83.561
0
LINE
8
Black
10
135.418
20
-83.561
11
135.416
21
-83.5525
0
LINE
8
Black
10
135.416
20
-83.5525
11
135.416
21
-83.1239
0
LINE
8
Black
10
135.416
20
-83.1239
11
135.418
21
-83.1154
0
LINE
8
Black
10
135.418
20
-83.1154
11
135.417
21
-83.1067
0
LINE
8
Black
10
135.417
20
-83.1067
11
135.422
21
-83.0899
0
LINE
8
Black
10
135.422
20
-83.0899
11
135.425
21
-83.0726
0
LINE
8
Black
10
135.425
20
-83.0726
11
135.429
21
-83.0651
0
LINE
8
Black
10
135.429
20
-83.0651
11
135.432
21
-83.0568
0
LINE
8
Black
10
135.432
20
-83.0568
11
135.503
21
-82.9139
0
LINE
8
Black
10
135.503
20
-82.9139
11
135.518
21
-82.8947
0
LINE
8
Black
10
135.518
20
-82.8947
11
135.531
21
-82.875
0
LINE
8
Black
10
135.531
20
-82.875
11
135.603
21
-82.8035
0
LINE
8
Black
10
135.603
20
-82.8035
11
135.623
21
-82.7897
0
LINE
8
Black
10
135.623
20
-82.7897
11
135.642
21
-82.7754
0
LINE
8
Black
10
135.642
20
-82.7754
11
135.785
21
-82.704
0
LINE
8
Black
10
135.785
20
-82.704
11
135.793
21
-82.7015
0
LINE
8
Black
10
135.793
20
-82.7015
11
135.8
21
-82.6972
0
LINE
8
Black
10
135.8
20
-82.6972
11
135.818
21
-82.6942
0
LINE
8
Black
10
135.818
20
-82.6942
11
135.835
21
-82.6892
0
LINE
8
Black
10
135.835
20
-82.6892
11
135.843
21
-82.6897
0
LINE
8
Black
10
135.843
20
-82.6897
11
135.852
21
-82.6882
0
LINE
8
Black
10
135.852
20
-82.6882
11
136.066
21
-82.6882
0
LINE
8
Black
10
136.066
20
-82.6882
11
136.075
21
-82.6897
0
LINE
8
Black
10
135.887
20
-82.9882
11
135.798
21
-83.0329
0
LINE
8
Black
10
135.798
20
-83.0329
11
135.761
21
-83.0699
0
LINE
8
Black
10
135.761
20
-83.0699
11
135.716
21
-83.1593
0
LINE
8
Black
10
135.716
20
-83.1593
11
135.716
21
-83.517
0
LINE
8
Black
10
135.716
20
-83.517
11
135.761
21
-83.6065
0
LINE
8
Black
10
135.761
20
-83.6065
11
135.798
21
-83.6435
0
LINE
8
Black
10
135.798
20
-83.6435
11
135.887
21
-83.6882
0
LINE
8
Black
10
135.887
20
-83.6882
11
136.031
21
-83.6882
0
LINE
8
Black
10
136.031
20
-83.6882
11
136.12
21
-83.6435
0
LINE
8
Black
10
136.12
20
-83.6435
11
136.157
21
-83.6065
0
LINE
8
Black
10
136.157
20
-83.6065
11
136.202
21
-83.517
0
LINE
8
Black
10
136.202
20
-83.517
11
136.202
21
-83.1593
0
LINE
8
Black
10
136.202
20
-83.1593
11
136.157
21
-83.0699
0
LINE
8
Black
10
136.157
20
-83.0699
11
136.12
21
-83.0329
0
LINE
8
Black
10
136.12
20
-83.0329
11
136.031
21
-82.9882
0
LINE
8
Black
10
136.031
20
-82.9882
11
135.887
21
-82.9882
0
LINE
8
Black
10
132.76
20
-82.1972
11
132.805
21
-82.2233
0
LINE
8
Black
10
132.805
20
-82.2233
11
132.839
21
-82.2632
0
LINE
8
Black
10
132.839
20
-82.2632
11
132.857
21
-82.3121
0
LINE
8
Black
10
132.857
20
-82.3121
11
132.857
21
-82.3642
0
LINE
8
Black
10
132.857
20
-82.3642
11
132.839
21
-82.4132
0
LINE
8
Black
10
132.839
20
-82.4132
11
132.805
21
-82.4531
0
LINE
8
Black
10
132.805
20
-82.4531
11
132.76
21
-82.4791
0
LINE
8
Black
10
132.76
20
-82.4791
11
132.709
21
-82.4882
0
LINE
8
Black
10
132.709
20
-82.4882
11
132.145
21
-82.4882
0
LINE
8
Black
10
132.145
20
-82.4882
11
132.145
21
-82.9025
0
LINE
8
Black
10
132.145
20
-82.9025
11
132.495
21
-82.9025
0
LINE
8
Black
10
132.495
20
-82.9025
11
132.546
21
-82.9115
0
LINE
8
Black
10
132.546
20
-82.9115
11
132.591
21
-82.9376
0
LINE
8
Black
10
132.591
20
-82.9376
11
132.625
21
-82.9775
0
LINE
8
Black
10
132.625
20
-82.9775
11
132.642
21
-83.0264
0
LINE
8
Black
10
132.642
20
-83.0264
11
132.642
21
-83.0785
0
LINE
8
Black
10
132.642
20
-83.0785
11
132.625
21
-83.1275
0
LINE
8
Black
10
132.625
20
-83.1275
11
132.591
21
-83.1674
0
LINE
8
Black
10
132.591
20
-83.1674
11
132.546
21
-83.1934
0
LINE
8
Black
10
132.546
20
-83.1934
11
132.495
21
-83.2025
0
LINE
8
Black
10
132.495
20
-83.2025
11
132.145
21
-83.2025
0
LINE
8
Black
10
132.145
20
-83.2025
11
132.145
21
-83.6882
0
LINE
8
Black
10
132.145
20
-83.6882
11
132.709
21
-83.6882
0
LINE
8
Black
10
132.709
20
-83.6882
11
132.76
21
-83.6972
0
LINE
8
Black
10
132.76
20
-83.6972
11
132.805
21
-83.7233
0
LINE
8
Black
10
132.805
20
-83.7233
11
132.839
21
-83.7632
0
LINE
8
Black
10
132.839
20
-83.7632
11
132.857
21
-83.8121
0
LINE
8
Black
10
132.857
20
-83.8121
11
132.857
21
-83.8642
0
LINE
8
Black
10
132.857
20
-83.8642
11
132.839
21
-83.9132
0
LINE
8
Black
10
132.839
20
-83.9132
11
132.805
21
-83.9531
0
LINE
8
Black
10
132.805
20
-83.9531
11
132.76
21
-83.9791
0
LINE
8
Black
10
132.76
20
-83.9791
11
132.709
21
-83.9882
0
LINE
8
Black
10
132.709
20
-83.9882
11
131.995
21
-83.9882
0
LINE
8
Black
10
131.995
20
-83.9882
11
131.982
21
-83.9859
0
LINE
8
Black
10
131.982
20
-83.9859
11
131.969
21
-83.9859
0
LINE
8
Black
10
131.969
20
-83.9859
11
131.956
21
-83.9814
0
LINE
8
Black
10
131.956
20
-83.9814
11
131.943
21
-83.9791
0
LINE
8
Black
10
131.943
20
-83.9791
11
131.932
21
-83.9726
0
LINE
8
Black
10
131.932
20
-83.9726
11
131.92
21
-83.9681
0
LINE
8
Black
10
131.92
20
-83.9681
11
131.91
21
-83.9596
0
LINE
8
Black
10
131.91
20
-83.9596
11
131.898
21
-83.9531
0
LINE
8
Black
10
131.898
20
-83.9531
11
131.89
21
-83.943
0
LINE
8
Black
10
131.89
20
-83.943
11
131.88
21
-83.9346
0
LINE
8
Black
10
131.88
20
-83.9346
11
131.873
21
-83.9232
0
LINE
8
Black
10
131.873
20
-83.9232
11
131.865
21
-83.9132
0
LINE
8
Black
10
131.865
20
-83.9132
11
131.86
21
-83.9008
0
LINE
8
Black
10
131.86
20
-83.9008
11
131.854
21
-83.8895
0
LINE
8
Black
10
131.854
20
-83.8895
11
131.851
21
-83.8765
0
LINE
8
Black
10
131.851
20
-83.8765
11
131.847
21
-83.8642
0
LINE
8
Black
10
131.847
20
-83.8642
11
131.847
21
-83.8511
0
LINE
8
Black
10
131.847
20
-83.8511
11
131.845
21
-83.8382
0
LINE
8
Black
10
131.845
20
-83.8382
11
131.845
21
-82.3382
0
LINE
8
Black
10
131.845
20
-82.3382
11
131.847
21
-82.3252
0
LINE
8
Black
10
131.847
20
-82.3252
11
131.847
21
-82.3121
0
LINE
8
Black
10
131.847
20
-82.3121
11
131.851
21
-82.2998
0
LINE
8
Black
10
131.851
20
-82.2998
11
131.854
21
-82.2869
0
LINE
8
Black
10
131.854
20
-82.2869
11
131.86
21
-82.2755
0
LINE
8
Black
10
131.86
20
-82.2755
11
131.865
21
-82.2632
0
LINE
8
Black
10
131.865
20
-82.2632
11
131.873
21
-82.2531
0
LINE
8
Black
10
131.873
20
-82.2531
11
131.88
21
-82.2418
0
LINE
8
Black
10
131.88
20
-82.2418
11
131.89
21
-82.2333
0
LINE
8
Black
10
131.89
20
-82.2333
11
131.898
21
-82.2233
0
LINE
8
Black
10
131.898
20
-82.2233
11
131.91
21
-82.2167
0
LINE
8
Black
10
131.91
20
-82.2167
11
131.92
21
-82.2083
0
LINE
8
Black
10
131.92
20
-82.2083
11
131.932
21
-82.2038
0
LINE
8
Black
10
131.932
20
-82.2038
11
131.943
21
-82.1972
0
LINE
8
Black
10
131.943
20
-82.1972
11
131.956
21
-82.1949
0
LINE
8
Black
10
131.956
20
-82.1949
11
131.969
21
-82.1904
0
LINE
8
Black
10
131.969
20
-82.1904
11
131.982
21
-82.1904
0
LINE
8
Black
10
131.982
20
-82.1904
11
131.995
21
-82.1882
0
LINE
8
Black
10
131.995
20
-82.1882
11
132.709
21
-82.1882
0
LINE
8
Black
10
132.709
20
-82.1882
11
132.76
21
-82.1972
0
LINE
8
Black
10
147.514
20
-83.5476
11
147.521
21
-83.5476
0
LINE
8
Black
10
147.521
20
-83.5476
11
147.527
21
-83.5498
0
LINE
8
Black
10
147.527
20
-83.5498
11
147.533
21
-83.5504
0
LINE
8
Black
10
147.533
20
-83.5504
11
147.545
21
-83.556
0
LINE
8
Black
10
147.545
20
-83.556
11
147.558
21
-83.5594
0
LINE
8
Black
10
147.558
20
-83.5594
11
147.563
21
-83.5632
0
LINE
8
Black
10
147.563
20
-83.5632
11
147.57
21
-83.5654
0
LINE
8
Black
10
147.57
20
-83.5654
11
147.575
21
-83.5697
0
LINE
8
Black
10
147.575
20
-83.5697
11
147.581
21
-83.5724
0
LINE
8
Black
10
147.581
20
-83.5724
11
147.59
21
-83.5817
0
LINE
8
Black
10
147.59
20
-83.5817
11
147.601
21
-83.5892
0
LINE
8
Black
10
147.601
20
-83.5892
11
147.672
21
-83.6607
0
LINE
8
Black
10
147.672
20
-83.6607
11
147.68
21
-83.6714
0
LINE
8
Black
10
147.68
20
-83.6714
11
147.689
21
-83.6807
0
LINE
8
Black
10
147.689
20
-83.6807
11
147.694
21
-83.6926
0
LINE
8
Black
10
147.694
20
-83.6926
11
147.702
21
-83.7034
0
LINE
8
Black
10
147.702
20
-83.7034
11
147.705
21
-83.716
0
LINE
8
Black
10
147.705
20
-83.716
11
147.711
21
-83.7279
0
LINE
8
Black
10
147.711
20
-83.7279
11
147.712
21
-83.741
0
LINE
8
Black
10
147.712
20
-83.741
11
147.715
21
-83.7537
0
LINE
8
Black
10
147.715
20
-83.7537
11
147.714
21
-83.7667
0
LINE
8
Black
10
147.714
20
-83.7667
11
147.715
21
-83.7798
0
LINE
8
Black
10
147.715
20
-83.7798
11
147.712
21
-83.7925
0
LINE
8
Black
10
147.712
20
-83.7925
11
147.711
21
-83.8056
0
LINE
8
Black
10
147.711
20
-83.8056
11
147.705
21
-83.8175
0
LINE
8
Black
10
147.705
20
-83.8175
11
147.702
21
-83.8301
0
LINE
8
Black
10
147.702
20
-83.8301
11
147.694
21
-83.8409
0
LINE
8
Black
10
147.694
20
-83.8409
11
147.689
21
-83.8528
0
LINE
8
Black
10
147.689
20
-83.8528
11
147.68
21
-83.8621
0
LINE
8
Black
10
147.68
20
-83.8621
11
147.672
21
-83.8728
0
LINE
8
Black
10
147.672
20
-83.8728
11
147.601
21
-83.9442
0
LINE
8
Black
10
147.601
20
-83.9442
11
147.59
21
-83.9518
0
LINE
8
Black
10
147.59
20
-83.9518
11
147.581
21
-83.961
0
LINE
8
Black
10
147.581
20
-83.961
11
147.575
21
-83.9638
0
LINE
8
Black
10
147.575
20
-83.9638
11
147.57
21
-83.9681
0
LINE
8
Black
10
147.57
20
-83.9681
11
147.563
21
-83.9703
0
LINE
8
Black
10
147.563
20
-83.9703
11
147.558
21
-83.9741
0
LINE
8
Black
10
147.558
20
-83.9741
11
147.545
21
-83.9775
0
LINE
8
Black
10
147.545
20
-83.9775
11
147.533
21
-83.9831
0
LINE
8
Black
10
147.533
20
-83.9831
11
147.527
21
-83.9836
0
LINE
8
Black
10
147.527
20
-83.9836
11
147.521
21
-83.9859
0
LINE
8
Black
10
147.521
20
-83.9859
11
147.514
21
-83.9859
0
LINE
8
Black
10
147.514
20
-83.9859
11
147.508
21
-83.9876
0
LINE
8
Black
10
147.508
20
-83.9876
11
147.495
21
-83.9865
0
LINE
8
Black
10
147.495
20
-83.9865
11
147.482
21
-83.9876
0
LINE
8
Black
10
147.482
20
-83.9876
11
147.475
21
-83.9859
0
LINE
8
Black
10
147.475
20
-83.9859
11
147.469
21
-83.9859
0
LINE
8
Black
10
147.469
20
-83.9859
11
147.462
21
-83.9836
0
LINE
8
Black
10
147.462
20
-83.9836
11
147.456
21
-83.9831
0
LINE
8
Black
10
147.456
20
-83.9831
11
147.444
21
-83.9775
0
LINE
8
Black
10
147.444
20
-83.9775
11
147.431
21
-83.9741
0
LINE
8
Black
10
147.431
20
-83.9741
11
147.426
21
-83.9703
0
LINE
8
Black
10
147.426
20
-83.9703
11
147.42
21
-83.9681
0
LINE
8
Black
10
147.42
20
-83.9681
11
147.415
21
-83.9638
0
LINE
8
Black
10
147.415
20
-83.9638
11
147.409
21
-83.961
0
LINE
8
Black
10
147.409
20
-83.961
11
147.399
21
-83.9518
0
LINE
8
Black
10
147.399
20
-83.9518
11
147.389
21
-83.9442
0
LINE
8
Black
10
147.389
20
-83.9442
11
147.317
21
-83.8728
0
LINE
8
Black
10
147.317
20
-83.8728
11
147.31
21
-83.8621
0
LINE
8
Black
10
147.31
20
-83.8621
11
147.3
21
-83.8528
0
LINE
8
Black
10
147.3
20
-83.8528
11
147.295
21
-83.8409
0
LINE
8
Black
10
147.295
20
-83.8409
11
147.287
21
-83.8301
0
LINE
8
Black
10
147.287
20
-83.8301
11
147.284
21
-83.8175
0
LINE
8
Black
10
147.284
20
-83.8175
11
147.278
21
-83.8056
0
LINE
8
Black
10
147.278
20
-83.8056
11
147.277
21
-83.7925
0
LINE
8
Black
10
147.277
20
-83.7925
11
147.274
21
-83.7798
0
LINE
8
Black
10
147.274
20
-83.7798
11
147.275
21
-83.7667
0
LINE
8
Black
10
147.275
20
-83.7667
11
147.274
21
-83.7537
0
LINE
8
Black
10
147.274
20
-83.7537
11
147.277
21
-83.741
0
LINE
8
Black
10
147.277
20
-83.741
11
147.278
21
-83.7279
0
LINE
8
Black
10
147.278
20
-83.7279
11
147.284
21
-83.716
0
LINE
8
Black
10
147.284
20
-83.716
11
147.287
21
-83.7034
0
LINE
8
Black
10
147.287
20
-83.7034
11
147.295
21
-83.6926
0
LINE
8
Black
10
147.295
20
-83.6926
11
147.3
21
-83.6807
0
LINE
8
Black
10
147.3
20
-83.6807
11
147.31
21
-83.6714
0
LINE
8
Black
10
147.31
20
-83.6714
11
147.317
21
-83.6607
0
LINE
8
Black
10
147.317
20
-83.6607
11
147.389
21
-83.5892
0
LINE
8
Black
10
147.389
20
-83.5892
11
147.399
21
-83.5817
0
LINE
8
Black
10
147.399
20
-83.5817
11
147.409
21
-83.5724
0
LINE
8
Black
10
147.409
20
-83.5724
11
147.415
21
-83.5697
0
LINE
8
Black
10
147.415
20
-83.5697
11
147.42
21
-83.5654
0
LINE
8
Black
10
147.42
20
-83.5654
11
147.426
21
-83.5632
0
LINE
8
Black
10
147.426
20
-83.5632
11
147.431
21
-83.5594
0
LINE
8
Black
10
147.431
20
-83.5594
11
147.444
21
-83.556
0
LINE
8
Black
10
147.444
20
-83.556
11
147.456
21
-83.5504
0
LINE
8
Black
10
147.456
20
-83.5504
11
147.462
21
-83.5498
0
LINE
8
Black
10
147.462
20
-83.5498
11
147.469
21
-83.5476
0
LINE
8
Black
10
147.469
20
-83.5476
11
147.475
21
-83.5476
0
LINE
8
Black
10
147.475
20
-83.5476
11
147.482
21
-83.5459
0
LINE
8
Black
10
147.482
20
-83.5459
11
147.495
21
-83.547
0
LINE
8
Black
10
147.495
20
-83.547
11
147.508
21
-83.5459
0
LINE
8
Black
10
147.508
20
-83.5459
11
147.514
21
-83.5476
0
LINE
8
Black
10
142.927
20
-82.2083
11
142.967
21
-82.2418
0
LINE
8
Black
10
142.967
20
-82.2418
11
142.993
21
-82.2869
0
LINE
8
Black
10
142.993
20
-82.2869
11
143.002
21
-82.3382
0
LINE
8
Black
10
143.002
20
-82.3382
11
143.002
21
-83.5885
0
LINE
8
Black
10
143.002
20
-83.5885
11
143.035
21
-83.6549
0
LINE
8
Black
10
143.035
20
-83.6549
11
143.133
21
-83.704
0
LINE
8
Black
10
143.133
20
-83.704
11
143.175
21
-83.735
0
LINE
8
Black
10
143.175
20
-83.735
11
143.204
21
-83.7785
0
LINE
8
Black
10
143.204
20
-83.7785
11
143.216
21
-83.8292
0
LINE
8
Black
10
143.216
20
-83.8292
11
143.21
21
-83.8809
0
LINE
8
Black
10
143.21
20
-83.8809
11
143.187
21
-83.9275
0
LINE
8
Black
10
143.187
20
-83.9275
11
143.149
21
-83.9633
0
LINE
8
Black
10
143.149
20
-83.9633
11
143.101
21
-83.9841
0
LINE
8
Black
10
143.101
20
-83.9841
11
143.049
21
-83.9872
0
LINE
8
Black
10
143.049
20
-83.9872
11
142.999
21
-83.9723
0
LINE
8
Black
10
142.999
20
-83.9723
11
142.856
21
-83.9009
0
LINE
8
Black
10
142.856
20
-83.9009
11
142.838
21
-83.8878
0
LINE
8
Black
10
142.838
20
-83.8878
11
142.82
21
-83.8757
0
LINE
8
Black
10
142.82
20
-83.8757
11
142.818
21
-83.8723
0
LINE
8
Black
10
142.818
20
-83.8723
11
142.814
21
-83.8699
0
LINE
8
Black
10
142.814
20
-83.8699
11
142.802
21
-83.8515
0
LINE
8
Black
10
142.802
20
-83.8515
11
142.789
21
-83.8338
0
LINE
8
Black
10
142.789
20
-83.8338
11
142.718
21
-83.691
0
LINE
8
Black
10
142.718
20
-83.691
11
142.715
21
-83.6827
0
LINE
8
Black
10
142.715
20
-83.6827
11
142.711
21
-83.6752
0
LINE
8
Black
10
142.711
20
-83.6752
11
142.708
21
-83.6579
0
LINE
8
Black
10
142.708
20
-83.6579
11
142.703
21
-83.641
0
LINE
8
Black
10
142.703
20
-83.641
11
142.703
21
-83.6324
0
LINE
8
Black
10
142.703
20
-83.6324
11
142.702
21
-83.6239
0
LINE
8
Black
10
142.702
20
-83.6239
11
142.702
21
-82.3382
0
LINE
8
Black
10
142.702
20
-82.3382
11
142.711
21
-82.2869
0
LINE
8
Black
10
142.711
20
-82.2869
11
142.737
21
-82.2418
0
LINE
8
Black
10
142.737
20
-82.2418
11
142.777
21
-82.2083
0
LINE
8
Black
10
142.777
20
-82.2083
11
142.826
21
-82.1904
0
LINE
8
Black
10
142.826
20
-82.1904
11
142.878
21
-82.1904
0
LINE
8
Black
10
142.878
20
-82.1904
11
142.927
21
-82.2083
0
LINE
8
Black
10
145.637
20
-82.2063
11
145.678
21
-82.2386
0
LINE
8
Black
10
145.678
20
-82.2386
11
145.706
21
-82.283
0
LINE
8
Black
10
145.706
20
-82.283
11
145.716
21
-82.3341
0
LINE
8
Black
10
145.716
20
-82.3341
11
145.708
21
-82.3856
0
LINE
8
Black
10
145.708
20
-82.3856
11
145.208
21
-83.8856
0
LINE
8
Black
10
145.208
20
-83.8856
11
145.206
21
-83.8892
0
LINE
8
Black
10
145.206
20
-83.8892
11
145.206
21
-83.8933
0
LINE
8
Black
10
145.206
20
-83.8933
11
145.194
21
-83.9121
0
LINE
8
Black
10
145.194
20
-83.9121
11
145.184
21
-83.9314
0
LINE
8
Black
10
145.184
20
-83.9314
11
145.18
21
-83.9342
0
LINE
8
Black
10
145.18
20
-83.9342
11
145.178
21
-83.9377
0
LINE
8
Black
10
145.178
20
-83.9377
11
145.161
21
-83.9514
0
LINE
8
Black
10
145.161
20
-83.9514
11
145.145
21
-83.966
0
LINE
8
Black
10
145.145
20
-83.966
11
145.141
21
-83.9675
0
LINE
8
Black
10
145.141
20
-83.9675
11
145.137
21
-83.9701
0
LINE
8
Black
10
145.137
20
-83.9701
11
145.117
21
-83.977
0
LINE
8
Black
10
145.117
20
-83.977
11
145.096
21
-83.9851
0
LINE
8
Black
10
145.096
20
-83.9851
11
145.092
21
-83.9852
0
LINE
8
Black
10
145.092
20
-83.9852
11
145.088
21
-83.9865
0
LINE
8
Black
10
145.088
20
-83.9865
11
145.066
21
-83.9859
0
LINE
8
Black
10
145.066
20
-83.9859
11
145.044
21
-83.9865
0
LINE
8
Black
10
145.044
20
-83.9865
11
145.04
21
-83.9852
0
LINE
8
Black
10
145.04
20
-83.9852
11
145.036
21
-83.9851
0
LINE
8
Black
10
145.036
20
-83.9851
11
145.016
21
-83.977
0
LINE
8
Black
10
145.016
20
-83.977
11
144.995
21
-83.9701
0
LINE
8
Black
10
144.995
20
-83.9701
11
144.991
21
-83.9675
0
LINE
8
Black
10
144.991
20
-83.9675
11
144.988
21
-83.966
0
LINE
8
Black
10
144.988
20
-83.966
11
144.971
21
-83.9514
0
LINE
8
Black
10
144.971
20
-83.9514
11
144.954
21
-83.9377
0
LINE
8
Black
10
144.954
20
-83.9377
11
144.952
21
-83.9342
0
LINE
8
Black
10
144.952
20
-83.9342
11
144.949
21
-83.9314
0
LINE
8
Black
10
144.949
20
-83.9314
11
144.938
21
-83.9121
0
LINE
8
Black
10
144.938
20
-83.9121
11
144.927
21
-83.8933
0
LINE
8
Black
10
144.927
20
-83.8933
11
144.926
21
-83.8892
0
LINE
8
Black
10
144.926
20
-83.8892
11
144.924
21
-83.8856
0
LINE
8
Black
10
144.924
20
-83.8856
11
144.424
21
-82.3856
0
LINE
8
Black
10
144.424
20
-82.3856
11
144.416
21
-82.3341
0
LINE
8
Black
10
144.416
20
-82.3341
11
144.427
21
-82.283
0
LINE
8
Black
10
144.427
20
-82.283
11
144.454
21
-82.2386
0
LINE
8
Black
10
144.454
20
-82.2386
11
144.495
21
-82.2063
0
LINE
8
Black
10
144.495
20
-82.2063
11
144.544
21
-82.1898
0
LINE
8
Black
10
144.544
20
-82.1898
11
144.596
21
-82.1912
0
LINE
8
Black
10
144.596
20
-82.1912
11
144.645
21
-82.2104
0
LINE
8
Black
10
144.645
20
-82.2104
11
144.684
21
-82.2449
0
LINE
8
Black
10
144.684
20
-82.2449
11
144.708
21
-82.2907
0
LINE
8
Black
10
144.708
20
-82.2907
11
145.066
21
-83.3638
0
LINE
8
Black
10
145.066
20
-83.3638
11
145.424
21
-82.2907
0
LINE
8
Black
10
145.424
20
-82.2907
11
145.449
21
-82.2449
0
LINE
8
Black
10
145.449
20
-82.2449
11
145.488
21
-82.2104
0
LINE
8
Black
10
145.488
20
-82.2104
11
145.536
21
-82.1912
0
LINE
8
Black
10
145.536
20
-82.1912
11
145.588
21
-82.1898
0
LINE
8
Black
10
145.588
20
-82.1898
11
145.637
21
-82.2063
0
LINE
8
Black
10
141.069
20
-82.7078
11
141.109
21
-82.7411
0
LINE
8
Black
10
141.109
20
-82.7411
11
141.135
21
-82.786
0
LINE
8
Black
10
141.135
20
-82.786
11
141.145
21
-82.8373
0
LINE
8
Black
10
141.145
20
-82.8373
11
141.136
21
-82.8886
0
LINE
8
Black
10
141.136
20
-82.8886
11
140.779
21
-83.8886
0
LINE
8
Black
10
140.779
20
-83.8886
11
140.778
21
-83.8894
0
LINE
8
Black
10
140.778
20
-83.8894
11
140.778
21
-83.8903
0
LINE
8
Black
10
140.778
20
-83.8903
11
140.765
21
-83.9121
0
LINE
8
Black
10
140.765
20
-83.9121
11
140.753
21
-83.9339
0
LINE
8
Black
10
140.753
20
-83.9339
11
140.752
21
-83.9345
0
LINE
8
Black
10
140.752
20
-83.9345
11
140.752
21
-83.9353
0
LINE
8
Black
10
140.752
20
-83.9353
11
140.732
21
-83.9513
0
LINE
8
Black
10
140.732
20
-83.9513
11
140.713
21
-83.9676
0
LINE
8
Black
10
140.713
20
-83.9676
11
140.712
21
-83.9679
0
LINE
8
Black
10
140.712
20
-83.9679
11
140.712
21
-83.9685
0
LINE
8
Black
10
140.712
20
-83.9685
11
140.688
21
-83.977
0
LINE
8
Black
10
140.688
20
-83.977
11
140.664
21
-83.9857
0
LINE
8
Black
10
140.664
20
-83.9857
11
140.664
21
-83.9857
0
LINE
8
Black
10
140.664
20
-83.9857
11
140.663
21
-83.986
0
LINE
8
Black
10
140.663
20
-83.986
11
140.637
21
-83.9859
0
LINE
8
Black
10
140.637
20
-83.9859
11
140.612
21
-83.986
0
LINE
8
Black
10
140.612
20
-83.986
11
140.611
21
-83.9857
0
LINE
8
Black
10
140.611
20
-83.9857
11
140.611
21
-83.9857
0
LINE
8
Black
10
140.611
20
-83.9857
11
140.587
21
-83.977
0
LINE
8
Black
10
140.587
20
-83.977
11
140.563
21
-83.9685
0
LINE
8
Black
10
140.563
20
-83.9685
11
140.563
21
-83.9679
0
LINE
8
Black
10
140.563
20
-83.9679
11
140.562
21
-83.9676
0
LINE
8
Black
10
140.562
20
-83.9676
11
140.543
21
-83.9513
0
LINE
8
Black
10
140.543
20
-83.9513
11
140.523
21
-83.9353
0
LINE
8
Black
10
140.523
20
-83.9353
11
140.523
21
-83.9345
0
LINE
8
Black
10
140.523
20
-83.9345
11
140.522
21
-83.9339
0
LINE
8
Black
10
140.522
20
-83.9339
11
140.51
21
-83.9121
0
LINE
8
Black
10
140.51
20
-83.9121
11
140.497
21
-83.8903
0
LINE
8
Black
10
140.497
20
-83.8903
11
140.497
21
-83.8894
0
LINE
8
Black
10
140.497
20
-83.8894
11
140.496
21
-83.8886
0
LINE
8
Black
10
140.496
20
-83.8886
11
140.139
21
-82.8886
0
LINE
8
Black
10
140.139
20
-82.8886
11
140.13
21
-82.8373
0
LINE
8
Black
10
140.13
20
-82.8373
11
140.14
21
-82.786
0
LINE
8
Black
10
140.14
20
-82.786
11
140.166
21
-82.7411
0
LINE
8
Black
10
140.166
20
-82.7411
11
140.206
21
-82.7078
0
LINE
8
Black
10
140.206
20
-82.7078
11
140.255
21
-82.6903
0
LINE
8
Black
10
140.255
20
-82.6903
11
140.307
21
-82.6906
0
LINE
8
Black
10
140.307
20
-82.6906
11
140.356
21
-82.7087
0
LINE
8
Black
10
140.356
20
-82.7087
11
140.396
21
-82.7424
0
LINE
8
Black
10
140.396
20
-82.7424
11
140.422
21
-82.7877
0
LINE
8
Black
10
140.422
20
-82.7877
11
140.637
21
-83.3922
0
LINE
8
Black
10
140.637
20
-83.3922
11
140.853
21
-82.7877
0
LINE
8
Black
10
140.853
20
-82.7877
11
140.879
21
-82.7424
0
LINE
8
Black
10
140.879
20
-82.7424
11
140.919
21
-82.7087
0
LINE
8
Black
10
140.919
20
-82.7087
11
140.968
21
-82.6906
0
LINE
8
Black
10
140.968
20
-82.6906
11
141.02
21
-82.6903
0
LINE
8
Black
10
141.02
20
-82.6903
11
141.069
21
-82.7078
0
LINE
8
Black
10
133.832
20
-82.6972
11
133.877
21
-82.7233
0
LINE
8
Black
10
133.877
20
-82.7233
11
133.91
21
-82.7632
0
LINE
8
Black
10
133.91
20
-82.7632
11
133.928
21
-82.8121
0
LINE
8
Black
10
133.928
20
-82.8121
11
133.928
21
-82.8642
0
LINE
8
Black
10
133.928
20
-82.8642
11
133.91
21
-82.9132
0
LINE
8
Black
10
133.91
20
-82.9132
11
133.877
21
-82.9531
0
LINE
8
Black
10
133.877
20
-82.9531
11
133.832
21
-82.9791
0
LINE
8
Black
10
133.832
20
-82.9791
11
133.78
21
-82.9882
0
LINE
8
Black
10
133.78
20
-82.9882
11
133.673
21
-82.9882
0
LINE
8
Black
10
133.673
20
-82.9882
11
133.583
21
-83.0329
0
LINE
8
Black
10
133.583
20
-83.0329
11
133.546
21
-83.0699
0
LINE
8
Black
10
133.546
20
-83.0699
11
133.502
21
-83.1593
0
LINE
8
Black
10
133.502
20
-83.1593
11
133.502
21
-83.8382
0
LINE
8
Black
10
133.502
20
-83.8382
11
133.493
21
-83.8895
0
LINE
8
Black
10
133.493
20
-83.8895
11
133.467
21
-83.9346
0
LINE
8
Black
10
133.467
20
-83.9346
11
133.427
21
-83.9681
0
LINE
8
Black
10
133.427
20
-83.9681
11
133.378
21
-83.9859
0
LINE
8
Black
10
133.378
20
-83.9859
11
133.326
21
-83.9859
0
LINE
8
Black
10
133.326
20
-83.9859
11
133.277
21
-83.9681
0
LINE
8
Black
10
133.277
20
-83.9681
11
133.237
21
-83.9346
0
LINE
8
Black
10
133.237
20
-83.9346
11
133.211
21
-83.8895
0
LINE
8
Black
10
133.211
20
-83.8895
11
133.202
21
-83.8382
0
LINE
8
Black
10
133.202
20
-83.8382
11
133.202
21
-82.8382
0
LINE
8
Black
10
133.202
20
-82.8382
11
133.211
21
-82.7869
0
LINE
8
Black
10
133.211
20
-82.7869
11
133.237
21
-82.7418
0
LINE
8
Black
10
133.237
20
-82.7418
11
133.277
21
-82.7083
0
LINE
8
Black
10
133.277
20
-82.7083
11
133.326
21
-82.6904
0
LINE
8
Black
10
133.326
20
-82.6904
11
133.378
21
-82.6904
0
LINE
8
Black
10
133.378
20
-82.6904
11
133.427
21
-82.7083
0
LINE
8
Black
10
133.427
20
-82.7083
11
133.467
21
-82.7418
0
LINE
8
Black
10
133.467
20
-82.7418
11
133.473
21
-82.7527
0
LINE
8
Black
10
133.473
20
-82.7527
11
133.57
21
-82.704
0
LINE
8
Black
10
133.57
20
-82.704
11
133.579
21
-82.7015
0
LINE
8
Black
10
133.579
20
-82.7015
11
133.586
21
-82.6972
0
LINE
8
Black
10
133.586
20
-82.6972
11
133.603
21
-82.6942
0
LINE
8
Black
10
133.603
20
-82.6942
11
133.62
21
-82.6892
0
LINE
8
Black
10
133.62
20
-82.6892
11
133.629
21
-82.6897
0
LINE
8
Black
10
133.629
20
-82.6897
11
133.637
21
-82.6882
0
LINE
8
Black
10
133.637
20
-82.6882
11
133.78
21
-82.6882
0
LINE
8
Black
10
133.78
20
-82.6882
11
133.832
21
-82.6972
0
LINE
8
Black
10
137.689
20
-82.1972
11
137.734
21
-82.2233
0
LINE
8
Black
10
137.734
20
-82.2233
11
137.767
21
-82.2632
0
LINE
8
Black
10
137.767
20
-82.2632
11
137.785
21
-82.3121
0
LINE
8
Black
10
137.785
20
-82.3121
11
137.785
21
-82.3642
0
LINE
8
Black
10
137.785
20
-82.3642
11
137.767
21
-82.4132
0
LINE
8
Black
10
137.767
20
-82.4132
11
137.734
21
-82.4531
0
LINE
8
Black
10
137.734
20
-82.4531
11
137.689
21
-82.4791
0
LINE
8
Black
10
137.689
20
-82.4791
11
137.637
21
-82.4882
0
LINE
8
Black
10
137.637
20
-82.4882
11
137.359
21
-82.4882
0
LINE
8
Black
10
137.359
20
-82.4882
11
137.359
21
-83.8382
0
LINE
8
Black
10
137.359
20
-83.8382
11
137.35
21
-83.8895
0
LINE
8
Black
10
137.35
20
-83.8895
11
137.324
21
-83.9346
0
LINE
8
Black
10
137.324
20
-83.9346
11
137.284
21
-83.9681
0
LINE
8
Black
10
137.284
20
-83.9681
11
137.235
21
-83.9859
0
LINE
8
Black
10
137.235
20
-83.9859
11
137.183
21
-83.9859
0
LINE
8
Black
10
137.183
20
-83.9859
11
137.134
21
-83.9681
0
LINE
8
Black
10
137.134
20
-83.9681
11
137.094
21
-83.9346
0
LINE
8
Black
10
137.094
20
-83.9346
11
137.068
21
-83.8895
0
LINE
8
Black
10
137.068
20
-83.8895
11
137.059
21
-83.8382
0
LINE
8
Black
10
137.059
20
-83.8382
11
137.059
21
-82.4882
0
LINE
8
Black
10
137.059
20
-82.4882
11
136.78
21
-82.4882
0
LINE
8
Black
10
136.78
20
-82.4882
11
136.729
21
-82.4791
0
LINE
8
Black
10
136.729
20
-82.4791
11
136.684
21
-82.4531
0
LINE
8
Black
10
136.684
20
-82.4531
11
136.65
21
-82.4132
0
LINE
8
Black
10
136.65
20
-82.4132
11
136.633
21
-82.3642
0
LINE
8
Black
10
136.633
20
-82.3642
11
136.633
21
-82.3121
0
LINE
8
Black
10
136.633
20
-82.3121
11
136.65
21
-82.2632
0
LINE
8
Black
10
136.65
20
-82.2632
11
136.684
21
-82.2233
0
LINE
8
Black
10
136.684
20
-82.2233
11
136.729
21
-82.1972
0
LINE
8
Black
10
136.729
20
-82.1972
11
136.78
21
-82.1882
0
LINE
8
Black
10
136.78
20
-82.1882
11
137.637
21
-82.1882
0
LINE
8
Black
10
137.637
20
-82.1882
11
137.689
21
-82.1972
0
LINE
8
Black
10
138.617
20
-82.6972
11
138.662
21
-82.7233
0
LINE
8
Black
10
138.662
20
-82.7233
11
138.696
21
-82.7632
0
LINE
8
Black
10
138.696
20
-82.7632
11
138.714
21
-82.8121
0
LINE
8
Black
10
138.714
20
-82.8121
11
138.714
21
-82.8642
0
LINE
8
Black
10
138.714
20
-82.8642
11
138.696
21
-82.9132
0
LINE
8
Black
10
138.696
20
-82.9132
11
138.662
21
-82.9531
0
LINE
8
Black
10
138.662
20
-82.9531
11
138.617
21
-82.9791
0
LINE
8
Black
10
138.617
20
-82.9791
11
138.566
21
-82.9882
0
LINE
8
Black
10
138.566
20
-82.9882
11
138.459
21
-82.9882
0
LINE
8
Black
10
138.459
20
-82.9882
11
138.369
21
-83.0329
0
LINE
8
Black
10
138.369
20
-83.0329
11
138.332
21
-83.0699
0
LINE
8
Black
10
138.332
20
-83.0699
11
138.287
21
-83.1593
0
LINE
8
Black
10
138.287
20
-83.1593
11
138.287
21
-83.8382
0
LINE
8
Black
10
138.287
20
-83.8382
11
138.278
21
-83.8895
0
LINE
8
Black
10
138.278
20
-83.8895
11
138.252
21
-83.9346
0
LINE
8
Black
10
138.252
20
-83.9346
11
138.212
21
-83.9681
0
LINE
8
Black
10
138.212
20
-83.9681
11
138.164
21
-83.9859
0
LINE
8
Black
10
138.164
20
-83.9859
11
138.111
21
-83.9859
0
LINE
8
Black
10
138.111
20
-83.9859
11
138.062
21
-83.9681
0
LINE
8
Black
10
138.062
20
-83.9681
11
138.023
21
-83.9346
0
LINE
8
Black
10
138.023
20
-83.9346
11
137.997
21
-83.8895
0
LINE
8
Black
10
137.997
20
-83.8895
11
137.987
21
-83.8382
0
LINE
8
Black
10
137.987
20
-83.8382
11
137.987
21
-82.8382
0
LINE
8
Black
10
137.987
20
-82.8382
11
137.997
21
-82.7869
0
LINE
8
Black
10
137.997
20
-82.7869
11
138.023
21
-82.7418
0
LINE
8
Black
10
138.023
20
-82.7418
11
138.062
21
-82.7083
0
LINE
8
Black
10
138.062
20
-82.7083
11
138.111
21
-82.6904
0
LINE
8
Black
10
138.111
20
-82.6904
11
138.164
21
-82.6904
0
LINE
8
Black
10
138.164
20
-82.6904
11
138.212
21
-82.7083
0
LINE
8
Black
10
138.212
20
-82.7083
11
138.252
21
-82.7418
0
LINE
8
Black
10
138.252
20
-82.7418
11
138.259
21
-82.7527
0
LINE
8
Black
10
138.259
20
-82.7527
11
138.356
21
-82.704
0
LINE
8
Black
10
138.356
20
-82.704
11
138.364
21
-82.7015
0
LINE
8
Black
10
138.364
20
-82.7015
11
138.372
21
-82.6972
0
LINE
8
Black
10
138.372
20
-82.6972
11
138.389
21
-82.6942
0
LINE
8
Black
10
138.389
20
-82.6942
11
138.406
21
-82.6892
0
LINE
8
Black
10
138.406
20
-82.6892
11
138.415
21
-82.6897
0
LINE
8
Black
10
138.415
20
-82.6897
11
138.423
21
-82.6882
0
LINE
8
Black
10
138.423
20
-82.6882
11
138.566
21
-82.6882
0
LINE
8
Black
10
138.566
20
-82.6882
11
138.617
21
-82.6972
  0
ENDSEC
  0
EOF
