  0
SECTION
  2
HEADER
  9
$ANGBASE
  50
0.0
  9
$ANGDIR
  70
  1
  9
$MEASUREMENT
  70
0
  0
ENDSEC
  0
SECTION
  2
TABLES
  0
TABLE
  2
LTYPE
  70
1
  0
LTYPE
  2
CONTINUOUS
  70
0
  3
Solid line
  72
65
  73
0
  40
0.0
  0
ENDTAB
  0
TABLE
  2
STYLE
  70
4
  0
STYLE
  2
KICAD
  70
0
  40
0
  41
1
  42
1
  50
0
  71
0
  3
isocp.shx
  0
STYLE
  2
KICADB
  70
0
  40
0
  41
1
  42
1
  50
0
  71
0
  3
isocp.shx
  0
STYLE
  2
KICADI
  70
0
  40
0
  41
1
  42
1
  50
15
  71
0
  3
isocp.shx
  0
STYLE
  2
KICADBI
  70
0
  40
0
  41
1
  42
1
  50
15
  71
0
  3
isocp.shx
  0
ENDTAB
  0
TABLE
  2
LAYER
  70
30
  0
LAYER
  2
BLACK
  70
0
  62
7
  6
CONTINUOUS
  0
LAYER
  2
GRAY1
  70
0
  62
251
  6
CONTINUOUS
  0
LAYER
  2
GRAY2
  70
0
  62
8
  6
CONTINUOUS
  0
LAYER
  2
GRAY3
  70
0
  62
9
  6
CONTINUOUS
  0
LAYER
  2
WHITE
  70
0
  62
7
  6
CONTINUOUS
  0
LAYER
  2
LYELLOW
  70
0
  62
51
  6
CONTINUOUS
  0
LAYER
  2
BLUE1
  70
0
  62
178
  6
CONTINUOUS
  0
LAYER
  2
GREEN1
  70
0
  62
98
  6
CONTINUOUS
  0
LAYER
  2
CYAN1
  70
0
  62
138
  6
CONTINUOUS
  0
LAYER
  2
RED1
  70
0
  62
18
  6
CONTINUOUS
  0
LAYER
  2
MAGENTA1
  70
0
  62
228
  6
CONTINUOUS
  0
LAYER
  2
BROWN1
  70
0
  62
58
  6
CONTINUOUS
  0
LAYER
  2
BLUE2
  70
0
  62
5
  6
CONTINUOUS
  0
LAYER
  2
GREEN2
  70
0
  62
3
  6
CONTINUOUS
  0
LAYER
  2
CYAN2
  70
0
  62
4
  6
CONTINUOUS
  0
LAYER
  2
RED2
  70
0
  62
1
  6
CONTINUOUS
  0
LAYER
  2
MAGENTA2
  70
0
  62
6
  6
CONTINUOUS
  0
LAYER
  2
BROWN2
  70
0
  62
54
  6
CONTINUOUS
  0
LAYER
  2
BLUE3
  70
0
  62
171
  6
CONTINUOUS
  0
LAYER
  2
GREEN3
  70
0
  62
91
  6
CONTINUOUS
  0
LAYER
  2
CYAN3
  70
0
  62
131
  6
CONTINUOUS
  0
LAYER
  2
RED3
  70
0
  62
11
  6
CONTINUOUS
  0
LAYER
  2
MAGENTA3
  70
0
  62
221
  6
CONTINUOUS
  0
LAYER
  2
YELLOW3
  70
0
  62
2
  6
CONTINUOUS
  0
LAYER
  2
BLUE4
  70
0
  62
5
  6
CONTINUOUS
  0
LAYER
  2
GREEN4
  70
0
  62
3
  6
CONTINUOUS
  0
LAYER
  2
CYAN4
  70
0
  62
4
  6
CONTINUOUS
  0
LAYER
  2
RED4
  70
0
  62
1
  6
CONTINUOUS
  0
LAYER
  2
MAGENTA4
  70
0
  62
6
  6
CONTINUOUS
  0
LAYER
  2
YELLOW4
  70
0
  62
2
  6
CONTINUOUS
  0
ENDTAB
  0
ENDSEC
  0
SECTION
  2
ENTITIES
0
LINE
8
Black
10
215.79
20
-38.1008
11
215.795
21
-38.1004
0
LINE
8
Black
10
215.795
20
-38.1004
11
215.811
21
-38.1046
0
LINE
8
Black
10
215.811
20
-38.1046
11
215.829
21
-38.1077
0
LINE
8
Black
10
215.829
20
-38.1077
11
215.833
21
-38.1101
0
LINE
8
Black
10
215.833
20
-38.1101
11
215.837
21
-38.1112
0
LINE
8
Black
10
215.837
20
-38.1112
11
215.852
21
-38.121
0
LINE
8
Black
10
215.852
20
-38.121
11
215.867
21
-38.1297
0
LINE
8
Black
10
215.867
20
-38.1297
11
215.87
21
-38.1334
0
LINE
8
Black
10
215.87
20
-38.1334
11
215.874
21
-38.1361
0
LINE
8
Black
10
215.874
20
-38.1361
11
215.884
21
-38.1502
0
LINE
8
Black
10
215.884
20
-38.1502
11
215.895
21
-38.1635
0
LINE
8
Black
10
215.895
20
-38.1635
11
215.897
21
-38.168
0
LINE
8
Black
10
215.897
20
-38.168
11
215.899
21
-38.1719
0
LINE
8
Black
10
215.899
20
-38.1719
11
215.904
21
-38.1886
0
LINE
8
Black
10
215.904
20
-38.1886
11
215.91
21
-38.2049
0
LINE
8
Black
10
215.91
20
-38.2049
11
215.91
21
-38.2097
0
LINE
8
Black
10
215.91
20
-38.2097
11
215.911
21
-38.2144
0
LINE
8
Black
10
215.911
20
-38.2144
11
222.246
21
-101.56
0
LINE
8
Black
10
222.246
20
-101.56
11
222.245
21
-101.577
0
LINE
8
Black
10
222.245
20
-101.577
11
222.245
21
-101.594
0
LINE
8
Black
10
222.245
20
-101.594
11
222.243
21
-101.599
0
LINE
8
Black
10
222.243
20
-101.599
11
222.243
21
-101.604
0
LINE
8
Black
10
222.243
20
-101.604
11
222.236
21
-101.619
0
LINE
8
Black
10
222.236
20
-101.619
11
222.23
21
-101.635
0
LINE
8
Black
10
222.23
20
-101.635
11
196.887
21
-145.986
0
LINE
8
Black
10
196.887
20
-145.986
11
196.886
21
-145.986
0
LINE
8
Black
10
196.886
20
-145.986
11
196.886
21
-145.987
0
LINE
8
Black
10
196.886
20
-145.987
11
196.872
21
-146.003
0
LINE
8
Black
10
196.872
20
-146.003
11
196.858
21
-146.02
0
LINE
8
Black
10
196.858
20
-146.02
11
196.858
21
-146.02
0
LINE
8
Black
10
196.858
20
-146.02
11
196.858
21
-146.02
0
LINE
8
Black
10
196.858
20
-146.02
11
196.839
21
-146.031
0
LINE
8
Black
10
196.839
20
-146.031
11
196.82
21
-146.042
0
LINE
8
Black
10
196.82
20
-146.042
11
196.82
21
-146.042
0
LINE
8
Black
10
196.82
20
-146.042
11
196.82
21
-146.042
0
LINE
8
Black
10
196.82
20
-146.042
11
196.798
21
-146.046
0
LINE
8
Black
10
196.798
20
-146.046
11
196.777
21
-146.05
0
LINE
8
Black
10
196.777
20
-146.05
11
196.777
21
-146.05
0
LINE
8
Black
10
196.777
20
-146.05
11
196.776
21
-146.05
0
LINE
8
Black
10
196.776
20
-146.05
11
194.512
21
-146.05
0
LINE
8
Black
10
194.512
20
-146.05
11
194.505
21
-146.049
0
LINE
8
Black
10
194.505
20
-146.049
11
194.499
21
-146.049
0
LINE
8
Black
10
194.499
20
-146.049
11
194.484
21
-146.045
0
LINE
8
Black
10
194.484
20
-146.045
11
194.469
21
-146.042
0
LINE
8
Black
10
194.469
20
-146.042
11
194.463
21
-146.039
0
LINE
8
Black
10
194.463
20
-146.039
11
194.456
21
-146.037
0
LINE
8
Black
10
194.456
20
-146.037
11
194.444
21
-146.028
0
LINE
8
Black
10
194.444
20
-146.028
11
194.431
21
-146.02
0
LINE
8
Black
10
194.431
20
-146.02
11
194.426
21
-146.015
0
LINE
8
Black
10
194.426
20
-146.015
11
194.421
21
-146.011
0
LINE
8
Black
10
194.421
20
-146.011
11
194.412
21
-145.998
0
LINE
8
Black
10
194.412
20
-145.998
11
194.402
21
-145.987
0
LINE
8
Black
10
194.402
20
-145.987
11
194.4
21
-145.98
0
LINE
8
Black
10
194.4
20
-145.98
11
194.396
21
-145.974
0
LINE
8
Black
10
194.396
20
-145.974
11
194.392
21
-145.959
0
LINE
8
Black
10
194.392
20
-145.959
11
194.387
21
-145.945
0
LINE
8
Black
10
194.387
20
-145.945
11
194.387
21
-145.938
0
LINE
8
Black
10
194.387
20
-145.938
11
194.386
21
-145.931
0
LINE
8
Black
10
194.386
20
-145.931
11
194.387
21
-145.916
0
LINE
8
Black
10
194.387
20
-145.916
11
194.387
21
-145.901
0
LINE
8
Black
10
194.387
20
-145.901
11
194.39
21
-145.894
0
LINE
8
Black
10
194.39
20
-145.894
11
194.39
21
-145.887
0
LINE
8
Black
10
194.39
20
-145.887
11
194.397
21
-145.874
0
LINE
8
Black
10
194.397
20
-145.874
11
194.402
21
-145.859
0
LINE
8
Black
10
194.402
20
-145.859
11
194.407
21
-145.854
0
LINE
8
Black
10
194.407
20
-145.854
11
194.41
21
-145.848
0
LINE
8
Black
10
194.41
20
-145.848
11
194.421
21
-145.837
0
LINE
8
Black
10
194.421
20
-145.837
11
194.431
21
-145.826
0
LINE
8
Black
10
194.431
20
-145.826
11
194.437
21
-145.822
0
LINE
8
Black
10
194.437
20
-145.822
11
194.442
21
-145.817
0
LINE
8
Black
10
194.442
20
-145.817
11
195.258
21
-145.272
0
LINE
8
Black
10
195.258
20
-145.272
11
195.265
21
-145.265
0
LINE
8
Black
10
195.265
20
-145.265
11
195.282
21
-145.253
0
LINE
8
Black
10
195.282
20
-145.253
11
195.294
21
-145.245
0
LINE
8
Black
10
195.294
20
-145.245
11
195.357
21
-145.173
0
LINE
8
Black
10
195.357
20
-145.173
11
195.36
21
-145.171
0
LINE
8
Black
10
195.36
20
-145.171
11
195.362
21
-145.168
0
LINE
8
Black
10
195.362
20
-145.168
11
195.43
21
-145.1
0
LINE
8
Black
10
195.43
20
-145.1
11
195.438
21
-145.088
0
LINE
8
Black
10
195.438
20
-145.088
11
195.449
21
-145.07
0
LINE
8
Black
10
195.449
20
-145.07
11
195.455
21
-145.063
0
LINE
8
Black
10
195.455
20
-145.063
11
219.572
21
-103.81
0
LINE
8
Black
10
219.572
20
-103.81
11
219.598
21
-103.734
0
LINE
8
Black
10
219.598
20
-103.734
11
219.602
21
-103.727
0
LINE
8
Black
10
219.602
20
-103.727
11
219.605
21
-103.719
0
LINE
8
Black
10
219.605
20
-103.719
11
219.641
21
-103.647
0
LINE
8
Black
10
219.641
20
-103.647
11
219.78
21
-103.137
0
LINE
8
Black
10
219.78
20
-103.137
11
219.785
21
-103.067
0
LINE
8
Black
10
219.785
20
-103.067
11
219.798
21
-102.885
0
LINE
8
Black
10
219.798
20
-102.885
11
219.732
21
-102.36
0
LINE
8
Black
10
219.732
20
-102.36
11
219.668
21
-102.167
0
LINE
8
Black
10
219.668
20
-102.167
11
219.668
21
-102.167
0
LINE
8
Black
10
219.668
20
-102.167
11
219.652
21
-102.121
0
LINE
8
Black
10
219.652
20
-102.121
11
219.39
21
-101.662
0
LINE
8
Black
10
219.39
20
-101.662
11
219.246
21
-101.496
0
LINE
8
Black
10
219.246
20
-101.496
11
219.246
21
-101.496
0
LINE
8
Black
10
219.246
20
-101.496
11
219.225
21
-101.471
0
LINE
8
Black
10
219.225
20
-101.471
11
218.807
21
-101.147
0
LINE
8
Black
10
218.807
20
-101.147
11
218.756
21
-101.121
0
LINE
8
Black
10
218.756
20
-101.121
11
218.746
21
-101.114
0
LINE
8
Black
10
218.746
20
-101.114
11
218.735
21
-101.108
0
LINE
8
Black
10
218.735
20
-101.108
11
218.69
21
-101.073
0
LINE
8
Black
10
218.69
20
-101.073
11
216.161
21
-99.8085
0
LINE
8
Black
10
216.161
20
-99.8085
11
215.102
21
-99.2794
0
LINE
8
Black
10
215.102
20
-99.2794
11
215.087
21
-99.2683
0
LINE
8
Black
10
215.087
20
-99.2683
11
215.072
21
-99.258
0
LINE
8
Black
10
215.072
20
-99.258
11
215.07
21
-99.2552
0
LINE
8
Black
10
215.07
20
-99.2552
11
215.067
21
-99.2531
0
LINE
8
Black
10
215.067
20
-99.2531
11
215.057
21
-99.2376
0
LINE
8
Black
10
215.057
20
-99.2376
11
215.046
21
-99.2226
0
LINE
8
Black
10
215.046
20
-99.2226
11
214.591
21
-98.3142
0
LINE
8
Black
10
214.591
20
-98.3142
11
214.589
21
-98.3072
0
LINE
8
Black
10
214.589
20
-98.3072
11
214.586
21
-98.3008
0
LINE
8
Black
10
214.586
20
-98.3008
11
214.583
21
-98.2862
0
LINE
8
Black
10
214.583
20
-98.2862
11
214.579
21
-98.2719
0
LINE
8
Black
10
214.579
20
-98.2719
11
214.579
21
-98.2646
0
LINE
8
Black
10
214.579
20
-98.2646
11
214.578
21
-98.2574
0
LINE
8
Black
10
214.578
20
-98.2574
11
214.578
21
-43.8275
0
LINE
8
Black
10
214.578
20
-43.8275
11
214.567
21
-43.7712
0
LINE
8
Black
10
214.567
20
-43.7712
11
214.567
21
-43.7587
0
LINE
8
Black
10
214.567
20
-43.7587
11
214.564
21
-43.7464
0
LINE
8
Black
10
214.564
20
-43.7464
11
214.564
21
-43.689
0
LINE
8
Black
10
214.564
20
-43.689
11
214.328
21
-42.4985
0
LINE
8
Black
10
214.328
20
-42.4985
11
214.231
21
-42.2657
0
LINE
8
Black
10
214.231
20
-42.2657
11
213.557
21
-41.2564
0
LINE
8
Black
10
213.557
20
-41.2564
11
213.379
21
-41.0782
0
LINE
8
Black
10
213.379
20
-41.0782
11
212.369
21
-40.4039
0
LINE
8
Black
10
212.369
20
-40.4039
11
212.136
21
-40.3074
0
LINE
8
Black
10
212.136
20
-40.3074
11
210.946
21
-40.0706
0
LINE
8
Black
10
210.946
20
-40.0706
11
210.881
21
-40.0706
0
LINE
8
Black
10
210.881
20
-40.0706
11
210.869
21
-40.0685
0
LINE
8
Black
10
210.869
20
-40.0685
11
210.856
21
-40.0682
0
LINE
8
Black
10
210.856
20
-40.0682
11
210.8
21
-40.057
0
LINE
8
Black
10
210.8
20
-40.057
11
152.486
21
-40.057
0
LINE
8
Black
10
152.486
20
-40.057
11
152.43
21
-40.0682
0
LINE
8
Black
10
152.43
20
-40.0682
11
152.429
21
-40.0682
0
LINE
8
Black
10
152.429
20
-40.0682
11
152.428
21
-40.0686
0
LINE
8
Black
10
152.428
20
-40.0686
11
151.28
21
-40.2785
0
LINE
8
Black
10
151.28
20
-40.2785
11
151.111
21
-40.3483
0
LINE
8
Black
10
151.111
20
-40.3483
11
151.111
21
-40.3483
0
LINE
8
Black
10
151.111
20
-40.3483
11
151.048
21
-40.3746
0
LINE
8
Black
10
151.048
20
-40.3746
11
150.164
21
-40.9655
0
LINE
8
Black
10
150.164
20
-40.9655
11
149.985
21
-41.1437
0
LINE
8
Black
10
149.985
20
-41.1437
11
149.395
21
-42.028
0
LINE
8
Black
10
149.395
20
-42.028
11
149.298
21
-42.2608
0
LINE
8
Black
10
149.298
20
-42.2608
11
149.088
21
-43.3163
0
LINE
8
Black
10
149.088
20
-43.3163
11
149.088
21
-43.3163
0
LINE
8
Black
10
149.088
20
-43.3163
11
148.887
21
-44.3258
0
LINE
8
Black
10
148.887
20
-44.3258
11
148.886
21
-44.3284
0
LINE
8
Black
10
148.886
20
-44.3284
11
148.886
21
-44.3312
0
LINE
8
Black
10
148.886
20
-44.3312
11
148.878
21
-44.3489
0
LINE
8
Black
10
148.878
20
-44.3489
11
148.871
21
-44.3669
0
LINE
8
Black
10
148.871
20
-44.3669
11
148.87
21
-44.369
0
LINE
8
Black
10
148.87
20
-44.369
11
148.868
21
-44.3716
0
LINE
8
Black
10
148.868
20
-44.3716
11
148.375
21
-45.11
0
LINE
8
Black
10
148.375
20
-45.11
11
148.373
21
-45.112
0
LINE
8
Black
10
148.373
20
-45.112
11
148.372
21
-45.1145
0
LINE
8
Black
10
148.372
20
-45.1145
11
148.358
21
-45.1279
0
LINE
8
Black
10
148.358
20
-45.1279
11
148.345
21
-45.1419
0
LINE
8
Black
10
148.345
20
-45.1419
11
148.342
21
-45.1431
0
LINE
8
Black
10
148.342
20
-45.1431
11
148.34
21
-45.145
0
LINE
8
Black
10
148.34
20
-45.145
11
147.602
21
-45.6384
0
LINE
8
Black
10
147.602
20
-45.6384
11
147.599
21
-45.6396
0
LINE
8
Black
10
147.599
20
-45.6396
11
147.597
21
-45.6414
0
LINE
8
Black
10
147.597
20
-45.6414
11
147.579
21
-45.6484
0
LINE
8
Black
10
147.579
20
-45.6484
11
147.561
21
-45.6562
0
LINE
8
Black
10
147.561
20
-45.6562
11
147.558
21
-45.6564
0
LINE
8
Black
10
147.558
20
-45.6564
11
147.556
21
-45.6574
0
LINE
8
Black
10
147.556
20
-45.6574
11
146.615
21
-45.8446
0
LINE
8
Black
10
146.615
20
-45.8446
11
146.602
21
-45.8448
0
LINE
8
Black
10
146.602
20
-45.8448
11
146.59
21
-45.847
0
LINE
8
Black
10
146.59
20
-45.847
11
136.73
21
-45.847
0
LINE
8
Black
10
136.73
20
-45.847
11
136.718
21
-45.8448
0
LINE
8
Black
10
136.718
20
-45.8448
11
136.705
21
-45.8446
0
LINE
8
Black
10
136.705
20
-45.8446
11
135.764
21
-45.6574
0
LINE
8
Black
10
135.764
20
-45.6574
11
135.762
21
-45.6564
0
LINE
8
Black
10
135.762
20
-45.6564
11
135.759
21
-45.6562
0
LINE
8
Black
10
135.759
20
-45.6562
11
135.741
21
-45.6484
0
LINE
8
Black
10
135.741
20
-45.6484
11
135.723
21
-45.6414
0
LINE
8
Black
10
135.723
20
-45.6414
11
135.721
21
-45.6396
0
LINE
8
Black
10
135.721
20
-45.6396
11
135.718
21
-45.6384
0
LINE
8
Black
10
135.718
20
-45.6384
11
134.98
21
-45.145
0
LINE
8
Black
10
134.98
20
-45.145
11
134.978
21
-45.1431
0
LINE
8
Black
10
134.978
20
-45.1431
11
134.975
21
-45.1419
0
LINE
8
Black
10
134.975
20
-45.1419
11
134.962
21
-45.1279
0
LINE
8
Black
10
134.962
20
-45.1279
11
134.948
21
-45.1145
0
LINE
8
Black
10
134.948
20
-45.1145
11
134.947
21
-45.112
0
LINE
8
Black
10
134.947
20
-45.112
11
134.945
21
-45.11
0
LINE
8
Black
10
134.945
20
-45.11
11
134.452
21
-44.3716
0
LINE
8
Black
10
134.452
20
-44.3716
11
134.45
21
-44.369
0
LINE
8
Black
10
134.45
20
-44.369
11
134.449
21
-44.3669
0
LINE
8
Black
10
134.449
20
-44.3669
11
134.442
21
-44.3489
0
LINE
8
Black
10
134.442
20
-44.3489
11
134.434
21
-44.3312
0
LINE
8
Black
10
134.434
20
-44.3312
11
134.434
21
-44.3284
0
LINE
8
Black
10
134.434
20
-44.3284
11
134.433
21
-44.3258
0
LINE
8
Black
10
134.433
20
-44.3258
11
134.232
21
-43.3163
0
LINE
8
Black
10
134.232
20
-43.3163
11
134.232
21
-43.3163
0
LINE
8
Black
10
134.232
20
-43.3163
11
134.022
21
-42.2608
0
LINE
8
Black
10
134.022
20
-42.2608
11
133.925
21
-42.028
0
LINE
8
Black
10
133.925
20
-42.028
11
133.335
21
-41.1437
0
LINE
8
Black
10
133.335
20
-41.1437
11
133.156
21
-40.9655
0
LINE
8
Black
10
133.156
20
-40.9655
11
132.272
21
-40.3746
0
LINE
8
Black
10
132.272
20
-40.3746
11
132.209
21
-40.3483
0
LINE
8
Black
10
132.209
20
-40.3483
11
132.209
21
-40.3483
0
LINE
8
Black
10
132.209
20
-40.3483
11
132.039
21
-40.2781
0
LINE
8
Black
10
132.039
20
-40.2781
11
130.996
21
-40.0706
0
LINE
8
Black
10
130.996
20
-40.0706
11
130.973
21
-40.0706
0
LINE
8
Black
10
130.973
20
-40.0706
11
130.96
21
-40.0685
0
LINE
8
Black
10
130.96
20
-40.0685
11
130.948
21
-40.0682
0
LINE
8
Black
10
130.948
20
-40.0682
11
130.866
21
-40.0519
0
LINE
8
Black
10
130.866
20
-40.0519
11
116.227
21
-40.057
0
LINE
8
Black
10
116.227
20
-40.057
11
116.179
21
-40.0666
0
LINE
8
Black
10
116.179
20
-40.0666
11
116.165
21
-40.0669
0
LINE
8
Black
10
116.165
20
-40.0669
11
116.151
21
-40.069
0
LINE
8
Black
10
116.151
20
-40.069
11
116.094
21
-40.0675
0
LINE
8
Black
10
116.094
20
-40.0675
11
71.6688
21
-47.6833
0
LINE
8
Black
10
71.6688
20
-47.6833
11
71.5833
21
-47.7161
0
LINE
8
Black
10
71.5833
20
-47.7161
11
71.5771
21
-47.7173
0
LINE
8
Black
10
71.5771
20
-47.7173
11
71.5714
21
-47.72
0
LINE
8
Black
10
71.5714
20
-47.72
11
71.4831
21
-47.7441
0
LINE
8
Black
10
71.4831
20
-47.7441
11
70.2355
21
-48.368
0
LINE
8
Black
10
70.2355
20
-48.368
11
70.1554
21
-48.4301
0
LINE
8
Black
10
70.1554
20
-48.4301
11
70.1514
21
-48.4322
0
LINE
8
Black
10
70.1514
20
-48.4322
11
70.1481
21
-48.4353
0
LINE
8
Black
10
70.1481
20
-48.4353
11
70.0639
21
-48.4916
0
LINE
8
Black
10
70.0639
20
-48.4916
11
69.4466
21
-49.1089
0
LINE
8
Black
10
69.4466
20
-49.1089
11
69.3903
21
-49.1931
0
LINE
8
Black
10
69.3903
20
-49.1931
11
69.3872
21
-49.1964
0
LINE
8
Black
10
69.3872
20
-49.1964
11
69.3851
21
-49.2004
0
LINE
8
Black
10
69.3851
20
-49.2004
11
69.323
21
-49.2805
0
LINE
8
Black
10
69.323
20
-49.2805
11
68.6991
21
-50.5281
0
LINE
8
Black
10
68.6991
20
-50.5281
11
68.6957
21
-50.5406
0
LINE
8
Black
10
68.6957
20
-50.5406
11
68.687
21
-50.559
0
LINE
8
Black
10
68.687
20
-50.559
11
68.6788
21
-50.5776
0
LINE
8
Black
10
68.6788
20
-50.5776
11
68.6787
21
-50.5778
0
LINE
8
Black
10
68.6787
20
-50.5778
11
68.6614
21
-50.6647
0
LINE
8
Black
10
68.6614
20
-50.6647
11
68.6598
21
-50.6689
0
LINE
8
Black
10
68.6598
20
-50.6689
11
68.6593
21
-50.6735
0
LINE
8
Black
10
68.6593
20
-50.6735
11
68.6359
21
-50.7588
0
LINE
8
Black
10
68.6359
20
-50.7588
11
68.636
21
-50.7591
0
LINE
8
Black
10
68.636
20
-50.7591
11
68.635
21
-50.7794
0
LINE
8
Black
10
68.635
20
-50.7794
11
68.6345
21
-50.7998
0
LINE
8
Black
10
68.6345
20
-50.7998
11
68.632
21
-50.8125
0
LINE
8
Black
10
68.632
20
-50.8125
11
68.632
21
-132.702
0
LINE
8
Black
10
68.632
20
-132.702
11
68.6432
21
-132.759
0
LINE
8
Black
10
68.6432
20
-132.759
11
68.6435
21
-132.771
0
LINE
8
Black
10
68.6435
20
-132.771
11
68.6456
21
-132.784
0
LINE
8
Black
10
68.6456
20
-132.784
11
68.6456
21
-132.841
0
LINE
8
Black
10
68.6456
20
-132.841
11
68.8824
21
-134.031
0
LINE
8
Black
10
68.8824
20
-134.031
11
68.9585
21
-134.215
0
LINE
8
Black
10
68.9585
20
-134.215
11
68.9789
21
-134.264
0
LINE
8
Black
10
68.9789
20
-134.264
11
69.6532
21
-135.274
0
LINE
8
Black
10
69.6532
20
-135.274
11
69.8314
21
-135.452
0
LINE
8
Black
10
69.8314
20
-135.452
11
70.8407
21
-136.126
0
LINE
8
Black
10
70.8407
20
-136.126
11
70.9041
21
-136.152
0
LINE
8
Black
10
70.9041
20
-136.152
11
70.9041
21
-136.152
0
LINE
8
Black
10
70.9041
20
-136.152
11
71.0735
21
-136.223
0
LINE
8
Black
10
71.0735
20
-136.223
11
72.264
21
-136.459
0
LINE
8
Black
10
72.264
20
-136.459
11
72.3214
21
-136.459
0
LINE
8
Black
10
72.3214
20
-136.459
11
72.3337
21
-136.462
0
LINE
8
Black
10
72.3337
20
-136.462
11
72.3462
21
-136.462
0
LINE
8
Black
10
72.3462
20
-136.462
11
72.4025
21
-136.473
0
LINE
8
Black
10
72.4025
20
-136.473
11
176.362
21
-136.473
0
LINE
8
Black
10
176.362
20
-136.473
11
176.37
21
-136.474
0
LINE
8
Black
10
176.37
20
-136.474
11
176.377
21
-136.474
0
LINE
8
Black
10
176.377
20
-136.474
11
176.391
21
-136.478
0
LINE
8
Black
10
176.391
20
-136.478
11
176.406
21
-136.481
0
LINE
8
Black
10
176.406
20
-136.481
11
176.412
21
-136.484
0
LINE
8
Black
10
176.412
20
-136.484
11
176.419
21
-136.486
0
LINE
8
Black
10
176.419
20
-136.486
11
177.51
21
-137.032
0
LINE
8
Black
10
177.51
20
-137.032
11
177.515
21
-137.036
0
LINE
8
Black
10
177.515
20
-137.036
11
177.521
21
-137.038
0
LINE
8
Black
10
177.521
20
-137.038
11
190.818
21
-145.269
0
LINE
8
Black
10
190.818
20
-145.269
11
190.819
21
-145.271
0
LINE
8
Black
10
190.819
20
-145.271
11
190.821
21
-145.272
0
LINE
8
Black
10
190.821
20
-145.272
11
191.638
21
-145.817
0
LINE
8
Black
10
191.638
20
-145.817
11
191.643
21
-145.822
0
LINE
8
Black
10
191.643
20
-145.822
11
191.649
21
-145.826
0
LINE
8
Black
10
191.649
20
-145.826
11
191.659
21
-145.837
0
LINE
8
Black
10
191.659
20
-145.837
11
191.67
21
-145.848
0
LINE
8
Black
10
191.67
20
-145.848
11
191.673
21
-145.854
0
LINE
8
Black
10
191.673
20
-145.854
11
191.678
21
-145.859
0
LINE
8
Black
10
191.678
20
-145.859
11
191.683
21
-145.874
0
LINE
8
Black
10
191.683
20
-145.874
11
191.69
21
-145.887
0
LINE
8
Black
10
191.69
20
-145.887
11
191.69
21
-145.894
0
LINE
8
Black
10
191.69
20
-145.894
11
191.693
21
-145.901
0
LINE
8
Black
10
191.693
20
-145.901
11
191.693
21
-145.916
0
LINE
8
Black
10
191.693
20
-145.916
11
191.694
21
-145.931
0
LINE
8
Black
10
191.694
20
-145.931
11
191.693
21
-145.938
0
LINE
8
Black
10
191.693
20
-145.938
11
191.693
21
-145.945
0
LINE
8
Black
10
191.693
20
-145.945
11
191.688
21
-145.959
0
LINE
8
Black
10
191.688
20
-145.959
11
191.684
21
-145.974
0
LINE
8
Black
10
191.684
20
-145.974
11
191.68
21
-145.98
0
LINE
8
Black
10
191.68
20
-145.98
11
191.678
21
-145.987
0
LINE
8
Black
10
191.678
20
-145.987
11
191.668
21
-145.998
0
LINE
8
Black
10
191.668
20
-145.998
11
191.659
21
-146.011
0
LINE
8
Black
10
191.659
20
-146.011
11
191.654
21
-146.015
0
LINE
8
Black
10
191.654
20
-146.015
11
191.649
21
-146.02
0
LINE
8
Black
10
191.649
20
-146.02
11
191.636
21
-146.028
0
LINE
8
Black
10
191.636
20
-146.028
11
191.624
21
-146.037
0
LINE
8
Black
10
191.624
20
-146.037
11
191.617
21
-146.039
0
LINE
8
Black
10
191.617
20
-146.039
11
191.611
21
-146.042
0
LINE
8
Black
10
191.611
20
-146.042
11
191.596
21
-146.045
0
LINE
8
Black
10
191.596
20
-146.045
11
191.581
21
-146.049
0
LINE
8
Black
10
191.581
20
-146.049
11
191.575
21
-146.049
0
LINE
8
Black
10
191.575
20
-146.049
11
191.568
21
-146.05
0
LINE
8
Black
10
191.568
20
-146.05
11
63.627
21
-146.05
0
LINE
8
Black
10
63.627
20
-146.05
11
63.6161
21
-146.048
0
LINE
8
Black
10
63.6161
20
-146.048
11
63.6049
21
-146.048
0
LINE
8
Black
10
63.6049
20
-146.048
11
63.5945
21
-146.044
0
LINE
8
Black
10
63.5945
20
-146.044
11
63.5836
21
-146.042
0
LINE
8
Black
10
63.5836
20
-146.042
11
63.5739
21
-146.037
0
LINE
8
Black
10
63.5739
20
-146.037
11
63.5635
21
-146.033
0
LINE
8
Black
10
63.5635
20
-146.033
11
63.555
21
-146.026
0
LINE
8
Black
10
63.555
20
-146.026
11
63.5454
21
-146.02
0
LINE
8
Black
10
63.5454
20
-146.02
11
63.5382
21
-146.012
0
LINE
8
Black
10
63.5382
20
-146.012
11
63.5297
21
-146.005
0
LINE
8
Black
10
63.5297
20
-146.005
11
63.5242
21
-145.995
0
LINE
8
Black
10
63.5242
20
-145.995
11
63.517
21
-145.987
0
LINE
8
Black
10
63.517
20
-145.987
11
63.5132
21
-145.976
0
LINE
8
Black
10
63.5132
20
-145.976
11
63.5077
21
-145.966
0
LINE
8
Black
10
63.5077
20
-145.966
11
63.5057
21
-145.955
0
LINE
8
Black
10
63.5057
20
-145.955
11
63.5019
21
-145.945
0
LINE
8
Black
10
63.5019
20
-145.945
11
63.5019
21
-145.934
0
LINE
8
Black
10
63.5019
20
-145.934
11
63.5
21
-145.923
0
LINE
8
Black
10
63.5
20
-145.923
11
63.5
21
-38.227
0
LINE
8
Black
10
63.5
20
-38.227
11
63.5019
21
-38.2161
0
LINE
8
Black
10
63.5019
20
-38.2161
11
63.5019
21
-38.2049
0
LINE
8
Black
10
63.5019
20
-38.2049
11
63.5057
21
-38.1945
0
LINE
8
Black
10
63.5057
20
-38.1945
11
63.5077
21
-38.1836
0
LINE
8
Black
10
63.5077
20
-38.1836
11
63.5132
21
-38.1739
0
LINE
8
Black
10
63.5132
20
-38.1739
11
63.517
21
-38.1635
0
LINE
8
Black
10
63.517
20
-38.1635
11
63.5242
21
-38.155
0
LINE
8
Black
10
63.5242
20
-38.155
11
63.5297
21
-38.1454
0
LINE
8
Black
10
63.5297
20
-38.1454
11
63.5382
21
-38.1382
0
LINE
8
Black
10
63.5382
20
-38.1382
11
63.5454
21
-38.1297
0
LINE
8
Black
10
63.5454
20
-38.1297
11
63.555
21
-38.1242
0
LINE
8
Black
10
63.555
20
-38.1242
11
63.5635
21
-38.117
0
LINE
8
Black
10
63.5635
20
-38.117
11
63.5739
21
-38.1132
0
LINE
8
Black
10
63.5739
20
-38.1132
11
63.5836
21
-38.1077
0
LINE
8
Black
10
63.5836
20
-38.1077
11
63.5945
21
-38.1057
0
LINE
8
Black
10
63.5945
20
-38.1057
11
63.6049
21
-38.1019
0
LINE
8
Black
10
63.6049
20
-38.1019
11
63.6161
21
-38.1019
0
LINE
8
Black
10
63.6161
20
-38.1019
11
63.627
21
-38.1
0
LINE
8
Black
10
63.627
20
-38.1
11
215.785
21
-38.1
0
LINE
8
Black
10
215.785
20
-38.1
11
215.79
21
-38.1008
0
LINE
8
Black
10
130.787
20
-41.2201
11
130.799
21
-41.2204
0
LINE
8
Black
10
130.799
20
-41.2204
11
131.685
21
-41.3966
0
LINE
8
Black
10
131.685
20
-41.3966
11
131.688
21
-41.3976
0
LINE
8
Black
10
131.688
20
-41.3976
11
131.691
21
-41.3978
0
LINE
8
Black
10
131.691
20
-41.3978
11
131.709
21
-41.4056
0
LINE
8
Black
10
131.709
20
-41.4056
11
131.727
21
-41.4126
0
LINE
8
Black
10
131.727
20
-41.4126
11
131.729
21
-41.4145
0
LINE
8
Black
10
131.729
20
-41.4145
11
131.731
21
-41.4156
0
LINE
8
Black
10
131.731
20
-41.4156
11
132.402
21
-41.8635
0
LINE
8
Black
10
132.402
20
-41.8635
11
132.404
21
-41.8654
0
LINE
8
Black
10
132.404
20
-41.8654
11
132.406
21
-41.8666
0
LINE
8
Black
10
132.406
20
-41.8666
11
132.419
21
-41.8806
0
LINE
8
Black
10
132.419
20
-41.8806
11
132.433
21
-41.894
0
LINE
8
Black
10
132.433
20
-41.894
11
132.435
21
-41.8965
0
LINE
8
Black
10
132.435
20
-41.8965
11
132.437
21
-41.8985
0
LINE
8
Black
10
132.437
20
-41.8985
11
132.884
21
-42.5688
0
LINE
8
Black
10
132.884
20
-42.5688
11
132.886
21
-42.5713
0
LINE
8
Black
10
132.886
20
-42.5713
11
132.887
21
-42.5735
0
LINE
8
Black
10
132.887
20
-42.5735
11
132.894
21
-42.5915
0
LINE
8
Black
10
132.894
20
-42.5915
11
132.902
21
-42.6092
0
LINE
8
Black
10
132.902
20
-42.6092
11
132.902
21
-42.612
0
LINE
8
Black
10
132.902
20
-42.612
11
132.903
21
-42.6146
0
LINE
8
Black
10
132.903
20
-42.6146
11
133.088
21
-43.5437
0
LINE
8
Black
10
133.088
20
-43.5437
11
133.088
21
-43.5437
0
LINE
8
Black
10
133.088
20
-43.5437
11
133.314
21
-44.6795
0
LINE
8
Black
10
133.314
20
-44.6795
11
133.369
21
-44.8117
0
LINE
8
Black
10
133.369
20
-44.8117
11
133.369
21
-44.8117
0
LINE
8
Black
10
133.369
20
-44.8117
11
133.411
21
-44.9123
0
LINE
8
Black
10
133.411
20
-44.9123
11
134.047
21
-45.8648
0
LINE
8
Black
10
134.047
20
-45.8648
11
134.225
21
-46.043
0
LINE
8
Black
10
134.225
20
-46.043
11
135.178
21
-46.6794
0
LINE
8
Black
10
135.178
20
-46.6794
11
135.244
21
-46.7071
0
LINE
8
Black
10
135.244
20
-46.7071
11
135.41
21
-46.7759
0
LINE
8
Black
10
135.41
20
-46.7759
11
136.534
21
-46.9994
0
LINE
8
Black
10
136.534
20
-46.9994
11
136.591
21
-46.9994
0
LINE
8
Black
10
136.591
20
-46.9994
11
136.604
21
-47.0015
0
LINE
8
Black
10
136.604
20
-47.0015
11
136.616
21
-47.0018
0
LINE
8
Black
10
136.616
20
-47.0018
11
136.673
21
-47.013
0
LINE
8
Black
10
136.673
20
-47.013
11
146.647
21
-47.013
0
LINE
8
Black
10
146.647
20
-47.013
11
146.704
21
-47.0018
0
LINE
8
Black
10
146.704
20
-47.0018
11
146.716
21
-47.0015
0
LINE
8
Black
10
146.716
20
-47.0015
11
146.729
21
-46.9994
0
LINE
8
Black
10
146.729
20
-46.9994
11
146.786
21
-46.9994
0
LINE
8
Black
10
146.786
20
-46.9994
11
147.91
21
-46.7759
0
LINE
8
Black
10
147.91
20
-46.7759
11
148.142
21
-46.6794
0
LINE
8
Black
10
148.142
20
-46.6794
11
149.095
21
-46.043
0
LINE
8
Black
10
149.095
20
-46.043
11
149.273
21
-45.8648
0
LINE
8
Black
10
149.273
20
-45.8648
11
149.909
21
-44.9123
0
LINE
8
Black
10
149.909
20
-44.9123
11
149.971
21
-44.7647
0
LINE
8
Black
10
149.971
20
-44.7647
11
149.971
21
-44.7647
0
LINE
8
Black
10
149.971
20
-44.7647
11
150.006
21
-44.6795
0
LINE
8
Black
10
150.006
20
-44.6795
11
150.232
21
-43.5437
0
LINE
8
Black
10
150.232
20
-43.5437
11
150.232
21
-43.5437
0
LINE
8
Black
10
150.232
20
-43.5437
11
150.24
21
-43.5018
0
LINE
8
Black
10
150.24
20
-43.5018
11
150.24
21
-43.5018
0
LINE
8
Black
10
150.24
20
-43.5018
11
150.417
21
-42.6146
0
LINE
8
Black
10
150.417
20
-42.6146
11
150.418
21
-42.612
0
LINE
8
Black
10
150.418
20
-42.612
11
150.418
21
-42.6092
0
LINE
8
Black
10
150.418
20
-42.6092
11
150.426
21
-42.5915
0
LINE
8
Black
10
150.426
20
-42.5915
11
150.433
21
-42.5735
0
LINE
8
Black
10
150.433
20
-42.5735
11
150.434
21
-42.5713
0
LINE
8
Black
10
150.434
20
-42.5713
11
150.436
21
-42.5688
0
LINE
8
Black
10
150.436
20
-42.5688
11
150.883
21
-41.8985
0
LINE
8
Black
10
150.883
20
-41.8985
11
150.885
21
-41.8965
0
LINE
8
Black
10
150.885
20
-41.8965
11
150.887
21
-41.894
0
LINE
8
Black
10
150.887
20
-41.894
11
150.901
21
-41.8806
0
LINE
8
Black
10
150.901
20
-41.8806
11
150.914
21
-41.8666
0
LINE
8
Black
10
150.914
20
-41.8666
11
150.916
21
-41.8654
0
LINE
8
Black
10
150.916
20
-41.8654
11
150.918
21
-41.8635
0
LINE
8
Black
10
150.918
20
-41.8635
11
151.589
21
-41.4156
0
LINE
8
Black
10
151.589
20
-41.4156
11
151.591
21
-41.4145
0
LINE
8
Black
10
151.591
20
-41.4145
11
151.593
21
-41.4126
0
LINE
8
Black
10
151.593
20
-41.4126
11
151.611
21
-41.4056
0
LINE
8
Black
10
151.611
20
-41.4056
11
151.629
21
-41.3978
0
LINE
8
Black
10
151.629
20
-41.3978
11
151.632
21
-41.3976
0
LINE
8
Black
10
151.632
20
-41.3976
11
151.635
21
-41.3966
0
LINE
8
Black
10
151.635
20
-41.3966
11
152.495
21
-41.2254
0
LINE
8
Black
10
152.495
20
-41.2254
11
152.508
21
-41.2252
0
LINE
8
Black
10
152.508
20
-41.2252
11
152.52
21
-41.223
0
LINE
8
Black
10
152.52
20
-41.223
11
210.75
21
-41.223
0
LINE
8
Black
10
210.75
20
-41.223
11
210.762
21
-41.2252
0
LINE
8
Black
10
210.762
20
-41.2252
11
210.775
21
-41.2254
0
LINE
8
Black
10
210.775
20
-41.2254
11
211.783
21
-41.4259
0
LINE
8
Black
10
211.783
20
-41.4259
11
211.785
21
-41.4269
0
LINE
8
Black
10
211.785
20
-41.4269
11
211.788
21
-41.4271
0
LINE
8
Black
10
211.788
20
-41.4271
11
211.806
21
-41.4349
0
LINE
8
Black
10
211.806
20
-41.4349
11
211.824
21
-41.4419
0
LINE
8
Black
10
211.824
20
-41.4419
11
211.826
21
-41.4438
0
LINE
8
Black
10
211.826
20
-41.4438
11
211.829
21
-41.4449
0
LINE
8
Black
10
211.829
20
-41.4449
11
212.624
21
-41.9762
0
LINE
8
Black
10
212.624
20
-41.9762
11
212.626
21
-41.9782
0
LINE
8
Black
10
212.626
20
-41.9782
11
212.628
21
-41.9794
0
LINE
8
Black
10
212.628
20
-41.9794
11
212.642
21
-41.9934
0
LINE
8
Black
10
212.642
20
-41.9934
11
212.656
21
-42.0067
0
LINE
8
Black
10
212.656
20
-42.0067
11
212.657
21
-42.0092
0
LINE
8
Black
10
212.657
20
-42.0092
11
212.659
21
-42.0113
0
LINE
8
Black
10
212.659
20
-42.0113
11
213.19
21
-42.8064
0
LINE
8
Black
10
213.19
20
-42.8064
11
213.191
21
-42.809
0
LINE
8
Black
10
213.191
20
-42.809
11
213.193
21
-42.8111
0
LINE
8
Black
10
213.193
20
-42.8111
11
213.2
21
-42.8291
0
LINE
8
Black
10
213.2
20
-42.8291
11
213.208
21
-42.8468
0
LINE
8
Black
10
213.208
20
-42.8468
11
213.208
21
-42.8496
0
LINE
8
Black
10
213.208
20
-42.8496
11
213.209
21
-42.8522
0
LINE
8
Black
10
213.209
20
-42.8522
11
213.41
21
-43.8602
0
LINE
8
Black
10
213.41
20
-43.8602
11
213.41
21
-43.8726
0
LINE
8
Black
10
213.41
20
-43.8726
11
213.412
21
-43.8849
0
LINE
8
Black
10
213.412
20
-43.8849
11
213.412
21
-98.4125
0
LINE
8
Black
10
213.412
20
-98.4125
11
213.415
21
-98.4252
0
LINE
8
Black
10
213.415
20
-98.4252
11
213.415
21
-98.4456
0
LINE
8
Black
10
213.415
20
-98.4456
11
213.416
21
-98.4659
0
LINE
8
Black
10
213.416
20
-98.4659
11
213.416
21
-98.4662
0
LINE
8
Black
10
213.416
20
-98.4662
11
213.439
21
-98.5515
0
LINE
8
Black
10
213.439
20
-98.5515
11
213.44
21
-98.5561
0
LINE
8
Black
10
213.44
20
-98.5561
11
213.441
21
-98.5603
0
LINE
8
Black
10
213.441
20
-98.5603
11
213.459
21
-98.6472
0
LINE
8
Black
10
213.459
20
-98.6472
11
213.459
21
-98.6474
0
LINE
8
Black
10
213.459
20
-98.6474
11
213.467
21
-98.666
0
LINE
8
Black
10
213.467
20
-98.666
11
213.476
21
-98.6844
0
LINE
8
Black
10
213.476
20
-98.6844
11
213.479
21
-98.6969
0
LINE
8
Black
10
213.479
20
-98.6969
11
214.103
21
-99.9445
0
LINE
8
Black
10
214.103
20
-99.9445
11
214.15
21
-100.005
0
LINE
8
Black
10
214.15
20
-100.005
11
214.154
21
-100.013
0
LINE
8
Black
10
214.154
20
-100.013
11
214.16
21
-100.02
0
LINE
8
Black
10
214.16
20
-100.02
11
214.191
21
-100.075
0
LINE
8
Black
10
214.191
20
-100.075
11
214.212
21
-100.091
0
LINE
8
Black
10
214.212
20
-100.091
11
214.222
21
-100.103
0
LINE
8
Black
10
214.222
20
-100.103
11
214.234
21
-100.113
0
LINE
8
Black
10
214.234
20
-100.113
11
214.25
21
-100.134
0
LINE
8
Black
10
214.25
20
-100.134
11
214.305
21
-100.165
0
LINE
8
Black
10
214.305
20
-100.165
11
214.312
21
-100.171
0
LINE
8
Black
10
214.312
20
-100.171
11
214.32
21
-100.175
0
LINE
8
Black
10
214.32
20
-100.175
11
214.38
21
-100.222
0
LINE
8
Black
10
214.38
20
-100.222
11
218.117
21
-102.09
0
LINE
8
Black
10
218.117
20
-102.09
11
218.127
21
-102.098
0
LINE
8
Black
10
218.127
20
-102.098
11
218.138
21
-102.103
0
LINE
8
Black
10
218.138
20
-102.103
11
218.409
21
-102.314
0
LINE
8
Black
10
218.409
20
-102.314
11
218.411
21
-102.316
0
LINE
8
Black
10
218.411
20
-102.316
11
218.413
21
-102.317
0
LINE
8
Black
10
218.413
20
-102.317
11
218.425
21
-102.332
0
LINE
8
Black
10
218.425
20
-102.332
11
218.438
21
-102.346
0
LINE
8
Black
10
218.438
20
-102.346
11
218.439
21
-102.349
0
LINE
8
Black
10
218.439
20
-102.349
11
218.441
21
-102.351
0
LINE
8
Black
10
218.441
20
-102.351
11
218.576
21
-102.587
0
LINE
8
Black
10
218.576
20
-102.587
11
218.577
21
-102.59
0
LINE
8
Black
10
218.577
20
-102.59
11
218.578
21
-102.592
0
LINE
8
Black
10
218.578
20
-102.592
11
218.584
21
-102.61
0
LINE
8
Black
10
218.584
20
-102.61
11
218.59
21
-102.629
0
LINE
8
Black
10
218.59
20
-102.629
11
218.59
21
-102.631
0
LINE
8
Black
10
218.59
20
-102.631
11
218.591
21
-102.634
0
LINE
8
Black
10
218.591
20
-102.634
11
218.625
21
-102.903
0
LINE
8
Black
10
218.625
20
-102.903
11
218.625
21
-102.906
0
LINE
8
Black
10
218.625
20
-102.906
11
218.626
21
-102.909
0
LINE
8
Black
10
218.626
20
-102.909
11
218.624
21
-102.928
0
LINE
8
Black
10
218.624
20
-102.928
11
218.623
21
-102.948
0
LINE
8
Black
10
218.623
20
-102.948
11
218.622
21
-102.95
0
LINE
8
Black
10
218.622
20
-102.95
11
218.622
21
-102.953
0
LINE
8
Black
10
218.622
20
-102.953
11
218.537
21
-103.261
0
LINE
8
Black
10
218.537
20
-103.261
11
218.53
21
-103.276
0
LINE
8
Black
10
218.53
20
-103.276
11
218.525
21
-103.291
0
LINE
8
Black
10
218.525
20
-103.291
11
194.524
21
-144.345
0
LINE
8
Black
10
194.524
20
-144.345
11
194.52
21
-144.35
0
LINE
8
Black
10
194.52
20
-144.35
11
194.517
21
-144.356
0
LINE
8
Black
10
194.517
20
-144.356
11
194.506
21
-144.366
0
LINE
8
Black
10
194.506
20
-144.366
11
194.496
21
-144.378
0
LINE
8
Black
10
194.496
20
-144.378
11
194.49
21
-144.382
0
LINE
8
Black
10
194.49
20
-144.382
11
194.485
21
-144.386
0
LINE
8
Black
10
194.485
20
-144.386
11
193.865
21
-144.801
0
LINE
8
Black
10
193.865
20
-144.801
11
193.862
21
-144.802
0
LINE
8
Black
10
193.862
20
-144.802
11
193.86
21
-144.804
0
LINE
8
Black
10
193.86
20
-144.804
11
193.842
21
-144.811
0
LINE
8
Black
10
193.842
20
-144.811
11
193.824
21
-144.819
0
LINE
8
Black
10
193.824
20
-144.819
11
193.821
21
-144.819
0
LINE
8
Black
10
193.821
20
-144.819
11
193.819
21
-144.82
0
LINE
8
Black
10
193.819
20
-144.82
11
193.065
21
-144.97
0
LINE
8
Black
10
193.065
20
-144.97
11
193.062
21
-144.97
0
LINE
8
Black
10
193.062
20
-144.97
11
193.059
21
-144.971
0
LINE
8
Black
10
193.059
20
-144.971
11
193.04
21
-144.97
0
LINE
8
Black
10
193.04
20
-144.97
11
193.021
21
-144.971
0
LINE
8
Black
10
193.021
20
-144.971
11
193.018
21
-144.97
0
LINE
8
Black
10
193.018
20
-144.97
11
193.015
21
-144.97
0
LINE
8
Black
10
193.015
20
-144.97
11
192.261
21
-144.82
0
LINE
8
Black
10
192.261
20
-144.82
11
192.259
21
-144.819
0
LINE
8
Black
10
192.259
20
-144.819
11
192.256
21
-144.819
0
LINE
8
Black
10
192.256
20
-144.819
11
192.238
21
-144.811
0
LINE
8
Black
10
192.238
20
-144.811
11
192.22
21
-144.804
0
LINE
8
Black
10
192.22
20
-144.804
11
192.218
21
-144.802
0
LINE
8
Black
10
192.218
20
-144.802
11
192.215
21
-144.801
0
LINE
8
Black
10
192.215
20
-144.801
11
191.469
21
-144.302
0
LINE
8
Black
10
191.469
20
-144.302
11
191.469
21
-144.302
0
LINE
8
Black
10
191.469
20
-144.302
11
191.469
21
-144.302
0
LINE
8
Black
10
191.469
20
-144.302
11
191.468
21
-144.302
0
LINE
8
Black
10
191.468
20
-144.302
11
191.45
21
-144.29
0
LINE
8
Black
10
191.45
20
-144.29
11
191.432
21
-144.278
0
LINE
8
Black
10
191.432
20
-144.278
11
191.432
21
-144.278
0
LINE
8
Black
10
191.432
20
-144.278
11
191.431
21
-144.278
0
LINE
8
Black
10
191.431
20
-144.278
11
191.431
21
-144.278
0
LINE
8
Black
10
191.431
20
-144.278
11
186.822
21
-141.425
0
LINE
8
Black
10
186.822
20
-141.425
11
178.117
21
-136.036
0
LINE
8
Black
10
178.117
20
-136.036
11
178.099
21
-136.029
0
LINE
8
Black
10
178.099
20
-136.029
11
178.082
21
-136.019
0
LINE
8
Black
10
178.082
20
-136.019
11
178.065
21
-136.01
0
LINE
8
Black
10
178.065
20
-136.01
11
178.05
21
-135.998
0
LINE
8
Black
10
178.05
20
-135.998
11
176.802
21
-135.374
0
LINE
8
Black
10
176.802
20
-135.374
11
176.789
21
-135.371
0
LINE
8
Black
10
176.789
20
-135.371
11
176.771
21
-135.362
0
LINE
8
Black
10
176.771
20
-135.362
11
176.752
21
-135.354
0
LINE
8
Black
10
176.752
20
-135.354
11
176.752
21
-135.354
0
LINE
8
Black
10
176.752
20
-135.354
11
176.665
21
-135.336
0
LINE
8
Black
10
176.665
20
-135.336
11
176.661
21
-135.335
0
LINE
8
Black
10
176.661
20
-135.335
11
176.657
21
-135.334
0
LINE
8
Black
10
176.657
20
-135.334
11
176.571
21
-135.311
0
LINE
8
Black
10
176.571
20
-135.311
11
176.571
21
-135.311
0
LINE
8
Black
10
176.571
20
-135.311
11
176.551
21
-135.31
0
LINE
8
Black
10
176.551
20
-135.31
11
176.53
21
-135.31
0
LINE
8
Black
10
176.53
20
-135.31
11
176.517
21
-135.307
0
LINE
8
Black
10
176.517
20
-135.307
11
72.4599
21
-135.307
0
LINE
8
Black
10
72.4599
20
-135.307
11
72.4476
21
-135.305
0
LINE
8
Black
10
72.4476
20
-135.305
11
72.4352
21
-135.305
0
LINE
8
Black
10
72.4352
20
-135.305
11
71.4272
21
-135.104
0
LINE
8
Black
10
71.4272
20
-135.104
11
71.4246
21
-135.103
0
LINE
8
Black
10
71.4246
20
-135.103
11
71.4218
21
-135.103
0
LINE
8
Black
10
71.4218
20
-135.103
11
71.4041
21
-135.095
0
LINE
8
Black
10
71.4041
20
-135.095
11
71.3861
21
-135.088
0
LINE
8
Black
10
71.3861
20
-135.088
11
71.384
21
-135.086
0
LINE
8
Black
10
71.384
20
-135.086
11
71.3815
21
-135.085
0
LINE
8
Black
10
71.3815
20
-135.085
11
70.5863
21
-134.554
0
LINE
8
Black
10
70.5863
20
-134.554
11
70.5842
21
-134.552
0
LINE
8
Black
10
70.5842
20
-134.552
11
70.5817
21
-134.551
0
LINE
8
Black
10
70.5817
20
-134.551
11
70.5684
21
-134.537
0
LINE
8
Black
10
70.5684
20
-134.537
11
70.5544
21
-134.523
0
LINE
8
Black
10
70.5544
20
-134.523
11
70.5532
21
-134.521
0
LINE
8
Black
10
70.5532
20
-134.521
11
70.5512
21
-134.519
0
LINE
8
Black
10
70.5512
20
-134.519
11
70.0199
21
-133.724
0
LINE
8
Black
10
70.0199
20
-133.724
11
70.0188
21
-133.721
0
LINE
8
Black
10
70.0188
20
-133.721
11
70.0169
21
-133.719
0
LINE
8
Black
10
70.0169
20
-133.719
11
70.0099
21
-133.701
0
LINE
8
Black
10
70.0099
20
-133.701
11
70.0021
21
-133.683
0
LINE
8
Black
10
70.0021
20
-133.683
11
70.0019
21
-133.68
0
LINE
8
Black
10
70.0019
20
-133.68
11
70.0009
21
-133.678
0
LINE
8
Black
10
70.0009
20
-133.678
11
69.8004
21
-132.67
0
LINE
8
Black
10
69.8004
20
-132.67
11
69.8002
21
-132.657
0
LINE
8
Black
10
69.8002
20
-132.657
11
69.798
21
-132.645
0
LINE
8
Black
10
69.798
20
-132.645
11
69.798
21
-132.427
0
LINE
8
Black
10
69.798
20
-132.427
11
69.798
21
-103.217
0
LINE
8
Black
10
69.798
20
-103.217
11
69.798
21
-92.4216
0
LINE
8
Black
10
69.798
20
-92.4216
11
69.798
21
-51.7816
0
LINE
8
Black
10
69.798
20
-51.7816
11
69.798
21
-50.9676
0
LINE
8
Black
10
69.798
20
-50.9676
11
69.7993
21
-50.9604
0
LINE
8
Black
10
69.7993
20
-50.9604
11
69.7988
21
-50.9531
0
LINE
8
Black
10
69.7988
20
-50.9531
11
69.8031
21
-50.9388
0
LINE
8
Black
10
69.8031
20
-50.9388
11
69.8057
21
-50.9242
0
LINE
8
Black
10
69.8057
20
-50.9242
11
69.8093
21
-50.9178
0
LINE
8
Black
10
69.8093
20
-50.9178
11
69.8114
21
-50.9108
0
LINE
8
Black
10
69.8114
20
-50.9108
11
70.3199
21
-49.8938
0
LINE
8
Black
10
70.3199
20
-49.8938
11
70.332
21
-49.8774
0
LINE
8
Black
10
70.332
20
-49.8774
11
70.3437
21
-49.8608
0
LINE
8
Black
10
70.3437
20
-49.8608
11
70.8158
21
-49.3887
0
LINE
8
Black
10
70.8158
20
-49.3887
11
70.8325
21
-49.377
0
LINE
8
Black
10
70.8325
20
-49.377
11
70.8488
21
-49.3649
0
LINE
8
Black
10
70.8488
20
-49.3649
11
71.9217
21
-48.8284
0
LINE
8
Black
10
71.9217
20
-48.8284
11
71.9396
21
-48.8231
0
LINE
8
Black
10
71.9396
20
-48.8231
11
71.9571
21
-48.8169
0
LINE
8
Black
10
71.9571
20
-48.8169
11
103.547
21
-43.4014
0
LINE
8
Black
10
103.547
20
-43.4014
11
116.244
21
-41.2248
0
LINE
8
Black
10
116.244
20
-41.2248
11
116.255
21
-41.2249
0
LINE
8
Black
10
116.255
20
-41.2249
11
116.265
21
-41.223
0
LINE
8
Black
10
116.265
20
-41.223
11
130.775
21
-41.218
0
LINE
8
Black
10
130.775
20
-41.218
11
130.787
21
-41.2201
0
LINE
8
Black
10
192.382
20
-139.997
11
192.379
21
-139.997
0
LINE
8
Black
10
192.379
20
-139.997
11
192.377
21
-139.997
0
LINE
8
Black
10
192.377
20
-139.997
11
192.087
21
-139.997
0
LINE
8
Black
10
192.087
20
-139.997
11
192.082
21
-139.999
0
LINE
8
Black
10
192.082
20
-139.999
11
192.081
21
-139.999
0
LINE
8
Black
10
192.081
20
-139.999
11
192.081
21
-139.999
0
LINE
8
Black
10
192.081
20
-139.999
11
192.06
21
-140.003
0
LINE
8
Black
10
192.06
20
-140.003
11
192.039
21
-140.008
0
LINE
8
Black
10
192.039
20
-140.008
11
192.038
21
-140.008
0
LINE
8
Black
10
192.038
20
-140.008
11
192.038
21
-140.008
0
LINE
8
Black
10
192.038
20
-140.008
11
192.031
21
-140.008
0
LINE
8
Black
10
192.031
20
-140.008
11
191.554
21
-140.206
0
LINE
8
Black
10
191.554
20
-140.206
11
191.551
21
-140.21
0
LINE
8
Black
10
191.551
20
-140.21
11
191.538
21
-140.218
0
LINE
8
Black
10
191.538
20
-140.218
11
191.525
21
-140.228
0
LINE
8
Black
10
191.525
20
-140.228
11
191.519
21
-140.23
0
LINE
8
Black
10
191.519
20
-140.23
11
191.514
21
-140.233
0
LINE
8
Black
10
191.514
20
-140.233
11
191.495
21
-140.241
0
LINE
8
Black
10
191.495
20
-140.241
11
191.043
21
-140.693
0
LINE
8
Black
10
191.043
20
-140.693
11
191.034
21
-140.714
0
LINE
8
Black
10
191.034
20
-140.714
11
191.031
21
-140.719
0
LINE
8
Black
10
191.031
20
-140.719
11
191.029
21
-140.725
0
LINE
8
Black
10
191.029
20
-140.725
11
191.019
21
-140.738
0
LINE
8
Black
10
191.019
20
-140.738
11
191.01
21
-140.751
0
LINE
8
Black
10
191.01
20
-140.751
11
191.008
21
-140.753
0
LINE
8
Black
10
191.008
20
-140.753
11
190.91
21
-141.011
0
LINE
8
Black
10
190.91
20
-141.011
11
190.909
21
-141.013
0
LINE
8
Black
10
190.909
20
-141.013
11
190.909
21
-141.015
0
LINE
8
Black
10
190.909
20
-141.015
11
190.797
21
-141.284
0
LINE
8
Black
10
190.797
20
-141.284
11
190.797
21
-141.289
0
LINE
8
Black
10
190.797
20
-141.289
11
190.797
21
-141.289
0
LINE
8
Black
10
190.797
20
-141.289
11
190.797
21
-141.29
0
LINE
8
Black
10
190.797
20
-141.29
11
190.793
21
-141.311
0
LINE
8
Black
10
190.793
20
-141.311
11
190.79
21
-141.332
0
LINE
8
Black
10
190.79
20
-141.332
11
190.789
21
-141.333
0
LINE
8
Black
10
190.789
20
-141.333
11
190.789
21
-141.333
0
LINE
8
Black
10
190.789
20
-141.333
11
190.787
21
-141.338
0
LINE
8
Black
10
190.787
20
-141.338
11
190.797
21
-141.628
0
LINE
8
Black
10
190.797
20
-141.628
11
190.797
21
-141.63
0
LINE
8
Black
10
190.797
20
-141.63
11
190.797
21
-141.633
0
LINE
8
Black
10
190.797
20
-141.633
11
190.797
21
-141.923
0
LINE
8
Black
10
190.797
20
-141.923
11
190.799
21
-141.928
0
LINE
8
Black
10
190.799
20
-141.928
11
190.799
21
-141.929
0
LINE
8
Black
10
190.799
20
-141.929
11
190.799
21
-141.929
0
LINE
8
Black
10
190.799
20
-141.929
11
190.803
21
-141.95
0
LINE
8
Black
10
190.803
20
-141.95
11
190.808
21
-141.971
0
LINE
8
Black
10
190.808
20
-141.971
11
190.808
21
-141.972
0
LINE
8
Black
10
190.808
20
-141.972
11
190.808
21
-141.972
0
LINE
8
Black
10
190.808
20
-141.972
11
190.808
21
-141.979
0
LINE
8
Black
10
190.808
20
-141.979
11
191.006
21
-142.456
0
LINE
8
Black
10
191.006
20
-142.456
11
191.01
21
-142.459
0
LINE
8
Black
10
191.01
20
-142.459
11
191.018
21
-142.472
0
LINE
8
Black
10
191.018
20
-142.472
11
191.028
21
-142.485
0
LINE
8
Black
10
191.028
20
-142.485
11
191.03
21
-142.491
0
LINE
8
Black
10
191.03
20
-142.491
11
191.033
21
-142.496
0
LINE
8
Black
10
191.033
20
-142.496
11
191.041
21
-142.515
0
LINE
8
Black
10
191.041
20
-142.515
11
191.493
21
-142.967
0
LINE
8
Black
10
191.493
20
-142.967
11
191.514
21
-142.976
0
LINE
8
Black
10
191.514
20
-142.976
11
191.519
21
-142.979
0
LINE
8
Black
10
191.519
20
-142.979
11
191.525
21
-142.981
0
LINE
8
Black
10
191.525
20
-142.981
11
191.538
21
-142.991
0
LINE
8
Black
10
191.538
20
-142.991
11
191.551
21
-143
0
LINE
8
Black
10
191.551
20
-143
11
191.553
21
-143.002
0
LINE
8
Black
10
191.553
20
-143.002
11
191.811
21
-143.1
0
LINE
8
Black
10
191.811
20
-143.1
11
191.813
21
-143.101
0
LINE
8
Black
10
191.813
20
-143.101
11
191.815
21
-143.101
0
LINE
8
Black
10
191.815
20
-143.101
11
192.084
21
-143.213
0
LINE
8
Black
10
192.084
20
-143.213
11
192.089
21
-143.213
0
LINE
8
Black
10
192.089
20
-143.213
11
192.089
21
-143.213
0
LINE
8
Black
10
192.089
20
-143.213
11
192.09
21
-143.213
0
LINE
8
Black
10
192.09
20
-143.213
11
192.111
21
-143.217
0
LINE
8
Black
10
192.111
20
-143.217
11
192.132
21
-143.22
0
LINE
8
Black
10
192.132
20
-143.22
11
192.133
21
-143.221
0
LINE
8
Black
10
192.133
20
-143.221
11
192.133
21
-143.221
0
LINE
8
Black
10
192.133
20
-143.221
11
192.138
21
-143.223
0
LINE
8
Black
10
192.138
20
-143.223
11
192.428
21
-143.213
0
LINE
8
Black
10
192.428
20
-143.213
11
192.43
21
-143.213
0
LINE
8
Black
10
192.43
20
-143.213
11
192.433
21
-143.213
0
LINE
8
Black
10
192.433
20
-143.213
11
192.723
21
-143.213
0
LINE
8
Black
10
192.723
20
-143.213
11
192.728
21
-143.211
0
LINE
8
Black
10
192.728
20
-143.211
11
192.729
21
-143.211
0
LINE
8
Black
10
192.729
20
-143.211
11
192.729
21
-143.211
0
LINE
8
Black
10
192.729
20
-143.211
11
192.75
21
-143.207
0
LINE
8
Black
10
192.75
20
-143.207
11
192.771
21
-143.202
0
LINE
8
Black
10
192.771
20
-143.202
11
192.772
21
-143.202
0
LINE
8
Black
10
192.772
20
-143.202
11
192.772
21
-143.202
0
LINE
8
Black
10
192.772
20
-143.202
11
192.779
21
-143.202
0
LINE
8
Black
10
192.779
20
-143.202
11
193.256
21
-143.004
0
LINE
8
Black
10
193.256
20
-143.004
11
193.259
21
-143
0
LINE
8
Black
10
193.259
20
-143
11
193.272
21
-142.992
0
LINE
8
Black
10
193.272
20
-142.992
11
193.285
21
-142.982
0
LINE
8
Black
10
193.285
20
-142.982
11
193.291
21
-142.98
0
LINE
8
Black
10
193.291
20
-142.98
11
193.296
21
-142.977
0
LINE
8
Black
10
193.296
20
-142.977
11
193.315
21
-142.969
0
LINE
8
Black
10
193.315
20
-142.969
11
193.767
21
-142.517
0
LINE
8
Black
10
193.767
20
-142.517
11
193.776
21
-142.496
0
LINE
8
Black
10
193.776
20
-142.496
11
193.779
21
-142.491
0
LINE
8
Black
10
193.779
20
-142.491
11
193.781
21
-142.485
0
LINE
8
Black
10
193.781
20
-142.485
11
193.791
21
-142.472
0
LINE
8
Black
10
193.791
20
-142.472
11
193.8
21
-142.459
0
LINE
8
Black
10
193.8
20
-142.459
11
193.802
21
-142.457
0
LINE
8
Black
10
193.802
20
-142.457
11
193.9
21
-142.199
0
LINE
8
Black
10
193.9
20
-142.199
11
193.901
21
-142.197
0
LINE
8
Black
10
193.901
20
-142.197
11
193.901
21
-142.195
0
LINE
8
Black
10
193.901
20
-142.195
11
194.013
21
-141.926
0
LINE
8
Black
10
194.013
20
-141.926
11
194.013
21
-141.921
0
LINE
8
Black
10
194.013
20
-141.921
11
194.013
21
-141.921
0
LINE
8
Black
10
194.013
20
-141.921
11
194.013
21
-141.92
0
LINE
8
Black
10
194.013
20
-141.92
11
194.017
21
-141.899
0
LINE
8
Black
10
194.017
20
-141.899
11
194.02
21
-141.878
0
LINE
8
Black
10
194.02
20
-141.878
11
194.021
21
-141.877
0
LINE
8
Black
10
194.021
20
-141.877
11
194.021
21
-141.877
0
LINE
8
Black
10
194.021
20
-141.877
11
194.023
21
-141.872
0
LINE
8
Black
10
194.023
20
-141.872
11
194.013
21
-141.582
0
LINE
8
Black
10
194.013
20
-141.582
11
194.013
21
-141.579
0
LINE
8
Black
10
194.013
20
-141.579
11
194.013
21
-141.577
0
LINE
8
Black
10
194.013
20
-141.577
11
194.013
21
-141.287
0
LINE
8
Black
10
194.013
20
-141.287
11
194.011
21
-141.282
0
LINE
8
Black
10
194.011
20
-141.282
11
194.011
21
-141.281
0
LINE
8
Black
10
194.011
20
-141.281
11
194.011
21
-141.281
0
LINE
8
Black
10
194.011
20
-141.281
11
194.007
21
-141.26
0
LINE
8
Black
10
194.007
20
-141.26
11
194.002
21
-141.239
0
LINE
8
Black
10
194.002
20
-141.239
11
194.002
21
-141.238
0
LINE
8
Black
10
194.002
20
-141.238
11
194.002
21
-141.238
0
LINE
8
Black
10
194.002
20
-141.238
11
194.002
21
-141.231
0
LINE
8
Black
10
194.002
20
-141.231
11
193.804
21
-140.754
0
LINE
8
Black
10
193.804
20
-140.754
11
193.8
21
-140.751
0
LINE
8
Black
10
193.8
20
-140.751
11
193.792
21
-140.738
0
LINE
8
Black
10
193.792
20
-140.738
11
193.782
21
-140.725
0
LINE
8
Black
10
193.782
20
-140.725
11
193.78
21
-140.719
0
LINE
8
Black
10
193.78
20
-140.719
11
193.777
21
-140.714
0
LINE
8
Black
10
193.777
20
-140.714
11
193.769
21
-140.695
0
LINE
8
Black
10
193.769
20
-140.695
11
193.317
21
-140.243
0
LINE
8
Black
10
193.317
20
-140.243
11
193.296
21
-140.234
0
LINE
8
Black
10
193.296
20
-140.234
11
193.291
21
-140.231
0
LINE
8
Black
10
193.291
20
-140.231
11
193.285
21
-140.229
0
LINE
8
Black
10
193.285
20
-140.229
11
193.272
21
-140.219
0
LINE
8
Black
10
193.272
20
-140.219
11
193.259
21
-140.21
0
LINE
8
Black
10
193.259
20
-140.21
11
193.257
21
-140.208
0
LINE
8
Black
10
193.257
20
-140.208
11
192.999
21
-140.11
0
LINE
8
Black
10
192.999
20
-140.11
11
192.997
21
-140.109
0
LINE
8
Black
10
192.997
20
-140.109
11
192.995
21
-140.109
0
LINE
8
Black
10
192.995
20
-140.109
11
192.726
21
-139.997
0
LINE
8
Black
10
192.726
20
-139.997
11
192.721
21
-139.997
0
LINE
8
Black
10
192.721
20
-139.997
11
192.721
21
-139.997
0
LINE
8
Black
10
192.721
20
-139.997
11
192.72
21
-139.997
0
LINE
8
Black
10
192.72
20
-139.997
11
192.699
21
-139.993
0
LINE
8
Black
10
192.699
20
-139.993
11
192.678
21
-139.99
0
LINE
8
Black
10
192.678
20
-139.99
11
192.677
21
-139.989
0
LINE
8
Black
10
192.677
20
-139.989
11
192.677
21
-139.989
0
LINE
8
Black
10
192.677
20
-139.989
11
192.672
21
-139.987
0
LINE
8
Black
10
192.672
20
-139.987
11
192.382
21
-139.997
0
LINE
8
Black
10
72.3666
20
-131.107
11
72.3645
21
-131.107
0
LINE
8
Black
10
72.3645
20
-131.107
11
72.3624
21
-131.107
0
LINE
8
Black
10
72.3624
20
-131.107
11
72.0716
21
-131.107
0
LINE
8
Black
10
72.0716
20
-131.107
11
72.0671
21
-131.109
0
LINE
8
Black
10
72.0671
20
-131.109
11
72.0665
21
-131.109
0
LINE
8
Black
10
72.0665
20
-131.109
11
72.0659
21
-131.109
0
LINE
8
Black
10
72.0659
20
-131.109
11
72.0449
21
-131.113
0
LINE
8
Black
10
72.0449
20
-131.113
11
72.024
21
-131.118
0
LINE
8
Black
10
72.024
20
-131.118
11
72.0234
21
-131.118
0
LINE
8
Black
10
72.0234
20
-131.118
11
72.0227
21
-131.118
0
LINE
8
Black
10
72.0227
20
-131.118
11
72.0158
21
-131.118
0
LINE
8
Black
10
72.0158
20
-131.118
11
71.5391
21
-131.316
0
LINE
8
Black
10
71.5391
20
-131.316
11
71.5361
21
-131.32
0
LINE
8
Black
10
71.5361
20
-131.32
11
71.5228
21
-131.328
0
LINE
8
Black
10
71.5228
20
-131.328
11
71.5104
21
-131.338
0
LINE
8
Black
10
71.5104
20
-131.338
11
71.5043
21
-131.34
0
LINE
8
Black
10
71.5043
20
-131.34
11
71.4989
21
-131.343
0
LINE
8
Black
10
71.4989
20
-131.343
11
71.4803
21
-131.351
0
LINE
8
Black
10
71.4803
20
-131.351
11
71.0276
21
-131.803
0
LINE
8
Black
10
71.0276
20
-131.803
11
71.0189
21
-131.824
0
LINE
8
Black
10
71.0189
20
-131.824
11
71.0155
21
-131.829
0
LINE
8
Black
10
71.0155
20
-131.829
11
71.0136
21
-131.835
0
LINE
8
Black
10
71.0136
20
-131.835
11
71.0037
21
-131.848
0
LINE
8
Black
10
71.0037
20
-131.848
11
70.9952
21
-131.861
0
LINE
8
Black
10
70.9952
20
-131.861
11
70.9926
21
-131.863
0
LINE
8
Black
10
70.9926
20
-131.863
11
70.8954
21
-132.121
0
LINE
8
Black
10
70.8954
20
-132.121
11
70.8943
21
-132.123
0
LINE
8
Black
10
70.8943
20
-132.123
11
70.8938
21
-132.125
0
LINE
8
Black
10
70.8938
20
-132.125
11
70.7823
21
-132.394
0
LINE
8
Black
10
70.7823
20
-132.394
11
70.7823
21
-132.399
0
LINE
8
Black
10
70.7823
20
-132.399
11
70.7822
21
-132.399
0
LINE
8
Black
10
70.7822
20
-132.399
11
70.7823
21
-132.4
0
LINE
8
Black
10
70.7823
20
-132.4
11
70.7783
21
-132.421
0
LINE
8
Black
10
70.7783
20
-132.421
11
70.7746
21
-132.442
0
LINE
8
Black
10
70.7746
20
-132.442
11
70.7742
21
-132.443
0
LINE
8
Black
10
70.7742
20
-132.443
11
70.7741
21
-132.443
0
LINE
8
Black
10
70.7741
20
-132.443
11
70.7724
21
-132.448
0
LINE
8
Black
10
70.7724
20
-132.448
11
70.7819
21
-132.738
0
LINE
8
Black
10
70.7819
20
-132.738
11
70.7816
21
-132.74
0
LINE
8
Black
10
70.7816
20
-132.74
11
70.782
21
-132.743
0
LINE
8
Black
10
70.782
20
-132.743
11
70.7817
21
-133.033
0
LINE
8
Black
10
70.7817
20
-133.033
11
70.7836
21
-133.038
0
LINE
8
Black
10
70.7836
20
-133.038
11
70.7837
21
-133.039
0
LINE
8
Black
10
70.7837
20
-133.039
11
70.784
21
-133.039
0
LINE
8
Black
10
70.784
20
-133.039
11
70.7885
21
-133.06
0
LINE
8
Black
10
70.7885
20
-133.06
11
70.7931
21
-133.081
0
LINE
8
Black
10
70.7931
20
-133.081
11
70.793
21
-133.082
0
LINE
8
Black
10
70.793
20
-133.082
11
70.7931
21
-133.082
0
LINE
8
Black
10
70.7931
20
-133.082
11
70.7933
21
-133.089
0
LINE
8
Black
10
70.7933
20
-133.089
11
70.9908
21
-133.566
0
LINE
8
Black
10
70.9908
20
-133.566
11
70.9947
21
-133.569
0
LINE
8
Black
10
70.9947
20
-133.569
11
71.0031
21
-133.582
0
LINE
8
Black
10
71.0031
20
-133.582
11
71.0129
21
-133.595
0
LINE
8
Black
10
71.0129
20
-133.595
11
71.0149
21
-133.601
0
LINE
8
Black
10
71.0149
20
-133.601
11
71.0183
21
-133.606
0
LINE
8
Black
10
71.0183
20
-133.606
11
71.026
21
-133.625
0
LINE
8
Black
10
71.026
20
-133.625
11
71.478
21
-134.077
0
LINE
8
Black
10
71.478
20
-134.077
11
71.4989
21
-134.086
0
LINE
8
Black
10
71.4989
20
-134.086
11
71.5042
21
-134.089
0
LINE
8
Black
10
71.5042
20
-134.089
11
71.5102
21
-134.091
0
LINE
8
Black
10
71.5102
20
-134.091
11
71.5226
21
-134.101
0
LINE
8
Black
10
71.5226
20
-134.101
11
71.536
21
-134.11
0
LINE
8
Black
10
71.536
20
-134.11
11
71.538
21
-134.112
0
LINE
8
Black
10
71.538
20
-134.112
11
71.7962
21
-134.21
0
LINE
8
Black
10
71.7962
20
-134.21
11
71.7981
21
-134.211
0
LINE
8
Black
10
71.7981
20
-134.211
11
71.8002
21
-134.211
0
LINE
8
Black
10
71.8002
20
-134.211
11
72.0687
21
-134.323
0
LINE
8
Black
10
72.0687
20
-134.323
11
72.0736
21
-134.323
0
LINE
8
Black
10
72.0736
20
-134.323
11
72.0742
21
-134.323
0
LINE
8
Black
10
72.0742
20
-134.323
11
72.0749
21
-134.323
0
LINE
8
Black
10
72.0749
20
-134.323
11
72.0959
21
-134.327
0
LINE
8
Black
10
72.0959
20
-134.327
11
72.117
21
-134.33
0
LINE
8
Black
10
72.117
20
-134.33
11
72.1176
21
-134.331
0
LINE
8
Black
10
72.1176
20
-134.331
11
72.1182
21
-134.331
0
LINE
8
Black
10
72.1182
20
-134.331
11
72.1227
21
-134.333
0
LINE
8
Black
10
72.1227
20
-134.333
11
72.4134
21
-134.323
0
LINE
8
Black
10
72.4134
20
-134.323
11
72.4155
21
-134.323
0
LINE
8
Black
10
72.4155
20
-134.323
11
72.4176
21
-134.323
0
LINE
8
Black
10
72.4176
20
-134.323
11
72.7084
21
-134.323
0
LINE
8
Black
10
72.7084
20
-134.323
11
72.7129
21
-134.321
0
LINE
8
Black
10
72.7129
20
-134.321
11
72.7135
21
-134.321
0
LINE
8
Black
10
72.7135
20
-134.321
11
72.7141
21
-134.321
0
LINE
8
Black
10
72.7141
20
-134.321
11
72.7351
21
-134.317
0
LINE
8
Black
10
72.7351
20
-134.317
11
72.756
21
-134.312
0
LINE
8
Black
10
72.756
20
-134.312
11
72.7566
21
-134.312
0
LINE
8
Black
10
72.7566
20
-134.312
11
72.7573
21
-134.312
0
LINE
8
Black
10
72.7573
20
-134.312
11
72.7642
21
-134.312
0
LINE
8
Black
10
72.7642
20
-134.312
11
73.2409
21
-134.114
0
LINE
8
Black
10
73.2409
20
-134.114
11
73.2439
21
-134.11
0
LINE
8
Black
10
73.2439
20
-134.11
11
73.2572
21
-134.102
0
LINE
8
Black
10
73.2572
20
-134.102
11
73.2696
21
-134.092
0
LINE
8
Black
10
73.2696
20
-134.092
11
73.2757
21
-134.09
0
LINE
8
Black
10
73.2757
20
-134.09
11
73.2811
21
-134.087
0
LINE
8
Black
10
73.2811
20
-134.087
11
73.2997
21
-134.079
0
LINE
8
Black
10
73.2997
20
-134.079
11
73.7524
21
-133.627
0
LINE
8
Black
10
73.7524
20
-133.627
11
73.7611
21
-133.606
0
LINE
8
Black
10
73.7611
20
-133.606
11
73.7645
21
-133.601
0
LINE
8
Black
10
73.7645
20
-133.601
11
73.7664
21
-133.595
0
LINE
8
Black
10
73.7664
20
-133.595
11
73.7763
21
-133.582
0
LINE
8
Black
10
73.7763
20
-133.582
11
73.7848
21
-133.569
0
LINE
8
Black
10
73.7848
20
-133.569
11
73.7874
21
-133.567
0
LINE
8
Black
10
73.7874
20
-133.567
11
73.8846
21
-133.309
0
LINE
8
Black
10
73.8846
20
-133.309
11
73.8857
21
-133.307
0
LINE
8
Black
10
73.8857
20
-133.307
11
73.8862
21
-133.305
0
LINE
8
Black
10
73.8862
20
-133.305
11
73.9977
21
-133.036
0
LINE
8
Black
10
73.9977
20
-133.036
11
73.9977
21
-133.031
0
LINE
8
Black
10
73.9977
20
-133.031
11
73.9978
21
-133.031
0
LINE
8
Black
10
73.9978
20
-133.031
11
73.9977
21
-133.03
0
LINE
8
Black
10
73.9977
20
-133.03
11
74.0017
21
-133.009
0
LINE
8
Black
10
74.0017
20
-133.009
11
74.0054
21
-132.988
0
LINE
8
Black
10
74.0054
20
-132.988
11
74.0058
21
-132.987
0
LINE
8
Black
10
74.0058
20
-132.987
11
74.0059
21
-132.987
0
LINE
8
Black
10
74.0059
20
-132.987
11
74.0076
21
-132.982
0
LINE
8
Black
10
74.0076
20
-132.982
11
73.9981
21
-132.692
0
LINE
8
Black
10
73.9981
20
-132.692
11
73.9984
21
-132.69
0
LINE
8
Black
10
73.9984
20
-132.69
11
73.998
21
-132.687
0
LINE
8
Black
10
73.998
20
-132.687
11
73.9983
21
-132.426
0
LINE
8
Black
10
73.9983
20
-132.426
11
73.9983
21
-132.426
0
LINE
8
Black
10
73.9983
20
-132.426
11
73.9983
21
-132.426
0
LINE
8
Black
10
73.9983
20
-132.426
11
73.9983
21
-132.397
0
LINE
8
Black
10
73.9983
20
-132.397
11
73.9964
21
-132.392
0
LINE
8
Black
10
73.9964
20
-132.392
11
73.9963
21
-132.391
0
LINE
8
Black
10
73.9963
20
-132.391
11
73.996
21
-132.391
0
LINE
8
Black
10
73.996
20
-132.391
11
73.9915
21
-132.37
0
LINE
8
Black
10
73.9915
20
-132.37
11
73.9869
21
-132.349
0
LINE
8
Black
10
73.9869
20
-132.349
11
73.987
21
-132.348
0
LINE
8
Black
10
73.987
20
-132.348
11
73.9869
21
-132.348
0
LINE
8
Black
10
73.9869
20
-132.348
11
73.9867
21
-132.341
0
LINE
8
Black
10
73.9867
20
-132.341
11
73.7892
21
-131.864
0
LINE
8
Black
10
73.7892
20
-131.864
11
73.7853
21
-131.861
0
LINE
8
Black
10
73.7853
20
-131.861
11
73.7769
21
-131.848
0
LINE
8
Black
10
73.7769
20
-131.848
11
73.7671
21
-131.835
0
LINE
8
Black
10
73.7671
20
-131.835
11
73.7651
21
-131.829
0
LINE
8
Black
10
73.7651
20
-131.829
11
73.7617
21
-131.824
0
LINE
8
Black
10
73.7617
20
-131.824
11
73.754
21
-131.805
0
LINE
8
Black
10
73.754
20
-131.805
11
73.302
21
-131.353
0
LINE
8
Black
10
73.302
20
-131.353
11
73.2811
21
-131.344
0
LINE
8
Black
10
73.2811
20
-131.344
11
73.2758
21
-131.341
0
LINE
8
Black
10
73.2758
20
-131.341
11
73.2698
21
-131.339
0
LINE
8
Black
10
73.2698
20
-131.339
11
73.2574
21
-131.329
0
LINE
8
Black
10
73.2574
20
-131.329
11
73.244
21
-131.32
0
LINE
8
Black
10
73.244
20
-131.32
11
73.242
21
-131.318
0
LINE
8
Black
10
73.242
20
-131.318
11
72.9838
21
-131.22
0
LINE
8
Black
10
72.9838
20
-131.22
11
72.9819
21
-131.219
0
LINE
8
Black
10
72.9819
20
-131.219
11
72.9798
21
-131.219
0
LINE
8
Black
10
72.9798
20
-131.219
11
72.7113
21
-131.107
0
LINE
8
Black
10
72.7113
20
-131.107
11
72.7064
21
-131.107
0
LINE
8
Black
10
72.7064
20
-131.107
11
72.7058
21
-131.107
0
LINE
8
Black
10
72.7058
20
-131.107
11
72.7051
21
-131.107
0
LINE
8
Black
10
72.7051
20
-131.107
11
72.6841
21
-131.103
0
LINE
8
Black
10
72.6841
20
-131.103
11
72.663
21
-131.1
0
LINE
8
Black
10
72.663
20
-131.1
11
72.6624
21
-131.099
0
LINE
8
Black
10
72.6624
20
-131.099
11
72.6618
21
-131.099
0
LINE
8
Black
10
72.6618
20
-131.099
11
72.6573
21
-131.097
0
LINE
8
Black
10
72.6573
20
-131.097
11
72.3666
21
-131.107
0
LINE
8
Black
10
132.057
20
-131.107
11
132.054
21
-131.107
0
LINE
8
Black
10
132.054
20
-131.107
11
132.052
21
-131.107
0
LINE
8
Black
10
132.052
20
-131.107
11
131.762
21
-131.107
0
LINE
8
Black
10
131.762
20
-131.107
11
131.757
21
-131.109
0
LINE
8
Black
10
131.757
20
-131.109
11
131.756
21
-131.109
0
LINE
8
Black
10
131.756
20
-131.109
11
131.756
21
-131.109
0
LINE
8
Black
10
131.756
20
-131.109
11
131.735
21
-131.113
0
LINE
8
Black
10
131.735
20
-131.113
11
131.714
21
-131.118
0
LINE
8
Black
10
131.714
20
-131.118
11
131.713
21
-131.118
0
LINE
8
Black
10
131.713
20
-131.118
11
131.713
21
-131.118
0
LINE
8
Black
10
131.713
20
-131.118
11
131.706
21
-131.118
0
LINE
8
Black
10
131.706
20
-131.118
11
131.229
21
-131.316
0
LINE
8
Black
10
131.229
20
-131.316
11
131.226
21
-131.32
0
LINE
8
Black
10
131.226
20
-131.32
11
131.213
21
-131.328
0
LINE
8
Black
10
131.213
20
-131.328
11
131.2
21
-131.338
0
LINE
8
Black
10
131.2
20
-131.338
11
131.194
21
-131.34
0
LINE
8
Black
10
131.194
20
-131.34
11
131.189
21
-131.343
0
LINE
8
Black
10
131.189
20
-131.343
11
131.17
21
-131.351
0
LINE
8
Black
10
131.17
20
-131.351
11
130.718
21
-131.803
0
LINE
8
Black
10
130.718
20
-131.803
11
130.709
21
-131.824
0
LINE
8
Black
10
130.709
20
-131.824
11
130.706
21
-131.829
0
LINE
8
Black
10
130.706
20
-131.829
11
130.704
21
-131.835
0
LINE
8
Black
10
130.704
20
-131.835
11
130.694
21
-131.848
0
LINE
8
Black
10
130.694
20
-131.848
11
130.685
21
-131.861
0
LINE
8
Black
10
130.685
20
-131.861
11
130.683
21
-131.863
0
LINE
8
Black
10
130.683
20
-131.863
11
130.585
21
-132.121
0
LINE
8
Black
10
130.585
20
-132.121
11
130.584
21
-132.123
0
LINE
8
Black
10
130.584
20
-132.123
11
130.584
21
-132.125
0
LINE
8
Black
10
130.584
20
-132.125
11
130.472
21
-132.394
0
LINE
8
Black
10
130.472
20
-132.394
11
130.472
21
-132.399
0
LINE
8
Black
10
130.472
20
-132.399
11
130.472
21
-132.399
0
LINE
8
Black
10
130.472
20
-132.399
11
130.472
21
-132.4
0
LINE
8
Black
10
130.472
20
-132.4
11
130.468
21
-132.421
0
LINE
8
Black
10
130.468
20
-132.421
11
130.465
21
-132.442
0
LINE
8
Black
10
130.465
20
-132.442
11
130.464
21
-132.443
0
LINE
8
Black
10
130.464
20
-132.443
11
130.464
21
-132.443
0
LINE
8
Black
10
130.464
20
-132.443
11
130.462
21
-132.448
0
LINE
8
Black
10
130.462
20
-132.448
11
130.472
21
-132.738
0
LINE
8
Black
10
130.472
20
-132.738
11
130.472
21
-132.74
0
LINE
8
Black
10
130.472
20
-132.74
11
130.472
21
-132.743
0
LINE
8
Black
10
130.472
20
-132.743
11
130.472
21
-133.033
0
LINE
8
Black
10
130.472
20
-133.033
11
130.474
21
-133.038
0
LINE
8
Black
10
130.474
20
-133.038
11
130.474
21
-133.039
0
LINE
8
Black
10
130.474
20
-133.039
11
130.474
21
-133.039
0
LINE
8
Black
10
130.474
20
-133.039
11
130.478
21
-133.06
0
LINE
8
Black
10
130.478
20
-133.06
11
130.483
21
-133.081
0
LINE
8
Black
10
130.483
20
-133.081
11
130.483
21
-133.082
0
LINE
8
Black
10
130.483
20
-133.082
11
130.483
21
-133.082
0
LINE
8
Black
10
130.483
20
-133.082
11
130.483
21
-133.089
0
LINE
8
Black
10
130.483
20
-133.089
11
130.681
21
-133.566
0
LINE
8
Black
10
130.681
20
-133.566
11
130.685
21
-133.569
0
LINE
8
Black
10
130.685
20
-133.569
11
130.693
21
-133.582
0
LINE
8
Black
10
130.693
20
-133.582
11
130.703
21
-133.595
0
LINE
8
Black
10
130.703
20
-133.595
11
130.705
21
-133.601
0
LINE
8
Black
10
130.705
20
-133.601
11
130.708
21
-133.606
0
LINE
8
Black
10
130.708
20
-133.606
11
130.716
21
-133.625
0
LINE
8
Black
10
130.716
20
-133.625
11
131.168
21
-134.077
0
LINE
8
Black
10
131.168
20
-134.077
11
131.189
21
-134.086
0
LINE
8
Black
10
131.189
20
-134.086
11
131.194
21
-134.089
0
LINE
8
Black
10
131.194
20
-134.089
11
131.2
21
-134.091
0
LINE
8
Black
10
131.2
20
-134.091
11
131.213
21
-134.101
0
LINE
8
Black
10
131.213
20
-134.101
11
131.226
21
-134.11
0
LINE
8
Black
10
131.226
20
-134.11
11
131.228
21
-134.112
0
LINE
8
Black
10
131.228
20
-134.112
11
131.486
21
-134.21
0
LINE
8
Black
10
131.486
20
-134.21
11
131.488
21
-134.211
0
LINE
8
Black
10
131.488
20
-134.211
11
131.49
21
-134.211
0
LINE
8
Black
10
131.49
20
-134.211
11
131.759
21
-134.323
0
LINE
8
Black
10
131.759
20
-134.323
11
131.764
21
-134.323
0
LINE
8
Black
10
131.764
20
-134.323
11
131.764
21
-134.323
0
LINE
8
Black
10
131.764
20
-134.323
11
131.765
21
-134.323
0
LINE
8
Black
10
131.765
20
-134.323
11
131.786
21
-134.327
0
LINE
8
Black
10
131.786
20
-134.327
11
131.807
21
-134.33
0
LINE
8
Black
10
131.807
20
-134.33
11
131.808
21
-134.331
0
LINE
8
Black
10
131.808
20
-134.331
11
131.808
21
-134.331
0
LINE
8
Black
10
131.808
20
-134.331
11
131.813
21
-134.333
0
LINE
8
Black
10
131.813
20
-134.333
11
132.103
21
-134.323
0
LINE
8
Black
10
132.103
20
-134.323
11
132.106
21
-134.323
0
LINE
8
Black
10
132.106
20
-134.323
11
132.108
21
-134.323
0
LINE
8
Black
10
132.108
20
-134.323
11
132.398
21
-134.323
0
LINE
8
Black
10
132.398
20
-134.323
11
132.403
21
-134.321
0
LINE
8
Black
10
132.403
20
-134.321
11
132.404
21
-134.321
0
LINE
8
Black
10
132.404
20
-134.321
11
132.404
21
-134.321
0
LINE
8
Black
10
132.404
20
-134.321
11
132.425
21
-134.317
0
LINE
8
Black
10
132.425
20
-134.317
11
132.446
21
-134.312
0
LINE
8
Black
10
132.446
20
-134.312
11
132.447
21
-134.312
0
LINE
8
Black
10
132.447
20
-134.312
11
132.447
21
-134.312
0
LINE
8
Black
10
132.447
20
-134.312
11
132.454
21
-134.312
0
LINE
8
Black
10
132.454
20
-134.312
11
132.931
21
-134.114
0
LINE
8
Black
10
132.931
20
-134.114
11
132.934
21
-134.11
0
LINE
8
Black
10
132.934
20
-134.11
11
132.947
21
-134.102
0
LINE
8
Black
10
132.947
20
-134.102
11
132.96
21
-134.092
0
LINE
8
Black
10
132.96
20
-134.092
11
132.966
21
-134.09
0
LINE
8
Black
10
132.966
20
-134.09
11
132.971
21
-134.087
0
LINE
8
Black
10
132.971
20
-134.087
11
132.99
21
-134.079
0
LINE
8
Black
10
132.99
20
-134.079
11
133.442
21
-133.627
0
LINE
8
Black
10
133.442
20
-133.627
11
133.451
21
-133.606
0
LINE
8
Black
10
133.451
20
-133.606
11
133.454
21
-133.601
0
LINE
8
Black
10
133.454
20
-133.601
11
133.456
21
-133.595
0
LINE
8
Black
10
133.456
20
-133.595
11
133.466
21
-133.582
0
LINE
8
Black
10
133.466
20
-133.582
11
133.475
21
-133.569
0
LINE
8
Black
10
133.475
20
-133.569
11
133.477
21
-133.567
0
LINE
8
Black
10
133.477
20
-133.567
11
133.575
21
-133.309
0
LINE
8
Black
10
133.575
20
-133.309
11
133.576
21
-133.307
0
LINE
8
Black
10
133.576
20
-133.307
11
133.576
21
-133.305
0
LINE
8
Black
10
133.576
20
-133.305
11
133.688
21
-133.036
0
LINE
8
Black
10
133.688
20
-133.036
11
133.688
21
-133.031
0
LINE
8
Black
10
133.688
20
-133.031
11
133.688
21
-133.031
0
LINE
8
Black
10
133.688
20
-133.031
11
133.688
21
-133.03
0
LINE
8
Black
10
133.688
20
-133.03
11
133.692
21
-133.009
0
LINE
8
Black
10
133.692
20
-133.009
11
133.695
21
-132.988
0
LINE
8
Black
10
133.695
20
-132.988
11
133.696
21
-132.987
0
LINE
8
Black
10
133.696
20
-132.987
11
133.696
21
-132.987
0
LINE
8
Black
10
133.696
20
-132.987
11
133.698
21
-132.982
0
LINE
8
Black
10
133.698
20
-132.982
11
133.688
21
-132.692
0
LINE
8
Black
10
133.688
20
-132.692
11
133.688
21
-132.689
0
LINE
8
Black
10
133.688
20
-132.689
11
133.688
21
-132.687
0
LINE
8
Black
10
133.688
20
-132.687
11
133.688
21
-132.397
0
LINE
8
Black
10
133.688
20
-132.397
11
133.686
21
-132.392
0
LINE
8
Black
10
133.686
20
-132.392
11
133.686
21
-132.391
0
LINE
8
Black
10
133.686
20
-132.391
11
133.686
21
-132.391
0
LINE
8
Black
10
133.686
20
-132.391
11
133.682
21
-132.37
0
LINE
8
Black
10
133.682
20
-132.37
11
133.677
21
-132.349
0
LINE
8
Black
10
133.677
20
-132.349
11
133.677
21
-132.348
0
LINE
8
Black
10
133.677
20
-132.348
11
133.677
21
-132.348
0
LINE
8
Black
10
133.677
20
-132.348
11
133.677
21
-132.341
0
LINE
8
Black
10
133.677
20
-132.341
11
133.479
21
-131.864
0
LINE
8
Black
10
133.479
20
-131.864
11
133.475
21
-131.861
0
LINE
8
Black
10
133.475
20
-131.861
11
133.467
21
-131.848
0
LINE
8
Black
10
133.467
20
-131.848
11
133.457
21
-131.835
0
LINE
8
Black
10
133.457
20
-131.835
11
133.455
21
-131.829
0
LINE
8
Black
10
133.455
20
-131.829
11
133.452
21
-131.824
0
LINE
8
Black
10
133.452
20
-131.824
11
133.444
21
-131.805
0
LINE
8
Black
10
133.444
20
-131.805
11
132.992
21
-131.353
0
LINE
8
Black
10
132.992
20
-131.353
11
132.971
21
-131.344
0
LINE
8
Black
10
132.971
20
-131.344
11
132.966
21
-131.341
0
LINE
8
Black
10
132.966
20
-131.341
11
132.96
21
-131.339
0
LINE
8
Black
10
132.96
20
-131.339
11
132.947
21
-131.329
0
LINE
8
Black
10
132.947
20
-131.329
11
132.934
21
-131.32
0
LINE
8
Black
10
132.934
20
-131.32
11
132.932
21
-131.318
0
LINE
8
Black
10
132.932
20
-131.318
11
132.674
21
-131.22
0
LINE
8
Black
10
132.674
20
-131.22
11
132.672
21
-131.219
0
LINE
8
Black
10
132.672
20
-131.219
11
132.67
21
-131.219
0
LINE
8
Black
10
132.67
20
-131.219
11
132.401
21
-131.107
0
LINE
8
Black
10
132.401
20
-131.107
11
132.396
21
-131.107
0
LINE
8
Black
10
132.396
20
-131.107
11
132.396
21
-131.107
0
LINE
8
Black
10
132.396
20
-131.107
11
132.395
21
-131.107
0
LINE
8
Black
10
132.395
20
-131.107
11
132.374
21
-131.103
0
LINE
8
Black
10
132.374
20
-131.103
11
132.353
21
-131.1
0
LINE
8
Black
10
132.353
20
-131.1
11
132.352
21
-131.099
0
LINE
8
Black
10
132.352
20
-131.099
11
132.352
21
-131.099
0
LINE
8
Black
10
132.352
20
-131.099
11
132.347
21
-131.097
0
LINE
8
Black
10
132.347
20
-131.097
11
132.057
21
-131.107
0
LINE
8
Black
10
215.242
20
-101.897
11
215.239
21
-101.897
0
LINE
8
Black
10
215.239
20
-101.897
11
215.237
21
-101.897
0
LINE
8
Black
10
215.237
20
-101.897
11
214.947
21
-101.897
0
LINE
8
Black
10
214.947
20
-101.897
11
214.942
21
-101.899
0
LINE
8
Black
10
214.942
20
-101.899
11
214.941
21
-101.899
0
LINE
8
Black
10
214.941
20
-101.899
11
214.941
21
-101.899
0
LINE
8
Black
10
214.941
20
-101.899
11
214.92
21
-101.903
0
LINE
8
Black
10
214.92
20
-101.903
11
214.899
21
-101.908
0
LINE
8
Black
10
214.899
20
-101.908
11
214.898
21
-101.908
0
LINE
8
Black
10
214.898
20
-101.908
11
214.898
21
-101.908
0
LINE
8
Black
10
214.898
20
-101.908
11
214.891
21
-101.908
0
LINE
8
Black
10
214.891
20
-101.908
11
214.414
21
-102.106
0
LINE
8
Black
10
214.414
20
-102.106
11
214.411
21
-102.11
0
LINE
8
Black
10
214.411
20
-102.11
11
214.398
21
-102.118
0
LINE
8
Black
10
214.398
20
-102.118
11
214.385
21
-102.128
0
LINE
8
Black
10
214.385
20
-102.128
11
214.379
21
-102.13
0
LINE
8
Black
10
214.379
20
-102.13
11
214.374
21
-102.133
0
LINE
8
Black
10
214.374
20
-102.133
11
214.355
21
-102.141
0
LINE
8
Black
10
214.355
20
-102.141
11
213.903
21
-102.593
0
LINE
8
Black
10
213.903
20
-102.593
11
213.894
21
-102.614
0
LINE
8
Black
10
213.894
20
-102.614
11
213.891
21
-102.619
0
LINE
8
Black
10
213.891
20
-102.619
11
213.889
21
-102.625
0
LINE
8
Black
10
213.889
20
-102.625
11
213.879
21
-102.638
0
LINE
8
Black
10
213.879
20
-102.638
11
213.87
21
-102.651
0
LINE
8
Black
10
213.87
20
-102.651
11
213.868
21
-102.653
0
LINE
8
Black
10
213.868
20
-102.653
11
213.77
21
-102.911
0
LINE
8
Black
10
213.77
20
-102.911
11
213.769
21
-102.913
0
LINE
8
Black
10
213.769
20
-102.913
11
213.769
21
-102.915
0
LINE
8
Black
10
213.769
20
-102.915
11
213.657
21
-103.184
0
LINE
8
Black
10
213.657
20
-103.184
11
213.657
21
-103.189
0
LINE
8
Black
10
213.657
20
-103.189
11
213.657
21
-103.189
0
LINE
8
Black
10
213.657
20
-103.189
11
213.657
21
-103.19
0
LINE
8
Black
10
213.657
20
-103.19
11
213.653
21
-103.211
0
LINE
8
Black
10
213.653
20
-103.211
11
213.65
21
-103.232
0
LINE
8
Black
10
213.65
20
-103.232
11
213.649
21
-103.233
0
LINE
8
Black
10
213.649
20
-103.233
11
213.649
21
-103.233
0
LINE
8
Black
10
213.649
20
-103.233
11
213.647
21
-103.238
0
LINE
8
Black
10
213.647
20
-103.238
11
213.657
21
-103.528
0
LINE
8
Black
10
213.657
20
-103.528
11
213.657
21
-103.53
0
LINE
8
Black
10
213.657
20
-103.53
11
213.657
21
-103.533
0
LINE
8
Black
10
213.657
20
-103.533
11
213.657
21
-103.823
0
LINE
8
Black
10
213.657
20
-103.823
11
213.659
21
-103.828
0
LINE
8
Black
10
213.659
20
-103.828
11
213.659
21
-103.829
0
LINE
8
Black
10
213.659
20
-103.829
11
213.659
21
-103.829
0
LINE
8
Black
10
213.659
20
-103.829
11
213.663
21
-103.85
0
LINE
8
Black
10
213.663
20
-103.85
11
213.668
21
-103.871
0
LINE
8
Black
10
213.668
20
-103.871
11
213.668
21
-103.872
0
LINE
8
Black
10
213.668
20
-103.872
11
213.668
21
-103.872
0
LINE
8
Black
10
213.668
20
-103.872
11
213.668
21
-103.879
0
LINE
8
Black
10
213.668
20
-103.879
11
213.866
21
-104.356
0
LINE
8
Black
10
213.866
20
-104.356
11
213.87
21
-104.359
0
LINE
8
Black
10
213.87
20
-104.359
11
213.878
21
-104.372
0
LINE
8
Black
10
213.878
20
-104.372
11
213.888
21
-104.385
0
LINE
8
Black
10
213.888
20
-104.385
11
213.89
21
-104.391
0
LINE
8
Black
10
213.89
20
-104.391
11
213.893
21
-104.396
0
LINE
8
Black
10
213.893
20
-104.396
11
213.901
21
-104.415
0
LINE
8
Black
10
213.901
20
-104.415
11
214.353
21
-104.867
0
LINE
8
Black
10
214.353
20
-104.867
11
214.374
21
-104.876
0
LINE
8
Black
10
214.374
20
-104.876
11
214.379
21
-104.879
0
LINE
8
Black
10
214.379
20
-104.879
11
214.385
21
-104.881
0
LINE
8
Black
10
214.385
20
-104.881
11
214.398
21
-104.891
0
LINE
8
Black
10
214.398
20
-104.891
11
214.411
21
-104.9
0
LINE
8
Black
10
214.411
20
-104.9
11
214.413
21
-104.902
0
LINE
8
Black
10
214.413
20
-104.902
11
214.671
21
-105
0
LINE
8
Black
10
214.671
20
-105
11
214.673
21
-105.001
0
LINE
8
Black
10
214.673
20
-105.001
11
214.675
21
-105.001
0
LINE
8
Black
10
214.675
20
-105.001
11
214.944
21
-105.113
0
LINE
8
Black
10
214.944
20
-105.113
11
214.949
21
-105.113
0
LINE
8
Black
10
214.949
20
-105.113
11
214.949
21
-105.113
0
LINE
8
Black
10
214.949
20
-105.113
11
214.95
21
-105.113
0
LINE
8
Black
10
214.95
20
-105.113
11
214.971
21
-105.117
0
LINE
8
Black
10
214.971
20
-105.117
11
214.992
21
-105.12
0
LINE
8
Black
10
214.992
20
-105.12
11
214.993
21
-105.121
0
LINE
8
Black
10
214.993
20
-105.121
11
214.993
21
-105.121
0
LINE
8
Black
10
214.993
20
-105.121
11
214.998
21
-105.123
0
LINE
8
Black
10
214.998
20
-105.123
11
215.288
21
-105.113
0
LINE
8
Black
10
215.288
20
-105.113
11
215.29
21
-105.113
0
LINE
8
Black
10
215.29
20
-105.113
11
215.293
21
-105.113
0
LINE
8
Black
10
215.293
20
-105.113
11
215.583
21
-105.113
0
LINE
8
Black
10
215.583
20
-105.113
11
215.588
21
-105.111
0
LINE
8
Black
10
215.588
20
-105.111
11
215.589
21
-105.111
0
LINE
8
Black
10
215.589
20
-105.111
11
215.589
21
-105.111
0
LINE
8
Black
10
215.589
20
-105.111
11
215.61
21
-105.107
0
LINE
8
Black
10
215.61
20
-105.107
11
215.631
21
-105.102
0
LINE
8
Black
10
215.631
20
-105.102
11
215.632
21
-105.102
0
LINE
8
Black
10
215.632
20
-105.102
11
215.632
21
-105.102
0
LINE
8
Black
10
215.632
20
-105.102
11
215.639
21
-105.102
0
LINE
8
Black
10
215.639
20
-105.102
11
216.116
21
-104.904
0
LINE
8
Black
10
216.116
20
-104.904
11
216.119
21
-104.9
0
LINE
8
Black
10
216.119
20
-104.9
11
216.132
21
-104.892
0
LINE
8
Black
10
216.132
20
-104.892
11
216.145
21
-104.882
0
LINE
8
Black
10
216.145
20
-104.882
11
216.151
21
-104.88
0
LINE
8
Black
10
216.151
20
-104.88
11
216.156
21
-104.877
0
LINE
8
Black
10
216.156
20
-104.877
11
216.175
21
-104.869
0
LINE
8
Black
10
216.175
20
-104.869
11
216.627
21
-104.417
0
LINE
8
Black
10
216.627
20
-104.417
11
216.636
21
-104.396
0
LINE
8
Black
10
216.636
20
-104.396
11
216.639
21
-104.391
0
LINE
8
Black
10
216.639
20
-104.391
11
216.641
21
-104.385
0
LINE
8
Black
10
216.641
20
-104.385
11
216.651
21
-104.372
0
LINE
8
Black
10
216.651
20
-104.372
11
216.66
21
-104.359
0
LINE
8
Black
10
216.66
20
-104.359
11
216.662
21
-104.357
0
LINE
8
Black
10
216.662
20
-104.357
11
216.76
21
-104.099
0
LINE
8
Black
10
216.76
20
-104.099
11
216.761
21
-104.097
0
LINE
8
Black
10
216.761
20
-104.097
11
216.761
21
-104.095
0
LINE
8
Black
10
216.761
20
-104.095
11
216.873
21
-103.826
0
LINE
8
Black
10
216.873
20
-103.826
11
216.873
21
-103.821
0
LINE
8
Black
10
216.873
20
-103.821
11
216.873
21
-103.821
0
LINE
8
Black
10
216.873
20
-103.821
11
216.873
21
-103.82
0
LINE
8
Black
10
216.873
20
-103.82
11
216.877
21
-103.799
0
LINE
8
Black
10
216.877
20
-103.799
11
216.88
21
-103.778
0
LINE
8
Black
10
216.88
20
-103.778
11
216.881
21
-103.777
0
LINE
8
Black
10
216.881
20
-103.777
11
216.881
21
-103.777
0
LINE
8
Black
10
216.881
20
-103.777
11
216.883
21
-103.772
0
LINE
8
Black
10
216.883
20
-103.772
11
216.873
21
-103.482
0
LINE
8
Black
10
216.873
20
-103.482
11
216.873
21
-103.48
0
LINE
8
Black
10
216.873
20
-103.48
11
216.873
21
-103.477
0
LINE
8
Black
10
216.873
20
-103.477
11
216.873
21
-103.187
0
LINE
8
Black
10
216.873
20
-103.187
11
216.871
21
-103.182
0
LINE
8
Black
10
216.871
20
-103.182
11
216.871
21
-103.181
0
LINE
8
Black
10
216.871
20
-103.181
11
216.871
21
-103.181
0
LINE
8
Black
10
216.871
20
-103.181
11
216.867
21
-103.16
0
LINE
8
Black
10
216.867
20
-103.16
11
216.862
21
-103.139
0
LINE
8
Black
10
216.862
20
-103.139
11
216.862
21
-103.138
0
LINE
8
Black
10
216.862
20
-103.138
11
216.862
21
-103.138
0
LINE
8
Black
10
216.862
20
-103.138
11
216.862
21
-103.131
0
LINE
8
Black
10
216.862
20
-103.131
11
216.664
21
-102.654
0
LINE
8
Black
10
216.664
20
-102.654
11
216.66
21
-102.651
0
LINE
8
Black
10
216.66
20
-102.651
11
216.652
21
-102.638
0
LINE
8
Black
10
216.652
20
-102.638
11
216.642
21
-102.625
0
LINE
8
Black
10
216.642
20
-102.625
11
216.64
21
-102.619
0
LINE
8
Black
10
216.64
20
-102.619
11
216.637
21
-102.614
0
LINE
8
Black
10
216.637
20
-102.614
11
216.629
21
-102.595
0
LINE
8
Black
10
216.629
20
-102.595
11
216.177
21
-102.143
0
LINE
8
Black
10
216.177
20
-102.143
11
216.156
21
-102.134
0
LINE
8
Black
10
216.156
20
-102.134
11
216.151
21
-102.131
0
LINE
8
Black
10
216.151
20
-102.131
11
216.145
21
-102.129
0
LINE
8
Black
10
216.145
20
-102.129
11
216.132
21
-102.119
0
LINE
8
Black
10
216.132
20
-102.119
11
216.119
21
-102.11
0
LINE
8
Black
10
216.119
20
-102.11
11
216.117
21
-102.108
0
LINE
8
Black
10
216.117
20
-102.108
11
215.859
21
-102.01
0
LINE
8
Black
10
215.859
20
-102.01
11
215.857
21
-102.009
0
LINE
8
Black
10
215.857
20
-102.009
11
215.855
21
-102.009
0
LINE
8
Black
10
215.855
20
-102.009
11
215.586
21
-101.897
0
LINE
8
Black
10
215.586
20
-101.897
11
215.581
21
-101.897
0
LINE
8
Black
10
215.581
20
-101.897
11
215.581
21
-101.897
0
LINE
8
Black
10
215.581
20
-101.897
11
215.58
21
-101.897
0
LINE
8
Black
10
215.58
20
-101.897
11
215.559
21
-101.893
0
LINE
8
Black
10
215.559
20
-101.893
11
215.538
21
-101.89
0
LINE
8
Black
10
215.538
20
-101.89
11
215.537
21
-101.889
0
LINE
8
Black
10
215.537
20
-101.889
11
215.537
21
-101.889
0
LINE
8
Black
10
215.537
20
-101.889
11
215.532
21
-101.887
0
LINE
8
Black
10
215.532
20
-101.887
11
215.242
21
-101.897
0
LINE
8
Black
10
72.3666
20
-91.1019
11
72.3645
21
-91.1016
0
LINE
8
Black
10
72.3645
20
-91.1016
11
72.3624
21
-91.102
0
LINE
8
Black
10
72.3624
20
-91.102
11
72.0716
21
-91.1017
0
LINE
8
Black
10
72.0716
20
-91.1017
11
72.0671
21
-91.1036
0
LINE
8
Black
10
72.0671
20
-91.1036
11
72.0665
21
-91.1037
0
LINE
8
Black
10
72.0665
20
-91.1037
11
72.0659
21
-91.104
0
LINE
8
Black
10
72.0659
20
-91.104
11
72.0449
21
-91.1085
0
LINE
8
Black
10
72.0449
20
-91.1085
11
72.024
21
-91.1131
0
LINE
8
Black
10
72.024
20
-91.1131
11
72.0234
21
-91.113
0
LINE
8
Black
10
72.0234
20
-91.113
11
72.0227
21
-91.1131
0
LINE
8
Black
10
72.0227
20
-91.1131
11
72.0158
21
-91.1133
0
LINE
8
Black
10
72.0158
20
-91.1133
11
71.5391
21
-91.3108
0
LINE
8
Black
10
71.5391
20
-91.3108
11
71.5361
21
-91.3147
0
LINE
8
Black
10
71.5361
20
-91.3147
11
71.5228
21
-91.3231
0
LINE
8
Black
10
71.5228
20
-91.3231
11
71.5104
21
-91.3329
0
LINE
8
Black
10
71.5104
20
-91.3329
11
71.5043
21
-91.3349
0
LINE
8
Black
10
71.5043
20
-91.3349
11
71.4989
21
-91.3383
0
LINE
8
Black
10
71.4989
20
-91.3383
11
71.4803
21
-91.346
0
LINE
8
Black
10
71.4803
20
-91.346
11
71.0276
21
-91.798
0
LINE
8
Black
10
71.0276
20
-91.798
11
71.0189
21
-91.8189
0
LINE
8
Black
10
71.0189
20
-91.8189
11
71.0155
21
-91.8242
0
LINE
8
Black
10
71.0155
20
-91.8242
11
71.0136
21
-91.8302
0
LINE
8
Black
10
71.0136
20
-91.8302
11
71.0037
21
-91.8426
0
LINE
8
Black
10
71.0037
20
-91.8426
11
70.9952
21
-91.856
0
LINE
8
Black
10
70.9952
20
-91.856
11
70.9926
21
-91.858
0
LINE
8
Black
10
70.9926
20
-91.858
11
70.8954
21
-92.1162
0
LINE
8
Black
10
70.8954
20
-92.1162
11
70.8943
21
-92.1181
0
LINE
8
Black
10
70.8943
20
-92.1181
11
70.8938
21
-92.1202
0
LINE
8
Black
10
70.8938
20
-92.1202
11
70.7823
21
-92.3887
0
LINE
8
Black
10
70.7823
20
-92.3887
11
70.7823
21
-92.3936
0
LINE
8
Black
10
70.7823
20
-92.3936
11
70.7822
21
-92.3942
0
LINE
8
Black
10
70.7822
20
-92.3942
11
70.7823
21
-92.3949
0
LINE
8
Black
10
70.7823
20
-92.3949
11
70.7783
21
-92.4159
0
LINE
8
Black
10
70.7783
20
-92.4159
11
70.7746
21
-92.437
0
LINE
8
Black
10
70.7746
20
-92.437
11
70.7742
21
-92.4376
0
LINE
8
Black
10
70.7742
20
-92.4376
11
70.7741
21
-92.4382
0
LINE
8
Black
10
70.7741
20
-92.4382
11
70.7724
21
-92.4427
0
LINE
8
Black
10
70.7724
20
-92.4427
11
70.7819
21
-92.7334
0
LINE
8
Black
10
70.7819
20
-92.7334
11
70.7816
21
-92.7355
0
LINE
8
Black
10
70.7816
20
-92.7355
11
70.782
21
-92.7376
0
LINE
8
Black
10
70.782
20
-92.7376
11
70.7817
21
-93.0284
0
LINE
8
Black
10
70.7817
20
-93.0284
11
70.7836
21
-93.0329
0
LINE
8
Black
10
70.7836
20
-93.0329
11
70.7837
21
-93.0335
0
LINE
8
Black
10
70.7837
20
-93.0335
11
70.784
21
-93.0341
0
LINE
8
Black
10
70.784
20
-93.0341
11
70.7885
21
-93.0551
0
LINE
8
Black
10
70.7885
20
-93.0551
11
70.7931
21
-93.076
0
LINE
8
Black
10
70.7931
20
-93.076
11
70.793
21
-93.0766
0
LINE
8
Black
10
70.793
20
-93.0766
11
70.7931
21
-93.0773
0
LINE
8
Black
10
70.7931
20
-93.0773
11
70.7933
21
-93.0842
0
LINE
8
Black
10
70.7933
20
-93.0842
11
70.9908
21
-93.5609
0
LINE
8
Black
10
70.9908
20
-93.5609
11
70.9947
21
-93.5639
0
LINE
8
Black
10
70.9947
20
-93.5639
11
71.0031
21
-93.5772
0
LINE
8
Black
10
71.0031
20
-93.5772
11
71.0129
21
-93.5896
0
LINE
8
Black
10
71.0129
20
-93.5896
11
71.0149
21
-93.5957
0
LINE
8
Black
10
71.0149
20
-93.5957
11
71.0183
21
-93.6011
0
LINE
8
Black
10
71.0183
20
-93.6011
11
71.026
21
-93.6197
0
LINE
8
Black
10
71.026
20
-93.6197
11
71.478
21
-94.0724
0
LINE
8
Black
10
71.478
20
-94.0724
11
71.4989
21
-94.0811
0
LINE
8
Black
10
71.4989
20
-94.0811
11
71.5042
21
-94.0845
0
LINE
8
Black
10
71.5042
20
-94.0845
11
71.5102
21
-94.0864
0
LINE
8
Black
10
71.5102
20
-94.0864
11
71.5226
21
-94.0963
0
LINE
8
Black
10
71.5226
20
-94.0963
11
71.536
21
-94.1048
0
LINE
8
Black
10
71.536
20
-94.1048
11
71.538
21
-94.1074
0
LINE
8
Black
10
71.538
20
-94.1074
11
71.7962
21
-94.2046
0
LINE
8
Black
10
71.7962
20
-94.2046
11
71.7981
21
-94.2057
0
LINE
8
Black
10
71.7981
20
-94.2057
11
71.8002
21
-94.2062
0
LINE
8
Black
10
71.8002
20
-94.2062
11
72.0687
21
-94.3177
0
LINE
8
Black
10
72.0687
20
-94.3177
11
72.0736
21
-94.3177
0
LINE
8
Black
10
72.0736
20
-94.3177
11
72.0742
21
-94.3178
0
LINE
8
Black
10
72.0742
20
-94.3178
11
72.0749
21
-94.3177
0
LINE
8
Black
10
72.0749
20
-94.3177
11
72.0959
21
-94.3217
0
LINE
8
Black
10
72.0959
20
-94.3217
11
72.117
21
-94.3254
0
LINE
8
Black
10
72.117
20
-94.3254
11
72.1176
21
-94.3258
0
LINE
8
Black
10
72.1176
20
-94.3258
11
72.1182
21
-94.3259
0
LINE
8
Black
10
72.1182
20
-94.3259
11
72.1227
21
-94.3276
0
LINE
8
Black
10
72.1227
20
-94.3276
11
72.4134
21
-94.3181
0
LINE
8
Black
10
72.4134
20
-94.3181
11
72.4155
21
-94.3184
0
LINE
8
Black
10
72.4155
20
-94.3184
11
72.4176
21
-94.318
0
LINE
8
Black
10
72.4176
20
-94.318
11
72.7084
21
-94.3183
0
LINE
8
Black
10
72.7084
20
-94.3183
11
72.7129
21
-94.3164
0
LINE
8
Black
10
72.7129
20
-94.3164
11
72.7135
21
-94.3163
0
LINE
8
Black
10
72.7135
20
-94.3163
11
72.7141
21
-94.316
0
LINE
8
Black
10
72.7141
20
-94.316
11
72.7351
21
-94.3115
0
LINE
8
Black
10
72.7351
20
-94.3115
11
72.756
21
-94.3069
0
LINE
8
Black
10
72.756
20
-94.3069
11
72.7566
21
-94.307
0
LINE
8
Black
10
72.7566
20
-94.307
11
72.7573
21
-94.3069
0
LINE
8
Black
10
72.7573
20
-94.3069
11
72.7642
21
-94.3067
0
LINE
8
Black
10
72.7642
20
-94.3067
11
73.2409
21
-94.1092
0
LINE
8
Black
10
73.2409
20
-94.1092
11
73.2439
21
-94.1053
0
LINE
8
Black
10
73.2439
20
-94.1053
11
73.2572
21
-94.0969
0
LINE
8
Black
10
73.2572
20
-94.0969
11
73.2696
21
-94.0871
0
LINE
8
Black
10
73.2696
20
-94.0871
11
73.2757
21
-94.0851
0
LINE
8
Black
10
73.2757
20
-94.0851
11
73.2811
21
-94.0817
0
LINE
8
Black
10
73.2811
20
-94.0817
11
73.2997
21
-94.074
0
LINE
8
Black
10
73.2997
20
-94.074
11
73.7524
21
-93.622
0
LINE
8
Black
10
73.7524
20
-93.622
11
73.7611
21
-93.6011
0
LINE
8
Black
10
73.7611
20
-93.6011
11
73.7645
21
-93.5958
0
LINE
8
Black
10
73.7645
20
-93.5958
11
73.7664
21
-93.5898
0
LINE
8
Black
10
73.7664
20
-93.5898
11
73.7763
21
-93.5774
0
LINE
8
Black
10
73.7763
20
-93.5774
11
73.7848
21
-93.564
0
LINE
8
Black
10
73.7848
20
-93.564
11
73.7874
21
-93.562
0
LINE
8
Black
10
73.7874
20
-93.562
11
73.8846
21
-93.3038
0
LINE
8
Black
10
73.8846
20
-93.3038
11
73.8857
21
-93.3019
0
LINE
8
Black
10
73.8857
20
-93.3019
11
73.8862
21
-93.2998
0
LINE
8
Black
10
73.8862
20
-93.2998
11
73.9977
21
-93.0313
0
LINE
8
Black
10
73.9977
20
-93.0313
11
73.9977
21
-93.0264
0
LINE
8
Black
10
73.9977
20
-93.0264
11
73.9978
21
-93.0258
0
LINE
8
Black
10
73.9978
20
-93.0258
11
73.9977
21
-93.0251
0
LINE
8
Black
10
73.9977
20
-93.0251
11
74.0017
21
-93.0041
0
LINE
8
Black
10
74.0017
20
-93.0041
11
74.0054
21
-92.983
0
LINE
8
Black
10
74.0054
20
-92.983
11
74.0058
21
-92.9824
0
LINE
8
Black
10
74.0058
20
-92.9824
11
74.0059
21
-92.9818
0
LINE
8
Black
10
74.0059
20
-92.9818
11
74.0076
21
-92.9773
0
LINE
8
Black
10
74.0076
20
-92.9773
11
73.9981
21
-92.6866
0
LINE
8
Black
10
73.9981
20
-92.6866
11
73.9984
21
-92.6845
0
LINE
8
Black
10
73.9984
20
-92.6845
11
73.998
21
-92.6824
0
LINE
8
Black
10
73.998
20
-92.6824
11
73.9983
21
-92.3916
0
LINE
8
Black
10
73.9983
20
-92.3916
11
73.9964
21
-92.3871
0
LINE
8
Black
10
73.9964
20
-92.3871
11
73.9963
21
-92.3865
0
LINE
8
Black
10
73.9963
20
-92.3865
11
73.996
21
-92.3859
0
LINE
8
Black
10
73.996
20
-92.3859
11
73.9915
21
-92.3649
0
LINE
8
Black
10
73.9915
20
-92.3649
11
73.9869
21
-92.344
0
LINE
8
Black
10
73.9869
20
-92.344
11
73.987
21
-92.3434
0
LINE
8
Black
10
73.987
20
-92.3434
11
73.9869
21
-92.3427
0
LINE
8
Black
10
73.9869
20
-92.3427
11
73.9867
21
-92.3358
0
LINE
8
Black
10
73.9867
20
-92.3358
11
73.7892
21
-91.8591
0
LINE
8
Black
10
73.7892
20
-91.8591
11
73.7853
21
-91.8561
0
LINE
8
Black
10
73.7853
20
-91.8561
11
73.7769
21
-91.8428
0
LINE
8
Black
10
73.7769
20
-91.8428
11
73.7671
21
-91.8304
0
LINE
8
Black
10
73.7671
20
-91.8304
11
73.7651
21
-91.8243
0
LINE
8
Black
10
73.7651
20
-91.8243
11
73.7617
21
-91.8189
0
LINE
8
Black
10
73.7617
20
-91.8189
11
73.754
21
-91.8003
0
LINE
8
Black
10
73.754
20
-91.8003
11
73.302
21
-91.3476
0
LINE
8
Black
10
73.302
20
-91.3476
11
73.2811
21
-91.3389
0
LINE
8
Black
10
73.2811
20
-91.3389
11
73.2758
21
-91.3355
0
LINE
8
Black
10
73.2758
20
-91.3355
11
73.2698
21
-91.3336
0
LINE
8
Black
10
73.2698
20
-91.3336
11
73.2574
21
-91.3237
0
LINE
8
Black
10
73.2574
20
-91.3237
11
73.244
21
-91.3152
0
LINE
8
Black
10
73.244
20
-91.3152
11
73.242
21
-91.3126
0
LINE
8
Black
10
73.242
20
-91.3126
11
72.9838
21
-91.2154
0
LINE
8
Black
10
72.9838
20
-91.2154
11
72.9819
21
-91.2143
0
LINE
8
Black
10
72.9819
20
-91.2143
11
72.9798
21
-91.2138
0
LINE
8
Black
10
72.9798
20
-91.2138
11
72.7113
21
-91.1023
0
LINE
8
Black
10
72.7113
20
-91.1023
11
72.7064
21
-91.1023
0
LINE
8
Black
10
72.7064
20
-91.1023
11
72.7058
21
-91.1022
0
LINE
8
Black
10
72.7058
20
-91.1022
11
72.7051
21
-91.1023
0
LINE
8
Black
10
72.7051
20
-91.1023
11
72.6841
21
-91.0983
0
LINE
8
Black
10
72.6841
20
-91.0983
11
72.663
21
-91.0946
0
LINE
8
Black
10
72.663
20
-91.0946
11
72.6624
21
-91.0942
0
LINE
8
Black
10
72.6624
20
-91.0942
11
72.6618
21
-91.0941
0
LINE
8
Black
10
72.6618
20
-91.0941
11
72.6573
21
-91.0924
0
LINE
8
Black
10
72.6573
20
-91.0924
11
72.3666
21
-91.1019
0
LINE
8
Black
10
72.3666
20
-50.4619
11
72.3645
21
-50.4616
0
LINE
8
Black
10
72.3645
20
-50.4616
11
72.3624
21
-50.462
0
LINE
8
Black
10
72.3624
20
-50.462
11
72.0716
21
-50.4617
0
LINE
8
Black
10
72.0716
20
-50.4617
11
72.0671
21
-50.4636
0
LINE
8
Black
10
72.0671
20
-50.4636
11
72.0665
21
-50.4637
0
LINE
8
Black
10
72.0665
20
-50.4637
11
72.0659
21
-50.464
0
LINE
8
Black
10
72.0659
20
-50.464
11
72.0449
21
-50.4685
0
LINE
8
Black
10
72.0449
20
-50.4685
11
72.024
21
-50.4731
0
LINE
8
Black
10
72.024
20
-50.4731
11
72.0234
21
-50.473
0
LINE
8
Black
10
72.0234
20
-50.473
11
72.0227
21
-50.4731
0
LINE
8
Black
10
72.0227
20
-50.4731
11
72.0158
21
-50.4733
0
LINE
8
Black
10
72.0158
20
-50.4733
11
71.5391
21
-50.6708
0
LINE
8
Black
10
71.5391
20
-50.6708
11
71.5361
21
-50.6747
0
LINE
8
Black
10
71.5361
20
-50.6747
11
71.5228
21
-50.6831
0
LINE
8
Black
10
71.5228
20
-50.6831
11
71.5104
21
-50.6929
0
LINE
8
Black
10
71.5104
20
-50.6929
11
71.5043
21
-50.6949
0
LINE
8
Black
10
71.5043
20
-50.6949
11
71.4989
21
-50.6983
0
LINE
8
Black
10
71.4989
20
-50.6983
11
71.4803
21
-50.706
0
LINE
8
Black
10
71.4803
20
-50.706
11
71.0276
21
-51.158
0
LINE
8
Black
10
71.0276
20
-51.158
11
71.0189
21
-51.1789
0
LINE
8
Black
10
71.0189
20
-51.1789
11
71.0155
21
-51.1842
0
LINE
8
Black
10
71.0155
20
-51.1842
11
71.0136
21
-51.1902
0
LINE
8
Black
10
71.0136
20
-51.1902
11
71.0037
21
-51.2026
0
LINE
8
Black
10
71.0037
20
-51.2026
11
70.9952
21
-51.216
0
LINE
8
Black
10
70.9952
20
-51.216
11
70.9926
21
-51.218
0
LINE
8
Black
10
70.9926
20
-51.218
11
70.8954
21
-51.4762
0
LINE
8
Black
10
70.8954
20
-51.4762
11
70.8943
21
-51.4781
0
LINE
8
Black
10
70.8943
20
-51.4781
11
70.8938
21
-51.4802
0
LINE
8
Black
10
70.8938
20
-51.4802
11
70.7823
21
-51.7487
0
LINE
8
Black
10
70.7823
20
-51.7487
11
70.7823
21
-51.7536
0
LINE
8
Black
10
70.7823
20
-51.7536
11
70.7822
21
-51.7542
0
LINE
8
Black
10
70.7822
20
-51.7542
11
70.7823
21
-51.7549
0
LINE
8
Black
10
70.7823
20
-51.7549
11
70.7783
21
-51.7759
0
LINE
8
Black
10
70.7783
20
-51.7759
11
70.7746
21
-51.797
0
LINE
8
Black
10
70.7746
20
-51.797
11
70.7742
21
-51.7976
0
LINE
8
Black
10
70.7742
20
-51.7976
11
70.7741
21
-51.7982
0
LINE
8
Black
10
70.7741
20
-51.7982
11
70.7724
21
-51.8027
0
LINE
8
Black
10
70.7724
20
-51.8027
11
70.7819
21
-52.0934
0
LINE
8
Black
10
70.7819
20
-52.0934
11
70.7816
21
-52.0955
0
LINE
8
Black
10
70.7816
20
-52.0955
11
70.782
21
-52.0976
0
LINE
8
Black
10
70.782
20
-52.0976
11
70.7817
21
-52.3884
0
LINE
8
Black
10
70.7817
20
-52.3884
11
70.7836
21
-52.3929
0
LINE
8
Black
10
70.7836
20
-52.3929
11
70.7837
21
-52.3935
0
LINE
8
Black
10
70.7837
20
-52.3935
11
70.784
21
-52.3941
0
LINE
8
Black
10
70.784
20
-52.3941
11
70.7885
21
-52.4151
0
LINE
8
Black
10
70.7885
20
-52.4151
11
70.7931
21
-52.436
0
LINE
8
Black
10
70.7931
20
-52.436
11
70.793
21
-52.4366
0
LINE
8
Black
10
70.793
20
-52.4366
11
70.7931
21
-52.4373
0
LINE
8
Black
10
70.7931
20
-52.4373
11
70.7933
21
-52.4442
0
LINE
8
Black
10
70.7933
20
-52.4442
11
70.9908
21
-52.9209
0
LINE
8
Black
10
70.9908
20
-52.9209
11
70.9947
21
-52.9239
0
LINE
8
Black
10
70.9947
20
-52.9239
11
71.0031
21
-52.9372
0
LINE
8
Black
10
71.0031
20
-52.9372
11
71.0129
21
-52.9496
0
LINE
8
Black
10
71.0129
20
-52.9496
11
71.0149
21
-52.9557
0
LINE
8
Black
10
71.0149
20
-52.9557
11
71.0183
21
-52.9611
0
LINE
8
Black
10
71.0183
20
-52.9611
11
71.026
21
-52.9797
0
LINE
8
Black
10
71.026
20
-52.9797
11
71.478
21
-53.4324
0
LINE
8
Black
10
71.478
20
-53.4324
11
71.4989
21
-53.4411
0
LINE
8
Black
10
71.4989
20
-53.4411
11
71.5042
21
-53.4445
0
LINE
8
Black
10
71.5042
20
-53.4445
11
71.5102
21
-53.4464
0
LINE
8
Black
10
71.5102
20
-53.4464
11
71.5226
21
-53.4563
0
LINE
8
Black
10
71.5226
20
-53.4563
11
71.536
21
-53.4648
0
LINE
8
Black
10
71.536
20
-53.4648
11
71.538
21
-53.4674
0
LINE
8
Black
10
71.538
20
-53.4674
11
71.7962
21
-53.5646
0
LINE
8
Black
10
71.7962
20
-53.5646
11
71.7981
21
-53.5657
0
LINE
8
Black
10
71.7981
20
-53.5657
11
71.8002
21
-53.5662
0
LINE
8
Black
10
71.8002
20
-53.5662
11
72.0687
21
-53.6777
0
LINE
8
Black
10
72.0687
20
-53.6777
11
72.0736
21
-53.6777
0
LINE
8
Black
10
72.0736
20
-53.6777
11
72.0742
21
-53.6778
0
LINE
8
Black
10
72.0742
20
-53.6778
11
72.0749
21
-53.6777
0
LINE
8
Black
10
72.0749
20
-53.6777
11
72.0959
21
-53.6817
0
LINE
8
Black
10
72.0959
20
-53.6817
11
72.117
21
-53.6854
0
LINE
8
Black
10
72.117
20
-53.6854
11
72.1176
21
-53.6858
0
LINE
8
Black
10
72.1176
20
-53.6858
11
72.1182
21
-53.6859
0
LINE
8
Black
10
72.1182
20
-53.6859
11
72.1227
21
-53.6876
0
LINE
8
Black
10
72.1227
20
-53.6876
11
72.4134
21
-53.6781
0
LINE
8
Black
10
72.4134
20
-53.6781
11
72.4155
21
-53.6784
0
LINE
8
Black
10
72.4155
20
-53.6784
11
72.4176
21
-53.678
0
LINE
8
Black
10
72.4176
20
-53.678
11
72.7084
21
-53.6783
0
LINE
8
Black
10
72.7084
20
-53.6783
11
72.7129
21
-53.6764
0
LINE
8
Black
10
72.7129
20
-53.6764
11
72.7135
21
-53.6763
0
LINE
8
Black
10
72.7135
20
-53.6763
11
72.7141
21
-53.676
0
LINE
8
Black
10
72.7141
20
-53.676
11
72.7351
21
-53.6715
0
LINE
8
Black
10
72.7351
20
-53.6715
11
72.756
21
-53.6669
0
LINE
8
Black
10
72.756
20
-53.6669
11
72.7566
21
-53.667
0
LINE
8
Black
10
72.7566
20
-53.667
11
72.7573
21
-53.6669
0
LINE
8
Black
10
72.7573
20
-53.6669
11
72.7642
21
-53.6667
0
LINE
8
Black
10
72.7642
20
-53.6667
11
73.2409
21
-53.4692
0
LINE
8
Black
10
73.2409
20
-53.4692
11
73.2439
21
-53.4653
0
LINE
8
Black
10
73.2439
20
-53.4653
11
73.2572
21
-53.4569
0
LINE
8
Black
10
73.2572
20
-53.4569
11
73.2696
21
-53.4471
0
LINE
8
Black
10
73.2696
20
-53.4471
11
73.2757
21
-53.4451
0
LINE
8
Black
10
73.2757
20
-53.4451
11
73.2811
21
-53.4417
0
LINE
8
Black
10
73.2811
20
-53.4417
11
73.2997
21
-53.434
0
LINE
8
Black
10
73.2997
20
-53.434
11
73.7524
21
-52.982
0
LINE
8
Black
10
73.7524
20
-52.982
11
73.7611
21
-52.9611
0
LINE
8
Black
10
73.7611
20
-52.9611
11
73.7645
21
-52.9558
0
LINE
8
Black
10
73.7645
20
-52.9558
11
73.7664
21
-52.9498
0
LINE
8
Black
10
73.7664
20
-52.9498
11
73.7763
21
-52.9374
0
LINE
8
Black
10
73.7763
20
-52.9374
11
73.7848
21
-52.924
0
LINE
8
Black
10
73.7848
20
-52.924
11
73.7874
21
-52.922
0
LINE
8
Black
10
73.7874
20
-52.922
11
73.8846
21
-52.6638
0
LINE
8
Black
10
73.8846
20
-52.6638
11
73.8857
21
-52.6619
0
LINE
8
Black
10
73.8857
20
-52.6619
11
73.8862
21
-52.6598
0
LINE
8
Black
10
73.8862
20
-52.6598
11
73.9977
21
-52.3913
0
LINE
8
Black
10
73.9977
20
-52.3913
11
73.9977
21
-52.3864
0
LINE
8
Black
10
73.9977
20
-52.3864
11
73.9978
21
-52.3858
0
LINE
8
Black
10
73.9978
20
-52.3858
11
73.9977
21
-52.3851
0
LINE
8
Black
10
73.9977
20
-52.3851
11
74.0017
21
-52.3641
0
LINE
8
Black
10
74.0017
20
-52.3641
11
74.0054
21
-52.343
0
LINE
8
Black
10
74.0054
20
-52.343
11
74.0058
21
-52.3424
0
LINE
8
Black
10
74.0058
20
-52.3424
11
74.0059
21
-52.3418
0
LINE
8
Black
10
74.0059
20
-52.3418
11
74.0076
21
-52.3373
0
LINE
8
Black
10
74.0076
20
-52.3373
11
73.9981
21
-52.0466
0
LINE
8
Black
10
73.9981
20
-52.0466
11
73.9984
21
-52.0445
0
LINE
8
Black
10
73.9984
20
-52.0445
11
73.998
21
-52.0424
0
LINE
8
Black
10
73.998
20
-52.0424
11
73.9983
21
-51.7516
0
LINE
8
Black
10
73.9983
20
-51.7516
11
73.9964
21
-51.7471
0
LINE
8
Black
10
73.9964
20
-51.7471
11
73.9963
21
-51.7465
0
LINE
8
Black
10
73.9963
20
-51.7465
11
73.996
21
-51.7459
0
LINE
8
Black
10
73.996
20
-51.7459
11
73.9915
21
-51.7249
0
LINE
8
Black
10
73.9915
20
-51.7249
11
73.9869
21
-51.704
0
LINE
8
Black
10
73.9869
20
-51.704
11
73.987
21
-51.7034
0
LINE
8
Black
10
73.987
20
-51.7034
11
73.9869
21
-51.7027
0
LINE
8
Black
10
73.9869
20
-51.7027
11
73.9867
21
-51.6958
0
LINE
8
Black
10
73.9867
20
-51.6958
11
73.7892
21
-51.2191
0
LINE
8
Black
10
73.7892
20
-51.2191
11
73.7853
21
-51.2161
0
LINE
8
Black
10
73.7853
20
-51.2161
11
73.7769
21
-51.2028
0
LINE
8
Black
10
73.7769
20
-51.2028
11
73.7671
21
-51.1904
0
LINE
8
Black
10
73.7671
20
-51.1904
11
73.7651
21
-51.1843
0
LINE
8
Black
10
73.7651
20
-51.1843
11
73.7617
21
-51.1789
0
LINE
8
Black
10
73.7617
20
-51.1789
11
73.754
21
-51.1603
0
LINE
8
Black
10
73.754
20
-51.1603
11
73.302
21
-50.7076
0
LINE
8
Black
10
73.302
20
-50.7076
11
73.2811
21
-50.6989
0
LINE
8
Black
10
73.2811
20
-50.6989
11
73.2758
21
-50.6955
0
LINE
8
Black
10
73.2758
20
-50.6955
11
73.2698
21
-50.6936
0
LINE
8
Black
10
73.2698
20
-50.6936
11
73.2574
21
-50.6837
0
LINE
8
Black
10
73.2574
20
-50.6837
11
73.244
21
-50.6752
0
LINE
8
Black
10
73.244
20
-50.6752
11
73.242
21
-50.6726
0
LINE
8
Black
10
73.242
20
-50.6726
11
72.9838
21
-50.5754
0
LINE
8
Black
10
72.9838
20
-50.5754
11
72.9819
21
-50.5743
0
LINE
8
Black
10
72.9819
20
-50.5743
11
72.9798
21
-50.5738
0
LINE
8
Black
10
72.9798
20
-50.5738
11
72.7113
21
-50.4623
0
LINE
8
Black
10
72.7113
20
-50.4623
11
72.7064
21
-50.4623
0
LINE
8
Black
10
72.7064
20
-50.4623
11
72.7058
21
-50.4622
0
LINE
8
Black
10
72.7058
20
-50.4622
11
72.7051
21
-50.4623
0
LINE
8
Black
10
72.7051
20
-50.4623
11
72.6841
21
-50.4583
0
LINE
8
Black
10
72.6841
20
-50.4583
11
72.663
21
-50.4546
0
LINE
8
Black
10
72.663
20
-50.4546
11
72.6624
21
-50.4542
0
LINE
8
Black
10
72.6624
20
-50.4542
11
72.6618
21
-50.4541
0
LINE
8
Black
10
72.6618
20
-50.4541
11
72.6573
21
-50.4524
0
LINE
8
Black
10
72.6573
20
-50.4524
11
72.3666
21
-50.4619
0
LINE
8
Black
10
116.182
20
-42.2069
11
116.179
21
-42.2066
0
LINE
8
Black
10
116.179
20
-42.2066
11
116.177
21
-42.207
0
LINE
8
Black
10
116.177
20
-42.207
11
115.887
21
-42.2067
0
LINE
8
Black
10
115.887
20
-42.2067
11
115.882
21
-42.2086
0
LINE
8
Black
10
115.882
20
-42.2086
11
115.881
21
-42.2087
0
LINE
8
Black
10
115.881
20
-42.2087
11
115.881
21
-42.209
0
LINE
8
Black
10
115.881
20
-42.209
11
115.86
21
-42.2135
0
LINE
8
Black
10
115.86
20
-42.2135
11
115.839
21
-42.2181
0
LINE
8
Black
10
115.839
20
-42.2181
11
115.838
21
-42.218
0
LINE
8
Black
10
115.838
20
-42.218
11
115.838
21
-42.2181
0
LINE
8
Black
10
115.838
20
-42.2181
11
115.831
21
-42.2183
0
LINE
8
Black
10
115.831
20
-42.2183
11
115.354
21
-42.4158
0
LINE
8
Black
10
115.354
20
-42.4158
11
115.351
21
-42.4197
0
LINE
8
Black
10
115.351
20
-42.4197
11
115.338
21
-42.4281
0
LINE
8
Black
10
115.338
20
-42.4281
11
115.325
21
-42.4379
0
LINE
8
Black
10
115.325
20
-42.4379
11
115.319
21
-42.4399
0
LINE
8
Black
10
115.319
20
-42.4399
11
115.314
21
-42.4433
0
LINE
8
Black
10
115.314
20
-42.4433
11
115.295
21
-42.451
0
LINE
8
Black
10
115.295
20
-42.451
11
114.843
21
-42.903
0
LINE
8
Black
10
114.843
20
-42.903
11
114.834
21
-42.9239
0
LINE
8
Black
10
114.834
20
-42.9239
11
114.831
21
-42.9292
0
LINE
8
Black
10
114.831
20
-42.9292
11
114.829
21
-42.9352
0
LINE
8
Black
10
114.829
20
-42.9352
11
114.819
21
-42.9476
0
LINE
8
Black
10
114.819
20
-42.9476
11
114.81
21
-42.961
0
LINE
8
Black
10
114.81
20
-42.961
11
114.808
21
-42.963
0
LINE
8
Black
10
114.808
20
-42.963
11
114.71
21
-43.2212
0
LINE
8
Black
10
114.71
20
-43.2212
11
114.709
21
-43.2231
0
LINE
8
Black
10
114.709
20
-43.2231
11
114.709
21
-43.2252
0
LINE
8
Black
10
114.709
20
-43.2252
11
114.597
21
-43.4937
0
LINE
8
Black
10
114.597
20
-43.4937
11
114.597
21
-43.4986
0
LINE
8
Black
10
114.597
20
-43.4986
11
114.597
21
-43.4992
0
LINE
8
Black
10
114.597
20
-43.4992
11
114.597
21
-43.4999
0
LINE
8
Black
10
114.597
20
-43.4999
11
114.593
21
-43.5209
0
LINE
8
Black
10
114.593
20
-43.5209
11
114.59
21
-43.542
0
LINE
8
Black
10
114.59
20
-43.542
11
114.589
21
-43.5426
0
LINE
8
Black
10
114.589
20
-43.5426
11
114.589
21
-43.5432
0
LINE
8
Black
10
114.589
20
-43.5432
11
114.587
21
-43.5477
0
LINE
8
Black
10
114.587
20
-43.5477
11
114.597
21
-43.8384
0
LINE
8
Black
10
114.597
20
-43.8384
11
114.597
21
-43.8405
0
LINE
8
Black
10
114.597
20
-43.8405
11
114.597
21
-43.8426
0
LINE
8
Black
10
114.597
20
-43.8426
11
114.597
21
-44.1334
0
LINE
8
Black
10
114.597
20
-44.1334
11
114.599
21
-44.1379
0
LINE
8
Black
10
114.599
20
-44.1379
11
114.599
21
-44.1385
0
LINE
8
Black
10
114.599
20
-44.1385
11
114.599
21
-44.1391
0
LINE
8
Black
10
114.599
20
-44.1391
11
114.603
21
-44.1601
0
LINE
8
Black
10
114.603
20
-44.1601
11
114.608
21
-44.181
0
LINE
8
Black
10
114.608
20
-44.181
11
114.608
21
-44.1816
0
LINE
8
Black
10
114.608
20
-44.1816
11
114.608
21
-44.1823
0
LINE
8
Black
10
114.608
20
-44.1823
11
114.608
21
-44.1892
0
LINE
8
Black
10
114.608
20
-44.1892
11
114.806
21
-44.6659
0
LINE
8
Black
10
114.806
20
-44.6659
11
114.81
21
-44.6689
0
LINE
8
Black
10
114.81
20
-44.6689
11
114.818
21
-44.6822
0
LINE
8
Black
10
114.818
20
-44.6822
11
114.828
21
-44.6946
0
LINE
8
Black
10
114.828
20
-44.6946
11
114.83
21
-44.7007
0
LINE
8
Black
10
114.83
20
-44.7007
11
114.833
21
-44.7061
0
LINE
8
Black
10
114.833
20
-44.7061
11
114.841
21
-44.7247
0
LINE
8
Black
10
114.841
20
-44.7247
11
115.293
21
-45.1774
0
LINE
8
Black
10
115.293
20
-45.1774
11
115.314
21
-45.1861
0
LINE
8
Black
10
115.314
20
-45.1861
11
115.319
21
-45.1895
0
LINE
8
Black
10
115.319
20
-45.1895
11
115.325
21
-45.1914
0
LINE
8
Black
10
115.325
20
-45.1914
11
115.338
21
-45.2013
0
LINE
8
Black
10
115.338
20
-45.2013
11
115.351
21
-45.2098
0
LINE
8
Black
10
115.351
20
-45.2098
11
115.353
21
-45.2124
0
LINE
8
Black
10
115.353
20
-45.2124
11
115.611
21
-45.3096
0
LINE
8
Black
10
115.611
20
-45.3096
11
115.613
21
-45.3107
0
LINE
8
Black
10
115.613
20
-45.3107
11
115.615
21
-45.3112
0
LINE
8
Black
10
115.615
20
-45.3112
11
115.884
21
-45.4227
0
LINE
8
Black
10
115.884
20
-45.4227
11
115.889
21
-45.4227
0
LINE
8
Black
10
115.889
20
-45.4227
11
115.889
21
-45.4228
0
LINE
8
Black
10
115.889
20
-45.4228
11
115.89
21
-45.4227
0
LINE
8
Black
10
115.89
20
-45.4227
11
115.911
21
-45.4267
0
LINE
8
Black
10
115.911
20
-45.4267
11
115.932
21
-45.4304
0
LINE
8
Black
10
115.932
20
-45.4304
11
115.933
21
-45.4308
0
LINE
8
Black
10
115.933
20
-45.4308
11
115.933
21
-45.4309
0
LINE
8
Black
10
115.933
20
-45.4309
11
115.938
21
-45.4326
0
LINE
8
Black
10
115.938
20
-45.4326
11
116.228
21
-45.4231
0
LINE
8
Black
10
116.228
20
-45.4231
11
116.23
21
-45.4234
0
LINE
8
Black
10
116.23
20
-45.4234
11
116.233
21
-45.423
0
LINE
8
Black
10
116.233
20
-45.423
11
116.523
21
-45.4233
0
LINE
8
Black
10
116.523
20
-45.4233
11
116.528
21
-45.4214
0
LINE
8
Black
10
116.528
20
-45.4214
11
116.529
21
-45.4213
0
LINE
8
Black
10
116.529
20
-45.4213
11
116.529
21
-45.421
0
LINE
8
Black
10
116.529
20
-45.421
11
116.55
21
-45.4165
0
LINE
8
Black
10
116.55
20
-45.4165
11
116.571
21
-45.4119
0
LINE
8
Black
10
116.571
20
-45.4119
11
116.572
21
-45.412
0
LINE
8
Black
10
116.572
20
-45.412
11
116.572
21
-45.4119
0
LINE
8
Black
10
116.572
20
-45.4119
11
116.579
21
-45.4117
0
LINE
8
Black
10
116.579
20
-45.4117
11
117.056
21
-45.2142
0
LINE
8
Black
10
117.056
20
-45.2142
11
117.059
21
-45.2103
0
LINE
8
Black
10
117.059
20
-45.2103
11
117.072
21
-45.2019
0
LINE
8
Black
10
117.072
20
-45.2019
11
117.085
21
-45.1921
0
LINE
8
Black
10
117.085
20
-45.1921
11
117.091
21
-45.1901
0
LINE
8
Black
10
117.091
20
-45.1901
11
117.096
21
-45.1867
0
LINE
8
Black
10
117.096
20
-45.1867
11
117.115
21
-45.179
0
LINE
8
Black
10
117.115
20
-45.179
11
117.567
21
-44.727
0
LINE
8
Black
10
117.567
20
-44.727
11
117.576
21
-44.7061
0
LINE
8
Black
10
117.576
20
-44.7061
11
117.579
21
-44.7008
0
LINE
8
Black
10
117.579
20
-44.7008
11
117.581
21
-44.6948
0
LINE
8
Black
10
117.581
20
-44.6948
11
117.591
21
-44.6824
0
LINE
8
Black
10
117.591
20
-44.6824
11
117.6
21
-44.669
0
LINE
8
Black
10
117.6
20
-44.669
11
117.602
21
-44.667
0
LINE
8
Black
10
117.602
20
-44.667
11
117.7
21
-44.4088
0
LINE
8
Black
10
117.7
20
-44.4088
11
117.701
21
-44.4069
0
LINE
8
Black
10
117.701
20
-44.4069
11
117.701
21
-44.4048
0
LINE
8
Black
10
117.701
20
-44.4048
11
117.813
21
-44.1363
0
LINE
8
Black
10
117.813
20
-44.1363
11
117.813
21
-44.1314
0
LINE
8
Black
10
117.813
20
-44.1314
11
117.813
21
-44.1308
0
LINE
8
Black
10
117.813
20
-44.1308
11
117.813
21
-44.1301
0
LINE
8
Black
10
117.813
20
-44.1301
11
117.817
21
-44.1091
0
LINE
8
Black
10
117.817
20
-44.1091
11
117.82
21
-44.088
0
LINE
8
Black
10
117.82
20
-44.088
11
117.821
21
-44.0874
0
LINE
8
Black
10
117.821
20
-44.0874
11
117.821
21
-44.0868
0
LINE
8
Black
10
117.821
20
-44.0868
11
117.823
21
-44.0823
0
LINE
8
Black
10
117.823
20
-44.0823
11
117.813
21
-43.7916
0
LINE
8
Black
10
117.813
20
-43.7916
11
117.813
21
-43.7895
0
LINE
8
Black
10
117.813
20
-43.7895
11
117.813
21
-43.7874
0
LINE
8
Black
10
117.813
20
-43.7874
11
117.813
21
-43.4966
0
LINE
8
Black
10
117.813
20
-43.4966
11
117.811
21
-43.4921
0
LINE
8
Black
10
117.811
20
-43.4921
11
117.811
21
-43.4915
0
LINE
8
Black
10
117.811
20
-43.4915
11
117.811
21
-43.4909
0
LINE
8
Black
10
117.811
20
-43.4909
11
117.807
21
-43.4699
0
LINE
8
Black
10
117.807
20
-43.4699
11
117.802
21
-43.449
0
LINE
8
Black
10
117.802
20
-43.449
11
117.802
21
-43.4484
0
LINE
8
Black
10
117.802
20
-43.4484
11
117.802
21
-43.4477
0
LINE
8
Black
10
117.802
20
-43.4477
11
117.802
21
-43.4408
0
LINE
8
Black
10
117.802
20
-43.4408
11
117.604
21
-42.9641
0
LINE
8
Black
10
117.604
20
-42.9641
11
117.6
21
-42.9611
0
LINE
8
Black
10
117.6
20
-42.9611
11
117.592
21
-42.9478
0
LINE
8
Black
10
117.592
20
-42.9478
11
117.582
21
-42.9354
0
LINE
8
Black
10
117.582
20
-42.9354
11
117.58
21
-42.9293
0
LINE
8
Black
10
117.58
20
-42.9293
11
117.577
21
-42.9239
0
LINE
8
Black
10
117.577
20
-42.9239
11
117.569
21
-42.9053
0
LINE
8
Black
10
117.569
20
-42.9053
11
117.117
21
-42.4526
0
LINE
8
Black
10
117.117
20
-42.4526
11
117.096
21
-42.4439
0
LINE
8
Black
10
117.096
20
-42.4439
11
117.091
21
-42.4405
0
LINE
8
Black
10
117.091
20
-42.4405
11
117.085
21
-42.4386
0
LINE
8
Black
10
117.085
20
-42.4386
11
117.072
21
-42.4287
0
LINE
8
Black
10
117.072
20
-42.4287
11
117.059
21
-42.4202
0
LINE
8
Black
10
117.059
20
-42.4202
11
117.057
21
-42.4176
0
LINE
8
Black
10
117.057
20
-42.4176
11
116.799
21
-42.3204
0
LINE
8
Black
10
116.799
20
-42.3204
11
116.797
21
-42.3193
0
LINE
8
Black
10
116.797
20
-42.3193
11
116.795
21
-42.3188
0
LINE
8
Black
10
116.795
20
-42.3188
11
116.526
21
-42.2073
0
LINE
8
Black
10
116.526
20
-42.2073
11
116.521
21
-42.2073
0
LINE
8
Black
10
116.521
20
-42.2073
11
116.521
21
-42.2072
0
LINE
8
Black
10
116.521
20
-42.2072
11
116.52
21
-42.2073
0
LINE
8
Black
10
116.52
20
-42.2073
11
116.499
21
-42.2033
0
LINE
8
Black
10
116.499
20
-42.2033
11
116.478
21
-42.1996
0
LINE
8
Black
10
116.478
20
-42.1996
11
116.477
21
-42.1992
0
LINE
8
Black
10
116.477
20
-42.1992
11
116.477
21
-42.1991
0
LINE
8
Black
10
116.477
20
-42.1991
11
116.472
21
-42.1974
0
LINE
8
Black
10
116.472
20
-42.1974
11
116.182
21
-42.2069
0
LINE
8
Black
10
170.157
20
-42.2069
11
170.154
21
-42.2066
0
LINE
8
Black
10
170.154
20
-42.2066
11
170.152
21
-42.207
0
LINE
8
Black
10
170.152
20
-42.207
11
169.862
21
-42.2067
0
LINE
8
Black
10
169.862
20
-42.2067
11
169.857
21
-42.2086
0
LINE
8
Black
10
169.857
20
-42.2086
11
169.856
21
-42.2087
0
LINE
8
Black
10
169.856
20
-42.2087
11
169.856
21
-42.209
0
LINE
8
Black
10
169.856
20
-42.209
11
169.835
21
-42.2135
0
LINE
8
Black
10
169.835
20
-42.2135
11
169.814
21
-42.2181
0
LINE
8
Black
10
169.814
20
-42.2181
11
169.813
21
-42.218
0
LINE
8
Black
10
169.813
20
-42.218
11
169.813
21
-42.2181
0
LINE
8
Black
10
169.813
20
-42.2181
11
169.806
21
-42.2183
0
LINE
8
Black
10
169.806
20
-42.2183
11
169.329
21
-42.4158
0
LINE
8
Black
10
169.329
20
-42.4158
11
169.326
21
-42.4197
0
LINE
8
Black
10
169.326
20
-42.4197
11
169.313
21
-42.4281
0
LINE
8
Black
10
169.313
20
-42.4281
11
169.3
21
-42.4379
0
LINE
8
Black
10
169.3
20
-42.4379
11
169.294
21
-42.4399
0
LINE
8
Black
10
169.294
20
-42.4399
11
169.289
21
-42.4433
0
LINE
8
Black
10
169.289
20
-42.4433
11
169.27
21
-42.451
0
LINE
8
Black
10
169.27
20
-42.451
11
168.818
21
-42.903
0
LINE
8
Black
10
168.818
20
-42.903
11
168.809
21
-42.9239
0
LINE
8
Black
10
168.809
20
-42.9239
11
168.806
21
-42.9292
0
LINE
8
Black
10
168.806
20
-42.9292
11
168.804
21
-42.9352
0
LINE
8
Black
10
168.804
20
-42.9352
11
168.794
21
-42.9476
0
LINE
8
Black
10
168.794
20
-42.9476
11
168.785
21
-42.961
0
LINE
8
Black
10
168.785
20
-42.961
11
168.783
21
-42.963
0
LINE
8
Black
10
168.783
20
-42.963
11
168.685
21
-43.2212
0
LINE
8
Black
10
168.685
20
-43.2212
11
168.684
21
-43.2231
0
LINE
8
Black
10
168.684
20
-43.2231
11
168.684
21
-43.2252
0
LINE
8
Black
10
168.684
20
-43.2252
11
168.572
21
-43.4937
0
LINE
8
Black
10
168.572
20
-43.4937
11
168.572
21
-43.4986
0
LINE
8
Black
10
168.572
20
-43.4986
11
168.572
21
-43.4992
0
LINE
8
Black
10
168.572
20
-43.4992
11
168.572
21
-43.4999
0
LINE
8
Black
10
168.572
20
-43.4999
11
168.568
21
-43.5209
0
LINE
8
Black
10
168.568
20
-43.5209
11
168.565
21
-43.542
0
LINE
8
Black
10
168.565
20
-43.542
11
168.564
21
-43.5426
0
LINE
8
Black
10
168.564
20
-43.5426
11
168.564
21
-43.5432
0
LINE
8
Black
10
168.564
20
-43.5432
11
168.562
21
-43.5477
0
LINE
8
Black
10
168.562
20
-43.5477
11
168.572
21
-43.8384
0
LINE
8
Black
10
168.572
20
-43.8384
11
168.572
21
-43.8405
0
LINE
8
Black
10
168.572
20
-43.8405
11
168.572
21
-43.8426
0
LINE
8
Black
10
168.572
20
-43.8426
11
168.572
21
-44.1334
0
LINE
8
Black
10
168.572
20
-44.1334
11
168.574
21
-44.1379
0
LINE
8
Black
10
168.574
20
-44.1379
11
168.574
21
-44.1385
0
LINE
8
Black
10
168.574
20
-44.1385
11
168.574
21
-44.1391
0
LINE
8
Black
10
168.574
20
-44.1391
11
168.578
21
-44.1601
0
LINE
8
Black
10
168.578
20
-44.1601
11
168.583
21
-44.181
0
LINE
8
Black
10
168.583
20
-44.181
11
168.583
21
-44.1816
0
LINE
8
Black
10
168.583
20
-44.1816
11
168.583
21
-44.1823
0
LINE
8
Black
10
168.583
20
-44.1823
11
168.583
21
-44.1892
0
LINE
8
Black
10
168.583
20
-44.1892
11
168.781
21
-44.6659
0
LINE
8
Black
10
168.781
20
-44.6659
11
168.785
21
-44.6689
0
LINE
8
Black
10
168.785
20
-44.6689
11
168.793
21
-44.6822
0
LINE
8
Black
10
168.793
20
-44.6822
11
168.803
21
-44.6946
0
LINE
8
Black
10
168.803
20
-44.6946
11
168.805
21
-44.7007
0
LINE
8
Black
10
168.805
20
-44.7007
11
168.808
21
-44.7061
0
LINE
8
Black
10
168.808
20
-44.7061
11
168.816
21
-44.7247
0
LINE
8
Black
10
168.816
20
-44.7247
11
169.268
21
-45.1774
0
LINE
8
Black
10
169.268
20
-45.1774
11
169.289
21
-45.1861
0
LINE
8
Black
10
169.289
20
-45.1861
11
169.294
21
-45.1895
0
LINE
8
Black
10
169.294
20
-45.1895
11
169.3
21
-45.1914
0
LINE
8
Black
10
169.3
20
-45.1914
11
169.313
21
-45.2013
0
LINE
8
Black
10
169.313
20
-45.2013
11
169.326
21
-45.2098
0
LINE
8
Black
10
169.326
20
-45.2098
11
169.328
21
-45.2124
0
LINE
8
Black
10
169.328
20
-45.2124
11
169.586
21
-45.3096
0
LINE
8
Black
10
169.586
20
-45.3096
11
169.588
21
-45.3107
0
LINE
8
Black
10
169.588
20
-45.3107
11
169.59
21
-45.3112
0
LINE
8
Black
10
169.59
20
-45.3112
11
169.859
21
-45.4227
0
LINE
8
Black
10
169.859
20
-45.4227
11
169.864
21
-45.4227
0
LINE
8
Black
10
169.864
20
-45.4227
11
169.864
21
-45.4228
0
LINE
8
Black
10
169.864
20
-45.4228
11
169.865
21
-45.4227
0
LINE
8
Black
10
169.865
20
-45.4227
11
169.886
21
-45.4267
0
LINE
8
Black
10
169.886
20
-45.4267
11
169.907
21
-45.4304
0
LINE
8
Black
10
169.907
20
-45.4304
11
169.908
21
-45.4308
0
LINE
8
Black
10
169.908
20
-45.4308
11
169.908
21
-45.4309
0
LINE
8
Black
10
169.908
20
-45.4309
11
169.913
21
-45.4326
0
LINE
8
Black
10
169.913
20
-45.4326
11
170.203
21
-45.4231
0
LINE
8
Black
10
170.203
20
-45.4231
11
170.206
21
-45.4234
0
LINE
8
Black
10
170.206
20
-45.4234
11
170.208
21
-45.423
0
LINE
8
Black
10
170.208
20
-45.423
11
170.498
21
-45.4233
0
LINE
8
Black
10
170.498
20
-45.4233
11
170.503
21
-45.4214
0
LINE
8
Black
10
170.503
20
-45.4214
11
170.504
21
-45.4213
0
LINE
8
Black
10
170.504
20
-45.4213
11
170.504
21
-45.421
0
LINE
8
Black
10
170.504
20
-45.421
11
170.525
21
-45.4165
0
LINE
8
Black
10
170.525
20
-45.4165
11
170.546
21
-45.4119
0
LINE
8
Black
10
170.546
20
-45.4119
11
170.547
21
-45.412
0
LINE
8
Black
10
170.547
20
-45.412
11
170.547
21
-45.4119
0
LINE
8
Black
10
170.547
20
-45.4119
11
170.554
21
-45.4117
0
LINE
8
Black
10
170.554
20
-45.4117
11
171.031
21
-45.2142
0
LINE
8
Black
10
171.031
20
-45.2142
11
171.034
21
-45.2103
0
LINE
8
Black
10
171.034
20
-45.2103
11
171.047
21
-45.2019
0
LINE
8
Black
10
171.047
20
-45.2019
11
171.06
21
-45.1921
0
LINE
8
Black
10
171.06
20
-45.1921
11
171.066
21
-45.1901
0
LINE
8
Black
10
171.066
20
-45.1901
11
171.071
21
-45.1867
0
LINE
8
Black
10
171.071
20
-45.1867
11
171.09
21
-45.179
0
LINE
8
Black
10
171.09
20
-45.179
11
171.542
21
-44.727
0
LINE
8
Black
10
171.542
20
-44.727
11
171.551
21
-44.7061
0
LINE
8
Black
10
171.551
20
-44.7061
11
171.554
21
-44.7008
0
LINE
8
Black
10
171.554
20
-44.7008
11
171.556
21
-44.6948
0
LINE
8
Black
10
171.556
20
-44.6948
11
171.566
21
-44.6824
0
LINE
8
Black
10
171.566
20
-44.6824
11
171.575
21
-44.669
0
LINE
8
Black
10
171.575
20
-44.669
11
171.577
21
-44.667
0
LINE
8
Black
10
171.577
20
-44.667
11
171.675
21
-44.4088
0
LINE
8
Black
10
171.675
20
-44.4088
11
171.676
21
-44.4069
0
LINE
8
Black
10
171.676
20
-44.4069
11
171.676
21
-44.4048
0
LINE
8
Black
10
171.676
20
-44.4048
11
171.788
21
-44.1363
0
LINE
8
Black
10
171.788
20
-44.1363
11
171.788
21
-44.1314
0
LINE
8
Black
10
171.788
20
-44.1314
11
171.788
21
-44.1308
0
LINE
8
Black
10
171.788
20
-44.1308
11
171.788
21
-44.1301
0
LINE
8
Black
10
171.788
20
-44.1301
11
171.792
21
-44.1091
0
LINE
8
Black
10
171.792
20
-44.1091
11
171.795
21
-44.088
0
LINE
8
Black
10
171.795
20
-44.088
11
171.796
21
-44.0874
0
LINE
8
Black
10
171.796
20
-44.0874
11
171.796
21
-44.0868
0
LINE
8
Black
10
171.796
20
-44.0868
11
171.798
21
-44.0823
0
LINE
8
Black
10
171.798
20
-44.0823
11
171.788
21
-43.7916
0
LINE
8
Black
10
171.788
20
-43.7916
11
171.788
21
-43.7895
0
LINE
8
Black
10
171.788
20
-43.7895
11
171.788
21
-43.7874
0
LINE
8
Black
10
171.788
20
-43.7874
11
171.788
21
-43.5265
0
LINE
8
Black
10
171.788
20
-43.5265
11
171.788
21
-43.5265
0
LINE
8
Black
10
171.788
20
-43.5265
11
171.788
21
-43.5265
0
LINE
8
Black
10
171.788
20
-43.5265
11
171.788
21
-43.4965
0
LINE
8
Black
10
171.788
20
-43.4965
11
171.786
21
-43.4921
0
LINE
8
Black
10
171.786
20
-43.4921
11
171.786
21
-43.4915
0
LINE
8
Black
10
171.786
20
-43.4915
11
171.786
21
-43.4909
0
LINE
8
Black
10
171.786
20
-43.4909
11
171.782
21
-43.4699
0
LINE
8
Black
10
171.782
20
-43.4699
11
171.777
21
-43.449
0
LINE
8
Black
10
171.777
20
-43.449
11
171.777
21
-43.4484
0
LINE
8
Black
10
171.777
20
-43.4484
11
171.777
21
-43.4477
0
LINE
8
Black
10
171.777
20
-43.4477
11
171.777
21
-43.4408
0
LINE
8
Black
10
171.777
20
-43.4408
11
171.579
21
-42.9641
0
LINE
8
Black
10
171.579
20
-42.9641
11
171.575
21
-42.9611
0
LINE
8
Black
10
171.575
20
-42.9611
11
171.567
21
-42.9478
0
LINE
8
Black
10
171.567
20
-42.9478
11
171.557
21
-42.9354
0
LINE
8
Black
10
171.557
20
-42.9354
11
171.555
21
-42.9293
0
LINE
8
Black
10
171.555
20
-42.9293
11
171.552
21
-42.9239
0
LINE
8
Black
10
171.552
20
-42.9239
11
171.544
21
-42.9053
0
LINE
8
Black
10
171.544
20
-42.9053
11
171.092
21
-42.4526
0
LINE
8
Black
10
171.092
20
-42.4526
11
171.071
21
-42.4439
0
LINE
8
Black
10
171.071
20
-42.4439
11
171.066
21
-42.4405
0
LINE
8
Black
10
171.066
20
-42.4405
11
171.06
21
-42.4386
0
LINE
8
Black
10
171.06
20
-42.4386
11
171.047
21
-42.4287
0
LINE
8
Black
10
171.047
20
-42.4287
11
171.034
21
-42.4202
0
LINE
8
Black
10
171.034
20
-42.4202
11
171.032
21
-42.4176
0
LINE
8
Black
10
171.032
20
-42.4176
11
170.774
21
-42.3204
0
LINE
8
Black
10
170.774
20
-42.3204
11
170.772
21
-42.3193
0
LINE
8
Black
10
170.772
20
-42.3193
11
170.77
21
-42.3188
0
LINE
8
Black
10
170.77
20
-42.3188
11
170.501
21
-42.2073
0
LINE
8
Black
10
170.501
20
-42.2073
11
170.496
21
-42.2073
0
LINE
8
Black
10
170.496
20
-42.2073
11
170.496
21
-42.2072
0
LINE
8
Black
10
170.496
20
-42.2072
11
170.495
21
-42.2073
0
LINE
8
Black
10
170.495
20
-42.2073
11
170.474
21
-42.2033
0
LINE
8
Black
10
170.474
20
-42.2033
11
170.453
21
-42.1996
0
LINE
8
Black
10
170.453
20
-42.1996
11
170.452
21
-42.1992
0
LINE
8
Black
10
170.452
20
-42.1992
11
170.452
21
-42.1991
0
LINE
8
Black
10
170.452
20
-42.1991
11
170.447
21
-42.1974
0
LINE
8
Black
10
170.447
20
-42.1974
11
170.157
21
-42.2069
0
LINE
8
Black
10
210.797
20
-42.2069
11
210.794
21
-42.2066
0
LINE
8
Black
10
210.794
20
-42.2066
11
210.792
21
-42.207
0
LINE
8
Black
10
210.792
20
-42.207
11
210.502
21
-42.2067
0
LINE
8
Black
10
210.502
20
-42.2067
11
210.497
21
-42.2086
0
LINE
8
Black
10
210.497
20
-42.2086
11
210.496
21
-42.2087
0
LINE
8
Black
10
210.496
20
-42.2087
11
210.496
21
-42.209
0
LINE
8
Black
10
210.496
20
-42.209
11
210.475
21
-42.2135
0
LINE
8
Black
10
210.475
20
-42.2135
11
210.454
21
-42.2181
0
LINE
8
Black
10
210.454
20
-42.2181
11
210.453
21
-42.218
0
LINE
8
Black
10
210.453
20
-42.218
11
210.453
21
-42.2181
0
LINE
8
Black
10
210.453
20
-42.2181
11
210.446
21
-42.2183
0
LINE
8
Black
10
210.446
20
-42.2183
11
209.969
21
-42.4158
0
LINE
8
Black
10
209.969
20
-42.4158
11
209.966
21
-42.4197
0
LINE
8
Black
10
209.966
20
-42.4197
11
209.953
21
-42.4281
0
LINE
8
Black
10
209.953
20
-42.4281
11
209.94
21
-42.4379
0
LINE
8
Black
10
209.94
20
-42.4379
11
209.934
21
-42.4399
0
LINE
8
Black
10
209.934
20
-42.4399
11
209.929
21
-42.4433
0
LINE
8
Black
10
209.929
20
-42.4433
11
209.91
21
-42.451
0
LINE
8
Black
10
209.91
20
-42.451
11
209.458
21
-42.903
0
LINE
8
Black
10
209.458
20
-42.903
11
209.449
21
-42.9239
0
LINE
8
Black
10
209.449
20
-42.9239
11
209.446
21
-42.9292
0
LINE
8
Black
10
209.446
20
-42.9292
11
209.444
21
-42.9352
0
LINE
8
Black
10
209.444
20
-42.9352
11
209.434
21
-42.9476
0
LINE
8
Black
10
209.434
20
-42.9476
11
209.425
21
-42.961
0
LINE
8
Black
10
209.425
20
-42.961
11
209.423
21
-42.963
0
LINE
8
Black
10
209.423
20
-42.963
11
209.325
21
-43.2212
0
LINE
8
Black
10
209.325
20
-43.2212
11
209.324
21
-43.2231
0
LINE
8
Black
10
209.324
20
-43.2231
11
209.324
21
-43.2252
0
LINE
8
Black
10
209.324
20
-43.2252
11
209.212
21
-43.4937
0
LINE
8
Black
10
209.212
20
-43.4937
11
209.212
21
-43.4986
0
LINE
8
Black
10
209.212
20
-43.4986
11
209.212
21
-43.4992
0
LINE
8
Black
10
209.212
20
-43.4992
11
209.212
21
-43.4999
0
LINE
8
Black
10
209.212
20
-43.4999
11
209.208
21
-43.5209
0
LINE
8
Black
10
209.208
20
-43.5209
11
209.205
21
-43.542
0
LINE
8
Black
10
209.205
20
-43.542
11
209.204
21
-43.5426
0
LINE
8
Black
10
209.204
20
-43.5426
11
209.204
21
-43.5432
0
LINE
8
Black
10
209.204
20
-43.5432
11
209.202
21
-43.5477
0
LINE
8
Black
10
209.202
20
-43.5477
11
209.212
21
-43.8384
0
LINE
8
Black
10
209.212
20
-43.8384
11
209.212
21
-43.8405
0
LINE
8
Black
10
209.212
20
-43.8405
11
209.212
21
-43.8426
0
LINE
8
Black
10
209.212
20
-43.8426
11
209.212
21
-44.1334
0
LINE
8
Black
10
209.212
20
-44.1334
11
209.214
21
-44.1379
0
LINE
8
Black
10
209.214
20
-44.1379
11
209.214
21
-44.1385
0
LINE
8
Black
10
209.214
20
-44.1385
11
209.214
21
-44.1391
0
LINE
8
Black
10
209.214
20
-44.1391
11
209.218
21
-44.1601
0
LINE
8
Black
10
209.218
20
-44.1601
11
209.223
21
-44.181
0
LINE
8
Black
10
209.223
20
-44.181
11
209.223
21
-44.1816
0
LINE
8
Black
10
209.223
20
-44.1816
11
209.223
21
-44.1823
0
LINE
8
Black
10
209.223
20
-44.1823
11
209.223
21
-44.1892
0
LINE
8
Black
10
209.223
20
-44.1892
11
209.421
21
-44.6659
0
LINE
8
Black
10
209.421
20
-44.6659
11
209.425
21
-44.6689
0
LINE
8
Black
10
209.425
20
-44.6689
11
209.433
21
-44.6822
0
LINE
8
Black
10
209.433
20
-44.6822
11
209.443
21
-44.6946
0
LINE
8
Black
10
209.443
20
-44.6946
11
209.445
21
-44.7007
0
LINE
8
Black
10
209.445
20
-44.7007
11
209.448
21
-44.7061
0
LINE
8
Black
10
209.448
20
-44.7061
11
209.456
21
-44.7247
0
LINE
8
Black
10
209.456
20
-44.7247
11
209.908
21
-45.1774
0
LINE
8
Black
10
209.908
20
-45.1774
11
209.929
21
-45.1861
0
LINE
8
Black
10
209.929
20
-45.1861
11
209.934
21
-45.1895
0
LINE
8
Black
10
209.934
20
-45.1895
11
209.94
21
-45.1914
0
LINE
8
Black
10
209.94
20
-45.1914
11
209.953
21
-45.2013
0
LINE
8
Black
10
209.953
20
-45.2013
11
209.966
21
-45.2098
0
LINE
8
Black
10
209.966
20
-45.2098
11
209.968
21
-45.2124
0
LINE
8
Black
10
209.968
20
-45.2124
11
210.226
21
-45.3096
0
LINE
8
Black
10
210.226
20
-45.3096
11
210.228
21
-45.3107
0
LINE
8
Black
10
210.228
20
-45.3107
11
210.23
21
-45.3112
0
LINE
8
Black
10
210.23
20
-45.3112
11
210.499
21
-45.4227
0
LINE
8
Black
10
210.499
20
-45.4227
11
210.504
21
-45.4227
0
LINE
8
Black
10
210.504
20
-45.4227
11
210.504
21
-45.4228
0
LINE
8
Black
10
210.504
20
-45.4228
11
210.505
21
-45.4227
0
LINE
8
Black
10
210.505
20
-45.4227
11
210.526
21
-45.4267
0
LINE
8
Black
10
210.526
20
-45.4267
11
210.547
21
-45.4304
0
LINE
8
Black
10
210.547
20
-45.4304
11
210.548
21
-45.4308
0
LINE
8
Black
10
210.548
20
-45.4308
11
210.548
21
-45.4309
0
LINE
8
Black
10
210.548
20
-45.4309
11
210.553
21
-45.4326
0
LINE
8
Black
10
210.553
20
-45.4326
11
210.843
21
-45.4231
0
LINE
8
Black
10
210.843
20
-45.4231
11
210.845
21
-45.4234
0
LINE
8
Black
10
210.845
20
-45.4234
11
210.848
21
-45.423
0
LINE
8
Black
10
210.848
20
-45.423
11
211.138
21
-45.4233
0
LINE
8
Black
10
211.138
20
-45.4233
11
211.143
21
-45.4214
0
LINE
8
Black
10
211.143
20
-45.4214
11
211.144
21
-45.4213
0
LINE
8
Black
10
211.144
20
-45.4213
11
211.144
21
-45.421
0
LINE
8
Black
10
211.144
20
-45.421
11
211.165
21
-45.4165
0
LINE
8
Black
10
211.165
20
-45.4165
11
211.186
21
-45.4119
0
LINE
8
Black
10
211.186
20
-45.4119
11
211.187
21
-45.412
0
LINE
8
Black
10
211.187
20
-45.412
11
211.187
21
-45.4119
0
LINE
8
Black
10
211.187
20
-45.4119
11
211.194
21
-45.4117
0
LINE
8
Black
10
211.194
20
-45.4117
11
211.671
21
-45.2142
0
LINE
8
Black
10
211.671
20
-45.2142
11
211.674
21
-45.2103
0
LINE
8
Black
10
211.674
20
-45.2103
11
211.687
21
-45.2019
0
LINE
8
Black
10
211.687
20
-45.2019
11
211.7
21
-45.1921
0
LINE
8
Black
10
211.7
20
-45.1921
11
211.706
21
-45.1901
0
LINE
8
Black
10
211.706
20
-45.1901
11
211.711
21
-45.1867
0
LINE
8
Black
10
211.711
20
-45.1867
11
211.73
21
-45.179
0
LINE
8
Black
10
211.73
20
-45.179
11
212.182
21
-44.727
0
LINE
8
Black
10
212.182
20
-44.727
11
212.191
21
-44.7061
0
LINE
8
Black
10
212.191
20
-44.7061
11
212.194
21
-44.7008
0
LINE
8
Black
10
212.194
20
-44.7008
11
212.196
21
-44.6948
0
LINE
8
Black
10
212.196
20
-44.6948
11
212.206
21
-44.6824
0
LINE
8
Black
10
212.206
20
-44.6824
11
212.215
21
-44.669
0
LINE
8
Black
10
212.215
20
-44.669
11
212.217
21
-44.667
0
LINE
8
Black
10
212.217
20
-44.667
11
212.315
21
-44.4088
0
LINE
8
Black
10
212.315
20
-44.4088
11
212.316
21
-44.4069
0
LINE
8
Black
10
212.316
20
-44.4069
11
212.316
21
-44.4048
0
LINE
8
Black
10
212.316
20
-44.4048
11
212.428
21
-44.1363
0
LINE
8
Black
10
212.428
20
-44.1363
11
212.428
21
-44.1314
0
LINE
8
Black
10
212.428
20
-44.1314
11
212.428
21
-44.1308
0
LINE
8
Black
10
212.428
20
-44.1308
11
212.428
21
-44.1301
0
LINE
8
Black
10
212.428
20
-44.1301
11
212.432
21
-44.1091
0
LINE
8
Black
10
212.432
20
-44.1091
11
212.435
21
-44.088
0
LINE
8
Black
10
212.435
20
-44.088
11
212.436
21
-44.0874
0
LINE
8
Black
10
212.436
20
-44.0874
11
212.436
21
-44.0868
0
LINE
8
Black
10
212.436
20
-44.0868
11
212.438
21
-44.0823
0
LINE
8
Black
10
212.438
20
-44.0823
11
212.428
21
-43.7916
0
LINE
8
Black
10
212.428
20
-43.7916
11
212.428
21
-43.7895
0
LINE
8
Black
10
212.428
20
-43.7895
11
212.428
21
-43.7874
0
LINE
8
Black
10
212.428
20
-43.7874
11
212.428
21
-43.4966
0
LINE
8
Black
10
212.428
20
-43.4966
11
212.426
21
-43.4921
0
LINE
8
Black
10
212.426
20
-43.4921
11
212.426
21
-43.4915
0
LINE
8
Black
10
212.426
20
-43.4915
11
212.426
21
-43.4909
0
LINE
8
Black
10
212.426
20
-43.4909
11
212.422
21
-43.4699
0
LINE
8
Black
10
212.422
20
-43.4699
11
212.417
21
-43.449
0
LINE
8
Black
10
212.417
20
-43.449
11
212.417
21
-43.4484
0
LINE
8
Black
10
212.417
20
-43.4484
11
212.417
21
-43.4477
0
LINE
8
Black
10
212.417
20
-43.4477
11
212.417
21
-43.4408
0
LINE
8
Black
10
212.417
20
-43.4408
11
212.219
21
-42.9641
0
LINE
8
Black
10
212.219
20
-42.9641
11
212.215
21
-42.9611
0
LINE
8
Black
10
212.215
20
-42.9611
11
212.207
21
-42.9478
0
LINE
8
Black
10
212.207
20
-42.9478
11
212.197
21
-42.9354
0
LINE
8
Black
10
212.197
20
-42.9354
11
212.195
21
-42.9293
0
LINE
8
Black
10
212.195
20
-42.9293
11
212.192
21
-42.9239
0
LINE
8
Black
10
212.192
20
-42.9239
11
212.184
21
-42.9053
0
LINE
8
Black
10
212.184
20
-42.9053
11
211.732
21
-42.4526
0
LINE
8
Black
10
211.732
20
-42.4526
11
211.711
21
-42.4439
0
LINE
8
Black
10
211.711
20
-42.4439
11
211.706
21
-42.4405
0
LINE
8
Black
10
211.706
20
-42.4405
11
211.7
21
-42.4386
0
LINE
8
Black
10
211.7
20
-42.4386
11
211.687
21
-42.4287
0
LINE
8
Black
10
211.687
20
-42.4287
11
211.674
21
-42.4202
0
LINE
8
Black
10
211.674
20
-42.4202
11
211.672
21
-42.4176
0
LINE
8
Black
10
211.672
20
-42.4176
11
211.414
21
-42.3204
0
LINE
8
Black
10
211.414
20
-42.3204
11
211.412
21
-42.3193
0
LINE
8
Black
10
211.412
20
-42.3193
11
211.41
21
-42.3188
0
LINE
8
Black
10
211.41
20
-42.3188
11
211.141
21
-42.2073
0
LINE
8
Black
10
211.141
20
-42.2073
11
211.136
21
-42.2073
0
LINE
8
Black
10
211.136
20
-42.2073
11
211.136
21
-42.2072
0
LINE
8
Black
10
211.136
20
-42.2072
11
211.135
21
-42.2073
0
LINE
8
Black
10
211.135
20
-42.2073
11
211.114
21
-42.2033
0
LINE
8
Black
10
211.114
20
-42.2033
11
211.093
21
-42.1996
0
LINE
8
Black
10
211.093
20
-42.1996
11
211.092
21
-42.1992
0
LINE
8
Black
10
211.092
20
-42.1992
11
211.092
21
-42.1991
0
LINE
8
Black
10
211.092
20
-42.1991
11
211.087
21
-42.1974
0
LINE
8
Black
10
211.087
20
-42.1974
11
210.797
21
-42.2069
0
LINE
8
Black
10
192.783
20
-140.567
11
193.115
21
-140.759
0
LINE
8
Black
10
193.115
20
-140.759
11
193.361
21
-141.053
0
LINE
8
Black
10
193.361
20
-141.053
11
193.492
21
-141.413
0
LINE
8
Black
10
193.492
20
-141.413
11
193.492
21
-141.797
0
LINE
8
Black
10
193.492
20
-141.797
11
193.361
21
-142.157
0
LINE
8
Black
10
193.361
20
-142.157
11
193.115
21
-142.451
0
LINE
8
Black
10
193.115
20
-142.451
11
192.783
21
-142.643
0
LINE
8
Black
10
192.783
20
-142.643
11
192.405
21
-142.709
0
LINE
8
Black
10
192.405
20
-142.709
11
192.027
21
-142.643
0
LINE
8
Black
10
192.027
20
-142.643
11
191.695
21
-142.451
0
LINE
8
Black
10
191.695
20
-142.451
11
191.449
21
-142.157
0
LINE
8
Black
10
191.449
20
-142.157
11
191.318
21
-141.797
0
LINE
8
Black
10
191.318
20
-141.797
11
191.318
21
-141.413
0
LINE
8
Black
10
191.318
20
-141.413
11
191.449
21
-141.053
0
LINE
8
Black
10
191.449
20
-141.053
11
191.695
21
-140.759
0
LINE
8
Black
10
191.695
20
-140.759
11
192.027
21
-140.567
0
LINE
8
Black
10
192.027
20
-140.567
11
192.405
21
-140.501
0
LINE
8
Black
10
192.405
20
-140.501
11
192.783
21
-140.567
0
LINE
8
Black
10
72.7677
20
-131.677
11
73.0998
21
-131.869
0
LINE
8
Black
10
73.0998
20
-131.869
11
73.3463
21
-132.163
0
LINE
8
Black
10
73.3463
20
-132.163
11
73.4774
21
-132.523
0
LINE
8
Black
10
73.4774
20
-132.523
11
73.4774
21
-132.907
0
LINE
8
Black
10
73.4774
20
-132.907
11
73.3463
21
-133.267
0
LINE
8
Black
10
73.3463
20
-133.267
11
73.0998
21
-133.561
0
LINE
8
Black
10
73.0998
20
-133.561
11
72.7677
21
-133.753
0
LINE
8
Black
10
72.7677
20
-133.753
11
72.39
21
-133.819
0
LINE
8
Black
10
72.39
20
-133.819
11
72.0123
21
-133.753
0
LINE
8
Black
10
72.0123
20
-133.753
11
71.6802
21
-133.561
0
LINE
8
Black
10
71.6802
20
-133.561
11
71.4337
21
-133.267
0
LINE
8
Black
10
71.4337
20
-133.267
11
71.3026
21
-132.907
0
LINE
8
Black
10
71.3026
20
-132.907
11
71.3026
21
-132.523
0
LINE
8
Black
10
71.3026
20
-132.523
11
71.4337
21
-132.163
0
LINE
8
Black
10
71.4337
20
-132.163
11
71.6802
21
-131.869
0
LINE
8
Black
10
71.6802
20
-131.869
11
72.0123
21
-131.677
0
LINE
8
Black
10
72.0123
20
-131.677
11
72.39
21
-131.611
0
LINE
8
Black
10
72.39
20
-131.611
11
72.7677
21
-131.677
0
LINE
8
Black
10
132.458
20
-131.677
11
132.79
21
-131.869
0
LINE
8
Black
10
132.79
20
-131.869
11
133.036
21
-132.163
0
LINE
8
Black
10
133.036
20
-132.163
11
133.167
21
-132.523
0
LINE
8
Black
10
133.167
20
-132.523
11
133.167
21
-132.907
0
LINE
8
Black
10
133.167
20
-132.907
11
133.036
21
-133.267
0
LINE
8
Black
10
133.036
20
-133.267
11
132.79
21
-133.561
0
LINE
8
Black
10
132.79
20
-133.561
11
132.458
21
-133.753
0
LINE
8
Black
10
132.458
20
-133.753
11
132.08
21
-133.819
0
LINE
8
Black
10
132.08
20
-133.819
11
131.702
21
-133.753
0
LINE
8
Black
10
131.702
20
-133.753
11
131.37
21
-133.561
0
LINE
8
Black
10
131.37
20
-133.561
11
131.124
21
-133.267
0
LINE
8
Black
10
131.124
20
-133.267
11
130.993
21
-132.907
0
LINE
8
Black
10
130.993
20
-132.907
11
130.993
21
-132.523
0
LINE
8
Black
10
130.993
20
-132.523
11
131.124
21
-132.163
0
LINE
8
Black
10
131.124
20
-132.163
11
131.37
21
-131.869
0
LINE
8
Black
10
131.37
20
-131.869
11
131.702
21
-131.677
0
LINE
8
Black
10
131.702
20
-131.677
11
132.08
21
-131.611
0
LINE
8
Black
10
132.08
20
-131.611
11
132.458
21
-131.677
0
LINE
8
Black
10
215.643
20
-102.467
11
215.975
21
-102.659
0
LINE
8
Black
10
215.975
20
-102.659
11
216.221
21
-102.953
0
LINE
8
Black
10
216.221
20
-102.953
11
216.352
21
-103.313
0
LINE
8
Black
10
216.352
20
-103.313
11
216.352
21
-103.697
0
LINE
8
Black
10
216.352
20
-103.697
11
216.221
21
-104.057
0
LINE
8
Black
10
216.221
20
-104.057
11
215.975
21
-104.351
0
LINE
8
Black
10
215.975
20
-104.351
11
215.643
21
-104.543
0
LINE
8
Black
10
215.643
20
-104.543
11
215.265
21
-104.609
0
LINE
8
Black
10
215.265
20
-104.609
11
214.887
21
-104.543
0
LINE
8
Black
10
214.887
20
-104.543
11
214.555
21
-104.351
0
LINE
8
Black
10
214.555
20
-104.351
11
214.309
21
-104.057
0
LINE
8
Black
10
214.309
20
-104.057
11
214.178
21
-103.697
0
LINE
8
Black
10
214.178
20
-103.697
11
214.178
21
-103.313
0
LINE
8
Black
10
214.178
20
-103.313
11
214.309
21
-102.953
0
LINE
8
Black
10
214.309
20
-102.953
11
214.555
21
-102.659
0
LINE
8
Black
10
214.555
20
-102.659
11
214.887
21
-102.467
0
LINE
8
Black
10
214.887
20
-102.467
11
215.265
21
-102.401
0
LINE
8
Black
10
215.265
20
-102.401
11
215.643
21
-102.467
0
LINE
8
Black
10
72.7677
20
-91.6724
11
73.0998
21
-91.8641
0
LINE
8
Black
10
73.0998
20
-91.8641
11
73.3463
21
-92.1579
0
LINE
8
Black
10
73.3463
20
-92.1579
11
73.4774
21
-92.5183
0
LINE
8
Black
10
73.4774
20
-92.5183
11
73.4774
21
-92.9017
0
LINE
8
Black
10
73.4774
20
-92.9017
11
73.3463
21
-93.2621
0
LINE
8
Black
10
73.3463
20
-93.2621
11
73.0998
21
-93.5559
0
LINE
8
Black
10
73.0998
20
-93.5559
11
72.7677
21
-93.7476
0
LINE
8
Black
10
72.7677
20
-93.7476
11
72.39
21
-93.8142
0
LINE
8
Black
10
72.39
20
-93.8142
11
72.0123
21
-93.7476
0
LINE
8
Black
10
72.0123
20
-93.7476
11
71.6802
21
-93.5559
0
LINE
8
Black
10
71.6802
20
-93.5559
11
71.4337
21
-93.2621
0
LINE
8
Black
10
71.4337
20
-93.2621
11
71.3026
21
-92.9017
0
LINE
8
Black
10
71.3026
20
-92.9017
11
71.3026
21
-92.5183
0
LINE
8
Black
10
71.3026
20
-92.5183
11
71.4337
21
-92.1579
0
LINE
8
Black
10
71.4337
20
-92.1579
11
71.6802
21
-91.8641
0
LINE
8
Black
10
71.6802
20
-91.8641
11
72.0123
21
-91.6724
0
LINE
8
Black
10
72.0123
20
-91.6724
11
72.39
21
-91.6058
0
LINE
8
Black
10
72.39
20
-91.6058
11
72.7677
21
-91.6724
0
LINE
8
Black
10
72.7677
20
-51.0324
11
73.0998
21
-51.2241
0
LINE
8
Black
10
73.0998
20
-51.2241
11
73.3463
21
-51.5179
0
LINE
8
Black
10
73.3463
20
-51.5179
11
73.4774
21
-51.8783
0
LINE
8
Black
10
73.4774
20
-51.8783
11
73.4774
21
-52.2617
0
LINE
8
Black
10
73.4774
20
-52.2617
11
73.3463
21
-52.6221
0
LINE
8
Black
10
73.3463
20
-52.6221
11
73.0998
21
-52.9159
0
LINE
8
Black
10
73.0998
20
-52.9159
11
72.7677
21
-53.1076
0
LINE
8
Black
10
72.7677
20
-53.1076
11
72.39
21
-53.1742
0
LINE
8
Black
10
72.39
20
-53.1742
11
72.0123
21
-53.1076
0
LINE
8
Black
10
72.0123
20
-53.1076
11
71.6802
21
-52.9159
0
LINE
8
Black
10
71.6802
20
-52.9159
11
71.4337
21
-52.6221
0
LINE
8
Black
10
71.4337
20
-52.6221
11
71.3026
21
-52.2617
0
LINE
8
Black
10
71.3026
20
-52.2617
11
71.3026
21
-51.8783
0
LINE
8
Black
10
71.3026
20
-51.8783
11
71.4337
21
-51.5179
0
LINE
8
Black
10
71.4337
20
-51.5179
11
71.6802
21
-51.2241
0
LINE
8
Black
10
71.6802
20
-51.2241
11
72.0123
21
-51.0324
0
LINE
8
Black
10
72.0123
20
-51.0324
11
72.39
21
-50.9658
0
LINE
8
Black
10
72.39
20
-50.9658
11
72.7677
21
-51.0324
0
LINE
8
Black
10
116.583
20
-42.7774
11
116.915
21
-42.9691
0
LINE
8
Black
10
116.915
20
-42.9691
11
117.161
21
-43.2629
0
LINE
8
Black
10
117.161
20
-43.2629
11
117.292
21
-43.6233
0
LINE
8
Black
10
117.292
20
-43.6233
11
117.292
21
-44.0067
0
LINE
8
Black
10
117.292
20
-44.0067
11
117.161
21
-44.3671
0
LINE
8
Black
10
117.161
20
-44.3671
11
116.915
21
-44.6609
0
LINE
8
Black
10
116.915
20
-44.6609
11
116.583
21
-44.8526
0
LINE
8
Black
10
116.583
20
-44.8526
11
116.205
21
-44.9192
0
LINE
8
Black
10
116.205
20
-44.9192
11
115.827
21
-44.8526
0
LINE
8
Black
10
115.827
20
-44.8526
11
115.495
21
-44.6609
0
LINE
8
Black
10
115.495
20
-44.6609
11
115.249
21
-44.3671
0
LINE
8
Black
10
115.249
20
-44.3671
11
115.118
21
-44.0067
0
LINE
8
Black
10
115.118
20
-44.0067
11
115.118
21
-43.6233
0
LINE
8
Black
10
115.118
20
-43.6233
11
115.249
21
-43.2629
0
LINE
8
Black
10
115.249
20
-43.2629
11
115.495
21
-42.9691
0
LINE
8
Black
10
115.495
20
-42.9691
11
115.827
21
-42.7774
0
LINE
8
Black
10
115.827
20
-42.7774
11
116.205
21
-42.7108
0
LINE
8
Black
10
116.205
20
-42.7108
11
116.583
21
-42.7774
0
LINE
8
Black
10
170.558
20
-42.7774
11
170.89
21
-42.9691
0
LINE
8
Black
10
170.89
20
-42.9691
11
171.136
21
-43.2629
0
LINE
8
Black
10
171.136
20
-43.2629
11
171.267
21
-43.6233
0
LINE
8
Black
10
171.267
20
-43.6233
11
171.267
21
-44.0067
0
LINE
8
Black
10
171.267
20
-44.0067
11
171.136
21
-44.3671
0
LINE
8
Black
10
171.136
20
-44.3671
11
170.89
21
-44.6609
0
LINE
8
Black
10
170.89
20
-44.6609
11
170.558
21
-44.8526
0
LINE
8
Black
10
170.558
20
-44.8526
11
170.18
21
-44.9192
0
LINE
8
Black
10
170.18
20
-44.9192
11
169.802
21
-44.8526
0
LINE
8
Black
10
169.802
20
-44.8526
11
169.47
21
-44.6609
0
LINE
8
Black
10
169.47
20
-44.6609
11
169.224
21
-44.3671
0
LINE
8
Black
10
169.224
20
-44.3671
11
169.093
21
-44.0067
0
LINE
8
Black
10
169.093
20
-44.0067
11
169.093
21
-43.6233
0
LINE
8
Black
10
169.093
20
-43.6233
11
169.224
21
-43.2629
0
LINE
8
Black
10
169.224
20
-43.2629
11
169.47
21
-42.9691
0
LINE
8
Black
10
169.47
20
-42.9691
11
169.802
21
-42.7774
0
LINE
8
Black
10
169.802
20
-42.7774
11
170.18
21
-42.7108
0
LINE
8
Black
10
170.18
20
-42.7108
11
170.558
21
-42.7774
0
LINE
8
Black
10
211.198
20
-42.7774
11
211.53
21
-42.9691
0
LINE
8
Black
10
211.53
20
-42.9691
11
211.776
21
-43.2629
0
LINE
8
Black
10
211.776
20
-43.2629
11
211.907
21
-43.6233
0
LINE
8
Black
10
211.907
20
-43.6233
11
211.907
21
-44.0067
0
LINE
8
Black
10
211.907
20
-44.0067
11
211.776
21
-44.3671
0
LINE
8
Black
10
211.776
20
-44.3671
11
211.53
21
-44.6609
0
LINE
8
Black
10
211.53
20
-44.6609
11
211.198
21
-44.8526
0
LINE
8
Black
10
211.198
20
-44.8526
11
210.82
21
-44.9192
0
LINE
8
Black
10
210.82
20
-44.9192
11
210.442
21
-44.8526
0
LINE
8
Black
10
210.442
20
-44.8526
11
210.11
21
-44.6609
0
LINE
8
Black
10
210.11
20
-44.6609
11
209.864
21
-44.3671
0
LINE
8
Black
10
209.864
20
-44.3671
11
209.733
21
-44.0067
0
LINE
8
Black
10
209.733
20
-44.0067
11
209.733
21
-43.6233
0
LINE
8
Black
10
209.733
20
-43.6233
11
209.864
21
-43.2629
0
LINE
8
Black
10
209.864
20
-43.2629
11
210.11
21
-42.9691
0
LINE
8
Black
10
210.11
20
-42.9691
11
210.442
21
-42.7774
0
LINE
8
Black
10
210.442
20
-42.7774
11
210.82
21
-42.7108
0
LINE
8
Black
10
210.82
20
-42.7108
11
211.198
21
-42.7774
  0
ENDSEC
  0
EOF
