  0
SECTION
  2
HEADER
  9
$ANGBASE
  50
0.0
  9
$ANGDIR
  70
  1
  9
$MEASUREMENT
  70
0
  0
ENDSEC
  0
SECTION
  2
TABLES
  0
TABLE
  2
LTYPE
  70
1
  0
LTYPE
  2
CONTINUOUS
  70
0
  3
Solid line
  72
65
  73
0
  40
0.0
  0
ENDTAB
  0
TABLE
  2
STYLE
  70
4
  0
STYLE
  2
KICAD
  70
0
  40
0
  41
1
  42
1
  50
0
  71
0
  3
isocp.shx
  0
STYLE
  2
KICADB
  70
0
  40
0
  41
1
  42
1
  50
0
  71
0
  3
isocp.shx
  0
STYLE
  2
KICADI
  70
0
  40
0
  41
1
  42
1
  50
15
  71
0
  3
isocp.shx
  0
STYLE
  2
KICADBI
  70
0
  40
0
  41
1
  42
1
  50
15
  71
0
  3
isocp.shx
  0
ENDTAB
  0
TABLE
  2
LAYER
  70
30
  0
LAYER
  2
BLACK
  70
0
  62
7
  6
CONTINUOUS
  0
LAYER
  2
GRAY1
  70
0
  62
251
  6
CONTINUOUS
  0
LAYER
  2
GRAY2
  70
0
  62
8
  6
CONTINUOUS
  0
LAYER
  2
GRAY3
  70
0
  62
9
  6
CONTINUOUS
  0
LAYER
  2
WHITE
  70
0
  62
7
  6
CONTINUOUS
  0
LAYER
  2
LYELLOW
  70
0
  62
51
  6
CONTINUOUS
  0
LAYER
  2
BLUE1
  70
0
  62
178
  6
CONTINUOUS
  0
LAYER
  2
GREEN1
  70
0
  62
98
  6
CONTINUOUS
  0
LAYER
  2
CYAN1
  70
0
  62
138
  6
CONTINUOUS
  0
LAYER
  2
RED1
  70
0
  62
18
  6
CONTINUOUS
  0
LAYER
  2
MAGENTA1
  70
0
  62
228
  6
CONTINUOUS
  0
LAYER
  2
BROWN1
  70
0
  62
58
  6
CONTINUOUS
  0
LAYER
  2
BLUE2
  70
0
  62
5
  6
CONTINUOUS
  0
LAYER
  2
GREEN2
  70
0
  62
3
  6
CONTINUOUS
  0
LAYER
  2
CYAN2
  70
0
  62
4
  6
CONTINUOUS
  0
LAYER
  2
RED2
  70
0
  62
1
  6
CONTINUOUS
  0
LAYER
  2
MAGENTA2
  70
0
  62
6
  6
CONTINUOUS
  0
LAYER
  2
BROWN2
  70
0
  62
54
  6
CONTINUOUS
  0
LAYER
  2
BLUE3
  70
0
  62
171
  6
CONTINUOUS
  0
LAYER
  2
GREEN3
  70
0
  62
91
  6
CONTINUOUS
  0
LAYER
  2
CYAN3
  70
0
  62
131
  6
CONTINUOUS
  0
LAYER
  2
RED3
  70
0
  62
11
  6
CONTINUOUS
  0
LAYER
  2
MAGENTA3
  70
0
  62
221
  6
CONTINUOUS
  0
LAYER
  2
YELLOW3
  70
0
  62
2
  6
CONTINUOUS
  0
LAYER
  2
BLUE4
  70
0
  62
5
  6
CONTINUOUS
  0
LAYER
  2
GREEN4
  70
0
  62
3
  6
CONTINUOUS
  0
LAYER
  2
CYAN4
  70
0
  62
4
  6
CONTINUOUS
  0
LAYER
  2
RED4
  70
0
  62
1
  6
CONTINUOUS
  0
LAYER
  2
MAGENTA4
  70
0
  62
6
  6
CONTINUOUS
  0
LAYER
  2
YELLOW4
  70
0
  62
2
  6
CONTINUOUS
  0
ENDTAB
  0
ENDSEC
  0
SECTION
  2
ENTITIES
0
LINE
8
Black
10
101.6
20
-135.965
11
73.66
21
-135.965
0
LINE
8
Black
10
73.66
20
-135.965
11
72.39
21
-135.965
0
LINE
8
Black
10
72.39
20
-135.965
11
72.3835
21
-135.964
0
LINE
8
Black
10
72.3835
20
-135.964
11
72.377
21
-135.964
0
LINE
8
Black
10
72.377
20
-135.964
11
71.2911
21
-135.772
0
LINE
8
Black
10
71.2911
20
-135.772
11
71.2666
21
-135.763
0
LINE
8
Black
10
71.2666
20
-135.763
11
70.3116
21
-135.212
0
LINE
8
Black
10
70.3116
20
-135.212
11
70.2917
21
-135.195
0
LINE
8
Black
10
70.2917
20
-135.195
11
70.2917
21
-135.195
0
LINE
8
Black
10
70.2917
20
-135.195
11
69.5829
21
-134.351
0
LINE
8
Black
10
69.5829
20
-134.351
11
69.5829
21
-134.351
0
LINE
8
Black
10
69.5829
20
-134.351
11
69.5699
21
-134.328
0
LINE
8
Black
10
69.5699
20
-134.328
11
69.1928
21
-133.292
0
LINE
8
Black
10
69.1928
20
-133.292
11
69.1911
21
-133.282
0
LINE
8
Black
10
69.1911
20
-133.282
11
69.1885
21
-133.273
0
LINE
8
Black
10
69.1885
20
-133.273
11
69.1403
21
-132.722
0
LINE
8
Black
10
69.1403
20
-132.722
11
69.1406
21
-132.718
0
LINE
8
Black
10
69.1406
20
-132.718
11
69.14
21
-132.715
0
LINE
8
Black
10
69.14
20
-132.715
11
69.14
21
-131.445
0
LINE
8
Black
10
69.14
20
-131.445
11
69.14
21
-84.455
0
LINE
8
Black
10
69.14
20
-84.455
11
69.14
21
-60.96
0
LINE
8
Black
10
69.14
20
-60.96
11
69.14
21
-50.8
0
LINE
8
Black
10
69.14
20
-50.8
11
69.1408
21
-50.7957
0
LINE
8
Black
10
69.1408
20
-50.7957
11
69.1405
21
-50.7914
0
LINE
8
Black
10
69.1405
20
-50.7914
11
69.143
21
-50.783
0
LINE
8
Black
10
69.143
20
-50.783
11
69.1445
21
-50.7743
0
LINE
8
Black
10
69.1445
20
-50.7743
11
69.1467
21
-50.7706
0
LINE
8
Black
10
69.1467
20
-50.7706
11
69.1479
21
-50.7665
0
LINE
8
Black
10
69.1479
20
-50.7665
11
69.7829
21
-49.4965
0
LINE
8
Black
10
69.7829
20
-49.4965
11
69.7901
21
-49.4868
0
LINE
8
Black
10
69.7901
20
-49.4868
11
69.797
21
-49.477
0
LINE
8
Black
10
69.797
20
-49.477
11
70.432
21
-48.842
0
LINE
8
Black
10
70.432
20
-48.842
11
70.4418
21
-48.8351
0
LINE
8
Black
10
70.4418
20
-48.8351
11
70.4515
21
-48.8279
0
LINE
8
Black
10
70.4515
20
-48.8279
11
71.7215
21
-48.1929
0
LINE
8
Black
10
71.7215
20
-48.1929
11
71.732
21
-48.1898
0
LINE
8
Black
10
71.732
20
-48.1898
11
71.7423
21
-48.1861
0
LINE
8
Black
10
71.7423
20
-48.1861
11
116.192
21
-40.5661
0
LINE
8
Black
10
116.192
20
-40.5661
11
116.199
21
-40.5661
0
LINE
8
Black
10
116.199
20
-40.5661
11
116.205
21
-40.565
0
LINE
8
Black
10
116.205
20
-40.565
11
130.87
21
-40.565
0
LINE
8
Black
10
130.87
20
-40.565
11
130.876
21
-40.5661
0
LINE
8
Black
10
130.876
20
-40.5661
11
130.883
21
-40.5661
0
LINE
8
Black
10
130.883
20
-40.5661
11
131.837
21
-40.7344
0
LINE
8
Black
10
131.837
20
-40.7344
11
131.862
21
-40.7433
0
LINE
8
Black
10
131.862
20
-40.7433
11
131.862
21
-40.7433
0
LINE
8
Black
10
131.862
20
-40.7433
11
132.701
21
-41.2278
0
LINE
8
Black
10
132.701
20
-41.2278
11
132.721
21
-41.2445
0
LINE
8
Black
10
132.721
20
-41.2445
11
133.344
21
-41.9868
0
LINE
8
Black
10
133.344
20
-41.9868
11
133.344
21
-41.9868
0
LINE
8
Black
10
133.344
20
-41.9868
11
133.357
21
-42.0093
0
LINE
8
Black
10
133.357
20
-42.0093
11
133.688
21
-42.9199
0
LINE
8
Black
10
133.688
20
-42.9199
11
133.69
21
-42.9295
0
LINE
8
Black
10
133.69
20
-42.9295
11
133.692
21
-42.939
0
LINE
8
Black
10
133.692
20
-42.939
11
133.735
21
-43.4235
0
LINE
8
Black
10
133.735
20
-43.4235
11
133.779
21
-43.9346
0
LINE
8
Black
10
133.779
20
-43.9346
11
134.128
21
-44.8919
0
LINE
8
Black
10
134.128
20
-44.8919
11
134.781
21
-45.6698
0
LINE
8
Black
10
134.781
20
-45.6698
11
135.66
21
-46.1775
0
LINE
8
Black
10
135.66
20
-46.1775
11
136.667
21
-46.355
0
LINE
8
Black
10
136.667
20
-46.355
11
146.657
21
-46.355
0
LINE
8
Black
10
146.657
20
-46.355
11
147.165
21
-46.3106
0
LINE
8
Black
10
147.165
20
-46.3106
11
148.122
21
-45.9621
0
LINE
8
Black
10
148.122
20
-45.9621
11
148.9
21
-45.3094
0
LINE
8
Black
10
148.9
20
-45.3094
11
149.408
21
-44.43
0
LINE
8
Black
10
149.408
20
-44.43
11
149.586
21
-43.417
0
LINE
8
Black
10
149.586
20
-43.417
11
149.754
21
-42.4627
0
LINE
8
Black
10
149.754
20
-42.4627
11
149.763
21
-42.4383
0
LINE
8
Black
10
149.763
20
-42.4383
11
149.763
21
-42.4383
0
LINE
8
Black
10
149.763
20
-42.4383
11
150.248
21
-41.5991
0
LINE
8
Black
10
150.248
20
-41.5991
11
150.265
21
-41.5792
0
LINE
8
Black
10
150.265
20
-41.5792
11
151.007
21
-40.9563
0
LINE
8
Black
10
151.007
20
-40.9563
11
151.007
21
-40.9563
0
LINE
8
Black
10
151.007
20
-40.9563
11
151.029
21
-40.9433
0
LINE
8
Black
10
151.029
20
-40.9433
11
151.94
21
-40.6119
0
LINE
8
Black
10
151.94
20
-40.6119
11
151.95
21
-40.6102
0
LINE
8
Black
10
151.95
20
-40.6102
11
151.959
21
-40.6077
0
LINE
8
Black
10
151.959
20
-40.6077
11
152.443
21
-40.5653
0
LINE
8
Black
10
152.443
20
-40.5653
11
152.447
21
-40.5656
0
LINE
8
Black
10
152.447
20
-40.5656
11
152.45
21
-40.565
0
LINE
8
Black
10
152.45
20
-40.565
11
210.812
21
-40.565
0
LINE
8
Black
10
210.812
20
-40.565
11
210.819
21
-40.5661
0
LINE
8
Black
10
210.819
20
-40.5661
11
210.833
21
-40.5661
0
LINE
8
Black
10
210.833
20
-40.5661
11
211.919
21
-40.7576
0
LINE
8
Black
10
211.919
20
-40.7576
11
211.943
21
-40.7665
0
LINE
8
Black
10
211.943
20
-40.7665
11
211.943
21
-40.7665
0
LINE
8
Black
10
211.943
20
-40.7665
11
212.898
21
-41.3179
0
LINE
8
Black
10
212.898
20
-41.3179
11
212.918
21
-41.3346
0
LINE
8
Black
10
212.918
20
-41.3346
11
212.918
21
-41.3346
0
LINE
8
Black
10
212.918
20
-41.3346
11
213.627
21
-42.1793
0
LINE
8
Black
10
213.627
20
-42.1793
11
213.627
21
-42.1793
0
LINE
8
Black
10
213.627
20
-42.1793
11
213.64
21
-42.2018
0
LINE
8
Black
10
213.64
20
-42.2018
11
214.017
21
-43.238
0
LINE
8
Black
10
214.017
20
-43.238
11
214.019
21
-43.2477
0
LINE
8
Black
10
214.019
20
-43.2477
11
214.021
21
-43.2571
0
LINE
8
Black
10
214.021
20
-43.2571
11
214.07
21
-43.8085
0
LINE
8
Black
10
214.07
20
-43.8085
11
214.069
21
-43.8118
0
LINE
8
Black
10
214.069
20
-43.8118
11
214.07
21
-43.815
0
LINE
8
Black
10
214.07
20
-43.815
11
214.07
21
-45.085
0
LINE
8
Black
10
214.07
20
-45.085
11
214.07
21
-95.25
0
LINE
8
Black
10
214.07
20
-95.25
11
214.07
21
-98.4073
0
LINE
8
Black
10
214.07
20
-98.4073
11
214.686
21
-99.6391
0
LINE
8
Black
10
214.686
20
-99.6391
11
215.934
21
-100.263
0
LINE
8
Black
10
215.934
20
-100.263
11
218.474
21
-101.533
0
LINE
8
Black
10
218.474
20
-101.533
11
218.479
21
-101.537
0
LINE
8
Black
10
218.479
20
-101.537
11
218.485
21
-101.54
0
LINE
8
Black
10
218.485
20
-101.54
11
218.881
21
-101.834
0
LINE
8
Black
10
218.881
20
-101.834
11
218.881
21
-101.834
0
LINE
8
Black
10
218.881
20
-101.834
11
218.886
21
-101.839
0
LINE
8
Black
10
218.886
20
-101.839
11
218.899
21
-101.852
0
LINE
8
Black
10
218.899
20
-101.852
11
218.899
21
-101.852
0
LINE
8
Black
10
218.899
20
-101.852
11
219.17
21
-102.264
0
LINE
8
Black
10
219.17
20
-102.264
11
219.176
21
-102.278
0
LINE
8
Black
10
219.176
20
-102.278
11
219.181
21
-102.288
0
LINE
8
Black
10
219.181
20
-102.288
11
219.295
21
-102.767
0
LINE
8
Black
10
219.295
20
-102.767
11
219.295
21
-102.767
0
LINE
8
Black
10
219.295
20
-102.767
11
219.297
21
-102.793
0
LINE
8
Black
10
219.297
20
-102.793
11
219.24
21
-103.283
0
LINE
8
Black
10
219.24
20
-103.283
11
219.238
21
-103.293
0
LINE
8
Black
10
219.238
20
-103.293
11
219.236
21
-103.302
0
LINE
8
Black
10
219.236
20
-103.302
11
219.145
21
-103.533
0
LINE
8
Black
10
219.145
20
-103.533
11
219.142
21
-103.537
0
LINE
8
Black
10
219.142
20
-103.537
11
219.14
21
-103.543
0
LINE
8
Black
10
219.14
20
-103.543
11
195.01
21
-144.818
0
LINE
8
Black
10
195.01
20
-144.818
11
195.008
21
-144.82
0
LINE
8
Black
10
195.008
20
-144.82
11
195.006
21
-144.823
0
LINE
8
Black
10
195.006
20
-144.823
11
194.999
21
-144.83
0
LINE
8
Black
10
194.999
20
-144.83
11
194.993
21
-144.838
0
LINE
8
Black
10
194.993
20
-144.838
11
194.99
21
-144.839
0
LINE
8
Black
10
194.99
20
-144.839
11
194.988
21
-144.841
0
LINE
8
Black
10
194.988
20
-144.841
11
194.222
21
-145.378
0
LINE
8
Black
10
194.222
20
-145.378
11
194.222
21
-145.378
0
LINE
8
Black
10
194.222
20
-145.378
11
194.214
21
-145.382
0
LINE
8
Black
10
194.214
20
-145.382
11
194.198
21
-145.389
0
LINE
8
Black
10
194.198
20
-145.389
11
194.198
21
-145.389
0
LINE
8
Black
10
194.198
20
-145.389
11
193.294
21
-145.631
0
LINE
8
Black
10
193.294
20
-145.631
11
193.294
21
-145.631
0
LINE
8
Black
10
193.294
20
-145.631
11
193.268
21
-145.634
0
LINE
8
Black
10
193.268
20
-145.634
11
192.336
21
-145.552
0
LINE
8
Black
10
192.336
20
-145.552
11
192.311
21
-145.545
0
LINE
8
Black
10
192.311
20
-145.545
11
192.311
21
-145.545
0
LINE
8
Black
10
192.311
20
-145.545
11
191.463
21
-145.15
0
LINE
8
Black
10
191.463
20
-145.15
11
191.455
21
-145.144
0
LINE
8
Black
10
191.455
20
-145.144
11
191.447
21
-145.139
0
LINE
8
Black
10
191.447
20
-145.139
11
191.091
21
-144.841
0
LINE
8
Black
10
191.091
20
-144.841
11
177.763
21
-136.591
0
LINE
8
Black
10
177.763
20
-136.591
11
176.512
21
-135.965
0
LINE
8
Black
10
176.512
20
-135.965
11
175.895
21
-135.965
0
LINE
8
Black
10
175.895
20
-135.965
11
172.085
21
-135.965
0
LINE
8
Black
10
172.085
20
-135.965
11
101.6
21
-135.965
0
LINE
8
Black
10
172.085
20
-135.815
11
175.895
21
-135.815
0
LINE
8
Black
10
175.895
20
-135.815
11
176.53
21
-135.815
0
LINE
8
Black
10
176.53
20
-135.815
11
176.534
21
-135.816
0
LINE
8
Black
10
176.534
20
-135.816
11
176.539
21
-135.815
0
LINE
8
Black
10
176.539
20
-135.815
11
176.547
21
-135.818
0
LINE
8
Black
10
176.547
20
-135.818
11
176.556
21
-135.82
0
LINE
8
Black
10
176.556
20
-135.82
11
176.559
21
-135.822
0
LINE
8
Black
10
176.559
20
-135.822
11
176.564
21
-135.823
0
LINE
8
Black
10
176.564
20
-135.823
11
177.834
21
-136.458
0
LINE
8
Black
10
177.834
20
-136.458
11
177.836
21
-136.46
0
LINE
8
Black
10
177.836
20
-136.46
11
177.839
21
-136.461
0
LINE
8
Black
10
177.839
20
-136.461
11
191.174
21
-144.716
0
LINE
8
Black
10
191.174
20
-144.716
11
191.179
21
-144.72
0
LINE
8
Black
10
191.179
20
-144.72
11
191.183
21
-144.723
0
LINE
8
Black
10
191.183
20
-144.723
11
191.535
21
-145.018
0
LINE
8
Black
10
191.535
20
-145.018
11
192.362
21
-145.404
0
LINE
8
Black
10
192.362
20
-145.404
11
193.268
21
-145.483
0
LINE
8
Black
10
193.268
20
-145.483
11
194.146
21
-145.248
0
LINE
8
Black
10
194.146
20
-145.248
11
194.889
21
-144.728
0
LINE
8
Black
10
194.889
20
-144.728
11
219.007
21
-103.472
0
LINE
8
Black
10
219.007
20
-103.472
11
219.093
21
-103.256
0
LINE
8
Black
10
219.093
20
-103.256
11
219.146
21
-102.789
0
LINE
8
Black
10
219.146
20
-102.789
11
219.038
21
-102.336
0
LINE
8
Black
10
219.038
20
-102.336
11
218.781
21
-101.946
0
LINE
8
Black
10
218.781
20
-101.946
11
218.401
21
-101.664
0
LINE
8
Black
10
218.401
20
-101.664
11
215.866
21
-100.397
0
LINE
8
Black
10
215.866
20
-100.397
11
214.596
21
-99.7621
0
LINE
8
Black
10
214.596
20
-99.7621
11
214.588
21
-99.7555
0
LINE
8
Black
10
214.588
20
-99.7555
11
214.578
21
-99.7495
0
LINE
8
Black
10
214.578
20
-99.7495
11
214.577
21
-99.7478
0
LINE
8
Black
10
214.577
20
-99.7478
11
214.576
21
-99.7466
0
LINE
8
Black
10
214.576
20
-99.7466
11
214.569
21
-99.7374
0
LINE
8
Black
10
214.569
20
-99.7374
11
214.563
21
-99.7285
0
LINE
8
Black
10
214.563
20
-99.7285
11
213.928
21
-98.4585
0
LINE
8
Black
10
213.928
20
-98.4585
11
213.927
21
-98.4544
0
LINE
8
Black
10
213.927
20
-98.4544
11
213.925
21
-98.4507
0
LINE
8
Black
10
213.925
20
-98.4507
11
213.923
21
-98.442
0
LINE
8
Black
10
213.923
20
-98.442
11
213.92
21
-98.4336
0
LINE
8
Black
10
213.92
20
-98.4336
11
213.921
21
-98.4293
0
LINE
8
Black
10
213.921
20
-98.4293
11
213.92
21
-98.425
0
LINE
8
Black
10
213.92
20
-98.425
11
213.92
21
-95.25
0
LINE
8
Black
10
213.92
20
-95.25
11
213.92
21
-45.085
0
LINE
8
Black
10
213.92
20
-45.085
11
213.92
21
-43.8183
0
LINE
8
Black
10
213.92
20
-43.8183
11
213.873
21
-43.28
0
LINE
8
Black
10
213.873
20
-43.28
11
213.504
21
-42.2656
0
LINE
8
Black
10
213.504
20
-42.2656
11
212.812
21
-41.4411
0
LINE
8
Black
10
212.812
20
-41.4411
11
211.88
21
-40.903
0
LINE
8
Black
10
211.88
20
-40.903
11
210.813
21
-40.7149
0
LINE
8
Black
10
210.813
20
-40.7149
11
210.812
21
-40.715
0
LINE
8
Black
10
210.812
20
-40.715
11
152.453
21
-40.715
0
LINE
8
Black
10
152.453
20
-40.715
11
151.982
21
-40.7562
0
LINE
8
Black
10
151.982
20
-40.7562
11
151.093
21
-41.0797
0
LINE
8
Black
10
151.093
20
-41.0797
11
150.371
21
-41.6856
0
LINE
8
Black
10
150.371
20
-41.6856
11
149.9
21
-42.5018
0
LINE
8
Black
10
149.9
20
-42.5018
11
149.734
21
-43.443
0
LINE
8
Black
10
149.734
20
-43.443
11
149.553
21
-44.4691
0
LINE
8
Black
10
149.553
20
-44.4691
11
149.544
21
-44.4936
0
LINE
8
Black
10
149.544
20
-44.4936
11
149.023
21
-45.3959
0
LINE
8
Black
10
149.023
20
-45.3959
11
149.006
21
-45.4158
0
LINE
8
Black
10
149.006
20
-45.4158
11
149.006
21
-45.4158
0
LINE
8
Black
10
149.006
20
-45.4158
11
148.208
21
-46.0855
0
LINE
8
Black
10
148.208
20
-46.0855
11
148.208
21
-46.0855
0
LINE
8
Black
10
148.208
20
-46.0855
11
148.186
21
-46.0986
0
LINE
8
Black
10
148.186
20
-46.0986
11
147.207
21
-46.4549
0
LINE
8
Black
10
147.207
20
-46.4549
11
147.197
21
-46.4566
0
LINE
8
Black
10
147.197
20
-46.4566
11
147.187
21
-46.4591
0
LINE
8
Black
10
147.187
20
-46.4591
11
146.667
21
-46.5047
0
LINE
8
Black
10
146.667
20
-46.5047
11
146.663
21
-46.5044
0
LINE
8
Black
10
146.663
20
-46.5044
11
146.66
21
-46.505
0
LINE
8
Black
10
146.66
20
-46.505
11
136.66
21
-46.505
0
LINE
8
Black
10
136.66
20
-46.505
11
136.654
21
-46.5039
0
LINE
8
Black
10
136.654
20
-46.5039
11
136.647
21
-46.5039
0
LINE
8
Black
10
136.647
20
-46.5039
11
135.621
21
-46.3229
0
LINE
8
Black
10
135.621
20
-46.3229
11
135.596
21
-46.314
0
LINE
8
Black
10
135.596
20
-46.314
11
134.694
21
-45.7931
0
LINE
8
Black
10
134.694
20
-45.7931
11
134.694
21
-45.7931
0
LINE
8
Black
10
134.694
20
-45.7931
11
134.691
21
-45.7904
0
LINE
8
Black
10
134.691
20
-45.7904
11
134.674
21
-45.7763
0
LINE
8
Black
10
134.674
20
-45.7763
11
134.674
21
-45.7763
0
LINE
8
Black
10
134.674
20
-45.7763
11
134.004
21
-44.9782
0
LINE
8
Black
10
134.004
20
-44.9782
11
134.004
21
-44.9782
0
LINE
8
Black
10
134.004
20
-44.9782
11
133.991
21
-44.9557
0
LINE
8
Black
10
133.991
20
-44.9557
11
133.635
21
-43.9766
0
LINE
8
Black
10
133.635
20
-43.9766
11
133.633
21
-43.9669
0
LINE
8
Black
10
133.633
20
-43.9669
11
133.631
21
-43.9575
0
LINE
8
Black
10
133.631
20
-43.9575
11
133.585
21
-43.4365
0
LINE
8
Black
10
133.585
20
-43.4365
11
133.544
21
-42.9619
0
LINE
8
Black
10
133.544
20
-42.9619
11
133.22
21
-42.0731
0
LINE
8
Black
10
133.22
20
-42.0731
11
132.614
21
-41.3511
0
LINE
8
Black
10
132.614
20
-41.3511
11
131.798
21
-40.8798
0
LINE
8
Black
10
131.798
20
-40.8798
11
130.863
21
-40.715
0
LINE
8
Black
10
130.863
20
-40.715
11
116.211
21
-40.715
0
LINE
8
Black
10
116.211
20
-40.715
11
71.7786
21
-48.332
0
LINE
8
Black
10
71.7786
20
-48.332
11
70.5294
21
-48.9566
0
LINE
8
Black
10
70.5294
20
-48.9566
11
69.9116
21
-49.5744
0
LINE
8
Black
10
69.9116
20
-49.5744
11
69.29
21
-50.8177
0
LINE
8
Black
10
69.29
20
-50.8177
11
69.29
21
-60.96
0
LINE
8
Black
10
69.29
20
-60.96
11
69.29
21
-84.455
0
LINE
8
Black
10
69.29
20
-84.455
11
69.29
21
-131.445
0
LINE
8
Black
10
69.29
20
-131.445
11
69.29
21
-132.712
0
LINE
8
Black
10
69.29
20
-132.712
11
69.3371
21
-133.25
0
LINE
8
Black
10
69.3371
20
-133.25
11
69.7063
21
-134.264
0
LINE
8
Black
10
69.7063
20
-134.264
11
70.3981
21
-135.089
0
LINE
8
Black
10
70.3981
20
-135.089
11
71.3301
21
-135.627
0
LINE
8
Black
10
71.3301
20
-135.627
11
72.3966
21
-135.815
0
LINE
8
Black
10
72.3966
20
-135.815
11
73.66
21
-135.815
0
LINE
8
Black
10
73.66
20
-135.815
11
101.6
21
-135.815
0
LINE
8
Black
10
101.6
20
-135.815
11
172.085
21
-135.815
  0
ENDSEC
  0
EOF
