G04 #@! TF.FileFunction,Copper,L2,Bot,Signal*
%FSLAX46Y46*%
G04 Gerber Fmt 4.6, Leading zero omitted, Abs format (unit mm)*
G04 Created by KiCad (PCBNEW 4.0.7) date 08/17/18 08:44:37*
%MOMM*%
%LPD*%
G01*
G04 APERTURE LIST*
%ADD10C,0.100000*%
%ADD11C,0.254000*%
G04 APERTURE END LIST*
D10*
D11*
G36*
X217619834Y-143124932D02*
X67371717Y-145371166D01*
X63514825Y-53259500D01*
X74250000Y-53259500D01*
X74250000Y-130730000D01*
X74251147Y-130735765D01*
X74251100Y-130736000D01*
X74251100Y-130743000D01*
X74262063Y-130798114D01*
X74261230Y-130853525D01*
X74262330Y-130859525D01*
X74262383Y-130859658D01*
X74262804Y-130862338D01*
X74266984Y-130873710D01*
X74266915Y-130885822D01*
X74277554Y-130911924D01*
X74277903Y-130922581D01*
X74289705Y-130948626D01*
X74296484Y-130988186D01*
X74298784Y-130994186D01*
X74299416Y-130995188D01*
X74299670Y-130996814D01*
X74301870Y-131002815D01*
X74303222Y-131005030D01*
X74303243Y-131005138D01*
X74303751Y-131005899D01*
X74333479Y-131054626D01*
X74355009Y-131113204D01*
X74355539Y-131113779D01*
X74355674Y-131114190D01*
X74363898Y-131123771D01*
X74367793Y-131133327D01*
X74370394Y-131137267D01*
X74372344Y-131142252D01*
X74375544Y-131147252D01*
X74383431Y-131155456D01*
X74388220Y-131166025D01*
X74392520Y-131172026D01*
X74418878Y-131196710D01*
X74433092Y-131222587D01*
X74437292Y-131227587D01*
X74440632Y-131230265D01*
X74441068Y-131230979D01*
X74446125Y-131234668D01*
X74487707Y-131268005D01*
X74518330Y-131303680D01*
X74528732Y-131316818D01*
X74531501Y-131318361D01*
X74534860Y-131320995D01*
X74535905Y-131321524D01*
X74539584Y-131325895D01*
X74544584Y-131329895D01*
X74557612Y-131336651D01*
X74560769Y-131339935D01*
X74560976Y-131340026D01*
X74568318Y-131347711D01*
X74574018Y-131351711D01*
X74614269Y-131369472D01*
X74645823Y-131394769D01*
X74649000Y-131395693D01*
X74655228Y-131400814D01*
X74660828Y-131403814D01*
X74705974Y-131417555D01*
X74734862Y-131436857D01*
X74749298Y-131439728D01*
X74762203Y-131446920D01*
X74768403Y-131448921D01*
X74772357Y-131449380D01*
X74780503Y-131453920D01*
X74782707Y-131454631D01*
X74782851Y-131454709D01*
X74784924Y-131455347D01*
X74786703Y-131455921D01*
X74786843Y-131455937D01*
X74789351Y-131456709D01*
X74824397Y-131460301D01*
X74850794Y-131463369D01*
X74899341Y-131481035D01*
X74905840Y-131482035D01*
X74916320Y-131481577D01*
X74916521Y-131481638D01*
X74917823Y-131481511D01*
X74951866Y-131480022D01*
X74997000Y-131489000D01*
X75003500Y-131489000D01*
X75004236Y-131488854D01*
X75010000Y-131490000D01*
X178309795Y-131490000D01*
X191102640Y-138953223D01*
X191139722Y-139012105D01*
X191157723Y-139031105D01*
X191205946Y-139065247D01*
X191245516Y-139109134D01*
X191709516Y-139455134D01*
X191752409Y-139475558D01*
X191777570Y-139498383D01*
X191787570Y-139504383D01*
X191813252Y-139513585D01*
X191835545Y-139529601D01*
X191846545Y-139534601D01*
X191880973Y-139542672D01*
X191923384Y-139566848D01*
X192465020Y-139747393D01*
X193371696Y-140276600D01*
X193399081Y-140286041D01*
X193416659Y-140299683D01*
X193422659Y-140302683D01*
X193458283Y-140312439D01*
X193479862Y-140326857D01*
X193489852Y-140328844D01*
X193500384Y-140334848D01*
X193506384Y-140336848D01*
X193507331Y-140336967D01*
X193512384Y-140339848D01*
X193518384Y-140341848D01*
X193533376Y-140343738D01*
X193546816Y-140350644D01*
X193553816Y-140352644D01*
X193584578Y-140355171D01*
X193600470Y-140362342D01*
X193622399Y-140363026D01*
X193624376Y-140363708D01*
X193626806Y-140363560D01*
X193651126Y-140372115D01*
X193658126Y-140373115D01*
X193676246Y-140372127D01*
X193680441Y-140373276D01*
X193697145Y-140371170D01*
X193719441Y-140377276D01*
X193727944Y-140376204D01*
X193742000Y-140379000D01*
X193748000Y-140379000D01*
X193754500Y-140377707D01*
X193761000Y-140379000D01*
X193768000Y-140379000D01*
X193799186Y-140372797D01*
X193820193Y-140374522D01*
X193835297Y-140369671D01*
X193867613Y-140370680D01*
X193873614Y-140369680D01*
X193879491Y-140367458D01*
X193886613Y-140367680D01*
X193892614Y-140366680D01*
X193902436Y-140362966D01*
X193912934Y-140362977D01*
X193923398Y-140358656D01*
X193925004Y-140358568D01*
X193933655Y-140354419D01*
X193948109Y-140348450D01*
X193984616Y-140343848D01*
X193990616Y-140341848D01*
X193998470Y-140337371D01*
X194002616Y-140336848D01*
X194008616Y-140334848D01*
X194018612Y-140329150D01*
X194030138Y-140326857D01*
X194058357Y-140308001D01*
X194069138Y-140305857D01*
X194076258Y-140301100D01*
X194103341Y-140293683D01*
X194109341Y-140290683D01*
X194120256Y-140282212D01*
X194133422Y-140278038D01*
X194138623Y-140273660D01*
X194142613Y-140272151D01*
X194150265Y-140264962D01*
X194159970Y-140260954D01*
X194165970Y-140256955D01*
X194184923Y-140238041D01*
X194219916Y-140219895D01*
X194224916Y-140215895D01*
X194231953Y-140207536D01*
X194240813Y-140202485D01*
X194259090Y-140178935D01*
X194291368Y-140157368D01*
X194296368Y-140152368D01*
X194305858Y-140138165D01*
X194320485Y-140126813D01*
X194327325Y-140114813D01*
X194337895Y-140105916D01*
X194341895Y-140100916D01*
X194342623Y-140099512D01*
X194346895Y-140095916D01*
X194354895Y-140085916D01*
X194378030Y-140041303D01*
X194411371Y-140003696D01*
X194909203Y-139152069D01*
X195197401Y-138896587D01*
X195210018Y-138879961D01*
X195227368Y-138868368D01*
X195248624Y-138836556D01*
X195277895Y-138811916D01*
X195293895Y-138791916D01*
X195322144Y-138737441D01*
X195361332Y-138690222D01*
X195693332Y-138077222D01*
X195712300Y-138015910D01*
X195739546Y-137966745D01*
X195741464Y-137963621D01*
X195741539Y-137963148D01*
X195743411Y-137959771D01*
X195751411Y-137934771D01*
X195759569Y-137863112D01*
X195772322Y-137821887D01*
X195769267Y-137789018D01*
X195773679Y-137761313D01*
X195782605Y-137723237D01*
X195781153Y-137714375D01*
X195783494Y-137699673D01*
X195782494Y-137673673D01*
X195781573Y-137669822D01*
X195781642Y-137669213D01*
X195780348Y-137664703D01*
X195780138Y-137663825D01*
X213207470Y-107867759D01*
X213223582Y-107859404D01*
X213254182Y-107845921D01*
X213258708Y-107841189D01*
X213268916Y-107835895D01*
X213288916Y-107819895D01*
X213342260Y-107756525D01*
X213367735Y-107738853D01*
X213390666Y-107703204D01*
X213438908Y-107652760D01*
X213452908Y-107630760D01*
X213457002Y-107620217D01*
X213461038Y-107615422D01*
X213470710Y-107584914D01*
X213476729Y-107569414D01*
X213512330Y-107514069D01*
X213603330Y-107283069D01*
X213612933Y-107229973D01*
X213634688Y-107180597D01*
X213636688Y-107171597D01*
X213636853Y-107164187D01*
X213639698Y-107157340D01*
X213641698Y-107147340D01*
X213641722Y-107124480D01*
X214095988Y-106349350D01*
X214097298Y-106345572D01*
X214097383Y-106345430D01*
X214098069Y-106343515D01*
X214099425Y-106342003D01*
X214115272Y-106296953D01*
X214141007Y-106257403D01*
X214143006Y-106252403D01*
X214144685Y-106243388D01*
X214146857Y-106240138D01*
X214148235Y-106233212D01*
X214152385Y-106226520D01*
X214155385Y-106218520D01*
X214162398Y-106175720D01*
X214175484Y-106149617D01*
X214177028Y-106128209D01*
X214185698Y-106107340D01*
X214186698Y-106102340D01*
X214186704Y-106096150D01*
X214187539Y-106093821D01*
X214187440Y-106091792D01*
X214188115Y-106089874D01*
X214189115Y-106082874D01*
X214186763Y-106039731D01*
X214186764Y-106039516D01*
X214199000Y-105978000D01*
X214199000Y-105973000D01*
X214197707Y-105966500D01*
X214198632Y-105961849D01*
X214198949Y-105960352D01*
X214198940Y-105960303D01*
X214199000Y-105960000D01*
X214199000Y-105952000D01*
X214195659Y-105935204D01*
X214195949Y-105933648D01*
X214192303Y-105916417D01*
X214194710Y-105883036D01*
X214193710Y-105875036D01*
X214186956Y-105854705D01*
X214186977Y-105835066D01*
X214183713Y-105827163D01*
X214183698Y-105812660D01*
X214182698Y-105807660D01*
X214169550Y-105776012D01*
X214168568Y-105757996D01*
X214156613Y-105733065D01*
X214150006Y-105697597D01*
X214148007Y-105692597D01*
X214147134Y-105691256D01*
X214146857Y-105689862D01*
X214143201Y-105684391D01*
X214140614Y-105672165D01*
X214134614Y-105658165D01*
X214113357Y-105627176D01*
X214105525Y-105600642D01*
X214095240Y-105587916D01*
X214089383Y-105571570D01*
X214086383Y-105566570D01*
X214068044Y-105546355D01*
X214062954Y-105534030D01*
X214058954Y-105528030D01*
X214057675Y-105526748D01*
X214053000Y-105517000D01*
X214050000Y-105513000D01*
X214042074Y-105505893D01*
X214039384Y-105500199D01*
X214004623Y-105468664D01*
X213983426Y-105437763D01*
X213977037Y-105433605D01*
X213968368Y-105420632D01*
X213964368Y-105416632D01*
X213947942Y-105405657D01*
X213937526Y-105392768D01*
X213931526Y-105387768D01*
X213917010Y-105379868D01*
X213906802Y-105368616D01*
X213893693Y-105362423D01*
X213870161Y-105338842D01*
X213857236Y-105333473D01*
X213843039Y-105320115D01*
X209120000Y-102368333D01*
X209120000Y-46275000D01*
X209118854Y-46269236D01*
X209119000Y-46268500D01*
X209119000Y-46262000D01*
X209110022Y-46216866D01*
X209111511Y-46182823D01*
X209111638Y-46181521D01*
X209111577Y-46181320D01*
X209112035Y-46170840D01*
X209111035Y-46164341D01*
X209093369Y-46115794D01*
X209090301Y-46089397D01*
X209086709Y-46054351D01*
X209085937Y-46051843D01*
X209085921Y-46051703D01*
X209085347Y-46049924D01*
X209084709Y-46047851D01*
X209084631Y-46047707D01*
X209083920Y-46045503D01*
X209079380Y-46037357D01*
X209078921Y-46033403D01*
X209076920Y-46027203D01*
X209069728Y-46014298D01*
X209066857Y-45999862D01*
X209047555Y-45970974D01*
X209033814Y-45925828D01*
X209030814Y-45920228D01*
X209025693Y-45914000D01*
X209024769Y-45910823D01*
X208999472Y-45879269D01*
X208981711Y-45839018D01*
X208977711Y-45833318D01*
X208970026Y-45825976D01*
X208969935Y-45825769D01*
X208966651Y-45822612D01*
X208959895Y-45809584D01*
X208955895Y-45804584D01*
X208951524Y-45800905D01*
X208950995Y-45799860D01*
X208948361Y-45796501D01*
X208946818Y-45793732D01*
X208933680Y-45783330D01*
X208898005Y-45752707D01*
X208864668Y-45711125D01*
X208860979Y-45706068D01*
X208860265Y-45705632D01*
X208857587Y-45702292D01*
X208852587Y-45698092D01*
X208826710Y-45683878D01*
X208802026Y-45657520D01*
X208796025Y-45653220D01*
X208785456Y-45648431D01*
X208777252Y-45640544D01*
X208772252Y-45637344D01*
X208767267Y-45635394D01*
X208763327Y-45632793D01*
X208753771Y-45628898D01*
X208744190Y-45620674D01*
X208743779Y-45620539D01*
X208743204Y-45620009D01*
X208684626Y-45598479D01*
X208635899Y-45568751D01*
X208635138Y-45568243D01*
X208635030Y-45568222D01*
X208632815Y-45566870D01*
X208626814Y-45564670D01*
X208625188Y-45564416D01*
X208624186Y-45563784D01*
X208618186Y-45561484D01*
X208578626Y-45554705D01*
X208552581Y-45542903D01*
X208541924Y-45542554D01*
X208515822Y-45531915D01*
X208503710Y-45531984D01*
X208492338Y-45527804D01*
X208489658Y-45527383D01*
X208489525Y-45527330D01*
X208483525Y-45526230D01*
X208428114Y-45527063D01*
X208373000Y-45516100D01*
X208366000Y-45516100D01*
X208365765Y-45516147D01*
X208360000Y-45515000D01*
X116285000Y-45515000D01*
X116279235Y-45516147D01*
X116279000Y-45516100D01*
X116272000Y-45516100D01*
X116216886Y-45527063D01*
X116192062Y-45526690D01*
X116157700Y-45525703D01*
X74883201Y-52510703D01*
X74824482Y-52533074D01*
X74779352Y-52540130D01*
X74767425Y-52541419D01*
X74765951Y-52542225D01*
X74761185Y-52542970D01*
X74752398Y-52546192D01*
X74743524Y-52549346D01*
X74738055Y-52552608D01*
X74734862Y-52553243D01*
X74726538Y-52558805D01*
X74710762Y-52561943D01*
X74710505Y-52562114D01*
X74710362Y-52562143D01*
X74660199Y-52595661D01*
X74633438Y-52605856D01*
X74611222Y-52626832D01*
X74532920Y-52669648D01*
X74513320Y-52686048D01*
X74499818Y-52702824D01*
X74488132Y-52710632D01*
X74484144Y-52716600D01*
X74468532Y-52727032D01*
X74468132Y-52727432D01*
X74417702Y-52802907D01*
X74369668Y-52858064D01*
X74361661Y-52866433D01*
X74361082Y-52867922D01*
X74358086Y-52871363D01*
X74353387Y-52879568D01*
X74348592Y-52887756D01*
X74346794Y-52892947D01*
X74345738Y-52894259D01*
X74342433Y-52905540D01*
X74335232Y-52926331D01*
X74319643Y-52949662D01*
X74318809Y-52953853D01*
X74306843Y-52971762D01*
X74306814Y-52971905D01*
X74306643Y-52972162D01*
X74292018Y-53045687D01*
X74264869Y-53115565D01*
X74262978Y-53126310D01*
X74260964Y-53137431D01*
X74261983Y-53196682D01*
X74254500Y-53234300D01*
X74254756Y-53235589D01*
X74250000Y-53259500D01*
X63514825Y-53259500D01*
X63132402Y-44126349D01*
X215126151Y-43377611D01*
X217619834Y-143124932D01*
X217619834Y-143124932D01*
G37*
X217619834Y-143124932D02*
X67371717Y-145371166D01*
X63514825Y-53259500D01*
X74250000Y-53259500D01*
X74250000Y-130730000D01*
X74251147Y-130735765D01*
X74251100Y-130736000D01*
X74251100Y-130743000D01*
X74262063Y-130798114D01*
X74261230Y-130853525D01*
X74262330Y-130859525D01*
X74262383Y-130859658D01*
X74262804Y-130862338D01*
X74266984Y-130873710D01*
X74266915Y-130885822D01*
X74277554Y-130911924D01*
X74277903Y-130922581D01*
X74289705Y-130948626D01*
X74296484Y-130988186D01*
X74298784Y-130994186D01*
X74299416Y-130995188D01*
X74299670Y-130996814D01*
X74301870Y-131002815D01*
X74303222Y-131005030D01*
X74303243Y-131005138D01*
X74303751Y-131005899D01*
X74333479Y-131054626D01*
X74355009Y-131113204D01*
X74355539Y-131113779D01*
X74355674Y-131114190D01*
X74363898Y-131123771D01*
X74367793Y-131133327D01*
X74370394Y-131137267D01*
X74372344Y-131142252D01*
X74375544Y-131147252D01*
X74383431Y-131155456D01*
X74388220Y-131166025D01*
X74392520Y-131172026D01*
X74418878Y-131196710D01*
X74433092Y-131222587D01*
X74437292Y-131227587D01*
X74440632Y-131230265D01*
X74441068Y-131230979D01*
X74446125Y-131234668D01*
X74487707Y-131268005D01*
X74518330Y-131303680D01*
X74528732Y-131316818D01*
X74531501Y-131318361D01*
X74534860Y-131320995D01*
X74535905Y-131321524D01*
X74539584Y-131325895D01*
X74544584Y-131329895D01*
X74557612Y-131336651D01*
X74560769Y-131339935D01*
X74560976Y-131340026D01*
X74568318Y-131347711D01*
X74574018Y-131351711D01*
X74614269Y-131369472D01*
X74645823Y-131394769D01*
X74649000Y-131395693D01*
X74655228Y-131400814D01*
X74660828Y-131403814D01*
X74705974Y-131417555D01*
X74734862Y-131436857D01*
X74749298Y-131439728D01*
X74762203Y-131446920D01*
X74768403Y-131448921D01*
X74772357Y-131449380D01*
X74780503Y-131453920D01*
X74782707Y-131454631D01*
X74782851Y-131454709D01*
X74784924Y-131455347D01*
X74786703Y-131455921D01*
X74786843Y-131455937D01*
X74789351Y-131456709D01*
X74824397Y-131460301D01*
X74850794Y-131463369D01*
X74899341Y-131481035D01*
X74905840Y-131482035D01*
X74916320Y-131481577D01*
X74916521Y-131481638D01*
X74917823Y-131481511D01*
X74951866Y-131480022D01*
X74997000Y-131489000D01*
X75003500Y-131489000D01*
X75004236Y-131488854D01*
X75010000Y-131490000D01*
X178309795Y-131490000D01*
X191102640Y-138953223D01*
X191139722Y-139012105D01*
X191157723Y-139031105D01*
X191205946Y-139065247D01*
X191245516Y-139109134D01*
X191709516Y-139455134D01*
X191752409Y-139475558D01*
X191777570Y-139498383D01*
X191787570Y-139504383D01*
X191813252Y-139513585D01*
X191835545Y-139529601D01*
X191846545Y-139534601D01*
X191880973Y-139542672D01*
X191923384Y-139566848D01*
X192465020Y-139747393D01*
X193371696Y-140276600D01*
X193399081Y-140286041D01*
X193416659Y-140299683D01*
X193422659Y-140302683D01*
X193458283Y-140312439D01*
X193479862Y-140326857D01*
X193489852Y-140328844D01*
X193500384Y-140334848D01*
X193506384Y-140336848D01*
X193507331Y-140336967D01*
X193512384Y-140339848D01*
X193518384Y-140341848D01*
X193533376Y-140343738D01*
X193546816Y-140350644D01*
X193553816Y-140352644D01*
X193584578Y-140355171D01*
X193600470Y-140362342D01*
X193622399Y-140363026D01*
X193624376Y-140363708D01*
X193626806Y-140363560D01*
X193651126Y-140372115D01*
X193658126Y-140373115D01*
X193676246Y-140372127D01*
X193680441Y-140373276D01*
X193697145Y-140371170D01*
X193719441Y-140377276D01*
X193727944Y-140376204D01*
X193742000Y-140379000D01*
X193748000Y-140379000D01*
X193754500Y-140377707D01*
X193761000Y-140379000D01*
X193768000Y-140379000D01*
X193799186Y-140372797D01*
X193820193Y-140374522D01*
X193835297Y-140369671D01*
X193867613Y-140370680D01*
X193873614Y-140369680D01*
X193879491Y-140367458D01*
X193886613Y-140367680D01*
X193892614Y-140366680D01*
X193902436Y-140362966D01*
X193912934Y-140362977D01*
X193923398Y-140358656D01*
X193925004Y-140358568D01*
X193933655Y-140354419D01*
X193948109Y-140348450D01*
X193984616Y-140343848D01*
X193990616Y-140341848D01*
X193998470Y-140337371D01*
X194002616Y-140336848D01*
X194008616Y-140334848D01*
X194018612Y-140329150D01*
X194030138Y-140326857D01*
X194058357Y-140308001D01*
X194069138Y-140305857D01*
X194076258Y-140301100D01*
X194103341Y-140293683D01*
X194109341Y-140290683D01*
X194120256Y-140282212D01*
X194133422Y-140278038D01*
X194138623Y-140273660D01*
X194142613Y-140272151D01*
X194150265Y-140264962D01*
X194159970Y-140260954D01*
X194165970Y-140256955D01*
X194184923Y-140238041D01*
X194219916Y-140219895D01*
X194224916Y-140215895D01*
X194231953Y-140207536D01*
X194240813Y-140202485D01*
X194259090Y-140178935D01*
X194291368Y-140157368D01*
X194296368Y-140152368D01*
X194305858Y-140138165D01*
X194320485Y-140126813D01*
X194327325Y-140114813D01*
X194337895Y-140105916D01*
X194341895Y-140100916D01*
X194342623Y-140099512D01*
X194346895Y-140095916D01*
X194354895Y-140085916D01*
X194378030Y-140041303D01*
X194411371Y-140003696D01*
X194909203Y-139152069D01*
X195197401Y-138896587D01*
X195210018Y-138879961D01*
X195227368Y-138868368D01*
X195248624Y-138836556D01*
X195277895Y-138811916D01*
X195293895Y-138791916D01*
X195322144Y-138737441D01*
X195361332Y-138690222D01*
X195693332Y-138077222D01*
X195712300Y-138015910D01*
X195739546Y-137966745D01*
X195741464Y-137963621D01*
X195741539Y-137963148D01*
X195743411Y-137959771D01*
X195751411Y-137934771D01*
X195759569Y-137863112D01*
X195772322Y-137821887D01*
X195769267Y-137789018D01*
X195773679Y-137761313D01*
X195782605Y-137723237D01*
X195781153Y-137714375D01*
X195783494Y-137699673D01*
X195782494Y-137673673D01*
X195781573Y-137669822D01*
X195781642Y-137669213D01*
X195780348Y-137664703D01*
X195780138Y-137663825D01*
X213207470Y-107867759D01*
X213223582Y-107859404D01*
X213254182Y-107845921D01*
X213258708Y-107841189D01*
X213268916Y-107835895D01*
X213288916Y-107819895D01*
X213342260Y-107756525D01*
X213367735Y-107738853D01*
X213390666Y-107703204D01*
X213438908Y-107652760D01*
X213452908Y-107630760D01*
X213457002Y-107620217D01*
X213461038Y-107615422D01*
X213470710Y-107584914D01*
X213476729Y-107569414D01*
X213512330Y-107514069D01*
X213603330Y-107283069D01*
X213612933Y-107229973D01*
X213634688Y-107180597D01*
X213636688Y-107171597D01*
X213636853Y-107164187D01*
X213639698Y-107157340D01*
X213641698Y-107147340D01*
X213641722Y-107124480D01*
X214095988Y-106349350D01*
X214097298Y-106345572D01*
X214097383Y-106345430D01*
X214098069Y-106343515D01*
X214099425Y-106342003D01*
X214115272Y-106296953D01*
X214141007Y-106257403D01*
X214143006Y-106252403D01*
X214144685Y-106243388D01*
X214146857Y-106240138D01*
X214148235Y-106233212D01*
X214152385Y-106226520D01*
X214155385Y-106218520D01*
X214162398Y-106175720D01*
X214175484Y-106149617D01*
X214177028Y-106128209D01*
X214185698Y-106107340D01*
X214186698Y-106102340D01*
X214186704Y-106096150D01*
X214187539Y-106093821D01*
X214187440Y-106091792D01*
X214188115Y-106089874D01*
X214189115Y-106082874D01*
X214186763Y-106039731D01*
X214186764Y-106039516D01*
X214199000Y-105978000D01*
X214199000Y-105973000D01*
X214197707Y-105966500D01*
X214198632Y-105961849D01*
X214198949Y-105960352D01*
X214198940Y-105960303D01*
X214199000Y-105960000D01*
X214199000Y-105952000D01*
X214195659Y-105935204D01*
X214195949Y-105933648D01*
X214192303Y-105916417D01*
X214194710Y-105883036D01*
X214193710Y-105875036D01*
X214186956Y-105854705D01*
X214186977Y-105835066D01*
X214183713Y-105827163D01*
X214183698Y-105812660D01*
X214182698Y-105807660D01*
X214169550Y-105776012D01*
X214168568Y-105757996D01*
X214156613Y-105733065D01*
X214150006Y-105697597D01*
X214148007Y-105692597D01*
X214147134Y-105691256D01*
X214146857Y-105689862D01*
X214143201Y-105684391D01*
X214140614Y-105672165D01*
X214134614Y-105658165D01*
X214113357Y-105627176D01*
X214105525Y-105600642D01*
X214095240Y-105587916D01*
X214089383Y-105571570D01*
X214086383Y-105566570D01*
X214068044Y-105546355D01*
X214062954Y-105534030D01*
X214058954Y-105528030D01*
X214057675Y-105526748D01*
X214053000Y-105517000D01*
X214050000Y-105513000D01*
X214042074Y-105505893D01*
X214039384Y-105500199D01*
X214004623Y-105468664D01*
X213983426Y-105437763D01*
X213977037Y-105433605D01*
X213968368Y-105420632D01*
X213964368Y-105416632D01*
X213947942Y-105405657D01*
X213937526Y-105392768D01*
X213931526Y-105387768D01*
X213917010Y-105379868D01*
X213906802Y-105368616D01*
X213893693Y-105362423D01*
X213870161Y-105338842D01*
X213857236Y-105333473D01*
X213843039Y-105320115D01*
X209120000Y-102368333D01*
X209120000Y-46275000D01*
X209118854Y-46269236D01*
X209119000Y-46268500D01*
X209119000Y-46262000D01*
X209110022Y-46216866D01*
X209111511Y-46182823D01*
X209111638Y-46181521D01*
X209111577Y-46181320D01*
X209112035Y-46170840D01*
X209111035Y-46164341D01*
X209093369Y-46115794D01*
X209090301Y-46089397D01*
X209086709Y-46054351D01*
X209085937Y-46051843D01*
X209085921Y-46051703D01*
X209085347Y-46049924D01*
X209084709Y-46047851D01*
X209084631Y-46047707D01*
X209083920Y-46045503D01*
X209079380Y-46037357D01*
X209078921Y-46033403D01*
X209076920Y-46027203D01*
X209069728Y-46014298D01*
X209066857Y-45999862D01*
X209047555Y-45970974D01*
X209033814Y-45925828D01*
X209030814Y-45920228D01*
X209025693Y-45914000D01*
X209024769Y-45910823D01*
X208999472Y-45879269D01*
X208981711Y-45839018D01*
X208977711Y-45833318D01*
X208970026Y-45825976D01*
X208969935Y-45825769D01*
X208966651Y-45822612D01*
X208959895Y-45809584D01*
X208955895Y-45804584D01*
X208951524Y-45800905D01*
X208950995Y-45799860D01*
X208948361Y-45796501D01*
X208946818Y-45793732D01*
X208933680Y-45783330D01*
X208898005Y-45752707D01*
X208864668Y-45711125D01*
X208860979Y-45706068D01*
X208860265Y-45705632D01*
X208857587Y-45702292D01*
X208852587Y-45698092D01*
X208826710Y-45683878D01*
X208802026Y-45657520D01*
X208796025Y-45653220D01*
X208785456Y-45648431D01*
X208777252Y-45640544D01*
X208772252Y-45637344D01*
X208767267Y-45635394D01*
X208763327Y-45632793D01*
X208753771Y-45628898D01*
X208744190Y-45620674D01*
X208743779Y-45620539D01*
X208743204Y-45620009D01*
X208684626Y-45598479D01*
X208635899Y-45568751D01*
X208635138Y-45568243D01*
X208635030Y-45568222D01*
X208632815Y-45566870D01*
X208626814Y-45564670D01*
X208625188Y-45564416D01*
X208624186Y-45563784D01*
X208618186Y-45561484D01*
X208578626Y-45554705D01*
X208552581Y-45542903D01*
X208541924Y-45542554D01*
X208515822Y-45531915D01*
X208503710Y-45531984D01*
X208492338Y-45527804D01*
X208489658Y-45527383D01*
X208489525Y-45527330D01*
X208483525Y-45526230D01*
X208428114Y-45527063D01*
X208373000Y-45516100D01*
X208366000Y-45516100D01*
X208365765Y-45516147D01*
X208360000Y-45515000D01*
X116285000Y-45515000D01*
X116279235Y-45516147D01*
X116279000Y-45516100D01*
X116272000Y-45516100D01*
X116216886Y-45527063D01*
X116192062Y-45526690D01*
X116157700Y-45525703D01*
X74883201Y-52510703D01*
X74824482Y-52533074D01*
X74779352Y-52540130D01*
X74767425Y-52541419D01*
X74765951Y-52542225D01*
X74761185Y-52542970D01*
X74752398Y-52546192D01*
X74743524Y-52549346D01*
X74738055Y-52552608D01*
X74734862Y-52553243D01*
X74726538Y-52558805D01*
X74710762Y-52561943D01*
X74710505Y-52562114D01*
X74710362Y-52562143D01*
X74660199Y-52595661D01*
X74633438Y-52605856D01*
X74611222Y-52626832D01*
X74532920Y-52669648D01*
X74513320Y-52686048D01*
X74499818Y-52702824D01*
X74488132Y-52710632D01*
X74484144Y-52716600D01*
X74468532Y-52727032D01*
X74468132Y-52727432D01*
X74417702Y-52802907D01*
X74369668Y-52858064D01*
X74361661Y-52866433D01*
X74361082Y-52867922D01*
X74358086Y-52871363D01*
X74353387Y-52879568D01*
X74348592Y-52887756D01*
X74346794Y-52892947D01*
X74345738Y-52894259D01*
X74342433Y-52905540D01*
X74335232Y-52926331D01*
X74319643Y-52949662D01*
X74318809Y-52953853D01*
X74306843Y-52971762D01*
X74306814Y-52971905D01*
X74306643Y-52972162D01*
X74292018Y-53045687D01*
X74264869Y-53115565D01*
X74262978Y-53126310D01*
X74260964Y-53137431D01*
X74261983Y-53196682D01*
X74254500Y-53234300D01*
X74254756Y-53235589D01*
X74250000Y-53259500D01*
X63514825Y-53259500D01*
X63132402Y-44126349D01*
X215126151Y-43377611D01*
X217619834Y-143124932D01*
G36*
X206007138Y-47191642D02*
X206729878Y-47608923D01*
X207269161Y-48251699D01*
X207586983Y-49095300D01*
X207600000Y-49116218D01*
X207600000Y-102790000D01*
X207604288Y-102811555D01*
X207604000Y-102813000D01*
X207604000Y-102814000D01*
X207608802Y-102838141D01*
X207605724Y-102862559D01*
X207610074Y-102878445D01*
X207609320Y-102902613D01*
X207611320Y-102914614D01*
X207613134Y-102919410D01*
X207613049Y-102924537D01*
X207615049Y-102935536D01*
X207641489Y-103002470D01*
X207656143Y-103076138D01*
X207666999Y-103092385D01*
X207668143Y-103098138D01*
X207671691Y-103103448D01*
X207676317Y-103120341D01*
X207682317Y-103132341D01*
X207698637Y-103153370D01*
X207707617Y-103178430D01*
X207713617Y-103188430D01*
X207753666Y-103232576D01*
X207762285Y-103251716D01*
X207785112Y-103273194D01*
X207816632Y-103320368D01*
X207818632Y-103322368D01*
X207825234Y-103326779D01*
X207827632Y-103330368D01*
X207835632Y-103338368D01*
X207842703Y-103343092D01*
X207847911Y-103349975D01*
X207856911Y-103357976D01*
X207879377Y-103371148D01*
X207893199Y-103386384D01*
X207917716Y-103397966D01*
X207956937Y-103434870D01*
X211474196Y-105633271D01*
X211474692Y-105634462D01*
X211483502Y-105647588D01*
X211486112Y-105656904D01*
X211511160Y-105688792D01*
X211526691Y-105711931D01*
X211537620Y-105742432D01*
X211568133Y-105776067D01*
X211609722Y-105842105D01*
X211627723Y-105861105D01*
X211676799Y-105895850D01*
X211717201Y-105940386D01*
X212005756Y-106154186D01*
X212129649Y-106342195D01*
X212181800Y-106560939D01*
X212174745Y-106622911D01*
X193736712Y-138145361D01*
X193367515Y-138291500D01*
X193003523Y-138301279D01*
X178898146Y-130073308D01*
X178830179Y-130049897D01*
X178790138Y-130023143D01*
X178769826Y-130019103D01*
X178750616Y-130008152D01*
X178744616Y-130006152D01*
X178737196Y-130005217D01*
X178736073Y-130004896D01*
X178729184Y-130001356D01*
X178722184Y-129999356D01*
X178679095Y-129995817D01*
X178641821Y-129982461D01*
X178633091Y-129982886D01*
X178618874Y-129977885D01*
X178611874Y-129976885D01*
X178569262Y-129979208D01*
X178528000Y-129971000D01*
X178522000Y-129971000D01*
X178521014Y-129971196D01*
X178515000Y-129970000D01*
X78251513Y-129970000D01*
X77362957Y-129813368D01*
X76640286Y-129396203D01*
X76103691Y-128756291D01*
X75806623Y-127940401D01*
X75770000Y-127522072D01*
X75770000Y-110061593D01*
X92214677Y-110061593D01*
X92224975Y-110377507D01*
X92224699Y-110693599D01*
X92236184Y-110721395D01*
X92237164Y-110751453D01*
X92457901Y-111284359D01*
X92470954Y-111289581D01*
X92488281Y-111331515D01*
X92975918Y-111820004D01*
X93020149Y-111838370D01*
X93025641Y-111852099D01*
X93321448Y-111963481D01*
X93613373Y-112084699D01*
X93643448Y-112084725D01*
X93671593Y-112095323D01*
X93987507Y-112085025D01*
X94303599Y-112085301D01*
X94331395Y-112073816D01*
X94361453Y-112072836D01*
X94894359Y-111852099D01*
X94899581Y-111839046D01*
X94941515Y-111821719D01*
X95430004Y-111334082D01*
X95448370Y-111289851D01*
X95462099Y-111284359D01*
X95573481Y-110988552D01*
X95694699Y-110696627D01*
X95694725Y-110666552D01*
X95705323Y-110638407D01*
X95695025Y-110322493D01*
X95695301Y-110006401D01*
X95683816Y-109978605D01*
X95682836Y-109948547D01*
X95462099Y-109415641D01*
X95449046Y-109410419D01*
X95431719Y-109368485D01*
X94995590Y-108931593D01*
X183034677Y-108931593D01*
X183044975Y-109247507D01*
X183044699Y-109563599D01*
X183056184Y-109591395D01*
X183057164Y-109621453D01*
X183277901Y-110154359D01*
X183290954Y-110159581D01*
X183308281Y-110201515D01*
X183795918Y-110690004D01*
X183840149Y-110708370D01*
X183845641Y-110722099D01*
X184141448Y-110833481D01*
X184433373Y-110954699D01*
X184463448Y-110954725D01*
X184491593Y-110965323D01*
X184807507Y-110955025D01*
X185123599Y-110955301D01*
X185151395Y-110943816D01*
X185181453Y-110942836D01*
X185714359Y-110722099D01*
X185719581Y-110709046D01*
X185761515Y-110691719D01*
X186250004Y-110204082D01*
X186268370Y-110159851D01*
X186282099Y-110154359D01*
X186393481Y-109858552D01*
X186514699Y-109566627D01*
X186514725Y-109536552D01*
X186525323Y-109508407D01*
X186515025Y-109192493D01*
X186515301Y-108876401D01*
X186503816Y-108848605D01*
X186502836Y-108818547D01*
X186282099Y-108285641D01*
X186269046Y-108280419D01*
X186251719Y-108238485D01*
X185764082Y-107749996D01*
X185719851Y-107731630D01*
X185714359Y-107717901D01*
X185418552Y-107606519D01*
X185126627Y-107485301D01*
X185096552Y-107485275D01*
X185068407Y-107474677D01*
X184752493Y-107484975D01*
X184436401Y-107484699D01*
X184408605Y-107496184D01*
X184378547Y-107497164D01*
X183845641Y-107717901D01*
X183840419Y-107730954D01*
X183798485Y-107748281D01*
X183309996Y-108235918D01*
X183291630Y-108280149D01*
X183277901Y-108285641D01*
X183166519Y-108581448D01*
X183045301Y-108873373D01*
X183045275Y-108903448D01*
X183034677Y-108931593D01*
X94995590Y-108931593D01*
X94944082Y-108879996D01*
X94899851Y-108861630D01*
X94894359Y-108847901D01*
X94598552Y-108736519D01*
X94306627Y-108615301D01*
X94276552Y-108615275D01*
X94248407Y-108604677D01*
X93932493Y-108614975D01*
X93616401Y-108614699D01*
X93588605Y-108626184D01*
X93558547Y-108627164D01*
X93025641Y-108847901D01*
X93020419Y-108860954D01*
X92978485Y-108878281D01*
X92489996Y-109365918D01*
X92471630Y-109410149D01*
X92457901Y-109415641D01*
X92346519Y-109711448D01*
X92225301Y-110003373D01*
X92225275Y-110033448D01*
X92214677Y-110061593D01*
X75770000Y-110061593D01*
X75770000Y-106561593D01*
X126754677Y-106561593D01*
X126764975Y-106877507D01*
X126764699Y-107193599D01*
X126776184Y-107221395D01*
X126777164Y-107251453D01*
X126997901Y-107784359D01*
X127010954Y-107789581D01*
X127028281Y-107831515D01*
X127515918Y-108320004D01*
X127560149Y-108338370D01*
X127565641Y-108352099D01*
X127861448Y-108463481D01*
X128153373Y-108584699D01*
X128183448Y-108584725D01*
X128211593Y-108595323D01*
X128527507Y-108585025D01*
X128843599Y-108585301D01*
X128871395Y-108573816D01*
X128901453Y-108572836D01*
X129434359Y-108352099D01*
X129439581Y-108339046D01*
X129481515Y-108321719D01*
X129970004Y-107834082D01*
X129988370Y-107789851D01*
X130002099Y-107784359D01*
X130113481Y-107488552D01*
X130234699Y-107196627D01*
X130234725Y-107166552D01*
X130245323Y-107138407D01*
X130235025Y-106822493D01*
X130235252Y-106561593D01*
X153164677Y-106561593D01*
X153174975Y-106877507D01*
X153174699Y-107193599D01*
X153186184Y-107221395D01*
X153187164Y-107251453D01*
X153407901Y-107784359D01*
X153420954Y-107789581D01*
X153438281Y-107831515D01*
X153925918Y-108320004D01*
X153970149Y-108338370D01*
X153975641Y-108352099D01*
X154271448Y-108463481D01*
X154563373Y-108584699D01*
X154593448Y-108584725D01*
X154621593Y-108595323D01*
X154937507Y-108585025D01*
X155253599Y-108585301D01*
X155281395Y-108573816D01*
X155311453Y-108572836D01*
X155844359Y-108352099D01*
X155849581Y-108339046D01*
X155891515Y-108321719D01*
X156380004Y-107834082D01*
X156398370Y-107789851D01*
X156412099Y-107784359D01*
X156523481Y-107488552D01*
X156644699Y-107196627D01*
X156644725Y-107166552D01*
X156655323Y-107138407D01*
X156645025Y-106822493D01*
X156645301Y-106506401D01*
X156633816Y-106478605D01*
X156632836Y-106448547D01*
X156412099Y-105915641D01*
X156399046Y-105910419D01*
X156381719Y-105868485D01*
X155894082Y-105379996D01*
X155849851Y-105361630D01*
X155844359Y-105347901D01*
X155548552Y-105236519D01*
X155256627Y-105115301D01*
X155226552Y-105115275D01*
X155198407Y-105104677D01*
X154882493Y-105114975D01*
X154566401Y-105114699D01*
X154538605Y-105126184D01*
X154508547Y-105127164D01*
X153975641Y-105347901D01*
X153970419Y-105360954D01*
X153928485Y-105378281D01*
X153439996Y-105865918D01*
X153421630Y-105910149D01*
X153407901Y-105915641D01*
X153296519Y-106211448D01*
X153175301Y-106503373D01*
X153175275Y-106533448D01*
X153164677Y-106561593D01*
X130235252Y-106561593D01*
X130235301Y-106506401D01*
X130223816Y-106478605D01*
X130222836Y-106448547D01*
X130002099Y-105915641D01*
X129989046Y-105910419D01*
X129971719Y-105868485D01*
X129484082Y-105379996D01*
X129439851Y-105361630D01*
X129434359Y-105347901D01*
X129138552Y-105236519D01*
X128846627Y-105115301D01*
X128816552Y-105115275D01*
X128788407Y-105104677D01*
X128472493Y-105114975D01*
X128156401Y-105114699D01*
X128128605Y-105126184D01*
X128098547Y-105127164D01*
X127565641Y-105347901D01*
X127560419Y-105360954D01*
X127518485Y-105378281D01*
X127029996Y-105865918D01*
X127011630Y-105910149D01*
X126997901Y-105915641D01*
X126886519Y-106211448D01*
X126765301Y-106503373D01*
X126765275Y-106533448D01*
X126754677Y-106561593D01*
X75770000Y-106561593D01*
X75770000Y-71861593D01*
X92214677Y-71861593D01*
X92224975Y-72177507D01*
X92224699Y-72493599D01*
X92236184Y-72521395D01*
X92237164Y-72551453D01*
X92457901Y-73084359D01*
X92470954Y-73089581D01*
X92488281Y-73131515D01*
X92975918Y-73620004D01*
X93020149Y-73638370D01*
X93025641Y-73652099D01*
X93321448Y-73763481D01*
X93613373Y-73884699D01*
X93643448Y-73884725D01*
X93671593Y-73895323D01*
X93987507Y-73885025D01*
X94303599Y-73885301D01*
X94331395Y-73873816D01*
X94361453Y-73872836D01*
X94894359Y-73652099D01*
X94899581Y-73639046D01*
X94941515Y-73621719D01*
X95430004Y-73134082D01*
X95448370Y-73089851D01*
X95462099Y-73084359D01*
X95573481Y-72788552D01*
X95694699Y-72496627D01*
X95694725Y-72466552D01*
X95705323Y-72438407D01*
X95695025Y-72122493D01*
X95695252Y-71861593D01*
X187504677Y-71861593D01*
X187514975Y-72177507D01*
X187514699Y-72493599D01*
X187526184Y-72521395D01*
X187527164Y-72551453D01*
X187747901Y-73084359D01*
X187760954Y-73089581D01*
X187778281Y-73131515D01*
X188265918Y-73620004D01*
X188310149Y-73638370D01*
X188315641Y-73652099D01*
X188611448Y-73763481D01*
X188903373Y-73884699D01*
X188933448Y-73884725D01*
X188961593Y-73895323D01*
X189277507Y-73885025D01*
X189593599Y-73885301D01*
X189621395Y-73873816D01*
X189651453Y-73872836D01*
X190184359Y-73652099D01*
X190189581Y-73639046D01*
X190231515Y-73621719D01*
X190720004Y-73134082D01*
X190738370Y-73089851D01*
X190752099Y-73084359D01*
X190863481Y-72788552D01*
X190984699Y-72496627D01*
X190984725Y-72466552D01*
X190995323Y-72438407D01*
X190985025Y-72122493D01*
X190985301Y-71806401D01*
X190973816Y-71778605D01*
X190972836Y-71748547D01*
X190752099Y-71215641D01*
X190739046Y-71210419D01*
X190721719Y-71168485D01*
X190234082Y-70679996D01*
X190189851Y-70661630D01*
X190184359Y-70647901D01*
X189888552Y-70536519D01*
X189596627Y-70415301D01*
X189566552Y-70415275D01*
X189538407Y-70404677D01*
X189222493Y-70414975D01*
X188906401Y-70414699D01*
X188878605Y-70426184D01*
X188848547Y-70427164D01*
X188315641Y-70647901D01*
X188310419Y-70660954D01*
X188268485Y-70678281D01*
X187779996Y-71165918D01*
X187761630Y-71210149D01*
X187747901Y-71215641D01*
X187636519Y-71511448D01*
X187515301Y-71803373D01*
X187515275Y-71833448D01*
X187504677Y-71861593D01*
X95695252Y-71861593D01*
X95695301Y-71806401D01*
X95683816Y-71778605D01*
X95682836Y-71748547D01*
X95462099Y-71215641D01*
X95449046Y-71210419D01*
X95431719Y-71168485D01*
X94944082Y-70679996D01*
X94899851Y-70661630D01*
X94894359Y-70647901D01*
X94598552Y-70536519D01*
X94306627Y-70415301D01*
X94276552Y-70415275D01*
X94248407Y-70404677D01*
X93932493Y-70414975D01*
X93616401Y-70414699D01*
X93588605Y-70426184D01*
X93558547Y-70427164D01*
X93025641Y-70647901D01*
X93020419Y-70660954D01*
X92978485Y-70678281D01*
X92489996Y-71165918D01*
X92471630Y-71210149D01*
X92457901Y-71215641D01*
X92346519Y-71511448D01*
X92225301Y-71803373D01*
X92225275Y-71833448D01*
X92214677Y-71861593D01*
X75770000Y-71861593D01*
X75770000Y-68461593D01*
X126754677Y-68461593D01*
X126764975Y-68777507D01*
X126764699Y-69093599D01*
X126776184Y-69121395D01*
X126777164Y-69151453D01*
X126997901Y-69684359D01*
X127010954Y-69689581D01*
X127028281Y-69731515D01*
X127515918Y-70220004D01*
X127560149Y-70238370D01*
X127565641Y-70252099D01*
X127861448Y-70363481D01*
X128153373Y-70484699D01*
X128183448Y-70484725D01*
X128211593Y-70495323D01*
X128527507Y-70485025D01*
X128843599Y-70485301D01*
X128871395Y-70473816D01*
X128901453Y-70472836D01*
X129434359Y-70252099D01*
X129439581Y-70239046D01*
X129481515Y-70221719D01*
X129970004Y-69734082D01*
X129988370Y-69689851D01*
X130002099Y-69684359D01*
X130113481Y-69388552D01*
X130234699Y-69096627D01*
X130234725Y-69066552D01*
X130245323Y-69038407D01*
X130235025Y-68722493D01*
X130235252Y-68461593D01*
X153164677Y-68461593D01*
X153174975Y-68777507D01*
X153174699Y-69093599D01*
X153186184Y-69121395D01*
X153187164Y-69151453D01*
X153407901Y-69684359D01*
X153420954Y-69689581D01*
X153438281Y-69731515D01*
X153925918Y-70220004D01*
X153970149Y-70238370D01*
X153975641Y-70252099D01*
X154271448Y-70363481D01*
X154563373Y-70484699D01*
X154593448Y-70484725D01*
X154621593Y-70495323D01*
X154937507Y-70485025D01*
X155253599Y-70485301D01*
X155281395Y-70473816D01*
X155311453Y-70472836D01*
X155844359Y-70252099D01*
X155849581Y-70239046D01*
X155891515Y-70221719D01*
X156380004Y-69734082D01*
X156398370Y-69689851D01*
X156412099Y-69684359D01*
X156523481Y-69388552D01*
X156644699Y-69096627D01*
X156644725Y-69066552D01*
X156655323Y-69038407D01*
X156645025Y-68722493D01*
X156645301Y-68406401D01*
X156633816Y-68378605D01*
X156632836Y-68348547D01*
X156412099Y-67815641D01*
X156399046Y-67810419D01*
X156381719Y-67768485D01*
X155894082Y-67279996D01*
X155849851Y-67261630D01*
X155844359Y-67247901D01*
X155548552Y-67136519D01*
X155256627Y-67015301D01*
X155226552Y-67015275D01*
X155198407Y-67004677D01*
X154882493Y-67014975D01*
X154566401Y-67014699D01*
X154538605Y-67026184D01*
X154508547Y-67027164D01*
X153975641Y-67247901D01*
X153970419Y-67260954D01*
X153928485Y-67278281D01*
X153439996Y-67765918D01*
X153421630Y-67810149D01*
X153407901Y-67815641D01*
X153296519Y-68111448D01*
X153175301Y-68403373D01*
X153175275Y-68433448D01*
X153164677Y-68461593D01*
X130235252Y-68461593D01*
X130235301Y-68406401D01*
X130223816Y-68378605D01*
X130222836Y-68348547D01*
X130002099Y-67815641D01*
X129989046Y-67810419D01*
X129971719Y-67768485D01*
X129484082Y-67279996D01*
X129439851Y-67261630D01*
X129434359Y-67247901D01*
X129138552Y-67136519D01*
X128846627Y-67015301D01*
X128816552Y-67015275D01*
X128788407Y-67004677D01*
X128472493Y-67014975D01*
X128156401Y-67014699D01*
X128128605Y-67026184D01*
X128098547Y-67027164D01*
X127565641Y-67247901D01*
X127560419Y-67260954D01*
X127518485Y-67278281D01*
X127029996Y-67765918D01*
X127011630Y-67810149D01*
X126997901Y-67815641D01*
X126886519Y-68111448D01*
X126765301Y-68403373D01*
X126765275Y-68433448D01*
X126754677Y-68461593D01*
X75770000Y-68461593D01*
X75770000Y-54000359D01*
X75827508Y-53996702D01*
X75852708Y-53990002D01*
X75923814Y-53955107D01*
X75967895Y-53942251D01*
X75991377Y-53923399D01*
X76051967Y-53896544D01*
X76064494Y-53891711D01*
X76065908Y-53890365D01*
X76071108Y-53888060D01*
X76092409Y-53873060D01*
X76121288Y-53842729D01*
X116348554Y-47035000D01*
X205118112Y-47035000D01*
X206007138Y-47191642D01*
X206007138Y-47191642D01*
G37*
X206007138Y-47191642D02*
X206729878Y-47608923D01*
X207269161Y-48251699D01*
X207586983Y-49095300D01*
X207600000Y-49116218D01*
X207600000Y-102790000D01*
X207604288Y-102811555D01*
X207604000Y-102813000D01*
X207604000Y-102814000D01*
X207608802Y-102838141D01*
X207605724Y-102862559D01*
X207610074Y-102878445D01*
X207609320Y-102902613D01*
X207611320Y-102914614D01*
X207613134Y-102919410D01*
X207613049Y-102924537D01*
X207615049Y-102935536D01*
X207641489Y-103002470D01*
X207656143Y-103076138D01*
X207666999Y-103092385D01*
X207668143Y-103098138D01*
X207671691Y-103103448D01*
X207676317Y-103120341D01*
X207682317Y-103132341D01*
X207698637Y-103153370D01*
X207707617Y-103178430D01*
X207713617Y-103188430D01*
X207753666Y-103232576D01*
X207762285Y-103251716D01*
X207785112Y-103273194D01*
X207816632Y-103320368D01*
X207818632Y-103322368D01*
X207825234Y-103326779D01*
X207827632Y-103330368D01*
X207835632Y-103338368D01*
X207842703Y-103343092D01*
X207847911Y-103349975D01*
X207856911Y-103357976D01*
X207879377Y-103371148D01*
X207893199Y-103386384D01*
X207917716Y-103397966D01*
X207956937Y-103434870D01*
X211474196Y-105633271D01*
X211474692Y-105634462D01*
X211483502Y-105647588D01*
X211486112Y-105656904D01*
X211511160Y-105688792D01*
X211526691Y-105711931D01*
X211537620Y-105742432D01*
X211568133Y-105776067D01*
X211609722Y-105842105D01*
X211627723Y-105861105D01*
X211676799Y-105895850D01*
X211717201Y-105940386D01*
X212005756Y-106154186D01*
X212129649Y-106342195D01*
X212181800Y-106560939D01*
X212174745Y-106622911D01*
X193736712Y-138145361D01*
X193367515Y-138291500D01*
X193003523Y-138301279D01*
X178898146Y-130073308D01*
X178830179Y-130049897D01*
X178790138Y-130023143D01*
X178769826Y-130019103D01*
X178750616Y-130008152D01*
X178744616Y-130006152D01*
X178737196Y-130005217D01*
X178736073Y-130004896D01*
X178729184Y-130001356D01*
X178722184Y-129999356D01*
X178679095Y-129995817D01*
X178641821Y-129982461D01*
X178633091Y-129982886D01*
X178618874Y-129977885D01*
X178611874Y-129976885D01*
X178569262Y-129979208D01*
X178528000Y-129971000D01*
X178522000Y-129971000D01*
X178521014Y-129971196D01*
X178515000Y-129970000D01*
X78251513Y-129970000D01*
X77362957Y-129813368D01*
X76640286Y-129396203D01*
X76103691Y-128756291D01*
X75806623Y-127940401D01*
X75770000Y-127522072D01*
X75770000Y-110061593D01*
X92214677Y-110061593D01*
X92224975Y-110377507D01*
X92224699Y-110693599D01*
X92236184Y-110721395D01*
X92237164Y-110751453D01*
X92457901Y-111284359D01*
X92470954Y-111289581D01*
X92488281Y-111331515D01*
X92975918Y-111820004D01*
X93020149Y-111838370D01*
X93025641Y-111852099D01*
X93321448Y-111963481D01*
X93613373Y-112084699D01*
X93643448Y-112084725D01*
X93671593Y-112095323D01*
X93987507Y-112085025D01*
X94303599Y-112085301D01*
X94331395Y-112073816D01*
X94361453Y-112072836D01*
X94894359Y-111852099D01*
X94899581Y-111839046D01*
X94941515Y-111821719D01*
X95430004Y-111334082D01*
X95448370Y-111289851D01*
X95462099Y-111284359D01*
X95573481Y-110988552D01*
X95694699Y-110696627D01*
X95694725Y-110666552D01*
X95705323Y-110638407D01*
X95695025Y-110322493D01*
X95695301Y-110006401D01*
X95683816Y-109978605D01*
X95682836Y-109948547D01*
X95462099Y-109415641D01*
X95449046Y-109410419D01*
X95431719Y-109368485D01*
X94995590Y-108931593D01*
X183034677Y-108931593D01*
X183044975Y-109247507D01*
X183044699Y-109563599D01*
X183056184Y-109591395D01*
X183057164Y-109621453D01*
X183277901Y-110154359D01*
X183290954Y-110159581D01*
X183308281Y-110201515D01*
X183795918Y-110690004D01*
X183840149Y-110708370D01*
X183845641Y-110722099D01*
X184141448Y-110833481D01*
X184433373Y-110954699D01*
X184463448Y-110954725D01*
X184491593Y-110965323D01*
X184807507Y-110955025D01*
X185123599Y-110955301D01*
X185151395Y-110943816D01*
X185181453Y-110942836D01*
X185714359Y-110722099D01*
X185719581Y-110709046D01*
X185761515Y-110691719D01*
X186250004Y-110204082D01*
X186268370Y-110159851D01*
X186282099Y-110154359D01*
X186393481Y-109858552D01*
X186514699Y-109566627D01*
X186514725Y-109536552D01*
X186525323Y-109508407D01*
X186515025Y-109192493D01*
X186515301Y-108876401D01*
X186503816Y-108848605D01*
X186502836Y-108818547D01*
X186282099Y-108285641D01*
X186269046Y-108280419D01*
X186251719Y-108238485D01*
X185764082Y-107749996D01*
X185719851Y-107731630D01*
X185714359Y-107717901D01*
X185418552Y-107606519D01*
X185126627Y-107485301D01*
X185096552Y-107485275D01*
X185068407Y-107474677D01*
X184752493Y-107484975D01*
X184436401Y-107484699D01*
X184408605Y-107496184D01*
X184378547Y-107497164D01*
X183845641Y-107717901D01*
X183840419Y-107730954D01*
X183798485Y-107748281D01*
X183309996Y-108235918D01*
X183291630Y-108280149D01*
X183277901Y-108285641D01*
X183166519Y-108581448D01*
X183045301Y-108873373D01*
X183045275Y-108903448D01*
X183034677Y-108931593D01*
X94995590Y-108931593D01*
X94944082Y-108879996D01*
X94899851Y-108861630D01*
X94894359Y-108847901D01*
X94598552Y-108736519D01*
X94306627Y-108615301D01*
X94276552Y-108615275D01*
X94248407Y-108604677D01*
X93932493Y-108614975D01*
X93616401Y-108614699D01*
X93588605Y-108626184D01*
X93558547Y-108627164D01*
X93025641Y-108847901D01*
X93020419Y-108860954D01*
X92978485Y-108878281D01*
X92489996Y-109365918D01*
X92471630Y-109410149D01*
X92457901Y-109415641D01*
X92346519Y-109711448D01*
X92225301Y-110003373D01*
X92225275Y-110033448D01*
X92214677Y-110061593D01*
X75770000Y-110061593D01*
X75770000Y-106561593D01*
X126754677Y-106561593D01*
X126764975Y-106877507D01*
X126764699Y-107193599D01*
X126776184Y-107221395D01*
X126777164Y-107251453D01*
X126997901Y-107784359D01*
X127010954Y-107789581D01*
X127028281Y-107831515D01*
X127515918Y-108320004D01*
X127560149Y-108338370D01*
X127565641Y-108352099D01*
X127861448Y-108463481D01*
X128153373Y-108584699D01*
X128183448Y-108584725D01*
X128211593Y-108595323D01*
X128527507Y-108585025D01*
X128843599Y-108585301D01*
X128871395Y-108573816D01*
X128901453Y-108572836D01*
X129434359Y-108352099D01*
X129439581Y-108339046D01*
X129481515Y-108321719D01*
X129970004Y-107834082D01*
X129988370Y-107789851D01*
X130002099Y-107784359D01*
X130113481Y-107488552D01*
X130234699Y-107196627D01*
X130234725Y-107166552D01*
X130245323Y-107138407D01*
X130235025Y-106822493D01*
X130235252Y-106561593D01*
X153164677Y-106561593D01*
X153174975Y-106877507D01*
X153174699Y-107193599D01*
X153186184Y-107221395D01*
X153187164Y-107251453D01*
X153407901Y-107784359D01*
X153420954Y-107789581D01*
X153438281Y-107831515D01*
X153925918Y-108320004D01*
X153970149Y-108338370D01*
X153975641Y-108352099D01*
X154271448Y-108463481D01*
X154563373Y-108584699D01*
X154593448Y-108584725D01*
X154621593Y-108595323D01*
X154937507Y-108585025D01*
X155253599Y-108585301D01*
X155281395Y-108573816D01*
X155311453Y-108572836D01*
X155844359Y-108352099D01*
X155849581Y-108339046D01*
X155891515Y-108321719D01*
X156380004Y-107834082D01*
X156398370Y-107789851D01*
X156412099Y-107784359D01*
X156523481Y-107488552D01*
X156644699Y-107196627D01*
X156644725Y-107166552D01*
X156655323Y-107138407D01*
X156645025Y-106822493D01*
X156645301Y-106506401D01*
X156633816Y-106478605D01*
X156632836Y-106448547D01*
X156412099Y-105915641D01*
X156399046Y-105910419D01*
X156381719Y-105868485D01*
X155894082Y-105379996D01*
X155849851Y-105361630D01*
X155844359Y-105347901D01*
X155548552Y-105236519D01*
X155256627Y-105115301D01*
X155226552Y-105115275D01*
X155198407Y-105104677D01*
X154882493Y-105114975D01*
X154566401Y-105114699D01*
X154538605Y-105126184D01*
X154508547Y-105127164D01*
X153975641Y-105347901D01*
X153970419Y-105360954D01*
X153928485Y-105378281D01*
X153439996Y-105865918D01*
X153421630Y-105910149D01*
X153407901Y-105915641D01*
X153296519Y-106211448D01*
X153175301Y-106503373D01*
X153175275Y-106533448D01*
X153164677Y-106561593D01*
X130235252Y-106561593D01*
X130235301Y-106506401D01*
X130223816Y-106478605D01*
X130222836Y-106448547D01*
X130002099Y-105915641D01*
X129989046Y-105910419D01*
X129971719Y-105868485D01*
X129484082Y-105379996D01*
X129439851Y-105361630D01*
X129434359Y-105347901D01*
X129138552Y-105236519D01*
X128846627Y-105115301D01*
X128816552Y-105115275D01*
X128788407Y-105104677D01*
X128472493Y-105114975D01*
X128156401Y-105114699D01*
X128128605Y-105126184D01*
X128098547Y-105127164D01*
X127565641Y-105347901D01*
X127560419Y-105360954D01*
X127518485Y-105378281D01*
X127029996Y-105865918D01*
X127011630Y-105910149D01*
X126997901Y-105915641D01*
X126886519Y-106211448D01*
X126765301Y-106503373D01*
X126765275Y-106533448D01*
X126754677Y-106561593D01*
X75770000Y-106561593D01*
X75770000Y-71861593D01*
X92214677Y-71861593D01*
X92224975Y-72177507D01*
X92224699Y-72493599D01*
X92236184Y-72521395D01*
X92237164Y-72551453D01*
X92457901Y-73084359D01*
X92470954Y-73089581D01*
X92488281Y-73131515D01*
X92975918Y-73620004D01*
X93020149Y-73638370D01*
X93025641Y-73652099D01*
X93321448Y-73763481D01*
X93613373Y-73884699D01*
X93643448Y-73884725D01*
X93671593Y-73895323D01*
X93987507Y-73885025D01*
X94303599Y-73885301D01*
X94331395Y-73873816D01*
X94361453Y-73872836D01*
X94894359Y-73652099D01*
X94899581Y-73639046D01*
X94941515Y-73621719D01*
X95430004Y-73134082D01*
X95448370Y-73089851D01*
X95462099Y-73084359D01*
X95573481Y-72788552D01*
X95694699Y-72496627D01*
X95694725Y-72466552D01*
X95705323Y-72438407D01*
X95695025Y-72122493D01*
X95695252Y-71861593D01*
X187504677Y-71861593D01*
X187514975Y-72177507D01*
X187514699Y-72493599D01*
X187526184Y-72521395D01*
X187527164Y-72551453D01*
X187747901Y-73084359D01*
X187760954Y-73089581D01*
X187778281Y-73131515D01*
X188265918Y-73620004D01*
X188310149Y-73638370D01*
X188315641Y-73652099D01*
X188611448Y-73763481D01*
X188903373Y-73884699D01*
X188933448Y-73884725D01*
X188961593Y-73895323D01*
X189277507Y-73885025D01*
X189593599Y-73885301D01*
X189621395Y-73873816D01*
X189651453Y-73872836D01*
X190184359Y-73652099D01*
X190189581Y-73639046D01*
X190231515Y-73621719D01*
X190720004Y-73134082D01*
X190738370Y-73089851D01*
X190752099Y-73084359D01*
X190863481Y-72788552D01*
X190984699Y-72496627D01*
X190984725Y-72466552D01*
X190995323Y-72438407D01*
X190985025Y-72122493D01*
X190985301Y-71806401D01*
X190973816Y-71778605D01*
X190972836Y-71748547D01*
X190752099Y-71215641D01*
X190739046Y-71210419D01*
X190721719Y-71168485D01*
X190234082Y-70679996D01*
X190189851Y-70661630D01*
X190184359Y-70647901D01*
X189888552Y-70536519D01*
X189596627Y-70415301D01*
X189566552Y-70415275D01*
X189538407Y-70404677D01*
X189222493Y-70414975D01*
X188906401Y-70414699D01*
X188878605Y-70426184D01*
X188848547Y-70427164D01*
X188315641Y-70647901D01*
X188310419Y-70660954D01*
X188268485Y-70678281D01*
X187779996Y-71165918D01*
X187761630Y-71210149D01*
X187747901Y-71215641D01*
X187636519Y-71511448D01*
X187515301Y-71803373D01*
X187515275Y-71833448D01*
X187504677Y-71861593D01*
X95695252Y-71861593D01*
X95695301Y-71806401D01*
X95683816Y-71778605D01*
X95682836Y-71748547D01*
X95462099Y-71215641D01*
X95449046Y-71210419D01*
X95431719Y-71168485D01*
X94944082Y-70679996D01*
X94899851Y-70661630D01*
X94894359Y-70647901D01*
X94598552Y-70536519D01*
X94306627Y-70415301D01*
X94276552Y-70415275D01*
X94248407Y-70404677D01*
X93932493Y-70414975D01*
X93616401Y-70414699D01*
X93588605Y-70426184D01*
X93558547Y-70427164D01*
X93025641Y-70647901D01*
X93020419Y-70660954D01*
X92978485Y-70678281D01*
X92489996Y-71165918D01*
X92471630Y-71210149D01*
X92457901Y-71215641D01*
X92346519Y-71511448D01*
X92225301Y-71803373D01*
X92225275Y-71833448D01*
X92214677Y-71861593D01*
X75770000Y-71861593D01*
X75770000Y-68461593D01*
X126754677Y-68461593D01*
X126764975Y-68777507D01*
X126764699Y-69093599D01*
X126776184Y-69121395D01*
X126777164Y-69151453D01*
X126997901Y-69684359D01*
X127010954Y-69689581D01*
X127028281Y-69731515D01*
X127515918Y-70220004D01*
X127560149Y-70238370D01*
X127565641Y-70252099D01*
X127861448Y-70363481D01*
X128153373Y-70484699D01*
X128183448Y-70484725D01*
X128211593Y-70495323D01*
X128527507Y-70485025D01*
X128843599Y-70485301D01*
X128871395Y-70473816D01*
X128901453Y-70472836D01*
X129434359Y-70252099D01*
X129439581Y-70239046D01*
X129481515Y-70221719D01*
X129970004Y-69734082D01*
X129988370Y-69689851D01*
X130002099Y-69684359D01*
X130113481Y-69388552D01*
X130234699Y-69096627D01*
X130234725Y-69066552D01*
X130245323Y-69038407D01*
X130235025Y-68722493D01*
X130235252Y-68461593D01*
X153164677Y-68461593D01*
X153174975Y-68777507D01*
X153174699Y-69093599D01*
X153186184Y-69121395D01*
X153187164Y-69151453D01*
X153407901Y-69684359D01*
X153420954Y-69689581D01*
X153438281Y-69731515D01*
X153925918Y-70220004D01*
X153970149Y-70238370D01*
X153975641Y-70252099D01*
X154271448Y-70363481D01*
X154563373Y-70484699D01*
X154593448Y-70484725D01*
X154621593Y-70495323D01*
X154937507Y-70485025D01*
X155253599Y-70485301D01*
X155281395Y-70473816D01*
X155311453Y-70472836D01*
X155844359Y-70252099D01*
X155849581Y-70239046D01*
X155891515Y-70221719D01*
X156380004Y-69734082D01*
X156398370Y-69689851D01*
X156412099Y-69684359D01*
X156523481Y-69388552D01*
X156644699Y-69096627D01*
X156644725Y-69066552D01*
X156655323Y-69038407D01*
X156645025Y-68722493D01*
X156645301Y-68406401D01*
X156633816Y-68378605D01*
X156632836Y-68348547D01*
X156412099Y-67815641D01*
X156399046Y-67810419D01*
X156381719Y-67768485D01*
X155894082Y-67279996D01*
X155849851Y-67261630D01*
X155844359Y-67247901D01*
X155548552Y-67136519D01*
X155256627Y-67015301D01*
X155226552Y-67015275D01*
X155198407Y-67004677D01*
X154882493Y-67014975D01*
X154566401Y-67014699D01*
X154538605Y-67026184D01*
X154508547Y-67027164D01*
X153975641Y-67247901D01*
X153970419Y-67260954D01*
X153928485Y-67278281D01*
X153439996Y-67765918D01*
X153421630Y-67810149D01*
X153407901Y-67815641D01*
X153296519Y-68111448D01*
X153175301Y-68403373D01*
X153175275Y-68433448D01*
X153164677Y-68461593D01*
X130235252Y-68461593D01*
X130235301Y-68406401D01*
X130223816Y-68378605D01*
X130222836Y-68348547D01*
X130002099Y-67815641D01*
X129989046Y-67810419D01*
X129971719Y-67768485D01*
X129484082Y-67279996D01*
X129439851Y-67261630D01*
X129434359Y-67247901D01*
X129138552Y-67136519D01*
X128846627Y-67015301D01*
X128816552Y-67015275D01*
X128788407Y-67004677D01*
X128472493Y-67014975D01*
X128156401Y-67014699D01*
X128128605Y-67026184D01*
X128098547Y-67027164D01*
X127565641Y-67247901D01*
X127560419Y-67260954D01*
X127518485Y-67278281D01*
X127029996Y-67765918D01*
X127011630Y-67810149D01*
X126997901Y-67815641D01*
X126886519Y-68111448D01*
X126765301Y-68403373D01*
X126765275Y-68433448D01*
X126754677Y-68461593D01*
X75770000Y-68461593D01*
X75770000Y-54000359D01*
X75827508Y-53996702D01*
X75852708Y-53990002D01*
X75923814Y-53955107D01*
X75967895Y-53942251D01*
X75991377Y-53923399D01*
X76051967Y-53896544D01*
X76064494Y-53891711D01*
X76065908Y-53890365D01*
X76071108Y-53888060D01*
X76092409Y-53873060D01*
X76121288Y-53842729D01*
X116348554Y-47035000D01*
X205118112Y-47035000D01*
X206007138Y-47191642D01*
M02*
