%TF.GenerationSoftware,KiCad,Pcbnew,(5.1.10)-1*%
%TF.CreationDate,2021-10-27T12:41:30-06:00*%
%TF.ProjectId,Bottom Plate,426f7474-6f6d-4205-906c-6174652e6b69,rev?*%
%TF.SameCoordinates,Original*%
%TF.FileFunction,Copper,L2,Bot*%
%TF.FilePolarity,Positive*%
%FSLAX46Y46*%
G04 Gerber Fmt 4.6, Leading zero omitted, Abs format (unit mm)*
G04 Created by KiCad (PCBNEW (5.1.10)-1) date 2021-10-27 12:41:30*
%MOMM*%
%LPD*%
G01*
G04 APERTURE LIST*
%TA.AperFunction,NonConductor*%
%ADD10C,0.254000*%
%TD*%
%TA.AperFunction,NonConductor*%
%ADD11C,0.100000*%
%TD*%
G04 APERTURE END LIST*
D10*
X205385182Y-47056814D02*
X205395057Y-47057678D01*
X205860639Y-47095138D01*
X206243099Y-47203363D01*
X206597252Y-47383813D01*
X206909607Y-47629613D01*
X207168273Y-47931403D01*
X207363394Y-48277688D01*
X207487539Y-48655275D01*
X207539701Y-49080106D01*
X207540045Y-49108221D01*
X207555251Y-49245952D01*
X207565127Y-49277275D01*
X207600001Y-95171261D01*
X207600000Y-102745638D01*
X207597022Y-102768528D01*
X207600000Y-102812930D01*
X207600000Y-102823646D01*
X207602253Y-102846517D01*
X207602686Y-102852981D01*
X207602419Y-102862794D01*
X207605814Y-102882679D01*
X207609912Y-102924282D01*
X207612335Y-102932269D01*
X207613912Y-102948282D01*
X207621013Y-102971691D01*
X207625130Y-102995802D01*
X207639656Y-103033764D01*
X207648823Y-103065880D01*
X207650685Y-103069506D01*
X207653081Y-103077405D01*
X207679243Y-103126351D01*
X207683647Y-103138294D01*
X207689449Y-103147766D01*
X207690307Y-103149577D01*
X207694081Y-103155867D01*
X207697365Y-103162435D01*
X207702995Y-103171378D01*
X207710458Y-103185913D01*
X207712362Y-103188313D01*
X207716688Y-103196406D01*
X207717381Y-103197251D01*
X207728689Y-103218406D01*
X207744600Y-103237794D01*
X207754132Y-103253354D01*
X207772315Y-103273030D01*
X207791205Y-103298476D01*
X207819542Y-103324135D01*
X207822763Y-103327621D01*
X207827863Y-103332154D01*
X207845759Y-103352869D01*
X207885293Y-103383674D01*
X207891226Y-103389046D01*
X207894776Y-103391172D01*
X207937594Y-103426311D01*
X207975059Y-103446337D01*
X211831370Y-105884221D01*
X211908702Y-105958290D01*
X211916539Y-105964361D01*
X212051976Y-106067779D01*
X212118675Y-106143342D01*
X212169427Y-106230420D01*
X212202299Y-106325698D01*
X212216038Y-106425545D01*
X212210122Y-106526163D01*
X212181007Y-106638218D01*
X212148220Y-106714112D01*
X212120448Y-106800795D01*
X194198135Y-137451463D01*
X194177337Y-137470019D01*
X194093829Y-137580597D01*
X194088715Y-137589089D01*
X193955832Y-137813248D01*
X193828401Y-137955473D01*
X193675769Y-138070241D01*
X193503747Y-138153178D01*
X193318900Y-138201122D01*
X193128255Y-138212249D01*
X192939082Y-138186135D01*
X192753567Y-138122041D01*
X192565485Y-138016020D01*
X192438710Y-137960081D01*
X192408535Y-137953331D01*
X178911356Y-130081014D01*
X178867577Y-130052778D01*
X178856602Y-130048439D01*
X178855577Y-130047778D01*
X178817781Y-130032836D01*
X178800132Y-130024745D01*
X178791406Y-130020081D01*
X178788015Y-130019052D01*
X178773183Y-130012029D01*
X178728917Y-130000919D01*
X178712695Y-129995512D01*
X178703583Y-129993440D01*
X178662283Y-129980912D01*
X178637935Y-129978514D01*
X178614089Y-129973092D01*
X178593238Y-129972524D01*
X178590344Y-129971997D01*
X178580032Y-129972164D01*
X178578403Y-129972120D01*
X178568714Y-129971696D01*
X178561647Y-129971000D01*
X178558800Y-129971000D01*
X178548647Y-129970000D01*
X178529949Y-129970000D01*
X178477539Y-129967707D01*
X178462633Y-129970000D01*
X99139980Y-129970000D01*
X78176792Y-129965043D01*
X78079612Y-129944408D01*
X78069753Y-129943374D01*
X77575663Y-129895035D01*
X77167024Y-129771755D01*
X76790106Y-129571447D01*
X76459280Y-129301751D01*
X76187134Y-128972926D01*
X75984042Y-128597506D01*
X75857738Y-128189795D01*
X75809831Y-127734930D01*
X75809991Y-127703137D01*
X75797162Y-127565165D01*
X75785000Y-127524138D01*
X75785000Y-110179117D01*
X92225000Y-110179117D01*
X92225000Y-110520883D01*
X92291675Y-110856081D01*
X92422463Y-111171831D01*
X92612337Y-111455998D01*
X92854002Y-111697663D01*
X93138169Y-111887537D01*
X93453919Y-112018325D01*
X93789117Y-112085000D01*
X94130883Y-112085000D01*
X94466081Y-112018325D01*
X94781831Y-111887537D01*
X95065998Y-111697663D01*
X95307663Y-111455998D01*
X95497537Y-111171831D01*
X95628325Y-110856081D01*
X95695000Y-110520883D01*
X95695000Y-110179117D01*
X95628325Y-109843919D01*
X95497537Y-109528169D01*
X95307663Y-109244002D01*
X95112778Y-109049117D01*
X183045000Y-109049117D01*
X183045000Y-109390883D01*
X183111675Y-109726081D01*
X183242463Y-110041831D01*
X183432337Y-110325998D01*
X183674002Y-110567663D01*
X183958169Y-110757537D01*
X184273919Y-110888325D01*
X184609117Y-110955000D01*
X184950883Y-110955000D01*
X185286081Y-110888325D01*
X185601831Y-110757537D01*
X185885998Y-110567663D01*
X186127663Y-110325998D01*
X186317537Y-110041831D01*
X186448325Y-109726081D01*
X186515000Y-109390883D01*
X186515000Y-109049117D01*
X186448325Y-108713919D01*
X186317537Y-108398169D01*
X186127663Y-108114002D01*
X185885998Y-107872337D01*
X185601831Y-107682463D01*
X185286081Y-107551675D01*
X184950883Y-107485000D01*
X184609117Y-107485000D01*
X184273919Y-107551675D01*
X183958169Y-107682463D01*
X183674002Y-107872337D01*
X183432337Y-108114002D01*
X183242463Y-108398169D01*
X183111675Y-108713919D01*
X183045000Y-109049117D01*
X95112778Y-109049117D01*
X95065998Y-109002337D01*
X94781831Y-108812463D01*
X94466081Y-108681675D01*
X94130883Y-108615000D01*
X93789117Y-108615000D01*
X93453919Y-108681675D01*
X93138169Y-108812463D01*
X92854002Y-109002337D01*
X92612337Y-109244002D01*
X92422463Y-109528169D01*
X92291675Y-109843919D01*
X92225000Y-110179117D01*
X75785000Y-110179117D01*
X75785000Y-106679117D01*
X126765000Y-106679117D01*
X126765000Y-107020883D01*
X126831675Y-107356081D01*
X126962463Y-107671831D01*
X127152337Y-107955998D01*
X127394002Y-108197663D01*
X127678169Y-108387537D01*
X127993919Y-108518325D01*
X128329117Y-108585000D01*
X128670883Y-108585000D01*
X129006081Y-108518325D01*
X129321831Y-108387537D01*
X129605998Y-108197663D01*
X129847663Y-107955998D01*
X130037537Y-107671831D01*
X130168325Y-107356081D01*
X130235000Y-107020883D01*
X130235000Y-106679117D01*
X153175000Y-106679117D01*
X153175000Y-107020883D01*
X153241675Y-107356081D01*
X153372463Y-107671831D01*
X153562337Y-107955998D01*
X153804002Y-108197663D01*
X154088169Y-108387537D01*
X154403919Y-108518325D01*
X154739117Y-108585000D01*
X155080883Y-108585000D01*
X155416081Y-108518325D01*
X155731831Y-108387537D01*
X156015998Y-108197663D01*
X156257663Y-107955998D01*
X156447537Y-107671831D01*
X156578325Y-107356081D01*
X156645000Y-107020883D01*
X156645000Y-106679117D01*
X156578325Y-106343919D01*
X156447537Y-106028169D01*
X156257663Y-105744002D01*
X156015998Y-105502337D01*
X155731831Y-105312463D01*
X155416081Y-105181675D01*
X155080883Y-105115000D01*
X154739117Y-105115000D01*
X154403919Y-105181675D01*
X154088169Y-105312463D01*
X153804002Y-105502337D01*
X153562337Y-105744002D01*
X153372463Y-106028169D01*
X153241675Y-106343919D01*
X153175000Y-106679117D01*
X130235000Y-106679117D01*
X130168325Y-106343919D01*
X130037537Y-106028169D01*
X129847663Y-105744002D01*
X129605998Y-105502337D01*
X129321831Y-105312463D01*
X129006081Y-105181675D01*
X128670883Y-105115000D01*
X128329117Y-105115000D01*
X127993919Y-105181675D01*
X127678169Y-105312463D01*
X127394002Y-105502337D01*
X127152337Y-105744002D01*
X126962463Y-106028169D01*
X126831675Y-106343919D01*
X126765000Y-106679117D01*
X75785000Y-106679117D01*
X75785000Y-71979117D01*
X92225000Y-71979117D01*
X92225000Y-72320883D01*
X92291675Y-72656081D01*
X92422463Y-72971831D01*
X92612337Y-73255998D01*
X92854002Y-73497663D01*
X93138169Y-73687537D01*
X93453919Y-73818325D01*
X93789117Y-73885000D01*
X94130883Y-73885000D01*
X94466081Y-73818325D01*
X94781831Y-73687537D01*
X95065998Y-73497663D01*
X95307663Y-73255998D01*
X95497537Y-72971831D01*
X95628325Y-72656081D01*
X95695000Y-72320883D01*
X95695000Y-71979117D01*
X187515000Y-71979117D01*
X187515000Y-72320883D01*
X187581675Y-72656081D01*
X187712463Y-72971831D01*
X187902337Y-73255998D01*
X188144002Y-73497663D01*
X188428169Y-73687537D01*
X188743919Y-73818325D01*
X189079117Y-73885000D01*
X189420883Y-73885000D01*
X189756081Y-73818325D01*
X190071831Y-73687537D01*
X190355998Y-73497663D01*
X190597663Y-73255998D01*
X190787537Y-72971831D01*
X190918325Y-72656081D01*
X190985000Y-72320883D01*
X190985000Y-71979117D01*
X190918325Y-71643919D01*
X190787537Y-71328169D01*
X190597663Y-71044002D01*
X190355998Y-70802337D01*
X190071831Y-70612463D01*
X189756081Y-70481675D01*
X189420883Y-70415000D01*
X189079117Y-70415000D01*
X188743919Y-70481675D01*
X188428169Y-70612463D01*
X188144002Y-70802337D01*
X187902337Y-71044002D01*
X187712463Y-71328169D01*
X187581675Y-71643919D01*
X187515000Y-71979117D01*
X95695000Y-71979117D01*
X95628325Y-71643919D01*
X95497537Y-71328169D01*
X95307663Y-71044002D01*
X95065998Y-70802337D01*
X94781831Y-70612463D01*
X94466081Y-70481675D01*
X94130883Y-70415000D01*
X93789117Y-70415000D01*
X93453919Y-70481675D01*
X93138169Y-70612463D01*
X92854002Y-70802337D01*
X92612337Y-71044002D01*
X92422463Y-71328169D01*
X92291675Y-71643919D01*
X92225000Y-71979117D01*
X75785000Y-71979117D01*
X75785000Y-68579117D01*
X126765000Y-68579117D01*
X126765000Y-68920883D01*
X126831675Y-69256081D01*
X126962463Y-69571831D01*
X127152337Y-69855998D01*
X127394002Y-70097663D01*
X127678169Y-70287537D01*
X127993919Y-70418325D01*
X128329117Y-70485000D01*
X128670883Y-70485000D01*
X129006081Y-70418325D01*
X129321831Y-70287537D01*
X129605998Y-70097663D01*
X129847663Y-69855998D01*
X130037537Y-69571831D01*
X130168325Y-69256081D01*
X130235000Y-68920883D01*
X130235000Y-68579117D01*
X153175000Y-68579117D01*
X153175000Y-68920883D01*
X153241675Y-69256081D01*
X153372463Y-69571831D01*
X153562337Y-69855998D01*
X153804002Y-70097663D01*
X154088169Y-70287537D01*
X154403919Y-70418325D01*
X154739117Y-70485000D01*
X155080883Y-70485000D01*
X155416081Y-70418325D01*
X155731831Y-70287537D01*
X156015998Y-70097663D01*
X156257663Y-69855998D01*
X156447537Y-69571831D01*
X156578325Y-69256081D01*
X156645000Y-68920883D01*
X156645000Y-68579117D01*
X156578325Y-68243919D01*
X156447537Y-67928169D01*
X156257663Y-67644002D01*
X156015998Y-67402337D01*
X155731831Y-67212463D01*
X155416081Y-67081675D01*
X155080883Y-67015000D01*
X154739117Y-67015000D01*
X154403919Y-67081675D01*
X154088169Y-67212463D01*
X153804002Y-67402337D01*
X153562337Y-67644002D01*
X153372463Y-67928169D01*
X153241675Y-68243919D01*
X153175000Y-68579117D01*
X130235000Y-68579117D01*
X130168325Y-68243919D01*
X130037537Y-67928169D01*
X129847663Y-67644002D01*
X129605998Y-67402337D01*
X129321831Y-67212463D01*
X129006081Y-67081675D01*
X128670883Y-67015000D01*
X128329117Y-67015000D01*
X127993919Y-67081675D01*
X127678169Y-67212463D01*
X127394002Y-67402337D01*
X127152337Y-67644002D01*
X126962463Y-67928169D01*
X126831675Y-68243919D01*
X126765000Y-68579117D01*
X75785000Y-68579117D01*
X75785000Y-54025944D01*
X75801148Y-53949970D01*
X75840399Y-53945980D01*
X75883161Y-53932902D01*
X75905762Y-53928263D01*
X75925607Y-53919921D01*
X75972909Y-53905455D01*
X75992073Y-53895177D01*
X116348807Y-47035000D01*
X132193647Y-47035000D01*
X205272774Y-47034964D01*
X205385182Y-47056814D01*
%TA.AperFunction,NonConductor*%
D11*
G36*
X205385182Y-47056814D02*
G01*
X205395057Y-47057678D01*
X205860639Y-47095138D01*
X206243099Y-47203363D01*
X206597252Y-47383813D01*
X206909607Y-47629613D01*
X207168273Y-47931403D01*
X207363394Y-48277688D01*
X207487539Y-48655275D01*
X207539701Y-49080106D01*
X207540045Y-49108221D01*
X207555251Y-49245952D01*
X207565127Y-49277275D01*
X207600001Y-95171261D01*
X207600000Y-102745638D01*
X207597022Y-102768528D01*
X207600000Y-102812930D01*
X207600000Y-102823646D01*
X207602253Y-102846517D01*
X207602686Y-102852981D01*
X207602419Y-102862794D01*
X207605814Y-102882679D01*
X207609912Y-102924282D01*
X207612335Y-102932269D01*
X207613912Y-102948282D01*
X207621013Y-102971691D01*
X207625130Y-102995802D01*
X207639656Y-103033764D01*
X207648823Y-103065880D01*
X207650685Y-103069506D01*
X207653081Y-103077405D01*
X207679243Y-103126351D01*
X207683647Y-103138294D01*
X207689449Y-103147766D01*
X207690307Y-103149577D01*
X207694081Y-103155867D01*
X207697365Y-103162435D01*
X207702995Y-103171378D01*
X207710458Y-103185913D01*
X207712362Y-103188313D01*
X207716688Y-103196406D01*
X207717381Y-103197251D01*
X207728689Y-103218406D01*
X207744600Y-103237794D01*
X207754132Y-103253354D01*
X207772315Y-103273030D01*
X207791205Y-103298476D01*
X207819542Y-103324135D01*
X207822763Y-103327621D01*
X207827863Y-103332154D01*
X207845759Y-103352869D01*
X207885293Y-103383674D01*
X207891226Y-103389046D01*
X207894776Y-103391172D01*
X207937594Y-103426311D01*
X207975059Y-103446337D01*
X211831370Y-105884221D01*
X211908702Y-105958290D01*
X211916539Y-105964361D01*
X212051976Y-106067779D01*
X212118675Y-106143342D01*
X212169427Y-106230420D01*
X212202299Y-106325698D01*
X212216038Y-106425545D01*
X212210122Y-106526163D01*
X212181007Y-106638218D01*
X212148220Y-106714112D01*
X212120448Y-106800795D01*
X194198135Y-137451463D01*
X194177337Y-137470019D01*
X194093829Y-137580597D01*
X194088715Y-137589089D01*
X193955832Y-137813248D01*
X193828401Y-137955473D01*
X193675769Y-138070241D01*
X193503747Y-138153178D01*
X193318900Y-138201122D01*
X193128255Y-138212249D01*
X192939082Y-138186135D01*
X192753567Y-138122041D01*
X192565485Y-138016020D01*
X192438710Y-137960081D01*
X192408535Y-137953331D01*
X178911356Y-130081014D01*
X178867577Y-130052778D01*
X178856602Y-130048439D01*
X178855577Y-130047778D01*
X178817781Y-130032836D01*
X178800132Y-130024745D01*
X178791406Y-130020081D01*
X178788015Y-130019052D01*
X178773183Y-130012029D01*
X178728917Y-130000919D01*
X178712695Y-129995512D01*
X178703583Y-129993440D01*
X178662283Y-129980912D01*
X178637935Y-129978514D01*
X178614089Y-129973092D01*
X178593238Y-129972524D01*
X178590344Y-129971997D01*
X178580032Y-129972164D01*
X178578403Y-129972120D01*
X178568714Y-129971696D01*
X178561647Y-129971000D01*
X178558800Y-129971000D01*
X178548647Y-129970000D01*
X178529949Y-129970000D01*
X178477539Y-129967707D01*
X178462633Y-129970000D01*
X99139980Y-129970000D01*
X78176792Y-129965043D01*
X78079612Y-129944408D01*
X78069753Y-129943374D01*
X77575663Y-129895035D01*
X77167024Y-129771755D01*
X76790106Y-129571447D01*
X76459280Y-129301751D01*
X76187134Y-128972926D01*
X75984042Y-128597506D01*
X75857738Y-128189795D01*
X75809831Y-127734930D01*
X75809991Y-127703137D01*
X75797162Y-127565165D01*
X75785000Y-127524138D01*
X75785000Y-110179117D01*
X92225000Y-110179117D01*
X92225000Y-110520883D01*
X92291675Y-110856081D01*
X92422463Y-111171831D01*
X92612337Y-111455998D01*
X92854002Y-111697663D01*
X93138169Y-111887537D01*
X93453919Y-112018325D01*
X93789117Y-112085000D01*
X94130883Y-112085000D01*
X94466081Y-112018325D01*
X94781831Y-111887537D01*
X95065998Y-111697663D01*
X95307663Y-111455998D01*
X95497537Y-111171831D01*
X95628325Y-110856081D01*
X95695000Y-110520883D01*
X95695000Y-110179117D01*
X95628325Y-109843919D01*
X95497537Y-109528169D01*
X95307663Y-109244002D01*
X95112778Y-109049117D01*
X183045000Y-109049117D01*
X183045000Y-109390883D01*
X183111675Y-109726081D01*
X183242463Y-110041831D01*
X183432337Y-110325998D01*
X183674002Y-110567663D01*
X183958169Y-110757537D01*
X184273919Y-110888325D01*
X184609117Y-110955000D01*
X184950883Y-110955000D01*
X185286081Y-110888325D01*
X185601831Y-110757537D01*
X185885998Y-110567663D01*
X186127663Y-110325998D01*
X186317537Y-110041831D01*
X186448325Y-109726081D01*
X186515000Y-109390883D01*
X186515000Y-109049117D01*
X186448325Y-108713919D01*
X186317537Y-108398169D01*
X186127663Y-108114002D01*
X185885998Y-107872337D01*
X185601831Y-107682463D01*
X185286081Y-107551675D01*
X184950883Y-107485000D01*
X184609117Y-107485000D01*
X184273919Y-107551675D01*
X183958169Y-107682463D01*
X183674002Y-107872337D01*
X183432337Y-108114002D01*
X183242463Y-108398169D01*
X183111675Y-108713919D01*
X183045000Y-109049117D01*
X95112778Y-109049117D01*
X95065998Y-109002337D01*
X94781831Y-108812463D01*
X94466081Y-108681675D01*
X94130883Y-108615000D01*
X93789117Y-108615000D01*
X93453919Y-108681675D01*
X93138169Y-108812463D01*
X92854002Y-109002337D01*
X92612337Y-109244002D01*
X92422463Y-109528169D01*
X92291675Y-109843919D01*
X92225000Y-110179117D01*
X75785000Y-110179117D01*
X75785000Y-106679117D01*
X126765000Y-106679117D01*
X126765000Y-107020883D01*
X126831675Y-107356081D01*
X126962463Y-107671831D01*
X127152337Y-107955998D01*
X127394002Y-108197663D01*
X127678169Y-108387537D01*
X127993919Y-108518325D01*
X128329117Y-108585000D01*
X128670883Y-108585000D01*
X129006081Y-108518325D01*
X129321831Y-108387537D01*
X129605998Y-108197663D01*
X129847663Y-107955998D01*
X130037537Y-107671831D01*
X130168325Y-107356081D01*
X130235000Y-107020883D01*
X130235000Y-106679117D01*
X153175000Y-106679117D01*
X153175000Y-107020883D01*
X153241675Y-107356081D01*
X153372463Y-107671831D01*
X153562337Y-107955998D01*
X153804002Y-108197663D01*
X154088169Y-108387537D01*
X154403919Y-108518325D01*
X154739117Y-108585000D01*
X155080883Y-108585000D01*
X155416081Y-108518325D01*
X155731831Y-108387537D01*
X156015998Y-108197663D01*
X156257663Y-107955998D01*
X156447537Y-107671831D01*
X156578325Y-107356081D01*
X156645000Y-107020883D01*
X156645000Y-106679117D01*
X156578325Y-106343919D01*
X156447537Y-106028169D01*
X156257663Y-105744002D01*
X156015998Y-105502337D01*
X155731831Y-105312463D01*
X155416081Y-105181675D01*
X155080883Y-105115000D01*
X154739117Y-105115000D01*
X154403919Y-105181675D01*
X154088169Y-105312463D01*
X153804002Y-105502337D01*
X153562337Y-105744002D01*
X153372463Y-106028169D01*
X153241675Y-106343919D01*
X153175000Y-106679117D01*
X130235000Y-106679117D01*
X130168325Y-106343919D01*
X130037537Y-106028169D01*
X129847663Y-105744002D01*
X129605998Y-105502337D01*
X129321831Y-105312463D01*
X129006081Y-105181675D01*
X128670883Y-105115000D01*
X128329117Y-105115000D01*
X127993919Y-105181675D01*
X127678169Y-105312463D01*
X127394002Y-105502337D01*
X127152337Y-105744002D01*
X126962463Y-106028169D01*
X126831675Y-106343919D01*
X126765000Y-106679117D01*
X75785000Y-106679117D01*
X75785000Y-71979117D01*
X92225000Y-71979117D01*
X92225000Y-72320883D01*
X92291675Y-72656081D01*
X92422463Y-72971831D01*
X92612337Y-73255998D01*
X92854002Y-73497663D01*
X93138169Y-73687537D01*
X93453919Y-73818325D01*
X93789117Y-73885000D01*
X94130883Y-73885000D01*
X94466081Y-73818325D01*
X94781831Y-73687537D01*
X95065998Y-73497663D01*
X95307663Y-73255998D01*
X95497537Y-72971831D01*
X95628325Y-72656081D01*
X95695000Y-72320883D01*
X95695000Y-71979117D01*
X187515000Y-71979117D01*
X187515000Y-72320883D01*
X187581675Y-72656081D01*
X187712463Y-72971831D01*
X187902337Y-73255998D01*
X188144002Y-73497663D01*
X188428169Y-73687537D01*
X188743919Y-73818325D01*
X189079117Y-73885000D01*
X189420883Y-73885000D01*
X189756081Y-73818325D01*
X190071831Y-73687537D01*
X190355998Y-73497663D01*
X190597663Y-73255998D01*
X190787537Y-72971831D01*
X190918325Y-72656081D01*
X190985000Y-72320883D01*
X190985000Y-71979117D01*
X190918325Y-71643919D01*
X190787537Y-71328169D01*
X190597663Y-71044002D01*
X190355998Y-70802337D01*
X190071831Y-70612463D01*
X189756081Y-70481675D01*
X189420883Y-70415000D01*
X189079117Y-70415000D01*
X188743919Y-70481675D01*
X188428169Y-70612463D01*
X188144002Y-70802337D01*
X187902337Y-71044002D01*
X187712463Y-71328169D01*
X187581675Y-71643919D01*
X187515000Y-71979117D01*
X95695000Y-71979117D01*
X95628325Y-71643919D01*
X95497537Y-71328169D01*
X95307663Y-71044002D01*
X95065998Y-70802337D01*
X94781831Y-70612463D01*
X94466081Y-70481675D01*
X94130883Y-70415000D01*
X93789117Y-70415000D01*
X93453919Y-70481675D01*
X93138169Y-70612463D01*
X92854002Y-70802337D01*
X92612337Y-71044002D01*
X92422463Y-71328169D01*
X92291675Y-71643919D01*
X92225000Y-71979117D01*
X75785000Y-71979117D01*
X75785000Y-68579117D01*
X126765000Y-68579117D01*
X126765000Y-68920883D01*
X126831675Y-69256081D01*
X126962463Y-69571831D01*
X127152337Y-69855998D01*
X127394002Y-70097663D01*
X127678169Y-70287537D01*
X127993919Y-70418325D01*
X128329117Y-70485000D01*
X128670883Y-70485000D01*
X129006081Y-70418325D01*
X129321831Y-70287537D01*
X129605998Y-70097663D01*
X129847663Y-69855998D01*
X130037537Y-69571831D01*
X130168325Y-69256081D01*
X130235000Y-68920883D01*
X130235000Y-68579117D01*
X153175000Y-68579117D01*
X153175000Y-68920883D01*
X153241675Y-69256081D01*
X153372463Y-69571831D01*
X153562337Y-69855998D01*
X153804002Y-70097663D01*
X154088169Y-70287537D01*
X154403919Y-70418325D01*
X154739117Y-70485000D01*
X155080883Y-70485000D01*
X155416081Y-70418325D01*
X155731831Y-70287537D01*
X156015998Y-70097663D01*
X156257663Y-69855998D01*
X156447537Y-69571831D01*
X156578325Y-69256081D01*
X156645000Y-68920883D01*
X156645000Y-68579117D01*
X156578325Y-68243919D01*
X156447537Y-67928169D01*
X156257663Y-67644002D01*
X156015998Y-67402337D01*
X155731831Y-67212463D01*
X155416081Y-67081675D01*
X155080883Y-67015000D01*
X154739117Y-67015000D01*
X154403919Y-67081675D01*
X154088169Y-67212463D01*
X153804002Y-67402337D01*
X153562337Y-67644002D01*
X153372463Y-67928169D01*
X153241675Y-68243919D01*
X153175000Y-68579117D01*
X130235000Y-68579117D01*
X130168325Y-68243919D01*
X130037537Y-67928169D01*
X129847663Y-67644002D01*
X129605998Y-67402337D01*
X129321831Y-67212463D01*
X129006081Y-67081675D01*
X128670883Y-67015000D01*
X128329117Y-67015000D01*
X127993919Y-67081675D01*
X127678169Y-67212463D01*
X127394002Y-67402337D01*
X127152337Y-67644002D01*
X126962463Y-67928169D01*
X126831675Y-68243919D01*
X126765000Y-68579117D01*
X75785000Y-68579117D01*
X75785000Y-54025944D01*
X75801148Y-53949970D01*
X75840399Y-53945980D01*
X75883161Y-53932902D01*
X75905762Y-53928263D01*
X75925607Y-53919921D01*
X75972909Y-53905455D01*
X75992073Y-53895177D01*
X116348807Y-47035000D01*
X132193647Y-47035000D01*
X205272774Y-47034964D01*
X205385182Y-47056814D01*
G37*
%TD.AperFunction*%
M02*
