G04 #@! TF.GenerationSoftware,KiCad,Pcbnew,(5.0.0)*
G04 #@! TF.CreationDate,2019-11-10T17:34:30-06:00*
G04 #@! TF.ProjectId,Top Plate,546F7020506C6174652E6B696361645F,rev?*
G04 #@! TF.SameCoordinates,Original*
G04 #@! TF.FileFunction,Copper,L2,Bot,Signal*
G04 #@! TF.FilePolarity,Positive*
%FSLAX46Y46*%
G04 Gerber Fmt 4.6, Leading zero omitted, Abs format (unit mm)*
G04 Created by KiCad (PCBNEW (5.0.0)) date 11/10/19 17:34:30*
%MOMM*%
%LPD*%
G01*
G04 APERTURE LIST*
G04 #@! TA.AperFunction,NonConductor*
%ADD10C,0.254000*%
G04 #@! TD*
G04 APERTURE END LIST*
D10*
G36*
X213239300Y-142110824D02*
X71247000Y-139575247D01*
X71247000Y-127624536D01*
X74316727Y-127624536D01*
X74320001Y-127661933D01*
X74320001Y-127699462D01*
X74325869Y-127728964D01*
X74359849Y-128117103D01*
X74354343Y-128139618D01*
X74371666Y-128252082D01*
X74375594Y-128296945D01*
X74381918Y-128318639D01*
X74385358Y-128340968D01*
X74400764Y-128383279D01*
X74432614Y-128492529D01*
X74447123Y-128510605D01*
X74749330Y-129340610D01*
X74755138Y-129393802D01*
X74795514Y-129467455D01*
X74800719Y-129481749D01*
X74827894Y-129526520D01*
X74853070Y-129572445D01*
X74862845Y-129584102D01*
X74906427Y-129655904D01*
X74949581Y-129687538D01*
X75535241Y-130385963D01*
X75559039Y-130434211D01*
X75621973Y-130489395D01*
X75631563Y-130500831D01*
X75672623Y-130533807D01*
X75712217Y-130568525D01*
X75725142Y-130575986D01*
X75790404Y-130628399D01*
X75842047Y-130643470D01*
X76631114Y-131098962D01*
X76669869Y-131136058D01*
X76748013Y-131166442D01*
X76761069Y-131173979D01*
X76810814Y-131190861D01*
X76859746Y-131209887D01*
X76874584Y-131212503D01*
X76953988Y-131239450D01*
X77007525Y-131235937D01*
X77985336Y-131408304D01*
X78044138Y-131420000D01*
X78051689Y-131420000D01*
X78059120Y-131421310D01*
X78119025Y-131420000D01*
X178270672Y-131420000D01*
X192386349Y-139653980D01*
X192443179Y-139687247D01*
X192443670Y-139687417D01*
X192444126Y-139687683D01*
X192458800Y-139692737D01*
X192507153Y-139723200D01*
X192586042Y-139736700D01*
X192596681Y-139740383D01*
X192597425Y-139740485D01*
X192636745Y-139754029D01*
X192674007Y-139751754D01*
X192707959Y-139757564D01*
X192719210Y-139757262D01*
X192798499Y-139768184D01*
X192854120Y-139753637D01*
X193363184Y-139739961D01*
X193415973Y-139751331D01*
X193498113Y-139736336D01*
X193512834Y-139735941D01*
X193564398Y-139724236D01*
X193616386Y-139714746D01*
X193630071Y-139709329D01*
X193711505Y-139690844D01*
X193755585Y-139659646D01*
X194226214Y-139473356D01*
X194279260Y-139466065D01*
X194351728Y-139423674D01*
X194365839Y-139418088D01*
X194409877Y-139389658D01*
X194455109Y-139363199D01*
X194466459Y-139353130D01*
X194536997Y-139307593D01*
X194563985Y-139268552D01*
X194597029Y-139252488D01*
X194660236Y-139181232D01*
X194680042Y-139163662D01*
X194704909Y-139130870D01*
X194732219Y-139100082D01*
X194745587Y-139077227D01*
X194803140Y-139001332D01*
X194813808Y-138960595D01*
X213324200Y-107314439D01*
X213368405Y-107262975D01*
X213402083Y-107160308D01*
X213450916Y-107019078D01*
X213446647Y-106947768D01*
X213470775Y-106748714D01*
X213490812Y-106692795D01*
X213487014Y-106614748D01*
X213488140Y-106605456D01*
X213483738Y-106547434D01*
X213480909Y-106489311D01*
X213478639Y-106480230D01*
X213472727Y-106402314D01*
X213445910Y-106349314D01*
X213376068Y-106069947D01*
X213376670Y-106022436D01*
X213343312Y-105938926D01*
X213338185Y-105918416D01*
X213318339Y-105876405D01*
X213301099Y-105833245D01*
X213289575Y-105815515D01*
X213251166Y-105734210D01*
X213215975Y-105702286D01*
X213014921Y-105392972D01*
X212991071Y-105351283D01*
X212978227Y-105336520D01*
X212967567Y-105320120D01*
X212934050Y-105285743D01*
X212673908Y-104986733D01*
X212660059Y-104955689D01*
X212585121Y-104884680D01*
X212562510Y-104858691D01*
X212536272Y-104838392D01*
X212512179Y-104815563D01*
X212483017Y-104797193D01*
X212401375Y-104734033D01*
X212368579Y-104725106D01*
X208890000Y-102533874D01*
X208890000Y-49071555D01*
X208908410Y-48976557D01*
X208867681Y-48776944D01*
X208858503Y-48755091D01*
X208850255Y-48713627D01*
X208825574Y-48676689D01*
X208458614Y-47802977D01*
X208455106Y-47770923D01*
X208412626Y-47693480D01*
X208395434Y-47652547D01*
X208367414Y-47611056D01*
X208357128Y-47592305D01*
X208344938Y-47577776D01*
X208281416Y-47483716D01*
X208246852Y-47460867D01*
X207674840Y-46779082D01*
X207651096Y-46730933D01*
X207588069Y-46675660D01*
X207578407Y-46664143D01*
X207537449Y-46631266D01*
X207497928Y-46596607D01*
X207484898Y-46589084D01*
X207419533Y-46536616D01*
X207368001Y-46521592D01*
X206578983Y-46066045D01*
X206540184Y-46028912D01*
X206462086Y-45998553D01*
X206449081Y-45991044D01*
X206399293Y-45974143D01*
X206350301Y-45955098D01*
X206335516Y-45952493D01*
X206256167Y-45925557D01*
X206202574Y-45929069D01*
X205224252Y-45756694D01*
X205165462Y-45745000D01*
X205157882Y-45745000D01*
X205150424Y-45743686D01*
X205090551Y-45745000D01*
X116220779Y-45745000D01*
X116163217Y-45743347D01*
X116153449Y-45745000D01*
X116143538Y-45745000D01*
X116087027Y-45756241D01*
X75589893Y-52609640D01*
X75548545Y-52606348D01*
X75482021Y-52627896D01*
X75446186Y-52633960D01*
X75255808Y-52706488D01*
X75209308Y-52750392D01*
X75076029Y-52824872D01*
X75075514Y-52824928D01*
X74896912Y-52922936D01*
X74759763Y-53038042D01*
X74711600Y-53061807D01*
X74656364Y-53124822D01*
X74644863Y-53134474D01*
X74611966Y-53175472D01*
X74577310Y-53215008D01*
X74569804Y-53228016D01*
X74517363Y-53293370D01*
X74502341Y-53344929D01*
X74487944Y-53369878D01*
X74450934Y-53408524D01*
X74420478Y-53486795D01*
X74412875Y-53499971D01*
X74396049Y-53549578D01*
X74377058Y-53598384D01*
X74374414Y-53613361D01*
X74347435Y-53692901D01*
X74350947Y-53746296D01*
X74331713Y-53855253D01*
X74320000Y-53914139D01*
X74320000Y-53921606D01*
X74318703Y-53928953D01*
X74320000Y-53988937D01*
X74320001Y-127594625D01*
X74316727Y-127624536D01*
X71247000Y-127624536D01*
X71247000Y-43304829D01*
X218306375Y-40769323D01*
X213239300Y-142110824D01*
X213239300Y-142110824D01*
G37*
X213239300Y-142110824D02*
X71247000Y-139575247D01*
X71247000Y-127624536D01*
X74316727Y-127624536D01*
X74320001Y-127661933D01*
X74320001Y-127699462D01*
X74325869Y-127728964D01*
X74359849Y-128117103D01*
X74354343Y-128139618D01*
X74371666Y-128252082D01*
X74375594Y-128296945D01*
X74381918Y-128318639D01*
X74385358Y-128340968D01*
X74400764Y-128383279D01*
X74432614Y-128492529D01*
X74447123Y-128510605D01*
X74749330Y-129340610D01*
X74755138Y-129393802D01*
X74795514Y-129467455D01*
X74800719Y-129481749D01*
X74827894Y-129526520D01*
X74853070Y-129572445D01*
X74862845Y-129584102D01*
X74906427Y-129655904D01*
X74949581Y-129687538D01*
X75535241Y-130385963D01*
X75559039Y-130434211D01*
X75621973Y-130489395D01*
X75631563Y-130500831D01*
X75672623Y-130533807D01*
X75712217Y-130568525D01*
X75725142Y-130575986D01*
X75790404Y-130628399D01*
X75842047Y-130643470D01*
X76631114Y-131098962D01*
X76669869Y-131136058D01*
X76748013Y-131166442D01*
X76761069Y-131173979D01*
X76810814Y-131190861D01*
X76859746Y-131209887D01*
X76874584Y-131212503D01*
X76953988Y-131239450D01*
X77007525Y-131235937D01*
X77985336Y-131408304D01*
X78044138Y-131420000D01*
X78051689Y-131420000D01*
X78059120Y-131421310D01*
X78119025Y-131420000D01*
X178270672Y-131420000D01*
X192386349Y-139653980D01*
X192443179Y-139687247D01*
X192443670Y-139687417D01*
X192444126Y-139687683D01*
X192458800Y-139692737D01*
X192507153Y-139723200D01*
X192586042Y-139736700D01*
X192596681Y-139740383D01*
X192597425Y-139740485D01*
X192636745Y-139754029D01*
X192674007Y-139751754D01*
X192707959Y-139757564D01*
X192719210Y-139757262D01*
X192798499Y-139768184D01*
X192854120Y-139753637D01*
X193363184Y-139739961D01*
X193415973Y-139751331D01*
X193498113Y-139736336D01*
X193512834Y-139735941D01*
X193564398Y-139724236D01*
X193616386Y-139714746D01*
X193630071Y-139709329D01*
X193711505Y-139690844D01*
X193755585Y-139659646D01*
X194226214Y-139473356D01*
X194279260Y-139466065D01*
X194351728Y-139423674D01*
X194365839Y-139418088D01*
X194409877Y-139389658D01*
X194455109Y-139363199D01*
X194466459Y-139353130D01*
X194536997Y-139307593D01*
X194563985Y-139268552D01*
X194597029Y-139252488D01*
X194660236Y-139181232D01*
X194680042Y-139163662D01*
X194704909Y-139130870D01*
X194732219Y-139100082D01*
X194745587Y-139077227D01*
X194803140Y-139001332D01*
X194813808Y-138960595D01*
X213324200Y-107314439D01*
X213368405Y-107262975D01*
X213402083Y-107160308D01*
X213450916Y-107019078D01*
X213446647Y-106947768D01*
X213470775Y-106748714D01*
X213490812Y-106692795D01*
X213487014Y-106614748D01*
X213488140Y-106605456D01*
X213483738Y-106547434D01*
X213480909Y-106489311D01*
X213478639Y-106480230D01*
X213472727Y-106402314D01*
X213445910Y-106349314D01*
X213376068Y-106069947D01*
X213376670Y-106022436D01*
X213343312Y-105938926D01*
X213338185Y-105918416D01*
X213318339Y-105876405D01*
X213301099Y-105833245D01*
X213289575Y-105815515D01*
X213251166Y-105734210D01*
X213215975Y-105702286D01*
X213014921Y-105392972D01*
X212991071Y-105351283D01*
X212978227Y-105336520D01*
X212967567Y-105320120D01*
X212934050Y-105285743D01*
X212673908Y-104986733D01*
X212660059Y-104955689D01*
X212585121Y-104884680D01*
X212562510Y-104858691D01*
X212536272Y-104838392D01*
X212512179Y-104815563D01*
X212483017Y-104797193D01*
X212401375Y-104734033D01*
X212368579Y-104725106D01*
X208890000Y-102533874D01*
X208890000Y-49071555D01*
X208908410Y-48976557D01*
X208867681Y-48776944D01*
X208858503Y-48755091D01*
X208850255Y-48713627D01*
X208825574Y-48676689D01*
X208458614Y-47802977D01*
X208455106Y-47770923D01*
X208412626Y-47693480D01*
X208395434Y-47652547D01*
X208367414Y-47611056D01*
X208357128Y-47592305D01*
X208344938Y-47577776D01*
X208281416Y-47483716D01*
X208246852Y-47460867D01*
X207674840Y-46779082D01*
X207651096Y-46730933D01*
X207588069Y-46675660D01*
X207578407Y-46664143D01*
X207537449Y-46631266D01*
X207497928Y-46596607D01*
X207484898Y-46589084D01*
X207419533Y-46536616D01*
X207368001Y-46521592D01*
X206578983Y-46066045D01*
X206540184Y-46028912D01*
X206462086Y-45998553D01*
X206449081Y-45991044D01*
X206399293Y-45974143D01*
X206350301Y-45955098D01*
X206335516Y-45952493D01*
X206256167Y-45925557D01*
X206202574Y-45929069D01*
X205224252Y-45756694D01*
X205165462Y-45745000D01*
X205157882Y-45745000D01*
X205150424Y-45743686D01*
X205090551Y-45745000D01*
X116220779Y-45745000D01*
X116163217Y-45743347D01*
X116153449Y-45745000D01*
X116143538Y-45745000D01*
X116087027Y-45756241D01*
X75589893Y-52609640D01*
X75548545Y-52606348D01*
X75482021Y-52627896D01*
X75446186Y-52633960D01*
X75255808Y-52706488D01*
X75209308Y-52750392D01*
X75076029Y-52824872D01*
X75075514Y-52824928D01*
X74896912Y-52922936D01*
X74759763Y-53038042D01*
X74711600Y-53061807D01*
X74656364Y-53124822D01*
X74644863Y-53134474D01*
X74611966Y-53175472D01*
X74577310Y-53215008D01*
X74569804Y-53228016D01*
X74517363Y-53293370D01*
X74502341Y-53344929D01*
X74487944Y-53369878D01*
X74450934Y-53408524D01*
X74420478Y-53486795D01*
X74412875Y-53499971D01*
X74396049Y-53549578D01*
X74377058Y-53598384D01*
X74374414Y-53613361D01*
X74347435Y-53692901D01*
X74350947Y-53746296D01*
X74331713Y-53855253D01*
X74320000Y-53914139D01*
X74320000Y-53921606D01*
X74318703Y-53928953D01*
X74320000Y-53988937D01*
X74320001Y-127594625D01*
X74316727Y-127624536D01*
X71247000Y-127624536D01*
X71247000Y-43304829D01*
X218306375Y-40769323D01*
X213239300Y-142110824D01*
G36*
X205927138Y-47271641D02*
X206649878Y-47688923D01*
X207200351Y-48345037D01*
X207520001Y-49106108D01*
X207520000Y-95317461D01*
X207520001Y-95317466D01*
X207520000Y-102859355D01*
X207519030Y-102890432D01*
X207512339Y-102943510D01*
X207525098Y-102990101D01*
X207524188Y-103008796D01*
X207541942Y-103058344D01*
X207542411Y-103061157D01*
X207544210Y-103065914D01*
X207547118Y-103081910D01*
X207548812Y-103086198D01*
X207563745Y-103161272D01*
X207574602Y-103177520D01*
X207575746Y-103183273D01*
X207589728Y-103204199D01*
X207594554Y-103222703D01*
X207611666Y-103245315D01*
X207621965Y-103271388D01*
X207656251Y-103306824D01*
X207669940Y-103337510D01*
X207701459Y-103367376D01*
X207715143Y-103387856D01*
X207729129Y-103397201D01*
X207757395Y-103433622D01*
X207774612Y-103443437D01*
X207805210Y-103477165D01*
X207852653Y-103499578D01*
X207867125Y-103508693D01*
X207972727Y-103579254D01*
X207982099Y-103581118D01*
X211639479Y-105884983D01*
X211881772Y-106163478D01*
X212053236Y-106427270D01*
X212104740Y-106633286D01*
X212096708Y-106699554D01*
X193656711Y-138225361D01*
X193287516Y-138371501D01*
X192923522Y-138381279D01*
X178919492Y-130212426D01*
X178907254Y-130197998D01*
X178815468Y-130150836D01*
X178797839Y-130135029D01*
X178770051Y-130125254D01*
X178759873Y-130119317D01*
X178756078Y-130118010D01*
X178715273Y-130090745D01*
X178635474Y-130074872D01*
X178563796Y-130049188D01*
X178517644Y-130051434D01*
X178515462Y-130051000D01*
X178507489Y-130051000D01*
X178502462Y-130050000D01*
X178483674Y-130050000D01*
X178465089Y-130047345D01*
X178462932Y-130047463D01*
X178398491Y-130039339D01*
X178379398Y-130044568D01*
X178374276Y-130044147D01*
X178356051Y-130050000D01*
X78171509Y-130050000D01*
X77282958Y-129893368D01*
X76560285Y-129476203D01*
X76023692Y-128836294D01*
X75726623Y-128020401D01*
X75690000Y-127602078D01*
X75690000Y-114088980D01*
X76730891Y-114088980D01*
X76744310Y-114156442D01*
X76744311Y-128019653D01*
X76730891Y-128087120D01*
X76784055Y-128354393D01*
X76935453Y-128580977D01*
X77162037Y-128732375D01*
X77361848Y-128772120D01*
X77361849Y-128772120D01*
X77429310Y-128785539D01*
X77496772Y-128772120D01*
X91461398Y-128772120D01*
X91528860Y-128785539D01*
X91596321Y-128772120D01*
X91596322Y-128772120D01*
X91796133Y-128732375D01*
X91884322Y-128673449D01*
X180195358Y-128673449D01*
X180201824Y-128772120D01*
X180213172Y-128945357D01*
X180213176Y-128945366D01*
X180213177Y-128945375D01*
X180275633Y-129072028D01*
X180333691Y-129189768D01*
X180333697Y-129189774D01*
X180333702Y-129189783D01*
X180452504Y-129293972D01*
X180486855Y-129324100D01*
X180486860Y-129324103D01*
X180538583Y-129369464D01*
X180603710Y-129391573D01*
X192610880Y-136324545D01*
X192662612Y-136369910D01*
X192781400Y-136410228D01*
X192920610Y-136457490D01*
X192920639Y-136457488D01*
X192920662Y-136457496D01*
X193047718Y-136449164D01*
X193192537Y-136439678D01*
X193192562Y-136439666D01*
X193192587Y-136439664D01*
X193311253Y-136381139D01*
X193436948Y-136319159D01*
X193436965Y-136319139D01*
X193436990Y-136319127D01*
X193530532Y-136212456D01*
X193616634Y-136114283D01*
X193638754Y-136049128D01*
X200571314Y-124040618D01*
X200616663Y-123988903D01*
X200638768Y-123923775D01*
X200704246Y-123730859D01*
X200704246Y-123730856D01*
X200704247Y-123730852D01*
X200691729Y-123539978D01*
X200686415Y-123458933D01*
X200686413Y-123458929D01*
X200686413Y-123458926D01*
X200627793Y-123340070D01*
X200565878Y-123214530D01*
X200565875Y-123214528D01*
X200565874Y-123214525D01*
X200412699Y-123080206D01*
X200360988Y-123034860D01*
X200295854Y-123012752D01*
X188288717Y-116081117D01*
X188237017Y-116035776D01*
X188171864Y-116013659D01*
X188171849Y-116013650D01*
X188112734Y-115993586D01*
X187978971Y-115948178D01*
X187978951Y-115948179D01*
X187978932Y-115948173D01*
X187843148Y-115957078D01*
X187707044Y-115965997D01*
X187707026Y-115966006D01*
X187707007Y-115966007D01*
X187591530Y-116022960D01*
X187462636Y-116086522D01*
X187462622Y-116086538D01*
X187462606Y-116086546D01*
X187382015Y-116178451D01*
X187328308Y-116239690D01*
X187328297Y-116239710D01*
X187282937Y-116291437D01*
X187260838Y-116356548D01*
X180328313Y-128363682D01*
X180282966Y-128415387D01*
X180260851Y-128480528D01*
X180260846Y-128480536D01*
X180240155Y-128541488D01*
X180195360Y-128673431D01*
X180195361Y-128673441D01*
X180195358Y-128673449D01*
X91884322Y-128673449D01*
X92022717Y-128580977D01*
X92174115Y-128354393D01*
X92227279Y-128087120D01*
X92213860Y-128019658D01*
X92213860Y-114156442D01*
X92227279Y-114088980D01*
X92174115Y-113821707D01*
X92022717Y-113595123D01*
X91796133Y-113443725D01*
X91596322Y-113403980D01*
X91528860Y-113390561D01*
X91461399Y-113403980D01*
X77496771Y-113403980D01*
X77429310Y-113390561D01*
X77361848Y-113403980D01*
X77162037Y-113443725D01*
X76935453Y-113595123D01*
X76784055Y-113821707D01*
X76730891Y-114088980D01*
X75690000Y-114088980D01*
X75690000Y-110061593D01*
X92214677Y-110061593D01*
X92225000Y-110378284D01*
X92225000Y-110695113D01*
X92236210Y-110722176D01*
X92237164Y-110751453D01*
X92457901Y-111284359D01*
X92471293Y-111289716D01*
X92489138Y-111332799D01*
X92977201Y-111820862D01*
X93020284Y-111838707D01*
X93025641Y-111852099D01*
X93322171Y-111963753D01*
X93614887Y-112085000D01*
X93644177Y-112085000D01*
X93671593Y-112095323D01*
X93988284Y-112085000D01*
X94305113Y-112085000D01*
X94332176Y-112073790D01*
X94361453Y-112072836D01*
X94894359Y-111852099D01*
X94899716Y-111838707D01*
X94942799Y-111820862D01*
X94983541Y-111780120D01*
X95770781Y-111780120D01*
X95784200Y-111847582D01*
X95784201Y-125710793D01*
X95770781Y-125778260D01*
X95823945Y-126045533D01*
X95975343Y-126272117D01*
X96201927Y-126423515D01*
X96401738Y-126463260D01*
X96401739Y-126463260D01*
X96469200Y-126476679D01*
X96536662Y-126463260D01*
X110501038Y-126463260D01*
X110568500Y-126476679D01*
X110635961Y-126463260D01*
X110635962Y-126463260D01*
X110835773Y-126423515D01*
X111062357Y-126272117D01*
X111213755Y-126045533D01*
X111231982Y-125953899D01*
X111253500Y-125845722D01*
X111253500Y-125845721D01*
X111266919Y-125778260D01*
X111253500Y-125710798D01*
X111253500Y-111847582D01*
X111266919Y-111780120D01*
X111213755Y-111512847D01*
X111062357Y-111286263D01*
X110835773Y-111134865D01*
X110635962Y-111095120D01*
X110568500Y-111081701D01*
X110501039Y-111095120D01*
X96536661Y-111095120D01*
X96469200Y-111081701D01*
X96401738Y-111095120D01*
X96201927Y-111134865D01*
X95975343Y-111286263D01*
X95823945Y-111512847D01*
X95770781Y-111780120D01*
X94983541Y-111780120D01*
X95430862Y-111332799D01*
X95448707Y-111289716D01*
X95462099Y-111284359D01*
X95573753Y-110987829D01*
X95695000Y-110695113D01*
X95695000Y-110665823D01*
X95705323Y-110638407D01*
X95695000Y-110321716D01*
X95695000Y-110004887D01*
X95683790Y-109977824D01*
X95682836Y-109948547D01*
X95462099Y-109415641D01*
X95448707Y-109410284D01*
X95439246Y-109387440D01*
X114869041Y-109387440D01*
X114882460Y-109454902D01*
X114882461Y-123318113D01*
X114869041Y-123385580D01*
X114922205Y-123652853D01*
X115073603Y-123879437D01*
X115300187Y-124030835D01*
X115499998Y-124070580D01*
X115499999Y-124070580D01*
X115567460Y-124083999D01*
X115634922Y-124070580D01*
X129599298Y-124070580D01*
X129666760Y-124083999D01*
X129734221Y-124070580D01*
X129734222Y-124070580D01*
X129934033Y-124030835D01*
X129993934Y-123990810D01*
X158460572Y-123990810D01*
X158462073Y-124059579D01*
X158462072Y-124059582D01*
X158462605Y-124083999D01*
X158466517Y-124263254D01*
X158466518Y-124263256D01*
X158466518Y-124263258D01*
X158481573Y-124297472D01*
X158576268Y-124512685D01*
X158576270Y-124512687D01*
X158576271Y-124512689D01*
X158651365Y-124584575D01*
X158773120Y-124701130D01*
X158773123Y-124701131D01*
X158773124Y-124701132D01*
X158854783Y-124732887D01*
X158962993Y-124774968D01*
X158962996Y-124774968D01*
X159027105Y-124799899D01*
X159095870Y-124798398D01*
X172748859Y-127205812D01*
X172812937Y-127230737D01*
X172881739Y-127229242D01*
X172881767Y-127229247D01*
X172944510Y-127227878D01*
X173085381Y-127224817D01*
X173085411Y-127224804D01*
X173085444Y-127224803D01*
X173208313Y-127170740D01*
X173334823Y-127115089D01*
X173334846Y-127115065D01*
X173334875Y-127115052D01*
X173426106Y-127019751D01*
X173523285Y-126918255D01*
X173523297Y-126918224D01*
X173523320Y-126918200D01*
X173572738Y-126791124D01*
X173597141Y-126728388D01*
X173597147Y-126728356D01*
X173622088Y-126664220D01*
X173620588Y-126595486D01*
X176029547Y-112941090D01*
X176054489Y-112876950D01*
X176051493Y-112739729D01*
X176048557Y-112604580D01*
X176048542Y-112604546D01*
X176048541Y-112604506D01*
X175992260Y-112476601D01*
X175938829Y-112355138D01*
X175938802Y-112355112D01*
X175938786Y-112355076D01*
X175836662Y-112257316D01*
X175752767Y-112176988D01*
X189720353Y-112176988D01*
X189738187Y-112448913D01*
X189798022Y-112570233D01*
X189858725Y-112693313D01*
X190063616Y-112872982D01*
X190128750Y-112895089D01*
X202135903Y-119826735D01*
X202187614Y-119872081D01*
X202252746Y-119894188D01*
X202252750Y-119894190D01*
X202341902Y-119924449D01*
X202445664Y-119959667D01*
X202445667Y-119959667D01*
X202502921Y-119955912D01*
X202717589Y-119941834D01*
X202717591Y-119941833D01*
X202717593Y-119941833D01*
X202876815Y-119863305D01*
X202961991Y-119821296D01*
X202961992Y-119821295D01*
X202961994Y-119821294D01*
X203141663Y-119616403D01*
X203163769Y-119551271D01*
X210096312Y-107542722D01*
X210141661Y-107491007D01*
X210229247Y-107232956D01*
X210211414Y-106961030D01*
X210090877Y-106716628D01*
X209937703Y-106582308D01*
X209937696Y-106582304D01*
X209885986Y-106536959D01*
X209820860Y-106514855D01*
X197813700Y-99583108D01*
X197761984Y-99537758D01*
X197681183Y-99510333D01*
X197503936Y-99450173D01*
X197503933Y-99450173D01*
X197450434Y-99453682D01*
X197232011Y-99468006D01*
X197232009Y-99468007D01*
X197232008Y-99468007D01*
X197114799Y-99525814D01*
X196987609Y-99588543D01*
X196987608Y-99588544D01*
X196987606Y-99588545D01*
X196884411Y-99706226D01*
X196807939Y-99793433D01*
X196785832Y-99858567D01*
X189853286Y-111867222D01*
X189807937Y-111918937D01*
X189785831Y-111984068D01*
X189785830Y-111984070D01*
X189723867Y-112166634D01*
X189720353Y-112176988D01*
X175752767Y-112176988D01*
X175741995Y-112166675D01*
X175741961Y-112166662D01*
X175741932Y-112166634D01*
X175607542Y-112114375D01*
X175488023Y-112067884D01*
X175419224Y-112069379D01*
X161764762Y-109661901D01*
X161700655Y-109636971D01*
X161428211Y-109642917D01*
X161178780Y-109752671D01*
X160990337Y-109949523D01*
X160916500Y-110139397D01*
X160916498Y-110139407D01*
X160891571Y-110203510D01*
X160893072Y-110272267D01*
X158485501Y-123926706D01*
X158460572Y-123990810D01*
X129993934Y-123990810D01*
X130160617Y-123879437D01*
X130312015Y-123652853D01*
X130365179Y-123385580D01*
X130351760Y-123318118D01*
X130351760Y-109454902D01*
X130365179Y-109387440D01*
X130312015Y-109120167D01*
X130160617Y-108893583D01*
X129934033Y-108742185D01*
X129734222Y-108702440D01*
X129666760Y-108689021D01*
X129599299Y-108702440D01*
X115634921Y-108702440D01*
X115567460Y-108689021D01*
X115499998Y-108702440D01*
X115300187Y-108742185D01*
X115073603Y-108893583D01*
X114922205Y-109120167D01*
X114869041Y-109387440D01*
X95439246Y-109387440D01*
X95430862Y-109367201D01*
X94942799Y-108879138D01*
X94899716Y-108861293D01*
X94894359Y-108847901D01*
X94597829Y-108736247D01*
X94305113Y-108615000D01*
X94275823Y-108615000D01*
X94248407Y-108604677D01*
X93931716Y-108615000D01*
X93614887Y-108615000D01*
X93587824Y-108626210D01*
X93558547Y-108627164D01*
X93025641Y-108847901D01*
X93020284Y-108861293D01*
X92977201Y-108879138D01*
X92489138Y-109367201D01*
X92471293Y-109410284D01*
X92457901Y-109415641D01*
X92346247Y-109712171D01*
X92225000Y-110004887D01*
X92225000Y-110034177D01*
X92214677Y-110061593D01*
X75690000Y-110061593D01*
X75690000Y-94962780D01*
X76796931Y-94962780D01*
X76810350Y-95030242D01*
X76810351Y-108893453D01*
X76796931Y-108960920D01*
X76850095Y-109228193D01*
X77001493Y-109454777D01*
X77228077Y-109606175D01*
X77427888Y-109645920D01*
X77427889Y-109645920D01*
X77495350Y-109659339D01*
X77562812Y-109645920D01*
X91527438Y-109645920D01*
X91594900Y-109659339D01*
X91662361Y-109645920D01*
X91662362Y-109645920D01*
X91862173Y-109606175D01*
X92088757Y-109454777D01*
X92240155Y-109228193D01*
X92293319Y-108960920D01*
X92279900Y-108893458D01*
X92279900Y-95030242D01*
X92293319Y-94962780D01*
X92240155Y-94695507D01*
X92088757Y-94468923D01*
X91862173Y-94317525D01*
X91662362Y-94277780D01*
X91594900Y-94264361D01*
X91527439Y-94277780D01*
X77562811Y-94277780D01*
X77495350Y-94264361D01*
X77427888Y-94277780D01*
X77228077Y-94317525D01*
X77001493Y-94468923D01*
X76850095Y-94695507D01*
X76796931Y-94962780D01*
X75690000Y-94962780D01*
X75690000Y-92653920D01*
X95836821Y-92653920D01*
X95850240Y-92721382D01*
X95850241Y-106584593D01*
X95836821Y-106652060D01*
X95889985Y-106919333D01*
X96041383Y-107145917D01*
X96267967Y-107297315D01*
X96467778Y-107337060D01*
X96467779Y-107337060D01*
X96535240Y-107350479D01*
X96602702Y-107337060D01*
X110567078Y-107337060D01*
X110634540Y-107350479D01*
X110702001Y-107337060D01*
X110702002Y-107337060D01*
X110901813Y-107297315D01*
X111128397Y-107145917D01*
X111279795Y-106919333D01*
X111332959Y-106652060D01*
X111319540Y-106584598D01*
X111319540Y-106561593D01*
X126754677Y-106561593D01*
X126765000Y-106878284D01*
X126765000Y-107195113D01*
X126776210Y-107222176D01*
X126777164Y-107251453D01*
X126997901Y-107784359D01*
X127011293Y-107789716D01*
X127029138Y-107832799D01*
X127517201Y-108320862D01*
X127560284Y-108338707D01*
X127565641Y-108352099D01*
X127862171Y-108463753D01*
X128154887Y-108585000D01*
X128184177Y-108585000D01*
X128211593Y-108595323D01*
X128528284Y-108585000D01*
X128845113Y-108585000D01*
X128872176Y-108573790D01*
X128901453Y-108572836D01*
X129434359Y-108352099D01*
X129439716Y-108338707D01*
X129482799Y-108320862D01*
X129970862Y-107832799D01*
X129988707Y-107789716D01*
X130002099Y-107784359D01*
X130113753Y-107487829D01*
X130235000Y-107195113D01*
X130235000Y-107165823D01*
X130245323Y-107138407D01*
X130241138Y-107010000D01*
X133873321Y-107010000D01*
X133886740Y-107077462D01*
X133886741Y-120940673D01*
X133873321Y-121008140D01*
X133926485Y-121275413D01*
X134077883Y-121501997D01*
X134304467Y-121653395D01*
X134504278Y-121693140D01*
X134504279Y-121693140D01*
X134571740Y-121706559D01*
X134639202Y-121693140D01*
X148603578Y-121693140D01*
X148671040Y-121706559D01*
X148738501Y-121693140D01*
X148738502Y-121693140D01*
X148938313Y-121653395D01*
X149164897Y-121501997D01*
X149316295Y-121275413D01*
X149369459Y-121008140D01*
X149356040Y-120940678D01*
X149356040Y-108931593D01*
X183034677Y-108931593D01*
X183045000Y-109248284D01*
X183045000Y-109565113D01*
X183056210Y-109592176D01*
X183057164Y-109621453D01*
X183277901Y-110154359D01*
X183291293Y-110159716D01*
X183309138Y-110202799D01*
X183797201Y-110690862D01*
X183840284Y-110708707D01*
X183845641Y-110722099D01*
X184142171Y-110833753D01*
X184434887Y-110955000D01*
X184464177Y-110955000D01*
X184491593Y-110965323D01*
X184808284Y-110955000D01*
X185125113Y-110955000D01*
X185152176Y-110943790D01*
X185181453Y-110942836D01*
X185714359Y-110722099D01*
X185719716Y-110708707D01*
X185762799Y-110690862D01*
X186250862Y-110202799D01*
X186268707Y-110159716D01*
X186282099Y-110154359D01*
X186393753Y-109857829D01*
X186515000Y-109565113D01*
X186515000Y-109535823D01*
X186525323Y-109508407D01*
X186515000Y-109191716D01*
X186515000Y-108874887D01*
X186503790Y-108847824D01*
X186502836Y-108818547D01*
X186282099Y-108285641D01*
X186268707Y-108280284D01*
X186250862Y-108237201D01*
X185762799Y-107749138D01*
X185719716Y-107731293D01*
X185714359Y-107717901D01*
X185417829Y-107606247D01*
X185125113Y-107485000D01*
X185095823Y-107485000D01*
X185068407Y-107474677D01*
X184751716Y-107485000D01*
X184434887Y-107485000D01*
X184407824Y-107496210D01*
X184378547Y-107497164D01*
X183845641Y-107717901D01*
X183840284Y-107731293D01*
X183797201Y-107749138D01*
X183309138Y-108237201D01*
X183291293Y-108280284D01*
X183277901Y-108285641D01*
X183166247Y-108582171D01*
X183045000Y-108874887D01*
X183045000Y-108904177D01*
X183034677Y-108931593D01*
X149356040Y-108931593D01*
X149356040Y-107077462D01*
X149369459Y-107010000D01*
X149316295Y-106742727D01*
X149195266Y-106561593D01*
X153164677Y-106561593D01*
X153175000Y-106878284D01*
X153175000Y-107195113D01*
X153186210Y-107222176D01*
X153187164Y-107251453D01*
X153407901Y-107784359D01*
X153421293Y-107789716D01*
X153439138Y-107832799D01*
X153927201Y-108320862D01*
X153970284Y-108338707D01*
X153975641Y-108352099D01*
X154272171Y-108463753D01*
X154564887Y-108585000D01*
X154594177Y-108585000D01*
X154621593Y-108595323D01*
X154938284Y-108585000D01*
X155255113Y-108585000D01*
X155282176Y-108573790D01*
X155311453Y-108572836D01*
X155844359Y-108352099D01*
X155849716Y-108338707D01*
X155892799Y-108320862D01*
X156380862Y-107832799D01*
X156398707Y-107789716D01*
X156412099Y-107784359D01*
X156523753Y-107487829D01*
X156645000Y-107195113D01*
X156645000Y-107165823D01*
X156655323Y-107138407D01*
X156645000Y-106821716D01*
X156645000Y-106504887D01*
X156633790Y-106477824D01*
X156632836Y-106448547D01*
X156412099Y-105915641D01*
X156398707Y-105910284D01*
X156380862Y-105867201D01*
X155892799Y-105379138D01*
X155849716Y-105361293D01*
X155844359Y-105347901D01*
X155547829Y-105236247D01*
X155255113Y-105115000D01*
X155225823Y-105115000D01*
X155198407Y-105104677D01*
X154881716Y-105115000D01*
X154564887Y-105115000D01*
X154537824Y-105126210D01*
X154508547Y-105127164D01*
X153975641Y-105347901D01*
X153970284Y-105361293D01*
X153927201Y-105379138D01*
X153439138Y-105867201D01*
X153421293Y-105910284D01*
X153407901Y-105915641D01*
X153296247Y-106212171D01*
X153175000Y-106504887D01*
X153175000Y-106534177D01*
X153164677Y-106561593D01*
X149195266Y-106561593D01*
X149164897Y-106516143D01*
X148938313Y-106364745D01*
X148738502Y-106325000D01*
X148671040Y-106311581D01*
X148603579Y-106325000D01*
X134639201Y-106325000D01*
X134571740Y-106311581D01*
X134504278Y-106325000D01*
X134304467Y-106364745D01*
X134077883Y-106516143D01*
X133926485Y-106742727D01*
X133873321Y-107010000D01*
X130241138Y-107010000D01*
X130235000Y-106821716D01*
X130235000Y-106504887D01*
X130223790Y-106477824D01*
X130222836Y-106448547D01*
X130002099Y-105915641D01*
X129988707Y-105910284D01*
X129970862Y-105867201D01*
X129482799Y-105379138D01*
X129439716Y-105361293D01*
X129434359Y-105347901D01*
X129137829Y-105236247D01*
X128845113Y-105115000D01*
X128815823Y-105115000D01*
X128788407Y-105104677D01*
X128471716Y-105115000D01*
X128154887Y-105115000D01*
X128127824Y-105126210D01*
X128098547Y-105127164D01*
X127565641Y-105347901D01*
X127560284Y-105361293D01*
X127517201Y-105379138D01*
X127029138Y-105867201D01*
X127011293Y-105910284D01*
X126997901Y-105915641D01*
X126886247Y-106212171D01*
X126765000Y-106504887D01*
X126765000Y-106534177D01*
X126754677Y-106561593D01*
X111319540Y-106561593D01*
X111319540Y-92721382D01*
X111332959Y-92653920D01*
X111279795Y-92386647D01*
X111128397Y-92160063D01*
X110901813Y-92008665D01*
X110702002Y-91968920D01*
X110634540Y-91955501D01*
X110567079Y-91968920D01*
X96602701Y-91968920D01*
X96535240Y-91955501D01*
X96467778Y-91968920D01*
X96267967Y-92008665D01*
X96041383Y-92160063D01*
X95889985Y-92386647D01*
X95836821Y-92653920D01*
X75690000Y-92653920D01*
X75690000Y-76039780D01*
X76804551Y-76039780D01*
X76817970Y-76107242D01*
X76817971Y-89970453D01*
X76804551Y-90037920D01*
X76857715Y-90305193D01*
X77009113Y-90531777D01*
X77235697Y-90683175D01*
X77435508Y-90722920D01*
X77435509Y-90722920D01*
X77502970Y-90736339D01*
X77570432Y-90722920D01*
X91535058Y-90722920D01*
X91602520Y-90736339D01*
X91669981Y-90722920D01*
X91669982Y-90722920D01*
X91869793Y-90683175D01*
X92096377Y-90531777D01*
X92247775Y-90305193D01*
X92256517Y-90261240D01*
X114935081Y-90261240D01*
X114948500Y-90328702D01*
X114948501Y-104191913D01*
X114935081Y-104259380D01*
X114988245Y-104526653D01*
X115139643Y-104753237D01*
X115366227Y-104904635D01*
X115566038Y-104944380D01*
X115566039Y-104944380D01*
X115633500Y-104957799D01*
X115700962Y-104944380D01*
X129565338Y-104944380D01*
X129632800Y-104957799D01*
X129700261Y-104944380D01*
X129700262Y-104944380D01*
X129900073Y-104904635D01*
X130126657Y-104753237D01*
X130278055Y-104526653D01*
X130331219Y-104259380D01*
X130317800Y-104191918D01*
X130317800Y-90328702D01*
X130331219Y-90261240D01*
X130278055Y-89993967D01*
X130126657Y-89767383D01*
X129900073Y-89615985D01*
X129700262Y-89576240D01*
X129632800Y-89562821D01*
X129565339Y-89576240D01*
X115700961Y-89576240D01*
X115633500Y-89562821D01*
X115566038Y-89576240D01*
X115366227Y-89615985D01*
X115139643Y-89767383D01*
X114988245Y-89993967D01*
X114935081Y-90261240D01*
X92256517Y-90261240D01*
X92300939Y-90037920D01*
X92287520Y-89970458D01*
X92287520Y-76107242D01*
X92300939Y-76039780D01*
X92247775Y-75772507D01*
X92096377Y-75545923D01*
X91869793Y-75394525D01*
X91669982Y-75354780D01*
X91602520Y-75341361D01*
X91535059Y-75354780D01*
X77570431Y-75354780D01*
X77502970Y-75341361D01*
X77435508Y-75354780D01*
X77235697Y-75394525D01*
X77009113Y-75545923D01*
X76857715Y-75772507D01*
X76804551Y-76039780D01*
X75690000Y-76039780D01*
X75690000Y-71861593D01*
X92214677Y-71861593D01*
X92225000Y-72178284D01*
X92225000Y-72495113D01*
X92236210Y-72522176D01*
X92237164Y-72551453D01*
X92457901Y-73084359D01*
X92471293Y-73089716D01*
X92489138Y-73132799D01*
X92977201Y-73620862D01*
X93020284Y-73638707D01*
X93025641Y-73652099D01*
X93322171Y-73763753D01*
X93614887Y-73885000D01*
X93644177Y-73885000D01*
X93671593Y-73895323D01*
X93988284Y-73885000D01*
X94305113Y-73885000D01*
X94332176Y-73873790D01*
X94361453Y-73872836D01*
X94704068Y-73730920D01*
X95844441Y-73730920D01*
X95857860Y-73798382D01*
X95857861Y-87661593D01*
X95844441Y-87729060D01*
X95897605Y-87996333D01*
X96049003Y-88222917D01*
X96275587Y-88374315D01*
X96475398Y-88414060D01*
X96475399Y-88414060D01*
X96542860Y-88427479D01*
X96610322Y-88414060D01*
X110574698Y-88414060D01*
X110642160Y-88427479D01*
X110709621Y-88414060D01*
X110709622Y-88414060D01*
X110909433Y-88374315D01*
X111136017Y-88222917D01*
X111287415Y-87996333D01*
X111309799Y-87883800D01*
X133939361Y-87883800D01*
X133952780Y-87951262D01*
X133952781Y-101814473D01*
X133939361Y-101881940D01*
X133992525Y-102149213D01*
X134143923Y-102375797D01*
X134370507Y-102527195D01*
X134570318Y-102566940D01*
X134570319Y-102566940D01*
X134637780Y-102580359D01*
X134705242Y-102566940D01*
X148669618Y-102566940D01*
X148737080Y-102580359D01*
X148804541Y-102566940D01*
X148804542Y-102566940D01*
X149004353Y-102527195D01*
X149230937Y-102375797D01*
X149382335Y-102149213D01*
X149435499Y-101881940D01*
X149422080Y-101814478D01*
X149422080Y-90238380D01*
X152930941Y-90238380D01*
X152944360Y-90305842D01*
X152944361Y-104169053D01*
X152930941Y-104236520D01*
X152984105Y-104503793D01*
X153135503Y-104730377D01*
X153362087Y-104881775D01*
X153561898Y-104921520D01*
X153561899Y-104921520D01*
X153629360Y-104934939D01*
X153696822Y-104921520D01*
X167661198Y-104921520D01*
X167728660Y-104934939D01*
X167796121Y-104921520D01*
X167796122Y-104921520D01*
X167995933Y-104881775D01*
X168222517Y-104730377D01*
X168373915Y-104503793D01*
X168427079Y-104236520D01*
X168413660Y-104169058D01*
X168413660Y-92610740D01*
X172036821Y-92610740D01*
X172050240Y-92678202D01*
X172050241Y-106541413D01*
X172036821Y-106608880D01*
X172089985Y-106876153D01*
X172241383Y-107102737D01*
X172467967Y-107254135D01*
X172667778Y-107293880D01*
X172667779Y-107293880D01*
X172735240Y-107307299D01*
X172802702Y-107293880D01*
X186767078Y-107293880D01*
X186834540Y-107307299D01*
X186902001Y-107293880D01*
X186902002Y-107293880D01*
X187101813Y-107254135D01*
X187328397Y-107102737D01*
X187479795Y-106876153D01*
X187532959Y-106608880D01*
X187519540Y-106541418D01*
X187519540Y-92678202D01*
X187532959Y-92610740D01*
X187479795Y-92343467D01*
X187328397Y-92116883D01*
X187101813Y-91965485D01*
X186902002Y-91925740D01*
X186834540Y-91912321D01*
X186767079Y-91925740D01*
X172802701Y-91925740D01*
X172735240Y-91912321D01*
X172667778Y-91925740D01*
X172467967Y-91965485D01*
X172241383Y-92116883D01*
X172089985Y-92343467D01*
X172036821Y-92610740D01*
X168413660Y-92610740D01*
X168413660Y-90305842D01*
X168427079Y-90238380D01*
X168373915Y-89971107D01*
X168222517Y-89744523D01*
X167995933Y-89593125D01*
X167796122Y-89553380D01*
X167728660Y-89539961D01*
X167661199Y-89553380D01*
X153696821Y-89553380D01*
X153629360Y-89539961D01*
X153561898Y-89553380D01*
X153362087Y-89593125D01*
X153135503Y-89744523D01*
X152984105Y-89971107D01*
X152930941Y-90238380D01*
X149422080Y-90238380D01*
X149422080Y-87951262D01*
X149435499Y-87883800D01*
X149382335Y-87616527D01*
X149230937Y-87389943D01*
X149004353Y-87238545D01*
X148804542Y-87198800D01*
X148737080Y-87185381D01*
X148669619Y-87198800D01*
X134705241Y-87198800D01*
X134637780Y-87185381D01*
X134570318Y-87198800D01*
X134370507Y-87238545D01*
X134143923Y-87389943D01*
X133992525Y-87616527D01*
X133939361Y-87883800D01*
X111309799Y-87883800D01*
X111340579Y-87729060D01*
X111327160Y-87661598D01*
X111327160Y-73798382D01*
X111340579Y-73730920D01*
X111287415Y-73463647D01*
X111136017Y-73237063D01*
X110909433Y-73085665D01*
X110709622Y-73045920D01*
X110642160Y-73032501D01*
X110574699Y-73045920D01*
X96610321Y-73045920D01*
X96542860Y-73032501D01*
X96475398Y-73045920D01*
X96275587Y-73085665D01*
X96049003Y-73237063D01*
X95897605Y-73463647D01*
X95844441Y-73730920D01*
X94704068Y-73730920D01*
X94894359Y-73652099D01*
X94899716Y-73638707D01*
X94942799Y-73620862D01*
X95430862Y-73132799D01*
X95448707Y-73089716D01*
X95462099Y-73084359D01*
X95573753Y-72787829D01*
X95695000Y-72495113D01*
X95695000Y-72465823D01*
X95705323Y-72438407D01*
X95695000Y-72121716D01*
X95695000Y-71804887D01*
X95683790Y-71777824D01*
X95682836Y-71748547D01*
X95512882Y-71338240D01*
X114942701Y-71338240D01*
X114956120Y-71405702D01*
X114956121Y-85268913D01*
X114942701Y-85336380D01*
X114995865Y-85603653D01*
X115147263Y-85830237D01*
X115373847Y-85981635D01*
X115573658Y-86021380D01*
X115573659Y-86021380D01*
X115641120Y-86034799D01*
X115708582Y-86021380D01*
X129672958Y-86021380D01*
X129740420Y-86034799D01*
X129807881Y-86021380D01*
X129807882Y-86021380D01*
X130007693Y-85981635D01*
X130234277Y-85830237D01*
X130385675Y-85603653D01*
X130438839Y-85336380D01*
X130425420Y-85268918D01*
X130425420Y-71405702D01*
X130438839Y-71338240D01*
X130414453Y-71215641D01*
X130385675Y-71070967D01*
X130234277Y-70844383D01*
X130007693Y-70692985D01*
X129740420Y-70639821D01*
X129672959Y-70653240D01*
X115708581Y-70653240D01*
X115641120Y-70639821D01*
X115573658Y-70653240D01*
X115373847Y-70692985D01*
X115147263Y-70844383D01*
X114995865Y-71070967D01*
X114942701Y-71338240D01*
X95512882Y-71338240D01*
X95462099Y-71215641D01*
X95448707Y-71210284D01*
X95430862Y-71167201D01*
X94942799Y-70679138D01*
X94899716Y-70661293D01*
X94894359Y-70647901D01*
X94597829Y-70536247D01*
X94305113Y-70415000D01*
X94275823Y-70415000D01*
X94248407Y-70404677D01*
X93931716Y-70415000D01*
X93614887Y-70415000D01*
X93587824Y-70426210D01*
X93558547Y-70427164D01*
X93025641Y-70647901D01*
X93020284Y-70661293D01*
X92977201Y-70679138D01*
X92489138Y-71167201D01*
X92471293Y-71210284D01*
X92457901Y-71215641D01*
X92346247Y-71512171D01*
X92225000Y-71804887D01*
X92225000Y-71834177D01*
X92214677Y-71861593D01*
X75690000Y-71861593D01*
X75690000Y-56817060D01*
X76687711Y-56817060D01*
X76701130Y-56884522D01*
X76701131Y-70747733D01*
X76687711Y-70815200D01*
X76740875Y-71082473D01*
X76892273Y-71309057D01*
X77118857Y-71460455D01*
X77318668Y-71500200D01*
X77318669Y-71500200D01*
X77386130Y-71513619D01*
X77453592Y-71500200D01*
X91418218Y-71500200D01*
X91485680Y-71513619D01*
X91553141Y-71500200D01*
X91553142Y-71500200D01*
X91752953Y-71460455D01*
X91979537Y-71309057D01*
X92130935Y-71082473D01*
X92184099Y-70815200D01*
X92170680Y-70747738D01*
X92170680Y-56884522D01*
X92184099Y-56817060D01*
X92130935Y-56549787D01*
X91979537Y-56323203D01*
X91752953Y-56171805D01*
X91553142Y-56132060D01*
X91485680Y-56118641D01*
X91418219Y-56132060D01*
X77453591Y-56132060D01*
X77386130Y-56118641D01*
X77318668Y-56132060D01*
X77118857Y-56171805D01*
X76892273Y-56323203D01*
X76740875Y-56549787D01*
X76687711Y-56817060D01*
X75690000Y-56817060D01*
X75690000Y-54508200D01*
X95727601Y-54508200D01*
X95741020Y-54575662D01*
X95741021Y-68438873D01*
X95727601Y-68506340D01*
X95780765Y-68773613D01*
X95932163Y-69000197D01*
X96158747Y-69151595D01*
X96358558Y-69191340D01*
X96358559Y-69191340D01*
X96426020Y-69204759D01*
X96493482Y-69191340D01*
X110457858Y-69191340D01*
X110525320Y-69204759D01*
X110592781Y-69191340D01*
X110592782Y-69191340D01*
X110792593Y-69151595D01*
X111019177Y-69000197D01*
X111170575Y-68773613D01*
X111223739Y-68506340D01*
X111214839Y-68461593D01*
X126754677Y-68461593D01*
X126765000Y-68778284D01*
X126765000Y-69095113D01*
X126776210Y-69122176D01*
X126777164Y-69151453D01*
X126997901Y-69684359D01*
X127011293Y-69689716D01*
X127029138Y-69732799D01*
X127517201Y-70220862D01*
X127560284Y-70238707D01*
X127565641Y-70252099D01*
X127862171Y-70363753D01*
X128154887Y-70485000D01*
X128184177Y-70485000D01*
X128211593Y-70495323D01*
X128528284Y-70485000D01*
X128845113Y-70485000D01*
X128872176Y-70473790D01*
X128901453Y-70472836D01*
X129434359Y-70252099D01*
X129439716Y-70238707D01*
X129482799Y-70220862D01*
X129970862Y-69732799D01*
X129988707Y-69689716D01*
X130002099Y-69684359D01*
X130113753Y-69387829D01*
X130235000Y-69095113D01*
X130235000Y-69065823D01*
X130245323Y-69038407D01*
X130242794Y-68960800D01*
X133946981Y-68960800D01*
X133960400Y-69028262D01*
X133960401Y-82891473D01*
X133946981Y-82958940D01*
X134000145Y-83226213D01*
X134151543Y-83452797D01*
X134378127Y-83604195D01*
X134577938Y-83643940D01*
X134577939Y-83643940D01*
X134645400Y-83657359D01*
X134712862Y-83643940D01*
X148677238Y-83643940D01*
X148744700Y-83657359D01*
X148812161Y-83643940D01*
X148812162Y-83643940D01*
X149011973Y-83604195D01*
X149238557Y-83452797D01*
X149389955Y-83226213D01*
X149443119Y-82958940D01*
X149429700Y-82891478D01*
X149429700Y-71315380D01*
X152938561Y-71315380D01*
X152951980Y-71382842D01*
X152951981Y-85246053D01*
X152938561Y-85313520D01*
X152991725Y-85580793D01*
X153143123Y-85807377D01*
X153369707Y-85958775D01*
X153569518Y-85998520D01*
X153569519Y-85998520D01*
X153636980Y-86011939D01*
X153704442Y-85998520D01*
X167668818Y-85998520D01*
X167736280Y-86011939D01*
X167803741Y-85998520D01*
X167803742Y-85998520D01*
X168003553Y-85958775D01*
X168230137Y-85807377D01*
X168381535Y-85580793D01*
X168434699Y-85313520D01*
X168421280Y-85246058D01*
X168421280Y-73687740D01*
X172044441Y-73687740D01*
X172057860Y-73755202D01*
X172057861Y-87618413D01*
X172044441Y-87685880D01*
X172097605Y-87953153D01*
X172249003Y-88179737D01*
X172475587Y-88331135D01*
X172675398Y-88370880D01*
X172675399Y-88370880D01*
X172742860Y-88384299D01*
X172810322Y-88370880D01*
X186774698Y-88370880D01*
X186842160Y-88384299D01*
X186909621Y-88370880D01*
X186909622Y-88370880D01*
X187109433Y-88331135D01*
X187336017Y-88179737D01*
X187487415Y-87953153D01*
X187540579Y-87685880D01*
X187527160Y-87618418D01*
X187527160Y-78376580D01*
X191053801Y-78376580D01*
X191067220Y-78444042D01*
X191067221Y-92307253D01*
X191053801Y-92374720D01*
X191106965Y-92641993D01*
X191258363Y-92868577D01*
X191484947Y-93019975D01*
X191684758Y-93059720D01*
X191684759Y-93059720D01*
X191752220Y-93073139D01*
X191819682Y-93059720D01*
X205784058Y-93059720D01*
X205851520Y-93073139D01*
X205918981Y-93059720D01*
X205918982Y-93059720D01*
X206118793Y-93019975D01*
X206345377Y-92868577D01*
X206496775Y-92641993D01*
X206549939Y-92374720D01*
X206536520Y-92307258D01*
X206536520Y-78444042D01*
X206549939Y-78376580D01*
X206496775Y-78109307D01*
X206345377Y-77882723D01*
X206118793Y-77731325D01*
X205918982Y-77691580D01*
X205851520Y-77678161D01*
X205784059Y-77691580D01*
X191819681Y-77691580D01*
X191752220Y-77678161D01*
X191684758Y-77691580D01*
X191484947Y-77731325D01*
X191258363Y-77882723D01*
X191106965Y-78109307D01*
X191053801Y-78376580D01*
X187527160Y-78376580D01*
X187527160Y-73755202D01*
X187540579Y-73687740D01*
X187487415Y-73420467D01*
X187336017Y-73193883D01*
X187109433Y-73042485D01*
X186909622Y-73002740D01*
X186842160Y-72989321D01*
X186774699Y-73002740D01*
X172810321Y-73002740D01*
X172742860Y-72989321D01*
X172675398Y-73002740D01*
X172475587Y-73042485D01*
X172249003Y-73193883D01*
X172097605Y-73420467D01*
X172044441Y-73687740D01*
X168421280Y-73687740D01*
X168421280Y-71861593D01*
X187504677Y-71861593D01*
X187515000Y-72178284D01*
X187515000Y-72495113D01*
X187526210Y-72522176D01*
X187527164Y-72551453D01*
X187747901Y-73084359D01*
X187761293Y-73089716D01*
X187779138Y-73132799D01*
X188267201Y-73620862D01*
X188310284Y-73638707D01*
X188315641Y-73652099D01*
X188612171Y-73763753D01*
X188904887Y-73885000D01*
X188934177Y-73885000D01*
X188961593Y-73895323D01*
X189278284Y-73885000D01*
X189595113Y-73885000D01*
X189622176Y-73873790D01*
X189651453Y-73872836D01*
X190184359Y-73652099D01*
X190189716Y-73638707D01*
X190232799Y-73620862D01*
X190720862Y-73132799D01*
X190738707Y-73089716D01*
X190752099Y-73084359D01*
X190863753Y-72787829D01*
X190950381Y-72578691D01*
X190950381Y-73084533D01*
X190936961Y-73152000D01*
X190990125Y-73419273D01*
X191141523Y-73645857D01*
X191368107Y-73797255D01*
X191567918Y-73837000D01*
X191567919Y-73837000D01*
X191635380Y-73850419D01*
X191702842Y-73837000D01*
X205667218Y-73837000D01*
X205734680Y-73850419D01*
X205802141Y-73837000D01*
X205802142Y-73837000D01*
X206001953Y-73797255D01*
X206228537Y-73645857D01*
X206379935Y-73419273D01*
X206433099Y-73152000D01*
X206419680Y-73084538D01*
X206419680Y-59221322D01*
X206433099Y-59153860D01*
X206379935Y-58886587D01*
X206228537Y-58660003D01*
X206001953Y-58508605D01*
X205802142Y-58468860D01*
X205734680Y-58455441D01*
X205667219Y-58468860D01*
X191702841Y-58468860D01*
X191635380Y-58455441D01*
X191567918Y-58468860D01*
X191368107Y-58508605D01*
X191141523Y-58660003D01*
X190990125Y-58886587D01*
X190936961Y-59153860D01*
X190950380Y-59221322D01*
X190950381Y-71694336D01*
X190752099Y-71215641D01*
X190738707Y-71210284D01*
X190720862Y-71167201D01*
X190232799Y-70679138D01*
X190189716Y-70661293D01*
X190184359Y-70647901D01*
X189887829Y-70536247D01*
X189595113Y-70415000D01*
X189565823Y-70415000D01*
X189538407Y-70404677D01*
X189221716Y-70415000D01*
X188904887Y-70415000D01*
X188877824Y-70426210D01*
X188848547Y-70427164D01*
X188315641Y-70647901D01*
X188310284Y-70661293D01*
X188267201Y-70679138D01*
X187779138Y-71167201D01*
X187761293Y-71210284D01*
X187747901Y-71215641D01*
X187636247Y-71512171D01*
X187515000Y-71804887D01*
X187515000Y-71834177D01*
X187504677Y-71861593D01*
X168421280Y-71861593D01*
X168421280Y-71382842D01*
X168434699Y-71315380D01*
X168381535Y-71048107D01*
X168230137Y-70821523D01*
X168003553Y-70670125D01*
X167803742Y-70630380D01*
X167736280Y-70616961D01*
X167668819Y-70630380D01*
X153704441Y-70630380D01*
X153636980Y-70616961D01*
X153569518Y-70630380D01*
X153369707Y-70670125D01*
X153143123Y-70821523D01*
X152991725Y-71048107D01*
X152938561Y-71315380D01*
X149429700Y-71315380D01*
X149429700Y-69028262D01*
X149443119Y-68960800D01*
X149389955Y-68693527D01*
X149238557Y-68466943D01*
X149230551Y-68461593D01*
X153164677Y-68461593D01*
X153175000Y-68778284D01*
X153175000Y-69095113D01*
X153186210Y-69122176D01*
X153187164Y-69151453D01*
X153407901Y-69684359D01*
X153421293Y-69689716D01*
X153439138Y-69732799D01*
X153927201Y-70220862D01*
X153970284Y-70238707D01*
X153975641Y-70252099D01*
X154272171Y-70363753D01*
X154564887Y-70485000D01*
X154594177Y-70485000D01*
X154621593Y-70495323D01*
X154938284Y-70485000D01*
X155255113Y-70485000D01*
X155282176Y-70473790D01*
X155311453Y-70472836D01*
X155844359Y-70252099D01*
X155849716Y-70238707D01*
X155892799Y-70220862D01*
X156380862Y-69732799D01*
X156398707Y-69689716D01*
X156412099Y-69684359D01*
X156523753Y-69387829D01*
X156645000Y-69095113D01*
X156645000Y-69065823D01*
X156655323Y-69038407D01*
X156645000Y-68721716D01*
X156645000Y-68404887D01*
X156633790Y-68377824D01*
X156632836Y-68348547D01*
X156412099Y-67815641D01*
X156398707Y-67810284D01*
X156380862Y-67767201D01*
X155892799Y-67279138D01*
X155849716Y-67261293D01*
X155844359Y-67247901D01*
X155547829Y-67136247D01*
X155255113Y-67015000D01*
X155225823Y-67015000D01*
X155198407Y-67004677D01*
X154881716Y-67015000D01*
X154564887Y-67015000D01*
X154537824Y-67026210D01*
X154508547Y-67027164D01*
X153975641Y-67247901D01*
X153970284Y-67261293D01*
X153927201Y-67279138D01*
X153439138Y-67767201D01*
X153421293Y-67810284D01*
X153407901Y-67815641D01*
X153296247Y-68112171D01*
X153175000Y-68404887D01*
X153175000Y-68434177D01*
X153164677Y-68461593D01*
X149230551Y-68461593D01*
X149011973Y-68315545D01*
X148812162Y-68275800D01*
X148744700Y-68262381D01*
X148677239Y-68275800D01*
X134712861Y-68275800D01*
X134645400Y-68262381D01*
X134577938Y-68275800D01*
X134378127Y-68315545D01*
X134151543Y-68466943D01*
X134000145Y-68693527D01*
X133946981Y-68960800D01*
X130242794Y-68960800D01*
X130235000Y-68721716D01*
X130235000Y-68404887D01*
X130223790Y-68377824D01*
X130222836Y-68348547D01*
X130002099Y-67815641D01*
X129988707Y-67810284D01*
X129970862Y-67767201D01*
X129482799Y-67279138D01*
X129439716Y-67261293D01*
X129434359Y-67247901D01*
X129137829Y-67136247D01*
X128845113Y-67015000D01*
X128815823Y-67015000D01*
X128788407Y-67004677D01*
X128471716Y-67015000D01*
X128154887Y-67015000D01*
X128127824Y-67026210D01*
X128098547Y-67027164D01*
X127565641Y-67247901D01*
X127560284Y-67261293D01*
X127517201Y-67279138D01*
X127029138Y-67767201D01*
X127011293Y-67810284D01*
X126997901Y-67815641D01*
X126886247Y-68112171D01*
X126765000Y-68404887D01*
X126765000Y-68434177D01*
X126754677Y-68461593D01*
X111214839Y-68461593D01*
X111210320Y-68438878D01*
X111210320Y-54575662D01*
X111223739Y-54508200D01*
X111170575Y-54240927D01*
X111019177Y-54014343D01*
X110792593Y-53862945D01*
X110592782Y-53823200D01*
X110525320Y-53809781D01*
X110457859Y-53823200D01*
X96493481Y-53823200D01*
X96426020Y-53809781D01*
X96358558Y-53823200D01*
X96158747Y-53862945D01*
X95932163Y-54014343D01*
X95780765Y-54240927D01*
X95727601Y-54508200D01*
X75690000Y-54508200D01*
X75690000Y-54051171D01*
X75867092Y-53952208D01*
X86720189Y-52115520D01*
X114825861Y-52115520D01*
X114839280Y-52182982D01*
X114839281Y-66046193D01*
X114825861Y-66113660D01*
X114879025Y-66380933D01*
X115030423Y-66607517D01*
X115257007Y-66758915D01*
X115456818Y-66798660D01*
X115456819Y-66798660D01*
X115524280Y-66812079D01*
X115591742Y-66798660D01*
X129556118Y-66798660D01*
X129623580Y-66812079D01*
X129691041Y-66798660D01*
X129691042Y-66798660D01*
X129890853Y-66758915D01*
X130117437Y-66607517D01*
X130268835Y-66380933D01*
X130321999Y-66113660D01*
X130308580Y-66046198D01*
X130308580Y-52182982D01*
X130321999Y-52115520D01*
X130268835Y-51848247D01*
X130117437Y-51621663D01*
X129890853Y-51470265D01*
X129691042Y-51430520D01*
X129623580Y-51417101D01*
X129556119Y-51430520D01*
X115591741Y-51430520D01*
X115524280Y-51417101D01*
X115456818Y-51430520D01*
X115257007Y-51470265D01*
X115030423Y-51621663D01*
X114879025Y-51848247D01*
X114825861Y-52115520D01*
X86720189Y-52115520D01*
X100768622Y-49738080D01*
X133830141Y-49738080D01*
X133843560Y-49805542D01*
X133843561Y-63668753D01*
X133830141Y-63736220D01*
X133883305Y-64003493D01*
X134034703Y-64230077D01*
X134261287Y-64381475D01*
X134461098Y-64421220D01*
X134461099Y-64421220D01*
X134528560Y-64434639D01*
X134596022Y-64421220D01*
X148560398Y-64421220D01*
X148627860Y-64434639D01*
X148695321Y-64421220D01*
X148695322Y-64421220D01*
X148895133Y-64381475D01*
X149121717Y-64230077D01*
X149273115Y-64003493D01*
X149326279Y-63736220D01*
X149312860Y-63668758D01*
X149312860Y-52092660D01*
X152821721Y-52092660D01*
X152835140Y-52160122D01*
X152835141Y-66023333D01*
X152821721Y-66090800D01*
X152874885Y-66358073D01*
X153026283Y-66584657D01*
X153252867Y-66736055D01*
X153452678Y-66775800D01*
X153452679Y-66775800D01*
X153520140Y-66789219D01*
X153587602Y-66775800D01*
X167551978Y-66775800D01*
X167619440Y-66789219D01*
X167686901Y-66775800D01*
X167686902Y-66775800D01*
X167886713Y-66736055D01*
X168113297Y-66584657D01*
X168264695Y-66358073D01*
X168317859Y-66090800D01*
X168304440Y-66023338D01*
X168304440Y-54465020D01*
X171927601Y-54465020D01*
X171941020Y-54532482D01*
X171941021Y-68395693D01*
X171927601Y-68463160D01*
X171980765Y-68730433D01*
X172132163Y-68957017D01*
X172358747Y-69108415D01*
X172558558Y-69148160D01*
X172558559Y-69148160D01*
X172626020Y-69161579D01*
X172693482Y-69148160D01*
X186657858Y-69148160D01*
X186725320Y-69161579D01*
X186792781Y-69148160D01*
X186792782Y-69148160D01*
X186992593Y-69108415D01*
X187219177Y-68957017D01*
X187370575Y-68730433D01*
X187423739Y-68463160D01*
X187410320Y-68395698D01*
X187410320Y-54532482D01*
X187423739Y-54465020D01*
X187402248Y-54356975D01*
X187370575Y-54197747D01*
X187219177Y-53971163D01*
X186992593Y-53819765D01*
X186725320Y-53766601D01*
X186657859Y-53780020D01*
X172693481Y-53780020D01*
X172626020Y-53766601D01*
X172558558Y-53780020D01*
X172358747Y-53819765D01*
X172132163Y-53971163D01*
X171980765Y-54197747D01*
X171927601Y-54465020D01*
X168304440Y-54465020D01*
X168304440Y-52160122D01*
X168317859Y-52092660D01*
X168264695Y-51825387D01*
X168113297Y-51598803D01*
X167886713Y-51447405D01*
X167686902Y-51407660D01*
X167619440Y-51394241D01*
X167551979Y-51407660D01*
X153587601Y-51407660D01*
X153520140Y-51394241D01*
X153452678Y-51407660D01*
X153252867Y-51447405D01*
X153026283Y-51598803D01*
X152874885Y-51825387D01*
X152821721Y-52092660D01*
X149312860Y-52092660D01*
X149312860Y-49805542D01*
X149326279Y-49738080D01*
X149273115Y-49470807D01*
X149121717Y-49244223D01*
X148895133Y-49092825D01*
X148695322Y-49053080D01*
X148627860Y-49039661D01*
X148560399Y-49053080D01*
X134596021Y-49053080D01*
X134528560Y-49039661D01*
X134461098Y-49053080D01*
X134261287Y-49092825D01*
X134034703Y-49244223D01*
X133883305Y-49470807D01*
X133830141Y-49738080D01*
X100768622Y-49738080D01*
X116268558Y-47115000D01*
X205038117Y-47115000D01*
X205927138Y-47271641D01*
X205927138Y-47271641D01*
G37*
X205927138Y-47271641D02*
X206649878Y-47688923D01*
X207200351Y-48345037D01*
X207520001Y-49106108D01*
X207520000Y-95317461D01*
X207520001Y-95317466D01*
X207520000Y-102859355D01*
X207519030Y-102890432D01*
X207512339Y-102943510D01*
X207525098Y-102990101D01*
X207524188Y-103008796D01*
X207541942Y-103058344D01*
X207542411Y-103061157D01*
X207544210Y-103065914D01*
X207547118Y-103081910D01*
X207548812Y-103086198D01*
X207563745Y-103161272D01*
X207574602Y-103177520D01*
X207575746Y-103183273D01*
X207589728Y-103204199D01*
X207594554Y-103222703D01*
X207611666Y-103245315D01*
X207621965Y-103271388D01*
X207656251Y-103306824D01*
X207669940Y-103337510D01*
X207701459Y-103367376D01*
X207715143Y-103387856D01*
X207729129Y-103397201D01*
X207757395Y-103433622D01*
X207774612Y-103443437D01*
X207805210Y-103477165D01*
X207852653Y-103499578D01*
X207867125Y-103508693D01*
X207972727Y-103579254D01*
X207982099Y-103581118D01*
X211639479Y-105884983D01*
X211881772Y-106163478D01*
X212053236Y-106427270D01*
X212104740Y-106633286D01*
X212096708Y-106699554D01*
X193656711Y-138225361D01*
X193287516Y-138371501D01*
X192923522Y-138381279D01*
X178919492Y-130212426D01*
X178907254Y-130197998D01*
X178815468Y-130150836D01*
X178797839Y-130135029D01*
X178770051Y-130125254D01*
X178759873Y-130119317D01*
X178756078Y-130118010D01*
X178715273Y-130090745D01*
X178635474Y-130074872D01*
X178563796Y-130049188D01*
X178517644Y-130051434D01*
X178515462Y-130051000D01*
X178507489Y-130051000D01*
X178502462Y-130050000D01*
X178483674Y-130050000D01*
X178465089Y-130047345D01*
X178462932Y-130047463D01*
X178398491Y-130039339D01*
X178379398Y-130044568D01*
X178374276Y-130044147D01*
X178356051Y-130050000D01*
X78171509Y-130050000D01*
X77282958Y-129893368D01*
X76560285Y-129476203D01*
X76023692Y-128836294D01*
X75726623Y-128020401D01*
X75690000Y-127602078D01*
X75690000Y-114088980D01*
X76730891Y-114088980D01*
X76744310Y-114156442D01*
X76744311Y-128019653D01*
X76730891Y-128087120D01*
X76784055Y-128354393D01*
X76935453Y-128580977D01*
X77162037Y-128732375D01*
X77361848Y-128772120D01*
X77361849Y-128772120D01*
X77429310Y-128785539D01*
X77496772Y-128772120D01*
X91461398Y-128772120D01*
X91528860Y-128785539D01*
X91596321Y-128772120D01*
X91596322Y-128772120D01*
X91796133Y-128732375D01*
X91884322Y-128673449D01*
X180195358Y-128673449D01*
X180201824Y-128772120D01*
X180213172Y-128945357D01*
X180213176Y-128945366D01*
X180213177Y-128945375D01*
X180275633Y-129072028D01*
X180333691Y-129189768D01*
X180333697Y-129189774D01*
X180333702Y-129189783D01*
X180452504Y-129293972D01*
X180486855Y-129324100D01*
X180486860Y-129324103D01*
X180538583Y-129369464D01*
X180603710Y-129391573D01*
X192610880Y-136324545D01*
X192662612Y-136369910D01*
X192781400Y-136410228D01*
X192920610Y-136457490D01*
X192920639Y-136457488D01*
X192920662Y-136457496D01*
X193047718Y-136449164D01*
X193192537Y-136439678D01*
X193192562Y-136439666D01*
X193192587Y-136439664D01*
X193311253Y-136381139D01*
X193436948Y-136319159D01*
X193436965Y-136319139D01*
X193436990Y-136319127D01*
X193530532Y-136212456D01*
X193616634Y-136114283D01*
X193638754Y-136049128D01*
X200571314Y-124040618D01*
X200616663Y-123988903D01*
X200638768Y-123923775D01*
X200704246Y-123730859D01*
X200704246Y-123730856D01*
X200704247Y-123730852D01*
X200691729Y-123539978D01*
X200686415Y-123458933D01*
X200686413Y-123458929D01*
X200686413Y-123458926D01*
X200627793Y-123340070D01*
X200565878Y-123214530D01*
X200565875Y-123214528D01*
X200565874Y-123214525D01*
X200412699Y-123080206D01*
X200360988Y-123034860D01*
X200295854Y-123012752D01*
X188288717Y-116081117D01*
X188237017Y-116035776D01*
X188171864Y-116013659D01*
X188171849Y-116013650D01*
X188112734Y-115993586D01*
X187978971Y-115948178D01*
X187978951Y-115948179D01*
X187978932Y-115948173D01*
X187843148Y-115957078D01*
X187707044Y-115965997D01*
X187707026Y-115966006D01*
X187707007Y-115966007D01*
X187591530Y-116022960D01*
X187462636Y-116086522D01*
X187462622Y-116086538D01*
X187462606Y-116086546D01*
X187382015Y-116178451D01*
X187328308Y-116239690D01*
X187328297Y-116239710D01*
X187282937Y-116291437D01*
X187260838Y-116356548D01*
X180328313Y-128363682D01*
X180282966Y-128415387D01*
X180260851Y-128480528D01*
X180260846Y-128480536D01*
X180240155Y-128541488D01*
X180195360Y-128673431D01*
X180195361Y-128673441D01*
X180195358Y-128673449D01*
X91884322Y-128673449D01*
X92022717Y-128580977D01*
X92174115Y-128354393D01*
X92227279Y-128087120D01*
X92213860Y-128019658D01*
X92213860Y-114156442D01*
X92227279Y-114088980D01*
X92174115Y-113821707D01*
X92022717Y-113595123D01*
X91796133Y-113443725D01*
X91596322Y-113403980D01*
X91528860Y-113390561D01*
X91461399Y-113403980D01*
X77496771Y-113403980D01*
X77429310Y-113390561D01*
X77361848Y-113403980D01*
X77162037Y-113443725D01*
X76935453Y-113595123D01*
X76784055Y-113821707D01*
X76730891Y-114088980D01*
X75690000Y-114088980D01*
X75690000Y-110061593D01*
X92214677Y-110061593D01*
X92225000Y-110378284D01*
X92225000Y-110695113D01*
X92236210Y-110722176D01*
X92237164Y-110751453D01*
X92457901Y-111284359D01*
X92471293Y-111289716D01*
X92489138Y-111332799D01*
X92977201Y-111820862D01*
X93020284Y-111838707D01*
X93025641Y-111852099D01*
X93322171Y-111963753D01*
X93614887Y-112085000D01*
X93644177Y-112085000D01*
X93671593Y-112095323D01*
X93988284Y-112085000D01*
X94305113Y-112085000D01*
X94332176Y-112073790D01*
X94361453Y-112072836D01*
X94894359Y-111852099D01*
X94899716Y-111838707D01*
X94942799Y-111820862D01*
X94983541Y-111780120D01*
X95770781Y-111780120D01*
X95784200Y-111847582D01*
X95784201Y-125710793D01*
X95770781Y-125778260D01*
X95823945Y-126045533D01*
X95975343Y-126272117D01*
X96201927Y-126423515D01*
X96401738Y-126463260D01*
X96401739Y-126463260D01*
X96469200Y-126476679D01*
X96536662Y-126463260D01*
X110501038Y-126463260D01*
X110568500Y-126476679D01*
X110635961Y-126463260D01*
X110635962Y-126463260D01*
X110835773Y-126423515D01*
X111062357Y-126272117D01*
X111213755Y-126045533D01*
X111231982Y-125953899D01*
X111253500Y-125845722D01*
X111253500Y-125845721D01*
X111266919Y-125778260D01*
X111253500Y-125710798D01*
X111253500Y-111847582D01*
X111266919Y-111780120D01*
X111213755Y-111512847D01*
X111062357Y-111286263D01*
X110835773Y-111134865D01*
X110635962Y-111095120D01*
X110568500Y-111081701D01*
X110501039Y-111095120D01*
X96536661Y-111095120D01*
X96469200Y-111081701D01*
X96401738Y-111095120D01*
X96201927Y-111134865D01*
X95975343Y-111286263D01*
X95823945Y-111512847D01*
X95770781Y-111780120D01*
X94983541Y-111780120D01*
X95430862Y-111332799D01*
X95448707Y-111289716D01*
X95462099Y-111284359D01*
X95573753Y-110987829D01*
X95695000Y-110695113D01*
X95695000Y-110665823D01*
X95705323Y-110638407D01*
X95695000Y-110321716D01*
X95695000Y-110004887D01*
X95683790Y-109977824D01*
X95682836Y-109948547D01*
X95462099Y-109415641D01*
X95448707Y-109410284D01*
X95439246Y-109387440D01*
X114869041Y-109387440D01*
X114882460Y-109454902D01*
X114882461Y-123318113D01*
X114869041Y-123385580D01*
X114922205Y-123652853D01*
X115073603Y-123879437D01*
X115300187Y-124030835D01*
X115499998Y-124070580D01*
X115499999Y-124070580D01*
X115567460Y-124083999D01*
X115634922Y-124070580D01*
X129599298Y-124070580D01*
X129666760Y-124083999D01*
X129734221Y-124070580D01*
X129734222Y-124070580D01*
X129934033Y-124030835D01*
X129993934Y-123990810D01*
X158460572Y-123990810D01*
X158462073Y-124059579D01*
X158462072Y-124059582D01*
X158462605Y-124083999D01*
X158466517Y-124263254D01*
X158466518Y-124263256D01*
X158466518Y-124263258D01*
X158481573Y-124297472D01*
X158576268Y-124512685D01*
X158576270Y-124512687D01*
X158576271Y-124512689D01*
X158651365Y-124584575D01*
X158773120Y-124701130D01*
X158773123Y-124701131D01*
X158773124Y-124701132D01*
X158854783Y-124732887D01*
X158962993Y-124774968D01*
X158962996Y-124774968D01*
X159027105Y-124799899D01*
X159095870Y-124798398D01*
X172748859Y-127205812D01*
X172812937Y-127230737D01*
X172881739Y-127229242D01*
X172881767Y-127229247D01*
X172944510Y-127227878D01*
X173085381Y-127224817D01*
X173085411Y-127224804D01*
X173085444Y-127224803D01*
X173208313Y-127170740D01*
X173334823Y-127115089D01*
X173334846Y-127115065D01*
X173334875Y-127115052D01*
X173426106Y-127019751D01*
X173523285Y-126918255D01*
X173523297Y-126918224D01*
X173523320Y-126918200D01*
X173572738Y-126791124D01*
X173597141Y-126728388D01*
X173597147Y-126728356D01*
X173622088Y-126664220D01*
X173620588Y-126595486D01*
X176029547Y-112941090D01*
X176054489Y-112876950D01*
X176051493Y-112739729D01*
X176048557Y-112604580D01*
X176048542Y-112604546D01*
X176048541Y-112604506D01*
X175992260Y-112476601D01*
X175938829Y-112355138D01*
X175938802Y-112355112D01*
X175938786Y-112355076D01*
X175836662Y-112257316D01*
X175752767Y-112176988D01*
X189720353Y-112176988D01*
X189738187Y-112448913D01*
X189798022Y-112570233D01*
X189858725Y-112693313D01*
X190063616Y-112872982D01*
X190128750Y-112895089D01*
X202135903Y-119826735D01*
X202187614Y-119872081D01*
X202252746Y-119894188D01*
X202252750Y-119894190D01*
X202341902Y-119924449D01*
X202445664Y-119959667D01*
X202445667Y-119959667D01*
X202502921Y-119955912D01*
X202717589Y-119941834D01*
X202717591Y-119941833D01*
X202717593Y-119941833D01*
X202876815Y-119863305D01*
X202961991Y-119821296D01*
X202961992Y-119821295D01*
X202961994Y-119821294D01*
X203141663Y-119616403D01*
X203163769Y-119551271D01*
X210096312Y-107542722D01*
X210141661Y-107491007D01*
X210229247Y-107232956D01*
X210211414Y-106961030D01*
X210090877Y-106716628D01*
X209937703Y-106582308D01*
X209937696Y-106582304D01*
X209885986Y-106536959D01*
X209820860Y-106514855D01*
X197813700Y-99583108D01*
X197761984Y-99537758D01*
X197681183Y-99510333D01*
X197503936Y-99450173D01*
X197503933Y-99450173D01*
X197450434Y-99453682D01*
X197232011Y-99468006D01*
X197232009Y-99468007D01*
X197232008Y-99468007D01*
X197114799Y-99525814D01*
X196987609Y-99588543D01*
X196987608Y-99588544D01*
X196987606Y-99588545D01*
X196884411Y-99706226D01*
X196807939Y-99793433D01*
X196785832Y-99858567D01*
X189853286Y-111867222D01*
X189807937Y-111918937D01*
X189785831Y-111984068D01*
X189785830Y-111984070D01*
X189723867Y-112166634D01*
X189720353Y-112176988D01*
X175752767Y-112176988D01*
X175741995Y-112166675D01*
X175741961Y-112166662D01*
X175741932Y-112166634D01*
X175607542Y-112114375D01*
X175488023Y-112067884D01*
X175419224Y-112069379D01*
X161764762Y-109661901D01*
X161700655Y-109636971D01*
X161428211Y-109642917D01*
X161178780Y-109752671D01*
X160990337Y-109949523D01*
X160916500Y-110139397D01*
X160916498Y-110139407D01*
X160891571Y-110203510D01*
X160893072Y-110272267D01*
X158485501Y-123926706D01*
X158460572Y-123990810D01*
X129993934Y-123990810D01*
X130160617Y-123879437D01*
X130312015Y-123652853D01*
X130365179Y-123385580D01*
X130351760Y-123318118D01*
X130351760Y-109454902D01*
X130365179Y-109387440D01*
X130312015Y-109120167D01*
X130160617Y-108893583D01*
X129934033Y-108742185D01*
X129734222Y-108702440D01*
X129666760Y-108689021D01*
X129599299Y-108702440D01*
X115634921Y-108702440D01*
X115567460Y-108689021D01*
X115499998Y-108702440D01*
X115300187Y-108742185D01*
X115073603Y-108893583D01*
X114922205Y-109120167D01*
X114869041Y-109387440D01*
X95439246Y-109387440D01*
X95430862Y-109367201D01*
X94942799Y-108879138D01*
X94899716Y-108861293D01*
X94894359Y-108847901D01*
X94597829Y-108736247D01*
X94305113Y-108615000D01*
X94275823Y-108615000D01*
X94248407Y-108604677D01*
X93931716Y-108615000D01*
X93614887Y-108615000D01*
X93587824Y-108626210D01*
X93558547Y-108627164D01*
X93025641Y-108847901D01*
X93020284Y-108861293D01*
X92977201Y-108879138D01*
X92489138Y-109367201D01*
X92471293Y-109410284D01*
X92457901Y-109415641D01*
X92346247Y-109712171D01*
X92225000Y-110004887D01*
X92225000Y-110034177D01*
X92214677Y-110061593D01*
X75690000Y-110061593D01*
X75690000Y-94962780D01*
X76796931Y-94962780D01*
X76810350Y-95030242D01*
X76810351Y-108893453D01*
X76796931Y-108960920D01*
X76850095Y-109228193D01*
X77001493Y-109454777D01*
X77228077Y-109606175D01*
X77427888Y-109645920D01*
X77427889Y-109645920D01*
X77495350Y-109659339D01*
X77562812Y-109645920D01*
X91527438Y-109645920D01*
X91594900Y-109659339D01*
X91662361Y-109645920D01*
X91662362Y-109645920D01*
X91862173Y-109606175D01*
X92088757Y-109454777D01*
X92240155Y-109228193D01*
X92293319Y-108960920D01*
X92279900Y-108893458D01*
X92279900Y-95030242D01*
X92293319Y-94962780D01*
X92240155Y-94695507D01*
X92088757Y-94468923D01*
X91862173Y-94317525D01*
X91662362Y-94277780D01*
X91594900Y-94264361D01*
X91527439Y-94277780D01*
X77562811Y-94277780D01*
X77495350Y-94264361D01*
X77427888Y-94277780D01*
X77228077Y-94317525D01*
X77001493Y-94468923D01*
X76850095Y-94695507D01*
X76796931Y-94962780D01*
X75690000Y-94962780D01*
X75690000Y-92653920D01*
X95836821Y-92653920D01*
X95850240Y-92721382D01*
X95850241Y-106584593D01*
X95836821Y-106652060D01*
X95889985Y-106919333D01*
X96041383Y-107145917D01*
X96267967Y-107297315D01*
X96467778Y-107337060D01*
X96467779Y-107337060D01*
X96535240Y-107350479D01*
X96602702Y-107337060D01*
X110567078Y-107337060D01*
X110634540Y-107350479D01*
X110702001Y-107337060D01*
X110702002Y-107337060D01*
X110901813Y-107297315D01*
X111128397Y-107145917D01*
X111279795Y-106919333D01*
X111332959Y-106652060D01*
X111319540Y-106584598D01*
X111319540Y-106561593D01*
X126754677Y-106561593D01*
X126765000Y-106878284D01*
X126765000Y-107195113D01*
X126776210Y-107222176D01*
X126777164Y-107251453D01*
X126997901Y-107784359D01*
X127011293Y-107789716D01*
X127029138Y-107832799D01*
X127517201Y-108320862D01*
X127560284Y-108338707D01*
X127565641Y-108352099D01*
X127862171Y-108463753D01*
X128154887Y-108585000D01*
X128184177Y-108585000D01*
X128211593Y-108595323D01*
X128528284Y-108585000D01*
X128845113Y-108585000D01*
X128872176Y-108573790D01*
X128901453Y-108572836D01*
X129434359Y-108352099D01*
X129439716Y-108338707D01*
X129482799Y-108320862D01*
X129970862Y-107832799D01*
X129988707Y-107789716D01*
X130002099Y-107784359D01*
X130113753Y-107487829D01*
X130235000Y-107195113D01*
X130235000Y-107165823D01*
X130245323Y-107138407D01*
X130241138Y-107010000D01*
X133873321Y-107010000D01*
X133886740Y-107077462D01*
X133886741Y-120940673D01*
X133873321Y-121008140D01*
X133926485Y-121275413D01*
X134077883Y-121501997D01*
X134304467Y-121653395D01*
X134504278Y-121693140D01*
X134504279Y-121693140D01*
X134571740Y-121706559D01*
X134639202Y-121693140D01*
X148603578Y-121693140D01*
X148671040Y-121706559D01*
X148738501Y-121693140D01*
X148738502Y-121693140D01*
X148938313Y-121653395D01*
X149164897Y-121501997D01*
X149316295Y-121275413D01*
X149369459Y-121008140D01*
X149356040Y-120940678D01*
X149356040Y-108931593D01*
X183034677Y-108931593D01*
X183045000Y-109248284D01*
X183045000Y-109565113D01*
X183056210Y-109592176D01*
X183057164Y-109621453D01*
X183277901Y-110154359D01*
X183291293Y-110159716D01*
X183309138Y-110202799D01*
X183797201Y-110690862D01*
X183840284Y-110708707D01*
X183845641Y-110722099D01*
X184142171Y-110833753D01*
X184434887Y-110955000D01*
X184464177Y-110955000D01*
X184491593Y-110965323D01*
X184808284Y-110955000D01*
X185125113Y-110955000D01*
X185152176Y-110943790D01*
X185181453Y-110942836D01*
X185714359Y-110722099D01*
X185719716Y-110708707D01*
X185762799Y-110690862D01*
X186250862Y-110202799D01*
X186268707Y-110159716D01*
X186282099Y-110154359D01*
X186393753Y-109857829D01*
X186515000Y-109565113D01*
X186515000Y-109535823D01*
X186525323Y-109508407D01*
X186515000Y-109191716D01*
X186515000Y-108874887D01*
X186503790Y-108847824D01*
X186502836Y-108818547D01*
X186282099Y-108285641D01*
X186268707Y-108280284D01*
X186250862Y-108237201D01*
X185762799Y-107749138D01*
X185719716Y-107731293D01*
X185714359Y-107717901D01*
X185417829Y-107606247D01*
X185125113Y-107485000D01*
X185095823Y-107485000D01*
X185068407Y-107474677D01*
X184751716Y-107485000D01*
X184434887Y-107485000D01*
X184407824Y-107496210D01*
X184378547Y-107497164D01*
X183845641Y-107717901D01*
X183840284Y-107731293D01*
X183797201Y-107749138D01*
X183309138Y-108237201D01*
X183291293Y-108280284D01*
X183277901Y-108285641D01*
X183166247Y-108582171D01*
X183045000Y-108874887D01*
X183045000Y-108904177D01*
X183034677Y-108931593D01*
X149356040Y-108931593D01*
X149356040Y-107077462D01*
X149369459Y-107010000D01*
X149316295Y-106742727D01*
X149195266Y-106561593D01*
X153164677Y-106561593D01*
X153175000Y-106878284D01*
X153175000Y-107195113D01*
X153186210Y-107222176D01*
X153187164Y-107251453D01*
X153407901Y-107784359D01*
X153421293Y-107789716D01*
X153439138Y-107832799D01*
X153927201Y-108320862D01*
X153970284Y-108338707D01*
X153975641Y-108352099D01*
X154272171Y-108463753D01*
X154564887Y-108585000D01*
X154594177Y-108585000D01*
X154621593Y-108595323D01*
X154938284Y-108585000D01*
X155255113Y-108585000D01*
X155282176Y-108573790D01*
X155311453Y-108572836D01*
X155844359Y-108352099D01*
X155849716Y-108338707D01*
X155892799Y-108320862D01*
X156380862Y-107832799D01*
X156398707Y-107789716D01*
X156412099Y-107784359D01*
X156523753Y-107487829D01*
X156645000Y-107195113D01*
X156645000Y-107165823D01*
X156655323Y-107138407D01*
X156645000Y-106821716D01*
X156645000Y-106504887D01*
X156633790Y-106477824D01*
X156632836Y-106448547D01*
X156412099Y-105915641D01*
X156398707Y-105910284D01*
X156380862Y-105867201D01*
X155892799Y-105379138D01*
X155849716Y-105361293D01*
X155844359Y-105347901D01*
X155547829Y-105236247D01*
X155255113Y-105115000D01*
X155225823Y-105115000D01*
X155198407Y-105104677D01*
X154881716Y-105115000D01*
X154564887Y-105115000D01*
X154537824Y-105126210D01*
X154508547Y-105127164D01*
X153975641Y-105347901D01*
X153970284Y-105361293D01*
X153927201Y-105379138D01*
X153439138Y-105867201D01*
X153421293Y-105910284D01*
X153407901Y-105915641D01*
X153296247Y-106212171D01*
X153175000Y-106504887D01*
X153175000Y-106534177D01*
X153164677Y-106561593D01*
X149195266Y-106561593D01*
X149164897Y-106516143D01*
X148938313Y-106364745D01*
X148738502Y-106325000D01*
X148671040Y-106311581D01*
X148603579Y-106325000D01*
X134639201Y-106325000D01*
X134571740Y-106311581D01*
X134504278Y-106325000D01*
X134304467Y-106364745D01*
X134077883Y-106516143D01*
X133926485Y-106742727D01*
X133873321Y-107010000D01*
X130241138Y-107010000D01*
X130235000Y-106821716D01*
X130235000Y-106504887D01*
X130223790Y-106477824D01*
X130222836Y-106448547D01*
X130002099Y-105915641D01*
X129988707Y-105910284D01*
X129970862Y-105867201D01*
X129482799Y-105379138D01*
X129439716Y-105361293D01*
X129434359Y-105347901D01*
X129137829Y-105236247D01*
X128845113Y-105115000D01*
X128815823Y-105115000D01*
X128788407Y-105104677D01*
X128471716Y-105115000D01*
X128154887Y-105115000D01*
X128127824Y-105126210D01*
X128098547Y-105127164D01*
X127565641Y-105347901D01*
X127560284Y-105361293D01*
X127517201Y-105379138D01*
X127029138Y-105867201D01*
X127011293Y-105910284D01*
X126997901Y-105915641D01*
X126886247Y-106212171D01*
X126765000Y-106504887D01*
X126765000Y-106534177D01*
X126754677Y-106561593D01*
X111319540Y-106561593D01*
X111319540Y-92721382D01*
X111332959Y-92653920D01*
X111279795Y-92386647D01*
X111128397Y-92160063D01*
X110901813Y-92008665D01*
X110702002Y-91968920D01*
X110634540Y-91955501D01*
X110567079Y-91968920D01*
X96602701Y-91968920D01*
X96535240Y-91955501D01*
X96467778Y-91968920D01*
X96267967Y-92008665D01*
X96041383Y-92160063D01*
X95889985Y-92386647D01*
X95836821Y-92653920D01*
X75690000Y-92653920D01*
X75690000Y-76039780D01*
X76804551Y-76039780D01*
X76817970Y-76107242D01*
X76817971Y-89970453D01*
X76804551Y-90037920D01*
X76857715Y-90305193D01*
X77009113Y-90531777D01*
X77235697Y-90683175D01*
X77435508Y-90722920D01*
X77435509Y-90722920D01*
X77502970Y-90736339D01*
X77570432Y-90722920D01*
X91535058Y-90722920D01*
X91602520Y-90736339D01*
X91669981Y-90722920D01*
X91669982Y-90722920D01*
X91869793Y-90683175D01*
X92096377Y-90531777D01*
X92247775Y-90305193D01*
X92256517Y-90261240D01*
X114935081Y-90261240D01*
X114948500Y-90328702D01*
X114948501Y-104191913D01*
X114935081Y-104259380D01*
X114988245Y-104526653D01*
X115139643Y-104753237D01*
X115366227Y-104904635D01*
X115566038Y-104944380D01*
X115566039Y-104944380D01*
X115633500Y-104957799D01*
X115700962Y-104944380D01*
X129565338Y-104944380D01*
X129632800Y-104957799D01*
X129700261Y-104944380D01*
X129700262Y-104944380D01*
X129900073Y-104904635D01*
X130126657Y-104753237D01*
X130278055Y-104526653D01*
X130331219Y-104259380D01*
X130317800Y-104191918D01*
X130317800Y-90328702D01*
X130331219Y-90261240D01*
X130278055Y-89993967D01*
X130126657Y-89767383D01*
X129900073Y-89615985D01*
X129700262Y-89576240D01*
X129632800Y-89562821D01*
X129565339Y-89576240D01*
X115700961Y-89576240D01*
X115633500Y-89562821D01*
X115566038Y-89576240D01*
X115366227Y-89615985D01*
X115139643Y-89767383D01*
X114988245Y-89993967D01*
X114935081Y-90261240D01*
X92256517Y-90261240D01*
X92300939Y-90037920D01*
X92287520Y-89970458D01*
X92287520Y-76107242D01*
X92300939Y-76039780D01*
X92247775Y-75772507D01*
X92096377Y-75545923D01*
X91869793Y-75394525D01*
X91669982Y-75354780D01*
X91602520Y-75341361D01*
X91535059Y-75354780D01*
X77570431Y-75354780D01*
X77502970Y-75341361D01*
X77435508Y-75354780D01*
X77235697Y-75394525D01*
X77009113Y-75545923D01*
X76857715Y-75772507D01*
X76804551Y-76039780D01*
X75690000Y-76039780D01*
X75690000Y-71861593D01*
X92214677Y-71861593D01*
X92225000Y-72178284D01*
X92225000Y-72495113D01*
X92236210Y-72522176D01*
X92237164Y-72551453D01*
X92457901Y-73084359D01*
X92471293Y-73089716D01*
X92489138Y-73132799D01*
X92977201Y-73620862D01*
X93020284Y-73638707D01*
X93025641Y-73652099D01*
X93322171Y-73763753D01*
X93614887Y-73885000D01*
X93644177Y-73885000D01*
X93671593Y-73895323D01*
X93988284Y-73885000D01*
X94305113Y-73885000D01*
X94332176Y-73873790D01*
X94361453Y-73872836D01*
X94704068Y-73730920D01*
X95844441Y-73730920D01*
X95857860Y-73798382D01*
X95857861Y-87661593D01*
X95844441Y-87729060D01*
X95897605Y-87996333D01*
X96049003Y-88222917D01*
X96275587Y-88374315D01*
X96475398Y-88414060D01*
X96475399Y-88414060D01*
X96542860Y-88427479D01*
X96610322Y-88414060D01*
X110574698Y-88414060D01*
X110642160Y-88427479D01*
X110709621Y-88414060D01*
X110709622Y-88414060D01*
X110909433Y-88374315D01*
X111136017Y-88222917D01*
X111287415Y-87996333D01*
X111309799Y-87883800D01*
X133939361Y-87883800D01*
X133952780Y-87951262D01*
X133952781Y-101814473D01*
X133939361Y-101881940D01*
X133992525Y-102149213D01*
X134143923Y-102375797D01*
X134370507Y-102527195D01*
X134570318Y-102566940D01*
X134570319Y-102566940D01*
X134637780Y-102580359D01*
X134705242Y-102566940D01*
X148669618Y-102566940D01*
X148737080Y-102580359D01*
X148804541Y-102566940D01*
X148804542Y-102566940D01*
X149004353Y-102527195D01*
X149230937Y-102375797D01*
X149382335Y-102149213D01*
X149435499Y-101881940D01*
X149422080Y-101814478D01*
X149422080Y-90238380D01*
X152930941Y-90238380D01*
X152944360Y-90305842D01*
X152944361Y-104169053D01*
X152930941Y-104236520D01*
X152984105Y-104503793D01*
X153135503Y-104730377D01*
X153362087Y-104881775D01*
X153561898Y-104921520D01*
X153561899Y-104921520D01*
X153629360Y-104934939D01*
X153696822Y-104921520D01*
X167661198Y-104921520D01*
X167728660Y-104934939D01*
X167796121Y-104921520D01*
X167796122Y-104921520D01*
X167995933Y-104881775D01*
X168222517Y-104730377D01*
X168373915Y-104503793D01*
X168427079Y-104236520D01*
X168413660Y-104169058D01*
X168413660Y-92610740D01*
X172036821Y-92610740D01*
X172050240Y-92678202D01*
X172050241Y-106541413D01*
X172036821Y-106608880D01*
X172089985Y-106876153D01*
X172241383Y-107102737D01*
X172467967Y-107254135D01*
X172667778Y-107293880D01*
X172667779Y-107293880D01*
X172735240Y-107307299D01*
X172802702Y-107293880D01*
X186767078Y-107293880D01*
X186834540Y-107307299D01*
X186902001Y-107293880D01*
X186902002Y-107293880D01*
X187101813Y-107254135D01*
X187328397Y-107102737D01*
X187479795Y-106876153D01*
X187532959Y-106608880D01*
X187519540Y-106541418D01*
X187519540Y-92678202D01*
X187532959Y-92610740D01*
X187479795Y-92343467D01*
X187328397Y-92116883D01*
X187101813Y-91965485D01*
X186902002Y-91925740D01*
X186834540Y-91912321D01*
X186767079Y-91925740D01*
X172802701Y-91925740D01*
X172735240Y-91912321D01*
X172667778Y-91925740D01*
X172467967Y-91965485D01*
X172241383Y-92116883D01*
X172089985Y-92343467D01*
X172036821Y-92610740D01*
X168413660Y-92610740D01*
X168413660Y-90305842D01*
X168427079Y-90238380D01*
X168373915Y-89971107D01*
X168222517Y-89744523D01*
X167995933Y-89593125D01*
X167796122Y-89553380D01*
X167728660Y-89539961D01*
X167661199Y-89553380D01*
X153696821Y-89553380D01*
X153629360Y-89539961D01*
X153561898Y-89553380D01*
X153362087Y-89593125D01*
X153135503Y-89744523D01*
X152984105Y-89971107D01*
X152930941Y-90238380D01*
X149422080Y-90238380D01*
X149422080Y-87951262D01*
X149435499Y-87883800D01*
X149382335Y-87616527D01*
X149230937Y-87389943D01*
X149004353Y-87238545D01*
X148804542Y-87198800D01*
X148737080Y-87185381D01*
X148669619Y-87198800D01*
X134705241Y-87198800D01*
X134637780Y-87185381D01*
X134570318Y-87198800D01*
X134370507Y-87238545D01*
X134143923Y-87389943D01*
X133992525Y-87616527D01*
X133939361Y-87883800D01*
X111309799Y-87883800D01*
X111340579Y-87729060D01*
X111327160Y-87661598D01*
X111327160Y-73798382D01*
X111340579Y-73730920D01*
X111287415Y-73463647D01*
X111136017Y-73237063D01*
X110909433Y-73085665D01*
X110709622Y-73045920D01*
X110642160Y-73032501D01*
X110574699Y-73045920D01*
X96610321Y-73045920D01*
X96542860Y-73032501D01*
X96475398Y-73045920D01*
X96275587Y-73085665D01*
X96049003Y-73237063D01*
X95897605Y-73463647D01*
X95844441Y-73730920D01*
X94704068Y-73730920D01*
X94894359Y-73652099D01*
X94899716Y-73638707D01*
X94942799Y-73620862D01*
X95430862Y-73132799D01*
X95448707Y-73089716D01*
X95462099Y-73084359D01*
X95573753Y-72787829D01*
X95695000Y-72495113D01*
X95695000Y-72465823D01*
X95705323Y-72438407D01*
X95695000Y-72121716D01*
X95695000Y-71804887D01*
X95683790Y-71777824D01*
X95682836Y-71748547D01*
X95512882Y-71338240D01*
X114942701Y-71338240D01*
X114956120Y-71405702D01*
X114956121Y-85268913D01*
X114942701Y-85336380D01*
X114995865Y-85603653D01*
X115147263Y-85830237D01*
X115373847Y-85981635D01*
X115573658Y-86021380D01*
X115573659Y-86021380D01*
X115641120Y-86034799D01*
X115708582Y-86021380D01*
X129672958Y-86021380D01*
X129740420Y-86034799D01*
X129807881Y-86021380D01*
X129807882Y-86021380D01*
X130007693Y-85981635D01*
X130234277Y-85830237D01*
X130385675Y-85603653D01*
X130438839Y-85336380D01*
X130425420Y-85268918D01*
X130425420Y-71405702D01*
X130438839Y-71338240D01*
X130414453Y-71215641D01*
X130385675Y-71070967D01*
X130234277Y-70844383D01*
X130007693Y-70692985D01*
X129740420Y-70639821D01*
X129672959Y-70653240D01*
X115708581Y-70653240D01*
X115641120Y-70639821D01*
X115573658Y-70653240D01*
X115373847Y-70692985D01*
X115147263Y-70844383D01*
X114995865Y-71070967D01*
X114942701Y-71338240D01*
X95512882Y-71338240D01*
X95462099Y-71215641D01*
X95448707Y-71210284D01*
X95430862Y-71167201D01*
X94942799Y-70679138D01*
X94899716Y-70661293D01*
X94894359Y-70647901D01*
X94597829Y-70536247D01*
X94305113Y-70415000D01*
X94275823Y-70415000D01*
X94248407Y-70404677D01*
X93931716Y-70415000D01*
X93614887Y-70415000D01*
X93587824Y-70426210D01*
X93558547Y-70427164D01*
X93025641Y-70647901D01*
X93020284Y-70661293D01*
X92977201Y-70679138D01*
X92489138Y-71167201D01*
X92471293Y-71210284D01*
X92457901Y-71215641D01*
X92346247Y-71512171D01*
X92225000Y-71804887D01*
X92225000Y-71834177D01*
X92214677Y-71861593D01*
X75690000Y-71861593D01*
X75690000Y-56817060D01*
X76687711Y-56817060D01*
X76701130Y-56884522D01*
X76701131Y-70747733D01*
X76687711Y-70815200D01*
X76740875Y-71082473D01*
X76892273Y-71309057D01*
X77118857Y-71460455D01*
X77318668Y-71500200D01*
X77318669Y-71500200D01*
X77386130Y-71513619D01*
X77453592Y-71500200D01*
X91418218Y-71500200D01*
X91485680Y-71513619D01*
X91553141Y-71500200D01*
X91553142Y-71500200D01*
X91752953Y-71460455D01*
X91979537Y-71309057D01*
X92130935Y-71082473D01*
X92184099Y-70815200D01*
X92170680Y-70747738D01*
X92170680Y-56884522D01*
X92184099Y-56817060D01*
X92130935Y-56549787D01*
X91979537Y-56323203D01*
X91752953Y-56171805D01*
X91553142Y-56132060D01*
X91485680Y-56118641D01*
X91418219Y-56132060D01*
X77453591Y-56132060D01*
X77386130Y-56118641D01*
X77318668Y-56132060D01*
X77118857Y-56171805D01*
X76892273Y-56323203D01*
X76740875Y-56549787D01*
X76687711Y-56817060D01*
X75690000Y-56817060D01*
X75690000Y-54508200D01*
X95727601Y-54508200D01*
X95741020Y-54575662D01*
X95741021Y-68438873D01*
X95727601Y-68506340D01*
X95780765Y-68773613D01*
X95932163Y-69000197D01*
X96158747Y-69151595D01*
X96358558Y-69191340D01*
X96358559Y-69191340D01*
X96426020Y-69204759D01*
X96493482Y-69191340D01*
X110457858Y-69191340D01*
X110525320Y-69204759D01*
X110592781Y-69191340D01*
X110592782Y-69191340D01*
X110792593Y-69151595D01*
X111019177Y-69000197D01*
X111170575Y-68773613D01*
X111223739Y-68506340D01*
X111214839Y-68461593D01*
X126754677Y-68461593D01*
X126765000Y-68778284D01*
X126765000Y-69095113D01*
X126776210Y-69122176D01*
X126777164Y-69151453D01*
X126997901Y-69684359D01*
X127011293Y-69689716D01*
X127029138Y-69732799D01*
X127517201Y-70220862D01*
X127560284Y-70238707D01*
X127565641Y-70252099D01*
X127862171Y-70363753D01*
X128154887Y-70485000D01*
X128184177Y-70485000D01*
X128211593Y-70495323D01*
X128528284Y-70485000D01*
X128845113Y-70485000D01*
X128872176Y-70473790D01*
X128901453Y-70472836D01*
X129434359Y-70252099D01*
X129439716Y-70238707D01*
X129482799Y-70220862D01*
X129970862Y-69732799D01*
X129988707Y-69689716D01*
X130002099Y-69684359D01*
X130113753Y-69387829D01*
X130235000Y-69095113D01*
X130235000Y-69065823D01*
X130245323Y-69038407D01*
X130242794Y-68960800D01*
X133946981Y-68960800D01*
X133960400Y-69028262D01*
X133960401Y-82891473D01*
X133946981Y-82958940D01*
X134000145Y-83226213D01*
X134151543Y-83452797D01*
X134378127Y-83604195D01*
X134577938Y-83643940D01*
X134577939Y-83643940D01*
X134645400Y-83657359D01*
X134712862Y-83643940D01*
X148677238Y-83643940D01*
X148744700Y-83657359D01*
X148812161Y-83643940D01*
X148812162Y-83643940D01*
X149011973Y-83604195D01*
X149238557Y-83452797D01*
X149389955Y-83226213D01*
X149443119Y-82958940D01*
X149429700Y-82891478D01*
X149429700Y-71315380D01*
X152938561Y-71315380D01*
X152951980Y-71382842D01*
X152951981Y-85246053D01*
X152938561Y-85313520D01*
X152991725Y-85580793D01*
X153143123Y-85807377D01*
X153369707Y-85958775D01*
X153569518Y-85998520D01*
X153569519Y-85998520D01*
X153636980Y-86011939D01*
X153704442Y-85998520D01*
X167668818Y-85998520D01*
X167736280Y-86011939D01*
X167803741Y-85998520D01*
X167803742Y-85998520D01*
X168003553Y-85958775D01*
X168230137Y-85807377D01*
X168381535Y-85580793D01*
X168434699Y-85313520D01*
X168421280Y-85246058D01*
X168421280Y-73687740D01*
X172044441Y-73687740D01*
X172057860Y-73755202D01*
X172057861Y-87618413D01*
X172044441Y-87685880D01*
X172097605Y-87953153D01*
X172249003Y-88179737D01*
X172475587Y-88331135D01*
X172675398Y-88370880D01*
X172675399Y-88370880D01*
X172742860Y-88384299D01*
X172810322Y-88370880D01*
X186774698Y-88370880D01*
X186842160Y-88384299D01*
X186909621Y-88370880D01*
X186909622Y-88370880D01*
X187109433Y-88331135D01*
X187336017Y-88179737D01*
X187487415Y-87953153D01*
X187540579Y-87685880D01*
X187527160Y-87618418D01*
X187527160Y-78376580D01*
X191053801Y-78376580D01*
X191067220Y-78444042D01*
X191067221Y-92307253D01*
X191053801Y-92374720D01*
X191106965Y-92641993D01*
X191258363Y-92868577D01*
X191484947Y-93019975D01*
X191684758Y-93059720D01*
X191684759Y-93059720D01*
X191752220Y-93073139D01*
X191819682Y-93059720D01*
X205784058Y-93059720D01*
X205851520Y-93073139D01*
X205918981Y-93059720D01*
X205918982Y-93059720D01*
X206118793Y-93019975D01*
X206345377Y-92868577D01*
X206496775Y-92641993D01*
X206549939Y-92374720D01*
X206536520Y-92307258D01*
X206536520Y-78444042D01*
X206549939Y-78376580D01*
X206496775Y-78109307D01*
X206345377Y-77882723D01*
X206118793Y-77731325D01*
X205918982Y-77691580D01*
X205851520Y-77678161D01*
X205784059Y-77691580D01*
X191819681Y-77691580D01*
X191752220Y-77678161D01*
X191684758Y-77691580D01*
X191484947Y-77731325D01*
X191258363Y-77882723D01*
X191106965Y-78109307D01*
X191053801Y-78376580D01*
X187527160Y-78376580D01*
X187527160Y-73755202D01*
X187540579Y-73687740D01*
X187487415Y-73420467D01*
X187336017Y-73193883D01*
X187109433Y-73042485D01*
X186909622Y-73002740D01*
X186842160Y-72989321D01*
X186774699Y-73002740D01*
X172810321Y-73002740D01*
X172742860Y-72989321D01*
X172675398Y-73002740D01*
X172475587Y-73042485D01*
X172249003Y-73193883D01*
X172097605Y-73420467D01*
X172044441Y-73687740D01*
X168421280Y-73687740D01*
X168421280Y-71861593D01*
X187504677Y-71861593D01*
X187515000Y-72178284D01*
X187515000Y-72495113D01*
X187526210Y-72522176D01*
X187527164Y-72551453D01*
X187747901Y-73084359D01*
X187761293Y-73089716D01*
X187779138Y-73132799D01*
X188267201Y-73620862D01*
X188310284Y-73638707D01*
X188315641Y-73652099D01*
X188612171Y-73763753D01*
X188904887Y-73885000D01*
X188934177Y-73885000D01*
X188961593Y-73895323D01*
X189278284Y-73885000D01*
X189595113Y-73885000D01*
X189622176Y-73873790D01*
X189651453Y-73872836D01*
X190184359Y-73652099D01*
X190189716Y-73638707D01*
X190232799Y-73620862D01*
X190720862Y-73132799D01*
X190738707Y-73089716D01*
X190752099Y-73084359D01*
X190863753Y-72787829D01*
X190950381Y-72578691D01*
X190950381Y-73084533D01*
X190936961Y-73152000D01*
X190990125Y-73419273D01*
X191141523Y-73645857D01*
X191368107Y-73797255D01*
X191567918Y-73837000D01*
X191567919Y-73837000D01*
X191635380Y-73850419D01*
X191702842Y-73837000D01*
X205667218Y-73837000D01*
X205734680Y-73850419D01*
X205802141Y-73837000D01*
X205802142Y-73837000D01*
X206001953Y-73797255D01*
X206228537Y-73645857D01*
X206379935Y-73419273D01*
X206433099Y-73152000D01*
X206419680Y-73084538D01*
X206419680Y-59221322D01*
X206433099Y-59153860D01*
X206379935Y-58886587D01*
X206228537Y-58660003D01*
X206001953Y-58508605D01*
X205802142Y-58468860D01*
X205734680Y-58455441D01*
X205667219Y-58468860D01*
X191702841Y-58468860D01*
X191635380Y-58455441D01*
X191567918Y-58468860D01*
X191368107Y-58508605D01*
X191141523Y-58660003D01*
X190990125Y-58886587D01*
X190936961Y-59153860D01*
X190950380Y-59221322D01*
X190950381Y-71694336D01*
X190752099Y-71215641D01*
X190738707Y-71210284D01*
X190720862Y-71167201D01*
X190232799Y-70679138D01*
X190189716Y-70661293D01*
X190184359Y-70647901D01*
X189887829Y-70536247D01*
X189595113Y-70415000D01*
X189565823Y-70415000D01*
X189538407Y-70404677D01*
X189221716Y-70415000D01*
X188904887Y-70415000D01*
X188877824Y-70426210D01*
X188848547Y-70427164D01*
X188315641Y-70647901D01*
X188310284Y-70661293D01*
X188267201Y-70679138D01*
X187779138Y-71167201D01*
X187761293Y-71210284D01*
X187747901Y-71215641D01*
X187636247Y-71512171D01*
X187515000Y-71804887D01*
X187515000Y-71834177D01*
X187504677Y-71861593D01*
X168421280Y-71861593D01*
X168421280Y-71382842D01*
X168434699Y-71315380D01*
X168381535Y-71048107D01*
X168230137Y-70821523D01*
X168003553Y-70670125D01*
X167803742Y-70630380D01*
X167736280Y-70616961D01*
X167668819Y-70630380D01*
X153704441Y-70630380D01*
X153636980Y-70616961D01*
X153569518Y-70630380D01*
X153369707Y-70670125D01*
X153143123Y-70821523D01*
X152991725Y-71048107D01*
X152938561Y-71315380D01*
X149429700Y-71315380D01*
X149429700Y-69028262D01*
X149443119Y-68960800D01*
X149389955Y-68693527D01*
X149238557Y-68466943D01*
X149230551Y-68461593D01*
X153164677Y-68461593D01*
X153175000Y-68778284D01*
X153175000Y-69095113D01*
X153186210Y-69122176D01*
X153187164Y-69151453D01*
X153407901Y-69684359D01*
X153421293Y-69689716D01*
X153439138Y-69732799D01*
X153927201Y-70220862D01*
X153970284Y-70238707D01*
X153975641Y-70252099D01*
X154272171Y-70363753D01*
X154564887Y-70485000D01*
X154594177Y-70485000D01*
X154621593Y-70495323D01*
X154938284Y-70485000D01*
X155255113Y-70485000D01*
X155282176Y-70473790D01*
X155311453Y-70472836D01*
X155844359Y-70252099D01*
X155849716Y-70238707D01*
X155892799Y-70220862D01*
X156380862Y-69732799D01*
X156398707Y-69689716D01*
X156412099Y-69684359D01*
X156523753Y-69387829D01*
X156645000Y-69095113D01*
X156645000Y-69065823D01*
X156655323Y-69038407D01*
X156645000Y-68721716D01*
X156645000Y-68404887D01*
X156633790Y-68377824D01*
X156632836Y-68348547D01*
X156412099Y-67815641D01*
X156398707Y-67810284D01*
X156380862Y-67767201D01*
X155892799Y-67279138D01*
X155849716Y-67261293D01*
X155844359Y-67247901D01*
X155547829Y-67136247D01*
X155255113Y-67015000D01*
X155225823Y-67015000D01*
X155198407Y-67004677D01*
X154881716Y-67015000D01*
X154564887Y-67015000D01*
X154537824Y-67026210D01*
X154508547Y-67027164D01*
X153975641Y-67247901D01*
X153970284Y-67261293D01*
X153927201Y-67279138D01*
X153439138Y-67767201D01*
X153421293Y-67810284D01*
X153407901Y-67815641D01*
X153296247Y-68112171D01*
X153175000Y-68404887D01*
X153175000Y-68434177D01*
X153164677Y-68461593D01*
X149230551Y-68461593D01*
X149011973Y-68315545D01*
X148812162Y-68275800D01*
X148744700Y-68262381D01*
X148677239Y-68275800D01*
X134712861Y-68275800D01*
X134645400Y-68262381D01*
X134577938Y-68275800D01*
X134378127Y-68315545D01*
X134151543Y-68466943D01*
X134000145Y-68693527D01*
X133946981Y-68960800D01*
X130242794Y-68960800D01*
X130235000Y-68721716D01*
X130235000Y-68404887D01*
X130223790Y-68377824D01*
X130222836Y-68348547D01*
X130002099Y-67815641D01*
X129988707Y-67810284D01*
X129970862Y-67767201D01*
X129482799Y-67279138D01*
X129439716Y-67261293D01*
X129434359Y-67247901D01*
X129137829Y-67136247D01*
X128845113Y-67015000D01*
X128815823Y-67015000D01*
X128788407Y-67004677D01*
X128471716Y-67015000D01*
X128154887Y-67015000D01*
X128127824Y-67026210D01*
X128098547Y-67027164D01*
X127565641Y-67247901D01*
X127560284Y-67261293D01*
X127517201Y-67279138D01*
X127029138Y-67767201D01*
X127011293Y-67810284D01*
X126997901Y-67815641D01*
X126886247Y-68112171D01*
X126765000Y-68404887D01*
X126765000Y-68434177D01*
X126754677Y-68461593D01*
X111214839Y-68461593D01*
X111210320Y-68438878D01*
X111210320Y-54575662D01*
X111223739Y-54508200D01*
X111170575Y-54240927D01*
X111019177Y-54014343D01*
X110792593Y-53862945D01*
X110592782Y-53823200D01*
X110525320Y-53809781D01*
X110457859Y-53823200D01*
X96493481Y-53823200D01*
X96426020Y-53809781D01*
X96358558Y-53823200D01*
X96158747Y-53862945D01*
X95932163Y-54014343D01*
X95780765Y-54240927D01*
X95727601Y-54508200D01*
X75690000Y-54508200D01*
X75690000Y-54051171D01*
X75867092Y-53952208D01*
X86720189Y-52115520D01*
X114825861Y-52115520D01*
X114839280Y-52182982D01*
X114839281Y-66046193D01*
X114825861Y-66113660D01*
X114879025Y-66380933D01*
X115030423Y-66607517D01*
X115257007Y-66758915D01*
X115456818Y-66798660D01*
X115456819Y-66798660D01*
X115524280Y-66812079D01*
X115591742Y-66798660D01*
X129556118Y-66798660D01*
X129623580Y-66812079D01*
X129691041Y-66798660D01*
X129691042Y-66798660D01*
X129890853Y-66758915D01*
X130117437Y-66607517D01*
X130268835Y-66380933D01*
X130321999Y-66113660D01*
X130308580Y-66046198D01*
X130308580Y-52182982D01*
X130321999Y-52115520D01*
X130268835Y-51848247D01*
X130117437Y-51621663D01*
X129890853Y-51470265D01*
X129691042Y-51430520D01*
X129623580Y-51417101D01*
X129556119Y-51430520D01*
X115591741Y-51430520D01*
X115524280Y-51417101D01*
X115456818Y-51430520D01*
X115257007Y-51470265D01*
X115030423Y-51621663D01*
X114879025Y-51848247D01*
X114825861Y-52115520D01*
X86720189Y-52115520D01*
X100768622Y-49738080D01*
X133830141Y-49738080D01*
X133843560Y-49805542D01*
X133843561Y-63668753D01*
X133830141Y-63736220D01*
X133883305Y-64003493D01*
X134034703Y-64230077D01*
X134261287Y-64381475D01*
X134461098Y-64421220D01*
X134461099Y-64421220D01*
X134528560Y-64434639D01*
X134596022Y-64421220D01*
X148560398Y-64421220D01*
X148627860Y-64434639D01*
X148695321Y-64421220D01*
X148695322Y-64421220D01*
X148895133Y-64381475D01*
X149121717Y-64230077D01*
X149273115Y-64003493D01*
X149326279Y-63736220D01*
X149312860Y-63668758D01*
X149312860Y-52092660D01*
X152821721Y-52092660D01*
X152835140Y-52160122D01*
X152835141Y-66023333D01*
X152821721Y-66090800D01*
X152874885Y-66358073D01*
X153026283Y-66584657D01*
X153252867Y-66736055D01*
X153452678Y-66775800D01*
X153452679Y-66775800D01*
X153520140Y-66789219D01*
X153587602Y-66775800D01*
X167551978Y-66775800D01*
X167619440Y-66789219D01*
X167686901Y-66775800D01*
X167686902Y-66775800D01*
X167886713Y-66736055D01*
X168113297Y-66584657D01*
X168264695Y-66358073D01*
X168317859Y-66090800D01*
X168304440Y-66023338D01*
X168304440Y-54465020D01*
X171927601Y-54465020D01*
X171941020Y-54532482D01*
X171941021Y-68395693D01*
X171927601Y-68463160D01*
X171980765Y-68730433D01*
X172132163Y-68957017D01*
X172358747Y-69108415D01*
X172558558Y-69148160D01*
X172558559Y-69148160D01*
X172626020Y-69161579D01*
X172693482Y-69148160D01*
X186657858Y-69148160D01*
X186725320Y-69161579D01*
X186792781Y-69148160D01*
X186792782Y-69148160D01*
X186992593Y-69108415D01*
X187219177Y-68957017D01*
X187370575Y-68730433D01*
X187423739Y-68463160D01*
X187410320Y-68395698D01*
X187410320Y-54532482D01*
X187423739Y-54465020D01*
X187402248Y-54356975D01*
X187370575Y-54197747D01*
X187219177Y-53971163D01*
X186992593Y-53819765D01*
X186725320Y-53766601D01*
X186657859Y-53780020D01*
X172693481Y-53780020D01*
X172626020Y-53766601D01*
X172558558Y-53780020D01*
X172358747Y-53819765D01*
X172132163Y-53971163D01*
X171980765Y-54197747D01*
X171927601Y-54465020D01*
X168304440Y-54465020D01*
X168304440Y-52160122D01*
X168317859Y-52092660D01*
X168264695Y-51825387D01*
X168113297Y-51598803D01*
X167886713Y-51447405D01*
X167686902Y-51407660D01*
X167619440Y-51394241D01*
X167551979Y-51407660D01*
X153587601Y-51407660D01*
X153520140Y-51394241D01*
X153452678Y-51407660D01*
X153252867Y-51447405D01*
X153026283Y-51598803D01*
X152874885Y-51825387D01*
X152821721Y-52092660D01*
X149312860Y-52092660D01*
X149312860Y-49805542D01*
X149326279Y-49738080D01*
X149273115Y-49470807D01*
X149121717Y-49244223D01*
X148895133Y-49092825D01*
X148695322Y-49053080D01*
X148627860Y-49039661D01*
X148560399Y-49053080D01*
X134596021Y-49053080D01*
X134528560Y-49039661D01*
X134461098Y-49053080D01*
X134261287Y-49092825D01*
X134034703Y-49244223D01*
X133883305Y-49470807D01*
X133830141Y-49738080D01*
X100768622Y-49738080D01*
X116268558Y-47115000D01*
X205038117Y-47115000D01*
X205927138Y-47271641D01*
G36*
X199076078Y-123890484D02*
X192761066Y-134829288D01*
X181823521Y-128513920D01*
X188138535Y-117576317D01*
X199076078Y-123890484D01*
X199076078Y-123890484D01*
G37*
X199076078Y-123890484D02*
X192761066Y-134829288D01*
X181823521Y-128513920D01*
X188138535Y-117576317D01*
X199076078Y-123890484D01*
G36*
X90843860Y-127402120D02*
X78114310Y-127402120D01*
X78114310Y-114773980D01*
X90843861Y-114773980D01*
X90843860Y-127402120D01*
X90843860Y-127402120D01*
G37*
X90843860Y-127402120D02*
X78114310Y-127402120D01*
X78114310Y-114773980D01*
X90843861Y-114773980D01*
X90843860Y-127402120D01*
G36*
X174573073Y-113311321D02*
X172378699Y-125749407D01*
X159941918Y-123556447D01*
X162135029Y-111118314D01*
X174573073Y-113311321D01*
X174573073Y-113311321D01*
G37*
X174573073Y-113311321D02*
X172378699Y-125749407D01*
X159941918Y-123556447D01*
X162135029Y-111118314D01*
X174573073Y-113311321D01*
G36*
X109883500Y-125093260D02*
X97154200Y-125093260D01*
X97154200Y-112465120D01*
X109883501Y-112465120D01*
X109883500Y-125093260D01*
X109883500Y-125093260D01*
G37*
X109883500Y-125093260D02*
X97154200Y-125093260D01*
X97154200Y-112465120D01*
X109883501Y-112465120D01*
X109883500Y-125093260D01*
G36*
X128981760Y-122700580D02*
X116252460Y-122700580D01*
X116252460Y-110072440D01*
X128981761Y-110072440D01*
X128981760Y-122700580D01*
X128981760Y-122700580D01*
G37*
X128981760Y-122700580D02*
X116252460Y-122700580D01*
X116252460Y-110072440D01*
X128981761Y-110072440D01*
X128981760Y-122700580D01*
G36*
X147986040Y-120323140D02*
X135256740Y-120323140D01*
X135256740Y-107695000D01*
X147986041Y-107695000D01*
X147986040Y-120323140D01*
X147986040Y-120323140D01*
G37*
X147986040Y-120323140D02*
X135256740Y-120323140D01*
X135256740Y-107695000D01*
X147986041Y-107695000D01*
X147986040Y-120323140D01*
G36*
X208601082Y-107392582D02*
X202286037Y-118331506D01*
X191348517Y-112017353D01*
X197663564Y-101078339D01*
X208601082Y-107392582D01*
X208601082Y-107392582D01*
G37*
X208601082Y-107392582D02*
X202286037Y-118331506D01*
X191348517Y-112017353D01*
X197663564Y-101078339D01*
X208601082Y-107392582D01*
G36*
X90909900Y-108275920D02*
X78180350Y-108275920D01*
X78180350Y-95647780D01*
X90909901Y-95647780D01*
X90909900Y-108275920D01*
X90909900Y-108275920D01*
G37*
X90909900Y-108275920D02*
X78180350Y-108275920D01*
X78180350Y-95647780D01*
X90909901Y-95647780D01*
X90909900Y-108275920D01*
G36*
X109949540Y-105967060D02*
X97220240Y-105967060D01*
X97220240Y-93338920D01*
X109949541Y-93338920D01*
X109949540Y-105967060D01*
X109949540Y-105967060D01*
G37*
X109949540Y-105967060D02*
X97220240Y-105967060D01*
X97220240Y-93338920D01*
X109949541Y-93338920D01*
X109949540Y-105967060D01*
G36*
X186149540Y-105923880D02*
X173420240Y-105923880D01*
X173420240Y-93295740D01*
X186149541Y-93295740D01*
X186149540Y-105923880D01*
X186149540Y-105923880D01*
G37*
X186149540Y-105923880D02*
X173420240Y-105923880D01*
X173420240Y-93295740D01*
X186149541Y-93295740D01*
X186149540Y-105923880D01*
G36*
X128947800Y-103574380D02*
X116318500Y-103574380D01*
X116318500Y-90946240D01*
X128947801Y-90946240D01*
X128947800Y-103574380D01*
X128947800Y-103574380D01*
G37*
X128947800Y-103574380D02*
X116318500Y-103574380D01*
X116318500Y-90946240D01*
X128947801Y-90946240D01*
X128947800Y-103574380D01*
G36*
X167043660Y-103551520D02*
X154314360Y-103551520D01*
X154314360Y-90923380D01*
X167043661Y-90923380D01*
X167043660Y-103551520D01*
X167043660Y-103551520D01*
G37*
X167043660Y-103551520D02*
X154314360Y-103551520D01*
X154314360Y-90923380D01*
X167043661Y-90923380D01*
X167043660Y-103551520D01*
G36*
X148052080Y-101196940D02*
X135322780Y-101196940D01*
X135322780Y-88568800D01*
X148052081Y-88568800D01*
X148052080Y-101196940D01*
X148052080Y-101196940D01*
G37*
X148052080Y-101196940D02*
X135322780Y-101196940D01*
X135322780Y-88568800D01*
X148052081Y-88568800D01*
X148052080Y-101196940D01*
G36*
X205166520Y-91689720D02*
X192437220Y-91689720D01*
X192437220Y-79061580D01*
X205166521Y-79061580D01*
X205166520Y-91689720D01*
X205166520Y-91689720D01*
G37*
X205166520Y-91689720D02*
X192437220Y-91689720D01*
X192437220Y-79061580D01*
X205166521Y-79061580D01*
X205166520Y-91689720D01*
G36*
X90917520Y-89352920D02*
X78187970Y-89352920D01*
X78187970Y-76724780D01*
X90917521Y-76724780D01*
X90917520Y-89352920D01*
X90917520Y-89352920D01*
G37*
X90917520Y-89352920D02*
X78187970Y-89352920D01*
X78187970Y-76724780D01*
X90917521Y-76724780D01*
X90917520Y-89352920D01*
G36*
X109957160Y-87044060D02*
X97227860Y-87044060D01*
X97227860Y-74415920D01*
X109957161Y-74415920D01*
X109957160Y-87044060D01*
X109957160Y-87044060D01*
G37*
X109957160Y-87044060D02*
X97227860Y-87044060D01*
X97227860Y-74415920D01*
X109957161Y-74415920D01*
X109957160Y-87044060D01*
G36*
X186157160Y-87000880D02*
X173427860Y-87000880D01*
X173427860Y-74372740D01*
X186157161Y-74372740D01*
X186157160Y-87000880D01*
X186157160Y-87000880D01*
G37*
X186157160Y-87000880D02*
X173427860Y-87000880D01*
X173427860Y-74372740D01*
X186157161Y-74372740D01*
X186157160Y-87000880D01*
G36*
X129055420Y-84651380D02*
X116326120Y-84651380D01*
X116326120Y-72023240D01*
X129055421Y-72023240D01*
X129055420Y-84651380D01*
X129055420Y-84651380D01*
G37*
X129055420Y-84651380D02*
X116326120Y-84651380D01*
X116326120Y-72023240D01*
X129055421Y-72023240D01*
X129055420Y-84651380D01*
G36*
X167051280Y-84628520D02*
X154321980Y-84628520D01*
X154321980Y-72000380D01*
X167051281Y-72000380D01*
X167051280Y-84628520D01*
X167051280Y-84628520D01*
G37*
X167051280Y-84628520D02*
X154321980Y-84628520D01*
X154321980Y-72000380D01*
X167051281Y-72000380D01*
X167051280Y-84628520D01*
G36*
X148059700Y-82273940D02*
X135330400Y-82273940D01*
X135330400Y-69645800D01*
X148059701Y-69645800D01*
X148059700Y-82273940D01*
X148059700Y-82273940D01*
G37*
X148059700Y-82273940D02*
X135330400Y-82273940D01*
X135330400Y-69645800D01*
X148059701Y-69645800D01*
X148059700Y-82273940D01*
G36*
X205049680Y-72467000D02*
X192320380Y-72467000D01*
X192320380Y-59838860D01*
X205049681Y-59838860D01*
X205049680Y-72467000D01*
X205049680Y-72467000D01*
G37*
X205049680Y-72467000D02*
X192320380Y-72467000D01*
X192320380Y-59838860D01*
X205049681Y-59838860D01*
X205049680Y-72467000D01*
G36*
X90800680Y-70130200D02*
X78071130Y-70130200D01*
X78071130Y-57502060D01*
X90800681Y-57502060D01*
X90800680Y-70130200D01*
X90800680Y-70130200D01*
G37*
X90800680Y-70130200D02*
X78071130Y-70130200D01*
X78071130Y-57502060D01*
X90800681Y-57502060D01*
X90800680Y-70130200D01*
G36*
X109840320Y-67821340D02*
X97111020Y-67821340D01*
X97111020Y-55193200D01*
X109840321Y-55193200D01*
X109840320Y-67821340D01*
X109840320Y-67821340D01*
G37*
X109840320Y-67821340D02*
X97111020Y-67821340D01*
X97111020Y-55193200D01*
X109840321Y-55193200D01*
X109840320Y-67821340D01*
G36*
X186040320Y-67778160D02*
X173311020Y-67778160D01*
X173311020Y-55150020D01*
X186040321Y-55150020D01*
X186040320Y-67778160D01*
X186040320Y-67778160D01*
G37*
X186040320Y-67778160D02*
X173311020Y-67778160D01*
X173311020Y-55150020D01*
X186040321Y-55150020D01*
X186040320Y-67778160D01*
G36*
X128938580Y-65428660D02*
X116209280Y-65428660D01*
X116209280Y-52800520D01*
X128938581Y-52800520D01*
X128938580Y-65428660D01*
X128938580Y-65428660D01*
G37*
X128938580Y-65428660D02*
X116209280Y-65428660D01*
X116209280Y-52800520D01*
X128938581Y-52800520D01*
X128938580Y-65428660D01*
G36*
X166934440Y-65405800D02*
X154205140Y-65405800D01*
X154205140Y-52777660D01*
X166934441Y-52777660D01*
X166934440Y-65405800D01*
X166934440Y-65405800D01*
G37*
X166934440Y-65405800D02*
X154205140Y-65405800D01*
X154205140Y-52777660D01*
X166934441Y-52777660D01*
X166934440Y-65405800D01*
G36*
X147942860Y-63051220D02*
X135213560Y-63051220D01*
X135213560Y-50423080D01*
X147942861Y-50423080D01*
X147942860Y-63051220D01*
X147942860Y-63051220D01*
G37*
X147942860Y-63051220D02*
X135213560Y-63051220D01*
X135213560Y-50423080D01*
X147942861Y-50423080D01*
X147942860Y-63051220D01*
M02*
