  0
SECTION
  2
HEADER
  9
$ANGBASE
  50
0.0
  9
$ANGDIR
  70
  1
  9
$MEASUREMENT
  70
0
  0
ENDSEC
  0
SECTION
  2
TABLES
  0
TABLE
  2
LTYPE
  70
1
  0
LTYPE
  2
CONTINUOUS
  70
0
  3
Solid line
  72
65
  73
0
  40
0.0
  0
ENDTAB
  0
TABLE
  2
STYLE
  70
4
  0
STYLE
  2
KICAD
  70
0
  40
0
  41
1
  42
1
  50
0
  71
0
  3
isocp.shx
  0
STYLE
  2
KICADB
  70
0
  40
0
  41
1
  42
1
  50
0
  71
0
  3
isocp.shx
  0
STYLE
  2
KICADI
  70
0
  40
0
  41
1
  42
1
  50
15
  71
0
  3
isocp.shx
  0
STYLE
  2
KICADBI
  70
0
  40
0
  41
1
  42
1
  50
15
  71
0
  3
isocp.shx
  0
ENDTAB
  0
TABLE
  2
LAYER
  70
30
  0
LAYER
  2
BLACK
  70
0
  62
7
  6
CONTINUOUS
  0
LAYER
  2
GRAY1
  70
0
  62
251
  6
CONTINUOUS
  0
LAYER
  2
GRAY2
  70
0
  62
8
  6
CONTINUOUS
  0
LAYER
  2
GRAY3
  70
0
  62
9
  6
CONTINUOUS
  0
LAYER
  2
WHITE
  70
0
  62
7
  6
CONTINUOUS
  0
LAYER
  2
LYELLOW
  70
0
  62
51
  6
CONTINUOUS
  0
LAYER
  2
BLUE1
  70
0
  62
178
  6
CONTINUOUS
  0
LAYER
  2
GREEN1
  70
0
  62
98
  6
CONTINUOUS
  0
LAYER
  2
CYAN1
  70
0
  62
138
  6
CONTINUOUS
  0
LAYER
  2
RED1
  70
0
  62
18
  6
CONTINUOUS
  0
LAYER
  2
MAGENTA1
  70
0
  62
228
  6
CONTINUOUS
  0
LAYER
  2
BROWN1
  70
0
  62
58
  6
CONTINUOUS
  0
LAYER
  2
BLUE2
  70
0
  62
5
  6
CONTINUOUS
  0
LAYER
  2
GREEN2
  70
0
  62
3
  6
CONTINUOUS
  0
LAYER
  2
CYAN2
  70
0
  62
4
  6
CONTINUOUS
  0
LAYER
  2
RED2
  70
0
  62
1
  6
CONTINUOUS
  0
LAYER
  2
MAGENTA2
  70
0
  62
6
  6
CONTINUOUS
  0
LAYER
  2
BROWN2
  70
0
  62
54
  6
CONTINUOUS
  0
LAYER
  2
BLUE3
  70
0
  62
171
  6
CONTINUOUS
  0
LAYER
  2
GREEN3
  70
0
  62
91
  6
CONTINUOUS
  0
LAYER
  2
CYAN3
  70
0
  62
131
  6
CONTINUOUS
  0
LAYER
  2
RED3
  70
0
  62
11
  6
CONTINUOUS
  0
LAYER
  2
MAGENTA3
  70
0
  62
221
  6
CONTINUOUS
  0
LAYER
  2
YELLOW3
  70
0
  62
2
  6
CONTINUOUS
  0
LAYER
  2
BLUE4
  70
0
  62
5
  6
CONTINUOUS
  0
LAYER
  2
GREEN4
  70
0
  62
3
  6
CONTINUOUS
  0
LAYER
  2
CYAN4
  70
0
  62
4
  6
CONTINUOUS
  0
LAYER
  2
RED4
  70
0
  62
1
  6
CONTINUOUS
  0
LAYER
  2
MAGENTA4
  70
0
  62
6
  6
CONTINUOUS
  0
LAYER
  2
YELLOW4
  70
0
  62
2
  6
CONTINUOUS
  0
ENDTAB
  0
ENDSEC
  0
SECTION
  2
ENTITIES
0
LINE
8
Black
10
99.06
20
-130.885
11
74.93
21
-130.885
0
LINE
8
Black
10
74.93
20
-130.885
11
74.9235
21
-130.884
0
LINE
8
Black
10
74.9235
20
-130.884
11
74.917
21
-130.884
0
LINE
8
Black
10
74.917
20
-130.884
11
74.9108
21
-130.882
0
LINE
8
Black
10
74.9108
20
-130.882
11
74.9043
21
-130.88
0
LINE
8
Black
10
74.9043
20
-130.88
11
74.8987
21
-130.877
0
LINE
8
Black
10
74.8987
20
-130.877
11
74.8925
21
-130.875
0
LINE
8
Black
10
74.8925
20
-130.875
11
74.8875
21
-130.871
0
LINE
8
Black
10
74.8875
20
-130.871
11
74.8818
21
-130.867
0
LINE
8
Black
10
74.8818
20
-130.867
11
74.8776
21
-130.862
0
LINE
8
Black
10
74.8776
20
-130.862
11
74.8725
21
-130.858
0
LINE
8
Black
10
74.8725
20
-130.858
11
74.8693
21
-130.853
0
LINE
8
Black
10
74.8693
20
-130.853
11
74.865
21
-130.847
0
LINE
8
Black
10
74.865
20
-130.847
11
74.8628
21
-130.841
0
LINE
8
Black
10
74.8628
20
-130.841
11
74.8595
21
-130.836
0
LINE
8
Black
10
74.8595
20
-130.836
11
74.8584
21
-130.829
0
LINE
8
Black
10
74.8584
20
-130.829
11
74.8561
21
-130.823
0
LINE
8
Black
10
74.8561
20
-130.823
11
74.8561
21
-130.816
0
LINE
8
Black
10
74.8561
20
-130.816
11
74.855
21
-130.81
0
LINE
8
Black
10
74.855
20
-130.81
11
74.855
21
-53.34
0
LINE
8
Black
10
74.855
20
-53.34
11
74.855
21
-53.3397
0
LINE
8
Black
10
74.855
20
-53.3397
11
74.855
21
-53.3395
0
LINE
8
Black
10
74.855
20
-53.3395
11
74.8573
21
-53.3268
0
LINE
8
Black
10
74.8573
20
-53.3268
11
74.8595
21
-53.3143
0
LINE
8
Black
10
74.8595
20
-53.3143
11
74.8597
21
-53.3141
0
LINE
8
Black
10
74.8597
20
-53.3141
11
74.8597
21
-53.3139
0
LINE
8
Black
10
74.8597
20
-53.3139
11
74.8662
21
-53.3028
0
LINE
8
Black
10
74.8662
20
-53.3028
11
74.8725
21
-53.2918
0
LINE
8
Black
10
74.8725
20
-53.2918
11
74.8727
21
-53.2916
0
LINE
8
Black
10
74.8727
20
-53.2916
11
74.8729
21
-53.2914
0
LINE
8
Black
10
74.8729
20
-53.2914
11
74.8827
21
-53.2832
0
LINE
8
Black
10
74.8827
20
-53.2832
11
74.8925
21
-53.275
0
LINE
8
Black
10
74.8925
20
-53.275
11
74.8927
21
-53.275
0
LINE
8
Black
10
74.8927
20
-53.275
11
74.8929
21
-53.2748
0
LINE
8
Black
10
74.8929
20
-53.2748
11
74.905
21
-53.2705
0
LINE
8
Black
10
74.905
20
-53.2705
11
74.917
21
-53.2661
0
LINE
8
Black
10
74.917
20
-53.2661
11
74.9172
21
-53.2661
0
LINE
8
Black
10
74.9172
20
-53.2661
11
74.9175
21
-53.2661
0
LINE
8
Black
10
74.9175
20
-53.2661
11
116.192
21
-46.2811
0
LINE
8
Black
10
116.192
20
-46.2811
11
116.199
21
-46.2811
0
LINE
8
Black
10
116.199
20
-46.2811
11
116.205
21
-46.28
0
LINE
8
Black
10
116.205
20
-46.28
11
132.08
21
-46.28
0
LINE
8
Black
10
132.08
20
-46.28
11
208.28
21
-46.28
0
LINE
8
Black
10
208.28
20
-46.28
11
208.286
21
-46.2811
0
LINE
8
Black
10
208.286
20
-46.2811
11
208.293
21
-46.2811
0
LINE
8
Black
10
208.293
20
-46.2811
11
208.299
21
-46.2834
0
LINE
8
Black
10
208.299
20
-46.2834
11
208.306
21
-46.2845
0
LINE
8
Black
10
208.306
20
-46.2845
11
208.311
21
-46.2878
0
LINE
8
Black
10
208.311
20
-46.2878
11
208.317
21
-46.29
0
LINE
8
Black
10
208.317
20
-46.29
11
208.323
21
-46.2943
0
LINE
8
Black
10
208.323
20
-46.2943
11
208.328
21
-46.2975
0
LINE
8
Black
10
208.328
20
-46.2975
11
208.332
21
-46.3026
0
LINE
8
Black
10
208.332
20
-46.3026
11
208.337
21
-46.3068
0
LINE
8
Black
10
208.337
20
-46.3068
11
208.341
21
-46.3125
0
LINE
8
Black
10
208.341
20
-46.3125
11
208.345
21
-46.3175
0
LINE
8
Black
10
208.345
20
-46.3175
11
208.347
21
-46.3237
0
LINE
8
Black
10
208.347
20
-46.3237
11
208.35
21
-46.3293
0
LINE
8
Black
10
208.35
20
-46.3293
11
208.352
21
-46.3358
0
LINE
8
Black
10
208.352
20
-46.3358
11
208.354
21
-46.342
0
LINE
8
Black
10
208.354
20
-46.342
11
208.354
21
-46.3485
0
LINE
8
Black
10
208.354
20
-46.3485
11
208.355
21
-46.355
0
LINE
8
Black
10
208.355
20
-46.355
11
208.355
21
-95.25
0
LINE
8
Black
10
208.355
20
-95.25
11
208.355
21
-102.828
0
LINE
8
Black
10
208.355
20
-102.828
11
213.4
21
-105.981
0
LINE
8
Black
10
213.4
20
-105.981
11
213.404
21
-105.985
0
LINE
8
Black
10
213.404
20
-105.985
11
213.409
21
-105.988
0
LINE
8
Black
10
213.409
20
-105.988
11
213.413
21
-105.994
0
LINE
8
Black
10
213.413
20
-105.994
11
213.419
21
-105.999
0
LINE
8
Black
10
213.419
20
-105.999
11
213.422
21
-106.004
0
LINE
8
Black
10
213.422
20
-106.004
11
213.425
21
-106.008
0
LINE
8
Black
10
213.425
20
-106.008
11
213.428
21
-106.015
0
LINE
8
Black
10
213.428
20
-106.015
11
213.431
21
-106.022
0
LINE
8
Black
10
213.431
20
-106.022
11
213.432
21
-106.027
0
LINE
8
Black
10
213.432
20
-106.027
11
213.434
21
-106.032
0
LINE
8
Black
10
213.434
20
-106.032
11
213.434
21
-106.04
0
LINE
8
Black
10
213.434
20
-106.04
11
213.435
21
-106.048
0
LINE
8
Black
10
213.435
20
-106.048
11
213.434
21
-106.053
0
LINE
8
Black
10
213.434
20
-106.053
11
213.434
21
-106.058
0
LINE
8
Black
10
213.434
20
-106.058
11
213.431
21
-106.066
0
LINE
8
Black
10
213.431
20
-106.066
11
213.43
21
-106.073
0
LINE
8
Black
10
213.43
20
-106.073
11
213.427
21
-106.078
0
LINE
8
Black
10
213.427
20
-106.078
11
213.425
21
-106.083
0
LINE
8
Black
10
213.425
20
-106.083
11
212.904
21
-106.972
0
LINE
8
Black
10
212.904
20
-106.972
11
212.89
21
-107.093
0
LINE
8
Black
10
212.89
20
-107.093
11
212.888
21
-107.103
0
LINE
8
Black
10
212.888
20
-107.103
11
212.886
21
-107.112
0
LINE
8
Black
10
212.886
20
-107.112
11
212.795
21
-107.343
0
LINE
8
Black
10
212.795
20
-107.343
11
212.781
21
-107.365
0
LINE
8
Black
10
212.781
20
-107.365
11
212.761
21
-107.381
0
LINE
8
Black
10
212.761
20
-107.381
11
212.736
21
-107.389
0
LINE
8
Black
10
212.736
20
-107.389
11
212.71
21
-107.388
0
LINE
8
Black
10
212.71
20
-107.388
11
212.686
21
-107.379
0
LINE
8
Black
10
212.686
20
-107.379
11
212.673
21
-107.368
0
LINE
8
Black
10
212.673
20
-107.368
11
194.917
21
-137.726
0
LINE
8
Black
10
194.917
20
-137.726
11
194.917
21
-137.725
0
LINE
8
Black
10
194.917
20
-137.725
11
194.943
21
-137.72
0
LINE
8
Black
10
194.943
20
-137.72
11
194.969
21
-137.724
0
LINE
8
Black
10
194.969
20
-137.724
11
194.992
21
-137.736
0
LINE
8
Black
10
194.992
20
-137.736
11
195.009
21
-137.756
0
LINE
8
Black
10
195.009
20
-137.756
11
195.018
21
-137.78
0
LINE
8
Black
10
195.018
20
-137.78
11
195.019
21
-137.806
0
LINE
8
Black
10
195.019
20
-137.806
11
195.011
21
-137.831
0
LINE
8
Black
10
195.011
20
-137.831
11
194.679
21
-138.444
0
LINE
8
Black
10
194.679
20
-138.444
11
194.663
21
-138.464
0
LINE
8
Black
10
194.663
20
-138.464
11
194.663
21
-138.464
0
LINE
8
Black
10
194.663
20
-138.464
11
194.293
21
-138.792
0
LINE
8
Black
10
194.293
20
-138.792
11
193.74
21
-139.738
0
LINE
8
Black
10
193.74
20
-139.738
11
193.736
21
-139.743
0
LINE
8
Black
10
193.736
20
-139.743
11
193.732
21
-139.748
0
LINE
8
Black
10
193.732
20
-139.748
11
193.727
21
-139.753
0
LINE
8
Black
10
193.727
20
-139.753
11
193.723
21
-139.758
0
LINE
8
Black
10
193.723
20
-139.758
11
193.717
21
-139.761
0
LINE
8
Black
10
193.717
20
-139.761
11
193.712
21
-139.765
0
LINE
8
Black
10
193.712
20
-139.765
11
193.706
21
-139.767
0
LINE
8
Black
10
193.706
20
-139.767
11
193.7
21
-139.771
0
LINE
8
Black
10
193.7
20
-139.771
11
193.694
21
-139.772
0
LINE
8
Black
10
193.694
20
-139.772
11
193.688
21
-139.774
0
LINE
8
Black
10
193.688
20
-139.774
11
193.681
21
-139.774
0
LINE
8
Black
10
193.681
20
-139.774
11
193.675
21
-139.775
0
LINE
8
Black
10
193.675
20
-139.775
11
193.668
21
-139.774
0
LINE
8
Black
10
193.668
20
-139.774
11
193.662
21
-139.774
0
LINE
8
Black
10
193.662
20
-139.774
11
193.655
21
-139.772
0
LINE
8
Black
10
193.655
20
-139.772
11
193.649
21
-139.77
0
LINE
8
Black
10
193.649
20
-139.77
11
193.643
21
-139.767
0
LINE
8
Black
10
193.643
20
-139.767
11
193.637
21
-139.765
0
LINE
8
Black
10
193.637
20
-139.765
11
192.669
21
-139.2
0
LINE
8
Black
10
192.669
20
-139.2
11
192.06
21
-138.997
0
LINE
8
Black
10
192.06
20
-138.997
11
192.05
21
-138.991
0
LINE
8
Black
10
192.05
20
-138.991
11
192.039
21
-138.986
0
LINE
8
Black
10
192.039
20
-138.986
11
191.575
21
-138.64
0
LINE
8
Black
10
191.575
20
-138.64
11
191.557
21
-138.621
0
LINE
8
Black
10
191.557
20
-138.621
11
191.547
21
-138.597
0
LINE
8
Black
10
191.547
20
-138.597
11
191.546
21
-138.571
0
LINE
8
Black
10
191.546
20
-138.571
11
191.552
21
-138.549
0
LINE
8
Black
10
191.552
20
-138.549
11
178.415
21
-130.885
0
LINE
8
Black
10
178.415
20
-130.885
11
156.21
21
-130.885
0
LINE
8
Black
10
156.21
20
-130.885
11
134.62
21
-130.885
0
LINE
8
Black
10
134.62
20
-130.885
11
99.06
21
-130.885
0
LINE
8
Black
10
193.47
20
-139.197
11
193.445
21
-139.202
0
LINE
8
Black
10
193.445
20
-139.202
11
192.992
21
-139.215
0
LINE
8
Black
10
192.992
20
-139.215
11
193.648
21
-139.597
0
LINE
8
Black
10
193.648
20
-139.597
11
194.006
21
-138.985
0
LINE
8
Black
10
194.006
20
-138.985
11
193.47
21
-139.197
0
LINE
8
Black
10
75.627
20
-53.2981
11
75.6374
21
-53.3206
0
LINE
8
Black
10
75.6374
20
-53.3206
11
75.6397
21
-53.3465
0
LINE
8
Black
10
75.6397
20
-53.3465
11
75.633
21
-53.3717
0
LINE
8
Black
10
75.633
20
-53.3717
11
75.618
21
-53.393
0
LINE
8
Black
10
75.618
20
-53.393
11
75.5967
21
-53.408
0
LINE
8
Black
10
75.5967
20
-53.408
11
75.5715
21
-53.4147
0
LINE
8
Black
10
75.5715
20
-53.4147
11
75.4711
21
-53.4235
0
LINE
8
Black
10
75.4711
20
-53.4235
11
75.2856
21
-53.491
0
LINE
8
Black
10
75.2856
20
-53.491
11
75.1369
21
-53.6158
0
LINE
8
Black
10
75.1369
20
-53.6158
11
75.0399
21
-53.7839
0
LINE
8
Black
10
75.0399
20
-53.7839
11
75.005
21
-53.9816
0
LINE
8
Black
10
75.005
20
-53.9816
11
75.005
21
-127.632
0
LINE
8
Black
10
75.005
20
-127.632
11
75.0521
21
-128.17
0
LINE
8
Black
10
75.0521
20
-128.17
11
75.4213
21
-129.184
0
LINE
8
Black
10
75.4213
20
-129.184
11
76.1131
21
-130.009
0
LINE
8
Black
10
76.1131
20
-130.009
11
77.0451
21
-130.547
0
LINE
8
Black
10
77.0451
20
-130.547
11
78.1116
21
-130.735
0
LINE
8
Black
10
78.1116
20
-130.735
11
99.06
21
-130.735
0
LINE
8
Black
10
99.06
20
-130.735
11
134.62
21
-130.735
0
LINE
8
Black
10
134.62
20
-130.735
11
156.21
21
-130.735
0
LINE
8
Black
10
156.21
20
-130.735
11
178.435
21
-130.735
0
LINE
8
Black
10
178.435
20
-130.735
11
178.442
21
-130.736
0
LINE
8
Black
10
178.442
20
-130.736
11
178.448
21
-130.736
0
LINE
8
Black
10
178.448
20
-130.736
11
178.454
21
-130.738
0
LINE
8
Black
10
178.454
20
-130.738
11
178.461
21
-130.74
0
LINE
8
Black
10
178.461
20
-130.74
11
178.466
21
-130.743
0
LINE
8
Black
10
178.466
20
-130.743
11
178.473
21
-130.745
0
LINE
8
Black
10
178.473
20
-130.745
11
192.731
21
-139.062
0
LINE
8
Black
10
192.731
20
-139.062
11
192.757
21
-139.071
0
LINE
8
Black
10
192.757
20
-139.071
11
193.427
21
-139.053
0
LINE
8
Black
10
193.427
20
-139.053
11
194.051
21
-138.806
0
LINE
8
Black
10
194.051
20
-138.806
11
194.175
21
-138.696
0
LINE
8
Black
10
194.175
20
-138.696
11
212.759
21
-106.924
0
LINE
8
Black
10
212.759
20
-106.924
11
212.796
21
-106.599
0
LINE
8
Black
10
212.796
20
-106.599
11
212.688
21
-106.146
0
LINE
8
Black
10
212.688
20
-106.146
11
212.431
21
-105.756
0
LINE
8
Black
10
212.431
20
-105.756
11
212.045
21
-105.47
0
LINE
8
Black
10
212.045
20
-105.47
11
212.027
21
-105.451
0
LINE
8
Black
10
212.027
20
-105.451
11
212.017
21
-105.427
0
LINE
8
Black
10
212.017
20
-105.427
11
212.015
21
-105.401
0
LINE
8
Black
10
212.015
20
-105.401
11
212.023
21
-105.376
0
LINE
8
Black
10
212.023
20
-105.376
11
212.038
21
-105.356
0
LINE
8
Black
10
212.038
20
-105.356
11
212.06
21
-105.341
0
LINE
8
Black
10
212.06
20
-105.341
11
212.083
21
-105.336
0
LINE
8
Black
10
212.083
20
-105.336
11
208.24
21
-102.934
0
LINE
8
Black
10
208.24
20
-102.934
11
208.232
21
-102.926
0
LINE
8
Black
10
208.232
20
-102.926
11
208.223
21
-102.918
0
LINE
8
Black
10
208.223
20
-102.918
11
208.222
21
-102.917
0
LINE
8
Black
10
208.222
20
-102.917
11
208.221
21
-102.916
0
LINE
8
Black
10
208.221
20
-102.916
11
208.215
21
-102.906
0
LINE
8
Black
10
208.215
20
-102.906
11
208.21
21
-102.896
0
LINE
8
Black
10
208.21
20
-102.896
11
208.209
21
-102.894
0
LINE
8
Black
10
208.209
20
-102.894
11
208.209
21
-102.893
0
LINE
8
Black
10
208.209
20
-102.893
11
208.207
21
-102.882
0
LINE
8
Black
10
208.207
20
-102.882
11
208.205
21
-102.87
0
LINE
8
Black
10
208.205
20
-102.87
11
208.205
21
-95.25
0
LINE
8
Black
10
208.205
20
-95.25
11
208.205
21
-48.9809
0
LINE
8
Black
10
208.205
20
-48.9809
11
208.182
21
-48.9727
0
LINE
8
Black
10
208.182
20
-48.9727
11
208.161
21
-48.9562
0
LINE
8
Black
10
208.161
20
-48.9562
11
208.148
21
-48.9338
0
LINE
8
Black
10
208.148
20
-48.9338
11
207.789
21
-47.9809
0
LINE
8
Black
10
207.789
20
-47.9809
11
207.097
21
-47.1561
0
LINE
8
Black
10
207.097
20
-47.1561
11
206.165
21
-46.618
0
LINE
8
Black
10
206.165
20
-46.618
11
205.098
21
-46.43
0
LINE
8
Black
10
205.098
20
-46.43
11
132.08
21
-46.43
0
LINE
8
Black
10
132.08
20
-46.43
11
116.211
21
-46.43
0
LINE
8
Black
10
116.211
20
-46.43
11
75.627
21
-53.2981
0
LINE
8
Black
10
194.536
20
-138.376
11
194.553
21
-138.361
0
LINE
8
Black
10
194.553
20
-138.361
11
194.655
21
-138.173
0
LINE
8
Black
10
194.655
20
-138.173
11
194.536
21
-138.376
0
LINE
8
Black
10
75.005
20
-130.735
11
77.2477
21
-130.735
0
LINE
8
Black
10
77.2477
20
-130.735
11
77.0061
21
-130.692
0
LINE
8
Black
10
77.0061
20
-130.692
11
76.9816
21
-130.683
0
LINE
8
Black
10
76.9816
20
-130.683
11
76.0266
21
-130.132
0
LINE
8
Black
10
76.0266
20
-130.132
11
76.0067
21
-130.115
0
LINE
8
Black
10
76.0067
20
-130.115
11
76.0067
21
-130.115
0
LINE
8
Black
10
76.0067
20
-130.115
11
75.2979
21
-129.271
0
LINE
8
Black
10
75.2979
20
-129.271
11
75.2979
21
-129.271
0
LINE
8
Black
10
75.2979
20
-129.271
11
75.2849
21
-129.248
0
LINE
8
Black
10
75.2849
20
-129.248
11
75.005
21
-128.479
0
LINE
8
Black
10
75.005
20
-128.479
11
75.005
21
-130.735
0
LINE
8
Black
10
212.531
20
-105.644
11
212.531
21
-105.644
0
LINE
8
Black
10
212.531
20
-105.644
11
212.536
21
-105.649
0
LINE
8
Black
10
212.536
20
-105.649
11
212.549
21
-105.662
0
LINE
8
Black
10
212.549
20
-105.662
11
212.549
21
-105.662
0
LINE
8
Black
10
212.549
20
-105.662
11
212.82
21
-106.074
0
LINE
8
Black
10
212.82
20
-106.074
11
212.824
21
-106.083
0
LINE
8
Black
10
212.824
20
-106.083
11
212.831
21
-106.098
0
LINE
8
Black
10
212.831
20
-106.098
11
212.945
21
-106.577
0
LINE
8
Black
10
212.945
20
-106.577
11
212.945
21
-106.578
0
LINE
8
Black
10
212.945
20
-106.578
11
212.947
21
-106.603
0
LINE
8
Black
10
212.947
20
-106.603
11
213.258
21
-106.07
0
LINE
8
Black
10
213.258
20
-106.07
11
212.288
21
-105.463
0
LINE
8
Black
10
212.288
20
-105.463
11
212.531
21
-105.644
0
LINE
8
Black
10
75.005
20
-53.4034
11
75.005
21
-53.5442
0
LINE
8
Black
10
75.005
20
-53.5442
11
75.0136
21
-53.5293
0
LINE
8
Black
10
75.0136
20
-53.5293
11
75.0304
21
-53.5094
0
LINE
8
Black
10
75.0304
20
-53.5094
11
75.0304
21
-53.5094
0
LINE
8
Black
10
75.0304
20
-53.5094
11
75.195
21
-53.3712
0
LINE
8
Black
10
75.195
20
-53.3712
11
75.005
21
-53.4034
0
LINE
8
Black
10
205.962
20
-46.43
11
206.204
21
-46.4726
0
LINE
8
Black
10
206.204
20
-46.4726
11
206.228
21
-46.4815
0
LINE
8
Black
10
206.228
20
-46.4815
11
206.228
21
-46.4815
0
LINE
8
Black
10
206.228
20
-46.4815
11
207.183
21
-47.0329
0
LINE
8
Black
10
207.183
20
-47.0329
11
207.203
21
-47.0496
0
LINE
8
Black
10
207.203
20
-47.0496
11
207.203
21
-47.0496
0
LINE
8
Black
10
207.203
20
-47.0496
11
207.912
21
-47.8943
0
LINE
8
Black
10
207.912
20
-47.8943
11
207.918
21
-47.9052
0
LINE
8
Black
10
207.918
20
-47.9052
11
207.925
21
-47.916
0
LINE
8
Black
10
207.925
20
-47.916
11
208.205
21
-48.6593
0
LINE
8
Black
10
208.205
20
-48.6593
11
208.205
21
-46.43
0
LINE
8
Black
10
208.205
20
-46.43
11
205.962
21
-46.43
  0
ENDSEC
  0
EOF
