M48
;DRILL file {KiCad (5.0.0)} date 10/09/18 09:10:58
;FORMAT={-:-/ absolute / inch / decimal}
FMAT,2
INCH,TZ
T1C0.0118
T2C0.0157
T3C0.0276
T4C0.0315
T5C0.0394
T6C0.0430
T7C0.0472
%
G90
G05
M72
T1
X6.7546Y-1.99
X6.7546Y-1.99
X6.79Y-1.99
X6.79Y-1.99
T2
X3.44Y-4.76
X3.8Y-2.22
X3.82Y-5.
X3.86Y-4.12
X3.9Y-4.98
X3.98Y-3.68
X4.0369Y-2.7569
X4.04Y-4.9754
X4.1Y-2.0896
X4.26Y-2.6
X4.26Y-4.9154
X4.45Y-1.9772
X4.45Y-2.1228
X4.45Y-2.1228
X4.6063Y-2.7047
X4.64Y-4.86
X4.6555Y-2.7067
X4.6555Y-2.7953
X4.7Y-2.1
X4.7443Y-2.64
X4.92Y-2.1
X4.94Y-2.86
X4.94Y-3.2
X5.18Y-2.78
X5.42Y-2.42
X5.46Y-2.92
X5.48Y-4.7
X5.6Y-1.9
X5.68Y-2.78
X5.7Y-2.6
X5.7Y-3.52
X6.Y-3.525
X6.015Y-3.87
X6.0677Y-3.4393
X6.08Y-2.02
X6.1Y-3.34
X6.25Y-3.4
X6.38Y-3.26
X6.42Y-2.12
X6.42Y-3.
X6.46Y-2.28
X6.62Y-2.
X6.7Y-3.45
X6.7Y-3.56
X7.06Y-3.46
X7.08Y-1.94
X7.6554Y-2.0627
X7.7422Y-2.0627
X7.9015Y-2.0627
X7.94Y-2.8
X8.0187Y-2.0627
T3
X7.75Y-3.7
X8.0571Y-3.7
X7.45Y-3.0465
X7.45Y-3.3535
X7.45Y-2.3028
X7.45Y-2.6098
X3.7Y-3.1465
X3.7Y-3.4535
X3.675Y-2.3965
X3.675Y-2.7035
X7.2Y-4.4094
X7.2Y-4.7165
X7.05Y-4.4179
X7.05Y-4.725
X7.7028Y-3.
X8.0098Y-3.
X7.45Y-3.7652
X7.45Y-4.0722
X6.7Y-2.9715
X6.7Y-3.2785
X5.15Y-2.2094
X5.15Y-2.5165
X4.45Y-3.8085
X4.45Y-4.1156
X6.7Y-3.7
X6.7Y-4.0071
X6.7Y-2.2085
X6.7Y-2.5156
X3.675Y-4.6344
X3.675Y-4.9415
X4.45Y-3.0652
X4.45Y-3.3722
X5.2Y-3.6965
X5.2Y-4.0035
X6.1Y-4.3594
X6.1Y-4.6665
X5.95Y-4.3585
X5.95Y-4.6656
X4.45Y-2.2965
X4.45Y-2.6035
X7.7465Y-3.8
X8.0535Y-3.8
X6.Y-2.2179
X6.Y-2.525
X5.175Y-3.1465
X5.175Y-3.4535
X3.7Y-3.8965
X3.7Y-4.2035
X5.95Y-3.1465
X5.95Y-3.4535
X5.95Y-3.6215
X5.95Y-3.9285
X5.2Y-4.4585
X5.2Y-4.7656
X4.45Y-4.5465
X4.45Y-4.8535
T4
X6.8844Y-2.06
X7.2844Y-2.06
X5.32Y-4.8613
X5.32Y-4.94
X5.3987Y-4.8613
X5.3987Y-4.94
X5.4775Y-4.8613
X5.4775Y-4.94
X5.5562Y-4.8613
X5.5562Y-4.94
X5.635Y-4.8613
X5.635Y-4.94
X5.7137Y-4.8613
X5.7137Y-4.94
X5.7924Y-4.8613
X5.7924Y-4.94
X5.8712Y-4.8613
X5.8712Y-4.94
X5.9499Y-4.8613
X5.9499Y-4.94
X6.0287Y-4.8613
X6.0287Y-4.94
X6.8831Y-1.93
X7.2831Y-1.93
T5
X7.Y-4.3
X7.1Y-4.3
X3.6515Y-2.1045
X3.75Y-2.0872
X3.8485Y-2.0698
X3.947Y-2.0524
X4.0454Y-2.0351
X4.1439Y-2.0177
X6.14Y-1.92
X6.24Y-1.92
X6.34Y-1.92
X6.44Y-1.92
X6.54Y-1.92
X4.9425Y-1.9591
X5.0425Y-1.9591
T6
X5.2764Y-1.9706
X5.2764Y-2.0706
X5.2764Y-2.1706
X5.2764Y-2.2706
X5.2764Y-2.3706
X5.2764Y-2.4706
X5.2764Y-2.5706
X5.2764Y-2.6706
X5.2764Y-2.7706
X5.2764Y-2.8706
X5.2764Y-2.9706
X5.2764Y-3.0706
X5.8764Y-1.9706
X5.8764Y-2.0706
X5.8764Y-2.1706
X5.8764Y-2.2706
X5.8764Y-2.3706
X5.8764Y-2.4706
X5.8764Y-2.5706
X5.8764Y-2.6706
X5.8764Y-2.7706
X5.8764Y-2.8706
X5.8764Y-2.9706
X5.8764Y-3.0706
T7
X7.6275Y-3.2117
X7.8243Y-3.129
X8.0212Y-3.2117
X7.2682Y-5.065
X7.295Y-4.8532
X7.465Y-4.724
X5.3803Y-2.0866
X5.5772Y-2.0039
X5.774Y-2.0866
X5.3772Y-4.3392
X5.5741Y-4.2565
X5.7709Y-4.3392
X6.1273Y-3.6805
X6.3242Y-3.5978
X6.521Y-3.6805
X6.4165Y-4.4807
X6.6247Y-4.4335
X6.8042Y-4.5491
X6.8774Y-3.7743
X7.0742Y-3.6916
X7.2711Y-3.7743
X3.127Y-4.6181
X3.3238Y-4.5354
X3.5207Y-4.6181
X4.6271Y-2.9328
X4.824Y-2.8501
X5.0208Y-2.9328
X6.8797Y-3.0265
X7.0766Y-2.9439
X7.2734Y-3.0265
X3.127Y-3.1203
X3.3238Y-3.0376
X3.5207Y-3.1203
X4.6248Y-3.6805
X4.8216Y-3.5978
X5.0185Y-3.6805
X6.8774Y-2.2741
X7.0742Y-2.1914
X7.2711Y-2.2741
X4.6271Y-2.178
X4.824Y-2.0953
X5.0208Y-2.178
X5.3788Y-2.8367
X5.5757Y-2.754
X5.7725Y-2.8367
X3.877Y-4.5267
X4.0739Y-4.444
X4.2707Y-4.5267
X7.6448Y-4.4136
X7.6716Y-4.2018
X7.8416Y-4.0726
X4.6287Y-4.4329
X4.8256Y-4.3503
X5.0224Y-4.4329
X3.127Y-3.8704
X3.3238Y-3.7877
X3.5207Y-3.8704
X3.8794Y-3.0289
X4.0762Y-2.9462
X4.2731Y-3.0289
X3.8794Y-2.2765
X4.0762Y-2.1938
X4.2731Y-2.2765
X3.1277Y-2.3679
X3.3246Y-2.2852
X3.5214Y-2.3679
X6.1273Y-2.1803
X6.3242Y-2.0977
X6.521Y-2.1803
X7.6291Y-2.4603
X7.8259Y-2.3777
X8.0228Y-2.4603
X6.1273Y-2.9328
X6.3242Y-2.8501
X6.521Y-2.9328
X3.8794Y-3.7743
X4.0762Y-3.6916
X4.2731Y-3.7743
X5.3796Y-3.5891
X5.5764Y-3.5064
X5.7733Y-3.5891
T0
M30
