M48
;DRILL file {KiCad (5.0.0)} date 10/09/18 09:10:58
;FORMAT={-:-/ absolute / inch / decimal}
FMAT,2
INCH,TZ
T1C0.0591
T2C0.0669
T3C0.0866
T4C0.1339
%
G90
G05
M72
T1
X7.8061Y-2.0669
X8.0817Y-2.0669
X7.8061Y-2.0669
X8.0817Y-2.0669
T2
X7.6078Y-3.3613
X8.0409Y-3.3613
X7.3879Y-5.1568
X7.6044Y-4.7818
X5.3606Y-2.2362
X5.7937Y-2.2362
X5.3575Y-4.4888
X5.7906Y-4.4888
X6.1076Y-3.8301
X6.5407Y-3.8301
X6.3711Y-4.6246
X6.7976Y-4.6998
X6.8577Y-3.9239
X7.2908Y-3.9239
X3.1073Y-4.7677
X3.5403Y-4.7677
X4.6074Y-3.0824
X5.0405Y-3.0824
X6.86Y-3.1761
X7.2931Y-3.1761
X3.1073Y-3.2699
X3.5403Y-3.2699
X4.6051Y-3.8301
X5.0382Y-3.8301
X6.8577Y-2.4237
X7.2908Y-2.4237
X4.6074Y-2.3276
X5.0405Y-2.3276
X5.3591Y-2.9863
X5.7922Y-2.9863
X3.8574Y-4.6763
X4.2904Y-4.6763
X7.7645Y-4.5055
X7.981Y-4.1304
X4.609Y-4.5826
X5.0421Y-4.5826
X3.1073Y-4.02
X3.5403Y-4.02
X3.8597Y-3.1785
X4.2928Y-3.1785
X3.8597Y-2.4261
X4.2928Y-2.4261
X3.108Y-2.5175
X3.5411Y-2.5175
X6.1076Y-2.33
X6.5407Y-2.33
X7.6094Y-2.61
X8.0424Y-2.61
X6.1076Y-3.0824
X6.5407Y-3.0824
X3.8597Y-3.9239
X4.2928Y-3.9239
X5.3599Y-3.7387
X5.7929Y-3.7387
T3
X5.0591Y-4.2067
X3.6992Y-4.3445
X5.0591Y-2.7067
X6.0988Y-4.2067
X7.4508Y-2.8406
X3.6992Y-2.8406
X6.0988Y-2.7067
X7.275Y-4.3
T4
X6.3242Y-3.0824
X4.0762Y-3.9239
X5.5764Y-3.7387
X7.8243Y-3.3613
X7.4962Y-4.9693
X5.5772Y-2.2362
X5.5741Y-4.4888
X6.3242Y-3.8301
X6.5843Y-4.6622
X7.0742Y-3.9239
X3.3238Y-4.7677
X4.824Y-3.0824
X7.0766Y-3.1761
X3.3238Y-3.2699
X4.8216Y-3.8301
X7.0742Y-2.4237
X4.824Y-2.3276
X5.5757Y-2.9863
X4.0739Y-4.6763
X7.8728Y-4.3179
X4.8256Y-4.5826
X3.3238Y-4.02
X4.0762Y-3.1785
X4.0762Y-2.4261
X3.3246Y-2.5175
X6.3242Y-2.33
X7.8259Y-2.61
T0
M30
