G04 #@! TF.GenerationSoftware,KiCad,Pcbnew,(5.0.0)*
G04 #@! TF.CreationDate,2018-10-09T09:10:51-06:00*
G04 #@! TF.ProjectId,ErgoTravel,4572676F54726176656C2E6B69636164,rev?*
G04 #@! TF.SameCoordinates,Original*
G04 #@! TF.FileFunction,Paste,Top*
G04 #@! TF.FilePolarity,Positive*
%FSLAX46Y46*%
G04 Gerber Fmt 4.6, Leading zero omitted, Abs format (unit mm)*
G04 Created by KiCad (PCBNEW (5.0.0)) date 10/09/18 09:10:51*
%MOMM*%
%LPD*%
G01*
G04 APERTURE LIST*
%ADD10R,1.200000X1.200000*%
%ADD11R,1.200000X2.500000*%
%ADD12R,1.800000X1.100000*%
G04 APERTURE END LIST*
D10*
G04 #@! TO.C,D1*
X93345000Y-63195000D03*
X93345000Y-66345000D03*
G04 #@! TD*
G04 #@! TO.C,D2*
X93980000Y-82245000D03*
X93980000Y-85395000D03*
G04 #@! TD*
G04 #@! TO.C,D3*
X93980000Y-101295000D03*
X93980000Y-104445000D03*
G04 #@! TD*
G04 #@! TO.C,D4*
X93345000Y-120040000D03*
X93345000Y-123190000D03*
G04 #@! TD*
G04 #@! TO.C,D5*
X113030000Y-60655000D03*
X113030000Y-63805000D03*
G04 #@! TD*
G04 #@! TO.C,D6*
X113030000Y-80180000D03*
X113030000Y-83330000D03*
G04 #@! TD*
G04 #@! TO.C,D7*
X113030000Y-99060000D03*
X113030000Y-102210000D03*
G04 #@! TD*
G04 #@! TO.C,D8*
X113030000Y-117805000D03*
X113030000Y-120955000D03*
G04 #@! TD*
G04 #@! TO.C,D9*
X130810000Y-58445000D03*
X130810000Y-61595000D03*
G04 #@! TD*
G04 #@! TO.C,D10*
X131445000Y-82245000D03*
X131445000Y-85395000D03*
G04 #@! TD*
G04 #@! TO.C,D11*
X132080000Y-96215000D03*
X132080000Y-99365000D03*
G04 #@! TD*
G04 #@! TO.C,D12*
X132080000Y-115570000D03*
X132080000Y-118720000D03*
G04 #@! TD*
G04 #@! TO.C,D13*
X152400000Y-58660000D03*
X152400000Y-61810000D03*
G04 #@! TD*
G04 #@! TO.C,D14*
X151130000Y-82245000D03*
X151130000Y-85395000D03*
G04 #@! TD*
G04 #@! TO.C,D15*
X151130000Y-94310000D03*
X151130000Y-97460000D03*
G04 #@! TD*
G04 #@! TO.C,D16*
X151130000Y-113030000D03*
X151130000Y-116180000D03*
G04 #@! TD*
G04 #@! TO.C,D17*
X170180000Y-58420000D03*
X170180000Y-61570000D03*
G04 #@! TD*
G04 #@! TO.C,D18*
X170180000Y-77800000D03*
X170180000Y-80950000D03*
G04 #@! TD*
G04 #@! TO.C,D19*
X170180000Y-96305000D03*
X170180000Y-99455000D03*
G04 #@! TD*
G04 #@! TO.C,D20*
X179070000Y-114540000D03*
X179070000Y-117690000D03*
G04 #@! TD*
G04 #@! TO.C,D21*
X189230000Y-60815000D03*
X189230000Y-63965000D03*
G04 #@! TD*
G04 #@! TO.C,D22*
X189230000Y-79705000D03*
X189230000Y-82855000D03*
G04 #@! TD*
G04 #@! TO.C,D23*
X189230000Y-97960000D03*
X189230000Y-101110000D03*
G04 #@! TD*
G04 #@! TO.C,D24*
X182880000Y-114325000D03*
X182880000Y-117475000D03*
G04 #@! TD*
G04 #@! TO.C,D25*
X201125000Y-76200000D03*
X197975000Y-76200000D03*
G04 #@! TD*
G04 #@! TO.C,D26*
X202325000Y-93980000D03*
X199175000Y-93980000D03*
G04 #@! TD*
G04 #@! TO.C,D27*
X202235000Y-96520000D03*
X199085000Y-96520000D03*
G04 #@! TD*
D11*
G04 #@! TO.C,J2*
X195575000Y-49250000D03*
X196675000Y-55750000D03*
X200675000Y-55750000D03*
X203675000Y-55750000D03*
G04 #@! TD*
D12*
G04 #@! TO.C,SW1*
X116130000Y-53666000D03*
X109930000Y-53666000D03*
X116130000Y-49966000D03*
X109930000Y-49966000D03*
G04 #@! TD*
D10*
G04 #@! TO.C,D28*
X154940000Y-113054999D03*
X154940000Y-116204999D03*
G04 #@! TD*
M02*
