G04 #@! TF.GenerationSoftware,KiCad,Pcbnew,(5.0.0)*
G04 #@! TF.CreationDate,2018-10-09T09:10:51-06:00*
G04 #@! TF.ProjectId,ErgoTravel,4572676F54726176656C2E6B69636164,rev?*
G04 #@! TF.SameCoordinates,Original*
G04 #@! TF.FileFunction,Soldermask,Top*
G04 #@! TF.FilePolarity,Negative*
%FSLAX46Y46*%
G04 Gerber Fmt 4.6, Leading zero omitted, Abs format (unit mm)*
G04 Created by KiCad (PCBNEW (5.0.0)) date 10/09/18 09:10:51*
%MOMM*%
%LPD*%
G01*
G04 APERTURE LIST*
%ADD10C,2.400000*%
%ADD11R,1.600000X1.600000*%
%ADD12R,2.000000X2.000000*%
%ADD13C,2.000000*%
%ADD14R,1.600000X2.900000*%
%ADD15C,1.900000*%
%ADD16R,2.200000X1.500000*%
%ADD17R,2.152600X2.152600*%
%ADD18C,2.152600*%
%ADD19C,2.100000*%
%ADD20C,0.100000*%
%ADD21C,2.100000*%
%ADD22O,2.000000X2.000000*%
%ADD23C,2.600000*%
%ADD24R,2.100000X2.100000*%
%ADD25O,2.100000X2.100000*%
%ADD26R,0.802000X1.402000*%
%ADD27R,1.750000X1.750000*%
%ADD28O,1.750000X1.750000*%
G04 APERTURE END LIST*
D10*
G04 #@! TO.C,K1*
X89444288Y-60143812D03*
X84444288Y-58043812D03*
X79444288Y-60143812D03*
G04 #@! TD*
G04 #@! TO.C,K7*
X98536582Y-95866612D03*
X103536582Y-93766612D03*
X108536582Y-95866612D03*
G04 #@! TD*
G04 #@! TO.C,K3*
X89424884Y-98307670D03*
X84424884Y-96207670D03*
X79424884Y-98307670D03*
G04 #@! TD*
D11*
G04 #@! TO.C,D1*
X93345000Y-63195000D03*
X93345000Y-66345000D03*
D12*
X93345000Y-68670000D03*
D13*
X93345000Y-60870000D03*
G04 #@! TD*
D11*
G04 #@! TO.C,D2*
X93980000Y-82245000D03*
X93980000Y-85395000D03*
D12*
X93980000Y-87720000D03*
D13*
X93980000Y-79920000D03*
G04 #@! TD*
D11*
G04 #@! TO.C,D3*
X93980000Y-101295000D03*
X93980000Y-104445000D03*
D12*
X93980000Y-106770000D03*
D13*
X93980000Y-98970000D03*
G04 #@! TD*
D11*
G04 #@! TO.C,D4*
X93345000Y-120040000D03*
X93345000Y-123190000D03*
D12*
X93345000Y-125515000D03*
D13*
X93345000Y-117715000D03*
G04 #@! TD*
D11*
G04 #@! TO.C,D5*
X113030000Y-60655000D03*
X113030000Y-63805000D03*
D12*
X113030000Y-66130000D03*
D13*
X113030000Y-58330000D03*
G04 #@! TD*
D11*
G04 #@! TO.C,D6*
X113030000Y-80180000D03*
X113030000Y-83330000D03*
D12*
X113030000Y-85655000D03*
D13*
X113030000Y-77855000D03*
G04 #@! TD*
D11*
G04 #@! TO.C,D7*
X113030000Y-99060000D03*
X113030000Y-102210000D03*
D12*
X113030000Y-104535000D03*
D13*
X113030000Y-96735000D03*
G04 #@! TD*
D11*
G04 #@! TO.C,D8*
X113030000Y-117805000D03*
X113030000Y-120955000D03*
D12*
X113030000Y-123280000D03*
D13*
X113030000Y-115480000D03*
G04 #@! TD*
D11*
G04 #@! TO.C,D9*
X130810000Y-58445000D03*
X130810000Y-61595000D03*
D12*
X130810000Y-63920000D03*
D13*
X130810000Y-56120000D03*
G04 #@! TD*
D11*
G04 #@! TO.C,D10*
X131445000Y-82245000D03*
X131445000Y-85395000D03*
D12*
X131445000Y-87720000D03*
D13*
X131445000Y-79920000D03*
G04 #@! TD*
D11*
G04 #@! TO.C,D11*
X132080000Y-96215000D03*
X132080000Y-99365000D03*
D12*
X132080000Y-101690000D03*
D13*
X132080000Y-93890000D03*
G04 #@! TD*
D11*
G04 #@! TO.C,D12*
X132080000Y-115570000D03*
X132080000Y-118720000D03*
D12*
X132080000Y-121045000D03*
D13*
X132080000Y-113245000D03*
G04 #@! TD*
D11*
G04 #@! TO.C,D13*
X152400000Y-58660000D03*
X152400000Y-61810000D03*
D12*
X152400000Y-64135000D03*
D13*
X152400000Y-56335000D03*
G04 #@! TD*
D11*
G04 #@! TO.C,D14*
X151130000Y-82245000D03*
X151130000Y-85395000D03*
D12*
X151130000Y-87720000D03*
D13*
X151130000Y-79920000D03*
G04 #@! TD*
D11*
G04 #@! TO.C,D15*
X151130000Y-94310000D03*
X151130000Y-97460000D03*
D12*
X151130000Y-99785000D03*
D13*
X151130000Y-91985000D03*
G04 #@! TD*
D11*
G04 #@! TO.C,D16*
X151130000Y-113030000D03*
X151130000Y-116180000D03*
D12*
X151130000Y-118505000D03*
D13*
X151130000Y-110705000D03*
G04 #@! TD*
D11*
G04 #@! TO.C,D17*
X170180000Y-58420000D03*
X170180000Y-61570000D03*
D12*
X170180000Y-63895000D03*
D13*
X170180000Y-56095000D03*
G04 #@! TD*
D11*
G04 #@! TO.C,D18*
X170180000Y-77800000D03*
X170180000Y-80950000D03*
D12*
X170180000Y-83275000D03*
D13*
X170180000Y-75475000D03*
G04 #@! TD*
D11*
G04 #@! TO.C,D19*
X170180000Y-96305000D03*
X170180000Y-99455000D03*
D12*
X170180000Y-101780000D03*
D13*
X170180000Y-93980000D03*
G04 #@! TD*
D11*
G04 #@! TO.C,D20*
X179070000Y-114540000D03*
X179070000Y-117690000D03*
D12*
X179070000Y-120015000D03*
D13*
X179070000Y-112215000D03*
G04 #@! TD*
D11*
G04 #@! TO.C,D21*
X189230000Y-60815000D03*
X189230000Y-63965000D03*
D12*
X189230000Y-66290000D03*
D13*
X189230000Y-58490000D03*
G04 #@! TD*
D11*
G04 #@! TO.C,D22*
X189230000Y-79705000D03*
X189230000Y-82855000D03*
D12*
X189230000Y-85180000D03*
D13*
X189230000Y-77380000D03*
G04 #@! TD*
D11*
G04 #@! TO.C,D23*
X189230000Y-97960000D03*
X189230000Y-101110000D03*
D12*
X189230000Y-103435000D03*
D13*
X189230000Y-95635000D03*
G04 #@! TD*
D11*
G04 #@! TO.C,D24*
X182880000Y-114325000D03*
X182880000Y-117475000D03*
D12*
X182880000Y-119800000D03*
D13*
X182880000Y-112000000D03*
G04 #@! TD*
D11*
G04 #@! TO.C,D25*
X201125000Y-76200000D03*
X197975000Y-76200000D03*
D12*
X195650000Y-76200000D03*
D13*
X203450000Y-76200000D03*
G04 #@! TD*
D11*
G04 #@! TO.C,D26*
X202325000Y-93980000D03*
X199175000Y-93980000D03*
D12*
X196850000Y-93980000D03*
D13*
X204650000Y-93980000D03*
G04 #@! TD*
D11*
G04 #@! TO.C,D27*
X202235000Y-96520000D03*
X199085000Y-96520000D03*
D12*
X196760000Y-96520000D03*
D13*
X204560000Y-96520000D03*
G04 #@! TD*
D14*
G04 #@! TO.C,J2*
X195575000Y-49250000D03*
X196675000Y-55750000D03*
X200675000Y-55750000D03*
X203675000Y-55750000D03*
D15*
X205275000Y-52500000D03*
X198275000Y-52500000D03*
G04 #@! TD*
G04 #@! TO.C,J3*
X205275000Y-52500000D03*
X198275000Y-52500000D03*
G04 #@! TD*
D16*
G04 #@! TO.C,SW1*
X116130000Y-53666000D03*
X109930000Y-53666000D03*
X116130000Y-49966000D03*
X109930000Y-49966000D03*
G04 #@! TD*
D17*
G04 #@! TO.C,U1*
X134020038Y-50054000D03*
D18*
X134020038Y-52594000D03*
X134020038Y-55134000D03*
X134020038Y-57674000D03*
X134020038Y-60214000D03*
X134020038Y-62754000D03*
X134020038Y-65294000D03*
X134020038Y-67834000D03*
X134020038Y-70374000D03*
X134020038Y-72914000D03*
X134020038Y-75454000D03*
X134020038Y-77994000D03*
X149260038Y-77994000D03*
X149260038Y-75454000D03*
X149260038Y-72914000D03*
X149260038Y-70374000D03*
X149260038Y-67834000D03*
X149260038Y-65294000D03*
X149260038Y-62754000D03*
X149260038Y-60214000D03*
X149260038Y-57674000D03*
X149260038Y-55134000D03*
X149260038Y-52594000D03*
X149260038Y-50054000D03*
G04 #@! TD*
D19*
G04 #@! TO.C,J4*
X105255647Y-51250000D03*
D20*
G36*
X104039268Y-50398282D02*
X106107365Y-50033621D01*
X106472026Y-52101718D01*
X104403929Y-52466379D01*
X104039268Y-50398282D01*
X104039268Y-50398282D01*
G37*
D19*
X102754235Y-51691066D03*
D21*
X102754235Y-51691066D02*
X102754235Y-51691066D01*
D19*
X100252824Y-52132133D03*
D21*
X100252824Y-52132133D02*
X100252824Y-52132133D01*
D19*
X97751412Y-52573199D03*
D21*
X97751412Y-52573199D02*
X97751412Y-52573199D01*
D19*
X95250000Y-53014265D03*
D21*
X95250000Y-53014265D02*
X95250000Y-53014265D01*
D19*
X92748589Y-53455332D03*
D21*
X92748589Y-53455332D02*
X92748589Y-53455332D01*
G04 #@! TD*
D13*
G04 #@! TO.C,R1*
X174863760Y-52324000D03*
D22*
X185023760Y-52324000D03*
G04 #@! TD*
D13*
G04 #@! TO.C,R2*
X174830740Y-49022000D03*
D22*
X184990740Y-49022000D03*
G04 #@! TD*
D23*
G04 #@! TO.C,J5*
X93960000Y-110350000D03*
G04 #@! TD*
G04 #@! TO.C,J6*
X93960000Y-72150000D03*
G04 #@! TD*
G04 #@! TO.C,J7*
X189250000Y-72150000D03*
G04 #@! TD*
G04 #@! TO.C,J8*
X184785000Y-109220000D03*
G04 #@! TD*
G04 #@! TO.C,J9*
X128500000Y-68750000D03*
G04 #@! TD*
G04 #@! TO.C,J10*
X128500000Y-106850000D03*
G04 #@! TD*
G04 #@! TO.C,J11*
X154910000Y-68750000D03*
G04 #@! TD*
G04 #@! TO.C,J12*
X154910000Y-106850000D03*
G04 #@! TD*
D24*
G04 #@! TO.C,J1*
X166116000Y-48768000D03*
D25*
X163576000Y-48768000D03*
X161036000Y-48768000D03*
X158496000Y-48768000D03*
X155956000Y-48768000D03*
G04 #@! TD*
D26*
G04 #@! TO.C,SJ1*
X172466000Y-50546000D03*
X171566000Y-50546000D03*
X171566000Y-50546000D03*
X172466000Y-50546000D03*
G04 #@! TD*
D11*
G04 #@! TO.C,D28*
X154940000Y-113054999D03*
X154940000Y-116204999D03*
D12*
X154940000Y-118529999D03*
D13*
X154940000Y-110729999D03*
G04 #@! TD*
D24*
G04 #@! TO.C,J13*
X177800000Y-109220000D03*
D25*
X180340000Y-109220000D03*
G04 #@! TD*
D24*
G04 #@! TO.C,J14*
X125539999Y-49760000D03*
D25*
X128079999Y-49760000D03*
G04 #@! TD*
D10*
G04 #@! TO.C,K2*
X79424884Y-79255510D03*
X84424884Y-77155510D03*
X89424884Y-79255510D03*
G04 #@! TD*
G04 #@! TO.C,K4*
X79424884Y-117300292D03*
X84424884Y-115200292D03*
X89424884Y-117300292D03*
G04 #@! TD*
G04 #@! TO.C,K5*
X108536582Y-57821830D03*
X103536582Y-55721830D03*
X98536582Y-57821830D03*
G04 #@! TD*
G04 #@! TO.C,K6*
X108536582Y-76933528D03*
X103536582Y-74833528D03*
X98536582Y-76933528D03*
G04 #@! TD*
G04 #@! TO.C,K8*
X108477044Y-114978310D03*
X103477044Y-112878310D03*
X98477044Y-114978310D03*
G04 #@! TD*
G04 #@! TO.C,K9*
X117529204Y-55321234D03*
X122529204Y-53221234D03*
X127529204Y-55321234D03*
G04 #@! TD*
G04 #@! TO.C,K10*
X117529204Y-74492470D03*
X122529204Y-72392470D03*
X127529204Y-74492470D03*
G04 #@! TD*
G04 #@! TO.C,K11*
X117469666Y-93485092D03*
X122469666Y-91385092D03*
X127469666Y-93485092D03*
G04 #@! TD*
G04 #@! TO.C,K12*
X117569472Y-112596790D03*
X122569472Y-110496790D03*
X127569472Y-112596790D03*
G04 #@! TD*
G04 #@! TO.C,K13*
X146660172Y-52999252D03*
X141660172Y-50899252D03*
X136660172Y-52999252D03*
G04 #@! TD*
G04 #@! TO.C,K14*
X146621632Y-72051412D03*
X141621632Y-69951412D03*
X136621632Y-72051412D03*
G04 #@! TD*
G04 #@! TO.C,K15*
X146640902Y-91163110D03*
X141640902Y-89063110D03*
X136640902Y-91163110D03*
G04 #@! TD*
G04 #@! TO.C,K16*
X136581364Y-110215270D03*
X141581364Y-108115270D03*
X146581364Y-110215270D03*
G04 #@! TD*
G04 #@! TO.C,K17*
X155633524Y-55380772D03*
X160633524Y-53280772D03*
X165633524Y-55380772D03*
G04 #@! TD*
G04 #@! TO.C,K18*
X155633524Y-74492470D03*
X160633524Y-72392470D03*
X165633524Y-74492470D03*
G04 #@! TD*
G04 #@! TO.C,K19*
X165633524Y-93485092D03*
X160633524Y-91385092D03*
X155633524Y-93485092D03*
G04 #@! TD*
G04 #@! TO.C,K20*
X162978066Y-113810572D03*
X168266766Y-112610716D03*
X172826144Y-115547053D03*
G04 #@! TD*
G04 #@! TO.C,K21*
X184685684Y-57762292D03*
X179685684Y-55662292D03*
X174685684Y-57762292D03*
G04 #@! TD*
G04 #@! TO.C,K22*
X184745222Y-76873990D03*
X179745222Y-74773990D03*
X174745222Y-76873990D03*
G04 #@! TD*
G04 #@! TO.C,K23*
X174685684Y-95866612D03*
X179685684Y-93766612D03*
X184685684Y-95866612D03*
G04 #@! TD*
G04 #@! TO.C,K24*
X189611627Y-119990433D03*
X185292974Y-123270560D03*
X184611627Y-128650687D03*
G04 #@! TD*
G04 #@! TO.C,K26*
X193777978Y-62492754D03*
X198777978Y-60392754D03*
X203777978Y-62492754D03*
G04 #@! TD*
G04 #@! TO.C,K27*
X203737844Y-81577492D03*
X198737844Y-79477492D03*
X193737844Y-81577492D03*
G04 #@! TD*
G04 #@! TO.C,K28*
X194177111Y-112105526D03*
X194858458Y-106725399D03*
X199177111Y-103445272D03*
G04 #@! TD*
D27*
G04 #@! TO.C,J15*
X135128000Y-125476000D03*
D28*
X135128000Y-123476000D03*
X137128000Y-125476000D03*
X137128000Y-123476000D03*
X139128000Y-125476000D03*
X139128000Y-123476000D03*
X141128000Y-125476000D03*
X141128000Y-123476000D03*
X143128000Y-125476000D03*
X143128000Y-123476000D03*
X145128000Y-125476000D03*
X145128000Y-123476000D03*
X147128000Y-125476000D03*
X147128000Y-123476000D03*
X149128000Y-125476000D03*
X149128000Y-123476000D03*
X151128000Y-125476000D03*
X151128000Y-123476000D03*
X153128000Y-125476000D03*
X153128000Y-123476000D03*
G04 #@! TD*
M02*
