  0
SECTION
  2
HEADER
  9
$ACADVER
  1
AC1009
  9
$EXTMIN
 10
0.0
 20
0.0
 30
0.0
  9
$EXTMAX
 10
1000.0
 20
1000.0
 30
0.0
  9
$FILLMODE
 70
 0
  9
$SPLFRAME
 70
 1
  0
ENDSEC
  0
SECTION
  2
TABLES
  0
TABLE
  2
LAYER
 70
1
  0
LAYER
  2
0
 70
     0
 62
     7
  6
CONTINUOUS
  0
ENDTAB
  0
ENDSEC
  0
SECTION
  2
ENTITIES
  0
LINE
  8
0
 62
     0
 10
0.0937066
 20
112
 30
0.0
 11
158.122
 21
112
 31
0.0
  0
LINE
  8
0
 62
     0
 10
158.122
 20
112
 30
0.0
 11
158.122
 21
0.0868165
 31
0.0
  0
LINE
  8
0
 62
     0
 10
158.122
 20
0.0868165
 30
0.0
 11
0.0937066
 21
0.0868165
 31
0.0
  0
LINE
  8
0
 62
     0
 10
0.0937066
 20
0.0868165
 30
0.0
 11
0.0937066
 21
112
 31
0.0
  0
LINE
  8
0
 62
     0
 10
122.521
 20
31.7955
 30
0.0
 11
121.828
 21
32.1965
 31
0.0
  0
LINE
  8
0
 62
     0
 10
121.828
 20
32.1965
 30
0.0
 11
120.279
 21
29.5121
 31
0.0
  0
LINE
  8
0
 62
     0
 10
120.279
 20
29.5121
 30
0.0
 11
120.971
 21
29.1124
 31
0.0
  0
LINE
  8
0
 62
     0
 10
120.971
 20
29.1124
 30
0.0
 11
118.072
 21
24.0895
 31
0.0
  0
LINE
  8
0
 62
     0
 10
118.072
 20
24.0895
 30
0.0
 11
117.379
 21
24.4891
 31
0.0
  0
LINE
  8
0
 62
     0
 10
117.379
 20
24.4891
 30
0.0
 11
115.828
 21
21.8047
 31
0.0
  0
LINE
  8
0
 62
     0
 10
115.828
 20
21.8047
 30
0.0
 11
116.521
 21
21.4037
 31
0.0
  0
LINE
  8
0
 62
     0
 10
116.521
 20
21.4037
 30
0.0
 11
116.021
 21
20.5383
 31
0.0
  0
LINE
  8
0
 62
     0
 10
116.021
 20
20.5383
 30
0.0
 11
128.145
 21
13.5378
 31
0.0
  0
LINE
  8
0
 62
     0
 10
128.145
 20
13.5378
 30
0.0
 11
128.645
 21
14.4046
 31
0.0
  0
LINE
  8
0
 62
     0
 10
128.645
 20
14.4046
 30
0.0
 11
129.339
 21
14.0036
 31
0.0
  0
LINE
  8
0
 62
     0
 10
129.339
 20
14.0036
 30
0.0
 11
130.889
 21
16.6894
 31
0.0
  0
LINE
  8
0
 62
     0
 10
130.889
 20
16.6894
 30
0.0
 11
130.196
 21
17.089
 31
0.0
  0
LINE
  8
0
 62
     0
 10
130.196
 20
17.089
 30
0.0
 11
133.095
 21
22.112
 31
0.0
  0
LINE
  8
0
 62
     0
 10
133.095
 20
22.112
 30
0.0
 11
133.788
 21
21.7124
 31
0.0
  0
LINE
  8
0
 62
     0
 10
133.788
 20
21.7124
 30
0.0
 11
135.339
 21
24.3954
 31
0.0
  0
LINE
  8
0
 62
     0
 10
135.339
 20
24.3954
 30
0.0
 11
134.645
 21
24.7964
 31
0.0
  0
LINE
  8
0
 62
     0
 10
134.645
 20
24.7964
 30
0.0
 11
135.146
 21
25.6618
 31
0.0
  0
LINE
  8
0
 62
     0
 10
135.146
 20
25.6618
 30
0.0
 11
123.022
 21
32.6622
 31
0.0
  0
LINE
  8
0
 62
     0
 10
123.022
 20
32.6622
 30
0.0
 11
122.521
 21
31.7955
 31
0.0
  0
LINE
  8
0
 62
     0
 10
12.6187
 20
35.1827
 30
0.0
 11
12.6187
 21
34.1822
 31
0.0
  0
LINE
  8
0
 62
     0
 10
12.6187
 20
34.1822
 30
0.0
 11
11.8181
 21
34.1822
 31
0.0
  0
LINE
  8
0
 62
     0
 10
11.8181
 20
34.1822
 30
0.0
 11
11.8181
 21
31.0817
 31
0.0
  0
LINE
  8
0
 62
     0
 10
11.8181
 20
31.0817
 30
0.0
 11
12.6187
 21
31.0817
 31
0.0
  0
LINE
  8
0
 62
     0
 10
12.6187
 20
31.0817
 30
0.0
 11
12.6187
 21
25.2815
 31
0.0
  0
LINE
  8
0
 62
     0
 10
12.6187
 20
25.2815
 30
0.0
 11
11.8181
 21
25.2815
 31
0.0
  0
LINE
  8
0
 62
     0
 10
11.8181
 20
25.2815
 30
0.0
 11
11.8181
 21
22.1823
 31
0.0
  0
LINE
  8
0
 62
     0
 10
11.8181
 20
22.1823
 30
0.0
 11
12.6187
 21
22.1823
 31
0.0
  0
LINE
  8
0
 62
     0
 10
12.6187
 20
22.1823
 30
0.0
 11
12.6187
 21
21.1818
 31
0.0
  0
LINE
  8
0
 62
     0
 10
12.6187
 20
21.1818
 30
0.0
 11
26.6182
 21
21.1818
 31
0.0
  0
LINE
  8
0
 62
     0
 10
26.6182
 20
21.1818
 30
0.0
 11
26.6182
 21
22.1823
 31
0.0
  0
LINE
  8
0
 62
     0
 10
26.6182
 20
22.1823
 30
0.0
 11
27.4161
 21
22.1823
 31
0.0
  0
LINE
  8
0
 62
     0
 10
27.4161
 20
22.1823
 30
0.0
 11
27.4161
 21
25.2815
 31
0.0
  0
LINE
  8
0
 62
     0
 10
27.4161
 20
25.2815
 30
0.0
 11
26.6182
 21
25.2815
 31
0.0
  0
LINE
  8
0
 62
     0
 10
26.6182
 20
25.2815
 30
0.0
 11
26.6182
 21
31.0817
 31
0.0
  0
LINE
  8
0
 62
     0
 10
26.6182
 20
31.0817
 30
0.0
 11
27.4161
 21
31.0817
 31
0.0
  0
LINE
  8
0
 62
     0
 10
27.4161
 20
31.0817
 30
0.0
 11
27.4161
 21
34.1822
 31
0.0
  0
LINE
  8
0
 62
     0
 10
27.4161
 20
34.1822
 30
0.0
 11
26.6182
 21
34.1822
 31
0.0
  0
LINE
  8
0
 62
     0
 10
26.6182
 20
34.1822
 30
0.0
 11
26.6182
 21
35.1827
 31
0.0
  0
LINE
  8
0
 62
     0
 10
26.6182
 20
35.1827
 30
0.0
 11
12.6187
 21
35.1827
 31
0.0
  0
LINE
  8
0
 62
     0
 10
96.5165
 20
38.0365
 30
0.0
 11
95.728
 21
38.1758
 31
0.0
  0
LINE
  8
0
 62
     0
 10
95.728
 20
38.1758
 30
0.0
 11
95.1893
 21
35.1234
 31
0.0
  0
LINE
  8
0
 62
     0
 10
95.1893
 20
35.1234
 30
0.0
 11
95.9778
 21
34.9843
 31
0.0
  0
LINE
  8
0
 62
     0
 10
95.9778
 20
34.9843
 30
0.0
 11
94.9702
 21
29.2737
 31
0.0
  0
LINE
  8
0
 62
     0
 10
94.9702
 20
29.2737
 30
0.0
 11
94.1835
 21
29.4115
 31
0.0
  0
LINE
  8
0
 62
     0
 10
94.1835
 20
29.4115
 30
0.0
 11
93.6431
 21
26.3591
 31
0.0
  0
LINE
  8
0
 62
     0
 10
93.6431
 20
26.3591
 30
0.0
 11
94.4316
 21
26.2199
 31
0.0
  0
LINE
  8
0
 62
     0
 10
94.4316
 20
26.2199
 30
0.0
 11
94.2591
 21
25.2347
 31
0.0
  0
LINE
  8
0
 62
     0
 10
94.2591
 20
25.2347
 30
0.0
 11
108.045
 21
22.8038
 31
0.0
  0
LINE
  8
0
 62
     0
 10
108.045
 20
22.8038
 30
0.0
 11
108.22
 21
23.7891
 31
0.0
  0
LINE
  8
0
 62
     0
 10
108.22
 20
23.7891
 30
0.0
 11
109.007
 21
23.6499
 31
0.0
  0
LINE
  8
0
 62
     0
 10
109.007
 20
23.6499
 30
0.0
 11
109.546
 21
26.7036
 31
0.0
  0
LINE
  8
0
 62
     0
 10
109.546
 20
26.7036
 30
0.0
 11
108.758
 21
26.8414
 31
0.0
  0
LINE
  8
0
 62
     0
 10
108.758
 20
26.8414
 30
0.0
 11
109.765
 21
32.5534
 31
0.0
  0
LINE
  8
0
 62
     0
 10
109.765
 20
32.5534
 30
0.0
 11
110.553
 21
32.4142
 31
0.0
  0
LINE
  8
0
 62
     0
 10
110.553
 20
32.4142
 30
0.0
 11
111.09
 21
35.4665
 31
0.0
  0
LINE
  8
0
 62
     0
 10
111.09
 20
35.4665
 30
0.0
 11
110.302
 21
35.6059
 31
0.0
  0
LINE
  8
0
 62
     0
 10
110.302
 20
35.6059
 30
0.0
 11
110.477
 21
36.5912
 31
0.0
  0
LINE
  8
0
 62
     0
 10
110.477
 20
36.5912
 30
0.0
 11
96.69
 21
39.0218
 31
0.0
  0
LINE
  8
0
 62
     0
 10
96.69
 20
39.0218
 30
0.0
 11
96.5165
 21
38.0365
 31
0.0
  0
LINE
  8
0
 62
     0
 10
31.6673
 20
37.5627
 30
0.0
 11
31.6673
 21
36.5637
 31
0.0
  0
LINE
  8
0
 62
     0
 10
31.6673
 20
36.5637
 30
0.0
 11
30.8694
 21
36.5637
 31
0.0
  0
LINE
  8
0
 62
     0
 10
30.8694
 20
36.5637
 30
0.0
 11
30.8694
 21
33.4629
 31
0.0
  0
LINE
  8
0
 62
     0
 10
30.8694
 20
33.4629
 30
0.0
 11
31.6673
 21
33.4629
 31
0.0
  0
LINE
  8
0
 62
     0
 10
31.6673
 20
33.4629
 30
0.0
 11
31.6673
 21
27.6628
 31
0.0
  0
LINE
  8
0
 62
     0
 10
31.6673
 20
27.6628
 30
0.0
 11
30.8694
 21
27.6628
 31
0.0
  0
LINE
  8
0
 62
     0
 10
30.8694
 20
27.6628
 30
0.0
 11
30.8694
 21
24.5635
 31
0.0
  0
LINE
  8
0
 62
     0
 10
30.8694
 20
24.5635
 30
0.0
 11
31.6673
 21
24.5635
 31
0.0
  0
LINE
  8
0
 62
     0
 10
31.6673
 20
24.5635
 30
0.0
 11
31.6673
 21
23.5631
 31
0.0
  0
LINE
  8
0
 62
     0
 10
31.6673
 20
23.5631
 30
0.0
 11
45.6681
 21
23.5631
 31
0.0
  0
LINE
  8
0
 62
     0
 10
45.6681
 20
23.5631
 30
0.0
 11
45.6681
 21
24.5635
 31
0.0
  0
LINE
  8
0
 62
     0
 10
45.6681
 20
24.5635
 30
0.0
 11
46.4675
 21
24.5635
 31
0.0
  0
LINE
  8
0
 62
     0
 10
46.4675
 20
24.5635
 30
0.0
 11
46.4675
 21
27.6628
 31
0.0
  0
LINE
  8
0
 62
     0
 10
46.4675
 20
27.6628
 30
0.0
 11
45.6681
 21
27.6628
 31
0.0
  0
LINE
  8
0
 62
     0
 10
45.6681
 20
27.6628
 30
0.0
 11
45.6681
 21
33.4629
 31
0.0
  0
LINE
  8
0
 62
     0
 10
45.6681
 20
33.4629
 30
0.0
 11
46.4675
 21
33.4629
 31
0.0
  0
LINE
  8
0
 62
     0
 10
46.4675
 20
33.4629
 30
0.0
 11
46.4675
 21
36.5637
 31
0.0
  0
LINE
  8
0
 62
     0
 10
46.4675
 20
36.5637
 30
0.0
 11
45.6681
 21
36.5637
 31
0.0
  0
LINE
  8
0
 62
     0
 10
45.6681
 20
36.5637
 30
0.0
 11
45.6681
 21
37.5627
 31
0.0
  0
LINE
  8
0
 62
     0
 10
45.6681
 20
37.5627
 30
0.0
 11
31.6673
 21
37.5627
 31
0.0
  0
LINE
  8
0
 62
     0
 10
50.7189
 20
39.8487
 30
0.0
 11
50.7189
 21
38.8497
 31
0.0
  0
LINE
  8
0
 62
     0
 10
50.7189
 20
38.8497
 30
0.0
 11
49.9195
 21
38.8497
 31
0.0
  0
LINE
  8
0
 62
     0
 10
49.9195
 20
38.8497
 30
0.0
 11
49.9195
 21
35.7491
 31
0.0
  0
LINE
  8
0
 62
     0
 10
49.9195
 20
35.7491
 30
0.0
 11
50.7189
 21
35.7491
 31
0.0
  0
LINE
  8
0
 62
     0
 10
50.7189
 20
35.7491
 30
0.0
 11
50.7189
 21
29.9489
 31
0.0
  0
LINE
  8
0
 62
     0
 10
50.7189
 20
29.9489
 30
0.0
 11
49.9195
 21
29.9489
 31
0.0
  0
LINE
  8
0
 62
     0
 10
49.9195
 20
29.9489
 30
0.0
 11
49.9195
 21
26.8497
 31
0.0
  0
LINE
  8
0
 62
     0
 10
49.9195
 20
26.8497
 30
0.0
 11
50.7189
 21
26.8497
 31
0.0
  0
LINE
  8
0
 62
     0
 10
50.7189
 20
26.8497
 30
0.0
 11
50.7189
 21
25.8492
 31
0.0
  0
LINE
  8
0
 62
     0
 10
50.7189
 20
25.8492
 30
0.0
 11
64.7181
 21
25.8492
 31
0.0
  0
LINE
  8
0
 62
     0
 10
64.7181
 20
25.8492
 30
0.0
 11
64.7181
 21
26.8497
 31
0.0
  0
LINE
  8
0
 62
     0
 10
64.7181
 20
26.8497
 30
0.0
 11
65.519
 21
26.8497
 31
0.0
  0
LINE
  8
0
 62
     0
 10
65.519
 20
26.8497
 30
0.0
 11
65.519
 21
29.9489
 31
0.0
  0
LINE
  8
0
 62
     0
 10
65.519
 20
29.9489
 30
0.0
 11
64.7181
 21
29.9489
 31
0.0
  0
LINE
  8
0
 62
     0
 10
64.7181
 20
29.9489
 30
0.0
 11
64.7181
 21
35.7491
 31
0.0
  0
LINE
  8
0
 62
     0
 10
64.7181
 20
35.7491
 30
0.0
 11
65.519
 21
35.7491
 31
0.0
  0
LINE
  8
0
 62
     0
 10
65.519
 20
35.7491
 30
0.0
 11
65.519
 21
38.8497
 31
0.0
  0
LINE
  8
0
 62
     0
 10
65.519
 20
38.8497
 30
0.0
 11
64.7181
 21
38.8497
 31
0.0
  0
LINE
  8
0
 62
     0
 10
64.7181
 20
38.8497
 30
0.0
 11
64.7181
 21
39.8487
 31
0.0
  0
LINE
  8
0
 62
     0
 10
64.7181
 20
39.8487
 30
0.0
 11
50.7189
 21
39.8487
 31
0.0
  0
LINE
  8
0
 62
     0
 10
69.7689
 20
42.3252
 30
0.0
 11
69.7689
 21
41.3247
 31
0.0
  0
LINE
  8
0
 62
     0
 10
69.7689
 20
41.3247
 30
0.0
 11
68.9695
 21
41.3247
 31
0.0
  0
LINE
  8
0
 62
     0
 10
68.9695
 20
41.3247
 30
0.0
 11
68.9695
 21
38.2252
 31
0.0
  0
LINE
  8
0
 62
     0
 10
68.9695
 20
38.2252
 30
0.0
 11
69.7689
 21
38.2252
 31
0.0
  0
LINE
  8
0
 62
     0
 10
69.7689
 20
38.2252
 30
0.0
 11
69.7689
 21
32.4253
 31
0.0
  0
LINE
  8
0
 62
     0
 10
69.7689
 20
32.4253
 30
0.0
 11
68.9695
 21
32.4253
 31
0.0
  0
LINE
  8
0
 62
     0
 10
68.9695
 20
32.4253
 30
0.0
 11
68.9695
 21
29.3247
 31
0.0
  0
LINE
  8
0
 62
     0
 10
68.9695
 20
29.3247
 30
0.0
 11
69.7689
 21
29.3247
 31
0.0
  0
LINE
  8
0
 62
     0
 10
69.7689
 20
29.3247
 30
0.0
 11
69.7689
 21
28.3256
 31
0.0
  0
LINE
  8
0
 62
     0
 10
69.7689
 20
28.3256
 30
0.0
 11
83.7681
 21
28.3256
 31
0.0
  0
LINE
  8
0
 62
     0
 10
83.7681
 20
28.3256
 30
0.0
 11
83.7681
 21
29.3247
 31
0.0
  0
LINE
  8
0
 62
     0
 10
83.7681
 20
29.3247
 30
0.0
 11
84.569
 21
29.3247
 31
0.0
  0
LINE
  8
0
 62
     0
 10
84.569
 20
29.3247
 30
0.0
 11
84.569
 21
32.4253
 31
0.0
  0
LINE
  8
0
 62
     0
 10
84.569
 20
32.4253
 30
0.0
 11
83.7681
 21
32.4253
 31
0.0
  0
LINE
  8
0
 62
     0
 10
83.7681
 20
32.4253
 30
0.0
 11
83.7681
 21
38.2252
 31
0.0
  0
LINE
  8
0
 62
     0
 10
83.7681
 20
38.2252
 30
0.0
 11
84.569
 21
38.2252
 31
0.0
  0
LINE
  8
0
 62
     0
 10
84.569
 20
38.2252
 30
0.0
 11
84.569
 21
41.3247
 31
0.0
  0
LINE
  8
0
 62
     0
 10
84.569
 20
41.3247
 30
0.0
 11
83.7681
 21
41.3247
 31
0.0
  0
LINE
  8
0
 62
     0
 10
83.7681
 20
41.3247
 30
0.0
 11
83.7681
 21
42.3252
 31
0.0
  0
LINE
  8
0
 62
     0
 10
83.7681
 20
42.3252
 30
0.0
 11
69.7689
 21
42.3252
 31
0.0
  0
LINE
  8
0
 62
     0
 10
132.046
 20
48.2935
 30
0.0
 11
131.353
 21
48.6943
 31
0.0
  0
LINE
  8
0
 62
     0
 10
131.353
 20
48.6943
 30
0.0
 11
129.804
 21
46.0086
 31
0.0
  0
LINE
  8
0
 62
     0
 10
129.804
 20
46.0086
 30
0.0
 11
130.496
 21
45.6089
 31
0.0
  0
LINE
  8
0
 62
     0
 10
130.496
 20
45.6089
 30
0.0
 11
127.597
 21
40.5874
 31
0.0
  0
LINE
  8
0
 62
     0
 10
127.597
 20
40.5874
 30
0.0
 11
126.904
 21
40.9871
 31
0.0
  0
LINE
  8
0
 62
     0
 10
126.904
 20
40.9871
 30
0.0
 11
125.353
 21
38.3025
 31
0.0
  0
LINE
  8
0
 62
     0
 10
125.353
 20
38.3025
 30
0.0
 11
126.046
 21
37.9017
 31
0.0
  0
LINE
  8
0
 62
     0
 10
126.046
 20
37.9017
 30
0.0
 11
125.546
 21
37.036
 31
0.0
  0
LINE
  8
0
 62
     0
 10
125.546
 20
37.036
 30
0.0
 11
137.67
 21
30.0357
 31
0.0
  0
LINE
  8
0
 62
     0
 10
137.67
 20
30.0357
 30
0.0
 11
138.17
 21
30.9025
 31
0.0
  0
LINE
  8
0
 62
     0
 10
138.17
 20
30.9025
 30
0.0
 11
138.864
 21
30.5015
 31
0.0
  0
LINE
  8
0
 62
     0
 10
138.864
 20
30.5015
 30
0.0
 11
140.414
 21
33.1873
 31
0.0
  0
LINE
  8
0
 62
     0
 10
140.414
 20
33.1873
 30
0.0
 11
139.721
 21
33.5869
 31
0.0
  0
LINE
  8
0
 62
     0
 10
139.721
 20
33.5869
 30
0.0
 11
142.62
 21
38.6084
 31
0.0
  0
LINE
  8
0
 62
     0
 10
142.62
 20
38.6084
 30
0.0
 11
143.313
 21
38.209
 31
0.0
  0
LINE
  8
0
 62
     0
 10
143.313
 20
38.209
 30
0.0
 11
144.864
 21
40.8947
 31
0.0
  0
LINE
  8
0
 62
     0
 10
144.864
 20
40.8947
 30
0.0
 11
144.17
 21
41.2944
 31
0.0
  0
LINE
  8
0
 62
     0
 10
144.17
 20
41.2944
 30
0.0
 11
144.671
 21
42.1598
 31
0.0
  0
LINE
  8
0
 62
     0
 10
144.671
 20
42.1598
 30
0.0
 11
132.547
 21
49.1603
 31
0.0
  0
LINE
  8
0
 62
     0
 10
132.547
 20
49.1603
 30
0.0
 11
132.046
 21
48.2935
 31
0.0
  0
LINE
  8
0
 62
     0
 10
12.6187
 20
54.2325
 30
0.0
 11
12.6187
 21
53.2324
 31
0.0
  0
LINE
  8
0
 62
     0
 10
12.6187
 20
53.2324
 30
0.0
 11
11.8181
 21
53.2324
 31
0.0
  0
LINE
  8
0
 62
     0
 10
11.8181
 20
53.2324
 30
0.0
 11
11.8181
 21
50.1315
 31
0.0
  0
LINE
  8
0
 62
     0
 10
11.8181
 20
50.1315
 30
0.0
 11
12.6187
 21
50.1315
 31
0.0
  0
LINE
  8
0
 62
     0
 10
12.6187
 20
50.1315
 30
0.0
 11
12.6187
 21
44.3315
 31
0.0
  0
LINE
  8
0
 62
     0
 10
12.6187
 20
44.3315
 30
0.0
 11
11.8181
 21
44.3315
 31
0.0
  0
LINE
  8
0
 62
     0
 10
11.8181
 20
44.3315
 30
0.0
 11
11.8181
 21
41.2323
 31
0.0
  0
LINE
  8
0
 62
     0
 10
11.8181
 20
41.2323
 30
0.0
 11
12.6187
 21
41.2323
 31
0.0
  0
LINE
  8
0
 62
     0
 10
12.6187
 20
41.2323
 30
0.0
 11
12.6187
 21
40.2318
 31
0.0
  0
LINE
  8
0
 62
     0
 10
12.6187
 20
40.2318
 30
0.0
 11
26.6182
 21
40.2318
 31
0.0
  0
LINE
  8
0
 62
     0
 10
26.6182
 20
40.2318
 30
0.0
 11
26.6182
 21
41.2323
 31
0.0
  0
LINE
  8
0
 62
     0
 10
26.6182
 20
41.2323
 30
0.0
 11
27.4161
 21
41.2323
 31
0.0
  0
LINE
  8
0
 62
     0
 10
27.4161
 20
41.2323
 30
0.0
 11
27.4161
 21
44.3315
 31
0.0
  0
LINE
  8
0
 62
     0
 10
27.4161
 20
44.3315
 30
0.0
 11
26.6182
 21
44.3315
 31
0.0
  0
LINE
  8
0
 62
     0
 10
26.6182
 20
44.3315
 30
0.0
 11
26.6182
 21
50.1315
 31
0.0
  0
LINE
  8
0
 62
     0
 10
26.6182
 20
50.1315
 30
0.0
 11
27.4161
 21
50.1315
 31
0.0
  0
LINE
  8
0
 62
     0
 10
27.4161
 20
50.1315
 30
0.0
 11
27.4161
 21
53.2324
 31
0.0
  0
LINE
  8
0
 62
     0
 10
27.4161
 20
53.2324
 30
0.0
 11
26.6182
 21
53.2324
 31
0.0
  0
LINE
  8
0
 62
     0
 10
26.6182
 20
53.2324
 30
0.0
 11
26.6182
 21
54.2325
 31
0.0
  0
LINE
  8
0
 62
     0
 10
26.6182
 20
54.2325
 30
0.0
 11
12.6187
 21
54.2325
 31
0.0
  0
LINE
  8
0
 62
     0
 10
31.6673
 20
56.6127
 30
0.0
 11
31.6673
 21
55.6137
 31
0.0
  0
LINE
  8
0
 62
     0
 10
31.6673
 20
55.6137
 30
0.0
 11
30.8694
 21
55.6137
 31
0.0
  0
LINE
  8
0
 62
     0
 10
30.8694
 20
55.6137
 30
0.0
 11
30.8694
 21
52.5141
 31
0.0
  0
LINE
  8
0
 62
     0
 10
30.8694
 20
52.5141
 30
0.0
 11
31.6673
 21
52.5141
 31
0.0
  0
LINE
  8
0
 62
     0
 10
31.6673
 20
52.5141
 30
0.0
 11
31.6673
 21
46.7127
 31
0.0
  0
LINE
  8
0
 62
     0
 10
31.6673
 20
46.7127
 30
0.0
 11
30.8694
 21
46.7127
 31
0.0
  0
LINE
  8
0
 62
     0
 10
30.8694
 20
46.7127
 30
0.0
 11
30.8694
 21
43.6136
 31
0.0
  0
LINE
  8
0
 62
     0
 10
30.8694
 20
43.6136
 30
0.0
 11
31.6673
 21
43.6136
 31
0.0
  0
LINE
  8
0
 62
     0
 10
31.6673
 20
43.6136
 30
0.0
 11
31.6673
 21
42.6131
 31
0.0
  0
LINE
  8
0
 62
     0
 10
31.6673
 20
42.6131
 30
0.0
 11
45.6681
 21
42.6131
 31
0.0
  0
LINE
  8
0
 62
     0
 10
45.6681
 20
42.6131
 30
0.0
 11
45.6681
 21
43.6136
 31
0.0
  0
LINE
  8
0
 62
     0
 10
45.6681
 20
43.6136
 30
0.0
 11
46.4675
 21
43.6136
 31
0.0
  0
LINE
  8
0
 62
     0
 10
46.4675
 20
43.6136
 30
0.0
 11
46.4675
 21
46.7127
 31
0.0
  0
LINE
  8
0
 62
     0
 10
46.4675
 20
46.7127
 30
0.0
 11
45.6681
 21
46.7127
 31
0.0
  0
LINE
  8
0
 62
     0
 10
45.6681
 20
46.7127
 30
0.0
 11
45.6681
 21
52.5141
 31
0.0
  0
LINE
  8
0
 62
     0
 10
45.6681
 20
52.5141
 30
0.0
 11
46.4675
 21
52.5141
 31
0.0
  0
LINE
  8
0
 62
     0
 10
46.4675
 20
52.5141
 30
0.0
 11
46.4675
 21
55.6137
 31
0.0
  0
LINE
  8
0
 62
     0
 10
46.4675
 20
55.6137
 30
0.0
 11
45.6681
 21
55.6137
 31
0.0
  0
LINE
  8
0
 62
     0
 10
45.6681
 20
55.6137
 30
0.0
 11
45.6681
 21
56.6127
 31
0.0
  0
LINE
  8
0
 62
     0
 10
45.6681
 20
56.6127
 30
0.0
 11
31.6673
 21
56.6127
 31
0.0
  0
LINE
  8
0
 62
     0
 10
107.869
 20
56.6127
 30
0.0
 11
107.869
 21
55.6137
 31
0.0
  0
LINE
  8
0
 62
     0
 10
107.869
 20
55.6137
 30
0.0
 11
107.069
 21
55.6137
 31
0.0
  0
LINE
  8
0
 62
     0
 10
107.069
 20
55.6137
 30
0.0
 11
107.069
 21
52.5141
 31
0.0
  0
LINE
  8
0
 62
     0
 10
107.069
 20
52.5141
 30
0.0
 11
107.869
 21
52.5141
 31
0.0
  0
LINE
  8
0
 62
     0
 10
107.869
 20
52.5141
 30
0.0
 11
107.869
 21
46.7127
 31
0.0
  0
LINE
  8
0
 62
     0
 10
107.869
 20
46.7127
 30
0.0
 11
107.069
 21
46.7127
 31
0.0
  0
LINE
  8
0
 62
     0
 10
107.069
 20
46.7127
 30
0.0
 11
107.069
 21
43.6136
 31
0.0
  0
LINE
  8
0
 62
     0
 10
107.069
 20
43.6136
 30
0.0
 11
107.869
 21
43.6136
 31
0.0
  0
LINE
  8
0
 62
     0
 10
107.869
 20
43.6136
 30
0.0
 11
107.869
 21
42.6131
 31
0.0
  0
LINE
  8
0
 62
     0
 10
107.869
 20
42.6131
 30
0.0
 11
121.868
 21
42.6131
 31
0.0
  0
LINE
  8
0
 62
     0
 10
121.868
 20
42.6131
 30
0.0
 11
121.868
 21
43.6136
 31
0.0
  0
LINE
  8
0
 62
     0
 10
121.868
 20
43.6136
 30
0.0
 11
122.669
 21
43.6136
 31
0.0
  0
LINE
  8
0
 62
     0
 10
122.669
 20
43.6136
 30
0.0
 11
122.669
 21
46.7127
 31
0.0
  0
LINE
  8
0
 62
     0
 10
122.669
 20
46.7127
 30
0.0
 11
121.868
 21
46.7127
 31
0.0
  0
LINE
  8
0
 62
     0
 10
121.868
 20
46.7127
 30
0.0
 11
121.868
 21
52.5141
 31
0.0
  0
LINE
  8
0
 62
     0
 10
121.868
 20
52.5141
 30
0.0
 11
122.669
 21
52.5141
 31
0.0
  0
LINE
  8
0
 62
     0
 10
122.669
 20
52.5141
 30
0.0
 11
122.669
 21
55.6137
 31
0.0
  0
LINE
  8
0
 62
     0
 10
122.669
 20
55.6137
 30
0.0
 11
121.868
 21
55.6137
 31
0.0
  0
LINE
  8
0
 62
     0
 10
121.868
 20
55.6137
 30
0.0
 11
121.868
 21
56.6127
 31
0.0
  0
LINE
  8
0
 62
     0
 10
121.868
 20
56.6127
 30
0.0
 11
107.869
 21
56.6127
 31
0.0
  0
LINE
  8
0
 62
     0
 10
50.7189
 20
58.994
 30
0.0
 11
50.7189
 21
57.9935
 31
0.0
  0
LINE
  8
0
 62
     0
 10
50.7189
 20
57.9935
 30
0.0
 11
49.9195
 21
57.9935
 31
0.0
  0
LINE
  8
0
 62
     0
 10
49.9195
 20
57.9935
 30
0.0
 11
49.9195
 21
54.894
 31
0.0
  0
LINE
  8
0
 62
     0
 10
49.9195
 20
54.894
 30
0.0
 11
50.7189
 21
54.894
 31
0.0
  0
LINE
  8
0
 62
     0
 10
50.7189
 20
54.894
 30
0.0
 11
50.7189
 21
49.094
 31
0.0
  0
LINE
  8
0
 62
     0
 10
50.7189
 20
49.094
 30
0.0
 11
49.9195
 21
49.094
 31
0.0
  0
LINE
  8
0
 62
     0
 10
49.9195
 20
49.094
 30
0.0
 11
49.9195
 21
45.9934
 31
0.0
  0
LINE
  8
0
 62
     0
 10
49.9195
 20
45.9934
 30
0.0
 11
50.7189
 21
45.9934
 31
0.0
  0
LINE
  8
0
 62
     0
 10
50.7189
 20
45.9934
 30
0.0
 11
50.7189
 21
44.9943
 31
0.0
  0
LINE
  8
0
 62
     0
 10
50.7189
 20
44.9943
 30
0.0
 11
64.7181
 21
44.9943
 31
0.0
  0
LINE
  8
0
 62
     0
 10
64.7181
 20
44.9943
 30
0.0
 11
64.7181
 21
45.9934
 31
0.0
  0
LINE
  8
0
 62
     0
 10
64.7181
 20
45.9934
 30
0.0
 11
65.519
 21
45.9934
 31
0.0
  0
LINE
  8
0
 62
     0
 10
65.519
 20
45.9934
 30
0.0
 11
65.519
 21
49.094
 31
0.0
  0
LINE
  8
0
 62
     0
 10
65.519
 20
49.094
 30
0.0
 11
64.7181
 21
49.094
 31
0.0
  0
LINE
  8
0
 62
     0
 10
64.7181
 20
49.094
 30
0.0
 11
64.7181
 21
54.894
 31
0.0
  0
LINE
  8
0
 62
     0
 10
64.7181
 20
54.894
 30
0.0
 11
65.519
 21
54.894
 31
0.0
  0
LINE
  8
0
 62
     0
 10
65.519
 20
54.894
 30
0.0
 11
65.519
 21
57.9935
 31
0.0
  0
LINE
  8
0
 62
     0
 10
65.519
 20
57.9935
 30
0.0
 11
64.7181
 21
57.9935
 31
0.0
  0
LINE
  8
0
 62
     0
 10
64.7181
 20
57.9935
 30
0.0
 11
64.7181
 21
58.994
 31
0.0
  0
LINE
  8
0
 62
     0
 10
64.7181
 20
58.994
 30
0.0
 11
50.7189
 21
58.994
 31
0.0
  0
LINE
  8
0
 62
     0
 10
88.8189
 20
58.994
 30
0.0
 11
88.8189
 21
57.9935
 31
0.0
  0
LINE
  8
0
 62
     0
 10
88.8189
 20
57.9935
 30
0.0
 11
88.0195
 21
57.9935
 31
0.0
  0
LINE
  8
0
 62
     0
 10
88.0195
 20
57.9935
 30
0.0
 11
88.0195
 21
54.894
 31
0.0
  0
LINE
  8
0
 62
     0
 10
88.0195
 20
54.894
 30
0.0
 11
88.8189
 21
54.894
 31
0.0
  0
LINE
  8
0
 62
     0
 10
88.8189
 20
54.894
 30
0.0
 11
88.8189
 21
49.094
 31
0.0
  0
LINE
  8
0
 62
     0
 10
88.8189
 20
49.094
 30
0.0
 11
88.0195
 21
49.094
 31
0.0
  0
LINE
  8
0
 62
     0
 10
88.0195
 20
49.094
 30
0.0
 11
88.0195
 21
45.9934
 31
0.0
  0
LINE
  8
0
 62
     0
 10
88.0195
 20
45.9934
 30
0.0
 11
88.8189
 21
45.9934
 31
0.0
  0
LINE
  8
0
 62
     0
 10
88.8189
 20
45.9934
 30
0.0
 11
88.8189
 21
44.9943
 31
0.0
  0
LINE
  8
0
 62
     0
 10
88.8189
 20
44.9943
 30
0.0
 11
102.818
 21
44.9943
 31
0.0
  0
LINE
  8
0
 62
     0
 10
102.818
 20
44.9943
 30
0.0
 11
102.818
 21
45.9934
 31
0.0
  0
LINE
  8
0
 62
     0
 10
102.818
 20
45.9934
 30
0.0
 11
103.618
 21
45.9934
 31
0.0
  0
LINE
  8
0
 62
     0
 10
103.618
 20
45.9934
 30
0.0
 11
103.618
 21
49.094
 31
0.0
  0
LINE
  8
0
 62
     0
 10
103.618
 20
49.094
 30
0.0
 11
102.818
 21
49.094
 31
0.0
  0
LINE
  8
0
 62
     0
 10
102.818
 20
49.094
 30
0.0
 11
102.818
 21
54.894
 31
0.0
  0
LINE
  8
0
 62
     0
 10
102.818
 20
54.894
 30
0.0
 11
103.618
 21
54.894
 31
0.0
  0
LINE
  8
0
 62
     0
 10
103.618
 20
54.894
 30
0.0
 11
103.618
 21
57.9935
 31
0.0
  0
LINE
  8
0
 62
     0
 10
103.618
 20
57.9935
 30
0.0
 11
102.818
 21
57.9935
 31
0.0
  0
LINE
  8
0
 62
     0
 10
102.818
 20
57.9935
 30
0.0
 11
102.818
 21
58.994
 31
0.0
  0
LINE
  8
0
 62
     0
 10
102.818
 20
58.994
 30
0.0
 11
88.8189
 21
58.994
 31
0.0
  0
LINE
  8
0
 62
     0
 10
69.7689
 20
61.3752
 30
0.0
 11
69.7689
 21
60.3747
 31
0.0
  0
LINE
  8
0
 62
     0
 10
69.7689
 20
60.3747
 30
0.0
 11
68.9695
 21
60.3747
 31
0.0
  0
LINE
  8
0
 62
     0
 10
68.9695
 20
60.3747
 30
0.0
 11
68.9695
 21
57.2752
 31
0.0
  0
LINE
  8
0
 62
     0
 10
68.9695
 20
57.2752
 30
0.0
 11
69.7689
 21
57.2752
 31
0.0
  0
LINE
  8
0
 62
     0
 10
69.7689
 20
57.2752
 30
0.0
 11
69.7689
 21
51.4752
 31
0.0
  0
LINE
  8
0
 62
     0
 10
69.7689
 20
51.4752
 30
0.0
 11
68.9695
 21
51.4752
 31
0.0
  0
LINE
  8
0
 62
     0
 10
68.9695
 20
51.4752
 30
0.0
 11
68.9695
 21
48.3747
 31
0.0
  0
LINE
  8
0
 62
     0
 10
68.9695
 20
48.3747
 30
0.0
 11
69.7689
 21
48.3747
 31
0.0
  0
LINE
  8
0
 62
     0
 10
69.7689
 20
48.3747
 30
0.0
 11
69.7689
 21
47.3756
 31
0.0
  0
LINE
  8
0
 62
     0
 10
69.7689
 20
47.3756
 30
0.0
 11
83.7681
 21
47.3756
 31
0.0
  0
LINE
  8
0
 62
     0
 10
83.7681
 20
47.3756
 30
0.0
 11
83.7681
 21
48.3747
 31
0.0
  0
LINE
  8
0
 62
     0
 10
83.7681
 20
48.3747
 30
0.0
 11
84.569
 21
48.3747
 31
0.0
  0
LINE
  8
0
 62
     0
 10
84.569
 20
48.3747
 30
0.0
 11
84.569
 21
51.4752
 31
0.0
  0
LINE
  8
0
 62
     0
 10
84.569
 20
51.4752
 30
0.0
 11
83.7681
 21
51.4752
 31
0.0
  0
LINE
  8
0
 62
     0
 10
83.7681
 20
51.4752
 30
0.0
 11
83.7681
 21
57.2752
 31
0.0
  0
LINE
  8
0
 62
     0
 10
83.7681
 20
57.2752
 30
0.0
 11
84.569
 21
57.2752
 31
0.0
  0
LINE
  8
0
 62
     0
 10
84.569
 20
57.2752
 30
0.0
 11
84.569
 21
60.3747
 31
0.0
  0
LINE
  8
0
 62
     0
 10
84.569
 20
60.3747
 30
0.0
 11
83.7681
 21
60.3747
 31
0.0
  0
LINE
  8
0
 62
     0
 10
83.7681
 20
60.3747
 30
0.0
 11
83.7681
 21
61.3752
 31
0.0
  0
LINE
  8
0
 62
     0
 10
83.7681
 20
61.3752
 30
0.0
 11
69.7689
 21
61.3752
 31
0.0
  0
LINE
  8
0
 62
     0
 10
126.919
 20
70.9002
 30
0.0
 11
126.919
 21
69.8997
 31
0.0
  0
LINE
  8
0
 62
     0
 10
126.919
 20
69.8997
 30
0.0
 11
126.119
 21
69.8997
 31
0.0
  0
LINE
  8
0
 62
     0
 10
126.119
 20
69.8997
 30
0.0
 11
126.119
 21
66.8002
 31
0.0
  0
LINE
  8
0
 62
     0
 10
126.119
 20
66.8002
 30
0.0
 11
126.919
 21
66.8002
 31
0.0
  0
LINE
  8
0
 62
     0
 10
126.919
 20
66.8002
 30
0.0
 11
126.919
 21
61.0002
 31
0.0
  0
LINE
  8
0
 62
     0
 10
126.919
 20
61.0002
 30
0.0
 11
126.119
 21
61.0002
 31
0.0
  0
LINE
  8
0
 62
     0
 10
126.119
 20
61.0002
 30
0.0
 11
126.119
 21
57.8997
 31
0.0
  0
LINE
  8
0
 62
     0
 10
126.119
 20
57.8997
 30
0.0
 11
126.919
 21
57.8997
 31
0.0
  0
LINE
  8
0
 62
     0
 10
126.919
 20
57.8997
 30
0.0
 11
126.919
 21
56.9006
 31
0.0
  0
LINE
  8
0
 62
     0
 10
126.919
 20
56.9006
 30
0.0
 11
140.918
 21
56.9006
 31
0.0
  0
LINE
  8
0
 62
     0
 10
140.918
 20
56.9006
 30
0.0
 11
140.918
 21
57.8997
 31
0.0
  0
LINE
  8
0
 62
     0
 10
140.918
 20
57.8997
 30
0.0
 11
141.719
 21
57.8997
 31
0.0
  0
LINE
  8
0
 62
     0
 10
141.719
 20
57.8997
 30
0.0
 11
141.719
 21
61.0002
 31
0.0
  0
LINE
  8
0
 62
     0
 10
141.719
 20
61.0002
 30
0.0
 11
140.918
 21
61.0002
 31
0.0
  0
LINE
  8
0
 62
     0
 10
140.918
 20
61.0002
 30
0.0
 11
140.918
 21
66.8002
 31
0.0
  0
LINE
  8
0
 62
     0
 10
140.918
 20
66.8002
 30
0.0
 11
141.719
 21
66.8002
 31
0.0
  0
LINE
  8
0
 62
     0
 10
141.719
 20
66.8002
 30
0.0
 11
141.719
 21
69.8997
 31
0.0
  0
LINE
  8
0
 62
     0
 10
141.719
 20
69.8997
 30
0.0
 11
140.918
 21
69.8997
 31
0.0
  0
LINE
  8
0
 62
     0
 10
140.918
 20
69.8997
 30
0.0
 11
140.918
 21
70.9002
 31
0.0
  0
LINE
  8
0
 62
     0
 10
140.918
 20
70.9002
 30
0.0
 11
126.919
 21
70.9002
 31
0.0
  0
LINE
  8
0
 62
     0
 10
12.6187
 20
73.2825
 30
0.0
 11
12.6187
 21
72.2824
 31
0.0
  0
LINE
  8
0
 62
     0
 10
12.6187
 20
72.2824
 30
0.0
 11
11.8181
 21
72.2824
 31
0.0
  0
LINE
  8
0
 62
     0
 10
11.8181
 20
72.2824
 30
0.0
 11
11.8181
 21
69.1815
 31
0.0
  0
LINE
  8
0
 62
     0
 10
11.8181
 20
69.1815
 30
0.0
 11
12.6187
 21
69.1815
 31
0.0
  0
LINE
  8
0
 62
     0
 10
12.6187
 20
69.1815
 30
0.0
 11
12.6187
 21
63.3815
 31
0.0
  0
LINE
  8
0
 62
     0
 10
12.6187
 20
63.3815
 30
0.0
 11
11.8181
 21
63.3815
 31
0.0
  0
LINE
  8
0
 62
     0
 10
11.8181
 20
63.3815
 30
0.0
 11
11.8181
 21
60.2823
 31
0.0
  0
LINE
  8
0
 62
     0
 10
11.8181
 20
60.2823
 30
0.0
 11
12.6187
 21
60.2823
 31
0.0
  0
LINE
  8
0
 62
     0
 10
12.6187
 20
60.2823
 30
0.0
 11
12.6187
 21
59.2818
 31
0.0
  0
LINE
  8
0
 62
     0
 10
12.6187
 20
59.2818
 30
0.0
 11
26.6182
 21
59.2818
 31
0.0
  0
LINE
  8
0
 62
     0
 10
26.6182
 20
59.2818
 30
0.0
 11
26.6182
 21
60.2823
 31
0.0
  0
LINE
  8
0
 62
     0
 10
26.6182
 20
60.2823
 30
0.0
 11
27.4161
 21
60.2823
 31
0.0
  0
LINE
  8
0
 62
     0
 10
27.4161
 20
60.2823
 30
0.0
 11
27.4161
 21
63.3815
 31
0.0
  0
LINE
  8
0
 62
     0
 10
27.4161
 20
63.3815
 30
0.0
 11
26.6182
 21
63.3815
 31
0.0
  0
LINE
  8
0
 62
     0
 10
26.6182
 20
63.3815
 30
0.0
 11
26.6182
 21
69.1815
 31
0.0
  0
LINE
  8
0
 62
     0
 10
26.6182
 20
69.1815
 30
0.0
 11
27.4161
 21
69.1815
 31
0.0
  0
LINE
  8
0
 62
     0
 10
27.4161
 20
69.1815
 30
0.0
 11
27.4161
 21
72.2824
 31
0.0
  0
LINE
  8
0
 62
     0
 10
27.4161
 20
72.2824
 30
0.0
 11
26.6182
 21
72.2824
 31
0.0
  0
LINE
  8
0
 62
     0
 10
26.6182
 20
72.2824
 30
0.0
 11
26.6182
 21
73.2825
 31
0.0
  0
LINE
  8
0
 62
     0
 10
26.6182
 20
73.2825
 30
0.0
 11
12.6187
 21
73.2825
 31
0.0
  0
LINE
  8
0
 62
     0
 10
31.6673
 20
75.6627
 30
0.0
 11
31.6673
 21
74.6637
 31
0.0
  0
LINE
  8
0
 62
     0
 10
31.6673
 20
74.6637
 30
0.0
 11
30.8694
 21
74.6637
 31
0.0
  0
LINE
  8
0
 62
     0
 10
30.8694
 20
74.6637
 30
0.0
 11
30.8694
 21
71.5627
 31
0.0
  0
LINE
  8
0
 62
     0
 10
30.8694
 20
71.5627
 30
0.0
 11
31.6673
 21
71.5627
 31
0.0
  0
LINE
  8
0
 62
     0
 10
31.6673
 20
71.5627
 30
0.0
 11
31.6673
 21
65.7627
 31
0.0
  0
LINE
  8
0
 62
     0
 10
31.6673
 20
65.7627
 30
0.0
 11
30.8694
 21
65.7627
 31
0.0
  0
LINE
  8
0
 62
     0
 10
30.8694
 20
65.7627
 30
0.0
 11
30.8694
 21
62.6636
 31
0.0
  0
LINE
  8
0
 62
     0
 10
30.8694
 20
62.6636
 30
0.0
 11
31.6673
 21
62.6636
 31
0.0
  0
LINE
  8
0
 62
     0
 10
31.6673
 20
62.6636
 30
0.0
 11
31.6673
 21
61.6631
 31
0.0
  0
LINE
  8
0
 62
     0
 10
31.6673
 20
61.6631
 30
0.0
 11
45.6681
 21
61.6631
 31
0.0
  0
LINE
  8
0
 62
     0
 10
45.6681
 20
61.6631
 30
0.0
 11
45.6681
 21
62.6636
 31
0.0
  0
LINE
  8
0
 62
     0
 10
45.6681
 20
62.6636
 30
0.0
 11
46.4675
 21
62.6636
 31
0.0
  0
LINE
  8
0
 62
     0
 10
46.4675
 20
62.6636
 30
0.0
 11
46.4675
 21
65.7627
 31
0.0
  0
LINE
  8
0
 62
     0
 10
46.4675
 20
65.7627
 30
0.0
 11
45.6681
 21
65.7627
 31
0.0
  0
LINE
  8
0
 62
     0
 10
45.6681
 20
65.7627
 30
0.0
 11
45.6681
 21
71.5627
 31
0.0
  0
LINE
  8
0
 62
     0
 10
45.6681
 20
71.5627
 30
0.0
 11
46.4675
 21
71.5627
 31
0.0
  0
LINE
  8
0
 62
     0
 10
46.4675
 20
71.5627
 30
0.0
 11
46.4675
 21
74.6637
 31
0.0
  0
LINE
  8
0
 62
     0
 10
46.4675
 20
74.6637
 30
0.0
 11
45.6681
 21
74.6637
 31
0.0
  0
LINE
  8
0
 62
     0
 10
45.6681
 20
74.6637
 30
0.0
 11
45.6681
 21
75.6627
 31
0.0
  0
LINE
  8
0
 62
     0
 10
45.6681
 20
75.6627
 30
0.0
 11
31.6673
 21
75.6627
 31
0.0
  0
LINE
  8
0
 62
     0
 10
107.869
 20
75.6627
 30
0.0
 11
107.869
 21
74.6637
 31
0.0
  0
LINE
  8
0
 62
     0
 10
107.869
 20
74.6637
 30
0.0
 11
107.069
 21
74.6637
 31
0.0
  0
LINE
  8
0
 62
     0
 10
107.069
 20
74.6637
 30
0.0
 11
107.069
 21
71.5627
 31
0.0
  0
LINE
  8
0
 62
     0
 10
107.069
 20
71.5627
 30
0.0
 11
107.869
 21
71.5627
 31
0.0
  0
LINE
  8
0
 62
     0
 10
107.869
 20
71.5627
 30
0.0
 11
107.869
 21
65.7627
 31
0.0
  0
LINE
  8
0
 62
     0
 10
107.869
 20
65.7627
 30
0.0
 11
107.069
 21
65.7627
 31
0.0
  0
LINE
  8
0
 62
     0
 10
107.069
 20
65.7627
 30
0.0
 11
107.069
 21
62.6636
 31
0.0
  0
LINE
  8
0
 62
     0
 10
107.069
 20
62.6636
 30
0.0
 11
107.869
 21
62.6636
 31
0.0
  0
LINE
  8
0
 62
     0
 10
107.869
 20
62.6636
 30
0.0
 11
107.869
 21
61.6631
 31
0.0
  0
LINE
  8
0
 62
     0
 10
107.869
 20
61.6631
 30
0.0
 11
121.868
 21
61.6631
 31
0.0
  0
LINE
  8
0
 62
     0
 10
121.868
 20
61.6631
 30
0.0
 11
121.868
 21
62.6636
 31
0.0
  0
LINE
  8
0
 62
     0
 10
121.868
 20
62.6636
 30
0.0
 11
122.669
 21
62.6636
 31
0.0
  0
LINE
  8
0
 62
     0
 10
122.669
 20
62.6636
 30
0.0
 11
122.669
 21
65.7627
 31
0.0
  0
LINE
  8
0
 62
     0
 10
122.669
 20
65.7627
 30
0.0
 11
121.868
 21
65.7627
 31
0.0
  0
LINE
  8
0
 62
     0
 10
121.868
 20
65.7627
 30
0.0
 11
121.868
 21
71.5627
 31
0.0
  0
LINE
  8
0
 62
     0
 10
121.868
 20
71.5627
 30
0.0
 11
122.669
 21
71.5627
 31
0.0
  0
LINE
  8
0
 62
     0
 10
122.669
 20
71.5627
 30
0.0
 11
122.669
 21
74.6637
 31
0.0
  0
LINE
  8
0
 62
     0
 10
122.669
 20
74.6637
 30
0.0
 11
121.868
 21
74.6637
 31
0.0
  0
LINE
  8
0
 62
     0
 10
121.868
 20
74.6637
 30
0.0
 11
121.868
 21
75.6627
 31
0.0
  0
LINE
  8
0
 62
     0
 10
121.868
 20
75.6627
 30
0.0
 11
107.869
 21
75.6627
 31
0.0
  0
LINE
  8
0
 62
     0
 10
50.7189
 20
78.044
 30
0.0
 11
50.7189
 21
77.0435
 31
0.0
  0
LINE
  8
0
 62
     0
 10
50.7189
 20
77.0435
 30
0.0
 11
49.9195
 21
77.0435
 31
0.0
  0
LINE
  8
0
 62
     0
 10
49.9195
 20
77.0435
 30
0.0
 11
49.9195
 21
73.944
 31
0.0
  0
LINE
  8
0
 62
     0
 10
49.9195
 20
73.944
 30
0.0
 11
50.7189
 21
73.944
 31
0.0
  0
LINE
  8
0
 62
     0
 10
50.7189
 20
73.944
 30
0.0
 11
50.7189
 21
68.144
 31
0.0
  0
LINE
  8
0
 62
     0
 10
50.7189
 20
68.144
 30
0.0
 11
49.9195
 21
68.144
 31
0.0
  0
LINE
  8
0
 62
     0
 10
49.9195
 20
68.144
 30
0.0
 11
49.9195
 21
65.0434
 31
0.0
  0
LINE
  8
0
 62
     0
 10
49.9195
 20
65.0434
 30
0.0
 11
50.7189
 21
65.0434
 31
0.0
  0
LINE
  8
0
 62
     0
 10
50.7189
 20
65.0434
 30
0.0
 11
50.7189
 21
64.0443
 31
0.0
  0
LINE
  8
0
 62
     0
 10
50.7189
 20
64.0443
 30
0.0
 11
64.7181
 21
64.0443
 31
0.0
  0
LINE
  8
0
 62
     0
 10
64.7181
 20
64.0443
 30
0.0
 11
64.7181
 21
65.0434
 31
0.0
  0
LINE
  8
0
 62
     0
 10
64.7181
 20
65.0434
 30
0.0
 11
65.519
 21
65.0434
 31
0.0
  0
LINE
  8
0
 62
     0
 10
65.519
 20
65.0434
 30
0.0
 11
65.519
 21
68.144
 31
0.0
  0
LINE
  8
0
 62
     0
 10
65.519
 20
68.144
 30
0.0
 11
64.7181
 21
68.144
 31
0.0
  0
LINE
  8
0
 62
     0
 10
64.7181
 20
68.144
 30
0.0
 11
64.7181
 21
73.944
 31
0.0
  0
LINE
  8
0
 62
     0
 10
64.7181
 20
73.944
 30
0.0
 11
65.519
 21
73.944
 31
0.0
  0
LINE
  8
0
 62
     0
 10
65.519
 20
73.944
 30
0.0
 11
65.519
 21
77.0435
 31
0.0
  0
LINE
  8
0
 62
     0
 10
65.519
 20
77.0435
 30
0.0
 11
64.7181
 21
77.0435
 31
0.0
  0
LINE
  8
0
 62
     0
 10
64.7181
 20
77.0435
 30
0.0
 11
64.7181
 21
78.044
 31
0.0
  0
LINE
  8
0
 62
     0
 10
64.7181
 20
78.044
 30
0.0
 11
50.7189
 21
78.044
 31
0.0
  0
LINE
  8
0
 62
     0
 10
88.8189
 20
78.044
 30
0.0
 11
88.8189
 21
77.0435
 31
0.0
  0
LINE
  8
0
 62
     0
 10
88.8189
 20
77.0435
 30
0.0
 11
88.0195
 21
77.0435
 31
0.0
  0
LINE
  8
0
 62
     0
 10
88.0195
 20
77.0435
 30
0.0
 11
88.0195
 21
73.944
 31
0.0
  0
LINE
  8
0
 62
     0
 10
88.0195
 20
73.944
 30
0.0
 11
88.8189
 21
73.944
 31
0.0
  0
LINE
  8
0
 62
     0
 10
88.8189
 20
73.944
 30
0.0
 11
88.8189
 21
68.144
 31
0.0
  0
LINE
  8
0
 62
     0
 10
88.8189
 20
68.144
 30
0.0
 11
88.0195
 21
68.144
 31
0.0
  0
LINE
  8
0
 62
     0
 10
88.0195
 20
68.144
 30
0.0
 11
88.0195
 21
65.0434
 31
0.0
  0
LINE
  8
0
 62
     0
 10
88.0195
 20
65.0434
 30
0.0
 11
88.8189
 21
65.0434
 31
0.0
  0
LINE
  8
0
 62
     0
 10
88.8189
 20
65.0434
 30
0.0
 11
88.8189
 21
64.0443
 31
0.0
  0
LINE
  8
0
 62
     0
 10
88.8189
 20
64.0443
 30
0.0
 11
102.818
 21
64.0443
 31
0.0
  0
LINE
  8
0
 62
     0
 10
102.818
 20
64.0443
 30
0.0
 11
102.818
 21
65.0434
 31
0.0
  0
LINE
  8
0
 62
     0
 10
102.818
 20
65.0434
 30
0.0
 11
103.618
 21
65.0434
 31
0.0
  0
LINE
  8
0
 62
     0
 10
103.618
 20
65.0434
 30
0.0
 11
103.618
 21
68.144
 31
0.0
  0
LINE
  8
0
 62
     0
 10
103.618
 20
68.144
 30
0.0
 11
102.818
 21
68.144
 31
0.0
  0
LINE
  8
0
 62
     0
 10
102.818
 20
68.144
 30
0.0
 11
102.818
 21
73.944
 31
0.0
  0
LINE
  8
0
 62
     0
 10
102.818
 20
73.944
 30
0.0
 11
103.618
 21
73.944
 31
0.0
  0
LINE
  8
0
 62
     0
 10
103.618
 20
73.944
 30
0.0
 11
103.618
 21
77.0435
 31
0.0
  0
LINE
  8
0
 62
     0
 10
103.618
 20
77.0435
 30
0.0
 11
102.818
 21
77.0435
 31
0.0
  0
LINE
  8
0
 62
     0
 10
102.818
 20
77.0435
 30
0.0
 11
102.818
 21
78.044
 31
0.0
  0
LINE
  8
0
 62
     0
 10
102.818
 20
78.044
 30
0.0
 11
88.8189
 21
78.044
 31
0.0
  0
LINE
  8
0
 62
     0
 10
69.7689
 20
80.4252
 30
0.0
 11
69.7689
 21
79.4247
 31
0.0
  0
LINE
  8
0
 62
     0
 10
69.7689
 20
79.4247
 30
0.0
 11
68.9695
 21
79.4247
 31
0.0
  0
LINE
  8
0
 62
     0
 10
68.9695
 20
79.4247
 30
0.0
 11
68.9695
 21
76.3252
 31
0.0
  0
LINE
  8
0
 62
     0
 10
68.9695
 20
76.3252
 30
0.0
 11
69.7689
 21
76.3252
 31
0.0
  0
LINE
  8
0
 62
     0
 10
69.7689
 20
76.3252
 30
0.0
 11
69.7689
 21
70.5252
 31
0.0
  0
LINE
  8
0
 62
     0
 10
69.7689
 20
70.5252
 30
0.0
 11
68.9695
 21
70.5252
 31
0.0
  0
LINE
  8
0
 62
     0
 10
68.9695
 20
70.5252
 30
0.0
 11
68.9695
 21
67.4247
 31
0.0
  0
LINE
  8
0
 62
     0
 10
68.9695
 20
67.4247
 30
0.0
 11
69.7689
 21
67.4247
 31
0.0
  0
LINE
  8
0
 62
     0
 10
69.7689
 20
67.4247
 30
0.0
 11
69.7689
 21
66.4256
 31
0.0
  0
LINE
  8
0
 62
     0
 10
69.7689
 20
66.4256
 30
0.0
 11
83.7681
 21
66.4256
 31
0.0
  0
LINE
  8
0
 62
     0
 10
83.7681
 20
66.4256
 30
0.0
 11
83.7681
 21
67.4247
 31
0.0
  0
LINE
  8
0
 62
     0
 10
83.7681
 20
67.4247
 30
0.0
 11
84.569
 21
67.4247
 31
0.0
  0
LINE
  8
0
 62
     0
 10
84.569
 20
67.4247
 30
0.0
 11
84.569
 21
70.5252
 31
0.0
  0
LINE
  8
0
 62
     0
 10
84.569
 20
70.5252
 30
0.0
 11
83.7681
 21
70.5252
 31
0.0
  0
LINE
  8
0
 62
     0
 10
83.7681
 20
70.5252
 30
0.0
 11
83.7681
 21
76.3252
 31
0.0
  0
LINE
  8
0
 62
     0
 10
83.7681
 20
76.3252
 30
0.0
 11
84.569
 21
76.3252
 31
0.0
  0
LINE
  8
0
 62
     0
 10
84.569
 20
76.3252
 30
0.0
 11
84.569
 21
79.4247
 31
0.0
  0
LINE
  8
0
 62
     0
 10
84.569
 20
79.4247
 30
0.0
 11
83.7681
 21
79.4247
 31
0.0
  0
LINE
  8
0
 62
     0
 10
83.7681
 20
79.4247
 30
0.0
 11
83.7681
 21
80.4252
 31
0.0
  0
LINE
  8
0
 62
     0
 10
83.7681
 20
80.4252
 30
0.0
 11
69.7689
 21
80.4252
 31
0.0
  0
LINE
  8
0
 62
     0
 10
126.919
 20
89.9502
 30
0.0
 11
126.919
 21
88.9497
 31
0.0
  0
LINE
  8
0
 62
     0
 10
126.919
 20
88.9497
 30
0.0
 11
126.119
 21
88.9497
 31
0.0
  0
LINE
  8
0
 62
     0
 10
126.119
 20
88.9497
 30
0.0
 11
126.119
 21
85.8502
 31
0.0
  0
LINE
  8
0
 62
     0
 10
126.119
 20
85.8502
 30
0.0
 11
126.919
 21
85.8502
 31
0.0
  0
LINE
  8
0
 62
     0
 10
126.919
 20
85.8502
 30
0.0
 11
126.919
 21
80.0502
 31
0.0
  0
LINE
  8
0
 62
     0
 10
126.919
 20
80.0502
 30
0.0
 11
126.119
 21
80.0502
 31
0.0
  0
LINE
  8
0
 62
     0
 10
126.119
 20
80.0502
 30
0.0
 11
126.119
 21
76.9497
 31
0.0
  0
LINE
  8
0
 62
     0
 10
126.119
 20
76.9497
 30
0.0
 11
126.919
 21
76.9497
 31
0.0
  0
LINE
  8
0
 62
     0
 10
126.919
 20
76.9497
 30
0.0
 11
126.919
 21
75.9506
 31
0.0
  0
LINE
  8
0
 62
     0
 10
126.919
 20
75.9506
 30
0.0
 11
140.918
 21
75.9506
 31
0.0
  0
LINE
  8
0
 62
     0
 10
140.918
 20
75.9506
 30
0.0
 11
140.918
 21
76.9497
 31
0.0
  0
LINE
  8
0
 62
     0
 10
140.918
 20
76.9497
 30
0.0
 11
141.719
 21
76.9497
 31
0.0
  0
LINE
  8
0
 62
     0
 10
141.719
 20
76.9497
 30
0.0
 11
141.719
 21
80.0502
 31
0.0
  0
LINE
  8
0
 62
     0
 10
141.719
 20
80.0502
 30
0.0
 11
140.918
 21
80.0502
 31
0.0
  0
LINE
  8
0
 62
     0
 10
140.918
 20
80.0502
 30
0.0
 11
140.918
 21
85.8502
 31
0.0
  0
LINE
  8
0
 62
     0
 10
140.918
 20
85.8502
 30
0.0
 11
141.719
 21
85.8502
 31
0.0
  0
LINE
  8
0
 62
     0
 10
141.719
 20
85.8502
 30
0.0
 11
141.719
 21
88.9497
 31
0.0
  0
LINE
  8
0
 62
     0
 10
141.719
 20
88.9497
 30
0.0
 11
140.918
 21
88.9497
 31
0.0
  0
LINE
  8
0
 62
     0
 10
140.918
 20
88.9497
 30
0.0
 11
140.918
 21
89.9502
 31
0.0
  0
LINE
  8
0
 62
     0
 10
140.918
 20
89.9502
 30
0.0
 11
126.919
 21
89.9502
 31
0.0
  0
LINE
  8
0
 62
     0
 10
12.6187
 20
92.3325
 30
0.0
 11
12.6187
 21
91.3324
 31
0.0
  0
LINE
  8
0
 62
     0
 10
12.6187
 20
91.3324
 30
0.0
 11
11.8181
 21
91.3324
 31
0.0
  0
LINE
  8
0
 62
     0
 10
11.8181
 20
91.3324
 30
0.0
 11
11.8181
 21
88.2315
 31
0.0
  0
LINE
  8
0
 62
     0
 10
11.8181
 20
88.2315
 30
0.0
 11
12.6187
 21
88.2315
 31
0.0
  0
LINE
  8
0
 62
     0
 10
12.6187
 20
88.2315
 30
0.0
 11
12.6187
 21
82.4315
 31
0.0
  0
LINE
  8
0
 62
     0
 10
12.6187
 20
82.4315
 30
0.0
 11
11.8181
 21
82.4315
 31
0.0
  0
LINE
  8
0
 62
     0
 10
11.8181
 20
82.4315
 30
0.0
 11
11.8181
 21
79.3323
 31
0.0
  0
LINE
  8
0
 62
     0
 10
11.8181
 20
79.3323
 30
0.0
 11
12.6187
 21
79.3323
 31
0.0
  0
LINE
  8
0
 62
     0
 10
12.6187
 20
79.3323
 30
0.0
 11
12.6187
 21
78.3318
 31
0.0
  0
LINE
  8
0
 62
     0
 10
12.6187
 20
78.3318
 30
0.0
 11
26.6182
 21
78.3318
 31
0.0
  0
LINE
  8
0
 62
     0
 10
26.6182
 20
78.3318
 30
0.0
 11
26.6182
 21
79.3323
 31
0.0
  0
LINE
  8
0
 62
     0
 10
26.6182
 20
79.3323
 30
0.0
 11
27.4161
 21
79.3323
 31
0.0
  0
LINE
  8
0
 62
     0
 10
27.4161
 20
79.3323
 30
0.0
 11
27.4161
 21
82.4315
 31
0.0
  0
LINE
  8
0
 62
     0
 10
27.4161
 20
82.4315
 30
0.0
 11
26.6182
 21
82.4315
 31
0.0
  0
LINE
  8
0
 62
     0
 10
26.6182
 20
82.4315
 30
0.0
 11
26.6182
 21
88.2315
 31
0.0
  0
LINE
  8
0
 62
     0
 10
26.6182
 20
88.2315
 30
0.0
 11
27.4161
 21
88.2315
 31
0.0
  0
LINE
  8
0
 62
     0
 10
27.4161
 20
88.2315
 30
0.0
 11
27.4161
 21
91.3324
 31
0.0
  0
LINE
  8
0
 62
     0
 10
27.4161
 20
91.3324
 30
0.0
 11
26.6182
 21
91.3324
 31
0.0
  0
LINE
  8
0
 62
     0
 10
26.6182
 20
91.3324
 30
0.0
 11
26.6182
 21
92.3325
 31
0.0
  0
LINE
  8
0
 62
     0
 10
26.6182
 20
92.3325
 30
0.0
 11
12.6187
 21
92.3325
 31
0.0
  0
LINE
  8
0
 62
     0
 10
31.6673
 20
94.7127
 30
0.0
 11
31.6673
 21
93.7136
 31
0.0
  0
LINE
  8
0
 62
     0
 10
31.6673
 20
93.7136
 30
0.0
 11
30.8694
 21
93.7136
 31
0.0
  0
LINE
  8
0
 62
     0
 10
30.8694
 20
93.7136
 30
0.0
 11
30.8694
 21
90.6127
 31
0.0
  0
LINE
  8
0
 62
     0
 10
30.8694
 20
90.6127
 30
0.0
 11
31.6673
 21
90.6127
 31
0.0
  0
LINE
  8
0
 62
     0
 10
31.6673
 20
90.6127
 30
0.0
 11
31.6673
 21
84.8141
 31
0.0
  0
LINE
  8
0
 62
     0
 10
31.6673
 20
84.8141
 30
0.0
 11
30.8694
 21
84.8141
 31
0.0
  0
LINE
  8
0
 62
     0
 10
30.8694
 20
84.8141
 30
0.0
 11
30.8694
 21
81.7136
 31
0.0
  0
LINE
  8
0
 62
     0
 10
30.8694
 20
81.7136
 30
0.0
 11
31.6673
 21
81.7136
 31
0.0
  0
LINE
  8
0
 62
     0
 10
31.6673
 20
81.7136
 30
0.0
 11
31.6673
 21
80.7131
 31
0.0
  0
LINE
  8
0
 62
     0
 10
31.6673
 20
80.7131
 30
0.0
 11
45.6681
 21
80.7131
 31
0.0
  0
LINE
  8
0
 62
     0
 10
45.6681
 20
80.7131
 30
0.0
 11
45.6681
 21
81.7136
 31
0.0
  0
LINE
  8
0
 62
     0
 10
45.6681
 20
81.7136
 30
0.0
 11
46.4675
 21
81.7136
 31
0.0
  0
LINE
  8
0
 62
     0
 10
46.4675
 20
81.7136
 30
0.0
 11
46.4675
 21
84.8141
 31
0.0
  0
LINE
  8
0
 62
     0
 10
46.4675
 20
84.8141
 30
0.0
 11
45.6681
 21
84.8141
 31
0.0
  0
LINE
  8
0
 62
     0
 10
45.6681
 20
84.8141
 30
0.0
 11
45.6681
 21
90.6127
 31
0.0
  0
LINE
  8
0
 62
     0
 10
45.6681
 20
90.6127
 30
0.0
 11
46.4675
 21
90.6127
 31
0.0
  0
LINE
  8
0
 62
     0
 10
46.4675
 20
90.6127
 30
0.0
 11
46.4675
 21
93.7136
 31
0.0
  0
LINE
  8
0
 62
     0
 10
46.4675
 20
93.7136
 30
0.0
 11
45.6681
 21
93.7136
 31
0.0
  0
LINE
  8
0
 62
     0
 10
45.6681
 20
93.7136
 30
0.0
 11
45.6681
 21
94.7127
 31
0.0
  0
LINE
  8
0
 62
     0
 10
45.6681
 20
94.7127
 30
0.0
 11
31.6673
 21
94.7127
 31
0.0
  0
LINE
  8
0
 62
     0
 10
107.869
 20
94.7127
 30
0.0
 11
107.869
 21
93.7136
 31
0.0
  0
LINE
  8
0
 62
     0
 10
107.869
 20
93.7136
 30
0.0
 11
107.069
 21
93.7136
 31
0.0
  0
LINE
  8
0
 62
     0
 10
107.069
 20
93.7136
 30
0.0
 11
107.069
 21
90.6127
 31
0.0
  0
LINE
  8
0
 62
     0
 10
107.069
 20
90.6127
 30
0.0
 11
107.869
 21
90.6127
 31
0.0
  0
LINE
  8
0
 62
     0
 10
107.869
 20
90.6127
 30
0.0
 11
107.869
 21
84.8141
 31
0.0
  0
LINE
  8
0
 62
     0
 10
107.869
 20
84.8141
 30
0.0
 11
107.069
 21
84.8141
 31
0.0
  0
LINE
  8
0
 62
     0
 10
107.069
 20
84.8141
 30
0.0
 11
107.069
 21
81.7136
 31
0.0
  0
LINE
  8
0
 62
     0
 10
107.069
 20
81.7136
 30
0.0
 11
107.869
 21
81.7136
 31
0.0
  0
LINE
  8
0
 62
     0
 10
107.869
 20
81.7136
 30
0.0
 11
107.869
 21
80.7131
 31
0.0
  0
LINE
  8
0
 62
     0
 10
107.869
 20
80.7131
 30
0.0
 11
121.868
 21
80.7131
 31
0.0
  0
LINE
  8
0
 62
     0
 10
121.868
 20
80.7131
 30
0.0
 11
121.868
 21
81.7136
 31
0.0
  0
LINE
  8
0
 62
     0
 10
121.868
 20
81.7136
 30
0.0
 11
122.669
 21
81.7136
 31
0.0
  0
LINE
  8
0
 62
     0
 10
122.669
 20
81.7136
 30
0.0
 11
122.669
 21
84.8141
 31
0.0
  0
LINE
  8
0
 62
     0
 10
122.669
 20
84.8141
 30
0.0
 11
121.868
 21
84.8141
 31
0.0
  0
LINE
  8
0
 62
     0
 10
121.868
 20
84.8141
 30
0.0
 11
121.868
 21
90.6127
 31
0.0
  0
LINE
  8
0
 62
     0
 10
121.868
 20
90.6127
 30
0.0
 11
122.669
 21
90.6127
 31
0.0
  0
LINE
  8
0
 62
     0
 10
122.669
 20
90.6127
 30
0.0
 11
122.669
 21
93.7136
 31
0.0
  0
LINE
  8
0
 62
     0
 10
122.669
 20
93.7136
 30
0.0
 11
121.868
 21
93.7136
 31
0.0
  0
LINE
  8
0
 62
     0
 10
121.868
 20
93.7136
 30
0.0
 11
121.868
 21
94.7127
 31
0.0
  0
LINE
  8
0
 62
     0
 10
121.868
 20
94.7127
 30
0.0
 11
107.869
 21
94.7127
 31
0.0
  0
LINE
  8
0
 62
     0
 10
50.7189
 20
97.094
 30
0.0
 11
50.7189
 21
96.0935
 31
0.0
  0
LINE
  8
0
 62
     0
 10
50.7189
 20
96.0935
 30
0.0
 11
49.9195
 21
96.0935
 31
0.0
  0
LINE
  8
0
 62
     0
 10
49.9195
 20
96.0935
 30
0.0
 11
49.9195
 21
92.994
 31
0.0
  0
LINE
  8
0
 62
     0
 10
49.9195
 20
92.994
 30
0.0
 11
50.7189
 21
92.994
 31
0.0
  0
LINE
  8
0
 62
     0
 10
50.7189
 20
92.994
 30
0.0
 11
50.7189
 21
87.194
 31
0.0
  0
LINE
  8
0
 62
     0
 10
50.7189
 20
87.194
 30
0.0
 11
49.9195
 21
87.194
 31
0.0
  0
LINE
  8
0
 62
     0
 10
49.9195
 20
87.194
 30
0.0
 11
49.9195
 21
84.0934
 31
0.0
  0
LINE
  8
0
 62
     0
 10
49.9195
 20
84.0934
 30
0.0
 11
50.7189
 21
84.0934
 31
0.0
  0
LINE
  8
0
 62
     0
 10
50.7189
 20
84.0934
 30
0.0
 11
50.7189
 21
83.0943
 31
0.0
  0
LINE
  8
0
 62
     0
 10
50.7189
 20
83.0943
 30
0.0
 11
64.7181
 21
83.0943
 31
0.0
  0
LINE
  8
0
 62
     0
 10
64.7181
 20
83.0943
 30
0.0
 11
64.7181
 21
84.0934
 31
0.0
  0
LINE
  8
0
 62
     0
 10
64.7181
 20
84.0934
 30
0.0
 11
65.519
 21
84.0934
 31
0.0
  0
LINE
  8
0
 62
     0
 10
65.519
 20
84.0934
 30
0.0
 11
65.519
 21
87.194
 31
0.0
  0
LINE
  8
0
 62
     0
 10
65.519
 20
87.194
 30
0.0
 11
64.7181
 21
87.194
 31
0.0
  0
LINE
  8
0
 62
     0
 10
64.7181
 20
87.194
 30
0.0
 11
64.7181
 21
92.994
 31
0.0
  0
LINE
  8
0
 62
     0
 10
64.7181
 20
92.994
 30
0.0
 11
65.519
 21
92.994
 31
0.0
  0
LINE
  8
0
 62
     0
 10
65.519
 20
92.994
 30
0.0
 11
65.519
 21
96.0935
 31
0.0
  0
LINE
  8
0
 62
     0
 10
65.519
 20
96.0935
 30
0.0
 11
64.7181
 21
96.0935
 31
0.0
  0
LINE
  8
0
 62
     0
 10
64.7181
 20
96.0935
 30
0.0
 11
64.7181
 21
97.094
 31
0.0
  0
LINE
  8
0
 62
     0
 10
64.7181
 20
97.094
 30
0.0
 11
50.7189
 21
97.094
 31
0.0
  0
LINE
  8
0
 62
     0
 10
88.8189
 20
97.094
 30
0.0
 11
88.8189
 21
96.0935
 31
0.0
  0
LINE
  8
0
 62
     0
 10
88.8189
 20
96.0935
 30
0.0
 11
88.0195
 21
96.0935
 31
0.0
  0
LINE
  8
0
 62
     0
 10
88.0195
 20
96.0935
 30
0.0
 11
88.0195
 21
92.994
 31
0.0
  0
LINE
  8
0
 62
     0
 10
88.0195
 20
92.994
 30
0.0
 11
88.8189
 21
92.994
 31
0.0
  0
LINE
  8
0
 62
     0
 10
88.8189
 20
92.994
 30
0.0
 11
88.8189
 21
87.194
 31
0.0
  0
LINE
  8
0
 62
     0
 10
88.8189
 20
87.194
 30
0.0
 11
88.0195
 21
87.194
 31
0.0
  0
LINE
  8
0
 62
     0
 10
88.0195
 20
87.194
 30
0.0
 11
88.0195
 21
84.0934
 31
0.0
  0
LINE
  8
0
 62
     0
 10
88.0195
 20
84.0934
 30
0.0
 11
88.8189
 21
84.0934
 31
0.0
  0
LINE
  8
0
 62
     0
 10
88.8189
 20
84.0934
 30
0.0
 11
88.8189
 21
83.0943
 31
0.0
  0
LINE
  8
0
 62
     0
 10
88.8189
 20
83.0943
 30
0.0
 11
102.818
 21
83.0943
 31
0.0
  0
LINE
  8
0
 62
     0
 10
102.818
 20
83.0943
 30
0.0
 11
102.818
 21
84.0934
 31
0.0
  0
LINE
  8
0
 62
     0
 10
102.818
 20
84.0934
 30
0.0
 11
103.618
 21
84.0934
 31
0.0
  0
LINE
  8
0
 62
     0
 10
103.618
 20
84.0934
 30
0.0
 11
103.618
 21
87.194
 31
0.0
  0
LINE
  8
0
 62
     0
 10
103.618
 20
87.194
 30
0.0
 11
102.818
 21
87.194
 31
0.0
  0
LINE
  8
0
 62
     0
 10
102.818
 20
87.194
 30
0.0
 11
102.818
 21
92.994
 31
0.0
  0
LINE
  8
0
 62
     0
 10
102.818
 20
92.994
 30
0.0
 11
103.618
 21
92.994
 31
0.0
  0
LINE
  8
0
 62
     0
 10
103.618
 20
92.994
 30
0.0
 11
103.618
 21
96.0935
 31
0.0
  0
LINE
  8
0
 62
     0
 10
103.618
 20
96.0935
 30
0.0
 11
102.818
 21
96.0935
 31
0.0
  0
LINE
  8
0
 62
     0
 10
102.818
 20
96.0935
 30
0.0
 11
102.818
 21
97.094
 31
0.0
  0
LINE
  8
0
 62
     0
 10
102.818
 20
97.094
 30
0.0
 11
88.8189
 21
97.094
 31
0.0
  0
LINE
  8
0
 62
     0
 10
69.7689
 20
99.4752
 30
0.0
 11
69.7689
 21
98.4747
 31
0.0
  0
LINE
  8
0
 62
     0
 10
69.7689
 20
98.4747
 30
0.0
 11
68.9695
 21
98.4747
 31
0.0
  0
LINE
  8
0
 62
     0
 10
68.9695
 20
98.4747
 30
0.0
 11
68.9695
 21
95.3752
 31
0.0
  0
LINE
  8
0
 62
     0
 10
68.9695
 20
95.3752
 30
0.0
 11
69.7689
 21
95.3752
 31
0.0
  0
LINE
  8
0
 62
     0
 10
69.7689
 20
95.3752
 30
0.0
 11
69.7689
 21
89.5766
 31
0.0
  0
LINE
  8
0
 62
     0
 10
69.7689
 20
89.5766
 30
0.0
 11
68.9695
 21
89.5766
 31
0.0
  0
LINE
  8
0
 62
     0
 10
68.9695
 20
89.5766
 30
0.0
 11
68.9695
 21
86.4747
 31
0.0
  0
LINE
  8
0
 62
     0
 10
68.9695
 20
86.4747
 30
0.0
 11
69.7689
 21
86.4747
 31
0.0
  0
LINE
  8
0
 62
     0
 10
69.7689
 20
86.4747
 30
0.0
 11
69.7689
 21
85.4756
 31
0.0
  0
LINE
  8
0
 62
     0
 10
69.7689
 20
85.4756
 30
0.0
 11
83.7681
 21
85.4756
 31
0.0
  0
LINE
  8
0
 62
     0
 10
83.7681
 20
85.4756
 30
0.0
 11
83.7681
 21
86.4747
 31
0.0
  0
LINE
  8
0
 62
     0
 10
83.7681
 20
86.4747
 30
0.0
 11
84.569
 21
86.4747
 31
0.0
  0
LINE
  8
0
 62
     0
 10
84.569
 20
86.4747
 30
0.0
 11
84.569
 21
89.5766
 31
0.0
  0
LINE
  8
0
 62
     0
 10
84.569
 20
89.5766
 30
0.0
 11
83.7681
 21
89.5766
 31
0.0
  0
LINE
  8
0
 62
     0
 10
83.7681
 20
89.5766
 30
0.0
 11
83.7681
 21
95.3752
 31
0.0
  0
LINE
  8
0
 62
     0
 10
83.7681
 20
95.3752
 30
0.0
 11
84.569
 21
95.3752
 31
0.0
  0
LINE
  8
0
 62
     0
 10
84.569
 20
95.3752
 30
0.0
 11
84.569
 21
98.4747
 31
0.0
  0
LINE
  8
0
 62
     0
 10
84.569
 20
98.4747
 30
0.0
 11
83.7681
 21
98.4747
 31
0.0
  0
LINE
  8
0
 62
     0
 10
83.7681
 20
98.4747
 30
0.0
 11
83.7681
 21
99.4752
 31
0.0
  0
LINE
  8
0
 62
     0
 10
83.7681
 20
99.4752
 30
0.0
 11
69.7689
 21
99.4752
 31
0.0
  0
ENDSEC
  0
EOF
