  0
SECTION
  2
HEADER
  9
$ACADVER
  1
AC1009
  9
$EXTMIN
 10
0.0
 20
0.0
 30
0.0
  9
$EXTMAX
 10
1000.0
 20
1000.0
 30
0.0
  9
$FILLMODE
 70
 0
  9
$SPLFRAME
 70
 1
  0
ENDSEC
  0
SECTION
  2
TABLES
  0
TABLE
  2
LAYER
 70
1
  0
LAYER
  2
0
 70
     0
 62
     7
  6
CONTINUOUS
  0
ENDTAB
  0
ENDSEC
  0
SECTION
  2
ENTITIES
  0
LINE
  8
0
 62
     0
 10
0.0937066
 20
39.1252
 30
0.0
 11
86.7696
 21
39.1252
 31
0.0
  0
LINE
  8
0
 62
     0
 10
86.7696
 20
39.1252
 30
0.0
 11
86.7696
 21
0.0744142
 31
0.0
  0
LINE
  8
0
 62
     0
 10
86.7696
 20
0.0744142
 30
0.0
 11
0.0937066
 21
0.0744142
 31
0.0
  0
LINE
  8
0
 62
     0
 10
0.0937066
 20
0.0744142
 30
0.0
 11
0.0937066
 21
39.1252
 31
0.0
  0
LINE
  8
0
 62
     0
 10
12.6187
 20
26.6003
 30
0.0
 11
12.6187
 21
25.5998
 31
0.0
  0
LINE
  8
0
 62
     0
 10
12.6187
 20
25.5998
 30
0.0
 11
11.8181
 21
25.5998
 31
0.0
  0
LINE
  8
0
 62
     0
 10
11.8181
 20
25.5998
 30
0.0
 11
11.8181
 21
22.5006
 31
0.0
  0
LINE
  8
0
 62
     0
 10
11.8181
 20
22.5006
 30
0.0
 11
12.6187
 21
22.5006
 31
0.0
  0
LINE
  8
0
 62
     0
 10
12.6187
 20
22.5006
 30
0.0
 11
12.6187
 21
16.7018
 31
0.0
  0
LINE
  8
0
 62
     0
 10
12.6187
 20
16.7018
 30
0.0
 11
11.8181
 21
16.7018
 31
0.0
  0
LINE
  8
0
 62
     0
 10
11.8181
 20
16.7018
 30
0.0
 11
11.8181
 21
13.5999
 31
0.0
  0
LINE
  8
0
 62
     0
 10
11.8181
 20
13.5999
 30
0.0
 11
12.6187
 21
13.5999
 31
0.0
  0
LINE
  8
0
 62
     0
 10
12.6187
 20
13.5999
 30
0.0
 11
12.6187
 21
12.6008
 31
0.0
  0
LINE
  8
0
 62
     0
 10
12.6187
 20
12.6008
 30
0.0
 11
26.6182
 21
12.6008
 31
0.0
  0
LINE
  8
0
 62
     0
 10
26.6182
 20
12.6008
 30
0.0
 11
26.6182
 21
13.5999
 31
0.0
  0
LINE
  8
0
 62
     0
 10
26.6182
 20
13.5999
 30
0.0
 11
27.4161
 21
13.5999
 31
0.0
  0
LINE
  8
0
 62
     0
 10
27.4161
 20
13.5999
 30
0.0
 11
27.4161
 21
16.7018
 31
0.0
  0
LINE
  8
0
 62
     0
 10
27.4161
 20
16.7018
 30
0.0
 11
26.6182
 21
16.7018
 31
0.0
  0
LINE
  8
0
 62
     0
 10
26.6182
 20
16.7018
 30
0.0
 11
26.6182
 21
22.5006
 31
0.0
  0
LINE
  8
0
 62
     0
 10
26.6182
 20
22.5006
 30
0.0
 11
27.4161
 21
22.5006
 31
0.0
  0
LINE
  8
0
 62
     0
 10
27.4161
 20
22.5006
 30
0.0
 11
27.4161
 21
25.5998
 31
0.0
  0
LINE
  8
0
 62
     0
 10
27.4161
 20
25.5998
 30
0.0
 11
26.6182
 21
25.5998
 31
0.0
  0
LINE
  8
0
 62
     0
 10
26.6182
 20
25.5998
 30
0.0
 11
26.6182
 21
26.6003
 31
0.0
  0
LINE
  8
0
 62
     0
 10
26.6182
 20
26.6003
 30
0.0
 11
12.6187
 21
26.6003
 31
0.0
  0
LINE
  8
0
 62
     0
 10
60.2439
 20
26.6003
 30
0.0
 11
60.2439
 21
25.5998
 31
0.0
  0
LINE
  8
0
 62
     0
 10
60.2439
 20
25.5998
 30
0.0
 11
59.4431
 21
25.5998
 31
0.0
  0
LINE
  8
0
 62
     0
 10
59.4431
 20
25.5998
 30
0.0
 11
59.4431
 21
22.5006
 31
0.0
  0
LINE
  8
0
 62
     0
 10
59.4431
 20
22.5006
 30
0.0
 11
60.2439
 21
22.5006
 31
0.0
  0
LINE
  8
0
 62
     0
 10
60.2439
 20
22.5006
 30
0.0
 11
60.2439
 21
16.7018
 31
0.0
  0
LINE
  8
0
 62
     0
 10
60.2439
 20
16.7018
 30
0.0
 11
59.4431
 21
16.7018
 31
0.0
  0
LINE
  8
0
 62
     0
 10
59.4431
 20
16.7018
 30
0.0
 11
59.4431
 21
13.5999
 31
0.0
  0
LINE
  8
0
 62
     0
 10
59.4431
 20
13.5999
 30
0.0
 11
60.2439
 21
13.5999
 31
0.0
  0
LINE
  8
0
 62
     0
 10
60.2439
 20
13.5999
 30
0.0
 11
60.2439
 21
12.6008
 31
0.0
  0
LINE
  8
0
 62
     0
 10
60.2439
 20
12.6008
 30
0.0
 11
74.2431
 21
12.6008
 31
0.0
  0
LINE
  8
0
 62
     0
 10
74.2431
 20
12.6008
 30
0.0
 11
74.2431
 21
13.5999
 31
0.0
  0
LINE
  8
0
 62
     0
 10
74.2431
 20
13.5999
 30
0.0
 11
75.044
 21
13.5999
 31
0.0
  0
LINE
  8
0
 62
     0
 10
75.044
 20
13.5999
 30
0.0
 11
75.044
 21
16.7018
 31
0.0
  0
LINE
  8
0
 62
     0
 10
75.044
 20
16.7018
 30
0.0
 11
74.2431
 21
16.7018
 31
0.0
  0
LINE
  8
0
 62
     0
 10
74.2431
 20
16.7018
 30
0.0
 11
74.2431
 21
22.5006
 31
0.0
  0
LINE
  8
0
 62
     0
 10
74.2431
 20
22.5006
 30
0.0
 11
75.044
 21
22.5006
 31
0.0
  0
LINE
  8
0
 62
     0
 10
75.044
 20
22.5006
 30
0.0
 11
75.044
 21
25.5998
 31
0.0
  0
LINE
  8
0
 62
     0
 10
75.044
 20
25.5998
 30
0.0
 11
74.2431
 21
25.5998
 31
0.0
  0
LINE
  8
0
 62
     0
 10
74.2431
 20
25.5998
 30
0.0
 11
74.2431
 21
26.6003
 31
0.0
  0
LINE
  8
0
 62
     0
 10
74.2431
 20
26.6003
 30
0.0
 11
60.2439
 21
26.6003
 31
0.0
  0
ENDSEC
  0
EOF
