<?xml version="1.0" encoding="UTF-8" standalone="no"?>
<svg
   xmlns:dc="http://purl.org/dc/elements/1.1/"
   xmlns:cc="http://creativecommons.org/ns#"
   xmlns:rdf="http://www.w3.org/1999/02/22-rdf-syntax-ns#"
   xmlns:svg="http://www.w3.org/2000/svg"
   xmlns="http://www.w3.org/2000/svg"
   xmlns:sodipodi="http://sodipodi.sourceforge.net/DTD/sodipodi-0.dtd"
   xmlns:inkscape="http://www.inkscape.org/namespaces/inkscape"
   width="793.700787402"
   height="1122.51968504"
   version="1.1"
   id="svg635"
   sodipodi:docname="everything v4.dxf"
   inkscape:version="0.92.3 (2405546, 2018-03-11)">
  <metadata
     id="metadata639">
    <rdf:RDF>
      <cc:Work
         rdf:about="">
        <dc:format>image/svg+xml</dc:format>
        <dc:type
           rdf:resource="http://purl.org/dc/dcmitype/StillImage" />
        <dc:title></dc:title>
      </cc:Work>
    </rdf:RDF>
  </metadata>
  <sodipodi:namedview
     pagecolor="#ffffff"
     bordercolor="#666666"
     borderopacity="1"
     objecttolerance="10"
     gridtolerance="10"
     guidetolerance="10"
     inkscape:pageopacity="0"
     inkscape:pageshadow="2"
     inkscape:window-width="1600"
     inkscape:window-height="847"
     id="namedview637"
     showgrid="false"
     inkscape:zoom="1.2079967"
     inkscape:cx="267.84223"
     inkscape:cy="917.77581"
     inkscape:window-x="-8"
     inkscape:window-y="-8"
     inkscape:window-maximized="1"
     inkscape:current-layer="g629" />
  <desc
     id="desc436">C:\Users\grog\Dropbox\keyboards\AcrylicCase v4\everything v4.dxf - scale = 1.000000, origin = (0.000000, 0.000000), method = manual</desc>
  <defs
     id="defs509">
    <marker
       id="DistanceX"
       orient="auto"
       refX="0.0"
       refY="0.0"
       style="overflow:visible">
      <path
         d="M 3,-3 L -3,3 M 0,-5 L  0,5"
         style="stroke:#000000; stroke-width:0.5"
         id="path438" />
    </marker>
    <pattern
       height="8"
       id="Hatch"
       patternUnits="userSpaceOnUse"
       width="8"
       x="0"
       y="0">
      <path
         d="M8 4 l-4,4"
         linecap="square"
         stroke="#000000"
         stroke-width="0.25"
         id="path441" />
      <path
         d="M6 2 l-4,4"
         linecap="square"
         stroke="#000000"
         stroke-width="0.25"
         id="path443" />
      <path
         d="M4 0 l-4,4"
         linecap="square"
         stroke="#000000"
         stroke-width="0.25"
         id="path445" />
    </pattern>
    <symbol
       id="*Model_Space" />
    <symbol
       id="*Paper_Space" />
    <symbol
       id="A$C0C3B0353">
      <path
         d="M 9.835462,754.651907 L 177.834328,725.851907 L 177.858580,725.847750 L 177.883462,725.847750 L 535.483462,725.847750 L 537.074695,726.003327 L 538.668327,726.448434 L 540.231921,727.150633 L 541.733040,728.077490 L 543.139248,729.196567 L 544.418109,730.475428 L 545.537186,731.881636 L 546.464043,733.382756 L 547.166243,734.946349 L 547.611350,736.539981 L 547.766927,738.131214 L 547.766927,742.931214 L 547.766927,932.531214 L 547.766927,944.464317 L 547.834919,945.297645 L 548.032539,946.094368 L 548.350248,946.856685 L 548.778508,947.586792 L 549.307781,948.286887 L 549.928529,948.959169 L 550.631214,949.605833 L 551.406298,950.229079 L 553.135510,951.414103 L 555.039862,952.531821 L 559.068767,954.635659 L 561.040712,955.656941 L 562.882580,956.681238 L 564.518066,957.726130 L 565.234571,958.261793 L 565.870867,958.809198 L 566.417415,959.370542 L 566.864678,959.948023 L 567.203117,960.543837 L 567.423195,961.160184 L 567.515374,961.799259 L 567.470114,962.463262 L 567.277880,963.154388 L 566.929131,963.874836 L 475.729131,1119.874836 L 475.198258,1120.606792 L 474.549426,1121.208947 L 473.796630,1121.688357 L 472.953866,1122.052078 L 472.035127,1122.307169 L 471.054409,1122.460685 L 470.025706,1122.519684 L 468.963012,1122.491223 L 466.791632,1122.200145 L 464.652226,1121.643906 L 462.656751,1120.878961 L 461.747973,1120.435867 L 460.917163,1119.961766 L 410.543620,1088.780663 L 409.959449,1088.431115 L 409.359108,1088.097464 L 408.744142,1087.783376 L 408.116097,1087.492516 L 407.476520,1087.228547 L 406.826956,1086.995134 L 406.168953,1086.795943 L 405.504055,1086.634637 L 404.833810,1086.514881 L 404.159764,1086.440340 L 403.483462,1086.414679 L 389.083462,1086.414679 L 122.683462,1086.414679 L 17.083462,1086.414679 L 14.870424,1086.198307 L 12.654050,1085.579267 L 10.479452,1084.602669 L 8.391741,1083.313625 L 6.436030,1081.757247 L 4.657430,1079.978647 L 3.101052,1078.022935 L 1.812008,1075.935225 L 0.835410,1073.760627 L 0.216369,1071.544253 L -0.000003,1069.331214 L -0.000003,891.731214 L -0.000003,802.931214 L -0.000003,764.531214 L 0.125842,763.271446 L 0.485551,762.037179 L 1.052390,760.844023 L 1.799622,759.707588 L 2.700512,758.643483 L 3.728324,757.667317 L 4.856322,756.794700 L 6.057771,756.041241 L 7.305934,755.422550 L 8.574076,754.954236 L 9.835462,754.651907 z"
         style="stroke:#FF0000;fill:none"
         id="path450" />
    </symbol>
    <symbol
       id="A$C7B7D6091">
      <path
         d="M 241.500160,725.847750 A 9.805735,9.805735 0.0 0 1 251.305894,735.653485 L 251.305894,745.459219 L 178.220175,745.463377 L 22.269319,771.855380 L 22.269319,1065.289136 L 413.391165,1065.226148 L 471.316954,1099.017761 L 545.853644,971.246510 L 526.552774,959.183944 L 526.552774,807.584048 L 526.552774,796.976971 L 537.159850,796.976971 A 10.607076,10.607076 0.0 0 1 547.766927,807.584048 L 547.766927,932.531214 L 547.766927,944.464317 L 547.834919,945.297645 L 548.032539,946.094368 L 548.350248,946.856685 L 548.778508,947.586792 L 549.307781,948.286887 L 549.928529,948.959169 L 550.631214,949.605833 L 551.406298,950.229079 L 553.135510,951.414103 L 555.039862,952.531821 L 559.068767,954.635659 L 561.040712,955.656941 L 562.882580,956.681238 L 564.518066,957.726130 L 565.234571,958.261793 L 565.870867,958.809198 L 566.417415,959.370542 L 566.864678,959.948023 L 567.203117,960.543837 L 567.423195,961.160184 L 567.515374,961.799259 L 567.470114,962.463262 L 567.277880,963.154388 L 566.929131,963.874836 L 475.729131,1119.874836 L 475.198258,1120.606792 L 474.549426,1121.208947 L 473.796630,1121.688357 L 472.953866,1122.052078 L 472.035127,1122.307169 L 471.054409,1122.460685 L 470.025706,1122.519684 L 468.963012,1122.491223 L 466.791632,1122.200145 L 464.652226,1121.643906 L 462.656751,1120.878961 L 461.747973,1120.435867 L 460.917163,1119.961766 L 410.543620,1088.780663 L 409.959449,1088.431115 L 409.359108,1088.097464 L 408.744142,1087.783376 L 408.116097,1087.492516 L 407.476520,1087.228547 L 406.826956,1086.995134 L 406.168953,1086.795943 L 405.504055,1086.634637 L 404.833810,1086.514881 L 404.159764,1086.440340 L 403.483462,1086.414679 L 389.083462,1086.414679 L 122.683462,1086.414679 L 17.083462,1086.414679 L 14.870424,1086.198307 L 12.654050,1085.579267 L 10.479452,1084.602669 L 8.391741,1083.313625 L 6.436030,1081.757247 L 4.657430,1079.978647 L 3.101052,1078.022935 L 1.812008,1075.935225 L 0.835410,1073.760627 L 0.216369,1071.544253 L -0.000003,1069.331214 L -0.000003,891.731214 L -0.000003,802.931214 L -0.000003,764.531214 L 0.125842,763.271446 L 0.485551,762.037179 L 1.052390,760.844023 L 1.799622,759.707588 L 2.700512,758.643483 L 3.728324,757.667317 L 4.856322,756.794700 L 6.057771,756.041241 L 7.305934,755.422550 L 8.574076,754.954236 L 9.835462,754.651907 L 9.835462,754.651907 L 177.834328,725.851907 L 177.858580,725.847750 L 177.883462,725.847750 L 241.500160,725.847750 L 241.500160,725.847750 z"
         style="stroke:#FF0000;fill:none;stroke-linecap: round"
         id="path453" />
    </symbol>
    <symbol
       id="*D2">
      <path
         d="M 220.109919,743.549078 242.143849,743.549078"
         style="stroke:#000000;fill:none;stroke-linecap: round"
         id="path456" />
      <path
         d="M 220.109919,766.941747 242.143849,766.941747"
         style="stroke:#000000;fill:none;stroke-linecap: round"
         id="path458" />
      <path
         d="M 241.463534,744.229393 241.463534,754.565097"
         style="stroke:#000000;fill:none;stroke-linecap: round"
         id="path460" />
      <path
         d="M 241.463534,766.261432 241.463534,755.925727"
         style="stroke:#000000;fill:none;stroke-linecap: round"
         id="path462" />
      <text
         style="font-size: 0.7px; fill: #000000; font-family: Arial"
         x="241.463534"
         y="755.245412"
         id="text466">
        <tspan
           sodipodi:role="line"
           id="tspan464">6.1893</tspan>
      </text>
      <path
         d="M 220.123698,743.549078 A 0.250000,0.250000 -0.000000 1 0 219.623698,743.549078 0.250000,0.250000 -0.000000 1 0 220.123698,743.549078 z"
         style="stroke:#000000;fill:none;stroke-linecap: round"
         id="path468" />
      <path
         d="M 220.123698,766.941747 A 0.250000,0.250000 -0.000000 1 0 219.623698,766.941747 0.250000,0.250000 -0.000000 1 0 220.123698,766.941747 z"
         style="stroke:#000000;fill:none;stroke-linecap: round"
         id="path470" />
      <path
         d="M 241.713534,766.941747 A 0.250000,0.250000 -0.000000 1 0 241.213534,766.941747 0.250000,0.250000 -0.000000 1 0 241.713534,766.941747 z"
         style="stroke:#000000;fill:none;stroke-linecap: round"
         id="path472" />
    </symbol>
    <symbol
       id="A$C207C4C8E">
      <path
         d="M 4.253237,1118.202490 L 4.175908,1118.157778 L 4.236191,1118.053199 L 2.604229,1117.111000 L 2.543908,1117.215580 L 2.466617,1117.170830 L 2.246157,1117.552903 L 2.150610,1117.497722 L 1.917073,1117.902282 L 2.012393,1117.957463 L 0.474503,1120.621478 L 0.378957,1120.566320 L 0.145420,1120.970884 L 0.240739,1121.026047 L 0.020317,1121.407858 L 0.097647,1121.452555 L 0.037325,1121.557131 L 1.669363,1122.499348 L 1.729609,1122.394769 L 1.806938,1122.439473 L 4.253237,1118.202490 L 4.253237,1118.202490 z"
         style="stroke:#000000;fill:none"
         id="path475" />
    </symbol>
    <symbol
       id="A$C57922FF4">
      <path
         d="M 4.253237,1118.202490 L 4.175908,1118.157778 L 4.236191,1118.053199 L 2.604229,1117.111000 L 2.543908,1117.215580 L 2.466617,1117.170830 L 2.246157,1117.552903 L 2.150610,1117.497722 L 1.917073,1117.902282 L 2.012393,1117.957463 L 0.474503,1120.621478 L 0.378957,1120.566320 L 0.145420,1120.970884 L 0.240739,1121.026047 L 0.020317,1121.407858 L 0.097647,1121.452555 L 0.037325,1121.557131 L 1.669363,1122.499348 L 1.729609,1122.394769 L 1.806938,1122.439473 L 4.253237,1118.202490 L 4.253237,1118.202490 z"
         style="stroke:#000000;fill:none"
         id="path478" />
    </symbol>
    <symbol
       id="A$C6AAB3EEA">
      <path
         d="M 4.253237,1118.202490 L 4.175908,1118.157778 L 4.236191,1118.053199 L 2.604229,1117.111000 L 2.543908,1117.215580 L 2.466617,1117.170830 L 2.246157,1117.552903 L 2.150610,1117.497722 L 1.917073,1117.902282 L 2.012393,1117.957463 L 0.474503,1120.621478 L 0.378957,1120.566320 L 0.145420,1120.970884 L 0.240739,1121.026047 L 0.020317,1121.407858 L 0.097647,1121.452555 L 0.037325,1121.557131 L 1.669363,1122.499348 L 1.729609,1122.394769 L 1.806938,1122.439473 L 4.253237,1118.202490 L 4.253237,1118.202490 z"
         style="stroke:#000000;fill:none"
         id="path481" />
    </symbol>
    <symbol
       id="A$C671136A1">
      <path
         d="M 108.032415,1012.862956 L 106.068255,1011.727276 L 107.599455,1009.070956 L 66.147615,985.139116 L 64.615455,987.795436 L 62.652255,986.658796 L 57.052575,996.363436 L 54.625695,994.961836 L 48.693855,1005.237676 L 51.114975,1006.639276 L 12.052575,1074.305260 L 9.625695,1072.904236 L 3.693855,1083.180172 L 6.114975,1084.581292 L 0.516255,1094.279308 L 2.480415,1095.414604 L 0.948255,1098.070828 L 42.402015,1122.003148 L 43.932255,1119.346828 L 45.896415,1120.482316 L 108.032415,1012.862956 L 108.032415,1012.862956 z"
         style="stroke:#000000;fill:none"
         id="path484" />
    </symbol>
    <symbol
       id="*D7">
      <path
         d="M 519.169376,754.535915 519.169376,766.799500"
         style="stroke:#FF0000;fill:none;stroke-linecap: round"
         id="path487" />
      <path
         d="M 531.809757,754.535915 531.809757,766.799500"
         style="stroke:#FF0000;fill:none;stroke-linecap: round"
         id="path489" />
      <path
         d="M 519.849691,766.119185 523.448621,766.119185"
         style="stroke:#FF0000;fill:none;stroke-linecap: round"
         id="path491" />
      <path
         d="M 531.129442,766.119185 527.530511,766.119185"
         style="stroke:#FF0000;fill:none;stroke-linecap: round"
         id="path493" />
      <text
         style="font-size: 0.7px; fill: #FF0000; font-family: Arial"
         x="525.489566"
         y="766.119185"
         id="text497">
        <tspan
           sodipodi:role="line"
           id="tspan495">3.3444</tspan>
      </text>
      <path
         d="M 519.419376,754.299694 A 0.250000,0.250000 -0.000000 1 0 518.919376,754.299694 0.250000,0.250000 -0.000000 1 0 519.419376,754.299694 z"
         style="stroke:#000000;fill:none;stroke-linecap: round"
         id="path499" />
      <path
         d="M 532.059757,754.299694 A 0.250000,0.250000 -0.000000 1 0 531.559757,754.299694 0.250000,0.250000 -0.000000 1 0 532.059757,754.299694 z"
         style="stroke:#000000;fill:none;stroke-linecap: round"
         id="path501" />
      <path
         d="M 532.059757,766.119185 A 0.250000,0.250000 -0.000000 1 0 531.559757,766.119185 0.250000,0.250000 -0.000000 1 0 532.059757,766.119185 z"
         style="stroke:#000000;fill:none;stroke-linecap: round"
         id="path503" />
    </symbol>
    <symbol
       id="*T8">
      <path
         d="M 554.962491,995.158543 L 465.062588,1149.294826 A 11.338583,11.338583 0.0 0 1 449.554821,1153.376168 L 384.549418,1115.454589 L -15.957173,1115.454589 A 11.338583,11.338583 0.0 0 1 -27.295755,1104.116007 L -27.295755,782.685929 A 11.338583,11.338583 0.0 0 1 -17.872995,771.510372 L 156.257001,741.659314 L 519.169376,741.659314 A 12.640380,12.640380 0.0 0 1 531.809757,754.299694 L 531.809757,967.726489 L 551.177370,979.830767 A 11.338583,11.338583 0.0 0 1 554.962491,995.158543 z"
         style="stroke:#FF0000;fill:none;stroke-linecap: round"
         id="path506" />
    </symbol>
  </defs>
  <g
     inkscape:groupmode="layer"
     inkscape:label="0"
     id="g511" />
  <g
     inkscape:groupmode="layer"
     inkscape:label="Defpoints"
     id="g513" />
  <g
     inkscape:groupmode="layer"
     inkscape:label="BLACK"
     id="g515" />
  <g
     inkscape:groupmode="layer"
     inkscape:label="keyswitches"
     id="g569">
    <path
       d="m 67.265822,324.01517 h -3.02083 v 11.71881 h 3.02083 v 21.92163 h -3.02083 v 11.71352 h 3.02083 v 3.78141 H 120.1775 v -3.78141 h 3.02589 v -11.71352 h -3.02589 v -21.92163 h 3.02589 v -11.71881 h -3.02589 v -3.77612 H 67.265822 Z"
       style="fill:none;stroke:#ff0000"
       id="path517"
       inkscape:connector-curvature="0" />
    <path
       d="m 139.26601,99.014989 h -3.02098 v 11.718801 h 3.02098 v 21.92239 h -3.02098 v 11.71351 h 3.02098 v 3.78142 h 52.91074 v -3.78142 h 3.02664 v -11.71351 h -3.02664 v -21.92239 h 3.02664 V 99.014989 h -3.02664 v -3.77613 h -52.91074 z"
       style="fill:none;stroke:#ff0000"
       id="path519"
       inkscape:connector-curvature="0" />
    <path
       d="m 139.26601,171.01499 h -3.02098 v 11.7188 h 3.02098 v 21.92239 h -3.02098 v 11.71351 h 3.02098 v 3.78142 h 52.91074 v -3.78142 h 3.02664 v -11.71351 h -3.02664 v -21.92239 h 3.02664 v -11.7188 h -3.02664 v -3.77613 h -52.91074 z"
       style="fill:none;stroke:#ff0000"
       id="path521"
       inkscape:connector-curvature="0" />
    <path
       d="m 139.26601,243.01499 h -3.02098 v 11.7188 h 3.02098 v 21.92239 h -3.02098 v 11.71314 h 3.02098 v 3.78141 h 52.91074 v -3.78141 h 3.02664 v -11.71314 h -3.02664 v -21.92239 h 3.02664 v -11.7188 h -3.02664 v -3.77613 h -52.91074 z"
       style="fill:none;stroke:#ff0000"
       id="path523"
       inkscape:connector-curvature="0" />
    <path
       d="m 139.26601,315.01499 h -3.02098 v 11.7188 h 3.02098 v 21.92201 h -3.02098 v 11.71352 h 3.02098 v 3.78141 h 52.91074 v -3.78141 h 3.02664 V 348.6558 h -3.02664 v -21.92201 h 3.02664 v -11.7188 h -3.02664 v -3.77575 h -52.91074 z"
       style="fill:none;stroke:#ff0000"
       id="path525"
       inkscape:connector-curvature="0" />
    <path
       d="m 67.265822,108.0148 h -3.02083 v 11.7188 h 3.02083 v 21.92277 h -3.02083 v 11.71313 h 3.02083 v 3.78142 H 120.1775 v -3.78142 h 3.02589 V 141.65637 H 120.1775 V 119.7336 h 3.02589 v -11.7188 h -3.02589 v -3.77575 H 67.265822 Z"
       style="fill:none;stroke:#ff0000"
       id="path527"
       inkscape:connector-curvature="0" />
    <path
       d="m 67.265822,180.0148 h -3.02083 v 11.7188 h 3.02083 v 21.92277 h -3.02083 v 11.71313 h 3.02083 v 3.78142 H 120.1775 v -3.78142 h 3.02589 V 213.65637 H 120.1775 V 191.7336 h 3.02589 v -11.7188 h -3.02589 v -3.77575 H 67.265822 Z"
       style="fill:none;stroke:#ff0000"
       id="path529"
       inkscape:connector-curvature="0" />
    <path
       d="m 67.265822,252.0148 h -3.02083 v 11.7188 h 3.02083 v 21.92201 h -3.02083 v 11.71352 h 3.02083 v 3.78141 H 120.1775 v -3.78141 h 3.02589 V 285.65561 H 120.1775 V 263.7336 h 3.02589 v -11.7188 h -3.02589 v -3.77575 H 67.265822 Z"
       style="fill:none;stroke:#ff0000"
       id="path531"
       inkscape:connector-curvature="0" />
    <path
       d="m 283.26601,81.020279 h -3.02136 v 11.71351 h 3.02136 v 21.922391 h -3.02136 v 11.71881 h 3.02136 v 3.77612 h 52.91074 v -3.77612 h 3.02664 v -11.71881 h -3.02664 V 92.733789 h 3.02664 v -11.71351 h -3.02664 v -3.78142 h -52.91074 z"
       style="fill:none;stroke:#ff0000"
       id="path533"
       inkscape:connector-curvature="0" />
    <path
       d="m 211.26601,90.020469 h -3.02136 V 101.7336 h 3.02136 v 21.92277 h -3.02136 v 11.71843 h 3.02136 v 3.77612 h 52.91074 v -3.77612 h 3.02664 v -11.71843 h -3.02664 V 101.7336 h 3.02664 V 90.020469 h -3.02664 v -3.78142 h -52.91074 z"
       style="fill:none;stroke:#ff0000"
       id="path535"
       inkscape:connector-curvature="0" />
    <path
       d="m 283.26601,153.02028 h -3.02136 v 11.71351 h 3.02136 v 21.92239 h -3.02136 v 11.71881 h 3.02136 v 3.77612 h 52.91074 v -3.77612 h 3.02664 v -11.71881 h -3.02664 v -21.92239 h 3.02664 v -11.71351 h -3.02664 v -3.78142 h -52.91074 z"
       style="fill:none;stroke:#ff0000"
       id="path537"
       inkscape:connector-curvature="0" />
    <path
       d="m 211.26601,162.02047 h -3.02136 v 11.71313 h 3.02136 v 21.92277 h -3.02136 v 11.71843 h 3.02136 v 3.77612 h 52.91074 v -3.77612 h 3.02664 v -11.71843 h -3.02664 V 173.7336 h 3.02664 v -11.71313 h -3.02664 v -3.78142 h -52.91074 z"
       style="fill:none;stroke:#ff0000"
       id="path539"
       inkscape:connector-curvature="0" />
    <path
       d="m 283.26601,225.02028 h -3.02136 v 11.71351 h 3.02136 v 21.92239 h -3.02136 v 11.71881 h 3.02136 v 3.77612 h 52.91074 v -3.77612 h 3.02664 v -11.71881 h -3.02664 v -21.92239 h 3.02664 v -11.71351 h -3.02664 v -3.78142 h -52.91074 z"
       style="fill:none;stroke:#ff0000"
       id="path541"
       inkscape:connector-curvature="0" />
    <path
       d="m 211.26601,234.02047 h -3.02136 v 11.71313 h 3.02136 v 21.92277 h -3.02136 v 11.71843 h 3.02136 v 3.77574 h 52.91074 v -3.77574 h 3.02664 v -11.71843 h -3.02664 V 245.7336 h 3.02664 v -11.71313 h -3.02664 v -3.78142 h -52.91074 z"
       style="fill:none;stroke:#ff0000"
       id="path543"
       inkscape:connector-curvature="0" />
    <path
       d="m 283.26601,297.02028 h -3.02136 v 11.71351 h 3.02136 v 21.92201 h -3.02136 v 11.71881 h 3.02136 v 3.77612 h 52.91074 v -3.77612 h 3.02664 V 330.6558 h -3.02664 v -21.92201 h 3.02664 v -11.71351 h -3.02664 v -3.78104 h -52.91074 z"
       style="fill:none;stroke:#ff0000"
       id="path545"
       inkscape:connector-curvature="0" />
    <path
       d="m 211.26601,306.37461 h -3.02136 v 11.7188 h 3.02136 v 21.92164 h -3.02136 v 11.7188 h 3.02136 v 3.77613 h 52.91074 v -3.77613 h 3.02664 v -11.7188 h -3.02664 v -21.92164 h 3.02664 v -11.7188 h -3.02664 v -3.77613 h -52.91074 z"
       style="fill:none;stroke:#ff0000"
       id="path547"
       inkscape:connector-curvature="0" />
    <path
       d="m 355.26601,90.020469 h -3.02136 V 101.7336 h 3.02136 v 21.92277 h -3.02136 v 11.71843 h 3.02136 v 3.77612 h 52.91074 v -3.77612 h 3.02135 v -11.71843 h -3.02135 V 101.7336 h 3.02135 V 90.020469 h -3.02135 v -3.78142 h -52.91074 z"
       style="fill:none;stroke:#ff0000"
       id="path549"
       inkscape:connector-curvature="0" />
    <path
       d="m 427.26601,99.014989 h -3.02136 v 11.718801 h 3.02136 v 21.92239 h -3.02136 v 11.71351 h 3.02136 v 3.78142 h 52.91074 v -3.78142 h 3.0274 v -11.71351 h -3.0274 v -21.92239 h 3.0274 V 99.014989 h -3.0274 v -3.77613 h -52.91074 z"
       style="fill:none;stroke:#ff0000"
       id="path551"
       inkscape:connector-curvature="0" />
    <path
       d="m 499.26714,117.02028 h -3.02362 v 11.71351 h 3.02362 v 21.92239 h -3.02362 v 11.71881 h 3.02362 v 3.77612 h 52.90961 v -3.77612 h 3.0274 v -11.71881 h -3.0274 v -21.92239 h 3.0274 v -11.71351 h -3.0274 v -3.78142 h -52.90961 z"
       style="fill:none;stroke:#ff0000"
       id="path553"
       inkscape:connector-curvature="0" />
    <path
       d="m 355.26601,162.02047 h -3.02136 v 11.71313 h 3.02136 v 21.92277 h -3.02136 v 11.71843 h 3.02136 v 3.77612 h 52.91074 v -3.77612 h 3.02135 v -11.71843 h -3.02135 V 173.7336 h 3.02135 v -11.71313 h -3.02135 v -3.78142 h -52.91074 z"
       style="fill:none;stroke:#ff0000"
       id="path555"
       inkscape:connector-curvature="0" />
    <path
       d="m 427.26601,171.01499 h -3.02136 v 11.7188 h 3.02136 v 21.92239 h -3.02136 v 11.71351 h 3.02136 v 3.78142 h 52.91074 v -3.78142 h 3.0274 v -11.71351 h -3.0274 v -21.92239 h 3.0274 v -11.7188 h -3.0274 v -3.77613 h -52.91074 z"
       style="fill:none;stroke:#ff0000"
       id="path557"
       inkscape:connector-curvature="0" />
    <path
       d="m 499.26714,189.02028 h -3.02362 v 11.71351 h 3.02362 v 21.92239 h -3.02362 v 11.71881 h 3.02362 v 3.77612 h 52.90961 v -3.77612 h 3.0274 v -11.71881 h -3.0274 v -21.92239 h 3.0274 v -11.71351 h -3.0274 v -3.78142 h -52.90961 z"
       style="fill:none;stroke:#ff0000"
       id="path559"
       inkscape:connector-curvature="0" />
    <path
       d="m 355.26601,234.02047 h -3.02136 v 11.71313 h 3.02136 v 21.92277 h -3.02136 v 11.71843 h 3.02136 v 3.77574 h 52.91074 v -3.77574 h 3.02135 v -11.71843 h -3.02135 V 245.7336 h 3.02135 v -11.71313 h -3.02135 v -3.78142 h -52.91074 z"
       style="fill:none;stroke:#ff0000"
       id="path561"
       inkscape:connector-curvature="0" />
    <path
       d="m 427.26601,243.01499 h -3.02136 v 11.7188 h 3.02136 v 21.92239 h -3.02136 v 11.71314 h 3.02136 v 3.78141 h 52.91074 v -3.78141 h 3.0274 v -11.71314 h -3.0274 v -21.92239 h 3.0274 v -11.7188 h -3.0274 v -3.77613 h -52.91074 z"
       style="fill:none;stroke:#ff0000"
       id="path563"
       inkscape:connector-curvature="0" />
    <path
       d="m 381.38065,308.92654 -2.03716,11.53134 2.97978,0.52611 -3.80788,21.58829 -2.97335,-0.52574 -2.04132,11.54155 2.97864,0.52082 -0.65046,3.72396 52.10911,9.18728 0.65612,-3.72359 2.97336,0.52573 2.03716,-11.54154 -2.97978,-0.52082 3.80788,-21.58866 2.97864,0.5314 2.03339,-11.54154 -2.98205,-0.52611 0.66142,-3.72397 -52.10873,-9.18766 -0.65612,3.72397 z"
       style="fill:none;stroke:#ff0000"
       id="path565"
       inkscape:connector-curvature="0" />
    <path
       d="M 503.88965,402.55924 451.15624,372.11265 514.14551,263.01 l 52.77524,30.46823 z"
       style="fill:none;stroke:#ff0000;stroke-linecap:round"
       id="path567"
       inkscape:connector-curvature="0" />
  </g>
  <g
     inkscape:groupmode="layer"
     inkscape:label="outside top"
     id="g573">
    <path
       d="m 612.32727,288.04981 -89.8999,154.13628 a 11.338583,11.338583 0 0 1 -15.50777,4.08135 L 441.9142,408.34586 H 41.407612 A 11.338583,11.338583 0 0 1 30.069022,397.00728 V 75.577199 a 11.338583,11.338583 0 0 1 9.42276,-11.17556 L 213.62178,34.550579 h 362.91237 a 12.64038,12.64038 0 0 1 12.64039,12.64038 V 260.61776 l 19.36761,12.10428 a 11.338583,11.338583 0 0 1 3.78512,15.32777 z"
       style="fill:none;stroke:#ff0000;stroke-linecap:round"
       id="path571"
       inkscape:connector-curvature="0" />
  </g>
  <g
     inkscape:groupmode="layer"
     inkscape:label="screwholes"
     id="g595">
    <path
       d="m 48.208012,77.247889 a 3.779528,3.779528 0 1 0 -7.55905,0 3.779528,3.779528 0 1 0 7.55905,0 z"
       style="fill:none;stroke:#ff0000;stroke-linecap:round"
       id="path575"
       inkscape:connector-curvature="0" />
    <path
       d="m 46.872982,234.83415 a 3.77953,3.77953 0 1 0 -7.55906,0 3.77953,3.77953 0 1 0 7.55906,0 z"
       style="fill:none;stroke:#ff0000;stroke-linecap:round"
       id="path577"
       inkscape:connector-curvature="0" />
    <path
       d="m 48.533472,394.23283 a 3.779528,3.779528 0 1 0 -7.55905,0 3.779528,3.779528 0 1 0 7.55905,0 z"
       style="fill:none;stroke:#ff0000;stroke-linecap:round"
       id="path579"
       inkscape:connector-curvature="0" />
    <path
       d="m 601.1556,283.24825 a 3.779528,3.779528 0 1 0 -7.55905,0 3.779528,3.779528 0 1 0 7.55905,0 z"
       style="fill:none;stroke:#ff0000;stroke-linecap:round"
       id="path581"
       inkscape:connector-curvature="0" />
    <path
       d="m 514.95134,430.92155 a 3.77953,3.77953 0 1 0 -7.55906,0 3.77953,3.77953 0 1 0 7.55906,0 z"
       style="fill:none;stroke:#ff0000;stroke-linecap:round"
       id="path583"
       inkscape:connector-curvature="0" />
    <path
       d="m 295.40131,395.89332 a 3.77953,3.77953 0 1 0 -7.55906,0 3.77953,3.77953 0 1 0 7.55906,0 z"
       style="fill:none;stroke:#ff0000;stroke-linecap:round"
       id="path585"
       inkscape:connector-curvature="0" />
    <path
       d="m 254.21589,47.192559 a 3.77953,3.77953 0 1 0 -7.55906,0 3.77953,3.77953 0 1 0 7.55906,0 z"
       style="fill:none;stroke:#ff0000;stroke-linecap:round"
       id="path587"
       inkscape:connector-curvature="0" />
    <path
       d="m 372.72157,47.190959 a 3.77953,3.77953 0 1 0 -7.55906,0 3.77953,3.77953 0 1 0 7.55906,0 z"
       style="fill:none;stroke:#ff0000;stroke-linecap:round"
       id="path589"
       inkscape:connector-curvature="0" />
    <path
       d="m 580.45722,123.84594 a 3.779528,3.779528 0 1 0 -7.55905,0 3.779528,3.779528 0 1 0 7.55905,0 z"
       style="fill:none;stroke:#ff0000;stroke-linecap:round"
       id="path591"
       inkscape:connector-curvature="0" />
    <path
       d="m 555.32,47.190959 a 3.779528,3.779528 0 1 0 -7.55905,0 3.779528,3.779528 0 1 0 7.55905,0 z"
       style="fill:none;stroke:#ff0000;stroke-linecap:round"
       id="path593"
       inkscape:connector-curvature="0" />
  </g>
  <g
     inkscape:groupmode="layer"
     inkscape:label="construction"
     id="g597" />
  <g
     inkscape:groupmode="layer"
     inkscape:label="cutouts"
     id="g603" />
  <g
     inkscape:groupmode="layer"
     inkscape:label="reset hole"
     id="g607" />
  <g
     inkscape:groupmode="layer"
     inkscape:label="midholes"
     id="g629" />
  <g
     inkscape:groupmode="layer"
     inkscape:label="outside bottom"
     id="g633" />
</svg>
