<?xml version="1.0" encoding="UTF-8" standalone="no"?>
<svg
   xmlns:dc="http://purl.org/dc/elements/1.1/"
   xmlns:cc="http://creativecommons.org/ns#"
   xmlns:rdf="http://www.w3.org/1999/02/22-rdf-syntax-ns#"
   xmlns:svg="http://www.w3.org/2000/svg"
   xmlns="http://www.w3.org/2000/svg"
   xmlns:sodipodi="http://sodipodi.sourceforge.net/DTD/sodipodi-0.dtd"
   xmlns:inkscape="http://www.inkscape.org/namespaces/inkscape"
   width="793.700787402"
   height="1122.51968504"
   version="1.1"
   id="svg438"
   sodipodi:docname="everything v4.1.dxf"
   inkscape:version="0.92.3 (2405546, 2018-03-11)">
  <metadata
     id="metadata442">
    <rdf:RDF>
      <cc:Work
         rdf:about="">
        <dc:format>image/svg+xml</dc:format>
        <dc:type
           rdf:resource="http://purl.org/dc/dcmitype/StillImage" />
        <dc:title></dc:title>
      </cc:Work>
    </rdf:RDF>
  </metadata>
  <sodipodi:namedview
     pagecolor="#ffffff"
     bordercolor="#666666"
     borderopacity="1"
     objecttolerance="10"
     gridtolerance="10"
     guidetolerance="10"
     inkscape:pageopacity="0"
     inkscape:pageshadow="2"
     inkscape:window-width="1600"
     inkscape:window-height="847"
     id="namedview440"
     showgrid="false"
     inkscape:zoom="1.2079967"
     inkscape:cx="428.97682"
     inkscape:cy="763.353"
     inkscape:window-x="-8"
     inkscape:window-y="-8"
     inkscape:window-maximized="1"
     inkscape:current-layer="g424" />
  <desc
     id="desc231">C:\Users\grog\Dropbox\keyboards\AcrylicCase v4\everything v4.1.dxf - scale = 1.000000, origin = (0.000000, 0.000000), method = manual</desc>
  <defs
     id="defs304">
    <marker
       id="DistanceX"
       orient="auto"
       refX="0.0"
       refY="0.0"
       style="overflow:visible">
      <path
         d="M 3,-3 L -3,3 M 0,-5 L  0,5"
         style="stroke:#000000; stroke-width:0.5"
         id="path233" />
    </marker>
    <pattern
       height="8"
       id="Hatch"
       patternUnits="userSpaceOnUse"
       width="8"
       x="0"
       y="0">
      <path
         d="M8 4 l-4,4"
         linecap="square"
         stroke="#000000"
         stroke-width="0.25"
         id="path236" />
      <path
         d="M6 2 l-4,4"
         linecap="square"
         stroke="#000000"
         stroke-width="0.25"
         id="path238" />
      <path
         d="M4 0 l-4,4"
         linecap="square"
         stroke="#000000"
         stroke-width="0.25"
         id="path240" />
    </pattern>
    <symbol
       id="*Model_Space" />
    <symbol
       id="*Paper_Space" />
    <symbol
       id="A$C0C3B0353">
      <path
         d="M 9.835462,754.651907 L 177.834328,725.851907 L 177.858580,725.847750 L 177.883462,725.847750 L 535.483462,725.847750 L 537.074695,726.003327 L 538.668327,726.448434 L 540.231921,727.150633 L 541.733040,728.077490 L 543.139248,729.196567 L 544.418109,730.475428 L 545.537186,731.881636 L 546.464043,733.382756 L 547.166243,734.946349 L 547.611350,736.539981 L 547.766927,738.131214 L 547.766927,742.931214 L 547.766927,932.531214 L 547.766927,944.464317 L 547.834919,945.297645 L 548.032539,946.094368 L 548.350248,946.856685 L 548.778508,947.586792 L 549.307781,948.286887 L 549.928529,948.959169 L 550.631214,949.605833 L 551.406298,950.229079 L 553.135510,951.414103 L 555.039862,952.531821 L 559.068767,954.635659 L 561.040712,955.656941 L 562.882580,956.681238 L 564.518066,957.726130 L 565.234571,958.261793 L 565.870867,958.809198 L 566.417415,959.370542 L 566.864678,959.948023 L 567.203117,960.543837 L 567.423195,961.160184 L 567.515374,961.799259 L 567.470114,962.463262 L 567.277880,963.154388 L 566.929131,963.874836 L 475.729131,1119.874836 L 475.198258,1120.606792 L 474.549426,1121.208947 L 473.796630,1121.688357 L 472.953866,1122.052078 L 472.035127,1122.307169 L 471.054409,1122.460685 L 470.025706,1122.519684 L 468.963012,1122.491223 L 466.791632,1122.200145 L 464.652226,1121.643906 L 462.656751,1120.878961 L 461.747973,1120.435867 L 460.917163,1119.961766 L 410.543620,1088.780663 L 409.959449,1088.431115 L 409.359108,1088.097464 L 408.744142,1087.783376 L 408.116097,1087.492516 L 407.476520,1087.228547 L 406.826956,1086.995134 L 406.168953,1086.795943 L 405.504055,1086.634637 L 404.833810,1086.514881 L 404.159764,1086.440340 L 403.483462,1086.414679 L 389.083462,1086.414679 L 122.683462,1086.414679 L 17.083462,1086.414679 L 14.870424,1086.198307 L 12.654050,1085.579267 L 10.479452,1084.602669 L 8.391741,1083.313625 L 6.436030,1081.757247 L 4.657430,1079.978647 L 3.101052,1078.022935 L 1.812008,1075.935225 L 0.835410,1073.760627 L 0.216369,1071.544253 L -0.000003,1069.331214 L -0.000003,891.731214 L -0.000003,802.931214 L -0.000003,764.531214 L 0.125842,763.271446 L 0.485551,762.037179 L 1.052390,760.844023 L 1.799622,759.707588 L 2.700512,758.643483 L 3.728324,757.667317 L 4.856322,756.794700 L 6.057771,756.041241 L 7.305934,755.422550 L 8.574076,754.954236 L 9.835462,754.651907 z"
         style="stroke:#FF0000;fill:none"
         id="path245" />
    </symbol>
    <symbol
       id="A$C7B7D6091">
      <path
         d="M 241.500160,725.847750 A 9.805735,9.805735 0.0 0 1 251.305894,735.653485 L 251.305894,745.459219 L 178.220175,745.463377 L 22.269319,771.855380 L 22.269319,1065.289136 L 413.391165,1065.226148 L 471.316954,1099.017761 L 545.853644,971.246510 L 526.552774,959.183944 L 526.552774,807.584048 L 526.552774,796.976971 L 537.159850,796.976971 A 10.607076,10.607076 0.0 0 1 547.766927,807.584048 L 547.766927,932.531214 L 547.766927,944.464317 L 547.834919,945.297645 L 548.032539,946.094368 L 548.350248,946.856685 L 548.778508,947.586792 L 549.307781,948.286887 L 549.928529,948.959169 L 550.631214,949.605833 L 551.406298,950.229079 L 553.135510,951.414103 L 555.039862,952.531821 L 559.068767,954.635659 L 561.040712,955.656941 L 562.882580,956.681238 L 564.518066,957.726130 L 565.234571,958.261793 L 565.870867,958.809198 L 566.417415,959.370542 L 566.864678,959.948023 L 567.203117,960.543837 L 567.423195,961.160184 L 567.515374,961.799259 L 567.470114,962.463262 L 567.277880,963.154388 L 566.929131,963.874836 L 475.729131,1119.874836 L 475.198258,1120.606792 L 474.549426,1121.208947 L 473.796630,1121.688357 L 472.953866,1122.052078 L 472.035127,1122.307169 L 471.054409,1122.460685 L 470.025706,1122.519684 L 468.963012,1122.491223 L 466.791632,1122.200145 L 464.652226,1121.643906 L 462.656751,1120.878961 L 461.747973,1120.435867 L 460.917163,1119.961766 L 410.543620,1088.780663 L 409.959449,1088.431115 L 409.359108,1088.097464 L 408.744142,1087.783376 L 408.116097,1087.492516 L 407.476520,1087.228547 L 406.826956,1086.995134 L 406.168953,1086.795943 L 405.504055,1086.634637 L 404.833810,1086.514881 L 404.159764,1086.440340 L 403.483462,1086.414679 L 389.083462,1086.414679 L 122.683462,1086.414679 L 17.083462,1086.414679 L 14.870424,1086.198307 L 12.654050,1085.579267 L 10.479452,1084.602669 L 8.391741,1083.313625 L 6.436030,1081.757247 L 4.657430,1079.978647 L 3.101052,1078.022935 L 1.812008,1075.935225 L 0.835410,1073.760627 L 0.216369,1071.544253 L -0.000003,1069.331214 L -0.000003,891.731214 L -0.000003,802.931214 L -0.000003,764.531214 L 0.125842,763.271446 L 0.485551,762.037179 L 1.052390,760.844023 L 1.799622,759.707588 L 2.700512,758.643483 L 3.728324,757.667317 L 4.856322,756.794700 L 6.057771,756.041241 L 7.305934,755.422550 L 8.574076,754.954236 L 9.835462,754.651907 L 9.835462,754.651907 L 177.834328,725.851907 L 177.858580,725.847750 L 177.883462,725.847750 L 241.500160,725.847750 L 241.500160,725.847750 z"
         style="stroke:#FF0000;fill:none;stroke-linecap: round"
         id="path248" />
    </symbol>
    <symbol
       id="*D2">
      <path
         d="M 220.109919,743.549078 242.143849,743.549078"
         style="stroke:#000000;fill:none;stroke-linecap: round"
         id="path251" />
      <path
         d="M 220.109919,766.941747 242.143849,766.941747"
         style="stroke:#000000;fill:none;stroke-linecap: round"
         id="path253" />
      <path
         d="M 241.463534,744.229393 241.463534,754.565097"
         style="stroke:#000000;fill:none;stroke-linecap: round"
         id="path255" />
      <path
         d="M 241.463534,766.261432 241.463534,755.925727"
         style="stroke:#000000;fill:none;stroke-linecap: round"
         id="path257" />
      <text
         style="font-size: 0.7px; fill: #000000; font-family: Arial"
         x="241.463534"
         y="755.245412"
         id="text261">
        <tspan
           sodipodi:role="line"
           id="tspan259">6.1893</tspan>
      </text>
      <path
         d="M 220.123698,743.549078 A 0.250000,0.250000 -0.000000 1 0 219.623698,743.549078 0.250000,0.250000 -0.000000 1 0 220.123698,743.549078 z"
         style="stroke:#000000;fill:none;stroke-linecap: round"
         id="path263" />
      <path
         d="M 220.123698,766.941747 A 0.250000,0.250000 -0.000000 1 0 219.623698,766.941747 0.250000,0.250000 -0.000000 1 0 220.123698,766.941747 z"
         style="stroke:#000000;fill:none;stroke-linecap: round"
         id="path265" />
      <path
         d="M 241.713534,766.941747 A 0.250000,0.250000 -0.000000 1 0 241.213534,766.941747 0.250000,0.250000 -0.000000 1 0 241.713534,766.941747 z"
         style="stroke:#000000;fill:none;stroke-linecap: round"
         id="path267" />
    </symbol>
    <symbol
       id="A$C207C4C8E">
      <path
         d="M 4.253237,1118.202490 L 4.175908,1118.157778 L 4.236191,1118.053199 L 2.604229,1117.111000 L 2.543908,1117.215580 L 2.466617,1117.170830 L 2.246157,1117.552903 L 2.150610,1117.497722 L 1.917073,1117.902282 L 2.012393,1117.957463 L 0.474503,1120.621478 L 0.378957,1120.566320 L 0.145420,1120.970884 L 0.240739,1121.026047 L 0.020317,1121.407858 L 0.097647,1121.452555 L 0.037325,1121.557131 L 1.669363,1122.499348 L 1.729609,1122.394769 L 1.806938,1122.439473 L 4.253237,1118.202490 L 4.253237,1118.202490 z"
         style="stroke:#000000;fill:none"
         id="path270" />
    </symbol>
    <symbol
       id="A$C57922FF4">
      <path
         d="M 4.253237,1118.202490 L 4.175908,1118.157778 L 4.236191,1118.053199 L 2.604229,1117.111000 L 2.543908,1117.215580 L 2.466617,1117.170830 L 2.246157,1117.552903 L 2.150610,1117.497722 L 1.917073,1117.902282 L 2.012393,1117.957463 L 0.474503,1120.621478 L 0.378957,1120.566320 L 0.145420,1120.970884 L 0.240739,1121.026047 L 0.020317,1121.407858 L 0.097647,1121.452555 L 0.037325,1121.557131 L 1.669363,1122.499348 L 1.729609,1122.394769 L 1.806938,1122.439473 L 4.253237,1118.202490 L 4.253237,1118.202490 z"
         style="stroke:#000000;fill:none"
         id="path273" />
    </symbol>
    <symbol
       id="A$C6AAB3EEA">
      <path
         d="M 4.253237,1118.202490 L 4.175908,1118.157778 L 4.236191,1118.053199 L 2.604229,1117.111000 L 2.543908,1117.215580 L 2.466617,1117.170830 L 2.246157,1117.552903 L 2.150610,1117.497722 L 1.917073,1117.902282 L 2.012393,1117.957463 L 0.474503,1120.621478 L 0.378957,1120.566320 L 0.145420,1120.970884 L 0.240739,1121.026047 L 0.020317,1121.407858 L 0.097647,1121.452555 L 0.037325,1121.557131 L 1.669363,1122.499348 L 1.729609,1122.394769 L 1.806938,1122.439473 L 4.253237,1118.202490 L 4.253237,1118.202490 z"
         style="stroke:#000000;fill:none"
         id="path276" />
    </symbol>
    <symbol
       id="A$C671136A1">
      <path
         d="M 108.032415,1012.862956 L 106.068255,1011.727276 L 107.599455,1009.070956 L 66.147615,985.139116 L 64.615455,987.795436 L 62.652255,986.658796 L 57.052575,996.363436 L 54.625695,994.961836 L 48.693855,1005.237676 L 51.114975,1006.639276 L 12.052575,1074.305260 L 9.625695,1072.904236 L 3.693855,1083.180172 L 6.114975,1084.581292 L 0.516255,1094.279308 L 2.480415,1095.414604 L 0.948255,1098.070828 L 42.402015,1122.003148 L 43.932255,1119.346828 L 45.896415,1120.482316 L 108.032415,1012.862956 L 108.032415,1012.862956 z"
         style="stroke:#000000;fill:none"
         id="path279" />
    </symbol>
    <symbol
       id="*D7">
      <path
         d="M 519.169376,754.535915 519.169376,766.799500"
         style="stroke:#FF0000;fill:none;stroke-linecap: round"
         id="path282" />
      <path
         d="M 531.809757,754.535915 531.809757,766.799500"
         style="stroke:#FF0000;fill:none;stroke-linecap: round"
         id="path284" />
      <path
         d="M 519.849691,766.119185 523.448621,766.119185"
         style="stroke:#FF0000;fill:none;stroke-linecap: round"
         id="path286" />
      <path
         d="M 531.129442,766.119185 527.530511,766.119185"
         style="stroke:#FF0000;fill:none;stroke-linecap: round"
         id="path288" />
      <text
         style="font-size: 0.7px; fill: #FF0000; font-family: Arial"
         x="525.489566"
         y="766.119185"
         id="text292">
        <tspan
           sodipodi:role="line"
           id="tspan290">3.3444</tspan>
      </text>
      <path
         d="M 519.419376,754.299694 A 0.250000,0.250000 -0.000000 1 0 518.919376,754.299694 0.250000,0.250000 -0.000000 1 0 519.419376,754.299694 z"
         style="stroke:#000000;fill:none;stroke-linecap: round"
         id="path294" />
      <path
         d="M 532.059757,754.299694 A 0.250000,0.250000 -0.000000 1 0 531.559757,754.299694 0.250000,0.250000 -0.000000 1 0 532.059757,754.299694 z"
         style="stroke:#000000;fill:none;stroke-linecap: round"
         id="path296" />
      <path
         d="M 532.059757,766.119185 A 0.250000,0.250000 -0.000000 1 0 531.559757,766.119185 0.250000,0.250000 -0.000000 1 0 532.059757,766.119185 z"
         style="stroke:#000000;fill:none;stroke-linecap: round"
         id="path298" />
    </symbol>
    <symbol
       id="*T8">
      <path
         d="M 554.962491,995.158543 L 465.062588,1149.294826 A 11.338583,11.338583 0.0 0 1 449.554821,1153.376168 L 384.549418,1115.454589 L -15.957173,1115.454589 A 11.338583,11.338583 0.0 0 1 -27.295755,1104.116007 L -27.295755,782.685929 A 11.338583,11.338583 0.0 0 1 -17.872995,771.510372 L 156.257001,741.659314 L 519.169376,741.659314 A 12.640380,12.640380 0.0 0 1 531.809757,754.299694 L 531.809757,967.726489 L 551.177370,979.830767 A 11.338583,11.338583 0.0 0 1 554.962491,995.158543 z"
         style="stroke:#FF0000;fill:none;stroke-linecap: round"
         id="path301" />
    </symbol>
  </defs>
  <g
     inkscape:groupmode="layer"
     inkscape:label="0"
     id="g306" />
  <g
     inkscape:groupmode="layer"
     inkscape:label="Defpoints"
     id="g308" />
  <g
     inkscape:groupmode="layer"
     inkscape:label="BLACK"
     id="g310" />
  <g
     inkscape:groupmode="layer"
     inkscape:label="keyswitches"
     id="g364">
    <path
       d="m 119.17286,393.70493 h -3.02082 v 11.71881 h 3.02082 v 21.92163 h -3.02082 v 11.71351 h 3.02082 v 3.78142 h 52.91169 v -3.78142 h 3.02589 v -11.71351 h -3.02589 v -21.92163 h 3.02589 v -11.71881 h -3.02589 v -3.77612 h -52.91169 z"
       style="fill:none;stroke:#ff0000"
       id="path312"
       inkscape:connector-curvature="0" />
    <path
       d="m 191.17305,168.70474 h -3.02098 v 11.71881 h 3.02098 v 21.92239 h -3.02098 v 11.71351 h 3.02098 v 3.78142 h 52.91074 v -3.78142 h 3.02665 v -11.71351 h -3.02665 v -21.92239 h 3.02665 v -11.71881 h -3.02665 v -3.77612 h -52.91074 z"
       style="fill:none;stroke:#ff0000"
       id="path314"
       inkscape:connector-curvature="0" />
    <path
       d="m 191.17305,240.70474 h -3.02098 v 11.71881 h 3.02098 v 21.92239 h -3.02098 v 11.71351 h 3.02098 v 3.78142 h 52.91074 v -3.78142 h 3.02665 v -11.71351 h -3.02665 v -21.92239 h 3.02665 v -11.71881 h -3.02665 v -3.77612 h -52.91074 z"
       style="fill:none;stroke:#ff0000"
       id="path316"
       inkscape:connector-curvature="0" />
    <path
       d="m 191.17305,312.70474 h -3.02098 v 11.71881 h 3.02098 v 21.92239 h -3.02098 v 11.71313 h 3.02098 v 3.78142 h 52.91074 v -3.78142 h 3.02665 v -11.71313 h -3.02665 v -21.92239 h 3.02665 v -11.71881 h -3.02665 v -3.77612 h -52.91074 z"
       style="fill:none;stroke:#ff0000"
       id="path318"
       inkscape:connector-curvature="0" />
    <path
       d="m 191.17305,384.70474 h -3.02098 v 11.71881 h 3.02098 v 21.92201 h -3.02098 v 11.71351 h 3.02098 v 3.78142 h 52.91074 v -3.78142 h 3.02665 v -11.71351 h -3.02665 v -21.92201 h 3.02665 v -11.71881 h -3.02665 V 380.929 h -52.91074 z"
       style="fill:none;stroke:#ff0000"
       id="path320"
       inkscape:connector-curvature="0" />
    <path
       d="m 119.17286,177.70455 h -3.02082 v 11.71881 h 3.02082 v 21.92277 h -3.02082 v 11.71313 h 3.02082 v 3.78142 h 52.91169 v -3.78142 h 3.02589 v -11.71313 h -3.02589 v -21.92277 h 3.02589 v -11.71881 h -3.02589 v -3.77574 h -52.91169 z"
       style="fill:none;stroke:#ff0000"
       id="path322"
       inkscape:connector-curvature="0" />
    <path
       d="m 119.17286,249.70455 h -3.02082 v 11.71881 h 3.02082 v 21.92277 h -3.02082 v 11.71313 h 3.02082 v 3.78142 h 52.91169 v -3.78142 h 3.02589 v -11.71313 h -3.02589 v -21.92277 h 3.02589 v -11.71881 h -3.02589 v -3.77574 h -52.91169 z"
       style="fill:none;stroke:#ff0000"
       id="path324"
       inkscape:connector-curvature="0" />
    <path
       d="m 119.17286,321.70455 h -3.02082 v 11.71881 h 3.02082 v 21.92201 h -3.02082 v 11.71351 h 3.02082 v 3.78142 h 52.91169 v -3.78142 h 3.02589 v -11.71351 h -3.02589 v -21.92201 h 3.02589 v -11.71881 h -3.02589 v -3.77574 h -52.91169 z"
       style="fill:none;stroke:#ff0000"
       id="path326"
       inkscape:connector-curvature="0" />
    <path
       d="m 335.17305,150.71003 h -3.02135 v 11.71352 h 3.02135 v 21.92239 h -3.02135 v 11.7188 h 3.02135 v 3.77613 h 52.91074 v -3.77613 h 3.02665 v -11.7188 h -3.02665 v -21.92239 h 3.02665 v -11.71352 h -3.02665 v -3.78141 h -52.91074 z"
       style="fill:none;stroke:#ff0000"
       id="path328"
       inkscape:connector-curvature="0" />
    <path
       d="m 263.17305,159.71022 h -3.02135 v 11.71314 h 3.02135 v 21.92277 h -3.02135 v 11.71842 h 3.02135 v 3.77613 h 52.91074 v -3.77613 h 3.02665 v -11.71842 h -3.02665 v -21.92277 h 3.02665 v -11.71314 h -3.02665 v -3.78141 h -52.91074 z"
       style="fill:none;stroke:#ff0000"
       id="path330"
       inkscape:connector-curvature="0" />
    <path
       d="m 335.17305,222.71003 h -3.02135 v 11.71352 h 3.02135 v 21.92239 h -3.02135 v 11.7188 h 3.02135 v 3.77613 h 52.91074 v -3.77613 h 3.02665 v -11.7188 h -3.02665 v -21.92239 h 3.02665 v -11.71352 h -3.02665 v -3.78141 h -52.91074 z"
       style="fill:none;stroke:#ff0000"
       id="path332"
       inkscape:connector-curvature="0" />
    <path
       d="m 263.17305,231.71022 h -3.02135 v 11.71314 h 3.02135 v 21.92277 h -3.02135 v 11.71842 h 3.02135 v 3.77613 h 52.91074 v -3.77613 h 3.02665 v -11.71842 h -3.02665 v -21.92277 h 3.02665 v -11.71314 h -3.02665 v -3.78141 h -52.91074 z"
       style="fill:none;stroke:#ff0000"
       id="path334"
       inkscape:connector-curvature="0" />
    <path
       d="m 335.17305,294.71003 h -3.02135 v 11.71352 h 3.02135 v 21.92239 h -3.02135 v 11.7188 h 3.02135 v 3.77613 h 52.91074 v -3.77613 h 3.02665 v -11.7188 h -3.02665 v -21.92239 h 3.02665 v -11.71352 h -3.02665 v -3.78141 h -52.91074 z"
       style="fill:none;stroke:#ff0000"
       id="path336"
       inkscape:connector-curvature="0" />
    <path
       d="m 263.17305,303.71022 h -3.02135 v 11.71314 h 3.02135 v 21.92277 h -3.02135 v 11.71842 h 3.02135 v 3.77575 h 52.91074 v -3.77575 h 3.02665 v -11.71842 h -3.02665 v -21.92277 h 3.02665 v -11.71314 h -3.02665 v -3.78141 h -52.91074 z"
       style="fill:none;stroke:#ff0000"
       id="path338"
       inkscape:connector-curvature="0" />
    <path
       d="m 335.17305,366.71003 h -3.02135 v 11.71352 h 3.02135 v 21.92201 h -3.02135 v 11.71881 h 3.02135 v 3.77612 h 52.91074 v -3.77612 h 3.02665 v -11.71881 h -3.02665 v -21.92201 h 3.02665 v -11.71352 h -3.02665 V 362.929 h -52.91074 z"
       style="fill:none;stroke:#ff0000"
       id="path340"
       inkscape:connector-curvature="0" />
    <path
       d="m 263.17305,376.06437 h -3.02135 v 11.7188 h 3.02135 v 21.92164 h -3.02135 v 11.7188 h 3.02135 v 3.77613 h 52.91074 v -3.77613 h 3.02665 v -11.7188 h -3.02665 v -21.92164 h 3.02665 v -11.7188 h -3.02665 v -3.77613 h -52.91074 z"
       style="fill:none;stroke:#ff0000"
       id="path342"
       inkscape:connector-curvature="0" />
    <path
       d="m 407.17305,159.71022 h -3.02135 v 11.71314 h 3.02135 v 21.92277 h -3.02135 v 11.71842 h 3.02135 v 3.77613 h 52.91074 v -3.77613 h 3.02136 v -11.71842 h -3.02136 v -21.92277 h 3.02136 v -11.71314 h -3.02136 v -3.78141 h -52.91074 z"
       style="fill:none;stroke:#ff0000"
       id="path344"
       inkscape:connector-curvature="0" />
    <path
       d="m 479.17305,168.70474 h -3.02135 v 11.71881 h 3.02135 v 21.92239 h -3.02135 v 11.71351 h 3.02135 v 3.78142 h 52.91074 v -3.78142 h 3.0274 v -11.71351 h -3.0274 v -21.92239 h 3.0274 v -11.71881 h -3.0274 v -3.77612 h -52.91074 z"
       style="fill:none;stroke:#ff0000"
       id="path346"
       inkscape:connector-curvature="0" />
    <path
       d="m 551.17418,186.71003 h -3.02362 v 11.71352 h 3.02362 v 21.92239 h -3.02362 v 11.7188 h 3.02362 v 3.77613 h 52.90961 v -3.77613 h 3.0274 v -11.7188 h -3.0274 v -21.92239 h 3.0274 v -11.71352 h -3.0274 v -3.78141 h -52.90961 z"
       style="fill:none;stroke:#ff0000"
       id="path348"
       inkscape:connector-curvature="0" />
    <path
       d="m 407.17305,231.71022 h -3.02135 v 11.71314 h 3.02135 v 21.92277 h -3.02135 v 11.71842 h 3.02135 v 3.77613 h 52.91074 v -3.77613 h 3.02136 v -11.71842 h -3.02136 v -21.92277 h 3.02136 v -11.71314 h -3.02136 v -3.78141 h -52.91074 z"
       style="fill:none;stroke:#ff0000"
       id="path350"
       inkscape:connector-curvature="0" />
    <path
       d="m 479.17305,240.70474 h -3.02135 v 11.71881 h 3.02135 v 21.92239 h -3.02135 v 11.71351 h 3.02135 v 3.78142 h 52.91074 v -3.78142 h 3.0274 v -11.71351 h -3.0274 v -21.92239 h 3.0274 v -11.71881 h -3.0274 v -3.77612 h -52.91074 z"
       style="fill:none;stroke:#ff0000"
       id="path352"
       inkscape:connector-curvature="0" />
    <path
       d="m 551.17418,258.71003 h -3.02362 v 11.71352 h 3.02362 v 21.92239 h -3.02362 v 11.7188 h 3.02362 v 3.77613 h 52.90961 v -3.77613 h 3.0274 v -11.7188 h -3.0274 v -21.92239 h 3.0274 v -11.71352 h -3.0274 v -3.78141 h -52.90961 z"
       style="fill:none;stroke:#ff0000"
       id="path354"
       inkscape:connector-curvature="0" />
    <path
       d="m 407.17305,303.71022 h -3.02135 v 11.71314 h 3.02135 v 21.92277 h -3.02135 v 11.71842 h 3.02135 v 3.77575 h 52.91074 v -3.77575 h 3.02136 v -11.71842 h -3.02136 v -21.92277 h 3.02136 v -11.71314 h -3.02136 v -3.78141 h -52.91074 z"
       style="fill:none;stroke:#ff0000"
       id="path356"
       inkscape:connector-curvature="0" />
    <path
       d="m 479.17305,312.70474 h -3.02135 v 11.71881 h 3.02135 v 21.92239 h -3.02135 v 11.71313 h 3.02135 v 3.78142 h 52.91074 v -3.78142 h 3.0274 v -11.71313 h -3.0274 v -21.92239 h 3.0274 v -11.71881 h -3.0274 v -3.77612 h -52.91074 z"
       style="fill:none;stroke:#ff0000"
       id="path358"
       inkscape:connector-curvature="0" />
    <path
       d="m 433.2877,378.6163 -2.03717,11.53134 2.97978,0.52611 -3.80787,21.58828 -2.97336,-0.52573 -2.04132,11.54155 2.97865,0.52081 -0.65046,3.72397 52.1091,9.18728 0.65613,-3.72359 2.97335,0.52573 2.03717,-11.54154 -2.97978,-0.52082 3.80787,-21.58866 2.97865,0.5314 2.03338,-11.54155 -2.98204,-0.52611 0.66141,-3.72396 -52.10872,-9.18766 -0.65613,3.72397 z"
       style="fill:none;stroke:#ff0000"
       id="path360"
       inkscape:connector-curvature="0" />
  </g>
  <g
     inkscape:groupmode="layer"
     inkscape:label="outside top"
     id="g368">
    <path
       d="m 664.23431,357.73957 -89.8999,154.13628 a 11.338583,11.338583 0 0 1 -15.50777,4.08134 l -65.0054,-37.92157 H 93.314652 A 11.338583,11.338583 0 0 1 81.97607,466.69703 V 145.26696 A 11.338583,11.338583 0 0 1 91.39883,134.0914 L 265.52882,104.24034 H 628.4412 a 12.64038,12.64038 0 0 1 12.64038,12.64038 v 213.4268 l 19.36761,12.10427 a 11.338583,11.338583 0 0 1 3.78512,15.32778 z"
       style="fill:none;stroke:#ff0000;stroke-linecap:round"
       id="path366"
       inkscape:connector-curvature="0" />
  </g>
  <g
     inkscape:groupmode="layer"
     inkscape:label="screwholes"
     id="g390">
    <path
       d="m 100.11506,146.93765 a 3.779528,3.779528 0 1 0 -7.559057,0 3.779528,3.779528 0 1 0 7.559057,0 z"
       style="fill:none;stroke:#ff0000;stroke-linecap:round"
       id="path370"
       inkscape:connector-curvature="0" />
    <path
       d="m 98.780022,304.5239 a 3.779528,3.779528 0 1 0 -7.559055,0 3.779528,3.779528 0 1 0 7.559055,0 z"
       style="fill:none;stroke:#ff0000;stroke-linecap:round"
       id="path372"
       inkscape:connector-curvature="0" />
    <path
       d="m 100.44052,463.92258 a 3.779528,3.779528 0 1 0 -7.559056,0 3.779528,3.779528 0 1 0 7.559056,0 z"
       style="fill:none;stroke:#ff0000;stroke-linecap:round"
       id="path374"
       inkscape:connector-curvature="0" />
    <path
       d="m 653.06264,352.93801 a 3.779528,3.779528 0 1 0 -7.55905,0 3.779528,3.779528 0 1 0 7.55905,0 z"
       style="fill:none;stroke:#ff0000;stroke-linecap:round"
       id="path376"
       inkscape:connector-curvature="0" />
    <path
       d="m 566.85838,500.61131 a 3.779528,3.779528 0 1 0 -7.55905,0 3.779528,3.779528 0 1 0 7.55905,0 z"
       style="fill:none;stroke:#ff0000;stroke-linecap:round"
       id="path378"
       inkscape:connector-curvature="0" />
    <path
       d="m 347.30835,465.58308 a 3.779528,3.779528 0 1 0 -7.55905,0 3.779528,3.779528 0 1 0 7.55905,0 z"
       style="fill:none;stroke:#ff0000;stroke-linecap:round"
       id="path380"
       inkscape:connector-curvature="0" />
    <path
       d="m 306.12293,116.88232 a 3.779528,3.779528 0 1 0 -7.55905,0 3.779528,3.779528 0 1 0 7.55905,0 z"
       style="fill:none;stroke:#ff0000;stroke-linecap:round"
       id="path382"
       inkscape:connector-curvature="0" />
    <path
       d="m 424.62861,116.88072 a 3.77953,3.77953 0 1 0 -7.55906,0 3.77953,3.77953 0 1 0 7.55906,0 z"
       style="fill:none;stroke:#ff0000;stroke-linecap:round"
       id="path384"
       inkscape:connector-curvature="0" />
    <path
       d="m 632.36427,193.53569 a 3.77953,3.77953 0 1 0 -7.55906,0 3.77953,3.77953 0 1 0 7.55906,0 z"
       style="fill:none;stroke:#ff0000;stroke-linecap:round"
       id="path386"
       inkscape:connector-curvature="0" />
    <path
       d="m 607.22705,116.88072 a 3.77953,3.77953 0 1 0 -7.55906,0 3.77953,3.77953 0 1 0 7.55906,0 z"
       style="fill:none;stroke:#ff0000;stroke-linecap:round"
       id="path388"
       inkscape:connector-curvature="0" />
  </g>
  <g
     inkscape:groupmode="layer"
     inkscape:label="construction"
     id="g392" />
  <g
     inkscape:groupmode="layer"
     inkscape:label="cutouts"
     id="g398" />
  <g
     inkscape:groupmode="layer"
     inkscape:label="reset hole"
     id="g402" />
  <g
     inkscape:groupmode="layer"
     inkscape:label="midholes"
     id="g424" />
  <g
     inkscape:groupmode="layer"
     inkscape:label="outside bottom"
     id="g428" />
  <g
     inkscape:groupmode="layer"
     inkscape:label="1u1u"
     id="g436">
    <path
       d="m 513.26559,447.67293 -1.51164,2.61601 10.14664,5.86311 1.51164,-2.61602 18.98134,10.96814 -1.51163,2.61601 10.14173,5.86028 1.51163,-2.61602 3.27411,1.89191 26.47211,-45.81238 -3.27411,-1.89191 1.51466,-2.62125 -10.14173,-5.86027 -1.51466,2.62125 -18.98134,-10.96813 1.51465,-2.62126 -10.14664,-5.8631 -1.51465,2.62125 -3.26954,-1.88926 -26.47211,45.81238 z"
       style="fill:none;stroke:#ff0000"
       id="path432"
       inkscape:connector-curvature="0" />
    <path
       d="m 549.82458,384.40429 -1.51164,2.61602 10.14664,5.86311 1.51164,-2.61602 18.98134,10.96813 -1.51163,2.61602 10.14173,5.86027 1.51163,-2.61601 3.27411,1.8919 26.47211,-45.81238 -3.27411,-1.8919 1.51466,-2.62125 -10.14173,-5.86028 -1.51466,2.62126 -18.98134,-10.96814 1.51465,-2.62125 -10.14664,-5.86311 -1.51465,2.62125 -3.26953,-1.88925 -26.47211,45.81237 z"
       style="fill:none;stroke:#ff0000"
       id="path434"
       inkscape:connector-curvature="0" />
  </g>
</svg>
