  0
SECTION
  2
HEADER
  9
$ANGBASE
  50
0.0
  9
$ANGDIR
  70
  1
  9
$MEASUREMENT
  70
0
  0
ENDSEC
  0
SECTION
  2
TABLES
  0
TABLE
  2
LTYPE
  70
1
  0
LTYPE
  2
CONTINUOUS
  70
0
  3
Solid line
  72
65
  73
0
  40
0.0
  0
ENDTAB
  0
TABLE
  2
STYLE
  70
4
  0
STYLE
  2
KICAD
  70
0
  40
0
  41
1
  42
1
  50
0
  71
0
  3
isocp.shx
  0
STYLE
  2
KICADB
  70
0
  40
0
  41
1
  42
1
  50
0
  71
0
  3
isocp.shx
  0
STYLE
  2
KICADI
  70
0
  40
0
  41
1
  42
1
  50
15
  71
0
  3
isocp.shx
  0
STYLE
  2
KICADBI
  70
0
  40
0
  41
1
  42
1
  50
15
  71
0
  3
isocp.shx
  0
ENDTAB
  0
TABLE
  2
LAYER
  70
30
  0
LAYER
  2
BLACK
  70
0
  62
7
  6
CONTINUOUS
  0
LAYER
  2
GRAY1
  70
0
  62
251
  6
CONTINUOUS
  0
LAYER
  2
GRAY2
  70
0
  62
8
  6
CONTINUOUS
  0
LAYER
  2
GRAY3
  70
0
  62
9
  6
CONTINUOUS
  0
LAYER
  2
WHITE
  70
0
  62
7
  6
CONTINUOUS
  0
LAYER
  2
LYELLOW
  70
0
  62
51
  6
CONTINUOUS
  0
LAYER
  2
BLUE1
  70
0
  62
178
  6
CONTINUOUS
  0
LAYER
  2
GREEN1
  70
0
  62
98
  6
CONTINUOUS
  0
LAYER
  2
CYAN1
  70
0
  62
138
  6
CONTINUOUS
  0
LAYER
  2
RED1
  70
0
  62
18
  6
CONTINUOUS
  0
LAYER
  2
MAGENTA1
  70
0
  62
228
  6
CONTINUOUS
  0
LAYER
  2
BROWN1
  70
0
  62
58
  6
CONTINUOUS
  0
LAYER
  2
BLUE2
  70
0
  62
5
  6
CONTINUOUS
  0
LAYER
  2
GREEN2
  70
0
  62
3
  6
CONTINUOUS
  0
LAYER
  2
CYAN2
  70
0
  62
4
  6
CONTINUOUS
  0
LAYER
  2
RED2
  70
0
  62
1
  6
CONTINUOUS
  0
LAYER
  2
MAGENTA2
  70
0
  62
6
  6
CONTINUOUS
  0
LAYER
  2
BROWN2
  70
0
  62
54
  6
CONTINUOUS
  0
LAYER
  2
BLUE3
  70
0
  62
171
  6
CONTINUOUS
  0
LAYER
  2
GREEN3
  70
0
  62
91
  6
CONTINUOUS
  0
LAYER
  2
CYAN3
  70
0
  62
131
  6
CONTINUOUS
  0
LAYER
  2
RED3
  70
0
  62
11
  6
CONTINUOUS
  0
LAYER
  2
MAGENTA3
  70
0
  62
221
  6
CONTINUOUS
  0
LAYER
  2
YELLOW3
  70
0
  62
2
  6
CONTINUOUS
  0
LAYER
  2
BLUE4
  70
0
  62
5
  6
CONTINUOUS
  0
LAYER
  2
GREEN4
  70
0
  62
3
  6
CONTINUOUS
  0
LAYER
  2
CYAN4
  70
0
  62
4
  6
CONTINUOUS
  0
LAYER
  2
RED4
  70
0
  62
1
  6
CONTINUOUS
  0
LAYER
  2
MAGENTA4
  70
0
  62
6
  6
CONTINUOUS
  0
LAYER
  2
YELLOW4
  70
0
  62
2
  6
CONTINUOUS
  0
ENDTAB
  0
ENDSEC
  0
SECTION
  2
ENTITIES
0
LINE
8
Black
10
70.485
20
-48.895
11
71.755
21
-48.26
0
LINE
8
Black
10
69.85
20
-49.53
11
70.485
21
-48.895
0
LINE
8
Black
10
69.215
20
-50.8
11
69.85
21
-49.53
0
LINE
8
Black
10
69.215
20
-60.96
11
69.215
21
-50.8
0
LINE
8
Black
10
214.63
20
-99.695
11
213.995
21
-98.425
0
LINE
8
Black
10
215.9
20
-100.33
11
214.63
21
-99.695
0
LINE
8
Black
10
176.53
20
-135.89
11
175.895
21
-135.89
0
LINE
8
Black
10
177.8
20
-136.525
11
176.53
21
-135.89
0
ARC
8
Black
10
210.82
20
-43.815
40
3.175
50
-0
51
90
0
LINE
8
Black
10
213.995
20
-45.085
11
213.995
21
-43.815
0
LINE
8
Black
10
72.39
20
-135.89
11
73.66
21
-135.89
0
LINE
8
Black
10
69.215
20
-131.445
11
69.215
21
-132.715
0
ARC
8
Black
10
72.39
20
-132.715
40
3.175
50
-180
51
-90
0
LINE
8
Black
10
215.9
20
-100.33
11
218.44
21
-101.6
0
LINE
8
Black
10
219.075
20
-103.505
11
194.945
21
-144.78
0
ARC
8
Black
10
217.805
20
-102.87
40
1.4199
50
-26.5651
51
63.4349
0
LINE
8
Black
10
213.995
20
-98.425
11
213.995
21
-95.25
0
LINE
8
Black
10
213.995
20
-45.085
11
213.995
21
-95.25
0
ARC
8
Black
10
193.04
20
-142.875
40
2.69408
50
-135
51
-45
0
LINE
8
Black
10
177.8
20
-136.525
11
191.135
21
-144.78
0
LINE
8
Black
10
172.085
20
-135.89
11
175.895
21
-135.89
0
LINE
8
Black
10
101.6
20
-135.89
11
172.085
21
-135.89
0
LINE
8
Black
10
73.66
20
-135.89
11
101.6
21
-135.89
0
LINE
8
Black
10
116.205
20
-40.64
11
210.82
21
-40.64
0
LINE
8
Black
10
71.755
20
-48.26
11
116.205
21
-40.64
0
LINE
8
Black
10
69.215
20
-84.455
11
69.215
21
-60.96
0
LINE
8
Black
10
69.215
20
-131.445
11
69.215
21
-84.455
0
LINE
8
Black
10
71.29
20
-50.97
11
73.49
21
-53.17
0
LINE
8
Black
10
73.49
20
-50.97
11
71.29
21
-53.17
0
LINE
8
Black
10
71.29
20
-91.61
11
73.49
21
-93.81
0
LINE
8
Black
10
73.49
20
-91.61
11
71.29
21
-93.81
0
LINE
8
Black
10
71.29
20
-131.615
11
73.49
21
-133.815
0
LINE
8
Black
10
73.49
20
-131.615
11
71.29
21
-133.815
0
LINE
8
Black
10
115.105
20
-42.715
11
117.305
21
-44.915
0
LINE
8
Black
10
117.305
20
-42.715
11
115.105
21
-44.915
0
LINE
8
Black
10
130.98
20
-131.615
11
133.18
21
-133.815
0
LINE
8
Black
10
133.18
20
-131.615
11
130.98
21
-133.815
0
LINE
8
Black
10
169.08
20
-42.715
11
171.28
21
-44.915
0
LINE
8
Black
10
171.28
20
-42.715
11
169.08
21
-44.915
0
LINE
8
Black
10
191.305
20
-140.505
11
193.505
21
-142.705
0
LINE
8
Black
10
193.505
20
-140.505
11
191.305
21
-142.705
0
LINE
8
Black
10
209.72
20
-42.715
11
211.92
21
-44.915
0
LINE
8
Black
10
211.92
20
-42.715
11
209.72
21
-44.915
0
LINE
8
Black
10
214.165
20
-102.405
11
216.365
21
-104.605
0
LINE
8
Black
10
216.365
20
-102.405
11
214.165
21
-104.605
0
LINE
8
Black
10
71.8543
20
-150.301
11
71.8543
21
-147.301
0
LINE
8
Black
10
71.8543
20
-147.301
11
72.5686
21
-147.301
0
LINE
8
Black
10
72.5686
20
-147.301
11
72.9971
21
-147.444
0
LINE
8
Black
10
72.9971
20
-147.444
11
73.2829
21
-147.73
0
LINE
8
Black
10
73.2829
20
-147.73
11
73.4257
21
-148.016
0
LINE
8
Black
10
73.4257
20
-148.016
11
73.5686
21
-148.587
0
LINE
8
Black
10
73.5686
20
-148.587
11
73.5686
21
-149.016
0
LINE
8
Black
10
73.5686
20
-149.016
11
73.4257
21
-149.587
0
LINE
8
Black
10
73.4257
20
-149.587
11
73.2829
21
-149.873
0
LINE
8
Black
10
73.2829
20
-149.873
11
72.9971
21
-150.158
0
LINE
8
Black
10
72.9971
20
-150.158
11
72.5686
21
-150.301
0
LINE
8
Black
10
72.5686
20
-150.301
11
71.8543
21
-150.301
0
LINE
8
Black
10
74.8543
20
-150.301
11
74.8543
21
-148.301
0
LINE
8
Black
10
74.8543
20
-148.873
11
74.9971
21
-148.587
0
LINE
8
Black
10
74.9971
20
-148.587
11
75.14
21
-148.444
0
LINE
8
Black
10
75.14
20
-148.444
11
75.4257
21
-148.301
0
LINE
8
Black
10
75.4257
20
-148.301
11
75.7114
21
-148.301
0
LINE
8
Black
10
76.7114
20
-150.301
11
76.7114
21
-148.301
0
LINE
8
Black
10
76.7114
20
-147.301
11
76.5686
21
-147.444
0
LINE
8
Black
10
76.5686
20
-147.444
11
76.7114
21
-147.587
0
LINE
8
Black
10
76.7114
20
-147.587
11
76.8543
21
-147.444
0
LINE
8
Black
10
76.8543
20
-147.444
11
76.7114
21
-147.301
0
LINE
8
Black
10
76.7114
20
-147.301
11
76.7114
21
-147.587
0
LINE
8
Black
10
78.5686
20
-150.301
11
78.2829
21
-150.158
0
LINE
8
Black
10
78.2829
20
-150.158
11
78.14
21
-149.873
0
LINE
8
Black
10
78.14
20
-149.873
11
78.14
21
-147.301
0
LINE
8
Black
10
80.14
20
-150.301
11
79.8543
21
-150.158
0
LINE
8
Black
10
79.8543
20
-150.158
11
79.7114
21
-149.873
0
LINE
8
Black
10
79.7114
20
-149.873
11
79.7114
21
-147.301
0
LINE
8
Black
10
83.5686
20
-150.301
11
83.5686
21
-147.301
0
LINE
8
Black
10
83.5686
20
-147.301
11
84.5686
21
-149.444
0
LINE
8
Black
10
84.5686
20
-149.444
11
85.5686
21
-147.301
0
LINE
8
Black
10
85.5686
20
-147.301
11
85.5686
21
-150.301
0
LINE
8
Black
10
88.2829
20
-150.301
11
88.2829
21
-148.73
0
LINE
8
Black
10
88.2829
20
-148.73
11
88.14
21
-148.444
0
LINE
8
Black
10
88.14
20
-148.444
11
87.8543
21
-148.301
0
LINE
8
Black
10
87.8543
20
-148.301
11
87.2829
21
-148.301
0
LINE
8
Black
10
87.2829
20
-148.301
11
86.9971
21
-148.444
0
LINE
8
Black
10
88.2829
20
-150.158
11
87.9971
21
-150.301
0
LINE
8
Black
10
87.9971
20
-150.301
11
87.2829
21
-150.301
0
LINE
8
Black
10
87.2829
20
-150.301
11
86.9971
21
-150.158
0
LINE
8
Black
10
86.9971
20
-150.158
11
86.8543
21
-149.873
0
LINE
8
Black
10
86.8543
20
-149.873
11
86.8543
21
-149.587
0
LINE
8
Black
10
86.8543
20
-149.587
11
86.9971
21
-149.301
0
LINE
8
Black
10
86.9971
20
-149.301
11
87.2829
21
-149.158
0
LINE
8
Black
10
87.2829
20
-149.158
11
87.9971
21
-149.158
0
LINE
8
Black
10
87.9971
20
-149.158
11
88.2829
21
-149.016
0
LINE
8
Black
10
89.7114
20
-148.301
11
89.7114
21
-151.301
0
LINE
8
Black
10
89.7114
20
-148.444
11
89.9971
21
-148.301
0
LINE
8
Black
10
89.9971
20
-148.301
11
90.5686
21
-148.301
0
LINE
8
Black
10
90.5686
20
-148.301
11
90.8543
21
-148.444
0
LINE
8
Black
10
90.8543
20
-148.444
11
90.9971
21
-148.587
0
LINE
8
Black
10
90.9971
20
-148.587
11
91.14
21
-148.873
0
LINE
8
Black
10
91.14
20
-148.873
11
91.14
21
-149.73
0
LINE
8
Black
10
91.14
20
-149.73
11
90.9971
21
-150.016
0
LINE
8
Black
10
90.9971
20
-150.016
11
90.8543
21
-150.158
0
LINE
8
Black
10
90.8543
20
-150.158
11
90.5686
21
-150.301
0
LINE
8
Black
10
90.5686
20
-150.301
11
89.9971
21
-150.301
0
LINE
8
Black
10
89.9971
20
-150.301
11
89.7114
21
-150.158
0
LINE
8
Black
10
92.4257
20
-150.016
11
92.5686
21
-150.158
0
LINE
8
Black
10
92.5686
20
-150.158
11
92.4257
21
-150.301
0
LINE
8
Black
10
92.4257
20
-150.301
11
92.2829
21
-150.158
0
LINE
8
Black
10
92.2829
20
-150.158
11
92.4257
21
-150.016
0
LINE
8
Black
10
92.4257
20
-150.016
11
92.4257
21
-150.301
0
LINE
8
Black
10
92.4257
20
-148.444
11
92.5686
21
-148.587
0
LINE
8
Black
10
92.5686
20
-148.587
11
92.4257
21
-148.73
0
LINE
8
Black
10
92.4257
20
-148.73
11
92.2829
21
-148.587
0
LINE
8
Black
10
92.2829
20
-148.587
11
92.4257
21
-148.444
0
LINE
8
Black
10
92.4257
20
-148.444
11
92.4257
21
-148.73
0
LINE
8
Black
10
66.94
20
-154.144
11
69.14
21
-156.344
0
LINE
8
Black
10
69.14
20
-154.144
11
66.94
21
-156.344
0
LINE
8
Black
10
71.7114
20
-153.887
11
71.8543
21
-153.744
0
LINE
8
Black
10
71.8543
20
-153.744
11
72.14
21
-153.601
0
LINE
8
Black
10
72.14
20
-153.601
11
72.8543
21
-153.601
0
LINE
8
Black
10
72.8543
20
-153.601
11
73.14
21
-153.744
0
LINE
8
Black
10
73.14
20
-153.744
11
73.2829
21
-153.887
0
LINE
8
Black
10
73.2829
20
-153.887
11
73.4257
21
-154.173
0
LINE
8
Black
10
73.4257
20
-154.173
11
73.4257
21
-154.458
0
LINE
8
Black
10
73.4257
20
-154.458
11
73.2829
21
-154.887
0
LINE
8
Black
10
73.2829
20
-154.887
11
71.5686
21
-156.601
0
LINE
8
Black
10
71.5686
20
-156.601
11
73.4257
21
-156.601
0
LINE
8
Black
10
74.7114
20
-156.316
11
74.8543
21
-156.458
0
LINE
8
Black
10
74.8543
20
-156.458
11
74.7114
21
-156.601
0
LINE
8
Black
10
74.7114
20
-156.601
11
74.5686
21
-156.458
0
LINE
8
Black
10
74.5686
20
-156.458
11
74.7114
21
-156.316
0
LINE
8
Black
10
74.7114
20
-156.316
11
74.7114
21
-156.601
0
LINE
8
Black
10
75.9971
20
-153.887
11
76.14
21
-153.744
0
LINE
8
Black
10
76.14
20
-153.744
11
76.4257
21
-153.601
0
LINE
8
Black
10
76.4257
20
-153.601
11
77.14
21
-153.601
0
LINE
8
Black
10
77.14
20
-153.601
11
77.4257
21
-153.744
0
LINE
8
Black
10
77.4257
20
-153.744
11
77.5686
21
-153.887
0
LINE
8
Black
10
77.5686
20
-153.887
11
77.7114
21
-154.173
0
LINE
8
Black
10
77.7114
20
-154.173
11
77.7114
21
-154.458
0
LINE
8
Black
10
77.7114
20
-154.458
11
77.5686
21
-154.887
0
LINE
8
Black
10
77.5686
20
-154.887
11
75.8543
21
-156.601
0
LINE
8
Black
10
75.8543
20
-156.601
11
77.7114
21
-156.601
0
LINE
8
Black
10
79.5686
20
-153.601
11
79.8543
21
-153.601
0
LINE
8
Black
10
79.8543
20
-153.601
11
80.14
21
-153.744
0
LINE
8
Black
10
80.14
20
-153.744
11
80.2829
21
-153.887
0
LINE
8
Black
10
80.2829
20
-153.887
11
80.4257
21
-154.173
0
LINE
8
Black
10
80.4257
20
-154.173
11
80.5686
21
-154.744
0
LINE
8
Black
10
80.5686
20
-154.744
11
80.5686
21
-155.458
0
LINE
8
Black
10
80.5686
20
-155.458
11
80.4257
21
-156.03
0
LINE
8
Black
10
80.4257
20
-156.03
11
80.2829
21
-156.316
0
LINE
8
Black
10
80.2829
20
-156.316
11
80.14
21
-156.458
0
LINE
8
Black
10
80.14
20
-156.458
11
79.8543
21
-156.601
0
LINE
8
Black
10
79.8543
20
-156.601
11
79.5686
21
-156.601
0
LINE
8
Black
10
79.5686
20
-156.601
11
79.2829
21
-156.458
0
LINE
8
Black
10
79.2829
20
-156.458
11
79.14
21
-156.316
0
LINE
8
Black
10
79.14
20
-156.316
11
78.9971
21
-156.03
0
LINE
8
Black
10
78.9971
20
-156.03
11
78.8543
21
-155.458
0
LINE
8
Black
10
78.8543
20
-155.458
11
78.8543
21
-154.744
0
LINE
8
Black
10
78.8543
20
-154.744
11
78.9971
21
-154.173
0
LINE
8
Black
10
78.9971
20
-154.173
11
79.14
21
-153.887
0
LINE
8
Black
10
79.14
20
-153.887
11
79.2829
21
-153.744
0
LINE
8
Black
10
79.2829
20
-153.744
11
79.5686
21
-153.601
0
LINE
8
Black
10
81.8543
20
-156.601
11
81.8543
21
-154.601
0
LINE
8
Black
10
81.8543
20
-154.887
11
81.9971
21
-154.744
0
LINE
8
Black
10
81.9971
20
-154.744
11
82.2829
21
-154.601
0
LINE
8
Black
10
82.2829
20
-154.601
11
82.7114
21
-154.601
0
LINE
8
Black
10
82.7114
20
-154.601
11
82.9971
21
-154.744
0
LINE
8
Black
10
82.9971
20
-154.744
11
83.14
21
-155.03
0
LINE
8
Black
10
83.14
20
-155.03
11
83.14
21
-156.601
0
LINE
8
Black
10
83.14
20
-155.03
11
83.2829
21
-154.744
0
LINE
8
Black
10
83.2829
20
-154.744
11
83.5686
21
-154.601
0
LINE
8
Black
10
83.5686
20
-154.601
11
83.9971
21
-154.601
0
LINE
8
Black
10
83.9971
20
-154.601
11
84.2829
21
-154.744
0
LINE
8
Black
10
84.2829
20
-154.744
11
84.4257
21
-155.03
0
LINE
8
Black
10
84.4257
20
-155.03
11
84.4257
21
-156.601
0
LINE
8
Black
10
85.8543
20
-156.601
11
85.8543
21
-154.601
0
LINE
8
Black
10
85.8543
20
-154.887
11
85.9971
21
-154.744
0
LINE
8
Black
10
85.9971
20
-154.744
11
86.2829
21
-154.601
0
LINE
8
Black
10
86.2829
20
-154.601
11
86.7114
21
-154.601
0
LINE
8
Black
10
86.7114
20
-154.601
11
86.9971
21
-154.744
0
LINE
8
Black
10
86.9971
20
-154.744
11
87.14
21
-155.03
0
LINE
8
Black
10
87.14
20
-155.03
11
87.14
21
-156.601
0
LINE
8
Black
10
87.14
20
-155.03
11
87.2829
21
-154.744
0
LINE
8
Black
10
87.2829
20
-154.744
11
87.5686
21
-154.601
0
LINE
8
Black
10
87.5686
20
-154.601
11
87.9971
21
-154.601
0
LINE
8
Black
10
87.9971
20
-154.601
11
88.2829
21
-154.744
0
LINE
8
Black
10
88.2829
20
-154.744
11
88.4257
21
-155.03
0
LINE
8
Black
10
88.4257
20
-155.03
11
88.4257
21
-156.601
0
LINE
8
Black
10
94.2829
20
-153.458
11
91.7114
21
-157.316
0
LINE
8
Black
10
98.14
20
-153.601
11
98.4257
21
-153.601
0
LINE
8
Black
10
98.4257
20
-153.601
11
98.7114
21
-153.744
0
LINE
8
Black
10
98.7114
20
-153.744
11
98.8543
21
-153.887
0
LINE
8
Black
10
98.8543
20
-153.887
11
98.9971
21
-154.173
0
LINE
8
Black
10
98.9971
20
-154.173
11
99.14
21
-154.744
0
LINE
8
Black
10
99.14
20
-154.744
11
99.14
21
-155.458
0
LINE
8
Black
10
99.14
20
-155.458
11
98.9971
21
-156.03
0
LINE
8
Black
10
98.9971
20
-156.03
11
98.8543
21
-156.316
0
LINE
8
Black
10
98.8543
20
-156.316
11
98.7114
21
-156.458
0
LINE
8
Black
10
98.7114
20
-156.458
11
98.4257
21
-156.601
0
LINE
8
Black
10
98.4257
20
-156.601
11
98.14
21
-156.601
0
LINE
8
Black
10
98.14
20
-156.601
11
97.8543
21
-156.458
0
LINE
8
Black
10
97.8543
20
-156.458
11
97.7114
21
-156.316
0
LINE
8
Black
10
97.7114
20
-156.316
11
97.5686
21
-156.03
0
LINE
8
Black
10
97.5686
20
-156.03
11
97.4257
21
-155.458
0
LINE
8
Black
10
97.4257
20
-155.458
11
97.4257
21
-154.744
0
LINE
8
Black
10
97.4257
20
-154.744
11
97.5686
21
-154.173
0
LINE
8
Black
10
97.5686
20
-154.173
11
97.7114
21
-153.887
0
LINE
8
Black
10
97.7114
20
-153.887
11
97.8543
21
-153.744
0
LINE
8
Black
10
97.8543
20
-153.744
11
98.14
21
-153.601
0
LINE
8
Black
10
100.426
20
-156.316
11
100.569
21
-156.458
0
LINE
8
Black
10
100.569
20
-156.458
11
100.426
21
-156.601
0
LINE
8
Black
10
100.426
20
-156.601
11
100.283
21
-156.458
0
LINE
8
Black
10
100.283
20
-156.458
11
100.426
21
-156.316
0
LINE
8
Black
10
100.426
20
-156.316
11
100.426
21
-156.601
0
LINE
8
Black
10
102.426
20
-153.601
11
102.711
21
-153.601
0
LINE
8
Black
10
102.711
20
-153.601
11
102.997
21
-153.744
0
LINE
8
Black
10
102.997
20
-153.744
11
103.14
21
-153.887
0
LINE
8
Black
10
103.14
20
-153.887
11
103.283
21
-154.173
0
LINE
8
Black
10
103.283
20
-154.173
11
103.426
21
-154.744
0
LINE
8
Black
10
103.426
20
-154.744
11
103.426
21
-155.458
0
LINE
8
Black
10
103.426
20
-155.458
11
103.283
21
-156.03
0
LINE
8
Black
10
103.283
20
-156.03
11
103.14
21
-156.316
0
LINE
8
Black
10
103.14
20
-156.316
11
102.997
21
-156.458
0
LINE
8
Black
10
102.997
20
-156.458
11
102.711
21
-156.601
0
LINE
8
Black
10
102.711
20
-156.601
11
102.426
21
-156.601
0
LINE
8
Black
10
102.426
20
-156.601
11
102.14
21
-156.458
0
LINE
8
Black
10
102.14
20
-156.458
11
101.997
21
-156.316
0
LINE
8
Black
10
101.997
20
-156.316
11
101.854
21
-156.03
0
LINE
8
Black
10
101.854
20
-156.03
11
101.711
21
-155.458
0
LINE
8
Black
10
101.711
20
-155.458
11
101.711
21
-154.744
0
LINE
8
Black
10
101.711
20
-154.744
11
101.854
21
-154.173
0
LINE
8
Black
10
101.854
20
-154.173
11
101.997
21
-153.887
0
LINE
8
Black
10
101.997
20
-153.887
11
102.14
21
-153.744
0
LINE
8
Black
10
102.14
20
-153.744
11
102.426
21
-153.601
0
LINE
8
Black
10
105.14
20
-154.887
11
104.854
21
-154.744
0
LINE
8
Black
10
104.854
20
-154.744
11
104.711
21
-154.601
0
LINE
8
Black
10
104.711
20
-154.601
11
104.569
21
-154.316
0
LINE
8
Black
10
104.569
20
-154.316
11
104.569
21
-154.173
0
LINE
8
Black
10
104.569
20
-154.173
11
104.711
21
-153.887
0
LINE
8
Black
10
104.711
20
-153.887
11
104.854
21
-153.744
0
LINE
8
Black
10
104.854
20
-153.744
11
105.14
21
-153.601
0
LINE
8
Black
10
105.14
20
-153.601
11
105.711
21
-153.601
0
LINE
8
Black
10
105.711
20
-153.601
11
105.997
21
-153.744
0
LINE
8
Black
10
105.997
20
-153.744
11
106.14
21
-153.887
0
LINE
8
Black
10
106.14
20
-153.887
11
106.283
21
-154.173
0
LINE
8
Black
10
106.283
20
-154.173
11
106.283
21
-154.316
0
LINE
8
Black
10
106.283
20
-154.316
11
106.14
21
-154.601
0
LINE
8
Black
10
106.14
20
-154.601
11
105.997
21
-154.744
0
LINE
8
Black
10
105.997
20
-154.744
11
105.711
21
-154.887
0
LINE
8
Black
10
105.711
20
-154.887
11
105.14
21
-154.887
0
LINE
8
Black
10
105.14
20
-154.887
11
104.854
21
-155.03
0
LINE
8
Black
10
104.854
20
-155.03
11
104.711
21
-155.173
0
LINE
8
Black
10
104.711
20
-155.173
11
104.569
21
-155.458
0
LINE
8
Black
10
104.569
20
-155.458
11
104.569
21
-156.03
0
LINE
8
Black
10
104.569
20
-156.03
11
104.711
21
-156.316
0
LINE
8
Black
10
104.711
20
-156.316
11
104.854
21
-156.458
0
LINE
8
Black
10
104.854
20
-156.458
11
105.14
21
-156.601
0
LINE
8
Black
10
105.14
20
-156.601
11
105.711
21
-156.601
0
LINE
8
Black
10
105.711
20
-156.601
11
105.997
21
-156.458
0
LINE
8
Black
10
105.997
20
-156.458
11
106.14
21
-156.316
0
LINE
8
Black
10
106.14
20
-156.316
11
106.283
21
-156.03
0
LINE
8
Black
10
106.283
20
-156.03
11
106.283
21
-155.458
0
LINE
8
Black
10
106.283
20
-155.458
11
106.14
21
-155.173
0
LINE
8
Black
10
106.14
20
-155.173
11
105.997
21
-155.03
0
LINE
8
Black
10
105.997
20
-155.03
11
105.711
21
-154.887
0
LINE
8
Black
10
107.283
20
-153.601
11
109.283
21
-153.601
0
LINE
8
Black
10
109.283
20
-153.601
11
107.997
21
-156.601
0
LINE
8
Black
10
110.283
20
-153.601
11
110.283
21
-154.173
0
LINE
8
Black
10
111.426
20
-153.601
11
111.426
21
-154.173
0
LINE
8
Black
10
115.854
20
-157.744
11
115.711
21
-157.601
0
LINE
8
Black
10
115.711
20
-157.601
11
115.426
21
-157.173
0
LINE
8
Black
10
115.426
20
-157.173
11
115.283
21
-156.887
0
LINE
8
Black
10
115.283
20
-156.887
11
115.14
21
-156.458
0
LINE
8
Black
10
115.14
20
-156.458
11
114.997
21
-155.744
0
LINE
8
Black
10
114.997
20
-155.744
11
114.997
21
-155.173
0
LINE
8
Black
10
114.997
20
-155.173
11
115.14
21
-154.458
0
LINE
8
Black
10
115.14
20
-154.458
11
115.283
21
-154.03
0
LINE
8
Black
10
115.283
20
-154.03
11
115.426
21
-153.744
0
LINE
8
Black
10
115.426
20
-153.744
11
115.711
21
-153.316
0
LINE
8
Black
10
115.711
20
-153.316
11
115.854
21
-153.173
0
LINE
8
Black
10
117.14
20
-156.601
11
117.711
21
-156.601
0
LINE
8
Black
10
117.711
20
-156.601
11
117.997
21
-156.458
0
LINE
8
Black
10
117.997
20
-156.458
11
118.14
21
-156.316
0
LINE
8
Black
10
118.14
20
-156.316
11
118.426
21
-155.887
0
LINE
8
Black
10
118.426
20
-155.887
11
118.569
21
-155.316
0
LINE
8
Black
10
118.569
20
-155.316
11
118.569
21
-154.173
0
LINE
8
Black
10
118.569
20
-154.173
11
118.426
21
-153.887
0
LINE
8
Black
10
118.426
20
-153.887
11
118.283
21
-153.744
0
LINE
8
Black
10
118.283
20
-153.744
11
117.997
21
-153.601
0
LINE
8
Black
10
117.997
20
-153.601
11
117.426
21
-153.601
0
LINE
8
Black
10
117.426
20
-153.601
11
117.14
21
-153.744
0
LINE
8
Black
10
117.14
20
-153.744
11
116.997
21
-153.887
0
LINE
8
Black
10
116.997
20
-153.887
11
116.854
21
-154.173
0
LINE
8
Black
10
116.854
20
-154.173
11
116.854
21
-154.887
0
LINE
8
Black
10
116.854
20
-154.887
11
116.997
21
-155.173
0
LINE
8
Black
10
116.997
20
-155.173
11
117.14
21
-155.316
0
LINE
8
Black
10
117.14
20
-155.316
11
117.426
21
-155.458
0
LINE
8
Black
10
117.426
20
-155.458
11
117.997
21
-155.458
0
LINE
8
Black
10
117.997
20
-155.458
11
118.283
21
-155.316
0
LINE
8
Black
10
118.283
20
-155.316
11
118.426
21
-155.173
0
LINE
8
Black
10
118.426
20
-155.173
11
118.569
21
-154.887
0
LINE
8
Black
10
122.14
20
-156.601
11
122.14
21
-153.601
0
LINE
8
Black
10
123.426
20
-156.601
11
123.426
21
-155.03
0
LINE
8
Black
10
123.426
20
-155.03
11
123.283
21
-154.744
0
LINE
8
Black
10
123.283
20
-154.744
11
122.997
21
-154.601
0
LINE
8
Black
10
122.997
20
-154.601
11
122.569
21
-154.601
0
LINE
8
Black
10
122.569
20
-154.601
11
122.283
21
-154.744
0
LINE
8
Black
10
122.283
20
-154.744
11
122.14
21
-154.887
0
LINE
8
Black
10
125.283
20
-156.601
11
124.997
21
-156.458
0
LINE
8
Black
10
124.997
20
-156.458
11
124.854
21
-156.316
0
LINE
8
Black
10
124.854
20
-156.316
11
124.711
21
-156.03
0
LINE
8
Black
10
124.711
20
-156.03
11
124.711
21
-155.173
0
LINE
8
Black
10
124.711
20
-155.173
11
124.854
21
-154.887
0
LINE
8
Black
10
124.854
20
-154.887
11
124.997
21
-154.744
0
LINE
8
Black
10
124.997
20
-154.744
11
125.283
21
-154.601
0
LINE
8
Black
10
125.283
20
-154.601
11
125.711
21
-154.601
0
LINE
8
Black
10
125.711
20
-154.601
11
125.997
21
-154.744
0
LINE
8
Black
10
125.997
20
-154.744
11
126.14
21
-154.887
0
LINE
8
Black
10
126.14
20
-154.887
11
126.283
21
-155.173
0
LINE
8
Black
10
126.283
20
-155.173
11
126.283
21
-156.03
0
LINE
8
Black
10
126.283
20
-156.03
11
126.14
21
-156.316
0
LINE
8
Black
10
126.14
20
-156.316
11
125.997
21
-156.458
0
LINE
8
Black
10
125.997
20
-156.458
11
125.711
21
-156.601
0
LINE
8
Black
10
125.711
20
-156.601
11
125.283
21
-156.601
0
LINE
8
Black
10
127.997
20
-156.601
11
127.711
21
-156.458
0
LINE
8
Black
10
127.711
20
-156.458
11
127.569
21
-156.173
0
LINE
8
Black
10
127.569
20
-156.173
11
127.569
21
-153.601
0
LINE
8
Black
10
130.283
20
-156.458
11
129.997
21
-156.601
0
LINE
8
Black
10
129.997
20
-156.601
11
129.426
21
-156.601
0
LINE
8
Black
10
129.426
20
-156.601
11
129.14
21
-156.458
0
LINE
8
Black
10
129.14
20
-156.458
11
128.997
21
-156.173
0
LINE
8
Black
10
128.997
20
-156.173
11
128.997
21
-155.03
0
LINE
8
Black
10
128.997
20
-155.03
11
129.14
21
-154.744
0
LINE
8
Black
10
129.14
20
-154.744
11
129.426
21
-154.601
0
LINE
8
Black
10
129.426
20
-154.601
11
129.997
21
-154.601
0
LINE
8
Black
10
129.997
20
-154.601
11
130.283
21
-154.744
0
LINE
8
Black
10
130.283
20
-154.744
11
130.426
21
-155.03
0
LINE
8
Black
10
130.426
20
-155.03
11
130.426
21
-155.316
0
LINE
8
Black
10
130.426
20
-155.316
11
128.997
21
-155.601
0
LINE
8
Black
10
131.569
20
-156.458
11
131.854
21
-156.601
0
LINE
8
Black
10
131.854
20
-156.601
11
132.426
21
-156.601
0
LINE
8
Black
10
132.426
20
-156.601
11
132.711
21
-156.458
0
LINE
8
Black
10
132.711
20
-156.458
11
132.854
21
-156.173
0
LINE
8
Black
10
132.854
20
-156.173
11
132.854
21
-156.03
0
LINE
8
Black
10
132.854
20
-156.03
11
132.711
21
-155.744
0
LINE
8
Black
10
132.711
20
-155.744
11
132.426
21
-155.601
0
LINE
8
Black
10
132.426
20
-155.601
11
131.997
21
-155.601
0
LINE
8
Black
10
131.997
20
-155.601
11
131.711
21
-155.458
0
LINE
8
Black
10
131.711
20
-155.458
11
131.569
21
-155.173
0
LINE
8
Black
10
131.569
20
-155.173
11
131.569
21
-155.03
0
LINE
8
Black
10
131.569
20
-155.03
11
131.711
21
-154.744
0
LINE
8
Black
10
131.711
20
-154.744
11
131.997
21
-154.601
0
LINE
8
Black
10
131.997
20
-154.601
11
132.426
21
-154.601
0
LINE
8
Black
10
132.426
20
-154.601
11
132.711
21
-154.744
0
LINE
8
Black
10
133.854
20
-157.744
11
133.997
21
-157.601
0
LINE
8
Black
10
133.997
20
-157.601
11
134.283
21
-157.173
0
LINE
8
Black
10
134.283
20
-157.173
11
134.426
21
-156.887
0
LINE
8
Black
10
134.426
20
-156.887
11
134.569
21
-156.458
0
LINE
8
Black
10
134.569
20
-156.458
11
134.711
21
-155.744
0
LINE
8
Black
10
134.711
20
-155.744
11
134.711
21
-155.173
0
LINE
8
Black
10
134.711
20
-155.173
11
134.569
21
-154.458
0
LINE
8
Black
10
134.569
20
-154.458
11
134.426
21
-154.03
0
LINE
8
Black
10
134.426
20
-154.03
11
134.283
21
-153.744
0
LINE
8
Black
10
134.283
20
-153.744
11
133.997
21
-153.316
0
LINE
8
Black
10
133.997
20
-153.316
11
133.854
21
-153.173
0
LINE
8
Black
10
139.283
20
-157.744
11
139.14
21
-157.601
0
LINE
8
Black
10
139.14
20
-157.601
11
138.854
21
-157.173
0
LINE
8
Black
10
138.854
20
-157.173
11
138.711
21
-156.887
0
LINE
8
Black
10
138.711
20
-156.887
11
138.569
21
-156.458
0
LINE
8
Black
10
138.569
20
-156.458
11
138.426
21
-155.744
0
LINE
8
Black
10
138.426
20
-155.744
11
138.426
21
-155.173
0
LINE
8
Black
10
138.426
20
-155.173
11
138.569
21
-154.458
0
LINE
8
Black
10
138.569
20
-154.458
11
138.711
21
-154.03
0
LINE
8
Black
10
138.711
20
-154.03
11
138.854
21
-153.744
0
LINE
8
Black
10
138.854
20
-153.744
11
139.14
21
-153.316
0
LINE
8
Black
10
139.14
20
-153.316
11
139.283
21
-153.173
0
LINE
8
Black
10
140.426
20
-154.601
11
140.426
21
-156.601
0
LINE
8
Black
10
140.426
20
-154.887
11
140.569
21
-154.744
0
LINE
8
Black
10
140.569
20
-154.744
11
140.854
21
-154.601
0
LINE
8
Black
10
140.854
20
-154.601
11
141.283
21
-154.601
0
LINE
8
Black
10
141.283
20
-154.601
11
141.569
21
-154.744
0
LINE
8
Black
10
141.569
20
-154.744
11
141.711
21
-155.03
0
LINE
8
Black
10
141.711
20
-155.03
11
141.711
21
-156.601
0
LINE
8
Black
10
143.569
20
-156.601
11
143.283
21
-156.458
0
LINE
8
Black
10
143.283
20
-156.458
11
143.14
21
-156.316
0
LINE
8
Black
10
143.14
20
-156.316
11
142.997
21
-156.03
0
LINE
8
Black
10
142.997
20
-156.03
11
142.997
21
-155.173
0
LINE
8
Black
10
142.997
20
-155.173
11
143.14
21
-154.887
0
LINE
8
Black
10
143.14
20
-154.887
11
143.283
21
-154.744
0
LINE
8
Black
10
143.283
20
-154.744
11
143.569
21
-154.601
0
LINE
8
Black
10
143.569
20
-154.601
11
143.997
21
-154.601
0
LINE
8
Black
10
143.997
20
-154.601
11
144.283
21
-154.744
0
LINE
8
Black
10
144.283
20
-154.744
11
144.426
21
-154.887
0
LINE
8
Black
10
144.426
20
-154.887
11
144.569
21
-155.173
0
LINE
8
Black
10
144.569
20
-155.173
11
144.569
21
-156.03
0
LINE
8
Black
10
144.569
20
-156.03
11
144.426
21
-156.316
0
LINE
8
Black
10
144.426
20
-156.316
11
144.283
21
-156.458
0
LINE
8
Black
10
144.283
20
-156.458
11
143.997
21
-156.601
0
LINE
8
Black
10
143.997
20
-156.601
11
143.569
21
-156.601
0
LINE
8
Black
10
145.426
20
-154.601
11
146.569
21
-154.601
0
LINE
8
Black
10
145.854
20
-153.601
11
145.854
21
-156.173
0
LINE
8
Black
10
145.854
20
-156.173
11
145.997
21
-156.458
0
LINE
8
Black
10
145.997
20
-156.458
11
146.283
21
-156.601
0
LINE
8
Black
10
146.283
20
-156.601
11
146.569
21
-156.601
0
LINE
8
Black
10
149.854
20
-154.601
11
149.854
21
-157.601
0
LINE
8
Black
10
149.854
20
-154.744
11
150.14
21
-154.601
0
LINE
8
Black
10
150.14
20
-154.601
11
150.711
21
-154.601
0
LINE
8
Black
10
150.711
20
-154.601
11
150.997
21
-154.744
0
LINE
8
Black
10
150.997
20
-154.744
11
151.14
21
-154.887
0
LINE
8
Black
10
151.14
20
-154.887
11
151.283
21
-155.173
0
LINE
8
Black
10
151.283
20
-155.173
11
151.283
21
-156.03
0
LINE
8
Black
10
151.283
20
-156.03
11
151.14
21
-156.316
0
LINE
8
Black
10
151.14
20
-156.316
11
150.997
21
-156.458
0
LINE
8
Black
10
150.997
20
-156.458
11
150.711
21
-156.601
0
LINE
8
Black
10
150.711
20
-156.601
11
150.14
21
-156.601
0
LINE
8
Black
10
150.14
20
-156.601
11
149.854
21
-156.458
0
LINE
8
Black
10
152.997
20
-156.601
11
152.711
21
-156.458
0
LINE
8
Black
10
152.711
20
-156.458
11
152.569
21
-156.173
0
LINE
8
Black
10
152.569
20
-156.173
11
152.569
21
-153.601
0
LINE
8
Black
10
155.426
20
-156.601
11
155.426
21
-155.03
0
LINE
8
Black
10
155.426
20
-155.03
11
155.283
21
-154.744
0
LINE
8
Black
10
155.283
20
-154.744
11
154.997
21
-154.601
0
LINE
8
Black
10
154.997
20
-154.601
11
154.426
21
-154.601
0
LINE
8
Black
10
154.426
20
-154.601
11
154.14
21
-154.744
0
LINE
8
Black
10
155.426
20
-156.458
11
155.14
21
-156.601
0
LINE
8
Black
10
155.14
20
-156.601
11
154.426
21
-156.601
0
LINE
8
Black
10
154.426
20
-156.601
11
154.14
21
-156.458
0
LINE
8
Black
10
154.14
20
-156.458
11
153.997
21
-156.173
0
LINE
8
Black
10
153.997
20
-156.173
11
153.997
21
-155.887
0
LINE
8
Black
10
153.997
20
-155.887
11
154.14
21
-155.601
0
LINE
8
Black
10
154.14
20
-155.601
11
154.426
21
-155.458
0
LINE
8
Black
10
154.426
20
-155.458
11
155.14
21
-155.458
0
LINE
8
Black
10
155.14
20
-155.458
11
155.426
21
-155.316
0
LINE
8
Black
10
156.426
20
-154.601
11
157.569
21
-154.601
0
LINE
8
Black
10
156.854
20
-153.601
11
156.854
21
-156.173
0
LINE
8
Black
10
156.854
20
-156.173
11
156.997
21
-156.458
0
LINE
8
Black
10
156.997
20
-156.458
11
157.283
21
-156.601
0
LINE
8
Black
10
157.283
20
-156.601
11
157.569
21
-156.601
0
LINE
8
Black
10
159.711
20
-156.458
11
159.426
21
-156.601
0
LINE
8
Black
10
159.426
20
-156.601
11
158.854
21
-156.601
0
LINE
8
Black
10
158.854
20
-156.601
11
158.569
21
-156.458
0
LINE
8
Black
10
158.569
20
-156.458
11
158.426
21
-156.173
0
LINE
8
Black
10
158.426
20
-156.173
11
158.426
21
-155.03
0
LINE
8
Black
10
158.426
20
-155.03
11
158.569
21
-154.744
0
LINE
8
Black
10
158.569
20
-154.744
11
158.854
21
-154.601
0
LINE
8
Black
10
158.854
20
-154.601
11
159.426
21
-154.601
0
LINE
8
Black
10
159.426
20
-154.601
11
159.711
21
-154.744
0
LINE
8
Black
10
159.711
20
-154.744
11
159.854
21
-155.03
0
LINE
8
Black
10
159.854
20
-155.03
11
159.854
21
-155.316
0
LINE
8
Black
10
159.854
20
-155.316
11
158.426
21
-155.601
0
LINE
8
Black
10
162.426
20
-156.601
11
162.426
21
-153.601
0
LINE
8
Black
10
162.426
20
-156.458
11
162.14
21
-156.601
0
LINE
8
Black
10
162.14
20
-156.601
11
161.569
21
-156.601
0
LINE
8
Black
10
161.569
20
-156.601
11
161.283
21
-156.458
0
LINE
8
Black
10
161.283
20
-156.458
11
161.14
21
-156.316
0
LINE
8
Black
10
161.14
20
-156.316
11
160.997
21
-156.03
0
LINE
8
Black
10
160.997
20
-156.03
11
160.997
21
-155.173
0
LINE
8
Black
10
160.997
20
-155.173
11
161.14
21
-154.887
0
LINE
8
Black
10
161.14
20
-154.887
11
161.283
21
-154.744
0
LINE
8
Black
10
161.283
20
-154.744
11
161.569
21
-154.601
0
LINE
8
Black
10
161.569
20
-154.601
11
162.14
21
-154.601
0
LINE
8
Black
10
162.14
20
-154.601
11
162.426
21
-154.744
0
LINE
8
Black
10
163.569
20
-157.744
11
163.711
21
-157.601
0
LINE
8
Black
10
163.711
20
-157.601
11
163.997
21
-157.173
0
LINE
8
Black
10
163.997
20
-157.173
11
164.14
21
-156.887
0
LINE
8
Black
10
164.14
20
-156.887
11
164.283
21
-156.458
0
LINE
8
Black
10
164.283
20
-156.458
11
164.426
21
-155.744
0
LINE
8
Black
10
164.426
20
-155.744
11
164.426
21
-155.173
0
LINE
8
Black
10
164.426
20
-155.173
11
164.283
21
-154.458
0
LINE
8
Black
10
164.283
20
-154.458
11
164.14
21
-154.03
0
LINE
8
Black
10
164.14
20
-154.03
11
163.997
21
-153.744
0
LINE
8
Black
10
163.997
20
-153.744
11
163.711
21
-153.316
0
LINE
8
Black
10
163.711
20
-153.316
11
163.569
21
-153.173
  0
ENDSEC
  0
EOF
