  0
SECTION
  2
HEADER
  9
$ANGBASE
  50
0.0
  9
$ANGDIR
  70
  1
  9
$MEASUREMENT
  70
0
  0
ENDSEC
  0
SECTION
  2
TABLES
  0
TABLE
  2
LTYPE
  70
1
  0
LTYPE
  2
CONTINUOUS
  70
0
  3
Solid line
  72
65
  73
0
  40
0.0
  0
ENDTAB
  0
TABLE
  2
STYLE
  70
4
  0
STYLE
  2
KICAD
  70
0
  40
0
  41
1
  42
1
  50
0
  71
0
  3
isocp.shx
  0
STYLE
  2
KICADB
  70
0
  40
0
  41
1
  42
1
  50
0
  71
0
  3
isocp.shx
  0
STYLE
  2
KICADI
  70
0
  40
0
  41
1
  42
1
  50
15
  71
0
  3
isocp.shx
  0
STYLE
  2
KICADBI
  70
0
  40
0
  41
1
  42
1
  50
15
  71
0
  3
isocp.shx
  0
ENDTAB
  0
TABLE
  2
LAYER
  70
30
  0
LAYER
  2
BLACK
  70
0
  62
7
  6
CONTINUOUS
  0
LAYER
  2
GRAY1
  70
0
  62
251
  6
CONTINUOUS
  0
LAYER
  2
GRAY2
  70
0
  62
8
  6
CONTINUOUS
  0
LAYER
  2
GRAY3
  70
0
  62
9
  6
CONTINUOUS
  0
LAYER
  2
WHITE
  70
0
  62
7
  6
CONTINUOUS
  0
LAYER
  2
LYELLOW
  70
0
  62
51
  6
CONTINUOUS
  0
LAYER
  2
BLUE1
  70
0
  62
178
  6
CONTINUOUS
  0
LAYER
  2
GREEN1
  70
0
  62
98
  6
CONTINUOUS
  0
LAYER
  2
CYAN1
  70
0
  62
138
  6
CONTINUOUS
  0
LAYER
  2
RED1
  70
0
  62
18
  6
CONTINUOUS
  0
LAYER
  2
MAGENTA1
  70
0
  62
228
  6
CONTINUOUS
  0
LAYER
  2
BROWN1
  70
0
  62
58
  6
CONTINUOUS
  0
LAYER
  2
BLUE2
  70
0
  62
5
  6
CONTINUOUS
  0
LAYER
  2
GREEN2
  70
0
  62
3
  6
CONTINUOUS
  0
LAYER
  2
CYAN2
  70
0
  62
4
  6
CONTINUOUS
  0
LAYER
  2
RED2
  70
0
  62
1
  6
CONTINUOUS
  0
LAYER
  2
MAGENTA2
  70
0
  62
6
  6
CONTINUOUS
  0
LAYER
  2
BROWN2
  70
0
  62
54
  6
CONTINUOUS
  0
LAYER
  2
BLUE3
  70
0
  62
171
  6
CONTINUOUS
  0
LAYER
  2
GREEN3
  70
0
  62
91
  6
CONTINUOUS
  0
LAYER
  2
CYAN3
  70
0
  62
131
  6
CONTINUOUS
  0
LAYER
  2
RED3
  70
0
  62
11
  6
CONTINUOUS
  0
LAYER
  2
MAGENTA3
  70
0
  62
221
  6
CONTINUOUS
  0
LAYER
  2
YELLOW3
  70
0
  62
2
  6
CONTINUOUS
  0
LAYER
  2
BLUE4
  70
0
  62
5
  6
CONTINUOUS
  0
LAYER
  2
GREEN4
  70
0
  62
3
  6
CONTINUOUS
  0
LAYER
  2
CYAN4
  70
0
  62
4
  6
CONTINUOUS
  0
LAYER
  2
RED4
  70
0
  62
1
  6
CONTINUOUS
  0
LAYER
  2
MAGENTA4
  70
0
  62
6
  6
CONTINUOUS
  0
LAYER
  2
YELLOW4
  70
0
  62
2
  6
CONTINUOUS
  0
ENDTAB
  0
ENDSEC
  0
SECTION
  2
ENTITIES
0
LINE
8
Black
10
191.072
20
-139.157
11
190.738
21
-138.681
0
LINE
8
Black
10
190.5
20
-139.157
11
190.5
21
-138.157
0
LINE
8
Black
10
190.5
20
-138.157
11
190.881
21
-138.157
0
LINE
8
Black
10
190.881
20
-138.157
11
190.976
21
-138.205
0
LINE
8
Black
10
190.976
20
-138.205
11
191.024
21
-138.253
0
LINE
8
Black
10
191.024
20
-138.253
11
191.072
21
-138.348
0
LINE
8
Black
10
191.072
20
-138.348
11
191.072
21
-138.491
0
LINE
8
Black
10
191.072
20
-138.491
11
191.024
21
-138.586
0
LINE
8
Black
10
191.024
20
-138.586
11
190.976
21
-138.634
0
LINE
8
Black
10
190.976
20
-138.634
11
190.881
21
-138.681
0
LINE
8
Black
10
190.881
20
-138.681
11
190.5
21
-138.681
0
LINE
8
Black
10
191.5
20
-138.634
11
191.834
21
-138.634
0
LINE
8
Black
10
191.976
20
-139.157
11
191.5
21
-139.157
0
LINE
8
Black
10
191.5
20
-139.157
11
191.5
21
-138.157
0
LINE
8
Black
10
191.5
20
-138.157
11
191.976
21
-138.157
0
LINE
8
Black
10
192.738
20
-138.634
11
192.405
21
-138.634
0
LINE
8
Black
10
192.405
20
-139.157
11
192.405
21
-138.157
0
LINE
8
Black
10
192.405
20
-138.157
11
192.881
21
-138.157
0
LINE
8
Black
10
193.405
20
-138.157
11
193.405
21
-138.395
0
LINE
8
Black
10
193.167
20
-138.3
11
193.405
21
-138.395
0
LINE
8
Black
10
193.405
20
-138.395
11
193.643
21
-138.3
0
LINE
8
Black
10
193.262
20
-138.586
11
193.405
21
-138.395
0
LINE
8
Black
10
193.405
20
-138.395
11
193.548
21
-138.586
0
LINE
8
Black
10
194.167
20
-138.157
11
194.167
21
-138.395
0
LINE
8
Black
10
193.929
20
-138.3
11
194.167
21
-138.395
0
LINE
8
Black
10
194.167
20
-138.395
11
194.405
21
-138.3
0
LINE
8
Black
10
194.024
20
-138.586
11
194.167
21
-138.395
0
LINE
8
Black
10
194.167
20
-138.395
11
194.31
21
-138.586
0
LINE
8
Black
10
213.932
20
-101.057
11
213.598
21
-100.581
0
LINE
8
Black
10
213.36
20
-101.057
11
213.36
21
-100.057
0
LINE
8
Black
10
213.36
20
-100.057
11
213.741
21
-100.057
0
LINE
8
Black
10
213.741
20
-100.057
11
213.836
21
-100.105
0
LINE
8
Black
10
213.836
20
-100.105
11
213.884
21
-100.153
0
LINE
8
Black
10
213.884
20
-100.153
11
213.932
21
-100.248
0
LINE
8
Black
10
213.932
20
-100.248
11
213.932
21
-100.391
0
LINE
8
Black
10
213.932
20
-100.391
11
213.884
21
-100.486
0
LINE
8
Black
10
213.884
20
-100.486
11
213.836
21
-100.534
0
LINE
8
Black
10
213.836
20
-100.534
11
213.741
21
-100.581
0
LINE
8
Black
10
213.741
20
-100.581
11
213.36
21
-100.581
0
LINE
8
Black
10
214.36
20
-100.534
11
214.694
21
-100.534
0
LINE
8
Black
10
214.836
20
-101.057
11
214.36
21
-101.057
0
LINE
8
Black
10
214.36
20
-101.057
11
214.36
21
-100.057
0
LINE
8
Black
10
214.36
20
-100.057
11
214.836
21
-100.057
0
LINE
8
Black
10
215.598
20
-100.534
11
215.265
21
-100.534
0
LINE
8
Black
10
215.265
20
-101.057
11
215.265
21
-100.057
0
LINE
8
Black
10
215.265
20
-100.057
11
215.741
21
-100.057
0
LINE
8
Black
10
216.265
20
-100.057
11
216.265
21
-100.295
0
LINE
8
Black
10
216.027
20
-100.2
11
216.265
21
-100.295
0
LINE
8
Black
10
216.265
20
-100.295
11
216.503
21
-100.2
0
LINE
8
Black
10
216.122
20
-100.486
11
216.265
21
-100.295
0
LINE
8
Black
10
216.265
20
-100.295
11
216.408
21
-100.486
0
LINE
8
Black
10
217.027
20
-100.057
11
217.027
21
-100.295
0
LINE
8
Black
10
216.789
20
-100.2
11
217.027
21
-100.295
0
LINE
8
Black
10
217.027
20
-100.295
11
217.265
21
-100.2
0
LINE
8
Black
10
216.884
20
-100.486
11
217.027
21
-100.295
0
LINE
8
Black
10
217.027
20
-100.295
11
217.17
21
-100.486
0
LINE
8
Black
10
209.487
20
-41.3674
11
209.153
21
-40.8912
0
LINE
8
Black
10
208.915
20
-41.3674
11
208.915
21
-40.3674
0
LINE
8
Black
10
208.915
20
-40.3674
11
209.296
21
-40.3674
0
LINE
8
Black
10
209.296
20
-40.3674
11
209.391
21
-40.415
0
LINE
8
Black
10
209.391
20
-40.415
11
209.439
21
-40.4626
0
LINE
8
Black
10
209.439
20
-40.4626
11
209.487
21
-40.5579
0
LINE
8
Black
10
209.487
20
-40.5579
11
209.487
21
-40.7007
0
LINE
8
Black
10
209.487
20
-40.7007
11
209.439
21
-40.796
0
LINE
8
Black
10
209.439
20
-40.796
11
209.391
21
-40.8436
0
LINE
8
Black
10
209.391
20
-40.8436
11
209.296
21
-40.8912
0
LINE
8
Black
10
209.296
20
-40.8912
11
208.915
21
-40.8912
0
LINE
8
Black
10
209.915
20
-40.8436
11
210.249
21
-40.8436
0
LINE
8
Black
10
210.391
20
-41.3674
11
209.915
21
-41.3674
0
LINE
8
Black
10
209.915
20
-41.3674
11
209.915
21
-40.3674
0
LINE
8
Black
10
209.915
20
-40.3674
11
210.391
21
-40.3674
0
LINE
8
Black
10
211.153
20
-40.8436
11
210.82
21
-40.8436
0
LINE
8
Black
10
210.82
20
-41.3674
11
210.82
21
-40.3674
0
LINE
8
Black
10
210.82
20
-40.3674
11
211.296
21
-40.3674
0
LINE
8
Black
10
211.82
20
-40.3674
11
211.82
21
-40.6055
0
LINE
8
Black
10
211.582
20
-40.5102
11
211.82
21
-40.6055
0
LINE
8
Black
10
211.82
20
-40.6055
11
212.058
21
-40.5102
0
LINE
8
Black
10
211.677
20
-40.796
11
211.82
21
-40.6055
0
LINE
8
Black
10
211.82
20
-40.6055
11
211.963
21
-40.796
0
LINE
8
Black
10
212.582
20
-40.3674
11
212.582
21
-40.6055
0
LINE
8
Black
10
212.344
20
-40.5102
11
212.582
21
-40.6055
0
LINE
8
Black
10
212.582
20
-40.6055
11
212.82
21
-40.5102
0
LINE
8
Black
10
212.439
20
-40.796
11
212.582
21
-40.6055
0
LINE
8
Black
10
212.582
20
-40.6055
11
212.725
21
-40.796
0
LINE
8
Black
10
70.4217
20
-130.267
11
70.0883
21
-129.791
0
LINE
8
Black
10
69.8502
20
-130.267
11
69.8502
21
-129.267
0
LINE
8
Black
10
69.8502
20
-129.267
11
70.2312
21
-129.267
0
LINE
8
Black
10
70.2312
20
-129.267
11
70.3264
21
-129.315
0
LINE
8
Black
10
70.3264
20
-129.315
11
70.374
21
-129.363
0
LINE
8
Black
10
70.374
20
-129.363
11
70.4217
21
-129.458
0
LINE
8
Black
10
70.4217
20
-129.458
11
70.4217
21
-129.601
0
LINE
8
Black
10
70.4217
20
-129.601
11
70.374
21
-129.696
0
LINE
8
Black
10
70.374
20
-129.696
11
70.3264
21
-129.744
0
LINE
8
Black
10
70.3264
20
-129.744
11
70.2312
21
-129.791
0
LINE
8
Black
10
70.2312
20
-129.791
11
69.8502
21
-129.791
0
LINE
8
Black
10
70.8502
20
-129.744
11
71.1836
21
-129.744
0
LINE
8
Black
10
71.3264
20
-130.267
11
70.8502
21
-130.267
0
LINE
8
Black
10
70.8502
20
-130.267
11
70.8502
21
-129.267
0
LINE
8
Black
10
70.8502
20
-129.267
11
71.3264
21
-129.267
0
LINE
8
Black
10
72.0883
20
-129.744
11
71.755
21
-129.744
0
LINE
8
Black
10
71.755
20
-130.267
11
71.755
21
-129.267
0
LINE
8
Black
10
71.755
20
-129.267
11
72.2312
21
-129.267
0
LINE
8
Black
10
72.755
20
-129.267
11
72.755
21
-129.505
0
LINE
8
Black
10
72.5169
20
-129.41
11
72.755
21
-129.505
0
LINE
8
Black
10
72.755
20
-129.505
11
72.9931
21
-129.41
0
LINE
8
Black
10
72.6121
20
-129.696
11
72.755
21
-129.505
0
LINE
8
Black
10
72.755
20
-129.505
11
72.8979
21
-129.696
0
LINE
8
Black
10
73.5169
20
-129.267
11
73.5169
21
-129.505
0
LINE
8
Black
10
73.2788
20
-129.41
11
73.5169
21
-129.505
0
LINE
8
Black
10
73.5169
20
-129.505
11
73.755
21
-129.41
0
LINE
8
Black
10
73.374
20
-129.696
11
73.5169
21
-129.505
0
LINE
8
Black
10
73.5169
20
-129.505
11
73.6598
21
-129.696
0
LINE
8
Black
10
71.0567
20
-90.2624
11
70.7233
21
-89.7862
0
LINE
8
Black
10
70.4852
20
-90.2624
11
70.4852
21
-89.2624
0
LINE
8
Black
10
70.4852
20
-89.2624
11
70.8662
21
-89.2624
0
LINE
8
Black
10
70.8662
20
-89.2624
11
70.9614
21
-89.31
0
LINE
8
Black
10
70.9614
20
-89.31
11
71.009
21
-89.3576
0
LINE
8
Black
10
71.009
20
-89.3576
11
71.0567
21
-89.4529
0
LINE
8
Black
10
71.0567
20
-89.4529
11
71.0567
21
-89.5957
0
LINE
8
Black
10
71.0567
20
-89.5957
11
71.009
21
-89.691
0
LINE
8
Black
10
71.009
20
-89.691
11
70.9614
21
-89.7386
0
LINE
8
Black
10
70.9614
20
-89.7386
11
70.8662
21
-89.7862
0
LINE
8
Black
10
70.8662
20
-89.7862
11
70.4852
21
-89.7862
0
LINE
8
Black
10
71.4852
20
-89.7386
11
71.8186
21
-89.7386
0
LINE
8
Black
10
71.9614
20
-90.2624
11
71.4852
21
-90.2624
0
LINE
8
Black
10
71.4852
20
-90.2624
11
71.4852
21
-89.2624
0
LINE
8
Black
10
71.4852
20
-89.2624
11
71.9614
21
-89.2624
0
LINE
8
Black
10
72.7233
20
-89.7386
11
72.39
21
-89.7386
0
LINE
8
Black
10
72.39
20
-90.2624
11
72.39
21
-89.2624
0
LINE
8
Black
10
72.39
20
-89.2624
11
72.8662
21
-89.2624
0
LINE
8
Black
10
73.39
20
-89.2624
11
73.39
21
-89.5005
0
LINE
8
Black
10
73.1519
20
-89.4052
11
73.39
21
-89.5005
0
LINE
8
Black
10
73.39
20
-89.5005
11
73.6281
21
-89.4052
0
LINE
8
Black
10
73.2471
20
-89.691
11
73.39
21
-89.5005
0
LINE
8
Black
10
73.39
20
-89.5005
11
73.5329
21
-89.691
0
LINE
8
Black
10
74.1519
20
-89.2624
11
74.1519
21
-89.5005
0
LINE
8
Black
10
73.9138
20
-89.4052
11
74.1519
21
-89.5005
0
LINE
8
Black
10
74.1519
20
-89.5005
11
74.39
21
-89.4052
0
LINE
8
Black
10
74.009
20
-89.691
11
74.1519
21
-89.5005
0
LINE
8
Black
10
74.1519
20
-89.5005
11
74.2948
21
-89.691
0
LINE
8
Black
10
71.0567
20
-49.6224
11
70.7233
21
-49.1462
0
LINE
8
Black
10
70.4852
20
-49.6224
11
70.4852
21
-48.6224
0
LINE
8
Black
10
70.4852
20
-48.6224
11
70.8662
21
-48.6224
0
LINE
8
Black
10
70.8662
20
-48.6224
11
70.9614
21
-48.67
0
LINE
8
Black
10
70.9614
20
-48.67
11
71.009
21
-48.7176
0
LINE
8
Black
10
71.009
20
-48.7176
11
71.0567
21
-48.8129
0
LINE
8
Black
10
71.0567
20
-48.8129
11
71.0567
21
-48.9557
0
LINE
8
Black
10
71.0567
20
-48.9557
11
71.009
21
-49.051
0
LINE
8
Black
10
71.009
20
-49.051
11
70.9614
21
-49.0986
0
LINE
8
Black
10
70.9614
20
-49.0986
11
70.8662
21
-49.1462
0
LINE
8
Black
10
70.8662
20
-49.1462
11
70.4852
21
-49.1462
0
LINE
8
Black
10
71.4852
20
-49.0986
11
71.8186
21
-49.0986
0
LINE
8
Black
10
71.9614
20
-49.6224
11
71.4852
21
-49.6224
0
LINE
8
Black
10
71.4852
20
-49.6224
11
71.4852
21
-48.6224
0
LINE
8
Black
10
71.4852
20
-48.6224
11
71.9614
21
-48.6224
0
LINE
8
Black
10
72.7233
20
-49.0986
11
72.39
21
-49.0986
0
LINE
8
Black
10
72.39
20
-49.6224
11
72.39
21
-48.6224
0
LINE
8
Black
10
72.39
20
-48.6224
11
72.8662
21
-48.6224
0
LINE
8
Black
10
73.39
20
-48.6224
11
73.39
21
-48.8605
0
LINE
8
Black
10
73.1519
20
-48.7652
11
73.39
21
-48.8605
0
LINE
8
Black
10
73.39
20
-48.8605
11
73.6281
21
-48.7652
0
LINE
8
Black
10
73.2471
20
-49.051
11
73.39
21
-48.8605
0
LINE
8
Black
10
73.39
20
-48.8605
11
73.5329
21
-49.051
0
LINE
8
Black
10
74.1519
20
-48.6224
11
74.1519
21
-48.8605
0
LINE
8
Black
10
73.9138
20
-48.7652
11
74.1519
21
-48.8605
0
LINE
8
Black
10
74.1519
20
-48.8605
11
74.39
21
-48.7652
0
LINE
8
Black
10
74.009
20
-49.051
11
74.1519
21
-48.8605
0
LINE
8
Black
10
74.1519
20
-48.8605
11
74.2948
21
-49.051
0
LINE
8
Black
10
130.747
20
-130.267
11
130.413
21
-129.791
0
LINE
8
Black
10
130.175
20
-130.267
11
130.175
21
-129.267
0
LINE
8
Black
10
130.175
20
-129.267
11
130.556
21
-129.267
0
LINE
8
Black
10
130.556
20
-129.267
11
130.651
21
-129.315
0
LINE
8
Black
10
130.651
20
-129.315
11
130.699
21
-129.363
0
LINE
8
Black
10
130.699
20
-129.363
11
130.747
21
-129.458
0
LINE
8
Black
10
130.747
20
-129.458
11
130.747
21
-129.601
0
LINE
8
Black
10
130.747
20
-129.601
11
130.699
21
-129.696
0
LINE
8
Black
10
130.699
20
-129.696
11
130.651
21
-129.744
0
LINE
8
Black
10
130.651
20
-129.744
11
130.556
21
-129.791
0
LINE
8
Black
10
130.556
20
-129.791
11
130.175
21
-129.791
0
LINE
8
Black
10
131.175
20
-129.744
11
131.509
21
-129.744
0
LINE
8
Black
10
131.651
20
-130.267
11
131.175
21
-130.267
0
LINE
8
Black
10
131.175
20
-130.267
11
131.175
21
-129.267
0
LINE
8
Black
10
131.175
20
-129.267
11
131.651
21
-129.267
0
LINE
8
Black
10
132.413
20
-129.744
11
132.08
21
-129.744
0
LINE
8
Black
10
132.08
20
-130.267
11
132.08
21
-129.267
0
LINE
8
Black
10
132.08
20
-129.267
11
132.556
21
-129.267
0
LINE
8
Black
10
133.08
20
-129.267
11
133.08
21
-129.505
0
LINE
8
Black
10
132.842
20
-129.41
11
133.08
21
-129.505
0
LINE
8
Black
10
133.08
20
-129.505
11
133.318
21
-129.41
0
LINE
8
Black
10
132.937
20
-129.696
11
133.08
21
-129.505
0
LINE
8
Black
10
133.08
20
-129.505
11
133.223
21
-129.696
0
LINE
8
Black
10
133.842
20
-129.267
11
133.842
21
-129.505
0
LINE
8
Black
10
133.604
20
-129.41
11
133.842
21
-129.505
0
LINE
8
Black
10
133.842
20
-129.505
11
134.08
21
-129.41
0
LINE
8
Black
10
133.699
20
-129.696
11
133.842
21
-129.505
0
LINE
8
Black
10
133.842
20
-129.505
11
133.985
21
-129.696
0
LINE
8
Black
10
168.847
20
-41.3674
11
168.513
21
-40.8912
0
LINE
8
Black
10
168.275
20
-41.3674
11
168.275
21
-40.3674
0
LINE
8
Black
10
168.275
20
-40.3674
11
168.656
21
-40.3674
0
LINE
8
Black
10
168.656
20
-40.3674
11
168.751
21
-40.415
0
LINE
8
Black
10
168.751
20
-40.415
11
168.799
21
-40.4626
0
LINE
8
Black
10
168.799
20
-40.4626
11
168.847
21
-40.5579
0
LINE
8
Black
10
168.847
20
-40.5579
11
168.847
21
-40.7007
0
LINE
8
Black
10
168.847
20
-40.7007
11
168.799
21
-40.796
0
LINE
8
Black
10
168.799
20
-40.796
11
168.751
21
-40.8436
0
LINE
8
Black
10
168.751
20
-40.8436
11
168.656
21
-40.8912
0
LINE
8
Black
10
168.656
20
-40.8912
11
168.275
21
-40.8912
0
LINE
8
Black
10
169.275
20
-40.8436
11
169.609
21
-40.8436
0
LINE
8
Black
10
169.751
20
-41.3674
11
169.275
21
-41.3674
0
LINE
8
Black
10
169.275
20
-41.3674
11
169.275
21
-40.3674
0
LINE
8
Black
10
169.275
20
-40.3674
11
169.751
21
-40.3674
0
LINE
8
Black
10
170.513
20
-40.8436
11
170.18
21
-40.8436
0
LINE
8
Black
10
170.18
20
-41.3674
11
170.18
21
-40.3674
0
LINE
8
Black
10
170.18
20
-40.3674
11
170.656
21
-40.3674
0
LINE
8
Black
10
171.18
20
-40.3674
11
171.18
21
-40.6055
0
LINE
8
Black
10
170.942
20
-40.5102
11
171.18
21
-40.6055
0
LINE
8
Black
10
171.18
20
-40.6055
11
171.418
21
-40.5102
0
LINE
8
Black
10
171.037
20
-40.796
11
171.18
21
-40.6055
0
LINE
8
Black
10
171.18
20
-40.6055
11
171.323
21
-40.796
0
LINE
8
Black
10
171.942
20
-40.3674
11
171.942
21
-40.6055
0
LINE
8
Black
10
171.704
20
-40.5102
11
171.942
21
-40.6055
0
LINE
8
Black
10
171.942
20
-40.6055
11
172.18
21
-40.5102
0
LINE
8
Black
10
171.799
20
-40.796
11
171.942
21
-40.6055
0
LINE
8
Black
10
171.942
20
-40.6055
11
172.085
21
-40.796
0
LINE
8
Black
10
114.872
20
-41.3674
11
114.538
21
-40.8912
0
LINE
8
Black
10
114.3
20
-41.3674
11
114.3
21
-40.3674
0
LINE
8
Black
10
114.3
20
-40.3674
11
114.681
21
-40.3674
0
LINE
8
Black
10
114.681
20
-40.3674
11
114.776
21
-40.415
0
LINE
8
Black
10
114.776
20
-40.415
11
114.824
21
-40.4626
0
LINE
8
Black
10
114.824
20
-40.4626
11
114.872
21
-40.5579
0
LINE
8
Black
10
114.872
20
-40.5579
11
114.872
21
-40.7007
0
LINE
8
Black
10
114.872
20
-40.7007
11
114.824
21
-40.796
0
LINE
8
Black
10
114.824
20
-40.796
11
114.776
21
-40.8436
0
LINE
8
Black
10
114.776
20
-40.8436
11
114.681
21
-40.8912
0
LINE
8
Black
10
114.681
20
-40.8912
11
114.3
21
-40.8912
0
LINE
8
Black
10
115.3
20
-40.8436
11
115.634
21
-40.8436
0
LINE
8
Black
10
115.776
20
-41.3674
11
115.3
21
-41.3674
0
LINE
8
Black
10
115.3
20
-41.3674
11
115.3
21
-40.3674
0
LINE
8
Black
10
115.3
20
-40.3674
11
115.776
21
-40.3674
0
LINE
8
Black
10
116.538
20
-40.8436
11
116.205
21
-40.8436
0
LINE
8
Black
10
116.205
20
-41.3674
11
116.205
21
-40.3674
0
LINE
8
Black
10
116.205
20
-40.3674
11
116.681
21
-40.3674
0
LINE
8
Black
10
117.205
20
-40.3674
11
117.205
21
-40.6055
0
LINE
8
Black
10
116.967
20
-40.5102
11
117.205
21
-40.6055
0
LINE
8
Black
10
117.205
20
-40.6055
11
117.443
21
-40.5102
0
LINE
8
Black
10
117.062
20
-40.796
11
117.205
21
-40.6055
0
LINE
8
Black
10
117.205
20
-40.6055
11
117.348
21
-40.796
0
LINE
8
Black
10
117.967
20
-40.3674
11
117.967
21
-40.6055
0
LINE
8
Black
10
117.729
20
-40.5102
11
117.967
21
-40.6055
0
LINE
8
Black
10
117.967
20
-40.6055
11
118.205
21
-40.5102
0
LINE
8
Black
10
117.824
20
-40.796
11
117.967
21
-40.6055
0
LINE
8
Black
10
117.967
20
-40.6055
11
118.11
21
-40.796
  0
ENDSEC
  0
EOF
